<svg id="Ebene_1" data-name="Ebene 1" xmlns="http://www.w3.org/2000/svg" viewBox="0 0 562.99 600"><path d="M31.61,543.86c.87,22.74,21.32,44.56,26.34,49.52s30.92,1.36,37.25,2.29,7.31-4.53,4.58-6.38-28.19-1.8-28.63-6.33-2.29-24.1-2.29-24.1,31.79-9.55,41.83-20.89c-2.29,8.62,8.61,6.33,17.72-.49s19.53-15.43,24.54-26.34,10.42-49.52,10-51.37c0,0-28.19-25.42-49.52-6.82-8.67,20-49.08,35-49.57,37.3s7.31,5.89,7.31,5.89A153.57,153.57,0,0,0,48.35,514a.63.63,0,0,0-.16.21C39.25,522.86,31.18,533.55,31.61,543.86Z" transform="translate(-18.5)" style="fill:#966f4b"/><path d="M424,222.78c25.23,30,40.91,86.58,27.27,87.26,26.59,44.31,48.4,121.34,25.91,113.84,22.49,55.9,19.08,120.66,18.4,128.84s-23.18,0-23.18,0-10.9,19.09-18.4,9.55-11.59-57.27-20.45-70.9C422,505.69,421.3,464.1,402.89,408.89c-11.59,21.13-19.77-18.41-32.72-51.81s33.4-152,33.4-152Z" transform="translate(-18.5)" style="fill:#966f4b"/><path d="M491.17,554.43c3.16,5.27-1.7,37.49-5.79,38.85s-7.84,2.39-9.21-1,1.37-34.76,3.75-38.17S489.13,551,491.17,554.43Z" transform="translate(-18.5)" style="fill:#ddc5a8"/><path d="M476.56,555.58c3.61,5,1.57,37.5-2.38,39.21s-7.6,3.06-9.26-.21-1.68-34.76.4-38.36S474.22,552.36,476.56,555.58Z" transform="translate(-18.5)" style="fill:#ddc5a8"/><path d="M464.63,554.89c3.61,5,1.57,37.5-2.38,39.22s-7.6,3.06-9.26-.22-1.68-34.75.4-38.35S462.29,551.68,464.63,554.89Z" transform="translate(-18.5)" style="fill:#ddc5a8"/><path d="M451.77,559.38c3.4,4.69,1.48,35.34-2.25,37s-7.16,2.88-8.72-.21-1.58-32.75.38-36.14S449.57,556.35,451.77,559.38Z" transform="translate(-18.5)" style="fill:#ddc5a8"/><path d="M505.15,588.17c-.29,5.19-6.14,10.23-10.57,6.82s-11.93-26.25-9.2-29.31,9.2-2.39,11.93,1S505.49,582,505.15,588.17Z" transform="translate(-18.5)" style="fill:#ddc5a8"/><path d="M29.32,360.46c-2.73,68.17,18.38,86.6,22.52,70.89,42.21,40.25,66.76,36.16,64,26C151.32,473,197,468.22,197,468.22S147.94,527.5,149.3,533c.87,3.44,4.14,4.69,6.49,5.18a13.2,13.2,0,0,0,2.4.28l-.06.05a11.73,11.73,0,0,1-.81,1.31c-5.08,7.69-29.62,46.52-15.49,53.88,15.65,8.18,116.54,7.47,116.54,3.38s-23.18-6.81-28-7.52-30.65-14.29-30.65-14.29S220.2,565,235.85,548.61c6.87,10.25,22.52-13.64,35.45-57.27,22.52-.65-.66-44.28-29.29-60.64,17.72-6.82-13.63-29.34-52.52-43.63,5.46-44.28,35.45-66.81,35.45-66.81s1.42,20.46,8.18,10.91S255.64,303.9,287,278l85.19-109.07s13.63-62.72-6.77-100.24a163.84,163.84,0,0,0-17.23-8C298.56,40.93,247.52,48,271.3,63.24c-63.37,1.41-138.36,30.7-111.8,42.32-26.56,6.76-92.71,57.26-66.1,66.75l-1.09.76c-26.89,19.53-75.48,87.26-43.9,91.3C21.14,301.89,7.51,373.44,29.32,360.46Z" transform="translate(-18.5)" style="fill:#a67c52"/><path d="M189.49,387.07c5.46-44.28,35.45-66.81,35.45-66.81s1.42,20.46,8.18,10.91S255.64,303.9,287,278l85.19-109.07s13.63-62.72-6.77-100.24a163.84,163.84,0,0,0-17.23-8c6.49,18.6-1.36,95.71-13,88.24-7.26,5.46-39.05,85.46-50,58.19-9.11,25.47-33.65,89.06-50,79.08C227,295.29,183.77,348,189.49,387.07Z" transform="translate(-18.5)" style="fill:#966f4b"/><path d="M141.83,593.65c15.65,8.18,116.54,7.47,116.54,3.38s-23.18-6.81-28-7.52-30.65-14.29-30.65-14.29c-11.94,6.11-16.36-8.84-16.36-8.84s-8.5,5.79-17.39,0-6.82-11.94-6.82-11.94A7.61,7.61,0,0,1,152,555.8c-3.38-1.14,2.94-12.16,5.29-16C152.24,547.46,127.7,586.29,141.83,593.65Z" transform="translate(-18.5)" style="fill:#ddc5a8"/><path d="M31.61,543.86c.87,22.74,21.32,44.56,26.34,49.52s30.92,1.36,37.25,2.29,7.31-4.53,4.58-6.38-28.19-1.8-28.63-6.33-2.29-24.1-2.29-24.1C62.75,564,53.15,555.8,62.75,549c-14,1.36-19.47-6.16-12.65-12-11.56,1.37-11.56-12.59-4.75-19.74.93-1,1.91-2,2.84-3.11C39.25,522.86,31.18,533.55,31.61,543.86Z" transform="translate(-18.5)" style="fill:#ddc5a8"/><path d="M487.42,215.94C518.13,228.26,561,211.19,566.5,203c4.47-6.71,11.72-26.77,14.18-37.14a28.69,28.69,0,0,0,.82-5.12,8.1,8.1,0,0,0-.44-2.18c-2.78-8.57-18-30.54-18-30.54s4.8-13.64,1.42-16.37c-6.87-5.45-34.14-35.44-36.16-41.55s1.37-27.27-5.45-33.43c-11.62-5.46-80.44,0-85.89,21.81S456.72,203.72,487.42,215.94Z" transform="translate(-18.5)" style="fill:#ddc5a8"/><path d="M403.6,220.08c70.9,30.65,102.2,8.18,98.16.66a45.48,45.48,0,0,1-4.69-13.53c-5.23-28,11.46-61.46,11.46-61.46S464.9,143,453.34,99.39s38.83-71.6,69.53-62.71c-32-22.2-59.23-31.74-79.19-35.12-.05-.06-.05-.06-.11,0C421.92-2.1,408.73,1.5,407,4c-3.38,4.74,6.82,12.92,6.82,12.92s-33.43,2.73-44.34,26S332.7,189.38,403.6,220.08Z" transform="translate(-18.5)" style="fill:#a67c52"/><path d="M403.6,220.08c70.9,30.65,102.2,8.18,98.16.66a45.48,45.48,0,0,1-4.69-13.53c-11.28,7.36-26.83,7.09-39.43,1.75-14-6-25.08-17.13-35.06-28.63-15-17.35-28.69-36.38-36.1-58.08s-8.13-46.47,2.18-67S421.32,19.77,444.17,22c-6.1-.6-14.45-8.07-11.18-14.78,1.59-3.22,5.19-5.07,8.78-5.56.6-.06,1.2-.11,1.8-.11C421.92-2.1,408.73,1.5,407,4c-3.38,4.74,6.82,12.92,6.82,12.92s-33.43,2.73-44.34,26S332.7,189.38,403.6,220.08Z" transform="translate(-18.5)" style="fill:#966f4b"/><path d="M419.25,86.44c-43.21-37-66.57,38.69-32.72,68.17,21.13,18.41,46.36,2.73,49.76-16.36S433.57,98.71,419.25,86.44Z" transform="translate(-18.5)" style="fill:#ddc5a8"/><path d="M414.52,98.16c-28-24-43.08,25-21.17,44.11,13.67,11.91,30,1.76,32.2-10.59S423.79,106.1,414.52,98.16Z" transform="translate(-18.5)" style="fill:#c9af93"/><path d="M513.33,75.54c8.82-2.21,12.27,16.36,5.45,17.72S505.15,77.58,513.33,75.54Z" transform="translate(-18.5)" style="fill:#58391b"/><path d="M548.77,166.2a219.19,219.19,0,0,1,31.91-.33,28.69,28.69,0,0,0,.82-5.12,8.1,8.1,0,0,0-.44-2.18A204.4,204.4,0,0,0,548.77,166.2Z" transform="translate(-18.5)" style="fill:#58391b"/><path d="M335.06,580.67s-3.07-21.81-10.22-23.52,0,38.52,0,38.52Z" transform="translate(-18.5)" style="fill:#916f61"/><path d="M389.6,548s-4.09,39.88-10.91,45.67-46.35,5.12-53.85,2,22.83-40.22,22.83-40.22l5.8-29.65,32.38,8.86Z" transform="translate(-18.5)" style="fill:#ddc5a8"/><path d="M255.64,404.79c2,9.55,14.35,2.73,14.35,2.73s-10.91,15-4.8,19.8,10.9-8.89,10.9-8.89,6.11,23.18,23.18,58.62c15.27,31.69,40.25,62.23,45.38,68.39l1,1.15s-5.46,18.38,2,19.09S358.55,550,358.55,550s3.44,14.29,10.26,15.66,9.54-14.35,9.54-14.35,3.44,10.26,8.18,10.26,10.2-30.65,7.47-55.9c13.64,1.36-9.49-38.89-15.65-69.54s-4.75-88.62-4.75-88.62,10.91,8.89,10.91-3.43,10.2-57.92,19.09-90,17.72-80.76-17.07-99.47c-35.45-19.09-107,68.17-77.71,67.46-3.49,5-6.82,10.14-9.93,15.27-25.25,41.77-36.16,85.24-17.34,82.19-7.53,11.61-8.18,77.76-8.18,77.76S253.63,395.25,255.64,404.79Z" transform="translate(-18.5)" style="fill:#a67c52"/><path d="M255.64,404.79c2,9.55,14.35,2.73,14.35,2.73s-10.91,15-4.8,19.8,10.9-8.89,10.9-8.89,6.11,23.18,23.18,58.62c15.27,31.69,40.25,62.23,45.38,68.39a218.92,218.92,0,0,1-25.47-94.23c-4.69,1.41-9.87-1.37-12.76-5.35s-3.93-8.94-4.75-13.8a233.16,233.16,0,0,1-.11-78.31c-.27,3.54-5.78,4.36-8.34,1.85s-2.84-6.38-2.89-9.92c-.93-36.21.6-73,8.56-108.31-25.25,41.77-36.16,85.24-17.34,82.19-7.53,11.61-8.18,77.76-8.18,77.76S253.63,395.25,255.64,404.79Z" transform="translate(-18.5)" style="fill:#966f4b"/><path d="M182.35,522.7c-.77.33-1.53.66-2.29,1A2.92,2.92,0,0,0,182.35,522.7Z" transform="translate(-18.5)" style="fill:#966f4b"/><path d="M174.82,456a31,31,0,0,0,3.22.82A3,3,0,0,0,174.82,456Z" transform="translate(-18.5)" style="fill:#966f4b"/><path d="M29.32,360.46c-2.73,68.17,18.38,86.6,22.52,70.89,42.21,40.25,66.76,36.16,64,26C151.32,473,197,468.22,197,468.22S147.94,527.5,149.3,533c.87,3.44,4.14,4.69,6.49,5.18A131.6,131.6,0,0,1,180,523.74a5.05,5.05,0,0,1-4.36-2.84c-1.2-2.51-.5-5.45.32-8.12,6.06-19.47,16.85-38.23,33.22-50.4-10.15-3-20.84-3.1-31.09-5.61a3.69,3.69,0,0,1,1.2,2.67c-.05,2.18-1.85,4-3.93,4.8a14.59,14.59,0,0,1-6.49.44,91.28,91.28,0,0,1-59-30.6,44.13,44.13,0,0,1-52.14-51.64c-4.25.43-8.13-2.95-9.71-6.88s-1.36-8.34-1.09-12.59a320.08,320.08,0,0,1,16-79c-3.49-.49-7-1-10.58-1.52A203.66,203.66,0,0,1,92.8,173c-.16,0-.33,0-.49,0-26.89,19.53-75.48,87.26-43.9,91.3C21.14,301.89,7.51,373.44,29.32,360.46Z" transform="translate(-18.5)" style="fill:#966f4b"/></svg>