<svg id="Ebene_1" data-name="Ebene 1" xmlns="http://www.w3.org/2000/svg" viewBox="0 0 519.86 600"><path id="background" d="M299.75,600,40.07,449.79l.25-300L300.25,0,559.93,150.21l-.25,300Z" transform="translate(-40.07)" style="fill:#62be75"/><g id="Biologie"><path d="M299.85,481.67l-157.58-91L142.42,209l157.73-90.71,157.58,91L457.58,391ZM161.29,379.76l138.58,80L438.58,380l.13-159.75-138.58-80L161.42,220Z" transform="translate(-40.07)" style="fill:#f6f6f6"/><path d="M226.29,357.27,218,352.56c16-28,40.11-23.77,61.36-20.06,20.79,3.63,38.74,6.76,51.46-15.43s.9-36.06-12.78-52.11c-14-16.39-29.8-35-13.79-62.91l8.26,4.71c-12.71,22.16-.9,36,12.77,52.06,14,16.39,29.83,35,13.79,63S299,345.55,277.76,341.84C257,338.21,239,335.07,226.29,357.27Z" transform="translate(-40.07)" style="fill:#f6f6f6"/><path d="M296,397l-8.26-4.71c12.72-22.2.91-36.05-12.77-52.09-14-16.38-29.83-35-13.79-62.94s40.12-23.78,61.37-20.07c20.79,3.62,38.74,6.75,51.44-15.41l8.26,4.71c-16,28-40.09,23.75-61.33,20-20.8-3.62-38.77-6.76-51.49,15.44s-.9,36.05,12.78,52.08C296.18,350.48,312,369.06,296,397Z" transform="translate(-40.07)" style="fill:#f6f6f6"/><polygon points="256.34 382.53 190.29 344.84 191.94 341.95 257.99 379.64 256.34 382.53" style="fill:#f6f6f6"/><polygon points="255.31 365.35 205.65 337.01 207.3 334.13 256.96 362.46 255.31 365.35" style="fill:#f6f6f6"/><polygon points="269.7 340.24 220.04 311.9 221.69 309.02 271.35 337.35 269.7 340.24" style="fill:#f6f6f6"/><polygon points="285.08 332.37 219.03 294.68 220.68 291.8 286.73 329.49 285.08 332.37" style="fill:#f6f6f6"/><polygon points="294.07 320.89 224.38 281.13 226.03 278.24 295.73 318.01 294.07 320.89" style="fill:#f6f6f6"/><polygon points="299.45 307.3 233.4 269.61 235.05 266.73 301.1 304.42 299.45 307.3" style="fill:#f6f6f6"/><polygon points="328.19 257.14 262.14 219.45 263.8 216.57 329.84 254.26 328.19 257.14" style="fill:#f6f6f6"/><polygon points="298.45 290.06 248.79 261.73 250.44 258.85 300.1 287.18 298.45 290.06" style="fill:#f6f6f6"/><polygon points="312.84 264.95 263.18 236.62 264.83 233.74 314.49 262.07 312.84 264.95" style="fill:#f6f6f6"/><path d="M380,246.7" transform="translate(-40.07)" style="fill:#f6f6f6;stroke:#fff;stroke-miterlimit:10;stroke-width:1.3586664421733616px"/><path d="M305.12,204" transform="translate(-40.07)" style="fill:#f6f6f6;stroke:#fff;stroke-miterlimit:10;stroke-width:1.3586664421733616px"/><path d="M294.89,395.11" transform="translate(-40.07)" style="fill:#f6f6f6;stroke:#fff;stroke-miterlimit:10;stroke-width:1.3586664421733616px"/><path d="M220,352.39" transform="translate(-40.07)" style="fill:#f6f6f6;stroke:#fff;stroke-miterlimit:10;stroke-width:1.3586664421733616px"/></g></svg>