<svg xmlns="http://www.w3.org/2000/svg" viewBox="0 0 600 582.31"><g style="isolation:isolate"><g id="Ebene_1" data-name="Ebene 1"><path d="M358.47,313.07c-33.42,9.18-81.05-14.94-104.68-23-29.91-10.23-94.62,23.4-105.46,44.9C133.65,364,0,464,0,464s24.42,41,57.43,74c35.17,35.09,66.24,53.15,66.24,53.15s62.76-99.66,88.61-107c24.13-6.9,142,14.62,233.57-41.31C445.85,442.8,391.89,303.89,358.47,313.07Z" transform="translate(0 -8.84)" style="fill:#fdb"/><path d="M354.29,316s48-21.92,56.39-29.24,34.46-55.34,45.95-77.27,47-15.66,39.67,18.8-25.85,73.06-41.76,92.78c-11.19,13.87-77.27,39.83-77.27,39.83Z" transform="translate(0 -8.84)" style="fill:#fdb"/><path d="M433.53,287.66c17.07-20,12.11-47.8,27.91-67.86a75.17,75.17,0,0,1,25.29-20.63c-9.75-5.38-23.68-2-30.1,10.31-11.49,21.93-37.6,70-45.95,77.27S354.29,316,354.29,316l2.43,4.74C385.13,318.71,414.55,309.85,433.53,287.66Z" transform="translate(0 -8.84)" style="fill:#e3dad4;mix-blend-mode:multiply"/><path d="M356.53,347.9s93.69-59,103.45-67.57,40.24-64.64,53.66-90.25S568.52,171.79,560,212,529.71,297.31,511.2,320.4C485,353.13,387.86,401.16,387.86,401.16Z" transform="translate(0 -8.84)" style="fill:#fdb"/><path d="M463,297.79c32.81-23.21,48.91-47.6,59.11-85.6,3.9-14.52,9.29-26.78,17.47-36.87-9.76-.88-20.34,4-26,14.76-13.42,25.61-43.91,81.71-53.66,90.25-8.39,7.33-78.76,52-98.36,64.36C398.08,343.31,433.43,318.72,463,297.79Z" transform="translate(0 -8.84)" style="fill:#e3dad4;mix-blend-mode:multiply"/><path d="M373.47,371.16s93.7-59,103.45-67.58,40.24-64.64,53.66-90.25,54.88-18.29,46.34,22-30.27,85.27-48.78,108.36c-26.23,32.73-123.34,80.76-123.34,80.76Z" transform="translate(0 -8.84)" style="fill:#fdb"/><path d="M480,321c32.81-23.19,48.92-47.59,59.11-85.58,3.9-14.53,9.29-26.79,17.47-36.88-9.75-.87-20.34,4-26,14.76-13.42,25.61-43.91,81.71-53.66,90.25-8.39,7.34-78.75,52-98.35,64.36C415,366.57,450.38,342,480,321Z" transform="translate(0 -8.84)" style="fill:#e3dad4;mix-blend-mode:multiply"/><path d="M395.4,399.44s93.69-59.05,103.45-67.59,40.24-64.63,53.66-90.24,54.88-18.3,46.34,21.95-30.27,85.28-48.78,108.37c-26.23,32.73-123.34,80.76-123.34,80.76Z" transform="translate(0 -8.84)" style="fill:#fdb"/><path d="M501.91,349.31c32.81-23.2,48.92-47.6,59.11-85.59,3.9-14.52,9.29-26.78,17.47-36.88-9.76-.87-20.34,4-26,14.77-13.42,25.61-43.9,81.71-53.66,90.24-8.39,7.34-78.76,52-98.35,64.37C436.94,394.84,472.31,370.25,501.91,349.31Z" transform="translate(0 -8.84)" style="fill:#e3dad4;mix-blend-mode:multiply"/><path d="M365.61,115.48c52,64.47,45,172.46-20.3,200.6C307.53,383.41,184.57,342.63,145,293.54,67.06,197,67.19,8.84,67.19,8.84S287.71,19,365.61,115.48Z" transform="translate(0 -8.84)" style="fill:#62be75"/><path d="M351.2,100.24C288.55,41.31,170.14,19.91,107.84,12.52,151.3,40.85,209,36.18,255.49,61.68,278.18,74.14,322.4,104.92,351.2,100.24Z" transform="translate(0 -8.84)" style="fill:#62be75"/><path d="M369.69,194.09c-3.27,24.52-9.38,51.47-28.51,68.87-36.8,33.44-83.7,29.14-125.59,7.8-39.11-19.95-77.4-55.53-96.43-95.55C103.58,142.46,97.73,106.37,83.93,73c-4.6-11.14-9.58-23.65-15.68-35.61C71.6,93.71,85.69,220.1,145,293.54c39.62,49.09,162.58,89.87,200.36,22.54,62.52-26.93,71.57-127,26.6-192.08C368.37,146.83,372.27,174.76,369.69,194.09Z" transform="translate(0 -8.84)" style="fill:#50965a"/><path d="M345.31,316.08s-1.61-31.37-33.66-77.22c-68-97.23-196.86-193.22-196.86-193.22S256.31,123.35,331.24,225.1C361,265.47,345.31,316.08,345.31,316.08Z" transform="translate(0 -8.84)" style="fill:#437948"/><path d="M341.67,162.22C299.29,214.73,305,302.7,358.21,325.63c30.77,54.85,130.94,21.63,163.21-18.36,63.46-78.63,63.35-231.93,63.35-231.93S405.12,83.58,341.67,162.22Z" transform="translate(0 -8.84)" style="fill:#62be75"/><path d="M353.4,149.79c51-48,147.51-65.43,198.26-71.44-35.41,23.07-82.44,19.27-120.28,40C412.89,128.53,376.87,153.61,353.4,149.79Z" transform="translate(0 -8.84)" style="fill:#62be75"/><path d="M338.34,226.25c2.66,20,7.64,41.93,23.24,56.11,30,27.24,68.18,23.74,102.3,6.35,31.86-16.25,63-45.24,78.56-77.84,12.68-26.68,17.45-56.07,28.69-83.26,3.75-9.06,7.8-19.26,12.78-29-2.74,45.87-14.21,148.84-62.49,208.66-32.27,40-132.44,73.21-163.21,18.36-50.93-21.95-58.31-103.48-21.67-156.47C339.41,187.76,336.24,210.52,338.34,226.25Z" transform="translate(0 -8.84)" style="fill:#50965a"/><path d="M358.21,325.63s1.31-25.56,27.42-62.91C441,183.51,546,105.32,546,105.32S430.71,168.62,369.67,251.5C345.43,284.41,358.21,325.63,358.21,325.63Z" transform="translate(0 -8.84)" style="fill:#437948"/><path d="M143.37,409s17.17-52,87.45-64.55,87.44,4.19,112.77,0,66.28-24.56,98.38-35.76c36.56-12.77,66.7,12.05,66.62,33.41,0,8.67-48.13,10.56-62.74,26.62s-54,34.21-61.41,57.18-51,50.91-64.6,46.73" transform="translate(0 -8.84)" style="fill:#fdb"/><path d="M279.9,353.31c23.28,1.87,47.81,9.92,71,4.51,26.19-6.12,51-17.77,75.21-29.28,14-6.67,32.87-16.36,48.71-10.15,7.69,3,24.52,10.22,33.9,19.73-1.3-21-30.8-44.38-66.5-31.91-32.1,11.2-73.06,31.58-98.38,35.76-19.94,3.29-34.81-6.36-74.51-4.51-10.74.5-41.21,13.37-51.42,29.69C237.19,350.57,259.32,351.66,279.9,353.31Z" transform="translate(0 -8.84)" style="fill:#e3dad4;mix-blend-mode:multiply"/></g></g></svg>