<svg xmlns="http://www.w3.org/2000/svg" viewBox="0 0 600 475.49"><g style="isolation:isolate"><g id="Ebene_1" data-name="Ebene 1"><g id="_4" data-name="4"><path d="M269.3,147.62a25,25,0,0,0-.41-3.08,67,67,0,0,0-2.53-12.11C233.24,21.59,56.05,178.68,17.12,302.24a149.62,149.62,0,0,0-5,20.66c-.82,4.58-1.43,9.17-1.91,13.75C7.61,359,8,381.46,5.76,404.18c-.21,2.32-.48,4.92-.82,7.73-.2,2-.48,4.1-.68,6.36-.21,2.05-.48,4.18-.76,6.43a13.12,13.12,0,0,0-.14,1.64,6,6,0,0,0-.13,1c-.34,2.94-.68,6-1,9.17-.48,4.72-.89,9.65-1.23,14.57-.14,1.64-.27,3.35-.34,5-1.92,30.18-.62,62,13.34,75.26.48.48,1,.89,1.44,1.3,9.16,7.39,23.19,7.46,44.47-4.72,38.24-21.89,65.2-34.82,109.26-47A126.9,126.9,0,0,0,196,469.72,149.29,149.29,0,0,0,222.23,451c21.07-18.54,37.42-43.17,42.14-68.76,7.6-41.45-11.9-88.18-8.2-132.45.13-2.05.4-4.11.68-6.22.27-2.61.62-5.27,1.09-7.94l.21-1.44c.07-.27.07-.48.13-.68,1.24-7.67,2.88-15.46,4.52-23.4,1.09-5.34,2.19-10.74,3.15-16.15.41-1.91.68-3.83,1-5.74l.21-1.37c0-.07,0-.14.07-.14v-.07c.82-5.2,1.57-10.4,2-15.53.34-3.76.48-7.45.55-11.15v-.14a89.63,89.63,0,0,0-.48-12.17Z" transform="translate(0 -62.26)" style="fill:#62be75"/><path d="M260.75,184.29v.07c-.89,2.6-1.71,5.26-2.53,7.93-.28.76-.55,1.51-.75,2.26-.49,1.44-.9,2.8-1.24,4.24a220.64,220.64,0,0,0-5.61,23.6c-1.37,7.19-2.39,14.37-3.21,21.56-3.15,26.95-3.7,53.77-7.39,81.62-3.29,24.49-10.81,57.47-33.32,72.17a33,33,0,0,1-6.57,3.36,35.28,35.28,0,0,1-6.91,1.78c-8.41,1.44-17.24.2-26-.21-10.33-.48-18.47.07-25.17,1.58a47.42,47.42,0,0,0-20.39,9.5h-.07c-7.73,6-14.57,14.1-24.84,24a79.5,79.5,0,0,1-7.8,6.64,76.06,76.06,0,0,1-16.62,9.44C47,464.11,18.9,458.23,7.4,428.33c-.41-.89-.68-1.78-1-2.67-.83-2.46-1.51-4.92-2.12-7.39-.21,2.05-.48,4.18-.76,6.43-.07.55-.14,1.1-.2,1.64,0,.34-.07.69-.07,1-.34,2.94-.68,6-1,9.17-.48,4.72-.89,9.65-1.23,14.57-.14,1.64-.27,3.35-.34,5-1.92,30.18-.62,62,13.34,75.26.48.48,1,.89,1.44,1.3,9.16,7.39,23.19,7.46,44.47-4.72,38.24-21.89,65.2-34.82,109.26-47A126.9,126.9,0,0,0,196,469.72,149.29,149.29,0,0,0,222.23,451c21.07-18.54,37.42-43.17,42.14-68.76,7.6-41.45-11.9-88.18-8.2-132.45.13-2.05.4-4.11.68-6.22.27-2.61.62-5.27,1.09-7.94l.21-1.44a.07.07,0,0,0,.07-.07,2.11,2.11,0,0,1,.06-.61c1.24-7.67,2.88-15.46,4.52-23.4,1.09-5.34,2.19-10.74,3.15-16.15.41-1.91.68-3.83,1-5.74l.21-1.37c0-.07,0-.14.07-.14v-.07c.82-5.2,1.5-10.4,2-15.53.34-3.76.48-7.45.55-11.15a.07.07,0,0,1-.07.07C266.56,168.07,263.55,176.15,260.75,184.29Z" transform="translate(0 -62.26)" style="fill:#50965a"/><path d="M199.24,263.24a368.07,368.07,0,0,1-93.11,43.51c-4,1.3-7.94,2.46-12,3.49a362,362,0,0,1-52.54,10.33c-9.78,1.17-19.63,2-29.49,2.33-.82,4.58-1.43,9.17-1.91,13.75,9.85-.27,19.63-1,29.41-2.12a368,368,0,0,0,45.71-7.94h.07c2-.48,4-1,6-1.5h.07c8.75-2.19,17.37-4.72,25.92-7.59h.07c4.93-1.58,9.65-3.29,14.51-5.07,9.3-3.49,18.47-7.32,27.43-11.49h.07c8.69-4.11,17.24-8.49,25.66-13.21,5.68-3.14,11.29-6.5,16.83-9.92A366.29,366.29,0,0,0,247.41,244c3.62-3.15,7.25-6.37,10.74-9.72a.07.07,0,0,0,.07-.07,2.11,2.11,0,0,1,.06-.61c1.24-7.67,2.88-15.46,4.52-23.4-4,4.24-8,8.34-12.18,12.24A346.36,346.36,0,0,1,199.24,263.24Z" transform="translate(0 -62.26)" style="fill:#437948"/><path d="M122.68,452.07c-4.37-.75-8.82-1.64-13.41-2.67a9.66,9.66,0,0,1-1.36-.34c-6.37-1.44-12.66-2.94-19-4.65a436.3,436.3,0,0,1-84-32.5c-.2,2-.48,4.1-.68,6.36-.21,2.05-.48,4.18-.76,6.43-.07.55-.14,1.1-.2,1.64h.06a32.16,32.16,0,0,0,4,2,449.43,449.43,0,0,0,64.93,25.52c8.48,2.53,17.1,4.93,25.79,7,2.74.68,5.48,1.3,8.21,1.91,1.17.27,2.33.55,3.49.75,23,4.93,44.13,7.33,63.83,7.33a217.68,217.68,0,0,0,22.38-1.1A149.29,149.29,0,0,0,222.23,451c-3.35,1-6.84,1.78-10.33,2.47C185.63,458.78,156.35,458.29,122.68,452.07Z" transform="translate(0 -62.26)" style="fill:#437948"/><path d="M599,451.18c-.69-9.51-1.64-18.75-2.6-27v-.07a5.81,5.81,0,0,0-.14-1.1c-.13-1.57-.34-3.08-.55-4.58-.27-3.15-.61-6.09-.89-8.83-.27-1.91-.47-3.69-.61-5.4-2.19-22.72-1.78-45.09-4.31-67.39-.48-4.58-1.16-9.17-1.92-13.75a163.92,163.92,0,0,0-5.06-20.8C544,178.68,366.72,21.59,333.68,132.43a73.23,73.23,0,0,0-2.4,10.74c-.06.62-.2,1.16-.2,1.78-.07.07-.07.07,0,.07a99.55,99.55,0,0,0-.89,13.54v1.37c.07,3.35.21,6.71.48,10.06.13,1.44.27,2.87.41,4.38.34,3.14.82,6.36,1.3,9.58.13,1.3.34,2.53.55,3.76v.07a3.24,3.24,0,0,0,.13.48c1.58,9.37,3.56,18.74,5.41,28.05a4,4,0,0,1,.14.47c1.29,6.37,2.53,12.73,3.48,18.89.21,1.23.42,2.39.55,3.56.21,1.43.41,2.94.55,4.38.27,2.11.55,4.17.68,6.22,3.7,44.27-15.87,91-8.21,132.45,4.86,26.41,22,51.66,44,70.4a146.28,146.28,0,0,0,25.11,17.45,123,123,0,0,0,26.07,10.81c44.06,12.18,71,25.11,109.19,47,21.28,12.18,35.37,12.11,44.47,4.72a13.42,13.42,0,0,0,1.51-1.3c13.89-13.2,15.19-45,13.34-75.19C599.27,454.46,599.13,452.82,599,451.18Z" transform="translate(0 -62.26)" style="fill:#62be75"/><path d="M599,451.18c-.69-9.51-1.64-18.75-2.6-27v-.07a5.81,5.81,0,0,0-.14-1.1c-.13-1.64-.27-3.21-.48-4.72,0,.07,0,.07-.07.14-.61,2.39-1.29,4.72-2.05,7.11-.07.07-.07.07-.07.14-11.08,33-41.32,39.06-67.93,27.37a75.44,75.44,0,0,1-15.88-9.65,74,74,0,0,1-6.57-5.61C493,427.85,486,419.71,478.38,413.69A48.11,48.11,0,0,0,458,404.25c-6.7-1.51-14.85-2.06-25.18-1.58-8.82.41-17.51,1.65-26,.21h-.06A30.66,30.66,0,0,1,399.9,401h-.06a30.35,30.35,0,0,1-6.5-3.29C370.76,383,363.23,350.06,360,325.57c-3.49-26.27-4.17-51.72-6.91-77.18-.75-6.84-1.64-13.75-2.81-20.66a235.7,235.7,0,0,0-7.73-33.18c-.2-.75-.48-1.5-.75-2.26-3.49-10.94-7.39-21.69-11.63-32.36.07,3.35.21,6.71.48,10.06.13,1.44.27,2.87.41,4.38.34,3.14.82,6.36,1.3,9.58a37.58,37.58,0,0,0,.61,3.9.87.87,0,0,0,.07.41c1.58,9.37,3.56,18.74,5.41,28.05,0,.07,0,.07.07.07s.07.27.07.4c1.29,6.37,2.53,12.73,3.48,18.89.21,1.23.42,2.39.55,3.56a.06.06,0,0,0,.07.06c.14,1.44.34,2.88.48,4.32.27,2.11.55,4.17.68,6.22,3.7,44.27-15.87,91-8.21,132.45,4.86,26.41,22,51.66,44,70.4a146.28,146.28,0,0,0,25.11,17.45,123,123,0,0,0,26.07,10.81c44.06,12.18,71,25.11,109.19,47,21.28,12.18,35.37,12.11,44.47,4.72a13.42,13.42,0,0,0,1.51-1.3c13.89-13.2,15.19-45,13.34-75.19C599.27,454.46,599.13,452.82,599,451.18Z" transform="translate(0 -62.26)" style="fill:#50965a"/><path d="M558.43,321.12a370.16,370.16,0,0,1-51.86-9.44c-3.56-.89-7.05-1.85-10.61-2.87h-.07a374,374,0,0,1-66.5-26.28c-3-1.5-6-3.07-9-4.72-6.84-3.76-13.62-7.73-20.18-11.9a347.41,347.41,0,0,1-49.95-38.18c-4-3.63-7.93-7.46-11.76-11.35-.07,0-.07,0-.07-.07a4,4,0,0,1,.14.47c1.29,6.37,2.53,12.73,3.48,18.89.21,1.23.42,2.39.55,3.56a.06.06,0,0,0,.07.06c3.35,3.15,6.84,6.23,10.4,9.1a364.22,364.22,0,0,0,44.81,32.23c5.61,3.42,11.22,6.63,17,9.78H415c8.82,4.79,17.78,9.24,27,13.34,8.76,3.9,17.58,7.39,26.61,10.61,5.34,2,10.74,3.76,16.22,5.4,8.14,2.53,16.21,4.79,24.49,6.71h.07c2.05.54,4,1,6,1.36h.07A357.64,357.64,0,0,0,560.41,335c9.78,1,19.64,1.57,29.49,1.78-.48-4.58-1.16-9.17-1.92-13.75C578.13,322.83,568.28,322.15,558.43,321.12Z" transform="translate(0 -62.26)" style="fill:#437948"/><path d="M595.78,418.27c0,.07,0,.07-.07.14-.27-3.15-.61-6.09-.89-8.83a430.23,430.23,0,0,1-85,33.8c-6.09,1.78-12.18,3.35-18.33,4.79L486,449.4c-3.15.68-6.29,1.37-9.37,1.92-35.37,7-66,7.66-93.32,2.19-1.23-.28-2.46-.48-3.7-.83a146.28,146.28,0,0,0,25.11,17.45c5.54.48,11.15.69,16.9.69,20.67,0,43-2.68,67.32-8.08.07,0,.21-.07.28-.07,3.9-.89,7.8-1.77,11.63-2.8H501c8.35-2.06,16.55-4.31,24.7-6.84a450,450,0,0,0,68-27.51c1-.41,1.85-.89,2.74-1.36v-.07a5.81,5.81,0,0,0-.14-1.1C596.13,421.35,596,419.78,595.78,418.27Z" transform="translate(0 -62.26)" style="fill:#437948"/><path d="M278.16,62.26c.23,8.24.24,17.36-.19,27a85.57,85.57,0,0,1,45.77-.64c-.42-9.4-.5-18.32-.4-26.4Z" transform="translate(0 -62.26)" style="fill:#92d29f"/><path d="M299.54,119.88a87.57,87.57,0,0,0-25.11,4.49,208.88,208.88,0,0,1-9.72,37.8,90,90,0,0,1,34.83-8.31,88.46,88.46,0,0,1,35.76,6.54A227.56,227.56,0,0,1,327,123.52,86.82,86.82,0,0,0,299.54,119.88Z" transform="translate(0 -62.26)" style="fill:#92d29f"/><path d="M180.87,132.36c-35.82,11.43-69.81,55-89.79,84.74a270.94,270.94,0,0,0-15.69,26.44C63.76,266,42.57,305.15,39.93,330.35c-3.4,32.3,21,29.41,41.41,2.08,12.49-16.69,18.07-37.68,30.12-54.69,13.87-19.58,35.12-32.35,55.3-45.33s40.68-27.61,51.5-49C236.59,147.07,217.83,120.56,180.87,132.36Z" transform="translate(0 -62.26)" style="fill:#f6f6f6;opacity:0.2;mix-blend-mode:overlay"/><path d="M524.62,243.54a269.06,269.06,0,0,0-15.7-26.44c-20-29.73-54-73.31-89.78-84.74-37-11.8-55.72,14.71-37.39,51,10.81,21.42,31.31,36.05,51.5,49s41.43,25.75,55.3,45.33c12.05,17,17.63,38,30.12,54.69,20.45,27.33,44.81,30.22,41.42-2.08C557.43,305.15,536.25,266,524.62,243.54Z" transform="translate(0 -62.26)" style="fill:#f6f6f6;opacity:0.2;mix-blend-mode:overlay"/><path d="M327,123.52c-1.73-11.86-2.73-23.68-3.23-34.86A85.57,85.57,0,0,0,278,89.3a295.93,295.93,0,0,1-3.54,35.07,86.43,86.43,0,0,1,52.54-.85Z" transform="translate(0 -62.26)" style="fill:#92d29f"/><path d="M512.24,418.83c-15.31-103.11-66.22-83.65-88-121.26-2.42-4.17-14.34-55.93-31-73.48,30.87,8.81,56.74-5.75,89.94,5.35,6.63,2.22,23.73,3.7,28.46,8.55-40.74-41.79-80.46-10.74-117.43-24.25C373,206,375.57,186,355,175.82a34.75,34.75,0,0,1,2.66-2.55c-12-10.94-20.18-12.72-25.72-29.83a7.15,7.15,0,0,0-.69-.27,5.92,5.92,0,0,1-.68-.27,80,80,0,0,0-31.2-5.41,81.05,81.05,0,0,0-29.07,6.43l-1.44.62c-.41.2-.82.34-1.23.55-5.68,15.46-13.82,16.28-25.32,28.18a32.82,32.82,0,0,1,2.66,2.54C224.43,186,227,206,205.81,213.74c-37,13.51-76.69-17.54-117.43,24.25,4.73-4.85,21.83-6.33,28.46-8.55,33.21-11.1,59.08,3.46,89.94-5.35-16.68,17.55-28.6,69.31-31,73.48-21.78,37.61-72.7,18.15-88,121.26-.33,2.25,2.85,3.28,3.51,1,27.69-98.32,65-62.91,95.37-108.41,3.34,14.1,7.22,27.92,6.5,38.84-2.26,34.32-41.37,51.15-.24,97.37.92,1,2.44-.29,1.84-1.43-27.76-53.54,8.86-54.59,11.07-95.94,1-18.42-8.19-34.41-8.16-60.39,8.33-21.26,12.64-49.26,28.57-70.44.83-1.11,1.77-2.17,2.69-3.24l-2.27,3.5c1.48-2.2,3.18-4.22,4.77-6.33,7.5-8,17-15.12,26-22.06.28.35.57.7.85,1,.61.76,1.23,1.44,1.84,2.12a29.6,29.6,0,0,0,3,2.88,64.77,64.77,0,0,1,4.11-10.4c0-.07,0-.14.07-.14v-.07c4.31-7.93,11.83-12.93,32.77-14.57,17.86,1.23,26.89,4.86,32.91,15.6v.07c.06,0,.06.07.06.07a50,50,0,0,1,4,9.44,41.5,41.5,0,0,0,4.86-5,9.43,9.43,0,0,0,.84-1c8.94,6.93,18.44,14.08,25.93,22,1.59,2.11,3.3,4.14,4.77,6.33l-2.27-3.5c.92,1.07,1.87,2.13,2.69,3.24,15.93,21.18,20.24,49.18,28.57,70.44,0,26-9.14,42-8.16,60.39,2.22,41.35,38.83,42.4,11.07,95.94-.59,1.14.93,2.47,1.85,1.43,41.12-46.22,2-63-.25-97.37-.71-10.92,3.16-24.74,6.5-38.84,30.33,45.5,67.68,10.09,95.37,108.41C509.39,422.11,512.58,421.08,512.24,418.83Z" transform="translate(0 -62.26)" style="fill:#92d29f"/></g></g></g></svg>