<svg xmlns="http://www.w3.org/2000/svg" viewBox="0 0 600 434.25"><g style="isolation:isolate"><g id="Ebene_1" data-name="Ebene 1"><path d="M599.38,297.66a5.78,5.78,0,0,0-4.43.14,72.6,72.6,0,0,1-12.36,3.43c-5.11.79-10.2,0-15.2-1.08a64.09,64.09,0,0,1-7-1.69c3.58-.84,7.11-1.84,10.62-3,5.6-1.91,12.2-4.67,15.82-9.63,1.65-2.24,5.61-8.59,2.16-11s-6.6,1.15-8.5,3.87c-3.17,4.58-4.54,8.9-10.53,10.52-4.06,1.11-8.25,1.8-12.38,2.58-6.64,1.23-13.36,2.17-19.88,4a54.73,54.73,0,0,0-9.15,3.26c-1.14.55-7.63,3.69-7.46,4.94-1.73-12.91,4.59-32.8,18.63-37.08a60.08,60.08,0,0,1,7.86-1.86c6.8-1.12,13.1-2.27,19.44-5,4.13-1.79,20.76-10,17.63-16.7a.86.86,0,0,0-1-.46,9.77,9.77,0,0,0-4.65,2.43c-4.15,3.4-7,7.13-12,9.6-8.43,4.15-18.38,4.36-27.08,7.93l-.28.12c2.41-2.34,4.79-4.7,7-7.18a42.13,42.13,0,0,0,10.28-22.43c.88-7.37,8.6-11.86,14.42-15.24,4.54-2.63,8.83-8.14,11.63-12.47,1.4-2.16,11.76-24.66,2.3-22.69-2.42.5-4.08,3.19-4.33,5.48-1.66,15.17-9.73,23-21.55,31.28a46.47,46.47,0,0,0-.36-9c-1.06-7.32-3.5-14.34-6-21.26-1.21-3.34-2.94-9.4-7.26-9.63a3.12,3.12,0,0,0-2.64,1.77c-1.3,3.11.48,5.85,1.51,8.92,2.43,7.28,6.6,14.13,7.75,21.8,1.31,8.73-1.51,17.25-3.67,25.6a47.33,47.33,0,0,1-13,23c-7.24,7.06-15.47,13.91-18.43,24-.5-17.08,3.67-32.68,12-47.55,2.18-3.92,18.5-26.84,9.52-30.17-1.37-.51-2.72.64-3.55,1.58-5.06,5.67-5.92,14.58-9.64,21.15-.51.9-1,1.79-1.54,2.68.15-.84.29-1.67.39-2.52,1.16-9.86-1.4-19.9-5.08-29-1.2-3-9.92-24.49-14.69-19.4-4.16,4.44,1.05,8.9,3.54,13.4,3.65,6.57,7.9,16.13,9.29,23.64,1.69,9.16.54,18.34-1.4,27.31-1,4.66-3.85,10.13-4.34,15.12.53-5.4-2.55-10.88-4.44-15.78-2.71-7-5.38-14-8.2-21-1.54-3.8-4.77-11.89-9.5-12.85-3.74-.77-5.35,3.07-3.95,6,11.2,23.46,24.31,45.29,26.35,72.33.19,2.51.39,5,.79,7.41-4.74-7.12-11.83-12.92-19.31-17.22-9.73-5.59-13.45-15.53-16.34-25.82-1.22-4.31-7.72-30.64-15.65-25.39-1.81,1.19-1.94,2.62-1.56,4.62.43,2.3,2.12,4.73,3.12,6.82A153.13,153.13,0,0,1,469.18,255c1,2.71,2.15,10.57,4.54,12.07-3.17-2-6.32-4-9.36-6.22a40,40,0,0,1-10.94-11.05c-2.47-4-2.22-9.36-5-13a4.24,4.24,0,0,0-4.91-1.55c-5.21,2.25-2,10.82,0,14,.86,1.42,1.78,2.79,2.74,4.15-1-1.43-5.46-2-7-2.66-3.84-1.6-8.95-4.1-11.51-7.54-3.62-4.86-2.06-10.5-8.2-12.67-4.12-1.45-3.62,6.31-3.08,7.92,1.12,3.33,3.83,6.29,6.34,8.64,8.07,7.55,16.32,8.68,26.19,11.83a18.62,18.62,0,0,1,2.4.92A56.28,56.28,0,0,0,464.72,271c4.32,2.55,8.79,4.8,13.29,7,4.82,2.38,10.4,4,14.68,7.28,5.69,4.39,11.85,9.14,16.76,14.77a29.81,29.81,0,0,0-3.24-1.87c-4-2.07-7.58-4.63-11.82-6.19-7-2.58-14.95-2.22-22.26-2.42-1.69-.06-3.39-.18-5.09-.35-7.48-.73-21.48-5.24-27.88-9.26s-2.94-11.83-9.42-15.77c-4.92-3-4.85,2.63-4.17,6,.74,3.62,4.84,12.66,9,13.25a50.24,50.24,0,0,0-8.1-.16c-3.93.09-15.72.93-15.49,7.41.3,8.21,8.7.71,11.92-.92,6.65-3.38,13.56-.58,20.17,1.32,8.9,2.56,19.61,2.29,28.87,2.74,2.17.1,4.27.23,6.33.42,3,.47,6,.93,8.94,1.38a41.48,41.48,0,0,1,12.53,5.11c4.45,2.73,8.29,4.24,11.66,8.49,11.44,14.41,17.14,40.55,8.14,57.35-12.83,24-39.72,35.06-74.82,24.49A94.31,94.31,0,0,1,421,379.8c-22.69-14.83-39.16-33.69-56.46-54.18C348,306,326.74,282.68,306.89,266.57c-17.35-14.1-32.8-28.74-38.65-51.14-3.82-14.64,3.52-29.63,9.52-42.64,3.59-7.8,5.51-17,13.27-21.89,6.58-4.12,16-4,19.82-11.78.43-.86.18-2.08-1.05-1.76-3.73,1-6.46,3.1-10,4.63-4.54,2-10.56,3.22-14.59,6.09a16.58,16.58,0,0,0-1.44,1.13,6.42,6.42,0,0,0-.6-1.33,35.65,35.65,0,0,1,1.13-5.06c1.83-5.64,5.21-10.66,8.8-15.32,1.75-2.26,10.54-13.21,4.63-15.6-3.12-1.26-7.67,5.91-8.82,8.19-3.56,7-8.54,15.16-10.47,23.44.47-2.05-1.39-6.7-1.69-8.93-1.84-13.83-2.17-21.54-8.12-28.24-4.51-5.08-5.45,4.46-4.34,7.67,3.44,10,7.13,20.26,7.7,30.91.57,10.85-3.24,21-7.2,30.89-7.75,19.43-23.25,40-46.62,32.88s-37.86-28.34-38.76-52.36A93.29,93.29,0,0,1,180.9,135c.7-3.44,3.08-6.06,5-8.89,4.77-7.11,11.72-17,12.08-25.85.12-2.76-3.89-.32-4.42.92-1.89,4.39-2.67,8.94-5,13.22-2.9,5.25-7,9.94-10.82,14.52a22.7,22.7,0,0,0-2.2,3.14,5.1,5.1,0,0,0-1.5-1.15,62.89,62.89,0,0,1-.71-15.44c.65-8.71,6-20.47,1.71-28.93-1.16-2.28-4.46.79-4.51,2.46a145,145,0,0,1-4.32,30.31,33.11,33.11,0,0,0-.27,12.71c-.2-.32-.39-.62-.59-.9-5.53-8-10.3-16.84-12.32-26.42-1.28-6.09.19-17.45-5.39-21.6a1.1,1.1,0,0,0-1.17-.07c-3.17,1.42-3,5.77-3.08,8.72-.39,22.21,14.55,40.8,23.41,60,5.89,12.75,8,27,7.76,41-.29,14.94-13.59,24.38-26.52,29.47-2.15.57-4.31,1-6.39,1.46-6.73,1.36-13.51,2.46-20.26,3.66-15,2.69-26.26,2.66-41.14,6.41-11.61,2.93-18.26,8.31-40.56-1.3-3-1.27-9.9-8.92-11.76-7.19-7.6,7.06,3.85,14.07,10.05,15.8a37.91,37.91,0,0,0,12.61,1.14c1.79.25,3.57.48,5.36.65-.23.26-.44.52-.64.78-8.23,2.7-16.6,4.33-25.72,2.1-7.25-1.78-18.32-8-24.49-1C-.65,251,18,255.88,21,256.09c6.29.45,12.89-1,19.09-1.88,3.14-.43,6.45-1.87,9.36-3.06,1.06-.43,2.83-1.48,4.68-2.45a4.78,4.78,0,0,0,.42.85c0-.09-13.49,17.21-14.61,18.9-3.78,5.71-11.72,13.93-6.5,21,.42.56,1.35.33,1.86.12C42,286.86,43.88,276,46.85,270.17A59.72,59.72,0,0,1,77.38,242.8c9.29-3.6,24.18-8.15,33-1.4,11.52,8.84,5.26,28,2.64,39.5-2.4,10.53-4.74,22-11.33,30.82-6.28,8.41-15.23,13.95-24.27,19-12.59,7-28.22,19.66-43.7,16-5.81-1.39-12-7.58-16.89-1.13-4.31,5.61,8.53,7.11,11.53,7.37a63.26,63.26,0,0,0,10.92.2,26.33,26.33,0,0,0,6-1.57c-11.56,8-21.66,16.69-34.81,22.4-2.85,1.24-8.36,3.21-9.81,6.34-1.54,3.31-.47,5.63,3.35,5.69,4.18.05,8.28-2.89,11.35-5.36,6.52-5.27,12.3-11.15,19.42-15.66a105,105,0,0,0,8.85-6.38,62.25,62.25,0,0,0-9.09,13.68C31.84,377.83,30.41,384,28,389.8c-1.09,2.66-1.42,7,1.73,8.29,6.68,2.65,9.92-16.55,11-19.4,2.59-7.13,4.77-14.32,10.4-19.7,5.41-5.16,12.33-8.29,18.46-12.45,12.52-8.48,27.19-13.41,42-8.59,13.35,4.36,27.26,13.62,34.38,26,3.47,6,6.89,15,6.88,22,0,9.51-4,19.27-7.47,28-4.14,10.4-6.55,26.09-16.22,33-7.12,5.08-15.71,7.32-22.55,12.93-5.74,4.71-10.41,9.93-12.83,17-.79,2.31-3.18,12.38,2.46,11.21,4.74-1,4.73-7.61,5.44-11.09,1.5-7.32,9-11.44,14.64-15.81a36.11,36.11,0,0,1,12-5.4c2.2-.48,7.6-2.82,6.93,1a33.4,33.4,0,0,1-2.49,7.12c-4.16,9.61-9.5,19-11.71,29.33-.87,4.08-4,25.66,5,23.8,3.22-.67,3.45-4.86,3.31-7.37-.51-9.08-1.25-16.87,1.37-25.84,2.45-8.33,6.41-16.19,9.38-24.34a47.42,47.42,0,0,0,1.52-5.09c1,3.84,2.29,7.64,3.36,11.43,1.69,6,.1,12-.35,18-.25,3.43.54,12.26,5.23,5.64,1.71-2.41,1.25-6.42,1.35-9.19.51-15.27-9-32.28-4.83-47.05,6.81-24.08,22.13-55.3,50.1-59.61a46.34,46.34,0,0,1,22,2.28c12.2,4.68,15,21.89,17.83,32.94,4.95,19.26,11.74,45.53-.61,63.4-5.42,7.84-12.89,14.05-18.06,22.09-1.15,1.79-6.56,11.54-2.52,12.51a2.53,2.53,0,0,0,2.5-1.11c4-5.27,4.82-9.36,8.78-15.09,4.37-6.31,11.45-12.07,15.38-18.69-1.65,2.77,1.37,10.35,1.93,13.41,1.29,7,5.44,13.51,8.61,19.76,1.71,3.41,4.34,10.28,8.36,11.69,1,.36,2.19-.84,2.26-1.8.3-4.19-3.32-10.16-4.76-14-2.63-7-6.65-13.16-8.21-20.6-1.69-8.06-2.18-26.81-2.16-27.95.06-.38.1-.75.15-1.13-.53,4.05,37.44,20.4,44.91,32.51.68,1.11,2.55-1,2.38-1.87-2-10.4-10.22-14.66-19-18,3.93-.48,7.64-1.64,9.46-2.84,2.49-1.65,21-13.14,16-17.93a1.71,1.71,0,0,0-1.9-.12c-4,1.7-6.17,5.94-9.72,8.43-.68.48-1.36.93-2.06,1.36-8.84,4.78-18.3,8.35-26.49-.33-25.9-27.43-32.42-100.52,13-113,11.34-3.12,22.43.85,33.18,4.38,11.38,3.72,21.12,11.58,25.12,23.1,3.62,10.39.35,21.22-.52,31.77-.55,6.8-.62,20.55,6.89,24.19,2.56,1.25,6.26-.61,6.3-3.8.15-11.53-6-22.23-5-34.38,1-4,2-8.06,1.45-12.47-.18-1.43-.38-3-.66-4.62,4,6.09,5.86,13.12,7.26,20.46.7,3.69,3.28,10.88,8.16,6.36,3.92-3.63,2.56-8.61.58-13-3.79-8.41-6.86-17.47-13.48-24.17a76.43,76.43,0,0,0-15.67-11.71c1.57.37,3.12.71,4.59,1,4.56.92,12.15,3.69,15.06-1.88,2.65-5.08-3-6.14-6.81-5.36a51.49,51.49,0,0,1-16.77,0q-5.44-1.87-10.82-4c-7.18-2.81-13.41-5.22-19.24-10.48-2.85-2.59-5.69-4.93-8.25-7.48a27,27,0,0,1-1.74-4.1c-3.52-10.81-.36-31.95,13.78-34.05,8.4-1.24,20.68,8.8,26.53,13.61C341.76,307.15,355,326,369,343.25c12.36,15.29,25.79,27.1,41.62,38.59,6.57,4.76,13.68,7.74,21,11.05,14.81,6.68,32,10.42,48.25,8.69,20.75-2.21,43.14-21.66,47.6-42.19a62.48,62.48,0,0,0,.46-21.33c-.73-5.44-2.68-10.88-3.93-16.21-1.06-4.51-2.94-10.24.36-14.25,3.73-4.52,11.43-5.05,16.8-5.48,8.63-.68,15.83,1.86,24,4.25,6.52,1.91,13.86,1.64,20.52.73,4.5-.61,12.1-2.62,14-7.31C600,299.09,600.3,298.06,599.38,297.66Z" transform="translate(0 -82.88)" style="fill:#62be75"/><path d="M266.19,251.6c-2.28-9.69-11.9-15.09-19.9-19.77-9.71-5.68-20.77-9.77-31.51-13-7.7-2.29-18.09-7.42-25.74-3l-.69.37c-.22,0-.44,0-.65,0-4.47.47-8.53,2.82-12.43,5.72-.7.31-1.4.64-2.08,1-5.74,2.9-11,6.56-16.45,9.91-3.11,1.91-6.37,3.77-9.43,5.84a40.09,40.09,0,0,0-9.05,5.38c-7.75,6.4-8.14,14.45-9.91,23.84-2.09,11.08-6.49,21.6-6.25,33.05.18,8.45,7.48,16.19,12.84,22.12,7.32,8.11,12.9,17.7,22.2,23.86,7.82,5.18,19.25,9.45,28.86,7,12-3.07,24.08-5.44,36-8.59,10.27-2.7,18.86-5,27.16-12,6.69-5.59,10.93-13.81,14-21.81,4-10.61,3.61-20.21,4.85-31.2A82.13,82.13,0,0,0,266.19,251.6Z" transform="translate(0 -82.88)" style="fill:#50965a"/><path d="M236.88,277c5.52,17.52-8.47,37.54-31.24,44.71s-45.71-1.22-51.23-18.74,8.47-37.55,31.24-44.72S231.36,259.51,236.88,277Z" transform="translate(0 -82.88)" style="fill:#62be75"/><path d="M211,285.09c2.1,6.66-3.22,14.26-11.86,17s-17.36-.46-19.46-7.12,3.22-14.26,11.87-17S208.88,278.43,211,285.09Z" transform="translate(0 -82.88)" style="fill:#50965a"/><path d="M177.09,278.3c.89,2.83-1.37,6.06-5,7.21s-7.37-.19-8.26-3,1.36-6.06,5-7.21S176.2,275.47,177.09,278.3Z" transform="translate(0 -82.88)" style="fill:#f6f6f6"/><path d="M188,269.46c.68,2.15-1,4.61-3.83,5.49s-5.61-.15-6.29-2.3,1-4.61,3.83-5.49S187.31,267.31,188,269.46Z" transform="translate(0 -82.88)" style="fill:#f6f6f6"/><path d="M341.06,300.18a7.85,7.85,0,0,0-.73.44c-6.22,4.15-2.12,15.75.24,20.84,3.29,7.1,8.38,13.17,13.81,18.72,4.55,4.65,11.05,9.94,17.95,9.12,7.87-.93,12.6-7.29,8-14.62a168.61,168.61,0,0,0-16.91-23.11C359.06,306.67,348.82,296.05,341.06,300.18Z" transform="translate(0 -82.88)" style="fill:#f6f6f6"/><path d="M374.75,344.22c-.21.18-.42.38-.63.59-5.2,5.36,1.23,15.85,4.6,20.32,4.71,6.25,11,11.13,17.43,15.42,5.42,3.59,12.89,7.41,19.46,5.16,7.5-2.56,10.8-9.77,4.78-16A168.9,168.9,0,0,0,399,350.67C393.71,346.8,381.47,338.56,374.75,344.22Z" transform="translate(0 -82.88)" style="fill:#f6f6f6"/><path d="M419.11,383.42a8.14,8.14,0,0,0-.33.79c-2.47,7.05,7.77,13.87,12.71,16.52,6.9,3.7,14.61,5.5,22.29,6.67,6.42,1,14.8,1.32,19.83-3.47,5.73-5.48,5.7-13.4-2.37-16.51a168.1,168.1,0,0,0-27.4-8.33C437.4,377.8,422.83,375.45,419.11,383.42Z" transform="translate(0 -82.88)" style="fill:#f6f6f6"/><path d="M476.32,399.24c.11.26.23.52.36.77,3.44,6.64,15.42,3.85,20.74,2.06,7.42-2.49,14-6.87,20.13-11.66,5.12-4,11.1-9.89,11.05-16.83-.07-7.93-5.86-13.33-13.64-9.58a167.63,167.63,0,0,0-24.85,14.25C484.76,382.06,473.08,391.07,476.32,399.24Z" transform="translate(0 -82.88)" style="fill:#f6f6f6"/><path d="M354.08,313.05c-1.6-2.45-5.4-6.38-8.71-4.63-3.92,2.08-4.43,4.86-3.08,8.69a29.27,29.27,0,0,0,2.23,4.77c1.48,3,3.68,6.06,6.49,7.62s7.54-2.07,7.31-5.19C358,320,356.44,316.66,354.08,313.05Z" transform="translate(0 -82.88)" style="fill:#e6e6e6;opacity:0.9;mix-blend-mode:screen"/><path d="M389.64,351.65c-2-2.1-6.5-5.25-9.42-2.91-3.47,2.77-3.45,5.6-1.4,9.11a28.33,28.33,0,0,0,3.09,4.27c2,2.63,4.74,5.26,7.8,6.26s7-3.44,6.21-6.46C394.79,357.72,392.63,354.76,389.64,351.65Z" transform="translate(0 -82.88)" style="fill:#e6e6e6;opacity:0.9;mix-blend-mode:screen"/><path d="M434.07,384.33c-2.76-1-8.17-1.77-9.72,1.64-1.84,4-.55,6.55,2.85,8.77a28.92,28.92,0,0,0,4.69,2.41c3,1.45,6.6,2.56,9.78,2.08s4.71-6.23,2.63-8.56C441.41,387.42,438.14,385.75,434.07,384.33Z" transform="translate(0 -82.88)" style="fill:#e6e6e6;opacity:0.9;mix-blend-mode:screen"/><path d="M488.24,388.24c-2.58,1.38-6.82,4.82-5.37,8.27,1.73,4.1,4.44,4.84,8.39,3.84a28.8,28.8,0,0,0,4.94-1.81c3.08-1.21,6.36-3.13,8.15-5.8s-1.39-7.69-4.51-7.74C495.48,384.94,492.05,386.21,488.24,388.24Z" transform="translate(0 -82.88)" style="fill:#e6e6e6;opacity:0.9;mix-blend-mode:screen"/></g></g></svg>