<svg id="Ebene_1" data-name="Ebene 1" xmlns="http://www.w3.org/2000/svg" viewBox="0 0 551.93 600"><path d="M258.09,533.72c7.93-.91,39.6-.52,47.53,0-10.35-54.06-15.57-108.8-17.62-157.91-3-71.37-12.55-185.44-.86-279.16l-5.07,18.28c-17.11,67.79-18.36,142.52-20.48,212.4C258.09,442.37,259.3,464.21,258.09,533.72Z" transform="translate(-24.03)" style="fill:#66b774"/><path d="M299.78,221.31c-11.06,9.22-22.4,19-30.75,30.5a201.94,201.94,0,0,1,3.43,31.28,882.54,882.54,0,0,1,128-134.75C363.89,168,331.69,194.74,299.78,221.31Z" transform="translate(-24.03)" style="fill:#66b774"/><path d="M278.38,417.79c-2.38-14.47,2-29.46,9.62-42s18.38-22.85,29.59-32.3c26.57-22.41,57.9-41.25,92.5-44.52A395.63,395.63,0,0,0,278.38,417.79Z" transform="translate(-24.03)" style="fill:#66b774"/><path d="M277.72,407.54c2.43-16.86,6-25-6.08-37s-51.2-47.14-66.82-53.93-19.53-.46-33.64-10C209.43,335.14,244.88,372.93,277.72,407.54Z" transform="translate(-24.03)" style="fill:#66b774"/><path d="M182.69,134.28q46.44,65.13,86.68,134.39c4.67-8.6,4.84-19.11,2.31-28.57s-7.54-18-12.9-26.23A302.63,302.63,0,0,0,182.69,134.28Z" transform="translate(-24.03)" style="fill:#66b774"/><path d="M320.74,65.54c20.92-15.12,47.14-21.91,67.3-38a99.57,99.57,0,0,1-30.58,75.36,99.61,99.61,0,0,1-76.9,26.48A102.18,102.18,0,0,1,320.74,65.54Z" transform="translate(-24.03)" style="fill:#66b774"/><path d="M364.76,51.49a134,134,0,0,1-76,71.2A330.76,330.76,0,0,0,364.76,51.49Z" transform="translate(-24.03)" style="fill:#94ca9d"/><path d="M333,98.67c8.14-3,16.55-6.13,22.65-12.28-7.14,13.88-24.18,21.84-39.41,18.42Z" transform="translate(-24.03)" style="fill:#94ca9d"/><path d="M328.65,67.17c-3.85,16.24-8.39,25.55-14.69,37.6,5.66-2.49,5-1.19,7.78-6.7C325.33,90.93,330.1,80.37,328.65,67.17Z" transform="translate(-24.03)" style="fill:#94ca9d"/><path d="M279.94,126s24.31-55.12-.08-91.22c-14-20.66-39.3-31.39-64-34.74q3.94,25.91,7.9,51.8c1.69,11.09,3.24,22.33,7.38,32.75C242.39,112.94,279.94,126,279.94,126Z" transform="translate(-24.03)" style="fill:#66b774"/><path d="M240.82,26c13.56,26.68,26.29,54.82,33.83,83.79,3.75-21.34-8-40.39-17.54-59.84C250.67,36.78,240.82,26.77,240.82,26Z" transform="translate(-24.03)" style="fill:#94ca9d"/><path d="M273.06,42.45c4.76,11.71,3.8,35.05-.49,46.92-.86,2.37-2-3-2-3A155.58,155.58,0,0,0,273.06,42.45Z" transform="translate(-24.03)" style="fill:#94ca9d"/><path d="M271.07,85.88l-35.5-27.29c3.8,7.9,23.37,25.5,35.32,31.71Z" transform="translate(-24.03)" style="fill:#94ca9d"/><path d="M356.66,222.56c34.29,2,66.59-19.65,86.25-47.82s28.83-62.17,36.63-95.62c-33.06-1.57-68-2.72-97.15,13-23.09,12.44-39.92,34.39-50.93,58.19S314.68,199.91,309,225.51C322.23,216,340.37,221.63,356.66,222.56Z" transform="translate(-24.03)" style="fill:#66b774"/><path d="M389.94,159.54a43.43,43.43,0,0,1-1.7,5.25c23.42-1.3,41.87-7.83,55.71-26.85C425.7,151,409.5,155.74,389.94,159.54Z" transform="translate(-24.03)" style="fill:#94ca9d"/><path d="M376.6,197.73c-7.77-.82-32.86-1.73-33.61-1.47,5.7-6.06,30.66-8.22,46.06-7.14,8.84.62,22.49-.46,29.51-5.23C411.21,194.12,398.62,200.07,376.6,197.73Z" transform="translate(-24.03)" style="fill:#94ca9d"/><path d="M342.71,198.8c11.2-4.53,17.88-16.39,20.31-28.22s1.47-24.05,2.14-36.1A167.07,167.07,0,0,1,342.71,198.8Z" transform="translate(-24.03)" style="fill:#94ca9d"/><path d="M384.32,152.86c-1.44,5.65-5.24,16.57-8.2,21.43,9.52-5.16,14.3-12.93,16.13-25.95,1.64-11.71,3.33-21.85,2.14-38.88C391.13,126.37,388.45,136.67,384.32,152.86Z" transform="translate(-24.03)" style="fill:#94ca9d"/><path d="M151.34,189.14c23.81,11.41,51.47,10.32,77.85,9,6.48-32.2,12.68-67.07-1.37-96.76-11.34-24-34.47-40.61-59.07-50.55s-51-14.13-76.95-19.87C91,60.81,90.56,91.2,98.6,120S124.39,176.22,151.34,189.14Z" transform="translate(-24.03)" style="fill:#66b774"/><path d="M200.12,152.4c-.42,4.23-.4,9.4,3.23,11.59a118.68,118.68,0,0,0,2-63.47Q202.71,126.46,200.12,152.4Z" transform="translate(-24.03)" style="fill:#94ca9d"/><path d="M195.66,158.35a175.32,175.32,0,0,1-65.83-6.15c7.6,7.69,20.64,11.77,28,13.5s37,2.18,49,1.69c-.12-.37-.18-.69-.27-1A43.08,43.08,0,0,1,195.66,158.35Z" transform="translate(-24.03)" style="fill:#94ca9d"/><path d="M179.48,134.05a175.2,175.2,0,0,1-58.73-8.67c7.31,8,20.19,12.52,27.44,14.53,5.52,1.52,24,2.78,37.82,3.28A38.57,38.57,0,0,1,179.48,134.05Z" transform="translate(-24.03)" style="fill:#94ca9d"/><path d="M220.17,182.11C202.39,154.46,151.6,91.49,126,64.54,140.85,98.31,189.59,159.54,220.17,182.11Z" transform="translate(-24.03)" style="fill:#94ca9d"/><path d="M181.79,81.23c-5.09,10-3.34,30.11-3.34,41.4,0,14.53,5.58,19.74,7.91,22.2Q184.08,113,181.79,81.23Z" transform="translate(-24.03)" style="fill:#94ca9d"/><path d="M166.27,117.12q-2-27.93-4-55.87c-2.65,10.82-3.11,22.46-3.14,33.76a57,57,0,0,0,2.47,17.07C164.17,113.69,164.26,115,166.27,117.12Z" transform="translate(-24.03)" style="fill:#94ca9d"/><path d="M166.3,117.3c-.13-.19-.29-.37-.42-.55.1.26.21.51.32.76a10.29,10.29,0,0,0-.84-1.43c-.48-.74-.82-1.55-1.26-2.32q-25.92-9.17-51.84-18.33a102.11,102.11,0,0,0,57.44,27.2A45.05,45.05,0,0,1,166.3,117.3Z" transform="translate(-24.03)" style="fill:#94ca9d"/><path d="M496.32,216c26.84,1.65,55,11,79.65.16-29.6,36.77-31.5,92-66.28,123.9-21,19.27-51.51,26.42-79.73,22.3s-54.23-18.59-75.56-37.53A136.3,136.3,0,0,1,496.32,216Z" transform="translate(-24.03)" style="fill:#66b774"/><path d="M536.33,235.5c-26.54,32.61-83.92,66.79-129.58,82a68.94,68.94,0,0,1-37.22,1.61l-.17,0C426.3,307,488.36,268.45,536.33,235.5Z" transform="translate(-24.03)" style="fill:#94ca9d"/><path d="M443.51,98.4c-14.41,33.48-54.18,75.59-88.67,99a59.7,59.7,0,0,1-30.67,10.16H324C368.68,184.12,411.3,137.24,443.51,98.4Z" transform="translate(-24.03)" style="fill:#94ca9d"/><path d="M450.45,290.57a280.12,280.12,0,0,0,31.41-49.26c.2,10.65-4.58,24-9.76,33.3S461,289,450.45,290.57Z" transform="translate(-24.03)" style="fill:#94ca9d"/><path d="M397.29,315.63c11-1.74,18.4-12.5,21.12-23.26s5.69-19.66,4-33A163.82,163.82,0,0,1,397.29,315.63Z" transform="translate(-24.03)" style="fill:#94ca9d"/><path d="M431.44,302.23c10.9-3.7,16.62-16,17.51-27.47s2.38-21.08-1.72-34.44A169.74,169.74,0,0,1,431.44,302.23Z" transform="translate(-24.03)" style="fill:#94ca9d"/><path d="M526.86,280c-22.92,3-37.6.11-55.79,4.49a10.63,10.63,0,0,0-5,2.21c-1.33,1.27-4.87,3.53-3.72,5C483.38,291.88,507.23,290.57,526.86,280Z" transform="translate(-24.03)" style="fill:#94ca9d"/><path d="M435.33,296.9a37,37,0,0,1-3.89,5.36c21.75,11.66,38.26,18.07,69.44,16.55C476.73,311.58,456.85,307.15,435.33,296.9Z" transform="translate(-24.03)" style="fill:#94ca9d"/><path d="M405.13,312.92c-1.48-.17-3.36,0-3.9,1.38s.6,2.63,1.62,3.57A92.32,92.32,0,0,0,470,341.62c-9.4-3.06-22.93-6.4-32.83-13.18S417.05,314.3,405.13,312.92Z" transform="translate(-24.03)" style="fill:#94ca9d"/><path d="M81.08,319.86c18.9,13.85,42.25,20.81,65.62,22.57s46.86-1.42,69.77-6.35c-.6-23.25-1.85-46.81-8.78-69s-20.2-43.25-40.17-55.2c-42-25.16-98.43-3.82-143.49-23,2.09,24.48,5.79,49,14.5,72S61.26,305.34,81.08,319.86Z" transform="translate(-24.03)" style="fill:#66b774"/><path d="M114,270.58c19.86,14.7,49.81,36.3,73.19,50.25a49.85,49.85,0,0,0,16.2,6.14l.08,0c-42.4-38.5-78.9-58.32-139.51-108.69C75.2,239.88,94.43,256.1,114,270.58Z" transform="translate(-24.03)" style="fill:#94ca9d"/><path d="M183.3,313.33c-5.93-23.19-14.1-48.62-14.77-72.54-3.85,23,0,46.48,4.11,69.46C174.74,310.61,181.42,312.69,183.3,313.33Z" transform="translate(-24.03)" style="fill:#94ca9d"/><path d="M131.13,224.1c-4.07,14.66-1.82,31.67,3.82,56.68a24,24,0,0,0,9.18,2.69C135.07,261.18,135.28,246.68,131.13,224.1Z" transform="translate(-24.03)" style="fill:#94ca9d"/><path d="M96.8,215c-2.4,12.35,3.86,36.35,4.5,38.1,2.12,5.69,2.54,1.44,7.88,4.18Q103,236.09,96.8,215Z" transform="translate(-24.03)" style="fill:#94ca9d"/><path d="M100.48,253.22c-19.11,1.65-31.64,3.52-52.74-1.18,16.83,11.25,38.66,11.89,58.65,8.72a7.75,7.75,0,0,0,.77-.26A35.19,35.19,0,0,1,100.48,253.22Z" transform="translate(-24.03)" style="fill:#94ca9d"/><path d="M129.88,283.2c-19.12,2.39-38.48.1-57.61-2.18,10.8,7.08,23.67,10.54,36.52,11.82s25.83.52,38.73-.26c1.31-3.8-1.87-7.94-5.68-9.25S133.88,282.7,129.88,283.2Z" transform="translate(-24.03)" style="fill:#94ca9d"/><path d="M179.86,315.47c1.33-.39,2.79-.91,3.44-2.14.85-1.65-.3-3.77-2-4.62a8.41,8.41,0,0,0-5.45-.7c-30.15,6.26-52.66,4.4-78.06,3.75A126.56,126.56,0,0,0,179.86,315.47Z" transform="translate(-24.03)" style="fill:#94ca9d"/><path d="M123,593.8c33.38-52,94.22-85.17,156-85.08s122.53,33.43,155.77,85.52c-57,3.08-104.2,7.13-159.15,5.3S179.37,597,123,593.8Z" transform="translate(-24.03)" style="fill:#a67c52"/></svg>