<svg id="Ebene_1" data-name="Ebene 1" xmlns="http://www.w3.org/2000/svg" viewBox="0 0 600 595.28"><path d="M190.72,373.2A155.65,155.65,0,0,0,305.8,176a100.48,100.48,0,0,0-50,27.33q-3.42,3.42-6.43,7.08a93.32,93.32,0,0,1-85.73,104c-2.22.17-4.47.25-6.72.25a93.2,93.2,0,1,1,58.46-165.66,167,167,0,0,1,55.86-33,155,155,0,0,0-114.38-50,158.33,158.33,0,0,0-21.48,1.5,155.27,155.27,0,0,0-11,306.16l.1,99.94-70,.07.06,62,70-.07.07,62.13,62-.06-.07-62.13,70-.07-.06-62-70,.08-.1-99.32C187.86,373.82,189.3,373.52,190.72,373.2Z" transform="translate(0 -2.36)" style="fill:#50965a"/><path d="M479,2.36,427.58,53.74l73.47,0-80.66,80.66a168.89,168.89,0,0,0-149-18.35,154.78,154.78,0,0,1,34.44,60.05A101.14,101.14,0,1,1,256,346.4c-.92-.92-1.81-1.85-2.68-2.8a101.55,101.55,0,0,1-3.87-133.25A92.74,92.74,0,0,0,215.6,149q-3.71,3.28-7.24,6.82A168.44,168.44,0,1,0,468,182l80.66-80.66,0,73.47L600,123.39V2.36Z" transform="translate(0 -2.36)" style="fill:#62be75"/><path d="M305.8,176a100.48,100.48,0,0,0-50,27.33q-3.42,3.42-6.43,7.08a93.13,93.13,0,0,0-34-61.46,167,167,0,0,1,55.86-33A155.07,155.07,0,0,1,305.8,176Z" transform="translate(0 -2.36)" style="fill:#50965a"/></svg>