<svg id="Ebene_1" data-name="Ebene 1" xmlns="http://www.w3.org/2000/svg" viewBox="0 0 600 455.05"><path d="M54.34,316.32C32.61,300,5.43,283.72,0,244.13c123.17,3.89,115.58,61.32,115.58,61.32l.09,27.4" transform="translate(0 -72.48)" style="fill:#50965a"/><path d="M115.58,326.55S123.17,384,0,387.87C5.43,348.29,32.61,332,54.34,315.68" transform="translate(0 -72.48)" style="fill:#50965a"/><path d="M480.12,169.29S333.4,11.7,50.83,98.64c76.07,21.74,130.41,65.21,92.37,195.63C344.27,223.63,480.12,169.29,480.12,169.29Z" transform="translate(0 -72.48)" style="fill:#50965a"/><path d="M63.8,103c-4.6-1.56-9.32-3-14.11-4.39C332.26,11.7,479,169.29,479,169.29s-3.5,1.4-10.18,4C431.81,140.33,295.81,40.21,63.8,103Z" transform="translate(0 -72.48)" style="fill:#437948"/><path d="M192.11,389.45s-17,47.92-80.05,35.24c34.77,29,147.07,56.15,221.34,25.36S192.11,389.45,192.11,389.45Z" transform="translate(0 -72.48)" style="fill:#50965a"/><path d="M301.87,459.33s4,50.69-58.72,64.81c43.56,12.29,157.18-8.68,212.44-67.08S301.87,459.33,301.87,459.33Z" transform="translate(0 -72.48)" style="fill:#50965a"/><path d="M380.44,145.33c133.91,0,216.55,90.31,219.26,158.26a87,87,0,0,1-7.19,42.05c-16,6.05-37.36,9.76-56.31-1.5,0,0,6.27,30.36,30.49,45.82-36.89,47.93-102.84,89.64-189,89.64-136.17,0-295.47-125-295.47-167.13C82.26,285.34,244.27,145.33,380.44,145.33Z" transform="translate(0 -72.48)" style="fill:#62be75"/><path d="M400.42,220c-6.13,7.05-11.86,14.19-17.18,21.53A211.16,211.16,0,0,0,368.8,264.1c-8.49,15.41-14.33,31.87-14.92,48.45a81.28,81.28,0,0,0,2.93,24.58A99.48,99.48,0,0,0,361,349.05c.9,1.93,1.73,3.9,2.76,5.79.49,1,.94,1.94,1.48,2.88l1.59,2.84a167.37,167.37,0,0,0,15.27,21.76c1.4,1.78,2.92,3.45,4.36,5.22L391,392.7c1.56,1.67,3.11,3.39,4.66,5.11s3.18,3.37,4.74,5.14a127.51,127.51,0,0,1-23.89-14.9,117.64,117.64,0,0,1-20.3-20.33,100.27,100.27,0,0,1-8.09-12.29,92.47,92.47,0,0,1-6.08-13.66c-.4-1.19-.8-2.38-1.17-3.59l-1-3.65c-.57-2.46-1.11-4.93-1.47-7.44a86.32,86.32,0,0,1-.85-15.15,88.2,88.2,0,0,1,1.91-15,96.88,96.88,0,0,1,4.34-14.27,104.49,104.49,0,0,1,6.32-13.29,116.06,116.06,0,0,1,7.88-12.2,136.2,136.2,0,0,1,30.38-29.82A91.59,91.59,0,0,1,400.42,220Z" transform="translate(0 -72.48)" style="fill:#50965a"/><path d="M264.33,236a29.84,29.84,0,1,0,29.84-29.84A29.84,29.84,0,0,0,264.33,236Z" transform="translate(0 -72.48)" style="fill:none;stroke:#f6f6f6;stroke-miterlimit:10;stroke-width:8.151144083785704px;opacity:0.2"/><path d="M264.33,314.07a29.84,29.84,0,1,0,29.84-29.84A29.84,29.84,0,0,0,264.33,314.07Z" transform="translate(0 -72.48)" style="fill:none;stroke:#f6f6f6;stroke-miterlimit:10;stroke-width:8.151144083785704px;opacity:0.2"/><path d="M264.33,391.09a29.84,29.84,0,1,0,29.84-29.84A29.84,29.84,0,0,0,264.33,391.09Z" transform="translate(0 -72.48)" style="fill:none;stroke:#f6f6f6;stroke-miterlimit:10;stroke-width:8.151144083785704px;opacity:0.2"/><path d="M184.8,275.55a29.84,29.84,0,1,0,29.84-29.83A29.84,29.84,0,0,0,184.8,275.55Z" transform="translate(0 -72.48)" style="fill:none;stroke:#f6f6f6;stroke-miterlimit:10;stroke-width:8.151144083785704px;opacity:0.2"/><path d="M122.77,314.07a29.84,29.84,0,1,0,29.84-29.84A29.84,29.84,0,0,0,122.77,314.07Z" transform="translate(0 -72.48)" style="fill:none;stroke:#f6f6f6;stroke-miterlimit:10;stroke-width:8.151144083785704px;opacity:0.2"/><path d="M184.8,352.58a29.84,29.84,0,1,0,29.84-29.84A29.84,29.84,0,0,0,184.8,352.58Z" transform="translate(0 -72.48)" style="fill:none;stroke:#f6f6f6;stroke-miterlimit:10;stroke-width:8.151144083785704px;opacity:0.2"/><path d="M412.83,293a61.86,61.86,0,1,0,61.86-61.85A61.86,61.86,0,0,0,412.83,293Z" transform="translate(0 -72.48)" style="fill:#f6f6f6"/><circle cx="474.69" cy="293.04" r="34.68" transform="translate(-54.45 43.9) rotate(-13.23)" style="fill:#333"/><path d="M470.18,286.07a11.47,11.47,0,1,0,11.47-11.47A11.47,11.47,0,0,0,470.18,286.07Z" transform="translate(0 -72.48)" style="fill:#f5f4f5"/><path d="M53.91,316C32.67,300.12,6.49,284,.39,246.34,71.37,315.5,194.7,361.27,335,361.27c101.42,0,194-23.93,264.29-63.32.2,1.9.35,3.78.42,5.64a87,87,0,0,1-7.19,42.06c-16,6-37.36,9.75-56.31-1.51,0,0,6.27,30.37,30.49,45.82-27.56,35.82-71.37,68.16-127.68,82.21-58.93,46.85-156.3,63.14-195.86,52,46.31-10.43,56.24-40.76,58.27-55.94q-9.57-2.68-19-5.91c-67.2,7-142.89-14.74-170.32-37.61,32.73,6.58,53-3.17,65-14.06-29.35-19-54-39.42-70.85-57.5C93.77,368.74,65.23,385.81,0,387.87,5.4,348.54,32.25,332.2,53.91,316Z" transform="translate(0 -72.48)" style="opacity:0.1"/></svg>