<svg xmlns="http://www.w3.org/2000/svg" viewBox="0 0 600 458.97"><g style="isolation:isolate"><g id="Ebene_1" data-name="Ebene 1"><rect x="31.91" y="28.87" width="73.74" height="25" style="fill:#4c4c4c"/><rect x="31.91" y="45.25" width="73.74" height="8.61" style="fill:#303030"/><rect width="38.75" height="82.73" rx="4.99" style="fill:gray"/><rect x="98.81" width="38.75" height="82.73" rx="4.99" style="fill:gray"/><rect y="10.62" width="38.75" height="61.48" rx="4.3" style="fill:#999"/><rect x="98.81" y="10.62" width="38.75" height="61.48" rx="4.3" style="fill:#999"/><path d="M31.44,86.68h-.56V133a7.31,7.31,0,0,1-7.31,7.31H0v.56a7.31,7.31,0,0,0,7.31,7.31H31.44a7.32,7.32,0,0,0,7.31-7.31V94A7.32,7.32,0,0,0,31.44,86.68Z" transform="translate(0 -76.06)" style="fill:#b3b3b3;opacity:0.30000000000000004;mix-blend-mode:multiply"/><path d="M130.25,86.68h-.56V133a7.31,7.31,0,0,1-7.31,7.31H98.81v.56a7.31,7.31,0,0,0,7.31,7.31h24.13a7.32,7.32,0,0,0,7.31-7.31V94A7.32,7.32,0,0,0,130.25,86.68Z" transform="translate(0 -76.06)" style="fill:#b3b3b3;opacity:0.30000000000000004;mix-blend-mode:multiply"/><rect x="494.35" y="28.87" width="73.74" height="25" style="fill:#4c4c4c"/><rect x="494.35" y="45.25" width="73.74" height="8.61" style="fill:#303030"/><rect x="462.44" width="38.75" height="82.73" rx="4.99" style="fill:gray"/><rect x="561.25" width="38.75" height="82.73" rx="4.99" style="fill:gray"/><rect x="462.44" y="10.62" width="38.75" height="61.48" rx="4.3" style="fill:#999"/><rect x="561.25" y="10.62" width="38.75" height="61.48" rx="4.3" style="fill:#999"/><path d="M493.88,86.68h-.56V133A7.31,7.31,0,0,1,486,140.3H462.44v.56a7.32,7.32,0,0,0,7.31,7.31h24.13a7.31,7.31,0,0,0,7.31-7.31V94A7.31,7.31,0,0,0,493.88,86.68Z" transform="translate(0 -76.06)" style="fill:#b3b3b3;opacity:0.30000000000000004;mix-blend-mode:multiply"/><path d="M592.69,86.68h-.55V133a7.31,7.31,0,0,1-7.32,7.31H561.25v.56a7.32,7.32,0,0,0,7.31,7.31h24.13a7.31,7.31,0,0,0,7.31-7.31V94A7.31,7.31,0,0,0,592.69,86.68Z" transform="translate(0 -76.06)" style="fill:#b3b3b3;opacity:0.30000000000000004;mix-blend-mode:multiply"/><path d="M11.41,97.51c-.85,2.8-3.29,4.54-5.45,3.89s-3.22-3.46-2.37-6.26S6.88,90.6,9,91.26,12.26,94.71,11.41,97.51Z" transform="translate(0 -76.06)" style="fill:#f1f1f1;opacity:0.30000000000000004;mix-blend-mode:screen"/><path d="M51.16,112.94c-4.38.13-8-1.19-8-3s3.46-3.29,7.85-3.42,8,1.19,8,3S55.55,112.81,51.16,112.94Z" transform="translate(0 -76.06)" style="fill:#f1f1f1;opacity:0.30000000000000004;mix-blend-mode:screen"/><path d="M109.56,97.51c-.85,2.8-3.29,4.54-5.45,3.89s-3.22-3.46-2.37-6.26,3.29-4.54,5.45-3.88S110.41,94.71,109.56,97.51Z" transform="translate(0 -76.06)" style="fill:#f1f1f1;opacity:0.30000000000000004;mix-blend-mode:screen"/><path d="M512.91,112.94c-4.39.13-8-1.19-8-3s3.46-3.29,7.85-3.42,8,1.19,8,3S517.29,112.81,512.91,112.94Z" transform="translate(0 -76.06)" style="fill:#f1f1f1;opacity:0.30000000000000004;mix-blend-mode:screen"/><path d="M571.3,97.51c-.85,2.8-3.29,4.54-5.45,3.89s-3.22-3.46-2.37-6.26,3.29-4.54,5.45-3.88S572.15,94.71,571.3,97.51Z" transform="translate(0 -76.06)" style="fill:#f1f1f1;opacity:0.30000000000000004;mix-blend-mode:screen"/><path d="M473.16,97.51c-.86,2.8-3.3,4.54-5.45,3.89s-3.22-3.46-2.37-6.26,3.29-4.54,5.45-3.88S474,94.71,473.16,97.51Z" transform="translate(0 -76.06)" style="fill:#f1f1f1;opacity:0.30000000000000004;mix-blend-mode:screen"/><path d="M70.4,133.54c-13.85,41.08-33.29,139.22,97.21,139.22" transform="translate(0 -76.06)" style="fill:none;stroke:#333;stroke-linecap:round;stroke-linejoin:round;stroke-width:17.78063951836976px"/><path d="M51.42,127.32a20.06,20.06,0,1,1,11.52,25.91A20.06,20.06,0,0,1,51.42,127.32Z" transform="translate(0 -76.06)" style="fill:#333"/><path d="M531.54,133.54c13.85,41.08,33.29,139.22-97.21,139.22" transform="translate(0 -76.06)" style="fill:none;stroke:#333;stroke-linecap:round;stroke-linejoin:round;stroke-width:17.78063951836976px"/><path d="M513.08,141.71A20.06,20.06,0,1,1,539,153.23,20,20,0,0,1,513.08,141.71Z" transform="translate(0 -76.06)" style="fill:#333"/><path d="M251.18,398.8s-32.77,74.45,6.29,125.14H216.9" transform="translate(0 -76.06)" style="fill:none;stroke:#333;stroke-linecap:round;stroke-linejoin:round;stroke-width:22.177804509576436px"/><path d="M343.73,398.8s32.77,74.45-6.28,125.14H378" transform="translate(0 -76.06)" style="fill:none;stroke:#333;stroke-linecap:round;stroke-linejoin:round;stroke-width:22.177804509576436px"/><path d="M263.38,113.06A34.08,34.08,0,0,0,232,133.81a35.12,35.12,0,0,0-50.62,25,15.44,15.44,0,0,0-19,20.67c-13.48,4.81-19.18,20.77-13.48,33.78a28.78,28.78,0,0,0-14.3,40.67,43.9,43.9,0,0,0,4.06,66.74,26,26,0,0,0,12.5,39.89,41,41,0,0,0-.52,6.51A40.38,40.38,0,0,0,204,405.3a50.24,50.24,0,0,0,93.46-25.61V147.14A34.08,34.08,0,0,0,263.38,113.06Z" transform="translate(0 -76.06)" style="fill:#62be75"/><path d="M270.44,113.8A41.36,41.36,0,0,1,283,143.26V243.89a39.15,39.15,0,0,1-64.88-.21,38.59,38.59,0,0,1,3.59,15.13c2,3.46,6.74,7.11,9.38,9.52a27.9,27.9,0,0,0,12.49,7c3.07.58,6.18,1,9.16,1.46,4.74.76,9.81,1.5,14.6.84a23.59,23.59,0,0,1,4.84-1.69l1.42-.22a16.87,16.87,0,0,0,1.88-1.08c2.62-1.76,4.85-4.12,7.52-5.84v91.21a41.88,41.88,0,0,1-41.49,41.49c-20.18,0-37.36-15-40.83-34.33a26.83,26.83,0,0,1-49.91,2.69A40.37,40.37,0,0,0,204,405.3a50.24,50.24,0,0,0,93.46-25.61V147.14A34.09,34.09,0,0,0,270.44,113.8Z" transform="translate(0 -76.06)" style="fill:#50965a;opacity:0.2;mix-blend-mode:multiply"/><path d="M151.14,360.54a41,41,0,0,0-.52,6.51A40.38,40.38,0,0,0,204,405.3" transform="translate(0 -76.06)" style="fill:none;stroke:#50965a;stroke-miterlimit:10;stroke-width:6.838672190257051px"/><path d="M297.46,147.14c1.42,31.55,2.16,63.1,2.66,94.65.32,15.77.38,31.55.57,47.32l.19,47.33-.08,23.66,0,11.83,0,5.92c0,1,0,1.95-.05,3l-.06,1.57L300.5,384a53.09,53.09,0,0,1-8,23.59,52,52,0,0,1-17.77,17.24,52,52,0,0,1-47.48,2.76,51.14,51.14,0,0,1-19-14.76A48.94,48.94,0,0,1,202,402.66L196.88,392l6,10.2a47.59,47.59,0,0,0,6.8,9.48,49.67,49.67,0,0,0,18.88,12.89,48.24,48.24,0,0,0,58.89-20.09,46.84,46.84,0,0,0,6.61-21l.09-1.38,0-1.38c0-.9,0-1.9,0-2.89l0-5.92,0-11.83L294,336.44l.18-47.33c.19-15.77.26-31.55.57-47.32C295.3,210.24,296,178.69,297.46,147.14Z" transform="translate(0 -76.06)" style="fill:#50965a"/><path d="M134.58,253.91a43.9,43.9,0,0,0,4.06,66.74" transform="translate(0 -76.06)" style="fill:none;stroke:#50965a;stroke-miterlimit:10;stroke-width:6.838672190257051px"/><path d="M162.36,179.46c-10.06,3-20.32,19.86-13.48,33.78" transform="translate(0 -76.06)" style="fill:none;stroke:#50965a;stroke-miterlimit:10;stroke-width:5.470941153083468px"/><path d="M230.45,136.85a32,32,0,0,0-14.22-4.36,33.59,33.59,0,0,0-15,2.6,30.81,30.81,0,0,0-3.49,1.76,34,34,0,0,0-3.31,2.14,34.59,34.59,0,0,0-5.77,5.45l-.65.76c-.21.27-.39.54-.59.81l-1.18,1.63-1,1.73-.51.87-.45.91-.88,1.83-.72,1.9-.36,1-.28,1-.56,2,.35-2,.18-1,.26-1,.53-2,.7-1.95.36-1,.43-.94.88-1.89,1-1.82c.18-.3.34-.61.53-.9l.6-.86a35.94,35.94,0,0,1,5.49-6.4,37.38,37.38,0,0,1,3.32-2.68,35.52,35.52,0,0,1,3.6-2.31,37.58,37.58,0,0,1,33.92-1.26Z" transform="translate(0 -76.06)" style="fill:#50965a"/><path d="M229.31,147.14a26.84,26.84,0,0,1-.13-11,30.37,30.37,0,0,1,4.35-10.44c.55-.78,1.06-1.6,1.67-2.33l1.89-2.17a38.9,38.9,0,0,1,4.3-3.81,35.61,35.61,0,0,1,10.12-5.49,38,38,0,0,1,11.38-2.12A36.41,36.41,0,0,1,285,116.26a36.47,36.47,0,0,1,8.49,8,41,41,0,0,1,3.23,4.9l1.29,2.65c.45.88.72,1.83,1.09,2.74.16.46.35.92.5,1.39l.37,1.42a25.9,25.9,0,0,1,.66,2.87l.43,2.92.16,2.94c.06,1,0,1.85,0,2.75v8l0,10.62-.3,42.44-.48,42.45c-.24,14.15-.4,28.3-.7,42.45s-.59,28.3-.94,42.45l-.61,21.22-.31,10.61-.38,10.61-.38-10.61-.31-10.61-.62-21.22q-.52-21.22-.93-42.45c-.31-14.15-.47-28.3-.7-42.45L294,209.9l-.3-42.44V148.89c0-.88,0-1.81-.05-2.56a29.72,29.72,0,0,0-1.7-9.24,21.65,21.65,0,0,0-.84-2.2l-1-2.13a33.14,33.14,0,0,0-2.56-4,30.58,30.58,0,0,0-6.73-6.61,32.39,32.39,0,0,0-8.44-4.27,33.17,33.17,0,0,0-9.4-1.51,31.58,31.58,0,0,0-9.45,1.44,29.77,29.77,0,0,0-8.6,4.3,32.74,32.74,0,0,0-7,6.72,42.72,42.72,0,0,0-5.21,8.4A61,61,0,0,0,229.31,147.14Z" transform="translate(0 -76.06)" style="fill:#50965a"/><path d="M169.77,187.89c-4.71-.83-9-4.78-10.62-9.85a17,17,0,0,1-.62-8,17.63,17.63,0,0,1,3.18-7.52l.63-.82.7-.76a14.29,14.29,0,0,1,1.49-1.42,18.59,18.59,0,0,1,3.42-2.26,16.66,16.66,0,0,1,7.83-1.75,15.36,15.36,0,0,1,7.45,2,12.93,12.93,0,0,1,5.09,5.21,18,18,0,0,0-12.15-1.88,14.83,14.83,0,0,0-11.8,16A18.21,18.21,0,0,0,169.77,187.89Z" transform="translate(0 -76.06)" style="fill:#50965a"/><path d="M140.45,262.08a25.28,25.28,0,0,1-11.3-14.61,29.45,29.45,0,0,1,.81-19.29,29.28,29.28,0,0,1,12.59-14.64,29.19,29.19,0,0,1,9-3.23,26.43,26.43,0,0,1,4.69-.28,22.41,22.41,0,0,1,4.56.58,48.11,48.11,0,0,0-8.26,2.92,38.06,38.06,0,0,0-7,4.45,35.4,35.4,0,0,0-5.47,5.83c-.36.55-.75,1.09-1.13,1.63s-.65,1.14-1,1.7a13.79,13.79,0,0,0-.9,1.75,15,15,0,0,0-.78,1.8l-.7,1.84c-.17.63-.33,1.27-.51,1.9a14,14,0,0,0-.42,1.92,18.18,18.18,0,0,0-.31,2,31,31,0,0,0,0,8A37,37,0,0,0,140.45,262.08Z" transform="translate(0 -76.06)" style="fill:#50965a"/><path d="M160.59,362.33a23.66,23.66,0,0,1-18.39-3.8,27.08,27.08,0,0,1-11-16.38,28.08,28.08,0,0,1-.34-10.09,25.82,25.82,0,0,1,3.34-9.43,25,25,0,0,1,6.49-7.3,22,22,0,0,1,8.54-4A32.27,32.27,0,0,0,139,325a27.12,27.12,0,0,0,6.56,29.35A32.16,32.16,0,0,0,160.59,362.33Z" transform="translate(0 -76.06)" style="fill:#50965a"/><path d="M300.88,379.25a53.81,53.81,0,0,1-6.45,27l-1.79,3a12,12,0,0,1-1,1.47l-1,1.43a53,53,0,0,1-4.49,5.45,54,54,0,0,1-11,8.86c-16.1,10.14-37.62,10.66-54.32,1.54a55.87,55.87,0,0,1-11.48-8.3,25.75,25.75,0,0,1-2.52-2.49l-2.36-2.64c-.75-.92-1.42-1.9-2.12-2.84l-1-1.44c-.35-.47-.62-1-.93-1.5l-1.8-3.05c-.56-1-1-2.13-1.53-3.19L196.3,401c-.26-.53-.41-1.1-.62-1.65L194.5,396a55.44,55.44,0,0,1-2.31-13.87,48.37,48.37,0,0,1,6.55-26.8,44.15,44.15,0,0,1,19.7-18.07A61.62,61.62,0,0,0,204.12,358a52.28,52.28,0,0,0-3.86,23.71,46.82,46.82,0,0,0,2.25,11.73l1.07,2.79a13.67,13.67,0,0,0,.55,1.38l.67,1.34c.46.88.86,1.79,1.35,2.65l1.59,2.53c.27.41.5.86.81,1.25l.91,1.18c.62.77,1.19,1.59,1.83,2.34a52.18,52.18,0,0,0,4.16,4.25,46.64,46.64,0,0,0,9.67,6.84,47.52,47.52,0,0,0,5.43,2.38c.93.32,1.85.7,2.79,1l2.88.72c.48.11.95.26,1.43.35l1.47.23,2.93.46,3,.15,1.48.08a14.55,14.55,0,0,0,1.48,0,46.89,46.89,0,0,0,35.94-18.17l.92-1.18a9.55,9.55,0,0,0,.86-1.22l1.6-2.53a24,24,0,0,0,1.43-2.64l.68-1.33a8.81,8.81,0,0,0,.63-1.36,44,44,0,0,0,2-5.67,51.32,51.32,0,0,0,2-11.92Z" transform="translate(0 -76.06)" style="fill:#50965a"/><path d="M217.86,238a61.65,61.65,0,0,0,3.51,10.71c.31.85.81,1.63,1.2,2.44l.61,1.2c.19.41.47.77.7,1.16l1.4,2.26c.53.72,1.07,1.42,1.58,2.13a42.5,42.5,0,0,0,16,12.81,39.13,39.13,0,0,0,9.77,3.08l1.27.26c.43.09.86.09,1.29.14.86.08,1.72.18,2.59.29,1.74.09,3.48.1,5.24,0a49.83,49.83,0,0,0,20.94-6.2,34,34,0,0,1-20.06,12.43,40.49,40.49,0,0,1-6.13.81c-1,0-2.07,0-3.11,0-.52,0-1,0-1.56-.05l-1.55-.17a29.68,29.68,0,0,1-3.1-.45l-3-.71a10.35,10.35,0,0,1-1.5-.46l-1.47-.53-1.48-.53c-.49-.18-.95-.43-1.43-.64a39.06,39.06,0,0,1-18-16.69c-.48-.91-.93-1.84-1.38-2.75s-.74-1.91-1.09-2.87a19.81,19.81,0,0,1-.86-2.91l-.36-1.48a10.18,10.18,0,0,1-.28-1.48l-.35-3a27.12,27.12,0,0,1,0-3A30.72,30.72,0,0,1,217.86,238Z" transform="translate(0 -76.06)" style="fill:#50965a"/><path d="M184,245.32a28.93,28.93,0,0,0,1.68,7.48,26.14,26.14,0,0,0,3.65,6.54,25.25,25.25,0,0,0,11.54,8.49,22.82,22.82,0,0,0,6.83,1.39,26.32,26.32,0,0,0,3.44,0,25,25,0,0,0,3.36-.53,23,23,0,0,0,11.3-6.39l6.25,7.25a31.4,31.4,0,0,1-16.55,6.25,33.55,33.55,0,0,1-4.37,0,35.9,35.9,0,0,1-4.28-.64,28.49,28.49,0,0,1-8-3,28.91,28.91,0,0,1-11.56-11.54,28.36,28.36,0,0,1-2.78-7.51A29.83,29.83,0,0,1,184,245.32Z" transform="translate(0 -76.06)" style="fill:#50965a"/><path d="M228.46,159.43a56.77,56.77,0,0,0,3.36,7,35.17,35.17,0,0,0,4.12,5.66,31.52,31.52,0,0,0,10.39,7.7,29.28,29.28,0,0,0,6,2c1.05.32,2.14.34,3.22.58s2.21.2,3.34.23a41.18,41.18,0,0,0,14.45-2.6c-2.61,4.93-7.69,8.53-13.4,10.05a25.16,25.16,0,0,1-4.4.76,28.18,28.18,0,0,1-4.5,0,26,26,0,0,1-8.76-2.32,26.37,26.37,0,0,1-12.7-12.35,23.68,23.68,0,0,1-2.31-8.39c0-.72,0-1.43,0-2.14a18.75,18.75,0,0,1,.18-2.12A17.33,17.33,0,0,1,228.46,159.43Z" transform="translate(0 -76.06)" style="fill:#50965a"/><path d="M213.18,301.76a51.52,51.52,0,0,0,3,7.1,34.21,34.21,0,0,0,4,5.88,30.44,30.44,0,0,0,10.58,8.07,26.88,26.88,0,0,0,6.28,2.06c1.08.31,2.21.32,3.33.54s2.26.15,3.41.14a38.15,38.15,0,0,0,14.37-3.2,21.89,21.89,0,0,1-13.49,9.44,27.05,27.05,0,0,1-4.31.68,29.28,29.28,0,0,1-4.39-.08c-.73-.08-1.47-.14-2.2-.29l-2.16-.49a21.67,21.67,0,0,1-2.11-.69,14.9,14.9,0,0,1-2.07-.83,26.37,26.37,0,0,1-12.51-12,23.94,23.94,0,0,1-2.45-8.17c0-.71-.11-1.41-.13-2.1a20.55,20.55,0,0,1,.1-2.08A18.71,18.71,0,0,1,213.18,301.76Z" transform="translate(0 -76.06)" style="fill:#50965a"/><path d="M224.33,323.36a33.18,33.18,0,0,1-7.57,4.91,30.64,30.64,0,0,1-8.48,2.53,30.18,30.18,0,0,1-16.85-2.34,27.88,27.88,0,0,1-7-4.51,32,32,0,0,1-2.93-2.89A29.75,29.75,0,0,1,179,317.8a27.68,27.68,0,0,1-4.42-15,26.59,26.59,0,0,0,6.33,13.6A27,27,0,0,0,183.6,319a29.14,29.14,0,0,0,3,2.13A23.84,23.84,0,0,0,193.1,324a24.17,24.17,0,0,0,13.65-.18,23.15,23.15,0,0,0,6-2.87,24.31,24.31,0,0,0,4.82-4.33Z" transform="translate(0 -76.06)" style="fill:#50965a"/><path d="M331.53,113.06a34.08,34.08,0,0,1,31.37,20.75,35.12,35.12,0,0,1,50.62,25,15.46,15.46,0,0,1,19,20.67c13.48,4.81,19.18,20.77,13.47,33.78a28.78,28.78,0,0,1,14.3,40.67,43.89,43.89,0,0,1-4.05,66.74,26,26,0,0,1-12.51,39.89,41,41,0,0,1,.53,6.51,40.39,40.39,0,0,1-53.39,38.25,50.23,50.23,0,0,1-93.45-25.61V147.14A34.07,34.07,0,0,1,331.53,113.06Z" transform="translate(0 -76.06)" style="fill:#62be75"/><path d="M411.12,246a23.18,23.18,0,0,1-37.76,6c-.18.45-.36.9-.55,1.35-2.13,4.77-6.47,8.16-8.49,12.94-1,2.29,6.39,4.62,8.29,5.16a39.07,39.07,0,0,0,13.86,1.24,23.28,23.28,0,0,1,12.5-4.78,8.48,8.48,0,0,1,1.75-1.46c6.49-4.14,9.92-12.36,10.41-19.86C411.13,246.33,411.12,246.14,411.12,246Z" transform="translate(0 -76.06)" style="fill:#50965a;opacity:0.30000000000000004;mix-blend-mode:multiply"/><path d="M400.57,314.59a23.48,23.48,0,0,1-19-9.86c-.42,4.31-.82,8.75-2.2,12.78a14,14,0,0,1-2.35,4.18l.16.08c7.21,4.06,16.85,7.74,25.19,4.74,3.76-1.35,8.36-3.89,11.09-6.88,2.2-2.41,3.65-5.63,5.18-8.64a6.41,6.41,0,0,1,.37-2.69c.46-1.22.49-2.51.9-3.72.12-.37.27-.72.41-1.08A23.54,23.54,0,0,1,400.57,314.59Z" transform="translate(0 -76.06)" style="fill:#50965a;opacity:0.30000000000000004;mix-blend-mode:multiply"/><path d="M473.81,285.55a43.58,43.58,0,0,0-4.71-19.76,43.76,43.76,0,0,1,.29,5,47.39,47.39,0,0,1-23.58,40.6,21.83,21.83,0,0,1,6.07,15,22.14,22.14,0,0,1-21.94,21.94h-.26a19.91,19.91,0,0,1-39.43-.51,20.38,20.38,0,0,1-4.81-4.82,20.56,20.56,0,0,1-3.63-2.87,19,19,0,0,1-3-1.3,50.43,50.43,0,0,1,4.56,20.89c0,28.06-23.42,51.48-51.49,51.48a50.85,50.85,0,0,1-29.22-9.32,50.23,50.23,0,0,0,88.29,3.42,40.39,40.39,0,0,0,53.39-38.25,41,41,0,0,0-.53-6.51,26,26,0,0,0,12.51-39.89A43.85,43.85,0,0,0,473.81,285.55Z" transform="translate(0 -76.06)" style="fill:#50965a;opacity:0.2;mix-blend-mode:multiply"/><g style="opacity:0.30000000000000004;mix-blend-mode:multiply"><path d="M398.05,135.6a34.86,34.86,0,0,0-4.44-2.46c.29,1,.54,2.09.73,3.17A15.14,15.14,0,0,1,398.05,135.6Z" transform="translate(0 -76.06)" style="fill:#e64a59"/></g><path d="M443.77,360.54a41,41,0,0,1,.53,6.51,40.39,40.39,0,0,1-53.39,38.25" transform="translate(0 -76.06)" style="fill:none;stroke:#50965a;stroke-miterlimit:10;stroke-width:6.838672190257051px"/><path d="M297.46,147.14c1.42,31.55,2.16,63.1,2.66,94.65.32,15.77.38,31.55.57,47.32l.19,47.33-.08,23.66,0,11.83,0,5.92c0,1,0,2,0,2.89v1.38l.1,1.38a46.83,46.83,0,0,0,6.6,21,48.27,48.27,0,0,0,58.9,20.09,49.72,49.72,0,0,0,18.87-12.89,47.59,47.59,0,0,0,6.8-9.48l6-10.2-5.17,10.67a48.52,48.52,0,0,1-6.25,10.19,51,51,0,0,1-19,14.76,52,52,0,0,1-47.48-2.76,55.3,55.3,0,0,1-9.92-7.53,53.94,53.94,0,0,1-7.85-9.71,53.11,53.11,0,0,1-8-23.59l-.13-1.57-.06-1.57c0-1.08,0-2,0-3l0-5.92,0-11.83L294,336.44l.18-47.33c.19-15.77.26-31.55.57-47.32C295.3,210.24,296,178.69,297.46,147.14Z" transform="translate(0 -76.06)" style="fill:#50965a"/><path d="M460.33,253.91a43.89,43.89,0,0,1-4.05,66.74" transform="translate(0 -76.06)" style="fill:none;stroke:#50965a;stroke-miterlimit:10;stroke-width:6.838672190257051px"/><path d="M432.56,179.46c10.06,3,20.32,19.86,13.47,33.78" transform="translate(0 -76.06)" style="fill:none;stroke:#50965a;stroke-miterlimit:10;stroke-width:5.470941153083468px"/><path d="M361.34,130.77A37.56,37.56,0,0,1,395.25,132a34.58,34.58,0,0,1,3.61,2.31,38.74,38.74,0,0,1,3.31,2.68,35.94,35.94,0,0,1,5.49,6.4l.6.86c.19.29.35.6.53.9l1,1.82.88,1.89.44.94.35,1,.7,1.95.54,2,.26,1,.17,1,.35,2-.56-2-.27-1-.36-1-.73-1.9-.88-1.83-.44-.91-.52-.87-1-1.73L407.55,146c-.2-.27-.39-.54-.6-.81l-.65-.76a34.59,34.59,0,0,0-5.77-5.45,35.07,35.07,0,0,0-3.3-2.14,31.67,31.67,0,0,0-3.49-1.76,33.64,33.64,0,0,0-15.05-2.6,31.9,31.9,0,0,0-14.22,4.36Z" transform="translate(0 -76.06)" style="fill:#50965a"/><path d="M365.61,147.14a61,61,0,0,0-3.41-9.88,42.76,42.76,0,0,0-5.22-8.4,32.46,32.46,0,0,0-7-6.72,29.9,29.9,0,0,0-8.6-4.3,31.64,31.64,0,0,0-9.46-1.44,33,33,0,0,0-9.39,1.51,32.6,32.6,0,0,0-8.45,4.27,30.58,30.58,0,0,0-6.73,6.61,34.43,34.43,0,0,0-2.56,4l-1,2.13c-.36.7-.55,1.47-.84,2.2a30,30,0,0,0-1.7,9.24c-.06.75,0,1.68-.05,2.56v8l0,10.62-.3,42.44-.48,42.45c-.24,14.15-.4,28.3-.7,42.45s-.59,28.3-.94,42.45l-.61,21.22-.31,10.61-.38,10.61-.38-10.61-.31-10.61-.62-21.22q-.52-21.22-.93-42.45c-.31-14.15-.47-28.3-.7-42.45L294,209.9l-.3-42.44V148.89c0-.9,0-1.73,0-2.76l.16-2.93.44-2.92a23.79,23.79,0,0,1,.65-2.87l.38-1.42c.15-.47.33-.93.5-1.39.36-.91.63-1.86,1.08-2.74l1.29-2.65a41.12,41.12,0,0,1,3.24-4.9,36.42,36.42,0,0,1,8.48-8A36.41,36.41,0,0,1,332,109.77a37.93,37.93,0,0,1,11.37,2.12,35.61,35.61,0,0,1,10.12,5.49,39.94,39.94,0,0,1,4.31,3.81l1.88,2.17c.62.73,1.12,1.55,1.67,2.33a30.37,30.37,0,0,1,4.35,10.44A26.84,26.84,0,0,1,365.61,147.14Z" transform="translate(0 -76.06)" style="fill:#50965a"/><path d="M425.14,187.89a18.15,18.15,0,0,0,5.4-11,14.83,14.83,0,0,0-11.8-16,18,18,0,0,0-12.14,1.88,12.91,12.91,0,0,1,5.08-5.21,15.37,15.37,0,0,1,7.46-2,16.69,16.69,0,0,1,7.83,1.75,18.93,18.93,0,0,1,3.42,2.26,15.36,15.36,0,0,1,1.49,1.42l.69.76.63.82a17.53,17.53,0,0,1,3.19,7.52,17,17,0,0,1-.63,8C434.12,183.11,429.86,187.06,425.14,187.89Z" transform="translate(0 -76.06)" style="fill:#50965a"/><path d="M454.46,262.08a37.13,37.13,0,0,0,6.08-15.78,31.42,31.42,0,0,0,0-8,18.18,18.18,0,0,0-.31-2,15.61,15.61,0,0,0-.41-1.92c-.19-.63-.35-1.27-.52-1.9l-.69-1.84a16.86,16.86,0,0,0-.78-1.8,15.23,15.23,0,0,0-.9-1.75c-.33-.56-.63-1.15-1-1.7s-.76-1.08-1.12-1.63a35.83,35.83,0,0,0-5.47-5.83,38.76,38.76,0,0,0-7-4.45,48.42,48.42,0,0,0-8.26-2.92,22.23,22.23,0,0,1,4.56-.58,26.49,26.49,0,0,1,4.69.28,29.13,29.13,0,0,1,9,3.23,30.38,30.38,0,0,1,7.51,6.21,30,30,0,0,1,5.08,8.43,29.52,29.52,0,0,1,.82,19.29A25.29,25.29,0,0,1,454.46,262.08Z" transform="translate(0 -76.06)" style="fill:#50965a"/><path d="M434.33,362.33a32.16,32.16,0,0,0,15-8A27.17,27.17,0,0,0,455.93,325a32.29,32.29,0,0,0-10.21-13.63,22.09,22.09,0,0,1,8.55,4,25.12,25.12,0,0,1,6.48,7.3,25.84,25.84,0,0,1,3.35,9.43,28.31,28.31,0,0,1-.35,10.09,27.07,27.07,0,0,1-11,16.38A23.66,23.66,0,0,1,434.33,362.33Z" transform="translate(0 -76.06)" style="fill:#50965a"/><path d="M300.88,379.25a50.79,50.79,0,0,0,2,11.92,45.5,45.5,0,0,0,2,5.67,8.81,8.81,0,0,0,.63,1.36l.69,1.33a23.93,23.93,0,0,0,1.42,2.64l1.6,2.53a8.72,8.72,0,0,0,.87,1.22l.92,1.18a44.15,44.15,0,0,0,3.94,4.48,47.14,47.14,0,0,0,32,13.69,14.63,14.63,0,0,0,1.48,0l1.48-.08,3-.15,2.93-.46,1.46-.23c.49-.09,1-.24,1.44-.35l2.87-.72c.95-.28,1.86-.66,2.8-1a47.38,47.38,0,0,0,5.42-2.38,46.11,46.11,0,0,0,9.67-6.84,50.59,50.59,0,0,0,4.16-4.25c.65-.75,1.22-1.57,1.83-2.34l.92-1.18c.3-.39.53-.84.81-1.25l1.58-2.53c.49-.86.9-1.77,1.35-2.65l.67-1.34a13.74,13.74,0,0,0,.56-1.38l1.07-2.79a47.27,47.27,0,0,0,2.25-11.73A52.29,52.29,0,0,0,390.79,358a61.74,61.74,0,0,0-14.31-20.75,44.07,44.07,0,0,1,19.69,18.07,48.37,48.37,0,0,1,6.55,26.8A55,55,0,0,1,400.41,396l-1.17,3.34c-.21.55-.37,1.12-.63,1.65l-.74,1.61c-.51,1.06-1,2.15-1.53,3.19l-1.8,3.05c-.31.5-.58,1-.93,1.5l-1,1.44c-.71.94-1.38,1.92-2.12,2.84l-2.37,2.64a24.68,24.68,0,0,1-2.52,2.49,55.34,55.34,0,0,1-11.48,8.3c-16.69,9.12-38.22,8.6-54.31-1.54a51.76,51.76,0,0,1-15.49-14.31l-1-1.43a12,12,0,0,1-1-1.47l-1.79-3a53.81,53.81,0,0,1-6.44-27Z" transform="translate(0 -76.06)" style="fill:#50965a"/><path d="M377.06,238a30.72,30.72,0,0,1,.64,5.84,29.83,29.83,0,0,1,0,3l-.36,3a8.06,8.06,0,0,1-.28,1.48l-.35,1.48a19.85,19.85,0,0,1-.87,2.91c-.34,1-.7,1.92-1.09,2.87s-.9,1.84-1.38,2.75a39.06,39.06,0,0,1-18,16.69c-.47.21-.93.46-1.42.64l-1.48.53-1.48.53a9.64,9.64,0,0,1-1.5.46l-3.05.71a29.29,29.29,0,0,1-3.1.45l-1.55.17c-.51.06-1,0-1.56.05-1,0-2.07,0-3.1,0a40.79,40.79,0,0,1-6.14-.81,34,34,0,0,1-20.05-12.43,49.78,49.78,0,0,0,20.93,6.2c1.76.08,3.51.07,5.25,0,.86-.11,1.72-.21,2.59-.29.42-.05.86-.05,1.28-.14l1.27-.26a39.2,39.2,0,0,0,9.78-3.08,42.55,42.55,0,0,0,16-12.81c.51-.71,1.05-1.41,1.58-2.13l1.41-2.26c.23-.39.5-.75.69-1.16l.61-1.2c.39-.81.89-1.59,1.2-2.44A61.66,61.66,0,0,0,377.06,238Z" transform="translate(0 -76.06)" style="fill:#50965a"/><path d="M410.91,245.32a29.41,29.41,0,0,1-.54,7.81,28,28,0,0,1-2.78,7.51A28.91,28.91,0,0,1,396,272.18a28.42,28.42,0,0,1-8,3,35.76,35.76,0,0,1-4.29.64,33.39,33.39,0,0,1-4.36,0,31.41,31.41,0,0,1-16.56-6.25l6.26-7.25a23,23,0,0,0,11.3,6.39,24.86,24.86,0,0,0,3.35.53,26.33,26.33,0,0,0,3.44,0,22.89,22.89,0,0,0,6.84-1.39,25.35,25.35,0,0,0,11.54-8.49,26.11,26.11,0,0,0,3.64-6.54A28.94,28.94,0,0,0,410.91,245.32Z" transform="translate(0 -76.06)" style="fill:#50965a"/><path d="M366.45,159.43a17.33,17.33,0,0,1,1,4c.08.7.18,1.41.19,2.12s0,1.42-.06,2.14a23.66,23.66,0,0,1-2.3,8.39,26.35,26.35,0,0,1-12.71,12.35,26,26,0,0,1-8.76,2.32,28.18,28.18,0,0,1-4.5,0,24.88,24.88,0,0,1-4.39-.76c-5.72-1.52-10.8-5.12-13.4-10.05a41.1,41.1,0,0,0,14.45,2.6c1.13,0,2.24-.12,3.33-.23s2.18-.26,3.22-.58a29.57,29.57,0,0,0,6.06-2,31.72,31.72,0,0,0,10.39-7.7,35.17,35.17,0,0,0,4.12-5.66A56.77,56.77,0,0,0,366.45,159.43Z" transform="translate(0 -76.06)" style="fill:#50965a"/><path d="M381.73,301.76a18.71,18.71,0,0,1,.79,4,20.55,20.55,0,0,1,.11,2.08c0,.69-.09,1.39-.13,2.1a23.94,23.94,0,0,1-2.45,8.17,26.39,26.39,0,0,1-12.52,12,15.29,15.29,0,0,1-2.06.83c-.71.23-1.39.53-2.11.69l-2.17.49c-.72.15-1.46.21-2.19.29a29.44,29.44,0,0,1-4.4.08,27.05,27.05,0,0,1-4.31-.68,21.84,21.84,0,0,1-13.48-9.44,38.1,38.1,0,0,0,14.36,3.2c1.15,0,2.29-.05,3.42-.14s2.24-.23,3.32-.54a26.88,26.88,0,0,0,6.28-2.06,30.26,30.26,0,0,0,10.58-8.07,33.64,33.64,0,0,0,4-5.88A51.52,51.52,0,0,0,381.73,301.76Z" transform="translate(0 -76.06)" style="fill:#50965a"/><path d="M377.36,316.59a24.53,24.53,0,0,0,4.81,4.33,23.15,23.15,0,0,0,6,2.87,24.2,24.2,0,0,0,13.66.18,23.78,23.78,0,0,0,6.53-2.89,30.43,30.43,0,0,0,3-2.13,28,28,0,0,0,2.64-2.59,26.51,26.51,0,0,0,6.33-13.6,27.68,27.68,0,0,1-4.42,15,28.53,28.53,0,0,1-2.44,3.26A32,32,0,0,1,410.5,324a27.53,27.53,0,0,1-7,4.51,30.15,30.15,0,0,1-16.84,2.34,30.71,30.71,0,0,1-8.49-2.53,33.12,33.12,0,0,1-7.56-4.91Z" transform="translate(0 -76.06)" style="fill:#50965a"/><path d="M178.75,174.2c-.85,2.8-3.29,4.54-5.45,3.88s-3.22-3.45-2.37-6.25,3.29-4.54,5.45-3.89S179.6,171.4,178.75,174.2Z" transform="translate(0 -76.06)" style="fill:#f1f1f1;opacity:0.30000000000000004;mix-blend-mode:screen"/><path d="M150.57,327.05c-.85,2.8-3.29,4.53-5.45,3.88s-3.22-3.46-2.37-6.26,3.29-4.54,5.45-3.88S151.42,324.25,150.57,327.05Z" transform="translate(0 -76.06)" style="fill:#f1f1f1;opacity:0.30000000000000004;mix-blend-mode:screen"/><path d="M367.8,248.37c-.85,2.8-3.29,4.54-5.45,3.89S359.13,248.8,360,246s3.29-4.54,5.45-3.88S368.65,245.57,367.8,248.37Z" transform="translate(0 -76.06)" style="fill:#f1f1f1;opacity:0.30000000000000004;mix-blend-mode:screen"/><path d="M149.83,234.41c-2,6.65-5.41,11.51-7.57,10.85S140,238.68,142,232s5.41-11.5,7.57-10.85S151.85,227.77,149.83,234.41Z" transform="translate(0 -76.06)" style="fill:#f1f1f1;opacity:0.30000000000000004;mix-blend-mode:screen"/><path d="M251.21,139c-3.32,5.39-8,8.55-10.43,7S239,139,242.34,133.59s8-8.55,10.43-7S254.52,133.63,251.21,139Z" transform="translate(0 -76.06)" style="fill:#f1f1f1;opacity:0.30000000000000004;mix-blend-mode:screen"/><path d="M322.81,137.44c-3.31,5.4-8,8.55-10.42,7.05S310.64,137.4,314,132s8-8.55,10.43-7S326.12,132.05,322.81,137.44Z" transform="translate(0 -76.06)" style="fill:#f1f1f1;opacity:0.30000000000000004;mix-blend-mode:screen"/></g></g></svg>