<svg id="Ebene_1" data-name="Ebene 1" xmlns="http://www.w3.org/2000/svg" viewBox="0 0 600 600"><path d="M600.36,299.87c0,165.68-134.32,300-300,300s-300-134.32-300-300,134.31-300,300-300,300,134.31,300,300Zm0,0" transform="translate(-0.36 0.13)" style="fill:#62be75"/><path d="M560.8,299.87c0,143.83-116.6,260.44-260.44,260.44S39.92,443.7,39.92,299.87,156.52,39.43,300.36,39.43,560.8,156,560.8,299.87Zm0,0" transform="translate(-0.36 0.13)" style="fill:#f6f6f6"/><path d="M270,498.33a9.89,9.89,0,1,1-9.89-9.89,9.89,9.89,0,0,1,9.89,9.89Zm0,0" transform="translate(-0.36 0.13)" style="fill:#92d29f"/><path d="M247.62,108.66a9.89,9.89,0,1,1-9.9-9.89,9.89,9.89,0,0,1,9.9,9.89Zm0,0" transform="translate(-0.36 0.13)" style="fill:#92d29f"/><path d="M326.74,130.26a26.38,26.38,0,1,1-26.38-26.38,26.39,26.39,0,0,1,26.38,26.38Zm0,0" transform="translate(-0.36 0.13)" style="fill:#67a36e"/><path d="M198.08,463.81a26.31,26.31,0,0,1-15.74-5.22,198.74,198.74,0,0,1-40.7-40.7A26.37,26.37,0,1,1,184,386.39a146.25,146.25,0,0,0,29.89,29.89,26.37,26.37,0,0,1-15.76,47.53Zm0,0" transform="translate(-0.36 0.13)" style="fill:#67a36e"/><path d="M493.48,306.48a26.26,26.26,0,0,1,3.35,16.23,198.74,198.74,0,0,1-14.9,55.61,26.38,26.38,0,0,1-48.44-20.89,146.21,146.21,0,0,0,10.95-40.85,26.37,26.37,0,0,1,49-10.1Zm0,0" transform="translate(-0.36 0.13)" style="fill:#67a36e"/><path d="M402.65,135.92a26.18,26.18,0,0,1,15.72,5.23,198.29,198.29,0,0,1,40.71,40.7,26.37,26.37,0,0,1-42.3,31.5,146.09,146.09,0,0,0-29.9-29.9,26.37,26.37,0,0,1,15.77-47.53Zm0,0" transform="translate(-0.36 0.13)" style="fill:#67a36e"/><path d="M376.19,431.22a151.5,151.5,0,0,1-75.83,20.29,9.89,9.89,0,1,0,0,19.78,171.34,171.34,0,0,0,85.73-22.94,9.89,9.89,0,1,0-9.9-17.13Zm0,0" transform="translate(-0.36 0.13)" style="fill:#92d29f"/><path d="M224.53,168.51a9.89,9.89,0,1,0-9.91-17.12,172.08,172.08,0,0,0-85.69,148.48,9.89,9.89,0,0,0,19.78,0,152.23,152.23,0,0,1,75.82-131.36Zm0,0" transform="translate(-0.36 0.13)" style="fill:#92d29f"/><path d="M165.16,150.68a9.9,9.9,0,0,0-14,0,211.08,211.08,0,0,0-54.66,94.57,9.89,9.89,0,1,0,19.11,5.11,191.24,191.24,0,0,1,49.54-85.7,9.89,9.89,0,0,0,0-14Zm0,0" transform="translate(-0.36 0.13)" style="fill:#92d29f"/><path d="M221.1,220.61a9.89,9.89,0,1,0-14-14,131,131,0,0,0-38.63,93.25,9.89,9.89,0,1,0,19.78,0,112.49,112.49,0,0,1,5-33.28l40.25,16.53,7.51-18.3L200.81,248.3a112.51,112.51,0,0,1,20.29-27.69Zm0,0" transform="translate(-0.36 0.13)" style="fill:#92d29f"/><path d="M393.6,379.12a9.89,9.89,0,0,0-14,0,112.64,112.64,0,0,1-14.87,12.5L337,343.47l-17.13,9.89,27.81,48.16a110.85,110.85,0,0,1-18.25,6.64,9.89,9.89,0,0,0,2.55,19.45,9.78,9.78,0,0,0,2.56-.33,132,132,0,0,0,59.11-34.16,9.89,9.89,0,0,0,0-14Zm0,0" transform="translate(-0.36 0.13)" style="fill:#92d29f"/><path d="M382.78,299.87a82.42,82.42,0,1,1-82.42-82.42,82.41,82.41,0,0,1,82.42,82.42Zm0,0" transform="translate(-0.36 0.13)" style="fill:#437948"/></svg>