<svg id="Ebene_1" data-name="Ebene 1" xmlns="http://www.w3.org/2000/svg" viewBox="0 0 600 347.38"><path d="M161.83,209.31c0,1.79-2.07,3.25-4.63,3.25h-53c-2.56,0-4.64-1.46-4.64-3.25h0c0-1.8,2.08-3.26,4.64-3.26h53c2.56,0,4.63,1.46,4.63,3.26Z" transform="translate(0 -126.31)" style="fill:#f6f6f6"/><path d="M257.62,318.43c0,1.8-1.85,3.26-4.12,3.26h-47c-2.27,0-4.12-1.46-4.12-3.26h0c0-1.8,1.85-3.25,4.12-3.25h47c2.27,0,4.12,1.45,4.12,3.25Z" transform="translate(0 -126.31)" style="fill:#f6f6f6"/><path d="M197.44,344a3.07,3.07,0,0,1-3-3,3,3,0,0,1,3.12-2.88l12.75.1a3.11,3.11,0,0,1,3,3.27,3.07,3.07,0,0,1-3.16,3.11Z" transform="translate(0 -126.31)" style="fill:#f6f6f6"/><path d="M196.81,352.64a3,3,0,1,1,.47-5.89l12.74.77a3.2,3.2,0,0,1-.51,6.37Z" transform="translate(0 -126.31)" style="fill:#f6f6f6"/><path d="M195.8,361a3,3,0,1,1,.78-5.86l12.67,1.44a3.2,3.2,0,0,1-.85,6.34Z" transform="translate(0 -126.31)" style="fill:#f6f6f6"/><path d="M194.24,369.48a3,3,0,0,1-2.42-3.47,3,3,0,0,1,3.52-2.33l12.58,2.14a3.2,3.2,0,0,1-1.2,6.28Z" transform="translate(0 -126.31)" style="fill:#f6f6f6"/><path d="M192.29,377.64a3,3,0,0,1-2.24-3.59,3.06,3.06,0,0,1,3.66-2.13l12.44,2.83a3.2,3.2,0,0,1-1.54,6.21Z" transform="translate(0 -126.31)" style="fill:#f6f6f6"/><path d="M189.81,385.88a2.94,2.94,0,1,1,1.75-5.62l12.26,3.55a3.21,3.21,0,0,1-1.91,6.12Z" transform="translate(0 -126.31)" style="fill:#f6f6f6"/><path d="M186.93,393.75a2.94,2.94,0,1,1,2.06-5.51l12,4.25a3.1,3.1,0,0,1,1.77,4.1,3.13,3.13,0,0,1-4,1.9Z" transform="translate(0 -126.31)" style="fill:#f6f6f6"/><path d="M183.48,401.61a3.08,3.08,0,0,1-1.57-3.93,3,3,0,0,1,4-1.43l11.75,5A3.22,3.22,0,0,1,195,407.1Z" transform="translate(0 -126.31)" style="fill:#f6f6f6"/><path d="M179.66,409a3,3,0,0,1-1.32-4,3.06,3.06,0,0,1,4-1.18l11.41,5.71a3.1,3.1,0,0,1,1.24,4.3,3.13,3.13,0,0,1-4.25,1.4Z" transform="translate(0 -126.31)" style="fill:#f6f6f6"/><path d="M175.23,416.32a2.92,2.92,0,1,1,3.08-5l11,6.46a3.23,3.23,0,0,1-3.41,5.48Z" transform="translate(0 -126.31)" style="fill:#f6f6f6"/><path d="M170.47,423.11a2.92,2.92,0,1,1,3.4-4.73l10.52,7.2a3.24,3.24,0,0,1-3.78,5.26Z" transform="translate(0 -126.31)" style="fill:#f6f6f6"/><path d="M165,429.64a2.91,2.91,0,1,1,3.75-4.44l10,8a3.25,3.25,0,0,1-4.19,5Z" transform="translate(0 -126.31)" style="fill:#f6f6f6"/><path d="M159.32,435.55a3.06,3.06,0,0,1-.11-4.19,3,3,0,0,1,4.19.09l9.3,8.73a3.26,3.26,0,0,1-4.6,4.61Z" transform="translate(0 -126.31)" style="fill:#f6f6f6"/><path d="M153,441.08a2.88,2.88,0,1,1,4.39-3.72l8.53,9.49a3.28,3.28,0,0,1-5,4.23Z" transform="translate(0 -126.31)" style="fill:#f6f6f6"/><path d="M146.36,445.83a2.86,2.86,0,1,1,4.68-3.29l7.65,10.21a3.16,3.16,0,0,1-.89,4.46,3.19,3.19,0,0,1-4.5-.68Z" transform="translate(0 -126.31)" style="fill:#f6f6f6"/><path d="M139.15,450a2.85,2.85,0,1,1,5-2.77l6.6,10.92a3.3,3.3,0,0,1-5.76,3.21Z" transform="translate(0 -126.31)" style="fill:#f6f6f6"/><path d="M131.78,453.29a2.84,2.84,0,1,1,5.22-2.21l5.46,11.53a3.32,3.32,0,0,1-6.11,2.59Z" transform="translate(0 -126.31)" style="fill:#f6f6f6"/><path d="M123.92,455.81a2.83,2.83,0,1,1,5.42-1.61l4.14,12.06a3.34,3.34,0,0,1-6.38,1.91Z" transform="translate(0 -126.31)" style="fill:#f6f6f6"/><path d="M116.07,457.37a2.82,2.82,0,1,1,5.53-1l2.76,12.45a3.34,3.34,0,0,1-6.56,1.2Z" transform="translate(0 -126.31)" style="fill:#f6f6f6"/><path d="M107.86,458a2.82,2.82,0,1,1,5.62-.34l1.26,12.7a3.34,3.34,0,0,1-6.66.39Z" transform="translate(0 -126.31)" style="fill:#f6f6f6"/><path d="M99.87,457.64a2.82,2.82,0,1,1,5.62.34l-.22,12.75a3.34,3.34,0,0,1-6.66-.39Z" transform="translate(0 -126.31)" style="fill:#f6f6f6"/><path d="M91.75,456.36a2.82,2.82,0,1,1,5.54,1L95.55,470a3.34,3.34,0,0,1-6.56-1.2Z" transform="translate(0 -126.31)" style="fill:#f6f6f6"/><path d="M84,454.2a2.83,2.83,0,1,1,5.42,1.61l-3.18,12.36a3.34,3.34,0,0,1-6.38-1.91Z" transform="translate(0 -126.31)" style="fill:#f6f6f6"/><path d="M76.35,451.08a2.84,2.84,0,1,1,5.22,2.21L77,465.2a3.32,3.32,0,0,1-6.11-2.59Z" transform="translate(0 -126.31)" style="fill:#f6f6f6"/><path d="M69.23,447.22a2.85,2.85,0,1,1,5,2.77l-5.8,11.36a3.3,3.3,0,0,1-5.77-3.21Z" transform="translate(0 -126.31)" style="fill:#f6f6f6"/><path d="M62.31,442.54A2.87,2.87,0,1,1,67,445.83l-7,10.7a3.29,3.29,0,0,1-5.38-3.78Z" transform="translate(0 -126.31)" style="fill:#f6f6f6"/><path d="M56,437.36a2.88,2.88,0,1,1,4.39,3.72l-7.92,10a3.28,3.28,0,0,1-5-4.23Z" transform="translate(0 -126.31)" style="fill:#f6f6f6"/><path d="M50,431.45a2.9,2.9,0,1,1,4.08,4.1l-8.78,9.24a3.26,3.26,0,0,1-4.6-4.61Z" transform="translate(0 -126.31)" style="fill:#f6f6f6"/><path d="M44.56,425.2a2.91,2.91,0,1,1,3.75,4.44l-9.51,8.5a3.25,3.25,0,0,1-4.19-5Z" transform="translate(0 -126.31)" style="fill:#f6f6f6"/><path d="M39.48,418.38a2.92,2.92,0,1,1,3.41,4.73l-10.15,7.73A3.24,3.24,0,0,1,29,425.58Z" transform="translate(0 -126.31)" style="fill:#f6f6f6"/><path d="M35,411.36a2.92,2.92,0,1,1,3.09,5l-10.68,7a3.23,3.23,0,0,1-3.4-5.48Z" transform="translate(0 -126.31)" style="fill:#f6f6f6"/><path d="M31,403.83A3.06,3.06,0,0,1,35,405a3,3,0,0,1-1.31,4l-11.14,6.23a3.23,3.23,0,0,1-3-5.7Z" transform="translate(0 -126.31)" style="fill:#f6f6f6"/><path d="M27.46,396.25a2.94,2.94,0,1,1,2.41,5.36L18.36,407.1a3.22,3.22,0,0,1-2.64-5.86Z" transform="translate(0 -126.31)" style="fill:#f6f6f6"/><path d="M24.35,388.24a2.95,2.95,0,1,1,2.08,5.51l-11.84,4.74a3.21,3.21,0,0,1-2.26-6Z" transform="translate(0 -126.31)" style="fill:#f6f6f6"/><path d="M21.79,380.26a2.94,2.94,0,1,1,1.75,5.62l-12.1,4.05a3.21,3.21,0,0,1-1.9-6.12Z" transform="translate(0 -126.31)" style="fill:#f6f6f6"/><path d="M19.64,371.92a3.06,3.06,0,0,1,3.66,2.13,3,3,0,0,1-2.24,3.59L8.74,381A3.13,3.13,0,0,1,5,378.6a3.09,3.09,0,0,1,2.24-3.85Z" transform="translate(0 -126.31)" style="fill:#f6f6f6"/><path d="M18,363.68A3,3,0,0,1,21.53,366a3,3,0,0,1-2.42,3.47L6.63,372.1a3.2,3.2,0,0,1-1.19-6.28Z" transform="translate(0 -126.31)" style="fill:#f6f6f6"/><path d="M16.77,355.13a3,3,0,1,1,.79,5.86L5,362.91a3.2,3.2,0,0,1-.85-6.34Z" transform="translate(0 -126.31)" style="fill:#f6f6f6"/><path d="M16.06,346.75a3,3,0,1,1,.47,5.89L3.84,353.89a3.2,3.2,0,0,1-.51-6.37Z" transform="translate(0 -126.31)" style="fill:#f6f6f6"/><path d="M15.76,338.1A3.05,3.05,0,0,1,18.89,341a3.09,3.09,0,0,1-3,3l-12.74.56A3.08,3.08,0,0,1,0,341.47a3.11,3.11,0,0,1,3-3.27Z" transform="translate(0 -126.31)" style="fill:#f6f6f6"/><path d="M15.91,329.68a3.09,3.09,0,0,1,3,3,3.05,3.05,0,0,1-3.13,2.88L3,335.5a3.11,3.11,0,0,1-3-3.27,3.08,3.08,0,0,1,3.17-3.11Z" transform="translate(0 -126.31)" style="fill:#f6f6f6"/><path d="M16.53,321.06a3,3,0,1,1-.47,5.89l-12.73-.77a3.2,3.2,0,0,1,.51-6.37Z" transform="translate(0 -126.31)" style="fill:#f6f6f6"/><path d="M17.56,312.71a3,3,0,1,1-.79,5.86L4.1,317.13A3.2,3.2,0,0,1,5,310.79Z" transform="translate(0 -126.31)" style="fill:#f6f6f6"/><path d="M19.11,304.22A3,3,0,1,1,18,310L5.44,307.88a3.2,3.2,0,0,1,1.19-6.28Z" transform="translate(0 -126.31)" style="fill:#f6f6f6"/><path d="M21.06,296.06a3,3,0,0,1,2.24,3.59,3.06,3.06,0,0,1-3.66,2.13L7.2,299A3.09,3.09,0,0,1,5,295.1a3.13,3.13,0,0,1,3.78-2.36Z" transform="translate(0 -126.31)" style="fill:#f6f6f6"/><path d="M23.54,287.81a3.06,3.06,0,0,1,2,3.72,3,3,0,0,1-3.78,1.9L9.54,289.89a3.21,3.21,0,0,1,1.9-6.12Z" transform="translate(0 -126.31)" style="fill:#f6f6f6"/><path d="M26.43,280a2.95,2.95,0,1,1-2.08,5.51l-12-4.25a3.1,3.1,0,0,1-1.78-4.1,3.13,3.13,0,0,1,4-1.91Z" transform="translate(0 -126.31)" style="fill:#f6f6f6"/><path d="M29.87,272.09A3,3,0,0,1,31.43,276a3,3,0,0,1-4,1.42l-11.74-5a3.22,3.22,0,0,1,2.64-5.86Z" transform="translate(0 -126.31)" style="fill:#f6f6f6"/><path d="M33.7,264.68A2.94,2.94,0,1,1,31,269.87l-11.41-5.71a3.23,3.23,0,0,1,3-5.7Z" transform="translate(0 -126.31)" style="fill:#f6f6f6"/><path d="M38.13,257.38a2.92,2.92,0,1,1-3.09,5l-11-6.46a3.23,3.23,0,0,1,3.4-5.49Z" transform="translate(0 -126.31)" style="fill:#f6f6f6"/><path d="M42.89,250.59a3,3,0,0,1,.77,4.15,3.08,3.08,0,0,1-4.18.58L29,248.11a3.24,3.24,0,0,1,3.78-5.25Z" transform="translate(0 -126.31)" style="fill:#f6f6f6"/><path d="M48.31,244.06a2.9,2.9,0,1,1-3.75,4.43l-10-8a3.25,3.25,0,0,1,4.19-5Z" transform="translate(0 -126.31)" style="fill:#f6f6f6"/><path d="M54,238.15A2.89,2.89,0,1,1,50,242.24l-9.3-8.72a3.26,3.26,0,0,1,4.6-4.62Z" transform="translate(0 -126.31)" style="fill:#f6f6f6"/><path d="M60.37,232.61A2.88,2.88,0,1,1,56,236.34l-8.53-9.49a3.28,3.28,0,0,1,5-4.24Z" transform="translate(0 -126.31)" style="fill:#f6f6f6"/><path d="M67,227.87a2.87,2.87,0,1,1-4.69,3.29l-7.64-10.22a3.14,3.14,0,0,1,.89-4.45,3.18,3.18,0,0,1,4.49.68Z" transform="translate(0 -126.31)" style="fill:#f6f6f6"/><path d="M74.2,223.71a2.85,2.85,0,1,1-5,2.77l-6.6-10.92a3.3,3.3,0,0,1,5.77-3.21Z" transform="translate(0 -126.31)" style="fill:#f6f6f6"/><path d="M81.57,220.41a2.84,2.84,0,1,1-5.22,2.21l-5.46-11.53A3.32,3.32,0,0,1,77,208.5Z" transform="translate(0 -126.31)" style="fill:#f6f6f6"/><path d="M89.43,217.89A2.83,2.83,0,1,1,84,219.5l-4.14-12.07a3.34,3.34,0,0,1,6.38-1.9Z" transform="translate(0 -126.31)" style="fill:#f6f6f6"/><path d="M97.29,216.33a2.82,2.82,0,1,1-5.54,1L89,204.89a3.34,3.34,0,0,1,6.56-1.2Z" transform="translate(0 -126.31)" style="fill:#f6f6f6"/><path d="M105.49,215.72a2.82,2.82,0,1,1-5.62.33l-1.26-12.69a3.34,3.34,0,0,1,6.66-.4Z" transform="translate(0 -126.31)" style="fill:#f6f6f6"/><path d="M197.59,335.6a3,3,0,0,1-3.12-2.88,3.07,3.07,0,0,1,3-3l12.75-.56a3.07,3.07,0,0,1,3.16,3.11,3.11,3.11,0,0,1-3,3.27Z" transform="translate(0 -126.31)" style="fill:#f6f6f6"/><path d="M207.3,328.71a3.18,3.18,0,0,1-3.18,3.19h0a3.19,3.19,0,0,1-3.19-3.19V317.37a3.19,3.19,0,0,1,3.19-3.19h0a3.18,3.18,0,0,1,3.18,3.19Z" transform="translate(0 -126.31)" style="fill:#f6f6f6"/><path d="M498.67,438.18C540.14,417.45,521,366.42,521,366.42l-55.82-185H276.62l-55.82,185s-19.14,51,22.33,71.76Z" transform="translate(0 -126.31)" style="fill:#6cb6a8"/><rect x="240.13" y="310.28" width="261.55" height="28.71" rx="6.38" style="fill:#5d9c90"/><path d="M340.57,260.48a4.7,4.7,0,0,1-4.69,4.7H318.66a4.7,4.7,0,0,1-4.69-4.7V243.26a4.69,4.69,0,0,1,4.69-4.69h17.22a4.69,4.69,0,0,1,4.69,4.69Z" transform="translate(0 -126.31)" style="fill:#f6f6f6"/><path d="M384.21,260.48a4.71,4.71,0,0,1-4.7,4.7H362.29a4.71,4.71,0,0,1-4.7-4.7V243.26a4.7,4.7,0,0,1,4.7-4.69h17.22a4.7,4.7,0,0,1,4.7,4.69Z" transform="translate(0 -126.31)" style="fill:#f6f6f6"/><path d="M427.84,260.48a4.71,4.71,0,0,1-4.7,4.7H405.92a4.7,4.7,0,0,1-4.69-4.7V243.26a4.69,4.69,0,0,1,4.69-4.69h17.22a4.7,4.7,0,0,1,4.7,4.69Z" transform="translate(0 -126.31)" style="fill:#f6f6f6"/><path d="M340.57,302a4.69,4.69,0,0,1-4.69,4.7H318.66A4.69,4.69,0,0,1,314,302V284.74a4.69,4.69,0,0,1,4.69-4.69h17.22a4.69,4.69,0,0,1,4.69,4.69Z" transform="translate(0 -126.31)" style="fill:#f6f6f6"/><path d="M384.21,302a4.7,4.7,0,0,1-4.7,4.7H362.29a4.7,4.7,0,0,1-4.7-4.7V284.74a4.7,4.7,0,0,1,4.7-4.69h17.22a4.7,4.7,0,0,1,4.7,4.69Z" transform="translate(0 -126.31)" style="fill:#f6f6f6"/><path d="M427.84,302a4.7,4.7,0,0,1-4.7,4.7H405.92a4.69,4.69,0,0,1-4.69-4.7V284.74a4.69,4.69,0,0,1,4.69-4.69h17.22a4.7,4.7,0,0,1,4.7,4.69Z" transform="translate(0 -126.31)" style="fill:#f6f6f6"/><path d="M318.66,195.21h17.21a4.7,4.7,0,0,1,4.7,4.7v17.22a4.69,4.69,0,0,1-4.69,4.69H318.66a4.69,4.69,0,0,1-4.69-4.69V199.91A4.7,4.7,0,0,1,318.66,195.21Z" style="fill:#f6f6f6"/><path d="M384.21,343.43a4.71,4.71,0,0,1-4.7,4.7H362.29a4.71,4.71,0,0,1-4.7-4.7V326.22a4.71,4.71,0,0,1,4.7-4.7h17.22a4.71,4.71,0,0,1,4.7,4.7Z" transform="translate(0 -126.31)" style="fill:#f6f6f6"/><path d="M427.84,343.43a4.71,4.71,0,0,1-4.7,4.7H405.92a4.7,4.7,0,0,1-4.69-4.7V326.22a4.7,4.7,0,0,1,4.69-4.7h17.22a4.71,4.71,0,0,1,4.7,4.7Z" transform="translate(0 -126.31)" style="fill:#f6f6f6"/><rect x="313.97" y="236.69" width="26.61" height="26.61" rx="4.7" style="fill:#f6f6f6"/><rect x="357.59" y="236.69" width="26.61" height="26.61" rx="4.7" style="fill:#f6f6f6"/><path d="M427.84,384.91a4.71,4.71,0,0,1-4.7,4.7H405.92a4.7,4.7,0,0,1-4.69-4.7V367.69a4.69,4.69,0,0,1,4.69-4.69h17.22a4.7,4.7,0,0,1,4.7,4.69Z" transform="translate(0 -126.31)" style="fill:#f6f6f6"/><rect x="244.91" y="276.79" width="251.98" height="15.95" rx="6.38" style="fill:#7ed5c5"/><polygon points="476.73 93.39 465.18 55.11 276.62 55.11 265.07 93.39 476.73 93.39" style="fill:#5d9c90"/><path d="M555.54,219.41c-192.23-59.32-363.53,0-363.53,0V152.68s171.3-59.33,363.53,0Z" transform="translate(0 -126.31)" style="fill:#6cb6a8"/><path d="M255.5,215.47a86.55,86.55,0,0,0-2.21-10.25c-10.52-38-43.27-62.07-73.16-53.79s-45.58,45.78-35,83.77a89,89,0,0,0,3.38,9.92Z" transform="translate(0 -126.31)" style="fill:#6cb6a8"/><path d="M486.3,215.47a90.73,90.73,0,0,1,2.21-10.25c10.52-38,43.28-62.07,73.16-53.79s45.58,45.78,35.06,83.77a91,91,0,0,1-3.38,9.92Z" transform="translate(0 -126.31)" style="fill:#6cb6a8"/><path d="M255.5,215.47a86.55,86.55,0,0,0-2.21-10.25c-10.52-38-43.27-62.07-73.16-53.79s-45.58,45.78-35,83.77a89,89,0,0,0,3.38,9.92Z" transform="translate(0 -126.31)" style="fill:#7ed5c5"/><path d="M486.3,215.47a90.73,90.73,0,0,1,2.21-10.25c10.52-38,43.28-62.07,73.16-53.79s45.58,45.78,35.06,83.77a91,91,0,0,1-3.38,9.92Z" transform="translate(0 -126.31)" style="fill:#7ed5c5"/><path d="M263.31,225.35c.89,3.14-1.28,6.51-4.84,7.52l-103.13,29.2c-3.56,1-7.17-.72-8.05-3.86l-2.82-9.95c-.89-3.14,1.27-6.51,4.84-7.51l103.12-29.21c3.56-1,7.17.72,8.06,3.86Z" transform="translate(0 -126.31)" style="fill:#6cb6a8"/><path d="M263.31,225.35c.89,3.14-1.28,6.51-4.84,7.52l-103.13,29.2c-3.56,1-7.17-.72-8.05-3.86l-2.82-9.95c-.89-3.14,1.27-6.51,4.84-7.51l103.12-29.21c3.56-1,7.17.72,8.06,3.86Z" transform="translate(0 -126.31)" style="fill:#89e7d5"/><path d="M479.93,225.35c-.89,3.14,1.27,6.51,4.83,7.52l103.13,29.2c3.56,1,7.17-.72,8.06-3.86l2.82-9.95c.89-3.14-1.28-6.51-4.84-7.51L490.8,211.54c-3.56-1-7.17.72-8.06,3.86Z" transform="translate(0 -126.31)" style="fill:#6cb6a8"/><path d="M479.93,225.35c-.89,3.14,1.27,6.51,4.83,7.52l103.13,29.2c3.56,1,7.17-.72,8.06-3.86l2.82-9.95c.89-3.14-1.28-6.51-4.84-7.51L490.8,211.54c-3.56-1-7.17.72-8.06,3.86Z" transform="translate(0 -126.31)" style="fill:#89e7d5"/><path d="M467.13,151.51c0,5.3-9,8-20.28,6.59a607,607,0,0,0-151.89,0c-11.31,1.44-20.29-1.29-20.29-6.59h0c0-5.28,9-11.11,20.29-12.56a607,607,0,0,1,151.89,0c11.31,1.45,20.28,7.28,20.28,12.56Z" transform="translate(0 -126.31)" style="fill:#7ed5c5"/></svg>