<svg xmlns="http://www.w3.org/2000/svg" viewBox="0 0 600 591.64"><g style="isolation:isolate"><g id="Ebene_1" data-name="Ebene 1"><rect x="370.78" y="59.15" width="133.32" height="198" transform="translate(17.63 354.28) rotate(-45.39)" style="fill:#876348"/><path d="M449.18,301.76l7.61,7.49c11.41,11.22,34.19,6.55,50.88-10.42L579,226.3c16.69-17,21-39.83,9.57-51.05L581,167.76c-4.15-4.07-12.42-2.38-18.48,3.78L452.66,283.23C446.59,289.39,445,297.69,449.18,301.76Z" transform="translate(0 -4.18)" style="fill:#a88365"/><path d="M467.19,314.76c12,2.63,27.94-3.18,40.47-15.91L579,226.31c12.52-12.73,18.06-28.77,15.24-40.72Z" transform="translate(0 -4.18)" style="fill:#876348"/><path d="M296.94,152.58,289.28,145c-11.45-11.34-7.06-34.36,9.82-51.42l72.12-72.86c16.88-17,39.85-21.68,51.31-10.34L430.18,18c4.16,4.12,2.57,12.48-3.56,18.67l-111,112.19C309.44,155,301.1,156.7,296.94,152.58Z" transform="translate(0 -4.18)" style="fill:#a88365"/><path d="M283.59,134.61c-2.8-12.06,2.83-28.21,15.49-41L371.2,20.75C383.86,8,400,2.16,412,4.84Z" transform="translate(0 -4.18)" style="fill:#876348"/><path d="M325,163.53l14.39,10.64a413.15,413.15,0,0,1,84.16,83.24l10,13.2L549.83,152.77l-20.76-13.39a253,253,0,0,1-73.28-72L441.3,45.69Z" transform="translate(0 -4.18)" style="fill:#bc9679"/><path d="M326.24,169.16l.08.08a6.14,6.14,0,0,0,8.67-.05L447.09,55.56a6.13,6.13,0,0,0,0-8.66l-.09-.09a6.14,6.14,0,0,0-8.67.06L326.18,160.49A6.13,6.13,0,0,0,326.24,169.16Z" transform="translate(0 -4.18)" style="fill:#a88365"/><path d="M433.76,275.25l.09.09a6.14,6.14,0,0,0,8.67-.06l112.1-113.63a6.12,6.12,0,0,0-.06-8.66l-.08-.09a6.14,6.14,0,0,0-8.67.06L433.71,266.59A6.13,6.13,0,0,0,433.76,275.25Z" transform="translate(0 -4.18)" style="fill:#a88365"/><path d="M13.14,543.44,325.94,248l16.77,22.12L50.56,580.93c-18.86,19.77-30.38,17.43-40.93,7S-6.59,562.51,13.14,543.44Z" transform="translate(0 -4.18)" style="fill:#a88365"/><path d="M312.45,235.54c2.48-2.51,8.38-.81,14.05,3.73,5.58-20.21,17.55-40.24,37.89-45.13l5.08,4.48,24.93,24.27,4.57,4.92c-4.78,20.49-24.91,32.7-45.23,38.36,4.77,5.71,6.62,11.75,4.1,14.3l-.11.11c-2.89,2.91-10.41.15-16.81-6.18l-22.23-22c-6.4-6.33-9.24-13.82-6.35-16.74Z" transform="translate(0 -4.18)" style="fill:#a88365"/><path d="M384,585.41H578.67V570.92A19.63,19.63,0,0,0,559,551.29H403.59A19.63,19.63,0,0,0,384,570.92Z" transform="translate(0 -4.18)" style="fill:#876348"/><rect x="359.22" y="566.56" width="240.78" height="25.08" rx="4.54" style="fill:#a88365"/><path d="M384,570.92H578.67v-2.68a3.15,3.15,0,0,0-3.16-3.15L384.4,569.53Z" transform="translate(0 -4.18)" style="fill:#272525;opacity:0.1;mix-blend-mode:multiply"/></g></g></svg>