<svg id="Ebene_1" data-name="Ebene 1" xmlns="http://www.w3.org/2000/svg" viewBox="0 0 600 428.2"><path d="M376.41,307.61l-34.28-25.48L321.93,267l-10.11-7.5-14.94,11.9-5.45,4.34,3.41-26,7.06-24.86.25-.87-28.76-7.68a34.5,34.5,0,0,0-16.86-.31l-44.32,10.16-73.88-52.56L73.73,273.89l93.42,50.82,19.34,28.46a66.35,66.35,0,0,0,20.27,19.34l60.71,43c59.8-14.32,113.2-59.05,115.14-103.57A55.51,55.51,0,0,0,376.41,307.61Z" transform="translate(0 -85.9)" style="fill:#e5c6a9"/><path d="M423.21,343.93a19.84,19.84,0,0,0-2-1.92l-8.61-7.5-24-18c-.68-.49-3.3-2.53-5.95-4.53-2.61,11-10.16,19-25.16,22.63-1.52,12.91-12,21.41-29.48,26.53-2.92,12.71-13,21.17-29,26-4.86,15.59-19.61,27-31.52,28.36l28.11,19.91c26.41,18.66,40.85-7.44,32.79-15.93l3,2.17c25.47,19.28,43.08-8.43,29.38-25.16,19.9,19.33,46.24-6.2,31.67-27.09.87.74,1.74,1.42,2.54,2a9.6,9.6,0,0,0,1,.75C417.57,386.64,437.34,359.18,423.21,343.93Z" transform="translate(0 -85.9)" style="fill:#e5c6a9"/><path d="M219.93,347.75a18,18,0,0,0,7.47-24.39l-1.56-2.93A18,18,0,0,0,201.45,313l-32.22,17.12a16.83,16.83,0,0,0-7,22.77l3.2,6a15.72,15.72,0,0,0,21.26,6.51Z" transform="translate(0 -85.9)" style="fill:#fdb"/><path d="M252.6,374.79a18,18,0,0,0,7.71-24.51l-1.55-2.93a18,18,0,0,0-24.15-7.59l-41,21a16.85,16.85,0,0,0-7.2,22.9l3.19,6a15.73,15.73,0,0,0,21.05,6.62Z" transform="translate(0 -85.9)" style="fill:#fdb"/><path d="M278.51,405.38a18.33,18.33,0,0,0,7.59-24.79l-1.59-3A18.33,18.33,0,0,0,259.72,370L227,387.42a17.11,17.11,0,0,0-7.09,23.15l3.25,6.12a16,16,0,0,0,21.62,6.62Z" transform="translate(0 -85.9)" style="fill:#fdb"/><path d="M305.24,427.3c6.87-3.65,9.25-12.6,5.33-20l-1.31-2.46c-3.92-7.39-12.67-10.43-19.54-6.78l-25.16,13.36c-6.41,3.41-8.63,11.77-5,18.67l2.69,5.06c3.42,6.44,11.05,9.09,17,5.91Z" transform="translate(0 -85.9)" style="fill:#fdb"/><path d="M449.63,179.24l-61.9,42.38s-47.58-8.17-52.91-6.56l-32.92,9.86-21.44,6.38a14.79,14.79,0,0,0-9.67,9.12l-19.71,54.67A13.37,13.37,0,0,0,259,312.2l4,1.54a28.12,28.12,0,0,0,36.44-16.61l7.44-20.33a11.91,11.91,0,0,1,7.26-7.19l6.94-2.35.87-.25s100.66,76.24,101.28,76.92L445,320.61l62.28-38.41Z" transform="translate(0 -85.9)" style="fill:#fdb"/><polygon points="140.18 248.67 97.81 221.84 167.87 100.32 212.27 133.1 140.18 248.67" style="fill:#ededed"/><path d="M0,112.94V234.58a53.92,53.92,0,0,0,25.34,45.71C61,302.54,90.51,320.61,90.51,320.61L167.89,186.2S106.58,140.08,42.07,91.86C24.72,78.89,0,91.27,0,112.94Z" transform="translate(0 -85.9)" style="fill:#7ed5c5"/><polygon points="459.82 241.69 502.19 214.86 432.13 93.34 387.73 126.12 459.82 241.69" style="fill:#ededed"/><path d="M600,118.62V223.9a60.58,60.58,0,0,1-28.49,51.38c-23.08,14.4-43.25,26.83-53.93,33.39a9.22,9.22,0,0,1-12.82-3.27L436.18,186.29a9.23,9.23,0,0,1,2.45-12c16.29-12.25,60.95-45.8,109.15-81.86C569.32,76.36,600,91.73,600,118.62Z" transform="translate(0 -85.9)" style="fill:#6cb6a8"/><circle cx="74.14" cy="192.44" r="9.8" style="fill:#fff"/><circle cx="45.63" cy="172.84" r="9.8" style="fill:#fff"/><circle cx="519.72" cy="192.44" r="9.8" style="fill:#fff"/><circle cx="548.23" cy="172.84" r="9.8" style="fill:#fff"/><path d="M296.66,184.57a5.35,5.35,0,0,1-5.34-5.35V140.68a5.35,5.35,0,0,1,10.69,0v38.54A5.35,5.35,0,0,1,296.66,184.57Z" transform="translate(0 -85.9)" style="fill:#f6f6f6"/><path d="M296.66,514.1a5.35,5.35,0,0,1-5.34-5.35V470.22a5.35,5.35,0,1,1,10.69,0v38.53A5.35,5.35,0,0,1,296.66,514.1Z" transform="translate(0 -85.9)" style="fill:#f6f6f6"/><path d="M426.8,460.2a5.3,5.3,0,0,1-3.78-1.57l-27.25-27.25a5.35,5.35,0,0,1,7.56-7.56l27.25,27.25a5.35,5.35,0,0,1-3.78,9.13Z" transform="translate(0 -85.9)" style="fill:#f6f6f6"/><path d="M166.53,460.2a5.35,5.35,0,0,1-3.78-9.13L190,423.82a5.35,5.35,0,0,1,7.56,7.56l-27.25,27.25A5.3,5.3,0,0,1,166.53,460.2Z" transform="translate(0 -85.9)" style="fill:#f6f6f6"/><path d="M365.52,500.73a5.35,5.35,0,0,1-5-3.34L346.12,461.6a5.35,5.35,0,0,1,9.91-4l14.44,35.8a5.35,5.35,0,0,1-3,7A5.42,5.42,0,0,1,365.52,500.73Z" transform="translate(0 -85.9)" style="fill:#f6f6f6"/><path d="M242.25,195.19a5.34,5.34,0,0,1-4.95-3.35l-14.44-35.79a5.34,5.34,0,1,1,9.91-4l14.44,35.79a5.35,5.35,0,0,1-3,7A5.43,5.43,0,0,1,242.25,195.19Z" transform="translate(0 -85.9)" style="fill:#f6f6f6"/><path d="M126,398.92a5.35,5.35,0,0,1-2-10.3l35.8-14.44a5.34,5.34,0,0,1,4,9.91L128,398.53A5.38,5.38,0,0,1,126,398.92Z" transform="translate(0 -85.9)" style="fill:#f6f6f6"/><path d="M466,402.06a5.49,5.49,0,0,1-2.09-.42L428.5,386.57a5.35,5.35,0,0,1,4.18-9.85l35.45,15.07a5.35,5.35,0,0,1-2.1,10.27Z" transform="translate(0 -85.9)" style="fill:#f6f6f6"/><path d="M224.67,499.43a5.33,5.33,0,0,1-4.92-7.43l15.06-35.45a5.35,5.35,0,0,1,9.85,4.18l-15.07,35.45A5.35,5.35,0,0,1,224.67,499.43Z" transform="translate(0 -85.9)" style="fill:#f6f6f6"/><path d="M353.59,196.14a5.34,5.34,0,0,1-4.92-7.44l15.07-35.44a5.35,5.35,0,1,1,9.84,4.18l-15.07,35.45A5.34,5.34,0,0,1,353.59,196.14Z" transform="translate(0 -85.9)" style="fill:#f6f6f6"/></svg>