<svg id="Ebene_1" data-name="Ebene 1" xmlns="http://www.w3.org/2000/svg" viewBox="0 0 519.86 600"><path id="background" d="M299.75,600,40.07,449.79l.25-300L300.25,0,559.93,150.21l-.25,300Z" transform="translate(-40.07)" style="fill:#7ed5c5"/><path d="M299.85,481.67l-157.25-91L142.75,209l157.4-90.71,157.25,91L457.25,391ZM161.58,379.76l138.29,80L438.29,380l.13-159.75-138.29-80L161.71,220Z" transform="translate(-40.07)" style="fill:#f6f6f6"/><path d="M260,220a32.93,32.93,0,0,0-24.2,10,33.38,33.38,0,0,0-9.9,24.3,33.82,33.82,0,0,0,10.18,24.41l92.46,92.37a28.94,28.94,0,0,0,21.05,9,24,24,0,0,0,24.43-24.44,28.48,28.48,0,0,0-9-21L301,270.4a17.33,17.33,0,0,0-13-5.53A17,17,0,0,0,270.82,282a17.32,17.32,0,0,0,5.51,13l38.16,38.15a1.75,1.75,0,0,0,1.23.6c.24,0,1.19-.19,3.56-2.55s2.54-3.39,2.54-3.56a1.68,1.68,0,0,0-.59-1.23l-38.14-38.14a9.09,9.09,0,0,1-2.67-6.3,7.21,7.21,0,0,1,7.39-7.39,9.14,9.14,0,0,1,6.37,2.54l64.18,64.18a19.69,19.69,0,0,1,6.19,14.3,14.53,14.53,0,0,1-14.92,14.93,19.74,19.74,0,0,1-14.31-6.21L243,271.84a24.17,24.17,0,0,1-7.41-17.65,24.5,24.5,0,0,1,7.12-17.65,23.54,23.54,0,0,1,17.48-7.32,24.69,24.69,0,0,1,17.64,7.48l66.48,66.58a1.79,1.79,0,0,0,1.32.59c.24,0,1.2-.18,3.52-2.5s2.49-3.27,2.49-3.51a1.72,1.72,0,0,0-.59-1.23l-66.38-66.47A34,34,0,0,0,260,220Z" transform="translate(-40.07)" style="fill:#f6f6f6"/></svg>