<svg id="Ebene_1" data-name="Ebene 1" xmlns="http://www.w3.org/2000/svg" viewBox="0 0 600 549.24"><polygon points="446.13 0 311.88 0 465.75 90.09 600 90.09 446.13 0" style="fill:#c19f7e"/><rect y="90.1" width="469.89" height="459.15" style="fill:#c19f7e"/><polygon points="304.64 19.54 170.39 19.54 0 90.1 134.25 90.1 304.64 19.54" style="fill:#ddc5a8"/><rect x="134.25" y="90.1" width="465.75" height="459.15" style="fill:#ddc5a8"/><rect x="304.64" y="90.1" width="124.97" height="118.14" style="fill:#f6f6f6"/><rect x="304.64" y="431.1" width="124.97" height="118.14" style="fill:#f6f6f6"/><rect x="156.57" y="455.1" width="120.83" height="73" style="fill:#f6f6f6"/><rect x="162.1" y="465.33" width="12.82" height="52.53" style="fill:#4d4d4d"/><rect x="182.7" y="465.33" width="4.5" height="52.53" style="fill:#4d4d4d"/><rect x="205.62" y="465.33" width="10.51" height="52.53" style="fill:#4d4d4d"/><rect x="192.37" y="465.33" width="6.41" height="52.53" style="fill:#4d4d4d"/><rect x="224" y="465.33" width="4.34" height="52.53" style="fill:#4d4d4d"/><rect x="244.53" y="465.33" width="8.69" height="52.53" style="fill:#4d4d4d"/><rect x="256.2" y="465.33" width="4.31" height="52.53" style="fill:#4d4d4d"/><rect x="234.68" y="465.33" width="5.96" height="52.53" style="fill:#4d4d4d"/><rect x="265.14" y="465.33" width="6.41" height="52.53" style="fill:#4d4d4d"/></svg>