<svg xmlns="http://www.w3.org/2000/svg" viewBox="0 0 600 479.03"><g style="isolation:isolate"><g id="Ebene_1" data-name="Ebene 1"><path d="M116.69,533.19l-6.25,4.17a12.82,12.82,0,0,1-17.82-3.61L50.39,470.1,36.73,449.47l22.85-15.1,4.92-3.24,3,4.48L81.6,457l38.7,58.38A12.82,12.82,0,0,1,116.69,533.19Z" transform="translate(0 -60.48)" style="fill:#5d9c90"/><path d="M326.53,309.19a33.84,33.84,0,0,1-18,44.08l-.8.32a24.08,24.08,0,0,1-3.72,1.2,1,1,0,0,1-.37.07,15.17,15.17,0,0,1-3.16.65c-.58.09-1.17.17-1.7.23a22.59,22.59,0,0,1-3.28.16,23.1,23.1,0,0,1-3.65-.16.34.34,0,0,0-.25-.05,31.86,31.86,0,0,1-3.86-.69c-.16,0-.35-.1-.51-.11a22.17,22.17,0,0,1-3.51-1.15,26.84,26.84,0,0,1-7.19-3.71,32.94,32.94,0,0,1-12.11-14.71,33.7,33.7,0,0,1,18-44.14,33.35,33.35,0,0,1,19-2.1c.51.11.93.17,1.44.28l0,.06a29.92,29.92,0,0,1,7,2.4A13,13,0,0,1,312.1,293a12.39,12.39,0,0,1,1.64,1,1.81,1.81,0,0,1,.65.44,29.13,29.13,0,0,1,4.65,3.8c.51.49.93,1,1.38,1.47a6.65,6.65,0,0,1,1.15,1.32,9.08,9.08,0,0,1,1.23,1.68,5.25,5.25,0,0,1,1.19,1.78,4,4,0,0,1,.69,1.12A24.52,24.52,0,0,1,326.53,309.19Z" transform="translate(0 -60.48)" style="fill:#2a4641"/><polygon points="93.19 391.65 81.6 396.5 50.39 409.62 45.13 411.83 20.45 353.22 13.03 335.51 61.09 315.33 86.43 375.55 93.19 391.65" style="fill:#5d9c90"/><path d="M45.14,472.31l-4,1.7a14.89,14.89,0,0,1-19.42-7.94l-20.56-49a14.82,14.82,0,0,1,7.88-19.39l4-1.7,7.42,17.72Z" transform="translate(0 -60.48)" style="fill:#7ed5c5"/><polygon points="336.34 358.99 336.27 359.02 93.19 391.65 86.43 375.55 61.09 315.33 254.54 164.49 282.39 230.7 304.07 282.27 308.49 292.78 336.34 358.99" style="fill:#7ed5c5"/><path d="M336.34,419.47l-.07,0L93.19,452.14,86.43,436c35.49-1.77,77.6-17.2,119.68-39.24,82.13-43,48.43-171.82,48.43-171.82l27.85,66.21,21.68,51.57,4.42,10.52Z" transform="translate(0 -60.48)" style="fill:#6cb6a8;opacity:0.5;mix-blend-mode:multiply"/><path d="M357.76,420.06a7.56,7.56,0,0,1-4,9.88l-4.12,1.75a7.58,7.58,0,0,1-9.91-4.08l-3.44-8.11-27.78-66.23-4.42-10.52-21.68-51.57L254.61,225l-3.44-8.11a7.51,7.51,0,0,1,4-9.88l4.12-1.75a7.61,7.61,0,0,1,9.88,4l7.2,17.17,26.45,63,.48,1.2,12.61,29.94,8.15,19.36Z" transform="translate(0 -60.48)" style="fill:#5d9c90"/><path d="M445.71,370.93l-62.26,2L454,383.21l125.78,18.34A17.63,17.63,0,0,0,600,385.09h0a17.64,17.64,0,0,0-18.18-18.62ZM579.48,205.3A17.73,17.73,0,0,0,555,196.46L380.14,287.54l-15.57,8.1,17.55-5.71L568.65,229a17.71,17.71,0,0,0,10.83-23.71ZM439.57,67.72,322.53,228,466,90.87a17.63,17.63,0,0,0-.56-26h0A17.63,17.63,0,0,0,439.57,67.72Z" transform="translate(0 -60.48)" style="fill:#f6f6f6"/></g></g></svg>