<svg id="Ebene_1" data-name="Ebene 1" xmlns="http://www.w3.org/2000/svg" viewBox="0 0 243.8 600"><path d="M293.79,197.82s11.88-18.64,26.43.12" transform="translate(-178.1 0)" style="fill:none;stroke:#6bb5a7;stroke-miterlimit:10;stroke-width:4.601409528585206px"/><path d="M417.79,281.27l-46.34-77.36a11.93,11.93,0,0,0-10.16-5.78l-120.39-.54a11.91,11.91,0,0,0-10.21,5.69l-47,76.94a28.85,28.85,0,0,0-4.24,14.94L178.1,587a12,12,0,0,0,12,12l218.49,1a12,12,0,0,0,12-11.94l1.31-291.81A28.91,28.91,0,0,0,417.79,281.27Zm-116.93-31a13.68,13.68,0,1,1,13.73-13.62A13.69,13.69,0,0,1,300.86,250.28Z" transform="translate(-178.1 0)" style="fill:#f6f5f5"/><path d="M300.09,228.73a2.21,2.21,0,0,1-.51,0A2.58,2.58,0,0,1,297.5,226c3-61.43-10.66-104.1-20.63-135.26C263.82,49.94,255.94,25.31,301.17,3a2.13,2.13,0,0,1,.35-.14c15.79-5.07,27.8-3.48,35.7,4.7,28.93,30-5.86,139.34-34.54,219l-.15.42A2.6,2.6,0,0,1,300.09,228.73Zm3.2-221c-41,20.27-34.49,40.72-21.48,81.41C291,117.9,303.27,156.29,303.1,210c19.46-54.95,57.64-170.63,30.4-198.84C327.1,4.58,316.93,3.43,303.29,7.77Z" transform="translate(-178.1 0)" style="fill:#6bb5a7"/><path d="M300,387.83c-43.72,0-84.92,6.28-121.08,17.35L178.1,587a12,12,0,0,0,12,12l218.49,1a12,12,0,0,0,12-11.94l.82-182.78C385.16,394.14,343.85,387.83,300,387.83Z" transform="translate(-178.1 0)" style="fill:#6bb5a7"/></svg>