<svg id="Ebene_1" data-name="Ebene 1" xmlns="http://www.w3.org/2000/svg" viewBox="0 0 574.67 600"><path d="M582,26.76l-6.29,48.67C565.61,76.52,556.8,72.94,549.23,65l28.62-39.87Z" transform="translate(-12.67)" style="fill:#ddc5a8"/><path d="M575.25,76.67l-82.48,209.2-8.86-3.5L566.38,73.18C569.73,64.7,578.59,68.19,575.25,76.67Z" transform="translate(-12.67)" style="fill:#89e7d5"/><path d="M566.38,73.18,483.91,282.37,475,278.88l82.48-209.2C560.78,61.41,569.65,64.9,566.38,73.18Z" transform="translate(-12.67)" style="fill:#89e7d5"/><path d="M557.52,69.68,475,278.88l-8.87-3.5L548.65,66.19C551.75,58.33,560.61,61.82,557.52,69.68Z" transform="translate(-12.67)" style="fill:#89e7d5"/><rect x="575" y="16.72" width="15.17" height="4.22" transform="translate(338.74 553.92) rotate(-68.48)" style="fill:#4d4d4d"/><rect x="115.81" y="50.59" width="381.93" height="498.83" transform="translate(-47.69 40.6) rotate(-7.16)" style="fill:#e6e6e6"/><path d="M490.07,507.7c2.82-.78,4.57-3.4,3.89-5.85L356.12,3.24c-.67-2.44-3.52-3.8-6.34-3L16.7,92.3c-2.82.78-4.57,3.4-3.89,5.85L150.65,596.76c.67,2.44,3.52,3.8,6.34,3Z" transform="translate(-12.67)" style="fill:#f6f6f6"/><path d="M236.73,203l35.93-63.39L253.25,69.39A73.92,73.92,0,0,0,236.73,203Z" transform="translate(-12.67)" style="fill:#6cb6a8"/><path d="M258,68.09,277,137l68.85-19A73.91,73.91,0,0,0,258,68.09Z" transform="translate(-12.67)" style="fill:#4d4d4d"/><path d="M281.61,140.73l41.62,23.59,17.53,9.93a73.35,73.35,0,0,0,6.38-51.64Z" transform="translate(-12.67)" style="fill:#7ed5c5"/><path d="M276.21,143.27,241,205.42a73.92,73.92,0,0,0,97.37-26.92Z" transform="translate(-12.67)" style="fill:#89e7d5"/><rect x="355.65" y="216.56" width="46.08" height="155.5" transform="translate(-77.39 111.54) rotate(-15.45)" style="fill:#7ed5c5"/><rect x="301.94" y="259.77" width="46.08" height="127.66" transform="matrix(0.96, -0.27, 0.27, 0.96, -87.14, 98.29)" style="fill:#7ed5c5"/><rect x="251.31" y="325.68" width="46.08" height="76.7" transform="translate(-99.74 86.26) rotate(-15.45)" style="fill:#7ed5c5"/><rect x="190.14" y="313.95" width="46.08" height="104.81" transform="translate(-102.57 70.05) rotate(-15.45)" style="fill:#7ed5c5"/><rect x="128.64" y="299.74" width="46.08" height="135.45" transform="translate(-105.09 53.7) rotate(-15.45)" style="fill:#7ed5c5"/><polygon points="82.19 174.56 102.23 97.31 159.12 153.3 141.36 158.21 166.31 248.48 124.17 260.13 99.21 169.86 82.19 174.56" style="fill:#5d9c90"/><rect x="151.6" y="428.87" width="284.37" height="10.92" transform="translate(-117.77 93.98) rotate(-15.45)" style="fill:#4d4d4d"/><rect x="158.22" y="452.84" width="284.37" height="10.92" transform="translate(-123.92 96.61) rotate(-15.45)" style="fill:#4d4d4d"/><rect x="164.85" y="476.83" width="284.37" height="10.92" transform="translate(-130.07 99.25) rotate(-15.45)" style="fill:#4d4d4d"/><rect x="171.48" y="500.8" width="284.37" height="10.92" transform="translate(-136.22 101.88) rotate(-15.45)" style="fill:#4d4d4d"/></svg>