<svg id="Ebene_1" data-name="Ebene 1" xmlns="http://www.w3.org/2000/svg" viewBox="0 0 374.81 600"><path d="M247.13,268.66,183.4,186.75s1.46-14.85,42.6-13.42,100.72-9.69,139.24-10.57c44.55-1,88.73,7.34,88.73,7.34l-66.6,98.56Z" transform="translate(-112.6 0)" style="fill:#babbbe"/><path d="M452.84,66.72c-40.2,69.18-79.35,139.19-101.26,213.17-35.68-10.57-71.3-21.14-107.28-31.75,18.49-74.75,24.13-150.45,40.06-229.93C343.22,27.55,398.41,44.13,452.84,66.72Z" transform="translate(-112.6 0)" style="fill:#5c9a8f"/><path d="M354.7,285.63,328.85,278c-28.53-8.46-57.08-16.92-85.85-25.4l-4.24-1.25,1.06-4.29c10.51-42.51,16.75-84.62,23.34-129.2C268,85.21,273,51.47,279.83,17.31l.88-4.35,4.37.69c56.56,9,112,24.94,169.53,48.8l4.87,2L456.83,69C416,139.3,377.57,208.4,356,281.2ZM249.83,245c27.35,8.07,54.5,16.12,81.64,24.17l17,5c21.58-70.56,58.39-137.4,97.7-205.18C392.58,47.11,340.74,32.2,288,23.48c-6.36,32.46-11.12,64.59-15.72,95.7C265.89,162.5,259.82,203.49,249.83,245Z" transform="translate(-112.6 0)" style="fill:#2a4641"/><path d="M345.28,108.47c31.91,9.14,48.13,36.38,37.19,59s-39.06,35.37-64.41,28-43.15-32.86-39.33-57.32S313.34,99.53,345.28,108.47Z" transform="translate(-112.6 0)" style="fill:#2a4641"/><path d="M244.3,248.14q14.37,4.23,28.63,8.46c4.5-15.73-5.3-32.36-22-37.12C249,229.07,246.77,238.62,244.3,248.14Z" transform="translate(-112.6 0)" style="fill:#026838"/><path d="M320,139.16c-4.09-.82-6.93,1.74-8.46,7.61s-.5,9.35,3.13,10.36a5.28,5.28,0,0,0,5.62-1.5c1.57-1.61,3.8-5.08,6.82-10.44s6.51-8.94,10.53-10.73,8.59-2,13.67-.46c5.91,1.74,9.69,5.24,11.22,10.39a23.59,23.59,0,0,1-.95,15.81c-5.13,13-13.63,18.71-25.59,17.25.86-3.75,1.74-7.49,2.61-11.23,6.39,1,10.82-2,13.38-9,2.41-6.53.93-10.61-4.5-12.2a6.68,6.68,0,0,0-6.15.86c-1.69,1.26-4.23,4.66-7.46,10.2s-6.59,9.21-10.08,11.08a14.69,14.69,0,0,1-11.24,1.1,15.39,15.39,0,0,1-9.75-8.18c-2.21-4.24-2.6-9.62-1-16.16,3-13,10.12-18.48,20.92-16.24Q321.3,133.45,320,139.16Z" transform="translate(-112.6 0)" style="fill:#8cbf46"/><path d="M304.41,138.49q-1.31,5.32-2.58,10.64-5.71-1.53-11.49-3c.76-3.56,1.52-7.11,2.27-10.68Q298.56,136.95,304.41,138.49Z" transform="translate(-112.6 0)" style="fill:#8cbf46"/><path d="M372.75,158.06q-2.14,5.1-4.25,10.19-5.6-1.71-11.15-3.35,2-5.16,4-10.31Z" transform="translate(-112.6 0)" style="fill:#8cbf46"/><path d="M349.9,279.4q4.34-14.17,9.31-28.16c-16.13-4.79-33.1,4-37.76,19.72Z" transform="translate(-112.6 0)" style="fill:#026838"/><path d="M450.24,65.65q-21.76-8.94-43.65-16.57c-7.06,16,5.62,34.74,28.6,43.27C440.21,83.44,445.26,74.54,450.24,65.65Z" transform="translate(-112.6 0)" style="fill:#2a4641"/><path d="M284.36,18.21q-2.89,15.27-5.51,30.31c24.28,4.41,46.69-4.45,51.71-21.37Q307.76,21.93,284.36,18.21Z" transform="translate(-112.6 0)" style="fill:#026838"/><path d="M312.56,214.3A10.21,10.21,0,0,1,319.77,227a10.5,10.5,0,0,1-20.14-5.9A10.23,10.23,0,0,1,312.56,214.3Z" transform="translate(-112.6 0)" style="fill:#026838"/><path d="M358.77,69.18c7.84,2.24,12.35,8.61,10.23,14.09s-9.83,8.08-17.24,6S339.67,81,341.37,75.43,350.93,67,358.77,69.18Z" transform="translate(-112.6 0)" style="fill:#026838"/><path d="M427.13,28.54C397.27,102.78,368.55,177.67,357.45,254c-36.82-5.35-73.59-10.72-110.71-16.06,7.58-76.62,2.32-152.35,6.71-233.29C313,5.48,370,14,427.13,28.54Z" transform="translate(-112.6 0)" style="fill:#5c9a8f"/><path d="M361.36,259.27l-22.09-3.22c-30.46-4.43-62-9-93.19-13.51l-4.37-.63.43-4.4c4.31-43.55,4.45-86.1,4.59-131.15.11-33,.22-67.12,2.11-101.93L249.08,0l4.43.06c57.2.77,114.36,8.62,174.75,24l5.12,1.3-2,4.89C401.07,105.7,372.93,179.63,362,254.7ZM251.75,234c29.81,4.29,59.8,8.65,88.85,12.89l13,1.88c11.25-72.85,38.11-144.31,67.3-217.07-56.23-14-109.67-21.3-163-22.36-1.66,33-1.76,65.54-1.86,97C255.83,150.15,255.7,191.57,251.75,234Z" transform="translate(-112.6 0)" style="fill:#2a4641"/><path d="M326.66,85.28c32.91,4.47,52.84,29.11,45.26,53.1s-33.6,40.6-59.72,37S264.78,149,265.06,124.25,293.77,81,326.66,85.28Z" transform="translate(-112.6 0)" style="fill:#2a4641"/><path d="M246.74,238l29.53,4.26c2.2-16.2-9.88-31.25-27.07-33.57C248.61,218.42,247.81,228.19,246.74,238Z" transform="translate(-112.6 0)" style="fill:#026838"/><path d="M306,119.26c-4.17-.21-6.61,2.73-7.29,8.76s.85,9.32,4.59,9.8a5.3,5.3,0,0,0,5.35-2.29c1.32-1.81,3-5.57,5.23-11.31s5.19-9.78,8.9-12.12,8.23-3.16,13.45-2.41c6.11.86,10.36,3.79,12.61,8.67a23.62,23.62,0,0,1,1.33,15.78c-3.22,13.62-10.82,20.46-22.87,20.74.32-3.83.64-7.65,1-11.49,6.48.05,10.44-3.53,12-10.79,1.45-6.79-.59-10.63-6.18-11.42a6.67,6.67,0,0,0-6,1.73c-1.5,1.49-3.52,5.23-5.92,11.16s-5.2,10.06-8.4,12.41a14.62,14.62,0,0,1-11,2.7A15.4,15.4,0,0,1,292,142.49c-2.79-3.89-3.94-9.16-3.34-15.86,1.14-13.27,7.36-19.73,18.37-19.06C306.68,111.48,306.33,115.37,306,119.26Z" transform="translate(-112.6 0)" style="fill:#5c9a8f"/><path d="M290.51,120.84q-.52,5.46-1,10.9-5.87-.7-11.79-1.34c.23-3.63.48-7.26.72-10.9Q284.48,120.16,290.51,120.84Z" transform="translate(-112.6 0)" style="fill:#5c9a8f"/><path d="M361,130.42q-1.4,5.36-2.75,10.7-5.76-.88-11.51-1.73,1.2-5.38,2.46-10.76Q355,129.5,361,130.42Z" transform="translate(-112.6 0)" style="fill:#5c9a8f"/><path d="M355.71,253.78q2.3-14.64,5.19-29.2c-16.65-2.44-32.19,8.73-34.54,24.92Z" transform="translate(-112.6 0)" style="fill:#026838"/><path d="M424.41,27.86C409.19,24,394,20.65,378.84,17.72c-4.7,16.9,10.54,33.58,34.5,38.72C417,46.9,420.75,37.37,424.41,27.86Z" transform="translate(-112.6 0)" style="fill:#2a4641"/><path d="M253.45,4.68q-.7,15.52-1.13,30.78c24.67.88,45.57-11.09,48.12-28.55Q277.15,5,253.45,4.68Z" transform="translate(-112.6 0)" style="fill:#2a4641"/><path d="M309.43,194.7a10.19,10.19,0,0,1,8.95,11.51,10.5,10.5,0,0,1-20.77-3A10.23,10.23,0,0,1,309.43,194.7Z" transform="translate(-112.6 0)" style="fill:#026838"/><path d="M334.38,44.46c8.08,1.09,13.46,6.75,12.14,12.47s-8.56,9.41-16.2,8.4-13.14-6.41-12.26-12.2S326.3,43.37,334.38,44.46Z" transform="translate(-112.6 0)" style="fill:#2a4641"/><path d="M247.13,268.66,183.4,186.75s1.46-25.36,42.6-23.92S311,182,349.49,183.76C404.64,186.34,454,170.1,454,170.1l-66.6,98.56Z" transform="translate(-112.6 0)" style="fill:#e8e7e7"/><path d="M468.36,419.26c-20.48-50.34-52-102.95-81-150.6H247.13c-28.71,47.65-57.67,100.92-80.35,150.6-48.38,106-20.81,140.94,36,166,42.11,18.58,187.52,18.58,229.64,0C489.17,560.2,503.49,505.63,468.36,419.26Z" transform="translate(-112.6 0)" style="fill:#e8e7e7"/><path d="M342.85,408q-1.28-15.12-28-15.21T288,407c0,5.83,2.83,10.08,8.58,12.71s17.32,5.69,34.7,9.06,30.14,9,38.25,16.87,12.2,18,12.14,30.54Q381.64,498.11,362,510t-44.92,11.78Q256,521.54,247.6,474.7l33.73-2.6q3.65,24.57,36.05,24.68,30.36.11,30.42-20.47c0-6.08-2.41-10.62-7.33-13.6s-16.41-6.29-34.53-9.89-31.2-9.06-39.22-16.36a35.21,35.21,0,0,1-12-27.2q.06-17.46,15.63-29.49t45.2-11.93q58.69.21,61.4,39.1Z" transform="translate(-112.6 0)" style="fill:#5c9a8f"/><polygon points="220.45 371.09 188.35 370.96 188.43 341.76 220.56 341.86 220.45 371.09" style="fill:#5c9a8f"/><polygon points="219.87 545.43 187.75 545.31 187.83 516.1 219.95 516.21 219.87 545.43" style="fill:#5c9a8f"/><path d="M400.35,271.7c0,2.8-2.81,5.07-6.26,5.07H238.4c-3.47,0-6.27-2.27-6.27-5.07v-4.17c0-2.79,2.8-5.07,6.27-5.07H394.09c3.45,0,6.26,2.28,6.26,5.07Z" transform="translate(-112.6 0)" style="fill:#5c9a8f"/><path d="M357.11,576.73c25.91,18.66,72.17,2.79,89.3-9.35,23.81-16.89,34.72-50.55,32-74.63s-6.53-40.42-16.24-62.84c-3.46-8,11.81,24.31-6.75,67.81-13.84,32.47-53.89,40.75-80.44,43.75C356.39,543.57,331.32,558.16,357.11,576.73Z" transform="translate(-112.6 0)" style="fill:#d5d5d5"/><path d="M341.35,258.14s49-17.82,73.26-42.74c27.35-28.14-26.91,42.74-26.91,42.74Z" transform="translate(-112.6 0)" style="fill:#d5d5d5"/><path d="M202.19,192.71s.93.71,2.43,2,3.61,3.29,6,5.72a201.19,201.19,0,0,1,16.21,18.89,196.58,196.58,0,0,1,13.87,20.68c1.7,3,3,5.51,3.9,7.32s1.33,2.9,1.33,2.9-.93-.72-2.44-2.05-3.61-3.29-6-5.72a190.09,190.09,0,0,1-16.21-18.9,201.14,201.14,0,0,1-13.86-20.68c-1.69-3-3-5.51-3.9-7.32S202.19,192.71,202.19,192.71Z" transform="translate(-112.6 0)" style="fill:#fff"/><path d="M251.2,287s-.79,2.38-2.31,6.48-3.77,9.91-6.67,16.79c-5.7,13.8-14,31.83-23,49.54s-18.56,35.11-26.33,47.86c-3.82,6.41-7.19,11.66-9.59,15.31s-3.86,5.69-3.86,5.69.78-2.38,2.31-6.48,3.76-9.91,6.66-16.79c5.69-13.81,14-31.83,23-49.54S230,320.78,237.75,308c3.83-6.41,7.19-11.66,9.59-15.31S251.2,287,251.2,287Z" transform="translate(-112.6 0)" style="fill:#fff"/><path d="M244.32,551.84a67.24,67.24,0,1,1-45.38-83.56A67.24,67.24,0,0,1,244.32,551.84Z" transform="translate(-112.6 0)" style="fill:#2a4641"/><path d="M232.67,548.38a55.09,55.09,0,1,1-37.18-68.46A55.09,55.09,0,0,1,232.67,548.38Z" transform="translate(-112.6 0)" style="fill:#5c9a8f"/><path d="M195.63,521.64c.87-4.22-2.3-7.41-9.57-9.59s-11.51-1.33-12.67,2.55a5.61,5.61,0,0,0,2,6.22q3,2.67,13.06,7.9T202,540.21a17.13,17.13,0,0,1,1.26,13.93q-2.67,8.94-12.12,11.41a36,36,0,0,1-19.75-.62q-24.9-7.48-22.66-27.59l14.07,3q-1.48,10.47,11.73,14.43,12.38,3.71,14.89-4.68a6.32,6.32,0,0,0-1.35-6.43q-2.46-2.71-12.9-8.2c-6.94-3.67-11.63-7.47-14-11.42a15,15,0,0,1-1.61-12.54q2.15-7.12,9.94-10.15t19.89.6q23.92,7.17,20.33,23.36Z" transform="translate(-112.6 0)" style="fill:#2a4641"/><polygon points="83.5 505.38 70.42 501.45 73.98 489.55 87.08 493.47 83.5 505.38" style="fill:#2a4641"/><rect x="163.82" y="561.69" width="12.43" height="13.67" transform="matrix(0.29, -0.96, 0.96, 0.29, -535.97, 567.87)" style="fill:#2a4641"/></svg>