<svg id="Ebene_1" data-name="Ebene 1" xmlns="http://www.w3.org/2000/svg" viewBox="0 0 600 512.04"><path d="M113.4,59.81V473.4a40.61,40.61,0,0,0,81.21,0V59.81Z" transform="translate(0 -43.98)" style="fill:#f6f6f6"/><path d="M219.94,58.65a14.66,14.66,0,0,1-14.66,14.66H105.15A14.66,14.66,0,0,1,90.48,58.65h0A14.67,14.67,0,0,1,105.15,44H205.28a14.67,14.67,0,0,1,14.66,14.67Z" transform="translate(0 -43.98)" style="fill:#e6e6e6"/><path d="M154,172.87c-13.76-8.15-20.94-8.35-30.15-5.83V464.15a30.15,30.15,0,1,0,60.3,0V176.35C173.33,179.55,163.12,178.28,154,172.87Z" transform="translate(0 -43.98)" style="fill:#ebda8a"/><path d="M152.06,166.29a8.41,8.41,0,1,1-8.4-8.4A8.4,8.4,0,0,1,152.06,166.29Z" transform="translate(0 -43.98)" style="fill:#ebda8a"/><path d="M174.76,149.69A5.74,5.74,0,1,1,169,144,5.74,5.74,0,0,1,174.76,149.69Z" transform="translate(0 -43.98)" style="fill:#ebda8a"/><path d="M163.79,124.45a11.73,11.73,0,1,1-11.74-11.72A11.74,11.74,0,0,1,163.79,124.45Z" transform="translate(0 -43.98)" style="fill:#ebda8a"/><path d="M264.66,59.81V473.4a40.61,40.61,0,0,0,81.21,0V59.81Z" transform="translate(0 -43.98)" style="fill:#f6f6f6"/><path d="M371.2,58.65a14.66,14.66,0,0,1-14.66,14.66H256.41a14.66,14.66,0,0,1-14.67-14.66h0A14.67,14.67,0,0,1,256.41,44H356.54A14.67,14.67,0,0,1,371.2,58.65Z" transform="translate(0 -43.98)" style="fill:#e6e6e6"/><path d="M305.26,172.87c-13.76-8.15-20.94-8.35-30.15-5.83V464.15a30.15,30.15,0,0,0,60.3,0V176.35C324.59,179.55,314.38,178.28,305.26,172.87Z" transform="translate(0 -43.98)" style="fill:#b9a244"/><path d="M303.32,166.29a8.41,8.41,0,1,1-8.4-8.4A8.4,8.4,0,0,1,303.32,166.29Z" transform="translate(0 -43.98)" style="fill:#b9a244"/><path d="M326,149.69a5.74,5.74,0,1,1-5.73-5.74A5.74,5.74,0,0,1,326,149.69Z" transform="translate(0 -43.98)" style="fill:#b9a244"/><path d="M315.05,124.45a11.73,11.73,0,1,1-11.74-11.72A11.74,11.74,0,0,1,315.05,124.45Z" transform="translate(0 -43.98)" style="fill:#b9a244"/><path d="M415.92,59.81V473.4a40.61,40.61,0,0,0,81.21,0V59.81Z" transform="translate(0 -43.98)" style="fill:#f6f6f6"/><path d="M522.46,58.65A14.66,14.66,0,0,1,507.8,73.31H407.67A14.66,14.66,0,0,1,393,58.65h0A14.67,14.67,0,0,1,407.67,44H507.8a14.67,14.67,0,0,1,14.66,14.67Z" transform="translate(0 -43.98)" style="fill:#e6e6e6"/><path d="M456.52,172.87c-13.76-8.15-20.94-8.35-30.15-5.83V464.15a30.15,30.15,0,0,0,60.3,0V176.35C475.85,179.55,465.64,178.28,456.52,172.87Z" transform="translate(0 -43.98)" style="fill:#ffe882"/><path d="M454.58,166.29a8.41,8.41,0,1,1-8.4-8.4A8.4,8.4,0,0,1,454.58,166.29Z" transform="translate(0 -43.98)" style="fill:#ffe882"/><path d="M477.28,149.69a5.73,5.73,0,1,1-5.73-5.74A5.74,5.74,0,0,1,477.28,149.69Z" transform="translate(0 -43.98)" style="fill:#ffe882"/><path d="M466.31,124.45a11.73,11.73,0,1,1-11.74-11.72A11.74,11.74,0,0,1,466.31,124.45Z" transform="translate(0 -43.98)" style="fill:#ffe882"/><polygon points="567.23 490.19 567.23 181.34 545.38 181.34 545.38 490.19 56.3 490.19 56.3 181.34 34.46 181.34 34.46 510.55 34.46 510.55 34.46 512.04 567.23 512.04 567.23 490.19 567.23 490.19" style="fill:#f6f6f6"/><path d="M600,232.67a22.69,22.69,0,0,1-22.69,22.69H22.69A22.69,22.69,0,0,1,0,232.67H0A22.69,22.69,0,0,1,22.69,210H577.31A22.69,22.69,0,0,1,600,232.67Z" transform="translate(0 -43.98)" style="fill:#e6e6e6"/></svg>