<svg id="Ebene_1" data-name="Ebene 1" xmlns="http://www.w3.org/2000/svg" viewBox="0 0 597.75 600"><circle cx="300.19" cy="304.31" r="105.53" style="fill:#ffe882"/><circle cx="105.53" cy="105.53" r="105.53" style="fill:#ffe882"/><circle cx="492.22" cy="105.53" r="105.53" style="fill:#ffe882"/><circle cx="492.22" cy="494.47" r="105.53" style="fill:#ffe882"/><circle cx="105.53" cy="494.47" r="105.53" style="fill:#ffe882"/><circle cx="300.19" cy="494.47" r="62.98" style="fill:#ccc"/><circle cx="300.19" cy="105.53" r="62.98" style="fill:#ccc"/><circle cx="492.22" cy="304.31" r="62.98" style="fill:#ccc"/><circle cx="105.53" cy="304.31" r="62.98" style="fill:#ccc"/><polygon points="156.16 89.88 121.18 89.88 121.18 54.9 89.88 54.9 89.88 89.88 54.9 89.88 54.9 121.18 89.88 121.18 89.88 156.16 121.18 156.16 121.18 121.18 156.16 121.18 156.16 89.88" style="fill:#f6f6f6"/><polygon points="542.85 89.88 507.87 89.88 507.87 54.9 476.57 54.9 476.57 89.88 441.58 89.88 441.58 121.18 476.57 121.18 476.57 156.16 507.87 156.16 507.87 121.18 542.85 121.18 542.85 89.88" style="fill:#f6f6f6"/><polygon points="350.82 288.66 315.84 288.66 315.84 253.68 284.54 253.68 284.54 288.66 249.56 288.66 249.56 319.96 284.54 319.96 284.54 354.94 315.84 354.94 315.84 319.96 350.82 319.96 350.82 288.66" style="fill:#f6f6f6"/><polygon points="542.85 478.82 507.87 478.82 507.87 443.84 476.57 443.84 476.57 478.82 441.58 478.82 441.58 510.12 476.57 510.12 476.57 545.1 507.87 545.1 507.87 510.12 542.85 510.12 542.85 478.82" style="fill:#f6f6f6"/><polygon points="156.16 478.82 121.18 478.82 121.18 443.84 89.88 443.84 89.88 478.82 54.9 478.82 54.9 510.12 89.88 510.12 89.88 545.1 121.18 545.1 121.18 510.12 156.16 510.12 156.16 478.82" style="fill:#f6f6f6"/><rect x="77.64" y="293.98" width="55.78" height="20.67" style="fill:#f6f6f6"/><rect x="272.3" y="95.19" width="55.78" height="20.67" style="fill:#f6f6f6"/><rect x="272.3" y="484.13" width="55.78" height="20.67" style="fill:#f6f6f6"/><rect x="464.32" y="293.98" width="55.78" height="20.67" style="fill:#f6f6f6"/></svg>