<svg id="Ebene_1" data-name="Ebene 1" xmlns="http://www.w3.org/2000/svg" viewBox="0 0 476.77 600"><polygon points="113.43 88.25 227.86 22.18 342.28 88.25 342.28 220.37 227.86 286.44 113.43 220.37 113.43 88.25" style="fill:none;stroke:#f6f6f6;stroke-miterlimit:10;stroke-width:20.705127828698657px"/><polygon points="227.86 286.48 342.28 220.41 456.71 286.48 456.71 418.6 342.28 484.67 227.86 418.6 227.86 286.48" style="fill:none;stroke:#f6f6f6;stroke-miterlimit:10;stroke-width:20.705127828698657px"/><line x1="342.28" y1="88.25" x2="420.24" y2="31.8" style="fill:none;stroke:#f6f6f6;stroke-miterlimit:10;stroke-width:20.705127828698657px"/><line x1="113.43" y1="220.37" x2="31.8" y2="278.32" style="fill:none;stroke:#f6f6f6;stroke-miterlimit:10;stroke-width:20.705127828698657px"/><line x1="342.28" y1="484.67" x2="342.28" y2="561.08" style="fill:none;stroke:#f6f6f6;stroke-miterlimit:10;stroke-width:20.705127828698657px"/><circle cx="227.86" cy="22.18" r="20.06" style="fill:#b9a244"/><path d="M383.84,90.47a20.06,20.06,0,1,1,20.06,20.06A20.06,20.06,0,0,1,383.84,90.47Z" transform="translate(-61.62)" style="fill:#b9a244"/><path d="M372.09,220.41a31.81,31.81,0,1,1,31.81,31.81A31.81,31.81,0,0,1,372.09,220.41Z" transform="translate(-61.62)" style="fill:#ffe882"/><path d="M450.05,31.8a31.81,31.81,0,1,1,31.81,31.81A31.81,31.81,0,0,1,450.05,31.8Z" transform="translate(-61.62)" style="fill:#b9a244"/><path d="M61.62,278.32a31.81,31.81,0,1,1,31.8,31.81A31.8,31.8,0,0,1,61.62,278.32Z" transform="translate(-61.62)" style="fill:#b9a244"/><path d="M372.09,568.2A31.81,31.81,0,1,1,403.9,600,31.81,31.81,0,0,1,372.09,568.2Z" transform="translate(-61.62)" style="fill:#ffe882"/><path d="M155,90.47a20.06,20.06,0,1,1,20.06,20.06A20.06,20.06,0,0,1,155,90.47Z" transform="translate(-61.62)" style="fill:#b9a244"/><path d="M157.9,215.89A20.06,20.06,0,1,1,178,235.94,20.06,20.06,0,0,1,157.9,215.89Z" transform="translate(-61.62)" style="fill:#b9a244"/><path d="M383.84,483.38a20.06,20.06,0,1,1,20.06,20.06A20.06,20.06,0,0,1,383.84,483.38Z" transform="translate(-61.62)" style="fill:#ffe882"/><circle cx="227.86" cy="418.6" r="20.06" style="fill:#ffe882"/><path d="M269.42,278.32a20.06,20.06,0,1,1,20.05,20.06A20.05,20.05,0,0,1,269.42,278.32Z" transform="translate(-61.62)" style="fill:#ffe882"/><path d="M498.27,418.6a20.06,20.06,0,1,1,20.05,20.06A20.05,20.05,0,0,1,498.27,418.6Z" transform="translate(-61.62)" style="fill:#ffe882"/><path d="M498.27,286.44a20.06,20.06,0,1,1,20.05,20.06A20.06,20.06,0,0,1,498.27,286.44Z" transform="translate(-61.62)" style="fill:#ffe882"/></svg>