<svg id="Ebene_1" data-name="Ebene 1" xmlns="http://www.w3.org/2000/svg" viewBox="0 0 357.09 600"><path d="M343.24,300.31v-73H246.88v73a138.11,138.11,0,1,0,96.36,0Z" transform="translate(-121.45)" style="fill:#f6f6f6"/><path d="M345.13,244.62H248.38A12.61,12.61,0,0,1,235.77,232h0a12.62,12.62,0,0,1,12.61-12.61h96.75A12.62,12.62,0,0,1,357.74,232h0A12.61,12.61,0,0,1,345.13,244.62Z" transform="translate(-121.45)" style="fill:#e6e6e6"/><path d="M321.1,202.55c-2.36-7.75-5.3-18.34-7.61-26-2-6.56-.54-6.06-2.54-12.66-.61-2-7.48-3.37-8.87,1.25-3.33,11-6.49,24.46-9.31,35.62-1,3.79.7,9.07,2.55,12.51a17.71,17.71,0,0,0,3.83,5.22c3.1,2.63,7.42,3.13,11.47,3.52a12.39,12.39,0,0,0,6-.41c3.46-1.44,4.84-5.59,5.33-9.31A27.3,27.3,0,0,0,321.1,202.55Z" transform="translate(-121.45)" style="fill:#e1c750"/><path d="M196.86,370.5a3.38,3.38,0,0,1-2.86-5.21,120.62,120.62,0,0,1,23.64-27,3.39,3.39,0,1,1,4.38,5.17,113.73,113.73,0,0,0-22.31,25.49A3.37,3.37,0,0,1,196.86,370.5Z" transform="translate(-121.45)" style="fill:#fff"/><g style="opacity:0.2"><path d="M345.13,244.62H248.38A12.61,12.61,0,0,1,235.77,232h0a12.62,12.62,0,0,1,12.61-12.61h96.75A12.62,12.62,0,0,1,357.74,232h0A12.61,12.61,0,0,1,345.13,244.62Z" transform="translate(-121.45)" style="fill:#e6e6e6"/></g><path d="M295.06,549.34A119.52,119.52,0,0,0,414.58,429.83h-239A119.51,119.51,0,0,0,295.06,549.34Z" transform="translate(-121.45)" style="fill:#ffe882"/><path d="M363.76,434.44c0-14.61,11.38-26.45,25.41-26.45s25.41,11.84,25.41,26.45-11.38,26.44-25.41,26.44S363.76,449,363.76,434.44Z" transform="translate(-121.45)" style="fill:#ebda8a"/><circle cx="125.42" cy="435.85" r="17.69" style="fill:#ebda8a"/><path d="M274.36,435.85a21.93,21.93,0,1,1,21.93,21.93A21.93,21.93,0,0,1,274.36,435.85Z" transform="translate(-121.45)" style="fill:#ebda8a"/><path d="M299.77,388a12.42,12.42,0,1,1,12.42,12.43A12.42,12.42,0,0,1,299.77,388Z" transform="translate(-121.45)" style="fill:#ebda8a"/><circle cx="215.58" cy="477.16" r="19.48" style="fill:#ebda8a"/><circle cx="111.21" cy="332.61" r="4.99" style="fill:#fbfbfb"/><path d="M343.24,300.31v-73H246.88v73a138.11,138.11,0,1,0,96.36,0Z" transform="translate(-121.45)" style="fill:#f6f6f6;opacity:0.2"/><rect x="158.69" y="457.68" width="29.84" height="142.32" style="fill:#4d4d4d"/><rect x="158.69" y="441.68" width="29.84" height="16" style="fill:#333"/><polygon points="53.88 437.05 47.06 457.68 78.49 457.68 82.21 446.42 53.88 437.05" style="fill:#333"/><polygon points="0 600 31.43 600 78.49 457.68 47.06 457.68 0 600" style="fill:#4d4d4d"/><polygon points="295.78 437.05 267.45 446.42 271.18 457.68 302.61 457.68 295.78 437.05" style="fill:#333"/><polygon points="271.18 457.68 318.23 600 349.66 600 302.61 457.68 271.18 457.68" style="fill:#4d4d4d"/><rect x="0.69" y="429.83" width="345.83" height="23.72" rx="2.4" style="fill:#4d4d4d"/><path d="M439.45,67.67l-95,95a19.29,19.29,0,0,1-2.93,1.93l-28,11.95-11.41-11.41,12.08-28.23a8.53,8.53,0,0,1,1.8-2.74l47.86-47.94L410.87,39.1Z" transform="translate(-121.45)" style="fill:#f6f6f6"/><path d="M392.34,114.74l-47.9,47.9a19.29,19.29,0,0,1-2.93,1.93l-28,12-11.41-11.42,12.08-28.23a8.53,8.53,0,0,1,1.8-2.74l20.65-20.69Z" transform="translate(-121.45)" style="fill:#b9a244"/><path d="M449.53,58.77,419.78,29l18.05-21a23.17,23.17,0,0,1,33.93-1.27h0a23.17,23.17,0,0,1-1.26,33.93Z" transform="translate(-121.45)" style="fill:#606060"/><path d="M419.78,29l29.75,29.76L456,53.24C444.1,40,437.08,17.51,443.28,3.42a23.13,23.13,0,0,0-5.45,4.63Z" transform="translate(-121.45)" style="fill:#4d4d4d"/><path d="M437.45,73.89l-32.8-32.8a12,12,0,0,1,0-17h0a12,12,0,0,1,17,0l32.8,32.8a12,12,0,0,1,0,17h0A12,12,0,0,1,437.45,73.89Z" transform="translate(-121.45)" style="fill:#606060"/><path d="M443.2,68.15l-32.81-32.8A12,12,0,0,1,408,21.78a12,12,0,0,0-3.38,19.31l32.8,32.8a12,12,0,0,0,16.95,0,11.86,11.86,0,0,0,2.36-3.38A12,12,0,0,1,443.2,68.15Z" transform="translate(-121.45)" style="fill:#4d4d4d"/></svg>