<svg id="Ebene_1" data-name="Ebene 1" xmlns="http://www.w3.org/2000/svg" viewBox="0 0 519.86 600"><path id="background" d="M299.75,600,40.07,449.79l.25-300L300.25,0,559.93,150.21l-.25,300Z" transform="translate(-40.07)" style="fill:#e1c750"/><g id="Chemie"><path d="M299.85,481.67l-157.58-91L142.42,209l157.73-90.71,157.58,91L457.58,391ZM161.29,379.76l138.58,80L438.58,380l.13-159.75-138.58-80L161.42,220Z" transform="translate(-40.07)" style="fill:#f6f6f6"/><polygon points="320.58 336.66 271 308.06 272.67 305.18 322.24 333.79 320.58 336.66" style="fill:#f6f6f6"/><polygon points="227.69 319.61 226.02 316.74 247.98 304.07 249.65 306.94 227.69 319.61" style="fill:#f6f6f6"/><rect x="257.67" y="252.25" width="3.33" height="32.66" style="fill:#f6f6f6"/><path d="M299.81,213.15A15.89,15.89,0,1,1,283.89,229a15.91,15.91,0,0,1,15.92-15.89m0-9.49A25.38,25.38,0,1,0,325.24,229a25.44,25.44,0,0,0-25.43-25.38Z" transform="translate(-40.07)" style="fill:#f6f6f6"/><path d="M371.11,334.69a6.3,6.3,0,1,1-6.31,6.3,6.31,6.31,0,0,1,6.31-6.3m0-9.49A15.79,15.79,0,1,0,386.94,341a15.82,15.82,0,0,0-15.83-15.79Z" transform="translate(-40.07)" style="fill:#f6f6f6"/><path d="M299.41,288.1a10.51,10.51,0,1,1-10.53,10.5,10.51,10.51,0,0,1,10.53-10.5m0-9.49a20,20,0,1,0,20,20,20,20,0,0,0-20-20Z" transform="translate(-40.07)" style="fill:#f6f6f6"/><path d="M245.62,308.5a23,23,0,1,1-23.05,23,23,23,0,0,1,23.05-23m0-9.49a32.5,32.5,0,1,0,32.56,32.49A32.57,32.57,0,0,0,245.62,299Z" transform="translate(-40.07)" style="fill:#f6f6f6"/></g></svg>