<svg id="Ebene_1" data-name="Ebene 1" xmlns="http://www.w3.org/2000/svg" viewBox="0 0 297.81 504.7"><path d="M285.25,548h0l-13.3,0-13.3,0c-46.51,0-75.09-3.76-76.49-77.7-1.51-80.31-2.86-227.1,0-279.13,2.71-50,29.45-74,46.32-84.25V86.93h87v19.94c16.87,10.26,43.62,34.27,46.32,84.25s1.6,193.29-.06,279.13C360.34,544.19,331.77,548,285.25,548Z" transform="translate(-178.19 -53.46)" style="fill:#e6e6e6"/><path d="M363.67,325c0,19.59-2.8,35.66-6.23,35.66h-171c-3.42,0-6.23-16.07-6.23-35.66v-67.3C180.23,238,183,222,186.46,222h171c3.43,0,6.23,16.06,6.23,35.69Z" transform="translate(-178.19 -53.46)" style="fill:#ffe882"/><path d="M345.69,444.5c.82,7.87,1.34,15.73,1.51,23.59a159.06,159.06,0,0,1-.87,23.76c-1,7.88-2.64,16-6.65,23.24a28.23,28.23,0,0,1-8.1,9.31,26.94,26.94,0,0,1-11.17,4.43,28.81,28.81,0,0,0,15.83-15.47c2.94-6.86,4.28-14.48,5.19-22.12s1.42-15.39,1.93-23.23S344.61,452.34,345.69,444.5Z" transform="translate(-178.19 -53.46)" style="fill:#fff"/><path d="M346.91,313.32a26.93,26.93,0,0,1-.07,22.51,24.23,24.23,0,0,1-2.42-11.27A24.62,24.62,0,0,1,346.91,313.32Z" transform="translate(-178.19 -53.46)" style="fill:#fff"/><path d="M346.75,250.75a22.47,22.47,0,0,1,2.54,10.68,22.14,22.14,0,0,1-2.4,10.72,24.41,24.41,0,0,1-.14-21.4Z" transform="translate(-178.19 -53.46)" style="fill:#fff"/><path d="M299,116.35a123.73,123.73,0,0,1,12.11,5.88A73.84,73.84,0,0,1,322,130.38a71.56,71.56,0,0,1,16.21,21.9,84.08,84.08,0,0,1,7.55,26.12c1.16,9,.83,18,.15,26.85-1.36-8.84-2-17.71-3.91-26.22a107.88,107.88,0,0,0-8.24-24.6,87.35,87.35,0,0,0-14.43-21.37C313.52,126.53,306.29,121.56,299,116.35Z" transform="translate(-178.19 -53.46)" style="fill:#fff"/><path d="M359.29,349.23a11.66,11.66,0,0,1,2.47,7.35,11.54,11.54,0,0,1-2.47,7.35,11.49,11.49,0,0,1-2.47-7.35A11.66,11.66,0,0,1,359.29,349.23Z" transform="translate(-178.19 -53.46)" style="fill:#fff"/><path d="M359.29,221.29a11.66,11.66,0,0,1,2.47,7.35,11.54,11.54,0,0,1-2.47,7.35,11.49,11.49,0,0,1-2.47-7.35A11.66,11.66,0,0,1,359.29,221.29Z" transform="translate(-178.19 -53.46)" style="fill:#fff"/><path d="M278.53,63H225.75a6.6,6.6,0,0,0-6.58,6.59V87.88a6.6,6.6,0,0,0,6.58,6.58h92.37a6.61,6.61,0,0,0,6.59-6.58V69.63A6.6,6.6,0,0,0,318.12,63Z" transform="translate(-178.19 -53.46)" style="fill:#ebda8a"/><path d="M278.53,53.46H225.75A6.6,6.6,0,0,0,219.17,60v6a6.61,6.61,0,0,0,6.58,6.59h92.37A6.61,6.61,0,0,0,324.71,66V60a6.61,6.61,0,0,0-6.59-6.58Z" transform="translate(-178.19 -53.46)" style="fill:#ffe882"/><rect x="39.91" y="45.25" width="107.67" height="4.94" style="fill:#ebda8a"/><path d="M365.71,234.85a6.49,6.49,0,0,1-6.37,6.58H184.56a6.5,6.5,0,0,1-6.37-6.58V222.43a6.51,6.51,0,0,1,6.37-6.59H359.34a6.5,6.5,0,0,1,6.37,6.59Z" transform="translate(-178.19 -53.46)" style="fill:#ebda8a"/><path d="M365.71,299.19a6.5,6.5,0,0,1-6.37,6.58H184.56a6.5,6.5,0,0,1-6.37-6.58V286.77a6.5,6.5,0,0,1,6.37-6.59H359.34a6.49,6.49,0,0,1,6.37,6.59Z" transform="translate(-178.19 -53.46)" style="fill:#ebda8a"/><path d="M365.71,363.52a6.5,6.5,0,0,1-6.37,6.59H184.56a6.51,6.51,0,0,1-6.37-6.59V351.1a6.5,6.5,0,0,1,6.37-6.58H359.34a6.49,6.49,0,0,1,6.37,6.58Z" transform="translate(-178.19 -53.46)" style="fill:#ebda8a"/><path d="M405.49,558.16h0l-11.66,0-11.66,0c-40.76,0-65.8-3.29-67-68.1-1.32-70.37-2.5-199,0-244.61,2.38-43.79,25.81-64.84,40.59-73.84V154.14H432v17.47c14.78,9,38.22,30,40.59,73.84s1.4,169.39-.06,244.61C471.3,554.87,446.26,558.16,405.49,558.16Z" transform="translate(-178.19 -53.46)" style="fill:#f6f6f6"/><path d="M474.21,362.73c0,17.18-2.45,31.26-5.46,31.26H318.91c-3,0-5.46-14.08-5.46-31.26v-59c0-17.2,2.46-31.28,5.46-31.28H468.75c3,0,5.46,14.08,5.46,31.28Z" transform="translate(-178.19 -53.46)" style="fill:#ffe882"/><path d="M458.46,467.5q1.08,10.33,1.32,20.67A141,141,0,0,1,459,509c-.91,6.92-2.31,14-5.83,20.37a24.67,24.67,0,0,1-7.1,8.16,23.67,23.67,0,0,1-9.79,3.89,25.25,25.25,0,0,0,13.87-13.56c2.58-6,3.75-12.69,4.56-19.38S456,495,456.42,488.1,457.51,474.37,458.46,467.5Z" transform="translate(-178.19 -53.46)" style="fill:#fff"/><path d="M459.53,352.54a21.61,21.61,0,0,1,2.13,9.87,21.22,21.22,0,0,1-2.2,9.85,21.37,21.37,0,0,1-2.12-9.87A21.61,21.61,0,0,1,459.53,352.54Z" transform="translate(-178.19 -53.46)" style="fill:#fff"/><path d="M459.38,297.7a19.61,19.61,0,0,1,2.23,9.37,19.34,19.34,0,0,1-2.1,9.39,21.49,21.49,0,0,1-.13-18.76Z" transform="translate(-178.19 -53.46)" style="fill:#fff"/><path d="M417.52,179.92a107.84,107.84,0,0,1,10.61,5.15,65.15,65.15,0,0,1,9.54,7.14,62.66,62.66,0,0,1,14.2,19.2,73.32,73.32,0,0,1,6.62,22.89,114.27,114.27,0,0,1,.13,23.53c-1.19-7.75-1.75-15.52-3.42-23A95.13,95.13,0,0,0,448,213.29a76.37,76.37,0,0,0-12.64-18.73C430.27,188.84,423.93,184.49,417.52,179.92Z" transform="translate(-178.19 -53.46)" style="fill:#fff"/><path d="M470.37,384a10.17,10.17,0,0,1,2.17,6.44,10,10,0,0,1-2.17,6.44,10.68,10.68,0,0,1,0-12.88Z" transform="translate(-178.19 -53.46)" style="fill:#fff"/><path d="M470.37,271.88a10.19,10.19,0,0,1,2.17,6.45,10,10,0,0,1-2.17,6.44,10.7,10.7,0,0,1,0-12.89Z" transform="translate(-178.19 -53.46)" style="fill:#fff"/><path d="M399.6,133.2H353.35a5.79,5.79,0,0,0-5.78,5.77v16a5.79,5.79,0,0,0,5.78,5.76H434.3a5.78,5.78,0,0,0,5.77-5.76V139a5.79,5.79,0,0,0-5.77-5.77Z" transform="translate(-178.19 -53.46)" style="fill:#ebda8a"/><path d="M399.6,124.8H353.35a5.79,5.79,0,0,0-5.78,5.77v5.25a5.79,5.79,0,0,0,5.78,5.77H434.3a5.79,5.79,0,0,0,5.77-5.77v-5.25a5.79,5.79,0,0,0-5.77-5.77Z" transform="translate(-178.19 -53.46)" style="fill:#ffe882"/><rect x="168.45" y="111" width="94.36" height="4.33" style="fill:#ebda8a"/><path d="M476,283.77a5.7,5.7,0,0,1-5.58,5.77H317.25a5.7,5.7,0,0,1-5.59-5.77V272.88a5.7,5.7,0,0,1,5.59-5.77H470.42a5.7,5.7,0,0,1,5.58,5.77Z" transform="translate(-178.19 -53.46)" style="fill:#ebda8a"/><path d="M476,340.15a5.7,5.7,0,0,1-5.58,5.77H317.25a5.7,5.7,0,0,1-5.59-5.77V329.27a5.71,5.71,0,0,1,5.59-5.78H470.42a5.7,5.7,0,0,1,5.58,5.78Z" transform="translate(-178.19 -53.46)" style="fill:#ebda8a"/><path d="M476,396.54a5.69,5.69,0,0,1-5.58,5.76H317.25a5.7,5.7,0,0,1-5.59-5.76V385.65a5.7,5.7,0,0,1,5.59-5.77H470.42a5.7,5.7,0,0,1,5.58,5.77Z" transform="translate(-178.19 -53.46)" style="fill:#ebda8a"/></svg>