<svg id="Ebene_1" data-name="Ebene 1" xmlns="http://www.w3.org/2000/svg" viewBox="0 0 518.55 600"><path d="M540.71,15.85,312,.05A20,20,0,0,0,290.7,18.56l-.35,5A20,20,0,0,0,308.87,44.8L278.94,477.94c-4.36,63.16,43.35,117.42,106.51,121.78s117.92-43.32,122.25-106L537.62,60.61a20,20,0,0,0,21.27-18.52l.34-5a20,20,0,0,0-18.52-21.27Zm0,0" transform="translate(-40.72 0)" style="fill:#f6f6f6"/><rect x="412.59" y="-52" width="19.94" height="229.3" transform="translate(290.21 479.89) rotate(-86.05)" style="fill:#dcdcdc"/><path d="M449.85,159.47c24.36,1.69,44.46,14.57,44.46,14.57L472.39,491.31c-3,43.76-41.27,76.59-85,73.57s-77.13-40.81-74.1-84.57L335.18,163s19.6,12.85,44.46,14.57,46.83-19.75,70.21-18.14Zm0,0" transform="translate(-40.72 0)" style="fill:#e1c750"/><path d="M390.8,305.29a29.91,29.91,0,1,0,27.78,31.91,30,30,0,0,0-27.78-31.91Zm49-21.6a17.45,17.45,0,1,0-16.2-18.6,17.65,17.65,0,0,0,16.2,18.6Zm-7.9,114.38A22.43,22.43,0,1,0,452.69,422a22.33,22.33,0,0,0-20.83-23.92Zm-61.31,55.72a15,15,0,1,0,13.89,15.95,15.33,15.33,0,0,0-13.89-15.95Zm0,0" transform="translate(-40.72 0)" style="fill:#ffe882"/><path d="M428.74,522.82a24.45,24.45,0,0,1-20,28.26L133.09,596.4a24.5,24.5,0,0,1-28-20.44L41.57,189.4a24.56,24.56,0,0,1,20-28.31l275.66-45.32a24.48,24.48,0,0,1,27.92,20.5Z" transform="translate(-40.72 0)" style="fill:#333"/><path d="M428.22,519.67a24.46,24.46,0,0,1-20,28.26L132.57,593.24a24.49,24.49,0,0,1-28-20.43L41.05,186.26a24.58,24.58,0,0,1,20-28.33l275.67-45.32a24.49,24.49,0,0,1,27.91,20.5Z" transform="translate(-40.72 0)" style="fill:#4d4d4d"/><path d="M355.67,230.92a11.91,11.91,0,0,1-9.78,13.75L94.66,285.92A11.91,11.91,0,0,1,81,276L68.78,201.66a11.94,11.94,0,0,1,9.79-13.74L329.8,146.66a12,12,0,0,1,13.67,9.91Z" transform="translate(-40.72 0)" style="fill:#ccc"/><path d="M162.09,408.09a6.3,6.3,0,0,1-5.36,7.1l-37.34,6.13a6.29,6.29,0,0,1-7.35-5L106.41,382a6.29,6.29,0,0,1,5.35-7.1l37.35-6.14a6.3,6.3,0,0,1,7.35,5Z" transform="translate(-40.72 0)" style="fill:gray"/><path d="M173.52,477.7a6.3,6.3,0,0,1-5.35,7.11l-37.35,6.13a6.29,6.29,0,0,1-7.34-5l-5.64-34.29a6.3,6.3,0,0,1,5.36-7.11l37.34-6.13a6.3,6.3,0,0,1,7.35,5Z" transform="translate(-40.72 0)" style="fill:gray"/><path d="M185,547.31a6.3,6.3,0,0,1-5.36,7.11l-37.34,6.13a6.29,6.29,0,0,1-7.34-5l-5.63-34.29a6.3,6.3,0,0,1,5.35-7.11L172,508a6.3,6.3,0,0,1,7.35,5Z" transform="translate(-40.72 0)" style="fill:gray"/><path d="M231.76,396.65a6.28,6.28,0,0,1-5.35,7.09l-37.34,6.14a6.3,6.3,0,0,1-7.36-5l-5.63-34.29a6.3,6.3,0,0,1,5.37-7.1l37.34-6.13a6.27,6.27,0,0,1,7.34,5Z" transform="translate(-40.72 0)" style="fill:gray"/><path d="M243.2,466.26a6.29,6.29,0,0,1-5.36,7.1l-37.34,6.13a6.29,6.29,0,0,1-7.35-5l-5.63-34.28a6.31,6.31,0,0,1,5.36-7.12L230.22,427a6.29,6.29,0,0,1,7.34,5Z" transform="translate(-40.72 0)" style="fill:gray"/><path d="M254.62,535.87a6.27,6.27,0,0,1-5.35,7.1l-37.34,6.13a6.28,6.28,0,0,1-7.35-5L199,509.81a6.31,6.31,0,0,1,5.36-7.12l37.34-6.12a6.29,6.29,0,0,1,7.35,5Z" transform="translate(-40.72 0)" style="fill:gray"/><path d="M301.44,385.2a6.29,6.29,0,0,1-5.35,7.11l-37.35,6.13a6.3,6.3,0,0,1-7.35-5l-5.63-34.29a6.29,6.29,0,0,1,5.36-7.1l37.35-6.13a6.28,6.28,0,0,1,7.34,5Z" transform="translate(-40.72 0)" style="fill:gray"/><path d="M369.51,374.93a6.31,6.31,0,0,1-5.37,7.1l-37.34,6.14a6.31,6.31,0,0,1-7.35-5l-5.63-34.28a6.3,6.3,0,0,1,5.36-7.11l37.35-6.13a6.31,6.31,0,0,1,7.35,5Z" transform="translate(-40.72 0)" style="fill:gray"/><path d="M312.88,454.82a6.29,6.29,0,0,1-5.36,7.1l-37.34,6.13a6.3,6.3,0,0,1-7.36-5l-5.63-34.29a6.29,6.29,0,0,1,5.37-7.09l37.34-6.14a6.3,6.3,0,0,1,7.34,5Z" transform="translate(-40.72 0)" style="fill:gray"/><path d="M324.3,524.43a6.29,6.29,0,0,1-5.35,7.1l-37.34,6.13a6.28,6.28,0,0,1-7.35-5l-5.64-34.29a6.29,6.29,0,0,1,5.37-7.1l37.34-6.14a6.31,6.31,0,0,1,7.35,5Z" transform="translate(-40.72 0)" style="fill:gray"/><path d="M152.93,341.29a5.46,5.46,0,0,1-4.64,6.16l-42.56,7a5.46,5.46,0,0,1-6.37-4.36l-4.82-29.31a5.46,5.46,0,0,1,4.65-6.15l42.56-7a5.46,5.46,0,0,1,6.36,4.35Z" transform="translate(-40.72 0)" style="fill:#ccc"/><path d="M222.6,329.85A5.46,5.46,0,0,1,218,336l-42.56,7a5.46,5.46,0,0,1-6.36-4.36l-4.82-29.31a5.45,5.45,0,0,1,4.64-6.15l42.56-7a5.47,5.47,0,0,1,6.37,4.36Z" transform="translate(-40.72 0)" style="fill:#ccc"/><path d="M292.28,318.41a5.45,5.45,0,0,1-4.64,6.15l-42.56,7a5.44,5.44,0,0,1-6.37-4.33L233.9,297.9a5.45,5.45,0,0,1,4.65-6.16l42.55-7a5.47,5.47,0,0,1,6.37,4.36Z" transform="translate(-40.72 0)" style="fill:#ccc"/><path d="M362,307a5.43,5.43,0,0,1-4.64,6.15l-42.55,7a5.46,5.46,0,0,1-6.37-4.35l-4.81-29.31a5.45,5.45,0,0,1,4.64-6.16l42.55-7a5.46,5.46,0,0,1,6.37,4.36Z" transform="translate(-40.72 0)" style="fill:#ccc"/><path d="M394,502c1.34,8.21,0,15.27-3.07,15.76l-42.56,7c-3,.5-6.59-5.75-7.94-14l-13.63-83c-1.35-8.21,0-15.28,3.07-15.78l42.55-7c3-.5,6.6,5.77,7.94,14Z" transform="translate(-40.72 0)" style="fill:#ffe882"/><polygon points="204.27 179.1 200.66 175.95 203.07 171.81 229.57 167.43 233.25 170.56 230.77 174.72 204.27 179.1" style="fill:#4d4d4d"/><polygon points="208.12 214.12 204.51 210.97 206.91 206.82 233.42 202.44 237.1 205.58 234.61 209.74 208.12 214.12" style="fill:#4d4d4d"/><polygon points="212.41 250.13 207.56 247.16 211.2 242.84 237.7 238.47 241.39 241.59 238.91 245.75 212.41 250.13" style="fill:#4d4d4d"/><polygon points="255.94 170.08 252.32 166.93 254.73 162.78 281.23 158.41 284.91 161.55 282.43 165.7 255.94 170.08" style="fill:#4d4d4d"/><polygon points="258.28 205.88 254.68 202.73 257.08 198.58 283.58 194.22 287.26 197.35 284.78 201.51 258.28 205.88" style="fill:#4d4d4d"/><polygon points="261.6 241.51 257.99 238.37 260.4 234.22 286.89 229.85 290.57 232.99 288.09 237.13 261.6 241.51" style="fill:#4d4d4d"/><polygon points="191.27 245.51 187.9 248.88 184.03 246.09 181.81 218.87 185.18 215.42 189.05 218.29 191.27 245.51" style="fill:#4d4d4d"/><polygon points="291.92 192.84 288.56 196.23 284.68 193.43 282.46 166.2 285.83 162.75 289.71 165.64 291.92 192.84" style="fill:#4d4d4d"/><polygon points="241.41 201.15 238.04 204.52 234.17 201.71 231.95 174.5 235.32 171.05 239.2 173.94 241.41 201.15" style="fill:#4d4d4d"/><polygon points="188.27 209.87 184.91 213.25 181.03 210.44 178.81 183.23 182.18 179.78 186.06 182.66 188.27 209.87" style="fill:#4d4d4d"/><polygon points="294.92 228.49 291.55 231.87 287.67 229.06 285.46 201.85 288.82 198.4 292.7 201.28 294.92 228.49" style="fill:#4d4d4d"/><polygon points="209.34 242.54 205.98 245.92 202.09 243.12 199.88 215.9 203.25 212.46 207.13 215.33 209.34 242.54" style="fill:#4d4d4d"/></svg>