<svg id="Ebene_1" data-name="Ebene 1" xmlns="http://www.w3.org/2000/svg" viewBox="0 0 600 485.43"><rect x="217.17" y="284.68" width="125.66" height="28.26" transform="translate(671.89 364.23) rotate(150)" style="fill:#ffe882"/><rect x="311.85" y="284.68" width="125.66" height="28.26" transform="translate(549.76 691.56) rotate(-150)" style="fill:#ffe882"/><polygon points="239.99 268.7 239.99 407.26 175.21 444.66 175.11 444.72 175.11 412.09 175.21 412.03 211.73 390.94 211.73 285.02 119.99 232.06 28.26 285.02 28.26 390.94 64.88 412.09 64.88 444.72 0 407.26 0 268.7 119.99 199.43 225.72 260.46 239.99 268.7" style="fill:#ffe882"/><rect x="300.42" y="215.61" width="105.82" height="28.26" transform="translate(123.59 529.71) rotate(-90)" style="fill:#ffe882"/><rect x="248.44" y="215.61" width="105.82" height="28.26" transform="translate(71.61 477.73) rotate(-90)" style="fill:#ffe882"/><path d="M353.77,64.78q-9.66-11.41-26.43-11.42-17,0-26.64,11.63t-9.59,32.32V114.5q.13,19.94,9.8,31t26.57,11.08q17,0,26.53-11.18t9.56-31.4V96.83Q363.42,76.21,353.77,64.78Zm-10.56,49.85q-.07,12.84-3.93,19t-11.8,6.1q-8.22,0-12.15-6.24T311.4,114V96.14q.14-13,4-19.42t11.94-6.39q8.15,0,12,6.63t3.86,20.22Z" transform="translate(0 -53.36)" style="fill:#ebda8a"/><path d="M134.9,438.32v66l-29.74-66H84.87V538.79h20.29v-65.9l29.67,65.9h20.29V438.32Z" transform="translate(0 -53.36)" style="fill:#ebda8a"/><path d="M505.19,333.29q-9.66-11.42-26.43-11.42-17,0-26.63,11.63t-9.6,32.33V383q.15,19.94,9.8,31T478.9,425.1q17,0,26.53-11.18t9.56-31.4V365.34Q514.86,344.72,505.19,333.29Zm-10.56,49.86q-.06,12.83-3.93,18.94t-11.8,6.1q-8.22,0-12.14-6.24t-3.94-19.43V364.65q.14-13,4-19.42t11.94-6.38q8.14,0,12,6.62t3.86,20.22Z" transform="translate(0 -53.36)" style="fill:#ebda8a"/><path d="M579.78,323.25v40.64H549.83V323.25H529.55V423.72h20.28v-43h29.95v43H600V323.25Z" transform="translate(0 -53.36)" style="fill:#ebda8a"/><rect x="109.37" y="319.14" width="85.04" height="14.13" transform="translate(120.33 631.29) rotate(-150)" style="fill:#ffe882"/><rect x="4.23" y="389.82" width="85.04" height="14.13" transform="translate(-350.13 390.28) rotate(-90)" style="fill:#ffe882"/><polygon points="200.3 384.57 175.21 399.06 175.21 382.74 193.24 372.33 200.3 384.57" style="fill:#ffe882"/><polygon points="175.21 412.03 175.21 444.66 175.11 444.72 175.11 412.09 175.21 412.03" style="fill:#f6f6f6"/></svg>