<svg id="Ebene_1" data-name="Ebene 1" xmlns="http://www.w3.org/2000/svg" viewBox="0 0 441.47 600"><rect x="24.87" y="92.01" width="358.28" height="26.68" style="fill:#4d4d4d"/><path d="M281.47,152l-.31-82.66c7.85-1.93,13.68-8.69,13.65-16.81,0-9.58-8.17-17.31-18.18-17.28l-74.57.25c-10,0-18.09,7.83-18.06,17.41,0,9.33,7.76,16.86,17.42,17.21l.3,81.07c-40,14.92-68.4,52.17-68.24,95.76C133.69,303.51,216.74,529,240.8,529c21.76,0,106.77-226.24,106.55-282.8-.15-42.5-27.32-78.86-65.88-94.23" transform="translate(-79.26)" style="fill:#f6f6f6"/><path d="M148.71,254.7c.18,48.51,73,254.25,92,254.25,19.82,0,91.57-206.35,91.39-254.86Z" transform="translate(-79.26)" style="fill:#ffe882"/><circle cx="134.24" cy="363.54" r="15.35" style="fill:#f6f6f6;opacity:0.9"/><circle cx="195.62" cy="283.74" r="18.41" style="fill:#f6f6f6;opacity:0.9"/><circle cx="160.33" cy="317.89" r="10.74" style="fill:#f6f6f6;opacity:0.9"/><path d="M250.33,363.54a6.14,6.14,0,1,1,6.14,6.14A6.14,6.14,0,0,1,250.33,363.54Z" transform="translate(-79.26)" style="fill:#f6f6f6;opacity:0.9"/><circle cx="160.33" cy="400.74" r="10.74" style="fill:#f6f6f6;opacity:0.9"/><circle cx="125.8" cy="283.74" r="7.29" style="fill:#f6f6f6;opacity:0.9"/><path d="M302.22,105.35c0,13.3-9.23,24.08-20.6,24.08h-82.4c-11.38,0-20.6-10.78-20.6-24.08h0c0-13.29,9.22-24.07,20.6-24.07h82.4c11.37,0,20.6,10.78,20.6,24.07Z" transform="translate(-79.26)" style="fill:#4d4d4d"/><rect x="380.69" width="33.98" height="590.97" style="fill:#4d4d4d"/><ellipse cx="397.03" cy="82.87" rx="44.45" ry="34.96" style="fill:#4d4d4d"/><ellipse cx="397.03" cy="82.87" rx="26.67" ry="20.98" style="fill:#636262"/><rect y="569.03" width="437.42" height="30.97" style="fill:#4d4d4d"/></svg>