<svg id="Ebene_1" data-name="Ebene 1" xmlns="http://www.w3.org/2000/svg" viewBox="0 0 600 239.61"><path d="M429.86,340.38l-38.47-4.95a5.9,5.9,0,0,0-5.49,9.37h0a5.93,5.93,0,0,1-1.55,8.51C323.43,392.74,246,390.58,188,352.11a5.94,5.94,0,0,0-6.83.14l-22.07,16.39a5.9,5.9,0,0,0,0,9.51c71.94,52.45,171.51,56.67,248.5,5.21a5.87,5.87,0,0,1,8,1.42L418,388a5.9,5.9,0,0,0,10.56-2.54l6.41-38.25A5.9,5.9,0,0,0,429.86,340.38Z" transform="translate(0 -180.2)" style="fill:#f6f6f6"/><path d="M170.14,259.62l38.47,4.95a5.9,5.9,0,0,0,5.49-9.37h0a5.93,5.93,0,0,1,1.55-8.51C276.57,207.26,354,209.42,412,247.89a5.94,5.94,0,0,0,6.83-.14l22.07-16.39a5.9,5.9,0,0,0,0-9.51C369,169.4,269.39,165.18,192.4,216.64a5.87,5.87,0,0,1-8-1.42L182,212a5.9,5.9,0,0,0-10.56,2.54l-6.41,38.25A5.9,5.9,0,0,0,170.14,259.62Z" transform="translate(0 -180.2)" style="fill:#f6f6f6"/><path d="M488.16,309.55a7.57,7.57,0,1,1,7.56,7.24A7.41,7.41,0,0,1,488.16,309.55Z" transform="translate(0 -180.2)" style="fill:#8fd165"/><path d="M484.35,301.2a55.27,55.27,0,0,1,13.11-18.28" transform="translate(0 -180.2)" style="fill:none;stroke:#fff;stroke-linecap:round;stroke-linejoin:round;stroke-width:3.2023483968749806px"/><path d="M557.48,262.22V227.71H511.94v34.51a65.29,65.29,0,1,0,45.54,0Z" transform="translate(0 -180.2)" style="fill:#f6f6f6"/><path d="M558.37,235.9H512.65a6,6,0,0,1-6-6h0a6,6,0,0,1,6-6h45.72a6,6,0,0,1,6,6h0A6,6,0,0,1,558.37,235.9Z" transform="translate(0 -180.2)" style="fill:#e6e6e6"/><path d="M534.71,379.91a56.48,56.48,0,0,0,56.48-56.48h-113A56.49,56.49,0,0,0,534.71,379.91Z" transform="translate(0 -180.2)" style="fill:#ffe882"/><path d="M567.18,325.61a12,12,0,1,1,12,12.5A12.26,12.26,0,0,1,567.18,325.61Z" transform="translate(0 -180.2)" style="fill:#ffe882"/><path d="M503.57,326.28a8.37,8.37,0,1,1,8.37,8.36A8.37,8.37,0,0,1,503.57,326.28Z" transform="translate(0 -180.2)" style="fill:#ebda8a"/><path d="M524.92,326.28a10.37,10.37,0,1,1,10.37,10.36A10.37,10.37,0,0,1,524.92,326.28Z" transform="translate(0 -180.2)" style="fill:#ffe882"/><path d="M536.93,303.68a5.87,5.87,0,1,1,5.87,5.87A5.87,5.87,0,0,1,536.93,303.68Z" transform="translate(0 -180.2)" style="fill:#ebda8a"/><circle cx="554.54" cy="165.61" r="9.21" style="fill:#ebda8a"/><path d="M500.46,277.48a3.12,3.12,0,1,1,3.11,3.12A3.11,3.11,0,0,1,500.46,277.48Z" transform="translate(0 -180.2)" style="fill:#fbfbfb"/><path d="M76,300.48h0v-79.9H43v79.9L1.83,369.34a12.81,12.81,0,0,0,11,19.38h93.3a12.81,12.81,0,0,0,11-19.38Z" transform="translate(0 -180.2)" style="fill:#f6f6f6"/><path d="M87.25,329.76H31.71L12.87,363.7c-4.13,7.43.85,16.88,8.89,16.88H97.2c8,0,13-9.45,8.89-16.88Z" transform="translate(0 -180.2)" style="fill:#e1c750"/><path d="M77.71,211.28H41.25a5.63,5.63,0,0,0-5.64,5.64h0a5.63,5.63,0,0,0,5.64,5.64H77.71a5.63,5.63,0,0,0,5.64-5.64h0A5.63,5.63,0,0,0,77.71,211.28Z" transform="translate(0 -180.2)" style="fill:#e6e6e6"/><path d="M30.92,333.15a8,8,0,1,1,8,8A8,8,0,0,1,30.92,333.15Z" transform="translate(0 -180.2)" style="fill:#e1c750"/><path d="M71.59,329.46a8,8,0,1,1,8,8A8,8,0,0,1,71.59,329.46Z" transform="translate(0 -180.2)" style="fill:#e1c750"/><path d="M53.3,332.38a6.18,6.18,0,1,1,6.18,6.19A6.18,6.18,0,0,1,53.3,332.38Z" transform="translate(0 -180.2)" style="fill:#b9a244"/><path d="M52.74,310.83a4.51,4.51,0,1,1,4.51,4.51A4.51,4.51,0,0,1,52.74,310.83Z" transform="translate(0 -180.2)" style="fill:#b9a244"/><path d="M76.05,350.66a4.52,4.52,0,1,1,4.52,4.51A4.51,4.51,0,0,1,76.05,350.66Z" transform="translate(0 -180.2)" style="fill:#b9a244"/><path d="M38.12,342.11a2.78,2.78,0,1,1,2.78,2.78A2.77,2.77,0,0,1,38.12,342.11Z" transform="translate(0 -180.2)" style="fill:#b9a244"/><path d="M61,301.87a2.78,2.78,0,1,1,2.78,2.78A2.77,2.77,0,0,1,61,301.87Z" transform="translate(0 -180.2)" style="fill:#b9a244"/><line x1="48.16" y1="68.18" x2="48.16" y2="88.61" style="fill:none;stroke:#fff;stroke-linecap:round;stroke-linejoin:round;stroke-width:3.3426917681381587px"/><path d="M45.93,240.57a2.23,2.23,0,1,1,2.23,2.23A2.22,2.22,0,0,1,45.93,240.57Z" transform="translate(0 -180.2)" style="fill:#fff"/></svg>