<svg id="Ebene_1" data-name="Ebene 1" xmlns="http://www.w3.org/2000/svg" viewBox="0 0 600 600"><rect width="600" height="600" style="fill:#ebda8a"/><path d="M255.4,345.81q0-13.87-7.1-21t-25.81-14.74q-34.17-12.94-49.14-30.33t-15-41.1q0-28.69,20.36-46.09t51.7-17.39q20.9,0,37.28,8.81a61.19,61.19,0,0,1,25.19,24.88q8.8,16.06,8.81,36.5H256q0-15.92-6.79-24.26t-19.57-8.34q-12,0-18.72,7.09T204.24,239q0,9.36,7.48,16.92t26.52,15.68q33.22,12,48.27,29.48t15.05,44.45q0,29.64-18.87,46.32t-51.31,16.69a88.36,88.36,0,0,1-40.09-9A67.87,67.87,0,0,1,163,373.57q-10.22-16.85-10.21-39.77h46q0,19.65,7.64,28.54t25,8.89Q255.4,371.23,255.4,345.81Z" transform="translate(0 0)" style="fill:#f6f6f6"/><path d="M390.78,371.86q19.19,0,19.5-25h41.49q-.31,27.62-17,44.61t-43,17q-32.61,0-49.76-20.27T324.49,328.5V315.08q0-39.76,16.93-60.67t50-20.9q27.93,0,44,17.24t16.38,48.89H410.28q-.16-14.19-4.68-21.83t-15-7.65q-11.53,0-16.53,8.19t-5.3,31.74v17.16q0,20.6,2,28.78t6.7,12Q382.2,371.86,390.78,371.86Z" transform="translate(0 0)" style="fill:#f6f6f6"/><path d="M94.78,154H39.63v-9l28.11-37.26A82,82,0,0,0,76.59,93.6a28.42,28.42,0,0,0,2.47-11.69q0-7.86-3.66-12.73a11.45,11.45,0,0,0-9.62-4.88q-7.51,0-11.62,5.18t-4.1,14.94h-12q0-13.62,7.45-22T65.78,54q11.79,0,18.56,7.22t6.78,19.2q0,14.64-15.25,34.62l-22,28.73H94.78Z" transform="translate(0 0)" style="fill:#f6f6f6"/><path d="M143.83,154H131.77V70.46L111,79.75V68.36l30.89-13.48h1.9Z" transform="translate(0 0)" style="fill:#f6f6f6"/><path d="M174.3,524q0-4.38-2.38-6.72t-8.57-4.55a36.65,36.65,0,0,1-9.47-4.65,16.3,16.3,0,0,1-4.91-5.55A16.46,16.46,0,0,1,152,484q4.63-4.5,12.17-4.51a18.18,18.18,0,0,1,9.17,2.3,15.66,15.66,0,0,1,6.2,6.4,18.92,18.92,0,0,1,2.17,9h-7.4c0-3.62-.87-6.43-2.62-8.41s-4.25-3-7.52-3a9.23,9.23,0,0,0-6.92,2.5,9.57,9.57,0,0,0-2.46,7,8.17,8.17,0,0,0,2.66,6.21,23.56,23.56,0,0,0,8.21,4.48q8.65,2.85,12.37,7t3.72,11a14.82,14.82,0,0,1-4.62,11.41q-4.63,4.27-12.6,4.28a20.27,20.27,0,0,1-9.44-2.23,16.89,16.89,0,0,1-6.8-6.28,17.39,17.39,0,0,1-2.47-9.27h7.4c0,3.62,1,6.44,3,8.45a11.23,11.23,0,0,0,8.27,3c3.25,0,5.69-.84,7.32-2.5A9.26,9.26,0,0,0,174.3,524Z" transform="translate(0 0)" style="fill:#f6f6f6"/><path d="M205.53,533.58a7.52,7.52,0,0,0,5.67-2.2,9.27,9.27,0,0,0,2.33-6.25h6.72a14.81,14.81,0,0,1-4.44,10.4,14.13,14.13,0,0,1-10.28,4.12q-8.1,0-12.34-5.09T189,519.41v-4.79q0-9.86,4.22-15t12.32-5.13q6.67,0,10.6,4.23t4.16,11.55h-6.72q-.24-4.83-2.31-7.25a7.14,7.14,0,0,0-5.73-2.41q-4.76,0-7.05,3.12T196.07,514v5.55q0,7.69,2.27,10.87C199.86,532.52,202.25,533.58,205.53,533.58Z" transform="translate(0 0)" style="fill:#f6f6f6"/><path d="M250.88,538.85a15.68,15.68,0,0,1-.93-4.75q-3.78,5.55-9.66,5.55t-9.23-3.32q-3.31-3.32-3.32-9.35a13.24,13.24,0,0,1,4.51-10.55q4.5-3.9,12.35-4h5.23v-4.63q0-3.9-1.73-5.55t-5.27-1.65a7.29,7.29,0,0,0-5.23,1.91,6.4,6.4,0,0,0-2,4.85h-7.13a11.51,11.51,0,0,1,2-6.38,13.77,13.77,0,0,1,5.31-4.77,16,16,0,0,1,7.44-1.73q6.67,0,10.16,3.32t3.56,9.68v22a26.66,26.66,0,0,0,1.37,8.73v.65Zm-9.5-5.68a9.48,9.48,0,0,0,5-1.44,9,9,0,0,0,3.46-3.63V517.72h-4a13.48,13.48,0,0,0-8,2.28,7.2,7.2,0,0,0-2.94,6.13q0,3.71,1.49,5.37C237.34,532.62,239,533.17,241.38,533.17Z" transform="translate(0 0)" style="fill:#f6f6f6"/><path d="M274.66,495.31l.2,4.71a12.7,12.7,0,0,1,10.58-5.52q11.55,0,11.71,15.42v28.93h-7.08V510.24q0-5.12-1.71-7.27a6.17,6.17,0,0,0-5.13-2.15,7.24,7.24,0,0,0-4.77,1.77,12.71,12.71,0,0,0-3.4,4.63v31.63h-7.12V495.31Z" transform="translate(0 0)" style="fill:#f6f6f6"/><path d="M306.33,515.11q0-10.07,3.76-15.34t10.81-5.27a11.19,11.19,0,0,1,9.74,5.07V477h7.12v61.81h-6.52l-.36-4.67a11.22,11.22,0,0,1-10,5.47,12.43,12.43,0,0,1-10.61-5.25q-3.84-5.25-3.92-14.83Zm7.12,4q0,7.3,2.18,10.75c1.44,2.29,3.81,3.44,7.08,3.44q5.31,0,7.93-5.35V506.05q-2.75-5.24-7.89-5.23c-3.27,0-5.64,1.15-7.08,3.44s-2.19,5.8-2.22,10.55Z" transform="translate(0 0)" style="fill:#f6f6f6"/><path d="M357,483.76a4.56,4.56,0,0,1-1,3,3.77,3.77,0,0,1-3.06,1.2,3.72,3.72,0,0,1-3-1.2,4.56,4.56,0,0,1-1-3,4.71,4.71,0,0,1,1-3.06,3.66,3.66,0,0,1,3-1.25,3.71,3.71,0,0,1,3,1.27A4.71,4.71,0,0,1,357,483.76Zm-.56,55.09h-7.12V495.31h7.12Z" transform="translate(0 0)" style="fill:#f6f6f6"/><path d="M389.79,535q-3.54,4.62-10.34,4.62c-3.95,0-6.92-1.36-8.94-4.08s-3-6.69-3.05-11.89V495.31h7.08v27.84q0,10.19,6.12,10.19,6.46,0,8.93-5.8V495.31h7.12v43.54H390Z" transform="translate(0 0)" style="fill:#f6f6f6"/><path d="M414.14,495.31l.16,4a12.93,12.93,0,0,1,10.5-4.83q7.29,0,10.18,6.32a12.93,12.93,0,0,1,11.43-6.32q12,0,12.31,15v29.34h-7.08V510.2c0-3.17-.56-5.52-1.69-7.07s-3-2.31-5.71-2.31a6.41,6.41,0,0,0-5.24,2.5,11.4,11.4,0,0,0-2.33,6.35v29.18h-7.16v-29q-.12-9-7.37-9.05-5.38,0-7.6,5.39v32.64h-7.08V495.31Z" transform="translate(0 0)" style="fill:#f6f6f6"/><path d="M334,81.23h6.39v6H334V100.5h-7V87.18H305.33V82.89l21.32-39.77H334Zm-20.92,0H327V54Z" transform="translate(0 0)" style="fill:#f6f6f6"/><path d="M373.83,81.23h6.38v6h-6.38V100.5h-7V87.18H345.18V82.89L366.5,43.12h7.33Zm-20.93,0h14V54Z" transform="translate(0 0)" style="fill:#f6f6f6"/><path d="M388.33,96.68a4.56,4.56,0,0,1,1.13-3.15,4.28,4.28,0,0,1,3.37-1.26,4.43,4.43,0,0,1,3.41,1.26,4.49,4.49,0,0,1,1.16,3.15,4.23,4.23,0,0,1-1.16,3,4.49,4.49,0,0,1-3.41,1.23,4.34,4.34,0,0,1-3.37-1.23A4.29,4.29,0,0,1,388.33,96.68Z" transform="translate(0 0)" style="fill:#f6f6f6"/><path d="M431.45,76q-4.18,5.33-9.77,5.32a11.6,11.6,0,0,1-10-5.28Q408,70.75,408,62.19q0-9,4-14.42a13,13,0,0,1,11-5.44,12.82,12.82,0,0,1,11.34,6.29q4.07,6.29,4.07,17.4v2.16A68,68,0,0,1,437,83.63a25.3,25.3,0,0,1-4.24,9.54,17.73,17.73,0,0,1-7.13,5.5,27.41,27.41,0,0,1-10.84,1.87V94.35H416q7.41-.15,11.25-4.5T431.45,76Zm-8.59-.71a7.41,7.41,0,0,0,4.92-2.11,14,14,0,0,0,3.75-5.54V64.56q0-7.14-2.48-11.65t-6-4.51q-3.78,0-6,3.72a18.75,18.75,0,0,0-2.22,9.68A19.21,19.21,0,0,0,417,71.51Q419.15,75.27,422.86,75.28Z" transform="translate(0 0)" style="fill:#f6f6f6"/><path d="M451.19,71.73l2.49-28.61h24.95v6.74H459.55L458.21,65.5A13.09,13.09,0,0,1,465.86,63a12.37,12.37,0,0,1,10.52,5.2q3.83,5.2,3.82,14t-4.16,14q-4.16,5.08-11.41,5.08a14,14,0,0,1-10.52-4.22q-4.07-4.21-4.65-11.66H456q.6,4.92,2.82,7.43a7.41,7.41,0,0,0,5.81,2.5A7.19,7.19,0,0,0,471,91.81c1.52-2.35,2.29-5.52,2.29-9.52a15.8,15.8,0,0,0-2.47-9.18,7.69,7.69,0,0,0-6.64-3.55,8.2,8.2,0,0,0-5.56,1.82l-1.85,1.85Z" transform="translate(0 0)" style="fill:#f6f6f6"/><path d="M491,71.73l2.48-28.61h25v6.74H499.39L498.05,65.5A13.14,13.14,0,0,1,505.7,63a12.35,12.35,0,0,1,10.52,5.2q3.82,5.2,3.83,14t-4.16,14q-4.15,5.08-11.41,5.08A13.94,13.94,0,0,1,494,97.07q-4.06-4.21-4.65-11.66h6.54q.58,4.92,2.82,7.43a7.39,7.39,0,0,0,5.81,2.5,7.16,7.16,0,0,0,6.34-3.53q2.3-3.53,2.29-9.52a15.8,15.8,0,0,0-2.46-9.18A7.72,7.72,0,0,0,504,69.56a8.17,8.17,0,0,0-5.56,1.82l-1.85,1.85Z" transform="translate(0 0)" style="fill:#f6f6f6"/><path d="M551,76q-4.17,5.33-9.77,5.32a11.58,11.58,0,0,1-10-5.28q-3.71-5.28-3.71-13.84,0-9,4-14.42a13,13,0,0,1,11-5.44,12.82,12.82,0,0,1,11.33,6.29Q558,54.91,558,66v2.16a67.36,67.36,0,0,1-1.44,15.45,25.14,25.14,0,0,1-4.24,9.54,17.67,17.67,0,0,1-7.13,5.5,27.38,27.38,0,0,1-10.84,1.87V94.35h1.22q7.41-.15,11.26-4.5T551,76Zm-8.59-.71a7.44,7.44,0,0,0,4.93-2.11,14,14,0,0,0,3.74-5.54V64.56q0-7.14-2.48-11.65t-6-4.51a6.76,6.76,0,0,0-6,3.72,18.65,18.65,0,0,0-2.23,9.68,19.31,19.31,0,0,0,2.17,9.71C538,74,539.92,75.28,542.39,75.28Z" transform="translate(0 0)" style="fill:#f6f6f6"/></svg>