<svg id="Ebene_1" data-name="Ebene 1" xmlns="http://www.w3.org/2000/svg" viewBox="0 0 569 582.36"><path d="M266.33,262.4a54,54,0,1,1,0,76.32A54,54,0,0,1,266.33,262.4Z" transform="translate(-19.99 -9.38)" style="fill:#e1c750"/><path d="M318.65,285.51a12.86,12.86,0,1,1,0-18.19A12.85,12.85,0,0,1,318.65,285.51Z" transform="translate(-19.99 -9.38)" style="fill:#fff;opacity:0.8"/><path d="M432.06,420.45c3.17,86.63-15.91,150.2-54.14,160.23-57.84,15.15-137.6-98-178.15-252.68S173.23,35.6,231.06,20.45s137.6,98,178.14,252.66C423,325.55,430.43,376,432.06,420.45" transform="translate(-19.99 -9.38)" style="fill:none;stroke:#f6f6f6;stroke-miterlimit:10;stroke-width:19.402986430636886px"/><path d="M267.35,471.64c-72.64,47.31-137,63.66-165.24,36-42.76-41.79,13.18-168.39,125-282.78s237-173.24,279.8-131.46S493.69,261.83,381.92,376.21C344,415,304.6,447.39,267.35,471.64" transform="translate(-19.99 -9.38)" style="fill:none;stroke:#f6f6f6;stroke-miterlimit:10;stroke-width:19.402986430636886px"/><path d="M475.61,263.61C548.73,310.18,590.22,362,576.77,399.14c-20.36,56.22-158.76,57.65-309.14,3.21S11.85,258.2,32.21,202,191,144.33,341.34,198.77c51,18.45,96.78,41,134.27,64.84" transform="translate(-19.99 -9.38)" style="fill:none;stroke:#f6f6f6;stroke-miterlimit:10;stroke-width:19.402986430636886px"/><path d="M513.35,284.57a32.39,32.39,0,1,1,0,45.8A32.39,32.39,0,0,1,513.35,284.57Z" transform="translate(-19.99 -9.38)" style="fill:#ffe882"/><path d="M536.26,303.93a9.06,9.06,0,0,1-8.85-8.85,8.38,8.38,0,0,1,8.45-8.69,9.06,9.06,0,0,1,8.85,8.85A8.38,8.38,0,0,1,536.26,303.93Z" transform="translate(-19.99 -9.38)" style="fill:#fff;opacity:0.8"/><path d="M251.41,154.79a32,32,0,1,1,0,45.24A32,32,0,0,1,251.41,154.79Z" transform="translate(-19.99 -9.38)" style="fill:#ffe882"/><path d="M273.38,176.72a9,9,0,0,1-8.84-8.84A8.37,8.37,0,0,1,273,159.2a9,9,0,0,1,8.85,8.84A8.37,8.37,0,0,1,273.38,176.72Z" transform="translate(-19.99 -9.38)" style="fill:#fff;opacity:0.8"/><path d="M297.83,535.07a31.64,31.64,0,1,1,0,44.75A31.65,31.65,0,0,1,297.83,535.07Z" transform="translate(-19.99 -9.38)" style="fill:#ffe882"/><path d="M322.5,558.57a9.05,9.05,0,0,1-8.84-8.86,8.37,8.37,0,0,1,8.45-8.67,9,9,0,0,1,8.84,8.84A8.38,8.38,0,0,1,322.5,558.57Z" transform="translate(-19.99 -9.38)" style="fill:#fff;opacity:0.8"/></svg>