<svg id="ĎŽÓť_1" data-name="ĎŽÓť 1" xmlns="http://www.w3.org/2000/svg" viewBox="0 0 600 430.58"><path d="M307.93,124.91l-208,5.65a9.66,9.66,0,1,0,0,8.14l208,5.65ZM91.18,140.82a6.19,6.19,0,1,1,6.19-6.19A6.2,6.2,0,0,1,91.18,140.82Z" transform="translate(-0.02 -83.15)" style="fill:#f6f6f6"/><path d="M292.09,124.91l208,5.65a9.66,9.66,0,1,1,0,8.14l-208,5.65Zm216.75,15.91a6.19,6.19,0,1,0-6.18-6.19A6.2,6.2,0,0,0,508.84,140.82Z" transform="translate(-0.02 -83.15)" style="fill:#f6f6f6"/><path d="M300,83.15h0a9.65,9.65,0,0,0-9.65,9.65V479.63h19.3V92.8A9.65,9.65,0,0,0,300,83.15Z" transform="translate(-0.02 -83.15)" style="fill:#e1c750"/><rect x="268.58" y="376.19" width="62.83" height="48.14" style="fill:#b9a244"/><path d="M251.58,401.17H348.4A24.61,24.61,0,0,1,373,425.78v0a0,0,0,0,1,0,0H227a0,0,0,0,1,0,0v0A24.61,24.61,0,0,1,251.58,401.17Z" style="fill:#e1c750"/><path d="M382.6,513.74H217.42a8.19,8.19,0,0,1-8.19-8.2h0a8.19,8.19,0,0,1,8.19-8.19H382.6a8.2,8.2,0,0,1,8.2,8.19h0A8.2,8.2,0,0,1,382.6,513.74Z" transform="translate(-0.02 -83.15)" style="fill:#b9a244"/><circle cx="300.01" cy="134.63" r="23.15" transform="translate(-20.66 124.39) rotate(-36.98)" style="fill:#ffe882"/><polygon points="593.29 196.37 508.82 70.18 424.35 196.37 422.69 195.5 508.82 66.82 594.95 195.5 593.29 196.37" style="fill:#e6e6e6;stroke:#e6e6e6;stroke-miterlimit:10;stroke-width:3.860239364805857px"/><rect x="507.93" y="52.99" width="1.79" height="15.29" rx="0.89" style="fill:#e6e6e6;stroke:#e6e6e6;stroke-miterlimit:10;stroke-width:3.860239364805857px"/><path d="M417.67,277.76a53.68,53.68,0,0,0,48.57,30.8h85.21A53.69,53.69,0,0,0,600,277.76Z" transform="translate(-0.02 -83.15)" style="fill:#ffe882"/><polygon points="175.65 196.37 91.18 70.18 6.71 196.37 5.05 195.5 91.18 66.82 177.31 195.5 175.65 196.37" style="fill:#e6e6e6;stroke:#e6e6e6;stroke-miterlimit:10;stroke-width:3.860239364805857px"/><rect x="90.28" y="52.99" width="1.79" height="15.29" rx="0.89" style="fill:#e6e6e6;stroke:#e6e6e6;stroke-miterlimit:10;stroke-width:3.860239364805857px"/><path d="M0,277.76a53.69,53.69,0,0,0,48.57,30.8H133.8a53.69,53.69,0,0,0,48.57-30.8Z" transform="translate(-0.02 -83.15)" style="fill:#ffe882"/></svg>