<svg id="Ebene_1" data-name="Ebene 1" xmlns="http://www.w3.org/2000/svg" viewBox="0 0 528.23 600"><path d="M546.7,522.17,388.43,321.85V14.65H211.57v307.2L53.3,522.17C19.48,565,36.45,600,91,600H509C563.55,600,580.52,565,546.7,522.17Z" transform="translate(-35.89)" style="fill:#f6f6f6"/><path d="M431.31,24.12a24.12,24.12,0,0,1-24.12,24.12H192.81a24.12,24.12,0,0,1-24.12-24.12h0A24.12,24.12,0,0,1,192.81,0H407.19a24.12,24.12,0,0,1,24.12,24.12Z" transform="translate(-35.89)" style="fill:#e6e6e6"/><path d="M116.13,581.67H476c50.18,0,65.72-32.16,34.54-71.47L430.79,409.68C387,446,315.74,454.2,245.42,422.45c-28.94-13.08-55.27-16.37-77.31-15.14L82.8,511.17C51,549.94,66,581.67,116.13,581.67Z" transform="translate(-35.89)" style="fill:#ffe882"/><path d="M430.79,409.68C387,446,315.74,454.2,245.42,422.45c-28.94-13.08-55.27-16.37-77.31-15.14,0,0,41.31,20.51,92.05,55.33C311.23,497.69,404.46,481.33,430.79,409.68Z" transform="translate(-35.89)" style="fill:#ebda8a"/><path d="M305.35,290.79A25.84,25.84,0,1,1,331.19,265,25.83,25.83,0,0,1,305.35,290.79Z" transform="translate(-35.89)" style="fill:#ebda8a"/><path d="M270.35,354.8a14,14,0,1,1,14-14A14,14,0,0,1,270.35,354.8Z" transform="translate(-35.89)" style="fill:#ebda8a"/><path d="M351.32,328.21a14,14,0,1,1,14-14A14,14,0,0,1,351.32,328.21Z" transform="translate(-35.89)" style="fill:#ebda8a"/><path d="M331.19,410A25.84,25.84,0,1,1,357,384.14,25.83,25.83,0,0,1,331.19,410Z" transform="translate(-35.89)" style="fill:#ebda8a"/><path d="M265.49,437A16.48,16.48,0,1,1,282,420.51,16.48,16.48,0,0,1,265.49,437Z" transform="translate(-35.89)" style="fill:#ebda8a"/></svg>