<svg id="Ebene_1" data-name="Ebene 1" xmlns="http://www.w3.org/2000/svg" viewBox="0 0 600 503.77"><path d="M496.66,176.27,309,230.58l66.53,229.94a6.61,6.61,0,0,0,.36.93,9,9,0,0,0,.24,1.12c4.31,14.91,49.82,14.85,101.65-.15s90.34-39.24,86-54.16a6.89,6.89,0,0,0-.4-1.07,6.52,6.52,0,0,0-.19-1Z" transform="translate(0 -48.11)" style="fill:#f5f6ef"/><path d="M473,445.86c-20.74,6-41.43,9.75-58.27,10.57-15.61.76-23.52-1.2-26.34-2.49l-.51-1.08L325.38,237l160.83-46.54,62.46,215.87.15,1.19c-1.7,2.6-7.34,8.48-20.94,16.17C513.2,432,493.7,439.86,473,445.86Z" transform="translate(0 -48.11)" style="fill:#ffe883"/><path d="M496.66,176.27c3.41,11.79-35.84,33.49-87.67,48.49s-96.6,17.6-100,5.82,35.84-33.49,87.67-48.49S493.25,164.49,496.66,176.27Z" transform="translate(0 -48.11)" style="fill:#fffdfa"/><ellipse cx="405.8" cy="213.72" rx="83.71" ry="19.03" transform="translate(-43.41 73.1) rotate(-16.14)" style="fill:#e9cf74"/><path d="M576.78,360l-24.87,7.19-5.7-19.69,24.88-7.2A11.65,11.65,0,0,0,579,325.92l-24.69-85.34a11.67,11.67,0,0,0-14.43-8l-24.87,7.2-5.7-19.69,24.87-7.2A32.19,32.19,0,0,1,574,234.88l24.69,85.34A32.19,32.19,0,0,1,576.78,360Z" transform="translate(0 -48.11)" style="fill:#f6f5f5"/><path d="M534.22,212.94l-6.12,1.77a32.19,32.19,0,0,1,39.82,21.94L592.61,322a32.18,32.18,0,0,1-21.94,39.82l6.11-1.77a32.19,32.19,0,0,0,22-39.82L574,234.88A32.19,32.19,0,0,0,534.22,212.94Z" transform="translate(0 -48.11)" style="fill:#f6f5f5"/><g style="opacity:0.2"><path d="M435.13,435.3l-1.15.33a5.15,5.15,0,0,1-6.38-3.51L379.79,266.87a5.15,5.15,0,0,1,3.51-6.38l1.15-.33a5.15,5.15,0,0,1,6.38,3.51l47.81,165.25A5.15,5.15,0,0,1,435.13,435.3Z" transform="translate(0 -48.11)" style="fill:#f6f5f5"/><path d="M500.47,416.39l-1.15.34a5.15,5.15,0,0,1-6.37-3.52L445.13,248a5.15,5.15,0,0,1,3.52-6.38l1.14-.33a5.15,5.15,0,0,1,6.38,3.51L504,410A5.15,5.15,0,0,1,500.47,416.39Z" transform="translate(0 -48.11)" style="fill:#f6f5f5"/></g><path d="M510,147.9a16.33,16.33,0,0,0-6.79-3.74,30.28,30.28,0,0,0-12.09-.91,19.44,19.44,0,0,0-21.84-13,20,20,0,0,0-20.82-14.06,21.13,21.13,0,0,0-26-3.62,19.87,19.87,0,0,0-22.25,5.75,20,20,0,0,0-29.38,3.61,19.52,19.52,0,0,0-26.32,20.27,22.81,22.81,0,0,0-23,27.38,12.94,12.94,0,0,0-3.56.52,13.39,13.39,0,0,0-9.43,10.37A15.61,15.61,0,0,0,301,193.22c-16.07,6.71-22.16,28.75-5.9,43.66a16.52,16.52,0,0,0,6.78,3.74,28.5,28.5,0,0,0,18.34-.74,16.91,16.91,0,0,0,27.88,13.56,17.33,17.33,0,0,0,29.52-11.94A17.34,17.34,0,0,0,391,243.08a16.66,16.66,0,0,0,2.63-1,15,15,0,0,0,28.64-8.19,15.76,15.76,0,0,0,2-.42,15.55,15.55,0,0,0,11.22-14.75l.7-.09a16.27,16.27,0,0,0,31.7-3.61,18.48,18.48,0,0,0,32.23-16.62,18.2,18.2,0,0,0-.76-2.11,19.58,19.58,0,0,0,4.87-4.78C520.22,184.69,526.21,162.75,510,147.9Z" transform="translate(0 -48.11)" style="fill:#f6f5f5"/><path d="M459.38,185.47c-.3.14-.61.27-.91.39.28.28.56.58.82.89C459.31,186.32,459.34,185.89,459.38,185.47Z" transform="translate(0 -48.11)" style="fill:#e6e6e6"/><path d="M499.62,175.38a19.63,19.63,0,0,1-4.88,4.78,18.24,18.24,0,0,1,.77,2.11,18.48,18.48,0,0,1-32.23,16.61,16.28,16.28,0,0,1-31.71,3.62l-.69.09a15.55,15.55,0,0,1-11.22,14.75,16.12,16.12,0,0,1-2,.42A15,15,0,0,1,389,226a17.19,17.19,0,0,1-16.05-.56,17.33,17.33,0,0,1-29.52,11.94,16.9,16.9,0,0,1-27.88-13.56,28.57,28.57,0,0,1-18.34.74,16.53,16.53,0,0,1-6.79-3.75,32.63,32.63,0,0,1-4.88-5.6c-.39,7.35,2.45,15.21,9.55,21.72a16.52,16.52,0,0,0,6.78,3.74,28.5,28.5,0,0,0,18.34-.74,16.91,16.91,0,0,0,27.88,13.56,17.33,17.33,0,0,0,29.52-11.94A17.34,17.34,0,0,0,391,243.08a16.66,16.66,0,0,0,2.63-1,15,15,0,0,0,28.64-8.19,15.76,15.76,0,0,0,2-.42,15.55,15.55,0,0,0,11.22-14.75l.7-.09a16.27,16.27,0,0,0,31.7-3.61,18.48,18.48,0,0,0,32.23-16.62,18.2,18.2,0,0,0-.76-2.11,19.58,19.58,0,0,0,4.87-4.78c14-6,20.34-23.7,10.61-38A25.27,25.27,0,0,1,499.62,175.38Z" transform="translate(0 -48.11)" style="fill:#e6e6e6"/><path d="M360.57,201.5a10.23,10.23,0,0,1-8.38-1.23,13.89,13.89,0,0,1-21.05-7.71,13.84,13.84,0,0,1,.3-8.6,13.89,13.89,0,0,0,14.83,21.87,14,14,0,0,0,3.84-1.78,10.23,10.23,0,0,0,15.34-5.67A10.28,10.28,0,0,1,360.57,201.5Z" transform="translate(0 -48.11)" style="fill:#e6e6e6"/><path d="M418.61,162a10.24,10.24,0,0,1-5.71,6.26,13.89,13.89,0,0,1-25.13,8.07,13.9,13.9,0,0,0,27.1-4.23,10.24,10.24,0,0,0,3.88-15.89A10.22,10.22,0,0,1,418.61,162Z" transform="translate(0 -48.11)" style="fill:#e6e6e6"/><path d="M468.06,154.93a10.22,10.22,0,0,1-7.77,3.35A14.25,14.25,0,0,1,458,161.8a13.88,13.88,0,0,1-23.89-6.52,13.89,13.89,0,0,0,24.1,10.83,14.25,14.25,0,0,0,2.33-3.52,10.23,10.23,0,0,0,10.08-12.88A10.21,10.21,0,0,1,468.06,154.93Z" transform="translate(0 -48.11)" style="fill:#e6e6e6"/><path d="M392.64,146.36a9.68,9.68,0,0,1-8-.43,12.7,12.7,0,0,1-3.45,2,13.13,13.13,0,0,1-17.52-15.55A13.15,13.15,0,0,0,383,149.68,9.68,9.68,0,0,0,397,143,9.7,9.7,0,0,1,392.64,146.36Z" transform="translate(0 -48.11)" style="fill:#e6e6e6"/><path d="M109.83,250.85,295,313.15,218.68,540a6.77,6.77,0,0,1-.4.91A8.19,8.19,0,0,1,218,542c-4.95,14.72-50.42,12.7-101.56-4.5s-88.57-43.08-83.62-57.8a6.91,6.91,0,0,1,.45-1.05,5.27,5.27,0,0,1,.23-1Z" transform="translate(0 -48.11)" style="fill:#f6f5f5"/><path d="M121.94,521.2c20.46,6.88,41,11.52,57.76,13.06,15.57,1.43,23.55-.19,26.43-1.36l.55-1.06,71.66-213L119.66,265.46,48,478.45l-.2,1.18c1.59,2.68,7,8.78,20.23,17.06C82.34,505.61,101.48,514.32,121.94,521.2Z" transform="translate(0 -48.11)" style="fill:#ffe883"/><ellipse cx="202.42" cy="282" rx="22.21" ry="97.69" transform="translate(-129.4 335.81) rotate(-71.4)" style="fill:#fffdfa"/><ellipse cx="199" cy="292.15" rx="19.03" ry="83.71" transform="translate(-141.36 339.49) rotate(-71.4)" style="fill:#e9cf74"/><path d="M21.9,431l24.54,8.26L53,419.83l-24.54-8.26a11.65,11.65,0,0,1-7.33-14.75l28.33-84.2a11.65,11.65,0,0,1,14.75-7.32l24.54,8.25,6.54-19.43-24.54-8.25A32.17,32.17,0,0,0,30,306.08L1.68,390.28A32.19,32.19,0,0,0,21.9,431Z" transform="translate(0 -48.11)" style="fill:#f6f5f5"/><path d="M70.73,285.87l6,2A32.18,32.18,0,0,0,36,308.12L7.72,392.31A32.17,32.17,0,0,0,27.93,433l-6-2A32.19,32.19,0,0,1,1.68,390.28L30,306.08A32.17,32.17,0,0,1,70.73,285.87Z" transform="translate(0 -48.11)" style="fill:#f6f5f5"/><g style="opacity:0.2"><path d="M160.2,512.27l1.13.38a5.14,5.14,0,0,0,6.52-3.24l54.86-163a5.15,5.15,0,0,0-3.24-6.53l-1.13-.38a5.15,5.15,0,0,0-6.52,3.24L157,505.75A5.14,5.14,0,0,0,160.2,512.27Z" transform="translate(0 -48.11)" style="fill:#f6f5f5"/><path d="M95.73,490.58l1.13.38a5.14,5.14,0,0,0,6.52-3.24l54.86-163a5.16,5.16,0,0,0-3.24-6.52l-1.13-.38a5.14,5.14,0,0,0-6.52,3.24L92.49,484.06A5.14,5.14,0,0,0,95.73,490.58Z" transform="translate(0 -48.11)" style="fill:#f6f5f5"/></g><path d="M101.56,265.72a19.58,19.58,0,0,0,4.67,5,20,20,0,0,0-.86,2.07,18.48,18.48,0,0,0,31.49,18,16.28,16.28,0,0,0,31.52,5l.69.12a15.55,15.55,0,0,0,10.58,15.21,15.85,15.85,0,0,0,2,.51A15,15,0,0,0,209.91,321a17.18,17.18,0,0,0,2.59,1.13,17.36,17.36,0,0,0,13.47-1,17.33,17.33,0,0,0,29,13.19A16.92,16.92,0,0,0,283.39,322a28.54,28.54,0,0,0,18.29,1.52,16.49,16.49,0,0,0,6.94-3.44c16.88-14.2,11.74-36.48-4-43.88a15.65,15.65,0,0,0-7.09-13.08,13.36,13.36,0,0,0-9-10.77,13.74,13.74,0,0,0-3.54-.67,22.81,22.81,0,0,0-21.76-28.34,19.52,19.52,0,0,0-25.42-21.38,20,20,0,0,0-29.2-4.86,19.89,19.89,0,0,0-22-6.7,21.15,21.15,0,0,0-26.08,2.5A20,20,0,0,0,139.15,206a19.45,19.45,0,0,0-22.38,12.08,30.35,30.35,0,0,0-12.12.39,16.38,16.38,0,0,0-6.94,3.44C80.88,236.07,85.93,258.24,101.56,265.72Z" transform="translate(0 -48.11)" style="fill:#f6f5f5"/><path d="M146.68,261.63c.29.15.59.29.9.43-.3.27-.59.56-.87.85C146.72,262.48,146.71,262.05,146.68,261.63Z" transform="translate(0 -48.11)" style="fill:#e6e6e6"/><path d="M106.91,249.82a19.58,19.58,0,0,0,4.67,5,18,18,0,0,0-.86,2.07,18.48,18.48,0,0,0,31.49,18,16.27,16.27,0,0,0,31.52,5c.23,0,.46.09.69.12A15.55,15.55,0,0,0,185,295.17a16.15,16.15,0,0,0,2,.51,15,15,0,0,0,28.27,9.41,16.23,16.23,0,0,0,2.59,1.13,17.32,17.32,0,0,0,13.47-1,17.32,17.32,0,0,0,29,13.19,16.92,16.92,0,0,0,28.44-12.35A28.37,28.37,0,0,0,307,307.58a16.47,16.47,0,0,0,7-3.44,32.2,32.2,0,0,0,5.11-5.4c.08,7.37-3.09,15.1-10.46,21.3a16.49,16.49,0,0,1-6.94,3.44A28.54,28.54,0,0,1,283.39,322,16.91,16.91,0,0,1,255,334.31a17.33,17.33,0,0,1-29-13.19,17.36,17.36,0,0,1-13.47,1,17.18,17.18,0,0,1-2.59-1.13,15,15,0,0,1-28.26-9.41,15.85,15.85,0,0,1-2-.51,15.55,15.55,0,0,1-10.58-15.21l-.69-.12a16.28,16.28,0,0,1-31.52-5,18.48,18.48,0,0,1-31.49-18,20,20,0,0,1,.86-2.07,19.58,19.58,0,0,1-4.67-5c-13.76-6.58-19.31-24.55-9-38.4A25.24,25.24,0,0,0,106.91,249.82Z" transform="translate(0 -48.11)" style="fill:#e6e6e6"/><path d="M244.72,281.88a10.23,10.23,0,0,0,8.42-.86,13.89,13.89,0,0,0,21.43-15.41,13.89,13.89,0,0,1-15.76,21.21,13.47,13.47,0,0,1-3.75-1.94A10.23,10.23,0,0,1,240,278.55,10.12,10.12,0,0,0,244.72,281.88Z" transform="translate(0 -48.11)" style="fill:#e6e6e6"/><path d="M188.42,239.91a10.24,10.24,0,0,0,5.43,6.5,14.06,14.06,0,0,0,.5,4.19,13.88,13.88,0,0,0,24.26,5,13.89,13.89,0,0,1-26.88-5.39,10.22,10.22,0,0,1-3.2-16A10.25,10.25,0,0,0,188.42,239.91Z" transform="translate(0 -48.11)" style="fill:#e6e6e6"/><path d="M139.31,230.74a10.2,10.2,0,0,0,7.63,3.68,13.88,13.88,0,0,0,26.32-1.86,13.88,13.88,0,0,1-24.54,9.78,14.08,14.08,0,0,1-2.18-3.62,10.22,10.22,0,0,1-9.51-13.3A10.11,10.11,0,0,0,139.31,230.74Z" transform="translate(0 -48.11)" style="fill:#e6e6e6"/><path d="M215,225.42a9.7,9.7,0,0,0,8-.08,13.45,13.45,0,0,0,3.37,2.15,13.14,13.14,0,0,0,18.17-14.78,13.14,13.14,0,0,1-20.07,16.43,9.68,9.68,0,0,1-13.65-7.27A9.72,9.72,0,0,0,215,225.42Z" transform="translate(0 -48.11)" style="fill:#e6e6e6"/><path d="M256.6,166.39h0a7.92,7.92,0,1,0-8.25,9.31,10.39,10.39,0,0,0,.14,2.42,10.08,10.08,0,1,0,8.11-11.73Z" transform="translate(0 -48.11)" style="fill:#fff"/><path d="M261.54,183.74a10.08,10.08,0,0,1-11.73-8.11,9.87,9.87,0,0,1-.13-2.42,7.91,7.91,0,0,1-7.09-10.28,7.89,7.89,0,0,0,5.76,12.77,10.39,10.39,0,0,0,.14,2.42,10.08,10.08,0,0,0,19.4,1.62A10,10,0,0,1,261.54,183.74Z" transform="translate(0 -48.11)" style="fill:#e6e6e6"/><path d="M321,142.49a9.13,9.13,0,1,1-9.13-9.12A9.13,9.13,0,0,1,321,142.49Z" transform="translate(0 -48.11)" style="fill:#fff"/><path d="M314.09,148.27a9.12,9.12,0,0,1-9.12-9.12,9,9,0,0,1,.62-3.29,9.12,9.12,0,1,0,14.76,9.92A9.1,9.1,0,0,1,314.09,148.27Z" transform="translate(0 -48.11)" style="fill:#e6e6e6"/><path d="M277,131.48a9.13,9.13,0,1,1-9.12-9.13A9.12,9.12,0,0,1,277,131.48Z" transform="translate(0 -48.11)" style="fill:#fff"/><path d="M270.14,137.25a9.1,9.1,0,0,1-8.51-12.4,9.12,9.12,0,1,0,14.76,9.91A9.08,9.08,0,0,1,270.14,137.25Z" transform="translate(0 -48.11)" style="fill:#e6e6e6"/><path d="M131.33,178.9a9.13,9.13,0,1,1-9.12-9.13A9.12,9.12,0,0,1,131.33,178.9Z" transform="translate(0 -48.11)" style="fill:#fff"/><path d="M124.46,184.67a9.12,9.12,0,0,1-9.12-9.12,8.94,8.94,0,0,1,.62-3.28,9.11,9.11,0,1,0,14.75,9.91A9.08,9.08,0,0,1,124.46,184.67Z" transform="translate(0 -48.11)" style="fill:#e6e6e6"/><path d="M404.42,90.68a9.13,9.13,0,1,1-9.12-9.12A9.12,9.12,0,0,1,404.42,90.68Z" transform="translate(0 -48.11)" style="fill:#fff"/><path d="M397.55,96.46A9.11,9.11,0,0,1,389,84.05,9.12,9.12,0,1,0,403.8,94,9.08,9.08,0,0,1,397.55,96.46Z" transform="translate(0 -48.11)" style="fill:#e6e6e6"/><path d="M204.17,103.21a9.13,9.13,0,1,1-9.12-9.13A9.12,9.12,0,0,1,204.17,103.21Z" transform="translate(0 -48.11)" style="fill:#fff"/><path d="M197.3,109a9.12,9.12,0,0,1-8.51-12.4,9.12,9.12,0,1,0,14.76,9.91A9.08,9.08,0,0,1,197.3,109Z" transform="translate(0 -48.11)" style="fill:#e6e6e6"/><path d="M341.15,57.24A9.13,9.13,0,1,1,332,48.11,9.12,9.12,0,0,1,341.15,57.24Z" transform="translate(0 -48.11)" style="fill:#fff"/><path d="M334.28,63a9.12,9.12,0,0,1-8.51-12.4,9.12,9.12,0,1,0,14.76,9.91A9.08,9.08,0,0,1,334.28,63Z" transform="translate(0 -48.11)" style="fill:#e6e6e6"/><path d="M234,57.24a9.13,9.13,0,1,1-9.12-9.13A9.12,9.12,0,0,1,234,57.24Z" transform="translate(0 -48.11)" style="fill:#fff"/><path d="M227.13,63a9.1,9.1,0,0,1-8.51-12.4,9.12,9.12,0,1,0,14.76,9.91A9.08,9.08,0,0,1,227.13,63Z" transform="translate(0 -48.11)" style="fill:#e6e6e6"/><path d="M325.21,113.23a9.13,9.13,0,1,1-9.13-9.12A9.12,9.12,0,0,1,325.21,113.23Z" transform="translate(0 -48.11)" style="fill:#fff"/><path d="M318.34,119a9.1,9.1,0,0,1-8.51-12.4,9.12,9.12,0,1,0,14.76,9.91A9.1,9.1,0,0,1,318.34,119Z" transform="translate(0 -48.11)" style="fill:#e6e6e6"/><path d="M222.41,168.89a6.44,6.44,0,1,1-6.44-6.43A6.44,6.44,0,0,1,222.41,168.89Z" transform="translate(0 -48.11)" style="fill:#fff"/><path d="M217.56,173a6.44,6.44,0,0,1-6.44-6.44,6.33,6.33,0,0,1,.44-2.31,6.43,6.43,0,1,0,10.41,7A6.39,6.39,0,0,1,217.56,173Z" transform="translate(0 -48.11)" style="fill:#e6e6e6"/><path d="M265.2,103.21a6.44,6.44,0,1,1-6.44-6.44A6.43,6.43,0,0,1,265.2,103.21Z" transform="translate(0 -48.11)" style="fill:#fff"/><path d="M260.35,107.28a6.42,6.42,0,0,1-6-8.75,6.43,6.43,0,1,0,10.41,7A6.39,6.39,0,0,1,260.35,107.28Z" transform="translate(0 -48.11)" style="fill:#e6e6e6"/><path d="M189.79,152.07a10.55,10.55,0,1,1-10.55-10.55A10.55,10.55,0,0,1,189.79,152.07Z" transform="translate(0 -48.11)" style="fill:#fff"/><path d="M181.84,158.75a10.55,10.55,0,0,1-10.55-10.55,10.44,10.44,0,0,1,.72-3.8,10.55,10.55,0,1,0,17.07,11.47A10.52,10.52,0,0,1,181.84,158.75Z" transform="translate(0 -48.11)" style="fill:#e6e6e6"/></svg>