<svg id="Ebene_1" data-name="Ebene 1" xmlns="http://www.w3.org/2000/svg" viewBox="0 0 600 443.17"><path d="M362,445.44H238.05s-15.76,61.3-21.89,67.43H383.84C377.71,506.74,362,445.44,362,445.44Z" transform="translate(0 -78.42)" style="fill:#ccc"/><path d="M405.51,515.26c0,3.49-1.37,6.32-3.06,6.32H197.55c-1.69,0-3.07-2.83-3.07-6.32h0c0-3.49,1.38-6.32,3.07-6.32h204.9c1.69,0,3.06,2.83,3.06,6.32Z" transform="translate(0 -78.42)" style="fill:#e6e6e6"/><path d="M0,409v35.66c0,9.59,12.49,17.43,27.19,17.43H572.72c14.7,0,27.28-7.84,27.28-17.43V409Z" transform="translate(0 -78.42)" style="fill:#e6e6e6"/><path d="M600,108.9c0-17.34-12.58-30.48-27.28-30.48H27.19C12.49,78.42,0,91.56,0,108.9V409H600Z" transform="translate(0 -78.42)" style="fill:#4d4d4d"/><path d="M575.26,126c0-15.13-11.38-26.76-24.88-26.76H49.5C36,99.2,24.74,110.83,24.74,126V387.27H575.26Z" transform="translate(0 -78.42)" style="fill:#f6f6f6"/><circle cx="301.13" cy="360.99" r="14.14" style="fill:#4d4d4d"/><rect x="201.66" y="207.9" width="36.73" height="64.15" style="fill:#89e7d5"/><rect x="254.98" y="185.43" width="36.73" height="86.62" style="fill:#7ed5c5"/><rect x="308.29" y="161.07" width="36.73" height="110.98" style="fill:#6cb6a8"/><rect x="361.61" y="120.86" width="36.73" height="151.19" style="fill:#5d9c90"/><polygon points="214.29 185.82 212.89 180.97 272.25 163.74 325.02 127.91 378.46 87.84 381.49 91.88 327.9 132.06 274.43 168.38 214.29 185.82" style="fill:#e6e6e6"/><path d="M231.11,261.81A11.09,11.09,0,1,1,220,250.73,11.09,11.09,0,0,1,231.11,261.81Z" transform="translate(0 -78.42)" style="fill:#e6e6e6"/><path d="M226.46,261.81a6.44,6.44,0,1,1-6.44-6.44A6.43,6.43,0,0,1,226.46,261.81Z" transform="translate(0 -78.42)" style="fill:#89e7d5"/><path d="M284.42,241.6a11.08,11.08,0,1,1-11.08-11.09A11.08,11.08,0,0,1,284.42,241.6Z" transform="translate(0 -78.42)" style="fill:#e6e6e6"/><path d="M279.78,241.6a6.44,6.44,0,1,1-6.44-6.44A6.43,6.43,0,0,1,279.78,241.6Z" transform="translate(0 -78.42)" style="fill:#7ed5c5"/><path d="M337.57,208.39a11.09,11.09,0,1,1-11.09-11.09A11.08,11.08,0,0,1,337.57,208.39Z" transform="translate(0 -78.42)" style="fill:#e6e6e6"/><path d="M332.92,208.39a6.44,6.44,0,1,1-6.44-6.44A6.43,6.43,0,0,1,332.92,208.39Z" transform="translate(0 -78.42)" style="fill:#6cb6a8"/><path d="M391.06,169A11.09,11.09,0,1,1,380,157.87,11.08,11.08,0,0,1,391.06,169Z" transform="translate(0 -78.42)" style="fill:#e6e6e6"/><path d="M386.41,169a6.44,6.44,0,1,1-6.43-6.43A6.44,6.44,0,0,1,386.41,169Z" transform="translate(0 -78.42)" style="fill:#5d9c90"/><rect x="46.98" y="125.63" width="117.62" height="19.43" style="fill:#ccc"/><rect x="46.98" y="85.23" width="117.62" height="19.43" style="fill:#ccc"/><rect x="46.98" y="166.03" width="117.62" height="19.43" style="fill:#ccc"/><rect x="46.98" y="206.44" width="117.62" height="19.43" style="fill:#ccc"/><rect x="46.98" y="246.84" width="117.62" height="19.43" style="fill:#ccc"/><rect x="435.4" y="125.63" width="117.62" height="19.43" style="fill:#ccc"/><rect x="435.4" y="85.23" width="117.62" height="19.43" style="fill:#ccc"/><rect x="435.4" y="166.03" width="117.62" height="19.43" style="fill:#ccc"/><rect x="435.4" y="206.44" width="117.62" height="19.43" style="fill:#ccc"/><rect x="435.4" y="246.84" width="117.62" height="19.43" style="fill:#ccc"/></svg>