<svg id="Ebene_1" data-name="Ebene 1" xmlns="http://www.w3.org/2000/svg" viewBox="0 0 600 528.65"><path d="M300,564.32H34.1C7.89,564.32-8.49,536,4.61,513.25L137.57,283l133-230.28c13.09-22.7,45.87-22.7,59,0L462.43,283l133,230.27c13.1,22.71-3.28,51.07-29.49,51.07Z" transform="translate(0 -35.68)" style="fill:#ffe882"/><path d="M511.77,533.58H88.25a34.57,34.57,0,0,1-29.93-51.84L270.08,115a34.54,34.54,0,0,1,59.84,0L541.68,481.74a34.56,34.56,0,0,1-29.91,51.84ZM300,126.21a5.84,5.84,0,0,0-5.21,3L83,496a6,6,0,0,0,5.23,9H511.77a6,6,0,0,0,5.2-9L305.22,129.22A5.89,5.89,0,0,0,300,126.21Z" transform="translate(0 -35.68)" style="fill:#444c5c"/><polygon points="274.96 323.04 361.38 211.59 288.14 219.52 221.43 353.28 289.88 345.88 249.14 445.81 359.16 312.15 274.96 323.04" style="fill:#444c5c"/></svg>