<svg xmlns="http://www.w3.org/2000/svg" viewBox="0 0 601.08 420.5"><g style="isolation:isolate"><g id="Ebene_1" data-name="Ebene 1"><path d="M.11,124.89h13a0,0,0,0,1,0,0v4.69a0,0,0,0,1,0,0H.11a.11.11,0,0,1-.11-.11V125a.11.11,0,0,1,.11-.11Z" style="fill:#5d9c90"/><path d="M5.27,134.05h13a0,0,0,0,1,0,0v4.69a0,0,0,0,1,0,0h-13a.11.11,0,0,1-.11-.11v-4.48A.11.11,0,0,1,5.27,134.05Z" style="fill:#6cb6a8"/><path d="M8.58,142.79h13a0,0,0,0,1,0,0v4.69a0,0,0,0,1,0,0h-13a.11.11,0,0,1-.11-.11v-4.48A.11.11,0,0,1,8.58,142.79Z" style="fill:#89e7d5"/><path d="M345.23,89.75l101.82,60.13c5.3,3.44,1.92,9.71-3.79,9.71L57.84,151.28,25.08,107.76Z" transform="translate(0 -89.75)" style="fill:#5d9c90"/><polygon points="341.89 85.51 338.57 2.64 423.33 52.73 420.3 113.09 341.89 85.51" style="fill:#e6e6e6"/><path d="M344.7,170.61l88,34.17c4.59,1.78,3.33,7.64-1.59,7.41l-362.53-17L23.9,170.61Z" transform="translate(0 -89.75)" style="fill:#5d9c90"/><polygon points="345.23 0 23.69 18.07 23.9 80.86 344.7 80.86 345.23 0" style="fill:#6cb6a8"/><polygon points="37.16 73.51 37 27.55 241.46 14.39 241.65 72.46 37.16 73.51" style="fill:#efefef;stroke:#f6f6f6;stroke-miterlimit:10"/><rect x="36.77" y="346.85" width="375.91" height="73.65" style="fill:#7ed5c5"/><rect x="13.11" y="263.89" width="375.91" height="87.7" style="fill:#5d9c90"/><rect x="21.59" y="175.63" width="375.91" height="87.7" style="fill:#7ed5c5"/><rect x="30.06" y="145.13" width="375.91" height="30.16" style="fill:#ddc5a8"/><rect x="13.11" y="121.32" width="375.91" height="30.16" style="fill:#ddc5a8"/><path d="M400.3,195.92H24.38a31.52,31.52,0,0,0,0-15.08h0l375.92,7.54Z" transform="translate(0 -89.75)" style="fill:#f6f6f6"/><path d="M407.23,211H31.31a23.73,23.73,0,0,0,0-15.08H407.23Z" transform="translate(0 -89.75)" style="fill:#e6e6e6"/><rect x="39.89" y="277.42" width="233.39" height="60.64" style="fill:#efefef"/><ellipse cx="352.12" cy="379.45" rx="18.44" ry="18.94" style="fill:#4d4d4d"/><path d="M352.12,489.06c-10.66,0-19.33-8.91-19.33-19.86s8.67-19.86,19.33-19.86,19.34,8.91,19.34,19.86S362.78,489.06,352.12,489.06Zm0-37.89a18,18,0,1,0,17.55,18A17.81,17.81,0,0,0,352.12,451.17Z" transform="translate(0 -89.75)" style="fill:#f6f6f6"/><ellipse cx="344.39" cy="308.49" rx="18.44" ry="18.94" style="fill:#4d4d4d"/><path d="M344.39,418.1c-10.67,0-19.34-8.91-19.34-19.86s8.67-19.87,19.34-19.87,19.33,8.91,19.33,19.87S355.05,418.1,344.39,418.1Zm0-37.89a18,18,0,1,0,17.54,18A17.81,17.81,0,0,0,344.39,380.21Z" transform="translate(0 -89.75)" style="fill:#f6f6f6"/><ellipse cx="341.97" cy="228.87" rx="18.44" ry="18.94" style="fill:#4d4d4d"/><path d="M342,338.48c-10.66,0-19.34-8.91-19.34-19.86s8.68-19.86,19.34-19.86,19.33,8.91,19.33,19.86S352.63,338.48,342,338.48Zm0-37.88a18,18,0,1,0,17.54,18A17.81,17.81,0,0,0,342,300.6Z" transform="translate(0 -89.75)" style="fill:#f6f6f6"/><ellipse cx="292.61" cy="40.43" rx="18.44" ry="18.94" style="fill:#4d4d4d"/><path d="M292.61,150c-10.66,0-19.33-8.91-19.33-19.86s8.67-19.86,19.33-19.86S312,119.23,312,130.18,303.27,150,292.61,150Zm0-37.89a18,18,0,1,0,17.55,18A17.81,17.81,0,0,0,292.61,112.15Z" transform="translate(0 -89.75)" style="fill:#e6e6e6"/><path d="M299.4,315.81s120.07,70.28,200-50L600,329.7S448.94,393,437.37,389C351.81,359.48,299.4,315.81,299.4,315.81Z" transform="translate(0 -89.75)" style="fill:#f6f6f6;stroke:#f6f6f6;stroke-miterlimit:10"/><path d="M345.23,143s22.14,10.13,82.39-20.62l64.53,25.22s-66.27,37-72.51,34.85C373.49,166.56,345.23,143,345.23,143Z" transform="translate(0 -89.75)" style="fill:#efefef"/><path d="M74.93,182.47c-8.29-1.7-16.64-3.11-25-4.33C42,177,33.88,176.48,26,175l14.39,2.72L17,172.84a38.77,38.77,0,0,0,11.44,5.52s0,.08,0,.08l-11.58-.74a0,0,0,0,0,0,.09c9.15,5.1,15.55,4.77,15.55,4.77l39.42-.76Z" transform="translate(0 -89.75)" style="fill:#f6f6f6"/><polygon points="386.66 83.46 435.57 101.66 435.57 103.46 343.75 73.51 386.66 83.46" style="fill:#efefef"/><path d="M143.83,211s171.73,83.16,177.86,113.89l48-40.06S216.15,211.61,143.83,211Z" transform="translate(0 -89.75)" style="opacity:0.2;mix-blend-mode:multiply"/><path d="M376.18,311.44h0a438.35,438.35,0,0,0-139.84-74L143.83,211H487.58Z" transform="translate(0 -89.75)" style="fill:#f6f6f6"/><path d="M45.86,286.39v14.26a13.39,13.39,0,0,1,0,25.48v15.63h75.41V286.39Z" transform="translate(0 -89.75)" style="fill:#f6f6f6"/><rect x="102.78" y="201.01" width="1.81" height="46.33" style="fill:gray"/><rect x="108.32" y="201.01" width="8.48" height="46.33" style="fill:#4d4d4d"/><rect x="61.85" y="357.65" width="216.94" height="43.59" style="fill:#efefef"/></g></g></svg>