<svg xmlns="http://www.w3.org/2000/svg" viewBox="0 0 472.95 600"><g style="isolation:isolate"><g id="Ebene_1" data-name="Ebene 1"><path d="M250.25,143.54,71.89,515.68a17.23,17.23,0,0,0,8.09,23L204.41,598.3a17.22,17.22,0,0,0,23-8.09L405.76,218.08Z" transform="translate(-63.52)" style="fill:#7d8ba8"/><g style="mix-blend-mode:multiply"><rect x="224.81" y="212.82" width="172.45" height="6.81" transform="translate(60.49 -113.19) rotate(25.61)" style="fill:#7d8ba8"/></g><path d="M395.53,257.06,226.27,175.94a3.71,3.71,0,0,1,3.21-6.7l169.26,81.12a3.71,3.71,0,1,1-3.21,6.7Z" transform="translate(-63.52)" style="fill:#99abce"/><g style="mix-blend-mode:multiply"><rect x="218.38" y="226.22" width="172.45" height="6.81" transform="translate(65.65 -109.1) rotate(25.61)" style="fill:#7d8ba8"/></g><path d="M389.1,270.47,219.85,189.35a3.72,3.72,0,1,1,3.21-6.71l169.26,81.13a3.72,3.72,0,0,1-3.22,6.7Z" transform="translate(-63.52)" style="fill:#99abce"/><g style="mix-blend-mode:multiply"><rect x="211.96" y="239.63" width="172.45" height="6.81" transform="translate(70.81 -105.01) rotate(25.61)" style="fill:#7d8ba8"/></g><path d="M382.68,283.88,213.42,202.75a3.71,3.71,0,0,1,3.21-6.7l169.26,81.12a3.72,3.72,0,0,1-3.21,6.71Z" transform="translate(-63.52)" style="fill:#99abce"/><g style="mix-blend-mode:multiply"><rect x="205.53" y="253.04" width="172.45" height="6.81" transform="translate(75.98 -100.91) rotate(25.61)" style="fill:#7d8ba8"/></g><path d="M376.25,297.28,207,216.16a3.72,3.72,0,1,1,3.21-6.71l169.25,81.13a3.71,3.71,0,1,1-3.21,6.7Z" transform="translate(-63.52)" style="fill:#99abce"/><g style="mix-blend-mode:multiply"><rect x="199.11" y="266.44" width="172.45" height="6.81" transform="translate(81.14 -96.82) rotate(25.61)" style="fill:#7d8ba8"/></g><path d="M369.83,310.69,200.57,229.56a3.71,3.71,0,1,1,3.21-6.7L373,304a3.71,3.71,0,0,1-3.21,6.7Z" transform="translate(-63.52)" style="fill:#99abce"/><g style="mix-blend-mode:multiply"><rect x="192.68" y="279.85" width="172.45" height="6.81" transform="translate(86.3 -92.72) rotate(25.61)" style="fill:#7d8ba8"/></g><path d="M363.4,324.09,194.14,243a3.72,3.72,0,1,1,3.22-6.7l169.25,81.12a3.71,3.71,0,1,1-3.21,6.7Z" transform="translate(-63.52)" style="fill:#99abce"/><g style="mix-blend-mode:multiply"><rect x="186.26" y="293.25" width="172.45" height="6.81" transform="translate(91.46 -88.63) rotate(25.61)" style="fill:#7d8ba8"/></g><path d="M357,337.5,187.72,256.38a3.72,3.72,0,1,1,3.21-6.71L360.19,330.8a3.71,3.71,0,0,1-3.21,6.7Z" transform="translate(-63.52)" style="fill:#99abce"/><g style="mix-blend-mode:multiply"><rect x="179.83" y="306.66" width="172.45" height="6.81" transform="translate(96.63 -84.53) rotate(25.61)" style="fill:#7d8ba8"/></g><path d="M350.55,350.91,181.29,269.78a3.72,3.72,0,1,1,3.22-6.7L353.76,344.2a3.72,3.72,0,0,1-3.21,6.71Z" transform="translate(-63.52)" style="fill:#99abce"/><g style="mix-blend-mode:multiply"><rect x="173.41" y="320.07" width="172.45" height="6.81" transform="translate(101.79 -80.44) rotate(25.61)" style="fill:#7d8ba8"/></g><path d="M344.12,364.31,174.87,283.19a3.72,3.72,0,1,1,3.21-6.71l169.26,81.13a3.72,3.72,0,0,1-3.22,6.7Z" transform="translate(-63.52)" style="fill:#99abce"/><g style="mix-blend-mode:multiply"><rect x="166.98" y="333.47" width="172.45" height="6.81" transform="translate(106.95 -76.35) rotate(25.61)" style="fill:#7d8ba8"/></g><path d="M337.7,377.72,168.44,296.59a3.72,3.72,0,0,1,3.22-6.7L340.91,371a3.71,3.71,0,1,1-3.21,6.7Z" transform="translate(-63.52)" style="fill:#99abce"/><g style="mix-blend-mode:multiply"><rect x="160.55" y="346.88" width="172.45" height="6.81" transform="translate(112.12 -72.25) rotate(25.61)" style="fill:#7d8ba8"/></g><path d="M331.27,391.12,162,310a3.71,3.71,0,1,1,3.21-6.7l169.26,81.12a3.72,3.72,0,0,1-3.22,6.7Z" transform="translate(-63.52)" style="fill:#99abce"/><g style="mix-blend-mode:multiply"><rect x="154.13" y="360.28" width="172.45" height="6.81" transform="translate(117.28 -68.16) rotate(25.61)" style="fill:#7d8ba8"/></g><path d="M324.85,404.53,155.59,323.41a3.72,3.72,0,0,1,3.21-6.71l169.26,81.13a3.71,3.71,0,1,1-3.21,6.7Z" transform="translate(-63.52)" style="fill:#99abce"/><g style="mix-blend-mode:multiply"><rect x="147.7" y="373.69" width="172.45" height="6.81" transform="translate(122.44 -64.06) rotate(25.61)" style="fill:#7d8ba8"/></g><path d="M318.42,417.94,149.17,336.81a3.71,3.71,0,1,1,3.21-6.7l169.26,81.12a3.72,3.72,0,0,1-3.22,6.71Z" transform="translate(-63.52)" style="fill:#99abce"/><g style="mix-blend-mode:multiply"><rect x="141.28" y="387.1" width="172.45" height="6.81" transform="translate(127.61 -59.97) rotate(25.61)" style="fill:#7d8ba8"/></g><path d="M312,431.34,142.74,350.22a3.72,3.72,0,0,1,3.21-6.71l169.26,81.13a3.71,3.71,0,1,1-3.21,6.7Z" transform="translate(-63.52)" style="fill:#99abce"/><g style="mix-blend-mode:multiply"><rect x="134.85" y="400.5" width="172.45" height="6.81" transform="translate(132.77 -55.88) rotate(25.61)" style="fill:#7d8ba8"/></g><path d="M305.57,444.75,136.32,363.62a3.71,3.71,0,1,1,3.21-6.7L308.78,438a3.72,3.72,0,1,1-3.21,6.71Z" transform="translate(-63.52)" style="fill:#99abce"/><g style="mix-blend-mode:multiply"><rect x="128.43" y="413.91" width="172.45" height="6.81" transform="translate(137.93 -51.78) rotate(25.61)" style="fill:#7d8ba8"/></g><path d="M299.15,458.15,129.89,377a3.71,3.71,0,1,1,3.21-6.7l169.26,81.12a3.71,3.71,0,0,1-3.21,6.7Z" transform="translate(-63.52)" style="fill:#99abce"/><g style="mix-blend-mode:multiply"><rect x="122" y="427.31" width="172.45" height="6.81" transform="translate(143.1 -47.69) rotate(25.61)" style="fill:#7d8ba8"/></g><path d="M292.72,471.56,123.46,390.44a3.72,3.72,0,0,1,3.22-6.71l169.25,81.13a3.71,3.71,0,1,1-3.21,6.7Z" transform="translate(-63.52)" style="fill:#99abce"/><g style="mix-blend-mode:multiply"><rect x="115.58" y="440.72" width="172.45" height="6.81" transform="translate(148.26 -43.59) rotate(25.61)" style="fill:#7d8ba8"/></g><path d="M286.3,485,117,403.84a3.71,3.71,0,1,1,3.21-6.7l169.26,81.12A3.72,3.72,0,0,1,286.3,485Z" transform="translate(-63.52)" style="fill:#99abce"/><g style="mix-blend-mode:multiply"><rect x="109.15" y="454.13" width="172.45" height="6.81" transform="translate(153.42 -39.5) rotate(25.61)" style="fill:#7d8ba8"/></g><path d="M279.87,498.37,110.61,417.25a3.72,3.72,0,0,1,3.22-6.71l169.25,81.13a3.71,3.71,0,1,1-3.21,6.7Z" transform="translate(-63.52)" style="fill:#99abce"/><g style="mix-blend-mode:multiply"><rect x="102.73" y="467.53" width="172.45" height="6.81" transform="translate(158.59 -35.41) rotate(25.61)" style="fill:#7d8ba8"/></g><path d="M273.44,511.78,104.19,430.65a3.71,3.71,0,1,1,3.21-6.7l169.26,81.12a3.72,3.72,0,0,1-3.22,6.71Z" transform="translate(-63.52)" style="fill:#99abce"/><g style="mix-blend-mode:multiply"><rect x="96.3" y="480.94" width="172.45" height="6.81" transform="translate(163.75 -31.31) rotate(25.61)" style="fill:#7d8ba8"/></g><path d="M267,525.18,97.76,444.06a3.71,3.71,0,0,1,3.21-6.7l169.26,81.12a3.71,3.71,0,1,1-3.21,6.7Z" transform="translate(-63.52)" style="fill:#99abce"/><g style="mix-blend-mode:multiply"><rect x="89.87" y="494.34" width="172.45" height="6.81" transform="translate(168.91 -27.22) rotate(25.61)" style="fill:#7d8ba8"/></g><path d="M260.59,538.59,91.34,457.46a3.71,3.71,0,1,1,3.21-6.7l169.26,81.13a3.72,3.72,0,0,1-3.22,6.7Z" transform="translate(-63.52)" style="fill:#99abce"/><g style="mix-blend-mode:multiply"><rect x="83.45" y="507.75" width="172.45" height="6.81" transform="translate(174.07 -23.12) rotate(25.61)" style="fill:#7d8ba8"/></g><path d="M254.17,552,84.91,470.87a3.71,3.71,0,0,1,3.21-6.7l169.26,81.12a3.72,3.72,0,1,1-3.21,6.71Z" transform="translate(-63.52)" style="fill:#99abce"/><g style="mix-blend-mode:multiply"><rect x="77.02" y="521.15" width="172.45" height="6.81" transform="translate(179.24 -19.03) rotate(25.61)" style="fill:#7d8ba8"/></g><path d="M247.74,565.4,78.49,484.28a3.72,3.72,0,1,1,3.21-6.71L251,558.7a3.72,3.72,0,0,1-3.22,6.7Z" transform="translate(-63.52)" style="fill:#99abce"/><g style="mix-blend-mode:multiply"><rect x="70.6" y="534.56" width="172.45" height="6.81" transform="translate(184.4 -14.94) rotate(25.61)" style="fill:#7d8ba8"/></g><path d="M241.32,578.81,72.06,497.68a3.71,3.71,0,0,1,3.21-6.7L244.53,572.1a3.72,3.72,0,1,1-3.21,6.71Z" transform="translate(-63.52)" style="fill:#99abce"/><g style="mix-blend-mode:multiply"><rect x="64.17" y="547.97" width="172.45" height="6.81" transform="translate(189.56 -10.84) rotate(25.61)" style="fill:#7d8ba8"/></g><path d="M234.89,592.21,65.63,511.09a3.72,3.72,0,1,1,3.22-6.7L238.1,585.51a3.71,3.71,0,1,1-3.21,6.7Z" transform="translate(-63.52)" style="fill:#99abce"/><g style="opacity:0.2"><path d="M225.29,195.63c32.87,23.91,80,63.2,132.52,122.49l47.95-100L250.25,143.54Z" transform="translate(-63.52)" style="fill:#202020"/></g><polygon points="467.17 144.33 166.04 0 149.5 5.83 97.06 115.23 102.88 131.78 404.01 276.11 420.44 270.33 472.95 160.75 467.17 144.33" style="fill:#99abce"/><polygon points="414.1 261.84 462.37 161.13 457.88 148.38 417.83 129.18 404.96 133.71 356.76 234.27 361.29 247.13 401.35 266.33 414.1 261.84" style="fill:#7d8ba8"/><polygon points="349.86 231.05 398.13 130.34 393.65 117.59 273.15 59.84 260.29 64.37 212.09 164.93 216.62 177.79 337.11 235.54 349.86 231.05" style="fill:#7d8ba8"/><polygon points="205.19 161.71 253.46 61 248.97 48.25 168.7 9.77 155.83 14.3 107.64 114.86 112.16 127.73 192.44 166.2 205.19 161.71" style="fill:#7d8ba8"/><g style="opacity:0.2;mix-blend-mode:multiply"><path d="M336.68,59.84l-12.87,4.53-32.09,66.94c98.65,26.79,131-9.18,168.53,2l1.41-2.94-4.49-12.75Z" transform="translate(-63.52)" style="fill:#202020"/></g><g style="opacity:0.2;mix-blend-mode:multiply"><path d="M481.35,129.18l-12.87,4.53L420.29,234.27l4.34,12.33C459,205,496.38,182.65,521,171.43l4.93-10.3-4.48-12.75Z" transform="translate(-63.52)" style="fill:#202020"/></g><g style="opacity:0.2;mix-blend-mode:multiply"><path d="M231.78,17.81l-7.05,2.48-43.92,91.64c34.56-14.47,77.27-17.05,111.19-16L309,60.57l-2.44-7Z" transform="translate(-63.52)" style="fill:#202020"/></g></g></g></svg>