<svg id="Ebene_1" data-name="Ebene 1" xmlns="http://www.w3.org/2000/svg" viewBox="0 0 600 489.32"><path d="M590.53,450.17v18.88a6.41,6.41,0,0,1-1.49,4.07,8.59,8.59,0,0,1-4.07,2.72,9.11,9.11,0,0,1-1.58.38,9.59,9.59,0,0,1-1.53.11H223.72c-4.32,0-7.94-2.69-8.58-6.19a5.71,5.71,0,0,1-.08-.71V449.8a5.16,5.16,0,0,1,.08-.7c.64-3.5,4.26-6.19,8.58-6.19H581.86a10.92,10.92,0,0,1,1.53.1,9.11,9.11,0,0,1,1.58.38,8.54,8.54,0,0,1,4.07,2.73A6.4,6.4,0,0,1,590.53,450.17Z" transform="translate(0 -55.34)" style="fill:#ffe882"/><path d="M414.66,476.33H222.8a7.67,7.67,0,0,1-7.45-5.39,7.23,7.23,0,0,1-.21-.8,5.71,5.71,0,0,1-.08-.71V449.8a5.16,5.16,0,0,1,.08-.7,7.23,7.23,0,0,1,.21-.8,7.67,7.67,0,0,1,7.45-5.39H391.1A58.56,58.56,0,0,0,414.66,476.33Z" transform="translate(0 -55.34)" style="fill:#ebda8a"/><rect x="542.88" y="387.56" width="4.07" height="33.43" style="fill:#ebda8a"/><rect x="529.1" y="387.56" width="4.07" height="33.43" style="fill:#ebda8a"/><rect x="512.57" y="387.56" width="4.07" height="33.43" style="fill:#ebda8a"/><rect x="487.25" y="387.56" width="4.07" height="33.43" style="fill:#ebda8a"/><rect x="460.47" y="387.56" width="4.07" height="33.43" style="fill:#ebda8a"/><rect x="419.41" y="387.56" width="4.07" height="33.43" style="fill:#ebda8a"/><rect x="380.97" y="387.56" width="4.07" height="33.43" style="fill:#ebda8a"/><rect x="346.64" y="387.56" width="4.07" height="33.43" style="fill:#ebda8a"/><rect x="555.99" y="387.56" width="4.07" height="33.43" style="fill:#ebda8a"/><rect x="564.66" y="387.56" width="4.07" height="33.43" style="fill:#ebda8a"/><rect x="573.02" y="387.56" width="4.07" height="33.43" style="fill:#ebda8a"/><path d="M583.39,443v33.2a9.67,9.67,0,0,1-1.53.12h-2.54V442.9h2.54A9.67,9.67,0,0,1,583.39,443Z" transform="translate(0 -55.34)" style="fill:#ebda8a"/><path d="M589,446.12v27a8.66,8.66,0,0,1-4.07,2.73V443.39A8.58,8.58,0,0,1,589,446.12Z" transform="translate(0 -55.34)" style="fill:#ebda8a"/><path d="M552.23,416.75v18.88a6.39,6.39,0,0,1-1.48,4.05,8.53,8.53,0,0,1-4.06,2.73,9.56,9.56,0,0,1-1.6.38c-.25,0-.49.06-.75.08a6.62,6.62,0,0,1-.77,0H185.43c-4.32,0-7.94-2.71-8.57-6.2a4.31,4.31,0,0,1-.09-.71c0-.13,0-.25,0-.37V416.75c0-.13,0-.26,0-.38a4.06,4.06,0,0,1,.09-.7c.63-3.5,4.25-6.2,8.57-6.2H543.57l.69,0,.24,0h0l.33,0,.22,0a9.54,9.54,0,0,1,1.6.37l.22.07.22.08.17.07.26.11a1.92,1.92,0,0,1,.25.12l.07,0,.15.07a4.23,4.23,0,0,1,.41.23,7.58,7.58,0,0,1,1,.69,3,3,0,0,1,.42.35,7.38,7.38,0,0,1,.87.9A6.42,6.42,0,0,1,552.23,416.75Z" transform="translate(0 -55.34)" style="fill:#ffe882"/><path d="M376.37,442.91H184.51a7.67,7.67,0,0,1-7.45-5.41,5.38,5.38,0,0,1-.2-.79,4.31,4.31,0,0,1-.09-.71c0-.13,0-.25,0-.37V416.75c0-.13,0-.26,0-.38a4.06,4.06,0,0,1,.09-.7,5.51,5.51,0,0,1,.2-.8,7.66,7.66,0,0,1,7.45-5.4H352.8c.08.27.15.55.23.82a61.41,61.41,0,0,0,7.8,16.94A57.22,57.22,0,0,0,376.37,442.91Z" transform="translate(0 -55.34)" style="fill:#ebda8a"/><rect x="504.58" y="354.13" width="4.07" height="33.43" style="fill:#ebda8a"/><rect x="490.81" y="354.13" width="4.07" height="33.43" style="fill:#ebda8a"/><rect x="474.28" y="354.13" width="4.07" height="33.43" style="fill:#ebda8a"/><rect x="448.96" y="354.13" width="4.07" height="33.43" style="fill:#ebda8a"/><rect x="422.18" y="354.13" width="4.07" height="33.43" style="fill:#ebda8a"/><rect x="381.12" y="354.13" width="4.07" height="33.43" style="fill:#ebda8a"/><rect x="342.68" y="354.13" width="4.07" height="33.43" style="fill:#ebda8a"/><rect x="308.35" y="354.13" width="4.07" height="33.43" style="fill:#ebda8a"/><rect x="517.7" y="354.13" width="4.07" height="33.43" style="fill:#ebda8a"/><rect x="526.36" y="354.13" width="4.07" height="33.43" style="fill:#ebda8a"/><rect x="534.73" y="354.13" width="4.07" height="33.43" style="fill:#ebda8a"/><path d="M545.1,409.58v33.2a9.67,9.67,0,0,1-1.53.12H541V409.47h2.54A11,11,0,0,1,545.1,409.58Z" transform="translate(0 -55.34)" style="fill:#ebda8a"/><path d="M550.75,412.68v27a8.69,8.69,0,0,1-4.07,2.72V410A8.69,8.69,0,0,1,550.75,412.68Z" transform="translate(0 -55.34)" style="fill:#ebda8a"/><path d="M570.74,384.13V403a6.42,6.42,0,0,1-1.48,4.07,8.79,8.79,0,0,1-4.07,2.72,9.2,9.2,0,0,1-1.59.37,9.58,9.58,0,0,1-1.53.12H203.94a9.9,9.9,0,0,1-4-.82,7.44,7.44,0,0,1-4.63-5.75,1.84,1.84,0,0,1,0-.33c0-.12,0-.25,0-.38V384.13c0-.12,0-.25,0-.37a4.29,4.29,0,0,1,.08-.71c.63-3.49,4.26-6.2,8.58-6.2H562.07a10.9,10.9,0,0,1,1.53.12,10.23,10.23,0,0,1,1.59.37,8.68,8.68,0,0,1,4.07,2.74A6.39,6.39,0,0,1,570.74,384.13Z" transform="translate(0 -55.34)" style="fill:#ffe882"/><path d="M394.87,410.29H203a8,8,0,0,1-3.56-.82,7.31,7.31,0,0,1-4.13-5.75,1.84,1.84,0,0,1,0-.33c0-.12,0-.25,0-.38V384.13c0-.12,0-.25,0-.37a4.29,4.29,0,0,1,.08-.71,5.41,5.41,0,0,1,.21-.79,7.67,7.67,0,0,1,7.43-5.41H371.32a61.14,61.14,0,0,0,5.19,13.06,57.2,57.2,0,0,0,17.18,19.56Z" transform="translate(0 -55.34)" style="fill:#ebda8a"/><rect x="523.09" y="321.52" width="4.07" height="33.43" style="fill:#ebda8a"/><rect x="509.31" y="321.52" width="4.07" height="33.43" style="fill:#ebda8a"/><rect x="492.79" y="321.52" width="4.07" height="33.43" style="fill:#ebda8a"/><rect x="467.46" y="321.52" width="4.07" height="33.43" style="fill:#ebda8a"/><rect x="440.68" y="321.52" width="4.07" height="33.43" style="fill:#ebda8a"/><rect x="399.62" y="321.52" width="4.07" height="33.43" style="fill:#ebda8a"/><rect x="361.18" y="321.52" width="4.07" height="33.43" style="fill:#ebda8a"/><rect x="326.86" y="321.52" width="4.07" height="33.43" style="fill:#ebda8a"/><rect x="536.2" y="321.52" width="4.07" height="33.43" style="fill:#ebda8a"/><rect x="544.87" y="321.52" width="4.07" height="33.43" style="fill:#ebda8a"/><rect x="553.24" y="321.52" width="4.07" height="33.43" style="fill:#ebda8a"/><path d="M563.6,377v33.2a9.58,9.58,0,0,1-1.53.12h-2.54V376.86h2.54A10.91,10.91,0,0,1,563.6,377Z" transform="translate(0 -55.34)" style="fill:#ebda8a"/><path d="M569.25,380.07v27a8.61,8.61,0,0,1-4.06,2.72V377.35A8.61,8.61,0,0,1,569.25,380.07Z" transform="translate(0 -55.34)" style="fill:#ebda8a"/><path d="M579.31,350.7v18.89a6.39,6.39,0,0,1-1.48,4.05,7.48,7.48,0,0,1-.82.87,8.82,8.82,0,0,1-3.24,1.86,10.52,10.52,0,0,1-1.59.38l-.75.08-.78,0H212.52c-4.33,0-8-2.69-8.58-6.19a4,4,0,0,1-.08-.7c0-.13,0-.26,0-.37V350.7c0-.12,0-.25,0-.37a4.76,4.76,0,0,1,.07-.66c.55-3.24,3.68-5.8,7.56-6.2.34,0,.68,0,1,0H570.65a9.67,9.67,0,0,1,1.53.11,9.44,9.44,0,0,1,1.59.38,8.63,8.63,0,0,1,4.06,2.72A6.39,6.39,0,0,1,579.31,350.7Z" transform="translate(0 -55.34)" style="fill:#ffe882"/><path d="M403.45,376.85H211.58a7.66,7.66,0,0,1-7.43-5.39,5.54,5.54,0,0,1-.21-.8,4,4,0,0,1-.08-.7c0-.13,0-.26,0-.37V350.7c0-.12,0-.25,0-.37a4.76,4.76,0,0,1,.07-.66,7.59,7.59,0,0,1,6.74-6.2c.3,0,.61,0,.91,0H379.9a.06.06,0,0,0,0,0,61.55,61.55,0,0,0,4.24,11.17A57.47,57.47,0,0,0,403.45,376.85Z" transform="translate(0 -55.34)" style="fill:#ebda8a"/><rect x="531.67" y="288.08" width="4.07" height="33.43" style="fill:#ebda8a"/><rect x="517.89" y="288.08" width="4.07" height="33.43" style="fill:#ebda8a"/><rect x="501.37" y="288.08" width="4.07" height="33.43" style="fill:#ebda8a"/><rect x="476.04" y="288.08" width="4.07" height="33.43" style="fill:#ebda8a"/><rect x="449.26" y="288.08" width="4.07" height="33.43" style="fill:#ebda8a"/><rect x="408.2" y="288.08" width="4.07" height="33.43" style="fill:#ebda8a"/><rect x="369.76" y="288.08" width="4.07" height="33.43" style="fill:#ebda8a"/><rect x="335.43" y="288.08" width="4.07" height="33.43" style="fill:#ebda8a"/><rect x="544.78" y="288.08" width="4.07" height="33.43" style="fill:#ebda8a"/><rect x="553.45" y="288.08" width="4.07" height="33.43" style="fill:#ebda8a"/><rect x="561.81" y="288.08" width="4.07" height="33.43" style="fill:#ebda8a"/><path d="M572.18,343.54v33.2a9.67,9.67,0,0,1-1.53.12h-2.54V343.42h2.54A9.67,9.67,0,0,1,572.18,343.54Z" transform="translate(0 -55.34)" style="fill:#ebda8a"/><path d="M577.83,346.64v27a8.6,8.6,0,0,1-4.06,2.73V343.91A8.6,8.6,0,0,1,577.83,346.64Z" transform="translate(0 -55.34)" style="fill:#ebda8a"/><path d="M553,317.31V336.2a6.4,6.4,0,0,1-1.49,4.06,8.59,8.59,0,0,1-4.07,2.72,9.11,9.11,0,0,1-1.58.38l-.5.07h-.07l-.49,0H186.18c-4.32,0-7.94-2.69-8.57-6.18a6.16,6.16,0,0,1-.09-.72V316.94a1.48,1.48,0,0,0,0-.31c.35-3.08,3-5.61,6.5-6.36l.26-.06a11.51,11.51,0,0,1,1.87-.16H544.32l.77,0a1.76,1.76,0,0,1,.34,0h0l.41,0a9.11,9.11,0,0,1,1.58.38,8.54,8.54,0,0,1,4.07,2.73A6.4,6.4,0,0,1,553,317.31Z" transform="translate(0 -55.34)" style="fill:#ffe882"/><path d="M377.12,343.47H185.26a7.67,7.67,0,0,1-7.45-5.39,5.72,5.72,0,0,1-.2-.79,6.16,6.16,0,0,1-.09-.72V316.94a1.48,1.48,0,0,0,0-.31,7.47,7.47,0,0,1,6-6.41l.33-.07a8.75,8.75,0,0,1,1.37-.1h168.3c0,.07.05.15.07.23a58.58,58.58,0,0,0,23.42,33.15Z" transform="translate(0 -55.34)" style="fill:#ebda8a"/><rect x="505.34" y="254.7" width="4.07" height="33.43" style="fill:#ebda8a"/><rect x="491.56" y="254.7" width="4.07" height="33.43" style="fill:#ebda8a"/><rect x="475.04" y="254.7" width="4.07" height="33.43" style="fill:#ebda8a"/><rect x="449.71" y="254.7" width="4.07" height="33.43" style="fill:#ebda8a"/><rect x="422.93" y="254.7" width="4.07" height="33.43" style="fill:#ebda8a"/><rect x="381.87" y="254.7" width="4.07" height="33.43" style="fill:#ebda8a"/><rect x="343.43" y="254.7" width="4.07" height="33.43" style="fill:#ebda8a"/><rect x="309.1" y="254.7" width="4.07" height="33.43" style="fill:#ebda8a"/><rect x="518.45" y="254.7" width="4.07" height="33.43" style="fill:#ebda8a"/><rect x="527.12" y="254.7" width="4.07" height="33.43" style="fill:#ebda8a"/><rect x="535.48" y="254.7" width="4.07" height="33.43" style="fill:#ebda8a"/><path d="M545.85,310.16v33.2a11,11,0,0,1-1.53.11h-2.54V310h2.54A9.67,9.67,0,0,1,545.85,310.16Z" transform="translate(0 -55.34)" style="fill:#ebda8a"/><path d="M551.5,313.25v27a8.64,8.64,0,0,1-4.07,2.72V310.53A8.64,8.64,0,0,1,551.5,313.25Z" transform="translate(0 -55.34)" style="fill:#ebda8a"/><path d="M552.23,284.12V303a6.46,6.46,0,0,1-1.48,4.07,8.66,8.66,0,0,1-4.06,2.72,12.7,12.7,0,0,1-1.25.32h0l-.34.05a10.64,10.64,0,0,1-1.52.12H185.43a8.32,8.32,0,0,1-1.12-.07,2,2,0,0,1-.42-.06c-3.65-.55-6.53-3-7-6.15,0-.21-.06-.41-.07-.62s0-.25,0-.38V284.12c0-.13,0-.24,0-.37a4.18,4.18,0,0,1,.09-.71c.63-3.5,4.25-6.2,8.57-6.2H543.57l.69,0h.28l.33,0,.22,0a9.56,9.56,0,0,1,1.6.38l.22.07.22.08.17.07.26.1s0,0,0,0a1.76,1.76,0,0,0,.2.09,8.5,8.5,0,0,1,1.67,1c.16.12.3.24.42.35s.26.24.38.37a1.29,1.29,0,0,1,.16.17c.12.12.23.25.33.37A6.41,6.41,0,0,1,552.23,284.12Z" transform="translate(0 -55.34)" style="fill:#ffe882"/><path d="M376.37,310.28H184.05a3.69,3.69,0,0,1-.49,0,7.56,7.56,0,0,1-6.72-6.22c0-.21-.06-.41-.07-.62s0-.25,0-.38V284.12c0-.13,0-.24,0-.37a4.18,4.18,0,0,1,.09-.71,5.38,5.38,0,0,1,.2-.79,7.67,7.67,0,0,1,7.45-5.41H352.8c.08.27.15.55.23.82a58.61,58.61,0,0,0,23,32.39C376.15,310.12,376.25,310.2,376.37,310.28Z" transform="translate(0 -55.34)" style="fill:#ebda8a"/><rect x="504.58" y="221.51" width="4.07" height="33.43" style="fill:#ebda8a"/><rect x="490.81" y="221.51" width="4.07" height="33.43" style="fill:#ebda8a"/><rect x="474.28" y="221.51" width="4.07" height="33.43" style="fill:#ebda8a"/><rect x="448.96" y="221.51" width="4.07" height="33.43" style="fill:#ebda8a"/><rect x="422.18" y="221.51" width="4.07" height="33.43" style="fill:#ebda8a"/><rect x="381.12" y="221.51" width="4.07" height="33.43" style="fill:#ebda8a"/><rect x="342.68" y="221.51" width="4.07" height="33.43" style="fill:#ebda8a"/><rect x="308.35" y="221.51" width="4.07" height="33.43" style="fill:#ebda8a"/><rect x="517.7" y="221.51" width="4.07" height="33.43" style="fill:#ebda8a"/><rect x="526.36" y="221.51" width="4.07" height="33.43" style="fill:#ebda8a"/><rect x="534.73" y="221.51" width="4.07" height="33.43" style="fill:#ebda8a"/><path d="M545.1,277v33.2a9.67,9.67,0,0,1-1.53.12H541V276.85h2.54A9.67,9.67,0,0,1,545.1,277Z" transform="translate(0 -55.34)" style="fill:#ebda8a"/><path d="M550.75,280.06v27a8.63,8.63,0,0,1-4.07,2.73V277.34A8.62,8.62,0,0,1,550.75,280.06Z" transform="translate(0 -55.34)" style="fill:#ebda8a"/><path d="M570.74,251.52V270.4a6.39,6.39,0,0,1-1.48,4.05,8.66,8.66,0,0,1-4.07,2.73,8.36,8.36,0,0,1-1.59.37l-.75.09-.78,0H203.94a9.9,9.9,0,0,1-4-.82,7.43,7.43,0,0,1-4.63-5.75,1.76,1.76,0,0,1,0-.33c0-.12,0-.25,0-.36V251.52c0-.13,0-.26,0-.38a4.06,4.06,0,0,1,.08-.7c.63-3.51,4.26-6.2,8.58-6.2H562.07a8.54,8.54,0,0,1,1.53.12,9.2,9.2,0,0,1,1.59.37,8.79,8.79,0,0,1,4.07,2.72A6.4,6.4,0,0,1,570.74,251.52Z" transform="translate(0 -55.34)" style="fill:#ffe882"/><path d="M394.87,277.66H203a8,8,0,0,1-3.56-.82,7.3,7.3,0,0,1-4.13-5.75,1.76,1.76,0,0,1,0-.33c0-.12,0-.25,0-.36V251.52c0-.13,0-.26,0-.38a4.06,4.06,0,0,1,.08-.7,5.54,5.54,0,0,1,.21-.8,7.66,7.66,0,0,1,7.43-5.4H371.32a58.61,58.61,0,0,0,22.37,32.6C394.09,277.13,394.48,277.39,394.87,277.66Z" transform="translate(0 -55.34)" style="fill:#ebda8a"/><rect x="523.09" y="188.9" width="4.07" height="33.43" style="fill:#ebda8a"/><rect x="509.31" y="188.9" width="4.07" height="33.43" style="fill:#ebda8a"/><rect x="492.79" y="188.9" width="4.07" height="33.43" style="fill:#ebda8a"/><rect x="467.46" y="188.9" width="4.07" height="33.43" style="fill:#ebda8a"/><rect x="440.68" y="188.9" width="4.07" height="33.43" style="fill:#ebda8a"/><rect x="399.62" y="188.9" width="4.07" height="33.43" style="fill:#ebda8a"/><rect x="361.18" y="188.9" width="4.07" height="33.43" style="fill:#ebda8a"/><rect x="326.86" y="188.9" width="4.07" height="33.43" style="fill:#ebda8a"/><rect x="536.2" y="188.9" width="4.07" height="33.43" style="fill:#ebda8a"/><rect x="544.87" y="188.9" width="4.07" height="33.43" style="fill:#ebda8a"/><rect x="553.24" y="188.9" width="4.07" height="33.43" style="fill:#ebda8a"/><path d="M563.6,244.35v33.2a9.58,9.58,0,0,1-1.53.12h-2.54V244.24h2.54A10.91,10.91,0,0,1,563.6,244.35Z" transform="translate(0 -55.34)" style="fill:#ebda8a"/><path d="M569.25,247.45v27a8.61,8.61,0,0,1-4.06,2.72V244.73A8.61,8.61,0,0,1,569.25,247.45Z" transform="translate(0 -55.34)" style="fill:#ebda8a"/><path d="M600,218.08V237a6.41,6.41,0,0,1-1.48,4.06c-.13.15-.25.3-.39.44a8.66,8.66,0,0,1-3.67,2.29,10.23,10.23,0,0,1-1.59.37,10.9,10.9,0,0,1-1.53.12H233.21c-4.33,0-8-2.7-8.58-6.2a5.36,5.36,0,0,1-.09-.7c0-.13,0-.25,0-.38V218.08c0-.13,0-.25,0-.38.23-3.53,3.5-6.43,7.63-6.85a8.84,8.84,0,0,1,1,0H591.34a9.58,9.58,0,0,1,1.53.12,9.2,9.2,0,0,1,1.59.37,8.74,8.74,0,0,1,3.67,2.28c.14.14.26.29.39.44A6.44,6.44,0,0,1,600,218.08Z" transform="translate(0 -55.34)" style="fill:#ffe882"/><path d="M424.14,244.24H232.27a7.66,7.66,0,0,1-7.44-5.41,7,7,0,0,1-.2-.79,5.36,5.36,0,0,1-.09-.7c0-.13,0-.25,0-.38V218.08c0-.13,0-.25,0-.38a7.83,7.83,0,0,1,.15-1,7.61,7.61,0,0,1,6.66-5.88,7.09,7.09,0,0,1,.92,0H400.58v0A58.66,58.66,0,0,0,424.14,244.24Z" transform="translate(0 -55.34)" style="fill:#ebda8a"/><rect x="552.36" y="155.46" width="4.07" height="33.43" style="fill:#ebda8a"/><rect x="538.58" y="155.46" width="4.07" height="33.43" style="fill:#ebda8a"/><rect x="522.06" y="155.46" width="4.07" height="33.43" style="fill:#ebda8a"/><rect x="496.73" y="155.46" width="4.07" height="33.43" style="fill:#ebda8a"/><rect x="469.95" y="155.46" width="4.07" height="33.43" style="fill:#ebda8a"/><rect x="428.89" y="155.46" width="4.07" height="33.43" style="fill:#ebda8a"/><rect x="390.45" y="155.46" width="4.07" height="33.43" style="fill:#ebda8a"/><rect x="356.13" y="155.46" width="4.07" height="33.43" style="fill:#ebda8a"/><rect x="565.47" y="155.46" width="4.07" height="33.43" style="fill:#ebda8a"/><rect x="574.14" y="155.46" width="4.07" height="33.43" style="fill:#ebda8a"/><rect x="582.5" y="155.46" width="4.07" height="33.43" style="fill:#ebda8a"/><path d="M592.87,210.92v33.2a11,11,0,0,1-1.53.11H588.8V210.8h2.54A9.67,9.67,0,0,1,592.87,210.92Z" transform="translate(0 -55.34)" style="fill:#ebda8a"/><path d="M598.52,214v27a8.64,8.64,0,0,1-4.07,2.72V211.29A8.64,8.64,0,0,1,598.52,214Z" transform="translate(0 -55.34)" style="fill:#ebda8a"/><path d="M553,184.7v18.88a6.42,6.42,0,0,1-1.49,4.06,8.54,8.54,0,0,1-4.07,2.73,10.1,10.1,0,0,1-1.58.37,4,4,0,0,1-.5.06h0l-.24,0-.13,0H186.18c-4.32,0-7.94-2.7-8.57-6.19a5.36,5.36,0,0,1-.09-.7V184.32a5.74,5.74,0,0,1,.09-.71c.63-3.49,4.25-6.19,8.57-6.19H544.83l.4,0a4.36,4.36,0,0,1,.62.07,9.09,9.09,0,0,1,1.58.37c.22.07.42.15.61.23a.26.26,0,0,1,.13.06h0a8.38,8.38,0,0,1,3.31,2.43A6.43,6.43,0,0,1,553,184.7Z" transform="translate(0 -55.34)" style="fill:#ffe882"/><path d="M377.12,210.85H185.26a7.66,7.66,0,0,1-7.45-5.4,6.34,6.34,0,0,1-.29-1.49V184.32a5.74,5.74,0,0,1,.09-.71,5.38,5.38,0,0,1,.2-.79,7.66,7.66,0,0,1,7.45-5.4h168.3c.07.25.14.51.22.78a58.49,58.49,0,0,0,23.27,32.6S377.09,210.84,377.12,210.85Z" transform="translate(0 -55.34)" style="fill:#ebda8a"/><rect x="505.34" y="122.08" width="4.07" height="33.43" style="fill:#ebda8a"/><rect x="491.56" y="122.08" width="4.07" height="33.43" style="fill:#ebda8a"/><rect x="475.04" y="122.08" width="4.07" height="33.43" style="fill:#ebda8a"/><rect x="449.71" y="122.08" width="4.07" height="33.43" style="fill:#ebda8a"/><rect x="422.93" y="122.08" width="4.07" height="33.43" style="fill:#ebda8a"/><rect x="381.87" y="122.08" width="4.07" height="33.43" style="fill:#ebda8a"/><rect x="343.43" y="122.08" width="4.07" height="33.43" style="fill:#ebda8a"/><rect x="309.1" y="122.08" width="4.07" height="33.43" style="fill:#ebda8a"/><rect x="518.45" y="122.08" width="4.07" height="33.43" style="fill:#ebda8a"/><rect x="527.12" y="122.08" width="4.07" height="33.43" style="fill:#ebda8a"/><rect x="535.48" y="122.08" width="4.07" height="33.43" style="fill:#ebda8a"/><path d="M545.85,177.54v33.2a11,11,0,0,1-1.53.11h-2.54V177.42h2.54A9.67,9.67,0,0,1,545.85,177.54Z" transform="translate(0 -55.34)" style="fill:#ebda8a"/><path d="M551.5,180.63v27a8.64,8.64,0,0,1-4.07,2.72V177.91A8.64,8.64,0,0,1,551.5,180.63Z" transform="translate(0 -55.34)" style="fill:#ebda8a"/><path d="M579.31,152v18.88a6.39,6.39,0,0,1-1.48,4.05,8.65,8.65,0,0,1-4.06,2.73,9.44,9.44,0,0,1-1.59.38,11,11,0,0,1-1.53.12H212.52a10,10,0,0,1-3.88-.78,7.58,7.58,0,0,1-4.69-5.37,3.31,3.31,0,0,1-.07-.47,2.64,2.64,0,0,1,0-.29c0-.13,0-.26,0-.37V152c0-.13,0-.25,0-.38a4.93,4.93,0,0,1,.07-.66c.55-3.23,3.68-5.8,7.56-6.2.34,0,.68,0,1,0H570.65c.32,0,.65,0,1,0l.57.07a9.44,9.44,0,0,1,1.59.38,8.71,8.71,0,0,1,4.06,2.72A6.4,6.4,0,0,1,579.31,152Z" transform="translate(0 -55.34)" style="fill:#ffe882"/><path d="M403.45,178.2H211.58a8,8,0,0,1-3.44-.78,7.33,7.33,0,0,1-4.19-5.37,3.31,3.31,0,0,1-.07-.47,2.64,2.64,0,0,1,0-.29c0-.13,0-.26,0-.37V152c0-.13,0-.25,0-.38a4.93,4.93,0,0,1,.07-.66,7.59,7.59,0,0,1,6.74-6.2c.3,0,.61,0,.91,0H379.9a.06.06,0,0,0,0,0,58.66,58.66,0,0,0,22.44,32.62Z" transform="translate(0 -55.34)" style="fill:#ebda8a"/><rect x="531.67" y="89.42" width="4.07" height="33.43" style="fill:#ebda8a"/><rect x="517.89" y="89.42" width="4.07" height="33.43" style="fill:#ebda8a"/><rect x="501.37" y="89.42" width="4.07" height="33.43" style="fill:#ebda8a"/><rect x="476.04" y="89.42" width="4.07" height="33.43" style="fill:#ebda8a"/><rect x="449.26" y="89.42" width="4.07" height="33.43" style="fill:#ebda8a"/><rect x="408.2" y="89.42" width="4.07" height="33.43" style="fill:#ebda8a"/><rect x="369.76" y="89.42" width="4.07" height="33.43" style="fill:#ebda8a"/><rect x="335.43" y="89.42" width="4.07" height="33.43" style="fill:#ebda8a"/><rect x="544.78" y="89.42" width="4.07" height="33.43" style="fill:#ebda8a"/><rect x="553.45" y="89.42" width="4.07" height="33.43" style="fill:#ebda8a"/><rect x="561.81" y="89.42" width="4.07" height="33.43" style="fill:#ebda8a"/><path d="M572.18,144.87v33.2a9.67,9.67,0,0,1-1.53.12h-2.54V144.76h2.54A11,11,0,0,1,572.18,144.87Z" transform="translate(0 -55.34)" style="fill:#ebda8a"/><path d="M577.83,148v27a8.66,8.66,0,0,1-4.06,2.72V145.25A8.66,8.66,0,0,1,577.83,148Z" transform="translate(0 -55.34)" style="fill:#ebda8a"/><path d="M590.53,118.66v18.88a6.4,6.4,0,0,1-1.49,4.05,6.09,6.09,0,0,1-.82.87,8.76,8.76,0,0,1-3.25,1.86,8.26,8.26,0,0,1-1.58.37,4.61,4.61,0,0,1-.5.07h-.21c-.27,0-.54,0-.82,0H223.72c-.31,0-.63,0-.95,0-3.9-.37-7-2.91-7.63-6.16a5.16,5.16,0,0,1-.08-.7V118.28a5.35,5.35,0,0,1,.08-.7c.64-3.51,4.26-6.2,8.58-6.2H581.86a8.54,8.54,0,0,1,1.53.12,8.26,8.26,0,0,1,1.58.37,8.52,8.52,0,0,1,4.07,2.72A6.41,6.41,0,0,1,590.53,118.66Z" transform="translate(0 -55.34)" style="fill:#ffe882"/><path d="M414.66,144.8H222.8a7.94,7.94,0,0,1-.85,0,7.56,7.56,0,0,1-6.81-6.16,5.16,5.16,0,0,1-.08-.7V118.28a5.35,5.35,0,0,1,.08-.7,7.23,7.23,0,0,1,.21-.8,7.66,7.66,0,0,1,7.45-5.4H391.1a58.62,58.62,0,0,0,23.49,33.38Z" transform="translate(0 -55.34)" style="fill:#ebda8a"/><rect x="542.88" y="56.03" width="4.07" height="33.43" style="fill:#ebda8a"/><rect x="529.1" y="56.03" width="4.07" height="33.43" style="fill:#ebda8a"/><rect x="512.57" y="56.03" width="4.07" height="33.43" style="fill:#ebda8a"/><rect x="487.25" y="56.03" width="4.07" height="33.43" style="fill:#ebda8a"/><rect x="460.47" y="56.03" width="4.07" height="33.43" style="fill:#ebda8a"/><rect x="419.41" y="56.03" width="4.07" height="33.43" style="fill:#ebda8a"/><rect x="380.97" y="56.03" width="4.07" height="33.43" style="fill:#ebda8a"/><rect x="346.64" y="56.03" width="4.07" height="33.43" style="fill:#ebda8a"/><rect x="555.99" y="56.03" width="4.07" height="33.43" style="fill:#ebda8a"/><rect x="564.66" y="56.03" width="4.07" height="33.43" style="fill:#ebda8a"/><rect x="573.02" y="56.03" width="4.07" height="33.43" style="fill:#ebda8a"/><path d="M583.39,111.49v33.2a9.67,9.67,0,0,1-1.53.12h-2.54V111.37h2.54A9.67,9.67,0,0,1,583.39,111.49Z" transform="translate(0 -55.34)" style="fill:#ebda8a"/><path d="M589,114.59v27a8.58,8.58,0,0,1-4.07,2.73V111.87A8.57,8.57,0,0,1,589,114.59Z" transform="translate(0 -55.34)" style="fill:#ebda8a"/><path d="M384.6,481.44a25.18,25.18,0,0,1-21.76,28.21L77.32,544.48a25.22,25.22,0,0,1-27.9-22.23L.59,121.88A25.29,25.29,0,0,1,22.41,93.61L307.93,58.79a25.21,25.21,0,0,1,27.84,22.28Z" transform="translate(0 -55.34)" style="fill:#333"/><path d="M384.2,478.18a25.19,25.19,0,0,1-21.76,28.21L76.92,541.21A25.21,25.21,0,0,1,49,519L.19,118.62A25.3,25.3,0,0,1,22,90.34L307.53,55.52A25.22,25.22,0,0,1,335.37,77.8Z" transform="translate(0 -55.34)" style="fill:#4d4d4d"/><path d="M321.93,178a12.28,12.28,0,0,1-10.65,13.72L51.07,223.45a12.27,12.27,0,0,1-13.63-10.77l-9.39-77a12.29,12.29,0,0,1,10.66-13.72L298.92,90.25A12.28,12.28,0,0,1,312.55,101Z" transform="translate(0 -55.34)" style="fill:#ccc"/><path d="M115.21,352a6.48,6.48,0,0,1-5.82,7.07l-38.68,4.71a6.48,6.48,0,0,1-7.34-5.48L59,322.8a6.49,6.49,0,0,1,5.82-7.08L103.54,311a6.48,6.48,0,0,1,7.34,5.49Z" transform="translate(0 -55.34)" style="fill:gray"/><path d="M124,424.1a6.49,6.49,0,0,1-5.82,7.08l-38.68,4.71a6.48,6.48,0,0,1-7.34-5.47L67.82,394.9a6.49,6.49,0,0,1,5.82-7.08l38.67-4.71a6.48,6.48,0,0,1,7.35,5.48Z" transform="translate(0 -55.34)" style="fill:gray"/><path d="M132.77,496.2a6.49,6.49,0,0,1-5.82,7.08L88.27,508a6.47,6.47,0,0,1-7.34-5.48L76.61,467a6.49,6.49,0,0,1,5.81-7.08l38.68-4.71a6.47,6.47,0,0,1,7.34,5.48Z" transform="translate(0 -55.34)" style="fill:gray"/><path d="M187.37,343.22a6.48,6.48,0,0,1-5.81,7.07L142.88,355a6.49,6.49,0,0,1-7.35-5.47L131.21,314a6.47,6.47,0,0,1,5.82-7.08l38.68-4.71A6.46,6.46,0,0,1,183,307.7Z" transform="translate(0 -55.34)" style="fill:gray"/><path d="M196.15,415.31a6.48,6.48,0,0,1-5.81,7.08l-38.68,4.71a6.48,6.48,0,0,1-7.34-5.48L140,386.12a6.5,6.5,0,0,1,5.82-7.09l38.68-4.7a6.46,6.46,0,0,1,7.33,5.47Z" transform="translate(0 -55.34)" style="fill:gray"/><path d="M204.93,487.41a6.46,6.46,0,0,1-5.81,7.07l-38.68,4.71a6.47,6.47,0,0,1-7.35-5.46l-4.32-35.51a6.48,6.48,0,0,1,5.82-7.09l38.67-4.7a6.48,6.48,0,0,1,7.35,5.46Z" transform="translate(0 -55.34)" style="fill:gray"/><path d="M259.53,334.41a6.47,6.47,0,0,1-5.8,7.09l-38.68,4.71a6.48,6.48,0,0,1-7.35-5.47l-4.32-35.52a6.46,6.46,0,0,1,5.81-7.07l38.69-4.71a6.46,6.46,0,0,1,7.33,5.47Z" transform="translate(0 -55.34)" style="fill:gray"/><path d="M330,326.76a6.47,6.47,0,0,1-5.82,7.08l-38.67,4.72a6.51,6.51,0,0,1-7.35-5.49l-4.32-35.5a6.48,6.48,0,0,1,5.81-7.09l38.69-4.71a6.5,6.5,0,0,1,7.34,5.49Z" transform="translate(0 -55.34)" style="fill:gray"/><path d="M268.32,406.53a6.48,6.48,0,0,1-5.81,7.07l-38.68,4.71a6.48,6.48,0,0,1-7.35-5.48l-4.33-35.51a6.48,6.48,0,0,1,5.82-7.07l38.68-4.72A6.49,6.49,0,0,1,264,371Z" transform="translate(0 -55.34)" style="fill:gray"/><path d="M277.1,478.62a6.48,6.48,0,0,1-5.81,7.08l-38.68,4.71a6.48,6.48,0,0,1-7.35-5.48l-4.32-35.51a6.48,6.48,0,0,1,5.82-7.08l38.67-4.71a6.47,6.47,0,0,1,7.34,5.48Z" transform="translate(0 -55.34)" style="fill:gray"/><path d="M108.64,282.9a5.62,5.62,0,0,1-5,6.13L59.52,294.4a5.63,5.63,0,0,1-6.37-4.75l-3.69-30.36a5.62,5.62,0,0,1,5-6.13l44.08-5.37a5.62,5.62,0,0,1,6.36,4.74Z" transform="translate(0 -55.34)" style="fill:#89e7d5"/><path d="M180.8,274.11a5.61,5.61,0,0,1-5,6.13l-44.08,5.37a5.62,5.62,0,0,1-6.36-4.75l-3.71-30.36a5.62,5.62,0,0,1,5-6.13L170.74,239a5.62,5.62,0,0,1,6.36,4.76Z" transform="translate(0 -55.34)" style="fill:#7ed5c5"/><path d="M253,265.32a5.62,5.62,0,0,1-5,6.13l-44.08,5.36a5.62,5.62,0,0,1-6.38-4.73l-3.69-30.36a5.62,5.62,0,0,1,5.05-6.14l44.07-5.37a5.62,5.62,0,0,1,6.36,4.75Z" transform="translate(0 -55.34)" style="fill:#6cb6a8"/><path d="M325.13,256.53a5.6,5.6,0,0,1-5,6.13L276,268a5.63,5.63,0,0,1-6.37-4.75L266,232.93a5.61,5.61,0,0,1,5-6.14l44.07-5.37a5.61,5.61,0,0,1,6.36,4.76Z" transform="translate(0 -55.34)" style="fill:#5d9c90"/><path d="M349.73,458.5c1,8.5-.68,15.71-3.82,16.08L301.82,480c-3.14.39-6.54-6.2-7.57-14.7l-10.47-86c-1-8.5.68-15.71,3.83-16.1l44.07-5.36c3.16-.39,6.54,6.21,7.58,14.71Z" transform="translate(0 -55.34)" style="fill:#89e7d5"/><polygon points="210.29 64.65 206.71 61.25 209.36 57.09 236.81 53.72 240.46 57.11 237.74 61.27 210.29 64.65" style="fill:#4d4d4d"/><polygon points="212.75 100.83 209.17 97.44 211.82 93.27 239.27 89.91 242.93 93.29 240.19 97.47 212.75 100.83" style="fill:#4d4d4d"/><polygon points="215.62 138.06 210.75 134.81 214.69 130.51 242.14 127.15 245.79 130.53 243.06 134.69 215.62 138.06" style="fill:#4d4d4d"/><polygon points="263.82 57.58 260.24 54.18 262.89 50.02 290.34 46.66 293.99 50.04 291.26 54.21 263.82 57.58" style="fill:#4d4d4d"/><polygon points="264.7 94.5 261.13 91.11 263.78 86.95 291.22 83.59 294.88 86.97 292.14 91.14 264.7 94.5" style="fill:#4d4d4d"/><polygon points="266.59 131.31 263.01 127.91 265.67 123.75 293.11 120.39 296.76 123.77 294.03 127.93 266.59 131.31" style="fill:#4d4d4d"/><polygon points="194.07 132.41 190.47 135.73 186.59 132.69 185.48 104.6 189.09 101.19 192.96 104.32 194.07 132.41" style="fill:#4d4d4d"/><polygon points="299.86 82.54 296.26 85.88 292.39 82.83 291.28 54.73 294.88 51.32 298.75 54.46 299.86 82.54" style="fill:#4d4d4d"/><polygon points="247.55 88.92 243.94 92.24 240.07 89.19 238.96 61.1 242.57 57.7 246.44 60.84 247.55 88.92" style="fill:#4d4d4d"/><polygon points="192.51 95.62 188.91 98.95 185.03 95.89 183.92 67.81 187.53 64.4 191.4 67.53 192.51 95.62" style="fill:#4d4d4d"/><polygon points="301.43 119.34 297.82 122.66 293.94 119.61 292.84 91.52 296.44 88.12 300.31 91.25 301.43 119.34" style="fill:#4d4d4d"/><polygon points="212.79 130.13 209.18 133.46 205.31 130.41 204.2 102.31 207.81 98.92 211.68 102.04 212.79 130.13" style="fill:#4d4d4d"/></svg>