<svg id="Ebene_1" data-name="Ebene 1" xmlns="http://www.w3.org/2000/svg" viewBox="0 0 519.86 600"><path id="background" d="M299.75,600,40.07,449.79l.25-300L300.25,0,559.93,150.21l-.25,300Z" transform="translate(-40.07)" style="fill:#99abce"/><path d="M300.15,118.33,142.42,209l-.15,181.66,157.58,91L457.58,391l.15-181.66ZM438.58,380,299.87,459.76l-138.58-80L161.42,220l138.71-79.77,138.58,80Z" transform="translate(-40.07)" style="fill:#f6f6f6"/><path d="M323.17,263a50,50,0,0,0-8.29-21.15l7.16-7.16L310.1,222.78l-7,7a50.19,50.19,0,0,0-21.31-9V211H264.92v9.72a49.77,49.77,0,0,0-11.57,3.43,50.92,50.92,0,0,0-9.73,5.58l-7-7-11.94,11.94,7.16,7.16a49.92,49.92,0,0,0-8.3,21.15H212.9v16.89h11a49.83,49.83,0,0,0,8.82,20.19l-8.06,8.06,11.94,11.94,8.25-8.25a49.93,49.93,0,0,0,20,8.12v11.76h16.89V320a50.07,50.07,0,0,0,20-8.12l8.25,8.25L322,308.17,314,300.11a50,50,0,0,0,8.81-20.19h11V263Zm-49.75,41a33.78,33.78,0,1,1,33.77-33.77A33.77,33.77,0,0,1,273.42,304Z" transform="translate(-40.07)" style="fill:#f6f6f6"/><path d="M323.09,304.64l1.82,7.86c-.9.53-1.78,1.09-2.63,1.7a34.66,34.66,0,0,0-8.56,8.7l-10.48-3.21-6,19.68,10.5,3.21a34.4,34.4,0,0,0,3.42,14.88l-8,7.48,14,15.05,8-7.48a34.57,34.57,0,0,0,12.08,4.18c.84.12,1.69.22,2.54.28l1.81,7.86.65,2.83L362.29,383l-.65-2.84-1.82-7.85c.9-.53,1.78-1.09,2.63-1.7a34.5,34.5,0,0,0,8.55-8.71l10.49,3.21,6-19.68L377,342.26a34.25,34.25,0,0,0-3.43-14.87l8-7.49-14-15-8,7.49a34.39,34.39,0,0,0-10.81-4,34.8,34.8,0,0,0-3.79-.5L343.14,300l-.66-2.83-20,4.62Zm0,52.3c-.13-.16-.25-.33-.37-.5a24.28,24.28,0,0,1-3.33-6.63,23.31,23.31,0,0,1-.91-3.95,24.22,24.22,0,0,1,0-7,23.9,23.9,0,0,1,6-12.66,23.62,23.62,0,0,1,3-2.76c.3-.23.61-.47.92-.69a24,24,0,0,1,18.46-4.06l.67.13a24.12,24.12,0,0,1,14.57,9.61l.36.51h0a24.12,24.12,0,0,1-5.11,32.49c-.3.23-.61.47-.93.69a24,24,0,0,1-17.58,4.21c-.52-.08-1-.17-1.54-.28a24.06,24.06,0,0,1-14.2-9.1" transform="translate(-40.07)" style="fill:#f6f6f6"/></svg>