<svg xmlns="http://www.w3.org/2000/svg" viewBox="0 0 462.2 600"><g style="isolation:isolate"><g id="Ebene_1" data-name="Ebene 1"><path d="M333.29,50.78a50.79,50.79,0,1,0-50.79,50.78A50.79,50.79,0,0,0,333.29,50.78Z" transform="translate(-68.9)" style="fill:#ebda8a"/><path d="M331.37,50.17A49.83,49.83,0,1,0,281.55,100,49.82,49.82,0,0,0,331.37,50.17Z" transform="translate(-68.9)" style="fill:#ffe882"/><path d="M323.13,50.78A40.63,40.63,0,1,0,282.5,91.41,40.62,40.62,0,0,0,323.13,50.78Z" transform="translate(-68.9)" style="fill:#ebda8a"/><path d="M243.52,51.5a40.25,40.25,0,0,1,67.7-29.45,40.63,40.63,0,1,0-38.63,68.14A40.3,40.3,0,0,1,243.52,51.5Z" transform="translate(-68.9)" style="fill:#202020;opacity:0.2;mix-blend-mode:multiply"/><g style="opacity:0.2;mix-blend-mode:multiply"><path d="M279,81.48V74.69c-5.55-.21-10.93-1.5-14.08-3.07l2.48-8.36a33,33,0,0,0,13.75,3.14c4.72,0,7.95-1.57,7.95-4.43s-2.65-4.43-8.78-6.21c-8.86-2.58-14.9-6.15-14.9-13.08,0-6.29,5.13-11.22,14-12.72V23.17h8.12v6.29a33.54,33.54,0,0,1,12,2.36l-2.41,8.07a31.08,31.08,0,0,0-11.92-2.43c-5.38,0-7.12,2-7.12,4,0,2.36,2.9,3.86,9.93,6.15,9.86,3,13.83,6.93,13.83,13.36s-5.21,11.79-14.74,13.22v7.29Z" transform="translate(-68.9)" style="fill:#202020"/></g><path d="M278.2,79.61V72.82c-5.55-.21-10.93-1.5-14.08-3.07l2.48-8.36a33,33,0,0,0,13.75,3.14c4.72,0,7.95-1.57,7.95-4.43s-2.65-4.43-8.78-6.21c-8.86-2.58-14.9-6.15-14.9-13.08,0-6.29,5.13-11.22,14-12.72V21.3h8.12v6.29a33.48,33.48,0,0,1,12,2.36L296.33,38a31.08,31.08,0,0,0-11.92-2.43c-5.39,0-7.12,2-7.12,4,0,2.36,2.89,3.86,9.93,6.15,9.86,3,13.83,6.93,13.83,13.36s-5.21,11.79-14.74,13.22v7.29Z" transform="translate(-68.9)" style="fill:#ffe882"/><path d="M371.16,189.76a50.78,50.78,0,1,0-50.78,50.78A50.79,50.79,0,0,0,371.16,189.76Z" transform="translate(-68.9)" style="fill:#ebda8a"/><path d="M369.24,189.14A49.82,49.82,0,1,0,319.42,239,49.82,49.82,0,0,0,369.24,189.14Z" transform="translate(-68.9)" style="fill:#ffe882"/><path d="M361,189.76a40.63,40.63,0,1,0-40.62,40.62A40.63,40.63,0,0,0,361,189.76Z" transform="translate(-68.9)" style="fill:#ebda8a"/><path d="M281.39,190.48A40.27,40.27,0,0,1,349.1,161a40.63,40.63,0,1,0-38.64,68.14A40.28,40.28,0,0,1,281.39,190.48Z" transform="translate(-68.9)" style="fill:#202020;opacity:0.2;mix-blend-mode:multiply"/><g style="opacity:0.4;mix-blend-mode:multiply"><path d="M316.9,220.45v-6.79c-5.55-.21-10.93-1.5-14.08-3.07l2.49-8.36a32.77,32.77,0,0,0,13.74,3.15c4.72,0,7.95-1.58,7.95-4.43s-2.65-4.44-8.77-6.22c-8.86-2.57-14.91-6.15-14.91-13.08,0-6.29,5.13-11.22,14-12.72v-6.79h8.11v6.29a33.94,33.94,0,0,1,12,2.36l-2.4,8.08a31,31,0,0,0-11.93-2.43c-5.38,0-7.12,2-7.12,4,0,2.36,2.9,3.86,9.94,6.14,9.85,3,13.83,6.93,13.83,13.37s-5.22,11.79-14.74,13.21v7.29Z" transform="translate(-68.9)" style="fill:#202020;opacity:0.2;mix-blend-mode:multiply"/></g><path d="M316.07,218.58V211.8c-5.55-.22-10.93-1.51-14.08-3.08l2.49-8.36a32.73,32.73,0,0,0,13.74,3.15c4.72,0,7.95-1.58,7.95-4.43s-2.65-4.43-8.77-6.22c-8.87-2.57-14.91-6.15-14.91-13.08,0-6.29,5.13-11.22,14-12.72v-6.78h8.12v6.28a34,34,0,0,1,12,2.36l-2.4,8.08a31,31,0,0,0-11.93-2.43c-5.38,0-7.12,2-7.12,4,0,2.36,2.9,3.86,9.94,6.14,9.85,3,13.83,6.93,13.83,13.37s-5.22,11.79-14.74,13.21v7.29Z" transform="translate(-68.9)" style="fill:#ffe882"/><path d="M470.14,407.91l.07.08.09.1.4.39a21.13,21.13,0,0,0,2.66,2.06,27.55,27.55,0,0,0,5,2.45,27.87,27.87,0,0,0,7.38,1.42,36,36,0,0,0,9.51-.82l2.62-.67.67-.16.09,0h0l-.12,0,.19-.06.39-.12,1.56-.5c.85-.33,1.57-.54,2.45-.94s1.69-.75,2.53-1.15a24,24,0,0,0,8.19-6.58,14.17,14.17,0,0,0,2.2-4.21,9.2,9.2,0,0,0,.43-4,4.87,4.87,0,0,0-.33-1.23c0-.1-.08-.18,0-.16s0,0,.09,0h0l.28.16,0,0-.1-.06-.39-.22c-.06,0,.26.12.24.09s0-.06-.11-.07a1.62,1.62,0,0,0-.5-.11,5.11,5.11,0,0,0-1.72.19,11.16,11.16,0,0,0-4.09,2.15,13.11,13.11,0,0,0-3.14,3.68,12,12,0,0,0-1.51,4.42,11.11,11.11,0,0,0-.12,1.16c0,.19,0,.39,0,.59v.4c0-.09,0,.27,0-.2l0,.2a12.54,12.54,0,0,0,.13,1.29c0,.12,0,.22.05.36l.12.49c.67,2.6,2.76,5.07,5.21,6.87a26.74,26.74,0,0,0,7.71,3.85,25.45,25.45,0,0,0,6.61,1.23c.92.07,1.69-.06,2.4.08,1.62.34,4.06,1.47,3.84,3.48-.28,2.48-4.23,3.09-6.11,3.23a32.44,32.44,0,0,1-8.61-.67,34.47,34.47,0,0,1-10.53-4,25.62,25.62,0,0,1-5.41-4.19,19.75,19.75,0,0,1-4.37-6.61l-.38-1c-.12-.36-.23-.78-.33-1.18-.25-.93-.29-1.3-.4-1.86l0-.2-.05-.49-.05-.52c0-.34-.07-.68-.08-1,0-.7,0-1.4,0-2.11a22.78,22.78,0,0,1,2-8.47,24.23,24.23,0,0,1,5.16-7.39,23.33,23.33,0,0,1,8-5.2,17.87,17.87,0,0,1,5.34-1.15,13.82,13.82,0,0,1,3.11.15,12.81,12.81,0,0,1,1.65.35,15.54,15.54,0,0,1,1.94.74l.42.19.1.05,0,0,.38.21.41.26a11.27,11.27,0,0,1,1.53,1.14,13.87,13.87,0,0,1,2.31,2.6,16.68,16.68,0,0,1,2.44,5.49,22.78,22.78,0,0,1,0,10.42,28.17,28.17,0,0,1-3.73,8.91,37.6,37.6,0,0,1-12.72,11.92c-1.18.66-2.35,1.33-3.54,1.89s-2.5,1.13-3.68,1.64l-1.53.59-.38.15-.19.07-.38.13-.89.28-3.5,1.06a51.93,51.93,0,0,1-13.86,1.81,43,43,0,0,1-12.2-1.93,40.56,40.56,0,0,1-8.87-4.08,37.24,37.24,0,0,1-5.2-3.93l-.78-.74c-.21-.19-.51-.52-.68-.7l-.44-.48Z" transform="translate(-68.9)" style="fill:#ffa897"/><path d="M516,393.67l0,0Z" transform="translate(-68.9)" style="fill:#7ed5c5"/><path d="M527.25,420.32a22,22,0,0,0-2.4-.08,24.15,24.15,0,0,1-5.45-.89c-.11,0-.22-.05-.33-.09a35.57,35.57,0,0,0,3-2.8,31.79,31.79,0,0,0,3.86-4.95,30.93,30.93,0,0,0,2.53-5,25.15,25.15,0,0,0,1.2-4c.14-.61.26-1.23.35-1.86a22.63,22.63,0,0,0-.38-8.55,16.77,16.77,0,0,0-2.44-5.49,13.53,13.53,0,0,0-2.31-2.6,11.27,11.27,0,0,0-1.53-1.14l-.41-.26-.35-.19h0l0,0-.1-.05-.41-.2a18.17,18.17,0,0,0-2-.73,14.83,14.83,0,0,0-1.65-.36,15.07,15.07,0,0,0-3.11-.14,17.87,17.87,0,0,0-5.34,1.15,23.18,23.18,0,0,0-8,5.2,24.35,24.35,0,0,0-5.16,7.39,22.78,22.78,0,0,0-2,8.47c-.05.71,0,1.41,0,2.11,0,.35.05.69.08,1l0,.51.06.49,0,.2c.11.56.16.93.4,1.86.1.4.21.82.33,1.19l.38,1a17,17,0,0,0,.73,1.62l-1.53.39a35.57,35.57,0,0,1-9.5.82,27.87,27.87,0,0,1-7.39-1.42,26.91,26.91,0,0,1-5-2.45,22.22,22.22,0,0,1-2.67-2.06c-.17-.17-.29-.31-.38-.39s0,0-.1-.1l-.07-.08-13.07,11.28.44.47c.17.19.48.51.68.71l.78.74c.33.3.7.62,1.12,1a36.79,36.79,0,0,0,4.08,3,39.45,39.45,0,0,0,8.87,4.07,42.66,42.66,0,0,0,12.2,1.94,52.34,52.34,0,0,0,13.86-1.81c1.16-.34,2.32-.7,3.5-1.06l.89-.28.38-.12.19-.08.38-.15L506,427c1.18-.51,2.56-1,3.69-1.64.38-.18.75-.37,1.14-.58.43.17.86.33,1.29.46a35.83,35.83,0,0,0,4.28,1.17,32.8,32.8,0,0,0,8.6.66c1.89-.14,5.85-.75,6.12-3.23C531.31,421.79,528.87,420.66,527.25,420.32ZM505,406.13v-.39c0-.19,0-.38,0-.58a11.11,11.11,0,0,1,.12-1.16,12.08,12.08,0,0,1,1.51-4.43,13.22,13.22,0,0,1,3.14-3.67,11.35,11.35,0,0,1,4.08-2.15,4.9,4.9,0,0,1,1.73-.18,1.46,1.46,0,0,1,.5.1c.07,0,.08.06.12.07s-.08,0-.16,0l.17.1h0c-.05,0-.08,0-.1,0s0,.06,0,.16a4.87,4.87,0,0,1,.33,1.23,9.33,9.33,0,0,1-.42,4,14.24,14.24,0,0,1-2.22,4.21,23.7,23.7,0,0,1-7.95,6.45,7.74,7.74,0,0,1-.59-1.58l-.13-.48c0-.15,0-.24,0-.36s-.09-.79-.13-1.3c0,0,0,0,0,0Z" transform="translate(-68.9)" style="fill:#7ed5c5"/><path d="M516.06,393.69l-.07,0Z" transform="translate(-68.9)" style="fill:#6cb6a8"/><path d="M516.52,394Z" transform="translate(-68.9)" style="fill:#6cb6a8"/><path d="M503.15,411.15a29.72,29.72,0,0,0,2.59-1.66,8.17,8.17,0,0,1-.42-1.2l-.12-.49c0-.14,0-.24-.05-.36a12.54,12.54,0,0,1-.13-1.29l0-.2c.05.47,0,.11,0,.2v-.4c0-.2,0-.4,0-.59a11.11,11.11,0,0,1,.12-1.16,12,12,0,0,1,1.51-4.42,13.11,13.11,0,0,1,3.14-3.68,11.16,11.16,0,0,1,4.09-2.15,5.11,5.11,0,0,1,1.72-.19,1.62,1.62,0,0,1,.5.11c.07,0,.08.06.11.07s-.09,0-.17-.05l.32.18.1.06,0,0s.12.07,0,0h0l-.27-.15h0s-.07,0-.09,0,0,.06,0,.16a4.87,4.87,0,0,1,.33,1.23,9.2,9.2,0,0,1-.43,4,9.89,9.89,0,0,1-.57,1.47h0s4.53-7.19-1.23-10.89S497.38,400.67,503.15,411.15Z" transform="translate(-68.9)" style="fill:#6cb6a8"/><path d="M530,400.73c-.09.63-.21,1.25-.35,1.86a25.15,25.15,0,0,1-1.2,4,48.86,48.86,0,0,1-6.39,9.92c-.82,1-1.7,2-2.65,2.89a41.22,41.22,0,0,1-7.31,5.85c-11.81,7.45-30.32,10.78-59-.26v-4.21s2.65.66,7,1.35c9.4,1.48,26.78,3.06,42.77-1.73a56.72,56.72,0,0,0,9.69-3.86A43.89,43.89,0,0,0,530,400.73Z" transform="translate(-68.9)" style="fill:#6cb6a8"/><path d="M236.13,301.35s-25.29-29.08-51.85-17.7-51.84-20.24-19-43,81.22-4.16,82.2,49.32C248,316.93,236.13,301.35,236.13,301.35Z" transform="translate(-68.9)" style="fill:#6cb6a8"/><path d="M189.69,231.46c40-2.19,52.9,32.77,41.82,40.57s-58.78-5.76-58.78-5.76-10,1.8-22.32,3.71c3.34,12.32,18.39,20.3,33.87,13.67,26.56-11.38,51.85,17.7,51.85,17.7S248,316.93,247.51,290C246.75,248.79,217.92,228.32,189.69,231.46Z" transform="translate(-68.9)" style="fill:#5d9c90;opacity:0.2;mix-blend-mode:multiply"/><path d="M475.1,426.6c0,87.32-78.67,122.49-180.3,122.49S107.07,513.92,107.07,426.6s82.39-158.13,184-158.13S475.1,339.27,475.1,426.6Z" transform="translate(-68.9)" style="fill:#7ed5c5"/><path d="M294.8,535.53c-99,0-183.26-33.38-187.54-115.84-.12,2.29-.19,4.59-.19,6.91,0,87.32,86.1,122.49,187.73,122.49S475.1,513.92,475.1,426.6c0-2.26-.07-4.5-.18-6.73C470.89,502.2,393.73,535.53,294.8,535.53Z" transform="translate(-68.9)" style="fill:#6cb6a8"/><path d="M160,363.56H90.12C78.4,363.56,68.9,387,68.9,415.89s9.5,52.32,21.22,52.32H160c11.72,0,21.22-23.43,21.22-52.32S171.71,363.56,160,363.56Z" transform="translate(-68.9)" style="fill:#7ed5c5"/><path d="M86.68,467.51c8.24-4,14.54-25.6,14.54-51.62s-6.3-47.6-14.54-51.63C76.6,368.31,68.9,389.88,68.9,415.89S76.6,463.46,86.68,467.51Z" transform="translate(-68.9)" style="fill:#7ed5c5;opacity:0.05;mix-blend-mode:multiply"/><path d="M86.68,467.51c8.24-4,14.54-25.6,14.54-51.62,0-1.64,0-3.25-.07-4.84-.78,25.46-7.6,45.64-16.09,47.35C76.6,456.7,69.8,436.66,69,411.33l0,1c0,1.19,0,2.38,0,3.6C68.9,441.9,76.6,463.46,86.68,467.51Z" transform="translate(-68.9)" style="fill:#6cb6a8"/><path d="M69,419.28c.6-26,7.49-46.75,16.11-48.48,8.64,1.74,15.54,22.57,16.12,48.64,0-1.18,0-2.36,0-3.55,0-26-6.3-47.6-14.54-51.63C76.6,368.31,68.9,389.88,68.9,415.89c0,1,0,2,0,3C68.94,419,68.94,419.16,69,419.28Z" transform="translate(-68.9)" style="fill:#89e7d5;opacity:0.2;mix-blend-mode:screen"/><path d="M192.49,363.5c0,5.31.51,11.94-5.32,13.71-3.54,1.07-14.25,3.7-17.47,1.68s-3.54-12.07-3.54-15.39c0-12.62,5.89-22.86,13.17-22.86S192.49,350.88,192.49,363.5Z" transform="translate(-68.9)" style="fill:#4d4d4d"/><ellipse cx="139.07" cy="400.67" rx="21.47" ry="10.9" style="fill:#6cb6a8"/><path d="M179.33,354.8a5.22,5.22,0,1,1-5.22-5.25A5.25,5.25,0,0,1,179.33,354.8Z" transform="translate(-68.9)" style="fill:#f6f6f6"/><path d="M190.84,326.24s-12-9.2-17.18-6.55-.14-13.47,17.61-9.23S199.41,331.47,190.84,326.24Z" transform="translate(-68.9)" style="fill:#6cb6a8"/><polygon points="188.5 586.44 117.6 586.44 103.83 507.94 208.64 519.45 188.5 586.44" style="fill:#7ed5c5"/><ellipse cx="153.05" cy="586.44" rx="35.45" ry="13.56" style="fill:#7ed5c5"/><polygon points="331.53 586.44 260.63 586.44 248.24 519.45 355.37 504.24 331.53 586.44" style="fill:#7ed5c5"/><ellipse cx="296.08" cy="586.44" rx="35.45" ry="13.56" style="fill:#7ed5c5"/><path d="M437.24,371.07c-7.41,3-19.11-25.45-43.63-42.85-27.65-19.62-51.35-13.65-51.3-24.51.06-14.19,33.44-9.73,63.06,11.29C430.67,333,452.6,364.93,437.24,371.07Z" transform="translate(-68.9)" style="fill:#89e7d5"/><path d="M458.17,393.9c-1.58,6.63-7.69,10.85-13.65,9.43s-9.52-7.93-7.95-14.56,7.69-10.85,13.65-9.44S459.74,387.27,458.17,393.9Z" transform="translate(-68.9)" style="fill:#89e7d5"/><path d="M210.24,310.77s-25.3-29.09-51.85-17.7-51.85-20.24-19-43,81.22-4.16,82.2,49.32C222.11,326.35,210.24,310.77,210.24,310.77Z" transform="translate(-68.9)" style="fill:#7ed5c5"/><path d="M88,417.75c0,8.93-1,16.16-2.22,16.16s-2.21-7.23-2.21-16.16,1-16.16,2.21-16.16S88,408.83,88,417.75Z" transform="translate(-68.9)" style="fill:#6cb6a8"/><path d="M80,417.75c0,8.93-1,16.16-2.21,16.16s-2.21-7.23-2.21-16.16,1-16.16,2.21-16.16S80,408.83,80,417.75Z" transform="translate(-68.9)" style="fill:#6cb6a8"/><path d="M346.59,292.13c-41.14-8.75-79.39-3.68-79.77-3.63L261.27,281c1.81-.25,44.7-6,92.13,4.05Z" transform="translate(-68.9)" style="fill:#5d9c90"/><path d="M263.42,283.92l3.4,4.58c.38-.05,38.63-5.12,79.77,3.63l4.33-4.49C309.49,279.32,272.11,282.9,263.42,283.92Z" transform="translate(-68.9)" style="fill:#5d9c90;mix-blend-mode:multiply"/><path d="M165,249.87c-.07,2.35-9.14,2.19-16.73,6.79-8.57,5.2-9.73,12.32-12.67,11-3.84-1.68,1.29-10.2,10.46-15.76C153.85,247.17,165.09,245,165,249.87Z" transform="translate(-68.9)" style="fill:#89e7d5;opacity:0.5;mix-blend-mode:screen"/><path d="M261.92,569.18c0,7.49-18.09,13.56-40.42,13.56-16.6,0-30.86-3.36-37.08-8.17l2.08,11.87c0,7.49,15.87,13.56,35.45,13.56s35.45-6.07,35.45-13.56l9.92-33Z" transform="translate(-68.9)" style="fill:#6cb6a8"/><path d="M363.92,582.74c-15.52,0-29.07-2.73-36.33-6.77l1.94,10.47c0,7.49,15.87,13.56,35.45,13.56s35.44-6.07,35.44-13.56l4-13.66C399.49,578.52,383.24,582.74,363.92,582.74Z" transform="translate(-68.9)" style="fill:#6cb6a8"/></g></g></svg>