<svg id="Ebene_1" data-name="Ebene 1" xmlns="http://www.w3.org/2000/svg" viewBox="0 0 600 453.53"><path d="M497.28,437.45l-394.84-.31a5.22,5.22,0,0,1-5.22-5.22l.2-253.14a16,16,0,0,1,16-16l373.34.29a16,16,0,0,1,16,16l-.2,253.15a5.22,5.22,0,0,1-5.22,5.21" transform="translate(0 -73.24)" style="fill:#333"/><polyline points="487.27 349.89 112.46 349.6 112.66 103.9 487.47 104.19 487.27 349.89" style="fill:#4d4d4d"/><path d="M587.42,526.76l-574.86-.45A12.56,12.56,0,0,1,0,513.74v-.45l600,.47v.45A12.56,12.56,0,0,1,587.42,526.76Z" transform="translate(0 -73.24)" style="fill:#939598"/><path d="M586.13,517.1l-572.32-.45c-10.4,0-16.17-2.09-12.89-4.65L92,440.76c3.28-2.57,11.54-4.64,18.46-4.64l380.64.3c6.91,0,15.13,2.09,18.36,4.66l89.67,71.39C602.34,515,596.52,517.11,586.13,517.1Z" transform="translate(0 -73.24)" style="fill:#d1d3d4"/><polygon points="409.93 438.43 190.06 438.26 204.91 409.74 395.69 409.89 409.93 438.43" style="fill:#bcbec0"/><path d="M134.91,446.53H117.36c-1,0-1.55-.3-1.16-.65l6.71-6.12a4.51,4.51,0,0,1,2.5-.65H142.2c1,0,1.51.3,1.16.66l-6,6.11A4.22,4.22,0,0,1,134.91,446.53Z" transform="translate(0 -73.24)" style="fill:#939598"/><path d="M159.79,446.55H142.23c-1,0-1.59-.3-1.25-.65l5.82-6.12a4,4,0,0,1,2.4-.65H166c1,0,1.54.3,1.25.66l-5.05,6.11A3.84,3.84,0,0,1,159.79,446.55Z" transform="translate(0 -73.24)" style="fill:#939598"/><path d="M184.67,446.57H167.11c-1,0-1.63-.3-1.35-.66l4.93-6.11a3.57,3.57,0,0,1,2.31-.65h16.79c1,0,1.59.29,1.34.65L187,445.92A3.41,3.41,0,0,1,184.67,446.57Z" transform="translate(0 -73.24)" style="fill:#939598"/><path d="M209.54,446.59H192c-1,0-1.67-.3-1.43-.66l4-6.11a3.19,3.19,0,0,1,2.22-.65h16.79c1,0,1.63.29,1.44.65l-3.26,6.12C211.57,446.3,210.57,446.59,209.54,446.59Z" transform="translate(0 -73.24)" style="fill:#939598"/><path d="M234.42,446.61H216.86c-1,0-1.72-.3-1.53-.66l3.13-6.11c.19-.36,1.14-.65,2.12-.65h16.79c1,0,1.68.29,1.54.65L236.54,446C236.4,446.32,235.45,446.61,234.42,446.61Z" transform="translate(0 -73.24)" style="fill:#939598"/><path d="M259.4,446.63H241.84c-1,0-1.76-.3-1.63-.66l2.24-6.12c.13-.36,1-.65,2-.65l16.8,0c1,0,1.71.29,1.62.65L261.42,446C261.33,446.34,260.43,446.63,259.4,446.63Z" transform="translate(0 -73.24)" style="fill:#939598"/><path d="M284.27,446.65l-17.56,0c-1,0-1.8-.29-1.72-.65l1.35-6.12c.07-.36.94-.65,1.92-.65l16.8,0c1,0,1.76.29,1.72.65L286.2,446C286.17,446.36,285.3,446.65,284.27,446.65Z" transform="translate(0 -73.24)" style="fill:#939598"/><path d="M309.15,446.67l-17.56,0c-1,0-1.85-.29-1.82-.65l.45-6.12c0-.36.85-.65,1.84-.65l16.79,0c1,0,1.8.29,1.82.65L311,446C311,446.38,310.18,446.67,309.15,446.67Z" transform="translate(0 -73.24)" style="fill:#939598"/><path d="M334,446.69l-17.55,0c-1,0-1.89-.29-1.92-.65l-.44-6.12c0-.36.75-.65,1.74-.65h16.79c1,0,1.85.3,1.92.66l1.2,6.12C335.83,446.4,335.05,446.69,334,446.69Z" transform="translate(0 -73.24)" style="fill:#939598"/><path d="M358.9,446.71l-17.56,0c-1,0-1.93-.29-2-.65L338,439.92c-.08-.36.66-.65,1.64-.65h16.8c1,0,1.88.3,2,.66l2.1,6.12C360.67,446.42,359.93,446.71,358.9,446.71Z" transform="translate(0 -73.24)" style="fill:#939598"/><path d="M385,446.73l-17.56,0c-1,0-2-.29-2.11-.65L363,439.94c-.13-.36.56-.65,1.55-.65h16.79c1,0,1.93.3,2.11.65l3,6.13C386.69,446.44,386,446.73,385,446.73Z" transform="translate(0 -73.24)" style="fill:#939598"/><path d="M409.84,446.75l-17.55,0c-1,0-2-.29-2.21-.65L386.92,440c-.19-.36.46-.65,1.45-.65h16.79a3.14,3.14,0,0,1,2.21.65l3.92,6.13C411.53,446.46,410.88,446.75,409.84,446.75Z" transform="translate(0 -73.24)" style="fill:#939598"/><path d="M434.72,446.77l-17.56,0a3.36,3.36,0,0,1-2.3-.65L410.81,440c-.24-.36.37-.65,1.35-.65H429a3.51,3.51,0,0,1,2.29.65l4.83,6.13C436.36,446.48,435.75,446.77,434.72,446.77Z" transform="translate(0 -73.24)" style="fill:#939598"/><path d="M459.6,446.79l-17.56,0a3.81,3.81,0,0,1-2.4-.65L434.69,440c-.29-.36.28-.66,1.26-.66l16.8,0a4,4,0,0,1,2.39.65l5.72,6.13C461.19,446.5,460.63,446.79,459.6,446.79Z" transform="translate(0 -73.24)" style="fill:#939598"/><path d="M484.47,446.81l-17.56,0a4.17,4.17,0,0,1-2.48-.65L458.58,440c-.34-.36.18-.65,1.17-.65l16.79,0A4.42,4.42,0,0,1,479,440l6.61,6.13C486,446.52,485.5,446.81,484.47,446.81Z" transform="translate(0 -73.24)" style="fill:#939598"/><path d="M137.46,455l-29.32,0c-1.08,0-1.64-.29-1.25-.65l6.71-6.11a4.74,4.74,0,0,1,2.6-.65l28.1,0c1,0,1.62.29,1.29.65L140,454.38A4.3,4.3,0,0,1,137.46,455Z" transform="translate(0 -73.24)" style="fill:#939598"/><path d="M163.33,455.05l-18.43,0c-1.09,0-1.7-.29-1.38-.65l5.45-6.12a4,4,0,0,1,2.46-.65l17.66,0c1,0,1.66.29,1.38.65l-4.68,6.12A3.86,3.86,0,0,1,163.33,455.05Z" transform="translate(0 -73.24)" style="fill:#939598"/><path d="M189.44,455.07l-18.43,0c-1.08,0-1.74-.29-1.47-.65l4.55-6.12a3.62,3.62,0,0,1,2.37-.65l17.67,0c1,0,1.69.29,1.47.65l-3.79,6.12A3.43,3.43,0,0,1,189.44,455.07Z" transform="translate(0 -73.24)" style="fill:#939598"/><path d="M215.56,455.09l-18.43,0c-1.09,0-1.79-.29-1.57-.65l3.66-6.12a3.21,3.21,0,0,1,2.27-.65l17.67,0c1,0,1.74.29,1.57.65l-2.9,6.12C217.66,454.8,216.64,455.09,215.56,455.09Z" transform="translate(0 -73.24)" style="fill:#939598"/><path d="M241.78,455.11l-18.43,0c-1.08,0-1.83-.29-1.67-.65l2.77-6.12c.16-.36,1.14-.65,2.17-.65l17.67,0c1,0,1.79.29,1.67.65l-2,6.12C243.84,454.82,242.86,455.11,241.78,455.11Z" transform="translate(0 -73.24)" style="fill:#939598"/><path d="M267.9,455.13l-18.44,0c-1.08,0-1.87-.29-1.76-.65l1.88-6.12c.11-.36,1-.65,2.08-.65l17.66,0c1,0,1.83.29,1.77.65L270,454.48C269.91,454.84,269,455.13,267.9,455.13Z" transform="translate(0 -73.24)" style="fill:#939598"/><path d="M294,455.15H275.58c-1.08,0-1.91-.3-1.86-.66l1-6.12c.05-.36.94-.65,2-.65l17.67,0c1,0,1.87.29,1.85.65L296,454.5C296,454.86,295.09,455.15,294,455.15Z" transform="translate(0 -73.24)" style="fill:#939598"/><path d="M320.13,455.17H301.7c-1.09,0-2-.3-2-.66l.09-6.12c0-.36.85-.65,1.89-.65l17.67,0c1,0,1.91.29,1.95.65l.68,6.12C322.06,454.88,321.21,455.17,320.13,455.17Z" transform="translate(0 -73.24)" style="fill:#939598"/><path d="M346.24,455.19H327.81c-1.08,0-2-.3-2.05-.66l-.8-6.12c0-.36.76-.65,1.79-.65l17.67,0c1,0,1.95.29,2.05.65l1.57,6.12C348.13,454.9,347.33,455.19,346.24,455.19Z" transform="translate(0 -73.24)" style="fill:#939598"/><path d="M373.61,455.21H355.18c-1.08,0-2-.3-2.15-.66l-1.74-6.12c-.1-.36.66-.65,1.7-.65l17.66,0c1,0,2,.29,2.15.65l2.51,6.12C375.45,454.92,374.69,455.21,373.61,455.21Z" transform="translate(0 -73.24)" style="fill:#939598"/><path d="M399.73,455.23H381.29c-1.08,0-2.08-.3-2.24-.65l-2.63-6.13c-.16-.36.56-.65,1.6-.65l17.67,0a3.1,3.1,0,0,1,2.24.65l3.4,6.12C401.53,454.94,400.81,455.23,399.73,455.23Z" transform="translate(0 -73.24)" style="fill:#939598"/><path d="M425.84,455.25H407.41a3.33,3.33,0,0,1-2.34-.65l-3.52-6.13c-.21-.36.46-.65,1.5-.65l17.67,0a3.45,3.45,0,0,1,2.33.65l4.3,6.12C427.6,455,426.92,455.25,425.84,455.25Z" transform="translate(0 -73.24)" style="fill:#939598"/><path d="M452,455.27H433.52a3.72,3.72,0,0,1-2.43-.65l-4.42-6.13c-.26-.36.37-.65,1.41-.65l17.67,0a3.89,3.89,0,0,1,2.43.65l5.19,6.12C453.67,455,453,455.27,452,455.27Z" transform="translate(0 -73.24)" style="fill:#939598"/><path d="M493.55,455.31l-33.91,0a4.19,4.19,0,0,1-2.53-.65l-5.31-6.13c-.31-.36.28-.65,1.31-.65l32.51,0a4.66,4.66,0,0,1,2.58.65l6.61,6.13C495.19,455,494.63,455.31,493.55,455.31Z" transform="translate(0 -73.24)" style="fill:#939598"/><path d="M113.73,480.77l-33.55,0c-1.23,0-1.92-.3-1.53-.66L85.36,474a5.44,5.44,0,0,1,2.88-.65l32.33,0c1.19,0,1.89.29,1.57.65l-5.58,6.11A4.94,4.94,0,0,1,113.73,480.77Z" transform="translate(0 -73.24)" style="fill:#939598"/><path d="M143.32,480.8l-21.09,0c-1.24,0-2-.29-1.66-.65L126,474a4.71,4.71,0,0,1,2.74-.65l20.32,0c1.2,0,1.94.29,1.67.65l-4.69,6.12A4.5,4.5,0,0,1,143.32,480.8Z" transform="translate(0 -73.24)" style="fill:#939598"/><path d="M173.19,480.82l-21.08,0c-1.24,0-2-.29-1.76-.65l4.56-6.12a4.15,4.15,0,0,1,2.64-.64h20.32c1.2,0,2,.29,1.76.65l-3.79,6.12C175.62,480.53,174.43,480.82,173.19,480.82Z" transform="translate(0 -73.24)" style="fill:#939598"/><path d="M203.07,480.84H182c-1.24,0-2.07-.3-1.85-.66l3.66-6.11a3.82,3.82,0,0,1,2.55-.65h20.33c1.19,0,2,.3,1.85.66l-2.9,6.11C205.45,480.55,204.31,480.84,203.07,480.84Z" transform="translate(0 -73.24)" style="fill:#939598"/><path d="M369.9,481l-157.43-.12c-1.24,0-2.11-.29-1.95-.65l2.75-6.12c.17-.36,1.26-.65,2.46-.65l151.72.12c1.19,0,2.26.29,2.38.65l2.09,6.13C372,480.68,371.14,481,369.9,481Z" transform="translate(0 -73.24)" style="fill:#939598"/><path d="M399.82,481l-21.09,0c-1.24,0-2.35-.29-2.48-.65L374,474.21c-.13-.36.74-.65,1.93-.65h20.32c1.2,0,2.31.3,2.48.66l3,6.12C401.92,480.71,401.06,481,399.82,481Z" transform="translate(0 -73.24)" style="fill:#939598"/><path d="M429.69,481l-21.08,0c-1.24,0-2.39-.29-2.58-.65l-3.11-6.12c-.18-.36.64-.65,1.83-.65l20.32,0a3.92,3.92,0,0,1,2.58.65l3.87,6.12C431.75,480.73,430.93,481,429.69,481Z" transform="translate(0 -73.24)" style="fill:#939598"/><path d="M459.57,481H438.48a4.17,4.17,0,0,1-2.67-.65l-4-6.13c-.24-.36.54-.65,1.73-.65l20.33,0a4.36,4.36,0,0,1,2.67.65l4.76,6.13C461.58,480.75,460.81,481.05,459.57,481Z" transform="translate(0 -73.24)" style="fill:#939598"/><path d="M489.44,481.07l-21.08,0a4.64,4.64,0,0,1-2.77-.65l-4.89-6.13c-.29-.36.44-.65,1.64-.65l20.32,0a4.81,4.81,0,0,1,2.76.65l5.66,6.13C491.42,480.78,490.68,481.07,489.44,481.07Z" transform="translate(0 -73.24)" style="fill:#939598"/><path d="M519.4,481.09H498.31a5.16,5.16,0,0,1-2.85-.66l-5.8-6.12c-.34-.36.35-.65,1.55-.65h20.32a5.35,5.35,0,0,1,2.86.66l6.56,6.12C521.33,480.8,520.64,481.09,519.4,481.09Z" transform="translate(0 -73.24)" style="fill:#939598"/><path d="M145,463.53l-46.09,0c-1.14,0-1.74-.29-1.34-.65l6.7-6.12a5,5,0,0,1,2.69-.65l44.27,0c1.09,0,1.73.29,1.44.65l-5.07,6.12A4.26,4.26,0,0,1,145,463.53Z" transform="translate(0 -73.24)" style="fill:#939598"/><path d="M172.6,463.55l-19.3,0c-1.14,0-1.82-.29-1.53-.65l4.93-6.12a4,4,0,0,1,2.5-.65l18.54,0c1.09,0,1.77.29,1.53.65l-4.17,6.12A3.79,3.79,0,0,1,172.6,463.55Z" transform="translate(0 -73.24)" style="fill:#939598"/><path d="M200,463.57l-19.31,0c-1.13,0-1.86-.29-1.62-.65l4-6.12a3.51,3.51,0,0,1,2.4-.64H204c1.09,0,1.82.29,1.63.65l-3.28,6.12C202.17,463.28,201.09,463.57,200,463.57Z" transform="translate(0 -73.24)" style="fill:#939598"/><path d="M227.43,463.59H208.12c-1.14,0-1.9-.3-1.72-.66l3.14-6.12a3.19,3.19,0,0,1,2.31-.64h18.54c1.09,0,1.86.29,1.72.65l-2.38,6.12C229.59,463.3,228.56,463.59,227.43,463.59Z" transform="translate(0 -73.24)" style="fill:#939598"/><path d="M254.78,463.61H235.47c-1.13,0-1.94-.3-1.81-.66l2.25-6.11c.13-.36,1.12-.65,2.21-.65h18.54c1.09,0,1.91.29,1.82.65L257,463C256.91,463.32,255.92,463.61,254.78,463.61Z" transform="translate(0 -73.24)" style="fill:#939598"/><path d="M282.14,463.63H262.83c-1.14,0-2-.29-1.91-.65l1.36-6.12c.08-.36,1-.65,2.11-.65h18.54c1.09,0,1.95.29,1.91.65l-.59,6.12C284.22,463.34,283.27,463.63,282.14,463.63Z" transform="translate(0 -73.24)" style="fill:#939598"/><path d="M309.49,463.66l-19.31,0c-1.13,0-2-.29-2-.65l.46-6.12c0-.36.93-.65,2-.65h18.55c1.09,0,2,.3,2,.65l.3,6.13C311.53,463.37,310.62,463.66,309.49,463.66Z" transform="translate(0 -73.24)" style="fill:#939598"/><path d="M336.84,463.68l-19.3,0c-1.14,0-2.08-.29-2.1-.65l-.43-6.12c0-.36.84-.65,1.93-.65h18.54c1.09,0,2,.3,2.1.66l1.19,6.12C338.84,463.39,338,463.68,336.84,463.68Z" transform="translate(0 -73.24)" style="fill:#939598"/><path d="M364.2,463.7l-19.31,0c-1.13,0-2.11-.29-2.19-.65l-1.33-6.12c-.07-.36.75-.65,1.84-.65h18.54c1.09,0,2.07.3,2.19.66l2.09,6.12C366.15,463.41,365.33,463.7,364.2,463.7Z" transform="translate(0 -73.24)" style="fill:#939598"/><path d="M391.55,463.72l-19.3,0c-1.14,0-2.16-.29-2.29-.65l-2.22-6.12c-.13-.36.65-.65,1.74-.65H388c1.09,0,2.11.3,2.29.66l3,6.12C393.47,463.43,392.69,463.72,391.55,463.72Z" transform="translate(0 -73.24)" style="fill:#939598"/><path d="M418.91,463.74H399.6c-1.13,0-2.2-.3-2.38-.66L394.11,457c-.19-.36.55-.65,1.64-.65h18.54a3.56,3.56,0,0,1,2.39.66l3.87,6.12C420.78,463.45,420,463.74,418.91,463.74Z" transform="translate(0 -73.24)" style="fill:#939598"/><path d="M446.26,463.76H427a3.69,3.69,0,0,1-2.48-.66l-4-6.12c-.23-.36.46-.65,1.55-.65l18.54,0A3.91,3.91,0,0,1,443,457l4.77,6.12C448.09,463.47,447.4,463.76,446.26,463.76Z" transform="translate(0 -73.24)" style="fill:#939598"/><path d="M473.62,463.78H454.31a4.13,4.13,0,0,1-2.57-.65l-4.9-6.13c-.29-.36.36-.65,1.45-.65l18.54,0a4.37,4.37,0,0,1,2.58.65l5.66,6.12C475.4,463.49,474.75,463.78,473.62,463.78Z" transform="translate(0 -73.24)" style="fill:#939598"/><path d="M501.09,463.81l-19.31,0a4.61,4.61,0,0,1-2.67-.65L473.32,457c-.34-.36.26-.65,1.35-.65l18.54,0a4.83,4.83,0,0,1,2.67.65l6.56,6.13C502.83,463.52,502.22,463.81,501.09,463.81Z" transform="translate(0 -73.24)" style="fill:#939598"/><path d="M154.36,472.19l-64.83-.05c-1.19,0-1.83-.29-1.44-.65l6.71-6.12a5.3,5.3,0,0,1,2.78-.64l62.38,0c1.15,0,1.85.3,1.59.66L157,471.54A4.23,4.23,0,0,1,154.36,472.19Z" transform="translate(0 -73.24)" style="fill:#939598"/><path d="M182.94,472.22l-20.2,0c-1.18,0-1.93-.29-1.67-.65l4.42-6.12a3.94,3.94,0,0,1,2.54-.65l19.43,0c1.14,0,1.89.29,1.68.65l-3.66,6.12C185.27,471.93,184.13,472.22,182.94,472.22Z" transform="translate(0 -73.24)" style="fill:#939598"/><path d="M211.68,472.24l-20.2,0c-1.19,0-2-.29-1.77-.65l3.52-6.12a3.55,3.55,0,0,1,2.45-.65l19.43,0c1.14,0,1.94.29,1.77.65l-2.76,6.12C214,472,212.87,472.24,211.68,472.24Z" transform="translate(0 -73.24)" style="fill:#939598"/><path d="M240.3,472.26l-20.2,0c-1.19,0-2-.29-1.87-.65l2.63-6.12c.16-.36,1.21-.65,2.35-.65l19.43,0c1.15,0,2,.29,1.87.65l-1.87,6.12C242.53,472,241.48,472.26,240.3,472.26Z" transform="translate(0 -73.24)" style="fill:#939598"/><path d="M268.92,472.28h-20.2c-1.19,0-2.07-.3-2-.66l1.74-6.11c.11-.36,1.11-.65,2.26-.65h19.43c1.14,0,2,.29,2,.65l-1,6.12C271.11,472,270.1,472.28,268.92,472.28Z" transform="translate(0 -73.24)" style="fill:#939598"/><path d="M297.53,472.31l-20.2,0c-1.18,0-2.1-.29-2.05-.65l.84-6.12c.05-.36,1-.65,2.16-.65h19.44c1.14,0,2.06.3,2,.66l-.08,6.12C299.69,472,298.72,472.31,297.53,472.31Z" transform="translate(0 -73.24)" style="fill:#939598"/><path d="M326.15,472.33l-20.2,0c-1.18,0-2.15-.29-2.15-.65l-.05-6.12c0-.36.92-.65,2.07-.65h19.43c1.14,0,2.11.3,2.15.66l.81,6.12C328.26,472,327.34,472.33,326.15,472.33Z" transform="translate(0 -73.24)" style="fill:#939598"/><path d="M354.77,472.35l-20.2,0c-1.18,0-2.19-.29-2.25-.65l-.94-6.12c-.05-.36.83-.65,2-.65l19.44,0c1.14,0,2.14.29,2.24.65l1.71,6.12C356.84,472.06,356,472.35,354.77,472.35Z" transform="translate(0 -73.24)" style="fill:#939598"/><path d="M383.39,472.37h-20.2c-1.19,0-2.24-.3-2.34-.66L359,465.58c-.1-.36.73-.65,1.88-.65l19.43,0c1.14,0,2.19.29,2.34.65l2.6,6.12C385.41,472.08,384.58,472.37,383.39,472.37Z" transform="translate(0 -73.24)" style="fill:#939598"/><path d="M412,472.4l-20.2,0c-1.19,0-2.28-.29-2.44-.65l-2.73-6.13c-.16-.36.64-.65,1.78-.65l19.44,0c1.14,0,2.23.29,2.43.65l3.49,6.13C414,472.11,413.19,472.4,412,472.4Z" transform="translate(0 -73.24)" style="fill:#939598"/><path d="M440.63,472.42l-20.2,0a3.78,3.78,0,0,1-2.54-.65l-3.62-6.12c-.21-.36.54-.66,1.69-.65h19.43a3.91,3.91,0,0,1,2.53.65l4.39,6.13C442.57,472.13,441.81,472.42,440.63,472.42Z" transform="translate(0 -73.24)" style="fill:#939598"/><path d="M469.24,472.44l-20.19,0a4.17,4.17,0,0,1-2.63-.65l-4.52-6.12c-.26-.36.45-.65,1.59-.65h19.44a4.41,4.41,0,0,1,2.63.66l5.27,6.12C471.14,472.15,470.43,472.44,469.24,472.44Z" transform="translate(0 -73.24)" style="fill:#939598"/><path d="M510.27,472.47l-32.49,0a4.65,4.65,0,0,1-2.72-.66l-5.41-6.12c-.32-.36.35-.65,1.49-.65l31.26,0a5,5,0,0,1,2.76.66l6.56,6.12C512.1,472.18,511.45,472.47,510.27,472.47Z" transform="translate(0 -73.24)" style="fill:#939598"/><path d="M599.45,512.81c-1.54,1.37-6.41,2.29-13.34,2.29l-572.32-.45c-6.9,0-11.74-.93-13.27-2.3-2.33,2.4,3.36,4.3,13.27,4.3l572.32.45C596,517.11,601.77,515.22,599.45,512.81Z" transform="translate(0 -73.24)" style="fill:#f1f2f2"/><path d="M502.7,179.09a16,16,0,0,0-16-16l-373.34-.29a15.9,15.9,0,0,0-8.69,2.58l397.8,254.38Z" transform="translate(0 -73.24)" style="fill:#fff;opacity:0.03"/><path d="M309.71,336.21V320l-14.16-1.57a39.55,39.55,0,0,0-4.42-10.63l8.92-11.13-11.47-11.48-11.15,8.93a39.48,39.48,0,0,0-10.61-4.39l-1.57-14.2H249l-1.57,14.2a39.35,39.35,0,0,0-10.61,4.39l-11.15-8.93-11.47,11.48,8.91,11.13a39.52,39.52,0,0,0-4.41,10.63L204.55,320v16.22l14.15,1.57a39.4,39.4,0,0,0,4.41,10.66l-8.89,11.1L225.69,371l11.09-8.88a39.76,39.76,0,0,0,10.68,4.43L249,380.68h16.23l1.56-14.11a39.69,39.69,0,0,0,10.67-4.43l11.1,8.88,11.47-11.48-8.89-11.1a39.4,39.4,0,0,0,4.41-10.66Zm-52.58,12a20,20,0,1,1,20-20A20,20,0,0,1,257.13,348.17Z" transform="translate(0 -73.24)" style="fill:#89e7d5"/><path d="M452.1,288.07V264.55l-20.55-2.28a57,57,0,0,0-6.4-15.41l12.93-16.15-16.64-16.64-16.17,13a57.09,57.09,0,0,0-15.38-6.37l-2.28-20.59H364.08l-2.28,20.59A57.09,57.09,0,0,0,346.42,227l-16.17-13-16.64,16.64,12.93,16.15a57,57,0,0,0-6.4,15.41l-20.55,2.28v23.52l20.52,2.28a57.33,57.33,0,0,0,6.39,15.46l-12.89,16.1,16.64,16.64,16.08-12.88a57.08,57.08,0,0,0,15.48,6.42l2.27,20.47h23.53l2.27-20.47a57.08,57.08,0,0,0,15.48-6.42l16.08,12.88,16.64-16.64-12.89-16.1a57.33,57.33,0,0,0,6.39-15.46Zm-76.26,17.35a29.05,29.05,0,1,1,29.06-29.05A29.05,29.05,0,0,1,375.84,305.42Z" transform="translate(0 -73.24)" style="fill:#7ed5c5"/><path d="M326.28,191.11V159.6l-27.51-3a76.45,76.45,0,0,0-8.58-20.63l17.32-21.63L285.23,92l-21.66,17.33a76.78,76.78,0,0,0-20.6-8.53l-3.05-27.57H208.4l-3.05,27.57a76.78,76.78,0,0,0-20.6,8.53L163.09,92l-22.28,22.28,17.32,21.63a76.45,76.45,0,0,0-8.58,20.63l-27.51,3v31.51l27.47,3a76.72,76.72,0,0,0,8.56,20.7l-17.26,21.57,22.28,22.28,21.54-17.25a76.64,76.64,0,0,0,20.74,8.61l3,27.41h31.52l3-27.41a76.32,76.32,0,0,0,20.74-8.61l21.54,17.25,22.28-22.28-17.26-21.57a76.72,76.72,0,0,0,8.56-20.7ZM224.16,214.34a38.91,38.91,0,1,1,38.91-38.9A38.9,38.9,0,0,1,224.16,214.34Z" transform="translate(0 -73.24)" style="fill:#6cb6a8"/></svg>