<svg id="Ebene_1" data-name="Ebene 1" xmlns="http://www.w3.org/2000/svg" viewBox="0 0 600 355.53"><path d="M590.8,451.3v18.34a6.27,6.27,0,0,1-1.44,3.95,8.51,8.51,0,0,1-4,2.64,8.84,8.84,0,0,1-1.54.36,9.17,9.17,0,0,1-1.49.11H234.54c-4.2,0-7.72-2.61-8.34-6a5.2,5.2,0,0,1-.07-.69V450.93a5.05,5.05,0,0,1,.07-.68c.62-3.39,4.14-6,8.34-6H582.38a10.46,10.46,0,0,1,1.49.1,9.88,9.88,0,0,1,1.54.37,8.31,8.31,0,0,1,4,2.65A6.24,6.24,0,0,1,590.8,451.3Z" transform="translate(0 -122.23)" style="fill:#ffe882"/><path d="M420,476.7H233.64a7.46,7.46,0,0,1-7.24-5.24,6.2,6.2,0,0,1-.2-.77,5.2,5.2,0,0,1-.07-.69V450.93a5.05,5.05,0,0,1,.07-.68,6.69,6.69,0,0,1,.2-.77,7.46,7.46,0,0,1,7.24-5.24H397.1A56.93,56.93,0,0,0,420,476.7Z" transform="translate(0 -122.23)" style="fill:#ebda8a"/><rect x="544.52" y="322" width="3.95" height="32.47" style="fill:#ebda8a"/><rect x="531.13" y="322" width="3.95" height="32.47" style="fill:#ebda8a"/><rect x="515.09" y="322" width="3.95" height="32.47" style="fill:#ebda8a"/><rect x="490.49" y="322" width="3.95" height="32.47" style="fill:#ebda8a"/><rect x="464.48" y="322" width="3.95" height="32.47" style="fill:#ebda8a"/><rect x="424.6" y="322" width="3.95" height="32.47" style="fill:#ebda8a"/><rect x="387.26" y="322" width="3.95" height="32.47" style="fill:#ebda8a"/><rect x="353.92" y="322" width="3.95" height="32.47" style="fill:#ebda8a"/><rect x="557.26" y="322" width="3.95" height="32.47" style="fill:#ebda8a"/><rect x="565.67" y="322" width="3.95" height="32.47" style="fill:#ebda8a"/><rect x="573.8" y="322" width="3.95" height="32.47" style="fill:#ebda8a"/><path d="M583.87,444.35v32.24a9.17,9.17,0,0,1-1.49.12h-2.47V444.23h2.47A9.17,9.17,0,0,1,583.87,444.35Z" transform="translate(0 -122.23)" style="fill:#ebda8a"/><path d="M589.35,447.36v26.23a8.35,8.35,0,0,1-3.94,2.64V444.71A8.3,8.3,0,0,1,589.35,447.36Z" transform="translate(0 -122.23)" style="fill:#ebda8a"/><path d="M553.6,418.83v18.34a6.23,6.23,0,0,1-1.43,3.94,8.43,8.43,0,0,1-3.95,2.65,10,10,0,0,1-1.55.37l-.73.08q-.37,0-.75,0H197.35c-4.2,0-7.72-2.63-8.33-6a4.06,4.06,0,0,1-.08-.69c0-.12,0-.25,0-.36V418.83c0-.12,0-.25,0-.36a3.94,3.94,0,0,1,.08-.69c.61-3.4,4.13-6,8.33-6H545.19c.23,0,.46,0,.67,0l.24,0h0l.32,0,.22,0a9,9,0,0,1,1.55.36l.21.07.22.08.16.07.26.1.24.11.07,0,.15.07.39.21a9.16,9.16,0,0,1,1,.67l.41.35a7.66,7.66,0,0,1,.84.87A6.24,6.24,0,0,1,553.6,418.83Z" transform="translate(0 -122.23)" style="fill:#ffe882"/><path d="M382.79,444.24H196.45a7.48,7.48,0,0,1-7.24-5.25,5.41,5.41,0,0,1-.19-.77,4.06,4.06,0,0,1-.08-.69c0-.12,0-.25,0-.36V418.83c0-.12,0-.25,0-.36a3.94,3.94,0,0,1,.08-.69,4.37,4.37,0,0,1,.2-.77,7.44,7.44,0,0,1,7.23-5.25H359.9c.08.26.15.54.23.8A59.2,59.2,0,0,0,367.7,429,55.48,55.48,0,0,0,382.79,444.24Z" transform="translate(0 -122.23)" style="fill:#ebda8a"/><rect x="507.33" y="289.53" width="3.95" height="32.47" style="fill:#ebda8a"/><rect x="493.94" y="289.53" width="3.95" height="32.47" style="fill:#ebda8a"/><rect x="477.9" y="289.53" width="3.95" height="32.47" style="fill:#ebda8a"/><rect x="453.3" y="289.53" width="3.95" height="32.47" style="fill:#ebda8a"/><rect x="427.29" y="289.53" width="3.95" height="32.47" style="fill:#ebda8a"/><rect x="387.41" y="289.53" width="3.95" height="32.47" style="fill:#ebda8a"/><rect x="350.07" y="289.53" width="3.95" height="32.47" style="fill:#ebda8a"/><rect x="316.73" y="289.53" width="3.95" height="32.47" style="fill:#ebda8a"/><rect x="520.07" y="289.53" width="3.95" height="32.47" style="fill:#ebda8a"/><rect x="528.48" y="289.53" width="3.95" height="32.47" style="fill:#ebda8a"/><rect x="536.61" y="289.53" width="3.95" height="32.47" style="fill:#ebda8a"/><path d="M546.67,411.87v32.25a10.2,10.2,0,0,1-1.48.11h-2.47V411.76h2.47A10.2,10.2,0,0,1,546.67,411.87Z" transform="translate(0 -122.23)" style="fill:#ebda8a"/><path d="M552.16,414.88v26.23a8.35,8.35,0,0,1-3.95,2.65V412.24A8.26,8.26,0,0,1,552.16,414.88Z" transform="translate(0 -122.23)" style="fill:#ebda8a"/><path d="M571.58,387.15v18.34a6.25,6.25,0,0,1-1.44,3.95,8.48,8.48,0,0,1-3.95,2.64,8.76,8.76,0,0,1-1.55.37,9,9,0,0,1-1.48.11H215.32a9.64,9.64,0,0,1-3.88-.8,7.22,7.22,0,0,1-4.5-5.59,1.58,1.58,0,0,1,0-.32c0-.11,0-.23,0-.36V387.15c0-.11,0-.24,0-.36a4.06,4.06,0,0,1,.08-.69c.61-3.39,4.13-6,8.33-6H563.16a10.19,10.19,0,0,1,1.48.12,9.72,9.72,0,0,1,1.55.36,8.43,8.43,0,0,1,3.95,2.65A6.24,6.24,0,0,1,571.58,387.15Z" transform="translate(0 -122.23)" style="fill:#ffe882"/><path d="M400.77,412.56H214.41a7.86,7.86,0,0,1-3.46-.8,7.08,7.08,0,0,1-4-5.59,1.58,1.58,0,0,1,0-.32c0-.11,0-.23,0-.36V387.15c0-.11,0-.24,0-.36a4.06,4.06,0,0,1,.08-.69,6.53,6.53,0,0,1,.2-.76,7.46,7.46,0,0,1,7.22-5.26H377.89a59.81,59.81,0,0,0,5,12.68,55.63,55.63,0,0,0,16.69,19C400,412,400.38,412.3,400.77,412.56Z" transform="translate(0 -122.23)" style="fill:#ebda8a"/><rect x="525.3" y="257.85" width="3.95" height="32.47" style="fill:#ebda8a"/><rect x="511.92" y="257.85" width="3.95" height="32.47" style="fill:#ebda8a"/><rect x="495.87" y="257.85" width="3.95" height="32.47" style="fill:#ebda8a"/><rect x="471.27" y="257.85" width="3.95" height="32.47" style="fill:#ebda8a"/><rect x="445.26" y="257.85" width="3.95" height="32.47" style="fill:#ebda8a"/><rect x="405.38" y="257.85" width="3.95" height="32.47" style="fill:#ebda8a"/><rect x="368.05" y="257.85" width="3.95" height="32.47" style="fill:#ebda8a"/><rect x="334.71" y="257.85" width="3.95" height="32.47" style="fill:#ebda8a"/><rect x="538.04" y="257.85" width="3.95" height="32.47" style="fill:#ebda8a"/><rect x="546.45" y="257.85" width="3.95" height="32.47" style="fill:#ebda8a"/><rect x="554.58" y="257.85" width="3.95" height="32.47" style="fill:#ebda8a"/><path d="M564.65,380.2v32.25a10.45,10.45,0,0,1-1.49.11h-2.47V380.09h2.47A10.45,10.45,0,0,1,564.65,380.2Z" transform="translate(0 -122.23)" style="fill:#ebda8a"/><path d="M570.14,383.21v26.23a8.36,8.36,0,0,1-3.95,2.64V380.56A8.45,8.45,0,0,1,570.14,383.21Z" transform="translate(0 -122.23)" style="fill:#ebda8a"/><path d="M579.91,354.69V373a6.17,6.17,0,0,1-1.45,3.94,7.88,7.88,0,0,1-.79.85,8.62,8.62,0,0,1-3.15,1.81A9.86,9.86,0,0,1,573,380l-.73.08-.75,0H223.66c-4.21,0-7.72-2.62-8.34-6a4.87,4.87,0,0,1-.08-.68c0-.13,0-.25,0-.37V354.69c0-.13,0-.25,0-.37s0-.43.07-.64c.54-3.15,3.58-5.63,7.34-6,.33,0,.66,0,1,0H571.5a9,9,0,0,1,1.48.11,8,8,0,0,1,1.54.37,8.21,8.21,0,0,1,3.94,2.64A6.18,6.18,0,0,1,579.91,354.69Z" transform="translate(0 -122.23)" style="fill:#ffe882"/><path d="M409.1,380.08H222.74a7.44,7.44,0,0,1-7.22-5.24,6.69,6.69,0,0,1-.2-.77,4.87,4.87,0,0,1-.08-.68c0-.13,0-.25,0-.37V354.69c0-.13,0-.25,0-.37s0-.43.07-.64a7.38,7.38,0,0,1,6.55-6,8.64,8.64,0,0,1,.88,0H386.22a.06.06,0,0,0,0,0,60.75,60.75,0,0,0,4.12,10.85A55.77,55.77,0,0,0,409.1,380.08Z" transform="translate(0 -122.23)" style="fill:#ebda8a"/><rect x="533.63" y="225.38" width="3.95" height="32.47" style="fill:#ebda8a"/><rect x="520.25" y="225.38" width="3.95" height="32.47" style="fill:#ebda8a"/><rect x="504.2" y="225.38" width="3.95" height="32.47" style="fill:#ebda8a"/><rect x="479.6" y="225.38" width="3.95" height="32.47" style="fill:#ebda8a"/><rect x="453.59" y="225.38" width="3.95" height="32.47" style="fill:#ebda8a"/><rect x="413.71" y="225.38" width="3.95" height="32.47" style="fill:#ebda8a"/><rect x="376.38" y="225.38" width="3.95" height="32.47" style="fill:#ebda8a"/><rect x="343.04" y="225.38" width="3.95" height="32.47" style="fill:#ebda8a"/><rect x="546.37" y="225.38" width="3.95" height="32.47" style="fill:#ebda8a"/><rect x="554.78" y="225.38" width="3.95" height="32.47" style="fill:#ebda8a"/><rect x="562.91" y="225.38" width="3.95" height="32.47" style="fill:#ebda8a"/><path d="M573,347.73V380a9.17,9.17,0,0,1-1.49.12H569V347.61h2.47A9.17,9.17,0,0,1,573,347.73Z" transform="translate(0 -122.23)" style="fill:#ebda8a"/><path d="M578.47,350.74V377a8.43,8.43,0,0,1-4,2.64V348.09A8.38,8.38,0,0,1,578.47,350.74Z" transform="translate(0 -122.23)" style="fill:#ebda8a"/><path d="M554.34,322.25v18.34a6.23,6.23,0,0,1-1.44,4,8.36,8.36,0,0,1-3.95,2.64,8,8,0,0,1-1.54.37l-.49.07h-.07l-.48,0H198.08c-4.2,0-7.72-2.61-8.34-6,0-.22-.06-.46-.08-.69V321.89a1.39,1.39,0,0,0,0-.3c.34-3,2.92-5.45,6.31-6.18l.26-.05a9.86,9.86,0,0,1,1.82-.16H545.92l.75,0c.11,0,.23,0,.33,0h0l.4.05a9.86,9.86,0,0,1,1.54.36,8.39,8.39,0,0,1,3.95,2.66A6.21,6.21,0,0,1,554.34,322.25Z" transform="translate(0 -122.23)" style="fill:#ffe882"/><path d="M383.52,347.66H197.18a7.45,7.45,0,0,1-7.24-5.24,6.69,6.69,0,0,1-.2-.77c0-.22-.06-.46-.08-.69V321.89a1.39,1.39,0,0,0,0-.3,7.25,7.25,0,0,1,5.84-6.22l.32-.07a8.24,8.24,0,0,1,1.33-.1H360.64a1.87,1.87,0,0,1,.07.22,56.86,56.86,0,0,0,22.75,32.2Z" transform="translate(0 -122.23)" style="fill:#ebda8a"/><rect x="508.06" y="192.96" width="3.95" height="32.47" style="fill:#ebda8a"/><rect x="494.67" y="192.96" width="3.95" height="32.47" style="fill:#ebda8a"/><rect x="478.63" y="192.96" width="3.95" height="32.47" style="fill:#ebda8a"/><rect x="454.03" y="192.96" width="3.95" height="32.47" style="fill:#ebda8a"/><rect x="428.02" y="192.96" width="3.95" height="32.47" style="fill:#ebda8a"/><rect x="388.14" y="192.96" width="3.95" height="32.47" style="fill:#ebda8a"/><rect x="350.8" y="192.96" width="3.95" height="32.47" style="fill:#ebda8a"/><rect x="317.46" y="192.96" width="3.95" height="32.47" style="fill:#ebda8a"/><rect x="520.8" y="192.96" width="3.95" height="32.47" style="fill:#ebda8a"/><rect x="529.21" y="192.96" width="3.95" height="32.47" style="fill:#ebda8a"/><rect x="537.34" y="192.96" width="3.95" height="32.47" style="fill:#ebda8a"/><path d="M547.41,315.3v32.25a9.17,9.17,0,0,1-1.49.11h-2.47V315.19h2.47A10.45,10.45,0,0,1,547.41,315.3Z" transform="translate(0 -122.23)" style="fill:#ebda8a"/><path d="M552.9,318.31v26.23a8.45,8.45,0,0,1-3.95,2.65V315.67A8.36,8.36,0,0,1,552.9,318.31Z" transform="translate(0 -122.23)" style="fill:#ebda8a"/><path d="M553.6,290v18.34a6.3,6.3,0,0,1-1.43,3.95,8.56,8.56,0,0,1-3.95,2.64,11.88,11.88,0,0,1-1.21.3h0a3.23,3.23,0,0,1-.33.06,10.2,10.2,0,0,1-1.48.11H197.35a9.69,9.69,0,0,1-1.09-.06,2.7,2.7,0,0,1-.41-.06c-3.54-.54-6.34-3-6.85-6a5.8,5.8,0,0,1-.06-.6c0-.12,0-.24,0-.36V290c0-.13,0-.24,0-.37A3.94,3.94,0,0,1,189,289c.61-3.4,4.13-6,8.33-6H545.19l.67,0h.27l.32,0,.22,0a10,10,0,0,1,1.55.37l.21.07.22.08.16.06.26.11h0l.2.09a8.37,8.37,0,0,1,1.63,1l.41.34c.12.11.25.23.36.35s.1.12.16.17l.32.36A6.24,6.24,0,0,1,553.6,290Z" transform="translate(0 -122.23)" style="fill:#ffe882"/><path d="M382.79,315.42H196l-.47,0a7.35,7.35,0,0,1-6.53-6.05,5.8,5.8,0,0,1-.06-.6c0-.12,0-.24,0-.36V290c0-.13,0-.24,0-.37A3.94,3.94,0,0,1,189,289a4.15,4.15,0,0,1,.2-.77,7.43,7.43,0,0,1,7.23-5.25H359.9c.08.26.15.53.23.8a57,57,0,0,0,22.33,31.45Z" transform="translate(0 -122.23)" style="fill:#ebda8a"/><rect x="507.33" y="160.72" width="3.95" height="32.47" style="fill:#ebda8a"/><rect x="493.94" y="160.72" width="3.95" height="32.47" style="fill:#ebda8a"/><rect x="477.9" y="160.72" width="3.95" height="32.47" style="fill:#ebda8a"/><rect x="453.3" y="160.72" width="3.95" height="32.47" style="fill:#ebda8a"/><rect x="427.29" y="160.72" width="3.95" height="32.47" style="fill:#ebda8a"/><rect x="387.41" y="160.72" width="3.95" height="32.47" style="fill:#ebda8a"/><rect x="350.07" y="160.72" width="3.95" height="32.47" style="fill:#ebda8a"/><rect x="316.73" y="160.72" width="3.95" height="32.47" style="fill:#ebda8a"/><rect x="520.07" y="160.72" width="3.95" height="32.47" style="fill:#ebda8a"/><rect x="528.48" y="160.72" width="3.95" height="32.47" style="fill:#ebda8a"/><rect x="536.61" y="160.72" width="3.95" height="32.47" style="fill:#ebda8a"/><path d="M546.67,283.06v32.25a10.2,10.2,0,0,1-1.48.11h-2.47V283h2.47A10.2,10.2,0,0,1,546.67,283.06Z" transform="translate(0 -122.23)" style="fill:#ebda8a"/><path d="M552.16,286.07V312.3a8.35,8.35,0,0,1-3.95,2.65V283.43A8.26,8.26,0,0,1,552.16,286.07Z" transform="translate(0 -122.23)" style="fill:#ebda8a"/><path d="M571.58,258.35v18.34a6.26,6.26,0,0,1-1.44,3.94,8.43,8.43,0,0,1-3.95,2.65,8.73,8.73,0,0,1-1.55.35,6.16,6.16,0,0,1-.72.09l-.76,0H215.32a9.64,9.64,0,0,1-3.88-.8,7.23,7.23,0,0,1-4.5-5.59,1.66,1.66,0,0,1,0-.32c0-.11,0-.24,0-.35V258.35c0-.13,0-.25,0-.37a3.94,3.94,0,0,1,.08-.68c.61-3.4,4.13-6,8.33-6H563.16a9,9,0,0,1,1.48.11,8.76,8.76,0,0,1,1.55.37,8.41,8.41,0,0,1,3.95,2.64A6.25,6.25,0,0,1,571.58,258.35Z" transform="translate(0 -122.23)" style="fill:#ffe882"/><path d="M400.77,283.75H214.41A7.86,7.86,0,0,1,211,283a7.09,7.09,0,0,1-4-5.59,1.66,1.66,0,0,1,0-.32c0-.11,0-.24,0-.35V258.35c0-.13,0-.25,0-.37a3.94,3.94,0,0,1,.08-.68,6.69,6.69,0,0,1,.2-.77,7.44,7.44,0,0,1,7.22-5.25H377.89A56.93,56.93,0,0,0,399.62,283Z" transform="translate(0 -122.23)" style="fill:#ebda8a"/><rect x="525.3" y="129.04" width="3.95" height="32.47" style="fill:#ebda8a"/><rect x="511.92" y="129.04" width="3.95" height="32.47" style="fill:#ebda8a"/><rect x="495.87" y="129.04" width="3.95" height="32.47" style="fill:#ebda8a"/><rect x="471.27" y="129.04" width="3.95" height="32.47" style="fill:#ebda8a"/><rect x="445.26" y="129.04" width="3.95" height="32.47" style="fill:#ebda8a"/><rect x="405.38" y="129.04" width="3.95" height="32.47" style="fill:#ebda8a"/><rect x="368.05" y="129.04" width="3.95" height="32.47" style="fill:#ebda8a"/><rect x="334.71" y="129.04" width="3.95" height="32.47" style="fill:#ebda8a"/><rect x="538.04" y="129.04" width="3.95" height="32.47" style="fill:#ebda8a"/><rect x="546.45" y="129.04" width="3.95" height="32.47" style="fill:#ebda8a"/><rect x="554.58" y="129.04" width="3.95" height="32.47" style="fill:#ebda8a"/><path d="M564.65,251.39v32.25a10.45,10.45,0,0,1-1.49.11h-2.47V251.28h2.47A10.45,10.45,0,0,1,564.65,251.39Z" transform="translate(0 -122.23)" style="fill:#ebda8a"/><path d="M570.14,254.4v26.23a8.36,8.36,0,0,1-3.95,2.64V251.75A8.45,8.45,0,0,1,570.14,254.4Z" transform="translate(0 -122.23)" style="fill:#ebda8a"/><path d="M600,225.87v18.34a6.23,6.23,0,0,1-1.43,3.94,5.39,5.39,0,0,1-.39.43,8.31,8.31,0,0,1-3.56,2.22,9.88,9.88,0,0,1-1.54.37,12.15,12.15,0,0,1-1.49.11H243.75c-4.2,0-7.72-2.62-8.34-6,0-.22-.06-.46-.08-.68s0-.24,0-.37V225.87c0-.12,0-.24,0-.36.22-3.44,3.4-6.25,7.41-6.66a8.54,8.54,0,0,1,1,0H591.59a9.17,9.17,0,0,1,1.49.12,8.84,8.84,0,0,1,1.54.36,8.48,8.48,0,0,1,3.56,2.21c.14.14.26.28.39.43A6.28,6.28,0,0,1,600,225.87Z" transform="translate(0 -122.23)" style="fill:#ffe882"/><path d="M429.19,251.28H242.84a7.45,7.45,0,0,1-7.23-5.25,6.69,6.69,0,0,1-.2-.77c0-.22-.06-.46-.08-.68s0-.24,0-.37V225.87c0-.12,0-.24,0-.36a7.52,7.52,0,0,1,.15-.95,7.38,7.38,0,0,1,6.47-5.71,6.55,6.55,0,0,1,.89,0H406.31v0A57,57,0,0,0,429.19,251.28Z" transform="translate(0 -122.23)" style="fill:#ebda8a"/><rect x="553.73" y="96.57" width="3.95" height="32.47" style="fill:#ebda8a"/><rect x="540.34" y="96.57" width="3.95" height="32.47" style="fill:#ebda8a"/><rect x="524.3" y="96.57" width="3.95" height="32.47" style="fill:#ebda8a"/><rect x="499.7" y="96.57" width="3.95" height="32.47" style="fill:#ebda8a"/><rect x="473.69" y="96.57" width="3.95" height="32.47" style="fill:#ebda8a"/><rect x="433.81" y="96.57" width="3.95" height="32.47" style="fill:#ebda8a"/><rect x="396.47" y="96.57" width="3.95" height="32.47" style="fill:#ebda8a"/><rect x="363.13" y="96.57" width="3.95" height="32.47" style="fill:#ebda8a"/><rect x="566.46" y="96.57" width="3.95" height="32.47" style="fill:#ebda8a"/><rect x="574.88" y="96.57" width="3.95" height="32.47" style="fill:#ebda8a"/><rect x="583.01" y="96.57" width="3.95" height="32.47" style="fill:#ebda8a"/><path d="M593.07,218.92v32.24a9,9,0,0,1-1.48.12h-2.47V218.8h2.47A9,9,0,0,1,593.07,218.92Z" transform="translate(0 -122.23)" style="fill:#ebda8a"/><path d="M598.56,221.92v26.24a8.38,8.38,0,0,1-3.95,2.64V219.28A8.38,8.38,0,0,1,598.56,221.92Z" transform="translate(0 -122.23)" style="fill:#ebda8a"/><path d="M554.34,193.45v18.34a6.24,6.24,0,0,1-1.44,3.94,8.31,8.31,0,0,1-3.95,2.65,9.88,9.88,0,0,1-1.54.37l-.49.05h0l-.24,0H198.08c-4.2,0-7.72-2.62-8.34-6,0-.22-.06-.46-.08-.68V193.09c0-.23,0-.47.08-.7.62-3.39,4.14-6,8.34-6H545.92a3.24,3.24,0,0,1,.45,0h0c.14,0,.26,0,.39,0a4.25,4.25,0,0,1,.6.07,8.84,8.84,0,0,1,1.54.36l.59.22a.27.27,0,0,1,.12.06h0a8.16,8.16,0,0,1,3.22,2.36A6.25,6.25,0,0,1,554.34,193.45Z" transform="translate(0 -122.23)" style="fill:#ffe882"/><path d="M383.52,218.85H197.18a7.46,7.46,0,0,1-7.24-5.24,6.69,6.69,0,0,1-.2-.77c0-.22-.06-.46-.08-.68V193.09c0-.23,0-.47.08-.7a7.27,7.27,0,0,1,.2-.77,7.46,7.46,0,0,1,7.24-5.24H360.64l.22.76a56.73,56.73,0,0,0,22.6,31.66Z" transform="translate(0 -122.23)" style="fill:#ebda8a"/><rect x="508.06" y="64.15" width="3.95" height="32.47" style="fill:#ebda8a"/><rect x="494.67" y="64.15" width="3.95" height="32.47" style="fill:#ebda8a"/><rect x="478.63" y="64.15" width="3.95" height="32.47" style="fill:#ebda8a"/><rect x="454.03" y="64.15" width="3.95" height="32.47" style="fill:#ebda8a"/><rect x="428.02" y="64.15" width="3.95" height="32.47" style="fill:#ebda8a"/><rect x="388.14" y="64.15" width="3.95" height="32.47" style="fill:#ebda8a"/><rect x="350.8" y="64.15" width="3.95" height="32.47" style="fill:#ebda8a"/><rect x="317.46" y="64.15" width="3.95" height="32.47" style="fill:#ebda8a"/><rect x="520.8" y="64.15" width="3.95" height="32.47" style="fill:#ebda8a"/><rect x="529.21" y="64.15" width="3.95" height="32.47" style="fill:#ebda8a"/><rect x="537.34" y="64.15" width="3.95" height="32.47" style="fill:#ebda8a"/><path d="M547.41,186.49v32.25a9.17,9.17,0,0,1-1.49.11h-2.47V186.38h2.47A10.45,10.45,0,0,1,547.41,186.49Z" transform="translate(0 -122.23)" style="fill:#ebda8a"/><path d="M552.9,189.5v26.23a8.45,8.45,0,0,1-3.95,2.65V186.86A8.36,8.36,0,0,1,552.9,189.5Z" transform="translate(0 -122.23)" style="fill:#ebda8a"/><path d="M579.91,161.73v18.34a6.17,6.17,0,0,1-1.45,3.93,8.32,8.32,0,0,1-3.94,2.66A9.86,9.86,0,0,1,573,187a10.31,10.31,0,0,1-1.48.12H223.66a9.68,9.68,0,0,1-3.77-.76,7.37,7.37,0,0,1-4.56-5.21,3.4,3.4,0,0,1-.06-.46,1.33,1.33,0,0,1,0-.28c0-.13,0-.25,0-.36V161.73c0-.13,0-.24,0-.37s0-.43.07-.64c.54-3.14,3.58-5.63,7.34-6,.33,0,.66,0,1,0H571.5c.3,0,.62,0,.93,0l.55.07a8.86,8.86,0,0,1,1.54.37,8.28,8.28,0,0,1,3.94,2.64A6.18,6.18,0,0,1,579.91,161.73Z" transform="translate(0 -122.23)" style="fill:#ffe882"/><path d="M409.1,187.14H222.74a7.73,7.73,0,0,1-3.34-.76,7.13,7.13,0,0,1-4.07-5.21,3.4,3.4,0,0,1-.06-.46,1.33,1.33,0,0,1,0-.28c0-.13,0-.25,0-.36V161.73c0-.13,0-.24,0-.37s0-.43.07-.64a7.38,7.38,0,0,1,6.55-6,8.64,8.64,0,0,1,.88,0H386.22a.06.06,0,0,0,0,0A56.94,56.94,0,0,0,408,186.38Z" transform="translate(0 -122.23)" style="fill:#ebda8a"/><rect x="533.63" y="32.42" width="3.95" height="32.47" style="fill:#ebda8a"/><rect x="520.25" y="32.42" width="3.95" height="32.47" style="fill:#ebda8a"/><rect x="504.2" y="32.42" width="3.95" height="32.47" style="fill:#ebda8a"/><rect x="479.6" y="32.42" width="3.95" height="32.47" style="fill:#ebda8a"/><rect x="453.59" y="32.42" width="3.95" height="32.47" style="fill:#ebda8a"/><rect x="413.71" y="32.42" width="3.95" height="32.47" style="fill:#ebda8a"/><rect x="376.38" y="32.42" width="3.95" height="32.47" style="fill:#ebda8a"/><rect x="343.04" y="32.42" width="3.95" height="32.47" style="fill:#ebda8a"/><rect x="546.37" y="32.42" width="3.95" height="32.47" style="fill:#ebda8a"/><rect x="554.78" y="32.42" width="3.95" height="32.47" style="fill:#ebda8a"/><rect x="562.91" y="32.42" width="3.95" height="32.47" style="fill:#ebda8a"/><path d="M573,154.77V187a10.45,10.45,0,0,1-1.49.11H569V154.66h2.47A10.45,10.45,0,0,1,573,154.77Z" transform="translate(0 -122.23)" style="fill:#ebda8a"/><path d="M578.47,157.78V184a8.36,8.36,0,0,1-4,2.64V155.13A8.45,8.45,0,0,1,578.47,157.78Z" transform="translate(0 -122.23)" style="fill:#ebda8a"/><path d="M590.8,129.31v18.34a6.21,6.21,0,0,1-1.44,3.93,6.4,6.4,0,0,1-.8.85,8.68,8.68,0,0,1-3.15,1.81,8.82,8.82,0,0,1-1.54.35,4.44,4.44,0,0,1-.49.07h-.2c-.27,0-.53,0-.8,0H234.54c-.31,0-.62,0-.92,0-3.79-.35-6.85-2.82-7.42-6a4.89,4.89,0,0,1-.07-.68V128.94a5.23,5.23,0,0,1,.07-.68c.62-3.4,4.14-6,8.34-6H582.38a9.17,9.17,0,0,1,1.49.11,8.86,8.86,0,0,1,1.54.37,8.29,8.29,0,0,1,4,2.64A6.23,6.23,0,0,1,590.8,129.31Z" transform="translate(0 -122.23)" style="fill:#ffe882"/><path d="M420,154.7H233.64a7.56,7.56,0,0,1-7.44-6,4.89,4.89,0,0,1-.07-.68V128.94a5.23,5.23,0,0,1,.07-.68,6.69,6.69,0,0,1,.2-.77,7.45,7.45,0,0,1,7.24-5.25H397.1a57,57,0,0,0,22.82,32.42Z" transform="translate(0 -122.23)" style="fill:#ebda8a"/><rect x="544.52" width="3.95" height="32.47" style="fill:#ebda8a"/><rect x="531.13" width="3.95" height="32.47" style="fill:#ebda8a"/><rect x="515.09" width="3.95" height="32.47" style="fill:#ebda8a"/><rect x="490.49" width="3.95" height="32.47" style="fill:#ebda8a"/><rect x="464.48" width="3.95" height="32.47" style="fill:#ebda8a"/><rect x="424.6" width="3.95" height="32.47" style="fill:#ebda8a"/><rect x="387.26" width="3.95" height="32.47" style="fill:#ebda8a"/><rect x="353.92" width="3.96" height="32.47" style="fill:#ebda8a"/><rect x="557.26" width="3.95" height="32.47" style="fill:#ebda8a"/><rect x="565.67" width="3.95" height="32.47" style="fill:#ebda8a"/><rect x="573.8" width="3.95" height="32.47" style="fill:#ebda8a"/><path d="M583.87,122.35v32.24a9.17,9.17,0,0,1-1.49.12h-2.47V122.23h2.47A9.17,9.17,0,0,1,583.87,122.35Z" transform="translate(0 -122.23)" style="fill:#ebda8a"/><path d="M589.35,125.36v26.23a8.35,8.35,0,0,1-3.94,2.64V122.71A8.3,8.3,0,0,1,589.35,125.36Z" transform="translate(0 -122.23)" style="fill:#ebda8a"/><path d="M392.09,331.43q0,8.18-.61,16.19v0q-.42,5.47-1.13,10.85a200.12,200.12,0,0,1-4,21.57q-1.51,6.44-3.46,12.68a197.84,197.84,0,0,1-6.93,19c-.1.26-.22.54-.34.8-2.4,5.63-5.07,11.13-8,16.45s-5.91,10.32-9.19,15.23c-.2.32-.42.63-.63.94-1.28,1.91-2.6,3.77-3.95,5.62A184,184,0,0,1,331,476.7H233.64a7.46,7.46,0,0,1-7.24-5.24,6.2,6.2,0,0,1-.2-.77,5.2,5.2,0,0,1-.07-.69V450.93a5.05,5.05,0,0,1,.07-.68,6.69,6.69,0,0,1,.2-.77,7.46,7.46,0,0,1,7.24-5.24H196.45a7.48,7.48,0,0,1-7.24-5.25,5.41,5.41,0,0,1-.19-.77,4.06,4.06,0,0,1-.08-.69c0-.12,0-.25,0-.36V418.83c0-.12,0-.25,0-.36a3.94,3.94,0,0,1,.08-.69,4.37,4.37,0,0,1,.2-.77,7.44,7.44,0,0,1,7.23-5.25H211a7.08,7.08,0,0,1-4-5.59,1.58,1.58,0,0,1,0-.32c0-.11,0-.23,0-.36V387.15c0-.11,0-.24,0-.36a4.06,4.06,0,0,1,.08-.69,6.53,6.53,0,0,1,.2-.76,7.46,7.46,0,0,1,7.22-5.26h8.33a7.44,7.44,0,0,1-7.22-5.24,6.69,6.69,0,0,1-.2-.77,4.87,4.87,0,0,1-.08-.68c0-.13,0-.25,0-.37V354.69c0-.13,0-.25,0-.37s0-.43.07-.64a7.38,7.38,0,0,1,6.55-6H197.18a7.45,7.45,0,0,1-7.24-5.24,6.69,6.69,0,0,1-.2-.77c0-.22-.06-.46-.08-.69V321.89a1.39,1.39,0,0,0,0-.3,7.25,7.25,0,0,1,5.84-6.22,7.35,7.35,0,0,1-6.53-6.05,5.8,5.8,0,0,1-.06-.6c0-.12,0-.24,0-.36V290c0-.13,0-.24,0-.37A3.94,3.94,0,0,1,189,289a4.15,4.15,0,0,1,.2-.77,7.43,7.43,0,0,1,7.23-5.25H211a7.09,7.09,0,0,1-4-5.59,1.66,1.66,0,0,1,0-.32c0-.11,0-.24,0-.35V258.35c0-.13,0-.25,0-.37a3.94,3.94,0,0,1,.08-.68,6.69,6.69,0,0,1,.2-.77,7.44,7.44,0,0,1,7.22-5.25h28.43a7.45,7.45,0,0,1-7.23-5.25,6.69,6.69,0,0,1-.2-.77c0-.22-.06-.46-.08-.68s0-.24,0-.37V225.87c0-.12,0-.24,0-.36a7.52,7.52,0,0,1,.15-.95,7.38,7.38,0,0,1,6.47-5.71H197.18a7.46,7.46,0,0,1-7.24-5.24,6.69,6.69,0,0,1-.2-.77c0-.22-.06-.46-.08-.68V193.09c0-.23,0-.47.08-.7a7.27,7.27,0,0,1,.2-.77,7.46,7.46,0,0,1,7.24-5.24H219.4a7.13,7.13,0,0,1-4.07-5.21,3.4,3.4,0,0,1-.06-.46,1.33,1.33,0,0,1,0-.28c0-.13,0-.25,0-.36V161.73c0-.13,0-.24,0-.37s0-.43.07-.64a7.38,7.38,0,0,1,6.55-6,8.64,8.64,0,0,1,.88,0h10.08a7.35,7.35,0,0,1-6.62-6,4.89,4.89,0,0,1-.07-.68v-7.14a159.51,159.51,0,0,1,57.76,13.8l.1,0a171.42,171.42,0,0,1,47.28,31.68c.28.25.54.5.81.76a184.29,184.29,0,0,1,18.73,20.77c1.35,1.74,2.66,3.51,3.95,5.29s2.62,3.71,3.88,5.6l0,0q2.29,3.45,4.47,7c1.36,2.25,2.67,4.52,3.95,6.85a193.61,193.61,0,0,1,9,18.55A200.92,200.92,0,0,1,386.44,283c.07.26.12.53.19.8.27,1.14.52,2.29.78,3.46a208.66,208.66,0,0,1,4,26.62c0,.46.08.91.11,1.37,0,.08,0,.15,0,.22Q392.09,323.35,392.09,331.43Z" transform="translate(0 -122.23)" style="fill:#202020;opacity:0.15"/><circle cx="173.51" cy="182.02" r="173.51" style="fill:#ffe882"/><path d="M173.51,464.39a158.08,158.08,0,1,1,111.78-46.3A157,157,0,0,1,173.51,464.39Zm0-306.74c-82,0-148.66,66.69-148.66,148.66S91.54,455,173.51,455s148.65-66.69,148.65-148.65S255.48,157.65,173.51,157.65Z" transform="translate(0 -122.23)" style="fill:#ebda8a"/><path d="M195.27,352.19a26,26,0,0,0-.37-9.18,19.12,19.12,0,0,0-3.88-7.62,35.93,35.93,0,0,0-7.76-6.85,94.82,94.82,0,0,0-12-6.74A250.38,250.38,0,0,1,149,309.6a79,79,0,0,1-16.61-13.52,46.28,46.28,0,0,1-9.81-16.47q-3.1-9.14-1.69-21.07a47.6,47.6,0,0,1,5.91-18.44,44,44,0,0,1,12.25-13.61,55,55,0,0,1,17.54-8.35,73.12,73.12,0,0,1,21.9-2.53l3.09-26.05,21,2.49-3.14,26.42a65.31,65.31,0,0,1,19.74,8.39,49.59,49.59,0,0,1,22.09,31.7,66,66,0,0,1,.87,22.39l-37.88-4.5q1.73-14.61-3.9-22.62t-16.5-9.31a28.34,28.34,0,0,0-10.36.44,19.44,19.44,0,0,0-7.55,3.67,18,18,0,0,0-4.86,6.28,26.47,26.47,0,0,0-2.31,8.25,24.46,24.46,0,0,0,.34,8.31,18,18,0,0,0,3.72,7.29,36.27,36.27,0,0,0,7.83,6.86,121.49,121.49,0,0,0,12.5,7.22q12.15,6.27,22,12.49A79.72,79.72,0,0,1,221.68,319a47.08,47.08,0,0,1,9.8,16.53q3.11,9.15,1.7,20.95a47.7,47.7,0,0,1-6,18.79,43.15,43.15,0,0,1-12.3,13.48,52.89,52.89,0,0,1-17.63,8,79.23,79.23,0,0,1-22,2.33l-2.88,24.22-20.84-2.47,2.86-24.11a88.5,88.5,0,0,1-20.47-7.24,56.17,56.17,0,0,1-16.77-12.67A50.26,50.26,0,0,1,106.59,358q-3.48-11-1.74-25.64l37.88,4.5a37.74,37.74,0,0,0,.71,14.71,24.49,24.49,0,0,0,5.39,10,23.67,23.67,0,0,0,8.67,6,40.43,40.43,0,0,0,10.38,2.66,34.2,34.2,0,0,0,11-.3,22.59,22.59,0,0,0,8.32-3.46,18,18,0,0,0,5.51-6.08A21.83,21.83,0,0,0,195.27,352.19Z" transform="translate(0 -122.23)" style="fill:#ebda8a"/></svg>