<svg id="Ebene_1" data-name="Ebene 1" xmlns="http://www.w3.org/2000/svg" viewBox="0 0 599.79 369.73"><path d="M562.58,399.59V476H130.27c-2-.66-3.88-1.38-5.8-2.12-1.35-.51-2.68-1.05-4-1.6-2.09-.87-4.16-1.79-6.22-2.74-1.35-.63-2.68-1.28-4-1.94-2.09-1.05-4.17-2.14-6.21-3.27-1.35-.75-2.68-1.51-4-2.3q-3.16-1.86-6.22-3.87-2-1.32-4-2.7a166,166,0,0,1-50.5-55.91Z" transform="translate(-0.21 -115.24)" style="fill:#f6f6f6"/><rect x="549.71" y="322.57" width="4.01" height="38.23" style="fill:#4d4d4d"/><rect x="539.49" y="341.68" width="4.01" height="19.11" style="fill:#4d4d4d"/><rect x="529.25" y="341.68" width="4.01" height="19.11" style="fill:#4d4d4d"/><rect x="519.03" y="341.68" width="4.01" height="19.11" style="fill:#4d4d4d"/><rect x="508.8" y="341.68" width="4.01" height="19.11" style="fill:#4d4d4d"/><rect x="498.56" y="322.57" width="4.01" height="38.23" style="fill:#4d4d4d"/><rect x="488.34" y="341.68" width="4.01" height="19.11" style="fill:#4d4d4d"/><rect x="478.11" y="341.68" width="4.01" height="19.11" style="fill:#4d4d4d"/><rect x="467.87" y="341.68" width="4.01" height="19.11" style="fill:#4d4d4d"/><rect x="457.65" y="341.68" width="4.01" height="19.11" style="fill:#4d4d4d"/><rect x="447.42" y="322.57" width="4.01" height="38.23" style="fill:#4d4d4d"/><rect x="437.18" y="341.68" width="4.01" height="19.11" style="fill:#4d4d4d"/><rect x="426.96" y="341.68" width="4.01" height="19.11" style="fill:#4d4d4d"/><rect x="416.73" y="341.68" width="4.01" height="19.11" style="fill:#4d4d4d"/><rect x="406.5" y="341.68" width="4.01" height="19.11" style="fill:#4d4d4d"/><rect x="396.27" y="322.57" width="4.01" height="38.23" style="fill:#4d4d4d"/><rect x="386.04" y="341.68" width="4.01" height="19.11" style="fill:#4d4d4d"/><rect x="375.81" y="341.68" width="4.01" height="19.11" style="fill:#4d4d4d"/><rect x="365.58" y="341.68" width="4.01" height="19.11" style="fill:#4d4d4d"/><rect x="355.35" y="341.68" width="4.01" height="19.11" style="fill:#4d4d4d"/><rect x="345.12" y="322.57" width="4.01" height="38.23" style="fill:#4d4d4d"/><rect x="334.89" y="341.68" width="4.01" height="19.11" style="fill:#4d4d4d"/><rect x="324.66" y="341.68" width="4.01" height="19.11" style="fill:#4d4d4d"/><rect x="314.43" y="341.68" width="4.01" height="19.11" style="fill:#4d4d4d"/><rect x="304.2" y="341.68" width="4.01" height="19.11" style="fill:#4d4d4d"/><rect x="293.97" y="322.57" width="4.01" height="38.23" style="fill:#4d4d4d"/><rect x="283.74" y="341.68" width="4.01" height="19.11" style="fill:#4d4d4d"/><rect x="273.51" y="341.68" width="4.01" height="19.11" style="fill:#4d4d4d"/><rect x="263.28" y="341.68" width="4.01" height="19.11" style="fill:#4d4d4d"/><rect x="253.05" y="341.68" width="4.01" height="19.11" style="fill:#4d4d4d"/><rect x="242.82" y="322.57" width="4.01" height="38.23" style="fill:#4d4d4d"/><rect x="232.59" y="341.68" width="4.01" height="19.11" style="fill:#4d4d4d"/><rect x="222.36" y="341.68" width="4.01" height="19.11" style="fill:#4d4d4d"/><rect x="212.13" y="341.68" width="4.01" height="19.11" style="fill:#4d4d4d"/><rect x="201.9" y="341.68" width="4.01" height="19.11" style="fill:#4d4d4d"/><rect x="191.67" y="322.57" width="4.01" height="38.23" style="fill:#4d4d4d"/><rect x="181.44" y="341.68" width="4.01" height="19.11" style="fill:#4d4d4d"/><rect x="171.21" y="341.68" width="4.01" height="19.11" style="fill:#4d4d4d"/><rect x="160.98" y="341.68" width="4.01" height="19.11" style="fill:#4d4d4d"/><rect x="150.75" y="341.68" width="4.01" height="19.11" style="fill:#4d4d4d"/><rect x="140.52" y="322.57" width="4.01" height="38.23" style="fill:#4d4d4d"/><rect x="140.71" y="322.57" width="4.01" height="38.23" style="fill:#4d4d4d"/><rect x="130.48" y="341.68" width="4.01" height="19.11" style="fill:#4d4d4d"/><path d="M124.47,456.93v17c-1.35-.51-2.68-1.05-4-1.6V456.93Z" transform="translate(-0.21 -115.24)" style="fill:#4d4d4d"/><path d="M114.24,456.93v12.65c-1.35-.63-2.68-1.28-4-1.94V456.93Z" transform="translate(-0.21 -115.24)" style="fill:#4d4d4d"/><path d="M104,456.93v7.44c-1.35-.75-2.68-1.51-4-2.3v-5.14Z" transform="translate(-0.21 -115.24)" style="fill:#4d4d4d"/><path d="M93.78,437.81V458.2q-2-1.32-4-2.7V437.81Z" transform="translate(-0.21 -115.24)" style="fill:#4d4d4d"/><path d="M600,392.07v80.65c0,5-4.82,9.13-10.78,9.13h-19.1c-6,0-10.79-4.08-10.79-9.13V392.07c0-5,4.83-9.13,10.79-9.13h19.1C595.18,382.94,600,387,600,392.07Z" transform="translate(-0.21 -115.24)" style="fill:#99abce"/><path d="M585.93,382.94v98.91H570.12c-6,0-10.79-4.08-10.79-9.13V392.07c0-5,4.83-9.13,10.79-9.13Z" transform="translate(-0.21 -115.24)" style="fill:#7d8ba8"/><path d="M371.33,297.63V449.1a35.73,35.73,0,0,1-11.77,26.56c-.13.13-.27.25-.42.38A35.73,35.73,0,0,1,335.46,485H184A165,165,0,0,1,130.27,476c-2-.66-3.88-1.38-5.8-2.12-1.35-.51-2.68-1.05-4-1.6-2.09-.87-4.16-1.79-6.22-2.74-1.35-.63-2.68-1.28-4-1.94-2.09-1.05-4.17-2.14-6.21-3.27-1.35-.75-2.68-1.51-4-2.3q-3.16-1.86-6.22-3.87-2-1.32-4-2.7A165.18,165.18,0,0,1,18.69,319.66v-22A164.65,164.65,0,0,1,32.94,230.4a161.43,161.43,0,0,1,8.17-15.93,166,166,0,0,1,55.18-57q6.51-4.08,13.42-7.56A164.65,164.65,0,0,1,184,132.33h22A165.3,165.3,0,0,1,371.33,297.63Z" transform="translate(-0.21 -115.24)" style="fill:#7d8ba8"/><path d="M195,189h0A119.66,119.66,0,0,1,314.67,308.65h0A119.66,119.66,0,0,1,195,428.31h0A119.66,119.66,0,0,1,75.34,308.65h0A119.67,119.67,0,0,1,195,189Z" transform="translate(-0.21 -115.24)" style="fill:#99abce"/><path d="M195,208.78h0a99.86,99.86,0,0,1,99.86,99.87h0A99.86,99.86,0,0,1,195,408.51h0a99.86,99.86,0,0,1-99.87-99.86h0A99.87,99.87,0,0,1,195,208.78Z" transform="translate(-0.21 -115.24)" style="fill:#7d8ba8"/><path d="M195,268.63h0a40,40,0,0,1,40,40h0a40,40,0,0,1-40,40h0a40,40,0,0,1-40-40h0A40,40,0,0,1,195,268.63Z" transform="translate(-0.21 -115.24)" style="fill:#444c5c"/><rect x="27.05" y="170.17" width="79.32" height="27.62" rx="8.2" transform="translate(243.76 151.67) rotate(135)" style="fill:#99abce"/><rect x="-17.29" y="254.82" width="79.32" height="27.62" rx="8.2" transform="translate(286.73 205.01) rotate(105.8)" style="fill:#99abce"/><rect x="107.79" y="123.87" width="79.32" height="27.62" rx="8.2" transform="translate(327.47 113.07) rotate(163.66)" style="fill:#99abce"/><path d="M371.33,388l48.27-61.31a7.6,7.6,0,0,0-6-12.3h-42.3Z" transform="translate(-0.21 -115.24)" style="fill:#444c5c"/><path d="M371.33,369.22v77.49A38.26,38.26,0,0,1,333.07,485H322.43V421.5A52.42,52.42,0,0,1,371.33,369.22Z" transform="translate(-0.21 -115.24)" style="fill:#99abce"/></svg>