<svg id="Ebene_1" data-name="Ebene 1" xmlns="http://www.w3.org/2000/svg" viewBox="0 0 600 364.34"><path d="M556.92,481.2c-18.91.6-134.43,6.15-199.18-17.89-49.05-18.21-81.56-36.46-81.56-36.46s257-10.44,303.79,14C624.83,464.33,584.15,480.32,556.92,481.2Z" transform="translate(0 -117.83)" style="fill:#ebda8a"/><path d="M498.64,426.85s-150.11,22-288.73-12.27S16.24,426.85,16.24,426.85V359c0-133.21,108-241.2,241.2-241.2h0c133.21,0,241.2,108,241.2,241.2Z" transform="translate(0 -117.83)" style="fill:#ffe882"/><path d="M234.81,118.92q-12,1.13-23.63,3.39C322.71,144.34,407,246,407,368.24v65.32c17.68-.41,33.5-1.26,46.86-2.22v-63.1C453.9,237.68,357.65,130.52,234.81,118.92Z" transform="translate(0 -117.83)" style="fill:#ebda8a"/><path d="M514.71,424.49a16.22,16.22,0,0,0-18.43-13.71c-1.48.21-148.5,21.2-282.46-12h0C68.79,362.9,8.26,412.32,5.75,414.45a16.25,16.25,0,0,0,21,24.8c.48-.41,52.27-40.34,179.27-8.91h0c62.46,15.47,126.6,19.83,179.08,19.83,65.24,0,112.44-6.74,115.91-7.25A16.25,16.25,0,0,0,514.71,424.49Z" transform="translate(0 -117.83)" style="fill:#ebda8a"/><path d="M77.82,370.73h0a10.07,10.07,0,0,1-10.07-10.07V335.79a10.07,10.07,0,0,1,10.07-10.07h0a10.07,10.07,0,0,1,10.07,10.07v24.87A10.07,10.07,0,0,1,77.82,370.73Z" transform="translate(0 -117.83)" style="fill:#ebda8a"/><path d="M109,370.73h0A10.07,10.07,0,0,1,99,360.66V335.79A10.07,10.07,0,0,1,109,325.72h0a10.07,10.07,0,0,1,10.07,10.07v24.87A10.07,10.07,0,0,1,109,370.73Z" transform="translate(0 -117.83)" style="fill:#ebda8a"/><path d="M140.22,370.73h0a10.07,10.07,0,0,1-10.07-10.07V335.79a10.07,10.07,0,0,1,10.07-10.07h0a10.07,10.07,0,0,1,10.07,10.07v24.87A10.07,10.07,0,0,1,140.22,370.73Z" transform="translate(0 -117.83)" style="fill:#ebda8a"/></svg>