<svg id="Ebene_1" data-name="Ebene 1" xmlns="http://www.w3.org/2000/svg" viewBox="0 0 600 582.17"><rect x="25.18" y="28.81" width="19.74" height="528.35" style="fill:#f6f6f6"/><rect x="25.18" y="537.06" width="528.35" height="20.1" style="fill:#f6f6f6"/><polygon points="35.05 0 52.58 30.36 70.1 60.71 35.05 60.71 0 60.71 17.53 30.36 35.05 0" style="fill:#f6f6f6"/><polygon points="600 547.11 569.64 564.64 539.29 582.17 539.29 547.11 539.29 512.06 569.64 529.59 600 547.11" style="fill:#f6f6f6"/><path d="M103.47,489.07l77.83-26A454.45,454.45,0,0,0,485.56,107h0" transform="translate(0 -8.92)" style="fill:none;stroke:#89e7d5;stroke-linecap:round;stroke-miterlimit:10;stroke-width:19.2734914015878px"/><path d="M485.56,489.07" transform="translate(0 -8.92)" style="fill:none;stroke:#6cb6a8;stroke-linecap:round;stroke-miterlimit:10;stroke-width:19.2734914015878px"/><path d="M103.47,107" transform="translate(0 -8.92)" style="fill:none;stroke:#6cb6a8;stroke-linecap:round;stroke-miterlimit:10;stroke-width:19.2734914015878px"/><path d="M485.56,489.07l-77.83-26A454.45,454.45,0,0,1,103.47,107h0" transform="translate(0 -8.92)" style="fill:none;stroke:#6cb6a8;stroke-linecap:round;stroke-miterlimit:10;stroke-width:19.2734914015878px"/></svg>