<svg id="Ebene_1" data-name="Ebene 1" xmlns="http://www.w3.org/2000/svg" viewBox="0 0 467.3 600"><polygon points="130.85 600 402.47 600 372.18 449.14 161.14 449.14 130.85 600" style="fill:#999"/><polygon points="172.44 457.68 172.44 590.29 142.95 590.29 167.56 457.68 172.44 457.68" style="fill:#737373"/><polygon points="360.95 457.68 360.95 582.94 303.41 590.29 390.44 590.29 365.83 457.68 360.95 457.68" style="fill:#737373"/><polygon points="259.36 458.26 259.36 590.88 172.44 590.29 231.04 582.94 248.67 458.26 259.36 458.26" style="fill:#737373"/><polygon points="274.06 458.26 274.06 590.88 303.41 590.29 284.75 458.26 274.06 458.26" style="fill:#ccc"/><polygon points="365.83 457.68 284.75 458.26 285.9 466.45 360.95 466.45 365.83 457.68" style="fill:#737373"/><rect x="157.7" y="449.14" width="218" height="9.12" style="fill:#ccc"/><rect x="128.12" y="590.88" width="276.53" height="9.12" style="fill:#ccc"/><rect x="168.2" y="458.26" width="91.16" height="8.19" style="fill:#737373"/><polygon points="247.51 466.45 259.36 460.49 274.06 460.49 285.9 466.45 284.75 458.26 248.67 458.26 247.51 466.45" style="fill:#737373"/><polygon points="172.44 466.45 167.14 460.36 158.98 460.36 159.43 458.26 172.44 458.26 172.44 466.45" style="fill:#737373"/><polygon points="360.95 466.45 366.25 460.36 374.41 460.36 373.96 458.26 360.95 458.26 360.95 466.45" style="fill:#737373"/><path d="M531.54,27.37a25,25,0,1,1-25-25A25,25,0,0,1,531.54,27.37Z" transform="translate(-66.35)" style="fill:#ccc"/><path d="M398.5,80.39,94.51,165a9.81,9.81,0,0,1-12.08-6.82L66.71,101.78A9.81,9.81,0,0,1,73.53,89.7l167.1-46.53a41.77,41.77,0,0,1,22.24,0Z" transform="translate(-66.35)" style="fill:#5d9c90"/><path d="M109.74,160.71a45.33,45.33,0,1,1,73.55-50.22l25.33,37.26L430.06,369.19l-47.74,47.73L160.89,195.49l-37.26-25.34A45,45,0,0,1,109.74,160.71Z" transform="translate(-66.35)" style="fill:#6cb6a8"/><path d="M225.1,337.68h220a3.82,3.82,0,0,1,3.82,3.82v88.8a3.82,3.82,0,0,1-3.82,3.82h-220a5.72,5.72,0,0,1-5.72-5.72v-85A5.72,5.72,0,0,1,225.1,337.68Z" transform="translate(601.96 771.8) rotate(180)" style="fill:#6cb6a8"/><path d="M349.27,126.17l-105,29.24a26.1,26.1,0,0,1-32.13-18.13l-8.37-30.07a20.92,20.92,0,0,1,14.54-25.75L385.81,34.81l-18.25,72.6A26.09,26.09,0,0,1,349.27,126.17Z" transform="translate(-66.35)" style="fill:#6cb6a8"/><path d="M484.27,67.8,278.58,125.08l-14.26-51.2a15.94,15.94,0,0,1,11.07-19.62l190.35-53L493.83,9.7,503.12,43Z" transform="translate(-66.35)" style="fill:#6cb6a8"/><path d="M424,385.9A25.88,25.88,0,1,1,398.12,360,25.88,25.88,0,0,1,424,385.9Z" transform="translate(-66.35)" style="fill:#f6f6f6"/><circle cx="80.2" cy="131.53" r="32.31" style="fill:#f6f6f6"/><circle cx="80.2" cy="131.53" r="23.04" style="fill:#5d9c90"/><path d="M414.38,385.9a16.26,16.26,0,1,1-16.26-16.26A16.26,16.26,0,0,1,414.38,385.9Z" transform="translate(-66.35)" style="fill:#5d9c90"/><path d="M160.89,195.49,303.07,337.68h95.05s-65.61-13.15-90.56-27.36S160.89,195.49,160.89,195.49Z" transform="translate(-66.35)" style="fill:#5d9c90"/><path d="M502.25,59.18h0A5.32,5.32,0,0,1,496,55L486.17,6.37A5.33,5.33,0,0,1,490.33.1h0a5.34,5.34,0,0,1,6.26,4.16l9.81,48.66A5.32,5.32,0,0,1,502.25,59.18Z" transform="translate(-66.35)" style="fill:#2a4641"/><path d="M419.79,449.14H246.3a7.53,7.53,0,0,1-7.51-7.51h0a7.53,7.53,0,0,1,7.51-7.51H419.79a7.53,7.53,0,0,1,7.51,7.51h0A7.53,7.53,0,0,1,419.79,449.14Z" transform="translate(-66.35)" style="fill:#2a4641"/><path d="M532.94,20.75c1.35,5.42.71,10.25-1.45,10.79s-5-3.43-6.35-8.85-.7-10.25,1.45-10.79S531.59,15.32,532.94,20.75Z" transform="translate(-66.35)" style="fill:#2a4641"/></svg>