<svg xmlns="http://www.w3.org/2000/svg" viewBox="0 0 382.15 528.73"><g style="isolation:isolate"><g id="Ebene_1" data-name="Ebene 1"><polygon points="109.61 528.73 75.78 458.69 0 476.23 96.04 275.73 205.65 328.24 109.61 528.73" style="fill:#f6f6f6"/><polygon points="198.93 325.02 105.46 520.14 109.61 528.73 205.65 328.24 198.93 325.02" style="fill:#e6e6e6;mix-blend-mode:multiply"/><polygon points="272.55 528.73 306.38 458.69 382.15 476.23 286.11 275.73 176.51 328.24 272.55 528.73" style="fill:#f6f6f6"/><polygon points="183.22 325.02 276.69 520.14 272.55 528.73 176.51 328.24 183.22 325.02" style="fill:#e6e6e6;mix-blend-mode:multiply"/><path d="M401,323.34a142.05,142.05,0,0,1-201.87,0l-15.3,32c8.93.66,19.65-.82,25.76,3.26,4.85,3.24,7.54,10.59,10.49,17.51,2.72,6.36,5.65,12.34,10.66,14.43,10.29,4.27,26.35-9.83,37.53-7.62,9.42,1.87,17.78,16.57,27.32,20.44L300.1,394l4.48,9.35c9.54-3.87,17.89-18.57,27.31-20.44,11.18-2.21,27.25,11.89,37.54,7.62,10.46-4.34,11.84-25.71,21.14-31.94,6.11-4.08,16.84-2.6,25.76-3.26Z" transform="translate(-109.02 -35.3)" style="fill:#e6e6e6;mix-blend-mode:multiply"/><circle cx="191.08" cy="181.12" r="145.98" style="fill:#89e7d5"/><path d="M459.85,248.2c2.15-10.84,21.37-20.29,21.37-31.78S462,195.49,459.85,184.63c-2.22-11.18,11.88-27.25,7.62-37.54-2.08-5-8.07-8-14.44-10.65-6.91-2.95-14.25-5.65-17.5-10.49-6.28-9.39.59-29.65-7.37-37.61-3.3-3.3-8.73-4-14.63-4.23-8.28-.27-17.47.55-23-3.12-3.12-2.1-5.36-5.9-7.34-10.2-3.92-8.48-6.86-18.87-13.8-21.75-10.29-4.26-26.36,9.83-37.54,7.62C321,54.52,311.58,35.3,300.1,35.3s-20.94,19.22-31.8,21.36a13.36,13.36,0,0,1-3.81.18C253.7,56,239.94,45.23,230.77,49,220.3,53.39,218.93,74.76,209.62,81S180,80.4,172,88.34,171,116.56,164.67,126s-27.61,10.66-31.94,21.13c-3.8,9.18,7,22.94,7.8,33.73a13.8,13.8,0,0,1-.18,3.82C138.19,195.49,119,204.94,119,216.42s19.21,20.94,21.37,31.78c2.21,11.19-11.89,27.26-7.62,37.55,2.88,6.95,13.27,9.9,21.75,13.8,4.29,2,8.1,4.23,10.19,7.35,3.66,5.47,2.85,14.67,3.11,23,.21,5.9.94,11.33,4.25,14.64,7.94,7.95,28.21,1.08,37.59,7.36,4.85,3.24,7.54,10.59,10.49,17.51,2.72,6.35,5.65,12.34,10.66,14.43,10.29,4.27,26.35-9.83,37.53-7.62,10.86,2.15,20.31,21.37,31.8,21.37s20.93-19.22,31.79-21.37c11.18-2.21,27.25,11.89,37.54,7.62,10.46-4.35,11.84-25.72,21.14-31.94s29.64.59,37.59-7.36,1.09-28.22,7.37-37.59,27.6-10.68,31.94-21.15C471.73,275.46,457.63,259.39,459.85,248.2ZM300.1,358.72a141.41,141.41,0,0,1-57.3-12.05,143.16,143.16,0,0,1-69.59-65.86,142.18,142.18,0,0,1,4.87-137.56,143.4,143.4,0,0,1,48.85-48.84,142,142,0,0,1,137.56-4.87,143,143,0,0,1,65.85,69.58,141.28,141.28,0,0,1,12.06,57.3C442.4,294.89,378.56,358.72,300.1,358.72Z" transform="translate(-109.02 -35.3)" style="fill:#6cb6a8"/><circle cx="191.08" cy="181.12" r="129.91" style="fill:#6cb6a8"/><path d="M448,222a141.88,141.88,0,0,0-44.57-103.32,141.76,141.76,0,0,1,39,97.74c0,78.46-63.84,142.3-142.3,142.3a141.8,141.8,0,0,1-97.74-39,141.91,141.91,0,0,0,103.32,44.56C384.15,364.31,448,300.47,448,222Z" transform="translate(-109.02 -35.3)" style="fill:#5d9c90"/><path d="M175.77,223.12A129.9,129.9,0,0,1,402.7,136.74,129.9,129.9,0,1,0,203.08,302.8,129.35,129.35,0,0,1,175.77,223.12Z" transform="translate(-109.02 -35.3)" style="fill:#5d9c90"/><path d="M262.08,280.27l-39.62-39.62a17.18,17.18,0,0,1,0-24.3l.25-.24a17.17,17.17,0,0,1,24.29,0l24.63,24.63a4.61,4.61,0,0,0,6.52,0L359.89,159a17.18,17.18,0,0,1,24.3,0l.24.24a17.18,17.18,0,0,1,0,24.3L287.7,280.27A18.12,18.12,0,0,1,262.08,280.27Z" transform="translate(-109.02 -35.3)" style="fill:#5d9c90"/><path d="M258.73,276.92,219.11,237.3a17.18,17.18,0,0,1,0-24.3l.25-.24a17.17,17.17,0,0,1,24.29,0l24.63,24.62a4.59,4.59,0,0,0,6.52,0l81.74-81.74a17.2,17.2,0,0,1,24.3,0l.24.25a17.18,17.18,0,0,1,0,24.3l-96.73,96.73A18.12,18.12,0,0,1,258.73,276.92Z" transform="translate(-109.02 -35.3)" style="fill:#89e7d5"/></g></g></svg>