<svg xmlns="http://www.w3.org/2000/svg" viewBox="0 0 552.07 600"><g style="isolation:isolate"><g id="Ebene_1" data-name="Ebene 1"><path d="M367.32,62.76l29.29,2.68L553.38,79.81,367.32,62.76Z" transform="translate(-23.97)" style="fill:#4d4d4d;opacity:0.17;mix-blend-mode:multiply"/><rect x="102.63" y="134" width="527.64" height="372.57" transform="translate(-9.91 655.96) rotate(-84.76)" style="fill:#7ed5c5"/><polygon points="181.06 40.56 180.61 45.41 205.98 89.45 362.33 103.78 519.02 118.14 551.61 79.58 552.07 74.56 181.06 40.56" style="fill:#5d9c90"/><polygon points="366.56 57.56 181.06 40.56 208.1 86.8 362.58 100.96 517.07 115.12 552.07 74.56 366.56 57.56" style="fill:#6cb6a8"/><polygon points="366.56 57.56 552.07 74.56 525.02 28.32 370.54 14.16 216.06 0 181.06 40.56 366.56 57.56" style="fill:#7ed5c5"/><polygon points="525.02 28.32 370.54 14.16 216.06 0 205.45 12.29 533.22 42.34 525.02 28.32" style="fill:#89e7d5"/><rect x="91.64" y="152.99" width="444.79" height="338.1" transform="translate(-36.3 631.58) rotate(-89.21)" style="fill:#f6f6f6"/><rect x="312.94" y="15.85" width="6.64" height="291.52" transform="translate(126.32 475.6) rotate(-89.21)" style="fill:#ddd"/><rect x="312.58" y="41.87" width="6.64" height="291.52" transform="translate(99.95 500.89) rotate(-89.21)" style="fill:#ddd"/><rect x="271.15" y="108.39" width="6.64" height="209.38" transform="translate(33.65 484.57) rotate(-89.21)" style="fill:#ddd"/><rect x="311.86" y="93.9" width="6.64" height="291.52" transform="translate(47.2 551.49) rotate(-89.21)" style="fill:#ddd"/><rect x="309.71" y="249.02" width="6.64" height="291.52" transform="translate(-110.02 702.3) rotate(-89.21)" style="fill:#ddd"/><rect x="309.35" y="275.04" width="6.64" height="291.52" transform="translate(-136.39 727.59) rotate(-89.21)" style="fill:#ddd"/><rect x="311.12" y="147.26" width="6.64" height="291.52" transform="translate(-6.88 603.37) rotate(-89.21)" style="fill:#ddd"/><rect x="289.69" y="194.06" width="6.64" height="249.38" transform="translate(-53.73 607.31) rotate(-89.21)" style="fill:#ddd"/><rect x="310.4" y="199.3" width="6.64" height="291.52" transform="translate(-59.62 653.96) rotate(-89.21)" style="fill:#ddd"/><rect x="263.33" y="271.37" width="6.64" height="198.1" transform="translate(-131.4 631.91) rotate(-89.21)" style="fill:#ddd"/><path d="M358.25,516.09a3,3,0,0,1-2-.87l-.06-.06-.07,0a.54.54,0,0,1-.23-.32l0-.09,0-.08a1.8,1.8,0,0,1-.19-.8,26.13,26.13,0,0,1,.6-4.84v-.1c.32-3.86.78-8.68,1.36-14.34v-.08c0-1.07,0-2.32.12-3.56.17-2.28.45-4.63.73-6.91.35-2.93.72-6,.85-8.95l.14-3.38-1.76,2.89a41.13,41.13,0,0,1-4.77,6.54c-2,2.15-4.13,4.21-6.21,6.21-2.43,2.33-4.94,4.75-7.23,7.33a2.25,2.25,0,0,1-1.75.83h-.16c-.23,0-.47,0-.71,0a11.51,11.51,0,0,0-4.23.79.89.89,0,0,1-.32,0,.87.87,0,0,1-.81-.58.89.89,0,0,1,.53-1.12c.46-.16,1.31-.63,3.38-2.77l.06-.05.1-.16a2.26,2.26,0,0,1,.16-.21c.7-.79,1.45-1.56,2.18-2.3l0,0,0,0c1.84-2.1,4-4.74,6.52-7.84,7.74-9.71,16.45-21.8,17.25-24,.24-.68.58-.68.7-.68a1.36,1.36,0,0,1,.57.19.88.88,0,0,1,.34,1.17l0,0v0l-.06.11-.09.19v.21c0,1.11-.13,2.6-.26,3.91l0,.26.12.23a2.22,2.22,0,0,1,.2.56c1.44,6.34,1,12.4.35,18.57l-.33,3.13,1.89-2.52c.43-.56.67-.65.71-.67a2,2,0,0,1,.56-.09c.23,0,.92,0,1.47,1.66l.05.13.08.12a2.67,2.67,0,0,1,.34.57,17.48,17.48,0,0,1,1.08,5.44l.22,2.68,1.4-2.3a25,25,0,0,0,1.35-2.61l0,0,.68-1.94c.51-1.47,1.76-5.12,2-6,.16-.49,1.31-1,2.86-1a3.49,3.49,0,0,1,2.47.76.53.53,0,0,1,.09.46c-.36,1.59-1.46,5.9-1.85,7.37l1.51.78.06-.06a17.38,17.38,0,0,1,1.5-1.67,18.36,18.36,0,0,1,4.79-2.87,1.86,1.86,0,0,1,.75-.17,2.75,2.75,0,0,1,2,1.28l.12.17.18.1a.71.71,0,0,1,.3.27l.46.67,2-1.14.09-.11a2.23,2.23,0,0,1,1.74-.83,2.48,2.48,0,0,1,.74.14l.27.09.27-.08c11.73-3.48,25-7.42,38.42-8.54,1.48-.12,3.78-.26,6.4-.23,6.31.09,14.35,1.17,16.81,5.82a3.36,3.36,0,0,1,.14,2.8,1.72,1.72,0,0,1-1.23,1,34.57,34.57,0,0,1-5.42.67,62,62,0,0,0-6.24.67A73.35,73.35,0,0,0,431.91,489c-2.36.82-4.85,1.63-7.25,2.41a199.28,199.28,0,0,0-19.77,7.24c-4.94,2.23-7.29,3.25-8.84,3.93-2.61,1.14-2.61,1.14-8.49,4.07L382,509.41a5.32,5.32,0,0,1-2.39.65h0a2,2,0,0,1-2-2.07v-.1c-.36-1.79.3-2.4.94-2.82,4-2.66,4.33-2.8,6.63-3.75,1-.43,2.45-1,4.71-2,3.84-1.73,7.94-3.44,12.2-5.09,9-3.46,28.22-9.74,37.61-12.09h.2c.17,0,.18,0,1.32-.38,1.37-.5,1.73-.63,1.6-1.36l-.12-.71H442c-.17,0-.19,0-1.24.36-.67,0-1.37-.09-2.08-.1a71.17,71.17,0,0,0-14.06,1.72c-8.93,1.74-18,4-28.72,7.18a3,3,0,0,1-.64.11l-.52,0-.22.47c-.67,1.44-4.25,2.6-9.12,2.94h-.06l-.06,0a1.87,1.87,0,0,1-.34,0h-.12a.94.94,0,0,1-.62-.21l-.63-.61-.82.85c-2.09,2.2-4.07,4.28-7.12,4.36h-.12a2.6,2.6,0,0,1-1.84-.78l-.63-.65-.62.65a13,13,0,0,1-3.83,2.72,1.51,1.51,0,0,1-.71.14,2.65,2.65,0,0,1-1.45-.49l-1-.71-.32,1.2c-.28,1.08-.61,2.3-.91,3.5s-.51,2.19-.73,3.25c-.74,3.46-1.43,6.73-3.52,9.67A1.89,1.89,0,0,1,358.25,516.09Z" transform="translate(-23.97)" style="fill:#5d9c90"/><rect x="40.16" y="65.28" width="338.1" height="444.79" transform="translate(-44.94 16.49) rotate(-4.3)" style="fill:#f6f6f6"/><rect x="50.45" y="111.39" width="291.52" height="6.64" transform="translate(-32.01 15.03) rotate(-4.3)" style="fill:#ddd"/><rect x="52.4" y="137.33" width="291.52" height="6.64" transform="translate(-33.95 15.25) rotate(-4.3)" style="fill:#ddd"/><rect x="54.46" y="166.36" width="209.38" height="6.64" transform="translate(-36.23 12.4) rotate(-4.3)" style="fill:#ddd"/><rect x="56.3" y="189.23" width="291.52" height="6.64" transform="translate(-37.83 15.68) rotate(-4.3)" style="fill:#ddd"/><rect x="68.57" y="352.46" width="291.52" height="6.64" transform="translate(-50.03 17.06) rotate(-4.3)" style="fill:#ddd"/><rect x="70.52" y="378.41" width="291.52" height="6.64" transform="translate(-51.96 17.28) rotate(-4.3)" style="fill:#ddd"/><rect x="59.47" y="231.46" width="291.52" height="6.64" transform="matrix(1, -0.07, 0.07, 1, -40.98, 16.04)" style="fill:#ddd"/><rect x="61.42" y="257.4" width="291.52" height="6.64" transform="translate(-42.92 16.26) rotate(-4.3)" style="fill:#ddd"/><rect x="63.37" y="283.35" width="291.52" height="6.64" transform="translate(-44.86 16.48) rotate(-4.3)" style="fill:#ddd"/><rect x="65.45" y="312.8" width="198.1" height="6.64" transform="translate(-47.19 13.22) rotate(-4.3)" style="fill:#ddd"/><polygon points="262.9 433.48 269.31 426.2 288.66 442.85 322.52 403.81 329.63 409.78 289.42 456.52 262.9 433.48" style="fill:#7ed5c5"/><path d="M312.82,477.2a41.43,41.43,0,1,1,21.75-74.47l-3.14,3.63a36.65,36.65,0,1,0,14.83,26.83l4.19-4.87a39.43,39.43,0,0,1,.58,4.46,41.41,41.41,0,0,1-38.21,44.42Z" transform="translate(-23.97)" style="fill:#7ed5c5"/><g style="opacity:0.22;mix-blend-mode:multiply"><polygon points="462.06 110.87 456.02 546.76 135.07 542.31 134.25 551.15 466.06 555.76 472.23 111.01 462.06 110.87" style="fill:#4d4d4d"/><polygon points="350.06 100.46 347.19 62.24 337.88 62.94 340.69 100.33 350.06 100.46" style="fill:#4d4d4d"/><polygon points="341.35 109.2 350.73 109.33 350.06 100.46 340.69 100.33 341.35 109.2" style="fill:#4d4d4d"/><polygon points="128.5 514.96 118.32 515.73 118.18 525.49 128.36 524.73 128.5 514.96" style="fill:#4d4d4d"/><polygon points="370.48 496.78 128.5 514.96 128.36 524.73 380.52 505.78 350.73 109.33 341.35 109.2 370.48 496.78" style="fill:#4d4d4d"/></g></g></g></svg>