<svg xmlns="http://www.w3.org/2000/svg" viewBox="0 0 600 468.59"><g id="Object"><path d="M176.74,173.46a75.9,75.9,0,1,0,82.2,69A75.92,75.92,0,0,0,176.74,173.46Z" transform="translate(0 -65.7)" style="fill:none"/><path d="M433.45,349.17c-23.56,14.59-31.73,46.35-18.11,70.47a52.54,52.54,0,1,0,18.11-70.47Z" transform="translate(0 -65.7)" style="fill:none"/><path d="M357.68,308.06a181.54,181.54,0,0,0,9-43.26l-29.84-14.45c0-4.84-.14-9.71-.57-14.6-.12-1.69-.35-3.35-.54-5L363.79,213a182.13,182.13,0,0,0-13.73-42l-33.15,2.4a148.59,148.59,0,0,0-10.77-16.48l15.43-29.34a186.18,186.18,0,0,0-32.91-29.46l-27.49,18.63a155.31,155.31,0,0,0-17.55-8.91l-1.3-33.12a183.6,183.6,0,0,0-43.25-9L184.62,95.56c-4.83,0-9.68.15-14.6.57-1.7.15-3.37.36-5,.56L147.27,68.6a183.85,183.85,0,0,0-42,13.74l2.42,33.15a146.29,146.29,0,0,0-16.47,10.79L61.86,110.84a184.29,184.29,0,0,0-29.44,32.93l18.65,27.47a151.3,151.3,0,0,0-8.93,17.54L9,190.08a182.32,182.32,0,0,0-9,43.26l29.85,14.45c0,4.84.12,9.71.54,14.6.16,1.7.37,3.35.59,5L2.89,285.15a183.6,183.6,0,0,0,13.74,42l33.13-2.4a154.54,154.54,0,0,0,10.78,16.48L45.11,370.52A183.57,183.57,0,0,0,78,400l27.48-18.63a150.53,150.53,0,0,0,17.54,8.93l1.31,33.13a182.69,182.69,0,0,0,43.23,9l14.49-29.85c4.81,0,9.7-.14,14.6-.56,1.68-.13,3.35-.37,5-.58l17.72,28.12a184.1,184.1,0,0,0,42-13.74L259,382.66a161.34,161.34,0,0,0,16.47-10.78l29.35,15.43a185.74,185.74,0,0,0,29.43-32.93l-18.61-27.47a163.42,163.42,0,0,0,8.92-17.56Zm-174.33,49.2A108.19,108.19,0,1,1,291.53,249.07,108.32,108.32,0,0,1,183.35,357.26Z" transform="translate(0 -65.7)" style="fill:#99abce"/><path d="M82.88,249.07A100.46,100.46,0,1,0,183.35,148.6,100.57,100.57,0,0,0,82.88,249.07Zm176.06-6.6a75.9,75.9,0,1,1-82.2-69A75.88,75.88,0,0,1,258.94,242.47Z" transform="translate(0 -65.7)" style="fill:#99abce"/><path d="M374.88,393.45a86.1,86.1,0,1,0,87.88-84.28A86.2,86.2,0,0,0,374.88,393.45Zm131.44-26.37a52.54,52.54,0,1,1-91,52.56c-13.62-24.12-5.45-55.88,18.11-70.47A52.55,52.55,0,0,1,506.32,367.08Z" transform="translate(0 -65.7)" style="fill:#c9d9f8"/><path d="M599.33,408.9a140.58,140.58,0,0,0-.3-30.2l-23.43-5.61a125,125,0,0,0-5.16-18.26l17.16-16.94a137.76,137.76,0,0,0-15.39-26l-23.11,6.9a116.44,116.44,0,0,0-13.55-13.3l6.4-23.23a141.24,141.24,0,0,0-26.33-14.83L499,285a117.56,117.56,0,0,0-18.34-4.72l-6.13-23.38a138.22,138.22,0,0,0-30.15.37l-5.65,23.42a114.62,114.62,0,0,0-18.22,5.15l-17-17.15a132.79,132.79,0,0,0-13.43,7A142,142,0,0,0,377.59,284l6.88,23.15a119.62,119.62,0,0,0-13.3,13.54l-23.23-6.38a139.91,139.91,0,0,0-14.82,26.28l17.54,16.61a120.06,120.06,0,0,0-4.7,18.34l-23.35,6.13a139.21,139.21,0,0,0,.32,30.19l23.45,5.58a121.47,121.47,0,0,0,5.11,18.29l-17.15,16.94a129.05,129.05,0,0,0,7,13.39,138.35,138.35,0,0,0,8.39,12.59l23.14-6.89A118.58,118.58,0,0,0,386.38,485L380,508.3a138.5,138.5,0,0,0,26.25,14.79l16.63-17.52a113.56,113.56,0,0,0,18.35,4.7l6.12,23.37a141.06,141.06,0,0,0,30.18-.32l5.58-23.44a117.23,117.23,0,0,0,18.26-5.15l17,17.16a133.06,133.06,0,0,0,13.38-7,136,136,0,0,0,12.56-8.41l-6.88-23.11a119.51,119.51,0,0,0,13.29-13.54L574,476.24A137.72,137.72,0,0,0,588.79,450l-17.53-16.63A118,118,0,0,0,576,415ZM459.08,485.07a89.83,89.83,0,1,1,91.71-87.93A89.92,89.92,0,0,1,459.08,485.07Z" transform="translate(0 -65.7)" style="fill:#c9d9f8"/><path d="M183.35,361.35A112.28,112.28,0,1,1,295.62,249.07,112.41,112.41,0,0,1,183.35,361.35Zm0-208.66a96.38,96.38,0,1,0,96.36,96.38A96.49,96.49,0,0,0,183.35,152.69Z" transform="translate(0 -65.7)" style="fill:#7d8ba8"/><path d="M461,490.29c-.68,0-1.36,0-2,0a95,95,0,1,1,2,0Zm-.1-175.94A80.86,80.86,0,1,0,541.85,397h0a81,81,0,0,0-79.2-82.58Z" transform="translate(0 -65.7)" style="fill:#b5cbf5"/></g></svg>