<svg xmlns="http://www.w3.org/2000/svg" viewBox="0 0 600 511.07"><g id="Object"><path d="M153.73,138.19a66,66,0,1,0,71.49,60A66,66,0,0,0,153.73,138.19Z" transform="translate(0 -44.46)" style="fill:none"/><path d="M280.59,394.52c-20.49,12.68-27.6,40.31-15.75,61.29a45.7,45.7,0,1,0,15.75-61.29Z" transform="translate(0 -44.46)" style="fill:none"/><path d="M311.1,255.26a158.06,158.06,0,0,0,7.83-37.63L293,205.06c0-4.2-.12-8.44-.5-12.7-.11-1.47-.31-2.91-.47-4.38l24.41-15.42a158.84,158.84,0,0,0-11.94-36.5l-28.84,2.1a128.46,128.46,0,0,0-9.37-14.34L279.69,98.3a161.37,161.37,0,0,0-28.62-25.62l-23.91,16.2a137.38,137.38,0,0,0-15.26-7.75l-1.14-28.81a159.53,159.53,0,0,0-37.61-7.86l-12.58,26c-4.2,0-8.41.13-12.69.5-1.48.13-2.93.31-4.38.49L128.09,47a160,160,0,0,0-36.52,12l2.1,28.83a128.28,128.28,0,0,0-14.32,9.38L53.8,83.72a160.29,160.29,0,0,0-25.6,28.65l16.22,23.89a131.63,131.63,0,0,0-7.77,15.25L7.83,152.64A158.45,158.45,0,0,0,0,190.27l26,12.57c0,4.21.11,8.44.48,12.7.13,1.47.31,2.91.51,4.38L2.51,235.33a160.16,160.16,0,0,0,12,36.5l28.82-2.09a134.24,134.24,0,0,0,9.38,14.33L39.23,309.59a160.25,160.25,0,0,0,28.64,25.62L91.77,319A129.46,129.46,0,0,0,107,326.77l1.14,28.81a158.24,158.24,0,0,0,37.59,7.84l12.61-26c4.19,0,8.43-.12,12.69-.48,1.47-.12,2.92-.32,4.36-.51l15.41,24.46A160.24,160.24,0,0,0,227.36,349l-2.09-28.84a140.53,140.53,0,0,0,14.33-9.37l25.52,13.42a161.36,161.36,0,0,0,25.61-28.64l-16.19-23.9a142,142,0,0,0,7.75-15.27ZM159.47,298.05A94.1,94.1,0,1,1,253.56,204,94.2,94.2,0,0,1,159.47,298.05Z" transform="translate(0 -44.46)" style="fill:#99abce"/><path d="M72.09,204a87.38,87.38,0,1,0,87.38-87.38A87.47,87.47,0,0,0,72.09,204Zm153.13-5.74a66,66,0,1,1-71.49-60A66,66,0,0,1,225.22,198.21Z" transform="translate(0 -44.46)" style="fill:#99abce"/><path d="M229.65,433a74.89,74.89,0,1,0,76.43-73.3A75,75,0,0,0,229.65,433ZM344,410.09a45.7,45.7,0,1,1-79.13,45.72c-11.85-21-4.74-48.61,15.75-61.29A45.71,45.71,0,0,1,344,410.09Z" transform="translate(0 -44.46)" style="fill:#c9d9f8"/><path d="M424.87,446.47a122.13,122.13,0,0,0-.27-26.27l-20.37-4.87a109.47,109.47,0,0,0-4.49-15.89l14.93-14.73a121.29,121.29,0,0,0-13.39-22.62l-20.1,6a101.4,101.4,0,0,0-11.79-11.58l5.57-20.2a121.92,121.92,0,0,0-22.9-12.89l-14.43,15.26a102.33,102.33,0,0,0-15.95-4.11l-5.33-20.33a119.77,119.77,0,0,0-26.22.32l-4.92,20.37a99.13,99.13,0,0,0-15.85,4.48L254.61,324.5a115.63,115.63,0,0,0-11.68,6.05A123.56,123.56,0,0,0,232,337.84L238,358a104.52,104.52,0,0,0-11.57,11.78l-20.2-5.55a120.74,120.74,0,0,0-12.89,22.86l15.25,14.45a103.36,103.36,0,0,0-4.08,15.95l-20.31,5.33a120.68,120.68,0,0,0,.27,26.25l20.4,4.86a105.84,105.84,0,0,0,4.44,15.91l-14.91,14.73a113.13,113.13,0,0,0,6.06,11.65,121.1,121.1,0,0,0,7.3,10.95l20.12-6a104.32,104.32,0,0,0,11.78,11.55l-5.53,20.23A120.43,120.43,0,0,0,257,545.79l14.47-15.24a99.11,99.11,0,0,0,16,4.09L292.69,555a123.35,123.35,0,0,0,26.26-.28l4.85-20.39a101.3,101.3,0,0,0,15.88-4.48l14.8,14.93A120.4,120.4,0,0,0,377,531.38l-6-20.1a103.55,103.55,0,0,0,11.56-11.78L402.84,505a119.9,119.9,0,0,0,12.86-22.87l-15.25-14.46a102.88,102.88,0,0,0,4.11-15.93Zm-122,66.25a78.14,78.14,0,1,1,79.77-76.48A78.21,78.21,0,0,1,302.88,512.72Z" transform="translate(0 -44.46)" style="fill:#c9d9f8"/><path d="M159.47,301.61A97.66,97.66,0,1,1,257.12,204,97.77,97.77,0,0,1,159.47,301.61Zm0-181.49A83.83,83.83,0,1,0,243.28,204,83.92,83.92,0,0,0,159.47,120.12Z" transform="translate(0 -44.46)" style="fill:#7d8ba8"/><path d="M492.92,119.7C473.68,124.32,461,144,464.86,163.45a37.53,37.53,0,1,0,28.06-43.75Z" transform="translate(0 -44.46)" style="fill:none"/><path d="M435.19,133.76A70.08,70.08,0,1,0,524.62,91,70.17,70.17,0,0,0,435.19,133.76Zm108.32,13.16a42.76,42.76,0,1,1-83.73,17.41c-4.37-22.12,10.05-44.59,32-49.85A42.76,42.76,0,0,1,543.51,146.92Z" transform="translate(0 -44.46)" style="fill:#7d8ba8"/><path d="M592.05,197.36a100,100,0,0,0,6.56-20.55L584,167.76a88.28,88.28,0,0,0,.58-13.54L600,146.57a96.91,96.91,0,0,0-1.74-10.68,98,98,0,0,0-2.88-10.4L578.16,125A82.13,82.13,0,0,0,572,112.94l9.54-14.32a100.15,100.15,0,0,0-14.53-16l-15.19,8.19a84,84,0,0,0-11.37-7.32l1.07-17.22a98.1,98.1,0,0,0-20.53-6.5l-9.07,14.61a83.2,83.2,0,0,0-13.52-.58l-7.66-15.43A92.62,92.62,0,0,0,480,60.13,101.44,101.44,0,0,0,469.63,63l-.52,17.25a85.56,85.56,0,0,0-12.05,6.2l-14.32-9.52a99,99,0,0,0-15.94,14.5L435,106.61A86.62,86.62,0,0,0,427.68,118l-17.21-1.07a99.9,99.9,0,0,0-6.54,20.54l14.66,9a87.09,87.09,0,0,0-.64,13.55l-15.42,7.64a91.16,91.16,0,0,0,1.73,10.65,98,98,0,0,0,2.87,10.42l17.24.51a86,86,0,0,0,6.2,12l-9.52,14.35a99.23,99.23,0,0,0,14.5,15.9l15.2-8.16a79.84,79.84,0,0,0,11.39,7.3l-1.09,17.22a100.4,100.4,0,0,0,20.55,6.54l9-14.65a83.49,83.49,0,0,0,13.54.6l7.69,15.45a97,97,0,0,0,21-4.62l.51-17.21a85.47,85.47,0,0,0,12-6.21l14.34,9.52a97.71,97.71,0,0,0,15.92-14.51l-8.17-15.21a82.65,82.65,0,0,0,7.31-11.36ZM479.88,217.61a64.16,64.16,0,1,1,81.88-39.1A64.22,64.22,0,0,1,479.88,217.61Z" transform="translate(0 -44.46)" style="fill:#7d8ba8"/><path d="M248.41,501.76h0c-39.8-30.55-42.69-94-6.36-139.66L434.73,120C461.6,86.19,505.17,75,537.23,93.71h0c36.24,21.13,44.83,72.33,19.08,113.83L399,461C363.82,517.81,293.94,536.7,248.41,501.76Z" transform="translate(0 -44.46)" style="fill:none;stroke:#f6f6f6;stroke-miterlimit:10;stroke-width:12.176835912047496px"/><path d="M304.57,517.26h-1.78a83.5,83.5,0,1,1,1.78,0Zm-.09-153a70.33,70.33,0,1,0,70.39,71.84h0A70.43,70.43,0,0,0,306,364.25Z" transform="translate(0 -44.46)" style="fill:#b5cbf5"/><path d="M480,221.59l-1.38-.47a67.93,67.93,0,1,1,1.38.47Zm39.33-119.35a57.76,57.76,0,1,0,36.39,74.14h0a57.83,57.83,0,0,0-35.22-73.74Z" transform="translate(0 -44.46)" style="fill:#6f7c93"/></g></svg>