<svg id="Ebene_1" data-name="Ebene 1" xmlns="http://www.w3.org/2000/svg" viewBox="0 0 549.31 600"><path d="M237.62,448.55a58,58,0,0,1-81.12,12h0a58,58,0,0,1-12-81.12L409,23.41a58,58,0,0,1,81.12-12h0a58,58,0,0,1,12,81.12Z" transform="translate(-25.34)" style="fill:#7d8ba8"/><circle cx="132.47" cy="492.87" r="107.12" transform="translate(-335.06 238.03) rotate(-45)" style="fill:#7d8ba8"/><circle cx="132.47" cy="492.87" r="90.74" transform="translate(-335.06 238.03) rotate(-45)" style="fill:#f6f6f6"/><path d="M490.11,84.11a43.24,43.24,0,1,0-69.43-51.57L128.91,425.34l69.43,51.57Z" transform="translate(-25.34)" style="fill:#f6f6f6"/><circle cx="132.47" cy="492.87" r="68.67" transform="translate(-403.01 508.18) rotate(-76.67)" style="fill:#99abce"/><path d="M474.6,74.22a25.55,25.55,0,0,0-41-30.47L148.73,427.23l41,30.47Z" transform="translate(-25.34)" style="fill:#e6e6e6"/><rect x="86.82" y="296.94" width="343.08" height="51.1" transform="translate(-179.93 337.6) rotate(-53.4)" style="fill:#99abce"/><path d="M179.14,517.84c-1.29,14.87-19.93,17.62-25.46,3.76a8,8,0,0,1-.55-3.69c1.29-14.87,19.93-17.62,25.46-3.76A8,8,0,0,1,179.14,517.84Z" transform="translate(-25.34)" style="fill:#c9d9f8"/><path d="M148.1,539.17a8.39,8.39,0,1,1-1.73-9.89A8.39,8.39,0,0,1,148.1,539.17Z" transform="translate(-25.34)" style="fill:#c9d9f8"/><rect x="310.66" y="388.9" width="20.8" height="63.7" rx="10.4" transform="translate(-233.49 427.6) rotate(-53.4)" style="fill:#f6f6f6"/><rect x="367.16" y="312.84" width="20.8" height="63.7" rx="10.4" transform="translate(-149.63 442.25) rotate(-53.4)" style="fill:#f6f6f6"/><rect x="423.65" y="236.79" width="20.8" height="63.7" rx="10.4" transform="translate(-65.76 456.9) rotate(-53.4)" style="fill:#f6f6f6"/><rect x="480.14" y="160.73" width="20.8" height="63.7" rx="10.4" transform="translate(18.1 471.54) rotate(-53.4)" style="fill:#f6f6f6"/><rect x="536.64" y="84.67" width="20.8" height="63.7" rx="10.4" transform="translate(101.96 486.19) rotate(-53.4)" style="fill:#f6f6f6"/></svg>