<svg id="Ebene_1" data-name="Ebene 1" xmlns="http://www.w3.org/2000/svg" viewBox="0 0 600 466.75"><path d="M370.28,74.48H229.72a22,22,0,0,0-22,22v49.24A22,22,0,0,0,227,167.6a21.3,21.3,0,0,1-1.87-8.73V114.82c0-10.89,8-19.72,17.86-19.72H357c9.86,0,17.86,8.83,17.86,19.72v44.05A21.3,21.3,0,0,1,373,167.6a22,22,0,0,0,19.36-21.85V96.51A22,22,0,0,0,370.28,74.48Z" transform="translate(0 -66.62)" style="fill:#818181"/><path d="M5.91,253.76V511.34a21.82,21.82,0,0,0,21.6,22h545a21.82,21.82,0,0,0,21.6-22V253.76Z" transform="translate(0 -66.62)" style="fill:#b57d4f"/><path d="M600,169.73c0-13.28-9.86-24-22-24H22c-12.17,0-22,10.76-22,24V290.62a38.17,38.17,0,0,0,38.17,38.16H561.83A38.17,38.17,0,0,0,600,290.62Z" transform="translate(0 -66.62)" style="fill:#cea07d"/><rect x="248.02" y="231.73" width="103.95" height="45.2" rx="11.86" style="fill:#cdcdcd"/><rect x="265.77" y="239.44" width="68.46" height="29.76" rx="7.81" style="fill:#e7e7e7"/><path d="M230.27,79.88v9.25A11.87,11.87,0,0,0,242.14,101H357.87a11.87,11.87,0,0,0,11.86-11.87V79.88c-17.51,5-42.26,8-69.73,8S247.78,84.83,230.27,79.88Z" transform="translate(0 -66.62)" style="fill:#b57d4f"/><path d="M357.87,66.62H242.14a11.86,11.86,0,0,0-11.87,11.87v1.39c17.51,5,42.26,8,69.73,8s52.22-3.09,69.73-8V78.49A11.86,11.86,0,0,0,357.87,66.62Z" transform="translate(0 -66.62)" style="fill:#cea07d"/></svg>