<svg id="Ebene_1" data-name="Ebene 1" xmlns="http://www.w3.org/2000/svg" viewBox="0 0 333.81 460.04"><path d="M375.85,407.71l-225,113.13c-9.72,4.89-17.61-1.26-17.61-13.73v-202c0-12.47,7.89-26.53,17.61-31.42L375.85,160.53c9.72-4.89,17.6,1.26,17.6,13.73v202C393.45,388.75,385.57,402.82,375.85,407.71Z" transform="translate(-133.19 -69.65)" style="fill:#a67c52"/><path d="M353.59,385.58,173.05,476.33c-4.58,2.31-8.3-.59-8.3-6.47V310.61c0-5.88,3.72-12.52,8.3-14.82L353.59,205c4.59-2.3,8.3.6,8.3,6.48V370.76C361.89,376.64,358.18,383.27,353.59,385.58Z" transform="translate(-133.19 -69.65)" style="fill:#975a23"/><rect x="161.57" y="126.83" width="281.48" height="167.11" rx="4.39" transform="translate(379.49 -161.57) rotate(90)" style="fill:#5d9c90"/><path d="M231.62,315.92V104.85a22,22,0,0,0,22-22H351a22,22,0,0,0,22,22V315.92a22,22,0,0,0-22,22H253.59A22,22,0,0,0,231.62,315.92Z" transform="translate(-133.19 -69.65)" style="fill:#7ed5c5"/><ellipse cx="169.11" cy="140.74" rx="61.86" ry="47.55" style="fill:#5d9c90"/><ellipse cx="169.11" cy="61.88" rx="23.58" ry="18.12" style="fill:#5d9c90"/><ellipse cx="169.11" cy="219.6" rx="23.58" ry="18.12" style="fill:#5d9c90"/><path d="M309.1,214.51c3.16-8.1,4.85-9.58,7-9.58s4.47,1.85,4.47,7.08a20.61,20.61,0,0,1-2.65,10.4l-1.29,2.41,11,4.43L329,227a26.8,26.8,0,0,0,3.15-10.42h8.54V205.64h-9.2c-2.11-8.46-8.33-13.81-16.35-13.81-10.08,0-14.48,8.12-17.71,16.87-2.88,7.54-5.4,8.56-7.47,8.56-3.24,0-5.51-3.4-5.51-8.27a22.93,22.93,0,0,1,3.34-11.9l1.59-2.53-11.15-4.24-1.33,2A29,29,0,0,0,272.81,205H264v11h9.45c2.47,10,10.18,14.45,17.13,14.45C301.56,230.45,306.25,221.92,309.1,214.51Z" transform="translate(-133.19 -69.65)" style="fill:#7ed5c5"/><path d="M204.47,352.58,264.06,89.17a5.7,5.7,0,0,1,6.82-4.31l151.87,34.35a5.7,5.7,0,0,1,4.3,6.82L367.47,389.45a5.7,5.7,0,0,1-6.82,4.3L208.78,359.4A5.71,5.71,0,0,1,204.47,352.58Z" transform="translate(-133.19 -69.65)" style="fill:#5d9c90"/><path d="M225,320.25l43.67-193.08a28.51,28.51,0,0,0,34.11-21.52L385,124.25a28.52,28.52,0,0,0,21.53,34.11L362.87,351.44A28.53,28.53,0,0,0,328.75,373l-82.23-18.6A28.53,28.53,0,0,0,225,320.25Z" transform="translate(-133.19 -69.65)" style="fill:#7ed5c5"/><ellipse cx="315.76" cy="239.31" rx="47.55" ry="61.86" transform="translate(-120.5 424.85) rotate(-77.25)" style="fill:#5d9c90"/><path d="M329.16,180.07c-12.7-2.88-21.2-13.12-19-22.88s14.3-15.35,27-12.48,21.21,13.12,19,22.88S341.86,182.94,329.16,180.07Z" transform="translate(-133.19 -69.65)" style="fill:#5d9c90"/><ellipse cx="298.37" cy="316.22" rx="18.12" ry="23.58" transform="translate(-209.09 467.83) rotate(-77.25)" style="fill:#5d9c90"/><path d="M321.48,244.83c4.87-7.2,6.85-8.28,9-7.79s3.95,2.79,2.8,7.89a20.71,20.71,0,0,1-4.88,9.56l-1.79,2.06,9.78,6.76,1.73-1.94a26.74,26.74,0,0,0,5.38-9.47l8.32,1.88,2.41-10.64-9-2c-.19-8.73-5.08-15.32-12.9-17.08-9.84-2.23-15.91,4.72-21,12.54-4.48,6.73-7.15,7.16-9.17,6.71-3.17-.72-4.62-4.54-3.55-9.29a23,23,0,0,1,5.88-10.87l2.11-2.12-9.94-6.59L295,216c-2.72,2.57-5.25,6.92-6.77,11.51l-8.64-2-2.42,10.72,9.21,2.08c.21,10.27,6.74,16.35,13.52,17.88C310.61,258.71,317.07,251.43,321.48,244.83Z" transform="translate(-133.19 -69.65)" style="fill:#7ed5c5"/><path d="M191.71,357.7l116.5-243.65a5.71,5.71,0,0,1,7.61-2.68l140.47,67.17a5.71,5.71,0,0,1,2.69,7.61L342.47,429.79a5.71,5.71,0,0,1-7.61,2.69L194.39,365.31A5.71,5.71,0,0,1,191.71,357.7Z" transform="translate(-133.19 -69.65)" style="fill:#5d9c90"/><path d="M218.88,330.73l85.39-178.59a28.53,28.53,0,0,0,38-13.43l76.07,36.38a28.51,28.51,0,0,0,13.42,38L346.41,391.71a28.52,28.52,0,0,0-38,13.42L232.3,368.76A28.51,28.51,0,0,0,218.88,330.73Z" transform="translate(-133.19 -69.65)" style="fill:#7ed5c5"/><ellipse cx="325.34" cy="271.92" rx="47.55" ry="61.86" transform="translate(-193.52 378.48) rotate(-64.44)" style="fill:#5d9c90"/><path d="M351.54,217.13c-11.75-5.62-17.77-17.49-13.45-26.52s17.34-11.8,29.09-6.18S385,201.92,380.63,211,363.29,222.75,351.54,217.13Z" transform="translate(-133.19 -69.65)" style="fill:#5d9c90"/><ellipse cx="291.32" cy="343.07" rx="18.12" ry="23.58" transform="translate(-277.05 388.25) rotate(-64.44)" style="fill:#5d9c90"/><path d="M329.69,278.58c6.35-5.95,8.51-6.55,10.49-5.61s3.23,3.6,1,8.32a20.65,20.65,0,0,1-6.87,8.24l-2.21,1.61,8,8.76,2.12-1.51a26.77,26.77,0,0,0,7.34-8l7.7,3.68,4.71-9.84-8.3-4c1.75-8.55-1.56-16.06-8.79-19.52-9.1-4.35-16.56,1.08-23.26,7.58-5.85,5.56-8.56,5.4-10.43,4.5-2.93-1.4-3.5-5.44-1.4-9.84a22.92,22.92,0,0,1,8.14-9.29l2.53-1.6-8.23-8.64-2,1.2c-3.23,1.9-6.66,5.58-9.16,9.73l-8-3.82-4.74,9.91,8.52,4.08c-2.07,10.05,3,17.43,9.22,20.43C316,289.71,323.92,284,329.69,278.58Z" transform="translate(-133.19 -69.65)" style="fill:#7ed5c5"/><rect y="212.86" width="333.81" height="247.18" rx="17.39" style="fill:#a67c52"/><path d="M0,241.29H295.27a9.24,9.24,0,0,1,9.24,9.24V422.37a9.24,9.24,0,0,1-9.24,9.24H0a0,0,0,0,1,0,0V241.29A0,0,0,0,1,0,241.29Z" style="fill:#c19f7e"/><rect x="8.83" y="254.3" width="7.54" height="5.03" style="fill:#f6f6f6"/><path d="M407.89,488.25h-10v-5h10Zm-19.86,0H378v-5h10Zm-19.86,0h-10v-5h10Zm-19.86,0h-10v-5h10Zm-19.86,0h-10v-5h10Zm-19.87,0h-10v-5h10Zm-19.86,0h-10v-5h10Zm-19.86,0h-10v-5h10Zm-19.86,0H239v-5h10Zm-19.86,0h-10v-5h10Zm-19.86,0h-10v-5h10Zm-19.86,0h-10v-5h10Zm-19.86,0h-10v-5h10Zm248.91-7.2-4.89-1.2.6-2.44a7.62,7.62,0,0,0,.21-1.79v-5.07h5v5.07a12.33,12.33,0,0,1-.35,3Zm.95-20.36h-5v-10h5Zm0-19.87h-5v-10h5Zm0-19.86h-5V411h5Zm0-19.86h-5v-10h5Zm0-19.86h-5v-10h5Zm0-19.86h-5v-10h5Zm0-19.87h-5v-4.93a7,7,0,0,0-.23-1.89l-.62-2.44,4.87-1.25.63,2.44a12.4,12.4,0,0,1,.38,3.15ZM407.76,329h-10v-5h10Zm-19.86,0h-10v-5h10ZM368,329h-10v-5h10Zm-19.86,0h-10v-5h10Zm-19.86,0h-10v-5h10Zm-19.86,0h-10v-5h10Zm-19.86,0h-10v-5h10Zm-19.86,0h-10v-5h10Zm-19.86,0h-10v-5h10ZM229,329H219v-5h10Zm-19.86,0h-10v-5h10Zm-19.86,0h-10v-5h10Zm-19.86,0h-10v-5h10Z" transform="translate(-133.19 -69.65)" style="fill:#f6f6f6"/><rect x="8.83" y="413.57" width="7.54" height="5.03" style="fill:#f6f6f6"/><path d="M208.2,303H319.87a0,0,0,0,1,0,0v66.81a0,0,0,0,1,0,0H208.2a25.73,25.73,0,0,1-25.73-25.73V328.77A25.73,25.73,0,0,1,208.2,303Z" style="fill:#a67c52"/><circle cx="353.8" cy="406.1" r="19.18" transform="translate(-213.29 655.55) rotate(-85.27)" style="fill:#f6f6f6"/></svg>