<svg xmlns="http://www.w3.org/2000/svg" viewBox="0 0 600 367.58"><g style="isolation:isolate"><g id="Ebene_1" data-name="Ebene 1"><rect x="167.44" width="300" height="122.58" style="fill:#7d8ba8"/><path d="M460.79,122.86V232.14H174.08V122.86H460.79m6.65-6.65h-300V238.79h300V116.21Z" transform="translate(0 -116.21)" style="fill:#f6f6f6"/><rect x="300" y="122.31" width="300" height="122.58" style="fill:#7d8ba8"/><path d="M593.35,245.16V354.45H306.65V245.16h286.7m6.65-6.64H300V361.09H600V238.52Z" transform="translate(0 -116.21)" style="fill:#f6f6f6"/><path d="M423.55,275.23c17.83,1.69,34.08-10.18,51.8-12.76,14.54-2.12,29.14,2.11,43.54,5s30.19,4.33,43.06-2.76c10.1-5.56,16.71-15.47,21.36-26.21h-224c14.31,8.54,27.42,19.94,41.88,28.44C408.12,271,415.58,274.48,423.55,275.23Z" transform="translate(0 -116.21)" style="fill:#f6f6f6"/><rect y="122.31" width="300" height="122.58" style="fill:#7d8ba8"/><path d="M293.35,245.16V354.45H6.65V245.16h286.7m6.65-6.64H0V361.09H300V238.52Z" transform="translate(0 -116.21)" style="fill:#f6f6f6"/><path d="M103,243.29c18.41,8.12,36.63,17.83,56.6,20.21,7.89.94,16,.68,23.57-1.85,6.71-2.25,12.7-6.21,19-9.37,17.52-8.74,37.11-11.19,56.68-13.76H91.62C95.43,240.05,99.23,241.63,103,243.29Z" transform="translate(0 -116.21)" style="fill:#f6f6f6"/><path d="M38.3,329a8.76,8.76,0,1,1-8.75-8.75A8.76,8.76,0,0,1,38.3,329Z" transform="translate(0 -116.21)" style="fill:#444c5c;mix-blend-mode:multiply"/><path d="M215.28,188.59a8.76,8.76,0,1,1-8.75-8.76A8.76,8.76,0,0,1,215.28,188.59Z" transform="translate(0 -116.21)" style="fill:#444c5c;mix-blend-mode:multiply"/><path d="M575.63,291.05a8.76,8.76,0,1,1-8.75-8.76A8.76,8.76,0,0,1,575.63,291.05Z" transform="translate(0 -116.21)" style="fill:#444c5c;mix-blend-mode:multiply"/><path d="M48.61,305.94a5.16,5.16,0,1,1-5.15-5.16A5.16,5.16,0,0,1,48.61,305.94Z" transform="translate(0 -116.21)" style="fill:#444c5c;mix-blend-mode:multiply"/><path d="M68.76,337.78a5.15,5.15,0,1,1-5.15-5.15A5.15,5.15,0,0,1,68.76,337.78Z" transform="translate(0 -116.21)" style="fill:#444c5c;mix-blend-mode:multiply"/><path d="M202.92,219.55a5.15,5.15,0,1,1-5.15-5.15A5.15,5.15,0,0,1,202.92,219.55Z" transform="translate(0 -116.21)" style="fill:#444c5c;mix-blend-mode:multiply"/><path d="M336.66,337.78a5.15,5.15,0,1,1-5.15-5.15A5.15,5.15,0,0,1,336.66,337.78Z" transform="translate(0 -116.21)" style="fill:#444c5c;mix-blend-mode:multiply"/><path d="M559.7,320.27a5.15,5.15,0,1,1-5.15-5.16A5.16,5.16,0,0,1,559.7,320.27Z" transform="translate(0 -116.21)" style="fill:#444c5c;mix-blend-mode:multiply"/><rect x="167" y="245" width="300" height="122.58" style="fill:#7d8ba8"/><path d="M460.35,367.86V477.14H173.65V367.86h286.7m6.65-6.65H167V483.79H467V361.21Z" transform="translate(0 -116.21)" style="fill:#f6f6f6"/><path d="M314,383c42,.69,55.66-5.26,60.31-16H214C228.31,375.54,253,382,314,383Z" transform="translate(0 -116.21)" style="fill:#f6f6f6"/><path d="M440.11,400.86a5.16,5.16,0,1,1-5.16-5.15A5.16,5.16,0,0,1,440.11,400.86Z" transform="translate(0 -116.21)" style="fill:#444c5c;mix-blend-mode:multiply"/><path d="M416,411.86a8.6,8.6,0,1,1-8.6-8.6A8.6,8.6,0,0,1,416,411.86Z" transform="translate(0 -116.21)" style="fill:#444c5c;mix-blend-mode:multiply"/></g></g></svg>