<svg id="Ebene_1" data-name="Ebene 1" xmlns="http://www.w3.org/2000/svg" viewBox="0 0 600 595.44"><path d="M299.69,150.22c-38.48,0-90.42,31.54-132,38.83-48,8.42-69.89-29.47-89.26-26.87l-.57.08c-10.14,1.54-9.52,16.26.71,17,8.86.64,18.74,4.68,28.43,13.95,30.88,29.57,69.06,23.38,122.39,5.06,31.24-10.74,55.4-12.09,70.28-11.08Z" transform="translate(0 -2.28)" style="fill:#7ed5c5"/><path d="M300.31,150.22c38.48,0,90.42,31.54,132,38.83,48,8.42,69.89-29.47,89.26-26.87l.57.08c10.14,1.54,9.52,16.26-.71,17-8.86.64-18.74,4.68-28.43,13.95-30.88,29.57-69.06,23.38-122.39,5.06-31.24-10.74-55.4-12.09-70.28-11.08Z" transform="translate(0 -2.28)" style="fill:#7ed5c5"/><path d="M299.57,240a43.21,43.21,0,0,1-41.9-53.81H247.32a25.86,25.86,0,0,1-4.16-.33,57.45,57.45,0,0,0,56.41,68.38H300V240Z" transform="translate(0 -2.28)" style="fill:#7ed5c5"/><path d="M357,196.8a57.78,57.78,0,0,0-1-10.59H341.47A43.2,43.2,0,0,1,300,240v14.24A57.51,57.51,0,0,0,357,196.8Z" transform="translate(0 -2.28)" style="fill:#7ed5c5"/><path d="M349.92,132.49H333.51L317.62,60.28H281.9l-16.27,72.21H249.49a7,7,0,0,0,0,14h18.77c1.45,0,12.6.73,13.54,16.29V359.6h35.81V163.67c.52-16.5,12.13-17.18,13.62-17.21h18.69a7,7,0,1,0,0-14Z" transform="translate(0 -2.28)" style="fill:#6cb6a8"/><circle cx="299.71" cy="24.24" r="24.24" style="fill:#6cb6a8"/><path d="M281.8,386.7V387l.18-.26Z" transform="translate(0 -2.28)" style="fill:#7ed5c5"/><path d="M282.28,387.19h17.43v-.49H282l-.18.26v.93Z" transform="translate(0 -2.28)" style="fill:#6cb6a8"/><path d="M317.61,387v-.26h-.18Z" transform="translate(0 -2.28)" style="fill:#6cb6a8"/><rect x="299.71" y="384.42" width="0.25" height="0.48" style="fill:#6cb6a8"/><path d="M316.65,533.35H299.71v.28h17.9v-.58l-.18.3Z" transform="translate(0 -2.28)" style="fill:#5d9c90"/><path d="M318.43,388.15c-.37-.56-.65-.95-.82-1.19v1.67c-.61-.95-1-1.44-1-1.44H282.28l-.48.7V387l-.32.45c-5,7.32-45.67,70.6,0,145.12l.5.82h34.67l1-1.63v1.33l.82-1.33C362.05,459.62,325.13,398.22,318.43,388.15Z" transform="translate(0 -2.28)" style="fill:#6cb6a8"/><path d="M300.45,386.7H300v.49h16.69s.35.49,1,1.44V387l-.18-.26Z" transform="translate(0 -2.28)" style="fill:#5d9c90"/><path d="M316.65,533.35h.78l.18-.3v-1.33Z" transform="translate(0 -2.28)" style="fill:#5d9c90"/><polygon points="298.96 384.43 299.71 384.43 299.71 357.32 281.8 357.32 281.8 384.43 281.98 384.43 298.96 384.43" style="fill:#89e7d5"/><polygon points="299.71 384.43 299.95 384.43 300.45 384.43 317.43 384.43 317.61 384.43 317.61 357.32 299.71 357.32 299.71 384.43" style="fill:#89e7d5"/><path d="M456.73,533.35h-314a15.81,15.81,0,0,0-15.77,15.76v10.38H472.49V549.11A15.8,15.8,0,0,0,456.73,533.35Z" transform="translate(0 -2.28)" style="fill:#5d9c90"/><path d="M472.11,567.71H127.89c-7.73,0-14,7.1-14,15.77v14.24H486.16V583.48C486.16,574.81,479.84,567.71,472.11,567.71Z" transform="translate(0 -2.28)" style="fill:#2a4641"/><polygon points="126.92 557.1 126.92 565.43 472.49 565.43 472.49 561.08 472.49 557.21 126.92 557.1" style="fill:#6cb6a8"/><path d="M299.71,132.49s-.1-37.62-.14-37.62v37.62Z" transform="translate(0 -2.28)" style="fill:#6cb6a8"/><path d="M291.87,96.39a7.84,7.84,0,0,0,7.84,7.83V88.55A7.85,7.85,0,0,0,291.87,96.39Z" transform="translate(0 -2.28)" style="fill:none"/><path d="M299.71,81.43h0a15,15,0,1,0,0,29.91h0a15,15,0,0,0,0-29.91Zm0,22.79h0a7.84,7.84,0,1,1,0-15.67h0a7.84,7.84,0,0,1,0,15.67Z" transform="translate(0 -2.28)" style="fill:#5d9c90"/><path d="M85.23,171a4.1,4.1,0,1,1-4.1-4.1A4.1,4.1,0,0,1,85.23,171Z" transform="translate(0 -2.28)" style="fill:#6cb6a8"/><path d="M26.72,413.54,81.13,193.21v-25a4.82,4.82,0,0,0-4.69,3.67L15.86,417.22a4.83,4.83,0,0,0,4.69,6H81.13v-9.66Z" transform="translate(0 -2.28)" style="fill:#5d9c90"/><path d="M145.51,421.35a4.79,4.79,0,0,0,.89-4.13L85.82,171.9a4.82,4.82,0,0,0-4.69-3.67v25l54.41,220.33H81.13v9.66h60.58A4.8,4.8,0,0,0,145.51,421.35Z" transform="translate(0 -2.28)" style="fill:#5d9c90"/><path d="M155.53,413.54H6.73c-4.2,0-7.38,5.45-6.62,11.35,5.36,41.34,39.59,73.23,81,73.23s75.66-31.89,81-73.23C162.91,419,159.73,413.54,155.53,413.54Z" transform="translate(0 -2.28)" style="fill:#89e7d5"/><path d="M156.67,405.38H5.59a4.08,4.08,0,0,0,0,8.16H156.67a4.08,4.08,0,0,0,0-8.16Z" transform="translate(0 -2.28)" style="fill:#5d9c90"/><path d="M514.77,171a4.1,4.1,0,1,0,4.1-4.1A4.1,4.1,0,0,0,514.77,171Z" transform="translate(0 -2.28)" style="fill:#6cb6a8"/><path d="M573.28,413.54,518.87,193.21v-25a4.82,4.82,0,0,1,4.69,3.67l60.58,245.32a4.83,4.83,0,0,1-4.69,6H518.87v-9.66Z" transform="translate(0 -2.28)" style="fill:#5d9c90"/><path d="M454.49,421.35a4.79,4.79,0,0,1-.89-4.13L514.18,171.9a4.82,4.82,0,0,1,4.69-3.67v25L464.46,413.54h54.41v9.66H458.29A4.8,4.8,0,0,1,454.49,421.35Z" transform="translate(0 -2.28)" style="fill:#5d9c90"/><path d="M593.27,413.54H444.47c-4.2,0-7.38,5.45-6.62,11.35,5.36,41.34,39.59,73.23,81,73.23s75.66-31.89,81-73.23C600.65,419,597.47,413.54,593.27,413.54Z" transform="translate(0 -2.28)" style="fill:#89e7d5"/><path d="M594.41,405.38H443.33a4.08,4.08,0,1,0,0,8.16H594.41a4.08,4.08,0,1,0,0-8.16Z" transform="translate(0 -2.28)" style="fill:#5d9c90"/><path d="M349.78,46.31H249.35a7,7,0,0,0,0,14H349.78a7,7,0,1,0,0-14Z" transform="translate(0 -2.28)" style="fill:#5d9c90"/></svg>