<svg id="Ebene_1" data-name="Ebene 1" xmlns="http://www.w3.org/2000/svg" viewBox="0 0 519.86 600"><path id="background" d="M299.75,600,40.07,449.79l.25-300L300.25,0,559.93,150.21l-.25,300Z" transform="translate(-40.07)" style="fill:#7ed5c5"/><path d="M300.15,118.33,142.75,209,142.6,390.7l157.25,91L457.25,391l.15-181.66ZM438.29,380,299.87,459.76l-138.29-80L161.71,220l138.42-79.77,138.29,80Z" transform="translate(-40.07)" style="fill:#f6f6f6"/><polygon points="330.27 289.7 321.1 296.44 321.46 355.72 297.66 355.72 297.66 313.65 288.45 320.41 288.45 355.72 265.3 355.72 265.3 337.41 261.08 340.51 256.09 337.8 256.09 355.72 232.95 355.72 232.95 325.22 228.75 322.94 223.73 326.58 223.73 355.72 200.59 355.72 200.59 343.39 191.38 350.08 191.38 355.72 173.23 355.72 173.23 359.07 346.63 359.07 346.63 355.72 330.67 355.72 330.27 289.7" style="fill:#f6f6f6"/><polygon points="330.11 262.8 330.02 246.96 320.8 246.96 320.94 269.53 330.11 262.8" style="fill:#f6f6f6"/><polygon points="297.66 270.56 288.45 270.56 288.45 293.39 297.66 286.63 297.66 270.56" style="fill:#f6f6f6"/><polygon points="256.09 313.01 259.33 314.77 265.3 310.38 265.3 288.77 256.09 288.77 256.09 313.01" style="fill:#f6f6f6"/><polygon points="232.05 299.94 232.95 300.42 232.95 282.91 223.73 282.91 223.73 299.48 226.93 297.15 232.05 299.94" style="fill:#f6f6f6"/><polygon points="200.59 305.46 191.38 305.46 191.38 323.11 200.59 316.38 200.59 305.46" style="fill:#f6f6f6"/><polygon points="260.07 325.66 256.09 323.49 256.09 323.49 232.95 310.91 232.95 310.91 227.65 308.03 195.1 331.8 191.38 334.52 191.38 334.52 183.09 340.57 185.24 343.15 228.05 312.06 232.95 314.73 232.95 314.73 260.34 329.62 288.45 308.98 288.45 308.98 291.68 306.6 321.03 285.05 321.03 285.05 330.21 278.32 330.21 278.32 339.18 271.73 337.19 269.03 321.53 280.53 321.01 280.92 321.01 280.92 297.66 298.06 297.66 298.06 288.45 304.82 288.45 304.82 260.07 325.66" style="fill:#f6f6f6"/></svg>