<svg id="Ebene_1" data-name="Ebene 1" xmlns="http://www.w3.org/2000/svg" viewBox="0 0 600 587.55"><rect y="391.86" width="112.05" height="195.69" style="fill:#89e7d5"/><rect x="162.65" y="323.31" width="112.05" height="264.23" style="fill:#7ed5c5"/><rect x="325.3" y="248.98" width="112.05" height="338.57" style="fill:#6cb6a8"/><rect x="487.95" y="126.32" width="112.05" height="461.23" style="fill:#5d9c90"/><polygon points="38.54 324.49 34.25 309.68 215.35 257.14 376.31 147.83 539.35 25.58 548.6 37.92 385.13 160.49 222 271.27 38.54 324.49" style="fill:#f6f6f6"/><path d="M89.83,323.31A33.81,33.81,0,1,1,56,289.5,33.81,33.81,0,0,1,89.83,323.31Z" transform="translate(0 -6.23)" style="fill:#f6f6f6"/><path d="M75.65,323.31A19.63,19.63,0,1,1,56,303.68,19.63,19.63,0,0,1,75.65,323.31Z" transform="translate(0 -6.23)" style="fill:#89e7d5"/><path d="M252.48,261.65a33.81,33.81,0,1,1-33.81-33.81A33.8,33.8,0,0,1,252.48,261.65Z" transform="translate(0 -6.23)" style="fill:#f6f6f6"/><path d="M238.3,261.65A19.63,19.63,0,1,1,218.67,242,19.63,19.63,0,0,1,238.3,261.65Z" transform="translate(0 -6.23)" style="fill:#7ed5c5"/><path d="M414.6,160.34a33.81,33.81,0,1,1-33.8-33.81A33.8,33.8,0,0,1,414.6,160.34Z" transform="translate(0 -6.23)" style="fill:#f6f6f6"/><path d="M400.42,160.34a19.63,19.63,0,1,1-19.62-19.63A19.62,19.62,0,0,1,400.42,160.34Z" transform="translate(0 -6.23)" style="fill:#6cb6a8"/><path d="M577.78,40A33.81,33.81,0,1,1,544,6.23,33.8,33.8,0,0,1,577.78,40Z" transform="translate(0 -6.23)" style="fill:#f6f6f6"/><path d="M563.61,40A19.63,19.63,0,1,1,544,20.4,19.63,19.63,0,0,1,563.61,40Z" transform="translate(0 -6.23)" style="fill:#5d9c90"/></svg>