<svg id="Ebene_1" data-name="Ebene 1" xmlns="http://www.w3.org/2000/svg" viewBox="0 0 600 229.52"><path d="M257.7,368.51l1.23-.47h-4.52A12.22,12.22,0,0,1,257.7,368.51Z" transform="translate(0 -185.24)" style="fill:none"/><path d="M299.9,351.64l0,0,0,0Z" transform="translate(0 -185.24)" style="fill:none"/><path d="M300.81,352.76l0,0h0l-.19.35,0,.07C300.69,353,300.75,352.89,300.81,352.76Z" transform="translate(0 -185.24)" style="fill:none"/><path d="M340.47,367.91l1.11.41a12.24,12.24,0,0,1,2.52-.28h-2.68Z" transform="translate(0 -185.24)" style="fill:none"/><path d="M300.93,352.9l-.12-.14c-.06.13-.12.26-.19.39l0-.07a.67.67,0,0,1-.06.12l1,.37a6.4,6.4,0,0,1-.46-.85Z" transform="translate(0 -185.24)" style="fill:#c8d5be"/><path d="M453.86,335.6c69.07,22,111.77,19.94,127.54,17.91l-16.1-18.28c-39.15-1-73.29-9.94-103.41-19.32-17.83-5.54-41.65-13-65.62-15-55.18,19-86.5,44.05-93.94,50.46C347.29,316.28,388.29,314.74,453.86,335.6Z" transform="translate(0 -185.24)" style="fill:#ccc"/><polygon points="300.78 167.48 300.78 167.49 300.79 167.48 300.78 167.48" style="fill:#e9eee5"/><path d="M301.94,351.66l.39-.31c7.44-6.41,38.76-31.46,93.94-50.46,45.15-15.55,106.28-27.05,183.42-20.94l-47.52-28.11s-54-7.09-113.74,4.69C379.35,277.22,337.44,307.52,301.94,351.66Z" transform="translate(0 -185.24)" style="fill:#e6e6e6"/><path d="M453.86,335.6c-65.57-20.86-106.57-19.32-151.53,15.75l-.39.31c-.29.35-.58.7-.86,1.06a6.4,6.4,0,0,0,.46.85l38.93,14.34.95.13H593.75l-5.44-15.72a63.36,63.36,0,0,1-6.91,1.19C565.63,355.54,522.93,357.58,453.86,335.6Z" transform="translate(0 -185.24)" style="fill:#f6f6f6"/><path d="M148,335.6c55.52-17.66,93.41-19.26,131,1.93-15.86-10.59-41.06-24.82-75.58-36.69-23.23,2.29-46.16,9.53-63.46,14.91-30.12,9.37-64.25,18.07-103.4,19.08L20,353.45C35.34,355.5,78.23,357.8,148,335.6Z" transform="translate(0 -185.24)" style="fill:#ccc"/><path d="M299.3,350.89v.28l.61.47v0C299.69,351.38,299.49,351.14,299.3,350.89Z" transform="translate(0 -185.24)" style="fill:#c8d5be"/><path d="M299.29,351.17v-.28c-35-43.25-76.13-73.16-114.63-93.71-61-12.7-117-5.34-117-5.34L20.16,280c77-6.1,138.12,5.37,183.26,20.89,34.52,11.87,59.72,26.1,75.58,36.69A166.1,166.1,0,0,1,299.29,351.17Z" transform="translate(0 -185.24)" style="fill:#e6e6e6"/><path d="M333.1,377.35a10.37,10.37,0,0,1,.93-3.25l-34.9-12.86-34.51,13.22a11.09,11.09,0,0,1,.74,2.57c.59,2.18,5.31,15.44,32.4,15.44a10.49,10.49,0,0,1,1.87.17,10.49,10.49,0,0,1,1.87-.17C328.28,392.47,332.57,379.52,333.1,377.35Z" transform="translate(0 -185.24)" style="fill:#00659c"/><path d="M588.85,368H344.1a12.24,12.24,0,0,0-2.52.28l-1.11-.41-38.93-14.34-1-.37-1.46-.54L258.93,368l-1.23.47a12.22,12.22,0,0,0-3.29-.47H11.15a11.15,11.15,0,1,0,0,22.29H247c5.45,9.95,18.88,24.43,50.78,24.43a11.51,11.51,0,0,0,1.87-.17,11.51,11.51,0,0,0,1.87.17c31.83,0,44.94-14.4,50.22-24.43H588.85a11.15,11.15,0,1,0,0-22.29ZM301.5,392.47a10.49,10.49,0,0,0-1.87.17,10.49,10.49,0,0,0-1.87-.17c-27.09,0-31.81-13.26-32.4-15.44a11.09,11.09,0,0,0-.74-2.57l34.51-13.22L334,374.1a10.37,10.37,0,0,0-.93,3.25C332.57,379.52,328.28,392.47,301.5,392.47Z" transform="translate(0 -185.24)" style="fill:#1a9dd9"/><path d="M258.93,368l40.14-15.38,1.46.54a.67.67,0,0,0,.06-.12l.19-.35h0c-.28-.36-.57-.71-.86-1.06l0,0-.61-.47A166.1,166.1,0,0,0,279,337.53c-37.6-21.19-75.49-19.59-131-1.93C78.23,357.8,35.34,355.5,20,353.45a59.79,59.79,0,0,1-6.43-1.13L8.11,368H258.93Z" transform="translate(0 -185.24)" style="fill:#f6f6f6"/><path d="M299.3,350.89c.19.25.39.49.59.73,0,0,0,.25,0,.27.29.35.58,1.29.86,1.29h0l0-.19c0,.05.08,0,.12,0s.1-.17.15-.23c.28-.36.57-.74.86-1.09,35.5-44.15,77.41-74.46,116.49-95.15C487.65,219.89,548,213.36,548,213.36l-62.16-28.11C344.27,210.34,300.93,298.69,300.93,298.69S257.59,210.34,116,185.24L53.87,213.35s61.06,6.6,130.8,43.83C223.17,277.73,264.3,307.64,299.3,350.89Z" transform="translate(0 -185.24)" style="fill:#f6f6f6"/></svg>