<svg id="Ebene_1" data-name="Ebene 1" xmlns="http://www.w3.org/2000/svg" viewBox="0 0 593.32 384.93"><line x1="15.32" y1="369.61" x2="209.62" y2="369.61" style="fill:none;stroke:#f6f6f6;stroke-linecap:round;stroke-miterlimit:10;stroke-width:30.63999797404886px"/><path d="M343.89,455l-20.84,20.69a4.12,4.12,0,0,1-1.17.82,4,4,0,0,1-1.12.38l-37.69,7.36-15.23,2.9-.87.16-46.67,8.93a6,6,0,0,1-7-4.76,6.25,6.25,0,0,1,0-2.2l8.86-46.69.17-.87,2.9-15.24,7.36-37.68a3.69,3.69,0,0,1,.37-1.12,4.22,4.22,0,0,1,.83-1.17l20.76-20.77a4.17,4.17,0,0,1,5.89-.32l.15.14L344,449a4.23,4.23,0,0,1,0,6A1.14,1.14,0,0,0,343.89,455Z" transform="translate(-2.68 -113.62)" style="fill:#ddc5a8"/><path d="M542.55,256.63l-219.3,219.3a3.89,3.89,0,0,1-1.17.83l-.14-.14c-10.61-13.94-16.17-27.6-12.54-30.79h0c-3.47,3.46-16.46-3.91-29-16.48s-19.95-25.55-16.48-29h0c-3.23,3.6-16.88-1.95-30.79-12.54l-.14-.14a3.72,3.72,0,0,1,.83-1.17L453.1,167.17Z" transform="translate(-2.68 -113.62)" style="fill:#1cb7ec"/><path d="M267.89,487.23l-.88.16-46.71,8.89a6,6,0,0,1-7-4.76,6.25,6.25,0,0,1,0-2.2l8.86-46.69.17-.87Z" transform="translate(-2.68 -113.62)" style="fill:#f6f6f6"/><path d="M523.21,118l68.41,68.41a15,15,0,0,1,0,21.17L570.19,229h0l-89.57-89.57h0L502.05,118A15,15,0,0,1,523.21,118Z" transform="translate(-2.68 -113.62)" style="fill:#005188"/><path d="M475,189.1,263.87,400.25h0c-3.23,3.6-16.88-1.95-30.79-12.54l-.14-.14a4,4,0,0,1,.82-1.17L453,167.12Z" transform="translate(-2.68 -113.62)" style="fill:#1a9dd9"/><path d="M542.55,256.63l-219.3,219.3a3.89,3.89,0,0,1-1.17.83l-.14-.14c-10.61-13.94-16.17-27.6-12.54-30.79h0L520.57,234.65Z" transform="translate(-2.68 -113.62)" style="fill:#1a9dd9"/><rect x="488.08" y="135.19" width="44.66" height="127.92" transform="translate(6 305.62) rotate(-45)" style="fill:#ccc"/><rect x="496.97" y="145.99" width="5.27" height="127.92" transform="translate(-4.81 301.15) rotate(-45)" style="fill:#f6f6f6"/><rect x="504.17" y="138.79" width="5.27" height="127.92" transform="translate(2.39 304.13) rotate(-45)" style="fill:#f6f6f6"/><rect x="511.37" y="131.58" width="5.27" height="127.92" transform="translate(9.6 307.11) rotate(-45)" style="fill:#f6f6f6"/><rect x="518.59" y="124.37" width="5.27" height="127.92" transform="translate(16.81 310.1) rotate(-45)" style="fill:#f6f6f6"/></svg>