<svg id="Ebene_1" data-name="Ebene 1" xmlns="http://www.w3.org/2000/svg" xmlns:xlink="http://www.w3.org/1999/xlink" viewBox="0 0 519.86 600"><defs><clipPath id="clip-path" transform="translate(-40.07)"><path d="M359.32,338.46H240.51a5.68,5.68,0,0,1-5.67-5.67v-81H359.32a5.68,5.68,0,0,1,5.67,5.66v75.33A5.68,5.68,0,0,1,359.32,338.46Z" style="fill:none;clip-rule:evenodd"/></clipPath></defs><path id="background" d="M299.75,600,40.07,449.79l.25-300L300.25,0,559.93,150.21l-.25,300Z" transform="translate(-40.07)" style="fill:#1a9dd9"/><path d="M300.15,118.33,142.75,209,142.6,390.7l157.25,91L457.25,391l.15-181.66ZM438.29,380,299.87,459.76l-138.29-80L161.71,220l138.42-79.77,138.29,80Z" transform="translate(-40.07)" style="fill:#f6f6f6"/><path d="M299.85,481.67l-157.25-91L142.75,209l157.4-90.71,157.25,91L457.25,391ZM161.58,379.76l138.29,80L438.29,380l.13-159.75-138.29-80L161.71,220Z" transform="translate(-40.07)" style="fill:#f6f6f6"/><g style="clip-path:url(#clip-path)"><path d="M286.9,251.8H365l-10.16,6.66H286.9ZM345,265.13l-10.16,6.67H286.9v-6.67Zm-20,13.33-10.16,6.67H286.9v-6.67ZM305,291.8l-10.16,6.66H286.9V291.8Zm-20,13.33-10.15,6.66h-40v-6.66Zm-20,13.33-10.16,6.67h-20v-6.67Zm-20,13.33-10.16,6.67v-6.67Z" transform="translate(-40.07)" style="fill:#f6f6f6;fill-rule:evenodd"/><polygon points="270.64 338.46 310.63 338.46 270.64 311.79 270.64 338.46" style="fill:#f6f6f6;fill-rule:evenodd"/><polygon points="209.05 338.46 249.05 338.46 249.05 311.79 209.05 338.46" style="fill:#f6f6f6;fill-rule:evenodd"/><polygon points="324.92 328.62 324.92 309.25 295.4 309.25 324.92 328.62" style="fill:#f6f6f6;fill-rule:evenodd"/><polygon points="324.92 281 324.92 261.32 295.4 281 324.92 281" style="fill:#f6f6f6;fill-rule:evenodd"/><polygon points="253.5 308.87 253.5 338.46 266.19 338.46 266.19 302.27 324.92 302.27 324.92 287.99 284.87 287.99 253.5 308.87" style="fill:#f6f6f6"/><polygon points="280.8 309.25 324.6 338.46 324.92 338.46 324.92 332.43 289.68 309.25 280.8 309.25" style="fill:#f6f6f6"/><path d="M238.91,281.92l.59,1.76h1.17l-1.17.88.59,1.76-1.18-.88-1.17.88.59-1.76-1.18-.88h1.47Zm39.92,8.81.58,1.46h1.47l-1.17,1.18.29,1.76L278.83,294l-.88,1.18.29-1.76-1.17-1.18h1.46Zm-7.93,0,.59,1.46h1.17l-.88,1.18.3,1.76L270.9,294l-1.17,1.18.59-1.76-1.18-1.18h1.47Zm-7.92,0,.29,1.46h1.47l-1.17,1.18.58,1.76L263,294l-1.18,1.18.59-1.76-1.17-1.18h1.17Zm-7.93,0,.3,1.46h1.46l-1.17,1.18.29,1.76-.88-1.18-1.17,1.18.29-1.76L253,292.19h1.47Zm-8.21,0,.58,1.46h1.47l-1.17,1.18.29,1.76L246.84,294l-1.18,1.18.59-1.76-1.17-1.18h1.46Zm-7.93,0,.59,1.46h1.17l-1.17,1.18.59,1.76L238.91,294l-1.17,1.18.59-1.76-1.18-1.18h1.47ZM275,260.5l.29,1.46h1.47l-1.17,1.18.58,1.76L275,263.72l-1.17,1.18.29-1.76-.88-1.18h1.17Zm-7.92,0,.29,1.46h1.47l-1.18,1.18.3,1.76-.88-1.18-1.18,1.18.3-1.76L265,262h1.47Zm-8.22,0,.59,1.46h1.46l-1.17,1.18.29,1.76-1.17-1.18-1.17,1.18.58-1.76L257.11,262h1.47Zm-7.92,0,.29,1.46h1.47l-1.18,1.18.59,1.76L251,263.72l-1.18,1.18.59-1.76L249.18,262h1.47Zm-7.93,0,.29,1.46h1.47l-1.17,1.18.58,1.76L243,263.72l-1.17,1.18.29-1.76L241,262h1.46Zm35.81-4.41.58,1.77h1.47l-1.17.88.29,1.76-1.17-1.18L278,260.5l.29-1.76-1.17-.88h1.46Zm-7.93,0,.59,1.77h1.17l-.88.88.3,1.76-1.18-1.18-1.17,1.18.59-1.76-1.18-.88h1.47Zm-7.92,0,.29,1.77h1.47l-1.17.88.58,1.76L263,259.32l-1.18,1.18.59-1.76-1.17-.88h1.17Zm-7.93,0,.3,1.77h1.46l-1.17.88.29,1.76-.88-1.18-1.17,1.18.29-1.76-1.17-.88h1.47Zm-8.21,0,.58,1.77h1.47l-1.17.88.29,1.76-1.17-1.18-1.18,1.18.59-1.76-1.17-.88h1.46Zm-7.93,0,.59,1.77h1.17l-1.17.88.59,1.76-1.18-1.18-1.17,1.18.59-1.76-1.18-.88h1.47ZM275,269l.29,1.76h1.47l-1.17.88.58,1.76-1.17-.88-1.17.88.29-1.76-.88-.88h1.17Zm-7.92,0,.29,1.76h1.47l-1.18.88.3,1.76-.88-.88-1.18.88.3-1.76-1.18-.88h1.47Zm-8.22,0,.59,1.76h1.46l-1.17.88.29,1.76-1.17-.88-1.17.88.58-1.76-1.17-.88h1.47ZM251,269l.29,1.76h1.47l-1.18.88.59,1.76-1.17-.88-1.18.88.59-1.76-1.18-.88h1.47ZM243,269l.29,1.76h1.47l-1.17.88.58,1.76-1.17-.88-1.17.88.29-1.76-1.17-.88h1.46Zm35.81-4.41.58,1.77h1.47l-1.17,1.17L280,269l-1.17-.88L278,269l.29-1.47-1.17-1.17h1.46Zm-7.93,0,.59,1.77h1.17l-.88,1.17.3,1.47-1.18-.88-1.17.88.59-1.47-1.18-1.17h1.47Zm-7.92,0,.29,1.77h1.47l-1.17,1.17.58,1.47-1.17-.88-1.18.88.59-1.47-1.17-1.17h1.17Zm-7.93,0,.3,1.77h1.46l-1.17,1.17.29,1.47-.88-.88-1.17.88.29-1.47L253,266.37h1.47Zm-8.21,0,.58,1.77h1.47l-1.17,1.17L248,269l-1.17-.88-1.18.88.59-1.47-1.17-1.17h1.46Zm-7.93,0,.59,1.77h1.17l-1.17,1.17.59,1.47-1.18-.88-1.17.88.59-1.47-1.18-1.17h1.47ZM275,277.52l.29,1.76h1.47l-1.17,1.17.58,1.47L275,281l-1.17.88.29-1.47-.88-1.17h1.17Zm-7.92,0,.29,1.76h1.47l-1.18,1.17.3,1.47-.88-.88-1.18.88.3-1.47L265,279.28h1.47Zm-8.22,0,.59,1.76h1.46l-1.17,1.17.29,1.47-1.17-.88-1.17.88.58-1.47-1.17-1.17h1.47Zm-7.92,0,.29,1.76h1.47l-1.18,1.17.59,1.47L251,281l-1.18.88.59-1.47-1.18-1.17h1.47Zm-7.93,0,.29,1.76h1.47l-1.17,1.17.58,1.47L243,281l-1.17.88.29-1.47L241,279.28h1.46Zm35.81-4.11.58,1.47h1.47l-1.17,1.17.29,1.76-1.17-1.17-.88,1.17.29-1.76-1.17-1.17h1.46Zm-7.93,0,.59,1.47h1.17l-.88,1.17.3,1.76-1.18-1.17-1.17,1.17.59-1.76-1.18-1.17h1.47Zm-7.92,0,.29,1.47h1.47l-1.17,1.17.58,1.76L263,276.64l-1.18,1.17.59-1.76-1.17-1.17h1.17Zm-7.93,0,.3,1.47h1.46l-1.17,1.17.29,1.76-.88-1.17-1.17,1.17.29-1.76L253,274.88h1.47Zm-8.21,0,.58,1.47h1.47l-1.17,1.17.29,1.76-1.17-1.17-1.18,1.17.59-1.76-1.17-1.17h1.46Zm-7.93,0,.59,1.47h1.17l-1.17,1.17.59,1.76-1.18-1.17-1.17,1.17.59-1.76-1.18-1.17h1.47ZM275,286.32l.29,1.76h1.47l-1.17.88.58,1.77L275,289.55l-1.17,1.18.29-1.77-.88-.88h1.17Zm-7.92,0,.29,1.76h1.47l-1.18.88.3,1.77-.88-1.18-1.18,1.18.3-1.77-1.18-.88h1.47Zm-8.22,0,.59,1.76h1.46l-1.17.88.29,1.77-1.17-1.18-1.17,1.18.58-1.77-1.17-.88h1.47Zm-7.92,0,.29,1.76h1.47l-1.18.88.59,1.77L251,289.55l-1.18,1.18.59-1.77-1.18-.88h1.47Zm-7.93,0,.29,1.76h1.47l-1.17.88.58,1.77L243,289.55l-1.17,1.18.29-1.77-1.17-.88h1.46Zm35.81-4.4.58,1.76h1.47l-1.17.88.29,1.76-1.17-.88-.88.88.29-1.76-1.17-.88h1.46Zm-7.93,0,.59,1.76h1.17l-.88.88.3,1.76-1.18-.88-1.17.88.59-1.76-1.18-.88h1.47Zm-7.92,0,.29,1.76h1.47l-1.17.88.58,1.76-1.17-.88-1.18.88.59-1.76-1.17-.88h1.17Zm-7.93,0,.3,1.76h1.46l-1.17.88.29,1.76-.88-.88-1.17.88.29-1.76-1.17-.88h1.47Zm-8.21,0,.58,1.76h1.47l-1.17.88.29,1.76-1.17-.88-1.18.88.59-1.76-1.17-.88h1.46Z" transform="translate(-40.07)" style="fill:#f6f6f6;fill-rule:evenodd"/></g><path d="M361.33,235.31H238.5a20.15,20.15,0,0,0-20.13,20.13v79.33A20.15,20.15,0,0,0,238.5,354.9h73.94l35.9,21.31a1.6,1.6,0,0,0,2.43-1.38V354.9h10.56a20.15,20.15,0,0,0,20.13-20.13V255.44A20.15,20.15,0,0,0,361.33,235.31Zm11.57,99.46a11.58,11.58,0,0,1-11.57,11.57H238.5a11.58,11.58,0,0,1-11.57-11.57V255.44a11.58,11.58,0,0,1,11.57-11.57H361.33a11.58,11.58,0,0,1,11.57,11.57Z" transform="translate(-40.07)" style="fill:#f6f6f6"/></svg>