<svg id="Ebene_1" data-name="Ebene 1" xmlns="http://www.w3.org/2000/svg" viewBox="0 0 224.68 600"><polygon points="97.3 158.15 94.56 127.78 104.41 157.18 97.3 158.15" style="fill:#1a9dd9"/><path d="M298.85,160.57c.49-.32,22.94-22.13,22.94-22.13L306,164.12Z" transform="translate(-187.66)" style="fill:#1a9dd9"/><polygon points="122.66 167.03 157.71 157.34 126.54 172.85 122.66 167.03" style="fill:#1a9dd9"/><polygon points="128.48 175.43 165.63 178.18 130.41 180.6 128.48 175.43" style="fill:#1a9dd9"/><polygon points="60.48 143.61 91.17 160.57 84.87 165.09 60.48 143.61" style="fill:#1a9dd9"/><polygon points="79.37 169.29 54.17 170.06 54.88 172.85 78.08 174.62 79.37 169.29" style="fill:#1a9dd9"/><polygon points="63.38 185.43 77.59 183.98 75.82 178.01 61.46 181.99 63.38 185.43" style="fill:#1a9dd9"/><rect x="15.84" y="28.12" width="13.25" height="13.44" style="fill:#0187c8"/><path d="M238.33,303.84s-13.14-11.79-11-18.56,3-24.55-.23-31.32c0,0-6.15.39-7.89-2.7s3.1-9.67,3.1-9.67-12.76,4.64-12.76-12.18,3.67-29,12.18-37.89c0,0-11-22.61-10.06-37.89a179.34,179.34,0,0,0-1.16-30.93s-3.67-.77-3.67-8.7c0,0-3.48-1.93-3.48-7.54a5.17,5.17,0,0,1,2.13-4.06S207,97,203.34,93.51s-5-7.34-.77-8.89c0,0-6.63-2.32-2.64-6.19,0,0-4.71-6.57,2.06-7.54,0,0-6-5.8-6-10.63h24.16s.44,7.2-3,10.63a38.24,38.24,0,0,1,9.77,24.17c.58,15.08-1.16,24.36,5,41.56s12.37,43.5,12.37,43.5,2.32-1,3.29.19,3.29,2.51,5.22,11a46.75,46.75,0,0,0,7.35,17.21l7.54-8.9s-6-4.64-1.16-13.53c0,0-6.38-8.12-1-16.62s15.85-17.6,37.7-10.64,14.88,32.87,14.88,32.87,4.64,12.56,2.32,20.87-1.21,13.54.65,17.4,11.72,7.35,10,12.76c0,0,12.38,1.16,14.89,14.31s4.45,26.29,24.16,40.21l12-19.14s29.58,19.91,30.16,19.52S403,316.21,403,316.21s7.54.78,3.48,10.25-7.16,20.88-11.22,23.2a17.31,17.31,0,0,1-8.89,1.93s2.71,17.78-.77,27.26-7.54,13.34-12.18,14.3-8.31,6.49-13.15,6.44c0,0,8.9,63.54,9.48,71.47s-4.06,7.92-4.06,7.92.77,11.6,1,14.31-6.18,6-6.18,6,1.54,34.22,1,38.28-6.76,7-6.76,7L358.57,600H219s3.67-8.7,17.21-9.47c0,0,8.5-11.6,6.18-22.62s-8.89-63.21-3.48-81.77c0,0-6.38-1.36-4.44-16.63s-9.48-84.28,1.74-104.2C236.21,365.31,205.27,359.71,238.33,303.84Z" transform="translate(-187.66)" style="fill:#1a9dd9"/><ellipse cx="22.47" cy="42.53" rx="22.47" ry="5.64" style="fill:#1a9dd9"/><rect y="42.53" width="44.94" height="13.44" style="fill:#1a9dd9"/><path d="M244.46,594.38s2.76-2.14,11.33-22.35,5.82-60.61,8-90.31,20.51-49.59,20.51-49.59-16.53,17.76-26.33,35.51-19,18.5-19,18.5c-5.41,18.56,1.16,70.75,3.48,81.77s-6.18,22.62-6.18,22.62C242.61,589.43,244.46,594.38,244.46,594.38Z" transform="translate(-187.66)" style="fill:#0187c8"/><path d="M236.21,336.28c-5.72,1.21-5.43-20.41,2.12-32.44-33.06,55.87-2.12,61.47-2.12,61.47s.29-11.35,14.49-28.5,41.53-50.9,45.81-65.37C296.51,271.44,257.67,331.72,236.21,336.28Z" transform="translate(-187.66)" style="fill:#0187c8"/><path d="M265.17,543s3.56-6.61,23.12-14.23,30.24-16.77,26.94-19.82-24.4-7.37-16-12.7,52.08-31.51,52.08-31.51-6.35,10.42-2,17,2,24.64,2,24.64-.25-13-5.33-13.72-5.08,11.43-6.86,11.18-.76-10.67-6.1-12.7-9.4-1.53-8.89,5.08-1,67.33-.76,76.73-.51,21.41-.51,21.41H319s2.79-18.62-26.68-20.4c0,0,7.62-10.41,8.13-33.53,0,0-2.05,1.43-4.39,3a2.18,2.18,0,0,1-3.39-1.87,12.14,12.14,0,0,0-1.37-6c-2.54-4.57-5.08-3.81-8.64.25S277.37,541,273.56,575c0,0,1.52-20.58-.51-26.68A7.46,7.46,0,0,0,265.17,543Z" transform="translate(-187.66)" style="fill:#0187c8"/><polygon points="113.66 496.98 119.03 355.02 109.69 498.47 113.66 496.98" style="fill:#0187c8"/><path d="M356.53,369.44l3.78,30.15c4.84.05,8.51-5.47,13.15-6.44s8.7-4.83,12.18-14.3.77-27.26.77-27.26a17.31,17.31,0,0,0,8.89-1.93,9.42,9.42,0,0,0,3-3.51c-6,6.46-12.39-1.64-12.39-1.64L368.82,375.4Z" transform="translate(-187.66)" style="fill:#0187c8"/><path d="M266.5,215.27C271.09,217,282,239,287.08,238.66s20.58-21.32,21.61-24.72c0,0-1,7.84,0,10.65s6.81,12,8.74,12.89c0,0,9.18-.85,13.69,5.27,1.74-5.41-8.12-8.89-10-12.76s-3-9.08-.65-17.4-2.32-20.87-2.32-20.87-6.52.3-7.4-6.36c0,0-18.21-2.22-24-11.84,0,0-3.29,8.75-20.22,12.59-4.84,8.89,1.16,13.53,1.16,13.53l-7.54,8.9S261.91,213.49,266.5,215.27Z" transform="translate(-187.66)" style="fill:#0187c8"/><path d="M286.78,173.52s-.36,9.48-7.3,13.52c0,0,6.81-1,7.19.63s-1.26,12.48-.25,14,4.16.88,4.16.88a6.72,6.72,0,0,0,0,4.32,3.3,3.3,0,0,0-.67,3.43,5.58,5.58,0,0,0-1.34,4.14c.13,3.29,5.21,7.92,13.25-.57s6.41-25.85,4-28.4C288.89,185,286.78,173.52,286.78,173.52Z" transform="translate(-187.66)" style="fill:#1a9dd9"/><path d="M265.59,169.49a13.85,13.85,0,0,0-.95,13.16c3.42-5.5,10.79-13.9,24.08-14.2,13-.29,23.86,9.23,30.4,17,.58-8.13-.85-21.8-15.83-26.58C281.44,151.89,271,161,265.59,169.49Z" transform="translate(-187.66)" style="fill:#0187c8"/><path d="M227.14,287.52c.64,6.84,11.19,16.32,11.19,16.32s-2.39-14.08,2-20.41,8.76-23.38,8.76-29.47C249.09,254,243.14,285.73,227.14,287.52Z" transform="translate(-187.66)" style="fill:#0187c8"/><path d="M241.83,188.64c-1-6.41-14.74-50.17-14.14-69.69h0c-.85-7.43-.47-14.1-.72-22.47-1.66,3.76-4.36,8.29-8.44,10.77,0,0,1.47,4.46-1.77,6.41,0,0,1.59,7.24-6.27,9a179.34,179.34,0,0,1,1.16,30.93c-1,15.28,10.06,37.89,10.06,37.89s-13.77,25.56-7.36,32.52S242.82,195.05,241.83,188.64Z" transform="translate(-187.66)" style="fill:#0187c8"/><path d="M245.56,249.25c7.51-7.51,8.87-21.13,8.87-21.13s-3.24,2.58-8.87-.94,3.53-27.25,3.53-27.25a73,73,0,0,1-19.74,26.31c-14.19,12.1-19.59,5.93-19.69,5.82,1.29,13.64,12.63,9.53,12.63,9.53s-4.84,6.57-3.1,9.67,7.89,2.7,7.89,2.7c3.25,6.77,2.36,24.56.23,31.32a5.75,5.75,0,0,0-.17,2.24h0C228.69,277.41,238,256.77,245.56,249.25Z" transform="translate(-187.66)" style="fill:#0187c8"/><path d="M305.81,185.46c-.82,2.89-2.6,3.33-2.6,3.33-7.48-6.27-13.11,0-13.11,0a2.33,2.33,0,0,1,2.85.71,4.72,4.72,0,0,0,4.77,4.28,7.54,7.54,0,0,0,5.49-2.57l4.17-1.16A9.87,9.87,0,0,0,305.81,185.46Z" transform="translate(-187.66)" style="fill:#0187c8"/><path d="M284.31,193.78s-2.54,2.32-6.83.41c-2.37-1.05-1.31,6.78.68,8.14s1.15,6.77,2.86,6.84,3.6-2.63,3.44-9C284.46,200.16,283.87,199.85,284.31,193.78Z" transform="translate(-187.66)" style="fill:#1a9dd9"/><path d="M335,274.39l16.89,36.83v23.92l14.29-26.88s-7.24,7.53-9.67,1.34S335,274.39,335,274.39Z" transform="translate(-187.66)" style="fill:#0187c8"/><path d="M211.89,69c3.07-1.54,5.27,1.88,5.27,1.88,3.44-3.43,3-10.63,3-10.63H196c0,4.83,6,10.63,6,10.63a6.31,6.31,0,0,0-1.87.54c5.65,1.41,10.37,2.25,10.37,2.25S208.82,70.56,211.89,69Z" transform="translate(-187.66)" style="fill:#0187c8"/><path d="M403,316.21s-9.1-6-11.33-4.09,0,4.62,0,4.62a2.36,2.36,0,0,0-3.34,0c-1.75,1.59,0,4.3,0,4.3s-2.23-1-3.5.79c-1,1.41.35,3.41.94,4.15-.4-.4-1.33-1-3-.32-2.39.95-1.11,3.5,1.44,8.12s1.71,10.73,1.71,10.73a12.62,12.62,0,0,0,1.94,7.09,16.52,16.52,0,0,0,7.42-1.94c4.06-2.32,7.16-13.73,11.22-23.2S403,316.21,403,316.21Z" transform="translate(-187.66)" style="fill:#0187c8"/><path d="M232.6,56c0-3.12-10.06-5.65-22.47-5.65S187.66,52.85,187.66,56s10.06,5.64,22.47,5.64S232.6,59.08,232.6,56Z" transform="translate(-187.66)" style="fill:#0187c8"/><path d="M211.87,86.62a2.17,2.17,0,0,0-2.63-2s2.81-.77,2.64-2.62-3.25-2.63-3.25-2.63,3.27-1.23,3.26-2.93-2.79-6-9.9-5.54c-6.77,1-2.06,7.54-2.06,7.54-4,3.87,2.64,6.19,2.64,6.19-4.25,1.55-2.9,5.41.77,8.89,0,0-1.82-4,2.66-4.11S212,87.86,211.87,86.62Z" transform="translate(-187.66)" style="fill:#0187c8"/><path d="M210.13,31.33c-4.19.75-15.87-1.8-16.11-14.09-.21-10.92,11.41-12,14.07-13.29a39.21,39.21,0,0,1-3.54,5.26A93,93,0,0,1,213,5a20.56,20.56,0,0,0,6.58-5s-.66,6.58-2.24,9c0,0,6.39-3,8.86-5.92C226.18,3,230.71,27.64,210.13,31.33Z" transform="translate(-187.66)" style="fill:#1a9dd9"/><path d="M244.36,469.51c9.39-17.95,15.87-30,15.87-30,2.92-17.44,4.65-39.58,6.8-53.66s-28.1-6.78-16.33-49c0,0-18.14,15.38-19.24,51.34h0c-1.55,28.52,4.45,70,3,81.36C234.47,469.51,235,487.46,244.36,469.51Z" transform="translate(-187.66)" style="fill:#0187c8"/></svg>