<svg xmlns="http://www.w3.org/2000/svg" viewBox="0 0 602.5 554.19"><g style="isolation:isolate"><g id="Ebene_1" data-name="Ebene 1"><path d="M540.25,192v.1a8.59,8.59,0,0,0,9.83,8.51l48.57-7.05a1.58,1.58,0,0,0,0-3.13l-48.57-7.05a8.59,8.59,0,0,0-9.83,8.51Z" transform="translate(0 -21.65)" fill="#ffe882" stroke="#ffe882" stroke-miterlimit="10" stroke-width="5"/><path d="M324.13,192v-.11a8.6,8.6,0,0,0-9.84-8.51l-48.56,7.05a1.58,1.58,0,0,0,0,3.13l48.56,7.05a8.6,8.6,0,0,0,9.84-8.51Z" transform="translate(0 -21.65)" fill="#ffe882" stroke="#ffe882" stroke-miterlimit="10" stroke-width="5"/><path d="M325.92,243.39,287.2,273.92a1.58,1.58,0,0,0,1.56,2.71l45.79-18.3a8.51,8.51,0,0,0,4.21-12.17l-.2-.35A8.53,8.53,0,0,0,325.92,243.39Z" transform="translate(0 -21.65)" fill="#ffe882" stroke="#ffe882" stroke-miterlimit="10" stroke-width="5"/><path d="M334.46,125.56l-45.7-18.26A1.58,1.58,0,0,0,287.2,110l38.65,30.47A8.6,8.6,0,0,0,338.61,138l.1-.17A8.61,8.61,0,0,0,334.46,125.56Z" transform="translate(0 -21.65)" fill="#ffe882" stroke="#ffe882" stroke-miterlimit="10" stroke-width="5"/><path d="M483.67,298.31,514.14,337a1.58,1.58,0,0,0,2.71-1.57L498.59,289.7a8.6,8.6,0,0,0-12.3-4.25l-.18.1A8.6,8.6,0,0,0,483.67,298.31Z" transform="translate(0 -21.65)" fill="#ffe882" stroke="#ffe882" stroke-miterlimit="10" stroke-width="5"/><path d="M380.7,85.63,350.23,47a1.58,1.58,0,0,0-2.71,1.56l18.26,45.7a8.61,8.61,0,0,0,12.31,4.25l.17-.1A8.6,8.6,0,0,0,380.7,85.63Z" transform="translate(0 -21.65)" fill="#ffe882" stroke="#ffe882" stroke-miterlimit="10" stroke-width="5"/><path d="M529.92,258.37l45.69,18.27a1.59,1.59,0,0,0,1.57-2.72l-38.73-30.53a8.52,8.52,0,0,0-12.63,2.42l-.15.26A8.6,8.6,0,0,0,529.92,258.37Z" transform="translate(0 -21.65)" fill="#ffe882" stroke="#ffe882" stroke-miterlimit="10" stroke-width="5"/><path d="M365.82,289.6l-18.3,45.79a1.58,1.58,0,0,0,2.71,1.57l30.47-38.65a8.59,8.59,0,0,0-2.44-12.76l-.26-.16A8.52,8.52,0,0,0,365.82,289.6Z" transform="translate(0 -21.65)" fill="#ffe882" stroke="#ffe882" stroke-miterlimit="10" stroke-width="5"/><path d="M432.19,300h-.11a8.59,8.59,0,0,0-8.51,9.83l7.05,48.57a1.58,1.58,0,0,0,3.13,0l7.05-48.57a8.59,8.59,0,0,0-8.51-9.83Z" transform="translate(0 -21.65)" fill="#ffe882" stroke="#ffe882" stroke-miterlimit="10" stroke-width="5"/><path d="M432.19,83.91h.1a8.6,8.6,0,0,0,8.51-9.84l-7.05-48.56a1.58,1.58,0,0,0-3.13,0l-7.05,48.56a8.6,8.6,0,0,0,8.51,9.84Z" transform="translate(0 -21.65)" fill="#ffe882" stroke="#ffe882" stroke-miterlimit="10" stroke-width="5"/><path d="M538.53,140.48,577.18,110a1.58,1.58,0,0,0-1.57-2.71l-45.69,18.26a8.61,8.61,0,0,0-4.25,12.31l.1.17A8.59,8.59,0,0,0,538.53,140.48Z" transform="translate(0 -21.65)" fill="#ffe882" stroke="#ffe882" stroke-miterlimit="10" stroke-width="5"/><path d="M498.59,94.24l18.27-45.7A1.58,1.58,0,0,0,514.14,47L483.68,85.63a8.6,8.6,0,0,0,2.43,12.76l.18.1A8.6,8.6,0,0,0,498.59,94.24Z" transform="translate(0 -21.65)" fill="#ffe882" stroke="#ffe882" stroke-miterlimit="10" stroke-width="5"/><circle cx="432.19" cy="191.97" r="92" transform="translate(-25.01 49.46) rotate(-9.14)" fill="#ffe882"/><path d="M371.46,220.79c-5.89-8.2-17.11-13.21-27.38-12.26,10.11-14.06,3.36-37.31-11-47.17-17.45-12-37.51-7.07-49.69,6.84.7-11.56-6.54-26.9-10.43-34.6-7.46-14.75-20.39-28-36.74-32.39-15.31-4.11-30.62-1.34-44.19,6.7-11.19,6.64-20.94,19.71-17.79,33.24l-.28.15c-3.6-14.23-18.49-20.74-32.43-20.31-14.48.46-28.12,10-36,21.61-10.83,15.92-9.22,49.4,7.27,62.87a51.62,51.62,0,0,0-26.64,6.33c-11,6.1-14.86,16.91-11.24,27.57-7.11-2.62-15.7-1.17-23,.33a81.69,81.69,0,0,0-29.62,12c-16.51,11.05-26,33.67-20.93,53.16,9,34.39,56.27,55.62,89.73,43.39,8.31-1.43,16.47-4.57,22.09-10.05-5,39.89,71.4,47.08,87.16,15.16,7.83,16.8,30.62,20.22,48.71,13,11.48-4.61,19.24-14.77,22.06-26.58a30.29,30.29,0,0,0,.33-12c12.6,9.26,29.76,6.73,43.19-2.4,10.29-7,18.26-20.89,17.64-33.6,7.17,4.84,16.93,2.26,24.48-2.1,11.4-6.6,19.59-18.61,22.14-31.37S379.05,231.37,371.46,220.79Z" transform="translate(0 -21.65)" fill="#ededed"/><path d="M379.7,244.52a44.47,44.47,0,0,1-14.23,10.67c-7.9,3.82-17,7.66-26,7.25-10.32-.46-25.22-4.2-28-16.1-4.19-17.69,9-25,23.54-27.25,6.2-3.93,13.17-7.6,20.25-9.36a30,30,0,0,0-11.18-1.2c4.16-5.78,5.43-13.13,4.53-20.46C341.19,196.58,329,203,320,206.69c-7.51,3.11-16.87,5.86-24.87,3.17a17.92,17.92,0,0,1-10.86-23.71A57.75,57.75,0,0,1,292,172.94a9.8,9.8,0,0,1,1.89-5c3.87-5.19,10.23-10,17.44-13.3-10.62.24-20.66,5.3-27.91,13.58.7-11.56-6.54-26.9-10.43-34.6-6.61-13.07-17.52-24.95-31.28-30.54a102.82,102.82,0,0,1,19,30.21c8,19.64,8.74,39.55-1.62,58.51a76.4,76.4,0,0,1-10,14.39c.49,0,1-.08,1.46-.08,10.8.11,22.49,6,24.36,17.67a25.85,25.85,0,0,1,.32,3.79c19.29,5,36.83,23,28,42.53-5.75,12.77-26.84,13.93-38.39,12.74-4.71-.48-9.73-1.15-14.73-2.14.32,1.82.6,3.66.77,5.5,1,10.6.51,26.48-8.47,34.05-18,15.21-41.6,5.11-46.18-17.39-.15-.75-.23-1.51-.35-2.27a42.8,42.8,0,0,1-31,10.76c-9.15-.71-22.14-4.86-26.14-14.28s-2.56-18.68,4.59-26.23c.75-.78,1.59-1.46,2.42-2.19-12,.16-23.42-2.07-33.25-9.75-10-7.81-10.19-22-.16-29.89,8-6.23,17.88-9.46,27.87-11.49A199.6,199.6,0,0,1,160.85,208a28.61,28.61,0,0,1-7.83-5.59,27.48,27.48,0,0,1-7.93-16.05c-7,6.11-15.74,9-25.42,5.82-21.79-7-21.57-29.13-12.11-48.81a10.36,10.36,0,0,1-2.2-.52c-10.64,16-9,49.19,7.42,62.6a51.62,51.62,0,0,0-26.64,6.33c-11,6.1-14.86,16.91-11.24,27.57-7.11-2.62-15.7-1.17-23,.33-3,.61-6,1.37-8.83,2.25a27.68,27.68,0,0,1,13.21,1c11.59,4.08,17.42,17.39,14.58,29.12-2.8,11.57-13.45,19.31-24.37,22.67S22,298.42,13.23,289.83A21.11,21.11,0,0,1,7,276.23,13.78,13.78,0,0,1,5.11,272c-4.87,10.24-6.56,22-3.74,32.84,9,34.39,56.27,55.62,89.73,43.39,8.31-1.43,16.47-4.57,22.09-10.05-5,39.89,71.4,47.08,87.16,15.16,7.83,16.8,30.62,20.22,48.71,13,11.48-4.61,19.24-14.77,22.06-26.58a30.29,30.29,0,0,0,.33-12c12.6,9.26,29.76,6.73,43.19-2.4,10.29-7,18.26-20.89,17.64-33.6,7.17,4.84,16.93,2.26,24.48-2.1,11.4-6.6,19.59-18.61,22.14-31.37A50.94,50.94,0,0,0,379.7,244.52Z" transform="translate(0 -21.65)" fill="#e6e6e6" style="mix-blend-mode:multiply"/><path d="M158.36,575.85a9.83,9.83,0,0,1-8.76-5.67l-17.1-34.64a11.08,11.08,0,0,1,4.1-14.42A9.58,9.58,0,0,1,150,525.54l17.09,34.64A11.08,11.08,0,0,1,163,574.6,9.38,9.38,0,0,1,158.36,575.85Zm-34.2-69.28a9.84,9.84,0,0,1-8.76-5.66L98.3,466.27a11.08,11.08,0,0,1,4.1-14.42,9.58,9.58,0,0,1,13.41,4.41l17.1,34.64a11.09,11.09,0,0,1-4.11,14.42A9.27,9.27,0,0,1,124.16,506.57ZM90,437.29a9.82,9.82,0,0,1-8.76-5.66L64.1,397a11.08,11.08,0,0,1,4.1-14.42A9.58,9.58,0,0,1,81.61,387l17.1,34.64a11.09,11.09,0,0,1-4.11,14.42A9.36,9.36,0,0,1,90,437.29Z" transform="translate(0 -21.65)" fill="#33cadd"/><path d="M234.9,575.85a9.85,9.85,0,0,1-8.77-5.67L209,535.54a11.09,11.09,0,0,1,4.11-14.42,9.57,9.57,0,0,1,13.4,4.42l17.1,34.64a11.08,11.08,0,0,1-4.1,14.42A9.4,9.4,0,0,1,234.9,575.85Zm-34.2-69.28a9.86,9.86,0,0,1-8.77-5.66l-17.1-34.64a11.08,11.08,0,0,1,4.11-14.42,9.57,9.57,0,0,1,13.4,4.41l17.1,34.64a11.08,11.08,0,0,1-4.1,14.42A9.27,9.27,0,0,1,200.7,506.57Zm-34.2-69.28a9.85,9.85,0,0,1-8.77-5.66L140.64,397a11.08,11.08,0,0,1,4.1-14.42,9.57,9.57,0,0,1,13.4,4.42l17.1,34.64a11.08,11.08,0,0,1-4.1,14.42A9.36,9.36,0,0,1,166.5,437.29Z" transform="translate(0 -21.65)" fill="#33cadd"/><path d="M314.28,575.85a9.84,9.84,0,0,1-8.76-5.67l-17.1-34.64a11.09,11.09,0,0,1,4.11-14.42,9.58,9.58,0,0,1,13.4,4.42L323,560.18a11.08,11.08,0,0,1-4.1,14.42A9.44,9.44,0,0,1,314.28,575.85Zm-34.19-69.28a9.85,9.85,0,0,1-8.77-5.66l-17.1-34.64a11.08,11.08,0,0,1,4.11-14.42,9.57,9.57,0,0,1,13.4,4.41l17.1,34.64a11.08,11.08,0,0,1-4.1,14.42A9.33,9.33,0,0,1,280.09,506.57Zm-34.2-69.28a9.83,9.83,0,0,1-8.77-5.66L220,397a11.08,11.08,0,0,1,4.11-14.42,9.58,9.58,0,0,1,13.4,4.42l17.1,34.64a11.08,11.08,0,0,1-4.1,14.42A9.39,9.39,0,0,1,245.89,437.29Z" transform="translate(0 -21.65)" fill="#33cadd"/><path d="M390.82,575.85a9.83,9.83,0,0,1-8.76-5.67L365,535.54a11.08,11.08,0,0,1,4.11-14.42,9.58,9.58,0,0,1,13.4,4.42l17.1,34.64a11.08,11.08,0,0,1-4.11,14.42A9.38,9.38,0,0,1,390.82,575.85Zm-34.2-69.28a9.84,9.84,0,0,1-8.76-5.66l-17.1-34.64a11.07,11.07,0,0,1,4.11-14.42,9.57,9.57,0,0,1,13.4,4.41l17.1,34.64a11.07,11.07,0,0,1-4.11,14.42A9.27,9.27,0,0,1,356.62,506.57Zm-34.2-69.28a9.82,9.82,0,0,1-8.76-5.66L296.56,397a11.07,11.07,0,0,1,4.11-14.42,9.58,9.58,0,0,1,13.4,4.42l17.1,34.64a11.08,11.08,0,0,1-4.11,14.42A9.36,9.36,0,0,1,322.42,437.29Z" transform="translate(0 -21.65)" fill="#33cadd"/></g></g></svg>