<svg id="Capa_1" data-name="Capa 1" xmlns="http://www.w3.org/2000/svg" viewBox="0 0 577.29 600"><circle cx="278.64" cy="310" r="185.3" fill="#245e66"/><path d="M348.42,423.18a71.93,71.93,0,0,1-113.51,0,4.88,4.88,0,0,1,1.88-1.92c6.21-3,17.33-8.4,20.54-9.9s8.85-6,8.85-6,3.56-7.28,6.12-7.71l1.66-4.93s-5.09-6.85-5.09-11.13c0,0-3,2.56-4.06-3.21-.87-4.67-3.87-12.23-1-13.86a.72.72,0,0,1-.33-.65c0-.79.16-1.56.26-2.33,0-.2,0-.41.07-.61a.6.6,0,0,1-.23-.53,20.75,20.75,0,0,1,.56-3.79l0-.91q-.11-.3-.18-.6a.55.55,0,0,1,0-.18,8.58,8.58,0,0,1,.87-5.13s0-.08,0-.12a1,1,0,0,1-.14-1.29l.36-.58.09-1a.77.77,0,0,1,.87-.72c.1-.13.21-.29.35-.46a.92.92,0,0,1-.06-.85,9.86,9.86,0,0,1,.61-1.36.91.91,0,0,1-.12-1.32,16.79,16.79,0,0,1,1.38-1.74,1,1,0,0,1,0-1c.21-.29,1.66-1.85,3.09-3.21a7.39,7.39,0,0,1,.32-1v0l.21-.46c.06-.15.13-.28.19-.43.46-1,.92-1.79,1.41-2.91a.9.9,0,0,1,1.44-.35,10.31,10.31,0,0,1,1.89-2.74,7.71,7.71,0,0,1,3.09-2.56,1.44,1.44,0,0,1,1.18-.05,6,6,0,0,1,1.65-.79h0a9,9,0,0,1,2.34-1.62,1.58,1.58,0,0,1,1.69.22,5.68,5.68,0,0,1,1.14-.36,1.45,1.45,0,0,1,.95.11,1.76,1.76,0,0,1,.79,0,2.82,2.82,0,0,0,1.28-.11,5,5,0,0,1,1.51-1.07,1.31,1.31,0,0,1,1.09-.06,5,5,0,0,1,1.69-.85,1.55,1.55,0,0,1,1.81,1.78c.05,0,.12.06.17.1a4.9,4.9,0,0,1,4.52-.88l.23.1c.46-.1.92-.18,1-.18a1.64,1.64,0,0,1,1.36.92l0,.07a6.57,6.57,0,0,1,1-.28,1.62,1.62,0,0,1,1.46.45c1.63-.7,3.47-.63,4.5.72l.29-.19a1.49,1.49,0,0,1,2.12,1.18,4.42,4.42,0,0,1,1.79-.47,1.69,1.69,0,0,1,1.46,2.22,3.46,3.46,0,0,1-.49,1,2,2,0,0,1,.54,1.07,5.61,5.61,0,0,1-.82,6.1,8.07,8.07,0,0,1-.93,2,22.42,22.42,0,0,1,2.45,7.87,7.32,7.32,0,0,1,.12.94c1.22,2.13,2.44,5,1.27,6.65,0,0,0,0-.06.05,0,.29,0,.59,0,.9a.8.8,0,0,1,.95.78c0,.63,0,1.24,0,1.83a15.67,15.67,0,0,1-.31,3.63v.1l0,.1c.13,1.73.16,3.47.17,5.09,2.48,1.9-.37,9.18-1.22,13.72-1.07,5.77-4.06,3.21-4.06,3.21,0,4.28-5.09,11.13-5.09,11.13l1.66,4.93c2.56.43,6.12,7.71,6.12,7.71s5.64,4.53,8.85,6,14.33,6.9,20.54,9.9A4.88,4.88,0,0,1,348.42,423.18Z" transform="translate(-11.36)" fill="#33cadd"/><path d="M221.39,426.65a71.88,71.88,0,0,1-111.46,0c1-5.13,2.51-9.43,4.68-10.48,6.22-3,30.21-13.25,35.08-16.37V387.6s-7-8.39-8.07-17c0,0-3,3.12-4.08-2.67-1-5.51-1.81-11.76,2.22-10.09a15.9,15.9,0,0,1,.18-6.43,15.31,15.31,0,0,1-.11-5.05,7.35,7.35,0,0,1,1.07-3.49.5.5,0,0,1,.27-.22,13,13,0,0,1,.39-1.38c-.43-3.24,1.58-6.17,4.1-8.61-.2-1.71,1.13-3.24,2.9-4.3a10.5,10.5,0,0,1,4.1-3.57,1,1,0,0,1,1.07.09,9.68,9.68,0,0,1,4.06-3.27c1.6-2.26,5.4-2.52,8.29-2.82a7.72,7.72,0,0,1,3.38.47,12.15,12.15,0,0,1,5.65,1.9l1.27.79a8,8,0,0,1,1,.23,4.64,4.64,0,0,1,3.56,2,8.51,8.51,0,0,1,1.85,2.29,4.84,4.84,0,0,1,4,3.05c.53,1.08,1,2.15,1.46,3.23.2.29.4.57.56.82a10,10,0,0,1,1.12,2c1.66,1.73,1.95,5.13,1.82,8.29.16.65.27,1.34.44,1.93a8.61,8.61,0,0,1,.15,2.54,16.3,16.3,0,0,1,.12,3.5,16,16,0,0,1,.33,3c0,.88.13,1.82.17,2.75,2.41.28,1.69,5.61.81,10.36-1.07,5.79-4.07,2.67-4.07,2.67-1,8.6-8.07,17-8.07,17v12.2c4.87,3.12,28.86,13.37,35.07,16.37C218.89,417.22,220.38,421.52,221.39,426.65Z" transform="translate(-11.36)" fill="#33cadd"/><path d="M412.45,277.47a71.61,71.61,0,0,1-46,24.27l-7.8.14v0h-1v0l-7.56-.14a71.7,71.7,0,0,1-45.84-24,24.74,24.74,0,0,1,4.78-7.33c5.73-5.22,14.28-6.63,22.4-11.47,2.43-4.17,6.94-10.42,6.94-10.42s-7.66-10.77-8.71-23.63c0,0-3,3.12-4.09-2.67-1-5.56-1.88-11.89,2.28-10a2.32,2.32,0,0,1-.17-.77,1.67,1.67,0,0,1,.17-.7l-.09-.09a2.55,2.55,0,0,1-.37-2.74c-.07-.08-.13-.18-.2-.27a1.41,1.41,0,0,1-.42-.85,7.67,7.67,0,0,1-.09-1,3.53,3.53,0,0,1-.77-.53,1.71,1.71,0,0,1-.35-1.78,3.39,3.39,0,0,1,1.2-1.61l.09-.07a10.37,10.37,0,0,1,.48-1.92,4.11,4.11,0,0,1,0-.86,13.63,13.63,0,0,1,.87-4.35c.32-.89.54-1.43.84-2.3a1.82,1.82,0,0,1,1.07-1.1l.19-.35a12,12,0,0,1,.86-1,.47.47,0,0,1,0-.17c.36-1,.65-1.54,1.73-1.84a1.46,1.46,0,0,1,1.24.25c3.9-6.36,11-11.75,23.49-12.64v-.09c.74,0,.6,0,.52,0l.52,0v.09c14.59,1,22,7.84,25.31,15.32a1.23,1.23,0,0,1,2.25.51.85.85,0,0,1,0,.17,1.85,1.85,0,0,1,.46,2.13c.07.33.13.67.21,1a1.54,1.54,0,0,1,.72.4,6.25,6.25,0,0,1,1.92,4.66,1.93,1.93,0,0,1,.16,1.72h0a1,1,0,0,1,.13.65c-.07.45.23,1,.27,1.46a4,4,0,0,1-.09,1.25c0,.14-.07.27-.1.41a3.48,3.48,0,0,1,0,1.25c0,.05,0,.1,0,.16a.9.9,0,0,1-.13.49c-.07.3-.13.36-.15.2v0c0,.05,0,.1,0,.15a1.69,1.69,0,0,1,.39.59,2.24,2.24,0,0,1-.77,2.84c0,.17,0,.33.05.5s0,.48,0,.72c3.9-1.52,3.11,4.68,2.1,10.14-1.06,5.79-4.07,2.67-4.07,2.67-1,12.86-8.7,23.63-8.7,23.63s4.49,6.25,6.93,10.42c8.12,4.84,16.63,6.25,22.36,11.47A23.38,23.38,0,0,1,412.45,277.47Z" transform="translate(-11.36)" fill="#33cadd"/><path d="M465.58,430.05a71.9,71.9,0,0,1-106.25,0,30.09,30.09,0,0,1,1.36-2.78c5.49-9.82,11.81-7.64,21.2-10.77,5.22-1.74,8.56-2,13.54-4.17s4.32-8.94,4.17-16.32c0,0-9.38-11.12-10.42-20.5,0,0-4.52,2.43-5.22-5.91-.37-4.36.79-6,2-6.49a24,24,0,0,1-1.9-9.3c0-4.48-.74-9.65.87-13.95s4.85-9,9.16-9.42c.43-7.49,11.92-11.43,18.9-12,6-.49,11.46,3.24,16.11,6.43,2.78,1.92,5.77,4.24,9.14,5,4.68,1.06,8.44-.46,12.82-2a.77.77,0,0,1,.84,1.27l-.15.14c.24,3.1-5,6.22-6.88,7.58a31.5,31.5,0,0,1-8,4.11c.73,5.5,1.46,11,.65,16.53-.12.76-.21,1.55-.29,2.35-.19,1.9-.37,3.11-.37,3.11s4.87-1.74,4.17,6.6-5.22,5.91-5.22,5.91c-1,9.38-10.42,20.5-10.42,20.5-.15,7.38-.69,14.24,4.17,16.32s8.32,2.43,13.54,4.17c9.39,3.13,15.71.95,21.2,10.77A30.09,30.09,0,0,1,465.58,430.05Z" transform="translate(-11.36)" fill="#33cadd"/><path d="M292.77,274.9a71.9,71.9,0,0,1-115.72-.16c1-3.83,2.33-6.81,4.09-7.66,6.21-3,13.28-6.48,16.49-8s8.27-3.78,8.27-3.78,3.62-8.72,9.27-10.17l1.05-6.64s-4.7-8.21-5.74-16.81c0,0-3,3.1-4.08-2.67-1-5.36-1.77-11.4,1.87-10.23-.51-1.84-1.27-3.55-1.19-5.6,0-.37.77-4.53.61-4.66-2-1.77-1.27-3.81.15-5.4a5.16,5.16,0,0,1,.31-1.28,38.9,38.9,0,0,1,2.47-4.75,1.06,1.06,0,0,1,1.32-.52c.14-.34.28-.67.4-1a2.76,2.76,0,0,1,.1-1c.25-.79.52-1.8,1.35-2.2.17-.07.37-.14.57-.2a4.75,4.75,0,0,1,2.28-1.19l0-.08c.59-1.68,4.23-6.39,6.29-4a1.07,1.07,0,0,1,.2.32l.27-.1a3.23,3.23,0,0,1,1.68-2.16,4.38,4.38,0,0,1,2-.18c.71,0,.91-.2,1.54-.48,1-.44,2-.79,3-.1.05,0,.06.06.1.09a6.5,6.5,0,0,1,3.14-.73c1.67,0,3.95-.71,5.36.42a1.75,1.75,0,0,1,.33.39,3.93,3.93,0,0,1,1.5-.79,1.87,1.87,0,0,1,2.2,1.17c1.37-.07,2.56,1.16,3.17,2.48a2.39,2.39,0,0,1,1.6.19c.45.21,1.29.47,1.58.9a5.27,5.27,0,0,0,.57.68c1.66-.2,3.68-.13,4.22,1.5.83,2.47,3.43,2.91,4,5.62.23,1,.81,2.23.53,3.28a3,3,0,0,0,.18,1.92,4.62,4.62,0,0,1,1.19,1.86c.28.34.58.67.86,1a2.11,2.11,0,0,1,.29,1.63,4,4,0,0,1,.94,1.6,9.55,9.55,0,0,1,.12,3.37,16.69,16.69,0,0,1-1.34,4.34v0a1.47,1.47,0,0,1,.85,1,6.14,6.14,0,0,1,.07,2.78c1.93.82,1.25,5.78.43,10.26-1.07,5.77-4.08,2.67-4.08,2.67-1,8.6-5.75,16.81-5.75,16.81l1,6.64c5.65,1.45,9.25,10.17,9.25,10.17s5,2.28,8.25,3.78,10.23,5,16.44,8C290.48,267.94,291.81,271,292.77,274.9Z" transform="translate(-11.36)" fill="#33cadd"/><path d="M287.76,589.78A276.4,276.4,0,0,1,92.31,117.94,276.4,276.4,0,1,1,483.2,508.83,274.59,274.59,0,0,1,287.76,589.78Zm0-448.57c-94.94,0-172.18,77.23-172.18,172.17s77.24,172.18,172.18,172.18,172.17-77.24,172.17-172.18S382.7,141.21,287.76,141.21Z" transform="translate(-11.36)" fill="#29a4b9"/><path d="M295.73,0l-.53,141.38c91.5,3.91,164.73,79.56,164.73,172A171.13,171.13,0,0,1,438.5,396.5L556,470c25.39-47,32.62-88.46,32.62-143.41A324.59,324.59,0,0,0,493,95.57C433.32,35.94,379.71,2.21,295.73,0Z" transform="translate(-11.36)" fill="#24899b"/><path d="M69.11,539.19c31,31,69.3,47.46,109.74,60.81L237.2,477.31a173,173,0,0,1-100.15-81.42L20.58,465.25C33.46,489.89,48.89,519,69.11,539.19Z" transform="translate(-11.36)" fill="#1f7984"/></svg>