<svg id="Capa_1" data-name="Capa 1" xmlns="http://www.w3.org/2000/svg" viewBox="0 0 600 509.7"><path d="M586.61,359.42V267.61a37.4,37.4,0,0,0-37.4-37.39H532.59a37.38,37.38,0,0,0-37.38,37.39v91.81Zm0,0" transform="translate(0 -45.15)" fill="#52b5c6"/><path d="M586.61,359.42V267.61a37.4,37.4,0,0,0-37.4-37.39H532.59a37.38,37.38,0,0,0-37.38,37.39" transform="translate(0 -45.15)" fill="#3aabbf"/><path d="M546,330.94a2.26,2.26,0,0,1-2.27,2.26h-9.25a2.26,2.26,0,0,1,0-4.51h9.25a2.26,2.26,0,0,1,2.27,2.25Zm0,0" transform="translate(0 -45.15)" fill="#3aabbf"/><path d="M546,350.29a2.26,2.26,0,0,1-2.27,2.24h-9.25a2.25,2.25,0,0,1,0-4.5h9.25a2.25,2.25,0,0,1,2.27,2.26Zm0,0" transform="translate(0 -45.15)" fill="#3aabbf"/><path d="M553.94,338.89a2.27,2.27,0,0,1-2.27,2.26h-9.25a2.26,2.26,0,0,1,0-4.51h9.25a2.28,2.28,0,0,1,2.27,2.25Zm0,0" transform="translate(0 -45.15)" fill="#3aabbf"/><path d="M558.25,301.23a2.26,2.26,0,0,1,2.27-2.26h9.23a2.25,2.25,0,1,1,0,4.49h-9.23a2.27,2.27,0,0,1-2.27-2.23Zm0,0" transform="translate(0 -45.15)" fill="#52b5c6"/><path d="M558.25,281.89a2.26,2.26,0,0,1,2.27-2.25h9.23a2.26,2.26,0,1,1,0,4.51h-9.23a2.27,2.27,0,0,1-2.27-2.26Zm0,0" transform="translate(0 -45.15)" fill="#52b5c6"/><path d="M550.32,293.27a2.24,2.24,0,0,1,2.26-2.25h9.24a2.26,2.26,0,1,1,0,4.51h-9.24a2.26,2.26,0,0,1-2.26-2.26Zm0,0" transform="translate(0 -45.15)" fill="#52b5c6"/><path d="M549.21,230.23H532.59a37.37,37.37,0,0,0-37.38,37.38l.17.17h91.23v-.17a37.38,37.38,0,0,0-37.4-37.38Zm0,0" transform="translate(0 -45.15)" fill="#ead076"/><path d="M549.21,230.23H532.59a37.37,37.37,0,0,0-37.38,37.38l.17.17" transform="translate(0 -45.15)" fill="#efdb97"/><path d="M495.2,267.61v2.26h91.41v-2.26c0-.51-.07-1.05-.11-1.57H495.28c0,.52-.08,1.06-.08,1.57Zm0,0" transform="translate(0 -45.15)" fill="#efdb97"/><path d="M527.74,369.22v-49l-36.57-36.9H439.46l-36.56,36.9v49Zm0,0" transform="translate(0 -45.15)" fill="#7c9ea3"/><polyline points="527.74 324.07 527.74 275.1 491.17 238.21 439.45 238.21 402.9 275.1" fill="#6c9398"/><path d="M527.15,319.69l-36-36.33H439.46l-36,36.33Zm0,0" transform="translate(0 -45.15)" fill="#4e7d83"/><polyline points="439.45 238.21 403.46 274.54 527.15 274.54" fill="#5f898f"/><path d="M439.46,283.36l-36.56,36.9v5.53h.56l36-36.34h51.71l36,36.34h.59v-5.53l-36.57-36.9Zm0,0" transform="translate(0 -45.15)" fill="#43757b"/><path d="M539.12,316.3a12.4,12.4,0,0,0-2.84-4.65l-36.57-36.93a12,12,0,0,0-8.54-3.56H439.46a12,12,0,0,0-8.54,3.56l-36.57,36.93a11.75,11.75,0,0,0-2.82,4.65,9,9,0,0,0,7,3.39h5l36-36.33h51.72l36,36.33h5a9,9,0,0,0,7-3.39Zm0,0" transform="translate(0 -45.15)" fill="#31686f"/><path d="M491.17,279.74H439.45a11.94,11.94,0,0,0-8.54,3.57l-35.46,35.77a8.67,8.67,0,0,0,3.05.6h5l36-36.33h51.71l36,36.33h5a8.57,8.57,0,0,0,3-.6l-35.45-35.77a12,12,0,0,0-8.55-3.57Zm0,0" transform="translate(0 -45.15)" fill="#245e66"/><path d="M483.35,369.22H447.29a2.18,2.18,0,0,1-2.15-2.2V330.64a2.17,2.17,0,0,1,2.15-2.19h36.06a2.17,2.17,0,0,1,2.15,2.19V367a2.17,2.17,0,0,1-2.15,2.2Zm-33.9-4.37h31.72v-32H449.45Zm0,0" transform="translate(0 -45.15)" fill="#5f898f"/><path d="M449.32,367.15a2.13,2.13,0,0,1-1.53-.63,2.27,2.27,0,0,1,0-3.09l32-32.25a2.13,2.13,0,0,1,3.06,0,2.19,2.19,0,0,1,0,3.07l-31.95,32.27a2.23,2.23,0,0,1-1.55.63Zm0,0" transform="translate(0 -45.15)" fill="#5f898f"/><path d="M481.29,367.15a2.15,2.15,0,0,1-1.54-.63l-32-32.27a2.22,2.22,0,0,1,0-3.07,2.13,2.13,0,0,1,3.08,0l31.95,32.25a2.21,2.21,0,0,1,0,3.09,2.08,2.08,0,0,1-1.53.63Zm0,0" transform="translate(0 -45.15)" fill="#5f898f"/><path d="M530.29,369.4a2.28,2.28,0,0,1-2.26,2.31H403.72a2.29,2.29,0,0,1,0-4.58H528a2.26,2.26,0,0,1,2.27,2.27Zm0,0" transform="translate(0 -45.15)" fill="#5f898f"/><path d="M569.51,353.86c-218.21,6.83-405,65.37-501.31,148.81-20.67,17.9-7.91,51.88,19.43,51.88h482.8A29.57,29.57,0,0,0,600,525V383.42A29.58,29.58,0,0,0,569.51,353.86Zm30.49-.61" transform="translate(0 -45.15)" fill="#29a4b9"/><path d="M129.87,549.48c91.68-75.93,258.92-120.66,455.92-132.69A14.82,14.82,0,0,0,599.72,402h0a14.83,14.83,0,0,0-15.41-14.82c-210.45,8.62-390.11,65.4-485.26,145.9-10.51,8.89-4.12,16.39,9.64,16.39Z" transform="translate(0 -45.15)" fill="#45b0c2"/><path d="M583.4,442.7c-130.16,11.06-245.85,40.68-333.09,82.66-14.73,7.09-9.75,29.19,6.6,29.19h1.7a81.9,81.9,0,0,0,33.68-7.32c79.6-36,180.71-62.08,293.94-74A15.36,15.36,0,0,0,600,458h0A15.33,15.33,0,0,0,583.4,442.7Z" transform="translate(0 -45.15)" fill="#45b0c2"/><path d="M582,505.31c-34.86,4.6-68.44,10.55-100.45,17.72-18.59,4.17-15.57,31.52,3.48,31.52h8.95a16,16,0,0,0,3.65-.43q42.6-10.12,88.84-17.23A16,16,0,0,0,600,521.13h0A16,16,0,0,0,582,505.31Z" transform="translate(0 -45.15)" fill="#45b0c2"/><path d="M274.57,388.19v-172a70,70,0,0,0-70-70H173.38a70,70,0,0,0-70,70v172Zm0,0" transform="translate(0 -45.15)" fill="#a5d9e2"/><path d="M274.57,390.18v-172a70,70,0,0,0-70-70H173.38a70,70,0,0,0-70,70" transform="translate(0 -45.15)" fill="#89cdd9"/><path d="M143.72,312.05a4.22,4.22,0,0,1-4.22,4.23H122.15a4.22,4.22,0,0,1,0-8.44H139.5a4.22,4.22,0,0,1,4.22,4.21Zm0,0" transform="translate(0 -45.15)" fill="#c5e6ec"/><path d="M143.72,348.27a4.21,4.21,0,0,1-4.22,4.22H122.15a4.22,4.22,0,0,1,0-8.43H139.5a4.21,4.21,0,0,1,4.22,4.21Zm0,0" transform="translate(0 -45.15)" fill="#c5e6ec"/><path d="M158.61,326.93a4.22,4.22,0,0,1-4.22,4.23H137a4.21,4.21,0,1,1,0-8.42h17.35a4.2,4.2,0,0,1,4.22,4.19Zm0,0" transform="translate(0 -45.15)" fill="#c5e6ec"/><path d="M262.16,288.6a4.19,4.19,0,0,1-4.21,4.19H240.58a4.22,4.22,0,0,1,0-8.43H258a4.22,4.22,0,0,1,4.21,4.24Zm0,0" transform="translate(0 -45.15)" fill="#52b5c6"/><path d="M270.35,308.66a4.22,4.22,0,0,1-4.21,4.22H248.77a4.21,4.21,0,1,1,0-8.42h17.37a4.2,4.2,0,0,1,4.21,4.2Zm0,0" transform="translate(0 -45.15)" fill="#52b5c6"/><path d="M222.09,210a26.79,26.79,0,1,1-26.79-26.78A26.78,26.78,0,0,1,222.09,210Zm0,0" transform="translate(0 -45.15)" fill="#29a4b9"/><path d="M195.31,196.57a26.67,26.67,0,0,0-25.82,20.08,26.63,26.63,0,0,0,51.64,0,26.7,26.7,0,0,0-25.82-20.08Zm0,0" transform="translate(0 -45.15)" fill="#2a4641"/><path d="M201.66,203.54a4.74,4.74,0,0,1,0-6.69l56.56-56.54a4.73,4.73,0,0,1,6.67,6.72l-56.53,56.51a4.73,4.73,0,0,1-6.69,0Zm0,0" transform="translate(0 -45.15)" fill="#2a4641"/><path d="M284.92,198.81a14.16,14.16,0,0,1-20,0l-27.35-27.35c-5.53-5.54-.76-9.73,4.78-15.28l71-71a14.22,14.22,0,0,1,20.06,0L356,107.72a14.18,14.18,0,0,1,0,20.06Zm0,0" transform="translate(0 -45.15)" fill="#efdb97"/><path d="M275.75,189.62l71-71a14.12,14.12,0,0,0,0-20l-13.36-13.4a14.22,14.22,0,0,0-20.06,0l-71,71c-5.54,5.55-10.3,9.74-4.78,15.28l18.17,18.15a14.19,14.19,0,0,0,20.05,0Zm0,0" transform="translate(0 -45.15)" fill="#ead076"/><path d="M341.2,132a3.17,3.17,0,0,1-4.47,0l-8.88-8.91a3.1,3.1,0,0,1,0-4.46,3.14,3.14,0,0,1,4.45,0l8.9,8.92a3.19,3.19,0,0,1,0,4.47Zm0,0" transform="translate(0 -45.15)" fill="#efdb97"/><path d="M330.89,142.27a3.12,3.12,0,0,1-4.46,0l-8.91-8.9a3.18,3.18,0,0,1,0-4.46,3.13,3.13,0,0,1,4.45,0l8.91,8.9a3.16,3.16,0,0,1,0,4.46Zm0,0" transform="translate(0 -45.15)" fill="#efdb97"/><path d="M320.59,152.58a3.16,3.16,0,0,1-4.46,0l-8.94-8.91a3.17,3.17,0,0,1,4.48-4.48l8.91,8.93a3.17,3.17,0,0,1,0,4.46Zm0,0" transform="translate(0 -45.15)" fill="#efdb97"/><path d="M189,216.38a4.76,4.76,0,0,1,0,6.7L132.39,279.6a4.73,4.73,0,1,1-6.68-6.7l56.56-56.52a4.73,4.73,0,0,1,6.68,0Zm0,0" transform="translate(0 -45.15)" fill="#2a4641"/><path d="M105.67,221.12a14.16,14.16,0,0,1,20,0l27.36,27.36c5.53,5.53.75,9.72-4.79,15.28l-71,71a14.14,14.14,0,0,1-20,0L34.65,312.18a14.15,14.15,0,0,1,0-20.05Zm0,0" transform="translate(0 -45.15)" fill="#efdb97"/><path d="M114.86,230.31l-71,71a14.2,14.2,0,0,0,0,20.07l13.41,13.36a14.14,14.14,0,0,0,20,0l71-71c5.53-5.55,10.31-9.74,4.79-15.27L134.91,230.3a14.16,14.16,0,0,0-20,0Zm0,0" transform="translate(0 -45.15)" fill="#ead076"/><path d="M49.4,288a3.15,3.15,0,0,1,4.47,0l8.92,8.89a3.16,3.16,0,1,1-4.47,4.46l-8.92-8.9a3.16,3.16,0,0,1,0-4.45Zm0,0" transform="translate(0 -45.15)" fill="#efdb97"/><path d="M59.7,277.65a3.17,3.17,0,0,1,4.47,0l8.9,8.9A3.16,3.16,0,0,1,68.61,291l-8.9-8.92a3.17,3.17,0,0,1,0-4.46Zm0,0" transform="translate(0 -45.15)" fill="#efdb97"/><path d="M70,267.34a3.17,3.17,0,0,1,4.47,0l8.9,8.93a3.16,3.16,0,0,1,0,4.46,3.19,3.19,0,0,1-4.46,0L70,271.81a3.16,3.16,0,0,1,0-4.47Zm0,0" transform="translate(0 -45.15)" fill="#efdb97"/><path d="M201.71,216.32a4.74,4.74,0,0,1,6.7,0l56.53,56.53a4.73,4.73,0,1,1-6.68,6.7L201.71,223a4.74,4.74,0,0,1,0-6.68Zm0,0" transform="translate(0 -45.15)" fill="#2a4641"/><path d="M206.46,299.59a14.15,14.15,0,0,1,0-20l27.33-27.36c5.56-5.55,9.74-.75,15.27,4.79l71.05,71a14.22,14.22,0,0,1,0,20.06l-22.57,22.56a14.2,14.2,0,0,1-20.07,0Zm0,0" transform="translate(0 -45.15)" fill="#efdb97"/><path d="M215.66,290.39l71,71a14.16,14.16,0,0,0,20,0l13.39-13.38a14.22,14.22,0,0,0,0-20.06l-71.05-71c-5.53-5.54-9.71-10.33-15.27-4.79l-18.13,18.16a14.12,14.12,0,0,0,0,20Zm0,0" transform="translate(0 -45.15)" fill="#ead076"/><path d="M273.28,355.87a3.19,3.19,0,0,1,0-4.47l8.94-8.91a3.15,3.15,0,0,1,4.45,4.47l-8.91,8.89a3.2,3.2,0,0,1-4.48,0Zm0,0" transform="translate(0 -45.15)" fill="#efdb97"/><path d="M263,345.56a3.12,3.12,0,0,1,0-4.46l8.89-8.92a3.15,3.15,0,1,1,4.46,4.46l-8.91,8.92a3.13,3.13,0,0,1-4.44,0Zm0,0" transform="translate(0 -45.15)" fill="#efdb97"/><path d="M252.7,335.26a3.12,3.12,0,0,1,0-4.47l8.9-8.89a3.15,3.15,0,1,1,4.44,4.46l-8.89,8.9a3.16,3.16,0,0,1-4.45,0Zm0,0" transform="translate(0 -45.15)" fill="#efdb97"/><path d="M188.89,203.6a4.73,4.73,0,0,1-6.69,0l-56.55-56.51a4.74,4.74,0,0,1,6.7-6.71l56.54,56.55a4.7,4.7,0,0,1,0,6.67Zm0,0" transform="translate(0 -45.15)" fill="#2a4641"/><path d="M184.15,120.33a14.15,14.15,0,0,1,0,20L156.8,167.73c-5.54,5.54-9.73.76-15.29-4.81l-71-71a14.18,14.18,0,0,1,0-20L93.07,49.3a14.18,14.18,0,0,1,20.06,0Zm0,0" transform="translate(0 -45.15)" fill="#efdb97"/><path d="M175,129.52l-71-71a14.21,14.21,0,0,0-20.07,0L70.51,71.87a14.18,14.18,0,0,0,0,20l71,71c5.56,5.58,9.75,10.35,15.28,4.82L175,149.57a14.19,14.19,0,0,0,0-20Zm0,0" transform="translate(0 -45.15)" fill="#ead076"/><path d="M117.31,64.07a3.13,3.13,0,0,1,0,4.45l-8.91,8.92A3.15,3.15,0,1,1,103.94,73l8.92-8.92a3.13,3.13,0,0,1,4.45,0Zm0,0" transform="translate(0 -45.15)" fill="#efdb97"/><path d="M127.61,74.35a3.17,3.17,0,0,1,0,4.47l-8.9,8.91a3.16,3.16,0,0,1-4.48,0,3.2,3.2,0,0,1,0-4.45l8.93-8.94a3.21,3.21,0,0,1,4.45,0Zm0,0" transform="translate(0 -45.15)" fill="#efdb97"/><path d="M137.91,84.67a3.15,3.15,0,0,1,0,4.45L129,98a3.15,3.15,0,0,1-4.45-4.47l8.89-8.89a3.14,3.14,0,0,1,4.47,0Zm0,0" transform="translate(0 -45.15)" fill="#efdb97"/><path d="M208.34,210a13,13,0,1,1-13-13,13,13,0,0,1,13,13Zm0,0" transform="translate(0 -45.15)" fill="#efdb97"/><path d="M204.49,200.74a13,13,0,0,1-18.42,18.43" transform="translate(0 -45.15)" fill="#ead076"/><path d="M27.83,354.07C251.54,360.64,442.52,421.54,537.46,508c18.17,16.56,6.29,46.85-18.3,46.85H27a27,27,0,0,1-27-27V381.06A27,27,0,0,1,27.83,354.07ZM0,353.54" transform="translate(0 -45.15)" fill="#70c2d0"/><path d="M469.85,554.84C378.16,478.92,210.91,424.49,13.92,412.47A14.82,14.82,0,0,1,0,397.68H0a14.82,14.82,0,0,1,15.41-14.81c210.43,8.61,390.1,65.4,485.25,145.89,10.51,8.9,4.13,26.09-9.64,26.09H469.85Zm0,0" transform="translate(0 -45.15)" fill="#8ecfda"/><path d="M16.6,443c130.16,11.06,245.84,40.68,333.09,82.66,14.73,7.09,9.75,29.2-6.6,29.2H326.83a15.22,15.22,0,0,1-6.63-1.52c-81.38-39-187.19-67.26-306.43-79.78A15.36,15.36,0,0,1,0,458.29H0A15.35,15.35,0,0,1,16.6,443Z" transform="translate(0 -45.15)" fill="#8ecfda"/><path d="M18.05,505.61c34.86,4.59,68.44,10.54,100.45,17.72,18.58,4.17,15.57,31.51-3.48,31.51h-9a15.44,15.44,0,0,1-3.65-.43q-42.6-10.11-88.83-17.23A16,16,0,0,1,0,521.42H0A16,16,0,0,1,18.05,505.61Z" transform="translate(0 -45.15)" fill="#8ecfda"/></svg>