<svg id="Ebene_1" data-name="Ebene 1" xmlns="http://www.w3.org/2000/svg" viewBox="0 0 520.28 600"><path d="M71.27,458.75l424.05-424a12.8,12.8,0,0,0,0-18.1h0a12.8,12.8,0,0,0-18.1,0l-424,424a12.81,12.81,0,0,0,0,18.11h0A12.78,12.78,0,0,0,71.27,458.75Z" transform="translate(-39.86)" fill="#24899b"/><path d="M274.24,523.57a285.86,285.86,0,0,0,285.9-285.9A284.05,284.05,0,0,0,476.41,35.51a12.8,12.8,0,0,0-18.1,18.1A260.3,260.3,0,0,1,274.24,498a258.54,258.54,0,0,1-184-76.24,12.81,12.81,0,0,0-18.1,18.12A284,284,0,0,0,274.24,523.57Z" transform="translate(-39.86)" fill="#24899b"/><path d="M284.13,578.68a12.82,12.82,0,0,0,12.8-12.82V510.77a12.8,12.8,0,0,0-25.6,0v55.09A12.82,12.82,0,0,0,284.13,578.68Z" transform="translate(-39.86)" fill="#24899b"/><path d="M277.54,0A237.6,237.6,0,0,1,445.61,405.74,237.68,237.68,0,1,1,185,18.65,236.1,236.1,0,0,1,277.54,0Z" transform="translate(-39.86)" fill="#33cadd"/><path d="M478,359.84l-2.17,8.93c3.38-5.09,6.56-10.33,9.52-15.67-.13.19-.24.33-.31.45C484.07,355,478,359.84,478,359.84Z" transform="translate(-39.86)" fill="#f3f2f2"/><polygon points="112.53 312.11 109.13 310.84 107.32 312.11 112.53 312.11" fill="#f3f2f2"/><path d="M245.42,347l-17.49-7.5a7.81,7.81,0,0,1-4.1-4.09L220,326.51a7.8,7.8,0,0,0-5.19-4.47l-8.08-2.12a7.81,7.81,0,0,1-3.53-2l-9.37-9.37a7.72,7.72,0,0,0-3.52-2l-22.09-5.82a7.79,7.79,0,0,0-6.47,1.17l-12.78,9,3.39,1.27h-5.2l-2.07,1.46v11.66a7.8,7.8,0,0,1-1.87,5.07l-5,5.8a7.79,7.79,0,0,0-1.88,5.07v10.17a7.83,7.83,0,0,0,1.94,5.15L151.09,371a7.72,7.72,0,0,1,1.74,3.37l1.85,7.88a7.78,7.78,0,0,0,2.65,4.25l11.09,9.07a7.78,7.78,0,0,1,2.86,6v23.13a7.44,7.44,0,0,0,.16,1.56l4.66,22.9a7.8,7.8,0,0,0,4.38,5.53c1.51.68,3,1.35,4.56,2,2.22.95,4.46,1.85,6.7,2.71a7.8,7.8,0,0,0,10-4.39h0a7.82,7.82,0,0,1,2.32-3.16l22.44-18.2a7.78,7.78,0,0,0,2.89-6v-2a7.8,7.8,0,0,1,5.74-7.52l8-2.17a7.72,7.72,0,0,0,3.84-2.41l6.18-7.14a7.74,7.74,0,0,0,1.89-4.59l1.07-16.42a7.77,7.77,0,0,1,2.53-5.25l7.49-6.83a7.77,7.77,0,0,0,2.55-5.76v-1.33a7.79,7.79,0,0,0-2.28-5.51l-7.51-7.51a7.81,7.81,0,0,0-2.55-1.7Z" transform="translate(-39.86)" fill="#62be75"/><path d="M140.74,307.75l-2.85-.95a3.63,3.63,0,0,1-2.15-1.95l-5.36-11.91a3.7,3.7,0,0,0-1.68-1.75l-7.79-3.9a3.62,3.62,0,0,1-1.86-4.23l.24-.86a3.62,3.62,0,0,0-4-4.57l-6.87,1a4.78,4.78,0,0,1-.76,0l-8.35-.55A3.62,3.62,0,0,1,96.25,276l-2.06-4.58a3.63,3.63,0,0,1-.32-1.49V252.06a3.64,3.64,0,0,1,1.33-2.81l9.66-7.91a3.64,3.64,0,0,1,2.3-.82h23.58a3.64,3.64,0,0,1,2.3.82l2.76,2.28a3.63,3.63,0,0,0,5.92-3l-.14-2.37a3.64,3.64,0,0,1,1.17-2.88l15.74-14.47a3.66,3.66,0,0,0,1.17-2.67v-7.88a3.62,3.62,0,0,1,1-2.48l22-23.38a3.54,3.54,0,0,1,.59-.51l13.46-9.17a3.62,3.62,0,0,0,1.41-4.08l-2-6.52a3.6,3.6,0,0,0-3.45-2.54h-6.05l4.74-4.76a3.64,3.64,0,0,1,2.57-1.06h14a3.63,3.63,0,0,0,2.17-.73l10.32-7.74a3.61,3.61,0,0,0,.46-5.38l-9.59-10.13a3.49,3.49,0,0,1-.91-1.74l-2.1-9.94a3.62,3.62,0,0,0-3.54-2.87h-8.5a3.62,3.62,0,0,1-3.32-2.17l-3.19-7.28a3.6,3.6,0,0,0-3.31-2.17h-5.54a3.62,3.62,0,0,0-3.26,2l-9.92,20.48L162.4,138.7a3.61,3.61,0,0,1-5.53,1.18l-4-3.23a3.59,3.59,0,0,0-1.2-.65l-14.65-4.66a3.46,3.46,0,0,1-1.23-.68l-3.6-3a3.61,3.61,0,0,1-.45-5.09l13.94-16.73a2.62,2.62,0,0,1,.22-.25l5.37-5.37a3.62,3.62,0,0,1,2.56-1.06H159a3.62,3.62,0,0,0,3.43-4.77l-.72-2.14a3.65,3.65,0,0,1,.54-3.32l3.23-4.3,9.27-12.85a2.55,2.55,0,0,0,.3-.5l2-4a3.62,3.62,0,0,1,5.8-.94l2.09,2.09a3.58,3.58,0,0,1,1,2.16l1.21,11a3.66,3.66,0,0,1-.22,1.7l-2.34,6a3.62,3.62,0,0,0,1.21,4.2l6.69,5a3.64,3.64,0,0,0,5-.58l3.38-4.07a3.61,3.61,0,0,0,.29-4.23L199.46,87a3.59,3.59,0,0,1-.55-1.91h0a3.62,3.62,0,0,1,5.7-3l1.09.77a3.38,3.38,0,0,1,.81.79l.86,1.13a3.62,3.62,0,0,0,6-.25l.62-1a3.38,3.38,0,0,1,.5-.63l4.07-4.09-7.82-2.61a3.68,3.68,0,0,1-1.53-1l-5.7-6.25a3.67,3.67,0,0,1-.94-2.44V61.27a3.61,3.61,0,0,0-1.83-3.14l-7.57-4.33a3.59,3.59,0,0,1-1.24-1.18l-6.35-9.8a3.63,3.63,0,0,1-.13-3.71l6.74-12.25a3.66,3.66,0,0,1,.52-.72l4.63-4.95a3.63,3.63,0,0,0-3.89-5.89c-2.81,1.06-5.59,2.18-8.37,3.35A237.49,237.49,0,0,0,40,230.11a3.69,3.69,0,0,0,1.69,3.2l3,1.92a3.62,3.62,0,0,1,1.32,1.5l13.37,28.15-.86-4.83a3.62,3.62,0,0,1,6.67-2.49L69,264a3.57,3.57,0,0,1,.52,1.85v10A3.6,3.6,0,0,0,71.35,279l7.78,4.45a3.7,3.7,0,0,0,1.22.43l21,3.39a3.66,3.66,0,0,1,1.56.65l9.25,6.78a3.58,3.58,0,0,0,2.14.7h2a3.62,3.62,0,0,1,3,1.57l6.39,9.3a3.64,3.64,0,0,0,1.36,1.19l9.34,4.66h10.79l1.81-1.27Z" transform="translate(-39.86)" fill="#62be75"/><path d="M318.77,29.69a3.47,3.47,0,0,0,.06-.64V6.44A3.4,3.4,0,0,0,316,3.08a240.55,240.55,0,0,0-92.33,3.05,3.51,3.51,0,0,0-2.07,1.42l-8.72,12.88a3.07,3.07,0,0,0-.27.46l-2.73,5.85a3.39,3.39,0,0,0,3.07,4.82h9.92a3.43,3.43,0,0,1,1.44.32l10.71,5a3.42,3.42,0,0,1,1.48,1.36l4.1,7a3.27,3.27,0,0,1,.47,1.7V63a3.5,3.5,0,0,0,.15,1L245,76a3.44,3.44,0,0,1-.2,2.54l-3.13,6.25a3.42,3.42,0,0,0-.18,2.59l3.56,10.66a3.48,3.48,0,0,0,1.29,1.71l8,5.56a3.2,3.2,0,0,1,.86.86h0a3.39,3.39,0,0,0,6.18-1.93v-.76a3.39,3.39,0,0,1,.3-1.4l6.58-14.44a3.34,3.34,0,0,1,1.21-1.42l6.83-4.54L283.41,77a3.31,3.31,0,0,0,.9-.89l7.29-10.59a3.55,3.55,0,0,1,.81-.83L314.1,49.06A3.4,3.4,0,0,0,315.45,47Z" transform="translate(-39.86)" fill="#e6e6e6"/><path d="M330.45,79.52H318.22a3.47,3.47,0,0,0-3,5.17l2.64,4.69a3.47,3.47,0,0,0,3,1.77H326a3.46,3.46,0,0,0,2.53-1.1L333,85.36A3.47,3.47,0,0,0,330.45,79.52Z" transform="translate(-39.86)" fill="#e6e6e6"/><path d="M484.62,258.32c2.82,9.16,11.3,28.34,16.14,38.78a3,3,0,0,0,3.94,1.51l1.57-.66a3.13,3.13,0,0,0,1.8-2.07C531.3,207.27,497.67,108,425.55,51.61a3.06,3.06,0,0,0-4.91,2.25,91.54,91.54,0,0,1-1,10.12,3.58,3.58,0,0,1-.14.54c-1,2.71-2.63,7.79-3.3,10.41-2.21,5.55-8.62,12.84-12.51,17.53a2.88,2.88,0,0,1-.78.65c-1.31.77-5.18,3-7.05,3.81a3,3,0,0,0-1.66,1.77c-1.13,3.39-1,9.29-1.41,12.57a3.15,3.15,0,0,0,.16,1.43c.26.7.67,1.8,1,2.66a2.87,2.87,0,0,0,2,1.87,11.11,11.11,0,0,0,4.52-.14c1.31-.48,4.55.18,6.65.65a2.9,2.9,0,0,0,2.47-.51c3.4-2.66,7.35-7.44,9.92-10.76a2.88,2.88,0,0,0,.62-1.73,136.84,136.84,0,0,1,1.23-16.17,3.08,3.08,0,0,1,1-1.75l4.06-3.64h2.42v7.31a3.13,3.13,0,0,0,.27,1.28l2.11,4.6a2.94,2.94,0,0,1,.28,1.27v3.94l-2.42,2.66,1.31,3.68a3.05,3.05,0,0,0,4.14,1.76c2.83-1.29,6.44-3,8.27-4.61a3,3,0,0,1,2.24-.68l12.38,1.31.74,2.67-3.8,2.79a3,3,0,0,1-1.81.6h-9.8a3.16,3.16,0,0,0-2.79,1.57c-2.51,4.61-7.6,8.91-11,12.55a4.19,4.19,0,0,0-.28.34l-3.64,5.26a3,3,0,0,1-1.61,1.17l-3.74,1.15a3,3,0,0,1-1.64,0l-6.93-1.74v-2.74a3.07,3.07,0,0,1,.74-2l.58-.66a3,3,0,0,0-1.52-4.94c-2.7-.72-5.8-1.6-8-2.3a3,3,0,0,0-3.28,1c-1.53,1.88-3.62,4.15-5.47,6a3.05,3.05,0,0,0,.15,4.47c.84.72,1.72,1.51,2.56,2.28a3,3,0,0,1-.65,4.94c-4.74,2.46-10.33,5.67-13,9.25l-4.53,5.42a3.06,3.06,0,0,1-.73.66c-3.8,2.37-10.83,4.05-15.59,4.66a3.1,3.1,0,0,0-2.23,1.4l-.68,1.07a3,3,0,0,0,1.33,4.42c2.3,1,4.93,2.24,6.84,3.16a2.94,2.94,0,0,1,1.51,1.59c1.22,3.37.11,6.18-1.86,9a3,3,0,0,1-2.57,1.32c-4-.1-8.89-.4-13.13-.68a3,3,0,0,0-3.23,3.22c.44,5.62-.42,12.63-.3,17.91a3,3,0,0,0,.83,2l2.17,2.32a3,3,0,0,0,1.61.91c3.21.67,8.49,2,11.18,2.71,8.82-.72,8.21-7.44,11-13.47a3,3,0,0,1,2.11-1.62l4-.86a3.06,3.06,0,0,0,2-1.51l1.38-2.52A3,3,0,0,1,386.1,187a56,56,0,0,0,7.44-2.85,2.94,2.94,0,0,0,.73-.54l5-5c1.07,1.08.52,5.68.49,7l-2.19,1.94c1.13,2,3.85,6.3,5.58,7.76l2.18-.25a29.8,29.8,0,0,1,.73-8l2.17-.49c2.88,2.82,6.41,7,10,9.38a3.06,3.06,0,0,1,1.49,2.49,13.25,13.25,0,0,1-.07,1.66,3,3,0,0,1-2.71,2.7l-2.22.25a4.35,4.35,0,0,0-.23,3.87c2.19-.16,4.4-2,6.46-3.31a3.07,3.07,0,0,0,1.47-2.7l-.19-5.37,3.16.49,1.94-1.94c-5.4-2.45-11.31-9.31-15.47-13.93a3,3,0,0,1-.77-2v-3.43l5.11,1.48a3.21,3.21,0,0,1,1.23.7L424,183a66.32,66.32,0,0,1,6.84,7.07,3,3,0,0,1,.68,1.91v3.28a3,3,0,0,0,.66,1.88,50.28,50.28,0,0,1,3.7,5,31.41,31.41,0,0,1-.24,5.1l3.09-.18a3,3,0,0,0,2.12-1l1.64-1.86a3,3,0,0,0,.65-2.8,23.18,23.18,0,0,1-.77-5,3,3,0,0,1,1.08-2.4l2.36-2c2.19,1.23,4.61.61,7,0a3.06,3.06,0,0,0,2.1-4l-.48-1.4a2.93,2.93,0,0,1-.05-1.85,86.67,86.67,0,0,1,5.92-15.06,3.06,3.06,0,0,1,5.08-.45l2.78,3.48a3.16,3.16,0,0,0,1.18.9l2.17.93a3.07,3.07,0,0,0,3.65-1l2-2.67a3.05,3.05,0,0,1,2.44-1.22h2a3,3,0,0,1,2.62,1.46c1.83,3.28,3,9.37,3.64,13.44a3,3,0,0,0,3,2.55h0a3.06,3.06,0,0,1,2.44,4.89l-2.58,3.43a3.05,3.05,0,0,1-4.91,0l-2.55-3.51a3,3,0,0,0-2.22-1.27c-8-.48-18.51,3.32-27,3.83a3,3,0,0,0-2.74,4.06l2.49,6.63a3,3,0,0,0,1.08,1.41l3.52,2.52a3.07,3.07,0,0,0,1.78.57H475a3,3,0,0,1,3,3.06v14.8a3,3,0,0,1-2.48,3,113.88,113.88,0,0,1-22.23,1.7,3.08,3.08,0,0,1-1.4-.45c-9.48-5.67-8.74-6-20.4-3.95v4.35C423.41,233.44,414,225.9,408,221a3,3,0,0,1-.8-1l-4-8.55a3,3,0,0,0-2.76-1.75h-18.3a3.1,3.1,0,0,0-1.54.42l-7.3,4.25a3.09,3.09,0,0,1-1.54.41H359.44a3.1,3.1,0,0,0-2.29,1c-9.35,10.46-9.67,8.9-9.94,23a3.07,3.07,0,0,1-1.6,2.64l-6.37,3.46a3,3,0,0,0-1.22,1.22l-12.26,22.5a3,3,0,0,0-.38,1.46v28.84a3,3,0,0,0,.49,1.65l16.78,26.2a3,3,0,0,0,2.57,1.41h18.12a3,3,0,0,0,1.08-.2l17.81-6.77a3.06,3.06,0,0,1,3.89,1.65l2.42,5.65a3.05,3.05,0,0,0,2.81,1.85h3.83a3.06,3.06,0,0,1,3.06,3.2c-.25,5.43-2.58,13.35-4.08,17.94a3.06,3.06,0,0,0,.36,2.63l7.38,11.07a3,3,0,0,1,.52,1.7v18a3,3,0,0,1-.29,1.28l-8,17.25a3,3,0,0,0-.16,2.12l3.93,13.77a3.32,3.32,0,0,1,.11.83v16.82a3.05,3.05,0,0,0,4.73,2.56c29.82-19.71,62.51-45.16,75-78.94a2.82,2.82,0,0,1,.84-1.18c13.24-11,18.58-30.92,24.56-47.2a3,3,0,0,0-2.08-4l-1.19-.32a3.07,3.07,0,0,1-1.91-1.47c-9-16.34-16.75-37.55-22.63-55.09a3,3,0,0,1,.38-2.68l2.28-3.34,6.44,12.61A3.52,3.52,0,0,1,484.62,258.32Z" transform="translate(-39.86)" fill="#62be75"/><path d="M361.48,141.42l-.55,1a3.62,3.62,0,0,0-.43,1.71v3.45h10.59a3.59,3.59,0,0,0,3.07-1.72l2.29-3.72a3.69,3.69,0,0,0,.53-1.89V138.4a3.62,3.62,0,0,0-1-2.51l-5.48-5.67a3.58,3.58,0,0,1-.5-.66l-3.44-5.79a4.26,4.26,0,0,1-.36-.82l-1.95-6.66a3.63,3.63,0,0,0-1.3-1.87h0a3.6,3.6,0,0,0-5.07.77l-1,1.42a3.6,3.6,0,0,0-.69,2.12v4.49a3.69,3.69,0,0,0,.64,2.06l3.61,5.19.21.35.88,1.64A9.43,9.43,0,0,1,361.48,141.42Z" transform="translate(-39.86)" fill="#e6e6e6"/><path d="M349.31,141.82a5.41,5.41,0,0,1,0,.9l-.45,4.89,2.15-2.14a4.45,4.45,0,0,1,.62-.53l2.5-1.75a4.72,4.72,0,0,0,2-3.85v-4.67a4.73,4.73,0,0,0-1-2.87l-1.45-1.88-2.41,1a4.7,4.7,0,0,0-2.67,6.09h0a4.43,4.43,0,0,1,.3,1.23Z" transform="translate(-39.86)" fill="#e6e6e6"/><g opacity="0.15"><path d="M209.27,407.08A237.42,237.42,0,0,0,446.94,169.4,236.38,236.38,0,0,0,408,39a239,239,0,0,1,88.57,106.23A237.68,237.68,0,0,1,109.47,405.74a238.93,238.93,0,0,1-30.66-37.61,236.38,236.38,0,0,0,130.46,38.95Z" transform="translate(-39.86)" fill="#202020"/></g><path d="M204.27,565.86H364a22.56,22.56,0,0,1,22.55,22.56v8.37a3.21,3.21,0,0,1-3.21,3.21H184.93a3.21,3.21,0,0,1-3.21-3.21v-8.37A22.55,22.55,0,0,1,204.27,565.86Z" transform="translate(-39.86)" fill="#24899b"/></svg>