<svg id="Capa_1" data-name="Capa 1" xmlns="http://www.w3.org/2000/svg" viewBox="0 0 600.75 598.22"><circle cx="297.44" cy="302.4" r="291.81" fill="#29a4b9"/><path d="M330,13.62,318,51.16a28.24,28.24,0,0,1-19.42,18.6l-30.22,8.29a28.55,28.55,0,0,1-7.47,1H215.66a9.41,9.41,0,0,0-9.33,8.17l-5.19,38.9-28.88,1.51a9.43,9.43,0,0,0-8.92,9l-1,25.1a9.42,9.42,0,0,0,10.19,9.76l19.24-1.61a16.91,16.91,0,0,0,12.36-7l18.52-24.83,38.06-1.36c7.43-.28,13.18,7.91,10.22,15.5-6.63,17-6.64,18.5-6.64,20A9.41,9.41,0,0,0,283,173.8c.64-2.16,3.52-9.69,7.28-19.23a5.3,5.3,0,0,1,9.35-1l2.43,3.68A18.82,18.82,0,0,0,322.79,165l16.8-4.66A15.25,15.25,0,0,0,349.78,151l3.22-8.55a18.85,18.85,0,0,1,13.81-11.8l10.86-2.24c7.4-1.53,15.23,2.94,16.52,10.38a13.13,13.13,0,0,1-11.44,15.35l-26.19.71a10,10,0,0,0-9.74,9.76l-.06,2.51a5.26,5.26,0,0,0,2.86,4.79l15.06,7.69a10.69,10.69,0,0,1,4,15.54h0a10.71,10.71,0,0,1-8.85,4.68H280.38a16.58,16.58,0,0,1-6.07-1.16l-66.67-26.26a13.8,13.8,0,0,0-14.43,2.71L130.07,233.5a18.83,18.83,0,0,0-5.5,18.33L137.41,304a18.82,18.82,0,0,0,17.27,14.3l71.12,3.83a28.24,28.24,0,0,1,26.61,25.61l5.39,58.57a36.8,36.8,0,0,0,3.47,12.58c6,12.5,20,40.92,27.73,50.75,10,12.65,34.64,13.15,42.95,5.59l57.83-47.33a28.24,28.24,0,0,0,8.93-16.8l6.78-46.48L451.41,314a9.39,9.39,0,0,0-3.23-14.93l-.82.55a25,25,0,0,1-11.66,4.12c-.73.06-1.47.1-2.2.1a24.73,24.73,0,0,1-21-11.62l-35.06-55.67a9.42,9.42,0,1,1,15.94-10l35.06,55.68a6,6,0,0,0,5.62,2.79,6.14,6.14,0,0,0,2.83-1l47.39-26A9.08,9.08,0,0,0,487,244.37h0a9.07,9.07,0,0,0-8.14-3.36l-9.95,1.14a9.43,9.43,0,0,1-7.36-2.33l-29.81-26.67a9.42,9.42,0,0,1,12.56-14L471,223l16.2-1.87a9.35,9.35,0,0,1,8.67,3.8l3.12,4.27,15.79-1.9a18.83,18.83,0,0,1,18.8,9.74L565.44,296a18.83,18.83,0,0,0,10.82,9l11.47,4c0-1.86.14-3.69.14-5.55C587.87,153.74,475.18,30.47,330,13.62Zm121.9,161.09a9.41,9.41,0,0,1-13.06-2.53l-19.61-29a9.41,9.41,0,1,1,15.59-10.54l19.61,29A9.41,9.41,0,0,1,451.94,174.71Z" transform="translate(1.38 -1)" fill="#92d29f"/><path d="M423.13,457.55a9.42,9.42,0,0,1-7.2-15.47l24.71-29.42a9.42,9.42,0,1,1,14.42,12.12l-24.71,29.41A9.4,9.4,0,0,1,423.13,457.55Z" transform="translate(1.38 -1)" fill="#92d29f"/><path d="M215.78,22.87l-8.37,25a9.41,9.41,0,0,0,5.92,11.92,9.56,9.56,0,0,0,3,.49,9.42,9.42,0,0,0,8.93-6.42l12.19-36.32C230.11,19,222.91,20.83,215.78,22.87Z" transform="translate(1.38 -1)" fill="#92d29f"/><path d="M53.12,465.05l8.14-74a18.83,18.83,0,0,0-5.64-15.65l-50.23-47A290,290,0,0,0,53.12,465.05Z" transform="translate(1.38 -1)" fill="#92d29f"/><path d="M296.06,11.59a293.06,293.06,0,0,0-31.24,1.69l-1,22.08a14.12,14.12,0,0,0,8.93,17.86,13.89,13.89,0,0,0,4.46.73,14.13,14.13,0,0,0,13.4-9.65l10.85-32.57C299.67,11.69,297.88,11.59,296.06,11.59Z" transform="translate(1.38 -1)" fill="#92d29f"/><path d="M391.76,499.51C230.6,499.51,100,368.87,100,207.7A290.44,290.44,0,0,1,143.19,54.83C59.83,106.21,4.25,198.3,4.25,303.4c0,161.17,130.65,291.82,291.81,291.82,105.1,0,197.2-55.59,248.57-139A290.42,290.42,0,0,1,391.76,499.51Z" transform="translate(1.38 -1)" fill="#202020" opacity="0.1"/><circle cx="239.92" cy="85.66" r="9.65" fill="#f6f6f6"/><circle cx="239.92" cy="85.66" r="15.49" fill="none" stroke="#f6f6f6" stroke-miterlimit="10" stroke-width="2"/><circle cx="278.87" cy="133.08" r="9.65" fill="#f6f6f6"/><circle cx="278.87" cy="133.08" r="15.49" fill="none" stroke="#f6f6f6" stroke-miterlimit="10" stroke-width="2"/><circle cx="210.92" cy="127.24" r="9.65" fill="#f6f6f6"/><circle cx="210.92" cy="127.24" r="15.49" fill="none" stroke="#f6f6f6" stroke-miterlimit="10" stroke-width="2"/><circle cx="283.67" cy="16.49" r="9.65" fill="#f6f6f6"/><circle cx="283.67" cy="16.49" r="15.49" fill="none" stroke="#f6f6f6" stroke-miterlimit="10" stroke-width="2"/><circle cx="384.91" cy="53.83" r="9.65" fill="#f6f6f6"/><circle cx="384.91" cy="53.83" r="15.49" fill="none" stroke="#f6f6f6" stroke-miterlimit="10" stroke-width="2"/><circle cx="239.92" cy="195.63" r="9.65" fill="#f6f6f6"/><circle cx="239.92" cy="195.63" r="15.49" fill="none" stroke="#f6f6f6" stroke-miterlimit="10" stroke-width="2"/><circle cx="162.23" cy="292.89" r="9.65" fill="#f6f6f6"/><circle cx="162.23" cy="292.89" r="15.49" fill="none" stroke="#f6f6f6" stroke-miterlimit="10" stroke-width="2"/><circle cx="390.74" cy="211.11" r="9.65" fill="#f6f6f6"/><circle cx="390.74" cy="211.11" r="15.49" fill="none" stroke="#f6f6f6" stroke-miterlimit="10" stroke-width="2"/><circle cx="312.92" cy="460.99" r="9.65" fill="#f6f6f6"/><circle cx="312.92" cy="460.99" r="15.49" fill="none" stroke="#f6f6f6" stroke-miterlimit="10" stroke-width="2"/><circle cx="27.21" cy="392.82" r="9.65" fill="#f6f6f6"/><circle cx="27.21" cy="392.82" r="15.49" fill="none" stroke="#f6f6f6" stroke-miterlimit="10" stroke-width="2"/><circle cx="581.95" cy="277.41" r="9.65" fill="#f6f6f6"/><circle cx="581.95" cy="277.41" r="15.49" fill="none" stroke="#f6f6f6" stroke-miterlimit="10" stroke-width="2"/><circle cx="463.87" cy="252.27" r="9.65" fill="#f6f6f6"/><circle cx="463.87" cy="252.27" r="15.49" fill="none" stroke="#f6f6f6" stroke-miterlimit="10" stroke-width="2"/><path d="M17.91,369q-1.43-5.1-2.71-10.15" transform="translate(1.38 -1)" fill="none" stroke="#f6f6f6" stroke-linecap="round" stroke-miterlimit="10" stroke-width="8"/><path d="M10.43,338.1c-39.31-192.78,75.05-322,226-325" transform="translate(1.38 -1)" fill="none" stroke="#f6f6f6" stroke-linecap="round" stroke-miterlimit="10" stroke-width="8" stroke-dasharray="21.29 21.29"/><path d="M247,13.1c3.48.06,7,.2,10.5.4" transform="translate(1.38 -1)" fill="none" stroke="#f6f6f6" stroke-linecap="round" stroke-miterlimit="10" stroke-width="8"/><path d="M316.62,434.62c.72-3.42,1.3-6.88,1.74-10.35" transform="translate(1.38 -1)" fill="none" stroke="#f6f6f6" stroke-linecap="round" stroke-miterlimit="10" stroke-width="8"/><path d="M319.24,401.23C316.5,343.6,277.07,288.17,211.86,287.1" transform="translate(1.38 -1)" fill="none" stroke="#f6f6f6" stroke-linecap="round" stroke-miterlimit="10" stroke-width="8" stroke-dasharray="23.09 23.09"/><path d="M200.31,287.47c-3.41.27-6.89.68-10.43,1.25" transform="translate(1.38 -1)" fill="none" stroke="#f6f6f6" stroke-linecap="round" stroke-miterlimit="10" stroke-width="8"/><path d="M366.89,199.83c-2.95-1.12-5.9-2.19-8.95-3.16" transform="translate(1.38 -1)" fill="none" stroke="#f6f6f6" stroke-linecap="round" stroke-miterlimit="10" stroke-width="8"/><path d="M342.06,192.72c-13.85-2.44-31.59-3.08-58.92-.6" transform="translate(1.38 -1)" fill="none" stroke="#f6f6f6" stroke-linecap="round" stroke-miterlimit="10" stroke-width="8" stroke-dasharray="17.27 16.37"/><path d="M275,192.93c-3,.32-6.18.68-9.44,1.07" transform="translate(1.38 -1)" fill="none" stroke="#f6f6f6" stroke-linecap="round" stroke-miterlimit="10" stroke-width="8"/><path d="M442.06,240.64c-5.31-3.31-7.56-4.69-8.9-5.55" transform="translate(1.38 -1)" fill="none" stroke="#f6f6f6" stroke-linecap="round" stroke-miterlimit="10" stroke-width="8"/><path d="M420.55,226.3c-2.31-1.59-5.14-3.54-8.66-5.94" transform="translate(1.38 -1)" fill="none" stroke="#f6f6f6" stroke-linecap="round" stroke-miterlimit="10" stroke-width="8"/><path d="M557.17,280.14c-3.66,0-7.15-.07-10.5-.22" transform="translate(1.38 -1)" fill="none" stroke="#f6f6f6" stroke-linecap="round" stroke-miterlimit="10" stroke-width="8"/><path d="M529.49,278.26a111.9,111.9,0,0,1-24.89-7" transform="translate(1.38 -1)" fill="none" stroke="#f6f6f6" stroke-linecap="round" stroke-miterlimit="10" stroke-width="8" stroke-dasharray="17.27 17.27"/><path d="M496.7,267.76q-4.53-2.17-9.32-4.84" transform="translate(1.38 -1)" fill="none" stroke="#f6f6f6" stroke-linecap="round" stroke-miterlimit="10" stroke-width="8"/><path d="M587.87,253.27q1.49-5.11,2.66-10.16" transform="translate(1.38 -1)" fill="none" stroke="#f6f6f6" stroke-linecap="round" stroke-miterlimit="10" stroke-width="8"/><path d="M594.08,223.23C606.94,118.13,521.51,42.7,432.34,47" transform="translate(1.38 -1)" fill="none" stroke="#f6f6f6" stroke-linecap="round" stroke-miterlimit="10" stroke-width="8" stroke-dasharray="20.2 20.2"/><path d="M422.27,47.82q-5.19.6-10.38,1.57" transform="translate(1.38 -1)" fill="none" stroke="#f6f6f6" stroke-linecap="round" stroke-miterlimit="10" stroke-width="8"/><path d="M569.29,254.84q-2.5-4.68-5-9.2" transform="translate(1.38 -1)" fill="none" stroke="#f6f6f6" stroke-linecap="round" stroke-miterlimit="10" stroke-width="8"/><path d="M553.89,228.19c-57.44-91.86-130.5-127.29-230.48-107" transform="translate(1.38 -1)" fill="none" stroke="#f6f6f6" stroke-linecap="round" stroke-miterlimit="10" stroke-width="8" stroke-dasharray="20.28 20.28"/><path d="M313.5,123.33q-5,1.19-10.18,2.55" transform="translate(1.38 -1)" fill="none" stroke="#f6f6f6" stroke-linecap="round" stroke-miterlimit="10" stroke-width="8"/><path d="M357.18,46.81a39.12,39.12,0,0,0-10.38-1.3" transform="translate(1.38 -1)" fill="none" stroke="#f6f6f6" stroke-linecap="round" stroke-miterlimit="10" stroke-width="8"/><path d="M333.49,47.83c-19.17,6.45-35.73,25.36-43.77,44.5" transform="translate(1.38 -1)" fill="none" stroke="#f6f6f6" stroke-linecap="round" stroke-miterlimit="10" stroke-width="8" stroke-dasharray="21.9 13.56"/><path d="M287.37,98.69A61,61,0,0,0,285,108.9" transform="translate(1.38 -1)" fill="none" stroke="#f6f6f6" stroke-linecap="round" stroke-miterlimit="10" stroke-width="8"/><path d="M240.09,62.65c1.13-3.92,2.14-7.21,3.12-10" transform="translate(1.38 -1)" fill="none" stroke="#f6f6f6" stroke-linecap="round" stroke-miterlimit="10" stroke-width="8"/><path d="M253.65,35.49c2.25-2,5-3.91,8.36-6.35" transform="translate(1.38 -1)" fill="none" stroke="#f6f6f6" stroke-linecap="round" stroke-miterlimit="10" stroke-width="8"/><path d="M187.79,139.71q-4.72,2.32-9.33,4.82" transform="translate(1.38 -1)" fill="none" stroke="#f6f6f6" stroke-linecap="round" stroke-miterlimit="10" stroke-width="8"/><path d="M161,154.89C101.88,193.24,60,255.39,39.57,347.05" transform="translate(1.38 -1)" fill="none" stroke="#f6f6f6" stroke-linecap="round" stroke-miterlimit="10" stroke-width="8" stroke-dasharray="20.29 20.29"/><path d="M37.46,357q-1,5.1-2,10.31" transform="translate(1.38 -1)" fill="none" stroke="#f6f6f6" stroke-linecap="round" stroke-miterlimit="10" stroke-width="8"/><path d="M156.67,318.38a54.63,54.63,0,0,1-2.88,10.08" transform="translate(1.38 -1)" fill="none" stroke="#f6f6f6" stroke-linecap="round" stroke-miterlimit="10" stroke-width="8"/><path d="M141.91,349.17c-15.52,20.54-41.17,39.24-69.15,44" transform="translate(1.38 -1)" fill="none" stroke="#f6f6f6" stroke-linecap="round" stroke-miterlimit="10" stroke-width="8" stroke-dasharray="23.95 23.95"/><path d="M60.85,394.32a76.84,76.84,0,0,1-10.49-.5" transform="translate(1.38 -1)" fill="none" stroke="#f6f6f6" stroke-linecap="round" stroke-miterlimit="10" stroke-width="8"/><path d="M580.57,304.58c-.28,3.52-.62,7-1,10.46" transform="translate(1.38 -1)" fill="none" stroke="#f6f6f6" stroke-linecap="round" stroke-miterlimit="10" stroke-width="8"/><path d="M576.73,335.23c-43.21,252.92-349,312.5-524.42,97.2" transform="translate(1.38 -1)" fill="none" stroke="#f6f6f6" stroke-linecap="round" stroke-miterlimit="10" stroke-width="8" stroke-dasharray="20.4 20.4"/><path d="M46,424.45q-3.19-4.12-6.33-8.38" transform="translate(1.38 -1)" fill="none" stroke="#f6f6f6" stroke-linecap="round" stroke-miterlimit="10" stroke-width="8"/><path d="M227.67,219.51a65.37,65.37,0,0,1-5.56,8.9" transform="translate(1.38 -1)" fill="none" stroke="#f6f6f6" stroke-linecap="round" stroke-miterlimit="10" stroke-width="8"/><path d="M208.81,241.24c-8.37,5.84-17,9-24.28,13.6" transform="translate(1.38 -1)" fill="none" stroke="#f6f6f6" stroke-linecap="round" stroke-miterlimit="10" stroke-width="8" stroke-dasharray="18.56 18.56"/><path d="M177.28,260.6a30.7,30.7,0,0,0-5.89,8.63" transform="translate(1.38 -1)" fill="none" stroke="#f6f6f6" stroke-linecap="round" stroke-miterlimit="10" stroke-width="8"/><path d="M242.78,171.73a57.3,57.3,0,0,0,1.29-10.4" transform="translate(1.38 -1)" fill="none" stroke="#f6f6f6" stroke-linecap="round" stroke-miterlimit="10" stroke-width="8"/><path d="M238.6,147.64a91,91,0,0,0-7.52-7.33" transform="translate(1.38 -1)" fill="none" stroke="#f6f6f6" stroke-linecap="round" stroke-miterlimit="10" stroke-width="8"/><path d="M266.81,111.77c-6.48-9.11-5.49-7.66-10.25-12.29" transform="translate(1.38 -1)" fill="none" stroke="#f6f6f6" stroke-linecap="round" stroke-miterlimit="10" stroke-width="8" stroke-dasharray="16.05"/><path d="M198.63,106.5a22.5,22.5,0,0,1-1.49-10.31" transform="translate(1.38 -1)" fill="none" stroke="#f6f6f6" stroke-linecap="round" stroke-miterlimit="10" stroke-width="8"/><path d="M204.58,86.75A25.57,25.57,0,0,1,214.86,85" transform="translate(1.38 -1)" fill="none" stroke="#f6f6f6" stroke-linecap="round" stroke-miterlimit="10" stroke-width="8"/><path d="M252.53,133.15a18.87,18.87,0,0,1-5.81-2.85" transform="translate(1.38 -1)" fill="none" stroke="#f6f6f6" stroke-linecap="round" stroke-miterlimit="10" stroke-width="8"/><path d="M237.31,122a9.05,9.05,0,0,0-6.23-1.31" transform="translate(1.38 -1)" fill="none" stroke="#f6f6f6" stroke-linecap="round" stroke-miterlimit="10" stroke-width="8"/><path d="M340.09,595.22q-3.72-3.84-7.06-7.78" transform="translate(1.38 -1)" fill="none" stroke="#f6f6f6" stroke-linecap="round" stroke-miterlimit="10" stroke-width="8"/><path d="M321.31,571.52c-12.59-19.85-19.25-41.65-21-65.22" transform="translate(1.38 -1)" fill="none" stroke="#f6f6f6" stroke-linecap="round" stroke-miterlimit="10" stroke-width="8" stroke-dasharray="19.78 19.78"/><path d="M299.88,496.42q-.09-5.21.12-10.5" transform="translate(1.38 -1)" fill="none" stroke="#f6f6f6" stroke-linecap="round" stroke-miterlimit="10" stroke-width="8"/><path d="M337.78,453.55a102.48,102.48,0,0,0,9.92-3.44" transform="translate(1.38 -1)" fill="none" stroke="#f6f6f6" stroke-linecap="round" stroke-miterlimit="10" stroke-width="8"/><path d="M366.32,440.13C417.53,405,428.8,324.79,403.57,256.22" transform="translate(1.38 -1)" fill="none" stroke="#f6f6f6" stroke-linecap="round" stroke-miterlimit="10" stroke-width="8" stroke-dasharray="21.17 21.17"/><path d="M399.66,246.37q-2.06-4.83-4.37-9.55" transform="translate(1.38 -1)" fill="none" stroke="#f6f6f6" stroke-linecap="round" stroke-miterlimit="10" stroke-width="8"/></svg>