<svg id="Ebene_1" data-name="Ebene 1" xmlns="http://www.w3.org/2000/svg" viewBox="0 0 519.86 600"><path id="background" d="M299.75,600,40.07,449.79l.25-300L300.25,0,559.93,150.21l-.25,300Z" transform="translate(-40.07)" fill="#24899b"/><path id="white_hexagon" data-name="white hexagon" d="M299.85,481.67l-157.25-91L142.75,209l157.4-90.71,157.25,91L457.25,391ZM161.58,379.76l138.29,80L438.29,380l.13-159.75-138.29-80L161.71,220Z" transform="translate(-40.07)" fill="#f6f5f5"/><path id="geo" d="M370.41,280.89A73.3,73.3,0,0,0,346.8,227l7.34-7.29-2.35-2.37-22.13,22a55.52,55.52,0,0,0-78.64,78l-21.43,21.26,2.36,2.37,6-6A78.78,78.78,0,0,0,287.57,356v17.14H270.64v9.54H315v-9.54H297.12V356C338,353.64,370.41,320.85,370.41,280.89ZM260.33,312.75l30.94-30.7,17.46,17.46c-8.39,8.05-18,13.8-27.18,16.24C272.57,318.14,265.07,317.06,260.33,312.75Zm33.31-33.05,30.89-30.65c8.74,10.07,2.87,31.09-13.44,48.1Zm-2.36-2.36L275,261c8.38-8,18-13.77,27.14-16.2a34.18,34.18,0,0,1,8.81-1.25,18.72,18.72,0,0,1,11.16,3.22Zm-2.37,2.35-30.79,30.55c-7.26-10.51-1.2-30.54,14.47-46.86Zm-16.18,40.65a37.83,37.83,0,0,0,9.68-1.36c9.75-2.59,19.88-8.64,28.68-17.11l13.06,13.06a45.91,45.91,0,0,1-55.42,5.12A27.18,27.18,0,0,0,272.73,320.34Zm53.8-7.75-13.08-13.08c8.45-8.79,14.49-18.91,17.08-28.65a32.72,32.72,0,0,0,.73-15.47,45.92,45.92,0,0,1-4.73,57.2ZM314.84,240.5a34.27,34.27,0,0,0-13.6,1.08c-9.74,2.58-19.85,8.62-28.65,17.07l-11.07-11.07a45.94,45.94,0,0,1,53.32-7.08ZM259.18,250l11.05,11c-8.46,8.81-14.52,18.93-17.11,28.68a35.82,35.82,0,0,0-1.27,11.74A45.92,45.92,0,0,1,259.18,250Zm-5.9,69.79a55.53,55.53,0,1,0,78.83-78.22l7.91-7.85a63.92,63.92,0,0,1,20.84,47.21c0,36.24-30.73,65.73-68.51,65.73a69.6,69.6,0,0,1-47.58-18.43Z" transform="translate(-40.07)" fill="#f6f5f5"/></svg>