<svg id="Capa_1" data-name="Capa 1" xmlns="http://www.w3.org/2000/svg" viewBox="0 0 600 600"><circle cx="300" cy="300" r="300" fill="#29a4b9"/><path d="M334.93,2.09,322.55,40.68a29,29,0,0,1-20,19.12l-31.07,8.52a28.85,28.85,0,0,1-7.68,1H217.34a9.67,9.67,0,0,0-9.59,8.39l-5.33,40-29.69,1.56a9.68,9.68,0,0,0-9.17,9.28l-1,25.8a9.67,9.67,0,0,0,10.48,10l19.78-1.64a17.44,17.44,0,0,0,12.71-7.21L223.79,130l39.13-1.4a11.68,11.68,0,0,1,11.25,15.93c-6.82,17.51-6.83,19-6.83,20.55a9.67,9.67,0,0,0,19.21,1.64c.66-2.23,3.62-10,7.49-19.77a5.45,5.45,0,0,1,9.61-1l2.5,3.79a19.37,19.37,0,0,0,21.33,8l17.28-4.8a15.64,15.64,0,0,0,10.46-9.57l3.32-8.79a19.35,19.35,0,0,1,14.2-12.13l11.17-2.3c7.59-1.57,15.65,3,17,10.67a13.51,13.51,0,0,1-11.77,15.78l-26.93.73a10.28,10.28,0,0,0-10,10l-.06,2.58a5.38,5.38,0,0,0,2.94,4.93l15.48,7.9a11,11,0,0,1,4.09,16h0a11,11,0,0,1-9.09,4.81H283.88a17.08,17.08,0,0,1-6.24-1.19l-68.54-27a14.21,14.21,0,0,0-14.84,2.79l-64.9,60A19.37,19.37,0,0,0,123.7,247l13.2,53.6a19.35,19.35,0,0,0,17.75,14.71l73.12,3.93a29,29,0,0,1,27.36,26.32l5.54,60.22a37.8,37.8,0,0,0,3.56,12.93c6.16,12.86,20.53,42.08,28.51,52.18,10.29,13,35.62,13.52,44.16,5.74L396.35,428a29,29,0,0,0,9.18-17.28l7-47.78,47.21-52a9.66,9.66,0,0,0-3.32-15.35l-.84.57a25.64,25.64,0,0,1-12,4.23c-.75.07-1.51.11-2.26.11a25.43,25.43,0,0,1-21.59-11.95l-36-57.23a9.68,9.68,0,1,1,16.38-10.32l36.05,57.24a6.15,6.15,0,0,0,5.77,2.87,6.26,6.26,0,0,0,2.91-1l48.72-26.7a9.33,9.33,0,0,0,2.82-14h0a9.33,9.33,0,0,0-8.37-3.45L477.72,237a9.71,9.71,0,0,1-7.57-2.4l-30.64-27.41a9.68,9.68,0,0,1,12.91-14.43l27.41,24.52,16.65-1.92a9.63,9.63,0,0,1,8.92,3.9l3.2,4.39,16.23-2a19.33,19.33,0,0,1,19.33,10l32.78,60.6a19.32,19.32,0,0,0,11.13,9.23l11.79,4.14c0-1.9.14-3.79.14-5.71C600,146.14,484.15,19.41,334.93,2.09Zm125.32,165.6a9.53,9.53,0,0,1-5.4,1.66,9.66,9.66,0,0,1-8-4.26l-20.15-29.83a9.67,9.67,0,1,1,16-10.83l20.16,29.83A9.65,9.65,0,0,1,460.25,167.69Z" fill="#92d29f"/><path d="M430.64,458.47a9.68,9.68,0,0,1-7.4-15.91l25.4-30.24a9.68,9.68,0,1,1,14.82,12.46L438.06,455A9.67,9.67,0,0,1,430.64,458.47Z" fill="#92d29f"/><path d="M217.47,11.59l-8.61,25.66A9.68,9.68,0,0,0,215,49.5,9.79,9.79,0,0,0,218,50a9.68,9.68,0,0,0,9.17-6.59L239.75,6.06C232.2,7.6,224.79,9.5,217.47,11.59Z" fill="#92d29f"/><path d="M50.24,466.18l8.38-76.07A19.36,19.36,0,0,0,52.82,374L1.17,325.73A298.32,298.32,0,0,0,50.24,466.18Z" fill="#92d29f"/><path d="M300,0a304.35,304.35,0,0,0-32.12,1.73l-1,22.71a14.51,14.51,0,1,0,27.53,9.18L305.58.14C303.71.11,301.87,0,300,0Z" fill="#92d29f"/><path d="M398.39,501.61c-165.69,0-300-134.31-300-300A298.53,298.53,0,0,1,142.84,44.46C57.15,97.27,0,192,0,300,0,465.69,134.31,600,300,600c108.05,0,202.73-57.15,255.54-142.84A298.53,298.53,0,0,1,398.39,501.61Z" fill="#202020" opacity="0.1"/></svg>