<svg xmlns="http://www.w3.org/2000/svg" viewBox="0 0 600 600"><g style="isolation:isolate"><g id="Capa_1" data-name="Capa 1"><rect width="600" height="600" rx="33.73" fill="#245e66"/><path d="M575.4,298h0a1.65,1.65,0,0,0-1.65-1.66H545.37V265.47h-3.3v30.84H515.16V265.47h-3.3v30.84H449.19V266h-3.31v12.7H426.75a7.6,7.6,0,0,1-7.58-7.58V230h29.16v-3.3H419.17v-26.6h-3.3v26.6H395.49a7.77,7.77,0,0,1-7.75-7.76V200.12h-3.3V219A11.06,11.06,0,0,0,395.49,230h20.38V244.1H307V221.15h42.12v-3.3H307V200.09h-3.3v44H286.93v-44h-3.3v44H255.57v-44h-3.3v44H208.19c-3,0-5.22-.7-6.56-2.06a5,5,0,0,1-1.44-3.35V193.11a1.65,1.65,0,0,0-1.65-1.66H183.83V168.91l12.36-9.08,5.9,10.45a1.63,1.63,0,0,0,1.43.85h20.95v-3.31h-20l-5.62-10,29.64-21.76a1.67,1.67,0,0,0,.35-2.32h0a1.66,1.66,0,0,0-2.31-.35l-45.36,33.32a1.67,1.67,0,0,0-.67,1.34v23.37h-17c-10.58,0-12.64-9.34-12.86-10.53v-60h52a1.65,1.65,0,0,0,1.66-1.65h0a1.66,1.66,0,0,0-1.66-1.66h-52V95.26h52a1.65,1.65,0,0,0,1.66-1.65h0A1.65,1.65,0,0,0,202.67,92h-52V59.07l13.43-6.22a1.64,1.64,0,0,0,.8-2.19h0a1.65,1.65,0,0,0-2.19-.81L128.5,65.72h-62V52.31H128a1.56,1.56,0,0,0,.64-.13l25.46-10.66a1.65,1.65,0,0,0,.89-2.16h0a1.66,1.66,0,0,0-2.16-.88L127.71,49H101.6V26.42A1.65,1.65,0,0,0,100,24.77h0a1.65,1.65,0,0,0-1.65,1.65V49h-10V26.42a1.65,1.65,0,0,0-1.65-1.65h0A1.65,1.65,0,0,0,85,26.42V49H52.79V26.42a1.65,1.65,0,0,0-1.65-1.65h0a1.65,1.65,0,0,0-1.65,1.65V49H26.25a1.65,1.65,0,0,0-1.65,1.65h0a1.65,1.65,0,0,0,1.65,1.65h37V67.37A1.65,1.65,0,0,0,64.86,69h20.6a23.37,23.37,0,0,1-.12,15.72c-2.53,6.54-8.31,11.8-17.19,15.62a37.38,37.38,0,0,0-16.22,13H26.25A1.65,1.65,0,0,0,24.6,115h0a1.65,1.65,0,0,0,1.65,1.65h23.6a45,45,0,0,0-4.43,11.58H26.25a1.65,1.65,0,0,0-1.65,1.65h0a1.65,1.65,0,0,0,1.65,1.65h18.5a57.07,57.07,0,0,0-.5,16.15l3.26-.51c0-.22-2.28-16.09,5.56-29.49a24.71,24.71,0,0,0,18,7.45H91.69v22.3H95v-22.3h14.87v22.3h3.31v-22.3h14.68v-3.3H71a21.31,21.31,0,0,1-16.1-7A34.1,34.1,0,0,1,69.45,103.4c9.73-4.18,16.11-10.06,19-17.47.23-.62.44-1.23.62-1.84h38.8v-3.3H89.78A27.48,27.48,0,0,0,88.94,69h39.93a1.51,1.51,0,0,0,.69-.15l17.85-8.26V92H128.87v3.3h18.54v22.36H128.87v3.31h18.54v46.74h-26a1.65,1.65,0,0,0-1.65,1.65h0a1.65,1.65,0,0,0,1.65,1.65h26v9.71H129.65V184h18.53c1.35,3.69,4.95,10,13.73,10.7v21.79l-13.79,9.35a1.65,1.65,0,0,0-.71,1.37v37.18h3.3V228.06l11.2-7.6v43.91h3.31V194.76h31.67v43.87a8.36,8.36,0,0,0,2.31,5.67c2,2.06,5,3.1,9,3.1h112v17h3.31v-17H332v17h3.31v-17h80.53v23.75A10.89,10.89,0,0,0,426.75,282h19.13v39.11H356.35V306.5H398v-3.3H356.35V286.88H398v-3.3H319.42a1.65,1.65,0,0,0-1.65,1.65h0a1.65,1.65,0,0,0,1.65,1.65H353V322.8a1.65,1.65,0,0,0,1.65,1.65h91.19v9.79H398v3.31h47.89v18.06h3.31V337.55h68.57a12.92,12.92,0,0,0,11.38-6.82l21.51,21.5v18.43H554V353.2h19.8a1.65,1.65,0,0,0,1.65-1.65h0a1.65,1.65,0,0,0-1.65-1.65H562.63V299.62h11.12A1.65,1.65,0,0,0,575.4,298Zm-48,26.67a9.61,9.61,0,0,1-9.61,9.6H449.19v-9.79H488.9v-3.31H449.19V299.62h78.18Zm32,25.26H553L530.4,327.31a13.07,13.07,0,0,0,.27-2.67v-25h28.66Z" fill="#1f7984"/><rect x="78.74" y="215.69" width="51.41" height="3.3" rx="1.65" fill="#1f7984"/><rect x="96.74" y="232.3" width="32.13" height="3.3" rx="1.65" fill="#1f7984"/><path d="M260,49V78.2a1.65,1.65,0,0,1-1.65,1.65h0a1.65,1.65,0,0,1-1.65-1.65V50.66A1.65,1.65,0,0,0,255,49H234.34a1.67,1.67,0,0,1-1.27-.61L215.84,27.47a1.65,1.65,0,0,1,1.28-2.7h0a1.64,1.64,0,0,1,1.27.6L234.63,45.1a1.66,1.66,0,0,0,1.28.6h3.94a1.65,1.65,0,0,0,1.65-1.65V26.42a1.65,1.65,0,0,1,1.66-1.65h0a1.65,1.65,0,0,1,1.65,1.65V44.05a1.65,1.65,0,0,0,1.65,1.65h10.19A3.31,3.31,0,0,1,260,49Z" fill="#1f7984"/><rect x="405.4" y="24.77" width="3.3" height="68.57" rx="1.65" fill="#1f7984"/><rect x="364.33" y="24.77" width="3.3" height="22.58" rx="1.65" fill="#1f7984"/><path d="M339.55,68.7V93.33A1.65,1.65,0,0,0,341.2,95H370a1.65,1.65,0,0,0,1.65-1.66V81.5a1.65,1.65,0,0,1,1.65-1.65h0A1.65,1.65,0,0,1,375,81.5v26.8a1.65,1.65,0,0,1-1.65,1.66h0a1.65,1.65,0,0,1-1.65-1.66V99.94A1.65,1.65,0,0,0,370,98.29H341.2a1.65,1.65,0,0,0-1.65,1.65v20.67a1.65,1.65,0,0,1-1.66,1.65h0a1.65,1.65,0,0,1-1.65-1.65V99.94a1.65,1.65,0,0,0-1.65-1.65h-5.36a9.26,9.26,0,0,0-9.24,9.23v18.87a1.65,1.65,0,0,1-1.65,1.65h0a1.65,1.65,0,0,1-1.65-1.65V107.52A12.53,12.53,0,0,1,329.23,95h5.36a1.65,1.65,0,0,0,1.65-1.66V68.7a1.65,1.65,0,0,0-1.65-1.65h-9.36a1.65,1.65,0,0,0-1.66,1.65v9.5a1.65,1.65,0,0,1-1.65,1.65h0a1.65,1.65,0,0,1-1.65-1.65V68.7a1.65,1.65,0,0,0-1.65-1.65H285.51a1.65,1.65,0,0,1-1.65-1.65h0a1.65,1.65,0,0,1,1.65-1.66h49.08a1.65,1.65,0,0,0,1.65-1.65V26.42a1.65,1.65,0,0,1,1.65-1.65h0a1.65,1.65,0,0,1,1.66,1.65V62.09a1.65,1.65,0,0,0,1.65,1.65h45.06a1.65,1.65,0,0,1,1.65,1.66h0a1.65,1.65,0,0,1-1.65,1.65H341.2A1.65,1.65,0,0,0,339.55,68.7Z" fill="#1f7984"/><path d="M425.49,69h0a1.65,1.65,0,0,0-1.66,1.65v9.2h3.31v-9.2A1.65,1.65,0,0,0,425.49,69Z" fill="#1f7984"/><path d="M554.73,76.21V94.45a1.65,1.65,0,0,0,1.66,1.65h17.36a1.65,1.65,0,0,1,1.65,1.65h0a1.65,1.65,0,0,1-1.65,1.65H556.39a1.66,1.66,0,0,0-1.66,1.66v7.83a1.65,1.65,0,0,1-1.65,1.65h0a1.65,1.65,0,0,1-1.65-1.65v-7.83a1.65,1.65,0,0,0-1.65-1.66H525.44a1.65,1.65,0,0,1-1.65-1.65h0a1.65,1.65,0,0,1,1.65-1.65h24.34a1.65,1.65,0,0,0,1.65-1.65V76.21a1.65,1.65,0,0,0-1.65-1.65H525.07a1.65,1.65,0,0,1-1.65-1.65h0a1.65,1.65,0,0,1,1.65-1.65h35.34a1.65,1.65,0,0,0,1.65-1.65V36.82a1.65,1.65,0,0,0-1.65-1.65H518a1.65,1.65,0,0,0-1.65,1.65V63.33A1.65,1.65,0,0,1,514.67,65h0A1.65,1.65,0,0,1,513,63.33V36.82a1.65,1.65,0,0,0-1.66-1.65h-5.55a1.65,1.65,0,0,0-1.65,1.65V63.2a1.65,1.65,0,0,1-1.65,1.66h0a1.66,1.66,0,0,1-1.66-1.66V55.61A1.65,1.65,0,0,0,499.2,54H477.5a1.65,1.65,0,0,0-1.65,1.65V63.2a1.65,1.65,0,0,1-1.65,1.66h0a1.66,1.66,0,0,1-1.66-1.66V41.66A1.65,1.65,0,0,0,470.89,40H449.43a1.65,1.65,0,0,1-1.65-1.66h0a1.65,1.65,0,0,1,1.65-1.65h21.46a1.65,1.65,0,0,0,1.65-1.65V26.42a1.65,1.65,0,0,1,1.66-1.65h0a1.65,1.65,0,0,1,1.65,1.65V49a1.65,1.65,0,0,0,1.65,1.65h21.7A1.65,1.65,0,0,0,500.85,49V26.42a1.65,1.65,0,0,1,1.66-1.65h0a1.65,1.65,0,0,1,1.65,1.65v3.79a1.65,1.65,0,0,0,1.65,1.65h56.25a3.31,3.31,0,0,1,3.3,3.31V69.61A1.65,1.65,0,0,0,567,71.26h6.73a1.65,1.65,0,0,1,1.65,1.65h0a1.65,1.65,0,0,1-1.65,1.65H556.39A1.65,1.65,0,0,0,554.73,76.21Z" fill="#1f7984"/><path d="M49.85,283.51v12.14a1.65,1.65,0,0,0,1.65,1.66h34A1.65,1.65,0,0,1,87.12,299h0a1.65,1.65,0,0,1-1.66,1.65H48.2A1.66,1.66,0,0,1,46.54,299V283.51a1.65,1.65,0,0,0-1.65-1.65H26.25a1.65,1.65,0,0,1-1.65-1.65h0a1.65,1.65,0,0,1,1.65-1.65H96.14a1.65,1.65,0,0,1,1.65,1.65h0a1.65,1.65,0,0,1-1.65,1.65H51.5A1.65,1.65,0,0,0,49.85,283.51Z" fill="#1f7984"/><rect x="24.6" y="337.66" width="19.74" height="3.3" rx="1.65" fill="#1f7984"/><rect x="24.6" y="349.33" width="19.74" height="3.3" rx="1.65" fill="#1f7984"/><path d="M182.32,457.17H130a1.65,1.65,0,0,0-1.65,1.66h0a1.65,1.65,0,0,0,1.65,1.65h50.69a1.65,1.65,0,0,1,1.66,1.65V488.9a1.65,1.65,0,0,0,1.65,1.65h0a1.65,1.65,0,0,0,1.65-1.65V460.48A3.31,3.31,0,0,0,182.32,457.17Z" fill="#1f7984"/><rect x="236.09" y="369.57" width="3.3" height="39.66" fill="#1f7984"/><rect x="262.99" y="384.36" width="3.3" height="24.87" rx="1.65" fill="#1f7984"/><path d="M338.71,513.8V425.43a1.65,1.65,0,0,0-1.65-1.65h0a1.65,1.65,0,0,0-1.65,1.65v45.95a1.65,1.65,0,0,1-1.66,1.65H296.5a1.65,1.65,0,0,1-1.66-1.65V443.7a15.18,15.18,0,0,0-1.72-7.05,1.65,1.65,0,0,1,.51-2.12L319,416.76a1.65,1.65,0,0,0,.41-2.3h0a1.64,1.64,0,0,0-2.3-.4l-25.72,18a1.64,1.64,0,0,1-2-.08,15.22,15.22,0,0,0-9.84-3.59H211.23a1.65,1.65,0,0,1-1.65-1.66V371.19a1.65,1.65,0,0,0-1.65-1.65h0a1.65,1.65,0,0,0-1.65,1.65v22.43a1.65,1.65,0,0,1-1.66,1.65H138.56a1.65,1.65,0,0,1-1.65-1.65v-22.1a1.65,1.65,0,0,0-1.65-1.65h0a1.65,1.65,0,0,0-1.66,1.65v44.59a1.65,1.65,0,0,1-1.65,1.66H55.55a1.65,1.65,0,0,1-1.65-1.66V401.24a1.65,1.65,0,0,1,1.65-1.65h33a1.65,1.65,0,0,0,1.65-1.65h0a1.65,1.65,0,0,0-1.65-1.66h-33a1.65,1.65,0,0,1-1.65-1.65V371.78a1.65,1.65,0,0,0-1.65-1.65h0a1.65,1.65,0,0,0-1.65,1.65v22.85A1.65,1.65,0,0,1,49,396.28H40.74a1.65,1.65,0,0,1-1.65-1.65V371.78a1.65,1.65,0,0,0-1.66-1.65h0a1.65,1.65,0,0,0-1.65,1.65v22.85a1.65,1.65,0,0,1-1.65,1.65H26.25a1.65,1.65,0,0,0-1.65,1.66h0a1.65,1.65,0,0,0,1.65,1.65H49a1.65,1.65,0,0,1,1.65,1.65v16.53a3.3,3.3,0,0,0,3.3,3.3H204.62a1.65,1.65,0,0,1,1.66,1.65V488.9a1.65,1.65,0,0,0,1.65,1.65h0a1.65,1.65,0,0,0,1.65-1.65V473.66a1.65,1.65,0,0,1,1.65-1.65h50.1a1.65,1.65,0,0,1,1.66,1.65v15.4a1.65,1.65,0,0,0,1.65,1.65h0a1.65,1.65,0,0,0,1.65-1.65V433.35a1.65,1.65,0,0,1,1.65-1.65h11.61a12,12,0,0,1,12,12v45a1.65,1.65,0,0,0,1.65,1.65h0a1.65,1.65,0,0,0,1.65-1.65V478a1.65,1.65,0,0,1,1.66-1.65h37.25a1.65,1.65,0,0,1,1.66,1.65v24.6a1.65,1.65,0,0,1-1.66,1.65H266.29a1.65,1.65,0,0,0-1.65,1.65h0a1.65,1.65,0,0,0,1.65,1.66h67.46a1.65,1.65,0,0,1,1.66,1.65v29.47a1.65,1.65,0,0,0,1.65,1.65h0a1.65,1.65,0,0,0,1.65-1.65V520.41a1.65,1.65,0,0,1,1.65-1.65h21.13a1.65,1.65,0,0,0,1.65-1.65h0a1.65,1.65,0,0,0-1.65-1.65H340.36A1.65,1.65,0,0,1,338.71,513.8Zm-134.09-96H138.56a1.65,1.65,0,0,1-1.65-1.66V400.23a1.65,1.65,0,0,1,1.65-1.65h26.15a1.65,1.65,0,0,1,1.65,1.65v1.86a8.82,8.82,0,0,0,8.8,8.79h29.46a1.65,1.65,0,0,1,1.66,1.65v3.58A1.66,1.66,0,0,1,204.62,417.77Zm0-10.19H175.16a5.49,5.49,0,0,1-5.49-5.49v-1.86a1.65,1.65,0,0,1,1.65-1.65h33.3a1.65,1.65,0,0,1,1.66,1.65v5.69A1.66,1.66,0,0,1,204.62,407.58Zm56.71,61.12h-50.1a1.65,1.65,0,0,1-1.65-1.65v-33.7a1.65,1.65,0,0,1,1.65-1.65h50.1a1.65,1.65,0,0,1,1.66,1.65v33.7A1.65,1.65,0,0,1,261.33,468.7Z" fill="#1f7984"/><path d="M327.71,560.85V542.14a1.66,1.66,0,0,0-1.66-1.66h0a1.65,1.65,0,0,0-1.65,1.66v8.65a1.65,1.65,0,0,1-1.65,1.66H296.5a1.66,1.66,0,0,1-1.66-1.66v-8.65a1.65,1.65,0,0,0-1.65-1.66h0a1.65,1.65,0,0,0-1.65,1.66v31.78a1.65,1.65,0,0,0,1.65,1.65h0a1.65,1.65,0,0,0,1.65-1.65v-6.46a1.65,1.65,0,0,1,1.66-1.65h26.25a1.65,1.65,0,0,1,1.65,1.65v6.46a1.65,1.65,0,0,0,1.65,1.65h0a1.65,1.65,0,0,0,1.66-1.65v-6.46a1.65,1.65,0,0,1,1.65-1.65h33.05a1.65,1.65,0,0,0,1.65-1.65h0a1.65,1.65,0,0,0-1.65-1.65H329.36A1.65,1.65,0,0,1,327.71,560.85Zm-5,1.66H296.5a1.66,1.66,0,0,1-1.66-1.66V557.4a1.65,1.65,0,0,1,1.66-1.65h26.25a1.65,1.65,0,0,1,1.65,1.65v3.45A1.65,1.65,0,0,1,322.75,562.51Z" fill="#1f7984"/><path d="M467.77,375h19.48a1.65,1.65,0,0,0,1.65-1.65h0a1.65,1.65,0,0,0-1.65-1.66H467.77a15.66,15.66,0,0,0-15.65,15.66v9.34a1.65,1.65,0,0,1-1.65,1.65h-92a1.65,1.65,0,0,1-1.65-1.65V357.27a1.65,1.65,0,0,0-1.65-1.66h0a1.66,1.66,0,0,0-1.66,1.66v75.18a1.65,1.65,0,0,0,1.66,1.65h0a1.65,1.65,0,0,0,1.65-1.65V415.67a1.65,1.65,0,0,1,1.65-1.65h71.71a1.65,1.65,0,0,1,1.66,1.65v60.44a1.65,1.65,0,0,0,1.65,1.65h0a1.65,1.65,0,0,0,1.65-1.65V403.26a1.65,1.65,0,0,1,1.65-1.65h13.71a1.65,1.65,0,0,1,1.65,1.65v83.41a1.65,1.65,0,0,0,1.65,1.65h0a1.65,1.65,0,0,0,1.65-1.65V426.35a1.66,1.66,0,0,1,1.66-1.66h29.44a1.65,1.65,0,0,0,1.66-1.65h0a1.65,1.65,0,0,0-1.66-1.65H457.08a1.65,1.65,0,0,1-1.66-1.65V387.31A12.38,12.38,0,0,1,467.77,375Zm-37.62,35.76H358.44a1.65,1.65,0,0,1-1.65-1.66v-5.8a1.65,1.65,0,0,1,1.65-1.65h71.71a1.65,1.65,0,0,1,1.66,1.65v5.8A1.66,1.66,0,0,1,430.15,410.72Z" fill="#1f7984"/><rect x="505.06" y="393.99" width="70.34" height="3.3" rx="1.65" fill="#1f7984"/><rect x="534.53" y="410.72" width="40.87" height="3.3" rx="1.65" fill="#1f7984"/><path d="M575.4,498.18h0a1.65,1.65,0,0,0-1.65-1.65H555.6a1.65,1.65,0,0,1-1.65-1.65V480.51a1.65,1.65,0,0,0-1.65-1.65h0a1.65,1.65,0,0,0-1.65,1.65v14.37a1.65,1.65,0,0,1-1.66,1.65H517.37a1.65,1.65,0,0,1-1.65-1.65V431.7a1.65,1.65,0,0,0-1.66-1.65h0a1.65,1.65,0,0,0-1.65,1.65v42.75a1.65,1.65,0,0,1-1.65,1.66H490.55a1.65,1.65,0,0,0-1.65,1.65h0a1.65,1.65,0,0,0,1.65,1.65h20.21a1.65,1.65,0,0,1,1.65,1.65v34.4a3.31,3.31,0,0,0,3.31,3.3h58a1.65,1.65,0,0,0,1.65-1.65h0a1.65,1.65,0,0,0-1.65-1.65H555.6A1.65,1.65,0,0,1,554,513.8V501.49a1.65,1.65,0,0,1,1.65-1.66h18.15A1.65,1.65,0,0,0,575.4,498.18ZM549,515.46H517.37a1.65,1.65,0,0,1-1.65-1.66V501.49a1.65,1.65,0,0,1,1.65-1.66H549a1.66,1.66,0,0,1,1.66,1.66V513.8A1.66,1.66,0,0,1,549,515.46Z" fill="#1f7984"/><path d="M97.79,533.18h0a1.65,1.65,0,0,1-1.65,1.65h-42A.15.15,0,0,0,54,535v38.94a1.65,1.65,0,0,1-1.65,1.65h0a1.65,1.65,0,0,1-1.66-1.65V557.1a1.89,1.89,0,0,0-1.88-1.89H26.25a1.65,1.65,0,0,1-1.65-1.65h0a1.65,1.65,0,0,1,1.65-1.65H48.77A1.89,1.89,0,0,0,50.65,550V535a.15.15,0,0,0-.15-.15h0a12.41,12.41,0,0,1-12.41-12.41V518.2a1.86,1.86,0,0,0-1.86-1.86h-10a1.65,1.65,0,0,1-1.65-1.66h0A1.65,1.65,0,0,1,26.25,513H78.93a1.65,1.65,0,0,1,1.65,1.65h0a1.65,1.65,0,0,1-1.65,1.66H43.27a1.87,1.87,0,0,0-1.87,1.86v4.22a9.14,9.14,0,0,0,9.1,9.11H96.14A1.65,1.65,0,0,1,97.79,533.18Z" fill="#1f7984"/><rect x="101.93" y="552.21" width="3.3" height="23.36" rx="1.65" fill="#1f7984"/><rect x="112.86" y="552.21" width="3.3" height="23.36" rx="1.65" fill="#1f7984"/><rect x="140.71" y="552.21" width="3.3" height="23.36" rx="1.65" fill="#1f7984"/><path d="M123.36,275.38H289.7s27.54,4.41,30.29,32.5-8.81,30.85-17.62,35.8,2.2,26.44-8.81,34.15-31.4-3.85-44.62-21.48h-69.4s-13.22-3.85-19.83-17.07-9.36-24.79-23.68-27-30.85,2.75-34.15-12.12S102.43,274.83,123.36,275.38Z" fill="#33cadd"/><path d="M242.25,575.57H196.32a4.53,4.53,0,0,1-4.4-3.49l-.15-.59c-3.06-11.57-13.51-19.92-24.67-24.24s-23.26-5.42-35-7.61-23.81-5.81-32.52-14c-7.25-6.85-11.46-16.24-15.22-25.47S77,481.36,70.65,473.67s-16.17-13.34-26-11.83c-5.88.9-11.08,4.19-16.46,6.7h0a2.5,2.5,0,0,1-3.56-2.26V428.13a4.89,4.89,0,0,1,4.57-4.9c35.79-2.14,72.58,14.55,93.7,43.7,9.36,12.91,16.33,28.43,29.87,36.86,9.63,6,21.74,7.75,30.34,15.16,9,7.79,12.52,20.4,21,28.79,11,10.91,28.8,13.32,39.9,23.45A2.52,2.52,0,0,1,242.25,575.57Z" fill="#33cadd"/><path d="M575.4,181.92v99.42a1.92,1.92,0,0,1-3.64.86h0c-5.83-11.65-10.39-24.68-20.56-32.85-18.31-14.74-45.41-7.29-68.25-12.85-27-6.6-45.78-30.86-59.55-55-5.77-10.12-11.82-21.24-22.48-25.95-15.47-6.84-32.93,2.68-46.94,12.16s-30.69,19.74-46.7,14.28c-19.84-6.79-25.53-33.28-43.37-44.32-12.55-7.78-29.83-7-40.24-17.46-12.4-12.46-8.67-34.25-18.88-48.56C194.17,56.76,171.6,54.18,161.47,39a33.38,33.38,0,0,1-4.14-9,4,4,0,0,1,3.84-5.16H194.8a5.84,5.84,0,0,1,4.48,2.14,41.33,41.33,0,0,0,6.31,6.14c8.07,6.33,17.3,11.31,24,19.25,5.28,6.28,8.18,13.27,11.3,20.71,2.91,6.94,7.21,14.52,13.57,18.87,7.88,5.41,18.93,4.16,25.82,11.48,4.9,5.21,5.65,13,8.66,19.46,4.73,10.23,19,19.91,30.76,16.55,12.94-3.69,21.9-16.66,35.34-19.72,5.82-1.32,12-.65,17.75-2.06,13.88-3.39,23.84-18.21,38.13-18.43,19.45-.3,28.37,25.07,45.86,33.61,5.21,2.55,11.11,3.53,16.12,6.46,11.77,6.88,15.53,22.51,26.22,31,19,15,48.38.76,71.26,5.55A6.32,6.32,0,0,1,575.4,181.92Z" fill="#33cadd"/><rect x="413.33" y="28.67" width="24.06" height="9.69" rx="3.95" fill="#29a4b9"/><rect x="413.33" y="55.29" width="24.06" height="9.69" rx="3.95" fill="#29a4b9"/><rect x="154.99" y="101.39" width="24.04" height="12.61" rx="3.95" fill="#29a4b9"/><rect x="154.99" y="124.69" width="24.04" height="12.61" rx="3.86" fill="#29a4b9"/><rect x="363.06" y="364.1" width="26.7" height="11.48" rx="3.95" fill="#29a4b9"/><rect x="363.06" y="381.33" width="26.7" height="11.48" rx="3.95" fill="#29a4b9"/><rect x="460.65" y="434.36" width="18.54" height="14.99" rx="3.95" fill="#29a4b9"/><path d="M474,487.88l-11.46-6.21a3.55,3.55,0,0,1-1.85-3.12V456.63a3.53,3.53,0,0,1,3.54-3.54h11.45a3.54,3.54,0,0,1,3.55,3.54v28.14A3.54,3.54,0,0,1,474,487.88Z" fill="#29a4b9"/><rect x="543.72" y="420.17" width="25.77" height="48.7" rx="3.95" fill="#29a4b9"/><rect x="453.08" y="273.02" width="27.2" height="8.79" rx="3.95" fill="#29a4b9"/><rect x="453.08" y="285.51" width="27.2" height="8.79" rx="3.95" fill="#29a4b9"/><rect x="406.47" y="285.51" width="34.32" height="28.98" rx="3.95" fill="#29a4b9"/><rect x="205.19" y="178.19" width="11.15" height="59.41" rx="3.95" fill="#29a4b9"/><rect x="58.41" y="284.75" width="22.51" height="10.46" rx="3.86" fill="#29a4b9"/><rect x="58.41" y="302.11" width="22.51" height="10.46" rx="3.86" fill="#29a4b9"/><rect x="97.79" y="378.32" width="31.9" height="11.38" rx="3.95" fill="#29a4b9"/><rect x="168.02" y="378.32" width="31.9" height="11.38" rx="3.95" fill="#29a4b9"/><rect x="97.79" y="394.27" width="31.9" height="11.38" rx="3.86" fill="#29a4b9"/><rect x="215.22" y="439.53" width="35.82" height="20.4" rx="3.86" fill="#29a4b9"/><rect x="535.26" y="123.52" width="40.14" height="16.69" rx="3.62" fill="#29a4b9"/><rect x="535.26" y="147.79" width="40.14" height="16.69" rx="3.62" fill="#29a4b9"/><rect x="31.01" y="74.1" width="29.75" height="14.4" rx="3.95" fill="#29a4b9"/><rect x="31.01" y="56.4" width="29.75" height="14.4" rx="3.95" fill="#29a4b9"/><rect x="67.17" y="74.1" width="14.33" height="14.4" rx="3.95" fill="#29a4b9"/><rect x="499.57" y="523.95" width="69.93" height="19.07" rx="3.86" fill="#29a4b9"/><rect x="499.57" y="549.14" width="31.02" height="19.07" rx="3.86" fill="#29a4b9"/><rect x="538.47" y="549.14" width="31.02" height="19.07" rx="3.86" fill="#29a4b9"/><path d="M332.08,410.57l-8.4-4.59a3.61,3.61,0,0,1-1.88-3.17v-33.9a3.62,3.62,0,0,1,3.62-3.62h8.4a3.62,3.62,0,0,1,3.62,3.62v38.48A3.62,3.62,0,0,1,332.08,410.57Z" fill="#29a4b9"/><path d="M478.68,519.2v46.25a10.12,10.12,0,0,1-10.12,10.12H382a10.12,10.12,0,0,1-10.12-10.12V472.56a10.12,10.12,0,0,1,14.92-8.91l86.54,46.64A10.1,10.1,0,0,1,478.68,519.2Z" fill="#92d29f"/><path d="M194.69,520.49c10.1,14.38,8.53,22.31,17.35,26.44,5.75,2.69,16.9,5.16,27.24,10.6a10.13,10.13,0,0,0,14.89-8.92V510a10.13,10.13,0,0,0-10.12-10.13H199a10.12,10.12,0,0,0-7.15,17.28A25,25,0,0,1,194.69,520.49Z" fill="#92d29f"/><path d="M53.77,338.2v10.6A10.13,10.13,0,0,0,63.9,358.92h75.66a10.13,10.13,0,0,0,8.76-15.19c-.46-.8-.88-1.62-1.28-2.43-4.4-9.18-12.85-23.87-28.27-21.3a101.66,101.66,0,0,0-24.17,7.18,10.15,10.15,0,0,1-4.17.9H63.9A10.13,10.13,0,0,0,53.77,338.2Z" fill="#92d29f"/><path d="M232.6,153.25v28.11a10.12,10.12,0,0,0,10.12,10.12H403.46a10.12,10.12,0,0,0,8-16.31c-6.35-8.09-14.68-15.83-22.44-14.17-15.42,3.31-44.8,22.4-55.45,26.44s-30.48,3.3-41.86-6.24-16.16-26.44-27.17-33.42c-6-3.79-14.93-4.66-21.83-4.65A10.12,10.12,0,0,0,232.6,153.25Z" fill="#92d29f"/><path d="M457.69,116.94V84.46a10.13,10.13,0,0,1,10.13-10.12h36.67a10.12,10.12,0,0,1,10.12,10.12V156c0,.17,0,.35,0,.52.08,1.54.37,9.78-3,10.77-3.67,1.11-15.05-1.83-20.93-17.62s-18.36-18.73-24.6-20.2S458.06,125,457.69,116.94Z" fill="#92d29f"/><path d="M117.3,166v10.24a10.12,10.12,0,0,1-10.12,10.12H85.92A10.12,10.12,0,0,0,75.8,196.46v47a10.12,10.12,0,0,1-10.12,10.12h-31A10.12,10.12,0,0,1,24.6,243.42V166a10.12,10.12,0,0,1,10.12-10.12h72.46A10.12,10.12,0,0,1,117.3,166Z" fill="#92d29f"/><path d="M560,41.84c4.91-3.72,9.16-7,12.82-9.76a3.31,3.31,0,0,0,.64-4.6h0a3.31,3.31,0,0,0-4.68-.66c-14.12,10.86-32.56,24.7-46.46,35H452.74V28.07a3.31,3.31,0,0,0-3.31-3.3h-2.2a3.31,3.31,0,0,0-3.31,3.3v16H391.21v-16a3.3,3.3,0,0,0-3.3-3.3h0a3.31,3.31,0,0,0-3.31,3.3v16h-123v-16a3.31,3.31,0,0,0-3.31-3.3h0a3.3,3.3,0,0,0-3.3,3.3V47.35a3.31,3.31,0,0,0,3.3,3.31h22.26V75.44H133.27V28.07a3.3,3.3,0,0,0-3.3-3.3h-2.21a3.3,3.3,0,0,0-3.3,3.3V97.48H27.9a3.3,3.3,0,0,0-3.3,3.3V103a3.31,3.31,0,0,0,3.3,3.31h96.56v37.87H27.9a3.31,3.31,0,0,0-3.3,3.31h0a3.3,3.3,0,0,0,3.3,3.3h96.56v41.67H87.12a3.31,3.31,0,0,0-3.31,3.31v65.31H27.9a3.31,3.31,0,0,0-3.3,3.31v2.2a3.31,3.31,0,0,0,3.3,3.31H83.81V316.7H44.34A3.31,3.31,0,0,0,41,320v45.15H27.9a3.31,3.31,0,0,0-3.3,3.31v2.2A3.31,3.31,0,0,0,27.9,374h59v45.09a3.32,3.32,0,0,0,1.61,2.83l64.62,38.82v26.69H27.9a3.3,3.3,0,0,0-3.3,3.3h0A3.31,3.31,0,0,0,27.9,494H60.55v78.25a3.3,3.3,0,0,0,3.3,3.3h0a3.3,3.3,0,0,0,3.3-3.3V555.51h94.71v16.76a3.3,3.3,0,0,0,3.3,3.3h0a3.31,3.31,0,0,0,3.31-3.3V552.21a3.32,3.32,0,0,0-3.31-3.31h-98V494H261.33v78.25a3.31,3.31,0,0,0,3.31,3.3h0a3.3,3.3,0,0,0,3.3-3.3V543.62h91.9v28.65a3.3,3.3,0,0,0,3.3,3.3h0a3.31,3.31,0,0,0,3.31-3.3V445.35l118.05,64.9v62a3.3,3.3,0,0,0,3.3,3.3H490a3.31,3.31,0,0,0,3.31-3.3V433H531v45.9a3.31,3.31,0,0,0,3.31,3.31H572.1a3.31,3.31,0,0,0,3.3-3.31h0a3.3,3.3,0,0,0-3.3-3.3H537.58V374H572.1a3.31,3.31,0,0,0,3.3-3.31h0a3.3,3.3,0,0,0-3.3-3.3H493.31V269.88H571a4.41,4.41,0,0,0,4.41-4.41h0a4.41,4.41,0,0,0-4.41-4.41H452.74V68.45h67.37v96.32a3.31,3.31,0,0,0,3.31,3.31h0a3.31,3.31,0,0,0,3.3-3.31v-51H572.1a3.31,3.31,0,0,0,3.3-3.31h0a3.3,3.3,0,0,0-3.3-3.3H526.72V66.8C531.1,63.55,545.62,52.73,560,41.84ZM493.31,374H531v52.38H493.31ZM391.21,50.66h52.71V75.44H391.21Zm-104,0H384.6V75.44H287.17Zm-95.24,33.6H299.75V128h6.61V84.26H443.92V196.82H227.48V147.47a3.31,3.31,0,0,0-3.3-3.31H191.93Zm252,119.17v57.63H352.38V203.43Zm-98.15,0v57.63H227.48V203.43ZM133.27,84.26h52v59.9h-52Zm0,66.51h87.6V261.06h-87.6ZM90.42,199.05h34v62h-34ZM47.65,365.16V323.31H87.12a3.3,3.3,0,0,0,3.3-3.3V269.88H330.48v81.33H311.92a4.4,4.4,0,0,0-4.41,4.4v47.28l-67.65-37.17a4.25,4.25,0,0,0-2.12-.56ZM153.1,453,93.48,417.19V374H153.1Zm136.79,84H267.94V494h21.95Zm69.95,0H296.5V494h63.34Zm0-49.6H159.71V374h76.9l123.23,67.73Zm34.84-36.6-78.35-43.07V360h78.35Zm0-99.6H337.09V269.88h57.59Zm89.82,149-83.21-45.74V360H484.5Zm0-230.31v81.33H401.29V269.88Z" fill="#ffe882"/><ellipse cx="177.27" cy="190.27" rx="16.57" ry="2.67" fill="#202020" opacity="0.15" style="mix-blend-mode:multiply"/><path d="M199,141.76c0,11.44-19.76,45.62-21.6,48.76l-.13.23s-21.72-37-21.72-49a21.73,21.73,0,1,1,43.45,0Z" fill="#e45252"/><path d="M199,141.76c0,11.44-19.76,45.62-21.6,48.76l-.13-.25V120A21.73,21.73,0,0,1,199,141.76Z" fill="#b43c3d"/><circle cx="177.27" cy="141.76" r="16.41" fill="#f6f6f6"/><polygon points="177.27 131.67 180.18 137.57 186.69 138.51 181.98 143.1 183.09 149.59 177.27 146.53 171.45 149.59 172.56 143.1 167.85 138.51 174.36 137.57 177.27 131.67" fill="#e45252"/><ellipse cx="70.42" cy="291.75" rx="16.57" ry="2.67" fill="#202020" opacity="0.15" style="mix-blend-mode:multiply"/><path d="M92.14,243.23c0,11.45-19.75,45.63-21.6,48.77a2.37,2.37,0,0,1-.12.23s-21.72-37-21.72-49a21.72,21.72,0,0,1,43.44,0Z" fill="#e45252"/><path d="M92.14,243.23c0,11.45-19.75,45.63-21.6,48.77l-.12-.25V221.51A21.71,21.71,0,0,1,92.14,243.23Z" fill="#b43c3d"/><circle cx="70.42" cy="243.23" r="16.41" fill="#f6f6f6"/><polygon points="70.42 233.15 73.33 239.05 79.84 239.99 75.13 244.59 76.24 251.07 70.42 248.01 64.6 251.07 65.71 244.59 61 239.99 67.51 239.05 70.42 233.15" fill="#e45252"/><ellipse cx="423.46" cy="298.62" rx="16.57" ry="2.67" fill="#202020" opacity="0.15" style="mix-blend-mode:multiply"/><path d="M445.18,250.11c0,11.44-19.75,45.62-21.6,48.76a2.37,2.37,0,0,1-.12.23s-21.72-37-21.72-49a21.72,21.72,0,1,1,43.44,0Z" fill="#e45252"/><path d="M445.18,250.11c0,11.44-19.75,45.62-21.6,48.76l-.12-.25V228.38A21.72,21.72,0,0,1,445.18,250.11Z" fill="#b43c3d" opacity="0.5" style="mix-blend-mode:multiply"/><circle cx="423.46" cy="250.11" r="16.41" transform="translate(108.47 627.8) rotate(-80.74)" fill="#f6f6f6"/><polygon points="423.46 241.02 413.43 248.93 415.57 248.93 415.57 259.19 421.05 259.19 421.05 251.4 425.87 251.4 425.87 259.19 431.35 259.19 431.35 248.93 433.48 248.93 423.46 241.02" fill="#e45252"/><ellipse cx="142.36" cy="433.74" rx="16.57" ry="2.67" fill="#202020" opacity="0.15" style="mix-blend-mode:multiply"/><path d="M164.08,385.23c0,11.44-19.75,45.62-21.59,48.76a1.91,1.91,0,0,1-.13.23s-21.72-37-21.72-49a21.72,21.72,0,1,1,43.44,0Z" fill="#e45252"/><path d="M164.08,385.23c0,11.44-19.75,45.62-21.59,48.76l-.13-.25V363.5A21.72,21.72,0,0,1,164.08,385.23Z" fill="#b43c3d" opacity="0.5" style="mix-blend-mode:multiply"/><circle cx="142.36" cy="385.23" r="16.41" transform="translate(-260.75 463.74) rotate(-80.74)" fill="#f6f6f6"/><polygon points="142.36 376.14 132.34 384.05 134.47 384.05 134.47 394.31 139.95 394.31 139.95 386.52 144.78 386.52 144.78 394.31 150.25 394.31 150.25 384.05 152.39 384.05 142.36 376.14" fill="#e45252"/><ellipse cx="233.47" cy="448.44" rx="16.57" ry="2.67" fill="#202020" opacity="0.15" style="mix-blend-mode:multiply"/><path d="M255.19,399.92c0,11.44-19.75,45.63-21.59,48.77l-.13.23s-21.72-37-21.72-49a21.72,21.72,0,1,1,43.44,0Z" fill="#e45252"/><path d="M255.19,399.92c0,11.44-19.75,45.63-21.59,48.77l-.13-.25V378.2A21.71,21.71,0,0,1,255.19,399.92Z" fill="#b43c3d"/><circle cx="233.47" cy="399.92" r="16.41" transform="translate(-198.68 566.32) rotate(-80.78)" fill="#f6f6f6"/><path d="M237.91,390.84c.27,0,.56,0,.88,0,1.89.19,4.08,1.92,4.35,5.25v1.1c-.24,3.08-2.5,6.86-9,11.57a1.08,1.08,0,0,1-1.28,0c-6.52-4.71-8.78-8.49-9-11.57v-1.1c.26-3.33,2.45-5.06,4.35-5.25.31,0,.6,0,.87,0,2.19,0,3.24,1,4.44,2.38,1.2-1.43,2.25-2.38,4.44-2.38" fill="#e45252"/><ellipse cx="500.06" cy="103.64" rx="16.57" ry="2.67" fill="#202020" opacity="0.15" style="mix-blend-mode:multiply"/><path d="M521.78,55.12c0,11.44-19.75,45.63-21.6,48.77a2.37,2.37,0,0,1-.12.23s-21.72-37-21.72-49a21.72,21.72,0,1,1,43.44,0Z" fill="#e45252"/><path d="M521.78,55.12c0,11.44-19.75,45.63-21.6,48.77l-.12-.25V33.4A21.71,21.71,0,0,1,521.78,55.12Z" fill="#b43c3d"/><circle cx="500.06" cy="55.12" r="16.41" transform="translate(365.55 539.89) rotate(-80.78)" fill="#f6f6f6"/><path d="M504.5,46c.27,0,.56,0,.87,0,1.9.19,4.09,1.92,4.35,5.25v1.1c-.24,3.08-2.5,6.86-9,11.57a1.11,1.11,0,0,1-1.28,0c-6.53-4.71-8.79-8.49-9-11.57v-1.1c.27-3.33,2.46-5.06,4.35-5.25.31,0,.61,0,.88,0,2.19,0,3.24.94,4.44,2.38C501.26,47,502.31,46,504.5,46" fill="#e45252"/></g></g></svg>