<svg xmlns="http://www.w3.org/2000/svg" viewBox="0 0 530.05 600"><g style="isolation:isolate"><g id="Ebene_1" data-name="Ebene 1"><path d="M522.87,501.34h-5.61a1.61,1.61,0,0,1-1.61-1.61V440.2a1.61,1.61,0,0,0-1.61-1.61H476.77a1.61,1.61,0,0,1-1.61-1.61v-5.61a1.61,1.61,0,0,1,1.61-1.61h46.1a1.61,1.61,0,0,1,1.61,1.61v68.36A1.61,1.61,0,0,1,522.87,501.34Z" transform="translate(-34.97 0)" fill="#245e66"/><path d="M478.16,468.22H395.7V309.05a2.42,2.42,0,0,1,2.43-2.42h77.6a2.42,2.42,0,0,1,2.43,2.42Z" transform="translate(-34.97 0)" fill="#1f7984"/><path d="M395.7,468.22h-117V279.39a30.92,30.92,0,0,1,30.92-30.92h55.21a30.92,30.92,0,0,1,30.92,30.92Z" transform="translate(-34.97 0)" fill="#24899b"/><path d="M395.7,468.22V279.39a30.91,30.91,0,0,0-30.91-30.92H337.18V468.22Z" transform="translate(-34.97 0)" fill="#24899b" opacity="0.2" style="mix-blend-mode:screen"/><rect x="54.48" y="421.1" width="210.55" height="172.27" rx="2.42" fill="#29a4b9"/><rect x="70.13" y="437.3" width="13.25" height="35.34" fill="#33cadd"/><rect x="97.79" y="437.3" width="13.25" height="35.34" fill="#33cadd"/><rect x="125.46" y="437.3" width="13.25" height="35.34" fill="#33cadd"/><rect x="153.12" y="437.29" width="13.25" height="35.34" fill="#33cadd"/><rect x="180.79" y="437.3" width="13.25" height="35.34" fill="#33cadd"/><rect x="208.46" y="437.3" width="13.25" height="35.34" fill="#33cadd"/><rect x="236.13" y="437.3" width="13.25" height="35.34" fill="#33cadd"/><path d="M538.52,593.37H184.42V505.82a16.13,16.13,0,0,1,4.73-11.41l21.46-21.47A16.16,16.16,0,0,1,222,468.22H487.67a16.16,16.16,0,0,1,11.41,4.72l34.72,34.72a16.16,16.16,0,0,1,4.72,11.41Z" transform="translate(-34.97 0)" fill="#245e66"/><path d="M240.37,421.12H112.27c3-11.53,5.44-26.72,7.47-44.08,1.32-11.53,2.47-24,3.44-37,.71-8.79,1.28-17.8,1.81-26.94.71-12.28,1.33-24.74,1.82-37,.39-10.64.74-21.11,1.06-31.27.35-13,.61-25.49.83-37,.39-23.08.47-42,.49-53.19a4.23,4.23,0,0,1,4.24-4.23h85.78a4.23,4.23,0,0,1,4.24,4.23c0,11.15.1,30.11.49,53.19.22,11.48.48,23.94.83,37,.31,10.16.67,20.63,1.06,31.27.49,12.28,1.11,24.74,1.82,37,.53,9.14,1.1,18.15,1.81,26.94,1,13,2.12,25.49,3.44,37C234.93,394.4,237.36,409.59,240.37,421.12Z" transform="translate(-34.97 0)" fill="#29a4b9"/><path d="M240.37,421.12c-3-11.53-5.44-26.72-7.47-44.08-1.32-11.53-2.47-24-3.44-37-.71-8.79-1.28-17.8-1.81-26.94-.71-12.28-1.33-24.74-1.82-37-.39-10.64-.75-21.11-1.06-31.27-.35-13-.61-25.49-.83-37-.45-26.33-.49-47.31-.49-57.42H176.32V421.12Z" transform="translate(-34.97 0)" fill="#a076ff" opacity="0.2" style="mix-blend-mode:screen"/><rect x="82.46" y="159.21" width="117.79" height="8.83" rx="1.59" fill="#1f7984"/><rect x="235.03" y="275.16" width="134.35" height="8.83" rx="1.59" fill="#245e66"/><rect x="467.84" y="534.85" width="21.72" height="58.53" fill="#245e66"/><rect x="235.03" y="333.13" width="134.35" height="8.83" rx="1.59" fill="#245e66"/><path d="M224.77,244.79h-96.9c.35-13,.61-25.49.83-37h95.24C224.16,219.3,224.42,231.76,224.77,244.79Z" transform="translate(-34.97 0)" fill="#33cadd"/><path d="M227.65,313.08H125c.71-12.28,1.33-24.74,1.82-37h99C226.32,288.34,226.94,300.8,227.65,313.08Z" transform="translate(-34.97 0)" fill="#33cadd"/><path d="M232.9,377H119.74c1.32-11.53,2.47-24,3.44-37H229.46C230.43,353,231.58,365.51,232.9,377Z" transform="translate(-34.97 0)" fill="#33cadd"/><rect x="235.03" y="399.94" width="134.35" height="8.83" rx="1.59" fill="#245e66"/><path d="M423.21,468.22H405.37a2.12,2.12,0,0,1-2.12-2.12v-42a2.13,2.13,0,0,0-2.13-2.13H336.35a2.12,2.12,0,0,1-2.12-2.12V375a2.12,2.12,0,0,0-2.12-2.12H232.43l-2.12-22.08H354.2a2.12,2.12,0,0,1,2.12,2.12v44.93a2.12,2.12,0,0,0,2.12,2.12h64.77a2.12,2.12,0,0,1,2.12,2.12v64A2.12,2.12,0,0,1,423.21,468.22Z" transform="translate(-34.97 0)" fill="#245e66"/><rect x="183.31" y="482.21" width="92.36" height="13.25" fill="#245e66"/><path d="M147.06,593.37h-8.84V548.53a2.28,2.28,0,0,1,2.28-2.28h43.92v8.84H149.33a2.27,2.27,0,0,0-2.27,2.27Z" transform="translate(-34.97 0)" fill="#245e66"/><path d="M89.45,459,65,481.3a14.18,14.18,0,0,0-4.64,10.5V591a2.42,2.42,0,0,0,2.43,2.42H87A2.42,2.42,0,0,0,89.45,591Z" transform="translate(-34.97 0)" fill="#24899b"/><rect y="586.74" width="530.05" height="13.26" rx="6.63" fill="#245e66"/><rect x="70.13" y="489.57" width="13.25" height="35.33" fill="#33cadd"/><rect x="97.79" y="489.57" width="13.25" height="35.33" fill="#33cadd"/><rect x="125.46" y="489.57" width="13.25" height="35.33" fill="#33cadd"/><rect x="181.98" y="542.39" width="28.71" height="28.72" fill="#1f7984"/><rect x="222.54" y="542.39" width="28.71" height="28.72" fill="#1f7984"/><rect x="263.09" y="542.39" width="28.71" height="28.72" fill="#1f7984"/><rect x="303.65" y="542.39" width="28.71" height="28.72" fill="#1f7984"/><rect x="344.2" y="542.39" width="28.71" height="28.72" fill="#1f7984"/><rect x="384.76" y="542.39" width="28.71" height="28.72" fill="#1f7984"/><rect x="425.31" y="542.39" width="28.71" height="28.72" fill="#1f7984"/><rect x="379.32" y="319.62" width="17.67" height="57.42" fill="#33cadd"/><rect x="413.08" y="319.62" width="17.67" height="57.42" fill="#33cadd"/><rect x="413.08" y="397.54" width="17.67" height="57.42" fill="#33cadd"/><rect x="361.66" y="482.21" width="92.36" height="13.25" fill="#245e66"/><rect x="287.83" y="482.21" width="59.65" height="13.25" fill="#245e66"/><rect x="183.31" y="512.57" width="92.36" height="13.26" fill="#245e66"/><rect x="361.66" y="512.57" width="92.36" height="13.26" fill="#245e66"/><rect x="287.83" y="512.57" width="59.65" height="13.26" fill="#245e66"/><path d="M456.89,306.63H428.76l.66-22.66c.44-15.06.88-30.17,1.32-45.23.23-8.53.49-17.1.71-25.62.44-15.11.88-30.17,1.32-45.28.16-6,.37-12,.54-18.05a1.82,1.82,0,0,1,1.82-1.78h15.4a1.83,1.83,0,0,1,1.82,1.78c.17,6,.36,12,.52,18.05.44,15.11.88,30.17,1.33,45.28.22,8.52.49,17.09.71,25.62.44,15.06.88,30.17,1.32,45.23Z" transform="translate(-34.97 0)" fill="#24899b"/><path d="M454.2,213.12H431.45c.44-15.11.88-30.17,1.32-45.28h20.1C453.31,183,453.75,198,454.2,213.12Z" transform="translate(-34.97 0)" fill="#29a4b9"/><path d="M456.23,284H429.42c.44-15.06.88-30.17,1.32-45.23h24.17C455.35,253.8,455.79,268.91,456.23,284Z" transform="translate(-34.97 0)" fill="#29a4b9"/><path d="M451.34,124.09c-6-6.64,1.81-15.09,9.46-12.27-6-8-2.22-22.94,12.07-19.32-2.41-15.89,26-24.54,32.4-7.44,7.84-10.26,22.13,1.41,17.9,8.45,11.47,0,9.46,23.54-8.45,21.53,2.21,3.82-3.82,7.44-7.44,3.22,6.64,9.66-7.85,27-20.12,13.48-1.82,7.65-17.91,3.62-14.89-8.25-4.43,6.84-8.86,2-8.86,1s1.41,5-4.42,3.82C453.55,142.81,441.68,125.5,451.34,124.09Z" transform="translate(-34.97 0)" fill="gray"/><path d="M185.61,108.46C172.08,93.58,189.67,74.64,206.8,81c-13.52-18-5-51.41,27.06-43.29C228.45,2,292-17.36,306.47,21c17.59-23,49.6,3.16,40.13,18.94,25.71,0,21.2,52.77-18.94,48.26,5,8.57-8.56,16.68-16.68,7.21,14.88,21.65-17.59,60.43-45.1,30.22-4.06,17.13-40.14,8.12-33.37-18.49-9.92,15.33-19.85,4.51-19.85,2.25s3.17,11.28-9.91,8.57C190.57,150.4,164,111.62,185.61,108.46Z" transform="translate(-34.97 0)" fill="gray"/></g></g></svg>