<svg id="Ebene_1" data-name="Ebene 1" xmlns="http://www.w3.org/2000/svg" viewBox="0 0 527.85 600"><path d="M422.49,166.93c-16.36,21.27-47.06,13.92-56.63-7.75a1.8,1.8,0,0,0-3.44.58c-2.29,26.91-2.62,53.81-5.33,80.72a1.81,1.81,0,0,1-1.76,1.63c-6.12.11-12.34.19-18.58.17-18.16,0-36.67-.86-54.29-4.3a150.77,150.77,0,0,1-15-3.66,1.79,1.79,0,0,1-1.28-1.77,590.28,590.28,0,0,0-5.17-93.3,1.81,1.81,0,0,0-3-1.07c-16.43,15.57-46.11,16.25-64.33,2.65-5.53-4.13-10.3-9.76-11.65-16.52a17.25,17.25,0,0,1,3.42-14.23,1.8,1.8,0,0,0-1.3-2.94c-11.54-.84-22.26-11.35-22-23.16.26-13,13.64-23.84,26.34-22.11a1.81,1.81,0,0,0,2.09-1.77C190.27,30.16,213,4.41,242.9.48c29-3.84,59,15.92,67.83,43.6a1.78,1.78,0,0,0,3.29.31c8.63-16.52,29.64-27.79,46.86-21.16C378.42,30,388.54,51.35,383.53,69.3a1.8,1.8,0,0,0,2.31,2.2c12-3.83,27.63,1.68,34.74,12,7.52,10.93,5.94,27.09-3.28,36.52a1.79,1.79,0,0,0,0,2.52C422.22,127.54,438.3,146.38,422.49,166.93Z" transform="translate(-33.36 0)" fill="#ccc"/><path d="M360.15,152.5c-.94,3.59-.79,6.44-2.66,9.81-.42.76-.83,1.55-1.23,2.33l-11.15,45.91c.61-4.57,1.23-9.29,2-14.06-3.22,15.29-5.9,30.67-10.32,45.79-18.16,0-36.67-.86-54.29-4.3A85.3,85.3,0,0,1,274,214.55c-3.24-15.45-1.89-30.49-1.3-46.17.37-10,2-20.23-1-30.08-3-10-4.67-26.4,8.87-15.09,5.24,4.37,10.47,13.37,12,19.46,1.45,5.85-.34,10.94,1.58,16.52a16.74,16.74,0,0,0,1.94,3.88,5,5,0,0,0,5.4-2.7c.94-1.8.82-3.86.67-5.83q-1.26-18.14-2.51-36.3a93.88,93.88,0,0,1,0-14.23c.49-6.24,6.21-3.39,8.18.35s2.36,7.86,3.37,11.7c1.67,6.19,3.29,12.53,6.53,18.3,2.39,4.26,4.5,13.3,11.68,7.43a12,12,0,0,0,3.73-6.54c1.11-4.18,1.18-8.53,2-12.76s2.66-8.55,6.42-11.33c6.95-5.16,8.4,8.83,8.18,12.66-.47,8-1.1,16.71-4.15,24.28-1,2.36-2.66,4.3-2.14,7,.66,3.49,4.5,5.4,5.5.91a32.88,32.88,0,0,1,3.37-8.75,5.35,5.35,0,0,1,2.51-2.61,4.47,4.47,0,0,1,5.26,2.24C360.93,148.64,360.61,150.63,360.15,152.5Z" transform="translate(-33.36 0)" fill="gray"/><path d="M231.21,56.86A300.8,300.8,0,0,0,279,61.28c5.25.07,11.06-.22,14.84-3.86,6.08-5.87,3-16.27-2-23.11-13.06-18-37-27.42-58.84-23.12-8.18,1.62-16.31,5.24-21.5,11.77s-6.69,16.39-2,23.32S223,55.44,231.21,56.86Z" transform="translate(-33.36 0)" fill="#e6e6e6"/><path d="M327.44,50.19c1.75,2.4,5,3.07,7.95,3.35,5.7.52,11.82.12,16.52-3.14C382.54,29.17,310.13,26.42,327.44,50.19Z" transform="translate(-33.36 0)" fill="#e6e6e6"/><path d="M278.27,162.73a6.94,6.94,0,0,1,4.42,2.6c3.95,5,7.13,13.79,8.15,20,.37,2.25.69,4.81,2.54,6.15,8.81,6.37,7.61-13.16,7.78-17.19.7-16.54.95-31.86,10.66-46.25a23.09,23.09,0,0,1,7.24-7.41c3-1.74,6.92-2.26,10-.6,3.8,2.07,5.31,6.92,4.92,11.23s-2.28,8.31-3.73,12.39c-3.42,9.67-8,58.85,14.25,48.36a11.11,11.11,0,0,0,6.14-10.9,32.68,32.68,0,0,0-1.89-6.58,10.86,10.86,0,0,1-.44-6.72c.73-2.16,3-3.94,5.24-3.39a6.28,6.28,0,0,1,3.1,2.28c6.45,7.59,3.22,26.55,13.69,30.7,6,2.4,10.67-4.56,15.82-6.2,5.75-1.81,9.74,4,8.05,9.44-1,3.25-5,6.52-7.41,8.78-6.44,6.07-14.81,9.32-22.4,13.61-16.74,9.46-36.3,12.49-55.32,11.4-12.93-.74-25.84-2.54-37.82-7.67-9.93-4.25-10.59-16-21.37-20.36-2.68-1.08-5.55-1.68-8.08-3.09-10.86-6,0-14.05,7.26-15.91,3.87-1,7-.22,10.61,1.43a21.42,21.42,0,0,1,5.32,3.26c2.1,2,6.26,12.38,9.51,5.06,2-4.61-.31-9.88-2.71-14.32s-5-9.52-3.29-14.28A9.17,9.17,0,0,1,278.27,162.73Z" transform="translate(-33.36 0)" fill="#ffe882"/><path d="M282.4,207.33c.56-.67.34-2.56-1.06-6.91-1.16-3.59-3.06-9.73,2.48-9.24,3.12.28,5.91,5.89,8.21,7.69,2.7,2.12,9.44,7.59,13.29,5.94,11.84-5.06.91-26.41,6.57-35,6.08-9.22,6.57,3.83,7,8.53.57,5.7.06,17.42,3.87,22.12,5.09,6.29,16.51,3.62,21-2.18,2.19-2.85,4-7.13,7.55-7,2.48.11,4.28,2.64,4.48,5.11.22,2.68-4,7.69-3.57,9.26,1.57,5.33,14.57,0,17.81-.79a6.47,6.47,0,0,1,3.48-.19c2.46.8,3,4.33,1.64,6.53-1.9,3.08-6.69,4.92-10,6.11a181.78,181.78,0,0,1-72.68,10.57c-3.13-.18-6.35-.48-9.16-1.87-3.84-1.91-3.42-5.38-6-7.75-2.35-2.19-6.6-2.11-8.39-4.69a4.61,4.61,0,0,1,.79-6C275.08,203.41,281,208.92,282.4,207.33Z" transform="translate(-33.36 0)" fill="#e1c750"/><path d="M550.61,465.62c-20.18,1.48-40.48.05-60.9,1.28-39.37,2.41-79.13,4.3-119,5.55-3.49.12-7,.22-10.49.32q-46.41,1.37-93,1.52-19.1.07-38.22-.12-12.49-.1-25-.32c-5-.1-9.9-.19-14.87-.32-41.31-.91-82.42-2.73-123-5.55q-10.29-.71-20.5-1.5l74.59-72.2c4.72-4.55,9.61-9.22,15.7-11.55s13.86-1.75,18.19,3.17c25-44.58,53.35-91,83.11-132.59,7.16-10,14.95-20.3,26.18-25.29,8.94-4,19-4.05,28.77-4.1q38.87-.18,77.66-.35c27.8,25.86,29.64,77.47,62.16,97.08,6.19,3.73,13.27,6,19.07,10.29,9.58,7.11,14.35,18.78,19.39,29.59C488.92,400.15,516.57,438.22,550.61,465.62Z" transform="translate(-33.36 0)" fill="#754c24"/><path d="M388.76,303.32c-12.33,43.26-22.37,111.61-28,164.39a5.83,5.83,0,0,1-5.64,5.2q-10.27.29-20.55.52-25.37.6-50.77.77l-11.41.07a5.83,5.83,0,0,1-5.81-5.06C260,420.1,252.12,360.78,245,315.05a5.82,5.82,0,0,1,4.71-6.62l.15,0a5.84,5.84,0,0,0,4.72-6.66c-1.4-8.65-3.64-16.87-5-25.51a5.83,5.83,0,0,1,5-6.71l42.4-5.85a5.82,5.82,0,0,0,4.71-3.88c1.34-3.86,3.77-8,5.26-11.92a5.82,5.82,0,0,1,6-3.72,206.47,206.47,0,0,0,41.07.07,5.83,5.83,0,0,1,6.34,4.9q3,19,5.87,38c.35,2.24.74,4.6,2.19,6.34,3.34,4,9.46,2.38,14.9,2.42A5.8,5.8,0,0,1,388.76,303.32Z" transform="translate(-33.36 0)" fill="#58391b"/><path d="M300.61,411.35q.31,2,.6,4a3.21,3.21,0,0,0,6,1.09l.12-.23a3.22,3.22,0,0,1,6.07,1.24A425.37,425.37,0,0,0,320.5,471a3.23,3.23,0,0,0,3.23,2.6l7.62-.14a3.21,3.21,0,0,0,3.16-3.25c-.38-36.29-1.79-79.12-.68-105.78a3.24,3.24,0,0,0-3.82-3.31l-11.68,2.21a3.22,3.22,0,0,1-3.82-3.23,121.89,121.89,0,0,0-2.1-25.43,3.24,3.24,0,0,0-3.78-2.58q-17.07,3.25-34.15,6.48a3.22,3.22,0,0,0-2.59,3.56c4.53,35.94,7.5,88.29,11.58,129.11a3.22,3.22,0,0,0,3.24,2.89l7.15-.08a3.2,3.2,0,0,0,3.16-3.42q-1.8-29.32-2.82-58.71C294.06,407.93,300,407.37,300.61,411.35Z" transform="translate(-33.36 0)" fill="#754c24"/><path d="M204.56,467.7a194.63,194.63,0,0,0-18.68-96.92,5.86,5.86,0,0,1,.28-5.64q16.62-26.83,33.22-53.63a5.83,5.83,0,0,1,10.78,2.92c1.36,51.33,3.53,103.32-.68,154.36a5.82,5.82,0,0,1-5.87,5.33q-6.68-.08-13.34-.17A5.82,5.82,0,0,1,204.56,467.7Z" transform="translate(-33.36 0)" fill="#58391b"/><path d="M182.73,473.38q-51.87-1.26-103.1-4.5A5.83,5.83,0,0,1,76,458.79q28-26.07,56.07-52.2a5.8,5.8,0,0,1,5.2-1.43,121.35,121.35,0,0,0,20.8,3,5.84,5.84,0,0,1,5.58,5.73c0,1.39,0,2.78.07,4.17a5.81,5.81,0,0,0,5.73,5.72c3.8,0,7.67.27,11.47.31a5.85,5.85,0,0,1,5.77,5.72c.38,12.43,1.06,24.86,2,37.27A5.84,5.84,0,0,1,182.73,473.38Z" transform="translate(-33.36 0)" fill="#58391b"/><path d="M486.89,459.48Q479,438.75,471.12,418a5.68,5.68,0,0,0-2.42-2.91,22,22,0,0,0-8.94-2.88,5.88,5.88,0,0,1-5.35-6.48q1.81-15.66,3.61-31.32a5.88,5.88,0,0,0-3.74-6.12A87.89,87.89,0,0,1,419.88,344a5.82,5.82,0,0,0-9.88,1.91q-20.75,58.76-37.24,118.89a5.83,5.83,0,0,0,5.82,7.36l9.39-.33a5.86,5.86,0,0,0,5.51-4.7q3.43-17,8.38-33.7c2-6.65,11.81-5,11.42,2q-.84,14.55-1.65,29.1a5.84,5.84,0,0,0,6.08,6.16q32.16-1.41,64.08-3.3A5.84,5.84,0,0,0,486.89,459.48Z" transform="translate(-33.36 0)" fill="#58391b"/><path d="M371.1,262.43c.3-3,2-5.74,7.82-8.88,7.83-4.25,10.33-15.18,6.85-23.38S374.18,216.46,365.64,214s-17.61-2.46-26.52-2.38l-52.3.46c-10,.09-20.71.43-28.64,6.47-4.19,3.18-8.38,12.83-6.55,18.28,3.18,9.46,14.37,5.58,22,5.36-2.22,9,4.9,17.57,13.67,19.23s17.75-2,26-5.53a359,359,0,0,0,1.28,71.28c.78,6.6,1.88,13.5,5.93,18.77s12,8.1,17.55,4.41c5.29-3.53,6-10.89,6.2-17.25q.78-25.79,1.57-51.58c.13-4.53,1.62-19.25,10.24-14,2.92,1.77,4.31,5.18,6.25,8s5.43,5.33,8.56,4C373.45,271.86,370.67,266.89,371.1,262.43Z" transform="translate(-33.36 0)" fill="#f2784b"/><path d="M324,338.36c.55,1.79,1.36,3.81,3,4.33,3,1,4.6-3.81,4.68-7.33.25-11.38,1.19-22.7.38-34.1-.42-5.93-1.14-12.07-3.18-17.63-1.13-3.1-4.86-12-8.38-11.28-4.57.92-3.12,15.8-3.16,19.6A152.25,152.25,0,0,0,324,338.36Z" transform="translate(-33.36 0)" fill="#ff8864"/><path d="M367.92,234.12c2.46,1.57,5.33,3.51,8,2.42,2.94-1.18,3.47-5.45,1.78-8.13s-4.76-4.1-7.71-5.27a129.5,129.5,0,0,0-44.15-8.95c-11.57-.31-31.59-.79-42,4.85-1.76,1-3,3.09-2.39,5,2.2,6.92,35.16,3.16,41.1,2.8C338.15,225.9,354.81,225.73,367.92,234.12Z" transform="translate(-33.36 0)" fill="#ff8864"/><path d="M468.76,431.66a18.94,18.94,0,0,0-.63-6.12q-2-9.3-4-18.6a1.3,1.3,0,0,0-2.25-.59,27.62,27.62,0,0,0-6.16,22,12.58,12.58,0,0,0,3,6.87,6.79,6.79,0,0,0,4.36,2,44.09,44.09,0,0,0,2.52,12.54c.52,0,1.57-.24,2.09-.26a50.68,50.68,0,0,1-2.95-12.44,4.59,4.59,0,0,0,.93-.36A6.41,6.41,0,0,0,468.76,431.66Z" transform="translate(-33.36 0)" fill="#50965a"/><path d="M114.55,438.7a7.68,7.68,0,0,0,4.28-3.12c1.93-3.06,1.36-7,.72-10.57-1.8-9.93-6-19.24-6-29.64a1.13,1.13,0,0,0-1.93-.83c-6.18,6.28-9.7,15-11,23.72a26.91,26.91,0,0,0,.39,11.65c1.13,3.74,3.71,7.21,7.36,8.63a9.45,9.45,0,0,0,4,.57,67.89,67.89,0,0,0,3.6,14.93.57.57,0,0,0-.13-.84,5.47,5.47,0,0,0,3.2-.8C117.27,447.75,115.3,443.51,114.55,438.7Z" transform="translate(-33.36 0)" fill="#50965a"/><path d="M102.26,402.75a186.34,186.34,0,0,0-9.82-27.5,3.11,3.11,0,0,0-5.18-.77A67,67,0,0,0,71,425.86c.63,5.33,2.13,11,6.23,14.42a12.35,12.35,0,0,0,8.09,2.86,48.28,48.28,0,0,0,6.82,19.39c2.19.18,4.4.48,6.08-.93A58.55,58.55,0,0,1,90,442.46a20,20,0,0,0,12.28-10.11C106.65,423.27,104.9,412.49,102.26,402.75Z" transform="translate(-33.36 0)" fill="#80ec89"/><path d="M505.66,377.43a2,2,0,0,0-3.33-.82,86.45,86.45,0,0,0-20.94,43.15c-.73,4.33-1.08,9,1,12.9a11.49,11.49,0,0,0,5.37,4.94,1.33,1.33,0,0,1,.71,1.46A77.2,77.2,0,0,0,487,456.81a1.35,1.35,0,0,0,1.2,1.28c.69.09,1.32.24,2,.36A1.34,1.34,0,0,0,491.7,457a96.71,96.71,0,0,1,0-16.76,1.33,1.33,0,0,1,1.42-1.22,14.56,14.56,0,0,0,6.38-.95c6.1-2.45,10.25-8.45,11.9-14.8s1.13-13.08.13-19.57A249.07,249.07,0,0,0,505.66,377.43Z" transform="translate(-33.36 0)" fill="#80ec89"/><path d="M559.28,498.79a36,36,0,0,1-7.82,11.28c-5.75,5.84-13.19,10.43-20.1,14.87-40.59,26.18-85.16,46.78-131.65,59.71q-17.82,5-36,8.4a392.59,392.59,0,0,1-83.91,6.8c-84.26-2.42-170.61-31.18-230.23-90.39-2.48-2.42-4.91-4.93-7.3-7.5-1.35-1.46-4.87-4.31-5.39-6.23-1.59-5.84-3.76-10.08-3.5-20.48.15-5.92,5.53-10.23,11.18-8.46,161.32,50.42,342.43,50.54,503.64-.46a8.6,8.6,0,0,1,10.43,4.57C562.83,480.05,561,494.57,559.28,498.79Z" transform="translate(-33.36 0)" fill="#754c24"/><path d="M553.88,466.5c-63.11,42.5-131.73,70.36-205.55,79.85a445.77,445.77,0,0,1-48.52,3.54q-13.41.25-26.73-.57C190,544.53,109.75,511.11,38.8,467c5.65-1.55,11.33-3.05,17-4.48a977.39,977.39,0,0,1,205.77-29.41q17-.6,34-.64a984,984,0,0,1,153.72,11.77A961.67,961.67,0,0,1,553.88,466.5Z" transform="translate(-33.36 0)" fill="#62be75"/><path d="M449.33,444.24c-121.18,59.35-267.53,67-393.53,18.28A985.35,985.35,0,0,1,449.33,444.24Z" transform="translate(-33.36 0)" fill="#92d29f"/><path d="M348.33,546.35a445.77,445.77,0,0,1-48.52,3.54q-13.41.25-26.73-.57c3.44-3.78,6.8-7.64,10.12-11.55,14-16.51,27.7-36.61,24.23-58-2.23-13.79-11.55-25.63-22.78-33.89a119.47,119.47,0,0,0-23.08-12.8q17-.6,34-.64C330.9,456.06,344.39,500.1,348,541.75,348.08,543.3,348.2,544.85,348.33,546.35Z" transform="translate(-33.36 0)" fill="#a67c52"/><path d="M363.71,593.05a392.59,392.59,0,0,1-83.91,6.8c-84.26-2.42-170.61-31.18-230.23-90.39q1.82-3.37,3.65-6.75a5.26,5.26,0,0,1,7.28-2,449.08,449.08,0,0,0,199.44,59.22,5.26,5.26,0,0,1,4.75,3.8,51.52,51.52,0,0,0,5.8,12.75,5.27,5.27,0,0,0,9-.18l.06-.1a5.23,5.23,0,0,1,5.05-2.6,164.86,164.86,0,0,0,66.71-6.78,5.27,5.27,0,0,1,6.72,3.72Z" transform="translate(-33.36 0)" fill="#58391b"/><path d="M551.46,510.07c-5.75,5.84-13.19,10.43-20.1,14.87-40.59,26.18-85.16,46.78-131.65,59.71q-1.09-14-2.19-28.09a5.24,5.24,0,0,1,3.9-5.48l76.74-20.23a5.26,5.26,0,0,0,3.83-4.92c.29-5.28,6.55-10.17,12-12.84q24-11.81,48.14-23.59a5.27,5.27,0,0,1,7.55,5A66.26,66.26,0,0,0,551.46,510.07Z" transform="translate(-33.36 0)" fill="#58391b"/><path d="M207.72,262.84c-3.77-1.23-28.07-7.16-29.48-3,1.46-4.26-3.26-9.21-7.58-7.94l-7.52,3.55c3.4-6.55,6.85-13.24,8-20.53s-.49-15.41-5.92-20.4c-8.66-7.95-23.64-4.39-31.17,4.63s-9.25,21.5-9.35,33.26a13,13,0,0,0-14.49-6.84c-4.75,1.21-5.24,4.78-8.42,7.37-5.91,4.8-1.41,3.65-10.51,6-13,3.32-28.17,3.85-38.24,13.78,9,2.7,16.44-.69,25.27-1.87,14.18-1.91,29.2-1.23,43.5-1.8,19.62-.79,37.79,2.81,57.29,2.81,5.94,0,30.93,7.1,33.36-1.77C213.27,267,210.72,263.83,207.72,262.84Z" transform="translate(-33.36 0)" fill="#f6f6f6"/><path d="M464.9,303.29a7.63,7.63,0,0,1,10.33-11.05c-2.13-8,1.24-18,8.24-22.46s17.23-3.32,22.67,3c4.82,5.55,5.42,13.59,4.79,20.92,1.67-2.57,6.28-2.51,8.78-.73a5.94,5.94,0,0,1,1.2,8.15c1.49-1.13,3.48-1.41,5.31-1.72a3.53,3.53,0,0,1,4,2.12c.68,1.92-.83,3.8-2.22,5.24a73.63,73.63,0,0,1,19,.32c4.55.67,11.15.61,14.07,4.81-3.1,2-10.92.55-14.72.56l-17.61,0-34.28.08-35.42.07c-5.89,0-11.81.15-17.7,0-2.63,0-7,1.15-9.16-.51,4.31-3.45,11.18-3.83,16.42-4.56C454.13,306.78,459.26,304.15,464.9,303.29Z" transform="translate(-33.36 0)" fill="#f6f6f6"/></svg>