<svg id="Ebene_1" data-name="Ebene 1" xmlns="http://www.w3.org/2000/svg" viewBox="0 0 579.06 600"><path d="M300.1,460.25c-159.91,0-289.53-75.5-289.53-39.42S37.05,590.9,300.1,590.9c257.75,0,289.53-134,289.53-170.07S460,460.25,300.1,460.25Z" transform="translate(-10.57 0.33)" style="fill:#270056"/><path d="M300.1,469c-159.91,0-289.53-75.5-289.53-39.42S37.05,599.67,300.1,599.67c257.75,0,289.53-134,289.53-170.07S460,469,300.1,469Z" transform="translate(-10.57 0.33)" style="fill:#bc5b3c"/><path d="M300.1,460.25c-159.91,0-289.53-75.5-289.53-39.42S37.05,590.9,300.1,590.9c257.75,0,289.53-134,289.53-170.07S460,460.25,300.1,460.25Z" transform="translate(-10.57 0.33)" style="fill:#ff8864"/><path d="M300.32,465.18c-141.52,0-259.25-65-284.47-52.45,15.44,58.11,74.74,151.78,284.47,151.78,205.81,0,267.5-93.94,284-152C558.14,401,441,465.18,300.32,465.18Z" transform="translate(-10.57 0.33)" style="fill:#f2784b"/><path d="M300.1,55.37s-232.71-2.47-232.71,0c0,0,55.52,245.2,55.52,299.15,0,49.19-.22,128.77-.22,129.43,0,22.65,79.31,41,177.13,41,96.59,0,175.06-17.9,177-40.15,0-2.12.44-76.32.44-130.28S532.8,55.37,532.8,55.37C532.8,52.9,300.1,55.37,300.1,55.37Z" transform="translate(-10.57 0.33)" style="fill:#f2784b"/><path d="M116.38,90,222.47,108s22.69,186.87,26.27,243.16c1.93,30.29,0,65.3,0,65.3l-86.19-9.11s-1.25-31.19-1.25-56.19S116.38,90,116.38,90Z" transform="translate(-10.57 0.33)" style="fill:#e6e6e6"/><path d="M477.28,90,371.18,108c.43-5.15-21.19,188-23.34,244.39-1.16,30.33-2.92,64.07-2.92,64.07l86.19-9.11s1.24-31.19,1.24-56.19S477.28,90,477.28,90Z" transform="translate(-10.57 0.33)" style="fill:#f6f6f6"/><path d="M300.1,382.72c-72.57,0-135.22-7.45-177.2-19.21,0,49.3-.21,119.82-.21,120.44,0,22.65,79.31,41,177.13,41,96.59,0,175.06-17.9,177-40.15,0-2,.39-68.44.43-121.29C435.3,375.27,372.65,382.72,300.1,382.72Z" transform="translate(-10.57 0.33)" style="fill:#bc5b3c"/><polygon points="289.42 395.61 306.02 429.25 343.15 434.64 316.29 460.83 322.63 497.8 289.42 480.34 256.22 497.8 262.56 460.83 235.7 434.64 272.82 429.25 289.42 395.61" style="fill:#e5ebea"/><polygon points="168.89 389.06 177.9 423.28 208.73 433.5 181.82 454.67 181.57 490.64 155.93 469.5 124.95 481.51 136.01 447.29 117.11 418.74 149.59 418.72 168.89 389.06" style="fill:#e5ebea"/><polygon points="406.15 389.06 397.14 423.28 366.31 433.5 393.22 454.67 393.46 490.64 419.11 469.5 450.09 481.51 439.03 447.29 457.93 418.74 425.45 418.72 406.15 389.06" style="fill:#e5ebea"/><path d="M532.8,55.37c0,30.76-99.82,55.7-232.7,55.7S67.39,86.13,67.39,55.37,167.22-.33,300.1-.33,532.8,24.61,532.8,55.37Z" transform="translate(-10.57 0.33)" style="fill:#e6e6e6"/><path d="M513.56,58.26c0,23.8-76.62,43.09-171.13,43.09S171.3,82.06,171.3,58.26s76.61-43.09,171.13-43.09S513.56,34.46,513.56,58.26Z" transform="translate(-10.57 0.33)" style="fill:#f6f6f6"/></svg>