<svg id="Ebene_1" data-name="Ebene 1" xmlns="http://www.w3.org/2000/svg" viewBox="0 0 549.57 600"><rect x="57.46" y="272.8" width="484.1" height="9.81" transform="translate(-4.15 576.52) rotate(-89.86)" style="fill:#f6f6f6"/><polygon points="297.04 35.7 295.84 519.8 305.63 519.84 306.84 35.73 297.04 35.7" style="fill:#f6f6f6"/><rect x="111.54" y="272.93" width="484.1" height="9.82" transform="translate(49.66 630.74) rotate(-89.86)" style="fill:#f6f6f6"/><rect x="138.58" y="273.01" width="484.1" height="9.8" transform="translate(76.56 657.85) rotate(-89.86)" style="fill:#f6f6f6"/><polygon points="378.16 35.91 376.95 520.01 386.77 520.04 387.97 35.94 378.16 35.91" style="fill:#f6f6f6"/><rect x="30.42" y="272.73" width="484.1" height="9.8" transform="translate(-31.06 549.41) rotate(-89.86)" style="fill:#f6f6f6"/><rect x="3.36" y="272.66" width="484.09" height="9.82" transform="matrix(0, -1, 1, 0, -57.99, 522.29)" style="fill:#f6f6f6"/><polygon points="188.85 35.44 187.64 519.53 197.47 519.58 198.67 35.46 188.85 35.44" style="fill:#f6f6f6"/><rect x="-50.72" y="272.54" width="484.1" height="9.8" transform="translate(-111.8 468.07) rotate(-89.86)" style="fill:#f6f6f6"/><path d="M529.12,347.42a254.59,254.59,0,0,0-8.49-34.06l-2.71-8.19-3-8.28-5.94-14.83c-7.81-19.3-15.63-38.34-22.48-57.63s-13.3-38.55-18.59-57.91-9.49-38.82-11.24-57.8c-1.65-18.78-1-37.58,5.46-51a40.44,40.44,0,0,1,5.68-8.88,55.88,55.88,0,0,1,8.6-7.79,46.76,46.76,0,0,1,20.8-8.81c14.63-2.21,31.17,4.18,42.8,16.81,11.68,12.45,18.36,30.45,13.76,47.28-2.16,8.73-6.36,16.46-12.71,21.7a32.66,32.66,0,0,1-23.44,7,36.67,36.67,0,0,1-23.68-10.55,25,25,0,0,1-6.21-25.19,3,3,0,0,0-1.84-3.75,2.82,2.82,0,0,0-3.47,1.65l-.09.23a33.07,33.07,0,0,0-2.16,17.21,34.75,34.75,0,0,0,7.06,16.17A47.49,47.49,0,0,0,516,138a45.71,45.71,0,0,0,33.64-6.81c10.21-6.76,17.31-17.71,21.22-28.89a67.32,67.32,0,0,0,2.41-36.79A84.13,84.13,0,0,0,530.72,9.17a70.07,70.07,0,0,0-35.86-8.11,75.9,75.9,0,0,0-35.48,11.11,82.19,82.19,0,0,0-15.05,11.41,74.63,74.63,0,0,0-12.46,16.09c-6.73,11.64-10.27,24.17-12.27,36.19a183.71,183.71,0,0,0-2,35.36c1.85,45.89,13.05,87.83,24.5,129,5.94,20.5,11.91,40.86,18,60.89,25,82.17,2.72,168.63-81.94,201.85-23.74,9.31-53.62,16.85-79.23,16.79s-55.45-7.76-79.13-17.19c-84.5-33.63-106.32-120.2-81-202.25,6.19-20,12.27-40.33,18.3-60.8,11.66-41.11,23.08-83,25.13-128.86a182.83,182.83,0,0,0-1.83-35.39c-1.93-12-5.41-24.56-12.11-36.24A74,74,0,0,0,156,22.87a81.68,81.68,0,0,0-15-11.5A76,76,0,0,0,105.54.1,69.85,69.85,0,0,0,69.62,8,84.16,84.16,0,0,0,26.79,64.12,67.12,67.12,0,0,0,29,100.93c3.84,11.19,10.87,22.16,21.08,29a45.7,45.7,0,0,0,33.58,7,47.58,47.58,0,0,0,28.92-17,34.78,34.78,0,0,0,7.15-16.15,33.27,33.27,0,0,0-2.08-17.2l-.1-.23a2.81,2.81,0,0,0-3.46-1.68,3.05,3.05,0,0,0-1.85,3.76,24.94,24.94,0,0,1-6.35,25.14A36.54,36.54,0,0,1,82.21,124a32.64,32.64,0,0,1-23.43-7.16c-6.31-5.26-10.47-13-12.6-21.76-4.53-16.84,2.27-34.8,14-47.21C71.87,35.33,88.43,29,103.05,31.29a46.67,46.67,0,0,1,20.76,8.94A54.58,54.58,0,0,1,132.37,48,39.55,39.55,0,0,1,138,57c6.36,13.41,7,32.21,5.23,51-1.87,19-6.21,38.42-11.56,57.73s-11.79,38.64-18.84,57.83S98,261.76,90,281l-6,14.79L81,304.08l-2.75,8.19a249.29,249.29,0,0,0-8.65,34A217.74,217.74,0,0,0,67.9,418.6C71.57,443,80.33,467.37,94,488.18a169,169,0,0,0,50.88,50.57c19.53,12.68,62.69,39,153.92,39.23s134.56-25.88,154.12-38.47A168.29,168.29,0,0,0,504,489.18c13.74-20.72,22.61-45,26.4-69.44A217.82,217.82,0,0,0,529.12,347.42Z" transform="translate(-25.22 0)" style="fill:#ff8864"/><path d="M456.51,107.35l-39-.09-235.22-.6-39-.09c0,.46,0,.92-.08,1.38-.55,5.48-1.34,11-2.25,16.5l40.28.1,237.22.6,40.28.1c-.87-5.55-1.66-11-2.14-16.53C456.59,108.27,456.56,107.81,456.51,107.35Z" transform="translate(-25.22 0)" style="fill:#d66745"/><path d="M440.25,558.59l-282.9-.7c-9.63,0-17.45,9.24-17.47,20.67s7.74,20.71,17.36,20.74l282.91.7c9.63,0,17.47-9.24,17.5-20.65S449.89,558.61,440.25,558.59Z" transform="translate(-25.22 0)" style="fill:#bc5b3c"/></svg>