<svg id="Ebene_1" data-name="Ebene 1" xmlns="http://www.w3.org/2000/svg" viewBox="0 0 487.68 600"><ellipse cx="246.08" cy="112.79" rx="33.2" ry="21.9" style="fill:#ff8864"/><ellipse cx="246.08" cy="74.91" rx="18.64" ry="28.82" style="fill:#ff8864"/><rect x="244.45" y="33.62" width="3.26" height="29.94" style="fill:#ff8864"/><path d="M302.24,17.33a9.57,9.57,0,1,0,9.58,9.57A9.57,9.57,0,0,0,302.24,17.33Zm0,16.34A6.77,6.77,0,1,1,309,26.9,6.77,6.77,0,0,1,302.24,33.67Z" transform="translate(-56.16 0)" style="fill:#ff8864"/><rect x="244.45" y="19.26" width="3.26" height="14.97" style="fill:#ff8864"/><rect x="300.61" y="20.34" width="3.26" height="13.9" transform="translate(273.37 -274.96) rotate(90)" style="fill:#ff8864"/><path d="M307.14,9.16c-.24,1-2.86,1.87-3.26,1.38s-.1-2.77-.1-2.77c-.24-.54-1-2-1.54-2.16-.86-.18-3,1.8-3,1.8l1.39.57h0c.09.57.31,2.16,0,2.56s-3-.4-3.26-1.38S288.53-.32,286.24,0a14,14,0,0,0,8.25,12.41s.9,3.84,5.79,4.09L300.2,19h4.08l-.08-2.45c4.9-.25,5.8-4.09,5.8-4.09A14,14,0,0,0,318.24,0C316-.32,307.39,8.18,307.14,9.16Z" transform="translate(-56.16 0)" style="fill:#ff8864"/><path d="M250.78,133.06c1.06-2.12,12.52-25.56-10.62-26.07a3.33,3.33,0,0,1-2.63-1.32,54.42,54.42,0,0,1-8.91-18.33,3.23,3.23,0,0,0-.37-.88c-1.4-2.23-8.17-12-13.92-2.37l.11-.22L210.94,82l2,4.88,1.2,2.44s-2.43,1.46-.39,4.15a3.5,3.5,0,0,1,.59,1.09c.43,1.47,1.3,5.23-.2,7.8,0,0,2.45,5.43,6,0l3-6.85s1.91,10.93,0,13.91-5.93,7-2.82,15.82a3.35,3.35,0,0,1,.06,2.12c-.53,1.62-1.66,4.49-3.21,4.88-2.17.54,1.31,18.74,1.31,18.74s.32,4.61,3.85,3.25,1.66-6.24,1.66-6.24-2.95-1.46-3.26-10.16a3.22,3.22,0,0,1,1.09-2.52l5.49-4.9a3.27,3.27,0,0,1,2.33-.83l1.88.09a3.29,3.29,0,0,1,3.05,2.62c.64,3.14,1.53,8.41.8,10.81-1.09,3.53.54,15.48-1.36,18.47s3.8,0,3.8,0l2.43-20.51a1.94,1.94,0,0,0,0-.24c0-1.06.42-9.36,2.71-8.86,2.07.46,3.89,8.21,4.41,10.59a3.17,3.17,0,0,1,0,1.37s-4.92,9.74-2.5,11.33C246.5,156.38,248,153,251,150a3.2,3.2,0,0,0,.88-2.81C251.25,143.54,249.92,134.77,250.78,133.06Z" transform="translate(-56.16 0)" style="fill:#ff8864"/><path d="M276.58,107.4s-1.22-9.91-.61-11.88,2.24-6.46.81-9.51-3.26-5.3-5.5-5.3a12.62,12.62,0,0,0-4.45,3.93l.08-.19L264,82l1.9,4.88v0a6,6,0,0,0-.11,1.6c.41,4.89.41,14.87-1,17.32s-7.94,11.4-3.66,20.77,2.44,14.06,2.44,14.06-1.42,4.48,1,5.5-2,13.85.91,15.07a8.18,8.18,0,0,0,5.81,0s2.45-2.24,2-4.28-2.85-11.4-2.45-12.83-.81-13.65.82-13.65,2.65-2,1.63,0,.41,9.17.41,10-2.45,8.15,3.66,13,4.69-.81,4.28-1.22-4.28-5.71-3.87-9.78,4.31-9,4.31-9l2.21.61a58.77,58.77,0,0,0,0,6.31c.2,2.24-3.26,3.67-1.22,6.11s1.85,9.78,1.23,12.84,4.06,2.37,4.06,2.37.82-4.41,0-5.84.93-8.35.36-11.2.19-4.89.12-9.78S290.65,105.18,276.58,107.4Z" transform="translate(-56.16 0)" style="fill:#ff8864"/><path d="M276,84.45l.82,1.56,2.7-4C275,83.66,276,84.45,276,84.45Z" transform="translate(-56.16 0)" style="fill:#ff8864"/><path d="M354.59,133.06c-1.06-2.12-12.52-25.56,10.62-26.07a3.33,3.33,0,0,0,2.63-1.32,54.42,54.42,0,0,0,8.91-18.33,3.23,3.23,0,0,1,.37-.88c1.4-2.23,8.17-12,13.92-2.37l-.11-.22,3.5-1.86-2,4.88-1.2,2.44s2.43,1.46.39,4.15a3.5,3.5,0,0,0-.59,1.09c-.44,1.47-1.3,5.23.2,7.8,0,0-2.45,5.43-6,0l-3-6.85s-1.9,10.93,0,13.91,5.94,7,2.83,15.82a3.35,3.35,0,0,0-.06,2.12c.53,1.62,1.66,4.49,3.21,4.88C390.44,132.79,387,151,387,151s-.32,4.61-3.85,3.25-1.66-6.24-1.66-6.24,2.95-1.46,3.26-10.16a3.22,3.22,0,0,0-1.09-2.52l-5.49-4.9a3.27,3.27,0,0,0-2.33-.83l-1.88.09a3.28,3.28,0,0,0-3.05,2.62c-.64,3.14-1.53,8.41-.8,10.81,1.09,3.53-.54,15.48,1.36,18.47s-3.8,0-3.8,0l-2.43-20.51a1.94,1.94,0,0,1,0-.24c0-1.06-.42-9.36-2.71-8.86-2.07.46-3.89,8.21-4.41,10.59a3.17,3.17,0,0,0,0,1.37s4.92,9.74,2.5,11.33c-1.7,1.12-3.19-2.28-6.18-5.25a3.2,3.2,0,0,1-.88-2.81C354.12,143.54,355.45,134.77,354.59,133.06Z" transform="translate(-56.16 0)" style="fill:#ff8864"/><path d="M328.79,107.4s1.22-9.91.61-11.88-2.24-6.46-.81-9.51,3.26-5.3,5.5-5.3a12.62,12.62,0,0,1,4.45,3.93l-.08-.19L341.39,82l-1.9,4.88v0a6,6,0,0,1,.11,1.6c-.41,4.89-.41,14.87,1,17.32s7.94,11.4,3.66,20.77-2.44,14.06-2.44,14.06,1.42,4.48-1,5.5,2,13.85-.91,15.07a8.18,8.18,0,0,1-5.81,0s-2.45-2.24-2-4.28,2.85-11.4,2.45-12.83.81-13.65-.82-13.65-2.65-2-1.63,0-.41,9.17-.41,10,2.45,8.15-3.66,13-4.69-.81-4.28-1.22,4.28-5.71,3.87-9.78-4.31-9-4.31-9l-2.21.61a61.7,61.7,0,0,1,0,6.31c-.2,2.24,3.26,3.67,1.22,6.11s-1.85,9.78-1.23,12.84-4.06,2.37-4.06,2.37-.82-4.41,0-5.84-.93-8.35-.36-11.2-.19-4.89-.12-9.78S314.72,105.18,328.79,107.4Z" transform="translate(-56.16 0)" style="fill:#ff8864"/><path d="M329.41,84.45,328.59,86l-2.7-4C330.35,83.66,329.41,84.45,329.41,84.45Z" transform="translate(-56.16 0)" style="fill:#ff8864"/><rect x="23.86" y="298.83" width="45.29" height="301.17" style="fill:#8c4b37"/><rect x="411.04" y="298.83" width="45.29" height="301.17" style="fill:#8c4b37"/><rect x="13.9" y="259.55" width="459.88" height="32.32" style="fill:#d66745"/><rect x="36.49" y="175.01" width="414.7" height="32.32" style="fill:#f2784b"/><rect x="13.9" y="243.39" width="459.88" height="16.16" style="fill:#f2784b"/><rect x="13.9" y="235.3" width="459.88" height="8.08" style="fill:#8c4b37"/><rect x="13.9" y="207.34" width="459.88" height="8.08" style="fill:#d66745"/><rect x="13.9" y="166.93" width="459.88" height="8.08" style="fill:#f2784b"/><rect x="175.2" y="150.16" width="137.27" height="8.08" style="fill:#f2784b"/><polygon points="473.77 235.3 13.9 235.3 0 215.42 487.68 215.42 473.77 235.3" style="fill:#f2784b"/><polygon points="391.34 324.2 96.33 324.2 32.44 291.87 455.24 291.87 391.34 324.2" style="fill:#8c4b37"/><rect x="166.23" y="157.5" width="155.22" height="57.92" style="fill:#d66745"/><rect x="284.94" y="122.75" width="30.12" height="127.42" transform="translate(430.3 -113.54) rotate(90)" style="fill:#8c4b37"/><rect x="1.74" y="291.87" width="484.2" height="8.08" style="fill:#f2784b"/><rect x="15.98" y="299.95" width="33.66" height="300.05" style="fill:#f2784b"/><rect x="9.56" y="299.95" width="46.51" height="16.82" rx="1" style="fill:#f2784b"/><rect x="99.52" y="299.95" width="33.66" height="300.05" style="fill:#f2784b"/><rect x="93.1" y="299.95" width="46.51" height="16.82" rx="1" style="fill:#f2784b"/><rect x="183.06" y="299.95" width="33.66" height="300.05" style="fill:#f2784b"/><rect x="176.64" y="299.95" width="46.51" height="16.82" rx="1" style="fill:#f2784b"/><rect x="266.61" y="299.95" width="33.66" height="300.05" style="fill:#f2784b"/><rect x="260.18" y="299.95" width="46.51" height="16.82" rx="1" style="fill:#f2784b"/><rect x="350.15" y="299.95" width="33.66" height="300.05" style="fill:#f2784b"/><rect x="343.72" y="299.95" width="46.51" height="16.82" rx="1" style="fill:#f2784b"/><rect x="433.69" y="299.95" width="33.66" height="300.05" style="fill:#f2784b"/><rect x="427.26" y="299.95" width="46.51" height="16.82" rx="1" style="fill:#f2784b"/></svg>