<svg xmlns="http://www.w3.org/2000/svg" viewBox="0 0 600 562.65"><g style="isolation:isolate"><g id="Ebene_1" data-name="Ebene 1"><path d="M173.51,580.08a8.06,8.06,0,0,1-1.66.76,9.65,9.65,0,0,1-12.2-6.16l-144.86-442a9.8,9.8,0,0,1-.48-3,9.69,9.69,0,0,1,6.67-9.2,10.27,10.27,0,0,1,1.86-.39,9.63,9.63,0,0,1,10.35,6.58L178,568.64A9.56,9.56,0,0,1,173.51,580.08Z" transform="translate(0 -18.67)" style="fill:gray"/><path d="M173.51,580.08l-150.67-460-.07-.19,7.44-2.42L178,568.64A9.56,9.56,0,0,1,173.51,580.08Z" transform="translate(0 -18.67)" style="fill:#4d4d4d"/><path d="M39.36,111.78A20.18,20.18,0,1,1,13.9,98.89,20.18,20.18,0,0,1,39.36,111.78Z" transform="translate(0 -18.67)" style="fill:#4d4d4d"/><path d="M13.9,98.89a20.16,20.16,0,0,0-4,36.5A20.16,20.16,0,0,0,27.11,99.13,20,20,0,0,0,13.9,98.89Z" transform="translate(0 -18.67)" style="fill:gray"/><path d="M15.25,103.67c1.48,1,.65,4.84-1.85,8.59s-5.74,6-7.23,5-.66-4.84,1.85-8.59S13.76,102.68,15.25,103.67Z" transform="translate(0 -18.67)" style="fill:#f6f6f6"/><path d="M556.37,247.53c-.27-9.88-.43-19-1-27.71-44.91,20-195.56,83.35-206.26,36.11-12.59-55.57-249.57,81.76-249.57,81.76l32,97.7s237-137.32,249.57-81.75S600,311.79,600,311.79,557.5,289.75,556.37,247.53Z" transform="translate(0 -18.67)" style="fill:#bc5b3c"/><path d="M317.15,158.22c10.4,45.91,153-12.59,202.22-34.32C489.4,75.53,504,18.67,504,18.67S297.73,116.09,285.14,60.52,35.58,142.28,35.58,142.28l32,97.7S304.56,102.65,317.15,158.22Z" transform="translate(0 -18.67)" style="fill:#3c4447"/><path d="M349.16,255.93c10.7,47.24,161.35-16.08,206.26-36.11-1.71-28.66-7.29-53.75-33.16-91.48q-1.51-2.2-2.89-4.44c-49.26,21.73-191.82,80.23-202.22,34.32C304.56,102.65,67.59,240,67.59,240l32,97.71S336.57,200.36,349.16,255.93Z" transform="translate(0 -18.67)" style="fill:#f6f6f6"/><g style="opacity:0.14;mix-blend-mode:multiply"><path d="M328.63,191.77A327.3,327.3,0,0,1,320.5,77.61c-18.94.5-32.42-4.13-35.36-17.09C282.62,49.4,271.1,46,254.3,47.7c11.29,3.33,19.95,10.35,23.75,22.84C296.1,129.76,328.63,191.77,328.63,191.77Z" transform="translate(0 -18.67)" style="fill:#231f20"/><path d="M600,311.79S577.24,300,564.59,277.08c-15.88,10.63-40.85,26.44-72.91,43.73-57.66,31.11-88.24,28.91-111-15.72s-86.44,26.12-144.9,54.78-96,26-133.44-71.79-14.41-174.4-14.41-174.4h0c-30.62,16-52.35,28.6-52.35,28.6l32,97.7,32,97.71,32,97.7s237-137.32,249.57-81.75S600,311.79,600,311.79Z" transform="translate(0 -18.67)" style="fill:#231f20"/></g></g></g></svg>