<svg id="Ebene_1" data-name="Ebene 1" xmlns="http://www.w3.org/2000/svg" viewBox="0 0 600 482.14"><path d="M288.17,228.8c9.55-11.27,28.79-12.35,39.55-2.23s10.84,29.4.17,39.61c7,9.12,6.59,23.2-1,31.87s-21.46,11-31.45,5.28c-7.89,13.72-25.11,21.36-40.58,18s-28-17.43-29.5-33.19c-10.77-2.58-17.93-15.2-14.62-25.77s16.4-16.84,26.71-12.8c-2.58-12.6,4.84-26.52,16.74-31.4S281.17,218,288.17,228.8Z" transform="translate(0 -58.93)" style="fill:#8c4b37"/><path d="M369.56,279.57c-5.18-15-20.92-25.74-36.81-25s-30.61,12.79-34.41,28.24c-5-13.09-20.62-21.08-34.16-17.46s-23.08,18.36-20.86,32.19a29.13,29.13,0,0,0-43.08,27.56,14.77,14.77,0,0,0-26.44,12.83c-13.26-10.21-35.77-3.41-41.16,12.44s8.31,35,25.05,34.95c-15,5.15-23.41,24.22-17.1,38.77s26,21.44,40,14c1.41,16.08,14.26,30.47,30.07,33.7s33.27-5,40.87-19.21a47.12,47.12,0,0,0,77.6-3.79c6.26,12.72,21.13,20.6,35.17,18.64s26.18-13.63,28.7-27.57c6.57,8.84,20.61,10.87,29.42,4.26s10.77-20.67,4.11-29.44c18.92-4,33.52-22.87,32.7-42.2s-17-36.87-36.15-39.29c11.28-14.52,9.87-37.37-3.12-50.39S384.1,268.31,369.56,279.57Z" transform="translate(0 -58.93)" style="fill:#8c4b37"/><polygon points="241.75 415.14 256.4 435.22 312.53 435.22 432 309.49 346.95 363.63 405.31 244.02 332.7 309.49 345.37 143.63 289.47 315.83 266.95 219.57 260.3 326.96 202.52 224.81 236.72 353.15 181.27 321.72 241.75 415.14" style="fill:#f6f6f6"/><polygon points="269.31 435.22 301.12 435.22 357.82 367.12 323.05 381.96 349.35 315.83 312.52 348.79 316.04 273.7 286.18 353.15 271.71 312.99 271.84 357.52 244.77 322.59 262.04 381.09 231.96 372.05 269.31 435.22" style="fill:#d66745"/><polygon points="295.09 435.22 322.72 402.48 306.63 407.72 314.43 380.65 297.4 398.77 300.46 347.48 282.56 396.37 272.74 368.87 272.74 405.1 262.92 398.55 276.9 435.22 295.09 435.22" style="fill:#bc5b3c"/><path d="M283.74,303.7c-1,10.76-10.32,20.17-21.08,21.21,8.85,12.13,6.54,31-5,40.6s-30.46,8.57-40.83-2.3C214.44,374.79,203.77,384.08,192,385a27.91,27.91,0,0,1-20.2-7.15A26.75,26.75,0,0,1,164.3,367a27.41,27.41,0,0,1-18.49,2.59c-8.28-1.62-15.95-6.7-19.83-14.22-6.83-13.23-.68-31.54,12.73-38-10.29-6.36-14.56-20.87-9.35-31.8s19.15-16.73,30.57-12.75c-6.05-11-2.59-26.27,7.62-33.56s25.77-5.57,34.18,3.75A27.52,27.52,0,0,1,251,253.91c6.29-7.49,19.93-6.55,25.14,1.73a13.35,13.35,0,0,1,2,5.84,16.26,16.26,0,0,1-.37,5.6c-1.31,5.55-5.37,10.56-10.95,12C277.22,282,284.74,292.93,283.74,303.7Z" transform="translate(0 -58.93)" style="fill:#f2784b"/><path d="M442.7,329.45c4.06,13.07-2.62,28.6-14.9,34.62s-28.65,1.78-36.49-9.43a23.43,23.43,0,0,1-43.08-13.33c-9.51,6.92-24.31,4.85-31.57-4.37a22.18,22.18,0,0,1-4.55-13.62,0,0,0,0,1,0,0,24.84,24.84,0,0,1,2.67-11.52,20.89,20.89,0,0,1,3.57-5,20.27,20.27,0,0,1,1.57-1.5,20.38,20.38,0,0,1-5.74-1.57c-8.72-3.85-14.88-13.62-13.67-23.2,1.44-11.58,13.38-20.75,24.93-19.2a31.26,31.26,0,0,1,54.12-17.13c9.92-14.17,31.53-18.47,46.15-9.14s19.77,30.75,11.1,45.73a25.2,25.2,0,0,1,17.68,8.51c.48.52.92,1.07,1.37,1.65a24.29,24.29,0,0,1,4.84,11.66C462.09,314.2,454,326.28,442.7,329.45Z" transform="translate(0 -58.93)" style="fill:#f2784b"/><path d="M278.13,261.47a23.85,23.85,0,0,0-32.48,4.22,22,22,0,0,0-41.75-10.82c-6.41-10.47-22.47-13.36-32.11-5.76-6.86,5.42-9.32,15.22-7,23.55a20.3,20.3,0,0,0,5.1,9c-9.87-5.95-24.51-1.39-29.25,9.14s1.46,24.49,12.46,28c-13,3.53-22.21,17.44-20.48,30.75,1.08,8.22,6.26,15.56,13.23,20-8.28-1.62-15.95-6.71-19.83-14.22-6.83-13.23-.68-31.54,12.73-38-10.29-6.37-14.56-20.88-9.35-31.8s19.15-16.74,30.57-12.76c-6.05-11-2.6-26.27,7.62-33.55s25.77-5.58,34.18,3.75A27.52,27.52,0,0,1,251,253.9c6.28-7.49,19.93-6.54,25.14,1.73A13.34,13.34,0,0,1,278.13,261.47Z" transform="translate(0 -58.93)" style="fill:#fff"/><path d="M454.46,289.24c-8.07-4.09-17.86-4.93-26.27-1.42a29.6,29.6,0,1,0-50.58-30.35,25.54,25.54,0,0,0-47.85,7.72c-11.42-.55-22.34,9.14-23.18,20.54-.5,6.76,2.62,13.41,7.57,17.94-8.72-3.85-14.88-13.62-13.67-23.21,1.44-11.57,13.38-20.74,24.93-19.2a31.26,31.26,0,0,1,54.11-17.13c9.93-14.17,31.54-18.46,46.16-9.14s19.77,30.75,11.1,45.73A25.23,25.23,0,0,1,454.46,289.24Z" transform="translate(0 -58.93)" style="fill:#fff"/><path d="M176.05,353.15a19.81,19.81,0,0,1,2.34-38.39c-6.8-8.44-5.59-22.2,2.59-29.33s22-6.44,29.41,1.46c3.19-10.47,15.39-17.24,26-14.41s17.77,14.78,15.32,25.44a24.25,24.25,0,0,0-10.45-15.77c-5.51-3.42-12.89-4-18.52-.74s-8.93,10.37-7.09,16.59a17.86,17.86,0,1,0-25.29,21.87c-8.51-2.68-18.67,2-22.19,10.18S168.25,348.83,176.05,353.15Z" transform="translate(0 -58.93)" style="fill:#fff"/><path d="M391.85,293c-.33-9.54-9.94-17.68-19.4-16.44S355.81,288.15,358,297.44c-6.78-6.48-19.14-5.57-24.88,1.83s-3.57,19.61,4.38,24.56c-9.52-3.52-14.93-15.47-11.28-24.95s15.65-14.73,25.09-11c.21-10,8.29-19.25,18.16-20.82a22.26,22.26,0,0,1,23.73,14.16c7.4-7.75,21.09-8.24,29-1s8.76,20.87,1.77,29A19,19,0,0,0,391.85,293Z" transform="translate(0 -58.93)" style="fill:#fff"/><path d="M254.26,238a18.81,18.81,0,0,1,35.51,1.53c3.67-8,14-12.2,22.23-9s13,13.3,10.27,21.68a16.28,16.28,0,0,0-31.75-4.55A23.56,23.56,0,0,0,254.26,238Z" transform="translate(0 -58.93)" style="fill:#fff"/><path d="M150.45,398.61c-3.32,7.26-3.3,16.16.79,23s12.41,11.19,20.28,9.84c-5.92-3.74-11-9.12-13.4-15.68s-2-14.35,2-20.12,11.67-9,18.36-6.93c-4.45-3.58-10.92-4.11-16.21-2A22.8,22.8,0,0,0,150.45,398.61Z" transform="translate(0 -58.93)" style="fill:#fff"/><path d="M283.74,303.7c-1,10.76-10.32,20.17-21.08,21.21,8.85,12.13,6.54,31-5,40.6s-30.46,8.57-40.83-2.3C214.44,374.79,203.77,384.08,192,385a27.91,27.91,0,0,1-20.2-7.15c7.7,3.19,16.87,3,24.1-1.21,10.87-6.31,16.11-20.9,11.71-32.69,4.87,9,14.54,15.38,24.73,15.51S252.7,353,256,343.3s-1.34-21.55-10.61-25.82c10.58,2.72,22.71-4,26-14.41s-2.67-22.89-12.89-26.82c7.42.39,14.7-3.38,19.31-9.17-1.31,5.55-5.37,10.56-10.95,12C277.22,282,284.74,292.93,283.74,303.7Z" transform="translate(0 -58.93)" style="fill:#d66745"/><path d="M442.7,329.45c4.06,13.07-2.62,28.6-14.9,34.62s-28.65,1.78-36.49-9.43a23.43,23.43,0,0,1-43.08-13.33c-9.51,6.92-24.31,4.85-31.57-4.37a22.18,22.18,0,0,1-4.55-13.62,23.6,23.6,0,0,0,41.25,5.26,23,23,0,0,0,4.95,20.8,20,20,0,0,0,20.33,5.73c7.07-2.25,12.44-9.37,12.18-16.78a22.23,22.23,0,1,0,39.63-17c5.65,3.12,13.14,1.44,17.91-2.91s7.13-10.86,7.7-17.31a54,54,0,0,0-.23-10.24,24.29,24.29,0,0,1,4.84,11.66C462.09,314.2,454,326.28,442.7,329.45Z" transform="translate(0 -58.93)" style="fill:#d66745"/><path d="M456.27,526.47l-85.12-3.93-66.43-3.07s-94.89,18.34-101.23,21-93.93-3.49-97.26-5.24c-1.7-.87,11.45-6.26,24.83-11.34,13-5,26.17-9.62,26.17-9.62l38.11-20.09L221,504.2l50.76-23.41,82.29,16.71,54.41-17.32L429,500.09Z" transform="translate(0 -58.93)" style="fill:#4d4d4d"/><path d="M429,500.09c-4.5,4.69-9.19,9-9.19,9l-48.69,13.41-41.21-17-55.37-4.37L215,517.25l-32.5-6.6-31.22,13.2H131.06c13-5,26.17-9.62,26.17-9.62l38.11-20.09L221,504.2l50.76-23.41,82.29,16.71,54.41-17.32Z" transform="translate(0 -58.93)" style="fill:#3a3a3a"/><g style="opacity:0.4"><path d="M298.46,58.93s3.28,31.66,3.28,70.72-3.28,70.72-3.28,70.72-3.27-31.66-3.27-70.72S298.46,58.93,298.46,58.93Z" transform="translate(0 -58.93)" style="fill:#f6f6f6"/></g><g style="opacity:0.4"><path d="M147.08,90.07s16.4,26.84,33,61.7,27.08,64.49,27.08,64.49-16.42-26.87-33-61.7S147.08,90.07,147.08,90.07Z" transform="translate(0 -58.93)" style="fill:#f6f6f6"/></g><g style="opacity:0.4"><path d="M105.7,156.56A247,247,0,0,1,128,189.76a246.62,246.62,0,0,1,16.61,36.4,244.25,244.25,0,0,1-38.94-69.6Z" transform="translate(0 -58.93)" style="fill:#f6f6f6"/></g><g style="opacity:0.4"><path d="M0,230s24.84,16.18,52.94,39.27,48.79,44.32,48.79,44.32-24.86-16.19-52.94-39.26S0,230,0,230Z" transform="translate(0 -58.93)" style="fill:#f6f6f6"/></g><g style="opacity:0.4"><path d="M1.24,329.87a559.79,559.79,0,0,1,56.25,22.19A560.48,560.48,0,0,1,111,380.19,560.38,560.38,0,0,1,54.76,358,561.28,561.28,0,0,1,1.24,329.87Z" transform="translate(0 -58.93)" style="fill:#f6f6f6"/></g><g style="opacity:0.4"><path d="M455.63,84.64a542.8,542.8,0,0,1-17.53,56.93,544.49,544.49,0,0,1-23.67,54.65,542.22,542.22,0,0,1,41.2-111.58Z" transform="translate(0 -58.93)" style="fill:#f6f6f6"/></g><g style="opacity:0.4"><path d="M518.81,159.25a410,410,0,0,1-21.54,47A410.88,410.88,0,0,1,470,250.1a408,408,0,0,1,48.86-90.85Z" transform="translate(0 -58.93)" style="fill:#f6f6f6"/></g><g style="opacity:0.4"><path d="M600,273s-5.74,4.47-15.2,11.21c-9.66,6.46-22.23,16.42-36.82,26.34-14,10.75-27.38,19.57-36.54,26.72-9.37,6.88-15.4,10.93-15.4,10.93s4.93-5.26,13.29-13.44c8.14-8.43,20.66-18.65,34.82-29.51,14.75-10,28.37-18.74,38.93-23.83C593.46,276,600,273,600,273Z" transform="translate(0 -58.93)" style="fill:#f6f6f6"/></g><g style="opacity:0.4"><path d="M27.65,420.85l4.26.44c2.74.27,6.64.87,11.5,1.37,9.7,1.14,23.09,2.54,37.81,4.95a278.62,278.62,0,0,1,37.33,8.72c4.7,1.47,8.42,2.94,11,3.88l4,1.54-4.24-.55-11.46-1.68c-9.69-1.32-23-3.07-37.68-5.45a328.12,328.12,0,0,1-37.39-8.21c-4.73-1.3-8.48-2.71-11.09-3.57Z" transform="translate(0 -58.93)" style="fill:#f6f6f6"/></g></svg>