<svg xmlns="http://www.w3.org/2000/svg" viewBox="0 0 600 556.45"><g style="isolation:isolate"><g id="Ebene_1" data-name="Ebene 1"><path d="M138.84,567.24v0a10.12,10.12,0,0,1-6.35,9.33,9.86,9.86,0,0,1-1.6.49h0a10.06,10.06,0,0,1-11.94-7.72L15.82,91.22l-.28-1.38-.91-4.2a9.8,9.8,0,0,1-.23-2.14,10.06,10.06,0,0,1,8-9.82,9.25,9.25,0,0,1,1.94-.23,10.11,10.11,0,0,1,10,8l.24,1.14,1,4.44,2.11,9.73L54,172.61l51.28,237.82,33.36,154.69A9.62,9.62,0,0,1,138.84,567.24Z" transform="translate(-0.78 -20.86)" style="fill:gray"/><path d="M138.84,567.24v0a10.12,10.12,0,0,1-6.35,9.33L28.09,91.11,27.42,88,24.29,73.45l0-.17,8-1.72L34.6,82.49l.95,4.45,2.09,9.74h0L54,172.61l51.15,237.87,33.7,156.7S138.84,567.22,138.84,567.24Z" transform="translate(-0.78 -20.86)" style="fill:#4d4d4d"/><path d="M236.38,27.74q-5.76,1.13-11.8,2.53C145.66,48.38,35.08,97.82,35.08,97.82L50,167.2,85.82,333.7l16.75,77.92s114.12-51,193.22-68.39c6.87-1.51,13.47-2.77,19.7-3.71Z" transform="translate(-0.78 -20.86)" style="fill:#4e6499"/><path d="M462.45,371.38c-47.54,8-89.72,7.79-92.7-17.23-2-16.5-23.82-19.24-54.26-14.63-6.23.94-12.83,2.2-19.7,3.71C234.66,247,224.17,99.7,224.58,30.27q6-1.39,11.8-2.53c36.37-7.1,63.67-5.93,65.86,12.61C304.71,61.07,334,64.8,371,60.91,374,146.1,392.25,289.31,462.45,371.38Z" transform="translate(-0.78 -20.86)" style="fill:#f6f5f5"/><path d="M562.6,263.4c.81-10.26,1.63-19.68,2-28.79,1.35-29.83-1.69-56.42-24.37-98.28-.88-1.63-1.71-3.26-2.5-4.91C528.05,111.31,525,90.65,525,72.7a164.47,164.47,0,0,1,8.24-51.84c-1.49.51-78.43,27.31-143.16,37.51-6.52,1-12.91,1.89-19.1,2.54,3,85.19,21.24,228.4,91.44,310.47,2.26-.38,4.51-.77,6.79-1.18,62.59-11.43,131.54-35.55,131.54-35.55S559.18,307.22,562.6,263.4Z" transform="translate(-0.78 -20.86)" style="fill:#bc5b3c"/><path d="M42.31,66.67A21,21,0,1,1,17.37,50.56,21,21,0,0,1,42.31,66.67Z" transform="translate(-0.78 -20.86)" style="fill:#98aacd"/><path d="M17.37,50.56A21,21,0,0,0,9.23,87.9,21,21,0,0,0,31,52.24a20.93,20.93,0,0,0-13.64-1.68Z" transform="translate(-0.78 -20.86)" style="fill:#98aacd"/><path d="M18.24,55.65c1.43,1.19.15,5.08-2.85,8.69s-6.59,5.57-8,4.38S7.21,63.64,10.21,60s6.6-5.57,8-4.38Z" transform="translate(-0.78 -20.86)" style="fill:#f6f5f5"/><path d="M469.23,370.19c-1.14.22-2.28.42-3.41.61l-3.37.58q-3.18.54-6.35,1l-3.13.48c-1.05.16-2.09.3-3.13.44s-2.06.28-3.09.42q-2.92.38-5.77.69-7.75.9-15,1.3l-2.7.15H423l-2.61.1-2.19.06-3.18,0c-25.3,0-43.4-5.85-45.3-21.92-1.46-12.31-14-17-32.91-16.62l-1.39,0a4,4,0,0,0-.49,0c-.56,0-1.12,0-1.69.07s-.92,0-1.38.07l-.45,0-1.36.08-.89.08c-.58,0-1.17.08-1.76.14-.88.07-1.77.16-2.67.26l-.36,0c-.88.09-1.76.19-2.65.31l-.47.05h0l-3.15.42c-.75.1-1.51.22-2.27.34l-.34,0-1.21.19c-.56.08-1.14.17-1.7.27l-2.08.35-2.15.37-.53.1-1.55.29c-1.66.32-3.34.65-5.06,1l-.32.05-1.44.31-1.79.37c-.62.15-1.24.28-1.86.41l-1.73.39-1.86.41a1.14,1.14,0,0,1-.25.06c-.52.12-1,.25-1.54.36-1.23.28-2.46.58-3.7.88m-11.28,2.87-.92.25-2.7.74c-1,.27-2,.54-3.05.83l-.59.18c-1.27.34-2.55.72-3.85,1.08l-3.51,1a.12.12,0,0,0-.07,0c-1.21.36-2.42.7-3.63,1.08l-.41.11c-.49.15-1,.31-1.5.45l-1.82.55-.63.19-.1,0-2.34.71-.65.2-1.08.35-.74.21-1.93.61-.52.16-.82.27-.07,0-.1,0-2.23.71-1.71.55s-.05,0-.06,0l-2,.63-.19.06-1.91.62c-3,1-6.11,2-9.15,3.05-1.26.41-2.5.83-3.75,1.27s-2.31.77-3.45,1.16l-6.54,2.28-1.56.55-2.16.77-4.8,1.71-1.06.38q-6,2.16-11.81,4.33c-.54.18-1.06.37-1.58.57l-.91.34-1.38.53c-.66.25-1.33.49-2,.75s-1.23.45-1.83.68q-1.9.71-3.78,1.44l-.19.06-.41.16q-2.61,1-5.19,2c-1.67.63-3.32,1.27-4.93,1.9-1.92.74-3.81,1.47-5.68,2.21l-.79.3a.07.07,0,0,1-.06,0l-.44.18c-.15.07-.31.13-.45.18-.55.22-1.1.44-1.65.64-9.81,3.88-18.82,7.54-26.67,10.79l-1,.4-1.24.52-5.38,2.25c-.16.08-.33.13-.49.21a4.07,4.07,0,0,1-.44.18l-1.14.48-2.82,1.2-.91.39-.19.07c-2.35,1-4.5,1.92-6.44,2.76l-.39.15c-1.06.47-2,.9-3,1.29l-.24.11-.67.28h0l-.48.2c-.11.06-.24.1-.36.16l-.17.07-.55.25-.07,0-.25.1-.89.4-1.79.78-.13.05-2.22,1-.06,0-.09,0-.11.06h0l0,0L80.07,307M57.58,202.42l19.2,89.33L80.07,307" transform="translate(-0.78 -20.86)" style="fill:none"/><g style="opacity:0.140000000596046;mix-blend-mode:multiply;isolation:isolate"><path d="M333,180.92a341,341,0,0,1,4-119c-19.65-1.53-33.1-7.79-34.73-21.53-1.39-11.78-12.95-16.54-30.52-16.62,11.32,4.68,19.52,12.89,22.1,26.22,12.23,63.26,39.15,131,39.15,131Z" transform="translate(-0.78 -20.86)" style="fill:#221f20"/><path d="M600.77,334.65s-22.27-14.72-32.87-39.78c-17.58,9.28-45.15,22.92-80.21,37.33-63.06,25.92-94.47,20.32-113.17-28.35s-92.29,17.64-155.91,40.93S116.45,361.26,88.32,256,92.37,73.92,92.37,73.92c-33.44,13.23-57.29,23.9-57.29,23.9l22.5,104.6L80.08,307l22.49,104.61s260.2-116.35,267.18-57.47,231-19.5,231-19.5Z" transform="translate(-0.78 -20.86)" style="fill:#221f20"/></g><path d="M42.31,66.67A21,21,0,1,1,17.37,50.56,21,21,0,0,1,42.31,66.67Z" transform="translate(-0.78 -20.86)" style="fill:#4d4d4d"/><path d="M17.37,50.56A21,21,0,0,0,9.23,87.9,21,21,0,0,0,31,52.24a20.93,20.93,0,0,0-13.64-1.68Z" transform="translate(-0.78 -20.86)" style="fill:gray"/><path d="M18.24,55.65c1.43,1.19.15,5.08-2.85,8.69s-6.59,5.57-8,4.38S7.21,63.64,10.21,60s6.6-5.57,8-4.38Z" transform="translate(-0.78 -20.86)" style="fill:#f6f5f5"/><path d="M57.58,202.42l19.2,89.33L80.07,307m215.72,36.22-1.73.39-1.86.41-.25.06-1.15.26-.39.1c-1.23.28-2.46.58-3.7.88l-2.26.55-2.87.72c-1.56.39-3.13.81-4.71,1.21l-1.44.39-.92.25c-.8.22-1.58.43-2.38.63a1.73,1.73,0,0,1-.32.11l-2.08.56c-.32.1-.63.19-1,.27l-.59.18c-1.27.34-2.55.72-3.85,1.08l-1.82.52-1.69.5a.12.12,0,0,0-.07,0c-.21.05-.43.13-.66.18-1,.31-2,.6-3,.9l-.41.11c-.49.15-1,.31-1.5.45l-1.82.55-.73.23c-1.36.4-2.71.82-4.07,1.26l-2.67.82-1.34.43-.07,0-.1,0c-.74.25-1.49.48-2.23.71l-1.77.58-2,.63-.19.06-1.52.49-.39.13c-3,1-6.11,2-9.15,3.05-1.26.41-2.5.83-3.75,1.27l-2.66.89c-.26.1-.52.19-.79.27l-6.54,2.28-1.56.55-2.16.77-4.8,1.71-1.06.38q-6,2.16-11.81,4.33l-1.58.57-2.29.87c-.66.25-1.33.49-2,.75-.42.14-.84.3-1.24.45l-.59.23q-1.9.71-3.78,1.44l-.6.22q-2.61,1-5.19,2l-4.93,1.9c-1.92.74-3.81,1.47-5.68,2.21l-.15.07-.7.26c-.3.13-.59.25-.89.36-.55.22-1.1.44-1.65.64-9.81,3.88-18.82,7.54-26.67,10.79-.13.07-.28.13-.42.19l-1.79.73-5.38,2.25-.19.09-.74.3-1.14.48-2.82,1.2-.74.3-.17.09-.19.07c-2.35,1-4.5,1.92-6.44,2.76l-.39.15c-1.06.47-2,.9-3,1.29l-.37.16-.54.23h0a4.89,4.89,0,0,1-.48.2c-.11.06-.24.1-.36.16l-.17.07-.55.25-.07,0-.55.24-.59.26-1.79.78-.13.05-2.22,1-.06,0h0l-.09,0-.11.06h0l0,0L80.07,307M224.57,30.26C182.3,40,130.93,58.66,92.37,73.92a7.54,7.54,0,0,1-.74.29L88.3,75.54c-.71.27-1.4.56-2.1.84-4.18,1.67-8.18,3.29-12,4.85-1.49.59-2.93,1.18-4.34,1.77l-4.13,1.7-2.63,1.1-1.28.53c-1.57.65-3.09,1.29-4.53,1.91a2.55,2.55,0,0,0-.35.14c-2.72,1.14-5.23,2.21-7.51,3.19l-1.89.81c-1.13.47-2.2.94-3.18,1.37-.24.1-.49.2-.73.32-.48.2-.94.39-1.37.59a3.08,3.08,0,0,0-.38.16l-.89.39-3.15,1.37-.23.1,0,0c-.35.14-.66.29-1,.4s-.33.14-.48.22l-.62.27-.17.07a1.62,1.62,0,0,1-.29.13v0h0l22.49,104.6" transform="translate(-0.78 -20.86)" style="fill:none"/></g></g></svg>