<svg id="Ebene_1" data-name="Ebene 1" xmlns="http://www.w3.org/2000/svg" viewBox="0 0 475.93 600.18"><polygon points="380.71 600.18 424.97 561.31 466.99 450.41 321 470.65 380.71 600.18" style="fill:#8c4b37"/><polygon points="469.83 224.84 437.26 227.38 469.48 233.76 471.03 253.7 394.47 248.32 420.72 254.6 472.02 266.91 474.89 302.26 469.01 376.37 467 450.41 426.16 507.54 369.28 551.01 380.7 600.17 325.77 597.28 242.22 590.03 243.08 543.09 228.93 589.34 179.2 593.27 130.48 597.63 128.89 552.52 105.33 509.65 123.65 556.97 117.34 598.86 105.9 599.85 0 581.2 36.13 523.72 27.71 449.66 49.09 447.43 79.18 459.95 52.47 442.31 29.41 440.24 29.87 421.98 56.13 415.65 30.14 410.8 31.06 375.63 37.19 301.51 27.84 227.37 37.25 153.34 31.35 79.2 30.08 1.37 107.05 9.44 120.93 7.62 113.9 70.54 120.16 97.47 122.99 109.77 128.33 132.75 131.16 145.12 136.66 168.94 133.27 144.88 131.53 132.33 128.13 108.85 126.39 96.39 122.74 70.56 141.22 5.05 159.48 2.65 170.45 70.66 173.37 0.91 180.35 0 253.63 6.72 326.9 9.22 400.2 8.45 420.89 7.15 426.79 6.74 433.52 6.33 475.94 3.56 475.43 80.04 475.36 154.09 469.83 224.84" style="fill:#ff8864"/><polygon points="120.16 97.47 122.99 109.77 84.11 116.67 81.95 104.21 120.16 97.47" style="fill:#bc5b3c"/><polygon points="421.18 109.21 364.21 116.75 307.26 111.92 251.91 105.07 195.51 117.32 139.24 106.94 128.13 108.85 126.39 96.39 139.27 94.15 195.28 104.45 251.34 92.28 308.63 99.39 363.89 104.04 419.53 96.67 421.18 109.21" style="fill:#bc5b3c"/><polygon points="128.33 132.75 131.16 145.12 83.78 151.59 82.13 139.04 128.33 132.75" style="fill:#bc5b3c"/><polygon points="421.37 141.77 419.15 154.22 363.65 144.51 308.03 147.09 251.31 145.46 195.61 147.36 139.41 144.04 133.27 144.88 131.53 132.33 138.94 131.34 195.72 134.74 251.34 132.84 307.96 134.55 364.43 131.81 421.37 141.77" style="fill:#bc5b3c"/><polygon points="307.52 194.7 251.18 186.06 195.69 189.76 138.75 192.32 81.98 184.11 83.79 171.62 139.38 179.66 194.99 177.17 251.72 173.37 307.79 181.98 363.95 175.65 420.91 182.34 419.44 194.87 363.92 188.35 307.52 194.7" style="fill:#bc5b3c"/><polygon points="278.37 229.81 224.29 226.2 171.47 227.67 171.13 215.06 224.55 213.6 278.58 217.21 331.38 215.37 331.82 227.98 278.37 229.81" style="fill:#bc5b3c"/><polygon points="307.43 272.37 250.93 262.94 195.45 265.93 139.09 267.56 82.54 265.98 82.89 253.37 139.08 254.94 194.93 253.32 251.64 250.26 307.55 259.59 363.54 251.31 420.5 255.6 419.55 268.18 364.01 264 307.43 272.37" style="fill:#bc5b3c"/><polygon points="418.65 312.81 363.27 301.31 307.87 305.23 251.35 311.87 194.61 308.16 138.43 311.92 81.48 301.27 83.8 288.86 139.19 299.22 194.6 295.57 251.02 299.2 306.69 292.67 364.13 288.6 421.21 300.45 418.65 312.81" style="fill:#bc5b3c"/><polygon points="166.75 345.04 110.02 340.64 111 328.06 167.26 332.44 223.01 332.52 279.04 330.42 335.58 330.25 391.74 328.69 392.09 341.3 335.78 342.87 279.3 343.04 223.23 345.14 166.75 345.04" style="fill:#bc5b3c"/><polygon points="251.42 389.11 194.64 387.2 138.21 378.49 82.52 378.88 82.44 366.26 139.14 365.85 195.82 374.66 251.24 376.51 306.86 372.92 363.46 365.2 420.48 371.54 419.09 384.08 363.62 377.92 308.1 385.47 251.42 389.11" style="fill:#bc5b3c"/><polygon points="363.44 429.07 307.08 418.66 251.21 427.23 194.35 423.3 138.38 416.92 82.69 419.5 82.1 406.89 138.81 404.27 195.49 410.74 250.68 414.55 307.28 405.86 363.42 416.24 418.54 405.83 420.89 418.22 363.44 429.07" style="fill:#bc5b3c"/><polygon points="251.33 465.18 184.65 464.59 118.49 464.71 118.46 452.09 184.7 451.97 250.98 452.57 316.79 448.3 383.62 450.21 383.26 462.83 317 460.9 251.33 465.18" style="fill:#bc5b3c"/></svg>