<svg id="Ebene_1" data-name="Ebene 1" xmlns="http://www.w3.org/2000/svg" viewBox="0 0 519.86 600"><path id="background" d="M299.75,600,40.07,449.79l.25-300L300.25,0,559.93,150.21l-.25,300Z" transform="translate(-40.07)" style="fill:#f2784b"/><g id="Geschichte"><path d="M299.85,481.67l-157.25-91L142.75,209l157.4-90.71,157.25,91L457.25,391ZM161.58,379.76l138.29,80L438.29,380l.13-159.75-138.29-80L161.71,220Z" transform="translate(-40.07)" style="fill:#f6f5f5"/><rect x="212.85" y="284.07" width="10.22" height="54.1" style="fill:#f6f5f5"/><rect x="254.02" y="284.07" width="10.22" height="54.1" style="fill:#f6f5f5"/><rect x="296.4" y="284.07" width="10.22" height="54.1" style="fill:#f6f5f5"/><rect x="198.15" y="272.82" width="123.03" height="3.58" style="fill:#f6f5f5"/><rect x="197.63" y="345.84" width="123.03" height="3.58" style="fill:#f6f5f5"/><path d="M373.09,265.12H227.53l71.17-41.94ZM265,254.91h69.17L298.81,235Z" transform="translate(-40.07)" style="fill:#f6f5f5"/><rect x="183.7" y="357.11" width="152.46" height="10.22" style="fill:#f6f5f5"/></g></svg>