<svg id="Ebene_1" data-name="Ebene 1" xmlns="http://www.w3.org/2000/svg" viewBox="0 0 600 416.32"><path d="M296,91.84c-24.06,0-43.57,15-43.57,33.45a27.86,27.86,0,0,0,6.78,17.86,30.78,30.78,0,0,1,4.48-1.91c15.18-5.06,21.12,3.55,35,5.58,13,1.9,23.71-5.48,35.89-6a27.33,27.33,0,0,0,5-15.54C339.56,106.82,320.05,91.84,296,91.84Z" transform="translate(0 -91.84)" style="fill:#bc5b3c"/><path d="M298.66,146.82c-13.87-2-19.81-10.64-35-5.58a30.78,30.78,0,0,0-4.48,1.91c7.72,9.36,21.3,15.59,36.79,15.59,16.75,0,31.28-7.26,38.57-17.91C322.37,141.34,311.67,148.72,298.66,146.82Z" transform="translate(0 -91.84)" style="fill:#d66745"/><g style="opacity:0.4"><path d="M296.68,97.67c-4-.51-5.94,3.54-3.3,7.6,3.3,4,21.12,8.61,27.06,6.08,15.84-7.6-11.22-14.19-18.48-15.2Z" transform="translate(0 -91.84)" style="fill:#bc5b3c"/></g><path d="M548,219a202.36,202.36,0,0,0-44.51-17.81,219.84,219.84,0,0,0-67.92-6.94,271.84,271.84,0,0,0-50,7.29c-6.12,1.47-12.07,3.08-17.77,4.81a332.75,332.75,0,0,0-72.85,32c-6.58-4.14-33.44-20.1-71.1-31.75a302.34,302.34,0,0,0-29.94-7.66,256.38,256.38,0,0,0-56.51-5.1,213.26,213.26,0,0,0-57,9A205,205,0,0,0,41.67,219s-87.74,97.6,59.47,202.77c0,0,31.14,19.78,42.34,0S162.82,402,162.82,402s81.64,70.78,131-3.06l.15-8.81,1.56-.21.29,9c49.36,73.84,131,3.06,131,3.06s8.15,0,19.35,19.78,42.33,0,42.33,0c20.74-15,37.23-29.37,50.25-43.07C631.22,281.56,548,219,548,219ZM126.4,338.89c3.39,10,8.37,30.77,14.57,43.89C134.77,369.66,129.79,348.93,126.4,338.89Z" transform="translate(0 -91.84)" style="fill:#8c4b37"/><path d="M238.51,198.81l-27.62-8c-37.42-13.9-74-11.76-74-11.76-2.4-.13-4.7-.16-7-.21-36.93,10.36-51.65,42.88-54.25,70.78-2.78,46,13.93,95.16,39,136.86,6.75,13.32,17.48,25.61,27.62,37.94,18.88-7.4,33.67-22.43,33.67-22.43-26.47-47-39-77.52-34.82-127.78,1.39-29.94,5.57-68.43,50.14-78.05,6-2,23.82-.7,37.81,1.34Z" transform="translate(0 -91.84)" style="fill:#d66745"/><path d="M1.77,312.74C12.35,363.52,87,422,117.8,428c-7.64-4.47-14.28-9.76-21.31-15.77-44.57-40.63-68.25-83.4-66.86-137.93,1.07-39.45,41.68-89.6,100.21-95.37C23.34,174.49-8.3,264.42,1.77,312.74Z" transform="translate(0 -91.84)" style="fill:#d66745"/><path d="M71.31,494.78c0,7.39,9.26,13.38,20.67,13.38H501c11.41,0,20.66-6,20.66-13.38V415.41c0-20.17-9.25-13.38-20.66-13.38H92c-11.41,0-20.67-9.56-20.67,13.38Z" transform="translate(0 -91.84)" style="fill:#d66745"/><path d="M354.69,199.53l24.75-8.68c37.42-13.9,74-11.76,74-11.76,2.4-.13,13.12-.16,15.45-.21,36.94,10.36,43.24,42.88,45.84,70.78,2.78,46-13.93,95.16-39,136.86-6.75,13.32-17.48,25.61-27.62,37.94-18.88-7.4-33.67-22.43-33.67-22.43,26.47-47,39-77.52,34.82-127.78-1.39-29.94-5.57-68.43-50.14-78.05-6-2-23.82-.7-37.81,1.34Z" transform="translate(0 -91.84)" style="fill:#d66745"/><path d="M597,312.74C586.39,363.52,511.77,422,481,428c7.64-4.47,14.27-9.76,21.31-15.77,44.57-40.63,68.25-83.4,66.86-137.93-1.07-39.45-14.06-86.47-100.22-95.37C598.39,173.71,607.05,264.42,597,312.74Z" transform="translate(0 -91.84)" style="fill:#d66745"/><path d="M310.31,400.67c21.65-42.17,49.82-91,49.82-137,0-42.71,0-96.66-54.32-111.27H284.52C230.2,167,230.2,220.92,230.2,263.63a213.32,213.32,0,0,0,48.1,135.48S296.85,426.89,310.31,400.67Z" transform="translate(0 -91.84)" style="fill:#d66745"/><path d="M501,402a27,27,0,0,0,4,.63,38.25,38.25,0,0,0,11.38-.56,27.67,27.67,0,0,0,14.14-7.45,64.46,64.46,0,0,0,5.7-7.16q2.85-3.92,6-8.24c4.08-5.78,8.38-12.09,12.55-18.9s8.26-14.09,12.39-21.64A208,208,0,0,0,578,314.93c1.72-4.08,2.76-8.31,4.15-12.5.93-4.24,2.23-8.48,2.7-12.77,1.75-8.55,1.44-17.15.32-25.5a180.2,180.2,0,0,0-5.82-24.77,77.45,77.45,0,0,0-10.66-21.62,66,66,0,0,0-17-16c-3-2.26-6.47-3.94-9.46-5.81-3.24-1.61-6.23-3.28-9.23-4.61l-8.47-3.66-7.43-2.8c-4.49-1.7-8.16-2.8-10.6-3.67l-3.77-1.28,3.9,1c2.52.72,6.36,1.5,11,3l7.72,2.43,8.89,3.26c3.16,1.2,6.35,2.74,9.82,4.22,3.24,1.76,6.84,3.44,10.13,5.67A70.53,70.53,0,0,1,585,238.24a183.38,183.38,0,0,1,6.39,25.2c1.37,8.84,1.84,18,.15,26.86-.58,4.48-2,8.83-3,13.21-1.5,4.3-2.67,8.65-4.5,12.8a209.39,209.39,0,0,1-11.39,24.13c-8.43,15.33-18.29,28.88-27.07,40.27-4.55,5.7-8.39,10.82-13.07,15.18a30.76,30.76,0,0,1-15.79,7.19,36.36,36.36,0,0,1-11.73-.14A26.85,26.85,0,0,1,501,402Z" transform="translate(0 -91.84)" style="fill:#bc5b3c"/><path d="M92,402l17.57-.51c11.19-.21,27.17-.72,46.34-1s41.55-.7,65.51-.8l75.1-.35,75.11.34c24,.09,46.34.59,65.51.8s35.15.76,46.34,1L501,402l-17.58.51c-11.19.21-27.16.73-46.34,1s-41.54.71-65.51.8l-75.11.35-75.1-.35c-24-.1-46.33-.59-65.51-.8s-35.15-.75-46.34-1Z" transform="translate(0 -91.84)" style="fill:#bc5b3c"/><path d="M46.08,210.43l-6.3,8.09A51.86,51.86,0,0,0,33.17,228l-3.46,6c-.57,1.07-1.32,2.1-1.85,3.24l-1.45,3.56-3.09,7.53c-1.15,2.58-1.44,5.44-2.23,8.26-1.75,5.64-1.92,11.77-2.64,18-.21,3.14.11,6.36.14,9.6a61.87,61.87,0,0,0,.93,9.8c.65,6.61,2.48,13.23,4.25,19.83l3.2,9.81,3.9,9.6c2.84,6.29,5.7,12.49,8.94,18.35s6.43,11.53,9.65,16.85,6.28,10.54,9.28,14.84c1.69,2.19,3,4.54,4.8,6.31s3.43,3.46,5.27,4.89c2,1.25,3.83,2.61,5.74,3.57,2,.8,3.8,1.72,5.59,2.24A42.92,42.92,0,0,0,88.78,402a29.76,29.76,0,0,0,3.2,0,30,30,0,0,1-3.21.24,39.11,39.11,0,0,1-9.07-1c-1.92-.41-3.87-1.24-6.11-1.95-2.11-.88-4.14-2.16-6.48-3.37-2.14-1.39-4.08-3.19-6.33-5s-3.45-4-5.34-6.18c-3.62-4.61-6.71-9.4-10.45-14.65s-7.32-10.79-10.7-16.72a202.83,202.83,0,0,1-9.67-18.55q-2-4.87-4.1-9.81-1.69-5-3.4-10.07c-1.76-6.82-3.55-13.64-4.16-20.5a52.91,52.91,0,0,1-.71-10.17c.09-3.36-.12-6.69.21-10,.87-6.51,1.59-12.81,3.77-18.59,1-2.89,1.52-5.8,2.89-8.42l3.7-7.62c2-5,5.71-9,8.16-12.74a56.73,56.73,0,0,1,7.7-9.07Z" transform="translate(0 -91.84)" style="fill:#bc5b3c"/><path d="M181.79,182.82a80.1,80.1,0,0,0-14.17,1,88,88,0,0,0-15.43,3.72,69.07,69.07,0,0,0-17,9,52.39,52.39,0,0,0-13.54,15.41c-1.36,3.17-3.3,6.26-4.09,9.75-.52,1.7-1.06,3.42-1.6,5.16q-.51,2.69-1,5.42a121.32,121.32,0,0,0-1.83,22.71,212,212,0,0,0,1.37,23.62c.72,7.91,1.71,15.83,3.08,23.58,1.22,7.77,2.88,15.38,4.61,22.72s3.59,14.4,5.39,21.11c2,6.66,3.9,13,6,18.71s4.12,11,6,15.62a122.32,122.32,0,0,0,5.68,11.78,70,70,0,0,0,4.38,7.37L151.3,402l-2-2.44a56.76,56.76,0,0,1-5.26-7.08A131.31,131.31,0,0,1,137.2,381a167.18,167.18,0,0,1-7.34-15.45c-2.47-5.73-4.76-12-7.17-18.67-2.21-6.68-4.58-13.75-6.37-21.15s-3.72-15.06-5.1-22.9C109.68,295,108.5,287,107.65,279a215.61,215.61,0,0,1-.93-24,126.72,126.72,0,0,1,2.34-23.36c.39-1.88.79-3.75,1.18-5.6.64-1.83,1.29-3.64,1.92-5.43,1-3.62,3.3-6.9,5-10.19a58.13,58.13,0,0,1,15.44-16,66.71,66.71,0,0,1,18.67-8.6,92.2,92.2,0,0,1,16.2-2.93,81.75,81.75,0,0,1,10.64-.24C180.51,182.65,181.79,182.82,181.79,182.82Z" transform="translate(0 -91.84)" style="fill:#bc5b3c"/><path d="M420.69,182.82s1.29-.17,3.74-.26a81.75,81.75,0,0,1,10.64.24,92.2,92.2,0,0,1,16.2,2.93,66.71,66.71,0,0,1,18.67,8.6,58.13,58.13,0,0,1,15.44,16c1.65,3.29,3.9,6.57,4.95,10.19l1.92,5.43q.58,2.77,1.18,5.6a126.72,126.72,0,0,1,2.34,23.36,215.61,215.61,0,0,1-.93,24c-.86,8-2,16-3.57,23.86-1.38,7.84-3.22,15.5-5.1,22.9s-4.16,14.47-6.37,21.15c-2.41,6.66-4.7,12.94-7.18,18.67A164.71,164.71,0,0,1,465.29,381a131.31,131.31,0,0,1-6.86,11.53,56.76,56.76,0,0,1-5.26,7.08l-2,2.44,1.67-2.58a70,70,0,0,0,4.38-7.37,124.73,124.73,0,0,0,5.68-11.78c1.91-4.62,4-9.86,6-15.62s4-12.05,6-18.71c1.8-6.71,3.64-13.78,5.39-21.11s3.39-14.95,4.61-22.72c1.37-7.75,2.36-15.67,3.08-23.58a212,212,0,0,0,1.37-23.62,121.32,121.32,0,0,0-1.83-22.71q-.51-2.73-1-5.42c-.54-1.74-1.08-3.46-1.6-5.16-.79-3.49-2.74-6.58-4.09-9.75a52.53,52.53,0,0,0-13.54-15.41,69.24,69.24,0,0,0-17-9,88,88,0,0,0-15.43-3.72A80.2,80.2,0,0,0,420.69,182.82Z" transform="translate(0 -91.84)" style="fill:#bc5b3c"/><path d="M229,197.54l9.56,1-.19.56-27.94-7.33-.11,0c-5.94-1.64-11.63-3.73-17.72-5l-9-2c-3.06-.54-6.15-1-9.22-1.47s-6.18-.83-9.29-1.13-6.22-.64-9.35-.74-6.25-.33-9.37-.31-6.28,0-9.25.16h-.4l-6.93-.13,1.08-.13c-5.44,1.77-10.85,3.69-15.5,6.54A61.28,61.28,0,0,0,102.61,197a69.21,69.21,0,0,0-9.69,11.55,80.14,80.14,0,0,0-6.82,12.81A100.78,100.78,0,0,0,79,248.65c-.32,4.37-.22,9.4-.36,14.06-.29,4.8.43,9.41.72,14.1l.56,7c.31,2.34.77,4.67,1.15,7,.9,4.66,1.34,9.38,2.52,14l3.28,13.94,4.28,13.8c1.29,4.63,3.31,9.11,5,13.67s3.41,9.11,5.52,13.56,3.81,9,6.18,13.42l6.74,13.29-8-12.89c-2.72-4.29-4.8-8.78-7.23-13.17a142.52,142.52,0,0,1-6.54-13.39c-1.92-4.54-4.17-9-5.69-13.64l-5-13.82-4-14c-1.46-4.66-2-9.45-3-14.18-.42-2.38-.92-4.74-1.27-7.13l-.69-7.21c-.37-4.8-1.16-9.66-1-14.38s-.13-9.33.16-14.44a90.92,90.92,0,0,1,7.31-28.51,84.47,84.47,0,0,1,7.42-13.48A75.36,75.36,0,0,1,97.77,194a68.25,68.25,0,0,1,14-10.18c5.13-3,11.09-5.13,17.06-7a3.33,3.33,0,0,1,1.08-.13l7.14.28h-.4c3.38-.08,6.57-.06,9.82.09s6.45.32,9.66.59,6.4.6,9.57,1,6.37.77,9.48,1.42,6.27,1.12,9.38,1.77l9.16,2.32a71.29,71.29,0,0,1,8.94,2.75l8.77,3.07-.11,0,27.3,8.61c.2.05.31.22.24.37a.45.45,0,0,1-.44.19Z" transform="translate(0 -91.84)" style="fill:#bc5b3c"/><path d="M361.32,197.54l-6.52,2.2a.32.32,0,0,1-.38-.11c-.07-.11,0-.25.15-.3l23.18-8.86c4-1.45,7.86-2.77,11.79-4.16a47.57,47.57,0,0,1,6-1.87l6.25-1.59c2.09-.5,4.15-1.14,6.29-1.47l6.37-1.18c4.22-.89,8.55-1.33,12.86-1.9s8.69-.79,13-1.14c4.41-.19,8.72-.37,13.28-.23h-.4l15.55-.32h.1a3.29,3.29,0,0,1,1,.14c5.54,1.72,11.05,3.69,15.77,6.59a55.41,55.41,0,0,1,12.56,9.87,59.41,59.41,0,0,1,8.6,12A73.82,73.82,0,0,1,512.38,218c2.83,8.71,4.12,17.58,5.07,26.37.15,2.26.53,4.26.49,6.74l0,6.57a99.46,99.46,0,0,1-.41,13.22c-.47,4.42-.47,8.91-1.34,13.27-.69,4.38-1.44,8.76-2.3,13.13l-3.3,13c-1.1,4.32-2.7,8.56-4,12.84s-3,8.5-4.68,12.7-3.41,8.4-5.49,12.5-3.83,8.28-6.09,12.32l-6.78,12.09,5.54-12.45c1.93-4.11,3.36-8.36,5.07-12.52s3.09-8.41,4.45-12.65,3-8.43,4-12.72,2.5-8.5,3.37-12.81l2.62-12.9,1.79-13c.79-4.32.7-8.63,1.09-12.94a95.93,95.93,0,0,0,.21-13l-.15-6.57c0-1.91-.4-4.27-.58-6.38-.55-4.32-1.13-8.64-2-12.9a125.08,125.08,0,0,0-3.17-12.65,68.71,68.71,0,0,0-5-12.14A54.57,54.57,0,0,0,493.1,196a49.28,49.28,0,0,0-11.13-9A62.33,62.33,0,0,0,467.89,181l1.1.14-15.34.09h-.41c-4.06-.24-8.37-.21-12.59-.14-4.23.22-8.5.28-12.7.75s-8.47.74-12.62,1.49l-6.26,1c-2.12.26-4.1.82-6.14,1.24-4.05,1-8.2,1.6-12.2,2.94-4,1.19-8.1,2.36-12,3.58l-23.88,7.67-.23-.42Z" transform="translate(0 -91.84)" style="fill:#bc5b3c"/><path d="M330.14,362.14c3.9-9.06,7.87-18.1,11.38-27.23,1.65-4.59,3.54-9.12,4.92-13.76,1.55-4.6,3.17-9.18,4.34-13.84l1.93-6.95,1.45-7a122.53,122.53,0,0,0,2.18-14.06c.83-4.68.42-9.41.8-14.1.12-4.71,0-9.53-.09-14.26a282.38,282.38,0,0,0-1.74-28.38c-.66-4.69-1.33-9.37-2.43-14a66.28,66.28,0,0,0-1.8-6.88,55.36,55.36,0,0,0-2.25-6.77,68.22,68.22,0,0,0-6.2-13,58.6,58.6,0,0,0-9.29-11.68,61,61,0,0,0-12.79-9.37c-2.53-1.17-4.91-2.55-7.57-3.56l-8.16-2.76,1,.13-21.29-.12.94-.13-6.84,2.06-6.5,2.62-6.05,3.19c-1.83,1.25-3.76,2.42-5.52,3.73s-3.44,2.71-4.94,4.22-3.11,3-4.36,4.61a55.13,55.13,0,0,0-3.77,4.94,53.27,53.27,0,0,0-3.25,5.18,85.46,85.46,0,0,0-5.17,10.86,99.94,99.94,0,0,0-3.68,11.3,184.92,184.92,0,0,0-4.33,23.17,140.71,140.71,0,0,1,2.38-23.44,98.39,98.39,0,0,1,2.91-11.6,68.55,68.55,0,0,1,4.59-11.34,57.75,57.75,0,0,1,3.13-5.47,54.82,54.82,0,0,1,3.73-5.27,63.84,63.84,0,0,1,4.39-5c1.52-1.64,3.39-3.08,5.07-4.63s3.84-2.78,5.76-4.18l6.39-3.61,6.9-3,7.29-2.41a2.34,2.34,0,0,1,.74-.12h.19l21.29-.12H306a2.28,2.28,0,0,1,.84.13l8.94,2.93c2.92,1.07,5.57,2.56,8.37,3.83a66.77,66.77,0,0,1,14.21,10.18,63.88,63.88,0,0,1,10.27,12.57,72.2,72.2,0,0,1,6.78,13.75,48,48,0,0,1,2.31,7.09,67.93,67.93,0,0,1,1.76,7.16c1.07,4.78,1.68,9.59,2.29,14.39a286.31,286.31,0,0,1,1.35,28.78c0,4.8.07,9.52-.12,14.35-.4,4.82-.35,9.68-1.35,14.44A129.31,129.31,0,0,1,358.74,294L357,301l-2.26,7c-1.4,4.68-3.21,9.26-5,13.85s-3.95,9.08-5.94,13.61C339.57,344.48,335,353.36,330.14,362.14Z" transform="translate(0 -91.84)" style="fill:#bc5b3c"/><path d="M294.06,384.93l.84-.1c.17,0,.3-.1.46-.13l-.85-26.77Z" transform="translate(0 -91.84)" style="fill:none"/><path d="M128.52,474.2c-10.11-11.64-20.22-15.91-30.86-11.27v9.37c0,4.86,5.13,8.81,11.47,8.81h26.43c6.33,0,11.47-3.95,11.47-8.81v-5.12C142.79,466.37,137.92,468.53,128.52,474.2Z" transform="translate(0 -91.84)" style="fill:#8c4b37"/><path d="M135.56,443.21H109.13c-6.34,0-11.47,3.94-11.47,8.8v10.92c10.64-4.64,20.75-.37,30.86,11.27,9.4-5.67,14.27-7.83,18.51-7V452C147,447.15,141.89,443.21,135.56,443.21Z" transform="translate(0 -91.84)" style="fill:#8c4b37"/><path d="M125.86,447.18c-11.4,2.19-1.13,13.14,7.42,11.38,11.41-2.19,0-9.19-6.85-10.5Z" transform="translate(0 -91.84)" style="fill:#8c4b37"/><path d="M319.81,461.94V452c0-4.86-5.14-8.8-11.47-8.8H281.91c-6.33,0-11.47,3.94-11.47,8.8v12.27c6.29.67,12,3.9,19.9,4.58C305.28,470.39,312.39,468.55,319.81,461.94Z" transform="translate(0 -91.84)" style="fill:#8c4b37"/><path d="M290.34,468.86c-7.92-.68-13.61-3.91-19.9-4.58v8c0,4.86,5.14,8.81,11.47,8.81h26.43c6.33,0,11.47-3.95,11.47-8.81V461.94C312.39,468.55,305.28,470.39,290.34,468.86Z" transform="translate(0 -91.84)" style="fill:#8c4b37"/><path d="M294,447.16c-9.56.67-19.47,3.79-18.08,8.78,2.85,9.63,14.83-2.63,19.39-3.07,2.29,0,21.11,7.45,14.84-2.63C308.46,447.58,301.32,446.65,294,447.16Z" transform="translate(0 -91.84)" style="fill:#8c4b37"/><path d="M461.8,474.2c10.11-11.64,20.23-15.91,30.87-11.27v9.37c0,4.86-5.13,8.81-11.47,8.81H454.78c-6.34,0-11.47-3.95-11.47-8.81v-5.12C447.54,466.37,452.41,468.53,461.8,474.2Z" transform="translate(0 -91.84)" style="fill:#8c4b37"/><path d="M454.78,443.21H481.2c6.34,0,11.47,3.94,11.47,8.8v10.92c-10.64-4.64-20.76-.37-30.87,11.27-9.39-5.67-14.26-7.83-18.49-7V452C443.31,447.15,448.44,443.21,454.78,443.21Z" transform="translate(0 -91.84)" style="fill:#8c4b37"/><path d="M463.56,448.93c-7.41-1.31-13.12,10.07.57,8.76,12-1.32,20.54-11.82,2.85-9.2Z" transform="translate(0 -91.84)" style="fill:#8c4b37"/><circle cx="202.94" cy="370.62" r="17.34" style="fill:#f2784b"/><circle cx="391.38" cy="370.62" r="17.34" style="fill:#f2784b"/><circle cx="296.4" cy="233.66" r="14.09" style="fill:#f2784b"/><circle cx="296.4" cy="172.38" r="22.67" style="fill:#f2784b"/><circle cx="296.4" cy="111.1" r="14.09" style="fill:#f2784b"/><circle cx="256.46" cy="28.18" r="6.03" style="fill:#f2784b"/><circle cx="276.2" cy="28.18" r="6.03" style="fill:#f2784b"/><circle cx="295.95" cy="28.18" r="6.03" style="fill:#f2784b"/><circle cx="315.7" cy="28.18" r="6.03" style="fill:#f2784b"/><circle cx="335.45" cy="28.18" r="6.03" style="fill:#f2784b"/></svg>