<svg id="Ebene_1" data-name="Ebene 1" xmlns="http://www.w3.org/2000/svg" viewBox="0 0 565.23 600"><polygon points="458.52 287.6 446.9 287.6 446.9 365.31 444.63 365.31 337.91 287.6 326.3 287.6 326.3 365.15 219.79 287.6 208.18 287.6 208.18 365.31 0 365.31 0 600 565.23 600 565.23 365.31 458.52 287.6" style="fill:#f2784b"/><polygon points="166.31 365.31 139.63 90.48 68.45 90.48 41.78 365.31 166.31 365.31" style="fill:#d66745"/><rect x="177.63" y="416.99" width="81.58" height="37.07" style="fill:#f6f6f6"/><rect x="308.81" y="509.42" width="86.72" height="90.58" style="fill:#d66745"/><rect x="428.41" y="509.42" width="86.72" height="90.58" style="fill:#d66745"/><rect x="50.95" y="416.99" width="81.58" height="37.07" style="fill:#f6f6f6"/><rect x="430.99" y="416.99" width="81.58" height="37.07" style="fill:#f6f6f6"/><rect x="304.31" y="416.99" width="81.58" height="37.07" style="fill:#f6f6f6"/><polygon points="60.12 176.35 57.36 204.71 150.72 204.71 147.97 176.35 60.12 176.35" style="fill:#f2784b"/><polygon points="145.5 150.92 142.96 124.77 65.12 124.77 62.59 150.92 145.5 150.92" style="fill:#f2784b"/><path d="M118.52,79.79s31.72-23,67.44-8.41,56.24,55,130.13,45S418.72,30.65,418.72,30.65,363.59,71.26,329,60.12,265.66-2.63,202.91.3,118.52,79.79,118.52,79.79Z" transform="translate(-17.48 -0.18)" style="fill:#ccc"/></svg>