<svg id="Ebene_1" data-name="Ebene 1" xmlns="http://www.w3.org/2000/svg" viewBox="0 0 431.92 600"><path d="M382,321c0,4.72-.17,9.39-.51,14q-.21,3.12-.54,6.2c-.08.83-.17,1.65-.27,2.47-.12,1.06-.26,2.1-.4,3.14-.11.82-.22,1.64-.35,2.46-.14,1-.3,2-.47,3-.2,1.22-.41,2.43-.64,3.63a168.09,168.09,0,0,1-6.41,24.39c-.35,1-.71,2-1.08,3.05-.08.23-.17.45-.25.68-.23.61-.46,1.22-.7,1.82-.17.45-.34.9-.52,1.35-.38,1-.78,1.93-1.18,2.88-.91,2.13-1.85,4.22-2.84,6.26-1.08,2.26-2.22,4.47-3.4,6.61-6.76,12.3-15,22.64-24.34,30.39a75.75,75.75,0,0,1-8.91,6.41H265.81a75.3,75.3,0,0,1-8.84-6.35c-26.2-21.74-44-63.9-44-112.34,0-24.41,4.51-47.23,12.34-66.64a136.1,136.1,0,0,1,11.78-22.9c1.16-1.81,2.37-3.57,3.61-5.27C250.36,213,262,203,274.92,197.62l.26-.11a61.66,61.66,0,0,1,6.89-2.38c.68-.19,1.36-.37,2.05-.53,1.57-.38,3.15-.7,4.75-.94a56.79,56.79,0,0,1,21.47.81,57.86,57.86,0,0,1,7,2.08c.83.3,1.66.62,2.48,1,13,5.39,24.79,15.38,34.5,28.74q1.86,2.56,3.61,5.29c8.56,13.27,15.23,29.34,19.35,47.22.44,1.88.85,3.77,1.22,5.69A189.49,189.49,0,0,1,382,321Z" transform="translate(-84.04)" style="fill:#f6f6f6"/><path d="M253.28,39.64A60.5,60.5,0,1,0,196.48,121c.71,0,1.44,0,2.16,0a55.61,55.61,0,0,0,7.35-.72c.43-.06.85-.14,1.29-.22a59.07,59.07,0,0,0,12.5-3.68c1.53-.64,3-1.33,4.44-2.08a60.53,60.53,0,0,0,29.06-74.62Zm-56.8,69.82a49,49,0,1,1,44.29-69.82,48.38,48.38,0,0,1,4.68,20.85A49,49,0,0,1,196.48,109.46Z" transform="translate(-84.04)" style="fill:#e6e6e6"/><path d="M169.93,408.83c-31-3.56-59.47-9.05-84.77-16.37C84.41,382.5,84,373,84,363.6a381.45,381.45,0,0,1,6.67-71.38,554.44,554.44,0,0,0,82.74,14.84A702.41,702.41,0,0,0,169.93,408.83Z" transform="translate(-84.04)" style="fill:#f2784b"/><path d="M174.78,295.61a541.5,541.5,0,0,1-81.73-14.7c7.82-34.81,20.64-67,37.3-93.72a641.12,641.12,0,0,0,64,8A751.09,751.09,0,0,0,174.78,295.61Z" transform="translate(-84.04)" style="fill:#f2784b"/><path d="M170.32,587.3c-17.9-15.23-34.14-35.88-47.43-60.25a616.64,616.64,0,0,0,64.36,8.84c4.29,17.86,9.27,35.1,14.84,51.41Z" transform="translate(-84.04)" style="fill:#f2784b"/><path d="M184.53,524.07a591.83,591.83,0,0,1-68.34-10.13C100.72,481.56,90.44,444,86.27,404.76c25.33,7,53.59,12.31,84.2,15.73A654.41,654.41,0,0,0,184.53,524.07Z" transform="translate(-84.04)" style="fill:#f2784b"/><path d="M197.45,183.9c-20.87-1.53-41-4-60.15-7.2,23.46-33.42,52.81-56,84.11-64.68C212.27,135.75,204.23,159.86,197.45,183.9Z" transform="translate(-84.04)" style="fill:#f2784b"/><path d="M251.22,185.86c-13.92,0-28-.39-42-1.2,7.23-25.28,15.86-50.65,25.7-75.54a106.85,106.85,0,0,1,16.31-1.26,112.09,112.09,0,0,1,23.59,2.57,775.61,775.61,0,0,1,24.7,73.86C283.55,185.33,267.35,185.86,251.22,185.86Z" transform="translate(-84.04)" style="fill:#d66745"/><path d="M251.22,299.61c-21.88,0-43.69-1-65-2.88A741.37,741.37,0,0,1,206.06,196c15,.91,30.21,1.37,45.16,1.37,17.15,0,34.4-.6,51.36-1.76a705.39,705.39,0,0,1,18.74,100.63C298.5,298.49,275,299.61,251.22,299.61Z" transform="translate(-84.04)" style="fill:#d66745"/><path d="M251.22,527.12c-18.24,0-36.61-.69-54.66-2a639.78,639.78,0,0,1-14.45-103.39c22.55,2.12,45.76,3.21,69.11,3.21,24.54,0,48.81-1.17,72.23-3.49A623.12,623.12,0,0,1,306.51,525C288.25,526.4,269.67,527.12,251.22,527.12Z" transform="translate(-84.04)" style="fill:#d66745"/><path d="M251.22,413.37c-23.56,0-47-1.12-69.71-3.32a689.86,689.86,0,0,1,3.42-101.87c21.71,2,44,3,66.29,3,24.12,0,48.08-1.15,71.3-3.41a662.69,662.69,0,0,1,1.74,102A723,723,0,0,1,251.22,413.37Z" transform="translate(-84.04)" style="fill:#d66745"/><path d="M214.3,587.3c-5.59-16-10.62-32.89-15-50.45,17.15,1.19,34.57,1.79,51.87,1.79s34.92-.6,52.18-1.82c-4.84,17.58-10.35,34.52-16.48,50.48Z" transform="translate(-84.04)" style="fill:#d66745"/><path d="M311.24,183.42c-6.35-23-13.91-46.17-22.58-69,28.6,10,54.74,31.32,76.44,62.34C347.9,179.63,329.83,181.89,311.24,183.42Z" transform="translate(-84.04)" style="fill:#bc5b3c"/><path d="M335.91,408.45A676.05,676.05,0,0,0,334,306.52a550.59,550.59,0,0,0,77.76-14.3,380.9,380.9,0,0,1,6.66,71.38c0,9.43-.37,18.9-1.1,28.86A515.4,515.4,0,0,1,335.91,408.45Z" transform="translate(-84.04)" style="fill:#bc5b3c"/><path d="M332.79,295.05a718.11,718.11,0,0,0-18.53-100.32c20-1.7,39.39-4.23,57.79-7.53,16.71,26.76,29.55,59,37.33,93.71A534,534,0,0,1,332.79,295.05Z" transform="translate(-84.04)" style="fill:#bc5b3c"/><path d="M299.24,587.3c6.11-16.33,11.58-33.58,16.38-51.45a621.16,621.16,0,0,0,63.94-8.8c-13.31,24.37-29.54,45-47.44,60.25Z" transform="translate(-84.04)" style="fill:#bc5b3c"/><path d="M318.65,524a638.75,638.75,0,0,0,16.46-103.85,538.43,538.43,0,0,0,81.07-15.4C412,444,401.72,481.56,386.26,513.94A595.63,595.63,0,0,1,318.65,524Z" transform="translate(-84.04)" style="fill:#bc5b3c"/><path d="M306,56.93h74S539,166.48,513.1,460.47H490.36s30.8-177.66-66.21-304.26c-29.88-45.76-41.38-16.77-41.38-16.77l-51-37.35V88.49H306Z" transform="translate(-84.04)" style="fill:#e6e6e6"/><polygon points="249.94 587.3 239.29 600 96.92 600 86.37 587.41 86.27 587.3 249.94 587.3" style="fill:#8c4b37"/><polygon points="167.18 39.65 112.44 39.65 112.44 120.02 167.18 120.02 221.92 120.02 221.92 39.65 167.18 39.65" style="fill:#8c4b37"/></svg>