<svg id="Ebene_1" data-name="Ebene 1" xmlns="http://www.w3.org/2000/svg" viewBox="0 0 463.29 600"><path d="M480.55,398.37c-5,4.71-11.12,8.23-15.25,13.69-7,9.23-6.34,23.41,1.44,32,10.23,11.26,27.83,11,41.47,17.73,19.85,9.78,29.18,36.55,19.72,56.55-2.1-14.43-17.76-23.36-32.31-24.17s-28.73,4.15-43.1,6.58c-32.62,5.5-72.48-7.35-81.77-39.11-5-17-2.09-39.49-17.41-48.46-13-7.61-29,1-44,2.95-18.83,2.49-38.07-6.52-50.67-20.74s-19.13-33-21.4-51.88c-3.26-27.13-.53-59.81-22.54-76-5.4-4-11.84-6.43-17-10.78S189.09,245,192,239c-14.53,8.58-34.22,7.39-47.62-2.87s-19.68-29-15.19-45.23c-19.54-2.15-39.56-12.14-47.69-30s1-43.28,20.27-47.16C90.61,96,85.8,72.68,95.65,54.31s51.56-30,66.64-15.63c27.26-60.11,108-42.54,110.25,1,25.56-9.79,55.91-8.7,78.85,6.21s36.51,44.54,29.36,71c-2,7.3-5.4,14.59-4.28,22.07,2.54,16.88,24,21.51,38.95,29.71,23.12,12.65,34.8,41.31,31.41,67.45-2.67,20.59-12.81,43.61-.61,60.4,4.82,6.64,12.31,10.69,19,15.51,13.54,9.79,24.4,23.91,28.08,40.2S492.69,386.88,480.55,398.37Z" transform="translate(-68.36 0)" style="fill:#ff8864"/><path d="M390,191.91a54.4,54.4,0,0,1,29.47,44.25c.83,12.61-2.81,25-4.48,37.57s-.94,26.43,7.17,36.12c4,4.72,9.32,8,13.9,12.12,16.76,15,21.37,41.9,10.57,61.63,4.1-13.42-5.3-27.34-16.29-36.07s-24.24-15-32.86-26.06c-10.16-13.06-12.16-30.61-12.47-47.16-.25-12.74-.19-26.79-8.57-36.39-10.84-12.41-31.25-12-42.82-23.7,16.23,7.72,22.95,27.45,23.89,45.4s-2.21,36.21,1.58,53.77A70.12,70.12,0,0,0,388,356.18c11.18,7.57,25,12.29,32.57,23.47,12.53,18.53,1.71,45,11,65.31,6,13.28,21,21.92,35.49,20.56-27.19,7.93-59-5-72.95-29.68-9.9-17.52-11.28-39.31-23.4-55.37-8.83-11.72-22.38-19-32.37-29.7-15.09-16.25-20.8-39-23.7-61-1.55-11.68-2.5-23.62-6.84-34.58s-12.79-21.05-24.23-23.88A148,148,0,0,1,310.22,303c1.65,17.62.14,35.61,4.19,52.83s15.58,34.37,32.91,37.94a196.53,196.53,0,0,1-88.82-36c-21.21-15.56-39.78-36.44-46.42-61.9-3.79-14.54-3.52-29.81-2.64-44.82q1.13-18.94,3.49-37.8c.8-6.42,1.57-13.5-2.07-18.85-7.49-11-24.33-5.14-37.63-5.69a34.83,34.83,0,0,1-30.86-23.38c-4.32-13.27-.21-28.15-4.37-41.46-2.23-7.14-6.76-13.52-8-20.88-3.2-18.54,16-34.39,34.71-36.42,7.81-.85,16.06-.18,23.13-3.59s11.57-10,17.58-14.84c17-13.6,45.61-8.2,56.47,10.65,2.16,3.76,3.7,7.91,6.38,11.32,8.12,10.33,23.25,10.57,36.12,13.19,21.3,4.35,41.41,19.3,47,40.31,4.93,18.67-.86,41.76,13,55.2C371.24,185.5,381.31,187.61,390,191.91Z" transform="translate(-68.36 0)" style="fill:#f2784b"/><path d="M191.31,118.66c17.45-12.81,44.07-14.91,59.85-.09,9.09,8.54,13.74,21.45,24.14,28.34,13.12,8.69,32.2,5.56,43.85,16.15,6.23,5.67,8.94,14.12,13.09,21.45s11.42,14.34,19.78,13.21c-27.61,9.83-55.06-25.87-83.49-18.79-6.64,1.65-12.47,5.54-18.78,8.16-7.28,3-15.13,4.36-22.94,5.5-13.78,2-28.84,3.25-40.71-4s-17.69-22-16-35.73S180.19,126.82,191.31,118.66Z" transform="translate(-68.36 0)" style="fill:#d66745"/><path d="M179.81,216.22v-29.6a44.74,44.74,0,0,1,19.89-4.15,44.76,44.76,0,0,1,19.9,4.15v29.6Z" transform="translate(-68.36 0)" style="fill:gray"/><path d="M199.7,200.21c-67.58,0-122.38,67.76-122.38,151.34,0,33.58,9,64.5,23.91,89.6h-.15c9.77,37.77,11.16,72-6.74,98.28,34.83,36.93,69.94,55.93,105.36,56s70.54-19,105.37-56c-17.9-26.24-16.52-60.51-6.74-98.28h-.15c15-25.1,23.9-56,23.9-89.6C322.08,268,267.29,200.21,199.7,200.21Z" transform="translate(-68.36 0)" style="fill:#ccc"/><path d="M199.7,360.48c-46.91,0-93.83-11.51-103.62-23.58H303.33C293.53,349,246.62,360.48,199.7,360.48Z" transform="translate(-68.36 0)" style="fill:#4d4d4d"/><path d="M199.7,600c-1.57-.14-70.44-6.48-107.22-60.55a79.83,79.83,0,0,0,7-12.43,77.22,77.22,0,0,0,3.48-9.77c6.43-22.27,3.77-48.23-3.63-76.13h.22c-14-23.08-29.81-83.45-31.14-113.93,46.24,19,97.51,31.29,131.32,30.48h0c33.81.81,85.08-11.46,131.32-30.48C329.72,357.67,314,418,299.9,441.12h.23c-7.4,27.9-10.07,53.86-3.63,76.13A75.69,75.69,0,0,0,300,527a79.83,79.83,0,0,0,6.95,12.43C270.15,593.52,201.28,599.86,199.7,600Z" transform="translate(-68.36 0)" style="fill:#ccc"/><path d="M199.7,384.67S189,577.59,187.88,577.38c-23.76-4.24-59.92-22-88.45-50.36a77.22,77.22,0,0,0,3.48-9.77c8.21-12.35,11.31-25.15,12.13-51.79,13.46,13.47,17.83,18,59,36.85A295.66,295.66,0,0,1,107.94,436c-11.1-15.68-34.33-78.79-39.58-108.83,45.76,45.32,130.28,45.35,131.32,45.35h0c1,0,85.56,0,131.32-45.35-5.25,30-28.48,93.15-39.58,108.83a295.87,295.87,0,0,1-66.14,66.29c41.21-18.87,45.57-23.38,59-36.85.81,26.64,3.92,39.44,12.13,51.79A75.69,75.69,0,0,0,300,527c-28.53,28.38-64.69,46.12-88.45,50.36C210.39,577.59,199.71,384.67,199.7,384.67Z" transform="translate(-68.36 0)" style="fill:gray"/></svg>