<svg id="Ebene_1" data-name="Ebene 1" xmlns="http://www.w3.org/2000/svg" viewBox="0 0 600 255.82"><path d="M300.65,363.9c-101.12,0-183.09,26.32-183.09,58.8a19.6,19.6,0,0,0,.71,5.21h6.85c3.84-6.59,73.53-17.34,176.86-17.34,101.72,0,169.67,10.3,173.53,17a2.22,2.22,0,0,1,.14.32H483a19.6,19.6,0,0,0,.71-5.21C483.73,390.22,401.76,363.9,300.65,363.9Z" transform="translate(0 -172.09)" style="fill:#1e2628"/><path d="M572.86,427.91H475.65a2.22,2.22,0,0,0-.14-.32c-13.05-33.53-76.57-59.38-175.53-59.38-99.24,0-162.07,26-174.86,59.7H27s-60.79-12,0-72.73S135.19,263,158.87,231.54c16.5-21.92,70.95-64.82,140.4-58.88a160.88,160.88,0,0,1,73.1,11.09c2.27.85,4.5,1.8,6.68,2.78a.5.5,0,0,1,.2.08c1.49.64,2.94,1.32,4.37,2,.28.1.52.24.82.37,1.56.75,3.08,1.51,4.61,2.29l.81.42h0c1.47.77,2.89,1.54,4.32,2.32l.75.41c1.81,1,3.58,2.06,5.29,3.09.26.19.53.33.8.51,1.27.77,2.54,1.56,3.77,2.36h0c2.29,1.47,4.49,3,6.62,4.48,13.34,9.49,23.27,19.26,28.89,26.66,23.8,31.46,71.42,62.92,132.51,123.64S572.86,427.91,572.86,427.91Z" transform="translate(0 -172.09)" style="fill:#3c4447"/><ellipse cx="300" cy="30.57" rx="94.49" ry="30.56" style="fill:#3c4447"/><path d="M411.46,204.88l-73.92,53.86-9.53,7-.28.2-6.86-9.44-.53-.71,4.65-3.39,8.32-6.05,66.94-48.79.8.51c1.27.77,2.53,1.57,3.77,2.36h0C407.13,201.88,409.34,203.38,411.46,204.88Z" transform="translate(0 -172.09)" style="fill:#f2784b"/><path d="M400.25,197.53l.8.51L333.7,247.12l-8.33,6.06-4.5,3.29-.53-.71-6.89-9.44h0l4.72-3.44,8.29-6,62.56-45.55.81.42h0Z" transform="translate(0 -172.09)" style="fill:#f5f5f5"/><path d="M389.86,191.71l-62.77,45.77-8.28,6L314,247l-.5-.69-6.91-9.44,1-.75,9.31-6.77,60-43.67c.73.26,1.46.55,2.16.84a.7.7,0,0,1,.2.08c1.48.64,2.94,1.33,4.37,2,.29.11.53.24.82.38,1.56.75,3.08,1.52,4.61,2.29Z" transform="translate(0 -172.09)" style="fill:#bc5b3c"/><path d="M348.84,260.42l5.65-4.13a4.25,4.25,0,0,0-.54-7.18l-6.2-3.25,4.17-5.61a4.25,4.25,0,0,0-2.63-6.71l-6.87-1.27,2.33-6.59a4.24,4.24,0,0,0-4.49-5.63l-6.95.81.29-7a4.25,4.25,0,0,0-6-4.06l-6.4,2.82-1.78-6.76a4.25,4.25,0,0,0-2.86-3,4.2,4.2,0,0,0-4,.85l-5.28,4.58-3.7-5.94a4.25,4.25,0,0,0-7.21,0l-3.69,5.94-5.29-4.58a4.24,4.24,0,0,0-6.88,2.12l-1.78,6.76-6.4-2.82a4.25,4.25,0,0,0-6,4.06l.29,7-6.94-.81a4.25,4.25,0,0,0-4.5,5.63l2.34,6.59-6.88,1.27a4.25,4.25,0,0,0-2.63,6.71l4.17,5.61-6.19,3.25a4.23,4.23,0,0,0-.54,7.18l5.64,4.13-5,4.93a4.24,4.24,0,0,0,1.6,7l6.61,2.29-3.29,6.17a4.25,4.25,0,0,0,3.6,6.24l7,.23-1.32,6.87a4.25,4.25,0,0,0,5.28,4.9l6.75-1.84.75,6.95a4.26,4.26,0,0,0,2.38,3.37,4.21,4.21,0,0,0,4.11-.24l5.91-3.74,2.77,6.42a4.25,4.25,0,0,0,7.13,1.07l4.54-5.32,4.54,5.32a4.26,4.26,0,0,0,3.23,1.49,4.46,4.46,0,0,0,.63-.05,4.24,4.24,0,0,0,3.26-2.51l2.77-6.42,5.91,3.74a4.24,4.24,0,0,0,6.49-3.13l.76-6.95,6.75,1.84a4.25,4.25,0,0,0,5.28-4.9l-1.33-6.87,7-.23a4.25,4.25,0,0,0,3.6-6.24l-3.29-6.17,6.61-2.29a4.25,4.25,0,0,0,1.61-7Z" transform="translate(0 -172.09)" style="fill:#ff8864"/><path d="M330.87,259l3.57-2.64a2.74,2.74,0,0,0-.34-4.6l-3.92-2.08,2.64-3.58a2.79,2.79,0,0,0,.35-2.62,2.72,2.72,0,0,0-2-1.68l-4.35-.81,1.48-4.22a2.77,2.77,0,0,0-.43-2.6,2.67,2.67,0,0,0-2.41-1l-4.39.52.18-4.47a2.72,2.72,0,0,0-1.17-2.36,2.64,2.64,0,0,0-2.59-.24l-4.05,1.81-1.13-4.33a2.67,2.67,0,0,0-4.35-1.36l-3.34,2.93-2.34-3.79a2.66,2.66,0,0,0-4.55,0l-2.34,3.79L292,222.74a2.66,2.66,0,0,0-2.55-.54,2.69,2.69,0,0,0-1.8,1.9l-1.13,4.33-4-1.81a2.66,2.66,0,0,0-2.6.24,2.73,2.73,0,0,0-1.16,2.36l.18,4.47-4.39-.52a2.67,2.67,0,0,0-2.41,1,2.74,2.74,0,0,0-.43,2.6l1.47,4.22-4.34.81a2.72,2.72,0,0,0-2,1.68,2.76,2.76,0,0,0,.34,2.62l2.64,3.58-3.91,2.08a2.7,2.7,0,0,0-1.44,2.2,2.76,2.76,0,0,0,1.1,2.4l3.56,2.64L266,262.15a2.74,2.74,0,0,0-.72,2.53,2.68,2.68,0,0,0,1.74,2l4.17,1.46-2.07,3.95a2.75,2.75,0,0,0,0,2.64,2.67,2.67,0,0,0,2.23,1.35l4.42.15-.84,4.4a2.74,2.74,0,0,0,.81,2.5,2.65,2.65,0,0,0,2.53.63l4.27-1.17L283,287a2.71,2.71,0,0,0,1.51,2.16,2.65,2.65,0,0,0,2.6-.16l3.73-2.39,1.75,4.1a2.67,2.67,0,0,0,4.51.69L300,288l2.87,3.4a2.66,2.66,0,0,0,2,.95,1.84,1.84,0,0,0,.4,0,2.68,2.68,0,0,0,2.06-1.61l1.75-4.1,3.74,2.39a2.68,2.68,0,0,0,2.6.16A2.72,2.72,0,0,0,317,287l.48-4.44,4.26,1.17a2.64,2.64,0,0,0,2.53-.63,2.71,2.71,0,0,0,.81-2.5l-.84-4.4,4.42-.15a2.66,2.66,0,0,0,2.23-1.35,2.72,2.72,0,0,0,0-2.64l-2.08-3.95,4.18-1.46a2.72,2.72,0,0,0,1.74-2,2.75,2.75,0,0,0-.73-2.53Z" transform="translate(0 -172.09)" style="fill:#f5f5f5"/><path d="M314.62,257.67l1.69-1.25a1.32,1.32,0,0,0,.52-1.14,1.31,1.31,0,0,0-.68-1l-1.86-1,1.25-1.7a1.29,1.29,0,0,0,.17-1.24,1.31,1.31,0,0,0-.95-.8l-2.06-.38.7-2a1.3,1.3,0,0,0-.21-1.23,1.25,1.25,0,0,0-1.14-.48l-2.08.25.09-2.12a1.27,1.27,0,0,0-.56-1.11,1.24,1.24,0,0,0-1.22-.12l-1.92.86-.53-2.05a1.3,1.3,0,0,0-.86-.9,1.25,1.25,0,0,0-1.21.26l-1.58,1.38-1.1-1.79a1.26,1.26,0,0,0-2.16,0l-1.11,1.79-1.58-1.38a1.24,1.24,0,0,0-1.21-.26,1.27,1.27,0,0,0-.85.9l-.54,2.05-1.91-.86a1.26,1.26,0,0,0-1.23.12,1.28,1.28,0,0,0-.55,1.11l.08,2.12-2.08-.25a1.27,1.27,0,0,0-1.14.48,1.3,1.3,0,0,0-.2,1.23l.7,2-2.06.38a1.3,1.3,0,0,0-.79,2l1.25,1.7-1.85,1a1.28,1.28,0,0,0-.68,1,1.32,1.32,0,0,0,.51,1.14l1.69,1.25-1.48,1.49a1.33,1.33,0,0,0-.35,1.2,1.3,1.3,0,0,0,.83.93l2,.69-1,1.87a1.29,1.29,0,0,0,0,1.25,1.27,1.27,0,0,0,1.06.64l2.09.07-.4,2.08a1.31,1.31,0,0,0,.39,1.19,1.28,1.28,0,0,0,1.2.3l2-.56.22,2.11a1.3,1.3,0,0,0,.72,1,1.26,1.26,0,0,0,1.23-.08l1.76-1.13.83,1.95a1.32,1.32,0,0,0,1,.76,1.28,1.28,0,0,0,1.16-.44L300,271.4l1.36,1.61a1.24,1.24,0,0,0,1,.45h.19a1.28,1.28,0,0,0,1-.76l.83-1.95,1.77,1.13a1.26,1.26,0,0,0,1.23.08,1.32,1.32,0,0,0,.71-1l.23-2.11,2,.56a1.29,1.29,0,0,0,1.2-.3,1.31,1.31,0,0,0,.38-1.19l-.4-2.08,2.09-.07a1.27,1.27,0,0,0,1.06-.64,1.29,1.29,0,0,0,0-1.25l-1-1.87,2-.69a1.3,1.3,0,0,0,.48-2.13Z" transform="translate(0 -172.09)" style="fill:#bc5b3c"/></svg>