<svg id="Ebene_1" data-name="Ebene 1" xmlns="http://www.w3.org/2000/svg" viewBox="0 0 567.69 600"><path d="M299.15,0l-87.6,141.83H259l40.13-65,40.12,65h47.47ZM188.32,417.8H88.56L138.44,337l-23.73-38.43L16.15,458.18H213.26Zm200.13,40.38H582.14L485.29,301.39,461.56,263l-49.88-80.74H364.22l73.61,119.17,23.73,38.42,48.17,78H413.39Zm-127.72,0H341l24.95-40.38H235.78Zm-74.12-276-48.17,78,23.73,38.42,71.9-116.39Z" transform="translate(-16.15)" style="fill:#8c4b37"/><path d="M339.27,141.83H259l-24.95,40.39H364.22ZM162.17,298.61,138.44,337l49.88,80.76h47.46ZM386.74,141.83l24.94,40.39h99.76L461.56,263l-23.73,38.43L365.93,417.8h47.46l48.17-78,23.73-38.42,98.56-159.56ZM300.85,523.15l-40.12-65H213.26L300.85,600l87.6-141.82H341Zm-89.3-381.32H17.88l96.83,156.78,23.73-38.42-48.15-78h96.32Z" transform="translate(-16.15)" style="fill:#d66745"/><polygon points="397.24 417.8 372.3 458.18 324.83 458.18 349.77 417.8 397.24 417.8" style="fill:#8c4b37"/><polygon points="244.57 458.18 197.11 458.18 172.16 417.8 219.63 417.8 244.57 458.18" style="fill:#d66745"/><polygon points="146.02 298.61 122.29 337.04 98.55 298.61 122.29 260.19 146.02 298.61" style="fill:#8c4b37"/><polygon points="395.53 182.22 348.06 182.22 323.12 141.83 370.59 141.83 395.53 182.22" style="fill:#8c4b37"/><polygon points="242.86 141.83 217.92 182.22 170.45 182.22 195.4 141.83 242.86 141.83" style="fill:#d66745"/></svg>