<svg id="Ebene_1" data-name="Ebene 1" xmlns="http://www.w3.org/2000/svg" viewBox="0 0 405.19 600"><path d="M24.84,0h374a6.31,6.31,0,0,1,6.31,6.31V487.44a6.31,6.31,0,0,1-6.31,6.31h-374a0,0,0,0,1,0,0V0A0,0,0,0,1,24.84,0Z" style="fill:#8c4b37"/><polygon points="89.03 600 56.83 566.58 24.63 600 24.63 493.75 89.03 493.75 89.03 600" style="fill:#f2784b"/><path d="M0,0H374a6.31,6.31,0,0,1,6.31,6.31V487.44a6.31,6.31,0,0,1-6.31,6.31H0a0,0,0,0,1,0,0V0A0,0,0,0,1,0,0Z" style="fill:#bc5b3c"/><rect x="16.94" width="15.36" height="344.59" style="fill:#8c4b37"/><rect x="16.94" y="383.78" width="15.36" height="109.97" style="fill:#8c4b37"/><rect x="129.04" y="117.04" width="122.26" height="25.08" style="fill:#f6f6f6"/><rect x="199.44" y="146.19" width="176.29" height="25.08" transform="translate(348.9 -128.85) rotate(90)" style="fill:#f6f6f6"/></svg>