<svg id="Ebene_1" data-name="Ebene 1" xmlns="http://www.w3.org/2000/svg" viewBox="0 0 570.48 600"><rect x="44.02" y="249.51" width="65.65" height="280.9" style="fill:#f2784b"/><rect x="52.84" y="249.51" width="6.64" height="280.9" style="fill:#d66745"/><rect x="73.52" y="249.51" width="6.64" height="280.9" style="fill:#d66745"/><rect x="94.2" y="249.51" width="6.65" height="280.9" style="fill:#d66745"/><rect x="38.42" y="240.47" width="76.85" height="9.34" style="fill:#f2784b"/><rect x="31.78" y="230.8" width="90.13" height="10.95" style="fill:#f2784b"/><rect x="38.42" y="526.8" width="76.85" height="9.33" style="fill:#f2784b"/><rect x="31.78" y="534.85" width="90.13" height="10.95" style="fill:#f2784b"/><rect x="148.18" y="249.51" width="65.65" height="280.9" style="fill:#f2784b"/><rect x="157" y="249.51" width="6.64" height="280.9" style="fill:#d66745"/><rect x="177.69" y="249.51" width="6.64" height="280.9" style="fill:#d66745"/><rect x="198.37" y="249.51" width="6.64" height="280.9" style="fill:#d66745"/><rect x="142.59" y="240.47" width="76.84" height="9.34" style="fill:#f2784b"/><rect x="135.95" y="230.8" width="90.12" height="10.95" style="fill:#f2784b"/><rect x="142.59" y="526.8" width="76.84" height="9.33" style="fill:#f2784b"/><rect x="135.95" y="534.85" width="90.12" height="10.95" style="fill:#f2784b"/><rect x="460.82" y="249.51" width="65.65" height="280.9" style="fill:#f2784b"/><rect x="511.01" y="249.51" width="6.64" height="280.9" style="fill:#d66745"/><rect x="490.33" y="249.51" width="6.64" height="280.9" style="fill:#d66745"/><rect x="469.64" y="249.51" width="6.64" height="280.9" style="fill:#d66745"/><rect x="455.23" y="240.47" width="76.84" height="9.34" style="fill:#f2784b"/><rect x="448.59" y="230.8" width="90.12" height="10.95" style="fill:#f2784b"/><rect x="455.23" y="526.8" width="76.84" height="9.33" style="fill:#f2784b"/><rect x="448.59" y="534.85" width="90.12" height="10.95" style="fill:#f2784b"/><rect x="252.49" y="249.51" width="65.66" height="280.9" style="fill:#f2784b"/><rect x="302.67" y="249.51" width="6.64" height="280.9" style="fill:#d66745"/><rect x="281.99" y="249.51" width="6.64" height="280.9" style="fill:#d66745"/><rect x="261.31" y="249.51" width="6.64" height="280.9" style="fill:#d66745"/><rect x="246.89" y="240.47" width="76.84" height="9.34" style="fill:#f2784b"/><rect x="240.26" y="230.8" width="90.12" height="10.95" style="fill:#f2784b"/><rect x="246.89" y="526.8" width="76.84" height="9.33" style="fill:#f2784b"/><rect x="240.26" y="534.85" width="90.12" height="10.95" style="fill:#f2784b"/><rect x="356.66" y="249.51" width="65.65" height="280.9" style="fill:#f2784b"/><rect x="406.84" y="249.51" width="6.65" height="280.9" style="fill:#d66745"/><rect x="386.16" y="249.51" width="6.64" height="280.9" style="fill:#d66745"/><rect x="365.48" y="249.51" width="6.64" height="280.9" style="fill:#d66745"/><rect x="351.06" y="240.47" width="76.84" height="9.34" style="fill:#f2784b"/><rect x="344.42" y="230.8" width="90.12" height="10.95" style="fill:#f2784b"/><rect x="351.06" y="526.8" width="76.84" height="9.33" style="fill:#f2784b"/><rect x="344.42" y="534.85" width="90.12" height="10.95" style="fill:#f2784b"/><rect x="20.66" y="545.8" width="529.17" height="27.1" style="fill:#d66745"/><rect x="20.66" y="203.7" width="529.17" height="27.11" style="fill:#f2784b"/><rect x="3.99" y="572.9" width="562.51" height="27.1" style="fill:#f2784b"/><path d="M303.54,4.71a8.55,8.55,0,0,0-7.07,0L22.28,147.44a7.24,7.24,0,0,0-3.53,5.83v46.45a4,4,0,0,0,4,4H577.28a4,4,0,0,0,4-4V153.27a7.24,7.24,0,0,0-3.53-5.83Z" transform="translate(-14.76)" style="fill:#f2784b"/><path d="M302.42,41.43a5.89,5.89,0,0,0-4.83,0L110.19,139a5,5,0,0,0-2.41,4v31.75a2.72,2.72,0,0,0,2.72,2.72h379a2.73,2.73,0,0,0,2.71-2.72V143a5,5,0,0,0-2.41-4Z" transform="translate(-14.76)" style="fill:#ff8864"/><path d="M577.28,207.69H22.74a8,8,0,0,1-8-8V153.27a11.27,11.27,0,0,1,5.68-9.36L294.63,1.17a12.93,12.93,0,0,1,10.75,0L579.56,143.91a11.23,11.23,0,0,1,5.68,9.36v46.45A8,8,0,0,1,577.28,207.69Zm0-8v0ZM300,7.93a4,4,0,0,0-1.69.31L24.12,151a3.41,3.41,0,0,0-1.38,2.29v46.45H577.26l0-46.45a3.43,3.43,0,0,0-1.39-2.29L301.7,8.24A4.09,4.09,0,0,0,300,7.93Z" transform="translate(-14.76)" style="fill:#d66745"/></svg>