<svg xmlns="http://www.w3.org/2000/svg" viewBox="0 0 600 383.19"><g style="isolation:isolate"><g id="Ebene_1" data-name="Ebene 1"><path d="M537.33,156.32S515.11,229.1,510.69,319c0,0-47.07,26.87-114.54,0C396.15,319,427.19,183.5,537.33,156.32Z" transform="translate(0 -108.4)" style="fill:#f2784b"/><path d="M427.5,111.59s-31,84-47,220.29c0,0-82.54,24.27-135.83-18.62C244.66,313.26,279.76,146.09,427.5,111.59Z" transform="translate(0 -108.4)" style="fill:#f2784b"/><path d="M244.66,313.26a2.46,2.46,0,0,1-.84-.13,4,4,0,0,1-2.37-4.78c.38-1.67,38.75-167.92,182.19-199.88,1.8-.39,3.52,1,3.86,3.12a3.94,3.94,0,0,1-2.64,4.58c-139.37,31.05-176.64,192.54-177,194.17A3.45,3.45,0,0,1,244.66,313.26Z" transform="translate(0 -108.4)" style="fill:#bc5b3c"/><polygon points="570.43 248.76 468.37 88.09 469.71 87.23 571.77 247.9 570.43 248.76" style="fill:#444c5c"/><path d="M272.55,156.68s-40.73,105.82-36.4,183c0,0-67-.31-105.2-19.68C131,320,144.6,203.74,272.55,156.68Z" transform="translate(0 -108.4)" style="fill:#f2784b"/><polygon points="426.81 264.14 319.33 71.44 320.72 70.67 428.19 263.38 426.81 264.14" style="fill:#444c5c"/><path d="M131,320a3.53,3.53,0,0,1-.72-.08,4.12,4.12,0,0,1-3-4.84C127.49,313.76,151,186.69,268,153.71a3.72,3.72,0,0,1,4.55,3,4.2,4.2,0,0,1-2.7,5c-112.31,31.65-135,153.66-135.23,154.89A3.88,3.88,0,0,1,131,320Z" transform="translate(0 -108.4)" style="fill:#bc5b3c"/><g style="opacity:0.26;mix-blend-mode:multiply"><path d="M244.66,313.26c31.06,25,72,27.17,100.83,24.65h0s-75.81,5.68-71.59-50.45,73.91-150.44,151-171.29l1.15-.34c.95-2.78,1.49-4.24,1.49-4.24C279.76,146.09,244.66,313.26,244.66,313.26Z" transform="translate(0 -108.4)" style="fill:#bc5b3c"/></g><g style="opacity:0.26;mix-blend-mode:multiply"><path d="M396.15,319c42,16.73,76.1,12.62,95.86,7.14-.65.08-81.89,9.56-69.28-35.14C435.4,246.1,485.66,170.42,535,160.76c.41-.08.77-.19,1.17-.27.77-2.7,1.21-4.17,1.21-4.17C427.19,183.5,396.15,319,396.15,319Z" transform="translate(0 -108.4)" style="fill:#bc5b3c"/></g><g style="opacity:0.26;mix-blend-mode:multiply"><path d="M166.23,268.27c29.56-68.61,103.62-106.56,103.62-106.56s-3.61-.15-9.49-.18C143.73,211.23,131,320,131,320c38.19,19.37,105.2,19.68,105.2,19.68S136.68,336.88,166.23,268.27Z" transform="translate(0 -108.4)" style="fill:#bc5b3c"/></g><path d="M396.15,319a3.57,3.57,0,0,1-.63-.07,3.64,3.64,0,0,1-2.62-4.27c.23-1.28,23.67-128.06,140.41-161a3.3,3.3,0,0,1,4,2.63,3.69,3.69,0,0,1-2.38,4.44C422.23,192.53,399.61,314.8,399.4,316A3.41,3.41,0,0,1,396.15,319Z" transform="translate(0 -108.4)" style="fill:#bc5b3c"/><path d="M244.66,313.26a2.46,2.46,0,0,1-.84-.13,4,4,0,0,1-2.37-4.78c.38-1.67,38.75-167.92,182.19-199.88,1.8-.39,3.52,1,3.86,3.12a3.94,3.94,0,0,1-2.64,4.58c-139.37,31.05-176.64,192.54-177,194.17A3.45,3.45,0,0,1,244.66,313.26Z" transform="translate(0 -108.4)" style="fill:#bc5b3c"/><rect x="189" y="88.41" width="7.8" height="188.34" rx="0.62" style="fill:#bc5b3c"/><rect x="312.22" y="67.15" width="7.8" height="219.75" rx="0.62" style="fill:#bc5b3c"/><rect x="461.24" y="83.76" width="7.8" height="219.75" rx="0.62" style="fill:#bc5b3c"/><path d="M599.79,328.26l.21-4.05s-49.54,21.12-184.65,19.21v3.84H415c-.79,10.82-5.54,22.81-5.54,22.81h5.94c2.79-3.37,4.6-13.34,5.42-18.92,4.87,0,12.83.05,23-.17a97.93,97.93,0,0,1-5.12,19.09h5.94c2.85-3.43,4.67-13.75,5.47-19.25,7.56-.22,16.07-.56,25.27-1.07a98.83,98.83,0,0,1-5,18.39h5.93c2.78-3.34,4.57-13.17,5.4-18.78,8.52-.54,17.52-1.24,26.82-2.14a97.87,97.87,0,0,1-5.11,19h5.94c2.92-3.52,4.76-14.26,5.53-19.65,8.17-.86,16.53-1.89,24.93-3.1a98.27,98.27,0,0,1-5.1,19h5.93c3-3.58,4.84-14.66,5.57-19.94,8-1.25,16.07-2.67,24-4.29a99.31,99.31,0,0,1-5,18.48h5.93c3-3.56,4.81-14.52,5.56-19.84q8.34-1.84,16.44-4a98.82,98.82,0,0,1-5,18.18h5.94c3-3.59,4.84-14.71,5.58-20h0c.24-1.73.36-2.83.36-2.83Z" transform="translate(0 -108.4)" style="fill:#bc5b3c"/><path d="M107.12,354.83s50.67,106.61,113,125.61,226.94,8.44,268.11,6.33,65.44-66.5,73.89-111.89C562.07,374.88,354.12,415,107.12,354.83Z" transform="translate(0 -108.4)" style="fill:#8c4b37"/><path d="M387.9,388s10.56-8.87,13.72-22.59c0,0,113,7.39,195.28-20.05l-8.44,26.38S507.18,400,387.9,388Z" transform="translate(0 -108.4)" style="fill:#8c4b37"/><path d="M109,354.56.4,311.35s-1.64,6.82,5.76,12,109.43,44.48,109.43,44.48Z" transform="translate(0 -108.4)" style="fill:#8c4b37"/><path d="M555.17,403.44c-44.08,8.24-110.73,15.28-199.9,10-134.52-8-205.63-22.24-231.66-28.49.74,1.23,1.52,2.51,2.31,3.79,28.5,6.62,99.47,20.14,229.17,27.86,21.53,1.28,41.76,1.85,60.68,1.85,58.7,0,104.84-5.42,138.38-11.58C554.5,405.7,554.84,404.57,555.17,403.44Z" transform="translate(0 -108.4)" style="fill:#bc5b3c"/><path d="M411.55,447.18c54.52,0,98.21-4.67,131-10.27.54-1.16,1.08-2.31,1.61-3.49-44,7.69-108.39,13.8-193.14,8.75-101.69-6-167.11-15.65-204.26-22.69q1.41,1.89,2.87,3.76c37.86,7,102.56,16.23,201.2,22.1C372.39,446.62,392.62,447.18,411.55,447.18Z" transform="translate(0 -108.4)" style="fill:#bc5b3c"/><path d="M346.64,474.11c21.53,1.28,41.76,1.84,60.69,1.84,46.23,0,84.66-3.36,115.3-7.8,1-1.17,2.09-2.38,3.1-3.64-43.26,6.52-102.91,11-178.9,6.43-75.08-4.47-130.37-10.87-169.14-16.75,1.42,1.3,2.86,2.59,4.31,3.84C220.61,463.73,274.54,469.81,346.64,474.11Z" transform="translate(0 -108.4)" style="fill:#bc5b3c"/><path d="M107.12,354.83s-2.12-11.62,16.49-6.07,144.39,35,272.16,30L387.9,388S264.93,396.26,107.12,354.83Z" transform="translate(0 -108.4)" style="fill:#bc5b3c"/><g style="opacity:0.26;mix-blend-mode:multiply"><path d="M512.72,443c-9.5,53-156.66,51.46-268.27,42.76,73.12,11.45,207.15,2.93,243.73,1,41.17-2.11,65.44-66.5,73.89-111.89,0,0-208,40.11-454.95-20.05,0,0,55.16,34.82,227.47,46.84S517.53,416.12,512.72,443Z" transform="translate(0 -108.4)" style="fill:#bc5b3c"/></g><polygon points="0.8 203.63 0 202.26 188.6 91.63 189.4 92.99 0.8 203.63" style="fill:#444c5c"/></g></g></svg>