<svg id="Ebene_1" data-name="Ebene 1" xmlns="http://www.w3.org/2000/svg" xmlns:xlink="http://www.w3.org/1999/xlink" viewBox="0 0 600 600"><defs><clipPath id="clip-path" transform="translate(0 0)"><rect width="600" height="600" fill="none"/></clipPath></defs><path d="M290.32,48.39v77.42H232.26v77.42H367.74V48.39Zm0,0" transform="translate(0 0)" fill="#82a6fe"/><g clip-path="url(#clip-path)"><rect x="464.52" y="232.26" width="135.48" height="77.42" fill="#4e6398"/></g><rect y="232.26" width="135.48" height="77.42" fill="#4e6398"/><path d="M290.32,251.61v58.07h19.36V251.61h96.77V135.48H522.58v54.06l-22.19-22.19L486.71,181l45.55,45.55L577.81,181l-13.68-13.69-22.19,22.19V116.13H406.45V0H257.28L193.55,63.74v52.39H58.06v73.41L35.87,167.35,22.19,181l45.55,45.55L113.29,181,99.61,167.35,77.42,189.54V135.48H193.55V251.61Zm96.78-19.35H212.9V77.42H271V19.35H387.1ZM226.59,58.06l25-25v25Zm0,0" transform="translate(0 0)" fill="#82a6fe"/><rect x="290.32" y="38.71" width="77.42" height="19.35" fill="#5b74b2"/><rect x="290.32" y="77.42" width="77.42" height="19.35" fill="#5b74b2"/><rect x="232.26" y="116.13" width="135.48" height="19.35" fill="#5b74b2"/><rect x="232.26" y="154.84" width="135.48" height="19.35" fill="#5b74b2"/><rect x="232.26" y="193.55" width="135.48" height="19.35" fill="#5b74b2"/><path d="M541.94,465.89V309.68H522.58v96.77H406.45v19.36h38.71V543.72a29,29,0,1,0,19.36,0V425.81h58.06v40.08a38.71,38.71,0,1,0,19.36,0Zm-87.1,114.76a9.68,9.68,0,1,1,9.68-9.68,9.69,9.69,0,0,1-9.68,9.68Zm77.42-58.07a19.36,19.36,0,1,1,19.35-19.35,19.37,19.37,0,0,1-19.35,19.35Zm0,0" transform="translate(0 0)" fill="#82a6fe"/><path d="M77.42,309.68H58.06V465.89a38.71,38.71,0,1,0,19.36,0V425.81h58.06V543.72a29,29,0,1,0,19.36,0V425.81h38.71V406.45H77.42Zm67.74,271a9.68,9.68,0,1,1,9.68-9.68,9.69,9.69,0,0,1-9.68,9.68ZM87.1,503.23a19.36,19.36,0,1,1-19.36-19.36A19.37,19.37,0,0,1,87.1,503.23Zm0,0" transform="translate(0 0)" fill="#82a6fe"/><path d="M313.83,401.35A21.26,21.26,0,0,0,284,403.54a21.11,21.11,0,1,0,29.85-2.19Z" transform="translate(0 0)" fill="#b4c9fe" fill-rule="evenodd"/><path d="M366.08,408.27a66.83,66.83,0,0,0-8.91-25.3L375,362.4l-32-27.49L325.3,355.48a69.89,69.89,0,0,0-26.39-4.92L290,324.89l-39.87,14,9.1,25.67a68.4,68.4,0,0,0-9.84,9.29,73.74,73.74,0,0,0-7.64,10.92L215,379.88l-7.83,41.5,26.77,4.91a66.81,66.81,0,0,0,8.91,25.31L225,472.17,257,499.66l17.84-20.57A65.12,65.12,0,0,0,301.09,484L310,509.68l39.87-14L341,470a66,66,0,0,0,9.64-9.29,73,73,0,0,0,7.64-10.92L385,454.7l7.83-41.33ZM331.5,444.32a41.51,41.51,0,1,1-4.38-58.44A41.35,41.35,0,0,1,331.5,444.32Z" transform="translate(0 0)" fill="#b4c9fe" fill-rule="evenodd"/></svg>