<svg id="Ebene_1" data-name="Ebene 1" xmlns="http://www.w3.org/2000/svg" viewBox="0 0 598.04 598.04"><path d="M179.66,9.78,9.78,179.66a30,30,0,0,0,0,42.48L377.86,590.22a30,30,0,0,0,42.48,0L590.22,420.34a30,30,0,0,0,0-42.48L222.14,9.78a30,30,0,0,0-42.48,0ZM94.72,137.19l42.47-42.47a10,10,0,0,1,14.16,14.16l-42.47,42.47a10,10,0,0,1-14.16-14.16ZM66.41,165.51a10,10,0,1,1,0,14.16,10,10,0,0,1,0-14.16ZM491.12,491.12a20,20,0,1,1,0-28.31,20,20,0,0,1,0,28.31Zm49.55-134.49-184,184L59.33,243.37l184-184Zm0,0" transform="translate(-0.98 -0.98)" fill="#333"/><path d="M356.63,540.67l184-184L243.37,59.33l-184,184Zm56.63-84.94a20,20,0,1,1,0-28.31,20,20,0,0,1,0,28.31ZM498.2,342.47a20,20,0,1,1-28.32,0,20,20,0,0,1,28.32,0Zm-304.38-177L243.37,116a10,10,0,1,1,14.16,14.16L208,179.67a10,10,0,0,1-14.16-14.16ZM222.13,208a10,10,0,0,1,0-14.16l28.32-28.32a10,10,0,0,1,14.16,14.16L236.29,208a10,10,0,0,1-14.16,0Zm49.55,49.55a10,10,0,0,1,0-14.16l49.56-49.55A10,10,0,1,1,335.39,208l-49.55,49.55a10,10,0,0,1-14.16,0ZM300,271.69l28.32-28.32a10,10,0,0,1,14.15,14.16l-28.31,28.31A10,10,0,0,1,300,271.69Zm49.55,49.54,49.55-49.54a10,10,0,0,1,14.16,14.15l-49.55,49.55a10,10,0,0,1-14.16-14.16Zm28.31,42.48a10,10,0,0,1,0-14.16l28.32-28.32a10,10,0,0,1,14.16,14.16L392,363.71a10,10,0,0,1-14.16,0Zm49.55,21.23a20,20,0,1,1,0,28.32,20,20,0,0,1,0-28.32ZM108.88,250.45a10,10,0,0,1,0-14.15l49.55-49.56a10,10,0,0,1,14.16,0l42.47,42.47a10,10,0,0,1,0,14.16l-49.55,49.55a10,10,0,0,1-14.16,0Zm77.86,77.86a10,10,0,0,1,0-14.15l49.55-49.56a10,10,0,0,1,14.16,0l42.47,42.48a10,10,0,0,1,0,14.15l-49.55,49.56a10,10,0,0,1-14.16,0Zm77.86,77.87a10,10,0,0,1,0-14.16l49.56-49.55a10,10,0,0,1,14.16,0l42.47,42.47a10,10,0,0,1,0,14.16l-49.55,49.55a10,10,0,0,1-14.16,0Zm77.87,63.71a20,20,0,1,1,0,28.31,20,20,0,0,1,0-28.31Zm0,0" transform="translate(-0.98 -0.98)" fill="#f6f6f6"/><path d="M108.88,151.35l42.47-42.47a10,10,0,0,0-14.16-14.16L94.72,137.19a10,10,0,0,0,14.16,14.16Zm0,0" transform="translate(-0.98 -0.98)" fill="#4d4d4d"/><path d="M80.56,165.5a10,10,0,1,1-14.15,0,10,10,0,0,1,14.15,0Zm0,0" transform="translate(-0.98 -0.98)" fill="#4d4d4d"/><path d="M491.12,462.81a20,20,0,1,1-28.31,0,20,20,0,0,1,28.31,0Zm0,0" transform="translate(-0.98 -0.98)" fill="#4d4d4d"/><path d="M165.51,292.92l49.55-49.55a10,10,0,0,0,0-14.16l-42.48-42.47a10,10,0,0,0-14.15,0l-49.56,49.55a10,10,0,0,0,0,14.16l42.48,42.47a10,10,0,0,0,14.16,0Zm0,0" transform="translate(-0.98 -0.98)" fill="#ffe882"/><path d="M208,179.66l49.55-49.55A10,10,0,1,0,243.37,116L193.82,165.5A10,10,0,0,0,208,179.66Zm0,0" transform="translate(-0.98 -0.98)" fill="#82a6fe"/><path d="M236.29,208l28.32-28.32a10,10,0,0,0-14.16-14.16l-28.32,28.32A10,10,0,0,0,236.29,208Zm0,0" transform="translate(-0.98 -0.98)" fill="#b4c9fe"/><path d="M285.84,257.53,335.39,208a10,10,0,1,0-14.16-14.16l-49.55,49.55a10,10,0,0,0,14.16,14.16Zm0,0" transform="translate(-0.98 -0.98)" fill="#82a6fe"/><path d="M314.16,285.84l28.31-28.31a10,10,0,0,0-14.15-14.16L300,271.69a10,10,0,0,0,14.16,14.15Zm0,0" transform="translate(-0.98 -0.98)" fill="#b4c9fe"/><path d="M363.71,335.39l49.55-49.55a10,10,0,0,0-14.16-14.15l-49.55,49.54a10,10,0,0,0,14.16,14.16Zm0,0" transform="translate(-0.98 -0.98)" fill="#82a6fe"/><path d="M392,363.7l28.32-28.31a10,10,0,0,0-14.16-14.16l-28.32,28.32A10,10,0,1,0,392,363.7Zm0,0" transform="translate(-0.98 -0.98)" fill="#b4c9fe"/><path d="M321.23,448.65l49.56-49.55a10,10,0,0,0,0-14.16l-42.47-42.47a10,10,0,0,0-14.16,0L264.6,392a10,10,0,0,0,0,14.16l42.47,42.47a10,10,0,0,0,14.16,0Zm0,0" transform="translate(-0.98 -0.98)" fill="#5b74b2"/><path d="M243.37,370.79l49.55-49.56a10,10,0,0,0,0-14.15L250.45,264.6a10,10,0,0,0-14.16,0l-49.55,49.56a10,10,0,0,0,0,14.15l42.47,42.48a10,10,0,0,0,14.16,0Zm0,0" transform="translate(-0.98 -0.98)" fill="#e96f6f"/><path d="M413.26,427.42a20,20,0,1,1-28.32,0,20,20,0,0,1,28.32,0Zm0,0" transform="translate(-0.98 -0.98)" fill="#82a6fe"/><path d="M370.79,469.89a20,20,0,1,1-28.32,0,20,20,0,0,1,28.32,0Zm0,0" transform="translate(-0.98 -0.98)" fill="#3a4a72"/><path d="M498.2,342.47a20,20,0,1,1-28.32,0,20,20,0,0,1,28.32,0Zm0,0" transform="translate(-0.98 -0.98)" fill="#82a6fe"/><path d="M455.73,384.94a20,20,0,1,1-28.32,0,20,20,0,0,1,28.32,0Zm0,0" transform="translate(-0.98 -0.98)" fill="#82a6fe"/></svg>