<svg id="Ebene_1" data-name="Ebene 1" xmlns="http://www.w3.org/2000/svg" viewBox="0 0 519.86 600"><path id="background" d="M299.75,600,40.07,449.79l.25-300L300.25,0,559.93,150.21l-.25,300Z" transform="translate(-40.07)" fill="#5b74b2"/><path id="white_hexagon" data-name="white hexagon" d="M299.85,481.67l-157.25-91L142.75,209l157.4-90.71,157.25,91L457.25,391ZM161.58,379.76l138.29,80L438.29,380l.13-159.75-138.29-80L161.71,220Z" transform="translate(-40.07)" fill="#f6f5f5"/><rect x="185.52" y="263.05" width="147.87" height="3.32" fill="#f6f5f5"/><path d="M377.88,370.53H222.12V229.47H377.88Zm-146.27-9.48H368.39V239H231.61Z" transform="translate(-40.07)" fill="#f6f5f5"/><path d="M243.32,256a5,5,0,1,1,5-5A5,5,0,0,1,243.32,256Z" transform="translate(-40.07)" fill="#f6f5f5"/><path d="M259,256a5,5,0,1,1,5-5A5,5,0,0,1,259,256Z" transform="translate(-40.07)" fill="#f6f5f5"/><path d="M273.72,256a5,5,0,1,1,5-5A5,5,0,0,1,273.72,256Z" transform="translate(-40.07)" fill="#f6f5f5"/><polygon points="285.15 336.52 279.05 330.41 296.95 312.51 278.27 293.83 284.38 287.72 309.17 312.51 285.15 336.52" fill="#f6f5f5"/><polygon points="234.95 336.52 210.94 312.51 235.72 287.72 241.83 293.83 223.15 312.51 241.06 330.41 234.95 336.52" fill="#f6f5f5"/><rect x="267.61" y="310.33" width="64.98" height="3.02" transform="translate(-103.25 547.06) rotate(-79.02)" fill="#f6f5f5"/></svg>