<svg id="Ebene_1" data-name="Ebene 1" xmlns="http://www.w3.org/2000/svg" viewBox="0 0 600 492.69"><polygon points="239.78 427.35 236.09 475.99 363.91 475.99 360.22 427.35 239.78 427.35" fill="#b4c9fe"/><polygon points="358.19 400.64 241.81 400.64 239.78 427.35 360.22 427.35 358.19 400.64" fill="#82a6fe"/><path d="M208.44,471.7H391.56a4.54,4.54,0,0,1,4.54,4.54v16.44a0,0,0,0,1,0,0H203.9a0,0,0,0,1,0,0V476.24A4.54,4.54,0,0,1,208.44,471.7Z" fill="#b4c9fe"/><path d="M582.75,53.66H17.25A17.25,17.25,0,0,0,0,70.91v339.5H600V70.91A17.25,17.25,0,0,0,582.75,53.66Z" transform="translate(0 -53.66)" fill="#3a4a72"/><path d="M355.8,410.41H0v40.94A17.25,17.25,0,0,0,17.25,468.6h565.5A17.25,17.25,0,0,0,600,451.35V410.41Z" transform="translate(0 -53.66)" fill="#b4c9fe"/><circle cx="298.1" cy="381.89" r="8.11" fill="#82a6fe"/><rect x="531.52" y="381.89" width="38.26" height="8.11" fill="#82a6fe"/><rect x="21.4" y="21.32" width="553.61" height="311.57" fill="#3a4a72"/><path d="M137.6,115.51h-85a6,6,0,0,1-6-6h0a6,6,0,0,1,6-6h85a6,6,0,0,1,6,6h0A6,6,0,0,1,137.6,115.51Z" transform="translate(0 -53.66)" fill="#90f9d5"/><path d="M352.67,115.51h-85a6,6,0,0,1-6-6h0a6,6,0,0,1,6-6h85a6,6,0,0,1,6,6h0A6,6,0,0,1,352.67,115.51Z" transform="translate(0 -53.66)" fill="#90f9d5"/><path d="M394.44,115.51h-19.5a6,6,0,0,1-6-6h0a6,6,0,0,1,6-6h19.5a6,6,0,0,1,6,6h0A6,6,0,0,1,394.44,115.51Z" transform="translate(0 -53.66)" fill="#f6f6f6"/><path d="M244.69,115.51H213.93a6,6,0,0,1-6-6h0a6,6,0,0,1,6-6h30.76a6,6,0,0,1,6,6h0A6,6,0,0,1,244.69,115.51Z" transform="translate(0 -53.66)" fill="#e96f6f"/><path d="M109.45,137.6H52.63a6,6,0,0,1-6-6h0a6,6,0,0,1,6-6h56.82a6,6,0,0,1,6,6h0A6,6,0,0,1,109.45,137.6Z" transform="translate(0 -53.66)" fill="#b4c9fe"/><path d="M262.08,137.6H205.26a6,6,0,0,1-6-6h0a6,6,0,0,1,6-6h56.82a6,6,0,0,1,6,6h0A6,6,0,0,1,262.08,137.6Z" transform="translate(0 -53.66)" fill="#b4c9fe"/><path d="M291.72,137.6H281.37a6,6,0,0,1-6-6h0a6,6,0,0,1,6-6h10.35a6,6,0,0,1,6,6h0A6,6,0,0,1,291.72,137.6Z" transform="translate(0 -53.66)" fill="#f6f6f6"/><path d="M147.63,137.6H129.29a6,6,0,0,1-6-6h0a6,6,0,0,1,6-6h18.34a6,6,0,0,1,6,6h0A6,6,0,0,1,147.63,137.6Z" transform="translate(0 -53.66)" fill="#b4c9fe"/><path d="M185.45,137.6H167.11a6,6,0,0,1-6-6h0a6,6,0,0,1,6-6h18.34a6,6,0,0,1,6,6h0A6,6,0,0,1,185.45,137.6Z" transform="translate(0 -53.66)" fill="#b4c9fe"/><path d="M109.45,159.68H52.63a6,6,0,0,1-6-6h0a6,6,0,0,1,6-6h56.82a6,6,0,0,1,6,6h0A6,6,0,0,1,109.45,159.68Z" transform="translate(0 -53.66)" fill="#f6f6f6"/><path d="M147.63,159.68H129.29a6,6,0,0,1-6-6h0a6,6,0,0,1,6-6h18.34a6,6,0,0,1,6,6h0A6,6,0,0,1,147.63,159.68Z" transform="translate(0 -53.66)" fill="#f6f6f6"/><path d="M185.45,159.68H167.11a6,6,0,0,1-6-6h0a6,6,0,0,1,6-6h18.34a6,6,0,0,1,6,6h0A6,6,0,0,1,185.45,159.68Z" transform="translate(0 -53.66)" fill="#f6f6f6"/><path d="M287.6,159.68h-5.79a6,6,0,0,1-6-6h0a6,6,0,0,1,6-6h5.79a6,6,0,0,1,6,6h0A6,6,0,0,1,287.6,159.68Z" transform="translate(0 -53.66)" fill="#e96f6f"/><path d="M313.11,159.68h-5.79a6,6,0,0,1-6-6h0a6,6,0,0,1,6-6h5.79a6,6,0,0,1,6,6h0A6,6,0,0,1,313.11,159.68Z" transform="translate(0 -53.66)" fill="#e96f6f"/><path d="M338.63,159.68h-5.79a6,6,0,0,1-6-6h0a6,6,0,0,1,6-6h5.79a6,6,0,0,1,6,6h0A6,6,0,0,1,338.63,159.68Z" transform="translate(0 -53.66)" fill="#f6f6f6"/><path d="M364.14,159.68h-5.79a6,6,0,0,1-6-6h0a6,6,0,0,1,6-6h5.79a6,6,0,0,1,6,6h0A6,6,0,0,1,364.14,159.68Z" transform="translate(0 -53.66)" fill="#f6f6f6"/><path d="M82.72,181.76H52.63a6,6,0,0,1-6-6h0a6,6,0,0,1,6-6H82.72a6,6,0,0,1,6,6h0A6,6,0,0,1,82.72,181.76Z" transform="translate(0 -53.66)" fill="#f6f6f6"/><path d="M176.05,181.76H146a6,6,0,0,1-6-6h0a6,6,0,0,1,6-6h30.08a6,6,0,0,1,6,6h0A6,6,0,0,1,176.05,181.76Z" transform="translate(0 -53.66)" fill="#e96f6f"/><path d="M194.18,181.76h-1.67a6,6,0,0,1-6-6h0a6,6,0,0,1,6-6h1.67a6,6,0,0,1,6,6h0A6,6,0,0,1,194.18,181.76Z" transform="translate(0 -53.66)" fill="#f6f6f6"/><path d="M106.06,181.76H99.51a6,6,0,0,1-6-6h0a6,6,0,0,1,6-6h6.55a6,6,0,0,1,6,6h0A6,6,0,0,1,106.06,181.76Z" transform="translate(0 -53.66)" fill="#f6f6f6"/><path d="M129.19,181.76h-6.55a6,6,0,0,1-6-6h0a6,6,0,0,1,6-6h6.55a6,6,0,0,1,6,6h0A6,6,0,0,1,129.19,181.76Z" transform="translate(0 -53.66)" fill="#f6f6f6"/><path d="M122.31,203.85H52.63a6,6,0,0,1-6-6h0a6,6,0,0,1,6-6h69.68a6,6,0,0,1,6,6h0A6,6,0,0,1,122.31,203.85Z" transform="translate(0 -53.66)" fill="#b4c9fe"/><path d="M247.84,203.85H233.78a6,6,0,0,1-6-6h0a6,6,0,0,1,6-6h14.06a6,6,0,0,1,6,6h0A6,6,0,0,1,247.84,203.85Z" transform="translate(0 -53.66)" fill="#f6f6f6"/><path d="M275.86,203.85h-7.08a6,6,0,0,1-6-6h0a6,6,0,0,1,6-6h7.08a6,6,0,0,1,6,6h0A6,6,0,0,1,275.86,203.85Z" transform="translate(0 -53.66)" fill="#f6f6f6"/><path d="M303.65,203.85h-7.08a6,6,0,0,1-6-6h0a6,6,0,0,1,6-6h7.08a6,6,0,0,1,6,6h0A6,6,0,0,1,303.65,203.85Z" transform="translate(0 -53.66)" fill="#f6f6f6"/><path d="M167.62,203.85h-24a6,6,0,0,1-6-6h0a6,6,0,0,1,6-6h24a6,6,0,0,1,6,6h0A6,6,0,0,1,167.62,203.85Z" transform="translate(0 -53.66)" fill="#b4c9fe"/><path d="M212.5,203.85h-24a6,6,0,0,1-6-6h0a6,6,0,0,1,6-6h24a6,6,0,0,1,6,6h0A6,6,0,0,1,212.5,203.85Z" transform="translate(0 -53.66)" fill="#b4c9fe"/><path d="M132.21,225.93H52.63a6,6,0,0,1-6-6h0a6,6,0,0,1,6-6h79.58a6,6,0,0,1,6,6h0A6,6,0,0,1,132.21,225.93Z" transform="translate(0 -53.66)" fill="#f6f6f6"/><path d="M335.32,225.93H255.74a6,6,0,0,1-6-6h0a6,6,0,0,1,6-6h79.58a6,6,0,0,1,6,6h0A6,6,0,0,1,335.32,225.93Z" transform="translate(0 -53.66)" fill="#f6f6f6"/><path d="M374.76,225.93H357a6,6,0,0,1-6-6h0a6,6,0,0,1,6-6h17.75a6,6,0,0,1,6,6h0A6,6,0,0,1,374.76,225.93Z" transform="translate(0 -53.66)" fill="#f6f6f6"/><path d="M88.66,248h-36a6,6,0,0,1-6-6h0a6,6,0,0,1,6-6h36a6,6,0,0,1,6,6h0A6,6,0,0,1,88.66,248Z" transform="translate(0 -53.66)" fill="#f6f6f6"/><path d="M195.17,248h-36a6,6,0,0,1-6-6h0a6,6,0,0,1,6-6h36a6,6,0,0,1,6,6h0A6,6,0,0,1,195.17,248Z" transform="translate(0 -53.66)" fill="#e96f6f"/><path d="M215.86,248h-3.61a6,6,0,0,1-6-6h0a6,6,0,0,1,6-6h3.61a6,6,0,0,1,6,6h0A6,6,0,0,1,215.86,248Z" transform="translate(0 -53.66)" fill="#e96f6f"/><path d="M115.3,248h-9.17a6,6,0,0,1-6-6h0a6,6,0,0,1,6-6h9.17a6,6,0,0,1,6,6h0A6,6,0,0,1,115.3,248Z" transform="translate(0 -53.66)" fill="#f6f6f6"/><path d="M141.69,248h-9.17a6,6,0,0,1-6-6h0a6,6,0,0,1,6-6h9.17a6,6,0,0,1,6,6h0A6,6,0,0,1,141.69,248Z" transform="translate(0 -53.66)" fill="#90f9d5"/><path d="M96.56,270.1H52.63a6,6,0,0,1-6-6h0a6,6,0,0,1,6-6H96.56a6,6,0,0,1,6,6h0A6,6,0,0,1,96.56,270.1Z" transform="translate(0 -53.66)" fill="#f6f6f6"/><path d="M220.6,270.1H176.67a6,6,0,0,1-6-6h0a6,6,0,0,1,6-6H220.6a6,6,0,0,1,6,6h0A6,6,0,0,1,220.6,270.1Z" transform="translate(0 -53.66)" fill="#b4c9fe"/><path d="M244.69,270.1h-6.17a6,6,0,0,1-6-6h0a6,6,0,0,1,6-6h6.17a6,6,0,0,1,6,6h0A6,6,0,0,1,244.69,270.1Z" transform="translate(0 -53.66)" fill="#b4c9fe"/><path d="M127.59,270.1H114.93a6,6,0,0,1-6-6h0a6,6,0,0,1,6-6h12.66a6,6,0,0,1,6,6h0A6,6,0,0,1,127.59,270.1Z" transform="translate(0 -53.66)" fill="#b4c9fe"/><path d="M158.32,270.1H145.66a6,6,0,0,1-6-6h0a6,6,0,0,1,6-6h12.66a6,6,0,0,1,6,6h0A6,6,0,0,1,158.32,270.1Z" transform="translate(0 -53.66)" fill="#b4c9fe"/><path d="M109.45,314.26H52.63a6,6,0,0,1-6-6h0a6,6,0,0,1,6-6h56.82a6,6,0,0,1,6,6h0A6,6,0,0,1,109.45,314.26Z" transform="translate(0 -53.66)" fill="#90f9d5"/><path d="M227.67,314.26h-2.14a6,6,0,0,1-6-6h0a6,6,0,0,1,6-6h2.14a6,6,0,0,1,6,6h0A6,6,0,0,1,227.67,314.26Z" transform="translate(0 -53.66)" fill="#e96f6f"/><path d="M191.4,115.51H160.65a6,6,0,0,1-6-6h0a6,6,0,0,1,6-6H191.4a6,6,0,0,1,6,6h0A6,6,0,0,1,191.4,115.51Z" transform="translate(0 -53.66)" fill="#ffe882"/><path d="M211.05,159.68h-5.79a6,6,0,0,1-6-6h0a6,6,0,0,1,6-6h5.79a6,6,0,0,1,6,6h0A6,6,0,0,1,211.05,159.68Z" transform="translate(0 -53.66)" fill="#ffe882"/><path d="M236.57,159.68h-5.79a6,6,0,0,1-6-6h0a6,6,0,0,1,6-6h5.79a6,6,0,0,1,6,6h0A6,6,0,0,1,236.57,159.68Z" transform="translate(0 -53.66)" fill="#ffe882"/><path d="M262.08,159.68h-5.79a6,6,0,0,1-6-6h0a6,6,0,0,1,6-6h5.79a6,6,0,0,1,6,6h0A6,6,0,0,1,262.08,159.68Z" transform="translate(0 -53.66)" fill="#ffe882"/><path d="M183,225.93H154.64a6,6,0,0,1-6-6h0a6,6,0,0,1,6-6H183a6,6,0,0,1,6,6h0A6,6,0,0,1,183,225.93Z" transform="translate(0 -53.66)" fill="#ffe882"/><path d="M233.34,225.93H205a6,6,0,0,1-6-6h0a6,6,0,0,1,6-6h28.38a6,6,0,0,1,6,6h0A6,6,0,0,1,233.34,225.93Z" transform="translate(0 -53.66)" fill="#ffe882"/><path d="M208.92,314.26H177.37a6,6,0,0,1-6-6h0a6,6,0,0,1,6-6h31.55a6,6,0,0,1,6,6h0A6,6,0,0,1,208.92,314.26Z" transform="translate(0 -53.66)" fill="#ffe882"/><path d="M136.49,314.26h-7.2a6,6,0,0,1-6-6h0a6,6,0,0,1,6-6h7.2a6,6,0,0,1,6,6h0A6,6,0,0,1,136.49,314.26Z" transform="translate(0 -53.66)" fill="#ffe882"/><path d="M160.42,314.26h-7.2a6,6,0,0,1-6-6h0a6,6,0,0,1,6-6h7.2a6,6,0,0,1,6,6h0A6,6,0,0,1,160.42,314.26Z" transform="translate(0 -53.66)" fill="#ffe882"/><path d="M109.45,336.35H52.63a6,6,0,0,1-6-6h0a6,6,0,0,1,6-6h56.82a6,6,0,0,1,6,6h0A6,6,0,0,1,109.45,336.35Z" transform="translate(0 -53.66)" fill="#b4c9fe"/><path d="M262.08,336.35H205.26a6,6,0,0,1-6-6h0a6,6,0,0,1,6-6h56.82a6,6,0,0,1,6,6h0A6,6,0,0,1,262.08,336.35Z" transform="translate(0 -53.66)" fill="#b4c9fe"/><path d="M291.72,336.35H281.37a6,6,0,0,1-6-6h0a6,6,0,0,1,6-6h10.35a6,6,0,0,1,6,6h0A6,6,0,0,1,291.72,336.35Z" transform="translate(0 -53.66)" fill="#b4c9fe"/><path d="M147.63,336.35H129.29a6,6,0,0,1-6-6h0a6,6,0,0,1,6-6h18.34a6,6,0,0,1,6,6h0A6,6,0,0,1,147.63,336.35Z" transform="translate(0 -53.66)" fill="#e96f6f"/><path d="M185.45,336.35H167.11a6,6,0,0,1-6-6h0a6,6,0,0,1,6-6h18.34a6,6,0,0,1,6,6h0A6,6,0,0,1,185.45,336.35Z" transform="translate(0 -53.66)" fill="#e96f6f"/><polygon points="575.2 174.66 416.96 332.9 575.2 332.9 575.2 174.66" fill="#b4c9fe" opacity="0.3"/><polygon points="21 20.99 21 230.75 230.76 20.99 21 20.99" fill="#b4c9fe" opacity="0.3"/></svg>