<svg id="Ebene_1" data-name="Ebene 1" xmlns="http://www.w3.org/2000/svg" viewBox="0 0 600 325.08"><path d="M225.93,367.9V137.46h71.22q36.09,0,54.84,16.06t18.76,47.09q0,17.56-7.76,30.23a45.76,45.76,0,0,1-21.21,18.52,40.29,40.29,0,0,1,23.9,17.8q8.38,13.38,8.39,33,0,33.55-18.44,50.65T302.22,367.9Zm46.53-134h24.22q27.38,0,27.38-28.33,0-15.68-6.33-22.48t-20.58-6.8H272.46Zm0,33.87v61.57h29.76q12.5,0,19-7.76t6.49-22q0-31-22.48-31.81Z" transform="translate(0 -137.46)" style="fill:#b53673"/><path d="M115,394.38l-62.51,11-4,48.59L0,462.54,30.9,223.09l41.93-7.39L184.24,430.05l-49,8.63ZM55.68,365.45,98.08,358,62.62,280.82Z" transform="translate(0 -137.46)" style="fill:#b55784"/><path d="M585.72,390.66q-8.57,38.52-32.18,54.92t-60.26,9.94q-38.5-6.78-54.53-35.73T431,343.93l6.74-38.18Q446,259,471.64,237.4T535,222.46q37.1,6.54,52.69,30.66t11.4,63.41l-46-8.11q3.61-24.12-1.56-34.43t-23.26-13.5q-18.39-3.24-28.29,8.27t-15.57,40.89l-7.56,42.86q-6,33.83-.63,47.78T500,417.49q18.07,3.19,26.49-4.41t13.41-30.5Z" transform="translate(0 -137.46)" style="fill:#a3174f"/></svg>