<svg id="Ebene_1" data-name="Ebene 1" xmlns="http://www.w3.org/2000/svg" viewBox="0 0 519.86 600"><path id="background" d="M299.75,600,40.07,449.79l.25-300L300.25,0,559.93,150.21l-.25,300Z" transform="translate(-40.07)" style="fill:#a3174f"/><path d="M299.85,481.67l-157.58-91L142.42,209l157.73-90.71,157.58,91L457.58,391ZM161.29,379.76l138.58,80L438.58,380l.13-159.75-138.58-80L161.42,220Z" transform="translate(-40.07)" style="fill:#f6f6f6"/><path d="M370.5,318.18A18.66,18.66,0,0,0,384.35,314a20.52,20.52,0,0,0,7.39-13.9,21.34,21.34,0,0,0-5.07-15.79,23.29,23.29,0,0,0-15.84-8.19l-.44,0h-133a23.31,23.31,0,0,0-15.85,8.19A21.4,21.4,0,0,0,216.43,300a20.55,20.55,0,0,0,7.4,13.91,18.68,18.68,0,0,0,13.85,4.23,17.73,17.73,0,0,0,12-6.61A15.85,15.85,0,0,0,253,299.65a15,15,0,0,0-5.84-10,13.1,13.1,0,0,0-10-2.53,12.34,12.34,0,0,0-8.09,5.1,10.32,10.32,0,0,0-1.64,8.05,9.38,9.38,0,0,0,3.69,5.65,7.76,7.76,0,0,0,6.86,1.19,6.46,6.46,0,0,0,3.71-3,5.18,5.18,0,0,0,0-5.2,3.23,3.23,0,0,0-2.78-1.73,2.81,2.81,0,0,0-2.1.38,3.1,3.1,0,0,0-1.17,2.31,1.81,1.81,0,0,0,.51,1.29,1.52,1.52,0,0,1-1.48,2.54,4.36,4.36,0,0,1-1.47-.71,6.11,6.11,0,0,1-2.29-3.49,6.83,6.83,0,0,1,1.15-5.31,8.6,8.6,0,0,1,5.65-3.57,9.6,9.6,0,0,1,7.29,1.9,11.29,11.29,0,0,1,4.42,7.58,12.29,12.29,0,0,1-2.68,9.25,14.06,14.06,0,0,1-9.5,5.27,15,15,0,0,1-11.21-3.47,16.9,16.9,0,0,1-6.1-11.44,17.84,17.84,0,0,1,4.27-13.16,19.63,19.63,0,0,1,13.37-6.92l132.55,0,.4,0a19.65,19.65,0,0,1,13.34,6.92,17.84,17.84,0,0,1,4.26,13.16,16.89,16.89,0,0,1-6.09,11.44,15.06,15.06,0,0,1-11.21,3.47,14.16,14.16,0,0,1-9.51-5.27,12.38,12.38,0,0,1-2.68-9.25,11.31,11.31,0,0,1,4.43-7.58,9.59,9.59,0,0,1,7.29-1.9,8.62,8.62,0,0,1,5.65,3.57,6.82,6.82,0,0,1,1.14,5.31,6.09,6.09,0,0,1-2.28,3.5,4.51,4.51,0,0,1-1.45.69,1.52,1.52,0,0,1-1.73-.67,1.54,1.54,0,0,1,.22-1.85,1.87,1.87,0,0,0,.52-1.29,3.13,3.13,0,0,0-1.18-2.32,2.66,2.66,0,0,0-2.08-.37,3.21,3.21,0,0,0-2.8,1.72,5.2,5.2,0,0,0,0,5.2,6.44,6.44,0,0,0,3.7,3A7.76,7.76,0,0,0,377,305.9a9.35,9.35,0,0,0,3.7-5.65,10.25,10.25,0,0,0-1.65-8.05,12.39,12.39,0,0,0-8.08-5.1,13.1,13.1,0,0,0-10,2.53,14.92,14.92,0,0,0-5.84,10,15.87,15.87,0,0,0,3.38,11.91A17.75,17.75,0,0,0,370.5,318.18Z" transform="translate(-40.07)" style="fill:#f6f6f6"/><path d="M380.36,240.73H229.86a3.13,3.13,0,0,0-3.14,3.13v6.27a3.12,3.12,0,0,0,.92,2.22l12.54,12.54a3.14,3.14,0,0,0,2.22.92H367.82a3.12,3.12,0,0,0,2.21-.92l12.54-12.54a3.12,3.12,0,0,0,.92-2.22v-6.27A3.13,3.13,0,0,0,380.36,240.73Zm-3.14,8.1-10.7,10.71H243.7L233,248.83V247H377.22Z" transform="translate(-40.07)" style="fill:#f6f6f6"/><path d="M342.73,290.89H267.48a3.14,3.14,0,0,0-3.13,3.14v87.79a3.13,3.13,0,0,0,4.87,2.61l17.84-11.89a3.13,3.13,0,0,0,1.39-2.56l1-57.09v-.05c0-2.06,6.31-2.11,6.27,0V363a3.13,3.13,0,0,0,3.14,3.13,3.17,3.17,0,0,0,1.74-.52l18.81-12.55a3.13,3.13,0,0,0,1.39-2.6V312.84c0-2.09,6.28-2.09,6.28,0V344.2a3.13,3.13,0,0,0,3.13,3.13,3.07,3.07,0,0,0,1.4-.33l12.54-6.27a3.13,3.13,0,0,0,1.74-2.81V294A3.14,3.14,0,0,0,342.73,290.89ZM339.6,336l-6.27,3.13V312.84c0-10.45-18.82-10.45-18.82,0v36L302,357.15V312.9c.19-10.49-18.81-10.55-18.81-.06v0l-1,55.44L270.62,376v-78.8h69Z" transform="translate(-40.07)" style="fill:#f6f6f6"/></svg>