<svg id="Ebene_1" data-name="Ebene 1" xmlns="http://www.w3.org/2000/svg" viewBox="0 0 600 522.31"><polygon points="512.4 256.2 512.4 396.69 370.25 254.54 512.4 256.2" style="fill:#be104f"/><rect x="274.38" width="325.62" height="325.62" rx="39.67" style="fill:#be104f"/><polygon points="324.44 155.69 370.58 325.62 325.62 325.62 324.44 155.69" style="fill:#8e063b"/><path d="M528,149.94H362.92a13.23,13.23,0,1,1,0-26.45H528a13.23,13.23,0,0,1,0,26.45Z" transform="translate(0 -38.84)" style="fill:#8e063b"/><path d="M445.45,147.89a13.22,13.22,0,0,1-13.22-13.22V116.94a13.23,13.23,0,0,1,26.45,0v17.73A13.22,13.22,0,0,1,445.45,147.89Z" transform="translate(0 -38.84)" style="fill:#8e063b"/><path d="M376,309.51a13.23,13.23,0,0,1-7.83-23.89,481.88,481.88,0,0,0,93.35-89.36,427.22,427.22,0,0,0,41.79-63.72A13.22,13.22,0,0,1,526.61,145a454.79,454.79,0,0,1-44.37,67.67,508.34,508.34,0,0,1-98.46,94.28A13.14,13.14,0,0,1,376,309.51Z" transform="translate(0 -38.84)" style="fill:#8e063b"/><path d="M505.39,309.5a13.14,13.14,0,0,1-7.89-2.62,528.31,528.31,0,0,1-67.92-60.15,478.89,478.89,0,0,1-55.19-70.13,13.22,13.22,0,0,1,22.24-14.31,454.2,454.2,0,0,0,52.14,66.25,503.6,503.6,0,0,0,64.53,57.14,13.22,13.22,0,0,1-7.91,23.82Z" transform="translate(0 -38.84)" style="fill:#8e063b"/><path d="M519.73,145H354.65a13.22,13.22,0,1,1,0-26.44H519.73a13.22,13.22,0,1,1,0,26.44Z" transform="translate(0 -38.84)" style="fill:#f5f5f5"/><path d="M437.19,142.94A13.22,13.22,0,0,1,424,129.71V112a13.22,13.22,0,0,1,26.44,0v17.73A13.22,13.22,0,0,1,437.19,142.94Z" transform="translate(0 -38.84)" style="fill:#f5f5f5"/><path d="M367.71,304.55a13.23,13.23,0,0,1-7.83-23.89,481.82,481.82,0,0,0,93.34-89.36A428.08,428.08,0,0,0,495,127.58,13.22,13.22,0,0,1,518.35,140,454.07,454.07,0,0,1,474,207.7,508.28,508.28,0,0,1,375.52,302,13.18,13.18,0,0,1,367.71,304.55Z" transform="translate(0 -38.84)" style="fill:#f5f5f5"/><path d="M497.12,304.55a13.2,13.2,0,0,1-7.89-2.62,530.51,530.51,0,0,1-67.92-60.15,480.11,480.11,0,0,1-55.18-70.14,13.22,13.22,0,0,1,22.24-14.31,452.31,452.31,0,0,0,52.14,66.25A502.83,502.83,0,0,0,505,280.72a13.22,13.22,0,0,1-7.91,23.83Z" transform="translate(0 -38.84)" style="fill:#f5f5f5"/><polygon points="87.6 381.82 87.6 522.31 229.75 380.17 87.6 381.82" style="fill:#ce5686"/><rect y="125.62" width="325.62" height="325.62" rx="39.67" style="fill:#ce5686"/><path d="M106,435.13A13.25,13.25,0,0,1,93.6,417.4l65-179.34a13.22,13.22,0,1,1,24.86,9l-65,179.34A13.23,13.23,0,0,1,106,435.13Z" transform="translate(0 -38.84)" style="fill:#d13376"/><path d="M236.12,435.13a13.22,13.22,0,0,1-12.43-8.72l-65-179.34a13.23,13.23,0,0,1,24.87-9l65,179.34a13.25,13.25,0,0,1-12.43,17.73Z" transform="translate(0 -38.84)" style="fill:#d13376"/><path d="M205,361.76H137.19a13.23,13.23,0,0,1,0-26.45H205a13.23,13.23,0,0,1,0,26.45Z" transform="translate(0 -38.84)" style="fill:#d13376"/><path d="M97.77,430.17a13.25,13.25,0,0,1-12.44-17.73l65-179.34a13.22,13.22,0,1,1,24.86,9l-65,179.34A13.23,13.23,0,0,1,97.77,430.17Z" transform="translate(0 -38.84)" style="fill:#f5f5f5"/><path d="M227.85,430.17a13.23,13.23,0,0,1-12.43-8.72l-65-179.34a13.22,13.22,0,1,1,24.86-9l65,179.34a13.25,13.25,0,0,1-12.44,17.73Z" transform="translate(0 -38.84)" style="fill:#f5f5f5"/><path d="M196.69,356.8H128.93a13.23,13.23,0,1,1,0-26.45h67.76a13.23,13.23,0,1,1,0,26.45Z" transform="translate(0 -38.84)" style="fill:#f5f5f5"/></svg>