<svg id="Ebene_1" data-name="Ebene 1" xmlns="http://www.w3.org/2000/svg" viewBox="0 0 564.13 600"><polygon points="532.34 435.6 235.53 596.1 0 160.49 296.83 0 532.34 435.6" style="fill:#ebebeb"/><polygon points="220.4 103.32 47.33 196.89 32.05 168.62 205.1 75.05 220.4 103.32" style="fill:#d2d2d2"/><rect x="63.68" y="148.7" width="288.25" height="17.53" transform="translate(-67.82 117.79) rotate(-28.4)" style="fill:#d2d2d2"/><polygon points="339.73 131.58 86.17 268.68 77.82 253.28 331.4 116.16 339.73 131.58" style="fill:#d2d2d2"/><polygon points="358.64 166.52 105.08 303.62 96.71 288.21 350.29 151.11 358.64 166.52" style="fill:#d2d2d2"/><polygon points="377.55 201.48 123.97 338.59 115.62 323.17 369.18 186.06 377.55 201.48" style="fill:#d2d2d2"/><polygon points="396.43 236.44 142.87 373.54 134.53 358.12 388.08 221.03 396.43 236.44" style="fill:#d2d2d2"/><polygon points="418.67 277.54 165.07 414.64 156.73 399.21 410.32 262.12 418.67 277.54" style="fill:#d2d2d2"/><polygon points="437.54 312.48 183.98 449.58 175.64 434.18 429.24 297.06 437.54 312.48" style="fill:#d2d2d2"/><polygon points="456.45 347.46 202.88 484.56 194.54 469.11 448.12 332.03 456.45 347.46" style="fill:#d2d2d2"/><polygon points="475.33 382.38 221.77 519.51 213.45 504.09 467.02 366.99 475.33 382.38" style="fill:#d2d2d2"/><polygon points="494.23 417.34 240.69 554.43 232.35 539.03 485.9 401.93 494.23 417.34" style="fill:#d2d2d2"/><polygon points="564.13 512.65 238.18 600 110.01 121.68 435.97 34.34 564.13 512.65" style="fill:#f0f0f0"/><polygon points="488.63 326.82 210.2 401.41 205.66 384.5 484.1 309.88 488.63 326.82" style="fill:#d2d2d2"/><polygon points="498.93 365.2 220.47 439.81 215.94 422.86 494.38 348.26 498.93 365.2" style="fill:#d2d2d2"/><polygon points="337.67 117.13 147.65 168.05 139.36 137.01 329.36 86.09 337.67 117.13" style="fill:#d2d2d2"/><polygon points="436.94 133.91 158.52 208.49 153.97 191.56 432.4 116.95 436.94 133.91" style="fill:#d2d2d2"/><polygon points="447.21 172.28 168.79 246.88 164.25 229.94 442.7 155.35 447.21 172.28" style="fill:#d2d2d2"/><polygon points="457.51 210.65 179.08 285.25 174.53 268.33 452.97 193.72 457.51 210.65" style="fill:#d2d2d2"/><rect x="200.11" y="269.11" width="288.27" height="17.53" transform="translate(-78.13 98.57) rotate(-15)" style="fill:#d2d2d2"/><polygon points="478.07 287.4 199.63 362.02 195.12 345.09 473.55 270.47 478.07 287.4" style="fill:#d2d2d2"/><polygon points="396.5 510.33 438.32 437.88 522.85 291.41 529.2 295.07 539.55 301.04 539.59 301.03 545.99 304.75 461.39 451.19 419.55 523.63 413.22 519.98 402.82 514.01 396.5 510.33" style="fill:#7a0f3c"/><polygon points="402.84 514.01 529.2 295.09 539.59 301.05 413.22 520.01 402.84 514.01" style="fill:#a3174f"/><polygon points="522.85 291.41 552.12 259.79 562.75 248.21 563.82 247.05 563.34 248.57 558.71 263.64 545.99 304.75 539.59 301.03 539.55 301.04 529.2 295.07 522.85 291.41" style="fill:#ddc5a8"/><polygon points="539.59 301.05 563.84 247.09 529.2 295.09 539.59 301.05" style="fill:#e2d1bf"/><polygon points="552.12 259.79 562.75 248.21 563.82 247.05 563.34 248.57 558.71 263.64 556.9 262.55 553.87 260.8 552.12 259.79" style="fill:#f6f6f6"/><path d="M313,533.28a40.83,40.83,0,1,1,28.88-50A40.9,40.9,0,0,1,313,533.28Zm-19.44-72.6A34.33,34.33,0,1,0,335.64,485,34.34,34.34,0,0,0,293.59,460.68Z" transform="translate(-17.93)" style="fill:#b55784"/><path d="M329.76,486.52a28.25,28.25,0,1,1-34.61-20A28.26,28.26,0,0,1,329.76,486.52Z" transform="translate(-17.93)" style="fill:#b55784"/></svg>