<svg xmlns="http://www.w3.org/2000/svg" viewBox="0 0 600 353.23"><g style="isolation:isolate"><g id="Ebene_1" data-name="Ebene 1"><polygon points="600 322.47 347.16 111.01 265.08 295.14 591.37 341.83 600 322.47" style="fill:#a3174f"/><polygon points="531.18 264.92 488.92 229.57 448.02 321.31 502.57 329.12 531.18 264.92" style="fill:#f6f6f6"/><polygon points="320.95 303.13 406.81 315.42 456.99 202.86 390.45 147.22 320.95 303.13" style="fill:#f6f6f6"/><rect x="130.94" y="303.85" width="308.49" height="26.55" transform="translate(690.94 62.38) rotate(114.03)" style="fill:#a3174f"/><polygon points="234.51 340.03 230.27 316.94 335.86 47.45 210.25 329.22 234.51 340.03" style="fill:#202020;opacity:0.1;mix-blend-mode:multiply"/><polygon points="248.12 309.5 346.5 88.79 347.16 111.01 265.08 295.14 248.12 309.5" style="fill:#7a0f3c"/><path d="M412.85,439.67q-12.63-6.19-24.73-13.58c-31.72-19.5-62.1-48.85-54.38-90,2.93-15.59,9.24-32.05,20.64-43.5s23.67-18.06,38-20.44L347.16,234.4,265.09,418.52Z" transform="translate(0 -123.38)" style="fill:#202020;opacity:0.1;mix-blend-mode:multiply"/><path d="M390.26,291.51h0a4.19,4.19,0,0,1,5.89-.61L579.31,439.22a4.18,4.18,0,0,1,.62,5.89h0a4.19,4.19,0,0,1-5.89.62L390.88,297.41A4.19,4.19,0,0,1,390.26,291.51Z" transform="translate(0 -123.38)" style="fill:#fff;opacity:0.30000000000000004;mix-blend-mode:screen"/><polygon points="143.65 0 53.45 317.03 255.04 317.03 164.84 0 143.65 0" style="fill:#b55784"/><polygon points="119.1 86.28 104.02 139.29 204.47 139.29 189.39 86.28 119.1 86.28" style="fill:#f6f6f6"/><polygon points="239.6 262.75 215.86 179.32 92.63 179.32 68.89 262.75 239.6 262.75" style="fill:#f6f6f6"/><rect y="326.68" width="308.49" height="26.55" style="fill:#b55784"/><polygon points="308.49 326.68 289.13 339.96 0 353.23 308.49 353.23 308.49 326.68" style="fill:#202020;opacity:0.1;mix-blend-mode:multiply"/><polygon points="275.07 326.68 33.42 326.68 53.45 317.03 255.04 317.03 275.07 326.68" style="fill:#b53673"/><path d="M214.19,296.84c-.34,9.37-1.09,18.75-2.33,28.11-4.9,36.92-19.33,76.61-60,86.3-15.43,3.67-33,4.61-48.13-1.14s-26.13-14.26-34.13-26.36L53.45,440.41H255Z" transform="translate(0 -123.38)" style="fill:#202020;opacity:0.1;mix-blend-mode:multiply"/><path d="M88.07,377.79h0a4.19,4.19,0,0,1-3-5.13L146,145a4.18,4.18,0,0,1,5.13-3h0a4.19,4.19,0,0,1,3,5.13L93.2,374.83A4.18,4.18,0,0,1,88.07,377.79Z" transform="translate(0 -123.38)" style="fill:#fff;opacity:0.30000000000000004;mix-blend-mode:screen"/></g></g></svg>