<svg id="Ebene_1" data-name="Ebene 1" xmlns="http://www.w3.org/2000/svg" viewBox="0 0 506.01 600"><path d="M106.81,598.47h442.3a2,2,0,0,0,2-2V3.78a2,2,0,0,0-2-2H106.81Z" transform="translate(-46.99)" style="fill:#b55784"/><path d="M47,61.57V538.65c0,68.36,59.82,59.82,59.82,59.82V1.76S47-6.78,47,61.57Z" transform="translate(-46.99)" style="fill:#a3174f"/><rect x="152.2" y="141.33" width="259.55" height="158.79" rx="3.53" style="fill:#b53673"/><path d="M225.81,250.39l21.71-62.87a18.12,18.12,0,0,1,34.19,0l21.48,62.18a12.09,12.09,0,0,1,.58,3.43,10.43,10.43,0,0,1-20.35,3.2l-3.78-12H248.56l-3.77,12.23a10,10,0,0,1-19.55-3A10,10,0,0,1,225.81,250.39Zm48.46-23-5.48-17.48c-1.73-5.55-2.76-9.55-4-14.52h-1.37c-1.25,5-2.27,9-4,14.52l-5.49,17.48Z" transform="translate(-46.99)" style="fill:#f6f6f6"/><path d="M319.58,219.64h24.58a8.52,8.52,0,0,1,0,17H319.58a8.52,8.52,0,0,1,0-17Z" transform="translate(-46.99)" style="fill:#f6f6f6"/><path d="M362.24,248.22l40.47-54.52H371.39a8.69,8.69,0,0,1,0-17.38h49.95a9.4,9.4,0,0,1,7.54,15l-40.23,54H423.4a8.69,8.69,0,0,1,0,17.37H369.56a9,9,0,0,1-9-9A8.62,8.62,0,0,1,362.24,248.22Z" transform="translate(-46.99)" style="fill:#f6f6f6"/><path d="M466.71,3.42l83,83a1.88,1.88,0,0,0,3.21-1.33V7.39A7.39,7.39,0,0,0,545.49,0L468,.21A1.88,1.88,0,0,0,466.71,3.42Z" transform="translate(-46.99)" style="fill:#b53673"/><path d="M549.58,513.81l-83,83a1.88,1.88,0,0,0,1.33,3.21h77.68a7.39,7.39,0,0,0,7.39-7.41l-.21-77.45A1.89,1.89,0,0,0,549.58,513.81Z" transform="translate(-46.99)" style="fill:#b53673"/></svg>