<svg id="Ebene_1" data-name="Ebene 1" xmlns="http://www.w3.org/2000/svg" viewBox="0 0 600 472.2"><path d="M328.86,63.9H57.6A57.77,57.77,0,0,0,0,121.5v80.89A57.77,57.77,0,0,0,57.6,260H67v53.79a7.5,7.5,0,0,0,12.8,5.31L138.9,260h190a57.77,57.77,0,0,0,57.6-57.6V121.5A57.77,57.77,0,0,0,328.86,63.9Z" transform="translate(0 -63.9)" style="fill:#a3174f"/><path d="M542.4,278.7H271.14a57.77,57.77,0,0,0-57.6,57.6v80.89a57.77,57.77,0,0,0,57.6,57.6h190l59.1,59.1a7.5,7.5,0,0,0,12.8-5.31V474.79h9.4a57.77,57.77,0,0,0,57.6-57.6V336.3A57.77,57.77,0,0,0,542.4,278.7Z" transform="translate(0 -63.9)" style="fill:#b55784"/><circle cx="123.44" cy="98.52" r="24.9" style="fill:#f6f6f6"/><circle cx="193.23" cy="98.52" r="24.9" style="fill:#f6f6f6"/><circle cx="263.02" cy="98.52" r="24.9" style="fill:#f6f6f6"/><circle cx="336.98" cy="310.3" r="24.9" style="fill:#f6f6f6"/><circle cx="406.77" cy="310.3" r="24.9" style="fill:#f6f6f6"/><path d="M501.46,374.2a24.9,24.9,0,1,1-24.9-24.9A24.9,24.9,0,0,1,501.46,374.2Z" transform="translate(0 -63.9)" style="fill:#f6f6f6"/></svg>