<svg id="Ebene_1" data-name="Ebene 1" xmlns="http://www.w3.org/2000/svg" viewBox="0 0 600 156.37"><path d="M189.57,310.93h22.77v21.16H189.57v32.74H168V332.09H144.84V310.93H168V279.55h21.56Z" transform="translate(0 -221.81)" style="fill:#e45252"/><path d="M448.17,316.72H386.78V297.57h61.39Zm0,34.84H386.78V332.49h61.39Z" transform="translate(0 -221.81)" style="fill:#8b2f30"/><path d="M63.56,352.6H31.3l-6.28,24H0L36.61,259.44H58.25L95.1,376.58H69.83ZM36.45,332.89H58.33L47.39,291.14Z" transform="translate(0 -221.81)" style="fill:#e96f6f"/><path d="M118.29,281.19H83.78v-8.05L99.63,253a44.27,44.27,0,0,0,4.44-7.34,14.76,14.76,0,0,0,1.43-6.06,11.7,11.7,0,0,0-1.35-6.11,4.28,4.28,0,0,0-3.88-2.21,5,5,0,0,0-4.41,2.57,13.6,13.6,0,0,0-1.62,7.24H82.81A21.67,21.67,0,0,1,85,231.23a16.65,16.65,0,0,1,6.28-6.94,17.15,17.15,0,0,1,9.15-2.48q7.84,0,12.17,4.33T117,238.43a23.34,23.34,0,0,1-2.39,10q-2.4,5.1-8.67,12.53l-7.52,10.74h19.91Z" transform="translate(0 -221.81)" style="fill:#e96f6f"/><path d="M237.24,376.58V259.44h36.21q18.35,0,27.88,8.16t9.53,23.94a28.82,28.82,0,0,1-3.94,15.36,23.26,23.26,0,0,1-10.78,9.42,20.48,20.48,0,0,1,12.14,9.05q4.28,6.79,4.27,16.77,0,17.07-9.37,25.75T276,376.58Zm23.66-68.15h12.31q13.92,0,13.92-14.4,0-8-3.22-11.42t-10.46-3.46H260.9Zm0,17.22V357H276q6.36,0,9.66-3.94t3.3-11.19q0-15.76-11.43-16.17Z" transform="translate(0 -221.81)" style="fill:#b43c3d"/><path d="M358.82,281.19H324.31v-8.05L340.16,253a44.27,44.27,0,0,0,4.44-7.34,14.76,14.76,0,0,0,1.43-6.06,11.7,11.7,0,0,0-1.35-6.11,4.28,4.28,0,0,0-3.88-2.21,5,5,0,0,0-4.41,2.57,13.6,13.6,0,0,0-1.62,7.24H323.34a21.67,21.67,0,0,1,2.23-9.85,16.65,16.65,0,0,1,6.28-6.94,17.15,17.15,0,0,1,9.15-2.48q7.85,0,12.17,4.33t4.32,12.29a23.34,23.34,0,0,1-2.39,10q-2.4,5.1-8.67,12.53l-7.52,10.74h19.91Z" transform="translate(0 -221.81)" style="fill:#b43c3d"/><path d="M555.42,337.56q-.88,20-11.26,30.33t-29.29,10.3q-19.87,0-30.45-13.08t-10.58-37.29V308.11q0-24.14,10.94-37.21t30.41-13.07q19.15,0,29.09,10.7t11.3,30.73H531.85q-.33-12.39-3.82-17.09t-12.84-4.71q-9.5,0-13.43,6.64t-4.19,21.84v22.12q0,17.46,3.91,24t13.39,6.52q9.33,0,12.87-4.55t4-16.45Z" transform="translate(0 -221.81)" style="fill:#6f2728"/><path d="M600,281.19H565.49v-8.05L581.33,253a43.74,43.74,0,0,0,4.45-7.34,14.76,14.76,0,0,0,1.43-6.06,11.7,11.7,0,0,0-1.35-6.11,4.28,4.28,0,0,0-3.88-2.21,5,5,0,0,0-4.41,2.57,13.6,13.6,0,0,0-1.63,7.24H564.52a21.67,21.67,0,0,1,2.23-9.85,16.65,16.65,0,0,1,6.28-6.94,17.15,17.15,0,0,1,9.15-2.48q7.85,0,12.17,4.33t4.32,12.29a23.49,23.49,0,0,1-2.39,10q-2.4,5.1-8.67,12.53l-7.52,10.74H600Z" transform="translate(0 -221.81)" style="fill:#6f2728"/></svg>