<svg id="Ebene_1" data-name="Ebene 1" xmlns="http://www.w3.org/2000/svg" viewBox="0 0 600 487.45"><path d="M507.19,387.39v61.47a49.61,49.61,0,0,1-22.08,41.34C453.84,511,390.21,543.72,300,543.72S146.16,511,114.89,490.2a49.61,49.61,0,0,1-22.08-41.34V387.39Z" transform="translate(0 -56.28)" style="fill:#b43c3d"/><path d="M507.19,262.74V387.39a49.61,49.61,0,0,1-22.08,41.34c-31.27,20.77-94.9,53.52-185.11,53.52S146.16,449.5,114.89,428.73a49.61,49.61,0,0,1-22.08-41.34V262.74Z" transform="translate(0 -56.28)" style="fill:#f6f6f6"/><polygon points="427.43 153.27 300 274.33 266.52 299.72 300 348.09 600 205.92 600 132.16 427.43 153.27" style="fill:#e6e6e6"/><polygon points="172.57 153.27 0 132.16 0 205.92 300 348.09 300 274.33 172.57 153.27" style="fill:#e6e6e6"/><path d="M340.2,65.32a93.86,93.86,0,0,0-80.4,0L0,188.43,300,330.6,600,188.43Z" transform="translate(0 -56.28)" style="fill:#f6f6f6"/><path d="M565.6,353.32a9.06,9.06,0,0,1-9.06-9.05v-63a66.54,66.54,0,0,0-60.44-66.5l-181-17.31a9.06,9.06,0,0,1,1.72-18l181,17.31a84.58,84.58,0,0,1,76.82,84.53v63A9,9,0,0,1,565.6,353.32Z" transform="translate(0 -56.28)" style="fill:#e45252"/><path d="M596.44,410.5c-1.54-42-10.43-60.27-10.43-60.27H545.18s-8.89,18.26-10.43,60.27a21.71,21.71,0,0,0,11.86,20.21c5.59,2.82,12.44,5.36,19,5.36s13.4-2.54,19-5.36A21.68,21.68,0,0,0,596.44,410.5Z" transform="translate(0 -56.28)" style="fill:#e45252"/><circle cx="565.59" cy="288" r="21.27" style="fill:#b43c3d"/><ellipse cx="300" cy="132.16" rx="32.93" ry="23.88" style="fill:#b43c3d"/></svg>