<svg id="Ebene_1" data-name="Ebene 1" xmlns="http://www.w3.org/2000/svg" viewBox="0 0 519.86 600"><path id="background" d="M299.75,600,40.07,449.79l.25-300L300.25,0,559.93,150.21l-.25,300Z" transform="translate(-40.07)" style="fill:#b43c3d"/><path id="white_hexagon" data-name="white hexagon" d="M299.85,481.67l-157.25-91L142.75,209l157.4-90.71,157.25,91L457.25,391ZM161.58,379.76l138.29,80L438.29,380l.13-159.75-138.29-80L161.71,220Z" transform="translate(-40.07)" style="fill:#f6f5f5"/><g id="math"><rect x="170.2" y="298.85" width="179.46" height="3.43" style="fill:#f6f5f5"/><path d="M336.52,378.82c-22.4,0-31.84-37.76-41.84-77.74-4.5-18-9.15-36.56-14.78-50.06-5.55-13.3-11.4-20.05-17.4-20.05v-9.79c22.3,0,31.72,37.66,41.69,77.53,4.51,18,9.17,36.65,14.82,50.19,5.58,13.36,11.47,20.13,17.51,20.13Z" transform="translate(-40.07)" style="fill:#f6f5f5"/><path d="M336.55,378.82c-22.4,0-31.84-37.76-41.84-77.74-4.5-18-9.15-36.56-14.78-50.06-5.55-13.3-11.4-20.05-17.4-20.05-4.27,0-10.66,3.49-16.86,20.13-4.48,12-8.08,28.85-10.72,50.07l-9.73-1.2c6.58-53,18.79-78.79,37.31-78.79,22.3,0,31.72,37.66,41.69,77.53,4.51,18,9.17,36.65,14.82,50.19,5.58,13.36,11.47,20.13,17.51,20.13,4.25,0,10.6-3.42,16.78-19.73,4.48-11.81,8.09-28.41,10.75-49.35l9.73,1.23C367.18,353.42,355,378.82,336.55,378.82Z" transform="translate(-40.07)" style="fill:#f6f5f5"/><rect x="220.72" y="226.08" width="3.43" height="3.18" style="fill:#f6f5f5"/><path d="M264.22,292.59h-3.43v-6.34h3.43Zm0-12.67h-3.43v-6.33h3.43Zm0-12.66h-3.43v-6.34h3.43Zm0-12.67h-3.43v-6.33h3.43Zm0-12.67h-3.43v-6.33h3.43Z" transform="translate(-40.07)" style="fill:#f6f5f5"/><rect x="220.72" y="298.92" width="3.43" height="3.18" style="fill:#f6f5f5"/></g></svg>