<svg id="Ebene_1" data-name="Ebene 1" xmlns="http://www.w3.org/2000/svg" viewBox="0 0 600 398.07"><path d="M152.37,240.11a36.68,36.68,0,0,1-2.26-7.92A22.8,22.8,0,0,1,130.7,242q-12.81,0-21.24-8.48T101,211.56q0-16,10.22-24.77t29.44-8.95h8.1v-8.19q0-6.89-2.36-9.71t-6.87-2.82q-10,0-10,11.68H102.92a29.5,29.5,0,0,1,10.59-23.31q10.6-9.19,26.8-9.19,16.77,0,25.95,8.71t9.19,24.92v47.94q.18,13.2,3.76,20.63v1.61Zm-15.73-19a14.88,14.88,0,0,0,7.53-1.79,12.67,12.67,0,0,0,4.62-4.24v-21.2h-6.41q-6.78,0-10.69,4.34t-3.91,11.58Q127.78,221.08,136.64,221.08Z" transform="translate(0 -100.96)" style="fill:#e45252"/><path d="M215.23,271.31H201.86V218.94l-13.05,5V212.86l25-10.22h1.41Z" transform="translate(0 -100.96)" style="fill:#b43c3d"/><path d="M264,271.31H250.65V218.94l-13,5V212.86l25-10.22H264Z" transform="translate(0 -100.96)" style="fill:#b43c3d"/><path d="M152.37,430.56a36.73,36.73,0,0,1-2.26-7.91,22.8,22.8,0,0,1-19.41,9.8q-12.81,0-21.24-8.48T101,402q0-16,10.22-24.77t29.44-8.95h8.1v-8.2q0-6.87-2.36-9.7t-6.87-2.82q-10,0-10,11.68H102.92a29.52,29.52,0,0,1,10.59-23.32q10.6-9.18,26.8-9.18,16.77,0,25.95,8.71t9.19,24.92v47.94q.18,13.19,3.76,20.63v1.6Zm-15.73-19a14.78,14.78,0,0,0,7.53-1.79,12.65,12.65,0,0,0,4.62-4.23v-21.2h-6.41q-6.78,0-10.69,4.33t-3.91,11.59Q127.78,411.54,136.64,411.53Z" transform="translate(0 -100.96)" style="fill:#e45252"/><path d="M228.33,463.7H187.92v-9.42l18.55-23.6a51.74,51.74,0,0,0,5.21-8.59,17.29,17.29,0,0,0,1.67-7.09,13.77,13.77,0,0,0-1.58-7.16,5,5,0,0,0-4.54-2.59,5.84,5.84,0,0,0-5.16,3q-1.9,3-1.91,8.48H186.79a25.48,25.48,0,0,1,2.61-11.54,19.49,19.49,0,0,1,7.35-8.12,20.09,20.09,0,0,1,10.71-2.9q9.19,0,14.25,5.06t5.06,14.39a27.42,27.42,0,0,1-2.8,11.75q-2.81,6-10.15,14.67L205,452.63h23.32Z" transform="translate(0 -100.96)" style="fill:#b43c3d"/><path d="M266.05,463.7H252.68V411.32l-13.05,5V405.25l25-10.22h1.41Z" transform="translate(0 -100.96)" style="fill:#b43c3d"/><path d="M376.15,240.11a36.68,36.68,0,0,1-2.26-7.92,22.81,22.81,0,0,1-19.41,9.8q-12.81,0-21.24-8.48t-8.43-21.95q0-16,10.22-24.77t29.44-8.95h8.1v-8.19q0-6.89-2.36-9.71t-6.87-2.82q-10,0-10,11.68H326.69a29.51,29.51,0,0,1,10.6-23.31q10.6-9.19,26.8-9.19,16.77,0,26,8.71t9.18,24.92v47.94q.19,13.2,3.77,20.63v1.61Zm-15.73-19a14.88,14.88,0,0,0,7.53-1.79,12.75,12.75,0,0,0,4.62-4.24v-21.2h-6.41q-6.78,0-10.69,4.34t-3.91,11.58Q351.56,221.08,360.42,221.08Z" transform="translate(0 -100.96)" style="fill:#e45252"/><path d="M437.08,271.74H423.71V219.36l-13,5V213.29l25-10.22h1.41Z" transform="translate(0 -100.96)" style="fill:#b43c3d"/><path d="M496.94,271.74h-40.4v-9.42l18.55-23.6a52.44,52.44,0,0,0,5.21-8.59A17.29,17.29,0,0,0,482,223a13.77,13.77,0,0,0-1.58-7.16,5,5,0,0,0-4.55-2.59,5.83,5.83,0,0,0-5.15,3q-1.9,3-1.91,8.48H455.4A25.49,25.49,0,0,1,458,213.24a19.54,19.54,0,0,1,7.34-8.12,20.15,20.15,0,0,1,10.72-2.9q9.18,0,14.25,5.06t5.06,14.39a27.42,27.42,0,0,1-2.8,11.75q-2.8,6-10.15,14.67l-8.81,12.58h23.31Z" transform="translate(0 -100.96)" style="fill:#b43c3d"/><path d="M376.15,430.56a36.73,36.73,0,0,1-2.26-7.91,22.81,22.81,0,0,1-19.41,9.8q-12.81,0-21.24-8.48t-8.43-22q0-16,10.22-24.77t29.44-8.95h8.1v-8.2q0-6.87-2.36-9.7t-6.87-2.82q-10,0-10,11.68H326.69a29.53,29.53,0,0,1,10.6-23.32q10.6-9.18,26.8-9.18,16.77,0,26,8.71t9.18,24.92v47.94q.19,13.19,3.77,20.63v1.6Zm-15.73-19a14.78,14.78,0,0,0,7.53-1.79,12.73,12.73,0,0,0,4.62-4.23v-21.2h-6.41q-6.78,0-10.69,4.33t-3.91,11.59Q351.56,411.54,360.42,411.53Z" transform="translate(0 -100.96)" style="fill:#e45252"/><path d="M450.18,463.7H409.77v-9.42l18.55-23.6a51.74,51.74,0,0,0,5.21-8.59A17.29,17.29,0,0,0,435.2,415a13.77,13.77,0,0,0-1.58-7.16,5,5,0,0,0-4.54-2.59,5.84,5.84,0,0,0-5.16,3q-1.91,3-1.91,8.48H408.64a25.48,25.48,0,0,1,2.61-11.54,19.49,19.49,0,0,1,7.35-8.12,20.09,20.09,0,0,1,10.71-2.9q9.19,0,14.25,5.06t5.06,14.39a27.42,27.42,0,0,1-2.8,11.75q-2.81,6-10.15,14.67l-8.81,12.58h23.32Z" transform="translate(0 -100.96)" style="fill:#b43c3d"/><path d="M499,463.7H458.56v-9.42l18.56-23.6a51.6,51.6,0,0,0,5.2-8.59A17.29,17.29,0,0,0,484,415a13.78,13.78,0,0,0-1.57-7.16,5,5,0,0,0-4.55-2.59,5.84,5.84,0,0,0-5.16,3q-1.9,3-1.9,8.48H457.43A25.48,25.48,0,0,1,460,405.2a19.56,19.56,0,0,1,7.35-8.12,20.15,20.15,0,0,1,10.72-2.9q9.18,0,14.24,5.06t5.07,14.39a27.44,27.44,0,0,1-2.81,11.75q-2.81,6-10.15,14.67l-8.8,12.58H499Z" transform="translate(0 -100.96)" style="fill:#b43c3d"/><path d="M0,299.15q0-49.35,13.38-92.88T51.24,130q14.88-19.78,28.64-29l6.59,23q-22.6,21.66-37.11,65.28T33.53,286.15l-.18,15.26q0,66.32,18.65,117.18,14.13,38.25,34.47,59.16L79.88,499Q62.54,487.36,44.65,460.6,0,393.35,0,299.15Z" transform="translate(0 -100.96)" style="fill:#e96f6f"/><path d="M555.35,460.6q-17.9,26.76-35.23,38.44l-6.59-21.29q20.34-20.91,34.47-59.16,18.66-50.86,18.65-117.18l-.18-15.26q-1.32-53.31-15.83-96.92T513.53,124l6.59-23q13.75,9.24,28.64,29,24.5,32.78,37.86,76.29T600,299.15Q600,393.35,555.35,460.6Z" transform="translate(0 -100.96)" style="fill:#e96f6f"/></svg>