<svg id="Ebene_1" data-name="Ebene 1" xmlns="http://www.w3.org/2000/svg" viewBox="0 0 367.82 600"><rect width="367.82" height="600" rx="30" style="fill:#333"/><rect x="21.7" y="166.6" width="324.43" height="412.3" rx="15" style="fill:#4d4d4d"/><rect x="27.79" y="29.6" width="312.24" height="112.34" rx="25.49" style="fill:#e6e6e6"/><rect x="37.97" y="182.61" width="61" height="61" rx="10" style="fill:#e96f6f"/><path d="M164,223.4a1.65,1.65,0,0,1-.55-1.32v-10.5a9.15,9.15,0,0,1,2.5-6.82,9.43,9.43,0,0,1,6.93-2.46,10.84,10.84,0,0,1,5.05,1.11,7.57,7.57,0,0,1,3.25,3.21,10.35,10.35,0,0,1,1.13,5v10.5a1.68,1.68,0,0,1-.54,1.32,2.09,2.09,0,0,1-1.44.48,2.11,2.11,0,0,1-1.46-.49,1.67,1.67,0,0,1-.55-1.31v-4.89H167.45v4.89a1.68,1.68,0,0,1-.56,1.31,2.4,2.4,0,0,1-2.89,0Zm14.32-9.3v-2.61A6.55,6.55,0,0,0,177,207a5.21,5.21,0,0,0-4.07-1.52q-5.43,0-5.43,6v2.61Z" transform="translate(-116.09)" style="fill:#f6f6f6"/><path d="M190.35,222.62a8.89,8.89,0,0,1-3.81-3.72,13.27,13.27,0,0,1,0-11.54,9.07,9.07,0,0,1,3.8-3.76,12.36,12.36,0,0,1,5.84-1.3,13.62,13.62,0,0,1,5.16,1,7.75,7.75,0,0,1,3.51,2.55,1.63,1.63,0,0,1,.36,1,1.69,1.69,0,0,1-.81,1.35,1.46,1.46,0,0,1-.9.27,2.24,2.24,0,0,1-.9-.19,2,2,0,0,1-.75-.56,6,6,0,0,0-2.37-1.69,9.13,9.13,0,0,0-3.3-.53,6.56,6.56,0,0,0-5.11,2,8.13,8.13,0,0,0-1.83,5.66,8,8,0,0,0,1.85,5.61,6.65,6.65,0,0,0,5.15,2,8.21,8.21,0,0,0,6-2.22,2.64,2.64,0,0,1,1.71-.87,1.55,1.55,0,0,1,1,.36,1.74,1.74,0,0,1,.69,1.32,1.71,1.71,0,0,1-.39,1.05A8.39,8.39,0,0,1,201.6,223a14.67,14.67,0,0,1-5.36.93A12.66,12.66,0,0,1,190.35,222.62Z" transform="translate(-116.09)" style="fill:#f6f6f6"/><rect x="114.93" y="182.61" width="61" height="61" rx="10" style="fill:gray"/><path d="M256.43,222.62a8.89,8.89,0,0,1-3.81-3.72,13.27,13.27,0,0,1,0-11.54,9.07,9.07,0,0,1,3.8-3.76,12.33,12.33,0,0,1,5.84-1.3,13.62,13.62,0,0,1,5.16,1,7.75,7.75,0,0,1,3.51,2.55,1.63,1.63,0,0,1,.36,1,1.69,1.69,0,0,1-.81,1.35,1.46,1.46,0,0,1-.9.27,2.24,2.24,0,0,1-.9-.19,2,2,0,0,1-.75-.56,6,6,0,0,0-2.37-1.69,9.13,9.13,0,0,0-3.3-.53,6.53,6.53,0,0,0-5.11,2,8.13,8.13,0,0,0-1.83,5.66,8,8,0,0,0,1.85,5.61,6.63,6.63,0,0,0,5.15,2,8.21,8.21,0,0,0,6-2.22,2.64,2.64,0,0,1,1.71-.87,1.55,1.55,0,0,1,1,.36,1.74,1.74,0,0,1,.69,1.32,1.71,1.71,0,0,1-.39,1.05,8.36,8.36,0,0,1-3.68,2.58,14.61,14.61,0,0,1-5.35.93A12.64,12.64,0,0,1,256.43,222.62Z" transform="translate(-116.09)" style="fill:#f6f6f6"/><rect x="191.89" y="182.61" width="61" height="61" rx="10" style="fill:gray"/><path d="M328.78,210.75a6.2,6.2,0,0,1-2.36-2.21,5.71,5.71,0,0,1,0-6.06,6.23,6.23,0,0,1,2.36-2.19,7,7,0,0,1,6.51,0,6.16,6.16,0,0,1,2.34,2.19,5.67,5.67,0,0,1,.87,3.06,5.58,5.58,0,0,1-.87,3,6.3,6.3,0,0,1-2.36,2.19,6.9,6.9,0,0,1-6.49,0Zm-.59,14a2.5,2.5,0,0,1,.45-1.4l15.86-23a2,2,0,0,1,1.78-1,3.14,3.14,0,0,1,1.36.34,2,2,0,0,1,1.24,1.7,2.3,2.3,0,0,1-.41,1.21l-16,23.22a2.93,2.93,0,0,1-.83.74,2.18,2.18,0,0,1-1.06.28,2.73,2.73,0,0,1-1.51-.49A1.88,1.88,0,0,1,328.19,224.74Zm5.46-17.45a2.53,2.53,0,0,0,.58-1.77,2.57,2.57,0,0,0-.58-1.81,2.07,2.07,0,0,0-1.61-.65,2.17,2.17,0,0,0-1.66.65,2.53,2.53,0,0,0-.6,1.81,2.5,2.5,0,0,0,.6,1.77,2.16,2.16,0,0,0,1.66.64A2.07,2.07,0,0,0,333.65,207.29Zm8,18.63a6.18,6.18,0,0,1-2.36-2.2,5.63,5.63,0,0,1-.87-3,5.58,5.58,0,0,1,.87-3,6.23,6.23,0,0,1,2.36-2.19,6.95,6.95,0,0,1,6.51,0,6.16,6.16,0,0,1,2.34,2.19,5.67,5.67,0,0,1,.87,3.06,5.55,5.55,0,0,1-.87,3,6.23,6.23,0,0,1-2.36,2.19,6.83,6.83,0,0,1-6.49,0Zm4.87-3.45a2.54,2.54,0,0,0,.59-1.77,2.62,2.62,0,0,0-.59-1.82,2.1,2.1,0,0,0-1.61-.64,2.21,2.21,0,0,0-1.66.64,2.58,2.58,0,0,0-.6,1.82,2.5,2.5,0,0,0,.6,1.77,2.18,2.18,0,0,0,1.66.64A2.07,2.07,0,0,0,346.56,222.47Z" transform="translate(-116.09)" style="fill:#f6f6f6"/><rect x="268.85" y="182.61" width="61" height="61" rx="10" style="fill:gray"/><path d="M413.12,208.71a2.74,2.74,0,0,1-.87-2.1,2.83,2.83,0,0,1,.87-2.15,3.15,3.15,0,0,1,2.26-.83,3.33,3.33,0,0,1,2.34.83,2.76,2.76,0,0,1,.91,2.15,2.67,2.67,0,0,1-.91,2.1,3.36,3.36,0,0,1-2.34.81A3.18,3.18,0,0,1,413.12,208.71Zm0,13.06a2.73,2.73,0,0,1-.87-2.09,2.86,2.86,0,0,1,.87-2.16,3.15,3.15,0,0,1,2.26-.83,3.33,3.33,0,0,1,2.34.83,2.78,2.78,0,0,1,.91,2.16,2.66,2.66,0,0,1-.91,2.09,3.36,3.36,0,0,1-2.34.81A3.18,3.18,0,0,1,413.12,221.77Z" transform="translate(-116.09)" style="fill:#f6f6f6"/><rect x="37.97" y="262.43" width="61" height="61" rx="10" style="fill:gray"/><path d="M177.67,304.24a3,3,0,0,1,.45-1.44l11.4-19.4H176.31a2.87,2.87,0,0,1-1.72-.49,1.69,1.69,0,0,1-.66-1.44,1.76,1.76,0,0,1,.64-1.47,2.79,2.79,0,0,1,1.74-.49h16.27a3,3,0,0,1,1.89.56,1.91,1.91,0,0,1,.72,1.59,3.92,3.92,0,0,1-.57,1.89l-12.38,21.56a2.61,2.61,0,0,1-.91.9,2.34,2.34,0,0,1-1.24.34,2.52,2.52,0,0,1-1.33-.38A1.92,1.92,0,0,1,177.67,304.24Z" transform="translate(-116.09)" style="fill:#f6f6f6"/><rect x="114.93" y="262.43" width="61" height="61" rx="10" style="fill:gray"/><path d="M253,304.46a6.65,6.65,0,0,1-3-5.87,5.6,5.6,0,0,1,1.32-3.6,9.46,9.46,0,0,1,3.59-2.66v-.08A7.53,7.53,0,0,1,252,290a5.15,5.15,0,0,1-1.06-3.14,6.36,6.36,0,0,1,2.79-5.51c1.87-1.31,4.47-2,7.82-2s6,.65,7.82,2a6.36,6.36,0,0,1,2.79,5.51,5.15,5.15,0,0,1-1.06,3.14,7.53,7.53,0,0,1-2.87,2.3v.08a9.46,9.46,0,0,1,3.59,2.66,5.6,5.6,0,0,1,1.32,3.6,6.65,6.65,0,0,1-3,5.87c-2,1.38-4.88,2.06-8.55,2.06S255,305.84,253,304.46Zm13.4-2.92a3.23,3.23,0,0,0,1.72-3,3.63,3.63,0,0,0-1.74-3.24,10.8,10.8,0,0,0-9.66,0,3.63,3.63,0,0,0-1.74,3.24,3.23,3.23,0,0,0,1.72,3,12,12,0,0,0,9.7,0Zm-.75-12.1a3,3,0,0,0,1.49-2.63,2.88,2.88,0,0,0-1.47-2.6,9.78,9.78,0,0,0-8.24,0,2.88,2.88,0,0,0-1.47,2.6,3,3,0,0,0,1.49,2.63,9.24,9.24,0,0,0,8.2,0Z" transform="translate(-116.09)" style="fill:#f6f6f6"/><rect x="191.89" y="262.43" width="61" height="61" rx="10" style="fill:gray"/><path d="M333.16,305.79a14.38,14.38,0,0,1-4.16-2.21,2,2,0,0,1-.83-1.63,2,2,0,0,1,.91-1.66,1.94,1.94,0,0,1,1.21-.49,1.86,1.86,0,0,1,.88.23,12.48,12.48,0,0,1,1.12.68,10.26,10.26,0,0,0,2.83,1.51,11,11,0,0,0,3.13.38,6.46,6.46,0,0,0,5.06-2.06c1.24-1.37,1.85-3.39,1.85-6.06l-.07,0A7.72,7.72,0,0,1,341.9,297a10.48,10.48,0,0,1-4.36.93,13,13,0,0,1-5.48-1.1,8.43,8.43,0,0,1-3.7-3.19,9.12,9.12,0,0,1-1.32-5,8.41,8.41,0,0,1,2.95-6.84q2.94-2.44,8.11-2.45,5.92,0,8.88,3.62t2.94,10a17.07,17.07,0,0,1-1.42,7.28,10.42,10.42,0,0,1-4,4.67,11.67,11.67,0,0,1-6.21,1.6A16.2,16.2,0,0,1,333.16,305.79Zm9.36-13.24a4.94,4.94,0,0,0,1.62-4,4.86,4.86,0,0,0-1.62-3.89,7.66,7.66,0,0,0-8.83,0,4.84,4.84,0,0,0-1.63,3.89,5,5,0,0,0,1.61,4,7.74,7.74,0,0,0,8.85,0Z" transform="translate(-116.09)" style="fill:#f6f6f6"/><rect x="268.85" y="262.43" width="61" height="61" rx="10" style="fill:gray"/><path d="M424.9,300.5a2,2,0,0,1-.76,1.55,2.12,2.12,0,0,1-1.36.49,2.6,2.6,0,0,1-1.88-.87l-5.44-5.81L410,301.67a2.6,2.6,0,0,1-1.88.87,2.12,2.12,0,0,1-1.36-.49,2,2,0,0,1-.76-1.55,1.93,1.93,0,0,1,.61-1.43l5.92-6.31L407.08,287a2.42,2.42,0,0,1-.72-1.62,2,2,0,0,1,.76-1.55,1.84,1.84,0,0,1,1.32-.49,2.88,2.88,0,0,1,2,1l5,5.33,5-5.33a2.88,2.88,0,0,1,2-1,1.89,1.89,0,0,1,1.33.49,2,2,0,0,1,.75,1.55,2.42,2.42,0,0,1-.72,1.62l-5.43,5.78,5.92,6.31A1.93,1.93,0,0,1,424.9,300.5Z" transform="translate(-116.09)" style="fill:#f6f6f6"/><rect x="37.97" y="342.25" width="61" height="61" rx="10" style="fill:gray"/><path d="M187.86,385.67a2.44,2.44,0,0,1-.68-1.78v-3.28H175.1a2.7,2.7,0,0,1-1.68-.49,1.55,1.55,0,0,1-.62-1.25,2.29,2.29,0,0,1,.6-1.47L187.75,360a2.06,2.06,0,0,1,.89-.6,3.18,3.18,0,0,1,1.15-.23,2.54,2.54,0,0,1,1.64.55,1.71,1.71,0,0,1,.7,1.42v15.59H194a2.71,2.71,0,0,1,1.72.49,1.78,1.78,0,0,1,.62,1.47,1.7,1.7,0,0,1-.64,1.44,2.79,2.79,0,0,1-1.7.49h-1.85v3.28a2.37,2.37,0,0,1-.7,1.76,2.65,2.65,0,0,1-3.57,0Zm-.34-8.91V366.71l-8.38,10.05Z" transform="translate(-116.09)" style="fill:#f6f6f6"/><rect x="114.93" y="342.25" width="61" height="61" rx="10" style="fill:gray"/><path d="M255.21,384.93a11.85,11.85,0,0,1-4.64-3.42,2.61,2.61,0,0,1-.6-1.58,2,2,0,0,1,1-1.74,2.1,2.1,0,0,1,1.28-.45,2.27,2.27,0,0,1,1.89,1.13,7.63,7.63,0,0,0,3.06,2.45,9.56,9.56,0,0,0,4.07.87,7.54,7.54,0,0,0,5-1.47,5.16,5.16,0,0,0,1.72-4.15,5.31,5.31,0,0,0-1.58-4.1,6.66,6.66,0,0,0-4.65-1.45,8.83,8.83,0,0,0-3.26.58,5.72,5.72,0,0,0-2.36,1.61,4.32,4.32,0,0,1-1.27,1.05,2.77,2.77,0,0,1-1.38.38,2.35,2.35,0,0,1-.71-.11,2.79,2.79,0,0,1-1.38-.91,1.79,1.79,0,0,1-.36-1.43l1.47-9.74a3.31,3.31,0,0,1,1.36-2.29,4.88,4.88,0,0,1,2.91-.81h12.61a2.71,2.71,0,0,1,1.72.49,1.78,1.78,0,0,1,.62,1.47,1.7,1.7,0,0,1-.64,1.44,2.72,2.72,0,0,1-1.7.49H258.39a1.3,1.3,0,0,0-.89.32,1.38,1.38,0,0,0-.44.89l-.67,4.49a11.16,11.16,0,0,1,3-1.4,11.67,11.67,0,0,1,3.3-.49,12.55,12.55,0,0,1,5.55,1.15,8.23,8.23,0,0,1,3.59,3.31,9.84,9.84,0,0,1,1.24,5,8.76,8.76,0,0,1-5.43,8.44,16.56,16.56,0,0,1-12.43,0Z" transform="translate(-116.09)" style="fill:#f6f6f6"/><rect x="191.89" y="342.25" width="61" height="61" rx="10" style="fill:gray"/><path d="M332.53,384.72a10.44,10.44,0,0,1-4.07-4.68,17.22,17.22,0,0,1-1.42-7.32,16.84,16.84,0,0,1,1.45-7.29,10.44,10.44,0,0,1,4.18-4.66,12.38,12.38,0,0,1,6.41-1.61,13.8,13.8,0,0,1,9.33,3.29,1.92,1.92,0,0,1,0,3.13,1.91,1.91,0,0,1-1.32.57,3.28,3.28,0,0,1-1.93-.83,10.8,10.8,0,0,0-3-1.7,9.37,9.37,0,0,0-3.12-.49,6.66,6.66,0,0,0-5.34,2.28,9,9,0,0,0-1.94,6l.07,0a7.72,7.72,0,0,1,3.19-2.51,10.51,10.51,0,0,1,4.36-.93,11.56,11.56,0,0,1,7.71,2.38,8.4,8.4,0,0,1,2.79,6.76A8.26,8.26,0,0,1,347,384c-2,1.6-4.67,2.4-8.12,2.4A12,12,0,0,1,332.53,384.72ZM343.2,381a4.67,4.67,0,0,0,1.7-3.76,4.73,4.73,0,0,0-1.68-3.85,6.61,6.61,0,0,0-4.36-1.4,6.48,6.48,0,0,0-4.34,1.45,4.75,4.75,0,0,0-1.7,3.8,4.64,4.64,0,0,0,1.7,3.76,7.38,7.38,0,0,0,8.68,0Z" transform="translate(-116.09)" style="fill:#f6f6f6"/><rect x="268.85" y="342.25" width="61" height="61" rx="10" style="fill:gray"/><path d="M408,374.19a1.7,1.7,0,0,1-.64-1.42,1.79,1.79,0,0,1,.62-1.43,2.71,2.71,0,0,1,1.79-.53h11.26a2.71,2.71,0,0,1,1.79.53,1.79,1.79,0,0,1,.62,1.43,1.7,1.7,0,0,1-.64,1.42,2.78,2.78,0,0,1-1.77.51H409.81A2.78,2.78,0,0,1,408,374.19Z" transform="translate(-116.09)" style="fill:#f6f6f6"/><rect x="37.97" y="422.08" width="61" height="61" rx="10" style="fill:gray"/><path d="M183.8,465.58a2.1,2.1,0,0,1-.68-1.66V444.33l-3.25,1.24a3.54,3.54,0,0,1-1.32.27,2,2,0,0,1-1.89-1.13,2.54,2.54,0,0,1-.26-1.1c0-.85.53-1.47,1.59-1.85l7-2.64a3,3,0,0,1,.94-.15,2.14,2.14,0,0,1,1.61.64,2.35,2.35,0,0,1,.62,1.7v22.61a2.1,2.1,0,0,1-.7,1.65,2.65,2.65,0,0,1-1.83.62A2.59,2.59,0,0,1,183.8,465.58Z" transform="translate(-116.09)" style="fill:#f6f6f6"/><rect x="114.93" y="422.08" width="61" height="61" rx="10" style="fill:gray"/><path d="M251.19,465.36a2.11,2.11,0,0,1-.62-1.53,2.59,2.59,0,0,1,.3-1.19,3.07,3.07,0,0,1,.91-1L264.09,452a10.86,10.86,0,0,0,2.45-2.38,4.32,4.32,0,0,0,.61-2.37,3.64,3.64,0,0,0-1.36-3,6,6,0,0,0-3.78-1.07,10.1,10.1,0,0,0-4.06.77,7.22,7.22,0,0,0-2.89,2.29,2.35,2.35,0,0,1-1.88,1.13,2.38,2.38,0,0,1-2.27-2.19,2.65,2.65,0,0,1,.64-1.59,11.23,11.23,0,0,1,4.42-3.24,15.3,15.3,0,0,1,6-1.14c3.2,0,5.69.72,7.48,2.14a7.15,7.15,0,0,1,2.68,5.91,6.83,6.83,0,0,1-1.25,3.85,19,19,0,0,1-4.11,4.07l-8.88,6.95h12.31c1.49,0,2.23.66,2.23,2s-.74,1.93-2.23,1.93h-17.4A2.26,2.26,0,0,1,251.19,465.36Z" transform="translate(-116.09)" style="fill:#f6f6f6"/><rect x="191.89" y="422.08" width="61" height="61" rx="10" style="fill:gray"/><path d="M332.48,465a11.89,11.89,0,0,1-4.61-3.43,2.38,2.38,0,0,1-.6-1.55,2.07,2.07,0,0,1,1-1.78,2.1,2.1,0,0,1,1.28-.45,2.38,2.38,0,0,1,1.89,1.13,8.11,8.11,0,0,0,3.07,2.48,9.64,9.64,0,0,0,4.06.85,8.33,8.33,0,0,0,4.5-1,3.24,3.24,0,0,0,1.58-2.87,4.69,4.69,0,0,0-1-3.36,4.27,4.27,0,0,0-3.21-1.06h-4.11a2.82,2.82,0,0,1-1.8-.53,1.7,1.7,0,0,1-.66-1.4,1.74,1.74,0,0,1,.65-1.45,2.83,2.83,0,0,1,1.81-.51h4.11a3.56,3.56,0,0,0,2.63-1,3.65,3.65,0,0,0,1-2.7,2.8,2.8,0,0,0-1.4-2.53,8.93,8.93,0,0,0-10.19,1.77,2.73,2.73,0,0,1-1.93,1.1,2,2,0,0,1-1.24-.46,2,2,0,0,1-1-1.77,2.12,2.12,0,0,1,.68-1.55,12.4,12.4,0,0,1,4.3-2.91,14.2,14.2,0,0,1,5.36-1,14.81,14.81,0,0,1,5.46.92,8.54,8.54,0,0,1,3.68,2.61,6,6,0,0,1,1.32,3.83,5.49,5.49,0,0,1-.92,3.06,7.51,7.51,0,0,1-2.7,2.37v.08a7.82,7.82,0,0,1,3.23,2.64,6.84,6.84,0,0,1,1,3.82,6.69,6.69,0,0,1-2.9,5.79q-2.91,2.06-8.2,2.06A15.15,15.15,0,0,1,332.48,465Z" transform="translate(-116.09)" style="fill:#f6f6f6"/><rect x="37.97" y="501.9" width="61" height="61" rx="10" style="fill:gray"/><path d="M178,544.37a10.49,10.49,0,0,1-4.21-4.68,19.05,19.05,0,0,1,0-14.58,10.54,10.54,0,0,1,4.21-4.68,14.13,14.13,0,0,1,13.14,0,10.54,10.54,0,0,1,4.21,4.68,19.05,19.05,0,0,1,0,14.58,10.49,10.49,0,0,1-4.21,4.68,14.13,14.13,0,0,1-13.14,0Zm11.87-4.89a14.08,14.08,0,0,0,0-14.16,6.78,6.78,0,0,0-10.6,0,14.08,14.08,0,0,0,0,14.16,6.78,6.78,0,0,0,10.6,0Z" transform="translate(-116.09)" style="fill:#f6f6f6"/><rect x="114.93" y="501.9" width="61" height="61" rx="10" style="fill:gray"/><path d="M259.35,545.16a2.66,2.66,0,0,1-.87-2,2.79,2.79,0,0,1,.87-2.09,3,3,0,0,1,2.19-.85,2.94,2.94,0,0,1,2.17.86,2.87,2.87,0,0,1,.85,2.08,2.68,2.68,0,0,1-.85,2,3,3,0,0,1-2.17.83A3,3,0,0,1,259.35,545.16Z" transform="translate(-116.09)" style="fill:#f6f6f6"/><rect x="191.89" y="501.9" width="61" height="61" rx="10" style="fill:#e45252"/><path d="M330.34,530.23a1.7,1.7,0,0,1-.66-1.4,1.78,1.78,0,0,1,.64-1.43,2.82,2.82,0,0,1,1.82-.53h12.68a2.82,2.82,0,0,1,1.82.53,1.78,1.78,0,0,1,.64,1.43,1.7,1.7,0,0,1-.66,1.4,2.82,2.82,0,0,1-1.8.53H332.14A2.82,2.82,0,0,1,330.34,530.23Zm0,7.17a1.68,1.68,0,0,1-.66-1.39,1.78,1.78,0,0,1,.64-1.44,2.82,2.82,0,0,1,1.82-.53h12.68a2.82,2.82,0,0,1,1.82.53,1.78,1.78,0,0,1,.64,1.44,1.68,1.68,0,0,1-.66,1.39,2.76,2.76,0,0,1-1.8.53H332.14A2.76,2.76,0,0,1,330.34,537.4Z" transform="translate(-116.09)" style="fill:#f6f6f6"/><path d="M440.7,422.08H390.18a5.25,5.25,0,0,0-5.24,5.24V557.66a5.25,5.25,0,0,0,5.24,5.24H440.7a5.25,5.25,0,0,0,5.24-5.24V427.32A5.25,5.25,0,0,0,440.7,422.08Z" transform="translate(-116.09)" style="fill:gray"/><path d="M424.73,491.09a1.75,1.75,0,0,1,.64,1.44,1.68,1.68,0,0,1-.66,1.39,2.75,2.75,0,0,1-1.79.53h-5.14V499a2.07,2.07,0,0,1-.62,1.62,2.46,2.46,0,0,1-1.72.57,2.37,2.37,0,0,1-1.68-.58,2.09,2.09,0,0,1-.62-1.61v-4.57H408a2.75,2.75,0,0,1-1.79-.53,1.68,1.68,0,0,1-.66-1.39,1.75,1.75,0,0,1,.64-1.44,2.79,2.79,0,0,1,1.81-.53h5.18V486a2.09,2.09,0,0,1,.62-1.61,2.37,2.37,0,0,1,1.68-.58,2.51,2.51,0,0,1,1.72.56,2.11,2.11,0,0,1,.62,1.63v4.6h5.14A2.79,2.79,0,0,1,424.73,491.09Z" transform="translate(-116.09)" style="fill:#f6f6f6"/></svg>