<svg id="Ebene_1" data-name="Ebene 1" xmlns="http://www.w3.org/2000/svg" viewBox="0 0 555.57 600"><line x1="46.33" y1="129.22" x2="503.03" y2="129.22" style="fill:none;stroke:#a67c52;stroke-miterlimit:10;stroke-width:9.768550920533693px"/><rect x="15.88" width="52.94" height="594.77" style="fill:#c19f7e"/><polygon points="38.34 550.52 27.75 5.31 20.71 550.52 38.34 550.52" style="fill:#ddc5a8"/><rect x="508.96" width="52.94" height="594.77" transform="translate(1048.64 594.77) rotate(180)" style="fill:#c19f7e"/><polygon points="517.23 550.52 527.82 5.31 534.85 550.52 517.23 550.52" style="fill:#ddc5a8"/><rect x="273.53" y="295.75" width="52.94" height="555.57" transform="translate(851.31 273.53) rotate(90)" style="fill:#a67c52"/><path d="M158,130.11a23.9,23.9,0,1,1-23.9-23.9A23.9,23.9,0,0,1,158,130.11Z" transform="translate(-22.22)" style="fill:#e96f6f"/><path d="M212.82,130.11a23.9,23.9,0,1,1-23.9-23.9A23.9,23.9,0,0,1,212.82,130.11Z" transform="translate(-22.22)" style="fill:#e96f6f"/><path d="M267.69,130.11a23.9,23.9,0,1,1-23.89-23.9A23.89,23.89,0,0,1,267.69,130.11Z" transform="translate(-22.22)" style="fill:#e96f6f"/><line x1="46.33" y1="211.53" x2="503.03" y2="211.53" style="fill:none;stroke:#a67c52;stroke-miterlimit:10;stroke-width:9.768550920533693px"/><path d="M158,212.42a23.9,23.9,0,1,1-23.9-23.9A23.9,23.9,0,0,1,158,212.42Z" transform="translate(-22.22)" style="fill:#e45252"/><path d="M212.82,212.42a23.9,23.9,0,1,1-23.9-23.9A23.9,23.9,0,0,1,212.82,212.42Z" transform="translate(-22.22)" style="fill:#e45252"/><path d="M267.69,212.42a23.9,23.9,0,1,1-23.89-23.9A23.89,23.89,0,0,1,267.69,212.42Z" transform="translate(-22.22)" style="fill:#e45252"/><path d="M327,212.42a23.9,23.9,0,1,1-23.89-23.9A23.89,23.89,0,0,1,327,212.42Z" transform="translate(-22.22)" style="fill:#e45252"/><path d="M381.87,212.42a23.9,23.9,0,1,1-23.9-23.9A23.9,23.9,0,0,1,381.87,212.42Z" transform="translate(-22.22)" style="fill:#e45252"/><path d="M436.74,212.42a23.9,23.9,0,1,1-23.89-23.9A23.89,23.89,0,0,1,436.74,212.42Z" transform="translate(-22.22)" style="fill:#e45252"/><line x1="46.33" y1="293.85" x2="503.03" y2="293.85" style="fill:none;stroke:#a67c52;stroke-miterlimit:10;stroke-width:9.768550920533693px"/><path d="M364.17,294.73a23.9,23.9,0,1,1-23.9-23.9A23.9,23.9,0,0,1,364.17,294.73Z" transform="translate(-22.22)" style="fill:#b43c3d"/><path d="M419,294.73a23.9,23.9,0,1,1-23.89-23.9A23.9,23.9,0,0,1,419,294.73Z" transform="translate(-22.22)" style="fill:#b43c3d"/><path d="M473.92,294.73a23.9,23.9,0,1,1-23.9-23.9A23.9,23.9,0,0,1,473.92,294.73Z" transform="translate(-22.22)" style="fill:#b43c3d"/><line x1="46.33" y1="376.16" x2="503.03" y2="376.16" style="fill:none;stroke:#a67c52;stroke-miterlimit:10;stroke-width:9.768550920533693px"/><path d="M158,377a23.9,23.9,0,1,1-23.9-23.89A23.9,23.9,0,0,1,158,377Z" transform="translate(-22.22)" style="fill:#e96f6f"/><path d="M212.82,377a23.9,23.9,0,1,1-23.9-23.89A23.9,23.9,0,0,1,212.82,377Z" transform="translate(-22.22)" style="fill:#e96f6f"/><path d="M267.69,377a23.9,23.9,0,1,1-23.89-23.89A23.89,23.89,0,0,1,267.69,377Z" transform="translate(-22.22)" style="fill:#e96f6f"/><line x1="46.33" y1="458.47" x2="503.03" y2="458.47" style="fill:none;stroke:#a67c52;stroke-miterlimit:10;stroke-width:9.768550920533693px"/><path d="M158,459.36a23.9,23.9,0,1,1-23.9-23.9A23.9,23.9,0,0,1,158,459.36Z" transform="translate(-22.22)" style="fill:#e45252"/><path d="M212.82,459.36a23.9,23.9,0,1,1-23.9-23.9A23.9,23.9,0,0,1,212.82,459.36Z" transform="translate(-22.22)" style="fill:#e45252"/><path d="M267.69,459.36a23.9,23.9,0,1,1-23.89-23.9A23.89,23.89,0,0,1,267.69,459.36Z" transform="translate(-22.22)" style="fill:#e45252"/><path d="M328.77,459.36a23.9,23.9,0,1,1-23.9-23.9A23.9,23.9,0,0,1,328.77,459.36Z" transform="translate(-22.22)" style="fill:#e45252"/><path d="M383.64,459.36a23.9,23.9,0,1,1-23.9-23.9A23.9,23.9,0,0,1,383.64,459.36Z" transform="translate(-22.22)" style="fill:#e45252"/><path d="M438.51,459.36a23.9,23.9,0,1,1-23.89-23.9A23.89,23.89,0,0,1,438.51,459.36Z" transform="translate(-22.22)" style="fill:#e45252"/></svg>