<svg id="Ebene_1" data-name="Ebene 1"
    xmlns="http://www.w3.org/2000/svg"
    xmlns:xlink="http://www.w3.org/1999/xlink" viewBox="0 0 605.51 584.82">
    <defs>
        <clipPath id="clip-path" transform="translate(5.51 -2.38)">
            <rect x="-14.32" y="149.21" width="430.82" height="178.71" transform="matrix(0.6, -0.8, 0.8, 0.6, -110.47, 255.34)" style="fill:none"/>
        </clipPath>
    </defs>
    <g id="Layer0_2_FILL" data-name="Layer0 2 FILL">
        <path d="M111.68,278.87Q129.5,296.36,161,325.61l4,3.78q58.69,56.92,214,213.25,6.44,6.52,15.38,16t13.52,6q4.57-3.62,1.45-9.42t-8.72-14.52q-5.52-8.78-1.63-14t11.54-5.59q7.63-.33,10.13-5.77t1.91-16q-.51-10.5,4.18-15.22,6-6,17.53-3.53,2.86.54,6.84,1.08a9.7,9.7,0,0,0,8.79-2.84,8.84,8.84,0,0,0,2.86-7.89q-.75-4.4-2.24-14.29a91.32,91.32,0,0,1-1.39-14.54,12.06,12.06,0,0,1,3.28-8.93,21.93,21.93,0,0,1,9.15-5.16,25.44,25.44,0,0,0,10.5-6.51q5.06-5.08,3.2-14.85t4-13.09q5.93-3.37,17.19,3.68t15.16,4.36c2.65-1.84,3.45-4.21,2.43-7.1A63.4,63.4,0,0,0,518.46,384q-6-10.74-6.58-15t3.22-8.13q3.78-3.93,12.28-.46t12.59-.77a53.41,53.41,0,0,0,3.41-4.53,48.76,48.76,0,0,1,3.28-4.53q3.3-3.31,13.57-.53t14.48-1.44q2.92-2.94,2.24-6.06-.62-2.68-4.54-7.32C560.72,321.53,357.7,117.32,357.7,117.32Q326.08,85,308.38,67.52C296.61,55.9,99.26,266.68,111.68,278.87Z" transform="translate(5.51 -2.38)" style="fill:#bd49b5"/>
        <path d="M592.52,360q-2.76-2.5-4.47-2.86a4.78,4.78,0,0,0-3.91,1.11,4.47,4.47,0,0,0-1.58,3.79q.13,2.44,3.32,5.62l4.9,5a9.59,9.59,0,0,0,3.06,2.32,4.17,4.17,0,0,0,2.81,0,4.52,4.52,0,0,0,2.2-1.72,5,5,0,0,0,.6-5.5,12.83,12.83,0,0,0-3.5-4.45L592.52,360Z" transform="translate(5.51 -2.38)" style="fill:#bd49b5"/>
        <path d="M570.16,360.58a2.1,2.1,0,0,0-.67,1.53,3.8,3.8,0,0,0,.61,1.46l.74.61a1.47,1.47,0,0,0,1.22.24,2.44,2.44,0,0,0,1.4-.55,2,2,0,0,0,.86-1.22,2.24,2.24,0,0,0,0-1.47,2.17,2.17,0,0,0-2.45-1.58,2.44,2.44,0,0,0-1.58.61c.12,0,.08.16-.12.37Z" transform="translate(5.51 -2.38)" style="fill:#bd49b5"/>
        <path d="M539.46,376.85a3.42,3.42,0,0,0,4-1.17q1.46-1.83.17-4.46a8.15,8.15,0,0,0-2.27-2.87,5,5,0,0,0-4-1.39,3.89,3.89,0,0,0-3.35,4,5.78,5.78,0,0,0,1.84,3.54,6.72,6.72,0,0,0,3.61,2.37Z" transform="translate(5.51 -2.38)" style="fill:#bd49b5"/>
        <path d="M519.09,416.45l.07.55.67.91a1.47,1.47,0,0,0,1,.3,2.13,2.13,0,0,0,1.22-.12,1.73,1.73,0,0,0,1.1-2,2.46,2.46,0,0,0-1.17-1.77,3.37,3.37,0,0,0-2.5.31l.24.25c-.28,0-.47.26-.55.67s-.08.65-.12.86Z" transform="translate(5.51 -2.38)" style="fill:#bd49b5"/>
        <path d="M488.14,428.44v.13c0,.08.05.12.13.12l1,.36.79-1a1.42,1.42,0,0,0-.43-.79l-.25-.12h-.73l-.18.18-.37.62-.06.18v.12l.12.24Z" transform="translate(5.51 -2.38)" style="fill:#bd49b5"/>
        <path d="M499.81,401.4a3.08,3.08,0,0,0-3.43.38,4.46,4.46,0,0,0-.41,4.46,11.25,11.25,0,0,0,2.08,2.56c1.23,1.22,2.29,1.83,3.19,1.83a3.12,3.12,0,0,0,2.25-1.05,3.59,3.59,0,0,0,1.16-1.9,3,3,0,0,0-.43-2.13,9.89,9.89,0,0,0-1.66-2,10.09,10.09,0,0,0-2.75-2.13Z" transform="translate(5.51 -2.38)" style="fill:#bd49b5"/>
        <path d="M473.93,482.93a5,5,0,0,0-4.89,1.36,4.78,4.78,0,0,0-1.57,4.77,8.49,8.49,0,0,0,1.53,3.23c.33.41,1.17,1.32,2.52,2.75a31.45,31.45,0,0,0,5.51,4.75,6.67,6.67,0,0,0,3.61.78,4.22,4.22,0,0,0,3.17-1.35q2.07-2.09,1.09-5.5a14.43,14.43,0,0,0-3.13-4.82,45.17,45.17,0,0,0-4-3.72,9.77,9.77,0,0,0-3.85-2.25Z" transform="translate(5.51 -2.38)" style="fill:#bd49b5"/>
        <path d="M428.57,523.75a4.28,4.28,0,0,0-2.57-2,2.32,2.32,0,0,0-2.44.86,2.8,2.8,0,0,0-.61,2.57,6.16,6.16,0,0,0,1.23,1.71,4.88,4.88,0,0,0,3,1.4,2.2,2.2,0,0,0,1.34-.37,2.17,2.17,0,0,0,.85-2.08,4.33,4.33,0,0,0-.8-2.14Z" transform="translate(5.51 -2.38)" style="fill:#bd49b5"/>
        <path d="M423.18,574.34a2.09,2.09,0,0,0-1,1.16,1.81,1.81,0,0,0,0,1.59l.61.85c0,.21.12.74.25,1.59.17,1.71,1.41,3.64,3.74,5.8a6.33,6.33,0,0,0,2.51,1.76,4.1,4.1,0,0,0,3.79-1.23,4.42,4.42,0,0,0,1.34-2.57c.07-1.39-.7-2.89-2.34-4.52a18.85,18.85,0,0,0-5.88-4.26,4.11,4.11,0,0,0-3-.17Z" transform="translate(5.51 -2.38)" style="fill:#bd49b5"/>
        <path d="M413,566.75a1.36,1.36,0,0,0-.36,1.35,1.15,1.15,0,0,0,.86,1l.55.06a1.27,1.27,0,0,0,1.28-1,1.55,1.55,0,0,0-.25-1.22,1.4,1.4,0,0,0-1-.49A1.18,1.18,0,0,0,413,566.75Z" transform="translate(5.51 -2.38)" style="fill:#bd49b5"/>
    </g>
    <rect x="-14.32" y="149.21" width="430.82" height="178.71" transform="matrix(0.6, -0.8, 0.8, 0.6, -104.96, 252.96)" style="fill:#bfbebe"/>
    <g style="clip-path:url(#clip-path)">
        <rect x="212.58" y="9.24" width="100.97" height="26.57" transform="translate(4.92 34.24) rotate(-7.95)" style="fill:#afafaf"/>
        <rect x="118.63" y="150.56" width="281.65" height="18.6" transform="translate(-14.12 35.06) rotate(-7.95)" style="fill:#afafaf"/>
        <rect x="94.28" y="177.64" width="288.29" height="18.6" transform="translate(-18.07 32.41) rotate(-7.95)" style="fill:#afafaf"/>
        <rect x="67.17" y="209.18" width="294.93" height="27.9" transform="translate(-23.3 29.47) rotate(-7.95)" style="fill:#afafaf"/>
        <rect x="-3.52" y="276.89" width="313.53" height="50.48" transform="translate(-34.83 21.73) rotate(-7.95)" style="fill:#afafaf"/>
    </g>
    <rect x="46.4" y="233.11" width="310.69" height="7.97" transform="translate(-103.57 252.09) rotate(-52.81)" style="fill:#d7d8d8"/>
    <rect x="223.77" y="163.3" width="9.3" height="75.73" rx="2.59" transform="translate(173.58 -99.55) rotate(37.19)" style="fill:#565555"/>
    <rect x="206.73" y="185.75" width="9.3" height="75.73" rx="2.59" transform="translate(183.69 -84.68) rotate(37.19)" style="fill:#444"/>
    <path d="M120.15,345.43h0c-6.16-4.68-11.9-17-7.23-23.15L196.15,222a7.3,7.3,0,0,1,10.2-1.4l10.82,8.22A7.3,7.3,0,0,1,218.56,239l-75,106.54C138.93,351.73,126.32,350.1,120.15,345.43Z" transform="translate(5.51 -2.38)" style="fill:#a78265"/>
</svg>