<svg id="Ebene_1" data-name="Ebene 1" xmlns="http://www.w3.org/2000/svg" viewBox="0 0 600 408.34"><path d="M274,452.26a18.93,18.93,0,0,1-19,19,16,16,0,0,1-2.53-.2,18.9,18.9,0,0,0,0-37.45,14.91,14.91,0,0,1,2.53-.19A18.89,18.89,0,0,1,274,452.26Z" transform="translate(0 -95.83)" style="fill:#b5c5c6"/><path d="M546.65,290.29l-50.56-87.68a12.31,12.31,0,0,0-16.78-4.49l-161.6,93.33-18,10.38-46.63,26.92-8.67,5-15.61,9-7.74,4.48L210,353.63l-18.08,10.44-40.86,23.55-.8.49a12.2,12.2,0,0,0-4.48,16.76l46.14,79.95,4.43,7.68.37.55a12.2,12.2,0,0,0,11.18,5.59,12.55,12.55,0,0,0,5.22-1.59l19.73-11.37,24.45-14.14a15.46,15.46,0,0,1-2.45.19h-.25a18.46,18.46,0,1,1,16.53-9.59,21,21,0,0,1-1.54,2.34l14.45-8.35,18.42-10.7,15.24-8.79,36-20.75,18.43-10.64,13.14-7.62,31.28-18.07,125.6-72.51A12.19,12.19,0,0,0,546.65,290.29Z" transform="translate(0 -95.83)" style="fill:#dbdbdb"/><rect x="440.14" y="233.74" width="51.21" height="89.67" transform="translate(-76.89 174.38) rotate(-30)" style="fill:#666"/><polygon points="405.69 269.2 360.85 191.53 405.2 165.92 450.02 243.59 405.69 269.2" style="fill:#777"/><rect x="319.51" y="303.37" width="51.22" height="89.67" transform="translate(-127.87 123.38) rotate(-30)" style="fill:#888"/><rect x="259.21" y="338.2" width="51.21" height="89.68" transform="translate(-153.36 97.89) rotate(-30)" style="fill:#36d2de"/><path d="M296,447.77l-12,6.94-12.91,7.43a18.56,18.56,0,1,0-34.84-8.91,18.51,18.51,0,0,0,18.31,18.5l-21.75,12.53L208.4,498.4c-.18.07-.3.18-.49.24a12.09,12.09,0,0,1-9.34.8,11.75,11.75,0,0,1-6.2-4.42l-.74-1.1-190-329A12.41,12.41,0,0,1,6.12,148L93.81,97.47A12.32,12.32,0,0,1,110.58,102l81.35,140.9,20,34.72,29.55,51.18,2.89,5,7.8,13.51,1.23,2.15,17.45,30.17,10.39,18.07.5.79,2.27,3.94,14.24,24.7,2.28,3.93A12.3,12.3,0,0,1,296,447.77Z" transform="translate(0 -95.83)" style="fill:#c9c9c9"/><polygon points="191.93 147.02 191.93 398.54 177.52 373.62 191.93 147.02" style="fill:#202020;opacity:0.05"/><rect x="37.26" y="152.81" width="89.67" height="51.2" transform="translate(-78.21 -30.87) rotate(-30)" style="fill:#d8d8d8"/><rect x="72.08" y="213.12" width="89.67" height="51.2" transform="translate(-103.71 -5.38) rotate(-30)" style="fill:#e6e6e6"/><polygon points="203.37 202.94 191.93 209.51 187.82 211.91 125.69 247.79 100.13 203.42 177.75 158.63 189.85 179.58 191.93 183.14 203.37 202.94" style="fill:#f6f6f6"/><polygon points="238.21 263.27 191.93 290 182.48 295.47 160.53 308.13 134.91 263.77 186.4 234.02 191.93 230.82 212.58 218.9 238.21 263.27" style="fill:#fff"/><path d="M587.73,378.4h-380a12.32,12.32,0,0,0-12.29,12.28v101.2a12.05,12.05,0,0,0,1.84,6.4,12.56,12.56,0,0,0,5.23,4.72,12.27,12.27,0,0,0,5.22,1.17h380A12.32,12.32,0,0,0,600,491.88V390.68A12.32,12.32,0,0,0,587.73,378.4ZM268.32,463.31A18.39,18.39,0,0,1,256,470.38a16.85,16.85,0,0,1-2.45.19h-.25a18.66,18.66,0,0,1-16.27-10.09,18.34,18.34,0,0,1-2-8.42,18.56,18.56,0,1,1,37.11,0,18.83,18.83,0,0,1-2.27,8.92A23.5,23.5,0,0,1,268.32,463.31Z" transform="translate(0 -95.83)" style="fill:#eaeaea"/><rect x="510.13" y="300.63" width="51.22" height="89.67" style="fill:#9b3599"/><rect x="440.49" y="300.63" width="51.22" height="89.67" style="fill:#bd49b5"/><rect x="370.85" y="300.63" width="51.21" height="89.67" style="fill:#c660c4"/><rect x="301.2" y="300.63" width="51.22" height="89.67" style="fill:#cc76cc"/><polygon points="191.93 183.14 191.93 209.51 187.82 211.91 189.85 179.58 191.93 183.14" style="fill:#202020;opacity:0.05"/><polygon points="186.4 234.02 191.93 230.82 191.93 290 182.48 295.47 186.4 234.02" style="fill:#202020;opacity:0.05"/><path d="M305.42,99.61H204.22a12.33,12.33,0,0,0-12.29,12.3v380a10.06,10.06,0,0,0,.44,3.14,12.32,12.32,0,0,0,11.42,9.15H305.42a12.29,12.29,0,0,0,12.29-12.29v-380A12.29,12.29,0,0,0,305.42,99.61ZM269.6,464.48a18.4,18.4,0,0,1-12.29,7.06,15.46,15.46,0,0,1-2.45.19h-.25a18.46,18.46,0,1,1,16.53-9.59A21,21,0,0,1,269.6,464.48Z" transform="translate(0 -95.83)" style="fill:#f6f6f6"/><rect x="210.01" y="42.45" width="89.67" height="51.21" style="fill:#9b3599"/><rect x="210.01" y="112.1" width="89.67" height="51.21" style="fill:#bd49b5"/><rect x="210.01" y="181.74" width="89.67" height="51.21" style="fill:#c660c4"/><rect x="210.01" y="251.39" width="89.67" height="51.2" style="fill:#cc76cc"/></svg>