<svg id="Ebene_1" data-name="Ebene 1" xmlns="http://www.w3.org/2000/svg" viewBox="0 0 519.86 600"><path id="background" d="M299.75,600,40.07,449.79l.25-300L300.25,0,559.93,150.21l-.25,300Z" transform="translate(-40.07)" style="fill:#bd49b5"/><path d="M300.15,118.33,142.75,209,142.6,390.7l157.25,91L457.25,391l.15-181.66ZM438.29,380,299.87,459.76l-138.29-80L161.71,220l138.42-79.77,138.29,80Z" transform="translate(-40.07)" style="fill:#f6f6f6"/><path d="M346.08,227.67a3,3,0,0,1,3,3v27.64a3,3,0,0,1-3,3H243a3,3,0,0,1-3-3V230.65a3,3,0,0,1,3-3h103m0-5H243a8,8,0,0,0-8,8v27.64a8,8,0,0,0,8,8h103a8,8,0,0,0,8-8V230.65a8,8,0,0,0-8-8Z" transform="translate(-40.07)" style="fill:#fff"/><line x1="188.1" y1="244.25" x2="196.55" y2="244.25" style="fill:none;stroke:#fff;stroke-linecap:round;stroke-linejoin:round;stroke-width:5px"/><path d="M353.21,244.25h8.43a4.51,4.51,0,0,1,4.51,4.51v24.6a7.19,7.19,0,0,1-5.11,6.89l-63,19.17a5.29,5.29,0,0,0-3.74,5.05v4" transform="translate(-40.07)" style="fill:none;stroke:#fff;stroke-linecap:round;stroke-linejoin:round;stroke-width:5px"/><path d="M308.23,312.5a1,1,0,0,1,1,1V317a1,1,0,0,1-1,1H281.15a1,1,0,0,1-1-1V313.5a1,1,0,0,1,1-1h27.08m0-5H281.15a6,6,0,0,0-6,6V317a6,6,0,0,0,6,6h27.08a6,6,0,0,0,6-6V313.5a6,6,0,0,0-6-6Z" transform="translate(-40.07)" style="fill:#fff"/><path d="M263.37,264.24v9a7.41,7.41,0,0,1-7.41,7.42h0a7.42,7.42,0,0,1-7.41-7.42v-8.54" transform="translate(-40.07)" style="fill:none;stroke:#fff;stroke-linecap:round;stroke-linejoin:round;stroke-width:5px"/><path d="M299.43,226.81v9a7.42,7.42,0,0,1-7.42,7.41h0A7.41,7.41,0,0,1,284.6,236s0,12,0,20c0,3.91-3.26,8.16-7.17,8" transform="translate(-40.07)" style="fill:none;stroke:#fff;stroke-linecap:round;stroke-linejoin:round;stroke-width:5px"/><path d="M278.2,264.24v28.87a7.41,7.41,0,0,1-7.41,7.41h0a7.41,7.41,0,0,1-7.41-7.41V264.69" transform="translate(-40.07)" style="fill:none;stroke:#fff;stroke-linecap:round;stroke-linejoin:round;stroke-width:5px"/><path d="M302.89,323l3.23,46.64a12.1,12.1,0,1,1-24.12,0l3.14-46.6,9.17,0h.06l8.52-.07m4.67-5-13.23.1L280.46,318,277,369.28a17.09,17.09,0,0,0,17.05,18.37h0a17.09,17.09,0,0,0,17-18.4L307.56,318Z" transform="translate(-40.07)" style="fill:#fff"/><path d="M293.81,364.73a3.52,3.52,0,1,1-3.52,3.52,3.53,3.53,0,0,1,3.52-3.52m0-5a8.52,8.52,0,1,0,8.52,8.52,8.52,8.52,0,0,0-8.52-8.52Z" transform="translate(-40.07)" style="fill:#fff"/></svg>