<svg xmlns="http://www.w3.org/2000/svg" viewBox="0 0 577.9 600"><g style="isolation:isolate"><g id="Ebene_1" data-name="Ebene 1"><rect x="17.38" y="336.82" width="288.4" height="7.66" style="fill:#cccecf"/><rect x="17.38" y="359.24" width="288.4" height="7.66" style="fill:#cccecf"/><rect x="7.45" y="293.36" width="19.86" height="86.9" style="fill:#b7b9bb"/><rect x="10.52" y="280.65" width="1.37" height="12.71" style="fill:#777778"/><rect x="14.3" y="280.65" width="1.37" height="12.71" style="fill:#777778"/><rect x="18.07" y="280.65" width="1.37" height="12.71" style="fill:#777778"/><rect x="21.85" y="280.65" width="1.37" height="12.71" style="fill:#777778"/><rect x="305.78" y="293.36" width="19.86" height="86.9" style="fill:#b7b9bb"/><rect x="308.85" y="280.65" width="1.37" height="12.71" style="fill:#777778"/><rect x="312.63" y="280.65" width="1.37" height="12.71" style="fill:#777778"/><rect x="316.4" y="280.65" width="1.37" height="12.71" style="fill:#777778"/><rect x="320.18" y="280.65" width="1.37" height="12.71" style="fill:#777778"/><rect x="141.93" y="295.32" width="10.61" height="84.95" style="fill:#b7b9bb"/><rect x="148.72" y="295.32" width="3.82" height="84.95" style="fill:#9c9b9b"/><rect x="260.28" y="295.32" width="10.61" height="84.95" style="fill:#b7b9bb"/><rect x="267.08" y="295.32" width="3.82" height="84.95" style="fill:#9c9b9b"/><rect y="380.27" width="335.19" height="219.73" style="fill:#d7d8d8"/><rect x="26.81" y="410.52" width="15.53" height="36.23" style="fill:#1f1f1f"/><rect x="59.16" y="410.52" width="15.53" height="36.23" style="fill:#1f1f1f"/><rect x="91.5" y="410.52" width="15.53" height="36.23" style="fill:#1f1f1f"/><rect x="123.85" y="410.52" width="15.53" height="36.23" style="fill:#1f1f1f"/><rect x="156.19" y="410.52" width="15.53" height="36.23" style="fill:#1f1f1f"/><rect x="188.53" y="410.52" width="15.53" height="36.23" style="fill:#1f1f1f"/><rect x="26.81" y="472.62" width="15.53" height="36.23" style="fill:#1f1f1f"/><rect x="59.16" y="472.62" width="15.53" height="36.23" style="fill:#1f1f1f"/><rect x="91.5" y="472.62" width="15.53" height="36.23" style="fill:#1f1f1f"/><rect x="123.85" y="472.62" width="15.53" height="36.23" style="fill:#1f1f1f"/><rect x="156.19" y="472.62" width="15.53" height="36.23" style="fill:#1f1f1f"/><rect x="188.53" y="472.62" width="15.53" height="36.23" style="fill:#1f1f1f"/><rect x="26.81" y="534.73" width="15.53" height="36.23" style="fill:#1f1f1f"/><rect x="59.16" y="534.73" width="15.53" height="36.23" style="fill:#1f1f1f"/><rect x="91.5" y="534.73" width="15.53" height="36.23" style="fill:#1f1f1f"/><rect x="123.85" y="534.73" width="15.53" height="36.23" style="fill:#1f1f1f"/><rect x="156.19" y="534.73" width="15.53" height="36.23" style="fill:#1f1f1f"/><rect x="188.53" y="534.73" width="15.53" height="36.23" style="fill:#1f1f1f"/><polygon points="0 600 217.21 382.8 335.19 382.8 335.19 600 0 600" style="fill:#1f1f1f;opacity:0.1;mix-blend-mode:multiply"/><rect x="225.95" y="362.89" width="91.86" height="237.11" style="fill:#989898"/><path d="M453.68,163.35l0-.08a2.1,2.1,0,0,0-.41-.65s0,0,0,0h0a2,2,0,0,0-.65-.46l0,0a2,2,0,0,0-.74-.16h-49a2.12,2.12,0,0,0-2.12,2.12v361.7a2,2,0,0,0,.13.68l0,.08a2.28,2.28,0,0,0,.4.65s0,0,0,0l0,0a1.71,1.71,0,0,0,.2.18l.12.1a2,2,0,0,0,.32.17l.05,0a1.42,1.42,0,0,0,.4.12,2,2,0,0,0,.42.05h48.94a2.12,2.12,0,0,0,2.12-2.12V164A2,2,0,0,0,453.68,163.35Zm-4.11,269.27H408.2l41.37-38Zm-44.7-175.49h41.37l-41.37,38Zm0,44.94h41.37l-41.37,38Zm0,44.93h41.37l-41.37,38Zm0,44.93h41.37l-41.37,38Zm0,44.93h41.37l-41.37,38Zm44.7-49.17H408.2l41.37-38Zm0-44.93H408.2l41.37-38Zm0-44.93H408.2l41.37-38Zm0-44.94H408.2l41.37-38Zm0-44.93H408.1l41.47-39Zm-3.33,4.24-41.37,38v-38ZM404.87,481.8h41.47l-41.47,39Zm3.33-4.24,41.37-38v38Zm38.14-311.4-41.47,39v-39ZM408.1,523.61l41.47-39v39Z" transform="translate(-11.05)" style="fill:#777778"/><path d="M405.29,120.8,376.73,85.27l-.1-.1a.6.6,0,0,0-.08-.08,1.78,1.78,0,0,0-.48-.33l-.08,0a1.74,1.74,0,0,0-.64-.13H116.6l-.16,0a1.21,1.21,0,0,0-.33.07l-.09,0-.06,0a1.45,1.45,0,0,0-.32.18l-.1.07a1.4,1.4,0,0,0-.31.33L89.72,121.08a1.77,1.77,0,0,0,1.44,2.8H404.1a1.77,1.77,0,0,0,1.77-1.77A1.8,1.8,0,0,0,405.29,120.8Zm-193.18-3.3L185.7,88.14h26.4ZM118.43,90.9l27.14,29.44H118.43Zm2.27-2.76h27.13v29.44ZM151.36,91l26.41,29.36H151.36Zm2.2-2.84H180v29.37ZM183.5,91l26.41,29.36H183.5Zm32.14,0L242,120.34h-26.4Zm2.19-2.84h26.41v29.37ZM247.77,91l26.41,29.36H247.77Zm2.2-2.84h26.41v29.37ZM279.91,91l26.4,29.36h-26.4Zm2.2-2.85h26.4v29.37ZM312.05,91l26.4,29.37h-26.4Zm2.19-2.84h26.41v29.37Zm29.95,2.76,27.13,29.45H344.19Zm2.26-2.76h27.14v29.45ZM114.9,91.89v28.45H94.59Zm262.22,28.46v-29l23.27,29Z" transform="translate(-11.05)" style="fill:#777778"/><path d="M453.57,93.19h-34L453.57,0Zm-29.11-3.41h25.71V19.28Z" transform="translate(-11.05)" style="fill:#777778"/><path d="M546.4,106.86a1.76,1.76,0,0,1-1.26-.52L451.48,11.19,214.41,88.05a1.75,1.75,0,0,1-2.22-1.13,1.77,1.77,0,0,1,1.13-2.23L451.43,7.49a1.79,1.79,0,0,1,1.8.44l94.43,95.93a1.77,1.77,0,0,1,0,2.5A1.74,1.74,0,0,1,546.4,106.86Z" transform="translate(-11.05)" style="fill:#d7d8d8"/><path d="M269.5,243.07a1.54,1.54,0,0,1-.65-.15l-68.78-32.15-64.59,32.14a1.56,1.56,0,0,1-2.07-.7,1.54,1.54,0,0,1,.7-2.07L200,207.35l70.13,32.78a1.54,1.54,0,0,1-.66,2.94Z" transform="translate(-11.05)" style="fill:#d7d8d8"/><polygon points="190.72 219.27 168.1 124.2 172.23 123.22 190.79 201.23 209.97 123.21 214.08 124.22 190.72 219.27" style="fill:#d7d8d8"/><polygon points="215.77 128.73 165.81 128.73 163.88 122.11 217.7 122.11 215.77 128.73" style="fill:#989898"/><rect x="381.63" y="523.87" width="68.7" height="16.22" style="fill:#676767"/><rect x="366.37" y="539.14" width="99.24" height="16.22" style="fill:#565555"/><polygon points="494.76 598.29 337.22 598.29 344.19 555.36 487.78 555.36 494.76 598.29" style="fill:#444"/><rect x="450.26" y="102.27" width="127.64" height="20.08" style="fill:#777778"/><rect x="450.26" y="112.31" width="127.64" height="10.04" style="fill:#676767"/><path d="M211.82,210.87a9.67,9.67,0,1,1-9.67-9.67A9.67,9.67,0,0,1,211.82,210.87Z" transform="translate(-11.05)" style="fill:#989898"/><path d="M461.07,9.17A9.1,9.1,0,1,1,452,.08,9.09,9.09,0,0,1,461.07,9.17Z" transform="translate(-11.05)" style="fill:#777778"/><rect x="118.12" y="240.16" width="148.69" height="7.73" style="fill:#9c9b9b"/><polygon points="450.26 167.22 377.08 167.22 377.08 131.76 407.15 91.48 450.26 91.48 450.26 167.22" style="fill:#676767"/><rect x="423.03" y="98.72" width="20.85" height="29.36" style="fill:#d7d8d8"/><polygon points="416.64 128.07 389.41 128.07 409.84 98.72 416.64 98.72 416.64 128.07" style="fill:#d7d8d8"/><rect x="434.51" y="133.6" width="8.94" height="2.98" style="fill:#444"/><polygon points="443.88 98.72 443.88 128.07 433.25 128.07 443.88 98.72" style="fill:#1f1f1f;opacity:0.1;mix-blend-mode:multiply"/></g></g></svg>