<svg id="Ebene_1" data-name="Ebene 1" xmlns="http://www.w3.org/2000/svg" viewBox="0 0 598 600"><polygon points="586.15 300.97 581.53 313.55 598 327.63 594.38 340.61 585.28 352.43 593.91 367.64 583.4 378.69 575.55 389.92 578.69 404.89 566.74 414.21 553.94 422.39 564.15 442.16 544.5 445.97 553.35 467.03 527.64 465.05 525.78 479.59 525.54 496.46 508.24 498.36 501.84 510.2 496.72 524.08 480.34 524.87 475.64 540.25 457.39 536.71 448.01 545.71 443.24 563.8 428.84 564.78 417.34 571.29 401.48 566.57 388.5 567.8 377.11 573.81 365.56 580.28 355.6 597.48 340.51 586.7 328.56 598.32 315.23 600 301.8 597.43 289.11 583.41 276.15 585.91 261.4 599.29 250.91 581.33 239.41 574.27 225.97 575.69 213.99 571.21 196.42 581.73 187.85 567.58 176.47 561.23 161.41 561.84 147.98 558.4 141.15 544.35 132.51 533.99 116.42 533.42 107.33 523.56 99.23 512.83 98.67 495.18 91.56 484.64 82.5 475.84 76.15 464.89 61.23 459.76 59.53 445.7 52.35 435.19 34.74 429.58 29.95 417.16 38.32 399.85 26.38 390.46 26.53 376.95 8.49 367.91 10.22 353.88 23.11 338.74 12.2 327.04 5.32 314.29 0 300.97 22.35 288.41 13.07 274.98 9.55 261.38 12.13 248.4 15.7 235.67 32.83 226.73 23.19 210.44 20.72 195.48 36.76 187.69 41.15 175.44 46.46 163.57 57.23 154.85 59.88 141.28 76.36 137.19 67.25 113.91 87.08 113.37 87.45 96.02 99.34 89.21 117.33 89.81 126.73 81.42 128.33 62.2 146.01 64.92 149.05 45.31 164.33 45.49 175.06 37.78 185.44 28.73 199.28 27.81 209.11 15.69 226.75 29.07 236.71 15.79 249.64 13.55 264 22.01 275.28 6.31 288.29 0 301.8 13.46 315.16 3.48 327.7 13.24 339.76 20.86 355.3 6.15 364.06 28.25 379.09 20.94 394.2 16.6 407.59 19.12 415.88 34.09 430.28 34.2 438.02 47.83 455.88 43.11 465.12 53.57 478.53 57.74 485.47 70.66 500.23 73.86 503.45 90.07 503.53 108.11 511.69 117.61 534.55 115.36 543.47 125.39 535.55 146.69 554.39 150.06 553.36 165.61 555.76 178.68 577.89 182.97 564.41 202.41 587.02 208.3 583.01 223.36 585.33 236.25 589.05 248.84 587.43 262.27 588.67 275.14 590.01 288.02 586.15 300.97" style="fill:#6e4c35"/><circle cx="302.8" cy="300.97" r="277.7" transform="translate(-125.13 302.27) rotate(-45)" style="fill:#775842"/><path d="M572.7,301a268.93,268.93,0,0,1-82.41,194.09c-1.63,1.58-3.27,3.15-4.94,4.67A269.83,269.83,0,0,1,88.91,465.43q-1.65-2.1-3.21-4.25A270,270,0,0,1,64.72,174v0c1.25-2.33,2.51-4.59,3.81-6.88A270.19,270.19,0,0,1,254,35.56c2.65-.49,5.31-1,8-1.35a272.27,272.27,0,0,1,40.84-3.07C451.88,31.14,572.7,152,572.7,301Z" transform="translate(-1)" style="fill:#6e4c35"/><circle cx="302.86" cy="300.99" r="257.79" transform="translate(-125.13 302.31) rotate(-45)" style="fill:#ebd4ab"/><circle cx="310.11" cy="292.74" r="158.42" style="fill:#f3debd"/><path d="M549.41,301s0,1.51-.11,4.44,0,7.29-.54,12.94a234.66,234.66,0,0,1-8.2,48.4c-.72,2.55-1.47,5.17-2.23,7.85l-2.74,8.13c-.87,2.79-2,5.56-3.13,8.41s-2.19,5.79-3.57,8.68a240.11,240.11,0,0,1-19.56,36.38A248.81,248.81,0,0,1,390,532.94a247.88,247.88,0,0,1-59,14.59c-2.59.41-5.22.57-7.84.79l-7.91.64-8,.25-4,.13c-1.43,0-2.69,0-4.05-.05l-8-.15c-2.69-.08-5.42-.34-8.14-.51-5.48-.25-10.89-1-16.36-1.68A245.44,245.44,0,0,1,234,540.11c-5.46-1.38-10.77-3.33-16.18-5.07-2.67-1-5.31-2-8-3l-4-1.55-3.93-1.74a249.36,249.36,0,0,1-59.35-36.47l-6.75-5.77c-2.22-2-4.33-4-6.51-6.08l-3.23-3.08-3.1-3.22c-2-2.17-4.19-4.24-6.14-6.51a250.61,250.61,0,0,1-40.17-60A255,255,0,0,1,63.49,373.5a258.46,258.46,0,0,1-8.07-35.82A274.47,274.47,0,0,1,52.67,301l.23-9.17c0-3,.28-6.09.53-9.17s.37-6.19.81-9.22l1.17-9.13a259.91,259.91,0,0,1,8.07-35.82A245.31,245.31,0,0,1,94.65,162.8a260,260,0,0,1,22.18-28.4,255.69,255.69,0,0,1,25.72-24.67,249.61,249.61,0,0,1,59.36-36.47l3.93-1.74,4-1.55c2.66-1,5.3-2.08,8-3,5.41-1.74,10.72-3.69,16.18-5.07A245.58,245.58,0,0,1,266.66,55c5.47-.63,10.89-1.42,16.33-1.68,2.72-.16,5.42-.43,8.12-.51l8.09-.15c1.37,0,2.64-.06,4.07-.05l4,.13,7.93.26,7.93.63c2.64.23,5.27.39,7.86.79A247.17,247.17,0,0,1,390,69a248.83,248.83,0,0,1,119.35,96.73,240.91,240.91,0,0,1,19.55,36.38c1.38,2.89,2.43,5.84,3.57,8.68s2.26,5.62,3.14,8.41,1.84,5.49,2.73,8.13,1.51,5.3,2.23,7.85a234.76,234.76,0,0,1,8.2,48.4c.53,5.65.41,10,.54,12.94S549.41,301,549.41,301Zm0,0s0-1.51-.12-4.44,0-7.29-.58-12.94a234.69,234.69,0,0,0-8.33-48.35l-2.25-7.84c-.9-2.63-1.82-5.34-2.76-8.11s-2-5.55-3.15-8.39-2.21-5.78-3.59-8.66a233,233,0,0,0-19.79-36.17,245.93,245.93,0,0,0-69.46-69.43,251.29,251.29,0,0,0-50.24-25.37A244.69,244.69,0,0,0,330.6,57.68c-2.56-.36-5.14-.48-7.73-.67l-7.78-.52-7.93-.14-4-.07c-1.23,0-2.62.07-3.92.11l-8,.25c-2.66.12-5.32.42-8,.62-5.35.32-10.67,1.18-16,1.87a242.31,242.31,0,0,0-32,7.17c-5.34,1.43-10.52,3.42-15.8,5.2-2.6,1-5.17,2.06-7.77,3.1l-3.89,1.57L204,77.93a246.39,246.39,0,0,0-103.76,88.58A253.09,253.09,0,0,0,83,197.35a241.44,241.44,0,0,0-20.45,68l-1.12,8.87c-.41,3-.49,5.91-.75,8.86-.59,5.79-.5,12.08-.71,17.92a267.25,267.25,0,0,0,2.57,35.65,251.47,251.47,0,0,0,7.74,34.81,246.27,246.27,0,0,0,30,64A246.28,246.28,0,0,0,204,524.07l3.82,1.76,3.89,1.57c2.6,1,5.17,2.12,7.78,3.1,5.27,1.78,10.46,3.77,15.8,5.2a242,242,0,0,0,32,7.17c5.36.69,10.7,1.55,16,1.87,2.67.2,5.3.5,8,.61l8,.26c1.31,0,2.71.11,3.94.11l4-.07,7.87-.14,7.81-.52c2.59-.19,5.18-.31,7.74-.67a244.7,244.7,0,0,0,58.54-13.62,251.11,251.11,0,0,0,50.25-25.37,246,246,0,0,0,69.45-69.44,233,233,0,0,0,19.79-36.17c1.38-2.88,2.44-5.82,3.59-8.65s2.27-5.61,3.15-8.4,1.86-5.48,2.76-8.11l2.25-7.84a234.59,234.59,0,0,0,8.33-48.35c.55-5.65.44-10,.58-12.94S549.41,301,549.41,301Z" transform="translate(-1)" style="fill:#cdb382"/><path d="M521.52,386.6s-.55,1.33-1.63,3.9-2.54,6.46-5,11.29a223.78,223.78,0,0,1-24.07,40.08l-4.7,6.19-5.25,6.25c-1.75,2.18-3.72,4.24-5.7,6.38s-4,4.37-6.18,6.45a229.24,229.24,0,0,1-30,25.49A237.08,237.08,0,0,1,299.6,537a235.7,235.7,0,0,1-57.44-7.53c-2.43-.54-4.82-1.31-7.22-2l-7.24-2.18-7.17-2.54-3.61-1.28c-1.27-.48-2.37-1-3.57-1.45l-7.07-2.91c-2.36-1-4.69-2.19-7.05-3.28-4.76-2.13-9.29-4.71-13.93-7.17a232.75,232.75,0,0,1-26.61-17.41c-4.36-3.12-8.4-6.69-12.59-10.11-2-1.79-4-3.65-6-5.48l-3-2.76L134.19,468a237.42,237.42,0,0,1-40-53l-4-7.47c-1.29-2.51-2.43-5.1-3.66-7.65L84.72,396l-1.63-3.93c-1.06-2.64-2.25-5.23-3.19-7.92A238.23,238.23,0,0,1,65.07,317a242.77,242.77,0,0,1,.14-34.85,247.15,247.15,0,0,1,5.29-34.6l2.13-8.51c.67-2.85,1.65-5.61,2.46-8.42s1.68-5.6,2.73-8.34l3-8.34A259.37,259.37,0,0,1,96,182.45a246.87,246.87,0,0,1,19.61-29A232.75,232.75,0,0,1,166.09,106a248.56,248.56,0,0,1,29.55-17.5,241.92,241.92,0,0,1,31.41-12.94A237.09,237.09,0,0,1,292.4,63.85l4.08-.18h4.09c2.72,0,5.43,0,8.14.07,5.4.33,10.79.45,16.11,1.13a234.55,234.55,0,0,1,31.36,5.28c5.08,1.34,10.16,2.53,15.08,4.19,2.46.8,4.95,1.51,7.38,2.38l7.23,2.68c1.21.46,2.36.85,3.63,1.36l3.48,1.5,6.94,3,6.82,3.33c2.26,1.11,4.54,2.17,6.69,3.43a235.32,235.32,0,0,1,47.28,33.47A236.93,236.93,0,0,1,533,252.75a229.48,229.48,0,0,1,4.71,39.06c.21,3,.13,6,.15,8.93s.05,5.77-.14,8.55-.27,5.51-.4,8.16-.5,5.22-.75,7.73A223.17,223.17,0,0,1,527,371c-1.49,5.2-3.1,9-4,11.67S521.52,386.6,521.52,386.6Zm0,0,1.44-4c.9-2.65,2.5-6.48,4-11.68a223.18,223.18,0,0,0,9.4-45.78c.24-2.51.48-5.08.73-7.73s.24-5.36.37-8.15.12-5.63.11-8.54.05-5.89-.17-8.92a222.6,222.6,0,0,0-5-38.95,234.12,234.12,0,0,0-37.52-85.68,239,239,0,0,0-35.75-39.92A232.68,232.68,0,0,0,411.91,94.9c-2.15-1.21-4.39-2.21-6.62-3.27l-6.72-3.16-7-2.88-3.51-1.45c-1.09-.42-2.35-.84-3.52-1.26l-7.15-2.53c-2.4-.82-4.86-1.48-7.29-2.23-4.86-1.57-9.88-2.65-14.88-3.9a231.13,231.13,0,0,0-30.85-4.73c-5.22-.59-10.51-.62-15.8-.87-2.65,0-5.31,0-8,0l-4,0-4,.24a234.61,234.61,0,0,0-122.68,42.54,239.57,239.57,0,0,0-26,21.36,236.77,236.77,0,0,0-22.78,25A241.13,241.13,0,0,0,102.23,186,257.63,257.63,0,0,0,87.55,216.8a254.52,254.52,0,0,0-10.06,32.4,233.5,233.5,0,0,0-.9,100.68,234.6,234.6,0,0,0,61.2,114.55l2.77,2.88,2.91,2.75c1.94,1.81,3.85,3.67,5.81,5.45,4.06,3.4,8,7,12.2,10.09a230.08,230.08,0,0,0,25.87,17.47c4.51,2.47,9,5.09,13.55,7.22,2.29,1.1,4.52,2.28,6.85,3.31l7,3c1.15.49,2.37,1,3.46,1.47l3.53,1.31,7,2.61,7.1,2.25c2.36.74,4.7,1.53,7.1,2.1a232.82,232.82,0,0,0,56.63,8.26,238.83,238.83,0,0,0,53.36-5,234.23,234.23,0,0,0,85.71-37.45,221.88,221.88,0,0,0,30.11-25.2c2.22-2.07,4.19-4.31,6.19-6.43s4-4.18,5.71-6.35l5.26-6.24,4.72-6.16a223.88,223.88,0,0,0,24.18-40c2.44-4.82,3.87-8.73,5-11.27S521.52,386.6,521.52,386.6Z" transform="translate(-1)" style="fill:#cdb382"/><path d="M123.71,431.24,121.44,428c-1.45-2.19-3.84-5.3-6.44-9.69a211.39,211.39,0,0,1-19.62-39.49l-2.52-6.88c-.75-2.39-1.52-4.85-2.31-7.35s-1.47-5.11-2.17-7.77-1.46-5.37-2-8.19a213.94,213.94,0,0,1-4.93-36.77,223.07,223.07,0,0,1,36-133.07,222,222,0,0,1,35.21-41.57c1.67-1.65,3.49-3.14,5.27-4.68l5.41-4.61,5.66-4.37,2.85-2.2c1-.73,2-1.38,3-2.07l5.93-4.12c2-1.35,4.11-2.59,6.17-3.89,4.09-2.68,8.44-4.94,12.74-7.35a218.58,218.58,0,0,1,27.27-12.15c4.69-1.86,9.56-3.23,14.39-4.8,2.44-.7,4.92-1.31,7.38-2l3.71-1,3.76-.79a223,223,0,0,1,62.09-4.65,227.41,227.41,0,0,1,31.54,4.39,223.56,223.56,0,0,1,60.43,22.37A228.37,228.37,0,0,1,437.6,123a231.79,231.79,0,0,1,24.63,21.62,248,248,0,0,1,21.27,25.08,244.31,244.31,0,0,1,17.25,27.9,230.89,230.89,0,0,1,13,30.09,226.75,226.75,0,0,1,8.38,31.55A223.62,223.62,0,0,1,519.2,355a223.36,223.36,0,0,1-23.57,57.64L493.71,416l-2.06,3.22c-1.39,2.14-2.74,4.31-4.15,6.42-3,4.11-5.79,8.33-9,12.2a221.9,221.9,0,0,1-20,22.21c-3.62,3.34-7.12,6.78-10.92,9.84-1.87,1.56-3.69,3.18-5.6,4.66l-5.76,4.39c-1,.73-1.89,1.45-2.9,2.18l-3,2-5.88,4-6.06,3.73c-2,1.22-4,2.5-6.09,3.57A221.23,221.23,0,0,1,362,515.1a223.11,223.11,0,0,1-137.67-6.84,212.86,212.86,0,0,1-33.46-16c-2.52-1.37-4.85-3-7.18-4.42s-4.61-2.89-6.72-4.46l-6.28-4.46-5.76-4.52a211.18,211.18,0,0,1-31.52-30.85c-3.38-3.82-5.6-7-7.24-9.11Zm0,0,2.43,3.16c1.65,2.06,3.88,5.28,7.26,9.09A210.93,210.93,0,0,0,165,474.22c1.87,1.47,3.8,3,5.77,4.5l6.29,4.44c2.12,1.56,4.41,3,6.73,4.44s4.66,3,7.18,4.39a212.74,212.74,0,0,0,33.46,15.9,221.31,221.31,0,0,0,87.18,14,225.65,225.65,0,0,0,50-8A220,220,0,0,0,411.55,493c2.07-1.08,4-2.36,6-3.59l6-3.73,5.85-4.07,2.94-2c.93-.67,1.88-1.44,2.82-2.16l5.69-4.39c1.88-1.49,3.67-3.11,5.51-4.66,3.74-3.07,7.18-6.5,10.74-9.84a218.56,218.56,0,0,0,19.6-22.14c3.15-3.86,5.89-8.05,8.81-12.14,1.39-2.1,2.7-4.25,4-6.38l2-3.2,1.87-3.31a222.3,222.3,0,0,0,29.09-119.74,218.72,218.72,0,0,0-24.91-92.35,224.07,224.07,0,0,0-37.9-52.15,228.83,228.83,0,0,0-24.18-21.36,225.36,225.36,0,0,0-26.94-17.51,228.28,228.28,0,0,0-29.05-13.31,222.34,222.34,0,0,0-122.88-9.26l-3.72.76-3.68.93c-2.44.63-4.89,1.22-7.31,1.89-4.79,1.51-9.63,2.83-14.27,4.63a218.87,218.87,0,0,0-27.1,11.82c-4.28,2.36-8.61,4.57-12.67,7.18-2,1.27-4.12,2.47-6.13,3.8l-6,4.07c-1,.68-2,1.35-2.94,2l-2.83,2.15-5.65,4.3L159,133.76c-1.78,1.52-3.6,3-5.27,4.61a220.32,220.32,0,0,0-35.31,41,225.92,225.92,0,0,0-23,45.13,221.58,221.58,0,0,0-13.56,87.26,213,213,0,0,0,4.81,36.73c.52,2.82,1.3,5.52,2,8.18s1.31,5.28,2.14,7.77l2.28,7.35c.86,2.35,1.69,4.65,2.5,6.88A211.65,211.65,0,0,0,115,418.24c2.59,4.39,5,7.51,6.41,9.71Z" transform="translate(-1)" style="fill:#cdb382"/><path d="M122.09,394.73l-1.62-3.3c-1-2.19-2.76-5.35-4.52-9.69a194.31,194.31,0,0,1-12.4-38.6l-1.35-6.61c-.35-2.27-.71-4.61-1.08-7s-.64-4.85-.91-7.37-.59-5.08-.68-7.71a196.76,196.76,0,0,1,.57-34.11,205.06,205.06,0,0,1,51-116,203.54,203.54,0,0,1,37.73-33c1.74-1.27,3.6-2.38,5.44-3.53l5.55-3.45,5.75-3.2,2.89-1.61c1-.53,2-1,3-1.48l6-2.93c2-1,4.09-1.79,6.15-2.69,4.09-1.87,8.35-3.34,12.59-4.94a203.94,203.94,0,0,1,26.48-7.3c4.51-1,9.13-1.62,13.74-2.38,2.32-.3,4.65-.52,7-.78l3.5-.37,3.53-.21a205,205,0,0,1,57.12,4.31,208,208,0,0,1,28.08,8.33,214.44,214.44,0,0,1,26.88,12.39,204.59,204.59,0,0,1,47.52,36.14,214.18,214.18,0,0,1,19.42,23.06,225.68,225.68,0,0,1,15.9,25.75,222.68,222.68,0,0,1,11.84,27.75,212,212,0,0,1,7.66,29.16A208.37,208.37,0,0,1,508,293.21a205.31,205.31,0,0,1-6.47,58.93,209.51,209.51,0,0,1-9.37,27.75,204.61,204.61,0,0,1-29.39,49.17l-2.2,2.77-2.32,2.65c-1.56,1.75-3.08,3.54-4.66,5.26-3.28,3.33-6.41,6.77-9.87,9.86A202.92,202.92,0,0,1,422.52,467c-3.75,2.54-7.4,5.19-11.28,7.45-1.92,1.15-3.79,2.37-5.73,3.46l-5.85,3.19c-1,.53-1.92,1.07-2.94,1.59l-3,1.42-5.9,2.85-6,2.55c-2,.84-4,1.73-6,2.42a204.38,204.38,0,0,1-48.68,11.84A205.17,205.17,0,0,1,202.9,478.6a195.75,195.75,0,0,1-28.2-19.18c-2.11-1.6-4-3.36-5.92-5s-3.79-3.26-5.49-5l-5.1-4.92-4.62-4.9a194.33,194.33,0,0,1-24.4-32.38c-2.54-4-4.11-7.19-5.32-9.28Zm0,0,1.77,3.21c1.22,2.09,2.8,5.33,5.35,9.26a193.47,193.47,0,0,0,24.5,32.28l4.63,4.89,5.1,4.89c1.71,1.71,3.6,3.3,5.51,5s3.81,3.4,5.92,5a194.74,194.74,0,0,0,28.23,19.06A203.28,203.28,0,0,0,280.42,503,206.92,206.92,0,0,0,327,502.6a201.88,201.88,0,0,0,48.24-12.17c2-.7,4-1.59,6-2.44l5.93-2.57,5.88-2.89,2.95-1.46c.93-.48,1.91-1.05,2.86-1.57l5.77-3.21c1.91-1.1,3.76-2.32,5.65-3.48,3.82-2.27,7.42-4.92,11.11-7.47a201.5,201.5,0,0,0,20.85-17.42c3.39-3.08,6.46-6.52,9.67-9.83,1.54-1.72,3-3.49,4.56-5.24l2.27-2.63,2.15-2.75a204.34,204.34,0,0,0,42.87-104.79A201.27,201.27,0,0,0,501.37,264a211,211,0,0,0-7.62-28.64A225,225,0,0,0,482,208.05a222.47,222.47,0,0,0-15.5-25.27,210.06,210.06,0,0,0-19-22.73,201.42,201.42,0,0,0-46.62-35.7A204.35,204.35,0,0,0,290.49,99l-3.48.17-3.47.34c-2.3.24-4.61.43-6.9.71-4.56.71-9.14,1.24-13.61,2.24a201,201,0,0,0-26.25,7c-4.21,1.55-8.45,3-12.5,4.78-2,.87-4.08,1.67-6.09,2.61l-6,2.87c-1,.48-2,1-2.95,1.44l-2.87,1.57-5.73,3.12-5.53,3.37c-1.84,1.13-3.69,2.22-5.43,3.46A203,203,0,0,0,152,165.11,207.3,207.3,0,0,0,124.84,203a203.46,203.46,0,0,0-24.35,77.44,195.6,195.6,0,0,0-.68,34.05c.08,2.63.41,5.19.65,7.71s.47,5,.88,7.35.72,4.72,1.06,7,.9,4.46,1.33,6.6A193.49,193.49,0,0,0,116,381.72c1.74,4.35,3.47,7.51,4.48,9.71Z" transform="translate(-1)" style="fill:#cdb382"/><path d="M108.36,288.72s.1-1.19.3-3.5.38-5.75,1.08-10.18a185.26,185.26,0,0,1,8.86-37.78c.7-2,1.41-4,2.15-6.08l2.56-6.28c.83-2.16,1.87-4.29,2.89-6.48s2-4.46,3.24-6.67a187.58,187.58,0,0,1,17.29-27.69,196.3,196.3,0,0,1,99-70A194.9,194.9,0,0,1,293,105.57c2-.18,4.13-.17,6.2-.22l6.26-.09,6.29.21,3.16.11c1.1.06,2.11.17,3.18.25l6.32.53c2.12.2,4.24.55,6.37.82,4.28.48,8.5,1.39,12.77,2.16a195,195,0,0,1,25.33,7.07c4.22,1.37,8.29,3.17,12.45,4.82,2.05.9,4.07,1.87,6.11,2.81l3.06,1.42,3,1.57a196.15,196.15,0,0,1,44.75,31.71,198.91,198.91,0,0,1,18.93,20.68,197,197,0,0,1,28.44,49.12A201.5,201.5,0,0,1,494.25,256a204.05,204.05,0,0,1,4.57,28.5,218.64,218.64,0,0,1,.35,29,214.86,214.86,0,0,1-4,28.61,204,204,0,0,1-8.11,27.7,195.26,195.26,0,0,1-27.67,50A204.17,204.17,0,0,1,440.65,441a198.79,198.79,0,0,1-21.38,18.15A196.16,196.16,0,0,1,370.9,485l-3.17,1.18-3.22,1c-2.14.67-4.27,1.38-6.41,2-4.33,1.12-8.6,2.4-13,3.22a194.67,194.67,0,0,1-26,3.83c-4.33.23-8.63.6-12.93.54-2.14,0-4.28.08-6.41,0l-6.37-.27c-1.07,0-2.1-.07-3.19-.15l-3.14-.29-6.24-.58-6.21-.88c-2.06-.3-4.12-.55-6.14-1a195,195,0,0,1-45.77-14.31,196.29,196.29,0,0,1-89.44-81.95,187.79,187.79,0,0,1-13.68-29.64c-.94-2.35-1.62-4.73-2.38-7s-1.5-4.54-2-6.79l-1.75-6.55q-.7-3.24-1.37-6.3a185.32,185.32,0,0,1-4-38.6c-.14-4.48.17-7.91.21-10.23S108.36,288.72,108.36,288.72Zm0,0s0,1.19-.13,3.51-.33,5.75-.18,10.23A186.25,186.25,0,0,0,112.23,341q.67,3.06,1.39,6.29c.57,2.13,1.16,4.3,1.77,6.54s1.33,4.48,2.07,6.78,1.46,4.66,2.4,7a186.93,186.93,0,0,0,13.76,29.55,194.51,194.51,0,0,0,51.23,58.39,198.4,198.4,0,0,0,38.37,22.65A193.48,193.48,0,0,0,268.78,492c2,.42,4,.65,6.08.93l6.13.81,6.25.53,3.14.26c1,.06,2.08.08,3.12.12l6.31.21c2.11.05,4.23-.05,6.35-.07,4.25,0,8.51-.38,12.79-.65a191.63,191.63,0,0,0,25.69-4c4.3-.85,8.5-2.16,12.77-3.29,2.12-.65,4.21-1.37,6.32-2.05l3.16-1,3.12-1.2a195.53,195.53,0,0,0,86.81-64.79,192.57,192.57,0,0,0,27-49.25,202,202,0,0,0,7.87-27.24,216.17,216.17,0,0,0,3.82-28.19,213.12,213.12,0,0,0-.25-28.36,200.49,200.49,0,0,0-4.39-28,195.42,195.42,0,0,0-8.42-27,198.35,198.35,0,0,0-12.2-25.3,195.42,195.42,0,0,0-78-75.19l-2.94-1.58-3-1.43c-2-.94-4-1.92-6-2.83-4.09-1.66-8.1-3.48-12.26-4.87a192.6,192.6,0,0,0-25-7.21c-4.21-.8-8.39-1.73-12.59-2.25-2.1-.28-4.18-.64-6.29-.86l-6.32-.59c-1-.09-2.12-.21-3.12-.28l-3.13-.13-6.24-.26-6.2,0c-2.06,0-4.11,0-6.15.16a193.66,193.66,0,0,0-46.94,8,198,198,0,0,0-40.91,17.65,194.7,194.7,0,0,0-58.16,51.49,187,187,0,0,0-17.36,27.59c-1.23,2.2-2.22,4.47-3.27,6.65s-2.07,4.31-2.9,6.46l-2.58,6.26c-.74,2.08-1.47,4.1-2.17,6.07a185.86,185.86,0,0,0-9,37.73c-.71,4.42-.85,7.87-1.1,10.17S108.36,288.72,108.36,288.72Z" transform="translate(-1)" style="fill:#cdb382"/><path d="M302.45,118.13l3.29.07c2.17.08,5.4,0,9.6.36a174.31,174.31,0,0,1,35.93,5.93,184.25,184.25,0,0,1,104.44,73.87,188.38,188.38,0,0,1,19.53,37.43c.72,1.69,1.25,3.45,1.87,5.18s1.23,3.49,1.78,5.27,1,3.58,1.53,5.39,1,3.61,1.41,5.46.85,3.68,1.28,5.54.7,3.75,1.05,5.63c.75,3.76,1.19,7.6,1.68,11.45.28,1.92.39,3.87.54,5.82s.29,3.91.43,5.87l.15,5.93.08,3c0,1.07-.05,2-.06,3l-.18,5.95c-.08,2-.3,4-.44,6-.24,4.05-.87,8.05-1.39,12.09a181,181,0,0,1-5.34,24.09c-1.07,4-2.56,7.93-3.89,11.9-.74,2-1.55,3.91-2.32,5.86l-1.18,2.94L470.92,375a187.51,187.51,0,0,1-27.29,43.41,189.93,189.93,0,0,1-18.22,18.79,200,200,0,0,1-20.88,16.2,185.1,185.1,0,0,1-101.26,31.23,203,203,0,0,1-27-1.77,191,191,0,0,1-26.39-5.69,188.43,188.43,0,0,1-25.19-9.47,191.28,191.28,0,0,1-23.42-13,184.76,184.76,0,0,1-67-78.59L133,373.27l-1.18-2.95c-.77-2-1.59-3.92-2.33-5.89-1.34-4-2.83-7.91-3.88-12a180.87,180.87,0,0,1-5.27-24.19c-.51-4.06-1.13-8.08-1.35-12.12-.14-2-.35-4-.43-6s-.1-4-.16-6c0-1-.06-1.95-.06-3l.07-2.95c.05-2,.09-3.93.14-5.88l.42-5.91c.16-2,.26-3.92.55-5.85.48-3.86.91-7.7,1.66-11.47.35-1.88.63-3.78,1-5.64s.85-3.71,1.27-5.55.88-3.67,1.41-5.47L126.4,247c.55-1.78,1.18-3.53,1.77-5.28s1.14-3.5,1.86-5.19A188.29,188.29,0,0,1,149.47,199a184.68,184.68,0,0,1,104.17-74.31,175.08,175.08,0,0,1,35.91-6.08c4.2-.39,7.43-.31,9.6-.4Zm0,.37-3.28.1c-2.17.11-5.39.05-9.57.47a174.14,174.14,0,0,0-35.75,6.33,165.13,165.13,0,0,0-24.34,8.87,175.29,175.29,0,0,0-26.61,14.83,183.25,183.25,0,0,0-79.71,131.81c-.28,1.89-.37,3.79-.52,5.7s-.27,3.82-.4,5.74-.09,3.91-.13,5.87l-.07,2.95.08,2.89c0,1.95.11,3.92.16,5.88s.29,3.94.43,5.91c.23,4,.85,7.9,1.34,11.87a178.19,178.19,0,0,0,5.22,23.68c1,4,2.49,7.8,3.78,11.71.71,1.94,1.5,3.85,2.25,5.78l1.14,2.89,1.29,2.84a180.71,180.71,0,0,0,26.73,42.88,187.29,187.29,0,0,0,18,18.58,195,195,0,0,0,20.62,16,180.44,180.44,0,0,0,47.6,22.64,189.58,189.58,0,0,0,26,5.9,182.23,182.23,0,0,0,53.31.18,179.31,179.31,0,0,0,74-28.31,180.15,180.15,0,0,0,65.23-78.25l1.26-2.86,1.12-2.92c.74-1.95,1.51-3.88,2.21-5.83,1.26-3.94,2.67-7.82,3.67-11.8A180.26,180.26,0,0,0,482.32,327c.45-4,1-7.95,1.19-11.9.12-2,.3-3.93.36-5.91s.07-4,.1-5.95c0-1,0-2,0-2.92l-.09-2.92q-.09-2.92-.17-5.83l-.45-5.77c-.17-1.92-.28-3.83-.57-5.72a184,184,0,0,0-80.59-131.45,175.54,175.54,0,0,0-26.68-14.71,164.15,164.15,0,0,0-24.38-8.75A173.3,173.3,0,0,0,315.31,119c-4.17-.4-7.41-.33-9.58-.43Z" transform="translate(-1)" style="fill:#cdb382"/><path d="M302.49,135.05l3,.06c2,.08,4.88,0,8.7.33a169.21,169.21,0,0,1,128.54,71.64,163.13,163.13,0,0,1,18,34.19c1.21,3.12,2.28,6.33,3.35,9.56.47,1.64.94,3.28,1.41,4.94s.94,3.31,1.3,5l1.17,5.08c.38,1.7.64,3.43,1,5.15.69,3.45,1.1,7,1.52,10.5s.56,7.12.83,10.71c0,1.8.07,3.61.1,5.43l0,2.72c0,1.05,0,1.83-.07,2.76-.07,1.79-.13,3.59-.2,5.39s-.31,3.69-.45,5.53c-.26,3.73-.86,7.38-1.37,11.07a165.84,165.84,0,0,1-5.07,22c-1,3.66-2.39,7.22-3.64,10.83-.69,1.79-1.44,3.55-2.16,5.33l-1.1,2.67-1.23,2.62a173.77,173.77,0,0,1-60.82,71.13,165.61,165.61,0,0,1-43.73,21,174.46,174.46,0,0,1-23.86,5.72,170.19,170.19,0,0,1-49.16.79,165.7,165.7,0,0,1-68.76-25.35A169.19,169.19,0,0,1,148.19,370a165.5,165.5,0,0,1,14.23-162.36,170.72,170.72,0,0,1,128.36-72.13c3.81-.36,6.74-.28,8.71-.36l3-.07Zm0,.73-3,.09c-2,.11-4.88.06-8.67.44a149.79,149.79,0,0,0-32.32,5.87,144.71,144.71,0,0,0-21.91,8.24,157.22,157.22,0,0,0-23.86,13.65A166.06,166.06,0,0,0,167.53,211a174.06,174.06,0,0,0-16.48,33.35,164.58,164.58,0,0,0-9,38.66c-.41,3.4-.53,6.75-.78,10.19,0,1.77-.07,3.54-.1,5.32l-.05,2.68.08,2.52c0,1.75.09,3.51.14,5.27s.26,3.52.38,5.28c.19,3.54.74,7.06,1.18,10.62a159.85,159.85,0,0,0,4.63,21.19c.93,3.54,2.22,7,3.35,10.49.64,1.73,1.34,3.44,2,5.17l1,2.59,1.14,2.55a161.82,161.82,0,0,0,23.81,38.47,167.19,167.19,0,0,0,16,16.69,176.2,176.2,0,0,0,18.44,14.42A162.25,162.25,0,0,0,256,457a170.7,170.7,0,0,0,23.29,5.52,161.76,161.76,0,0,0,48,.58,168.75,168.75,0,0,0,23.56-5,166.38,166.38,0,0,0,22.43-8.57A169.82,169.82,0,0,0,394.1,437.8,158.71,158.71,0,0,0,452.58,367l1.12-2.59,1-2.64c.65-1.75,1.33-3.5,1.94-5.25,1.1-3.57,2.34-7.07,3.2-10.66a160.26,160.26,0,0,0,4.25-21.46c.37-3.59.85-7.16,1-10.68.09-1.78.24-3.5.28-5.29s0-3.6.05-5.4c0-.86,0-1.87,0-2.6l-.09-2.62c-.07-1.75-.13-3.49-.19-5.23-.32-3.46-.51-6.91-1-10.3a168.53,168.53,0,0,0-9.41-38.67,174.62,174.62,0,0,0-16.8-33.25,166.61,166.61,0,0,0-45.53-46.7,157.74,157.74,0,0,0-23.94-13.54,145.15,145.15,0,0,0-22-8.14,148.28,148.28,0,0,0-32.35-5.68c-3.78-.37-6.72-.3-8.68-.39l-3-.08Z" transform="translate(-1)" style="fill:#cdb382"/><path d="M441.86,239.57l1.05,2.53c.66,1.68,1.81,4.09,2.92,7.42a152,152,0,0,1,7.58,29.31,153.81,153.81,0,0,1-20.65,104.63,151.11,151.11,0,0,1-22,27.6c-2.17,2.16-4.46,4.23-6.77,6.31s-4.75,4.07-7.31,5.91l-3.81,2.85c-1.29.94-2.64,1.79-4,2.7-2.63,1.84-5.42,3.47-8.22,5.13s-5.74,3.09-8.64,4.63l-4.49,2.09-2.26,1.05-2.33.95-4.59,1.83c-1.55.6-3.19,1.11-4.78,1.66-3.2,1.17-6.48,2-9.75,3A153.48,153.48,0,0,1,323.62,453c-3.43.51-6.92.67-10.41,1-1.74.08-3.5.11-5.25.16l-2.64.07-2.64-.06a157.81,157.81,0,0,1-82-24.64,151.57,151.57,0,0,1-33.65-28.94,158.71,158.71,0,0,1-13.52-17.9,168.14,168.14,0,0,1-10.82-19.79,170.81,170.81,0,0,1-7.82-21.12,158.46,158.46,0,0,1-4.66-22.06,153.46,153.46,0,0,1,.74-44.76,154.46,154.46,0,0,1,37.5-77.85,151.54,151.54,0,0,1,140.88-47.8,154.16,154.16,0,0,1,91.27,55.27,151,151,0,0,1,16.55,25.36c1.7,3.05,2.72,5.54,3.52,7.16Zm-.5.21-1.18-2.46c-.8-1.61-1.83-4.08-3.55-7.11a138.31,138.31,0,0,0-16.8-25,136,136,0,0,0-15-15.41,145,145,0,0,0-20.21-15.08,152.14,152.14,0,0,0-56.1-20.91,158.09,158.09,0,0,0-34.16-1.63,151.35,151.35,0,0,0-35.89,6.73c-3,.91-5.89,2.05-8.88,3.11l-4.51,1.87-2.26.95-2.12,1-4.38,2.07c-1.45.71-2.86,1.52-4.31,2.27-2.91,1.48-5.67,3.24-8.5,4.93a146.4,146.4,0,0,0-16.14,11.74c-2.64,2.09-5.06,4.45-7.59,6.71l-3.62,3.6L194.39,199l-1.72,1.9a150.77,150.77,0,0,0-27.18,160.85,166.16,166.16,0,0,0,10.17,19.59,147.82,147.82,0,0,0,46,46.76,146.53,146.53,0,0,0,81.07,23.12h2.59l2.58-.14c1.72-.1,3.43-.17,5.14-.29,3.4-.39,6.8-.62,10.14-1.22a146.21,146.21,0,0,0,19.64-4.3c3.15-1,6.34-1.91,9.36-3.1,1.52-.58,3-1.08,4.56-1.71l4.55-1.94,2.2-.93,2.18-1.05,4.33-2.09c2.8-1.54,5.63-3,8.32-4.61a154.31,154.31,0,0,0,29.08-22.22,159.55,159.55,0,0,0,21.73-26.46,152.86,152.86,0,0,0,22.25-55.62,144.37,144.37,0,0,0,2.45-25.11A134.38,134.38,0,0,0,452.46,279a137.84,137.84,0,0,0-7.19-29.24c-1.09-3.3-2.23-5.74-2.88-7.42Z" transform="translate(-1)" style="fill:#cdb382"/><path d="M436.52,309.68s-.07.82-.22,2.4-.27,3.94-.76,7A128,128,0,0,1,429.36,345,138.12,138.12,0,0,1,410,381.56,134.7,134.7,0,0,1,342,429.88a134.68,134.68,0,0,1-32.54,5.86c-2.83.2-5.7.16-8.59.22-2.88-.14-5.78-.08-8.71-.39l-4.34-.37c-1.45-.15-2.93-.39-4.4-.58-3-.34-5.87-1-8.81-1.51a133.92,133.92,0,0,1-17.45-4.92c-2.91-.95-5.72-2.2-8.58-3.34l-4.21-2c-1.42-.63-2.81-1.33-4.17-2.07a135.89,135.89,0,0,1-54.85-52.36,139.37,139.37,0,0,1-8.62-17.72,137.7,137.7,0,0,1-6-18.92,140.13,140.13,0,0,1-3.15-19.67A136.73,136.73,0,0,1,170,272.37a135.42,135.42,0,0,1,24.52-53.92,134.75,134.75,0,0,1,164.36-41.39,133.24,133.24,0,0,1,26.48,16.35,136.59,136.59,0,0,1,34.78,41.24,130.91,130.91,0,0,1,9.12,20.59,133.43,133.43,0,0,1,7.63,45c.07,3.08-.16,5.44-.21,7S436.52,309.68,436.52,309.68Zm-.54,0s0-.82.07-2.4.21-3.94.09-7a130.14,130.14,0,0,0-17.87-64.55A133.18,133.18,0,0,0,383,196.38a139.36,139.36,0,0,0-26.09-15.13A131.1,131.1,0,0,0,326.12,172c-2.72-.5-5.44-.77-8.2-1.15l-4.29-.35-2.15-.17-2.06-.08-4.26-.16c-1.43,0-2.86,0-4.29,0-2.87,0-5.74.24-8.64.41a130.06,130.06,0,0,0-17.36,2.63c-2.9.56-5.75,1.43-8.63,2.19L262,176.71c-1.43.44-2.85.94-4.25,1.49a131.47,131.47,0,0,0-86.07,114.32,146.15,146.15,0,0,0,.1,19.29,136.33,136.33,0,0,0,2.91,19.1,134.48,134.48,0,0,0,5.66,18.4,136.24,136.24,0,0,0,8.25,17.28A132.43,132.43,0,0,0,241.62,418c1.32.74,2.68,1.43,4,2.06l4.1,1.93c2.79,1.14,5.52,2.39,8.36,3.33a129.32,129.32,0,0,0,17,4.94c2.87.56,5.73,1.2,8.58,1.55,1.43.2,2.84.44,4.28.6l4.33.4c2.82.32,5.7.32,8.51.5,2.83,0,5.65.06,8.44-.09A132.34,132.34,0,0,0,341.36,428a135.59,135.59,0,0,0,28-11.91,133.64,133.64,0,0,0,40-35A131.05,131.05,0,0,0,435,319c.49-3,.58-5.39.76-7S436,309.64,436,309.64Z" transform="translate(-1)" style="fill:#cdb382"/><path d="M411.76,308.07s-.06.67-.18,2-.22,3.21-.62,5.69a103.88,103.88,0,0,1-5,21.14,111.36,111.36,0,0,1-15.79,29.76,109.62,109.62,0,0,1-55.47,39.28,109.29,109.29,0,0,1-26.48,4.73c-2.31.16-4.64.13-7,.17-2.35-.11-4.7-.07-7.09-.32l-3.53-.31c-1.18-.12-2.38-.31-3.58-.47-2.41-.28-4.77-.79-7.16-1.24a109,109,0,0,1-14.2-4c-2.36-.78-4.64-1.8-7-2.73s-4.6-2-6.82-3.27a110.24,110.24,0,0,1-59.17-104.67,121.4,121.4,0,0,1,2.18-16.06,115.13,115.13,0,0,1,4.5-15.58A110.17,110.17,0,0,1,264.63,197a108.8,108.8,0,0,1,105.26,16.49A110.87,110.87,0,0,1,398.27,247a112.5,112.5,0,0,1,11.62,31.73A104.26,104.26,0,0,1,412,300.37c.06,2.51-.12,4.44-.16,5.73S411.76,308.07,411.76,308.07Zm-.36,0,.06-2c0-1.29.18-3.21.09-5.71a106.6,106.6,0,0,0-14.49-52.69,108.39,108.39,0,0,0-75.17-52.19c-2.23-.42-4.46-.64-6.72-1-2.29-.16-4.73-.46-6.94-.51s-4.65-.19-7-.12-4.7.18-7.07.31A105.56,105.56,0,0,0,280,196.34c-2.38.45-4.71,1.16-7.08,1.77s-4.69,1.41-7,2.33A108.47,108.47,0,0,0,217.55,236a107.56,107.56,0,0,0,35.28,160.56c2.17,1.23,4.45,2.19,6.67,3.26s4.51,2,6.82,2.72a106.3,106.3,0,0,0,13.92,4c2.35.45,4.67,1,7,1.26,1.17.16,2.32.36,3.5.48l3.53.34c2.3.25,4.65.25,7,.39,2.31,0,4.61,0,6.88-.08a107.69,107.69,0,0,0,26.17-4.35,110.47,110.47,0,0,0,22.85-9.75,109.11,109.11,0,0,0,32.58-28.57,104.79,104.79,0,0,0,15.87-29.56,103.22,103.22,0,0,0,5-21.06c.4-2.47.48-4.4.62-5.69Z" transform="translate(-1)" style="fill:#cdb382"/><path d="M391.07,306.75s-.26,2.14-.74,6.16c-.14,1-.19,2.13-.46,3.35l-.89,4c-.35,1.43-.62,3-1.1,4.62s-1.07,3.32-1.66,5.12a90.87,90.87,0,0,1-12.56,24.23,35.09,35.09,0,0,1-2.49,3.18l-2.66,3.21a31.78,31.78,0,0,1-2.93,3.12l-3.12,3.12a41,41,0,0,1-3.41,3l-3.57,3c-2.52,1.86-5.2,3.64-7.94,5.46a90.46,90.46,0,0,1-40.31,12.63c-1.89.2-3.81.06-5.73.11h-4.65l-.18,0-.36,0-.7-.07a92.86,92.86,0,0,1-34.74-9.66l-5.49-3c-1.83-1-3.51-2.34-5.27-3.5l-2.63-1.81c-.83-.66-1.64-1.36-2.46-2-1.62-1.39-3.33-2.69-4.88-4.18a90.93,90.93,0,0,1-26.22-44.91,100.82,100.82,0,0,1-2.46-26.69l.69-6.62a31.72,31.72,0,0,1,.41-3.25l.69-3.37.7-3.38.36-1.68.5-1.61,2-6.43a99.4,99.4,0,0,1,12.67-23.58,96.48,96.48,0,0,1,18.66-18.72c1.74-1.32,3.62-2.45,5.42-3.68.91-.59,1.81-1.21,2.73-1.78l2.87-1.53c1.93-1,3.78-2.1,5.75-2.94l5.94-2.45c8-2.77,16.26-4.88,24.48-5.25,4.08-.49,8.14-.18,12.14-.13l.75,0h.56l.4,0,1.41.19,2.81.37,2.78.38a21.67,21.67,0,0,1,2.83.47l5.78,1.36c.94.24,1.92.41,2.83.71l2.68,1,5.29,1.89c1.7.76,3.35,1.57,5,2.35,6.64,3,12.36,7.21,17.63,11.33a91.86,91.86,0,0,1,22.62,28.12c1.15,2.43,2.3,4.76,3.31,7,.85,2.34,1.67,4.61,2.45,6.78s1.23,4.35,1.81,6.37c.27,1,.54,2,.8,3s.32,2,.48,2.9q.46,2.82.88,5.33c.23,1.68.26,3.28.4,4.75s.2,2.83.29,4.08,0,2.39,0,3.41c-.11,4.06-.18,6.23-.18,6.23Zm-.91-.09v-6.17c0-1,.06-2.13-.05-3.36s-.27-2.57-.41-4-.25-3-.53-4.65-.72-3.36-1.11-5.2c-.2-.91-.41-1.84-.62-2.81l-.93-2.87c-.68-1.95-1.19-4.05-2.09-6.12s-1.87-4.17-2.86-6.38c-1.15-2.13-2.44-4.29-3.71-6.53a86.22,86.22,0,0,0-23.4-24.88l-4-2.55a35.36,35.36,0,0,0-4.13-2.45,85.63,85.63,0,0,0-8.9-4.23c-1.55-.62-3.09-1.28-4.67-1.88l-4.91-1.45-2.47-.74c-.83-.25-1.66-.35-2.49-.53l-5-1a18,18,0,0,0-2.69-.36l-2.8-.28-2.81-.28-1.41-.13c-.27,0,.16,0,.05,0H307c-3.61,0-7.27-.22-10.94.31a83.44,83.44,0,0,0-21.94,4.86l-5.36,2.12c-1.79.72-3.46,1.72-5.21,2.57L261,229c-.84.51-1.65,1-2.48,1.58-1.63,1.08-3.35,2.06-4.94,3.23a93.45,93.45,0,0,0-17.27,16.54,88.52,88.52,0,0,0-12.08,21.16l-2,5.84-.5,1.46-.34,1.47-.68,2.95-.7,2.94a30.31,30.31,0,0,0-.48,3.16l-.8,6.23a93.38,93.38,0,0,0,1.79,24.69,90.57,90.57,0,0,0,8.8,23,91.71,91.71,0,0,0,14.81,19.28c1.42,1.42,3,2.67,4.49,4,.76.65,1.5,1.33,2.27,2l2.43,1.74c1.64,1.12,3.19,2.39,4.89,3.39l5.12,3a83.51,83.51,0,0,0,21.56,8c3.54,1,7.49,1.28,11.24,1.8l.71.09.35,0,.18,0c.09,0-.1,0,.06,0l1.38,0,2.76.08c1.83,0,3.66.22,5.46.08A89.85,89.85,0,0,0,346.2,376a86.11,86.11,0,0,0,26.38-22.55c1.52-2.13,3-4.15,4.42-6.16l3.56-6.1c1.11-2,1.86-4,2.75-5.9.42-.95.84-1.87,1.24-2.78s.63-1.85.93-2.74c.59-1.78,1.14-3.47,1.67-5.06s.71-3.16,1-4.58.59-2.74.85-3.94.3-2.35.44-3.35l.69-6.17Z" transform="translate(-1)" style="fill:#cdb382"/><path d="M310.84,367.33l-4.67.3c-.76,0-1.61.15-2.55.12l-3.1-.11c-1.11-.06-2.32,0-3.59-.17l-4-.52A68.83,68.83,0,0,1,273.14,361a69.8,69.8,0,0,1-21.66-15.93,67.87,67.87,0,0,1-15.23-28.23c-.42-1.38-.59-2.83-.9-4.27l-.41-2.16-.21-1.09a2.43,2.43,0,0,1,0-.25v-.14l0-.27,0-.53a70.88,70.88,0,0,1,2.29-27.33c.49-1.51,1-3,1.48-4.55s1.25-2.95,1.88-4.44l1-2.23,1.18-2.13c.81-1.41,1.55-2.88,2.44-4.25a69.48,69.48,0,0,1,29.92-26.06,77,77,0,0,1,19.69-5.65l5-.43a37.28,37.28,0,0,1,5.13-.13l2.65,0,1.32,0,1.28.14,5.13.6a76.57,76.57,0,0,1,19.55,6.15,74.45,74.45,0,0,1,16.78,11.34c1.25,1.12,2.38,2.37,3.56,3.55.58.6,1.17,1.19,1.73,1.8l1.56,2c1,1.32,2.11,2.56,3,3.93s1.79,2.76,2.68,4.14a66.9,66.9,0,0,1,7.39,17.72,69.76,69.76,0,0,1,1.79,9.13l.09.57.05.28,0,.14s.05.53,0,.37l0,1.07.1,2.13c0,1.45.2,2.75.13,4.3s-.15,3.06-.23,4.58a26.1,26.1,0,0,1-.5,4.4l-.72,4.24c-.33,1.38-.73,2.73-1.09,4.08a67.63,67.63,0,0,1-6.16,14.79A70.71,70.71,0,0,1,328.4,363.1l-3.86,1.37c-1.22.4-2.4.64-3.48.94l-3,.77c-.92.23-1.79.3-2.54.44l-4.67.71Zm-.08-.91,4.56-.87c.74-.17,1.58-.26,2.48-.52l2.91-.88c1.05-.33,2.19-.61,3.37-1l3.67-1.57,2-.86,2-1.1c1.34-.79,2.81-1.47,4.21-2.43l4.29-3c1.4-1.15,2.8-2.41,4.27-3.67a64.51,64.51,0,0,0,14.74-20.88c.42-1.09.85-2.18,1.28-3.29a25.36,25.36,0,0,0,1.19-3.37,64.87,64.87,0,0,0,1.81-7.11c.23-1.21.46-2.44.69-3.67s.23-2.52.34-3.79a68.21,68.21,0,0,0,.27-7.54c0-1.25-.22-2.75-.31-4.13l-.2-2.13-.1-1.07c0-.25,0,.19,0,.1l0-.12,0-.25-.1-.49a57.79,57.79,0,0,0-1.74-7.92,62.35,62.35,0,0,0-6.54-15.3,67.47,67.47,0,0,0-10.68-13.53,69.17,69.17,0,0,0-14.35-10.42,66.11,66.11,0,0,0-17.07-6l-4.54-.67-1.13-.17-1.11,0-2.23-.1-2.23-.12a21.68,21.68,0,0,0-2.39.07l-4.7.25a69.91,69.91,0,0,0-17.83,4.63,67.4,67.4,0,0,0-15.67,9.54,68.29,68.29,0,0,0-12.15,13.46c-.85,1.24-1.55,2.57-2.34,3.84l-1.13,1.93-.95,2c-.61,1.36-1.33,2.66-1.84,4.05s-1,2.78-1.48,4.16a62.37,62.37,0,0,0-3,16.91,63.12,63.12,0,0,0,.2,8.55l.06.95.15,1,.32,2c.23,1.35.33,2.72.68,4a67.91,67.91,0,0,0,13.11,27.47,64.83,64.83,0,0,0,20.2,16.54c1.78.83,3.48,1.68,5.17,2.42l5,1.8c1.62.56,3.24.83,4.75,1.23l2.23.54,2.16.3,4,.55c1.25.11,2.43.08,3.53.13l3,.08c.93,0,1.78-.11,2.54-.15l4.67-.35Z" transform="translate(-1)" style="fill:#cdb382"/><path d="M263.43,313.82s-.25-1-.73-2.8a23.57,23.57,0,0,1-.67-3.44c-.1-.68-.25-1.42-.32-2.2s-.11-1.63-.18-2.52a44.67,44.67,0,0,1,8.05-28,42.09,42.09,0,0,1,15.35-13.05c.8-.44,1.67-.73,2.52-1.1a23.48,23.48,0,0,1,2.68-1,41,41,0,0,1,5.36-1.38,42.78,42.78,0,0,1,11.81-.67,46,46,0,0,1,11.93,2.69,43.46,43.46,0,0,1,23.43,20.87,24.2,24.2,0,0,1,1.42,3l.61,1.52.31.77.15.38.08.19,0,.09c0,.11,0-.11.09.27a49.46,49.46,0,0,1,1.6,6.08,45.81,45.81,0,0,1,.83,6.64,49.43,49.43,0,0,1-1.32,13.06,47.08,47.08,0,0,1-5,12,45,45,0,0,1-8.08,9.87,42,42,0,0,1-10.28,6.85,43.81,43.81,0,0,1-5.55,2.24l-.35.12-.17.06-.09,0-.3.08-.64.16-1.29.3c-.89.19-1.62.43-2.62.58a41.84,41.84,0,0,1-5.82.58l-2.75,0c-.91,0-1.81-.15-2.7-.23a43.36,43.36,0,0,1-10-2.3,44.25,44.25,0,0,1-14.75-9.21A45.59,45.59,0,0,1,268,324.08l-1.27-2.21c-.37-.7-.65-1.4-.95-2a26.8,26.8,0,0,1-1.37-3.25l-1-2.76Zm.88-.26,1.09,2.65a19.1,19.1,0,0,0,1.52,3.06c.33.59.65,1.24,1.06,1.89l1.42,2a34.75,34.75,0,0,0,8.88,8.48,38.54,38.54,0,0,0,14.35,5.78,41.86,41.86,0,0,0,8.59.62l2.22-.08,2.24-.29a40.63,40.63,0,0,0,4.31-.8c.7-.12,1.62-.47,2.43-.7l1.27-.38.63-.19-.14,0,.06,0,.14-.06.27-.11a34.69,34.69,0,0,0,4.37-1.95,37.9,37.9,0,0,0,8.07-5.55,40.93,40.93,0,0,0,6.65-7.67,42.23,42.23,0,0,0,4.51-9.46,38.47,38.47,0,0,0,1.66-10.6,39.77,39.77,0,0,0-.39-5.33,42.65,42.65,0,0,0-1.2-5.65l0,.1,0-.08-.06-.17-.12-.32-.23-.65-.46-1.3a18.2,18.2,0,0,0-1.09-2.53,37.73,37.73,0,0,0-2.66-4.82,37.85,37.85,0,0,0-16.63-13.82,40.15,40.15,0,0,0-10.31-2.8,39.43,39.43,0,0,0-15.43,1.22c-.67.13-1.55.51-2.3.75s-1.59.49-2.33.85a41.86,41.86,0,0,0-15,10.81,39.07,39.07,0,0,0-7.77,14,36.08,36.08,0,0,0-1.58,12.38c.05.88.09,1.7.14,2.47s.24,1.48.35,2.15a22.35,22.35,0,0,0,.71,3.36l.78,2.78Z" transform="translate(-1)" style="fill:#cdb382"/><path d="M162.9,354.82c-1.5,2.91-3.09,5.78-4.69,8.63s-3.25,5.65-4.88,8.48l-5.05,8.38c-1.65,2.81-3.43,5.52-5.16,8.29s-3.45,5.53-5.25,8.24L132.53,405c-3.57,5.44-7.24,10.81-11,16.17s-7.46,10.65-11.25,15.92l-5.8,7.87c-1.94,2.6-3.83,5.25-5.81,7.82l-6,7.74c-1.26,1.67-2.55,3.29-3.85,4.91q-1.65-2.1-3.21-4.25c.8-1.3,1.59-2.61,2.41-3.89L93.32,449c1.71-2.77,3.55-5.46,5.32-8.19l5.35-8.16c3.63-5.39,7.3-10.77,11-16.08s7.49-10.65,11.36-15.89l5.79-7.84c1.93-2.63,3.93-5.2,5.92-7.78s3.93-5.18,6-7.73l6.11-7.62c2.09-2.5,4.14-5.05,6.26-7.54S160.69,357.25,162.9,354.82Z" transform="translate(-1)" style="fill:#6e4c35"/><path d="M490.29,495.08c-1.63,1.58-3.27,3.15-4.94,4.67-1-.88-2-1.78-2.94-2.69-3.21-3-6.5-6.11-9.73-9.38s-6.5-6.66-9.73-10-6.32-6.9-9.31-10.43-5.87-7-8.66-10.37-5.32-6.8-7.7-10-4.62-6.3-6.6-9.2-3.77-5.58-5.32-8-2.84-4.49-3.91-6.26c-2-3.3-3.09-5.33-3.21-5.57.2.2,1.85,1.82,4.5,4.59,2.8,3,6.82,7.22,11.53,12.34,9.43,10.21,22,23.82,34.56,37.44C476.19,480,483.55,487.88,490.29,495.08Z" transform="translate(-1)" style="fill:#6e4c35"/><path d="M262,34.21c-.06,5.1-.08,10.17-.12,15.19,0,5.89-.24,11.71-.34,17.32s-.34,11.06-.54,16.21-.44,10-.68,14.52c-.49,9-1.07,16.49-1.53,21.74s-.78,8.25-.78,8.25-.36-3-.8-8.25-1.05-12.73-1.51-21.74c-.26-4.49-.52-9.37-.7-14.52s-.44-10.59-.52-16.21-.34-11.43-.34-17.32q-.06-6.87-.12-13.84C256.69,35.07,259.35,34.61,262,34.21Z" transform="translate(-1)" style="fill:#6e4c35"/><path d="M316.62,244a84.05,84.05,0,0,1-.18-10.62c.05-1.59.11-3.31.27-5.13s.28-3.73.53-5.71.42-4,.78-6.1.67-4.18,1-6.29.85-4.2,1.28-6.27,1-4.09,1.44-6.05,1-3.86,1.56-5.65,1.06-3.48,1.59-5a93.83,93.83,0,0,1,4-10.34s0,1.07-.06,2.93-.23,4.51-.55,7.67-.74,6.86-1.32,10.81c-.31,2-.54,4-.93,6.07s-.72,4.17-1.08,6.27-.82,4.19-1.22,6.25-.88,4.09-1.3,6.05-.89,3.86-1.32,5.66-.88,3.49-1.31,5.06c-.83,3.14-1.65,5.74-2.24,7.57S316.62,244,316.62,244Z" transform="translate(-1)" style="fill:#cdb382"/><path d="M148.92,219.74c-.3-.12-2.73-1.27-6.74-3.25-4.29-2.13-10.37-5.22-17.57-9.07-3.59-1.9-7.52-3.95-11.59-6.21s-8.45-4.58-12.88-7.08-9.06-5-13.68-7.69l-14.08-8c-2.54-1.48-5.11-3-7.66-4.45v0c1.25-2.33,2.51-4.59,3.81-6.88,2.61,1.46,5.24,3,7.86,4.41q7,4.16,14,8.28c4.64,2.71,9,5.58,13.38,8.29s8.45,5.43,12.36,8,7.56,5.08,10.91,7.42c6.72,4.66,12.19,8.75,16,11.63C146.57,217.85,148.66,219.54,148.92,219.74Z" transform="translate(-1)" style="fill:#6e4c35"/><path d="M400.51,276.18s1.71-.07,4.69-.09,7.25,0,12.34.24c2.55.1,5.31.22,8.21.43s6,.37,9.15.67,6.45.53,9.77.94l10.05,1.16c3.37.45,6.73.88,10,1.39s6.54,1.06,9.68,1.57c6.27,1.06,12.11,2.2,17.08,3.31s9.12,2.11,12,2.88S508,290,508,290s-1.71,0-4.69-.09-7.24-.29-12.31-.65-11-.83-17.31-1.48c-3.16-.34-6.43-.63-9.73-1l-10-1.22-10-1.36c-3.3-.43-6.54-1-9.68-1.45s-6.16-1-9-1.48-5.59-1-8.09-1.45c-5-.92-9.16-1.82-12.08-2.47S400.51,276.18,400.51,276.18Z" transform="translate(-1)" style="fill:#cdb382"/></svg>