<svg id="Ebene_1" data-name="Ebene 1" xmlns="http://www.w3.org/2000/svg" viewBox="0 0 600 406.85"><path d="M280,496.24c0,4-21.34,7.18-47.65,7.18s-47.65-3.2-47.65-7.18S206,489,232.31,489,280,492.26,280,496.24Z" transform="translate(0 -96.58)" style="fill:#bd49b5"/><path d="M215,455.06c10.42-2.42,16.51-5.24,16.51-8.26,0-5.67-21.14-10.65-53-13.52,4.79-1.45,7.55-3.07,7.55-4.81,0-6-32.07-10.81-71.64-10.81s-71.63,4.85-71.63,10.81c0,1.8,3,3.5,8.12,5C20.2,436.36,0,441.25,0,446.8c0,7.86,40.59,14.41,94.2,15.81,0,.1-.09.19-.09.29,0,6,32.09,10.82,71.64,10.82s71.64-4.84,71.64-10.82C237.39,459.81,228.75,457,215,455.06Z" transform="translate(0 -96.58)" style="fill:#bd49b5"/><polygon points="531.8 329.26 89.57 325.77 47.09 55.53 567.64 55.53 531.8 329.26" style="fill:#f6f6f6"/><path d="M530.62,424.68c0,21.58-98.8,52.85-220.68,52.85S89.25,446.26,89.25,424.68s98.82-39,220.69-39S530.62,403.12,530.62,424.68Z" transform="translate(0 -96.58)" style="fill:#f6f6f6"/><path d="M593.37,157.11a14.43,14.43,0,0,0-7-1.66c-8.91,0-19.4,6.22-22.39,8.13L561,165.42l7.41,11.63,2.91-1.85c5-3.15,11.25-5.74,14.84-6,0,.15,0,.36,0,.58,0,81.66-95.17,176.2-184,213.27-14.19,5.92-19.47,13-23.33,18.21-3.71,5-5.76,7.74-15.61,9.18-4.75.68-28.15,1.17-56.93,1.17-27.47,0-49.67-.47-52.81-1.11-9-1.85-10.91-4.58-14-9.1-3.62-5.22-8.09-11.74-21.79-16.46C124.44,352.82,28,265.13,27.76,173.29a7.82,7.82,0,0,1,1.63-.15c4.79,0,12.91,2.63,18.43,5.2L51,179.8l5.85-12.48-3.13-1.47c-3.23-1.5-14.54-6.46-24.13-6.46a17.55,17.55,0,0,0-9.62,2.42c-3.9,2.46-6,6.61-6,11.68C13.9,271,115.24,364.22,213.18,398c9.38,3.24,11.81,6.77,14.89,11.23,3.81,5.56,8.14,11.84,22.62,14.82,6,1.23,38.11,1.37,51.61,1.37,26.52,0,57.29-.49,62.89-1.31,15.54-2.26,20.2-8.53,24.71-14.6,3.55-4.75,6.88-9.24,17.58-13.7C500.46,357,600,256.94,600,169.79,600,161.9,595.85,158.46,593.37,157.11Z" transform="translate(0 -96.58)" style="fill:#666"/><path d="M581.15,189.78c0,30.68-122.58,55.55-273.8,55.55S33.56,220.46,33.56,189.78V148.86c34.66-22.61,136.45-14.53,259.3-14.53,157.48,0,287.87,7.09,288.29,14.53Z" transform="translate(0 -96.58)" style="fill:#e5e5e5"/><path d="M581.17,192.79v-.34C581.8,192.66,581.8,192.79,581.17,192.79Z" transform="translate(0 -96.58)" style="fill:#fad43a"/><path d="M556.24,171.42c-39.94,20.4-139.36,36.25-248.89,36.25S99.29,191.82,59.85,171.42c39.44-18.67,138-30.59,247.5-30.59S516.3,152.75,556.24,171.42Z" transform="translate(0 -96.58)" style="fill:#fad43a"/><path d="M307.35,140.83c109.53,0,208.95,11.92,248.89,30.59-39.94,20.4-139.36,36.25-248.89,36.25S99.29,191.82,59.85,171.42C99.29,152.75,197.84,140.83,307.35,140.83Z" transform="translate(0 -96.58)" style="fill:#e6b343"/><path d="M581.15,148.86c0,28.87-123.52,58.81-274.75,58.81S33.56,177.73,33.56,148.86,156.14,96.58,307.35,96.58,581.15,120,581.15,148.86Z" transform="translate(0 -96.58)" style="fill:#cecece"/><path d="M556.24,171.42c-39.94,20.4-139.36,36.25-248.89,36.25S99.29,191.82,59.85,171.42c39.44-18.67,138-30.59,247.5-30.59S516.3,152.75,556.24,171.42Z" transform="translate(0 -96.58)" style="fill:#ad42aa"/><path d="M132.83,193s37,20.45,35.84,36.53S140.18,314.77,183,314.77c23.06,0,10.32-56.67,9.23-60.49-6.32-22.14,34.29-19.64,36.08,0s13.43,26,18.05,13.4,18.58-29.29,29-23.91,16.19,17.29,28.64,17c10.52-.23,41-34.22,68.91-55C372.9,205.77,256.34,215.21,132.83,193Z" transform="translate(0 -96.58)" style="fill:#bd49b5"/><path d="M362.62,417.8a13.79,13.79,0,0,1-13.81,13.78H265.09a13.78,13.78,0,0,1-13.8-13.78V407.54a13.79,13.79,0,0,1,13.8-13.78h83.72a13.79,13.79,0,0,1,13.81,13.78Z" transform="translate(0 -96.58)" style="fill:#a88365"/></svg>