<svg id="Ebene_1" data-name="Ebene 1" xmlns="http://www.w3.org/2000/svg" viewBox="0 0 600 409.08"><rect x="238.87" y="301.07" width="122.26" height="49.03" style="fill:gray"/><rect x="231.85" y="291.62" width="136.31" height="49.03" style="fill:#4d4d4d"/><path d="M541.88,348,350.63,120.31C336.7,103.74,318.35,95.46,300,95.46s-36.7,8.28-50.63,24.85L58.12,348c-27.84,33.14-5.06,60.25,50.63,60.25H491.26C546.94,408.2,569.73,381.09,541.88,348Z" transform="translate(0 -95.46)" style="fill:#f6f6f6"/><path d="M108.75,416.68c-55.69,0-78.47-17.95-50.63-39.9L249.37,226.07c27.85-21.94,73.41-21.94,101.26,0L541.88,376.78c27.85,22,5.06,39.9-50.62,39.9Z" transform="translate(0 -95.46)" style="fill:#4d4d4d"/><path d="M390.38,450.42c-16.75-9.67-5.5-60.5,25.12-113.54s69-88.2,85.77-78.53,5.5,60.5-25.12,113.54S407.13,460.09,390.38,450.42Z" transform="translate(0 -95.46)" style="fill:#4d4d4d"/><rect x="380.42" y="328.13" width="221.79" height="105.04" transform="matrix(0.5, -0.87, 0.87, 0.5, -84, 520.35)" style="fill:#4d4d4d"/><path d="M481.35,502.94c-16.75-9.67-5.5-60.5,25.12-113.54s69-88.2,85.77-78.53,5.5,60.5-25.13,113.54S498.09,512.61,481.35,502.94Z" transform="translate(0 -95.46)" style="fill:#4d4d4d"/><path d="M405.54,459.18c-16.75-9.67-5.5-60.51,25.12-113.55s69-88.2,85.77-78.53,5.5,60.51-25.12,113.55S422.29,468.84,405.54,459.18Z" transform="translate(0 -95.46)" style="fill:#4d4d4d"/><path d="M488.15,491.16c-12.21-7-.32-50.48,26.54-97s58.54-78.55,70.75-71.5.32,50.48-26.55,97S500.35,498.21,488.15,491.16Z" transform="translate(0 -95.46)" style="fill:gray"/><path d="M430.61,345.6c29.59-51.24,66.42-85.82,84-79.52l-13.39-7.73c-16.74-9.67-55.14,25.49-85.77,78.53s-41.87,103.87-25.12,113.54l13.39,7.73C389.5,446,401,396.85,430.61,345.6Z" transform="translate(0 -95.46)" style="fill:gray"/><path d="M209.62,450.42c16.75-9.67,5.5-60.5-25.12-113.54s-69-88.2-85.77-78.53-5.5,60.5,25.12,113.54S192.88,460.09,209.62,450.42Z" transform="translate(0 -95.46)" style="fill:#4d4d4d"/><rect x="56.17" y="269.75" width="105.04" height="221.79" transform="translate(-175.76 9.88) rotate(-30)" style="fill:#4d4d4d"/><path d="M118.65,502.94c16.75-9.67,5.5-60.5-25.12-113.54s-69-88.2-85.77-78.53-5.5,60.5,25.13,113.54S101.91,512.61,118.65,502.94Z" transform="translate(0 -95.46)" style="fill:#4d4d4d"/><path d="M194.46,459.18c16.75-9.67,5.5-60.51-25.12-113.55s-69-88.2-85.77-78.53-5.5,60.51,25.12,113.55S177.71,468.84,194.46,459.18Z" transform="translate(0 -95.46)" style="fill:#4d4d4d"/><path d="M111.85,491.16c12.21-7,.32-50.48-26.54-97s-58.54-78.55-70.75-71.5-.32,50.48,26.55,97S99.65,498.21,111.85,491.16Z" transform="translate(0 -95.46)" style="fill:gray"/><path d="M169.39,345.6c-29.59-51.24-66.42-85.82-84-79.52l13.39-7.73c16.74-9.67,55.14,25.49,85.77,78.53s41.87,103.87,25.12,113.54l-13.39,7.73C210.5,446,199,396.85,169.39,345.6Z" transform="translate(0 -95.46)" style="fill:gray"/><circle cx="300" cy="317.46" r="85.75" transform="translate(-46.98 -43.3) rotate(-9.22)" style="fill:#f6f6f6"/><path d="M378.11,317.46A78.11,78.11,0,1,0,300,395.57,78.11,78.11,0,0,0,378.11,317.46Z" transform="translate(0 -95.46)" style="fill:#4d4d4d"/><path d="M369.62,317.46A69.62,69.62,0,1,0,300,387.08,69.61,69.61,0,0,0,369.62,317.46Z" transform="translate(0 -95.46)" style="fill:#f6f6f6"/></svg>