<svg id="Ebene_1" viewBox="0 0 1967.02 550.28" xmlns="http://www.w3.org/2000/svg" xmlns:xlink="http://www.w3.org/1999/xlink" data-name="Ebene 1">
    <clipPath id="clip-path" transform="translate(698.63 -24.86)">
        <rect height="241.79" rx="63.54" width="374.9" x="58.79" y="215.24"/>
    </clipPath>
    <path d="m370.36 47.89a15.64 15.64 0 1 0 -24.69 3.72l-49.34 92a4.36 4.36 0 1 0 7.69 4.13l49.34-92a15.6 15.6 0 0 0 17-7.85z" fill="#6299bf" transform="translate(698.63 -24.86)"/>
    <path d="m229.64 47.89a15.64 15.64 0 1 1 24.69 3.72l49.34 92a4.36 4.36 0 0 1 -7.69 4.13l-49.34-92a15.6 15.6 0 0 1 -17-7.85z" fill="#6299bf" transform="translate(698.63 -24.86)"/>
    <path d="m300 144c-53.72 0-97.26 12.38-97.26 27.65h194.52c0-15.26-43.54-27.65-97.26-27.65z" fill="#6299bf" transform="translate(698.63 -24.86)"/>
    <rect fill="#80ccec" height="356.61" rx="48.63" width="600" x="698.63" y="132.97"/>
    <path d="m466.65 293.85c.23-25.26-4.51-49.1-18-70.67a12.07 12.07 0 0 0 -1.57-2c-.06-.07-.08-.14-.14-.2-28.94-34.38-69.77-38.56-112.09-38.7-29.52-.1-149.79.13-179.31-.06-26.86-.17-51.89 0-77 10.64-41.34 17.5-52 66-52.51 106.12-.61 49.06-8 99.76 15.3 145.1 19.57 38.08 63.9 44.7 102.34 45.4 28.54.53 147.87 0 176.41 0 27.76.05 56.22 3.08 83.12-5.27 41.72-12.94 59.46-56.42 62.8-96.1 2.65-31.04.38-63.11.65-94.26z" fill="#6299bf" transform="translate(698.63 -24.86)"/>
    <path d="m439.21 228.79a14.28 14.28 0 0 0 -1-1.24c-.22-.32-.4-.65-.66-1-28.55-33.84-68.21-33.25-109.16-33.25-27.36 0-145.48.15-172.85-.06-23.72-.17-49.45-1.46-71.46 9.16-38.15 18.39-47.08 57.6-47.08 96.69 0 44.91-9 98.69 13.81 139.59 22.93 41.11 69 40.06 109.85 40.06 28.64 0 148-.14 176.66.05 22.47.14 48.61 2.73 69.43-7.71 37.52-18.79 48.79-55.88 48.79-95.13 0-27.33 0-54.66.23-82 .23-23.36-3.15-45.57-16.56-65.16z" fill="#42697a" transform="translate(698.63 -24.86)"/>
    <rect fill="#f6f6f6" height="241.79" rx="63.54" width="374.9" x="757.42" y="190.38"/>
    <rect fill="#42697a" height="307.89" rx="22.84" width="85.17" x="1185.81" y="157.33"/>
    <path d="m525.42 374.61a7.88 7.88 0 0 1 -7.88 7.88h-13.79a7.88 7.88 0 0 1 -7.88-7.88 7.88 7.88 0 0 1 7.88-7.88h13.79a7.88 7.88 0 0 1 7.88 7.88z" fill="#f6f6f6" transform="translate(698.63 -24.86)"/>
    <path d="m563.41 374.61a7.87 7.87 0 0 1 -7.87 7.88h-13.79a7.88 7.88 0 0 1 -7.88-7.88 7.88 7.88 0 0 1 7.88-7.88h13.79a7.87 7.87 0 0 1 7.87 7.88z" fill="#f6f6f6" transform="translate(698.63 -24.86)"/>
    <path d="m514.05 479.05h31.43a18.18 18.18 0 0 0 18.18-18.18v-67.87h-67.79v67.88a18.18 18.18 0 0 0 18.18 18.17z" fill="#f6f6f6" transform="translate(698.63 -24.86)"/>
    <path d="m503.68 467.77a.87.87 0 0 1 .77-.93h50.62a.86.86 0 0 1 .77.93.85.85 0 0 1 -.77.92h-50.62a.86.86 0 0 1 -.77-.92z" fill="#444" transform="translate(698.63 -24.86)"/>
    <path d="m503.68 458.37a.86.86 0 0 1 .77-.92h50.62a.85.85 0 0 1 .77.92.85.85 0 0 1 -.77.92h-50.62a.86.86 0 0 1 -.77-.92z" fill="#444" transform="translate(698.63 -24.86)"/>
    <path d="m503.68 449a.86.86 0 0 1 .77-.92h50.62a.85.85 0 0 1 .77.92.85.85 0 0 1 -.77.92h-50.62a.86.86 0 0 1 -.77-.92z" fill="#444" transform="translate(698.63 -24.86)"/>
    <path d="m503.68 439.57a.86.86 0 0 1 .77-.92h50.62a.85.85 0 0 1 .77.92.86.86 0 0 1 -.77.93h-50.62a.87.87 0 0 1 -.77-.93z" fill="#444" transform="translate(698.63 -24.86)"/>
    <path d="m503.68 430.17a.86.86 0 0 1 .77-.92h50.62a.85.85 0 0 1 .77.92.86.86 0 0 1 -.77.93h-50.62a.87.87 0 0 1 -.77-.93z" fill="#444" transform="translate(698.63 -24.86)"/>
    <path d="m503.68 420.77a.86.86 0 0 1 .77-.92h50.62a.85.85 0 0 1 .77.92.86.86 0 0 1 -.77.93h-50.62a.87.87 0 0 1 -.77-.93z" fill="#444" transform="translate(698.63 -24.86)"/>
    <path d="m503.68 411.37a.86.86 0 0 1 .77-.92h50.62a.85.85 0 0 1 .77.92.86.86 0 0 1 -.77.93h-50.62a.87.87 0 0 1 -.77-.93z" fill="#444" transform="translate(698.63 -24.86)"/>
    <path d="m503.68 402a.86.86 0 0 1 .77-.92h50.62a.85.85 0 0 1 .77.92.86.86 0 0 1 -.77.93h-50.62a.87.87 0 0 1 -.77-.93z" fill="#444" transform="translate(698.63 -24.86)"/>
    <path d="m128.34 514.45c-9 32.42-9 57.29-1.75 60.34 8.55 3.61 31.92-21.25 51.1-60.34z" fill="#6299bf" transform="translate(698.63 -24.86)"/>
    <path d="m471.66 514.45c9 32.42 9 57.29 1.75 60.34-8.55 3.61-31.92-21.25-51.1-60.34z" fill="#6299bf" transform="translate(698.63 -24.86)"/>
    <path d="m556.93 302a29.41 29.41 0 0 1 -38.21 38.2 27.2 27.2 0 0 0 38.21-38.2z" fill="#333" transform="translate(698.63 -24.86)"/>
    <path d="m556.93 226.11a29.41 29.41 0 0 1 -38.21 38.2 27.2 27.2 0 0 0 38.21-38.2z" fill="#333" transform="translate(698.63 -24.86)"/>
    <path d="m556.93 224.72a29.42 29.42 0 0 1 -38.21 38.21 27.2 27.2 0 0 0 38.21-38.21z" fill="#333" transform="translate(698.63 -24.86)"/>
    <path d="m550.4 292.11a29.42 29.42 0 1 1 -41.61 0 29.43 29.43 0 0 1 41.61 0z" fill="#f6f6f6" transform="translate(698.63 -24.86)"/>
    <path d="m541.3 301.2a16.56 16.56 0 1 1 -23.41 0 16.56 16.56 0 0 1 23.41 0z" fill="#cacccb" transform="translate(698.63 -24.86)"/>
    <path d="m516.96 296.64h4.35v11.63h-4.35z" fill="#969696" transform="matrix(.70710678 -.70710678 .70710678 .70710678 636.82 430.81)"/>
    <path d="m559 235.42a29.42 29.42 0 1 1 -29.4-29.42 29.42 29.42 0 0 1 29.4 29.42z" fill="#f6f6f6" transform="translate(698.63 -24.86)"/>
    <path d="m546.15 235.42a16.56 16.56 0 1 1 -16.55-16.56 16.55 16.55 0 0 1 16.55 16.56z" fill="#cacccb" transform="translate(698.63 -24.86)"/>
    <path d="m1226.05 189.95h4.35v11.63h-4.35z" fill="#969696"/>
    <g clip-path="url(#clip-path)">
        <path d="m-692.47 332.76.65 6.76c10.19 105.78 54.32 105.78 64.51 0l.65-6.76c10.18-105.78 54.32-105.78 64.5 0l.65 6.76c10.19 105.78 54.33 105.78 64.51 0l.65-6.76c10.19-105.76 54.35-105.76 64.51 0l.65 6.76c10.18 105.78 54.32 105.78 64.5 0l.65-6.76c10.19-105.78 54.33-105.78 64.51 0l.65 6.76c10.19 105.78 54.32 105.78 64.51 0l.65-6.76c10.18-105.78 54.32-105.78 64.5 0l.66 6.76c10.18 105.78 54.32 105.78 64.5 0l.65-6.76c10.19-105.76 54.32-105.76 64.51 0l.65 6.76c10.18 105.78 54.32 105.78 64.5 0l.66-6.76c10.18-105.76 54.32-105.76 64.5 0l.65 6.76c10.19 105.78 54.32 105.78 64.51 0l.65-6.76c10.18-105.78 54.32-105.78 64.5 0l.66 6.76c10.18 105.78 54.32 105.78 64.5 0l.65-6.76c10.19-105.76 54.32-105.76 64.47 0l.65 6.76c10.18 105.78 54.32 105.78 64.5 0l.66-6.76c10.19-105.76 54.36-105.76 64.54 0l.65 6.76c10.19 105.78 54.32 105.78 64.51 0l.65-6.76c10.18-105.78 54.32-105.78 64.5 0l.66 6.76c10.18 105.78 54.32 105.78 64.5 0l.65-6.76c10.19-105.76 54.32-105.76 64.53 0l.65 6.76c10.18 105.78 54.32 105.78 64.51 0l.65-6.76c10.19-105.76 54.3-105.76 64.48 0l.65 6.76c10.19 105.78 54.32 105.78 64.51 0l.65-6.76c10.18-105.78 54.32-105.78 64.51 0l.65 6.76c10.18 105.78 54.32 105.78 64.5 0l.65-6.76c10.19-105.78 54.32-105.78 64.51 0l.65 6.76c10.18 105.78 54.32 105.78 64.51 0l.65-6.76c10.18-105.78 54.32-105.78 64.5 0" fill="none" stroke="#ebda8a" stroke-linejoin="round" stroke-width="12.376987" transform="translate(698.63 -24.86)"/>
    </g>
</svg>
