<svg id="Ebene_1" data-name="Ebene 1" xmlns="http://www.w3.org/2000/svg" viewBox="0 0 458.67 576.47"><path d="M343.94,432.84" transform="translate(-70.67 -8.53)" style="fill:#6e627f"/><path d="M513.75,159A109.41,109.41,0,0,0,457,15" transform="translate(-70.67 -8.53)" style="fill:none;stroke:#f6f6f6;stroke-linecap:round;stroke-miterlimit:10;stroke-width:12.941806464818864px"/><path d="M474.29,147.12a73.28,73.28,0,0,0-38-96.48" transform="translate(-70.67 -8.53)" style="fill:none;stroke:#f6f6f6;stroke-linecap:round;stroke-miterlimit:10;stroke-width:12.941806464818864px"/><path d="M435.63,139.81A43.64,43.64,0,0,0,413,82.36" transform="translate(-70.67 -8.53)" style="fill:none;stroke:#f6f6f6;stroke-linecap:round;stroke-miterlimit:10;stroke-width:12.941806464818864px"/><path d="M86.25,159A109.41,109.41,0,0,1,143,15" transform="translate(-70.67 -8.53)" style="fill:none;stroke:#f6f6f6;stroke-linecap:round;stroke-miterlimit:10;stroke-width:12.941806464818864px"/><path d="M125.71,147.12a73.28,73.28,0,0,1,38-96.48" transform="translate(-70.67 -8.53)" style="fill:none;stroke:#f6f6f6;stroke-linecap:round;stroke-miterlimit:10;stroke-width:12.941806464818864px"/><path d="M164.36,139.81A43.65,43.65,0,0,1,187,82.36" transform="translate(-70.67 -8.53)" style="fill:none;stroke:#f6f6f6;stroke-linecap:round;stroke-miterlimit:10;stroke-width:12.941806464818864px"/><path d="M346.39,115.84V387.4c0,35.16-15.62,53-46.39,53s-46.38-17.82-46.38-53V115.84h-40.1V387.4c0,58.63,35.39,77.72,62.35,83.74v86.09h49.69V470.81c26.76-6.38,60.92-25.81,60.92-83.41V115.84Z" transform="translate(-70.67 -8.53)" style="fill:#87d7f9"/><rect x="15.22" y="535.55" width="428.23" height="40.92" style="fill:#6299bf"/></svg>