<svg id="Ebene_1" data-name="Ebene 1" xmlns="http://www.w3.org/2000/svg" xmlns:xlink="http://www.w3.org/1999/xlink" viewBox="0 0 450.76 599.66"><defs><clipPath id="clip-path" transform="translate(-74.62 -0.34)"><rect x="74.62" y="0.52" width="450.57" height="451.88" transform="translate(-0.34 0.46) rotate(-0.09)" style="fill:none"/></clipPath><clipPath id="clip-path-2" transform="translate(-74.62 -0.34)"><rect x="74.62" y="0.34" width="450.76" height="452.06" transform="translate(-0.34 0.46) rotate(-0.09)" style="fill:none"/></clipPath></defs><ellipse cx="225.38" cy="571.34" rx="198.97" ry="28.31" style="fill:#202020;opacity:0.7000000000000001"/><g style="clip-path:url(#clip-path)"><path d="M273.84,331.59c-101.7-26.22-169.21-117.83-169.18-218.22l0,0a225.59,225.59,0,0,0,83,307.88,226.47,226.47,0,0,0,86.24-89.63" transform="translate(-74.62 -0.34)" style="fill:#6299bf"/><path d="M404.68,195.52C432.83,296.74,387.29,401,300.34,451.2c124.47-.18,225.23-101.26,225-225.77a226.31,226.31,0,0,0-120.7-29.91" transform="translate(-74.62 -0.34)" style="fill:#80ccec"/><path d="M221.49,150.2A223.84,223.84,0,0,0,300,225.77a225.22,225.22,0,0,1,225.39-.36A224.36,224.36,0,0,0,495,112.75l-.05,0c-86.9-50.23-200-37.55-273.5,37.42" transform="translate(-74.62 -0.34)" style="fill:#80ccec"/></g><g style="clip-path:url(#clip-path-2)"><path d="M273.82,331.58A224,224,0,0,0,300,225.78a224.25,224.25,0,0,1-78.53-75.56A226.63,226.63,0,0,1,187,30.71a226.18,226.18,0,0,0-82.37,82.63l0,0c0,100.39,67.48,192,169.16,218.21" transform="translate(-74.62 -0.34)" style="fill:#87d7f9"/></g><g style="clip-path:url(#clip-path)"><path d="M404.68,195.55A223.66,223.66,0,0,0,300,225.78a224.29,224.29,0,0,1-26.16,105.81,226.42,226.42,0,0,1-86.23,89.62,224.1,224.1,0,0,0,112.73,30c87-50.19,132.49-154.47,104.34-255.66" transform="translate(-74.62 -0.34)" style="fill:#507c95"/><path d="M221.47,150.22C295,75.23,408.09,62.55,495,112.77l.05,0A225.5,225.5,0,0,0,187,30.69a226.65,226.65,0,0,0,34.49,119.53" transform="translate(-74.62 -0.34)" style="fill:#6299bf"/></g></svg>