<svg id="Ebene_1" data-name="Ebene 1" xmlns="http://www.w3.org/2000/svg" viewBox="0 0 350.4 600"><polygon points="207.35 487.46 208.56 495.31 200.78 488.12 193.76 464.15 176.6 405.4 116.73 200.65 206.79 261.95 209.18 0 270.23 362.96 178.37 298.63 207.35 487.46" style="fill:#ffe882"/><polygon points="180.21 512.78 177.23 512.29 161.7 499.55 9.81 374.42 88.27 376.32 0 234.88 163.41 408.64 82.71 405.76 168.93 500.43 180.21 512.78" style="fill:#f6f6f6"/><polygon points="159.23 527.95 158.23 528.58 150.42 528.89 73.82 531.81 97.14 512.05 34.84 493.75 127.37 502 103.15 522.06 152.75 527.27 159.23 527.95" style="fill:#ebda8a"/><polygon points="350.4 338.93 298.55 487.69 266.23 438.47 246.8 490.91 242.94 501.41 236.16 503.36 237.23 497.26 257.15 385.6 289.18 433.2 350.4 338.93" style="fill:#f6f6f6"/><polygon points="214.24 501.21 206.72 494.72 198.71 487.79 195.1 484.66 193.49 514.93 180.21 512.78 177.23 512.29 162.48 509.95 181.38 531.09 155.75 547.25 182.89 553.16 131.77 555.94 167.17 529.87 139.98 496.96 161.7 499.55 168.93 500.43 184.94 502.33 188.16 459.71 190.9 464.06 205.25 486.91 214.24 501.21" style="fill:#e6e6e6"/><polygon points="248.95 549.69 259.49 579.38 214.28 555.7 246.65 565.71 238.7 545.2 261.25 533.04 236.69 527.67 247.53 500.04 242.94 501.41 236.16 503.36 221.71 507.61 237.23 497.26 246.8 490.91 260.96 481.49 250.66 520.74 282.25 528.94 248.95 549.69" style="fill:#e6e6e6"/><polygon points="213.48 560.26 188.38 600 190.58 559.09 190.87 553.57 196.98 574.22 213.48 560.26" style="fill:#ebda8a"/><polygon points="202.14 497.53 200.82 522.23 179.92 518.84 192.02 532.85 174.69 543.77 197.09 550.02 200.35 563.33 209.01 550.32 238.24 556.58 229.63 539.68 245.8 535.74 230.08 527.29 239.15 509.53 215.97 516.35 202.14 497.53" style="fill:#ebda8a"/><path d="M330.9,517.62l-1.7,10.86h-9.84l4.1,6.79s-11.23,7.13-10.21,7.13,11.88-1,11.88-1v12.77l7.68-10.77,16.08,3.09-8.15-9.17,12.92-4.91-11.93-1.67,8.79-11.07L336,525.76Z" transform="translate(-124.8)" style="fill:#fff"/></svg>