<svg id="Ebene_1" data-name="Ebene 1" xmlns="http://www.w3.org/2000/svg" viewBox="0 0 569 582.36"><path d="M261.84,258.32a54,54,0,1,1,0,76.31A54,54,0,0,1,261.84,258.32Z" transform="translate(-15.5 -5.3)" style="fill:#6299bf"/><path d="M314.16,281.43a12.87,12.87,0,1,1,0-18.19A12.86,12.86,0,0,1,314.16,281.43Z" transform="translate(-15.5 -5.3)" style="fill:#fff;opacity:0.8"/><path d="M427.57,416.37c3.18,86.63-15.91,150.19-54.14,160.22-57.84,15.16-137.59-98-178.15-252.67S168.74,31.52,226.57,16.36s137.6,98,178.14,252.66C418.47,321.46,426,372,427.57,416.37" transform="translate(-15.5 -5.3)" style="fill:none;stroke:#f6f6f6;stroke-miterlimit:10;stroke-width:19.40298643063681px"/><path d="M262.86,467.56c-72.64,47.31-137,63.65-165.24,36-42.76-41.79,13.19-168.4,125-282.79s237-173.24,279.8-131.45S489.2,257.75,377.43,372.13c-37.88,38.78-77.32,71.17-114.57,95.43" transform="translate(-15.5 -5.3)" style="fill:none;stroke:#f6f6f6;stroke-miterlimit:10;stroke-width:19.40298643063681px"/><path d="M471.12,259.53c73.12,46.56,114.61,98.37,101.16,135.53-20.36,56.22-158.76,57.65-309.14,3.2S7.36,254.11,27.72,197.9s158.76-57.66,309.13-3.21c51,18.45,96.78,40.95,134.27,64.84" transform="translate(-15.5 -5.3)" style="fill:none;stroke:#f6f6f6;stroke-miterlimit:10;stroke-width:19.40298643063681px"/><path d="M508.86,280.49a32.38,32.38,0,1,1,0,45.79A32.37,32.37,0,0,1,508.86,280.49Z" transform="translate(-15.5 -5.3)" style="fill:#87d7f9"/><path d="M531.77,299.84a9.05,9.05,0,0,1-8.85-8.84,8.38,8.38,0,0,1,8.45-8.69,9,9,0,0,1,8.85,8.85A8.38,8.38,0,0,1,531.77,299.84Z" transform="translate(-15.5 -5.3)" style="fill:#fff;opacity:0.8"/><path d="M246.92,150.7a32,32,0,1,1,0,45.25A32,32,0,0,1,246.92,150.7Z" transform="translate(-15.5 -5.3)" style="fill:#87d7f9"/><path d="M268.89,172.64a9,9,0,0,1-8.84-8.85,8.38,8.38,0,0,1,8.44-8.68,9.05,9.05,0,0,1,8.85,8.85A8.38,8.38,0,0,1,268.89,172.64Z" transform="translate(-15.5 -5.3)" style="fill:#fff;opacity:0.8"/><path d="M293.35,531a31.64,31.64,0,1,1,0,44.74A31.63,31.63,0,0,1,293.35,531Z" transform="translate(-15.5 -5.3)" style="fill:#87d7f9"/><path d="M318,554.48a9,9,0,0,1-8.85-8.85,8.38,8.38,0,0,1,8.45-8.68,9,9,0,0,1,8.84,8.85A8.37,8.37,0,0,1,318,554.48Z" transform="translate(-15.5 -5.3)" style="fill:#fff;opacity:0.8"/></svg>