<svg id="Ebene_1" data-name="Ebene 1" xmlns="http://www.w3.org/2000/svg" viewBox="0 0 519.86 600"><path id="background" d="M299.75,600,40.07,449.79l.25-300L300.25,0,559.93,150.21l-.25,300Z" transform="translate(-40.07)" style="fill:#6299bf"/><g id="Physik"><path d="M299.85,481.67l-157.58-91L142.42,209l157.73-90.7,157.58,91L457.58,391ZM161.29,379.77l138.58,80L438.58,380l.14-159.75-138.59-80L161.42,220Z" transform="translate(-40.07)" style="fill:#f6f6f6"/><ellipse cx="259.8" cy="299.74" rx="10.77" ry="10.75" style="fill:#f6f6f6"/><ellipse cx="276.71" cy="380.01" rx="5.38" ry="5.37" style="fill:#f6f6f6"/><ellipse cx="185.23" cy="271.1" rx="5.38" ry="5.37" style="fill:#f6f6f6"/><ellipse cx="334.67" cy="271.1" rx="5.38" ry="5.37" style="fill:#f6f6f6"/><path d="M337.25,299.67s0-1.64-.07-4.73-.21-7.61-.76-13.34c-.16-1.43-.31-2.93-.48-4.52s-.4-3.22-.64-4.94-.51-3.5-.87-5.34c-.17-.92-.34-1.86-.52-2.81s-.37-1.92-.59-2.89c-.83-3.92-1.88-8.05-3.19-12.33a110.13,110.13,0,0,0-4.92-13.16c-.53-1.1-1-2.23-1.59-3.34s-1.13-2.23-1.78-3.3a63,63,0,0,0-4.14-6.44,40.67,40.67,0,0,0-5.18-5.79,22.6,22.6,0,0,0-6.33-4.24,14,14,0,0,0-7.14-1.12l-.54.06a2.08,2.08,0,0,0-.5.07l-.78.21a12.58,12.58,0,0,0-1.68.55,5.23,5.23,0,0,0-.84.37l-.86.41c-.55.3-1.08.67-1.62,1a26.53,26.53,0,0,0-5.75,5.57,52.44,52.44,0,0,0-4.62,7.17,72,72,0,0,0-3.7,8.05c-1.12,2.77-2.07,5.66-3,8.58A156.56,156.56,0,0,0,271,261.57c-.53,3.1-1,6.23-1.37,9.38l-.3,2.37-.25,2.37c-.18,1.58-.3,3.18-.43,4.77-.25,3.18-.42,6.38-.57,9.58-.06,1.61-.09,3.21-.14,4.82l0,4.76,0,4.93c.05,1.58.08,3.16.14,4.75.14,3.21.34,6.4.58,9.59.14,1.59.26,3.18.43,4.77l.25,2.37.3,2.37c.37,3.15.85,6.28,1.37,9.38a161.2,161.2,0,0,0,4.23,18.14c.91,2.91,1.84,5.82,3,8.58a78.45,78.45,0,0,0,3.7,8,51.4,51.4,0,0,0,4.62,7.16,26.49,26.49,0,0,0,5.74,5.57,15,15,0,0,0,6.81,2.67l.44.05.23,0h.07l1.09,0a10.58,10.58,0,0,0,1.8-.17l.41,0,.44-.12.89-.23a6.31,6.31,0,0,0,.87-.28l.87-.33a22.85,22.85,0,0,0,6.33-4.23,42.43,42.43,0,0,0,5.18-5.78,63,63,0,0,0,4.14-6.44c.64-1.08,1.19-2.21,1.77-3.3s1.07-2.23,1.6-3.33a112.54,112.54,0,0,0,4.92-13.16c1.31-4.29,2.36-8.42,3.19-12.33.2-1,.4-1.94.6-2.89s.35-1.89.52-2.81c.35-1.84.6-3.62.86-5.34s.45-3.37.65-4.94.32-3.09.47-4.52c.56-5.73.65-10.26.77-13.34S337.25,299.67,337.25,299.67Zm0,0s0,1.65,0,4.73-.2,7.61-.62,13.36-1.15,12.71-2.48,20.64c-.71,4-1.52,8.16-2.62,12.55a130.23,130.23,0,0,1-4.18,13.65,80.07,80.07,0,0,1-6.82,14.13,44.9,44.9,0,0,1-5.12,6.75,27.14,27.14,0,0,1-7.11,5.63l-1.08.52a9.13,9.13,0,0,1-1.11.49l-1.17.4-.58.2-.65.15a18.74,18.74,0,0,1-2.46.44l-1.09.11a2,2,0,0,1-.3,0h-1.12a20.94,20.94,0,0,1-9.75-2.87,33.24,33.24,0,0,1-7.73-6.29,55.08,55.08,0,0,1-6-7.81,92.64,92.64,0,0,1-8.57-17.66c-.55-1.56-1.13-3.11-1.61-4.68l-.75-2.37-.7-2.38c-.48-1.59-.86-3.2-1.3-4.81s-.76-3.23-1.12-4.86c-.68-3.26-1.32-6.55-1.82-9.86l-.38-2.48-.32-2.5c-.22-1.66-.38-3.33-.58-5-.36-3.35-.58-6.7-.75-10.07-.08-1.68-.12-3.4-.19-5.1l-.07-4.94.07-5.11c.07-1.68.11-3.37.2-5.05s.17-3.36.3-5,.28-3.36.47-5,.35-3.34.58-5L259,272l.37-2.48c.51-3.3,1.15-6.59,1.83-9.85.36-1.63.72-3.25,1.12-4.85s.82-3.22,1.3-4.81l.69-2.38c.24-.8.51-1.58.76-2.37.48-1.57,1.06-3.12,1.61-4.67a93.33,93.33,0,0,1,8.57-17.67,55.68,55.68,0,0,1,6-7.8,33.08,33.08,0,0,1,7.73-6.29c.76-.39,1.49-.8,2.27-1.14l1.19-.47a8.79,8.79,0,0,1,1.22-.42,17.15,17.15,0,0,1,2.56-.6l1.36-.19a5.63,5.63,0,0,1,.58,0h.55a19.14,19.14,0,0,1,9.54,2.29,27.34,27.34,0,0,1,7.11,5.63,46.45,46.45,0,0,1,5.13,6.72,80.71,80.71,0,0,1,6.81,14.13,127.25,127.25,0,0,1,4.19,13.65c1.1,4.39,1.92,8.59,2.62,12.55,1.33,7.93,2.09,14.89,2.49,20.64s.54,10.27.62,13.35S337.25,299.67,337.25,299.67Z" transform="translate(-40.07)" style="fill:#f6f6f6"/><path d="M317.4,382.73,314.57,381c13.11-21.08,20.77-51.18,21-82.56.25-31.57-7.1-60.37-20.16-79l2.72-1.9c13.44,19.2,21,48.71,20.76,80.95C338.66,330.42,330.82,361.15,317.4,382.73Z" transform="translate(-40.07)" style="fill:#f6f6f6"/><path d="M321.1,330.36l3.87-2.74c2.47-1.85,6.15-4.5,10.57-8.2l3.45-3q1.78-1.59,3.71-3.34c1.28-1.17,2.6-2.41,3.91-3.74l2-2,2-2.14c2.76-2.91,5.57-6.11,8.35-9.62a110.56,110.56,0,0,0,8.07-11.51c.61-1.06,1.26-2.11,1.85-3.2s1.19-2.19,1.72-3.34a61.7,61.7,0,0,0,3-7.07,41.53,41.53,0,0,0,1.82-7.53,22.83,22.83,0,0,0-.1-7.61,13.8,13.8,0,0,0-3.13-6.5l-.35-.42a4,4,0,0,0-.35-.37c-.21-.17-.41-.35-.61-.53a14.37,14.37,0,0,0-1.41-1.06,4.9,4.9,0,0,0-.79-.48l-.82-.46c-.56-.28-1.16-.5-1.75-.77a26.64,26.64,0,0,0-7.86-1.56,53,53,0,0,0-8.54.28A76.08,76.08,0,0,0,341,245c-2.92.64-5.85,1.52-8.77,2.43a159.62,159.62,0,0,0-17.36,6.85A236.57,236.57,0,0,0,252,297.6a157.6,157.6,0,0,0-12.56,13.78c-1.89,2.4-3.75,4.81-5.39,7.32a76.21,76.21,0,0,0-4.53,7.61,52.56,52.56,0,0,0-3.28,7.86,26.21,26.21,0,0,0-1.33,7.88,14.84,14.84,0,0,0,1.67,7.1l.21.39.1.2.06.1c0,.06-.14-.19,0,0l.63.88a11.49,11.49,0,0,0,1.17,1.38l.27.31.35.29.69.6a6.55,6.55,0,0,0,.75.55l.76.53a22.73,22.73,0,0,0,7.09,2.79,41.59,41.59,0,0,0,7.7,1,63.35,63.35,0,0,0,7.67-.25c1.26-.09,2.5-.28,3.73-.42s2.45-.39,3.66-.59a110.33,110.33,0,0,0,13.65-3.43c4.27-1.36,8.28-2.84,12-4.38l2.72-1.16,2.61-1.17c1.72-.75,3.33-1.55,4.89-2.33s3-1.55,4.45-2.28l4-2.17c5-2.81,8.83-5.3,11.44-7Zm0,0L317.19,333c-2.59,1.69-6.39,4.16-11.37,7.08s-11.13,6.27-18.44,9.69c-3.66,1.66-7.59,3.38-11.84,5a127.54,127.54,0,0,1-13.63,4.31,80,80,0,0,1-15.53,2.44,46.1,46.1,0,0,1-8.47-.37,27.36,27.36,0,0,1-8.69-2.65l-1-.59a8.42,8.42,0,0,1-1-.64l-1-.72-.5-.36-.49-.45a18.17,18.17,0,0,1-1.76-1.78l-.71-.82-.19-.25-.09-.13-.18-.27-.35-.53a20.77,20.77,0,0,1-3.18-9.64,33.57,33.57,0,0,1,.8-9.92,55.71,55.71,0,0,1,3.05-9.34A93.79,93.79,0,0,1,232.27,306c1-1.33,1.92-2.68,2.94-4l1.53-2,1.57-1.92c1-1.3,2.15-2.52,3.22-3.8s2.24-2.47,3.38-3.69a194.68,194.68,0,0,1,30.67-26.08l4.21-2.81c1.43-.9,2.84-1.82,4.27-2.72s2.87-1.77,4.33-2.61,2.91-1.69,4.4-2.48,2.95-1.61,4.46-2.37l2.23-1.17,2.27-1.1c3-1.46,6.09-2.8,9.16-4.1,1.55-.62,3.09-1.25,4.66-1.83s3.12-1.17,4.7-1.67l2.36-.77,2.38-.73c1.57-.5,3.18-.9,4.77-1.33a93.27,93.27,0,0,1,19.43-3,54.76,54.76,0,0,1,9.83.47,32.66,32.66,0,0,1,9.57,2.77c.76.4,1.51.77,2.24,1.22l1.07.71a8.28,8.28,0,0,1,1,.76,17.44,17.44,0,0,1,1.94,1.76l.94,1a4,4,0,0,1,.35.46l.32.44a19,19,0,0,1,3.53,9.14,27,27,0,0,1-.59,9,46.37,46.37,0,0,1-2.66,8A79.69,79.69,0,0,1,369,285.31a128.09,128.09,0,0,1-8.89,11.2c-3,3.39-6,6.46-8.86,9.29-5.78,5.59-11.1,10.17-15.61,13.76s-8.16,6.28-10.66,8.09Z" transform="translate(-40.07)" style="fill:#f6f6f6"/><path d="M241.33,361.25l-.16-3.31c24.84-1.22,54-12,80-29.66,26.18-17.73,45.76-40.13,53.72-61.45L378,268c-8.2,21.95-28.23,44.92-55,63C296.55,349,266.76,360,241.33,361.25Z" transform="translate(-40.07)" style="fill:#f6f6f6"/><path d="M278.62,330.35l3.93,2.63c2.61,1.66,6.4,4.15,11.43,7l4,2.19c1.41.73,2.89,1.5,4.44,2.28s3.18,1.57,4.9,2.33l2.6,1.16,2.72,1.17c3.7,1.55,7.7,3,12,4.4a112.8,112.8,0,0,0,13.66,3.44c1.2.19,2.42.43,3.65.59s2.48.34,3.74.43a63.19,63.19,0,0,0,7.66.26,41.59,41.59,0,0,0,7.71-1,23,23,0,0,0,7.1-2.79,13.87,13.87,0,0,0,5-5.22l.27-.47a2.77,2.77,0,0,0,.22-.46c.09-.25.18-.51.28-.76a13.08,13.08,0,0,0,.5-1.69,5.61,5.61,0,0,0,.17-.91l.14-.92c.07-.62.06-1.27.1-1.9a27,27,0,0,0-1.32-7.89,52.12,52.12,0,0,0-3.29-7.87,72.48,72.48,0,0,0-4.52-7.61c-1.65-2.5-3.5-4.92-5.38-7.33a159.06,159.06,0,0,0-12.56-13.78c-2.26-2.19-4.57-4.37-7-6.46L339,289.57,337.16,288c-1.2-1-2.44-2-3.69-3.07-2.48-2-5-4-7.57-5.92-1.28-1-2.59-1.9-3.88-2.85l-3.9-2.74L314,270.67c-1.34-.86-2.65-1.74-4-2.59q-4.08-2.55-8.23-5c-1.39-.8-2.77-1.61-4.18-2.36l-2.1-1.15-2.11-1.1c-2.82-1.48-5.66-2.87-8.52-4.21a160.86,160.86,0,0,0-17.36-6.85c-2.91-.91-5.84-1.79-8.76-2.44a79.65,79.65,0,0,0-8.74-1.53,51.62,51.62,0,0,0-8.52-.28,26.26,26.26,0,0,0-7.86,1.55,14.89,14.89,0,0,0-6.07,4.08l-.31.32-.15.17-.08.09s.13-.2,0,0l-.6.9a11.74,11.74,0,0,0-.88,1.58l-.2.37-.15.42-.32.86a5.61,5.61,0,0,0-.25.89l-.22.9a22.57,22.57,0,0,0-.11,7.61,41.51,41.51,0,0,0,1.81,7.53,64.12,64.12,0,0,0,2.95,7.06c.53,1.15,1.15,2.24,1.72,3.34s1.24,2.15,1.84,3.21a113.27,113.27,0,0,0,8.05,11.53c2.78,3.51,5.59,6.71,8.35,9.62l2,2.14,2,2c1.31,1.34,2.64,2.56,3.91,3.75s2.52,2.27,3.71,3.34l3.45,3c4.41,3.71,8.09,6.36,10.56,8.21Zm0,0-3.88-2.72c-2.5-1.82-6.16-4.49-10.66-8.1s-9.82-8.17-15.6-13.78c-2.86-2.83-5.87-5.89-8.86-9.28a130.92,130.92,0,0,1-8.87-11.2A79.82,79.82,0,0,1,223,271.64a45.33,45.33,0,0,1-2.65-8,26.78,26.78,0,0,1-.58-9l.18-1.18a9.61,9.61,0,0,1,.23-1.19l.33-1.18.16-.6.25-.61a17.83,17.83,0,0,1,1-2.28l.52-1c0,.09.15-.24.17-.26l.09-.13.2-.26.37-.51a20.8,20.8,0,0,1,7.91-6.38,33,33,0,0,1,9.57-2.76,54.8,54.8,0,0,1,9.83-.46,93.84,93.84,0,0,1,19.44,3c1.59.43,3.19.84,4.77,1.34l2.37.73,2.36.79c1.59.5,3.14,1.1,4.71,1.66s3.1,1.22,4.64,1.85c3.08,1.3,6.15,2.64,9.17,4.11l2.25,1.11,2.24,1.15c1.5.76,3,1.57,4.46,2.38,2.95,1.6,5.85,3.34,8.72,5.11,1.43.89,2.87,1.83,4.31,2.74l4.11,2.75,4.17,3c1.36,1,2.72,2,4.05,3s2.68,2,4,3.11,2.62,2.12,3.89,3.23,2.55,2.19,3.79,3.32l1.88,1.68,1.83,1.72c2.44,2.3,4.79,4.69,7.09,7.11,1.13,1.22,2.27,2.44,3.37,3.68s2.18,2.51,3.21,3.81l1.57,1.92,1.52,2c1,1.29,2,2.66,2.94,4a92.4,92.4,0,0,1,9.68,17.08,54.39,54.39,0,0,1,3,9.33,32.86,32.86,0,0,1,.8,9.92c-.12.84-.2,1.68-.35,2.52l-.29,1.25a10.19,10.19,0,0,1-.35,1.23,16.28,16.28,0,0,1-1,2.44l-.62,1.23a3.21,3.21,0,0,1-.31.5l-.3.46a19.09,19.09,0,0,1-7.32,6.52,27.48,27.48,0,0,1-8.67,2.64,47,47,0,0,1-8.47.37,81.06,81.06,0,0,1-15.53-2.44,132.31,132.31,0,0,1-13.63-4.32c-4.24-1.6-8.18-3.32-11.84-5-7.3-3.42-13.46-6.76-18.43-9.71s-8.75-5.4-11.33-7.1Z" transform="translate(-40.07)" style="fill:#f6f6f6"/><path d="M356.84,361.41c-23.41,0-51.86-10.56-78.16-29s-47.07-42.3-57.24-65.59l3.05-1.33c9.93,22.76,30.38,46.16,56.11,64.2s53.5,28.4,76.23,28.4h.37l0,3.32Z" transform="translate(-40.07)" style="fill:#f6f6f6"/></g></svg>