<svg id="Ebene_1" data-name="Ebene 1" xmlns="http://www.w3.org/2000/svg" viewBox="0 0 600 560.51"><line x1="539.02" y1="273.83" x2="427.66" y2="25.14" style="fill:none;stroke:#f6f6f6;stroke-linecap:round;stroke-miterlimit:10;stroke-width:10.803379803012527px"/><line x1="211.64" y1="357.31" x2="211.64" y2="25.14" style="fill:none;stroke:#f6f6f6;stroke-linecap:round;stroke-miterlimit:10;stroke-width:10.803379803012527px"/><line x1="283.66" y1="357.31" x2="283.66" y2="25.14" style="fill:none;stroke:#f6f6f6;stroke-linecap:round;stroke-miterlimit:10;stroke-width:10.803379803012527px"/><line x1="355.68" y1="357.31" x2="355.68" y2="25.14" style="fill:none;stroke:#f6f6f6;stroke-linecap:round;stroke-miterlimit:10;stroke-width:10.803379803012527px"/><line x1="139.61" y1="357.31" x2="139.61" y2="25.14" style="fill:none;stroke:#f6f6f6;stroke-linecap:round;stroke-miterlimit:10;stroke-width:10.803379803012527px"/><path d="M68.06,503.68V79.17a54.18,54.18,0,0,1,54-54H434.39a54.17,54.17,0,0,1,54,54V503.68" transform="translate(0 -14.35)" style="fill:none;stroke:#6299bf;stroke-linecap:round;stroke-miterlimit:10;stroke-width:21.606759606025054px"/><rect y="484.53" width="556.46" height="75.97" style="fill:#507c95"/><rect y="541.85" width="556.46" height="18.65" style="fill:#42697a;opacity:0.2"/><path d="M102,373.73a36.09,36.09,0,1,1,36.09,36.09A36.09,36.09,0,0,1,102,373.73Z" transform="translate(0 -14.35)" style="fill:#80ccec"/><path d="M127.21,366.53a9.4,9.4,0,1,1,9.4-9.4A9.41,9.41,0,0,1,127.21,366.53Z" transform="translate(0 -14.35)" style="fill:#f6f6f6"/><path d="M527.82,312.68a36.09,36.09,0,1,1,36.09,36.09A36.09,36.09,0,0,1,527.82,312.68Z" transform="translate(0 -14.35)" style="fill:#80ccec"/><path d="M548.41,310.89a9.4,9.4,0,1,1,9.4-9.39A9.4,9.4,0,0,1,548.41,310.89Z" transform="translate(0 -14.35)" style="fill:#f6f6f6"/><path d="M174.29,373.73a36.09,36.09,0,1,1,36.09,36.09A36.09,36.09,0,0,1,174.29,373.73Z" transform="translate(0 -14.35)" style="fill:#80ccec"/><path d="M204,366.53a9.4,9.4,0,1,1,9.4-9.4A9.41,9.41,0,0,1,204,366.53Z" transform="translate(0 -14.35)" style="fill:#f6f6f6"/><path d="M246.31,373.73a36.09,36.09,0,1,1,36.09,36.09A36.09,36.09,0,0,1,246.31,373.73Z" transform="translate(0 -14.35)" style="fill:#80ccec"/><path d="M274.63,366.53a9.4,9.4,0,1,1,9.4-9.4A9.41,9.41,0,0,1,274.63,366.53Z" transform="translate(0 -14.35)" style="fill:#f6f6f6"/><path d="M318.88,373.73A36.09,36.09,0,1,1,355,409.82,36.09,36.09,0,0,1,318.88,373.73Z" transform="translate(0 -14.35)" style="fill:#80ccec"/><path d="M346.88,366.53a9.4,9.4,0,1,1,9.39-9.4A9.41,9.41,0,0,1,346.88,366.53Z" transform="translate(0 -14.35)" style="fill:#f6f6f6"/></svg>