<svg xmlns="http://www.w3.org/2000/svg" viewBox="0 0 486.1 600"><g style="isolation:isolate"><g id="Ebene_1" data-name="Ebene 1"><path d="M203.05,481l-36.6-109.12-10.18-86.28,68.27-22.21,40.31,75.48L301.45,448a70.73,70.73,0,1,0,134.12-45L399,293.85l-5.59-81.09,67-26.2,37,74.28L534,370c30.6,91.24-18.73,190.36-110,221S233.65,572.2,203.05,481Z" transform="translate(-56.95)" style="fill:#80ccec"/><g style="opacity:0.30000000000000004;mix-blend-mode:multiply"><path d="M424,590.93a173.62,173.62,0,0,0,58.29-33.15l-23.66,11.09a129.77,129.77,0,0,1-65.16,6.21,129.39,129.39,0,0,1-64-16.24,130.29,130.29,0,0,1-53-43.58,128,128,0,0,1-33.84-57.92C235,437,227.26,416.77,219.57,396.48c-13.79-36.44-27.28-73-38.71-110.31-1.27-4.12-2.49-8.25-3.69-12.39L138,286.93l65.08,194C233.65,572.2,332.77,621.53,424,590.93Z" transform="translate(-56.95)" style="fill:#6299bf"/></g><rect x="382.04" y="190.11" width="103.79" height="89.56" transform="translate(-109.12 150.18) rotate(-18.54)" style="fill:#f6f6f6"/><polygon points="207.92 338.82 179.43 253.91 80.75 286.81 109.45 371.85 207.92 338.82" style="fill:#f6f6f6"/><polygon points="147.97 358.94 119.46 273.9 80.75 286.81 109.45 371.85 147.97 358.94" style="fill:#e6e6e6"/><path d="M349.64,172.43c-1.4-8.63-2.28-17.24-3-25.85s-1.24-17.2-1.65-25.79-.59-17.18-.7-25.76-.06-17.15.09-25.72l14.3,9q-6.12,3.51-12.3,6.9T334,91.92q-12.45,6.64-25.09,12.93l-13.78,6.85-.28-14.79q-.24-12.06-.13-24.16l.2-12.09c.14-4,.21-8.07.4-12.11q.48-12.11,1.45-24.24c.66-8.09,1.47-16.19,2.72-24.31,2.08,8,3.7,15.93,5.18,23.91s2.76,16,3.9,24c.6,4,1.08,8,1.62,12l1.43,12q1.33,12,2.32,24.06L299.82,88Q312,80.94,324.45,74.24c4.14-2.23,8.29-4.45,12.46-6.62s8.35-4.33,12.55-6.45l15.46-7.78-1.16,16.76q-.87,12.82-2.12,25.63t-2.91,25.6c-1.15,8.52-2.37,17.05-3.85,25.56S351.77,164,349.64,172.43Z" transform="translate(-56.95)" style="fill:#ffe882"/><path d="M245.93,147.78c-5.07-7.13-9.67-14.46-14.15-21.84s-8.72-14.89-12.89-22.41-8.13-15.14-12-22.79-7.64-15.35-11.3-23.1l16.8,1.72q-3.94,5.85-8,11.64c-2.68,3.86-5.41,7.7-8.15,11.52Q188,94,179.47,105.21l-9.34,12.24-6.79-13.13Q157.79,93.6,152.53,82.7l-5.16-10.93c-1.67-3.68-3.39-7.33-5-11q-4.94-11.07-9.43-22.38c-3-7.55-5.84-15.17-8.31-23C130,21.56,135,28,139.85,34.49S149.4,47.6,154,54.27c2.31,3.32,4.51,6.7,6.77,10l6.59,10.15Q173.82,84.65,180,95l-16.12-.89q7.83-11.74,16-23.25c2.72-3.83,5.46-7.66,8.24-11.45s5.57-7.58,8.4-11.33L207,34.26l6.38,15.54q4.89,11.89,9.44,23.93T231.51,98c2.73,8.15,5.4,16.34,7.84,24.62S244.09,139.23,245.93,147.78Z" transform="translate(-56.95)" style="fill:#ffe882"/><path d="M230.2,228.68c-8.09-3.32-15.9-7.06-23.63-10.92s-15.31-7.94-22.85-12.07-14.95-8.47-22.32-12.87-14.66-8.9-21.89-13.51l15.13-7.5q-.21,7-.54,14.1c-.21,4.69-.47,9.39-.75,14.08q-.84,14.08-2.08,28.15l-1.36,15.33L137.15,236q-10.41-6.1-20.67-12.51L106.28,217c-3.37-2.23-6.77-4.39-10.12-6.67q-10.06-6.74-19.91-13.9c-6.55-4.79-13-9.71-19.3-15,7.86,2.39,15.51,5.18,23.09,8.08s15.06,6,22.47,9.21c3.72,1.57,7.39,3.26,11.09,4.88l11,5.06q11,5.14,21.72,10.59l-14.11,7.85q.34-14.12,1.13-28.2.38-7,.86-14.08t1.06-14.07l1.44-17.24,13.69,9.74q10.47,7.44,20.74,15.2t20.31,15.85c6.67,5.44,13.29,10.93,19.78,16.64S224.08,222.43,230.2,228.68Z" transform="translate(-56.95)" style="fill:#ffe882"/></g></g></svg>