<svg id="Ebene_1" data-name="Ebene 1" xmlns="http://www.w3.org/2000/svg" viewBox="0 0 600 367.85"><polygon points="80.8 367.85 275.76 0 470.71 367.85 80.8 367.85" style="fill:#f6f6f6"/><polygon points="600 148.91 350.98 148.41 186.9 167.58 178.19 180.98 357.97 185.16 579.84 188.81 600 148.91" style="fill:#ffe882"/><polygon points="585.58 177.45 357.95 160.24 182.03 171.06 185.48 185.28 364.88 197.69 567.47 213.3 585.58 177.45" style="fill:#87d7f9"/><polygon points="572.79 202.76 365.38 172.83 182.37 174.43 173.1 187.06 371.75 210.17 555.27 237.46 572.79 202.76" style="fill:#80ccec"/><polygon points="560.25 227.59 372.57 185.01 180.94 177.66 173.72 186.94 378.54 222.58 543.26 261.23 560.25 227.59" style="fill:#6299bf"/><polygon points="547.88 252.09 380.1 197.78 179.1 180.89 170.62 189.04 385.23 234.92 531.44 284.62 547.88 252.09" style="fill:#507c95"/><polygon points="535.88 275.82 385.88 208.9 177.58 184.25 171.24 194.75 396.88 238.92 522.93 301.47 535.88 275.82" style="fill:#42697a"/><polygon points="2.86 245.5 0 239.18 186.87 167.68 172.73 194.95 2.86 245.5" style="fill:#ffe882"/></svg>