<svg id="Ebene_1" data-name="Ebene 1" xmlns="http://www.w3.org/2000/svg" viewBox="0 0 600 456.27"><path d="M300,74.24H598a2,2,0,0,1,2,2v367.8a1.32,1.32,0,0,1-1.32,1.32H300a0,0,0,0,1,0,0V74.24A0,0,0,0,1,300,74.24Z" style="fill:#507c95"/><path d="M2,74.24H300a0,0,0,0,1,0,0V445.38a0,0,0,0,1,0,0H1.32A1.32,1.32,0,0,1,0,444.06V76.27A2,2,0,0,1,2,74.24Z" style="fill:#507c95"/><path d="M300,502H11.78A11.78,11.78,0,0,1,0,490.26V149.7a18.09,18.09,0,0,1,18.05-18.09l282-.72Z" transform="translate(0 -71.86)" style="fill:#6299bf"/><path d="M588.23,502H300V130.89l282,.72a18.09,18.09,0,0,1,18,18.09V490.26A11.78,11.78,0,0,1,588.23,502Z" transform="translate(0 -71.86)" style="fill:#6299bf"/><path d="M300,502S137.48,456,27.27,475.56V101.4S221,90.69,297.1,154.93C297.1,297.37,300,502,300,502Z" transform="translate(0 -71.86)" style="fill:#e6e6e6"/><path d="M300,502S462.52,456,572.73,475.56V101.4S379.05,90.69,302.9,154.93C302.9,297.37,300,502,300,502Z" transform="translate(0 -71.86)" style="fill:#e6e6e6"/><path d="M300,132.1S269.77,71.86,49.33,71.86V444.11S200.28,439.48,300,502Z" transform="translate(0 -71.86)" style="fill:#f6f6f6"/><path d="M300,132.1s30.23-60.24,250.67-60.24V444.11S399.72,439.48,300,502Z" transform="translate(0 -71.86)" style="fill:#f6f6f6"/><path d="M421.63,362.34c-6.62,0-16.16-6.15-24-35.48-5.92-22.06-9.18-51.34-9.18-82.46s3.26-60.4,9.18-82.45c7.88-29.33,17.42-35.49,24-35.49s16.15,6.16,24,35.49c5.93,22.05,9.19,51.33,9.19,82.45s-3.26,60.41-9.19,82.46C437.78,356.19,428.24,362.34,421.63,362.34Zm0-231.67c-14,0-29,45.7-29,113.73s15,113.73,29,113.73,29-45.7,29-113.73S435.64,130.67,421.63,130.67Z" transform="translate(0 -71.86)" style="fill:#42697a"/><path d="M338.77,316c-8.72,0-13-2.82-15.15-6-3.68-5.5-3.87-16.85,16.12-39.72,15-17.19,37.55-36.19,63.4-53.5s52-30.9,73.63-38.25c28.76-9.77,39.18-5.27,42.86.23s3.87,16.85-16.11,39.72c-15,17.19-37.55,36.19-63.41,53.51s-52,30.89-73.63,38.24C354.2,314.42,345.26,316,338.77,316ZM504.53,177c-18.65,0-55.87,14.39-99,43.3C349,258.15,319.33,296,327.12,307.68c1.84,2.75,5.84,4.13,11.61,4.13,18.64,0,55.86-14.39,99-43.3,25.56-17.12,47.78-35.86,62.58-52.78,13.81-15.8,19.71-28.74,15.78-34.6C514.29,178.37,510.3,177,504.53,177Z" transform="translate(0 -71.86)" style="fill:#42697a"/><path d="M504.49,316c-6.5,0-15.43-1.57-27.72-5.74C455.15,302.9,429,289.32,403.14,272s-48.37-36.32-63.4-53.51c-20-22.87-19.8-34.22-16.12-39.72s14.11-10,42.86-.23c21.62,7.35,47.77,20.93,73.63,38.25s48.38,36.31,63.41,53.5c20,22.87,19.79,34.22,16.11,39.72C517.52,313.17,513.2,316,504.49,316ZM338.73,177c-5.78,0-9.76,1.37-11.61,4.13-7.79,11.64,21.84,49.53,78.37,87.38s102.85,50.81,110.64,39.17c3.93-5.87-2-18.8-15.78-34.6-14.8-16.93-37-35.67-62.58-52.78C394.6,191.39,357.38,177,338.73,177Z" transform="translate(0 -71.86)" style="fill:#42697a"/><path d="M436.35,244.4a14.72,14.72,0,1,1-14.72-14.72A14.72,14.72,0,0,1,436.35,244.4Z" transform="translate(0 -71.86)" style="fill:#ebda8a"/><path d="M341.55,427.39l-1.73-3.83c.86-.39,87.26-38.93,168.36-31.36l-.39,4.19C427.79,388.92,342.4,427,341.55,427.39Z" transform="translate(0 -71.86)" style="fill:#42697a"/><path d="M341.55,443.48l-1.73-3.84c.86-.39,87.26-38.93,168.36-31.36l-.39,4.2C427.79,405,342.4,443.09,341.55,443.48Z" transform="translate(0 -71.86)" style="fill:#42697a"/><path d="M258.87,156.06c-.85-.38-86.27-38.46-166.23-31l-.39-4.19c81.09-7.57,167.5,31,168.36,31.36Z" transform="translate(0 -71.86)" style="fill:#42697a"/><path d="M258.87,172.15c-.85-.39-86.27-38.47-166.23-31l-.39-4.2c81.09-7.56,167.5,31,168.36,31.36Z" transform="translate(0 -71.86)" style="fill:#42697a"/><path d="M258.87,189.56c-.85-.38-86.27-38.46-166.23-31l-.39-4.19c81.09-7.57,167.5,31,168.36,31.35Z" transform="translate(0 -71.86)" style="fill:#42697a"/><path d="M258.87,229.9c-.85-.39-86.27-38.46-166.23-31l-.39-4.19c81.09-7.57,167.5,31,168.36,31.35Z" transform="translate(0 -71.86)" style="fill:#42697a"/><path d="M258.87,246c-.85-.38-86.27-38.46-166.23-31l-.39-4.19c81.09-7.57,167.5,31,168.36,31.35Z" transform="translate(0 -71.86)" style="fill:#42697a"/><path d="M258.87,263.4c-.85-.39-86.27-38.47-166.23-31l-.39-4.2c81.09-7.57,167.5,31,168.36,31.36Z" transform="translate(0 -71.86)" style="fill:#42697a"/><rect x="92.62" y="197.72" width="4.21" height="139.81" style="fill:#42697a"/><path d="M194,402.49a9.19,9.19,0,0,1-3.17-.57c-10.64-3.86-16.23-26.67-22.15-50.83-2.94-12-5.72-23.33-8.91-30.89-1.34-3.18-3.22-4.88-5.75-5.19-12.46-1.5-37.19,27.56-45.66,38.9L105,351.39c3.27-4.37,32.39-42.64,49.54-40.56,4.1.5,7.17,3.1,9.12,7.73,3.32,7.87,6.14,19.36,9.12,31.53,4.89,20,11,44.78,19.49,47.88,1.95.7,4.07.18,6.47-1.59,20.9-15.38,45.1-41.11,45.34-41.37l3.07,2.88c-.24.26-24.71,26.28-45.91,41.88A12.27,12.27,0,0,1,194,402.49Z" transform="translate(0 -71.86)" style="fill:#ebda8a"/><path d="M258.87,386.42C258,386,172.6,348,92.64,355.42l-.39-4.19c81.09-7.57,167.5,31,168.36,31.35Z" transform="translate(0 -71.86)" style="fill:#42697a"/><path d="M266.16,434.49h67.68a0,0,0,0,1,0,0v20.66a1.12,1.12,0,0,1-1.12,1.12H267.28a1.12,1.12,0,0,1-1.12-1.12V434.49A0,0,0,0,1,266.16,434.49Z" style="fill:#507c95"/></svg>