<svg id="Ebene_1" data-name="Ebene 1" xmlns="http://www.w3.org/2000/svg" viewBox="0 0 600 293.17"><rect x="433.12" y="291.01" width="7.3" height="106.96" transform="translate(988.47 119.81) rotate(134.38)" style="fill:#87d7f9"/><rect x="96.09" y="395.08" width="2.65" height="26.84" transform="translate(-17.93 658.88) rotate(-150.64)" style="fill:#87d7f9"/><rect x="84.67" y="380.71" width="2.65" height="38.86" transform="translate(176.27 645.93) rotate(179.39)" style="fill:#87d7f9"/><path d="M212.2,358.39C194.26,361.7,84.55,374,37.83,379.17c30.83-27.12,69.62-44.86,100.27-55.58a75.45,75.45,0,0,0,20.59-3.73l66.9-22.05c58.6,27.67,99.61-7.27,107.58-32.46,68.65-22.56,152.74-50.6,152.74-50.6L504.19,272C468.38,283,239.51,353.35,212.2,358.39Z" transform="translate(0 -153.41)" style="fill:#87d7f9"/><path d="M212.2,358.39c27.31-5,256.18-75.4,292-86.42l2.85,8.9c-63.17,19.67-252.9,79.39-294,87.05-31.85,5.93-125,15-183.94,19.65l-.16-.11c2.87-2.86,5.87-5.61,8.92-8.29C84.55,374,194.26,361.7,212.2,358.39Z" transform="translate(0 -153.41)" style="fill:#f6f6f6"/><path d="M225.59,297.81l12.81-4.22c32.13,11,62.74,4.27,82.17-24.1l12.6-4.14C325.2,290.54,284.19,325.48,225.59,297.81Z" transform="translate(0 -153.41)" style="fill:#f6f6f6"/><path d="M553.54,197.78c6.58,23.54,14.66,41.85,18.05,40.9s.82-20.79-5.76-44.33-14.65-41.85-18.05-40.9S547,174.25,553.54,197.78Z" transform="translate(0 -153.41)" style="fill:#4d4d4d"/><path d="M580.45,294.12c6.58,23.54,14.66,41.85,18,40.9s.82-20.8-5.76-44.33-14.65-41.85-18-40.91S573.88,270.58,580.45,294.12Z" transform="translate(0 -153.41)" style="fill:#4d4d4d"/><rect x="471.59" y="301.6" width="7.29" height="73.86" transform="matrix(-0.96, 0.27, -0.27, -0.96, 1024.04, 383.3)" style="fill:#87d7f9"/><path d="M456.52,416.51a41.14,41.14,0,1,1,50.69,28.55A41.14,41.14,0,0,1,456.52,416.51Z" transform="translate(0 -153.41)" style="fill:#4d4d4d"/><path d="M548.6,273.17,587,257.28a15.18,15.18,0,0,0,8.81-18.1h0a15.16,15.16,0,0,0-16.91-10.9l-41.08,6.3Z" transform="translate(0 -153.41)" style="fill:#6299bf"/><path d="M449.53,421.62a3,3,0,0,0,2.11-3.75,46.2,46.2,0,0,1,64.56-54.05,3,3,0,0,0,2.64-5.48,52.28,52.28,0,0,0-73.05,61.16A3,3,0,0,0,449.53,421.62Z" transform="translate(0 -153.41)" style="fill:#87d7f9"/><path d="M471.16,412.42a25.94,25.94,0,1,1,32,18A25.93,25.93,0,0,1,471.16,412.42Z" transform="translate(0 -153.41)" style="fill:#fff"/><path d="M487.36,407.89a9.12,9.12,0,1,1,11.23,6.33A9.11,9.11,0,0,1,487.36,407.89Z" transform="translate(0 -153.41)" style="fill:#6299bf"/><path d="M72.57,423.72a14.95,14.95,0,1,1,5.69,20.36A15,15,0,0,1,72.57,423.72Z" transform="translate(0 -153.41)" style="fill:#4d4d4d"/><path d="M102.78,426.22l.07,0a1.11,1.11,0,0,0,.68-1.4A19,19,0,0,0,69,421.73,1.11,1.11,0,0,0,71,422.82a16.78,16.78,0,0,1,30.47,2.7A1.11,1.11,0,0,0,102.78,426.22Z" transform="translate(0 -153.41)" style="fill:#87d7f9"/><path d="M77.38,426.43A9.43,9.43,0,1,1,81,439.27,9.43,9.43,0,0,1,77.38,426.43Z" transform="translate(0 -153.41)" style="fill:#fff"/><path d="M82.71,429.43A3.31,3.31,0,1,1,84,433.94,3.31,3.31,0,0,1,82.71,429.43Z" transform="translate(0 -153.41)" style="fill:#6299bf"/><path d="M517.67,314.15l42.08-11.76a8.53,8.53,0,0,0,6.11-9.72l-14.51-81.3a15,15,0,0,0-19.49-11.65l-45.95,15Z" transform="translate(0 -153.41)" style="fill:#507c95"/><path d="M213,367.92c41.13-7.66,230.86-67.38,294-87.05l10.63,33.28-230.9,66.68a484,484,0,0,1-146.45,18.84l-80.32-2a57.19,57.19,0,0,1-30.93-10.07C88,382.91,181.16,373.85,213,367.92Z" transform="translate(0 -153.41)" style="fill:#6299bf"/><rect x="428.93" y="185.14" width="11.52" height="122.89" transform="translate(-21.91 -110) rotate(-5.58)" style="fill:#6299bf"/><rect x="372.14" y="201.07" width="11.52" height="126.61" transform="translate(-24.34 -114.67) rotate(-5.69)" style="fill:#6299bf"/><path d="M12.5,283.12a30.79,30.79,0,0,1,10.31-9.75c12.06-7,27.45-4.24,37.14,5.78l20.8,21.5A76.26,76.26,0,0,0,90,308.77c-22-3.67-55-9.24-83.68-14.22A77,77,0,0,1,12.5,283.12Z" transform="translate(0 -153.41)" style="fill:#87d7f9"/><path d="M6.33,294.55C35,299.53,68.06,305.1,90,308.77a75.59,75.59,0,0,0,48.09,14.82,378.58,378.58,0,0,0-44.78,18.92L0,327.65A76.41,76.41,0,0,1,6.33,294.55Z" transform="translate(0 -153.41)" style="fill:#f6f6f6"/><path d="M93.32,342.51c-22.57,11.37-45.51,26.11-64.41,44.95A57.13,57.13,0,0,1,7.42,359.29l-3.18-9.13A76.58,76.58,0,0,1,0,327.65Z" transform="translate(0 -153.41)" style="fill:#6299bf"/><path d="M315,224.71l-.06-.06C312,219,374.64,187.72,418,175.6c33.34-9.31,48.6-7.17,46.84-1.29C437.79,180.78,383.66,193.64,315,224.71Z" transform="translate(0 -153.41)" style="fill:#87d7f9"/><path d="M464.85,174.31c-1.5,5-15.47,12.8-41.28,18.46-43.67,9.59-106,34.77-108.59,31.94C383.66,193.64,437.79,180.78,464.85,174.31Z" transform="translate(0 -153.41)" style="fill:#87d7f9"/><path d="M334.22,348.54c2.45-7.41,61.58-36.6,103.11-48.2,33.23-9.28,48.5-7.18,46.85-1.34C459.33,305,404.72,317.13,334.22,348.54Z" transform="translate(0 -153.41)" style="fill:#87d7f9"/><path d="M484.18,299c-1.42,5-15.39,12.83-41.29,18.52-44,9.65-107,35.14-108.66,31.88a1.15,1.15,0,0,1,0-.86C404.72,317.13,459.33,305,484.18,299Z" transform="translate(0 -153.41)" style="fill:#87d7f9"/><path d="M42.13,388.17c.45-4.32,30.48-18.16,51.33-22,16.38-3,23.84-.33,23,3.25A473.4,473.4,0,0,0,42.13,388.17Z" transform="translate(0 -153.41)" style="fill:#87d7f9"/><path d="M116.47,369.45c-.72,3.1-7.69,6.9-20.54,8.26-21.72,2.29-53,13.05-53.77,10.81a.82.82,0,0,1,0-.35A473.4,473.4,0,0,1,116.47,369.45Z" transform="translate(0 -153.41)" style="fill:#87d7f9"/></svg>