<svg id="Ebene_1" data-name="Ebene 1"
    xmlns="http://www.w3.org/2000/svg"
    xmlns:xlink="http://www.w3.org/1999/xlink" viewBox="0 0 1967.02 550.28">
    <defs>
        <clipPath id="clip-path" transform="translate(698.63 -24.86)">
            <rect x="58.79" y="215.24" width="374.9" height="241.79" rx="63.54" style="fill:none"/>
        </clipPath>
    </defs>
    <path d="M370.36,47.89a15.64,15.64,0,1,0-24.69,3.72l-49.34,92a4.36,4.36,0,1,0,7.69,4.13l49.34-92A15.6,15.6,0,0,0,370.36,47.89Z" transform="translate(698.63 -24.86)" style="fill:#6299bf"/>
    <path d="M229.64,47.89a15.64,15.64,0,1,1,24.69,3.72l49.34,92a4.36,4.36,0,0,1-7.69,4.13l-49.34-92A15.6,15.6,0,0,1,229.64,47.89Z" transform="translate(698.63 -24.86)" style="fill:#6299bf"/>
    <path d="M300,144c-53.72,0-97.26,12.38-97.26,27.65H397.26C397.26,156.39,353.72,144,300,144Z" transform="translate(698.63 -24.86)" style="fill:#6299bf"/>
    <rect x="698.63" y="132.97" width="600" height="356.61" rx="48.63" style="fill:#80ccec"/>
    <path d="M466.65,293.85c.23-25.26-4.51-49.1-18-70.67a12.07,12.07,0,0,0-1.57-2c-.06-.07-.08-.14-.14-.2C418,186.6,377.17,182.42,334.85,182.28c-29.52-.1-149.79.13-179.31-.06-26.86-.17-51.89,0-77,10.64-41.34,17.5-52,66-52.51,106.12-.61,49.06-8,99.76,15.3,145.1,19.57,38.08,63.9,44.7,102.34,45.4,28.54.53,147.87,0,176.41,0,27.76.05,56.22,3.08,83.12-5.27,41.72-12.94,59.46-56.42,62.8-96.1C468.65,357.07,466.38,325,466.65,293.85Z" transform="translate(698.63 -24.86)" style="fill:#6299bf"/>
    <path d="M439.21,228.79a14.28,14.28,0,0,0-1-1.24c-.22-.32-.4-.65-.66-1C409,192.71,369.34,193.3,328.39,193.3c-27.36,0-145.48.15-172.85-.06-23.72-.17-49.45-1.46-71.46,9.16C45.93,220.79,37,260,37,299.09c0,44.91-9,98.69,13.81,139.59,22.93,41.11,69,40.06,109.85,40.06,28.64,0,148-.14,176.66.05,22.47.14,48.61,2.73,69.43-7.71,37.52-18.79,48.79-55.88,48.79-95.13,0-27.33,0-54.66.23-82C456,270.59,452.62,248.38,439.21,228.79Z" transform="translate(698.63 -24.86)" style="fill:#42697a"/>
    <rect x="757.42" y="190.38" width="374.9" height="241.79" rx="63.54" style="fill:#f6f6f6"/>
    <rect x="1185.81" y="157.33" width="85.17" height="307.89" rx="22.84" style="fill:#42697a"/>
    <path d="M525.42,374.61a7.88,7.88,0,0,1-7.88,7.88H503.75a7.88,7.88,0,0,1-7.88-7.88h0a7.88,7.88,0,0,1,7.88-7.88h13.79a7.88,7.88,0,0,1,7.88,7.88Z" transform="translate(698.63 -24.86)" style="fill:#f6f6f6"/>
    <path d="M563.41,374.61a7.87,7.87,0,0,1-7.87,7.88H541.75a7.88,7.88,0,0,1-7.88-7.88h0a7.88,7.88,0,0,1,7.88-7.88h13.79a7.87,7.87,0,0,1,7.87,7.88Z" transform="translate(698.63 -24.86)" style="fill:#f6f6f6"/>
    <path d="M514.05,479.05h31.43a18.18,18.18,0,0,0,18.18-18.18V393H495.87v67.88A18.18,18.18,0,0,0,514.05,479.05Z" transform="translate(698.63 -24.86)" style="fill:#f6f6f6"/>
    <path d="M503.68,467.77a.87.87,0,0,1,.77-.93h50.62a.86.86,0,0,1,.77.93h0a.85.85,0,0,1-.77.92H504.45a.86.86,0,0,1-.77-.92Z" transform="translate(698.63 -24.86)" style="fill:#444"/>
    <path d="M503.68,458.37a.86.86,0,0,1,.77-.92h50.62a.85.85,0,0,1,.77.92h0a.85.85,0,0,1-.77.92H504.45a.86.86,0,0,1-.77-.92Z" transform="translate(698.63 -24.86)" style="fill:#444"/>
    <path d="M503.68,449a.86.86,0,0,1,.77-.92h50.62a.85.85,0,0,1,.77.92h0a.85.85,0,0,1-.77.92H504.45a.86.86,0,0,1-.77-.92Z" transform="translate(698.63 -24.86)" style="fill:#444"/>
    <path d="M503.68,439.57a.86.86,0,0,1,.77-.92h50.62a.85.85,0,0,1,.77.92h0a.86.86,0,0,1-.77.93H504.45a.87.87,0,0,1-.77-.93Z" transform="translate(698.63 -24.86)" style="fill:#444"/>
    <path d="M503.68,430.17a.86.86,0,0,1,.77-.92h50.62a.85.85,0,0,1,.77.92h0a.86.86,0,0,1-.77.93H504.45a.87.87,0,0,1-.77-.93Z" transform="translate(698.63 -24.86)" style="fill:#444"/>
    <path d="M503.68,420.77a.86.86,0,0,1,.77-.92h50.62a.85.85,0,0,1,.77.92h0a.86.86,0,0,1-.77.93H504.45a.87.87,0,0,1-.77-.93Z" transform="translate(698.63 -24.86)" style="fill:#444"/>
    <path d="M503.68,411.37a.86.86,0,0,1,.77-.92h50.62a.85.85,0,0,1,.77.92h0a.86.86,0,0,1-.77.93H504.45a.87.87,0,0,1-.77-.93Z" transform="translate(698.63 -24.86)" style="fill:#444"/>
    <path d="M503.68,402a.86.86,0,0,1,.77-.92h50.62a.85.85,0,0,1,.77.92h0a.86.86,0,0,1-.77.93H504.45a.87.87,0,0,1-.77-.93Z" transform="translate(698.63 -24.86)" style="fill:#444"/>
    <path d="M128.34,514.45c-9,32.42-9,57.29-1.75,60.34,8.55,3.61,31.92-21.25,51.1-60.34Z" transform="translate(698.63 -24.86)" style="fill:#6299bf"/>
    <path d="M471.66,514.45c9,32.42,9,57.29,1.75,60.34-8.55,3.61-31.92-21.25-51.1-60.34Z" transform="translate(698.63 -24.86)" style="fill:#6299bf"/>
    <path d="M556.93,302a29.41,29.41,0,0,1-38.21,38.2A27.2,27.2,0,0,0,556.93,302Z" transform="translate(698.63 -24.86)" style="fill:#333"/>
    <path d="M556.93,226.11a29.41,29.41,0,0,1-38.21,38.2,27.2,27.2,0,0,0,38.21-38.2Z" transform="translate(698.63 -24.86)" style="fill:#333"/>
    <path d="M556.93,224.72a29.42,29.42,0,0,1-38.21,38.21,27.2,27.2,0,0,0,38.21-38.21Z" transform="translate(698.63 -24.86)" style="fill:#333"/>
    <path d="M550.4,292.11a29.42,29.42,0,1,1-41.61,0A29.43,29.43,0,0,1,550.4,292.11Z" transform="translate(698.63 -24.86)" style="fill:#f6f6f6"/>
    <path d="M541.3,301.2a16.56,16.56,0,1,1-23.41,0A16.56,16.56,0,0,1,541.3,301.2Z" transform="translate(698.63 -24.86)" style="fill:#cacccb"/>
    <rect x="516.96" y="296.64" width="4.35" height="11.63" transform="translate(636.82 430.81) rotate(-45)" style="fill:#969696"/>
    <path d="M559,235.42A29.42,29.42,0,1,1,529.6,206,29.42,29.42,0,0,1,559,235.42Z" transform="translate(698.63 -24.86)" style="fill:#f6f6f6"/>
    <path d="M546.15,235.42a16.56,16.56,0,1,1-16.55-16.56A16.55,16.55,0,0,1,546.15,235.42Z" transform="translate(698.63 -24.86)" style="fill:#cacccb"/>
    <rect x="1226.05" y="189.95" width="4.35" height="11.63" style="fill:#969696"/>
    <g style="clip-path:url(#clip-path)">
        <path d="M-692.47,332.76l.65,6.76c10.19,105.78,54.32,105.78,64.51,0l.65-6.76c10.18-105.78,54.32-105.78,64.5,0l.65,6.76c10.19,105.78,54.33,105.78,64.51,0l.65-6.76C-486.16,227-442,227-431.84,332.76l.65,6.76c10.18,105.78,54.32,105.78,64.5,0l.65-6.76c10.19-105.78,54.33-105.78,64.51,0l.65,6.76c10.19,105.78,54.32,105.78,64.51,0l.65-6.76c10.18-105.78,54.32-105.78,64.5,0l.66,6.76c10.18,105.78,54.32,105.78,64.5,0l.65-6.76C-95.22,227-51.09,227-40.9,332.76l.65,6.76c10.18,105.78,54.32,105.78,64.5,0l.66-6.76C35.09,227,79.23,227,89.41,332.76l.65,6.76c10.19,105.78,54.32,105.78,64.51,0l.65-6.76c10.18-105.78,54.32-105.78,64.5,0l.66,6.76c10.18,105.78,54.32,105.78,64.5,0l.65-6.76C295.72,227,339.85,227,350,332.76l.65,6.76c10.18,105.78,54.32,105.78,64.5,0l.66-6.76C426,227,470.17,227,480.35,332.76l.65,6.76c10.19,105.78,54.32,105.78,64.51,0l.65-6.76c10.18-105.78,54.32-105.78,64.5,0l.66,6.76c10.18,105.78,54.32,105.78,64.5,0l.65-6.76C686.66,227,730.79,227,741,332.76l.65,6.76c10.18,105.78,54.32,105.78,64.51,0l.65-6.76C817,227,861.11,227,871.29,332.76l.65,6.76c10.19,105.78,54.32,105.78,64.51,0l.65-6.76c10.18-105.78,54.32-105.78,64.51,0l.65,6.76c10.18,105.78,54.32,105.78,64.5,0l.65-6.76c10.19-105.78,54.32-105.78,64.51,0l.65,6.76c10.18,105.78,54.32,105.78,64.51,0l.65-6.76c10.18-105.78,54.32-105.78,64.5,0" transform="translate(698.63 -24.86)" style="fill:none;stroke:#ebda8a;stroke-linejoin:round;stroke-width:12.376986871881106px"/>
    </g>
</svg>