<svg id="Ebene_1" data-name="Ebene 1" xmlns="http://www.w3.org/2000/svg" viewBox="0 0 209.97 600"><path d="M335.16,425.64a49.21,49.21,0,0,1-49.22,49.22h0a49.22,49.22,0,0,1-49.22-49.22V49.22A49.22,49.22,0,0,1,285.94,0h0a49.22,49.22,0,0,1,49.22,49.22Z" transform="translate(-195.01)" style="fill:#6299bf"/><circle cx="285.94" cy="509.07" r="90.93" transform="translate(-471.23 351.3) rotate(-45)" style="fill:#6299bf"/><circle cx="285.94" cy="509.07" r="77.03" transform="matrix(0.16, -0.99, 0.99, 0.16, -456.68, 711.65)" style="fill:#f6f6f6"/><path d="M322.75,49.5a36.71,36.71,0,1,0-73.41,0V464.85h73.41Z" transform="translate(-195.01)" style="fill:#f6f6f6"/><circle cx="285.94" cy="509.07" r="58.29" transform="translate(-372.92 154.45) rotate(-23.28)" style="fill:#80ccec"/><path d="M307.18,50.61a21.69,21.69,0,0,0-43.38,0V456.1h43.38Z" transform="translate(-195.01)" style="fill:#e6e6e6"/><rect x="68.79" y="183.64" width="43.38" height="291.23" style="fill:#80ccec"/><circle cx="126.53" cy="509.07" r="10.83" style="fill:#fff;opacity:0.30000000000000004"/><path d="M320.13,533.91a7.12,7.12,0,1,1-7.12-7.12A7.12,7.12,0,0,1,320.13,533.91Z" transform="translate(-195.01)" style="fill:#fff;opacity:0.30000000000000004"/><rect x="155.9" y="355.63" width="54.07" height="17.66" rx="8.83" style="fill:#f6f6f6"/><rect x="155.9" y="275.21" width="54.07" height="17.66" rx="8.83" style="fill:#f6f6f6"/><rect x="155.9" y="194.79" width="54.07" height="17.66" rx="8.83" style="fill:#f6f6f6"/><rect x="155.9" y="114.37" width="54.07" height="17.66" rx="8.83" style="fill:#f6f6f6"/><rect x="155.9" y="33.94" width="54.07" height="17.66" rx="8.83" style="fill:#f6f6f6"/></svg>