<svg id="Ebene_1" data-name="Ebene 1" xmlns="http://www.w3.org/2000/svg" viewBox="0 0 519.86 600"><path id="background" d="M299.75,600,40.07,449.79l.25-300L300.25,0,559.93,150.21l-.25,300Z" transform="translate(-40.07)" style="fill:#2cda9d"/><path d="M300.15,118.33,142.75,209,142.6,390.7l157.25,91L457.25,391l.15-181.66ZM438.29,380,299.87,459.76l-138.29-80L161.71,220l138.42-79.77,138.29,80Z" transform="translate(-40.07)" style="fill:#f6f6f6"/><polygon points="325.87 265.42 255.63 292.97 186.72 265.17 255.29 237.09 325.87 265.42" style="fill:none;stroke:#f6f6f6;stroke-miterlimit:10;stroke-width:9.80190397994649px"/><line x1="323.13" y1="267.79" x2="323.13" y2="322.35" style="fill:none;stroke:#f6f6f6;stroke-miterlimit:10;stroke-width:9.80190397994649px"/><circle cx="323.13" cy="333.12" r="10.01" style="fill:none;stroke:#f6f6f6;stroke-miterlimit:10;stroke-width:8.937773970246853px"/><line x1="323.95" y1="344.7" x2="332.81" y2="371.28" style="fill:none;stroke:#f6f6f6;stroke-miterlimit:10;stroke-width:8.937773970246853px"/><line x1="322.31" y1="344.7" x2="313.45" y2="371.28" style="fill:none;stroke:#f6f6f6;stroke-miterlimit:10;stroke-width:8.937773970246853px"/><path d="M295.7,293l-38.29-15.45v31.11h0a54.44,54.44,0,0,0,73.72,2.83l3.34-2.83V277.76Z" transform="translate(-40.07)" style="fill:none;stroke:#f6f6f6;stroke-linecap:round;stroke-linejoin:round;stroke-width:9.054398267582044px"/></svg>