<svg id="Ebene_1" data-name="Ebene 1" xmlns="http://www.w3.org/2000/svg" viewBox="0 0 420.92 600"><path d="M96.24,546.43c24.45,29.79,56.45,46.06,93.4,53.57,96.91-212.6,184-363.84,313.88-546.19C478.37,25.68,448.26,6.08,410.36,0c-96.68,213.31-184,364.55-314.12,546.43Z" transform="translate(-89.54)" style="fill:#ddd;fill-rule:evenodd"/><path d="M89.54,510.69c38.43,36.62,84.18,60.93,134.18,77.4,78.46-200,158-338,286.74-498.77C471.08,54.35,427,27.2,376,12.14c-78,200.49-157.52,338.46-286.5,498.55Z" transform="translate(-89.54)" style="fill:#f6f6f6;fill-rule:evenodd"/><path d="M352.35,368.57a7.08,7.08,0,0,1-6.62,7.35,6.87,6.87,0,0,1-7.12-6.61c0-.24-4.66-83.11-73.63-114.94A6.78,6.78,0,0,1,270.64,242c76.56,34.9,81.71,126.29,81.71,126.53Z" transform="translate(-89.54)" style="fill:#90f9d5"/><path d="M318.53,389.47a6.88,6.88,0,0,1,6.37-7.35,7.1,7.1,0,0,1,7.36,6.62A301.22,301.22,0,0,1,328.35,451a517.44,517.44,0,0,1-13.61,59.7,6.82,6.82,0,0,1-8.28,4.75,6.91,6.91,0,0,1-5-8.51,556.31,556.31,0,0,0,13.38-58c3-19.66,4.66-39.32,3.68-59.45Zm36.46-2a6.55,6.55,0,0,1,7.33-6.17,6.9,6.9,0,0,1,6.41,7.33,179.23,179.23,0,0,0,12.47,81,6.89,6.89,0,0,1-3.78,9,7,7,0,0,1-9-4A189.55,189.55,0,0,1,355,387.51Z" transform="translate(-89.54)" style="fill:#90f9d5"/><path d="M333.23,278.86c26-2.65,4.75,6.86,32,6.81,10,0,26.29,4.68,27.74,15.57.72,5.92,10.7,23.19,17.1,26.73,10.66,6.13,15.19,17.25,7.15,27.69-11.33,14.94.54,33.86-6.31,42.87-2.59,3.32-17.27,6.66-23.18,9.52-17.27,8.32-8.5,13-21.28,18-11.12,4.29-21.07,1.94-29.37-1.12-11.13-4.24-53,11.23-51.66-22.64.91-18.47-43.62-23.59-22.59-48.73,13.94-16.37,5.42-13,13.44-30.1,3.3-7.11,12.27-20.86,20.32-22.3,26-4.08,9.2-19.67,36.66-22.33Z" transform="translate(-89.54)" style="fill:#2cda9d;fill-rule:evenodd"/><path d="M343.44,294.23A60.62,60.62,0,1,1,282.7,355a60.59,60.59,0,0,1,60.74-60.74Z" transform="translate(-89.54)" style="fill:#90f9d5;fill-rule:evenodd"/><path d="M343.47,307.26h2.84a47.69,47.69,0,0,0,.18,95.19h-2.84a47.6,47.6,0,1,1-.18-95.19Z" transform="translate(-89.54)" style="fill:#2cda9d;fill-rule:evenodd"/></svg>