<svg id="Ebene_1" data-name="Ebene 1" xmlns="http://www.w3.org/2000/svg" viewBox="0 0 380 600"><path d="M197.17,196.1l8.66,7.89,7.73-6.8a28.38,28.38,0,0,0,7.82,2.8L223,210.17l11.7-.55.66-10.29a29,29,0,0,0,7.5-3.53l8.34,6.06,7.89-8.67-6.82-7.74a28.28,28.28,0,0,0,2.81-7.8L265.26,176l-.55-11.71-10.28-.65a28.34,28.34,0,0,0-3.53-7.52l6-8.33L248.28,140l-7.71,6.79a28.53,28.53,0,0,0-7.83-2.83l-1.61-10.14-11.71.55-.64,10.24a28.19,28.19,0,0,0-7.56,3.55l-8.3-6L195,150.75l6.78,7.69a28.44,28.44,0,0,0-2.83,7.85l-10.13,1.61.55,11.7,10.25.65a28.53,28.53,0,0,0,3.55,7.54Zm19.17-33.89a14.47,14.47,0,1,1,1,20.44A14.46,14.46,0,0,1,216.34,162.21Z" transform="translate(-110 0)" style="fill:#89e7d5"/><path d="M153.67,295.53,166.24,307l11.2-9.86a41,41,0,0,0,11.34,4.06l2.34,14.76,17-.8.94-14.92a41.42,41.42,0,0,0,10.88-5.12L232,303.88l11.43-12.57-9.88-11.22a41.23,41.23,0,0,0,4.07-11.31l14.77-2.35-.79-17-14.92-.94a40.94,40.94,0,0,0-5.11-10.91l8.77-12.08L227.8,214.1,216.61,224a40.86,40.86,0,0,0-11.36-4.1l-2.33-14.71-17,.79L185,220.78a41.31,41.31,0,0,0-10.95,5.15l-12-8.74-11.44,12.57,9.83,11.15a41.28,41.28,0,0,0-4.1,11.39l-14.69,2.33.8,17,14.86.94a41.65,41.65,0,0,0,5.15,10.93Zm27.8-49.14A21,21,0,1,1,182.86,276,21,21,0,0,1,181.47,246.39Z" transform="translate(-110 0)" style="fill:#7ed5c5"/><path d="M266.6,275.48l16.83,15.31,15-13.21A55,55,0,0,0,313.61,283l3.14,19.76,22.73-1.06,1.27-20a55.36,55.36,0,0,0,14.57-6.85l16.21,11.77,15.31-16.83-13.24-15a55.51,55.51,0,0,0,5.46-15.15l19.78-3.14-1.07-22.73-20-1.26A54.83,54.83,0,0,0,371,197.9l11.75-16.17-16.83-15.32-15,13.19a55.31,55.31,0,0,0-15.21-5.49l-3.13-19.7-22.73,1.07-1.26,19.88a55.48,55.48,0,0,0-14.67,6.89l-16.12-11.7-15.31,16.83,13.16,14.94a55.27,55.27,0,0,0-5.48,15.26l-19.68,3.12,1.07,22.73,19.9,1.26a55.16,55.16,0,0,0,6.9,14.64Zm37.23-65.83a28.09,28.09,0,1,1,1.87,39.69A28.1,28.1,0,0,1,303.83,209.65Z" transform="translate(-110 0)" style="fill:#6cb6a8"/><path d="M391,317.31c-2.61,23.65-7.13,43.76-9.83,51.93,5.61,2.79,9.68,11.34,9.68,21.48,0,12.4-18.86,33.4-26.39,33.4a2.89,2.89,0,0,1-1.55-.46c-14.69,42.53-35.4,87.21-62.59,111.82v17.08a47.46,47.46,0,0,1-94.91,0V537.48c-33.76-23.41-55-67.22-68.08-110.37a3.21,3.21,0,0,1-1.3.24c-7.83,0-26.06-22.21-26.06-35.31,0-12.23,5.49-22.27,12.57-23.6-3.54-16.23-10.21-59.29-2.74-100h275.1C394.49,283.09,393.31,299.4,391,317.31Z" transform="translate(-110 0)" style="fill:#f6f6f6"/><path d="M398,264.93,320.8.88c17.51-1.8,35.32-1,51.68,4.19C440.25,22.14,466,110.2,466,110.2l-12,3.52c43.1,58,35.5,112.49,35.5,112.49S461.24,248.37,398,264.93Z" transform="translate(-110 0)" style="fill:#f6f6f6"/></svg>