<svg id="Ebene_1" data-name="Ebene 1" xmlns="http://www.w3.org/2000/svg" viewBox="0 0 600 298.89"><path d="M332.19,154.69l254.53,79.25c9.51,3,13.91,6.94,13.21,10.83h0v19.84H552.6L332.19,333.24c-8.85,2.76-20.52,4.14-32.19,4.14s-23.33-1.38-32.19-4.14L47.4,264.61H.08V244.77h0c-.71-3.89,3.69-7.87,13.2-10.83l254.53-79.25c8.86-2.76,20.52-4.14,32.19-4.14S323.34,151.93,332.19,154.69Z" transform="translate(0 -150.55)" style="fill:#5ce8b7;fill-rule:evenodd"/><path d="M332.19,176.15l254.53,79.26c17.71,5.51,17.71,14.53,0,20L332.19,354.71c-8.85,2.75-20.52,4.13-32.19,4.13s-23.33-1.38-32.19-4.13L13.28,275.45c-17.71-5.51-17.71-14.53,0-20l254.53-79.26C276.67,173.4,288.33,172,300,172S323.34,173.4,332.19,176.15Z" transform="translate(0 -150.55)" style="fill:#429678;fill-rule:evenodd"/><path d="M447,279V423.83c0-14.35-65.81-26-147-26S153,409.48,153,423.83V279c0-14.35,65.86-26,147.06-26S447,264.63,447,279Z" transform="translate(0 -150.55)" style="fill:#5ce8b7;fill-rule:evenodd"/><path d="M62.05,301.78l22.66,17.75a1.59,1.59,0,0,0,2.57-1.25V208.18L36.82,223.89v94.39a1.54,1.54,0,0,0,.89,1.42,1.56,1.56,0,0,0,1.68-.17Z" transform="translate(0 -150.55)" style="fill:#f6f6f6;fill-rule:evenodd"/><ellipse cx="300" cy="271.79" rx="146.99" ry="27.1" style="fill:#429678"/></svg>