<svg xmlns="http://www.w3.org/2000/svg" viewBox="0 0 363.07 600"><g style="isolation:isolate"><g id="Ebene_1" data-name="Ebene 1"><path d="M242.81,351.82c9.18-7.06,40.27-19.38,40.74-53-.47-33.63-31.56-45.94-40.74-53S202.05,224.94,163,174.29,142.79,29,142.79,29H457.21S476.12,123.67,437,174.29s-70.6,64.43-79.84,71.53-40.27,19.37-40.74,53c.47,33.62,31.27,46.33,40.74,53,17.43,12.28,43.18,26.46,79.84,71.52C477.4,473,457.21,568.61,457.21,568.61H142.79S123.89,474,163,423.34,233.56,358.92,242.81,351.82Z" transform="translate(-118.47)" style="fill:#f6f6f6"/><path d="M317.39,443.94a19.55,19.55,0,0,1-13.85-17.74c-2.39-41.94-1.76-137.66,15.34-159.31,5.85-7.42,14.21-13.29,20.23-17.42C391.08,213.85,430,182.86,442,142H156c8.41,34.66,56.67,82,104.9,107.47,7.87,4.15,13.3,6.58,19.31,10.82,19.59,13.81,20.45,120.25,18.3,165.15a19.66,19.66,0,0,1-14.42,18.08C223.26,459.93,177.2,564.14,177.2,564.14H422.79S377.48,461.62,317.39,443.94Z" transform="translate(-118.47)" style="fill:#5ce8b7"/><path d="M242.81,351.82c9.18-7.06,40.27-19.38,40.75-53-.48-33.63-31.57-45.94-40.75-53S202.05,224.94,163,174.29,142.8,29,142.8,29h26.73C166,62,154.47,125.32,184.64,164.4c42.19,54.67,76.21,69.54,86.19,77.22s33.75,20.91,34.26,57.21c-.51,36.29-24.35,49.59-34.26,57.21s-44,22.54-86.19,77.21C154.47,472.33,166,535.66,169.53,568.61H142.8S123.89,474,163,423.34,233.57,358.92,242.81,351.82Z" transform="translate(-118.47)" style="fill:#e6e6e6;opacity:0.2;mix-blend-mode:multiply"/><path d="M481.53,589.9A10.09,10.09,0,0,1,471.45,600H128.55a10.09,10.09,0,0,1-10.08-10.1V574.22a10.07,10.07,0,0,1,10.08-10.08h342.9a10.08,10.08,0,0,1,10.08,10.08Z" transform="translate(-118.47)" style="fill:#429678"/><path d="M461,59.66H139A276.27,276.27,0,0,1,142.79,29H457.21A274.56,274.56,0,0,1,461,59.66Z" transform="translate(-118.47)" style="fill:#e6e6e6;opacity:0.2;mix-blend-mode:multiply"/><path d="M139,538H461a273.35,273.35,0,0,1-3.77,30.63H142.79A276.27,276.27,0,0,1,139,538Z" transform="translate(-118.47)" style="fill:#e6e6e6;opacity:0.2;mix-blend-mode:multiply"/><rect width="363.07" height="35.86" rx="10.08" style="fill:#429678"/><path d="M451,72c-2,44.13-6.49,108.39-106.44,169.4C376.34,210.23,421.77,176.48,451,72Z" transform="translate(-118.47)" style="fill:#fff"/><path d="M349.4,356.74c45.72,29.43,98.79,74.09,99.84,127.17.53,21-20.49,16.81-20.49-2.63S414.56,402.46,349.4,356.74Z" transform="translate(-118.47)" style="fill:#fff"/></g></g></svg>