
<svg xmlns="http://www.w3.org/2000/svg" version="1.1" xmlns:xlink="http://www.w3.org/1999/xlink" preserveAspectRatio="none" x="0px" y="0px" width="550px" height="400px" viewBox="0 0 550 400">
<defs>
<linearGradient id="Gradient_1" gradientUnits="userSpaceOnUse" x1="305.65" y1="123.91250000000001" x2="305.65" y2="280.1875" spreadMethod="pad">
<stop  offset="0%" stop-color="#04FFA5"/>

<stop  offset="100%" stop-color="#FFFF00"/>
</linearGradient>

<linearGradient id="Gradient_2" gradientUnits="userSpaceOnUse" x1="159.4125" y1="20.69999999999999" x2="115.7875" y2="267.5" spreadMethod="pad">
<stop  offset="0%" stop-color="#FFCC00"/>

<stop  offset="100%" stop-color="#DB4A22"/>
</linearGradient>

<linearGradient id="Gradient_3" gradientUnits="userSpaceOnUse" x1="99.05" y1="22.72500000000001" x2="68.05" y2="156.575" spreadMethod="pad">
<stop  offset="0%" stop-color="#FFCC00"/>

<stop  offset="100%" stop-color="#FA7A16"/>
</linearGradient>

<linearGradient id="Gradient_4" gradientUnits="userSpaceOnUse" x1="146.8" y1="3.3249999999999993" x2="146.8" y2="19.875" spreadMethod="pad">
<stop  offset="0%" stop-color="#FF9900"/>

<stop  offset="100%" stop-color="#FF3300"/>
</linearGradient>

<linearGradient id="Gradient_5" gradientUnits="userSpaceOnUse" x1="157.7" y1="51.55" x2="157.7" y2="-8.05" spreadMethod="pad">
<stop  offset="0%" stop-color="#1C8E91"/>

<stop  offset="100%" stop-color="#FFFF00"/>
</linearGradient>

<g id="Layer0_0_FILL">
<path fill="url(#Gradient_1)" stroke="none" d="
M 421.15 49.05
Q 378.65 17.6 324.8 17.15 271.4 16.65 220.6 33.15 170.45 49.4 140.45 92.35 109.9 135.95 109.45 189.25 109 244.35 141.45 287.95 153.65 304.3 173.1 310.9 210.35 323.35 264.4 325.25 318.35 327.15 372.4 318.3 426.45 309.45 455.85 288.75 485.2 268.1 490 235.75 497.9 183 481.15 132.1 464.3 81 421.15 49.05 Z"/>
</g>

<g id="Copia_de_S_mbolo_2_0_Layer0_0_FILL">
<path fill="url(#Gradient_2)" stroke="none" d="
M 272.2 98.05
Q 263.790625 93.70703125 252.15 91.35 239.55 88.75 235.6 86.75 229.05 83.5 226.6 75.05 224.05 72.25 228.1 66.6 228.2 66.45 228.35 66.3 229.81640625 63.546484375 234.1 56.95 238.376953125 50.347265625 236.75 44.45 235.1310546875 38.562890625 231.95 36.7 228.8130859375 34.8859375 222.65 34.8 216.544921875 34.7046875 203.65 42.45 190.75 50.15 186.1 50.15 179.7 50.15 176.45 44.55 174.15 40.45 174.25 33.45 174.4603515625 21.7439453125 172.6 18 170.746484375 14.251953125 168.05 14.25 163.95 14.25 159.95 17.95 158.05 19.65 152.95 26.1 148.4 31.75 145.1 34.25 140.1 37.95 134.4 37.95 126.1 37.95 121.05 32.85 117.45 29.15 114.7 21.6 112.1 13.4 110.6 10.3 108.15 5.2 104.25 5.2 96.65 5.2 92.8 12.35 90.7 16.3 88.05 28 85.55 39.15 82.7 43.7 78.25 50.8 69.55 50.8 65.6 50.8 62.05 47.8 59.8 45.850390625 56.3 40.5 52.8 35.1984375 50.65 33 48.5 30.85234375 45.7 31.6
L 45.65 31.6
Q 39.4 35.3 37.65 42.55 36.65 46.5 37.35 50.45 39.25 61.1 39.3 72.1 39.3 72.65 39.3 73.2 39.5 75.25 39.5 77.7 39.5001953125 87.954296875 32.15 93.6 24.8515625 99.2958984375 16.1 97.75 7.397265625 96.2537109375 4.35 98.85 1.3537109375 101.448828125 0.4 103.6 0.249609375 104.473828125 0.15 105.35 -0.2 108.4 0.3 111.7 1.2 117.65 5.5 122.1 11.55 128.3 19.8 131.65 29 135.4 31.3 144.9 32.9 151.45 28.2 156.3 23.35 161.4 20 167.6 15.35 176.5 22 183.8 24.55 186.65 28.4 187.2 38.1 188.35 48.15 187.75 53.1 187.55 56.25 190.85 57.2 191.85 57.2 193.1 57.237890625 196.5326171875 56.65 199.85
L 82.6 199.85
Q 74.9556640625 196.2408203125 67.8 191.55 53.7 182.2 44.25 168.1 34.2 153.05 33.3 135.1 32.4 118 36.95 101.35 41.6 84.35 52.7 70.75 63.65 57.5 79.4 50.2 94.1 43.4 110.1 41.7 119.95 40.5 129.8 40.7 135.5 40.8 141.2 41.35 157.3 43.4 172.6 49.15 187.9 54.95 200.95 64.3 215.4 74.6 224 90 232.95 105.9 232.05 124.05 231.2 141.4 224.6 157.1 222.2 162.5 219.2 167.3 209.55 182.55 195.1 192.85 189.60859375 196.748828125 183.75 199.85
L 208.3 199.85
Q 209.6953125 198.9421875 211.35 198.35 216.3 196.55 220.3 198.3 221.6740234375 198.89375 222.8 199.85
L 261 199.85
Q 260.89921875 199.7248046875 260.8 199.6 257.45 195.4 250.05 190.4
L 245.55 187.4
Q 237.05 181.85 237.85 172.2 238.75 167.7 241.8 164.5 242.85 163.45 244.45 163 249.05 162.2 253.75 163.4 257.85 164.4 262.6 167.1 266.85 169.5 271.65 167.7 273.9 166.8 275.55 165.35 275.6025390625 165.301953125 275.65 165.25 275.896484375 165.0205078125 276.1 164.75 276.2265625 164.6705078125 276.3 164.55 278.0837890625 162.4412109375 277.9 156.8 277.7107421875 151.15546875 268.4 144.05 259.148046875 137.00078125 257.8 135.5 256.4857421875 134.06640625 254.95 131 253.5537109375 129.1486328125 254.65 127 257.9 120.3 266.1 119.35 271.6 118.45 276.1 115.75 277.2369140625 115.0677734375 278.3 114.25 279.9265625 112.3833984375 280.2 108.45 280.6193359375 102.387109375 272.2 98.05 Z"/>

<path fill="#FFFF00" stroke="none" d="
M 4.35 98.85
Q 7.397265625 96.2537109375 16.1 97.75 24.8515625 99.2958984375 32.15 93.6 39.5001953125 87.954296875 39.5 77.7 39.5 75.25 39.3 73.2 39 79.3 35.8 84.55 32.65 89.95 26.15 90.75 17.2 91.35 8.35 92.95 4.55 93.45 2.8 96.9 1.078125 100.1435546875 0.4 103.6 1.3537109375 101.448828125 4.35 98.85
M 254.95 131
Q 256.4857421875 134.06640625 257.8 135.5 259.148046875 137.00078125 268.4 144.05 277.7107421875 151.15546875 277.9 156.8 278.0837890625 162.4412109375 276.3 164.55 277.568359375 163.2251953125 278.45 161.5 280.8 156.7 278.55 151.75 275.9 145.9 267.6 141.55 262.15 138.75 254.65 130.4 255.5 131.65 255.4 131.55 255.15390625 131.2916015625 254.95 131
M 239.3 40.25
Q 237.1927734375 34.0517578125 229.95 31.95 222.7009765625 29.8544921875 216.5 31.05 210.350390625 32.2474609375 202.75 37.65
L 198.4 40.6
Q 193.5 44.05 187.85 42.85 183.4990234375 42.0546875 182.6 37.1 181.744140625 32.1810546875 182.6 27.15 183.516015625 22.1689453125 181.85 16.5 180.1791015625 10.8353515625 175.25 9.8 163.45 7.05 154.45 15.15 148.25 20.65 142.65 26.65 136.8 33.1 129.1 30.75 127.2 30.1 126.2 28.65 121.2 21.2 119.45 12.05 118.35 6.4 113.9 2.65 109.95 -0.55 104.95 0.1 94.6 1.2 90.65 11.55 86.75 21.55 83.95 31.7 81.9 39.15 77 44.7 74.85 47.1 71.75 46.2 63.95 43.95 58.5 37.5 55.5 33.95 51.9 31.5 48.9 29.5 45.7 31.6 48.5 30.85234375 50.65 33 52.8 35.1984375 56.3 40.5 59.8 45.850390625 62.05 47.8 65.6 50.8 69.55 50.8 78.25 50.8 82.7 43.7 85.55 39.15 88.05 28 90.7 16.3 92.8 12.35 96.65 5.2 104.25 5.2 108.15 5.2 110.6 10.3 112.1 13.4 114.7 21.6 117.45 29.15 121.05 32.85 126.1 37.95 134.4 37.95 140.1 37.95 145.1 34.25 148.4 31.75 152.95 26.1 158.05 19.65 159.95 17.95 163.95 14.25 168.05 14.25 170.746484375 14.251953125 172.6 18 174.4603515625 21.7439453125 174.25 33.45 174.15 40.45 176.45 44.55 179.7 50.15 186.1 50.15 190.75 50.15 203.65 42.45 216.544921875 34.7046875 222.65 34.8 228.8130859375 34.8859375 231.95 36.7 235.1310546875 38.562890625 236.75 44.45 238.376953125 50.347265625 234.1 56.95 229.81640625 63.546484375 228.35 66.3 234.8951171875 57.305078125 238.15 51.85 241.462890625 46.437890625 239.3 40.25
M 252.15 91.35
Q 263.790625 93.70703125 272.2 98.05 280.6193359375 102.387109375 280.2 108.45 279.9265625 112.3833984375 278.3 114.25 278.6611328125 114.0162109375 279 113.75 279.8 113 280.15 112.05 283.7 102.45 276.4 94.8 274.85 93.2 272.55 92.15 256.45 84.65 238.65 82.25 233.6 81.4 229.45 78.05 228.75 77.45 226.6 75.05 229.05 83.5 235.6 86.75 239.55 88.75 252.15 91.35 Z"/>
</g>

<g id="Copia_de_S_mbolo_1_0_Layer0_0_FILL">
<path fill="url(#Gradient_3)" stroke="none" d="
M 171.8 95.9
Q 171.8 95.1 171.8 94.25 171.8 55.95 142.2 31.85 130.25 22.1 115.55 16.7 102.05 11.75 90.2 11.75 71.05 11.75 53.3 17.35 35 23.15 20.85 34.1 10.05 42.45 2.65 52.8 0 61.45 0 71.2 0 102.65 17.15 123.45 38.9 149.8 83.15 149.8 98.3 149.8 114.15 145.05 130.3 140.15 143.4 131.45 157.45 122.15 165.25 110.05 169.65 103.2 171.8 95.9
M 123.05 32.7
Q 126.3779296875 37.7673828125 126.5 43.95 126.5802734375 45.9421875 126.3 48.05 126 50.05 124.4 51.35 124.2306640625 51.474609375 124.05 51.55 122.50078125 52.5701171875 120.7 52.3 118.65 52 117.4 50.4 116.1 48.7 116.4 46.7 117.05 41.9 114.65 38.15
L 114.65 38.1
Q 112.55 34.8 108.85 33.55
L 108.75 33.55
Q 105.2 32.25 101.95 33.55 99.0775390625 34.7697265625 97.35 37.6 96.8833984375 38.3658203125 96.5 39.25 95.86875 40.6240234375 94.6 41.4 94.2017578125 41.65703125 93.7 41.85 91.75 42.6 89.9 41.8 88 40.95 87.25 39 86.5 37.1 87.35 35.2 87.4 35.1 87.45 35 91 27.05 98.2 24.3 104.8 21.55 112 24.05
L 112.05 24.1
Q 119.05 26.45 123.05 32.7
M 115.3 60.25
Q 114.85 60 114.85 59.45 114.85 58.9 115.3 58.4 115.75 58 116.45 57.9 117.05 57.8 117.5 58.1 117.95 58.45 117.95 59 117.95 59.55 117.5 59.95 117.05 60.35 116.45 60.45 115.75 60.55 115.3 60.25
M 120.15 58.4
Q 120.15 57.65 120.85 57 121.45 56.4 122.35 56.25 123.2 56.15 123.9 56.55 124.5 57 124.5 57.7 124.5 58.45 123.9 59.1 123.2 59.75 122.35 59.85 121.45 60 120.85 59.55 120.15 59.1 120.15 58.4
M 117.35 64.1
Q 117 63.85 117 63.45 117 63.1 117.35 62.75 117.7 62.4 118.15 62.3 118.6 62.25 118.95 62.5 119.3 62.75 119.3 63.1 119.3 63.5 118.95 63.85 118.6 64.2 118.15 64.25 117.7 64.35 117.35 64.1
M 84.95 56.55
Q 86.6 55.25 88.1 56.25 83.6 63.4 74.05 65.6 65.7 67.6 60.85 61.2 57.4 56.7 58 52.45 58 52.4 58.15 52.4 59.8 59.4 66 61.95 69.25 63.3 72.75 62.45 79.5 60.8 84.95 56.55
M 124.5 60.95
Q 124.85 61.25 124.85 61.65 124.85 62.1 124.5 62.45 124.1 62.8 123.6 62.9 123.1 62.95 122.7 62.7 122.35 62.45 122.35 62 122.35 61.6 122.7 61.2 123.1 60.9 123.6 60.85 124.1 60.75 124.5 60.95
M 127.45 56.5
Q 127.45 56.15 127.7 55.9 127.95 55.65 128.4 55.6 128.8 55.55 129.15 55.7 129.4 55.85 129.4 56.2 129.4 56.6 129.15 56.85 128.8 57.15 128.4 57.2 127.95 57.25 127.7 57.05 127.45 56.9 127.45 56.5
M 64.7 24.35
Q 64.75 24.4 64.8 24.45 68.5734375 28.12421875 69.4 33.95 69.3947265625 34.011328125 69.4 34.05 69.6 35.65 68.6 37 68.1 37.65 67.45 38 67.3751953125 38.04609375 67.3 38.1 66.7021484375 38.4115234375 65.95 38.5 64.3 38.75 63 37.75 61.65 36.7 61.45 35.1 61 32 59.1 30.05
L 59.05 30
Q 57.4 28.3 55.2 28.05 55.15 28.05 55.1 28.05 53.05 27.75 51.5 28.85 51.4 28.85 51.4 28.9 50.2173828125 29.7541015625 49.55 31.2 49.238671875 31.941015625 49.05 32.85 49 33 48.95 33.15 48.6 34.75 47.25 35.7 47.066015625 35.818359375 46.85 35.9 45.6396484375 36.560546875 44.25 36.3 42.6 35.95 41.7 34.6 40.75 33.2 41.1 31.6 41.4 30.05 41.9 28.65 43.45 24.55 46.85 22.3 50.85 19.35 56.15 20.1
L 56.05 20.1
Q 61.05 20.6 64.7 24.35
M 42.65 42.7
Q 43.05 43.15 43.05 43.6 43.05 44.15 42.65 44.4 42.25 44.65 41.65 44.55 41.05 44.5 40.7 44.1 40.3 43.7 40.3 43.2 40.3 42.7 40.7 42.45 41.05 42.15 41.65 42.25 42.25 42.3 42.65 42.7
M 40.85 46.6
Q 41.2 46.9 41.2 47.25 41.2 47.6 40.85 47.85 40.55 48.05 40.15 48 39.7 47.95 39.4 47.6 39.1 47.3 39.1 46.95 39.1 46.65 39.4 46.4 39.7 46.15 40.15 46.25 40.55 46.25 40.85 46.6
M 13.1 41.15
Q 13.15 41.1 13.15 41.95
L 13.15 42 12.6 41.4
Q 12.7 41.4 13.1 41.15
M 30.2 41.3
Q 29.95 41.05 29.95 40.7 29.95 40.4 30.2 40.25 30.5 40.1 30.85 40.15 31.25 40.2 31.5 40.45 31.7 40.65 31.7 41 31.7 41.3 31.5 41.5 31.25 41.65 30.85 41.6 30.5 41.55 30.2 41.3
M 37.7 41.4
Q 38.3 42 38.3 42.7 38.3 43.35 37.7 43.7 37.1 44.15 36.35 44 35.55 43.9 34.95 43.3 34.35 42.75 34.35 42.05 34.35 41.4 34.95 41 35.55 40.65 36.35 40.75 37.1 40.85 37.7 41.4
M 34.35 45
Q 34.75 44.8 35.15 44.85 35.65 44.95 36 45.25 36.35 45.6 36.35 46 36.35 46.4 36 46.6 35.65 46.8 35.15 46.75 34.75 46.7 34.35 46.35 34.05 46.05 34.05 45.65 34.05 45.25 34.35 45 Z"/>

<path fill="#CC6633" stroke="none" d="
M 35.15 44.85
Q 34.75 44.8 34.35 45 34.05 45.25 34.05 45.65 34.05 46.05 34.35 46.35 34.75 46.7 35.15 46.75 35.65 46.8 36 46.6 36.35 46.4 36.35 46 36.35 45.6 36 45.25 35.65 44.95 35.15 44.85
M 38.3 42.7
Q 38.3 42 37.7 41.4 37.1 40.85 36.35 40.75 35.55 40.65 34.95 41 34.35 41.4 34.35 42.05 34.35 42.75 34.95 43.3 35.55 43.9 36.35 44 37.1 44.15 37.7 43.7 38.3 43.35 38.3 42.7
M 29.95 40.7
Q 29.95 41.05 30.2 41.3 30.5 41.55 30.85 41.6 31.25 41.65 31.5 41.5 31.7 41.3 31.7 41 31.7 40.65 31.5 40.45 31.25 40.2 30.85 40.15 30.5 40.1 30.2 40.25 29.95 40.4 29.95 40.7
M 41.2 47.25
Q 41.2 46.9 40.85 46.6 40.55 46.25 40.15 46.25 39.7 46.15 39.4 46.4 39.1 46.65 39.1 46.95 39.1 47.3 39.4 47.6 39.7 47.95 40.15 48 40.55 48.05 40.85 47.85 41.2 47.6 41.2 47.25
M 43.05 43.6
Q 43.05 43.15 42.65 42.7 42.25 42.3 41.65 42.25 41.05 42.15 40.7 42.45 40.3 42.7 40.3 43.2 40.3 43.7 40.7 44.1 41.05 44.5 41.65 44.55 42.25 44.65 42.65 44.4 43.05 44.15 43.05 43.6
M 64.8 24.45
Q 64.75 24.4 64.7 24.35 61.05 20.6 56.05 20.1
L 56.15 20.1
Q 50.85 19.35 46.85 22.3 43.45 24.55 41.9 28.65 41.4 30.05 41.1 31.6 40.75 33.2 41.7 34.6 42.6 35.95 44.25 36.3 45.6396484375 36.560546875 46.85 35.9 47.066015625 35.818359375 47.25 35.7 48.6 34.75 48.95 33.15 49 33 49.05 32.85 49.238671875 31.941015625 49.55 31.2 50.2173828125 29.7541015625 51.4 28.9 51.4 28.85 51.5 28.85 53.05 27.75 55.1 28.05 55.15 28.05 55.2 28.05 57.4 28.3 59.05 30
L 59.1 30.05
Q 61 32 61.45 35.1 61.65 36.7 63 37.75 64.3 38.75 65.95 38.5 66.7021484375 38.4115234375 67.3 38.1 67.3751953125 38.04609375 67.45 38 68.1 37.65 68.6 37 69.6 35.65 69.4 34.05 69.3947265625 34.011328125 69.4 33.95 68.5734375 28.12421875 64.8 24.45
M 127.7 55.9
Q 127.45 56.15 127.45 56.5 127.45 56.9 127.7 57.05 127.95 57.25 128.4 57.2 128.8 57.15 129.15 56.85 129.4 56.6 129.4 56.2 129.4 55.85 129.15 55.7 128.8 55.55 128.4 55.6 127.95 55.65 127.7 55.9
M 124.85 61.65
Q 124.85 61.25 124.5 60.95 124.1 60.75 123.6 60.85 123.1 60.9 122.7 61.2 122.35 61.6 122.35 62 122.35 62.45 122.7 62.7 123.1 62.95 123.6 62.9 124.1 62.8 124.5 62.45 124.85 62.1 124.85 61.65
M 88.1 56.25
Q 86.6 55.25 84.95 56.55 79.5 60.8 72.75 62.45 69.25 63.3 66 61.95 59.8 59.4 58.15 52.4 58 52.4 58 52.45 57.4 56.7 60.85 61.2 65.7 67.6 74.05 65.6 83.6 63.4 88.1 56.25
M 117 63.45
Q 117 63.85 117.35 64.1 117.7 64.35 118.15 64.25 118.6 64.2 118.95 63.85 119.3 63.5 119.3 63.1 119.3 62.75 118.95 62.5 118.6 62.25 118.15 62.3 117.7 62.4 117.35 62.75 117 63.1 117 63.45
M 120.85 57
Q 120.15 57.65 120.15 58.4 120.15 59.1 120.85 59.55 121.45 60 122.35 59.85 123.2 59.75 123.9 59.1 124.5 58.45 124.5 57.7 124.5 57 123.9 56.55 123.2 56.15 122.35 56.25 121.45 56.4 120.85 57
M 114.85 59.45
Q 114.85 60 115.3 60.25 115.75 60.55 116.45 60.45 117.05 60.35 117.5 59.95 117.95 59.55 117.95 59 117.95 58.45 117.5 58.1 117.05 57.8 116.45 57.9 115.75 58 115.3 58.4 114.85 58.9 114.85 59.45
M 126.5 43.95
Q 126.3779296875 37.7673828125 123.05 32.7 119.05 26.45 112.05 24.1
L 112 24.05
Q 104.8 21.55 98.2 24.3 91 27.05 87.45 35 87.4 35.1 87.35 35.2 86.5 37.1 87.25 39 88 40.95 89.9 41.8 91.75 42.6 93.7 41.85 94.2017578125 41.65703125 94.6 41.4 95.86875 40.6240234375 96.5 39.25 96.8833984375 38.3658203125 97.35 37.6 99.0775390625 34.7697265625 101.95 33.55 105.2 32.25 108.75 33.55
L 108.85 33.55
Q 112.55 34.8 114.65 38.1
L 114.65 38.15
Q 117.05 41.9 116.4 46.7 116.1 48.7 117.4 50.4 118.65 52 120.7 52.3 122.50078125 52.5701171875 124.05 51.55 124.2306640625 51.474609375 124.4 51.35 126 50.05 126.3 48.05 126.5802734375 45.9421875 126.5 43.95 Z"/>

<path fill="#FFFF00" stroke="none" d="
M 172.25 63.25
Q 171.4 59.1 170.2 55.2 168.1 48.65 164.9 42.7 155.35 25.6 134.4 11.9 114.15 0 90.3 0 75.05 0 59.5 4.5 43.25 9.2 30.35 17.85 9 32.25 2.65 52.8 10.05 42.45 20.85 34.1 35 23.15 53.3 17.35 71.05 11.75 90.2 11.75 102.05 11.75 115.55 16.7 130.25 22.1 142.2 31.85 171.8 55.95 171.8 94.25 171.8 95.1 171.8 95.9 173.8 89 173.8 81.75 173.8 71.75 172.25 63.25 Z"/>
</g>

<g id="Copia_de_S_mbolo_3_0_Layer0_0_FILL">
<path fill="url(#Gradient_4)" stroke="none" d="
M 124 21.85
Q 123.98046875 21.90234375 124 22 124.0951171875 22.6181640625 124.1 21.85
L 124.1 21.8
Q 124.05390625 21.8171875 124 21.85 Z"/>

<path fill="#FFFF00" stroke="none" d="
M 225.05 8.6
L 225.1 8.4
Q 225.2 8.2 225.45 8.2 223.75 7.6 209.7 5.7 195.75 3.9 195.3 3.8 204.85 3.8 215.1 3.15 225.5673828125 2.4576171875 232.15 1.25 228.0048828125 1.0310546875 223.75 0.85 218.65 0.65 213.55 0.55 208 0.35 202.5 0.25 196.6 0.1 190.7 0.05 184.45 0 178.25 0 172.15 0 166.1 0.05 160.25 0.05 154.4 0.1 148.75 0.15 143.1 0.2 137.7 0.25 132.35 0.35 127.2 0.4 122.05 0.55 117.1 0.65 112.2 0.8 110.18515625 0.8427734375 108.15 0.9 105.506640625 0.9642578125 102.85 1.05 97.963671875 1.23515625 93.1 1.4 97.792578125 2.349609375 108.3 4.15
L 108.7 4.15
Q 107.85 4.15 102.25 5.05 96.5 5.95 93.85 6.55 93.45 6.95 93.05 6.95 94.25 7.4 120 11.8
L 120 12.2
Q 119.55 12.3 97.05 15.6 75.45 18.75 74.5 19.05
L 74.5 19.85
Q 75.3 19.85 97.95 20.8 117.609375 21.634765625 124 21.85 124.05390625 21.8171875 124.1 21.8
L 124.1 21.85
Q 125.3197265625 21.883984375 126.05 21.9
L 126.05 22.3
Q 124.45 22.7 102.85 26.45 81.3 30.15 79.75 30.3
L 79.35 30.3
Q 80.1 30.7 88.15 30.7 103.35 30.7 130.15 29.15 162.75 27.2 172.35 24.7 172.35 24.6 172.4 24.5 172.5 24.3 172.7 24.3 172.25 24.05 158.5 20.6 144.95 17.2 143.35 16.2 144.95 15.9 181.4 12.65 219.55 9.3 225.05 8.6
M 69.25 11.4
Q 66.213671875 11.4 61.35 12.35 62.336328125 12.649609375 63.45 13 65.15 13.5 69.15 13.5 72.15 13.5 75.6 13.1 77.45 12.85 80.05 12.5 79.35 12.55 75.7 12 71.7 11.4 69.25 11.4
M 214.5 18.35
L 214.5 18.15
Q 213.2 17.95 204.4 17.45 193.95 16.85 187.4 16.85 182.05 16.85 175.2 17.4 174.64453125 17.4400390625 174.1 17.45 177.2353515625 17.8427734375 181.65 18.55 190.65 20 195.15 20 201.95 20 205.4 19.5 211 18.6 214.5 18.35
M 258.9 12.75
Q 258.75 12.65 258.75 12.5 257.5 12.05 253.15 11.25 248.5 10.4 246.8 10.4 242.6 10.4 241.15 10.55 239.0623046875 10.78203125 237.65 11.35 239.8099609375 11.752734375 242.85 12.4 250.6 14 252.3 14 253.75 14 259 13 259 12.9 258.9 12.75 Z"/>

<path fill="url(#Gradient_5)" stroke="none" d="
M 285.85 13.2
Q 285.7 12.9 285.6 12.65 284.9 11.25 283.45 10.3 279.9 7.95 275.8 6.9 269.55 5.2 263.25 4.2 256.55 3.15 249.8 2.55 243.7 1.8 237.65 1.55 235.4734375 1.4228515625 233.25 1.3 232.730859375 1.2716796875 232.15 1.25 225.5673828125 2.4576171875 215.1 3.15 204.85 3.8 195.3 3.8 195.75 3.9 209.7 5.7 223.75 7.6 225.45 8.2 225.2 8.2 225.1 8.4
L 225.05 8.6
Q 219.55 9.3 181.4 12.65 144.95 15.9 143.35 16.2 144.95 17.2 158.5 20.6 172.25 24.05 172.7 24.3 172.5 24.3 172.4 24.5 172.35 24.6 172.35 24.7 162.75 27.2 130.15 29.15 103.35 30.7 88.15 30.7 80.1 30.7 79.35 30.3
L 79.75 30.3
Q 81.3 30.15 102.85 26.45 124.45 22.7 126.05 22.3
L 126.05 21.9
Q 125.3197265625 21.883984375 124.1 21.85 124.0951171875 22.6181640625 124 22 123.98046875 21.90234375 124 21.85 117.609375 21.634765625 97.95 20.8 75.3 19.85 74.5 19.85
L 74.5 19.05
Q 75.45 18.75 97.05 15.6 119.55 12.3 120 12.2
L 120 11.8
Q 94.25 7.4 93.05 6.95 93.45 6.95 93.85 6.55 96.5 5.95 102.25 5.05 107.85 4.15 108.7 4.15
L 108.3 4.15
Q 97.792578125 2.349609375 93.1 1.4 91.40078125 1.48515625 89.7 1.55 85.6 1.75 81.55 1.95 77.7 2.15 73.9 2.4 66.9 2.9 59.95 3.4 53.95 4 47.95 4.6 42.25 5.35 36.55 6.1 32.4 6.8 28.3 7.5 22.7 8.5 17.1 9.75 12.35 10.85 7.7 12.55
L 6.35 13.1 6.35 13.15
Q 6.3 13.15 6.25 13.2 5.8 13.4 5.4 13.65 4.3 14.4 3.35 15.3 2.7 15.9 2.5 16.75 2.15 18.6 3.75 19.65 4.1201171875 19.921484375 4.5 20.15 5.7064453125 20.9349609375 7.1 21.5 9.55 22.65 12.3 23.5 18.4 25.55 24.8 27.1 29.35 28.25 33.9 29.2 40.2 30.7 46.65 32.3 49.15 32.95 51.7 33.75 53.1 34.15 53.65 35.25 53.4 35.75 53.05 36.15 51.95 37.2 50.45 37.8 47.9 38.7 45.3 39.3 40.7 40.3 36.05 41.25 28.45 42.65 20.8 44.05 13.45 45.4 6.4 47.35 3.55 48.15 1.1 49.7 -0.1 50.45 0 51.9 0.3 52.25 0.7 52.55 2.2 53.65 4.2 54.1 6.25 54.6 8.25 55 10.95 55.45 13.65 55.85 21.05 56.8 28.5 57.45 39.6 58.35 50.85 59 57.95 59.4 65.05 59.75 72.75 60.15 80.45 60.3 89.7 60.5 98.95 60.5 116.85 60.45 134.95 59.45 138.95 59.05 143 58.7 146.4 58.1 148.65 55.7 148.75 55.15 148.7 54.7 148.6 54.1 148.25 53.75 145.4 51.05 141.45 49.9 130.55 46.65 119.15 44.6 120.2 44.55 121.25 44.5 127.65 44.05 133.95 43.7 140.4 43.4 146.95 43.1 152.65 42.75 158.4 42.6 164.9 42.45 171.3 42.05 178.2 41.9 184.85 41.6 190.75 41.35 196.8 41.1 202 40.7 207.35 40.6 213.25 40.25 219 39.95 226 39.55 232.9 38.9 239.15 38.3 245.45 37.7 252.15 36.9 258.7 35.8 264.95 34.6 271.15 32.95 277.5 31.25 281.9 26.55 284.0017578125 24.2642578125 285.05 21.6 286.0576171875 19.23125 286.2 16.55 286.25 15.7 286.2 14.85
L 286.2 14.25
Q 286.05 13.7 285.85 13.2
M 258.75 12.5
Q 258.75 12.65 258.9 12.75 259 12.9 259 13 253.75 14 252.3 14 250.6 14 242.85 12.4 239.8099609375 11.752734375 237.65 11.35 239.0623046875 10.78203125 241.15 10.55 242.6 10.4 246.8 10.4 248.5 10.4 253.15 11.25 257.5 12.05 258.75 12.5
M 214.5 18.15
L 214.5 18.35
Q 211 18.6 205.4 19.5 201.95 20 195.15 20 190.65 20 181.65 18.55 177.2353515625 17.8427734375 174.1 17.45 174.64453125 17.4400390625 175.2 17.4 182.05 16.85 187.4 16.85 193.95 16.85 204.4 17.45 213.2 17.95 214.5 18.15
M 61.35 12.35
Q 66.213671875 11.4 69.25 11.4 71.7 11.4 75.7 12 79.35 12.55 80.05 12.5 77.45 12.85 75.6 13.1 72.15 13.5 69.15 13.5 65.15 13.5 63.45 13 62.336328125 12.649609375 61.35 12.35 Z"/>
</g>

<g id="S_mbolo_7_0_Layer0_0_FILL">
<path fill="#FFFF99" stroke="none" d="
M 34.3 36.2
Q 25.25 35.3 19.4 45.5 15.35 52.6 14.35 60.7 14.2 62.05 14.15 63.2 12.3 62.35 9.7 62.1 3.15 61.5 0.2 65.9 -1.7 68.65 -2.5 74.6 3.8 76 9.75 76.6 32.2 78.8 48.05 75.7 65.6 72.2 66.7 63.25 67.2 59.2 64.3 57.15 62.5 55.9 59.8 55.65 54.6 55.15 52.1 59.3 50.95 61.2 49.2 65.9 49.25 65.25 49.3 64.95 50.75 53.3 46.5 45.15 42.25 36.95 34.3 36.2
M 294.85 38.65
Q 305.1 34.75 305.1 26.4 305.1 18.8 297.9 11.85 292.1 6.25 288.1 5.55 281.1 4.4 276.35 17.95 273.25 26.85 272.15 37.75 272.1083984375 38 272.1 38.25
L 272.1 37.95
Q 272.1 37.85 272.15 37.75 272.15 34.15 270.8 31.25 269.1 27.65 265.95 27.15 261.95 26.45 258.95 35.45 258.9 35.65 258.2 38.15 263.35 39.1 268.75 40 284.45 42.6 294.85 38.65 Z"/>
</g>

<g id="S_mbolo_8_0_Layer0_0_FILL">
<path fill="#005858" stroke="none" d="
M 14.95 28.05
Q 16 27.95 16.9 27.9 19.7701171875 27.67578125 22.85 27.2 23.2392578125 27.156640625 23.6 27.1 23.6392578125 27.0607421875 23.65 27 24.2490234375 26.44765625 24.95 25.7 25.4025390625 25.2474609375 25.75 24.8 25.812109375 24.7927734375 25.85 24.75 21.1890625 26.1208984375 15.5 26.7 11.5650390625 27.133984375 7.1 27.15 3.9873046875 27.2076171875 0.6 27.05 0.6384765625 27.1267578125 0.7 27.2 0.7267578125 27.2267578125 0.75 27.25 0.9 27.5 1.1 27.75 1.5291015625 27.77265625 2.05 27.8 2.705078125 27.8677734375 3.5 27.95 6.35 28.2 7.6 28.2 11.8 28.2 14.95 28.05 Z"/>

<path fill="#FFCC00" stroke="none" d="
M 12.4 24.65
Q 12.337109375 24.657421875 12.25 24.65 9.8154296875 24.9537109375 8.45 25.1 8.12421875 25.6212890625 7.6 26.4 7.340234375 26.4 7.05 26.4 6.25 26.4 3.7 26.35 1.3 26.3 0 26.25 0.0873046875 26.372265625 0.15 26.5 1.467578125 26.553515625 3.7 26.6 6.25 26.65 7.05 26.65 7.35 26.65 7.65 26.65 7.7232421875 26.519921875 7.8 26.4 8.1568359375 25.76875 8.45 25.35 9.8 25.2 12.3 24.95 12.35 24.9 12.4 24.9 13.5 24.8 14.8 24.6
L 14.75 24.35
Q 13.4904296875 24.55078125 12.4 24.65
M 12.2 23.2
L 12.25 23.2
Q 13.3 23.1 14.6 22.95
L 14.55 22.7
Q 13.290625 22.8421875 12.2 22.95
L 12.2 23.2
M 5.3 24.1
Q 5.4158203125 24.2599609375 5.45 24.35 6.30234375 24.141796875 7.2 24
L 7.15 23.7
Q 6.233203125 23.910546875 5.3 24.1
M 27.25 23.1
Q 27.4763671875 22.8984375 27.65 22.7 24.85 24.05 19.45 25.1 18.15 25.35 16.85 25.6 16.803125 25.6080078125 16.75 25.6 16.7529296875 25.583203125 16.75 25.55 16.65 24.8 16.55 24.2 15.95 24.25 15.15 24.35
L 11.9 0.05 11.65 0.05 11.65 0.3 11.9 0.3 15.15 24.6
Q 15.95 24.5 16.55 24.45 16.6384765625 24.9806640625 16.7 25.6 16.7384765625 25.71328125 16.75 25.8 16.75 25.85 16.75 25.9 16.8 25.85 16.85 25.85 18.15 25.6 19.45 25.35 24.5046875 24.3671875 27.25 23.1
M 7.3 23.7
L 7.3 23.95 7.35 23.95
Q 8.5 23.7 9.7 23.55
L 9.7 23.3
Q 8.4873046875 23.4728515625 7.3 23.7
M 9.8 23.3
L 9.85 23.55
Q 10.45 23.45 11.1 23.35 11.55 23.3 12.1 23.25
L 12.1 22.95
Q 11.569921875 23.04296875 11.1 23.1 10.455078125 23.1806640625 9.8 23.25
L 9.8 23.3 Z"/>

<path fill="#006666" stroke="none" d="
M 7.2 24.2
L 7.2 24
Q 6.30234375 24.141796875 5.45 24.35
L 7.2 24.2
M 11.9 0.3
L 11.65 0.3 14.55 22.7 14.6 22.95
Q 13.3 23.1 12.25 23.2
L 12.2 23.2 12.2 23.85 14.7 23.6 14.75 24.1 14.8 24.35 14.75 24.35 14.8 24.6
Q 13.5 24.8 12.4 24.9 12.35 24.9 12.3 24.95 9.8 25.2 8.45 25.35 8.1568359375 25.76875 7.8 26.4 12.473828125 26.3431640625 16.7 25.6 16.6384765625 24.9806640625 16.55 24.45 15.95 24.5 15.15 24.6
L 11.9 0.3
M 9.45 25.75
Q 9.45 25.85 9.35 25.95 9.3 26.05 9.2 26.05 9.1 26.05 9 25.95 8.95 25.85 8.95 25.75 8.95 25.65 9 25.55 9.1 25.5 9.2 25.5 9.3 25.5 9.35 25.55 9.45 25.65 9.45 25.75
M 10.7 25.7
Q 10.7 25.8 10.6 25.85 10.55 25.95 10.45 25.95 10.35 25.95 10.25 25.85 10.2 25.8 10.2 25.7 10.2 25.6 10.25 25.5 10.35 25.45 10.45 25.45 10.55 25.45 10.6 25.5 10.7 25.6 10.7 25.7
M 11.75 25.6
Q 11.75 25.7 11.65 25.75 11.6 25.8 11.5 25.8 11.45 25.8 11.4 25.75 11.35 25.7 11.35 25.6 11.35 25.55 11.4 25.45 11.45 25.4 11.5 25.4 11.6 25.4 11.65 25.45 11.75 25.55 11.75 25.6
M 7.35 23.95
L 7.3 23.95 7.35 24.2 9.7 24 9.7 23.55
Q 8.5 23.7 7.35 23.95
M 9.85 23.55
L 9.85 24 12.1 23.85
Q 12.1099609375 23.7287109375 12.1 23.6
L 12.1 23.25
Q 11.55 23.3 11.1 23.35 10.45 23.45 9.85 23.55
M 16.65 30.1
Q 16.5 30 15.85 29.75 15.2 29.5 15.05 29.5
L 15.05 29.4
Q 16 29.3 22.05 29.35 25.5 29.35 26.25 28.4
L 26.2 28.35 23 27.75 23.1 27.75
Q 23.45 27.5 24.85 27.05
L 23.65 27
Q 23.6392578125 27.0607421875 23.6 27.1 23.2392578125 27.156640625 22.85 27.2 19.7701171875 27.67578125 16.9 27.9 16 27.95 14.95 28.05 11.8 28.2 7.6 28.2 6.35 28.2 3.5 27.95 2.705078125 27.8677734375 2.05 27.8 1.10078125 27.8828125 1 27.95 1.5 28.25 3.8 28.5
L -0.45 29.1
Q 0.3 29.15 3.6 29.4 7.35 29.65 8.05 29.65
L 8.05 29.7
Q 5.2 30.1 5 30.3 5.1 30.3 5.15 30.4
L 7.4 30.45
Q 8 30.45 11.5 30.6 15.05 30.65 16.75 30.15
L 16.65 30.1
M 15.65 32.45
Q 12.25 32.05 10.6 32.05
L 7.55 32.15
Q 7.98671875 32.2546875 8.35 32.4 9.5 32.9 11.1 32.9 13.4 32.9 15.65 32.45 Z"/>

<path fill="#009393" stroke="none" d="
M 5.45 24.35
L 5.15 24.4 5.2 24.55 7.2 24.35 7.35 24.35 9.7 24.2 9.85 24.2 14.7 23.8 14.75 24.1 14.7 23.6 12.2 23.85 12.1 23.85 9.85 24 9.7 24 7.35 24.2 7.2 24.2 5.45 24.35
M 25.9 24.7
Q 26.6896484375 23.79765625 27.25 23.1 24.5046875 24.3671875 19.45 25.35 18.15 25.6 16.85 25.85 16.8 25.85 16.75 25.9 16.75 25.85 16.75 25.8 16.7384765625 25.71328125 16.7 25.6 12.473828125 26.3431640625 7.8 26.4 7.7232421875 26.519921875 7.65 26.65 7.35 26.65 7.05 26.65 6.25 26.65 3.7 26.6 1.467578125 26.553515625 0.15 26.5 0.372265625 26.7572265625 0.6 27.05 3.9873046875 27.2076171875 7.1 27.15 11.5650390625 27.133984375 15.5 26.7 21.1890625 26.1208984375 25.85 24.75
L 25.9 24.7 Z"/>

<path fill="#004343" stroke="none" d="
M 11.65 25.75
Q 11.75 25.7 11.75 25.6 11.75 25.55 11.65 25.45 11.6 25.4 11.5 25.4 11.45 25.4 11.4 25.45 11.35 25.55 11.35 25.6 11.35 25.7 11.4 25.75 11.45 25.8 11.5 25.8 11.6 25.8 11.65 25.75
M 10.6 25.85
Q 10.7 25.8 10.7 25.7 10.7 25.6 10.6 25.5 10.55 25.45 10.45 25.45 10.35 25.45 10.25 25.5 10.2 25.6 10.2 25.7 10.2 25.8 10.25 25.85 10.35 25.95 10.45 25.95 10.55 25.95 10.6 25.85
M 9.35 25.95
Q 9.45 25.85 9.45 25.75 9.45 25.65 9.35 25.55 9.3 25.5 9.2 25.5 9.1 25.5 9 25.55 8.95 25.65 8.95 25.75 8.95 25.85 9 25.95 9.1 26.05 9.2 26.05 9.3 26.05 9.35 25.95
M 9.85 23.55
L 9.7 23.55 9.7 24 9.85 24 9.85 23.55
M 7.2 24
L 7.2 24.2 7.35 24.2 7.3 23.95
Q 7.2466796875 23.9533203125 7.2 24
M 12.1 23.25
L 12.1 23.6
Q 12.1099609375 23.7287109375 12.1 23.85
L 12.2 23.85 12.2 23.2
Q 12.1416015625 23.2083984375 12.1 23.25 Z"/>

<path fill="#FF9900" stroke="none" d="
M 9.7 23.3
L 9.7 23.55 9.85 23.55 9.8 23.3 9.8 23.25
Q 9.759765625 23.2904296875 9.7 23.3
M 7.3 23.95
L 7.3 23.7
Q 7.244921875 23.711328125 7.15 23.7
L 7.2 24
Q 7.2466796875 23.9533203125 7.3 23.95
M 12.2 23.2
L 12.2 22.95
Q 12.1681640625 22.9673828125 12.1 22.95
L 12.1 23.25
Q 12.1416015625 23.2083984375 12.2 23.2 Z"/>
</g>
</defs>

<g transform="matrix( 1, 0, 0, 1, 0,0) ">
<use xlink:href="#Layer0_0_FILL"/>
</g>

<g transform="matrix( 0.9757843017578125, 0.132598876953125, -0.1416473388671875, 1.0423431396484375, 200.75,82.75) ">
<g transform="matrix( 1, 0, 0, 1, 0,0) ">
<use xlink:href="#Copia_de_S_mbolo_2_0_Layer0_0_FILL"/>
</g>
</g>

<g transform="matrix( 1.253082275390625, 0, 0, 1.3385467529296875, 203.55,132.05) ">
<g transform="matrix( 1, 0, 0, 1, 0,0) ">
<use xlink:href="#Copia_de_S_mbolo_1_0_Layer0_0_FILL"/>
</g>
</g>

<g transform="matrix( 1.3898773193359375, 0, 0, 1.3898773193359375, 71.4,277.8) ">
<g transform="matrix( 1, 0, 0, 1, 0,0) ">
<use xlink:href="#Copia_de_S_mbolo_3_0_Layer0_0_FILL"/>
</g>
</g>

<g transform="matrix( 1, 0, 0, 1, 131.9,62.35) ">
<g transform="matrix( 1, 0, 0, 1, 0,0) ">
<use xlink:href="#S_mbolo_7_0_Layer0_0_FILL"/>
</g>
</g>

<g transform="matrix( 2.9122772216796875, 0, 0, 2.9122772216796875, 129.4,260.8) ">
<g transform="matrix( 1, 0, 0, 1, 0,0) ">
<use xlink:href="#S_mbolo_8_0_Layer0_0_FILL"/>
</g>
</g>
</svg>
