
<svg xmlns="http://www.w3.org/2000/svg" version="1.1" xmlns:xlink="http://www.w3.org/1999/xlink" preserveAspectRatio="none" x="0px" y="0px" width="550px" height="400px" viewBox="0 0 550 400">
<defs>
<g id="S_mbolo_2_0_Layer0_0_FILL">
<path fill="#000000" stroke="none" d="
M 129.3 37.8
Q 129.35 37 129.35 36.35 129.55 34.05 129.5 32.2 129.4 28.65 128.4 26.05 125.35 18.05 113.8 18.05 100 18.05 93.55 30 93.05 30.9 92.6 31.9 87.25 31.4 81.6 31 81.9 29 82.2 27.3 83.2 20.9 83.2 18.35 83.4 16.05 83.35 14.15 83.3 10.65 82.3 8 79.2 0 67.65 0 53.9 0 47.45 11.95 44.1 18.15 42.8 27.3 42.65 28.35 42.55 29.45 41.95 29.4 41.4 29.4 31.3 29.1 14.15 31.55 8.75 47.35 5.55 65.5 2.75 81.05 1.3 98.25 0 113.3 0 125.7 0 128.05 0.25 136.4 0.5 147.65 0.85 153.4 0.95 154.95 1.25 159.3 11.75 161.15 19 162.5 52.3 167.75 82.2 167.75 92.05 167.75 104.6 167.15 123.1 166.05 142.8 162.7 141.7 155.3 141.05 150.6 138.1 129 138.1 112.6 138.1 98.7 138.95 89.55 139.9 79.6 142.75 64.95 144.65 55.2 148.7 43.45 139.9 40.3 129.3 37.8
M 124.7 27.75
Q 125.5 29.8 125.6 32.6 125.65 34.1 125.55 36.35 125.55 36.65 125.55 37 124.05 36.65 122.55 36.35 112 34.35 103.6 33.15 100.15 32.7 96.5 32.3 101.75 21.9 113.65 21.9 122.35 21.9 124.7 27.75
M 122.1 39.45
Q 123.65 39.7 129 40.65 137.3 42.25 144.8 44.05 142.6 50.5 140.75 58.1 137.7 70.35 136 83.2 134.45 95.25 134.45 104.6 134.45 123.15 136.5 141.85 137.6 152.4 139.2 160.15 122.4 162.45 103.9 163.4 101.85 152.4 101.5 148 99.65 127.1 99.65 115.4 99.65 111.1 99.7 109.1
L 99.7 96.1
Q 101.1 68.5 104.45 49.85 105.45 44.2 107.1 37.2 113.35 38 119.15 38.95 118.7 42.35 118.35 45.85 116.3 64.05 116.3 85.25 116.3 104.35 117.25 119.1 117.55 124.2 117.95 128.65
L 118.5 132.95 117.55 134.3
Q 115.75 137.05 113.65 140.5 105.05 154.65 105.05 159.2 105.05 159.75 105.25 159.9 105.35 160 105.8 160.1 110.55 152.55 117.95 139.6 118.5 138.65 119.5 136.9
L 122.5 140.8
Q 123.45 142.15 128.8 150.3 133.1 156.85 133.95 156.85 134.45 156.85 134.6 156.65
L 134.7 156.45
Q 134.85 156.65 134.85 155.85 130.7 148 125.9 140.15 123.6 136.45 121.65 133.65
L 121.65 133.6 121.2 130
Q 121.05 128.45 121 127.95 119 106.5 119 85.2 119 63.9 122.1 39.45
M 95.05 35.7
Q 95.4 35.75 95.75 35.8 99.35 36.2 102.8 36.65 101.5 42.85 100.35 49.9 96.3 75.35 96.3 102.45 96.3 115 96.55 122.3 96.95 133.3 97.95 142.15 98.35 145.45 98.9 152.05 99.5 158.05 100.35 162 100.5 162.65 100.7 163.55 89.95 164 78.6 164 51.6 164 17.8 159.05 11.75 158.15 5.8 157.15 4.1 135.75 4.1 125.7 4.1 118.15 6.3 94.85 8.15 75.2 9 69.3 11.15 53.6 17.7 33.9 28.8 32.55 40.95 32.55 41.6 32.55 46.2 32.6 61 32.8 80.95 34.35 86.05 34.75 95.05 35.7
M 67.5 3.85
Q 76.2 3.85 78.6 9.75 79.35 11.75 79.45 14.6 79.5 16.05 79.4 18.35 79.4 20.8 78.2 27.3 77.9 28.9 77.6 30.7 63.1 29.8 46.6 29.5 46.7 28.3 46.85 27.3 47.2 24.45 47.35 23.45 51.2 3.85 67.5 3.85 Z"/>

<path fill="#FFFFFF" stroke="none" d="
M 95.75 35.8
Q 95.4 35.75 95.05 35.7 86.05 34.75 80.95 34.35 61 32.8 46.2 32.6 41.6 32.55 40.95 32.55 28.8 32.55 17.7 33.9 11.15 53.6 9 69.3 8.15 75.2 6.3 94.85 4.1 118.15 4.1 125.7 4.1 135.75 5.8 157.15 11.75 158.15 17.8 159.05 51.6 164 78.6 164 89.95 164 100.7 163.55 100.5 162.65 100.35 162 99.5 158.05 98.9 152.05 98.35 145.45 97.95 142.15 96.95 133.3 96.55 122.3 96.3 115 96.3 102.45 96.3 75.35 100.35 49.9 101.5 42.85 102.8 36.65 99.35 36.2 95.75 35.8
M 129 40.65
Q 123.65 39.7 122.1 39.45 119 63.9 119 85.2 119 106.5 121 127.95 121.05 128.45 121.2 130
L 121.65 133.6 121.65 133.65
Q 123.6 136.45 125.9 140.15 130.7 148 134.85 155.85 134.85 156.65 134.7 156.45
L 134.6 156.65
Q 134.45 156.85 133.95 156.85 133.1 156.85 128.8 150.3 123.45 142.15 122.5 140.8
L 119.5 136.9
Q 118.5 138.65 117.95 139.6 110.55 152.55 105.8 160.1 105.35 160 105.25 159.9 105.05 159.75 105.05 159.2 105.05 154.65 113.65 140.5 115.75 137.05 117.55 134.3
L 118.5 132.95 117.95 128.65
Q 117.55 124.2 117.25 119.1 116.3 104.35 116.3 85.25 116.3 64.05 118.35 45.85 118.7 42.35 119.15 38.95 113.35 38 107.1 37.2 105.45 44.2 104.45 49.85 101.1 68.5 99.7 96.1
L 99.7 109.1
Q 99.65 111.1 99.65 115.4 99.65 127.1 101.5 148 101.85 152.4 103.9 163.4 122.4 162.45 139.2 160.15 137.6 152.4 136.5 141.85 134.45 123.15 134.45 104.6 134.45 95.25 136 83.2 137.7 70.35 140.75 58.1 142.6 50.5 144.8 44.05 137.3 42.25 129 40.65 Z"/>
</g>

<g id="S_mbolo_3_0_Layer0_0_FILL">
<path fill="#000000" stroke="none" d="
M 177.8 44.2
Q 177.75 39.35 176.35 35.75 172.1 24.75 156.3 24.75 137.35 24.75 128.5 41.2 127.8 42.45 127.2 43.85 119.8 43.1 112.05 42.55 112.5 39.85 112.9 37.5 114.3 28.7 114.3 25.2 114.5 22.05 114.5 19.45 114.4 14.6 113 11 108.8 0 92.9 0 74 0 65.15 16.4 60.55 24.9 58.8 37.5 58.6 38.9 58.45 40.45 57.65 40.4 56.85 40.4 42.95 39.95 19.4 43.35 12.05 65 7.65 89.95 3.8 111.25 1.8 134.9 0 155.6 0 172.6 0 175.85 0.3 187.35 0.65 202.75 1.2 210.65 1.3 212.8 1.75 218.8 16.15 221.3 26.1 223.15 71.8 230.35 112.9 230.35 126.4 230.35 143.65 229.5 169.05 228.05 196.1 223.45 194.6 213.25 193.7 206.8 189.65 177.15 189.65 154.65 189.65 135.55 190.8 123 192.15 109.35 196.05 89.15 198.6 75.85 204.2 59.65 192.15 55.35 177.55 51.95 177.65 50.8 177.65 49.9 177.9 46.75 177.8 44.2
M 171.25 38.15
Q 172.35 40.9 172.45 44.8 172.55 46.85 172.4 49.9 172.4 50.3 172.4 50.8 170.35 50.3 168.25 49.9 153.85 47.15 142.3 45.55 137.5 44.95 132.5 44.4 139.7 30.05 156.1 30.05 168.05 30.05 171.25 38.15
M 177.2 55.85
Q 188.55 58 198.8 60.5 195.85 69.4 193.25 79.8 189.1 96.65 186.8 114.3 184.6 130.8 184.6 143.65 184.6 169.1 187.4 194.8 188.95 209.25 191.2 219.9 168.1 223.05 142.7 224.35 139.85 209.3 139.35 203.25 136.85 174.5 136.85 158.5 136.85 152.55 136.9 149.8
L 136.9 132
Q 138.85 94.05 143.45 68.45 144.8 60.7 147.05 51.05 155.65 52.2 163.65 53.5 163 58.15 162.5 62.95 159.75 87.95 159.75 117.05 159.75 143.3 161 163.55 161.4 170.55 162 176.65
L 162.7 182.6 161.4 184.45
Q 158.95 188.2 156.05 192.95 144.2 212.4 144.2 218.6 144.2 219.35 144.5 219.6 144.7 219.75 145.3 219.85 151.8 209.45 162 191.75 162.75 190.4 164.1 188
L 168.25 193.35
Q 169.55 195.15 176.85 206.35 182.8 215.45 183.95 215.45 184.6 215.45 184.8 215.15
L 184.95 214.85
Q 185.2 215.15 185.2 214 179.5 203.25 172.85 192.5 169.7 187.4 167.1 183.5
L 167.05 183.45 166.45 178.5
Q 166.2 176.4 166.15 175.65 163.4 146.3 163.4 116.95 163.4 87.75 167.7 54.15 169.8 54.5 177.2 55.85
M 166.9 183.25
Q 166.9 183.15 166.9 183.05
L 166.95 183.35
Q 166.9 183.3 166.9 183.25
M 130.55 49.05
Q 130.95 49.1 131.5 49.15 136.45 49.7 141.2 50.3 139.35 58.8 137.8 68.5 132.25 103.45 132.25 140.7 132.25 157.9 132.55 167.95 133.1 183.05 134.55 195.2 135.1 199.7 135.85 208.8 136.65 217 137.8 222.45 138 223.35 138.3 224.6 123.5 225.25 107.95 225.25 70.9 225.25 24.45 218.45 16.15 217.2 7.95 215.8 5.6 186.45 5.6 172.6 5.6 162.25 8.6 130.25 11.2 103.25 12.4 95.15 15.3 73.6 24.3 46.5 39.55 44.7 56.25 44.7 57.1 44.7 63.45 44.8 83.75 45 111.15 47.15 118.15 47.75 130.55 49.05
M 107.9 13.4
Q 109 16.15 109.15 20 109.2 22.05 109 25.2 109 28.55 107.4 37.5 107 39.7 106.55 42.15 86.65 40.9 63.95 40.5 64.1 38.85 64.3 37.5 64.8 33.55 65.05 32.2 70.3 5.3 92.7 5.3 104.65 5.3 107.9 13.4 Z"/>

<path fill="#FFFFFF" stroke="none" d="
M 131.5 49.15
Q 130.95 49.1 130.55 49.05 118.15 47.75 111.15 47.15 83.75 45 63.45 44.8 57.1 44.7 56.25 44.7 39.55 44.7 24.3 46.5 15.3 73.6 12.4 95.15 11.2 103.25 8.6 130.25 5.6 162.25 5.6 172.6 5.6 186.45 7.95 215.8 16.15 217.2 24.45 218.45 70.9 225.25 107.95 225.25 123.5 225.25 138.3 224.6 138 223.35 137.8 222.45 136.65 217 135.85 208.8 135.1 199.7 134.55 195.2 133.1 183.05 132.55 167.95 132.25 157.9 132.25 140.7 132.25 103.45 137.8 68.5 139.35 58.8 141.2 50.3 136.45 49.7 131.5 49.15
M 198.8 60.5
Q 188.55 58 177.2 55.85 169.8 54.5 167.7 54.15 163.4 87.75 163.4 116.95 163.4 146.3 166.15 175.65 166.2 176.4 166.45 178.5
L 167.05 183.45 167.1 183.5
Q 169.7 187.4 172.85 192.5 179.5 203.25 185.2 214 185.2 215.15 184.95 214.85
L 184.8 215.15
Q 184.6 215.45 183.95 215.45 182.8 215.45 176.85 206.35 169.55 195.15 168.25 193.35
L 164.1 188
Q 162.75 190.4 162 191.75 151.8 209.45 145.3 219.85 144.7 219.75 144.5 219.6 144.2 219.35 144.2 218.6 144.2 212.4 156.05 192.95 158.95 188.2 161.4 184.45
L 162.7 182.6 162 176.65
Q 161.4 170.55 161 163.55 159.75 143.3 159.75 117.05 159.75 87.95 162.5 62.95 163 58.15 163.65 53.5 155.65 52.2 147.05 51.05 144.8 60.7 143.45 68.45 138.85 94.05 136.9 132
L 136.9 149.8
Q 136.85 152.55 136.85 158.5 136.85 174.5 139.35 203.25 139.85 209.3 142.7 224.35 168.1 223.05 191.2 219.9 188.95 209.25 187.4 194.8 184.6 169.1 184.6 143.65 184.6 130.8 186.8 114.3 189.1 96.65 193.25 79.8 195.85 69.4 198.8 60.5 Z"/>
</g>

<g id="S_mbolo_1_0_Layer0_0_FILL">
<path fill="#000000" stroke="none" d="
M 224.55 63.1
Q 224.85 59.1 224.75 55.9 224.65 49.75 222.9 45.2 217.55 31.3 197.55 31.3 173.6 31.3 162.4 52.05 161.55 53.65 160.75 55.4 151.45 54.5 141.6 53.8 142.2 50.35 142.7 47.4 144.45 36.3 144.45 31.85 144.75 27.85 144.7 24.6 144.6 18.45 142.85 13.9 137.5 0 117.45 0 93.55 0 82.35 20.75 76.55 31.5 74.3 47.4 74.05 49.2 73.85 51.1 72.85 51.05 71.85 51.05 54.3 50.5 24.55 54.8 15.2 82.15 9.65 113.7 4.8 140.65 2.25 170.5 0 196.7 0 218.15 0 222.25 0.4 236.8 0.85 256.3 1.5 266.25 1.65 268.95 2.2 276.55 20.4 279.75 33 282.05 90.75 291.15 142.7 291.15 159.8 291.15 181.6 290.1 213.65 288.25 247.9 282.45 245.95 269.55 244.85 261.4 239.7 223.9 239.7 195.45 239.7 171.35 241.2 155.45 242.85 138.2 247.8 112.7 251.05 95.85 258.1 75.4 242.85 69.95 224.45 65.65 224.55 64.2 224.55 63.1
M 181.3 86.5
Q 183.05 76.75 185.9 64.55 196.75 65.95 206.85 67.6 206.05 73.5 205.4 79.6 201.9 111.2 201.9 147.95 201.9 181.1 203.5 206.75 204 215.6 204.75 223.3
L 205.65 230.8 204 233.15
Q 200.9 237.9 197.25 243.9 182.3 268.45 182.3 276.3 182.3 277.25 182.65 277.55 182.9 277.75 183.65 277.9 191.9 264.75 204.75 242.35 205.7 240.65 207.45 237.65
L 212.65 244.4
Q 214.3 246.7 223.55 260.85 231.05 272.3 232.5 272.3 233.35 272.3 233.6 271.95
L 233.8 271.55
Q 234.1 271.95 234.1 270.5 226.9 256.9 218.5 243.3 214.5 236.85 211.2 231.95
L 211.15 231.9 210.4 225.65
Q 210.1 223 210 222.05 206.55 184.9 206.55 147.85 206.55 110.9 211.95 68.45 214.65 68.9 223.95 70.6 238.35 73.3 251.3 76.5 247.55 87.7 244.3 100.85 239.05 122.15 236.1 144.45 233.35 165.35 233.35 181.55 233.35 213.75 236.9 246.25 238.85 264.5 241.65 277.95 212.45 281.95 180.35 283.6 176.8 264.55 176.15 256.9 172.95 220.6 172.95 200.35 172.95 192.85 173.05 189.35
L 173.05 166.85
Q 175.5 118.9 181.3 86.5
M 178.45 63.6
Q 176.15 74.35 174.2 86.6 167.15 130.75 167.15 177.85 167.15 199.6 167.55 212.3 168.25 231.4 170.05 246.75 170.75 252.45 171.7 263.9 172.7 274.3 174.2 281.2 174.45 282.3 174.8 283.9 156.1 284.7 136.45 284.7 89.6 284.7 30.9 276.1 20.4 274.55 10.05 272.8 7.1 235.65 7.1 218.15 7.1 205.1 10.9 164.65 14.15 130.5 15.65 120.25 19.35 93.05 30.7 58.8 50 56.5 71.1 56.5 72.2 56.5 80.2 56.6 105.85 56.9 140.5 59.6 149.35 60.35 165 62 165.55 62.05 166.2 62.1 172.45 62.85 178.45 63.6
M 179.85 57.55
Q 173.8 56.8 167.5 56.1 176.6 38 197.3 38 212.4 38 216.45 48.2 217.85 51.7 218 56.6 218.1 59.2 217.9 63.1 217.9 63.6 217.9 64.2 215.3 63.6 212.7 63.1 194.45 59.6 179.85 57.55
M 137.8 31.85
Q 137.8 36.1 135.75 47.4 135.25 50.15 134.7 53.3 109.55 51.7 80.85 51.2 81.05 49.1 81.3 47.4 81.9 42.4 82.2 40.7 88.85 6.7 117.2 6.7 132.3 6.7 136.4 16.95 137.75 20.4 137.95 25.3 138 27.9 137.8 31.85
M 211 231.75
Q 210.95 231.7 210.95 231.65 210.95 231.5 210.95 231.35
L 211 231.75
M 70.5 166.35
Q 70.35 166.95 70.35 171.5 70.35 183.8 76.4 190.9 81.85 197.25 89.75 197.15 97.6 197.05 103.1 190.65 109.2 183.65 109.2 171.95
L 108.9 167.5
Q 107.95 163.05 105 163.05 102.75 163.05 101.6 167.05 100.55 172.6 99.9 175.8 98.65 181.7 96.4 184.65 93.4 188.65 87.85 188.65 82.15 188.65 79.95 180.25 78.85 176 78.9 171.35 78.9 171.3 79.15 169.8 79.4 168.05 79.25 166.6 78.8 162.05 74.95 162.05 71.3 162.05 70.5 166.35
M 72.9 92.55
Q 65.5 83.95 54.85 84.1 44.2 84.25 36.75 92.85 28.55 102.4 28.55 118.2
L 28.95 124.25
Q 30.15 130.3 34.15 130.3 37.25 130.3 38.75 124.9 40.2 117.3 41.1 113 42.8 105 45.8 101.05 49.9 95.6 57.35 95.6 65.15 95.6 68.05 106.95 69.55 112.7 69.5 119 69.5 119.1 69.15 121.15 68.85 123.5 69 125.45 69.65 131.6 74.8 131.6 79.8 131.6 80.9 125.8 81.1 124.95 81.1 118.85 81.1 102.15 72.9 92.55
M 146.3 88.95
Q 139.2 80.25 128.8 81.45 118.45 82.7 111.2 92.85 103.25 104.1 103.25 121.2
L 103.6 126.85
Q 104.7 132.55 108.4 132.55 111.3 132.55 113.25 126.5 113.6 125.4 116.4 113.25 118.5 104.3 120.95 100 124.45 93.95 130 93.95 138.15 93.95 140.95 105.5 142.4 111.25 142.2 117.45 142.2 121.55 140.9 132.4 140.9 134.15 141.85 135.95 143.4 138.95 146.8 138.95 152.3 138.95 153.8 128.65 154.3 125.4 154.35 121.3 154.25 117.65 154.25 117.25 154.25 98.7 146.3 88.95 Z"/>

<path fill="#FFFFFF" stroke="none" d="
M 174.2 86.6
Q 176.15 74.35 178.45 63.6 172.45 62.85 166.2 62.1 165.55 62.05 165 62 149.35 60.35 140.5 59.6 105.85 56.9 80.2 56.6 72.2 56.5 71.1 56.5 50 56.5 30.7 58.8 19.35 93.05 15.65 120.25 14.15 130.5 10.9 164.65 7.1 205.1 7.1 218.15 7.1 235.65 10.05 272.8 20.4 274.55 30.9 276.1 89.6 284.7 136.45 284.7 156.1 284.7 174.8 283.9 174.45 282.3 174.2 281.2 172.7 274.3 171.7 263.9 170.75 252.45 170.05 246.75 168.25 231.4 167.55 212.3 167.15 199.6 167.15 177.85 167.15 130.75 174.2 86.6
M 128.8 81.45
Q 139.2 80.25 146.3 88.95 154.25 98.7 154.25 117.25 154.25 117.65 154.35 121.3 154.3 125.4 153.8 128.65 152.3 138.95 146.8 138.95 143.4 138.95 141.85 135.95 140.9 134.15 140.9 132.4 142.2 121.55 142.2 117.45 142.4 111.25 140.95 105.5 138.15 93.95 130 93.95 124.45 93.95 120.95 100 118.5 104.3 116.4 113.25 113.6 125.4 113.25 126.5 111.3 132.55 108.4 132.55 104.7 132.55 103.6 126.85
L 103.25 121.2
Q 103.25 104.1 111.2 92.85 118.45 82.7 128.8 81.45
M 54.85 84.1
Q 65.5 83.95 72.9 92.55 81.1 102.15 81.1 118.85 81.1 124.95 80.9 125.8 79.8 131.6 74.8 131.6 69.65 131.6 69 125.45 68.85 123.5 69.15 121.15 69.5 119.1 69.5 119 69.55 112.7 68.05 106.95 65.15 95.6 57.35 95.6 49.9 95.6 45.8 101.05 42.8 105 41.1 113 40.2 117.3 38.75 124.9 37.25 130.3 34.15 130.3 30.15 130.3 28.95 124.25
L 28.55 118.2
Q 28.55 102.4 36.75 92.85 44.2 84.25 54.85 84.1
M 70.35 171.5
Q 70.35 166.95 70.5 166.35 71.3 162.05 74.95 162.05 78.8 162.05 79.25 166.6 79.4 168.05 79.15 169.8 78.9 171.3 78.9 171.35 78.85 176 79.95 180.25 82.15 188.65 87.85 188.65 93.4 188.65 96.4 184.65 98.65 181.7 99.9 175.8 100.55 172.6 101.6 167.05 102.75 163.05 105 163.05 107.95 163.05 108.9 167.5
L 109.2 171.95
Q 109.2 183.65 103.1 190.65 97.6 197.05 89.75 197.15 81.85 197.25 76.4 190.9 70.35 183.8 70.35 171.5
M 185.9 64.55
Q 183.05 76.75 181.3 86.5 175.5 118.9 173.05 166.85
L 173.05 189.35
Q 172.95 192.85 172.95 200.35 172.95 220.6 176.15 256.9 176.8 264.55 180.35 283.6 212.45 281.95 241.65 277.95 238.85 264.5 236.9 246.25 233.35 213.75 233.35 181.55 233.35 165.35 236.1 144.45 239.05 122.15 244.3 100.85 247.55 87.7 251.3 76.5 238.35 73.3 223.95 70.6 214.65 68.9 211.95 68.45 206.55 110.9 206.55 147.85 206.55 184.9 210 222.05 210.1 223 210.4 225.65
L 211.15 231.9 211.2 231.95
Q 214.5 236.85 218.5 243.3 226.9 256.9 234.1 270.5 234.1 271.95 233.8 271.55
L 233.6 271.95
Q 233.35 272.3 232.5 272.3 231.05 272.3 223.55 260.85 214.3 246.7 212.65 244.4
L 207.45 237.65
Q 205.7 240.65 204.75 242.35 191.9 264.75 183.65 277.9 182.9 277.75 182.65 277.55 182.3 277.25 182.3 276.3 182.3 268.45 197.25 243.9 200.9 237.9 204 233.15
L 205.65 230.8 204.75 223.3
Q 204 215.6 203.5 206.75 201.9 181.1 201.9 147.95 201.9 111.2 205.4 79.6 206.05 73.5 206.85 67.6 196.75 65.95 185.9 64.55 Z"/>
</g>
</defs>

<g transform="matrix( 1, 0, 0, 1, 31.15,153.75) ">
<g transform="matrix( 1, 0, 0, 1, 0,0) ">
<use xlink:href="#S_mbolo_2_0_Layer0_0_FILL"/>
</g>
</g>

<g transform="matrix( 1, 0, 0, 1, 306.85,115.7) ">
<g transform="matrix( 1, 0, 0, 1, 0,0) ">
<use xlink:href="#S_mbolo_3_0_Layer0_0_FILL"/>
</g>
</g>

<g transform="matrix( 1, 0, 0, 1, 94.75,64.9) ">
<g transform="matrix( 1, 0, 0, 1, 0,0) ">
<use xlink:href="#S_mbolo_1_0_Layer0_0_FILL"/>
</g>
</g>
</svg>
