
<svg xmlns="http://www.w3.org/2000/svg" version="1.1" xmlns:xlink="http://www.w3.org/1999/xlink" preserveAspectRatio="none" x="0px" y="0px" width="550px" height="400px" viewBox="0 0 550 400">
<defs>
<linearGradient id="Gradient_1" gradientUnits="userSpaceOnUse" x1="283.88750000000005" y1="291.5875" x2="282.3125" y2="362.2125" spreadMethod="pad">
<stop  offset="0%" stop-color="#75CBC8"/>

<stop  offset="100%" stop-color="#9AFCFF"/>
</linearGradient>

<linearGradient id="Gradient_2" gradientUnits="userSpaceOnUse" x1="127.57499999999999" y1="19.5" x2="127.625" y2="177.3" spreadMethod="pad">
<stop  offset="0%" stop-color="#200000"/>

<stop  offset="100%" stop-color="#5F5852"/>
</linearGradient>

<linearGradient id="Gradient_3" gradientUnits="userSpaceOnUse" x1="295.65000000000003" y1="214.175" x2="282.45" y2="70.72499999999998" spreadMethod="pad">
<stop  offset="0%" stop-color="#850000"/>

<stop  offset="52.94117647058823%" stop-color="#D00000"/>

<stop  offset="100%" stop-color="#FF0000"/>
</linearGradient>

<linearGradient id="Gradient_4" gradientUnits="userSpaceOnUse" x1="203.5875" y1="243.425" x2="223.01250000000002" y2="121.57499999999999" spreadMethod="pad">
<stop  offset="0%" stop-color="#850000"/>

<stop  offset="52.94117647058823%" stop-color="#D00000"/>

<stop  offset="100%" stop-color="#FF0000"/>
</linearGradient>

<g id="Layer7_0_FILL">
<path fill="#517979" stroke="none" d="
M 550.2 -1
L 0 -1 0 400 550.2 400 550.2 -1
M 427.75 13.5
Q 449.2 16.45 479.05 23 486.46171875 24.611328125 504 28.65 530.85 130.32578125 530.85 272.5 530.85 317.1 526.45 352.7 526.156640625 355.037890625 525.45 359.6 492.494140625 365.90625 448.9 371.55 389.9830078125 380.7900390625 340 382.3 315.669140625 383.75 295.85 383.75 224.8 383.75 128.6 372.45 95.9640625 368.61328125 39.8 360.2 37.0759765625 345.750390625 34.2 327.2 26.35 276.85 26.35 244.6 26.35 152.95 39.95 83.95 44.3046875 61.98125 51.05 37.4 59.090625 35.1158203125 64.4 33.7 93.5 25.9 122.6 20.95 176.1470703125 11.744921875 247.1 9.15 249.7380859375 8.325 252.35 7.6 254.50703125 8.198828125 256.65 8.8 280.3810546875 8.1 306 8.1 351.5 8.1 376.6 9.15 404.7 10.3 427.75 13.5 Z"/>

<path fill="#669999" stroke="none" d="
M 479.05 23
Q 449.2 16.45 427.75 13.5 404.7 10.3 376.6 9.15 351.5 8.1 306 8.1 280.3810546875 8.1 256.65 8.8 254.50703125 8.198828125 252.35 7.6 249.7380859375 8.325 247.1 9.15 176.1470703125 11.744921875 122.6 20.95 93.5 25.9 64.4 33.7 59.090625 35.1158203125 51.05 37.4 44.3046875 61.98125 39.95 83.95 26.35 152.95 26.35 244.6 26.35 276.85 34.2 327.2 37.0759765625 345.750390625 39.8 360.2 95.9640625 368.61328125 128.6 372.45 224.8 383.75 295.85 383.75 315.669140625 383.75 340 382.3 389.9830078125 380.7900390625 448.9 371.55 492.494140625 365.90625 525.45 359.6 526.156640625 355.037890625 526.45 352.7 530.85 317.1 530.85 272.5 530.85 130.32578125 504 28.65 486.46171875 24.611328125 479.05 23 Z"/>
</g>

<g id="Layer6_0_FILL">
<path fill="url(#Gradient_1)" stroke="none" d="
M 331 204.55
Q 332.45 206.15 334.05 206.15 337.75 206.15 338.25 201.35 338.55 198.45 338.7 197.9 334.15 195.45 318.2 191.55 305.55 188.45 297.5 187.05 297.6 189.75 299.35 191.5 300.9 193.1 302.8 193.1 305.45 193.15 306.85 194.75 308.2 196.35 309.2 196.35 309.5 196.35 310.1 196.05 310.7 195.75 311.05 195.75 312.7 195.75 313.75 196.8 314.75 197.9 314.75 199.75 314.75 200.4 314.25 204.55 314.25 206.3 315.05 207.7 316 209.35 317.55 209.35 319.95 209.35 320.1 206.45 319.8 203.1 319.8 202.25 319.8 201.2 320.6 200.55 321.35 200 322.45 200 324.7 200 324.8 202.15 324.95 204.25 326.05 204.25 326.8 204.25 327.35 203.35 327.65 202.9 328.05 202.15 329.3 202.6 331 204.55
M 293.55 224.65
Q 292.6 223.85 291.8 223.85 270.25 231.5 247.8 240.6 239.45 243.6 235.05 245.35 227.05 248.6 227.05 250.55 227.05 251.25 227.55 251.5 227.8015625 251.6078125 228.25 251.7 228.15 252.421875 228.15 253.15 228.15 254.5 228.65 255.5 229.35 256.85 230.65 256.85 231.85 256.85 234.05 254.75 236.2 252.6 236.65 252.6 237.3 252.6 237.35 252.7 237.5 252.85 238 253.9 238.8 253.15 240 252.4 241.55 251.5 242.4 251.5 244.5 251.5 245.15 253.6 245.45 254.55 245.65 258.15 245.95 264.8 250.5 264.8 252.55 264.8 254.2 263 255.8 261.25 255.8 259.4 255.8 258.95 254.75 255.45 253.65 251.95 253.65 250.85 253.65 248.6 255 248.6
L 256.1 249.15
Q 257.15 249.65 257.4 249.65 258.8 249.65 259.7 246.75 260.65 243.8 263.65 243.8 264.45 243.8 265.8 244.2 267.15 244.6 267.9 244.6 270.9 244.6 273.15 242.9 275.8 240.9 275 238 275.15 238 277.35 238.75 279.35 238.75 280.3 236.5 281.25 234.25 283.2 234.25 285.6 234.25 286.3 238.65 286.95 243 289.05 243 290.7 243 292.5 241.75 294.6 240.25 294.6 238.35 294.6 237.2 293.45 236.15 292.25 235.1 292.25 233.85 292.9 232.8 293.6 231.7 294.9 229.55 294.9 227.6 294.9 225.75 293.55 224.65 Z"/>
</g>

<g id="S_mbolo_1_0_Layer0_0_FILL">
<path fill="#FFFFFF" stroke="none" d="
M 130.55 236.8
Q 125 237.45 122.3 238.15
L 122.35 239.75 122.75 239.75
Q 126.5 239.9 133 239.35
L 132.95 236.55
Q 131.8 236.65 130.55 236.8
M 122.25 232.55
Q 128 232.3 130.05 230.85 128.85 230.25 122.35 230.3 122.3 230.3 122.2 230.3
L 122.25 232.55
M 122.05 219.95
L 122.05 221.45 122.1 221.5 130.65 221.75
Q 131.7 221.7 132.65 221.65
L 132.65 220.35
Q 131.9 220.35 131.1 220.4
L 122.25 220.1
Q 122.15 220.05 122.05 219.95
M 123.75 288.5
Q 127.5 288.65 130.35 287.75 133.05 286.95 133.1 285.8 133.1 285.25 133 285.2 132.85 285.2 132.85 285.1 129.45 284.8 123.9 286.1 123.5 286.25 123.15 286.35
L 123.1 286.35 123.2 288.5
Q 123.5 288.5 123.75 288.5
M 133.65 281.2
L 133.6 278.15
Q 126.65 278.6 123 279.2
L 123.05 281.5
Q 124.05 282 126.25 282.1 129.35 282.2 133.65 281.2
M 123.25 270.35
Q 123.05 270.4 122.85 270.5
L 122.9 272.25
Q 123.95 272 125.05 271.7 130.15 270.3 133.45 269.25
L 133.45 267.6
Q 128.85 269.05 123.25 270.35
M 132.15 250.95
Q 132.65 250.75 133.15 250.6
L 133.15 249.65
Q 124.15 249.45 123 250.95 123.25 251.15 123.25 251.35
L 127.35 251.65
Q 130.05 251.75 132.15 250.95
M 122.4 243.25
L 122.4 245.3
Q 123.15 245.2 124 244.95 124.6 244.85 129.75 245.3 131.85 245.5 133.1 245.1
L 133.05 243.85
Q 126.5 242.45 122.4 243.25
M 121.9 212.5
L 121.9 212.6
Q 122 212.7 122.3 212.8 122.75 213.05 122.75 213.1
L 124.7 213.2
Q 126.05 213.25 132.5 212.1
L 132.55 212
Q 131.45 211.9 127.55 212.1 122.9 212.5 121.9 212.5
M 132.4 205.2
L 132.35 201.6
Q 126 202.3 124.8 204.4 125 204.8 126.2 205.2 127.25 205.55 127.9 205.55 129.1 205.6 132.4 205.2
M 121.6 194.95
L 121.65 197.1
Q 121.8 197.15 122 197.15 124.65 197.25 132.25 195.75
L 132.2 192.35
Q 131.65 192.4 131.05 192.5 123.4 193.65 121.6 194.95
M 127.3 188.85
Q 129.2 188.4 131.3 187.7 131.3 187.6 131.05 187.55
L 130.75 187.55
Q 129.3 187.3 127 187.9 124.4 188.6 121.5 188.7
L 121.55 189.75 122.4 189.85
Q 123.75 189.9 127.3 188.85
M 122.55 181.1
L 126.15 181.2
Q 126.45 181.2 128.1 180.65 129.95 180.1 130.6 179.75 128.9 179.6 127.45 179.6 126.85 179.65 122.55 179.8 121.85 180 121.85 180.6 122.1 180.9 122.55 181.1
M 121.3 177.15
L 121.35 177.15
Q 121.65 177.3 122.3 177.35 123.35 177.35 126.35 176.7 130.05 175.9 131.5 174.85 131.4 174.65 131.35 174.6 131.3 174.55 130.75 174.5 123.45 175.5 121.35 176.65
L 121.35 176.95 121.3 177.15
M 120.9 150.25
L 120.85 150.25 120.85 151.1 120.9 151.1
Q 121.3 151.15 121.7 151.2 122.35 151.2 127.9 150.6 129.75 150.4 131.5 150.3
L 131.5 149.4 131.45 149.05
Q 126.25 149.35 123.35 149.85 121.9 150.1 120.9 150.25
M 121.1 164.15
L 121.15 166.1
Q 124.55 166.1 127.95 165.6 130.3 165.3 131.75 164.8
L 131.7 163.05
Q 129.2 162.75 124.75 163.5 122.6 163.9 121.1 164.15
M 121 155.95
L 121 157.15
Q 121.9 157 125.05 156.35 128.65 155.5 129.4 155 126.65 154.75 123.15 155.45 121.8 155.7 121 155.95
M 130.2 140.3
Q 127.2 139.4 122.55 140.45 121.55 140.65 120.75 140.9
L 120.7 140.9 120.75 142.6
Q 120.8 142.6 120.85 142.6 121.6 142.6 125.4 141.6 129.65 140.4 130.2 140.3
M 122.85 130.2
Q 125.95 130.65 127.1 130.7 129.25 130.75 131.2 130.75
L 131.15 127.6
Q 130.3 127.55 129.45 127.6 123.45 127.9 120.5 128.4
L 120.55 129.8
Q 121.55 130 122.85 130.2
M 121.6 120.6
Q 121.6 121.45 121.8 121.6 121.85 121.65 122.8 121.9 123.55 121.8 131 121.3
L 130.95 116.85
Q 130.1 116.95 129.2 117.05 121.7 118.15 121.6 120.6
M 127.7 110.35
Q 127.35 110.15 127.35 110.1 123.25 110.55 120.25 111.2
L 120.2 111.75 120.25 112.45
Q 121.25 112.25 122.55 112 127.1 111.1 128.2 110.65 128.1 110.5 127.7 110.35 Z"/>

<path fill="url(#Gradient_2)" stroke="none" d="
M 122.1 221.5
L 122.05 221.45 122.2 230.3
Q 122.3 230.3 122.35 230.3 128.85 230.25 130.05 230.85 128 232.3 122.25 232.55
L 122.3 238.15
Q 125 237.45 130.55 236.8 131.8 236.65 132.95 236.55
L 132.65 220.35 132.65 221.65
Q 131.7 221.7 130.65 221.75
L 122.1 221.5
M 122.3 212.8
Q 122 212.7 121.9 212.6
L 122.05 219.95
Q 122.15 220.05 122.25 220.1
L 131.1 220.4
Q 131.9 220.35 132.65 220.35
L 132.5 212.1
Q 126.05 213.25 124.7 213.2
L 122.75 213.1
Q 122.75 213.05 122.3 212.8
M 126.25 282.1
Q 124.05 282 123.05 281.5
L 123.15 286.35
Q 123.5 286.25 123.9 286.1 129.45 284.8 132.85 285.1 132.85 285.2 133 285.2 133.1 285.25 133.1 285.8 133.05 286.95 130.35 287.75 127.5 288.65 123.75 288.5 123.5 288.5 123.2 288.5
L 123.2 293
Q 123.25 295.15 124.85 296.7 125.45 297.25 126.1 297.6
L 126.25 305.95
Q 126.25 306.95 127 307.7 127.75 308.4 128.8 308.4 129.8 308.4 130.55 307.65 131.25 306.9 131.25 305.9
L 131.15 297.55
Q 131.8 297.15 132.35 296.55 133.85 294.95 133.85 292.8
L 133.65 281.2
Q 129.35 282.2 126.25 282.1
M 133.45 269.25
Q 130.15 270.3 125.05 271.7 123.95 272 122.9 272.25
L 123 279.2
Q 126.65 278.6 133.6 278.15
L 133.45 269.25
M 124 244.95
Q 123.15 245.2 122.4 245.3
L 122.85 270.5
Q 123.05 270.4 123.25 270.35 128.85 269.05 133.45 267.6
L 133.15 250.6
Q 132.65 250.75 132.15 250.95 130.05 251.75 127.35 251.65
L 123.25 251.35
Q 123.25 251.15 123 250.95 124.15 249.45 133.15 249.65
L 133.1 245.1
Q 131.85 245.5 129.75 245.3 124.6 244.85 124 244.95
M 122.35 239.75
L 122.4 243.25
Q 126.5 242.45 133.05 243.85
L 133 239.35
Q 126.5 239.9 122.75 239.75
L 122.35 239.75
M 122 197.15
Q 121.8 197.15 121.65 197.1
L 121.9 212.5
Q 122.9 212.5 127.55 212.1 131.45 211.9 132.55 212
L 132.4 205.2
Q 129.1 205.6 127.9 205.55 127.25 205.55 126.2 205.2 125 204.8 124.8 204.4 126 202.3 132.35 201.6
L 132.25 195.75
Q 124.65 197.25 122 197.15
M 121.15 166.1
L 121.35 176.65
Q 123.45 175.5 130.75 174.5 131.3 174.55 131.35 174.6 131.4 174.65 131.5 174.85 130.05 175.9 126.35 176.7 123.35 177.35 122.3 177.35 121.65 177.3 121.35 177.15
L 121.5 188.7
Q 124.4 188.6 127 187.9 129.3 187.3 130.75 187.55
L 131.05 187.55
Q 131.3 187.6 131.3 187.7 129.2 188.4 127.3 188.85 123.75 189.9 122.4 189.85
L 121.55 189.75 121.6 194.95
Q 123.4 193.65 131.05 192.5 131.65 192.4 132.2 192.35
L 131.75 164.8
Q 130.3 165.3 127.95 165.6 124.55 166.1 121.15 166.1
M 126.15 181.2
L 122.55 181.1
Q 122.1 180.9 121.85 180.6 121.85 180 122.55 179.8 126.85 179.65 127.45 179.6 128.9 179.6 130.6 179.75 129.95 180.1 128.1 180.65 126.45 181.2 126.15 181.2
M 120.9 151.1
L 121 155.95
Q 121.8 155.7 123.15 155.45 126.65 154.75 129.4 155 128.65 155.5 125.05 156.35 121.9 157 121 157.15
L 121.1 164.15
Q 122.6 163.9 124.75 163.5 129.2 162.75 131.7 163.05
L 131.5 150.3
Q 129.75 150.4 127.9 150.6 122.35 151.2 121.7 151.2 121.3 151.15 120.9 151.1
M 127.1 130.7
Q 125.95 130.65 122.85 130.2 121.55 130 120.55 129.8
L 120.75 140.9
Q 121.55 140.65 122.55 140.45 127.2 139.4 130.2 140.3 129.65 140.4 125.4 141.6 121.6 142.6 120.85 142.6 120.8 142.6 120.75 142.6
L 120.9 150.25
Q 121.9 150.1 123.35 149.85 126.25 149.35 131.45 149.05
L 131.5 149.4 131.2 130.75
Q 129.25 130.75 127.1 130.7
M 244.95 74.95
Q 244.85 74.5 244.6 74.2
L 236.45 81.9 230.8 81.7
Q 230.45 81.7 230.2 81.85 229.8 81.95 229.6 82.2
L 224.3 88.05 221.85 86.7 242.4 65.9
Q 241.8 65.4 241 65.35 239.95 65.25 239.2 65.95
L 233.25 70.9 231 66.05 238.45 50.9
Q 237.9 50.7 237.35 50.8 236.3 50.9 235.65 51.75
L 231.8 56.85 229.75 55.45 234.6 47.35
Q 234.9 46.75 234.75 46.2 234.65 45.6 234.1 45.3
L 226.45 55.1
Q 226.15 55.6 226.25 56.15 226.4 56.7 226.9 57.1
L 229.95 59.25 226.15 64.2
Q 225.65 64.75 225.6 65.45 225.5 66.15 225.85 66.8
L 229.25 74.2 219.05 82.55 215.5 77.8 217.65 75.85
Q 217.7 75.75 217.85 75.65
L 220.75 72.75
Q 221.05 72.4 221.15 72 221.2 71.5 221.05 71.1
L 218.45 65 223 55
Q 222.6 54.85 222.15 54.95 221.55 55.05 221.2 55.55
L 217.05 61.7 215.25 57.5
Q 215 56.9 214.5 56.65 214.05 56.5 213.6 56.6
L 217.9 71.4 216.75 72.55 210.65 68
Q 210.4 68.3 210.35 68.65 210.3 69.25 210.7 69.75
L 214.6 74.65 212.5 76.55
Q 212.05 76.95 212 77.55 212 78.1 212.3 78.55
L 216.7 84.4 216.65 84.45 208.6 91.1 201.2 85.7
Q 200.75 85.35 200.25 85.25 199.75 85.15 199.15 85.25
L 175.65 90.75 175.8 86.3 181.1 82.7
Q 181.4 82.5 181.55 82.2 181.7 81.85 181.75 81.5
L 180.75 76.75
Q 180.6 76.65 180.4 76.65 179.8 76.65 179.35 77.1 178.85 77.5 178.85 78.1
L 178.75 80.65 173.5 84.3
Q 173.15 84.45 173 84.8 172.85 85.1 172.85 85.45
L 172.65 91.4 170.45 91.95 168.35 85.8 170.9 84.65
Q 171.25 84.45 171.55 84.1 171.75 83.7 171.75 83.3
L 171.8 81.95
Q 171.8 81.9 171.8 81.8
L 171.55 77.55 193.15 72.2 194.6 76.15
Q 194.7 76.55 195.1 76.85 195.4 77.15 195.85 77.15 196.3 77.15 196.7 77
L 205.25 72.6
Q 205.8 72.35 206 71.75 206.1 71.3 206.05 70.95
L 196.85 73.6 196.15 71.5 197.8 71.05
Q 198.3 70.9 198.75 70.6 199.15 70.25 199.4 69.75
L 208.1 52.85 208.15 52.9
Q 208.55 53.25 209.1 53.25
L 211.75 53.35
Q 212.35 53.4 212.8 53
L 219.3 47.15
Q 219.8 46.75 219.8 46.15 219.8 45.7 219.6 45.35
L 211.25 50.35 209.75 50.3 209.5 50.1 215.9 37.65
Q 216.3 36.7 216 35.75 215.75 34.9 214.95 34.4
L 202.9 52 198.25 45.8 205.35 23.05
Q 204.45 22.65 203.45 23 202.5 23.35 202.15 24.35
L 193.05 45.15
Q 192.75 45.75 192.85 46.45 192.95 47.1 193.35 47.7
L 200.4 56.95 195.45 66.45 193.2 67.05 193.25 67.05 184.65 69.2 181.9 59.6 190.5 50.05
Q 190.05 49.6 189.5 49.6 188.9 49.55 188.45 49.95
L 185.2 52.8 180.2 47.55
Q 179.85 47.85 179.7 48.3 179.55 48.9 179.9 49.45
L 182.85 54.8 179.2 57.95
Q 178.85 58.25 178.7 58.7 178.6 59.1 178.75 59.55
L 181.8 69.9 164.05 74.3 163 72.1 169.55 69.35
Q 170.05 69.1 170.3 68.6 170.55 68.05 170.4 67.55
L 166.7 61.3
Q 166.25 61.5 166 61.95 165.7 62.5 165.9 63.1
L 167.1 67.1 160.35 69.95
Q 160 70.15 159.75 70.5 159.5 70.8 159.45 71.25 159.45 71.65 159.65 72
L 161.1 75 158 75.8 158.15 71.35
Q 158.2 70.75 157.8 70.3 157.35 69.8 156.75 69.8
L 153.5 69.7 153.7 69.6
Q 154.1 69.35 154.35 68.9 154.5 68.45 154.45 68
L 153.45 61.6 160.2 61.85
Q 161 61.9 161.65 61.45 162.25 61 162.6 60.35
L 167.6 48.25 167.6 48.2 169.95 42.5 196.65 27.85
Q 197.5 27.35 197.85 26.4 198.1 25.55 197.75 24.8
L 166.8 38.55
Q 166 38.95 165.65 39.8
L 163.05 46.25 156.35 47.7 148.1 47.4 162.4 38
Q 162.5 37.9 162.6 37.85
L 179.9 23.6
Q 179.45 23.1 178.75 22.95 177.75 22.7 176.9 23.3
L 161.7 32.55 158.15 27.95 158.25 24.8 160.6 18.15 164.9 18.3
Q 165.25 18.3 165.55 18.2 165.85 18.05 166.1 17.75
L 170.5 12.45
Q 170.85 11.95 170.85 11.35 170.75 10.75 170.25 10.35
L 164.3 15.3 161.65 15.2 164.45 7.4
Q 164.8 6.4 164.4 5.5 164.15 5 163.75 4.7
L 153.65 22.75 151.3 22.65 150.1 11.7
Q 149.55 11.7 149.15 12.1 148.65 12.55 148.65 13.15
L 148.25 24.05
Q 148.25 24.65 148.7 25.1 149.1 25.55 149.7 25.6
L 153.2 25.7 153.1 28.65
Q 153.1 29.55 153.65 30.3
L 157.45 35.15 151.25 39 151.3 39 142.8 44.25
Q 142.25 44.5 141.95 45.1 141.6 45.65 141.6 46.25
L 141.5 49.25 136 50.85 135.3 45.05 135.35 45
Q 135.35 44.85 135.35 44.7
L 135.05 42.85 135.05 42.75 134.6 39.85
Q 134.6 39.7 134.6 39.6
L 134.6 39.55 133.95 35.35 143.8 26.25
Q 143.5 26.05 143.15 25.95 142.5 25.85 142 26.2
L 131.5 33.45
Q 131.1 33.65 130.95 34.05 130.8 34.45 130.9 34.9
L 131.35 38.25 127.75 38.1
Q 127.15 38.1 126.7 38.5 126.25 38.95 126.2 39.55 126.2 40.15 126.65 40.6 127.05 41.1 127.65 41.1
L 131.8 41.25 132.1 43.1 132.1 43.15
Q 132.05 43.2 132.1 43.25
L 132.15 44.1 125.85 46.95 123.4 31.8 134.05 28.45
Q 134.75 28.25 135.3 27.6 135.75 26.95 135.8 26.15
L 135.9 23.15
Q 139.6 22.55 142.5 19.45 143.9 18 144.85 16.3
L 144.85 16.25
Q 146.4 13.3 146.5 9.65 146.55 9.05 146.1 8.6 145.7 8.2 145.15 8.1 144.9 9.65 144.15 11.65 143.4 13.55 142.45 14.9 141.45 16.2 140.35 17.35 138.35 19.4 136 20.05
L 136.6 2.45
Q 136.65 1.4 135.95 0.7 135.5 0.2 134.95 0
L 130.85 24.25 122.55 26.8 115.1 0.8
Q 114.45 1.05 114.1 1.65 113.45 2.45 113.65 3.5
L 117.9 29.3 115.75 30.05 113.8 20.3
Q 113.75 19.75 113.35 19.45 112.9 19.05 112.4 19.05
L 105.05 20.4
Q 105.1 20.95 105.45 21.35 105.9 21.85 106.5 21.85
L 111.15 22 113.1 32.25
Q 113.2 32.65 113.45 33 113.75 33.3 114.2 33.45 114.6 33.5 115 33.4
L 118.4 32.3 122.85 59.6 116.15 62.8 112.85 58.9
Q 112.45 58.5 112 58.3 111.5 58.05 111 58.05
L 107.25 57.9 112.05 42.65
Q 112.3 41.85 112 41
L 95.8 4.95
Q 95.5 5 95.15 5.15 94.2 5.5 93.8 6.5 93.4 7.45 93.75 8.4
L 100.6 25.85
Q 95.85 25 92.05 22.45 91.35 21.95 90.7 21.4 88.3 19.45 87.05 17.3 85.5 14.65 85.65 11.6 85.65 10.55 85 9.85 84.25 9.1 83.3 9.05 83.25 9.55 83.15 10.25 82.7 13.35 83.55 18.05 84.4 22.75 87.55 25.3
L 87.6 25.35
Q 87.7 25.4 87.85 25.55
L 85.85 28 80.3 24.6
Q 80.15 24.65 80.05 24.8 79.65 25.25 79.7 25.9 79.7 26.5 80.2 26.9
L 85 31.25
Q 85.3 31.55 85.7 31.65 86.1 31.7 86.5 31.55 86.9 31.45 87.15 31.15
L 90.3 27.3
Q 95.7 30.6 102.7 31.2
L 105.85 39.1 100 41.65 95.5 34.65
Q 95.25 34.35 94.95 34.15 94.6 33.95 94.25 33.95
L 86.2 35.5
Q 86.3 35.9 86.6 36.25 87 36.7 87.6 36.7
L 93.4 36.9 98.2 44.3
Q 98.5 44.75 99 44.9 99.55 45.1 100.05 44.85
L 106.9 41.9 107 42.1 101.5 59.55
Q 101.25 60.3 101.5 61.1 101.7 61.85 102.4 62.3 103 62.8 103.8 62.8
L 109.8 63 111.45 65 104.4 68.4
Q 103.8 68.65 103.4 69.25 103 69.85 102.95 70.55
L 102.75 77.4 96.05 79.85
Q 95.5 80 95.25 80.5 94.95 80.95 95.1 81.55
L 95.6 84.2 91.95 84.3 90.95 80.5 95.9 78
Q 96.35 77.75 96.6 77.3 96.8 76.75 96.6 76.25
L 92.15 62.95 92.2 61.75 97.95 57.3
Q 97.95 57.2 97.9 57.15 97.65 56.6 97.05 56.4 96.45 56.25 95.9 56.55
L 94.4 57.35 89.75 49.95 89.7 49.95
Q 89.1 50.2 88.9 50.8 88.65 51.3 88.9 51.95
L 91.75 58.65 90.1 59.5
Q 89.7 59.65 89.45 60 89.25 60.35 89.25 60.75
L 89.15 63.1
Q 89.15 63.35 89.25 63.65
L 93.35 75.9 90.2 77.5 86.35 62.2
Q 86.15 61.55 85.65 61.05 85.15 60.55 84.5 60.4
L 84.75 53.1
Q 84.6 53.05 84.45 53.05 83.85 53 83.4 53.45 82.9 53.9 82.9 54.5
L 82.85 55.4 81.55 59.8 73.2 57.95 75.2 51.7
Q 75.35 51.2 75.3 50.7
L 75.1 48.8 82.1 47.5
Q 82.45 47.4 82.8 47.15 83.1 46.9 83.2 46.5 83.35 46.1 83.25 45.7
L 80.3 32.95
Q 80.15 32.35 79.6 32.05 79.2 31.75 78.75 31.8
L 79.95 44.85 74.85 45.85 68.5 11.85
Q 67.6 11.95 67 12.7 66.4 13.5 66.5 14.5
L 70.3 50.7 68.3 56.9 58.2 54.7 57.6 50.9 60.5 49.25
Q 60.9 49 61.1 48.55 61.3 48.15 61.25 47.7
L 58.25 38
Q 57.6 38.1 57.2 38.55 56.85 39.05 56.95 39.7
L 58.1 47.1 57.1 47.75 56.5 44.2
Q 56.5 44 56.45 43.85
L 53.75 27.55 57.3 26.45
Q 57.75 26.3 58.05 25.95 58.3 25.55 58.35 25.05
L 56.9 18.25
Q 56.35 18.25 56 18.65 55.55 19.1 55.5 19.7
L 55.35 23.9 53.25 24.55 52.6 20.85
Q 52.45 19.85 51.6 19.25 50.75 18.65 49.8 18.8
L 51.25 43.05 45.8 45.7 44.6 44.65
Q 44.85 44.55 45.05 44.35 45.45 44 45.65 43.55 45.75 43.05 45.5 42.5
L 40.85 32.85 43 30.8
Q 43.5 30.4 43.5 29.8 43.5 29.2 43.1 28.7 43 28.6 42.95 28.55
L 38 31.4
Q 37.65 31.75 37.55 32.25 37.45 32.7 37.7 33.15
L 41.75 41.6 41.7 41.6
Q 41.45 41.6 41.25 41.7
L 31.5 32.85
Q 30.7 32.1 29.7 32.15 28.85 32.25 28.25 32.75
L 39.9 47.15 43.7 50.5
Q 44.2 51.05 45 51.15 45.7 51.25 46.4 50.95
L 52.05 48.25 53.5 57.15
Q 53.65 57.9 54.15 58.5 54.7 59 55.45 59.2
L 69.15 62.15
Q 69.45 62.25 69.75 62.3
L 81.8 64.9 81.9 64.95 88.35 90.55 74.7 90.1 75.05 80.2
Q 75.05 79.6 74.65 79.1 74.2 78.65 73.65 78.65
L 69.1 78.5 67.8 67.7
Q 67.3 67.75 66.9 68.15 66.45 68.6 66.4 69.2
L 66.05 79.9
Q 66.05 80.5 66.45 80.95 66.9 81.4 67.5 81.45
L 72.05 81.6 71.75 90 63.55 89.7 52.55 77.9
Q 51.85 77.15 50.8 77.1
L 44.25 76.85 45.15 73.05 49.65 73.2
Q 50.25 73.2 50.75 72.8 51.2 72.35 51.2 71.75
L 50.15 65.25
Q 50.05 65.25 49.95 65.25 49.35 65.25 48.85 65.65 48.4 66.1 48.4 66.7
L 48.25 70.2 44 70.05
Q 43.45 70.05 43.05 70.3 42.65 70.65 42.5 71.15
L 41.2 76.75 36.2 76.6
Q 36.1 76.4 35.95 76.2
L 29.85 69.5 33.2 64.05
Q 33.35 63.65 33.4 63.25 33.4 62.85 33.15 62.45
L 31.75 60.05
Q 32.55 59.25 33.3 57.65 33.25 52.4 33.2 49.95
L 33.15 49.95
Q 32.55 49.95 32.1 50.35 31.6 50.8 31.6 51.4 31.5 54.35 30.55 56.5
L 30.5 56.45
Q 30.3 57 30.1 57.35
L 28.45 54.7
Q 28.15 54.15 27.55 54 26.95 53.85 26.45 54.2 26.35 54.25 26.25 54.3
L 30.15 63.2 26.75 68.9
Q 26.45 69.3 26.55 69.75 26.6 70.25 26.9 70.6
L 32.15 76.45 22.9 76.15 10 54.2
Q 9.1 54.65 8.75 55.55 8.4 56.55 8.85 57.55
L 15.15 71.2 11.9 73.15 9 66.55
Q 8.75 66.05 8.25 65.8 7.8 65.55 7.2 65.75
L 6.1 66.05
Q 5.25 62.75 4.95 61.05 4.85 61.05 4.8 61.05 4.2 61 3.7 61.45 3.25 61.9 3.25 62.5
L 3.05 67 1.1 67.6
Q 0.5 67.75 0.15 68.35 -0.1 68.8 0.05 69.35
L 6.8 68.95 9.85 75.95
Q 10.05 76.35 10.45 76.6 10.8 76.8 11.25 76.85 11.65 76.85 12.05 76.6
L 16.4 73.95 19 79.65
Q 19.3 80.25 19.85 80.7 20.45 81.05 21.15 81.1
L 49.55 82.05 53.85 86.65 51.3 89.45 51.3 89.5 51.15 89.4 41.95 88.45
Q 41.75 89 42.1 89.55 42.35 90.05 42.95 90.25
L 50.5 92.35
Q 50.65 92.4 50.85 92.4
L 51.9 92.45
Q 52.25 92.45 52.55 92.35 52.85 92.2 53.05 92
L 55.9 88.85 60.6 93.9
Q 61.3 94.65 62.35 94.65
L 89.65 95.6 89.95 97
Q 90.15 97.85 90.8 98.35 91.45 98.85 92.3 98.9
L 104.1 99.3 120.15 105.3 120.25 111.2
Q 123.25 110.55 127.35 110.1 127.35 110.15 127.7 110.35 128.1 110.5 128.2 110.65 127.1 111.1 122.55 112 121.25 112.25 120.25 112.45
L 120.2 111.75 120.5 128.4
Q 123.45 127.9 129.45 127.6 130.3 127.55 131.15 127.6
L 131 121.3
Q 123.55 121.8 122.8 121.9 121.85 121.65 121.8 121.6 121.6 121.45 121.6 120.6 121.7 118.15 129.2 117.05 130.1 116.95 130.95 116.85
L 130.8 106 156.15 100.45
Q 156.25 100.4 156.35 100.4
L 199.2 90.45 207.2 96.3
Q 207.9 96.8 208.75 96.75 209.6 96.75 210.25 96.2
L 219.4 88.7 223.9 91.25
Q 224.35 91.45 224.85 91.4 225.35 91.3 225.7 90.95
L 231.4 84.75 245 83.7
Q 245 83.1 244.55 82.65 244.15 82.15 243.55 82.15
L 240.1 82.05 244.65 76.05
Q 245 75.55 244.95 74.95
M 165.9 83.6
L 162.2 85.3
Q 161.75 85.5 161.55 85.9 161.3 86.2 161.3 86.6
L 161 94.1 158.35 94.8 158.85 80.75 168.6 78.3 168.8 82.3 166.15 83.55
Q 166 83.6 165.9 83.6
M 164.25 87.65
L 165.6 87.05 167.55 92.65 164.05 93.4 164.25 87.65
M 116.6 68.15
Q 116.6 68.1 116.65 68.1
L 117.5 67.75 118.75 85.6
Q 118.8 86.15 119.25 86.55 119.65 86.95 120.2 86.95
L 123.5 87.05 123.4 90.35 117.4 90.15 117.6 84.75
Q 117.6 84.55 117.6 84.4
L 117.85 77.5
Q 117.85 77.1 117.65 76.75 117.45 76.35 117.1 76.15
L 115 75 116.55 68.15 116.6 68.15
M 113.1 69.8
L 112.2 73.55 108.8 73.45
Q 108.55 73.95 108.75 74.55 108.85 75.1 109.45 75.4
L 112.2 76.95 112.25 76.95 114.8 78.35 114.65 83.1 107.5 83.75 107.9 72.25 113.1 69.8
M 98.65 84.15
L 98.25 82.2 102.6 80.6 102.5 84.05 98.65 84.15
M 92.7 87.3
L 96.15 87.2 97.4 94.05 94.35 93.95 94.1 92.85
Q 94.05 92.55 93.95 92.3
L 92.7 87.3
M 100.5 94.2
L 99.2 87.15 102.4 87.05 102.15 94.25 100.5 94.2
M 107.1 95.1
L 107.4 86.8 114.55 86.15 114.35 91.55
Q 114.35 92.15 114.75 92.6 115.2 93.1 115.8 93.1
L 123.3 93.35 123.1 99.8
Q 122.45 100.15 121.95 100.65
L 107.1 95.1
M 156.4 50.7
Q 156.6 50.7 156.8 50.65
L 161.6 49.65 158.65 56.8 146.75 56.4 146.95 50.4 156.4 50.7
M 148 61.45
L 150.35 61.5 151.35 67.45 149.25 68.6 148 61.45
M 146.6 73.4
L 148.3 72.5 155.15 72.75 155 76.7
Q 154.7 76.9 154.5 77.15 154 77.8 153.95 78.65
L 153.6 88.85 147.5 90.25 147.55 89.2 149.15 88.6
Q 149.6 88.45 149.85 88.05 150.15 87.7 150.15 87.25
L 148.7 78.35
Q 148.25 78.4 147.9 78.75 147.4 79.2 147.4 79.8
L 147.2 86.15 145.6 86.7 145.55 86.65 141.9 88 142.05 84.15 144.75 84.25
Q 145.35 84.25 145.8 83.85 146.25 83.4 146.3 82.8
L 146.6 73.4
M 145.75 70.45
L 145.9 67.05 146.45 70.1 145.75 70.45
M 136.35 53.85
L 141.4 52.4 141.15 59.25 136.95 59.1 136.35 53.85
M 133.2 52.8
Q 133.2 52.95 133.25 53.1
L 134.15 60.75
Q 134.15 61.3 134.6 61.65 135 62.05 135.55 62.05
L 141.05 62.25 140.8 69.95 129.8 77.3 126.85 73.4 131.5 68.2
Q 131.85 67.85 131.85 67.35 131.9 66.8 131.6 66.35
L 128.1 61.4
Q 128.2 60.95 128.1 60.55
L 126.4 50.05 132.55 47.25 133.2 52.8
M 123.8 72.35
Q 123.4 72.75 123.4 73.25 123.4 73.8 123.7 74.2
L 127.35 79 124.8 80.75
Q 124.3 81.1 124 81.65 123.7 82.1 123.65 82.7
L 123.6 84.05 121.65 84 120.45 66.35 126.05 63.6 128.45 67.1 123.8 72.35
M 136.45 78.85
L 139.3 76.95 139 85.85 137.4 85.05 136.45 78.85
M 133.7 80.7
L 134.55 86.25
Q 134.6 86.6 134.85 86.9 135.05 87.15 135.4 87.3
L 136.45 87.9 129.05 90.15
Q 128.65 90.25 128.4 90.6
L 128.65 84.2 133.7 80.7
M 137.05 90.9
L 137 92.3
Q 137 92.6 137.1 92.85
L 139.3 99 130.7 100.9 131 92.75 137.05 90.9
M 142.3 77.05
Q 142.3 76.45 141.85 76 141.65 75.7 141.3 75.6
L 143.6 74.05 143.35 81.2 142.15 81.15 142.3 77.05
M 144.5 90.25
L 144.4 92.1
Q 144.4 92.55 144.7 92.95 144.95 93.35 145.35 93.55 145.8 93.7 146.25 93.6
L 153.5 92 153.35 95.9 142.25 98.35 139.9 91.9 144.5 90.25 Z"/>
</g>

<g id="Layer4_0_FILL">
<path fill="#99FFFF" stroke="none" d="
M 26.95 311.9
Q 26.95 311.95 27.4 314.3 28.15 316.6 30.05 316.6 31.35 316.6 32.3 315.5 33.3 314.35 33.3 312.8 33.3 309.55 30.15 309.05 26.95 308.5 26.95 311.9
M 25.65 325.05
Q 26.15 324.7 26.3 324
L 26.05 323.05
Q 25.15 322.85 23.7 322.85 23.6 323.1 23.5 323.05 23.45 323.1 23.45 324.1 23.45 325.15 23.7 325.35 23.85 325.5 24.5 325.65 25.3 325.35 25.65 325.05
M 34.1 324.9
Q 34.1 324.6 33.85 324.15 33.5 323.6 32.95 323.35 32.35 323.35 32.15 323.5 31.85 323.7 31.85 324.75 31.85 325.8 32.1 326 32.3 326.15 32.95 326.3 33.6 326.1 33.8 325.95
L 34.1 324.9
M 39.45 316.35
Q 39.45 315.35 39.1 315.1 38.6 315 38.15 314.8 37.65 314.9 37.25 315.65 36.85 316.45 36.85 317.25 37.35 317.65 38.15 318.05 39 317.85 39.3 317.1 39.45 318 39.45 316.35
M 42.7 308.8
Q 43.3 308.65 43.85 307.85
L 43.55 306.85
Q 43 306.65 42.45 306.65 41.9 306.7 41.75 306.7
L 41.7 306.65
Q 41.6 306.75 41.6 307.75 41.6 308.75 41.85 308.8 42.05 308.8 42.7 308.8
M 513.7 64.35
L 514.05 62.85
Q 511.9 59.9 510.55 60.75 509.6 61.4 509.6 62.85 509.6 64.5 509.65 64.35 509.75 64.4 510.5 64.9 510.8 65.15 511.75 65.15 512.75 65.15 513.25 64.75 513.5 64.55 513.7 64.35
M 507.1 30.6
Q 508.05 29.4 508.05 27.85 508.05 24 504.4 24.7 500.7 25.45 500.7 28.6 500.7 29.4 501.25 30.4 502.15 32.05 503.95 32.05 505.95 32.05 507.1 30.6
M 434.9 17.1
Q 434.35 16.25 433.3 15.8 432.8 15.95 432.25 16.45 431.65 16.95 431.65 17.3
L 431.8 18.25
Q 432.3 18.75 433.3 19.05 434.05 18.75 434.5 18.1 434.9 17.55 434.9 17.1
M 422.55 26.4
Q 422.7 26.8 422.7 25.15 422.7 23.25 421 23.25 419.25 23.25 419.25 25.25 419.25 25.45 420.95 27.05 421.45 26.95 422 26.65 422.45 26.4 422.55 26.4
M 421.6 17.95
Q 422.25 16.85 422.25 15.75 422.25 11.9 418.8 12.45 415.35 13 415.35 16.25 415.35 17.15 415.85 17.95 416.75 19.4 419.05 19.4 420.7 19.4 421.6 17.95
M 342.3 25.9
Q 341.3 24.7 340.5 24.1 339.2 23.85 338.85 24.75 338.7 25.1 338.7 25.9 338.7 26.15 340.5 27.6 341.4 27.05 342.3 25.9
M 278.5 23.6
Q 279.05 22.5 279.05 21.65 279.05 18.65 275.6 18.1 272.108984375 17.6013671875 272.1 21.4 272.109375 21.1640625 272.4 23.15 273.25 25.4 275.65 25.4 277.55 25.4 278.5 23.6
M 70.45 31.8
Q 70.2 31.5 70.2 31.4 68.1 30.75 67.25 31.65 66.75 32.2 66.75 33.15 66.75 33.35 68.7 34.9 69.55 34.75 70.25 34.25 70.65 34.65 70.65 33.05 70.65 32.1 70.45 31.8
M 35.3 69.35
Q 35.3 68.6 34.65 67.9
L 33.6 67.9
Q 33.5 68.05 33.4 67.95 33.35 67.95 33.35 68.9 33.35 69.9 33.5 70 33.65 70.1 34.25 70.2 35.1 69.85 35.3 69.35
M 35.3 36.6
L 35.2 36.5
Q 35.1 36.55 35.1 37.6 35.1 38.55 35.25 38.65 35.35 38.65 35.4 38.65
L 36.85 38.55 37.35 37.75 37.05 36.7
Q 36.7 36.6 35.3 36.6
M 39.35 30.15
Q 40.3 28.55 40.3 26.7 40.3 25.3 39 24.7 37.8 24.15 36.2 24.55 32.05 25.5 32.05 29.45 32.05 29.6 32.15 30.9 32.8 32.15 35.9 32.15 38.1 32.15 39.35 30.15
M 155.8 45.4
Q 155.8 46.83359375 156 46.3 156.15 46.45 157.2 46.45 158.2 46.45 158.45 46.15 158.55 45.95 158.65 45.5
L 158.4 44.5
Q 157.45 44.3 156.75 44.35 156.15 44.4 156 44.4 155.95 44.25 155.9 44.3 155.8 44.35 155.8 45.4
M 155.4 34.95
Q 156.3 34.05 156.3 32.55 156.3 30 153.25 29.6 150.959765625 29.3044921875 150.35 31.5 150.2556640625 31.5 150.2 31.5
L 149.95 32.95
Q 150.03828125 33.1619140625 150.15 33.35
L 150.25 34.65
Q 150.7 35.95 152.4 35.95 154.4 35.95 155.4 34.95
M 504.6 357.7
Q 507.15 357.7 507.3 354.95 507.3 352.2 504.6 352.2 501.85 352.2 501.85 354.95 501.85 355.75 502.2 356.4 502.85 357.7 504.6 357.7
M 461.15 351
Q 461.1 350.2 460.75 349.8 460.5 349.4 459.85 349.1 459.3 349.4 458.9 350 458.55 350.55 458.55 351 459.1 351.45 459.85 351.7 460.65 351.45 461.15 351
M 444.65 364.55
Q 444.65 365.3 445.15 366 445.9 365.9 446.25 365.55 446.45 365.35 446.6 364.85 445.6 364.3 445.2 364.35 444.85 364.5 444.65 364.55
M 462.6 356.75
L 461.95 355.75
Q 460.9 355.55 460.55 355.65 459.75 355.8 459.75 356.85 459.75 357.9 460.1 358.1 460.35 358.25 461.15 358.35 461.9 358.15 462.2 357.8 462.5 357.5 462.6 356.75
M 409.55 357.05
Q 410.7 356.9 411 356.4 410.4 355.6 409.05 355.6 409.05 356.6 409.55 357.05
M 397.05 357.7
Q 396.15 358.1 396.1 358.15 395.75 358.45 395.75 359.5 395.75 360.55 396.1 360.65 396.35 360.75 397.05 360.8 398.1 360.4 398.35 359.5 397.95 358.1 397.05 357.7
M 402.75 364.4
L 403.05 362.7
Q 402.25 360.15 400.5 360.35 398.85 360.5 398.85 362.6
L 399 363.6
Q 399.5 364.85 400.95 364.85 401.9 364.85 402.25 364.65 402.65 364.4 402.75 364.4
M 402.1 355.3
Q 403.05 354.25 403.05 353.1 403.05 349.55 399.65 349.55 396.25 349.55 396.25 352.95
L 396.6 354.65
Q 397.4 356.4 399.65 356.4 401.05 356.4 402.1 355.3
M 311.95 367.15
Q 311 367.7 311 368.6 311 369.55 311.2 369.75 311.4 369.9 311.4 370.05
L 313.5 370.55
Q 314.25 370.4 315.05 369.9 315.45 370.25 315.45 368.6 315.45 367.65 315.2 367.35 314.9 367.1 314.9 367 313.1 366.45 311.95 367.15
M 306.35 375.7
Q 306.05 374.75 305.05 374.45 305.05 374.55 304.4 374.5 303.75 374.7 303.75 375.7 303.75 376.75 304.1 377.1 304.2 377.2 305.05 377.45 305.85 377.2 306.35 375.7
M 304.6 368.1
Q 305.7 367.95 306.05 367.45 305.5 366.65 304.1 366.65 304.1 367.55 304.6 368.1
M 297.75 371.2
Q 297.45 370.15 297.45 369.75 295.25 369 294.25 369.7 293.6 370.2 293.6 371.15 293.6 372.15 293.75 372.3 293.9 372.4 294.2 372.65
L 294.3 372.8
Q 294.6 372.9 295.65 372.9 296.75 372.9 297.15 372.3 297.45 371.55 297.75 371.2
M 82.85 367.45
Q 84.3 367 84.65 365.85
L 83.85 364.85
Q 82.15 364.6 81.55 365.2 81.5 365 81.5 364.95 81.4 364.9 81.4 365.95 81.4 367 81.75 367.2 82 367.35 82.85 367.45
M 85.6 367.55
Q 85.1 367.4 84.45 367.45 83.75 367.55 83.5 367.55
L 83.5 369.1
Q 84 369.5 84.8 369.9 85.85 369.35 86.1 368.6
L 85.6 367.55
M 88.35 356.55
Q 87.8 356.45 87.4 356.25 86.65 356.4 86.5 356.55 86.1 356.9 86.1 357.95 86.1 359.05 86.45 359.45 86.6 359.65 87.4 360 87.75 359.9 88.1 359.7 88.4 359.5 88.55 359.5 88.7 359.45 88.7 357.8 88.7 356.8 88.35 356.55
M 78.7 360.9
Q 78.45 360.6 78.45 360.5 74.4 359.75 74.4 362.25 74.4 363.2 74.6 363.45 74.75 363.65 74.75 363.75
L 75.1 363.9
Q 75.65 364.05 76.7 364.05 78.95 364.05 78.95 362.2 78.95 361.25 78.7 360.9
M 519.8 220.15
Q 523.25 220.15 523.25 214.5 523.25 212 519.9 211.95 516.55 211.9 516.55 215.05 516.55 216.2 517.1 217.7 518 220.15 519.8 220.15
M 509.25 251.2
Q 508.85 250 508.85 249.6 507.05 249 505.95 249.75 505.1 250.35 505.1 251.1 505.1 251.8 505.7 252.25 506.1 252.6 507.2 253.4 507.6 253.35 508.25 253.1 508.75 252.9 509 252.9
L 509.25 251.2
M 466.25 165.8
Q 465.4 164.65 464.4 164 464.4 165.15 463.55 165.5 462.7 165.7 462.7 165.8 462.7 165.95 463.05 166.3 463.35 166.55 464.4 167.6 465.05 167.2 465.7 166.5 466.15 166 466.25 165.8
M 514.85 129.15
L 515.1 127.45
Q 514.45 126.45 513.6 125.95 512.4 125.3 511.2 125.9
L 510.95 127.4
Q 511.15 127.75 511.35 128.25 511.7 128.75 513.05 129.65 513.4 129.6 514.05 129.35 514.6 129.15 514.85 129.15
M 496.65 162.55
Q 497.25 161.6 497.25 160.6 497.25 158.4 494.35 158.4 491.4 158.4 491.4 160.85 491.4 161 491.5 162.45 492.05 163.85 494.55 163.85 495.9 163.85 496.65 162.55
M 484.9 102.5
Q 484.9 101.8 484.05 100.95 483.5 100.85 482.7 101.05 482 101.3 481.65 101.6 481.65 103.25 483.25 104 483.7 103.85 484.25 103.3 484.75 102.85 484.9 102.5
M 460.5 84.5
Q 461.55 83 461.55 81.55 461.55 77.05 457.2 77.4 455.45 77.55 454.15 78.55 452.8 79.65 452.8 81.15 452.8 82.25 453.6 83.8 454.9 86.25 457.35 86.25 459.25 86.25 460.5 84.5
M 407.2 123.1
Q 406.75 122.45 406.15 122.25 405.15 122.5 405.05 122.6 404.7 122.9 404.7 123.95 404.7 124.25 406.15 125.75 407.05 125.45 407.6 124.45 407.6 123.75 407.2 123.1
M 400.6 96.2
Q 400.2 95.35 399.1 94.9 398.6 95 398 95.5 397.35 96 397.35 96.35
L 397.55 97.3
Q 398 97.8 399.1 98.15 399.8 97.75 400.25 97.1 400.6 96.6 400.6 96.2
M 378.3 109.6
Q 378.6 108.95 378.6 106.9 378.6 103.8 375.45 103.95 372.25 104.1 372.25 107.65 372.25 107.8 372.3 109.35 372.8 110.9 375.35 110.9 377.65 110.9 378.3 109.6
M 239.65 65.55
Q 238.75 65.9 238.7 65.95 238.35 66.25 238.35 67.35 238.35 68.35 238.7 68.45 238.95 68.55 239.65 68.65 240.2 68.45 240.65 67.8 240.95 67.45 241.3 66.85 241.05 65.95 239.65 65.55
M 199.1 76.35
Q 199.1 76.75 200.25 78.3 201.6 80.15 202.8 80.15 204.15 80.15 204.95 78.45 205.6 77.15 205.6 75.85 205.6 72.8 202.35 72.75 199.1 72.7 199.1 76.35
M 169.55 112.5
Q 169.95 111.25 169.95 110.05 169.95 107.05 166.75 107.9 163.55 108.8 163.55 111.3 163.55 112.7 163.7 113 164.5 114.45 167.75 114.45 168.95 114.45 169.55 112.5
M 88.55 72.7
Q 87.1 72.8 86.1 73.25 85.15 73.7 85.15 74.25 85.15 75.85 85.3 75.2 85.55 75.45 85.75 75.85 86.05 76.1 87.1 76.1 88.05 76.1 88.45 75.85 88.65 75.75 88.85 75.6 89.05 75.95 89.05 74.3 89.05 73.35 88.8 73.05 88.55 72.75 88.55 72.7
M 103.85 93.9
Q 100.55 93.95 100.55 96.85 100.55 100.95 104.55 100.95 105.8 100.95 106.5 99.95 107.15 98.95 107.15 97.25 107.15 93.9 103.85 93.9
M 101.25 186.3
Q 100.85 185.9 100.3 185.7 99.05 186.1 98.85 187.1
L 99 187.85
Q 99.45 188.3 100.3 188.65
L 101.4 188.3 101.85 187
Q 101.5 186.55 101.25 186.3
M 98.75 218.55
L 98.6 218.05
Q 96.65 218.05 95.3 219.3 94.05 220.45 94.05 221.85 94.05 222.3 95.85 223.9 97.85 223.75 98.55 222.25 98.85 221.55 98.85 220.25 98.85 219.2 98.75 218.55
M 58.4 151.2
Q 58.25 151.05 58.25 150.85 55.3 150.4 55.3 152.4 55.3 152.85 56.95 154.45 57.6 154.25 58.4 153.8 58.55 153.95 58.55 152.3 58.55 151.4 58.4 151.2
M 55.5 189
Q 55.9 186.65 55.9 186.55 55.9 183.1 52 182.4 48.1 181.65 48.1 186.1 48.1 187.05 49.25 188.8 50.8 191.25 53.1 191.25 54.75 191.25 55.5 189
M 39.95 276.45
Q 39.95 277 40.45 277.7
L 40.5 277.85
Q 40.7 278 41.75 278 42.75 278 43.2 277.45
L 43.55 276.55
Q 42.65 275.45 41.65 275 40.75 274.65 40.3 274.95
L 39.95 276.45
M 531.05 296.6
Q 530.7 295.9 530.7 295.15 529.4 295 528.25 295.05 527.3 295.15 527.15 295.15 527 295.55 526.85 295.65 526.8 295.7 526.8 296.6 526.8 297.6 527 297.85 527.15 297.95 527.45 298.15
L 527.6 298.3
Q 527.9 298.4 528.9 298.4 529.95 298.4 530.35 297.8 530.55 297.45 531.05 296.6
M 532.9 299.35
Q 532.65 299.05 532.65 299 530.65 298.2 529.75 299.15 529.25 299.75 529.25 300.7 529.25 300.85 529.6 301.15 531.05 302.3 531.2 302.45 532 302.3 532.8 301.8 533.15 302.25 533.15 300.6 533.15 299.65 532.9 299.35
M 519 307.2
Q 520.15 307 520.45 306.55 520.05 305.9 519.4 305.75 519.2 305.7 518.5 305.7 518.5 306.7 519 307.2
M 522.9 291.65
Q 524.05 291.5 524.35 291 523.95 290.4 523.25 290.25 523.05 290.2 522.4 290.2 522.4 291.2 522.9 291.65
M 482.25 299.4
Q 481.85 298.85 481.3 298.55 481.3 298.75 480.35 298.75 480.35 298.8 480.05 299.25 480 299.3 480 300.3 480 301.35 480.35 301.6 480.6 301.75 481.3 301.8 481.95 301.65 482.3 301.35
L 482.6 300.1
Q 482.6 299.85 482.25 299.4
M 469.95 301.15
Q 469.95 299.9 469.3 299.2 467.95 299.6 467.15 300.95 467.55 301.35 468.3 301.65 468.65 301.6 469.25 301.4 469.8 301.15 469.95 301.15
M 477.25 296.6
Q 476.95 295.85 476.45 295.15 475.85 295 474.95 295.05 474.15 295.15 474 295.15 473.85 295.55 473.7 295.65 473.65 295.7 473.65 296.6 473.65 296.75 474 297.05 474.8 297.75 475.45 298.4 476.7 297.5 477.25 296.6
M 474.8 307.2
L 475.15 305.7
Q 473.75 303.55 472.65 303.75 471.85 303.9 470.6 305.7
L 470.8 307.2
Q 471.25 307.45 471.55 307.75 471.9 308 472.85 308 473.85 308 474.35 307.6 474.6 307.4 474.8 307.2
M 110.4 315.4
Q 110.4 317 110.55 316.85 111.05 317.15 111.4 317.45 111.65 317.65 112.65 317.65 113.65 317.65 114.15 317.25 114.4 317.05 114.6 316.85
L 114.95 315.45
Q 113 312.5 111.55 313.35 110.4 314.05 110.4 315.4
M 104 309.3
L 103.9 309.25
Q 103.75 309.35 103.75 310.35 103.75 311.35 103.9 311.4 104 311.4 104.05 311.4 105.5 311.4 106.15 311.25
L 106.65 310.45 106.35 309.45
Q 105.6 309.3 104 309.3
M 110.4 315.15
Q 109.75 314.2 108.75 313.85 108.05 313.9 107.7 314.05 107.15 314.3 107.15 315.3 107.15 316.95 107.3 316.2 107.8 316.75 108.75 317.1 109.5 316.75 110 316.1 110.4 315.55 110.4 315.15
M 116.1 306.3
Q 115.6 305.05 115.6 304.6 112.05 304.45 110.9 306.85 111.2 307.05 111.9 307.9 112.65 308.65 113.3 308.65 114.25 308.65 114.95 308.35 115.65 308 115.75 308
L 116.1 306.3 Z"/>

<path fill="#510000" stroke="none" d="
M 343.65 192.1
Q 342.5 191.9 341.45 191.7 305.15 184.3 279.8 176.1 266.15 171.7 256.35 167.4 247.4 163.4 241.7 159.45 240.85 158.95 240.15 158.35 240.1 158.5 240.05 158.65 239.15 161.7 238.4 167.05 245.25 171.3 253.8 175.3 285.05 189.95 338.65 200.7 339.65 199.05 340.45 197.9 342.25 194.85 343.65 192.1 Z"/>

<path fill="url(#Gradient_3)" stroke="none" d="
M 342.75 170.25
Q 339.85 163.85 335.6 160.25 333.65 158.6 330.65 157.55 329.4 157.05 327.95 156.65 323.9 155.65 318.55 155.3 314.1 155.15 311.8 154.95 304.85 156.2 309.1 141.55 314.25 123.5 336.4 81.3 320.85 66.6 303.3 61.5 293.55 58.7 283.2 58.8 281.9 62.1 277.35 75.9 274.95 83.15 273.3 88.65 271.4 93.35 268.6 101.1 265.95 108.8 263.6 114.75 261.3 120.7 259.1 125.5 256.85 130.35 251.45 138 249.85 139.75 248.5 141.55 242.45 149.7 241.7 159.45 247.4 163.4 256.35 167.4 266.15 171.7 279.8 176.1 305.15 184.3 341.45 191.7 341.7 191.05 341.9 190.45 345.75 181.65 343.8 174.05 343.75 173.4 343.75 172.85 342.85 170.65 342.75 170.25 Z"/>
</g>

<g id="Layer3_0_FILL">
<path fill="#510000" stroke="none" d="
M 297.9 226.4
Q 297.75 224.5 297.7 223.1 297.3 219.55 296.85 216.55 295.8 217.05 294.8 217.5 290.65 219.45 286.65 221.25 258.15 234.2 235.95 241.65 209.95 250.45 195.45 250.85 194.45 251 193.55 250.95 193.6 251.05 193.65 251.25 194.7 254.2 197.3 258.95 232.65 256.15 290.45 229.85 294.1 228.15 297.9 226.4 Z"/>

<path fill="url(#Gradient_4)" stroke="none" d="
M 226.7 141.55
Q 225.95 136.8 225.15 131.75 212.5 130.2 201.3 131.8 186.6 133.95 174.45 141.55 171.65 143.3 169 145.3 169.9 148.7 174.4 162.5 176.8 169.75 178.75 175.2 180 180.1 182.4 187.95 184.8 195.75 186.5 201.9 188.15 208.1 189.25 213.25 190.3 218.45 190.55 227.8 189.05 240.7 195.45 250.85 209.95 250.45 235.95 241.65 258.15 234.2 286.65 221.25 290.65 219.45 294.8 217.5 294.6 216.85 294.45 216.2 292.3 206.9 286.2 201.9 285.8 201.4 285.45 201 283.45 199.75 283.1 199.5 276.95 196.05 271.4 195.7 268.85 195.55 265.85 196.45 264.5 196.8 263.15 197.35 259.3 198.95 254.75 201.85 251.1 204.4 249.15 205.6 239 216.35 226.7 141.55 Z"/>
</g>

<g id="Layer2_0_FILL">
<path fill="#FFFFFF" stroke="none" d="
M 287.75 212.8
Q 288.6 212.2 288.6 211.25 288.6 207.5 285.1 203.95 282 200.85 277.4 199.05 272.85 197.3 269.65 197.85 266.15 198.45 266.15 201.7 266.15 202.7 266.85 202.2 267.65 201.85 269.05 201.45 270.6 201.05 271.5 201.05 277.6 201.05 282.05 207.2 282.95 208.4 284.7 211.4 285.8 213.3 286.25 213.3 287.05 213.3 287.75 212.8
M 213.45 134.85
Q 212.15 134.55 211.15 135.25 210.1 136.05 210.1 137.65 210.1 139.35 210.35 141.55 210.85 146.55 212.5 153.9 214.95 164.85 218.8 175.65 228.5 203 238.2 206.5
L 239.25 206.3 239.45 205.5
Q 233.35 196.8 228.85 186.45 225.4 178.45 222.25 167.75 221.2 164.15 219.8 158.25 218.3 151.8 217.6 148.9 216.55 144.5 216.45 141.55 216.35 140.5 216.45 139.65 216.8 135.55 213.45 134.85
M 282.65 76.5
Q 281.4 80.95 281.15 82.05 279 91.3 273.55 104.6 270.65 111.75 261.85 127.25 257.15 135.55 254.15 141.55 251.75 146.4 250.45 149.75
L 250.55 150.35
Q 252.8 146.9 256.35 141.55 259.85 136.3 264.6 129.25 272.75 116.7 276.65 108.2 279.45 102.05 285.35 84.75 291.15 67.55 291.15 65.55 291.15 64.25 290.25 63.5 289.35 62.7 288.15 63.05 285 63.95 283.95 70.9 283.65 73.05 282.65 76.5
M 332.25 167.95
Q 332.5 168.2 334.6 171.6 335.65 173.25 336.9 173.25 337.5 173.25 337.6 173 337.65 172.85 337.65 172.7 337.75 172.65 337.75 171.65 337.75 161.6 324.05 159.35 319.25 158.55 314.65 159.1 310.35 159.55 310.35 160.55 310.35 161.55 310.55 161.2 312.45 162.6 316.7 162.6 327.85 162.6 332.25 167.95 Z"/>
</g>

<g id="Layer1_0_FILL">
<path fill="#517979" stroke="none" d="
M 465.25 284.5
Q 465.25 282.8 463.55 282.8 461.8 282.85 461.8 284.55 461.8 285.2 462 285.65 462.4 286.6 463.5 286.6 464.25 286.6 464.75 286.05 465.25 285.45 465.25 284.5
M 469.5 277
Q 472.35 277 472.35 273.6 472.35 270.1 468.85 270.75 465.35 271.4 465.35 273.85 465.35 275.15 465.75 275.7 466.6 277 469.5 277
M 355.55 256.5
Q 356 255.5 356 254.75 356 252.35 353.4 252.35 350.75 252.3 350.75 254.9 350.75 255 351.15 256.5 351.9 258 353.6 258 354.85 258 355.55 256.5
M 344.75 142.3
Q 345.8 141 345.8 139.75 345.8 136.65 341.9 137.15 338 137.7 338 140.65 338 143.6 342.65 143.6 343.7 143.6 344.75 142.3
M 154.75 215.9
Q 155.8 214.05 155.8 212.9 155.8 209.7 151.8 209.6 147.75 209.5 147.75 212.85 147.75 213.05 147.85 215.65 148.65 218.1 152 218.1 153.5 218.1 154.75 215.9
M 79.9 318.5
Q 79.35 317.8 78.6 317.5 78.6 318.35 77.95 318.65 77.65 318.75 77.3 318.85 77.3 319 78.6 320.3 79.65 319.9 79.9 318.5
M 73.75 306.9
L 73.5 306.1
Q 72.55 306.2 71.8 307 72.25 307.4 72.85 307.65 73.35 307.55 73.75 306.9
M 70.1 314.05
Q 70.1 314.7 70.4 315.25 70.95 316.25 72.35 316.25 73.4 316.25 74.15 315.5 74.8 314.8 74.8 314.1 74.8 311.65 72.45 311.8 70.1 311.95 70.1 314.05
M 65.5 317.65
Q 65.5 318.35 65.75 318.85 66.25 319.9 67.65 319.9 68.65 319.9 69.35 319.4 70.25 318.8 70.25 317.65 70.25 315.8 67.9 315.6 65.5 315.4 65.5 317.65
M 69.25 311.25
Q 69.75 310.6 69.75 309.8 69.75 307.7 67.65 307.95 65.55 308.15 65.55 309.75 65.55 312 67.65 312 68.65 312 69.25 311.25
M 89.45 275.75
Q 89.8 274.2 89.8 274.15 89.8 271.1 87.4 271.95 85 272.85 85 275 85 275.55 85.4 276.2 86.1 277.25 87.5 277.25 88.8 277.25 89.45 275.75
M 67.7 211.8
Q 68.05 211 68.05 209.25 68.05 206.85 64.2 206 60.35 205.2 60.35 208.9
L 60.95 211.25
Q 61.95 213.6 64.25 213.6 66.85 213.6 67.7 211.8
M 114.65 173.9
Q 115.6 172.95 115.6 171.35 115.6 168.45 112.55 167.85 109.5 167.2 109.5 170.65 109.5 170.5 110.15 172.6 111.1 174.8 112.75 174.8 113.85 174.8 114.65 173.9
M 68.55 101.1
Q 68.3 100.8 68.3 100.75 66.65 100.2 66 100.95 65.6 101.35 65.6 102.1
L 67.15 103.6
Q 67.8 103.5 68.5 103.05 68.75 103.35 68.75 102.1 68.75 101.35 68.55 101.1
M 98.95 123.5
Q 99.5 122.25 99.5 120.55 99.5 116.05 95.75 116.7 92 117.3 92 121.1 92 121.2 92.45 123.25 93.45 125.25 96.3 125.25 98.1 125.25 98.95 123.5
M 221.8 47.35
Q 221.3 47.85 221.3 48.5
L 222.9 50
Q 223.55 49.8 224.25 49.4 224.5 49.65 224.5 48.4 224.5 47.7 224.3 47.45 224.05 47.2 224.05 47.05 222.55 46.55 221.8 47.35
M 220.3 40.55
Q 223 40.55 223 36.4 223 33.35 219.7 33.75 216.35 34.15 216.35 37.4 216.35 37.45 216.9 39 217.95 40.55 220.3 40.55
M 368.25 69.25
Q 368.35 69.5 368.35 68.25 368.35 66.25 366.7 66.3 365 66.3 365 68.1
L 365.15 68.85
Q 365.5 69.9 366.65 69.9 367.4 69.9 367.85 69.6
L 368.25 69.25
M 371.5 60.25
Q 372.65 58.95 372.65 57.9 372.65 54.15 369 53.9 365.35 53.65 365.35 57.05
L 365.75 59.25
Q 366.65 61.55 369.25 61.55 370.3 61.55 371.5 60.25
M 457.2 131.15
Q 458 130.15 458 128.9 458 125.55 454.65 125.75 451.3 125.95 451.3 128.85
L 451.8 130.5
Q 452.75 132.25 455 132.25 456.3 132.25 457.2 131.15
M 449.25 191.25
Q 451.55 191.25 451.55 189.65 451.55 188.25 449.4 187.95 447.25 187.7 447.25 189.4
L 447.45 190.25
Q 447.9 191.25 449.25 191.25
M 391.7 196.75
Q 392.05 196.1 392.05 194.75 392.05 192.05 389.55 192.35 387 192.65 387 195.15 387 196.35 387.25 196.75 387.85 197.65 389.8 197.65 391.15 197.65 391.7 196.75
M 418 147.25
Q 418.75 146.4 418.75 144.85 418.75 142.85 415.85 142.65 412.9 142.45 412.9 144.8 412.9 144.65 413.4 146.35 414.3 148.15 415.85 148.15 417.25 148.15 418 147.25
M 504.05 108.85
Q 503.4 108 502.6 107.4 501.15 107.1 501.15 108.85 501.15 109.05 502.6 110.25 503.35 109.75 504.05 108.85
M 499.7 94.85
Q 499.7591796875 95.2501953125 499.85 95.45 500.75 97.35 504.15 97.35 506.9 97.35 507.75 95.15 508.05 94.3 508.05 92.4 508.05 88.3 503.85 88.6 500.1951171875 88.8150390625 499.65 91.95 499.35 92.77734375 499.35 93.85 499.35 94.3642578125 499.7 94.85 Z"/>

<path fill="#FFFFFF" stroke="none" d="
M 519.1 216.05
Q 520.75 216.05 520.8 214.15 520.8 212.65 519.2 212.9 517.55 213.2 517.55 214.65 517.55 216.05 519.1 216.05
M 201.95 266.75
L 202.05 267.65
Q 202.4 268.55 203.75 268.55 205.8 268.55 205.8 265.4 205.8 263.3 203.9 264.05 201.95 264.85 201.95 266.75
M 200.8 75.65
Q 201.1 76.55 202.05 76.55 202.7 76.55 203.15 75.85 203.5 75.3 203.5 74.85 203.5 73.45 202.1 73.45 200.65 73.45 200.65 74.85
L 200.8 75.65
M 168.1 111.25
Q 168.45 110.85 168.45 110.15 168.45 108.9 166.95 108.85 165.45 108.85 165.45 110.25
L 165.7 111
Q 166.15 111.75 167.1 111.75 167.75 111.75 168.1 111.25
M 53.7 186.7
Q 54.1 185.8 54.1 185.1 54.1 183.6 52.25 183.95 50.4 184.25 50.4 185.75 50.4 185.8 50.55 186.9 50.95 187.95 52.2 187.95 53.15 187.95 53.7 186.7
M 103.2 98.75
Q 105.25 98.75 105.25 96.5 105.25 94.55 103.25 94.5 101.25 94.4 101.25 96.75 101.25 96.85 101.25 97.8 101.55 98.75 103.2 98.75
M 275.15 22.65
Q 276.9 22.65 276.9 20.65 276.9 18.85 274.95 18.8 273 18.7 273 20.5 273 21.05 273.4 21.7 273.95 22.65 275.15 22.65
M 418.5 17.05
Q 420 17.05 420 15.4 420 13.85 418.55 13.95 417.1 14 417.1 15.35
L 417.25 16.15
Q 417.55 17.05 418.5 17.05
M 457 82.4
Q 458.75 82.4 458.75 80.25 458.75 78.4 457 78.5 455.25 78.6 455.25 80.45 455.25 80.5 455.4 81.45 455.8 82.4 457 82.4
M 211.65 293.15
Q 211.65 293.55 211.8 293.65 211.9 293.75 212.25 293.8 213.2 293.65 215.75 292.45 218.15 291.3 218.35 291.3 218.6 291.3 219.35 291.5 220 291.7 220.35 291.6 220.5 291.65 220.5 291 220.5 288.05 216.1 289.8 211.65 291.5 211.65 293.15
M 126.5 263.85
Q 126.5 265.3 128.6 265.45 131.6 265.65 133.65 267.6 134.85 268.75 135.5 270.75 135.7462890625 271.5298828125 136 272.1
L 136 272.35
Q 136 272.75 136.35 273.8
L 136.5 273.65 136.25 272.6
Q 136.5099609375 273.028515625 136.75 273.25 137.1 272.75 137.1 272.2 137.1 268.25 135.75 265.6 134.1 262.25 130.25 261.9 126.5 261.55 126.5 263.85
M 300.6 279.1
Q 296 279.45 294.25 284.1
L 294.35 284.8
Q 294.5 284.75 296.55 282.7 298.4 280.9 299.5 280.9 302.5 280.9 302.85 281.95 303.25 283 304.1 283 304.45 283 304.75 282.75 305.05 282.45 305.05 282.05 305.05 278.75 300.6 279.1
M 245.35 277.55
Q 245.65 276.95 245.65 276.6 245.65 273.15 240.35 274.25 235.05 275.35 235.05 277.9 235.05 278.55 235.25 278.3 235.3 278.3 237.65 277.15 240.1 276 240.6 276 242.1 276 243.05 277.15 244 278.25 244.5 278.25 245 278.25 245.35 277.55
M 426.6 247.4
Q 429.55 244.05 431.35 242.45 436.15 238.1 439.4 238.1 440.2 238.1 441.05 238.7 441.85 239.3 442.85 239.3 443.65 239.3 444.1 238.55 444.4 238.05 444.4 237.55 444.4 236.4 442.2 235.45 439.6 234.35 436.65 235.4 435.4 235.85 433.45 237.2 431.9 238.35 431.15 239.15 429.35 241 428 243.15 426.55 245.45 426.15 247.15 426.25 247.35 426.6 247.4
M 181.75 284.7
Q 181.75 284.75 182.05 285.8 182.7 286.9 184.15 286.9 185.7 286.9 186.15 286.1 186.4 285.7 186.4 284.65 186.4 282.5 184.1 282.7 181.75 282.9 181.75 284.7
M 154.6 243.25
Q 155.9 243.25 155.9 241.75 155.9 240.65 154.5 240.4 153.05 240.2 153.05 241.75
L 153.25 242.5
Q 153.65 243.25 154.6 243.25
M 343.25 234.95
Q 343.25 232.7 340.55 233.35 337.8 233.95 337.8 235.6 337.8 235.65 338.05 236.85 338.55 238 339.75 238 341.35 238 342.4 236.8 343.25 235.8 343.25 234.95
M 402.3 230
Q 402.85 229.15 402.85 228.35 402.85 226.45 400.75 226.9 398.65 227.3 398.65 228.75 398.65 228.8 398.7 230 399.05 231.15 400.4 231.15 401.6 231.15 402.3 230
M 464.15 224.1
Q 464.15 224.6 464.3 224.95 464.7 225.65 465.8 225.65 466.75 225.65 467.3 224.75 467.75 224 467.75 223.2 467.75 221.6 465.95 221.95 464.15 222.3 464.15 224.1 Z"/>

<path fill="#76B6B4" stroke="none" d="
M 200.55 284.75
Q 196.85 284.75 190.65 292.25 184.45 299.75 182.7 299.75 180.25 299.75 179.4 297.9 178.55 296.05 175.95 296.05 174.25 296.05 171.15 297.9 168.1 299.75 165.7 299.75 164.25 299.75 163.95 299.65 163.55 299.45 163.1 299.25 165.3 301 166.9 301.75 172 304.2 181.4 304.2 192.85 304.2 205.7 295.8 208 294.05 209.85 292.65 209.15 291.65 208.35 290.15 205.5 284.75 200.55 284.75
M 274.7 279.55
Q 271.95 279.55 270.2 282.2 269.75 282.95 267.45 288.1 266.4 290.45 265.1 292.15 266.35 292.95 267.55 292.95 271.2 293 274.6 293.8 277.95 294.6 280.25 294.6 284.55 294.6 287.25 291.9 287.4 291.75 287.55 291.65 286.3 292 285.55 292 281.25 292 278.75 285.8 277.1 281.65 277 281.5 276 279.55 274.7 279.55
M 404.2 271.2
Q 402.9 268.15 400.5 268.15 393.05 268.15 388.55 276.7 386.6 281 385.8 282.6 384.45 285.25 383.2 285.25 382.1 285.25 380.9 283 379.3 279.95 378.3 279 374.5 281.35 371.55 283.15 371.75 283.85 372 284.85 372.95 288.65 375.35 288.65 377 288.65 378.75 286.65 379.9 285.35 380.5 284.05 381.1 284.6 382.75 286.25 384.5 287.65 386.9 287.65 393.05 287.65 405.15 275.1 405 273.05 404.2 271.2
M 333.7 283.95
Q 328.55 278.5 328.45 278.5 323.75 278.5 321.9 287.05 320.95 291.25 320.4 292.75 325.4 293.95 332.1 293.95 346.95 293.95 358.3 287.5 358.35 287.45 358.4 287.45 357.6 286.35 356.7 284.45 354.6 280.05 352.7 280.05 351.9 280.05 348.2 284.7 344.45 289.35 342.1 289.35 338.9 289.35 333.7 283.95
M 291.25 337.7
Q 289.9 337.5 288.35 337.3 280.85 336.25 274.25 336.25 266.4 336.25 250.25 338.45 235.3 340.45 233.8 341.25
L 253.3 341.25
Q 265.85 340.4 277.4 338.75 283.25 337.9 291.25 337.7
M 147.85 331.65
Q 147.85 334.65 156.45 337.6 166.05 340.9 179.05 340.9 185.15 340.9 191.05 340.5 196.9 340.1 198.4 339.55 180.75 339.5 168.25 336.55 152.55 332.85 152.5 325.75 147.85 330.05 147.85 331.65
M 139.05 332.4
Q 138.25 333.85 138.25 334.8 138.25 337.2 140.3 339.25 142.15 341.1 143.9 341.25
L 144.2 341.25
Q 142.95 340.4 140.75 336.1 139.55 333.8 139.05 332.4
M 398.85 326.6
Q 385.6 331.65 378.05 332.45 388.2 331.65 397.75 328.55 413.6 323.45 417.2 315.45 417 315.45 416.9 315.3
L 416.85 315.1 416.85 315.45
Q 415.6 320.2 398.85 326.6 Z"/>

<path fill="#99FFFF" stroke="none" d="
M 446.55 246.4
Q 447.15 243.6 447.15 240.65 447.15 237.2 445.2 235.2 443.2 233.2 439.75 233.2 435.6 233.2 431.55 236 425.5 240.1 422.75 249.05 419.3 260.1 406.2 274 405.65 274.55 405.15 275.1 393.05 287.65 386.9 287.65 384.5 287.65 382.75 286.25 381.1 284.6 380.5 284.05 379.9 285.35 378.75 286.65 377 288.65 375.35 288.65 372.95 288.65 372 284.85 371.75 283.85 371.55 283.15 370.9 281.05 370.55 281.05 368.6 281.05 365.35 283.05 361.2 285.85 358.4 287.45 358.35 287.45 358.3 287.5 346.95 293.95 332.1 293.95 325.4 293.95 320.4 292.75 312.4 290.75 308.6 285.7 306.2 281.6 305.25 280.05 303.7 277.45 301.45 277.45 297.35 277.45 294.75 280.15 293.2 281.7 291.05 286.05 289.1 289.95 287.55 291.65 287.4 291.75 287.25 291.9 284.55 294.6 280.25 294.6 277.95 294.6 274.6 293.8 271.2 293 267.55 292.95 266.35 292.95 265.1 292.15 264 291.45 262.9 290.15 260.85 287.35 260.5 287.35 259.5 287.35 256.55 289.05 253.6 290.7 252.05 290.7 248.95 290.7 247.9 287.8 247.25 286 247.25 281.45 247.25 276.7 246.75 275.05 245.85 272.15 243 272.15 236.9 272.15 234.25 275.25 232.3 277.45 231.75 282.05 231 288.45 230.85 288.85 229.9 291.95 226.8 291.95 222.95 291.95 221.45 289.65 219.95 287.35 217.85 287.35 216.85 287.35 209.85 292.65 208 294.05 205.7 295.8 192.85 304.2 181.4 304.2 172 304.2 166.9 301.75 165.3 301 163.1 299.25 161.25 297.75 158.95 295.6 158 294.7 157.45 292.5 156.95 289.8 156.65 288.45 155.4 283.4 151.2 283.4 149.9 283.4 147.55 284.25 145.25 285.1 144.45 285.1 142.15 285.1 140.8 283.75 139.5 282.4 139.5 280.1 140.15 273.65 140.15 272.8 140.15 267.25 137.2 263.55 134.25 259.95 129.95 259.95 127.55 259.95 125.6 261.9 123.65 263.85 123 267.3 124.25 266.55 126.05 266.55 130.6 266.55 132.65 272.75 133.2 274.45 134.1 278.05 135 281.15 135.95 282.65 137.9 285.65 143.9 286.9 150.2 288.15 152.05 290.5 159.3 299.75 164.4 303.6 172.6 309.9 182.4 309.9 190.1 309.9 199.2 303.95 209.75 297 216.9 295.45 217.75 295.3 225.9 295.85 227.45 295.95 228.8 295.85 232.5 295.5 234.25 293.4 234.8 292.7 235.55 285.7 236.15 279.75 238.95 279.75 240.9 279.75 242.2 282.15 242.9 283.45 244.15 287.4 246.5 295.05 249.9 295.05 250.4 295.05 251.55 294.2 252.85 293.2 253.2 292.15 257.3 293.35 262.05 294.9 264.95 295.85 268.05 296.9 274.35 298.75 281.1 298.75 289.05 298.75 294.25 291.35 294.8 290.45 295.3 289.7 296.8 287.25 297.6 286.2 299.3 283.9 300.9 283.9 302.05 283.9 304.45 286.15 307.9 289.4 309.95 290.95 310.1 291.05 310.25 291.15 310.85 291.55 311.45 291.95 314.5 293.95 318.15 295.3 326.2 298.35 337 298.35 346.6 298.35 358.3 291.75 364.15 288.45 368.2 285.15 369.15 285.15 371.6 288.05 374.05 290.9 376.65 290.9 377.2 290.9 377.6 290.7 377.95 290.5 378.75 289.7 380.4 290.7 381.5 292.25 382.05 293 383.85 293 389.3 293 402.5 283.05 403.1 282.6 403.65 282.2 413.2 274.85 418.75 269.05 421.6 266.1 424.15 261.1 425.6 258.25 428.1 252.85 432.8 243.85 440.45 243.85 443.9 243.85 446.55 246.4
M 431.35 242.45
Q 429.55 244.05 426.6 247.4 426.25 247.35 426.15 247.15 426.55 245.45 428 243.15 429.35 241 431.15 239.15 431.9 238.35 433.45 237.2 435.4 235.85 436.65 235.4 439.6 234.35 442.2 235.45 444.4 236.4 444.4 237.55 444.4 238.05 444.1 238.55 443.65 239.3 442.85 239.3 441.85 239.3 441.05 238.7 440.2 238.1 439.4 238.1 436.15 238.1 431.35 242.45
M 245.65 276.6
Q 245.65 276.95 245.35 277.55 245 278.25 244.5 278.25 244 278.25 243.05 277.15 242.1 276 240.6 276 240.1 276 237.65 277.15 235.3 278.3 235.25 278.3 235.05 278.55 235.05 277.9 235.05 275.35 240.35 274.25 245.65 273.15 245.65 276.6
M 294.25 284.1
Q 296 279.45 300.6 279.1 305.05 278.75 305.05 282.05 305.05 282.45 304.75 282.75 304.45 283 304.1 283 303.25 283 302.85 281.95 302.5 280.9 299.5 280.9 298.4 280.9 296.55 282.7 294.5 284.75 294.35 284.8
L 294.25 284.1
M 128.6 265.45
Q 126.5 265.3 126.5 263.85 126.5 261.55 130.25 261.9 134.1 262.25 135.75 265.6 137.1 268.25 137.1 272.2 137.1 272.75 136.75 273.25 136.5099609375 273.028515625 136.25 272.6
L 136.5 273.65 136.35 273.8
Q 136 272.75 136 272.35
L 136 272.1
Q 135.7462890625 271.5298828125 135.5 270.75 134.85 268.75 133.65 267.6 131.6 265.65 128.6 265.45
M 211.8 293.65
Q 211.65 293.55 211.65 293.15 211.65 291.5 216.1 289.8 220.5 288.05 220.5 291 220.5 291.65 220.35 291.6 220 291.7 219.35 291.5 218.6 291.3 218.35 291.3 218.15 291.3 215.75 292.45 213.2 293.65 212.25 293.8 211.9 293.75 211.8 293.65
M 170.75 310.65
Q 170.35 310.35 170 310.05 169.15 309.35 167.5 309.35 167.15 309.35 166.85 309.5 166.55 309.6 166.45 309.6
L 166.45 312
Q 166.7 315.55 170.25 320.8 174.5 327.05 179.15 327.05 182.3 327.05 182.3 321.9 182.3 320.2 180.05 318.5 177.5 316.55 177 314.9 176.7 313.75 173.8 312.6 170.9 311.4 170.75 310.65
M 217.45 302.25
Q 216.85 298.5 214.45 298.5 210.8 298.5 205.65 301.75 202.55 303.7 195.25 308.8 192.95 310.3 185.8 311.05 181.9 311.45 180.7 313.9 181.45 315.45 183.3 318.95 185.65 323.4 186 325.5 186.3 327.05 190.3 328.3 193.6 329.25 195.65 329.25 197.25 329.25 201.65 325.5 206.15 321.65 209.55 321.5 215.4 321.25 216.75 319 217.75 317.4 217.75 310.45 217.75 304.05 217.45 302.25
M 240.2 302.5
Q 239.05 302.1 237.7 301.7 235 300.9 233.35 300.9 224.85 300.9 220.8 313.35 219.75 316.45 218.35 321.85 217.15 325.75 215.75 325.75 215.45 325.75 212.2 324.85 208.95 323.9 208.5 323.9 206.9 323.9 205.3 325.05 204.55 325.55 204 326.2 204.15 326.5 204.45 326.85 205.35 327.85 206.75 327.85 207.4 327.85 209 327.35 210.6 326.8 211.15 326.8 212.25 326.8 214.35 327.6 216.5 328.4 216.95 328.4 218.1 328.4 220 327.6 221.85 326.8 223.2 326.8 224.35 326.8 229.9 328.3 235.5 329.75 239 329.75 246.15 329.75 250.55 327.65 256.35 324.8 256.35 318.6 256.35 312.65 250.3 304.65 245.05 297.75 243.95 297.75 242.65 297.75 241.95 300.15 241.25 302.5 240.2 302.5
M 301.35 293.85
Q 300.5 293 300.1 293 300.05 293 299.85 293.15 298.45 293.95 290.6 299.35 281.35 305.65 279.1 305.65 275.05 305.65 268.7 303.4 262.35 301.15 259.9 301.15 258.95 301.15 257.9 301.4 256.35 301.8 256.35 302.6 256.35 302.65 258.85 310 261.35 317.35 261.35 318.5 261.35 319.9 260.65 323.05 262.4 322.5 266.75 321.1 273.1 319.15 273.5 319.15 274.8 319.15 278.55 323.25 282.3 327.35 283.7 327.35 293.5 327.35 300.25 321 307.1 314.6 307.1 305 307.1 301.9 303.95 297.25 302.35 294.9 301.35 293.85
M 353 318.75
Q 352.6 317.7 352.6 316.75 350.05 316.5 349.45 316.5 348.45 316.5 344.95 318.35 341.45 320.2 341.45 320.55 341.45 321.2 341.6 321.45 341.75 321.75 342.1 321.95 342 322.3 342 322.7 342 323 342.15 323.3 342.25 323.65 342.25 323.9 343.25 323.9 345.05 324.15 347.95 324.15 350.45 323.1 353.35 321.9 353.35 320.05 353.35 319.8 353 318.75
M 347.55 308.45
Q 347.55 301.75 344.9 301.75 342.95 301.75 340.55 303.05 338.2 304.3 336.6 304.3 334.65 304.3 332.75 303.8 329.75 303 328.25 302.75 325.55 302.3 323.7 301.6 322.5 301.15 320.75 301.15 311.4 301.15 309.2 309.1 306.45 318.65 305.8 319.9 305.2 321 302.85 322.6 302.5 323.45 301.8 325.25 302.25 325.3 311.4 327.45 319.05 329.25 322.45 329.25 327.05 329.25 331.7 327.85 337 326.3 337 324.15 336.2 321.1 336.2 320.2 336.2 318.7 337.95 318 339.05 317.55 341.9 316.8 346.65 315.25 347.4 310.45 347.3515625 310.4015625 347.3 310.4 347.3515625 310.4 347.4 310.4 347.55 309.5 347.55 308.45
M 376.45 317.5
Q 375.8 317.5 374.9 318.55 375.35 320.1 375.55 322.45 375.95 324.1 377.85 324.1 378.25 324.1 379.05 323.35 379.85 322.55 379.85 322.15 379.85 320.8 378.55 319.1 377.25 317.5 376.45 317.5
M 367.7 290.55
Q 363.9 290.8 357.2 295.15 348.95 300.5 348.95 306.2 348.95 308.9 349.05 309.35 349.15 309.75 349.7 311.2 351.6 311.8 352.65 312.25 355.45 313.4 356.55 314.65 357.65 315.95 359.1 319.3 360.9 322.05 364.75 322.05 367.85 322.05 369.35 321.2 370.65 320.4 371.6 318.35 371.8 318 375.55 311 378.5 305.45 378.5 304.7 378.5 304.1 373.35 297.9 368.05 291.5 367.7 290.55
M 403.4 293.65
Q 401.2 288.65 400.3 288.65 399.95 288.65 390.6 294.45 381.05 300.4 381.05 301.05 381.05 302.35 381.9 304 382.75 305.6 382.75 306.85 382.75 307.75 381.5 310.2 380.8 311.65 380.5 312.45 383.25 313.45 386.3 315.5 388.35 316.85 389.95 318.05 393.55 318.05 399.7 310.2 405.5 302.8 405.5 299.8 405.5 298.5 403.4 293.65
M 221.05 262.25
Q 221.05 260.45 219.05 260.7 217.05 260.9 217.05 262.5
L 217.35 263.65
Q 217.9 264.8 219.4 264.8 221.05 264.8 221.05 262.25
M 177.6 286.3
Q 177.6 286.4 178.1 288.85 179.2 291.3 182.2 291.3 185.4 291.3 186.85 288.85 187.75 287.35 187.75 285.75 187.75 283.2 186.15 282 184.75 280.9 182.7 281.15 180.65 281.45 179.2 282.8 177.6 284.25 177.6 286.3
M 182.05 285.8
Q 181.75 284.75 181.75 284.7 181.75 282.9 184.1 282.7 186.4 282.5 186.4 284.65 186.4 285.7 186.15 286.1 185.7 286.9 184.15 286.9 182.7 286.9 182.05 285.8
M 176.6 268.85
Q 176.9 268.35 176.9 267.85 176.9 266.55 175.35 266.45 173.75 266.35 173.75 267.95 173.75 268.8 173.9 269.2 174.2 269.35 174.45 269.5 174.65 269.6 175.15 269.6 176.1 269.6 176.6 268.85
M 296.95 254.95
Q 296.95 253.7 295.65 253.8 294.3 253.85 294.3 254.9 294.3 255.3 294.55 255.7 294.9 256.3 295.65 256.3 296.25 256.3 296.6 255.85 296.95 255.45 296.95 254.95
M 303.6 239.95
Q 303.6 240 303.8 241.45 304.35 242.95 306.05 242.95 307.75 242.95 308.25 241.45 308.5 240.85 308.5 239.5 308.5 236.85 306.05 237.1 303.6 237.35 303.6 239.95
M 153.85 239.25
Q 150.4 239.1 150.4 242.75 150.4 243.65 150.9 244.5 151.75 246 153.65 246 155.3 246 156.45 244.35 157.3 243.05 157.3 242.1 157.3 239.4 153.85 239.25
M 155.9 241.75
Q 155.9 243.25 154.6 243.25 153.65 243.25 153.25 242.5
L 153.05 241.75
Q 153.05 240.2 154.5 240.4 155.9 240.65 155.9 241.75
M 380.1 267.55
Q 376.55 268.7 376.55 271.9 376.55 272.5 377 273.3 377.7 274.6 379.2 274.6 381.65 274.6 382.85 272.2 383.65 270.65 383.65 269.45 383.65 266.4 380.1 267.55
M 347.1 279.15
Q 347.7 279.15 348.1 278.6 348.45 278.2 348.45 277.75 348.45 276.45 347.15 276.45 345.8 276.4 345.8 277.7 345.8 278.55 345.95 278.7 346.2 278.85 346.4 279 346.6 279.15 347.1 279.15
M 340.35 250.05
Q 340.6 249.55 340.6 248.4 340.6 246.65 338.45 246.5 336.3 246.3 336.3 248.8 336.3 249.5 336.55 249.95 337.05 250.95 338.6 250.95 339.9 250.95 340.35 250.05
M 340.35 243.8
Q 344.25 243.8 346.3 240.9 347.7 238.85 347.7 236.9 347.7 234 345.75 232.6 344.05 231.4 341.55 231.75 339.05 232.15 337.3 233.8 335.35 235.65 335.35 238.15 335.35 238.2 336.3 241 337.75 243.8 340.35 243.8
M 340.55 233.35
Q 343.25 232.7 343.25 234.95 343.25 235.8 342.4 236.8 341.35 238 339.75 238 338.55 238 338.05 236.85 337.8 235.65 337.8 235.6 337.8 233.95 340.55 233.35
M 443.95 285.2
Q 443.95 286.05 444.15 286.5 444.6 287.6 446 287.6 447.2 287.6 448.25 286.2 449.1 285.05 449.1 284.2 449.1 281.6 446.55 281.85 443.95 282.1 443.95 285.2
M 411.65 225.6
Q 411.65 226 411.9 226.35 412.4 227 413.5 227 414.8 227 415.3 225.85 415.6 225.2 415.6 224.5 415.6 222.1 413.65 222.65 411.65 223.25 411.65 225.6
M 407 229.7
Q 407 228.2 405.95 226.75 404.8 225.15 403.15 224.65 398.8 223.35 394.8 230.55 394.2 231.6 393.5 236.65 392.9 241.05 392.9 242.45 392.9 243.25 393.55 244.5 394.5 246.35 396.15 246.35 400 246.35 401.55 242.65 402.3 240.8 402.3 238.55 402.65 235.4 404.9 233.4 407 231.55 407 229.7
M 402.85 228.35
Q 402.85 229.15 402.3 230 401.6 231.15 400.4 231.15 399.05 231.15 398.7 230 398.65 228.8 398.65 228.75 398.65 227.3 400.75 226.9 402.85 226.45 402.85 228.35
M 462.4 228.95
Q 463.8 230.75 466.15 230.75 468.85 230.75 470.3 227.9 471.25 226 471.25 224.6 471.25 222.4 469.7 221.35 468.35 220.35 466.35 220.75 461.45 221.7 461.45 226.95 461.45 227.7 462.4 228.95
M 464.3 224.95
Q 464.15 224.6 464.15 224.1 464.15 222.3 465.95 221.95 467.75 221.6 467.75 223.2 467.75 224 467.3 224.75 466.75 225.65 465.8 225.65 464.7 225.65 464.3 224.95 Z"/>

<path fill="url(#Gradient_1)" stroke="none" d="
M 428.35 268.65
Q 437.6 261.75 441.3 257.15 445.25 252.15 446.55 246.4 443.9 243.85 440.45 243.85 432.8 243.85 428.1 252.85 425.6 258.25 424.15 261.1 421.6 266.1 418.75 269.05 413.2 274.85 403.65 282.2 403.1 282.6 402.5 283.05 389.3 293 383.85 293 382.05 293 381.5 292.25 380.4 290.7 378.75 289.7 377.95 290.5 377.6 290.7 377.2 290.9 376.65 290.9 374.05 290.9 371.6 288.05 369.15 285.15 368.2 285.15 364.15 288.45 358.3 291.75 346.6 298.35 337 298.35 326.2 298.35 318.15 295.3 314.5 293.95 311.45 291.95 310.85 291.55 310.25 291.15 310.1 291.05 309.95 290.95 307.9 289.4 304.45 286.15 302.05 283.9 300.9 283.9 299.3 283.9 297.6 286.2 296.8 287.25 295.3 289.7 294.8 290.45 294.25 291.35 289.05 298.75 281.1 298.75 274.35 298.75 268.05 296.9 264.95 295.85 262.05 294.9 257.3 293.35 253.2 292.15 252.85 293.2 251.55 294.2 250.4 295.05 249.9 295.05 246.5 295.05 244.15 287.4 242.9 283.45 242.2 282.15 240.9 279.75 238.95 279.75 236.15 279.75 235.55 285.7 234.8 292.7 234.25 293.4 232.5 295.5 228.8 295.85 227.45 295.95 225.9 295.85 217.75 295.3 216.9 295.45 209.75 297 199.2 303.95 190.1 309.9 182.4 309.9 172.6 309.9 164.4 303.6 159.3 299.75 152.05 290.5 150.2 288.15 143.9 286.9 137.9 285.65 135.95 282.65 135 281.15 134.1 278.05 133.2 274.45 132.65 272.75 130.6 266.55 126.05 266.55 124.25 266.55 123 267.3 122.65 269 122.65 271.15 122.65 278.7 129.1 284.1 132.95 287.3 143.4 292.3 153.85 297.2 157.9 300.65 161.85 304 163.6 308.15 151.5 311 145.6 312.55 131.3 316.35 128.15 319.6 127.25 320.5 127.25 321.35 127.25 322.6 134.05 323.3 145.7 324.45 146.8 324.65 140.75 325.5 132.05 330.65 123.35 335.75 123.35 338.5 123.35 342.1 133.6 345.1 146.1 348.8 167.2 348.8
L 198.1 348.1
Q 200.45 348.1 227.85 349.1 255.2 350.05 262.95 350.05 306.6 350.05 377.25 342.85 450.25 335.45 462.7 328.95 458.75 325 439.55 323.05 437.15 322.9 435 322.75 426.05 322.2 422.1 321.9 419.6 321.7 419.1 321.65 425.8 319.35 429.35 317.7 436.6 314.25 436.6 311.45 436.6 308.35 429.45 305.4 423.6 302.95 413 300.6 411.8 300.3 410.55 300.05 410.35 300 410.15 300 409.55 297.35 409.55 294.8 409.55 294.75 409.55 294.65 409.6 286.55 415.45 279.75 418.75 275.85 428.35 268.65
M 400.3 288.65
Q 401.2 288.65 403.4 293.65 405.5 298.5 405.5 299.8 405.5 302.8 399.7 310.2 393.55 318.05 389.95 318.05 388.35 316.85 386.3 315.5 383.25 313.45 380.5 312.45 380.8 311.65 381.5 310.2 382.75 307.75 382.75 306.85 382.75 305.6 381.9 304 381.05 302.35 381.05 301.05 381.05 300.4 390.6 294.45 399.95 288.65 400.3 288.65
M 357.2 295.15
Q 363.9 290.8 367.7 290.55 368.05 291.5 373.35 297.9 378.5 304.1 378.5 304.7 378.5 305.45 375.55 311 371.8 318 371.6 318.35 370.65 320.4 369.35 321.2 367.85 322.05 364.75 322.05 360.9 322.05 359.1 319.3 357.65 315.95 356.55 314.65 355.45 313.4 352.65 312.25 351.6 311.8 349.7 311.2 349.15 309.75 349.05 309.35 348.95 308.9 348.95 306.2 348.95 300.5 357.2 295.15
M 374.9 318.55
Q 375.8 317.5 376.45 317.5 377.25 317.5 378.55 319.1 379.85 320.8 379.85 322.15 379.85 322.55 379.05 323.35 378.25 324.1 377.85 324.1 375.95 324.1 375.55 322.45 375.35 320.1 374.9 318.55
M 378.05 332.45
Q 385.6 331.65 398.85 326.6 415.6 320.2 416.85 315.45
L 416.85 315.1 416.9 315.3
Q 417 315.45 417.2 315.45 413.6 323.45 397.75 328.55 388.2 331.65 378.05 332.45
M 344.9 301.75
Q 347.55 301.75 347.55 308.45 347.55 309.5 347.4 310.4 347.3515625 310.4 347.3 310.4 347.3515625 310.4015625 347.4 310.45 346.65 315.25 341.9 316.8 339.05 317.55 337.95 318 336.2 318.7 336.2 320.2 336.2 321.1 337 324.15 337 326.3 331.7 327.85 327.05 329.25 322.45 329.25 319.05 329.25 311.4 327.45 302.25 325.3 301.8 325.25 302.5 323.45 302.85 322.6 305.2 321 305.8 319.9 306.45 318.65 309.2 309.1 311.4 301.15 320.75 301.15 322.5 301.15 323.7 301.6 325.55 302.3 328.25 302.75 329.75 303 332.75 303.8 334.65 304.3 336.6 304.3 338.2 304.3 340.55 303.05 342.95 301.75 344.9 301.75
M 352.6 316.75
Q 352.6 317.7 353 318.75 353.35 319.8 353.35 320.05 353.35 321.9 350.45 323.1 347.95 324.15 345.05 324.15 343.25 323.9 342.25 323.9 342.25 323.65 342.15 323.3 342 323 342 322.7 342 322.3 342.1 321.95 341.75 321.75 341.6 321.45 341.45 321.2 341.45 320.55 341.45 320.2 344.95 318.35 348.45 316.5 349.45 316.5 350.05 316.5 352.6 316.75
M 138.25 334.8
Q 138.25 333.85 139.05 332.4 139.55 333.8 140.75 336.1 142.95 340.4 144.2 341.25
L 143.9 341.25
Q 142.15 341.1 140.3 339.25 138.25 337.2 138.25 334.8
M 156.45 337.6
Q 147.85 334.65 147.85 331.65 147.85 330.05 152.5 325.75 152.55 332.85 168.25 336.55 180.75 339.5 198.4 339.55 196.9 340.1 191.05 340.5 185.15 340.9 179.05 340.9 166.05 340.9 156.45 337.6
M 300.1 293
Q 300.5 293 301.35 293.85 302.35 294.9 303.95 297.25 307.1 301.9 307.1 305 307.1 314.6 300.25 321 293.5 327.35 283.7 327.35 282.3 327.35 278.55 323.25 274.8 319.15 273.5 319.15 273.1 319.15 266.75 321.1 262.4 322.5 260.65 323.05 261.35 319.9 261.35 318.5 261.35 317.35 258.85 310 256.35 302.65 256.35 302.6 256.35 301.8 257.9 301.4 258.95 301.15 259.9 301.15 262.35 301.15 268.7 303.4 275.05 305.65 279.1 305.65 281.35 305.65 290.6 299.35 298.45 293.95 299.85 293.15 300.05 293 300.1 293
M 237.7 301.7
Q 239.05 302.1 240.2 302.5 241.25 302.5 241.95 300.15 242.65 297.75 243.95 297.75 245.05 297.75 250.3 304.65 256.35 312.65 256.35 318.6 256.35 324.8 250.55 327.65 246.15 329.75 239 329.75 235.5 329.75 229.9 328.3 224.35 326.8 223.2 326.8 221.85 326.8 220 327.6 218.1 328.4 216.95 328.4 216.5 328.4 214.35 327.6 212.25 326.8 211.15 326.8 210.6 326.8 209 327.35 207.4 327.85 206.75 327.85 205.35 327.85 204.45 326.85 204.15 326.5 204 326.2 204.55 325.55 205.3 325.05 206.9 323.9 208.5 323.9 208.95 323.9 212.2 324.85 215.45 325.75 215.75 325.75 217.15 325.75 218.35 321.85 219.75 316.45 220.8 313.35 224.85 300.9 233.35 300.9 235 300.9 237.7 301.7
M 214.45 298.5
Q 216.85 298.5 217.45 302.25 217.75 304.05 217.75 310.45 217.75 317.4 216.75 319 215.4 321.25 209.55 321.5 206.15 321.65 201.65 325.5 197.25 329.25 195.65 329.25 193.6 329.25 190.3 328.3 186.3 327.05 186 325.5 185.65 323.4 183.3 318.95 181.45 315.45 180.7 313.9 181.9 311.45 185.8 311.05 192.95 310.3 195.25 308.8 202.55 303.7 205.65 301.75 210.8 298.5 214.45 298.5
M 170 310.05
Q 170.35 310.35 170.75 310.65 170.9 311.4 173.8 312.6 176.7 313.75 177 314.9 177.5 316.55 180.05 318.5 182.3 320.2 182.3 321.9 182.3 327.05 179.15 327.05 174.5 327.05 170.25 320.8 166.7 315.55 166.45 312
L 166.45 309.6
Q 166.55 309.6 166.85 309.5 167.15 309.35 167.5 309.35 169.15 309.35 170 310.05
M 288.35 337.3
Q 289.9 337.5 291.25 337.7 283.25 337.9 277.4 338.75 265.85 340.4 253.3 341.25
L 233.8 341.25
Q 235.3 340.45 250.25 338.45 266.4 336.25 274.25 336.25 280.85 336.25 288.35 337.3 Z"/>

<path fill="#CCFFFF" stroke="none" d="
M 488.05 231.2
L 487.1 230.3
Q 486.15 230.2 486.15 231.2 486.15 231.25 487.1 232.15 487.7 231.7 488.05 231.2 Z"/>
</g>

<g id="Layer0_0_FILL">
<path fill="#99FFFF" stroke="none" d="
M 328.1 245
Q 329.35 244.4 329.35 243.85 329.35 242.4 327.95 242.5 326.55 242.6 326.55 243.95 326.55 244.45 326.65 244.55 326.75 244.65 326.75 244.7
L 328.1 245
M 290 197.4
Q 289.65 196.8 289 196.25 288.5 196.4 288.5 196.45 288.3 196.6 288.3 197.15 288.3 197.75 288.5 197.9 288.6 198 289 198.1 289.7 197.9 290 197.4
M 276.25 194.25
Q 278.2 196.4 281.9 196.4 283.65 196.4 284.7 195.6 285.7 194.85 285.7 193.7 285.7 190.45 280.3 188.7 274.9 186.95 274.9 191.45 274.9 192.8 276.25 194.25
M 252.7 185.7
Q 252.7 181.6 250.75 181.75 248.75 181.85 248.75 184.95
L 248.85 185.9
Q 249.25 187.05 250.8 187.05 252.7 187.05 252.7 185.7
M 207.7 271.35
Q 207.7 270.25 208.4 268.75 209.05 267.25 209.05 266.3 209.05 261.8 205 261.95 200.95 262.15 200.95 265.95 200.95 268.9 202.95 271.3 204.9 273.65 204.9 274.75 204.9 275.8 203.8 277.5 202.7 279.2 202.7 280.9
L 203.15 282.65
Q 204 284.4 206.3 284.4 208.05 284.4 209.65 279.75 209.65 279.25 208.7 275.4 207.7 271.5 207.7 271.35
M 286.85 254.3
Q 287.1 253.8 287.1 253.3 287.1 251.85 285.8 251.95 284.45 252.05 284.45 253.25 284.45 253.7 284.65 254.2 284.95 255.05 285.7 255.05 286.45 255.05 286.85 254.3
M 306.2 86.4
L 306.1 86.3
Q 306 86.45 306 87.7 306 88.9 306.35 88.95 306.55 89 307.4 89 307.95 88.85 308.25 88.55 308.4 88.4 308.8 87.8
L 308.4 86.6
Q 307.8 86.35 307.1 86.35 306.4 86.4 306.2 86.4
M 322.6 175
L 322.2 172.5
Q 319.65 171.85 318.75 172.7 318.1 173.25 318.1 174.9 318.1 175.45 320.4 177.4 320.95 177.3 321.55 177.05 322 176.8 322.2 176.8
L 322.6 175
M 279 161.8
L 281.8 162.4
Q 283.1 161.85 284.05 160.8 284.9 159.85 284.9 159.3 284.9 156.85 281.75 156.85 278.6 156.85 278.6 159.3 278.6 160.5 278.8 161.1 279 161.7 279 161.8
M 287.9 125.7
L 287.3 124.5
Q 286.4 124.75 286.1 124.9 285.4 125.25 284.7 126.3 285.3 126.9 286.3 127.3 287.55 126.8 287.9 125.7
M 201.1 185.1
L 202.3 184.7 202.9 183.1
Q 202.1 181.9 201.1 181.5 200.25 181.55 199.9 181.7 199.3 181.95 199.3 183.2 199.3 184.5 199.75 184.75 200.05 184.95 201.1 185.1
M 197.5 170.55
Q 197.9 169.5 197.9 167.5 197.9 164.3 194.15 164.25 190.4 164.25 190.4 167.7 190.4 167.85 190.6 170.1 191.5 172.3 195 172.3 196.85 172.3 197.5 170.55 Z"/>
</g>
</defs>

<g transform="matrix( 1, 0, 0, 1, 0,0) ">
<use xlink:href="#Layer7_0_FILL"/>
</g>

<g transform="matrix( 1, 0, 0, 1, 0,0) ">
<use xlink:href="#Layer6_0_FILL"/>
</g>

<g transform="matrix( 0.82928466796875, 0, 0, 0.82928466796875, -417.35,449.35) ">
<g transform="matrix( 1, 0, 0, 1, 0,0) ">
<use xlink:href="#S_mbolo_1_0_Layer0_0_FILL"/>
</g>
</g>

<g transform="matrix( 0.82928466796875, 0, 0, 0.82928466796875, -293.85,473.9) ">
<g transform="matrix( 1, 0, 0, 1, 0,0) ">
<use xlink:href="#S_mbolo_1_0_Layer0_0_FILL"/>
</g>
</g>

<g transform="matrix( -0.82928466796875, 0, 0, 0.82928466796875, -150.25,449.35) ">
<g transform="matrix( 1, 0, 0, 1, 0,0) ">
<use xlink:href="#S_mbolo_1_0_Layer0_0_FILL"/>
</g>
</g>

<g transform="matrix( -0.82928466796875, 0, 0, 0.82928466796875, -254.35,469.15) ">
<g transform="matrix( 1, 0, 0, 1, 0,0) ">
<use xlink:href="#S_mbolo_1_0_Layer0_0_FILL"/>
</g>
</g>

<g transform="matrix( 0.82928466796875, 0, 0, 0.82928466796875, -40.35,456.6) ">
<g transform="matrix( 1, 0, 0, 1, 0,0) ">
<use xlink:href="#S_mbolo_1_0_Layer0_0_FILL"/>
</g>
</g>

<g transform="matrix( 0.82928466796875, 0, 0, 0.82928466796875, 83.15,481.15) ">
<g transform="matrix( 1, 0, 0, 1, 0,0) ">
<use xlink:href="#S_mbolo_1_0_Layer0_0_FILL"/>
</g>
</g>

<g transform="matrix( -0.82928466796875, 0, 0, 0.82928466796875, 226.75,456.6) ">
<g transform="matrix( 1, 0, 0, 1, 0,0) ">
<use xlink:href="#S_mbolo_1_0_Layer0_0_FILL"/>
</g>
</g>

<g transform="matrix( -0.82928466796875, 0, 0, 0.82928466796875, 122.65,476.4) ">
<g transform="matrix( 1, 0, 0, 1, 0,0) ">
<use xlink:href="#S_mbolo_1_0_Layer0_0_FILL"/>
</g>
</g>

<g transform="matrix( 1, 0, 0, 1, 0,0) ">
<use xlink:href="#Layer4_0_FILL"/>
</g>

<g transform="matrix( 1, 0, 0, 1, 0,0) ">
<use xlink:href="#Layer3_0_FILL"/>
</g>

<g transform="matrix( 1, 0, 0, 1, 0,0) ">
<use xlink:href="#Layer2_0_FILL"/>
</g>

<g transform="matrix( 1, 0, 0, 1, 0,0) ">
<use xlink:href="#Layer1_0_FILL"/>
</g>

<g transform="matrix( 1, 0, 0, 1, 0,0) ">
<use xlink:href="#Layer0_0_FILL"/>
</g>
</svg>
