
<svg xmlns="http://www.w3.org/2000/svg" version="1.1" xmlns:xlink="http://www.w3.org/1999/xlink" preserveAspectRatio="none" x="0px" y="0px" width="550px" height="400px" viewBox="0 0 550 400">
<defs>
<radialGradient id="Gradient_1" gradientUnits="userSpaceOnUse" cx="0" cy="0" r="363.4500000000001" fx="0" fy="0" gradientTransform="matrix( 0.9999999999999998, 0, 0, 0.9999999999999998, 265.95,215.55) " spreadMethod="pad">
<stop  offset="25.49019607843137%" stop-color="#EE0A55"/>

<stop  offset="100%" stop-color="#660000"/>
</radialGradient>

<radialGradient id="Gradient_2" gradientUnits="userSpaceOnUse" cx="0" cy="0" r="345.6277524754776" fx="0" fy="0" gradientTransform="matrix( 0.9996665416053772, 0.025822579165234227, -0.061663161732106946, 0.9980752342058389, 258.75,203.25) " spreadMethod="pad">
<stop  offset="0%" stop-color="#FF6699"/>

<stop  offset="100%" stop-color="#FF3333"/>
</radialGradient>

<linearGradient id="Gradient_3" gradientUnits="userSpaceOnUse" x1="196.7125" y1="23.662499999999994" x2="-28.212500000000006" y2="243.63750000000002" spreadMethod="pad">
<stop  offset="0%" stop-color="#FF99CC"/>

<stop  offset="100%" stop-color="#FF99CC"/>
</linearGradient>

<linearGradient id="Gradient_4" gradientUnits="userSpaceOnUse" x1="124.25" y1="98.525" x2="124.25" y2="33.375" spreadMethod="pad">
<stop  offset="0%" stop-color="#FFFFFF" stop-opacity="0.5490196078431373"/>

<stop  offset="100%" stop-color="#FFFFFF" stop-opacity="0.10980392156862745"/>
</linearGradient>

<g id="Layer3_0_FILL">
<path fill="#660000" stroke="none" d="
M 46.1 443.8
Q 26.9 426.85 15.6 412.4 -3.6986328125 387.6130859375 -20 362.25
L -20 477.2 89.85 477.2
Q 66.18515625 461.4533203125 46.1 443.8
M 551.55 -17.5
L 411.5 -17.5
Q 428.432421875 -8.3283203125 448.1 2.2 525.3 43.55 530.85 47.25 525.8 53.1 523.3 56.1 518.9 61.45 518.9 66.05 518.9 66.6 530.6 79.8 540.9623046875 91.5138671875 551.55 102.65
L 551.55 -17.5 Z"/>

<path fill="url(#Gradient_1)" stroke="none" d="
M 518.9 66.05
Q 518.9 61.45 523.3 56.1 525.8 53.1 530.85 47.25 525.3 43.55 448.1 2.2 428.432421875 -8.3283203125 411.5 -17.5
L -20 -17.5 -20 362.25
Q -3.6986328125 387.6130859375 15.6 412.4 26.9 426.85 46.1 443.8 66.18515625 461.4533203125 89.85 477.2
L 551.55 477.2 551.55 102.65
Q 540.9623046875 91.5138671875 530.6 79.8 518.9 66.6 518.9 66.05
M 492.6 141.25
Q 497.95 151.75 497.2 159.4 493.65 190.15 450.6 238.9 414 280.15 346.45 337 303.3 373.25 271.7 386.3 246.65 396.55 217.55 395.85 183.5 394.95 133.3 365.25 100.2501953125 345.712109375 31.75 294.75 27.5337890625 291.5826171875 23.15 288.3 17.8 280.9 14.65 274.2 9.95 264.25 9.75 255.95 9.35 242.8 18.4 224.55 27.4 205.9 44.95 184.1 83.95 135.6 149.65 88.2 202.75 49.8 243.7 32.55 282.95 15.85 314.6 17.1 323.482421875 17.4306640625 334.9 20.95 349.4291015625 25.498046875 368.05 35.2 398.6 51.1 429.7 75.3 460.55 99.4 479 121.6 487.95 132.45 492.6 141.25 Z"/>

<path fill="url(#Gradient_2)" stroke="none" d="
M 497.2 159.4
Q 497.95 151.75 492.6 141.25 487.95 132.45 479 121.6 460.55 99.4 429.7 75.3 398.6 51.1 368.05 35.2 349.4291015625 25.498046875 334.9 20.95 323.482421875 17.4306640625 314.6 17.1 282.95 15.85 243.7 32.55 202.75 49.8 149.65 88.2 83.95 135.6 44.95 184.1 27.4 205.9 18.4 224.55 9.35 242.8 9.75 255.95 9.95 264.25 14.65 274.2 17.8 280.9 23.15 288.3 27.5337890625 291.5826171875 31.75 294.75 100.2501953125 345.712109375 133.3 365.25 183.5 394.95 217.55 395.85 246.65 396.55 271.7 386.3 303.3 373.25 346.45 337 414 280.15 450.6 238.9 493.65 190.15 497.2 159.4 Z"/>
</g>

<g id="S_mbolo_1_0_Layer0_0_FILL">
<path fill="url(#Gradient_3)" stroke="none" d="
M 248.25 59.55
Q 247.25 56.7 243.05 53.8 242.85 53.7 236 49.55 223.2 41.8 210.35 34.4 209.95 34.2 209.55 33.9 197.25 26.75 184.8 19.9 172.2 12.95 160.25 4.9 152.8 0.1 144.05 0 140.95 0 138.2 1.2 126.75 6.2 116.8 13.85 114.8 15.35 112.9 17.1 101.3 26.55 90.45 36.9 79.9 46.65 69.3 56.6 68.8 57.2 68.3 57.7 61 64.55 53.55 71.2
L 47 76.95
Q 42.55 81.05 35.25 87.8 24.65 97.25 21.15 100.35 17.4 103.6 14.2 106.5 11.8 108.6 9.7 110.7 0.9 119.4 0.1 123.7 0 124.1 0 124.5 0 127.7 4.15 131.85 6.55 134.15 10.6 137 16 140.8 23.75 145.2 31.7 151.35 41.25 158.1 43.25 159.3 45.3 160.8 49 163.45 53.05 166.05 53.65 166.55 77.05 183.15 85 188.6 90.45 192.1 101.7 199.45 103.4 199.45 109.15 199.45 113.5 196.2 118.3 192.1 122.35 187.45 132 176.7 142.85 167.15 153.8 157.5 164.25 147.55 171.4 140.7 178.65 133.95 182.2 130.55 185.8 127.2 196.05 117.65 206.6 108.5 223.2 93.95 231.65 85.5 250.7 66.05 248.25 59.55
M 167.2 32.65
Q 170.4 34.6 173.75 36.7 163.95 48.45 145.75 70.3 141.65 75.3 137 80.85 133.8 78.65 130.8 76.75 134.4 72.2 140.35 65.05 139.75 64.45 139.15 63.85 136.4 60.95 134.5 58.7 130 62.75 126.55 65.85 123.55 68.4 121.45 70.3 118.1 68 114.9 65.65 117.1 63.85 120.1 61.15 125.95 56 134.7 48.25 143.15 40.8 150.1 34.8 154.6 30.75 158.65 27.35 161.55 29.15 164.8 31.05 166 31.85 167.2 32.65
M 181.35 41.4
Q 181.55 41.6 182 41.8 185.8 44.25 189.4 46.55 188.2 47.85 186.8 49.15 185 51 183.5 52.6 171.1 65.05 165.3 71.8 159.55 78.45 154.5 83.55 157.05 85.3 160.25 87.4 163.15 89.4 165.6 91.1 162.45 94.35 160.05 96.45 154.4 92.7 149 89 148.9 89 148.9 88.9 145.15 86.4 141.55 83.95 143.65 81.45 146.65 78.05 148.8 75.8 151.1 73.2 155.3 68.7 160.45 63.25 172.9 49.75 181.35 41.4
M 167.6 92.4
Q 173.15 86.5 181.35 77.65 193.85 64.25 202.3 55.9 202.5 56 202.8 56.2 206.7 58.6 210.45 60.95 209.15 62.25 207.75 63.65 192.85 78.65 186.2 86.3 180.45 92.9 175.45 97.95 177.95 99.75 181.15 101.85 184.2 103.9 186.5 105.6 183.3 108.7 180.95 110.95 175.35 107.1 169.9 103.6 169.8 103.4 169.8 103.3 166.1 100.85 162.45 98.35 164.6 95.85 167.6 92.4
M 135.7 12.75
Q 138.4 14.35 141.55 16.5 146.35 19.6 152.5 23.5 149.3 26.45 145.55 30.25 142.95 27.85 139.75 25.55 137.1 23.5 135.1 22.2 130.6 26.45 126.35 30.35 113.1 42.75 105.65 50.25 108.15 52 113.5 56.1 114.9 57.2 116.3 58.1 113.2 61.05 111.25 63.15 105.65 59.1 100.6 55.6 96.8 53 93.25 50.25 104.65 40.1 117.5 28.85 129.45 18.2 135.7 12.75
M 112.05 92.8
Q 107.85 90.3 104.75 90.3 97 90.3 91.65 94.05 88.05 96.45 85 100.95 72.95 92.7 63.5 87.6 64.8 86.1 66.5 84.35 71.25 79.25 74.35 76.55 83 68.8 89.85 68.8 95.25 68.8 109.95 78.15 117.2 82.75 123.95 87.6 126.25 89.3 128.45 91 141.95 101.25 145.75 104.7 158.85 116.25 158.85 122.5 158.85 130.35 152.7 141.3 150.3 145.65 147.4 149.45 135.7 139.8 125.95 131.85 126.45 131.25 126.95 130.45 132.9 123.1 132.9 116.95 132.9 114.85 129.9 110.3 126.95 106 122.55 101.45 116.7 95.55 112.05 92.8
M 156.05 46.15
Q 155.95 46.05 155.85 45.95 153.3 43.95 151.9 43.05 146.85 47.55 140.95 53 140.15 53.7 139.45 54.4 141.65 55.6 143.85 57.6 144.85 58.2 145.55 58.8 151.3 52 156.05 46.15 Z"/>

<path fill="#CC3366" stroke="none" d="
M 104.75 90.3
Q 107.85 90.3 112.05 92.8 116.7 95.55 122.55 101.45 126.95 106 129.9 110.3 132.9 114.85 132.9 116.95 132.9 123.1 126.95 130.45 126.45 131.25 125.95 131.85 135.7 139.8 147.4 149.45 150.3 145.65 152.7 141.3 158.85 130.35 158.85 122.5 158.85 116.25 145.75 104.7 141.95 101.25 128.45 91 126.25 89.3 123.95 87.6 117.2 82.75 109.95 78.15 95.25 68.8 89.85 68.8 83 68.8 74.35 76.55 71.25 79.25 66.5 84.35 64.8 86.1 63.5 87.6 72.95 92.7 85 100.95 88.05 96.45 91.65 94.05 97 90.3 104.75 90.3
M 141.55 16.5
Q 138.4 14.35 135.7 12.75 129.45 18.2 117.5 28.85 104.65 40.1 93.25 50.25 96.8 53 100.6 55.6 105.65 59.1 111.25 63.15 113.2 61.05 116.3 58.1 114.9 57.2 113.5 56.1 108.15 52 105.65 50.25 113.1 42.75 126.35 30.35 130.6 26.45 135.1 22.2 137.1 23.5 139.75 25.55 142.95 27.85 145.55 30.25 149.3 26.45 152.5 23.5 146.35 19.6 141.55 16.5
M 181.35 77.65
Q 173.15 86.5 167.6 92.4 164.6 95.85 162.45 98.35 166.1 100.85 169.8 103.3 169.8 103.4 169.9 103.6 175.35 107.1 180.95 110.95 183.3 108.7 186.5 105.6 184.2 103.9 181.15 101.85 177.95 99.75 175.45 97.95 180.45 92.9 186.2 86.3 192.85 78.65 207.75 63.65 209.15 62.25 210.45 60.95 206.7 58.6 202.8 56.2 202.5 56 202.3 55.9 193.85 64.25 181.35 77.65
M 182 41.8
Q 181.55 41.6 181.35 41.4 172.9 49.75 160.45 63.25 155.3 68.7 151.1 73.2 148.8 75.8 146.65 78.05 143.65 81.45 141.55 83.95 145.15 86.4 148.9 88.9 148.9 89 149 89 154.4 92.7 160.05 96.45 162.45 94.35 165.6 91.1 163.15 89.4 160.25 87.4 157.05 85.3 154.5 83.55 159.55 78.45 165.3 71.8 171.1 65.05 183.5 52.6 185 51 186.8 49.15 188.2 47.85 189.4 46.55 185.8 44.25 182 41.8
M 173.75 36.7
Q 170.4 34.6 167.2 32.65 166 31.85 164.8 31.05 161.55 29.15 158.65 27.35 154.6 30.75 150.1 34.8 143.15 40.8 134.7 48.25 125.95 56 120.1 61.15 117.1 63.85 114.9 65.65 118.1 68 121.45 70.3 123.55 68.4 126.55 65.85 130 62.75 134.5 58.7 136.4 60.95 139.15 63.85 139.75 64.45 140.35 65.05 134.4 72.2 130.8 76.75 133.8 78.65 137 80.85 141.65 75.3 145.75 70.3 163.95 48.45 173.75 36.7
M 155.85 45.95
Q 155.95 46.05 156.05 46.15 151.3 52 145.55 58.8 144.85 58.2 143.85 57.6 141.65 55.6 139.45 54.4 140.15 53.7 140.95 53 146.85 47.55 151.9 43.05 153.3 43.95 155.85 45.95 Z"/>
</g>

<g id="S_mbolo_3_0_Layer0_0_FILL">
<path fill="#BDBDBD" stroke="none" d="
M 443.55 244.05
Q 444.4041015625 244.494140625 445.25 244.95 446.3541015625 242.182421875 447.9 239.4 445.75 238.25 443.55 237.1 421.6 224.9 400.75 210.55 399.3849609375 213.148828125 398.25 215.75 420.2634765625 231.134375 443.55 244.05
M 360.35 179.9
Q 359.8 179.45 359.25 178.95 357.853515625 181.3033203125 356.75 183.6 358.419140625 185.2087890625 360.35 186.85 374.85 198.8 389.85 209.75 390.95 210.45 391.85 211.15 392.7431640625 211.8603515625 393.65 212.55 394.8125 210.0625 396.35 207.5 394 205.9 391.85 204.2 390.95 203.5 389.85 202.8 374.85 191.85 360.35 179.9 Z"/>

<path fill="#AAAAAA" stroke="none" d="
M 445.25 244.95
Q 444.4041015625 244.494140625 443.55 244.05 420.2634765625 231.134375 398.25 215.75 397.257421875 218.1513671875 396.45 220.55 419.3 236.65 443.55 250.1 444.204296875 247.530859375 445.25 244.95
M 355.05 187.95
Q 357.35 190.35 360.35 192.9 374.85 204.85 389.85 215.8 390.95 216.5 391.85 217.2 392.58125 214.90859375 393.65 212.55 392.7431640625 211.8603515625 391.85 211.15 390.95 210.45 389.85 209.75 374.85 198.8 360.35 186.85 358.419140625 185.2087890625 356.75 183.6 355.77421875 185.8015625 355.05 187.95 Z"/>

<path fill="#333333" stroke="none" d="
M 417.7 182.7
Q 410.95 188.55 405.3 195.3 399.8 201.6 396.35 207.5 394.8125 210.0625 393.65 212.55 392.58125 214.90859375 391.85 217.2 394.05 218.95 396.45 220.55 397.257421875 218.1513671875 398.25 215.75 399.3849609375 213.148828125 400.75 210.55 403 206.3 405.9 202.15 414.05 190.65 425.65 182.3 423.6 180.8 421.6 179.6 419.8 180.9 417.7 182.7 Z"/>

<path fill="#DBDBDB" stroke="none" d="
M 356.75 183.6
Q 355.8697265625 182.7552734375 355.05 181.9 351.35 178.05 349.2 174.3 346.9595703125 170.41796875 346.3 166.55 345.1822265625 173.3884765625 349.2 180.35 351.35 184.1 355.05 187.95 355.77421875 185.8015625 356.75 183.6
M 663.7 62.95
Q 663.6107421875 63.6357421875 663.5 64.3 663.2 65.5 662.9 66.55 661.4 72.45 657.4 78.2 652.45 85.55 584.25 150.5 549.15 184.1 504.3 226.65 492.1 238.65 483.75 244.35 471.7 252.8 463.35 252.1 460.35 251.8 455.7 249.9 451.9 248.6 448.45 246.65 446.869921875 245.794140625 445.25 244.95 444.204296875 247.530859375 443.55 250.1 446.05 251.4 448.45 252.7 451.9 254.65 455.7 255.95 460.35 257.85 463.35 258.15 471.7 258.85 483.75 250.4 492.1 244.7 504.3 232.7 549.15 190.15 584.25 156.55 652.45 91.6 657.4 84.25 661.4 78.5 662.9 72.6 663.2 71.55 663.5 70.35 663.65 69.45 663.75 68.55 664.0533203125 65.6689453125 663.7 62.95 Z"/>

<path fill="#F0F0F0" stroke="none" d="
M 347.25 163.1
Q 346.61640625 164.8373046875 346.3 166.55 346.9595703125 170.41796875 349.2 174.3 351.35 178.05 355.05 181.9 355.8697265625 182.7552734375 356.75 183.6 357.853515625 181.3033203125 359.25 178.95 356.9 176.9 355.05 174.95 351.35 171.1 349.2 167.35 347.95 165.2 347.25 163.1
M 662.95 59.55
Q 662.9 59.55 662.9 59.6 661.4 65.5 657.4 71.25 652.45 78.6 584.25 143.55 549.15 177.15 504.3 219.7 492.1 231.7 483.75 237.4 471.7 245.85 463.35 245.15 460.35 244.85 455.7 242.95 451.9 241.65 448.45 239.7 448.15 239.55 447.9 239.4 446.3541015625 242.182421875 445.25 244.95 446.869921875 245.794140625 448.45 246.65 451.9 248.6 455.7 249.9 460.35 251.8 463.35 252.1 471.7 252.8 483.75 244.35 492.1 238.65 504.3 226.65 549.15 184.1 584.25 150.5 652.45 85.55 657.4 78.2 661.4 72.45 662.9 66.55 663.2 65.5 663.5 64.3 663.6107421875 63.6357421875 663.7 62.95 663.4615234375 61.2220703125 662.95 59.55 Z"/>

<path fill="#CCCCCC" stroke="none" d="
M 433.4 187.55
Q 429.35 184.95 425.65 182.3 414.05 190.65 405.9 202.15 403 206.3 400.75 210.55 421.6 224.9 443.55 237.1 445.75 238.25 447.9 239.4 451.35 233.1 457.1 226.65 462.35 220.85 470.8 213.6 465.35 210.1 457.4 204.65 434 188.05 433.4 187.55
M 447.25 219.85
Q 447.45 222.35 445.55 226.25 444.85 227.8 443.95 229.2 439.7 226.05 436.4 223.55 436.5 223.35 436.7 223.15 438.5 220.55 438.3 218.4 438.3 217.7 437.2 216.2 436.2 214.8 434.6 213.4 430.55 209.85 428.25 210.1 425.75 210.2 423.95 211.6 422.9 212.4 421.8 214 417.6 211.5 414.35 209.85 414.65 209.45 415.15 208.75 416.8 206.95 417.8 205.95 420.6 203.25 422.9 203.05 424.75 202.85 429.85 205.75 433.3 207.65 436.4 209.75 441 213 442.55 214 447.15 217.6 447.25 219.85
M 359.25 178.95
Q 359.8 179.45 360.35 179.9 374.85 191.85 389.85 202.8 390.95 203.5 391.85 204.2 394 205.9 396.35 207.5 399.8 201.6 405.3 195.3 410.95 188.55 417.7 182.7 419.8 180.9 421.6 179.6 412.05 172.85 404.1 166.7 396.35 162.3 390.95 158.5 386.9 155.65 384.5 153.35 371.7 161.7 363.05 173.35 360.95 176.2 359.25 178.95
M 368 176.7
Q 369.5 174.85 370.4 173.85 373.15 171.05 375.55 170.95 377.45 170.85 382.5 173.65 386 175.6 389 177.7 393.85 180.8 395.15 181.9 399.9 185.55 399.9 187.65 400.1 190.25 398.3 194.1 397.45 195.6 396.65 197 392.45 193.9 389 191.45 389.1 191.35 389.3 190.95 391.25 188.45 391.05 186.35 391.05 185.65 389.85 184.1 388.9 182.7 387.2 181.3 383.3 177.8 381 178 378.35 178.1 376.65 179.4 375.55 180.3 374.55 181.9 370.2 179.4 367 177.8 367.4 177.3 368 176.7
M 631.4 56.4
Q 631.2 57.3 631.95 57.75 632.9 58.35 633.95 57.85 635 57.35 634.6 56.15 634.05 55.2 632.85 55.2 631.75 55.25 631.4 56.4 Z"/>

<path fill="#CC0000" stroke="none" d="
M 445.55 226.25
Q 447.45 222.35 447.25 219.85 447.15 217.6 442.55 214 441 213 436.4 209.75 433.3 207.65 429.85 205.75 424.75 202.85 422.9 203.05 420.6 203.25 417.8 205.95 416.8 206.95 415.15 208.75 414.65 209.45 414.35 209.85 417.6 211.5 421.8 214 422.9 212.4 423.95 211.6 425.75 210.2 428.25 210.1 430.55 209.85 434.6 213.4 436.2 214.8 437.2 216.2 438.3 217.7 438.3 218.4 438.5 220.55 436.7 223.15 436.5 223.35 436.4 223.55 439.7 226.05 443.95 229.2 444.85 227.8 445.55 226.25 Z"/>

<path fill="#339933" stroke="none" d="
M 370.4 173.85
Q 369.5 174.85 368 176.7 367.4 177.3 367 177.8 370.2 179.4 374.55 181.9 375.55 180.3 376.65 179.4 378.35 178.1 381 178 383.3 177.8 387.2 181.3 388.9 182.7 389.85 184.1 391.05 185.65 391.05 186.35 391.25 188.45 389.3 190.95 389.1 191.35 389 191.45 392.45 193.9 396.65 197 397.45 195.6 398.3 194.1 400.1 190.25 399.9 187.65 399.9 185.55 395.15 181.9 393.85 180.8 389 177.7 386 175.6 382.5 173.65 377.45 170.85 375.55 170.95 373.15 171.05 370.4 173.85 Z"/>

<path fill="#CC3300" stroke="none" d="
M 663.75 68.55
Q 663.65 69.45 663.5 70.35 663.2 71.55 662.9 72.6 661.4 78.5 657.4 84.25 652.45 91.6 584.25 156.55 549.15 190.15 504.3 232.7 492.1 244.7 483.75 250.4 471.7 258.85 463.35 258.15 460.35 257.85 455.7 255.95 451.9 254.65 448.45 252.7 446.05 251.4 443.55 250.1 419.3 236.65 396.45 220.55 394.05 218.95 391.85 217.2 390.95 216.5 389.85 215.8 374.85 204.85 360.35 192.9 357.35 190.35 355.05 187.95 351.35 184.1 349.2 180.35 347.5 190.8 357.95 201.65 360.25 204.05 363.25 206.6 377.75 218.55 392.75 229.5 393.85 230.2 394.75 230.9 396.95 232.65 399.35 234.25 422.2 250.35 446.45 263.8 448.95 265.1 451.35 266.4 454.8 268.35 458.6 269.65 463.25 271.55 466.25 271.85 474.6 272.55 486.65 264.1 495 258.4 507.2 246.4 552.05 203.85 587.15 170.25 655.35 105.3 660.3 97.95 664.3 92.2 665.8 86.3 666.1 85.25 666.4 84.05 667.4 78.25 665.8 73.2 665.4 71.7 664.7 70.3 664.25 69.4 663.75 68.55
M 502.7 209.55
Q 502.6 209.75 502.4 209.85
L 502.7 209.85 502.7 209.55 Z"/>

<path fill="#FFFFFF" stroke="none" d="
M 662.9 59.6
Q 662.9 59.55 662.95 59.55
L 662.9 59.5
Q 662.5 58 661.8 56.6 658.6 50.05 651.65 45.2 646.8 41.8 637.55 37.7 629.7 34.25 621.95 30.75 598.35 19.55 584.35 13.15 558.7 1.25 555.1 0.65 534.25 -2.75 516.25 11.5 503.9 21.5 491.8 31.65 475.95 44.9 460.55 58.5 434.6 81.25 408.65 104.15 396.55 114.9 384.4 125.5 376.75 132 361.05 146.4
L 360.65 146.9
Q 350.15 154.85 347.25 163.1 347.95 165.2 349.2 167.35 351.35 171.1 355.05 174.95 356.9 176.9 359.25 178.95 360.95 176.2 363.05 173.35 371.7 161.7 384.5 153.35 380.35 149.2 380.35 146 380.35 145.6 380.45 145.2 381.25 140.9 390.05 132.2 392.15 130.1 394.55 128 397.75 125.1 401.5 121.85 405 118.75 415.6 109.3 422.9 102.55 427.35 98.45
L 433.9 92.7
Q 441.35 86.05 448.65 79.2 449.15 78.7 449.65 78.1 460.25 68.15 470.8 58.4 481.65 48.05 493.25 38.6 495.15 36.85 497.15 35.35 507.1 27.7 518.55 22.7 521.3 21.5 524.4 21.5 533.15 21.6 540.6 26.4 552.55 34.45 565.15 41.4 577.6 48.25 589.9 55.4 590.3 55.7 590.7 55.9 603.55 63.3 616.35 71.05 623.2 75.2 623.4 75.3 627.6 78.2 628.6 81.05 631.05 87.55 612 107 603.55 115.45 586.95 130 576.4 139.15 566.15 148.7 562.55 152.05 559 155.45 551.75 162.2 544.6 169.05 534.15 179 523.2 188.65 512.35 198.2 502.7 208.95 498.65 213.6 493.85 217.7 489.5 220.95 483.75 220.95 482.05 220.95 470.8 213.6 462.35 220.85 457.1 226.65 451.35 233.1 447.9 239.4 448.15 239.55 448.45 239.7 451.9 241.65 455.7 242.95 460.35 244.85 463.35 245.15 471.7 245.85 483.75 237.4 492.1 231.7 504.3 219.7 549.15 177.15 584.25 143.55 652.45 78.6 657.4 71.25 661.4 65.5 662.9 59.6
M 502.4 209.85
Q 502.6 209.75 502.7 209.55
L 502.7 209.85 502.4 209.85
M 628.9 55.4
Q 630 51.45 633.85 51.35 637.95 51.25 639.7 54.65 641.2 58.6 637.55 60.4 634.05 62.1 630.8 60.1 628.2 58.5 628.9 55.4
M 609.85 41.65
Q 610.05 43.25 608 44.3 606.35 45.1 604.55 45.1 603.55 45.1 591.1 38.75 578.65 32.4 576.25 31.2 573.85 29.95 570.05 27.8 566.3 25.65 566.25 25.2 566.05 23.9 567.9 22.7 569.65 21.5 571.5 21.5 573.8 21.5 580.2 24.95 590.85 30.65 592.15 31.25 596.05 33.1 602.3 36.6 609.75 40.75 609.85 41.65 Z"/>

<path fill="#999999" stroke="none" d="
M 608 44.3
Q 610.05 43.25 609.85 41.65 609.75 40.75 602.3 36.6 596.05 33.1 592.15 31.25 590.85 30.65 580.2 24.95 573.8 21.5 571.5 21.5 569.65 21.5 567.9 22.7 566.05 23.9 566.25 25.2 566.3 25.65 570.05 27.8 573.85 29.95 576.25 31.2 578.65 32.4 591.1 38.75 603.55 45.1 604.55 45.1 606.35 45.1 608 44.3
M 633.85 51.35
Q 630 51.45 628.9 55.4 628.2 58.5 630.8 60.1 634.05 62.1 637.55 60.4 641.2 58.6 639.7 54.65 637.95 51.25 633.85 51.35
M 631.2 60.2
Q 628.85 58.75 629.45 55.9 630.45 52.35 633.95 52.25 637.7 52.15 639.25 55.25 640.65 58.8 637.3 60.45 636.7953125 60.6984375 636.3 60.85 634.9537109375 61.29375 633.65 61.1 632.40703125 60.9365234375 631.2 60.2 Z"/>

<path fill="#7E7E7E" stroke="none" d="
M 631.75 60.35
Q 629.75 59.15 630.3 56.75 631.15 53.75 634.05 53.65 637.2 53.6 638.55 56.2 639.7 59.2 636.9 60.6 636.596875 60.7486328125 636.3 60.85 636.7953125 60.6984375 637.3 60.45 640.65 58.8 639.25 55.25 637.7 52.15 633.95 52.25 630.45 52.35 629.45 55.9 628.85 58.75 631.2 60.2 632.40703125 60.9365234375 633.65 61.1 632.6880859375 60.931640625 631.75 60.35 Z"/>

<path fill="#626262" stroke="none" d="
M 630.3 56.75
Q 629.75 59.15 631.75 60.35 632.6880859375 60.931640625 633.65 61.1 634.9537109375 61.29375 636.3 60.85 636.596875 60.7486328125 636.9 60.6 639.7 59.2 638.55 56.2 637.2 53.6 634.05 53.65 631.15 53.75 630.3 56.75
M 630.65 57.15
Q 631.4 54.45 634.05 54.4 636.85 54.3 638.05 56.65 639.05 59.35 636.55 60.6 634.15 61.75 631.95 60.35 630.15 59.3 630.65 57.15 Z"/>

<path fill="#000000" stroke="none" d="
M 634.05 54.4
Q 631.4 54.45 630.65 57.15 630.15 59.3 631.95 60.35 634.15 61.75 636.55 60.6 639.05 59.35 638.05 56.65 636.85 54.3 634.05 54.4
M 631.95 57.75
Q 631.2 57.3 631.4 56.4 631.75 55.25 632.85 55.2 634.05 55.2 634.6 56.15 635 57.35 633.95 57.85 632.9 58.35 631.95 57.75 Z"/>
</g>

<g id="S_mbolo_2_0_Layer0_0_FILL">
<path fill="url(#Gradient_4)" stroke="none" d="
M 160.25 4.9
Q 152.8 0.1 144.05 0 140.95 0 138.2 1.2 126.75 6.2 116.8 13.85 114.8 15.35 112.9 17.1 101.3 26.55 90.45 36.9 79.9 46.65 69.3 56.6 68.8 57.2 68.3 57.7 61 64.55 53.55 71.2
L 47 76.95
Q 42.55 81.05 35.25 87.8 24.65 97.25 21.15 100.35 17.4 103.6 14.2 106.5 11.8 108.6 9.7 110.7 0.9 119.4 0.1 123.7 0 124.1 0 124.5 0 127 2.55 130.1 3.25 130.95 4.15 131.85 6.55 134.15 10.6 137 15.55 140.5 22.55 144.5 30.9 135.1 41.45 124.05 66.7 97.6 93.3 73.7 134.45 36.75 171.7 12.25 165.9 8.7 160.25 4.9 Z"/>
</g>

<g id="Layer0_0_FILL">
<path fill="#070707" stroke="none" d="
M -20 -17.5
L -20 -21.7
Q -22.479296875 -19.6029296875 -24.95 -17.5
L -20 -17.5
M 158.15 -17.3
Q 157.971875 -17.4001953125 157.8 -17.5
L -20 -17.5 -20 147.15
Q -13.773046875 151.065625 -12.4 151.1 -9.05 151.125 -6.05 150.25 -3.1875 148.9375 -0.35 147.6 -0.165625 147.4578125 0 147.3 4.7625 143.25 9.5 139.15 10.1203125 138.567578125 10.75 137.95 23 126.05 36.6 115.4 50.3 104.65 63.5 93.5 72.65 85.75 81.9 78.2 86.4 74.3 90.95 70.6 104.1 59.8 117.6 49.4 138.9 32.8 149.85 23.2 174.8 0.9 172.3 -6.35 172.2736328125 -6.4552734375 172.25 -6.55 172.2236328125 -6.6552734375 172.2 -6.75 172 -7.2 171.75 -7.55
L 171 -8.8 169.1 -10.75
Q 167.9 -11.75 166.4 -12.7 166.15 -12.8 158.15 -17.3
M 482.15 241.6
Q 465.95 254.85 450.75 269.3 436 282.9 421.2 296.85 420.45 297.7 419.8 298.4 409.55 307.95 399.2 317.25
L 390 325.3
Q 383.8 331 373.6 340.45 358.75 353.7 353.85 358 348.6 362.55 344.15 366.6 340.8 369.55 337.85 372.45 325.6 384.65 324.45 390.6 324.35 391.2 324.35 391.75 324.35 393.1 324.85 394.55 325.6 396.025 326.35 397.5 327.175 398.6 328 399.7 328.9 400.8 330.1 402 333.45 405.15 339.1 409.2 346.65 414.5 357.5 420.6 368.65 429.25 381.95 438.65 384.75 440.35 387.6 442.4 392.8 446.1 398.45 449.75 399.3 450.5 432 473.7 434.6701171875 475.528125 437.15 477.2
L 497.55 477.2
Q 510.1181640625 463.5783203125 524 451.3 538.0291015625 438.9267578125 551.55 426.1
L 551.55 226.7
Q 549.9458984375 225.6703125 548.35 224.6 537.9 217.85 525.7 217.7 521.35 217.7 517.5 219.4 501.45 226.4 487.6 237.1 484.8 239.2 482.15 241.6 Z"/>

<path fill="#660000" stroke="none" d="
M 215.6 -17.5
Q 215.441796875 -17.1125 215.3 -16.75 212.9 -9.95 207.55 -3.35 200.8 5.1 112.1 79.4 67.15 117.1 10.5 164.45 -4.8 177.65 -15.05 183.9 -17.6029296875 185.475 -20 186.75
L -20 203.15
Q -16.591015625 201.4755859375 -12.85 199.15 -2.65 193 12.7 179.8 69.4 132.55 114.45 94.8 203.25 20.55 210 12.15 215.45 5.55 217.8 -1.25 218.25 -2.5 218.75 -3.8 219.4 -6.45 219.55 -8.85 219.8 -12.7 218.85 -16.1 218.6822265625 -16.81328125 218.45 -17.5
L 215.6 -17.5
M 535.15 477.2
L 551.55 477.2 551.55 461.6
Q 543.5044921875 469.2853515625 535.15 477.2
M 301.35 477.2
L 321.4 477.2
Q 308.7478515625 467.5296875 296.35 457.3 292.15 453.75 288.95 450.4 283.75 445.05 280.8 439.8 278.4 454.4 293.05 469.55 296.2 472.9 300.45 476.45 300.905078125 476.825390625 301.35 477.2 Z"/>

<path fill="#333333" stroke="none" d="
M 157.8 -17.5
Q 157.971875 -17.4001953125 158.15 -17.3 166.15 -12.8 166.4 -12.7 167.9 -11.75 169.1 -10.75
L 171 -8.8 171.75 -7.55
Q 172 -7.2 172.2 -6.75 172.2236328125 -6.6552734375 172.25 -6.55 172.289453125 -6.42109375 172.35 -6.3 174.75 0.95 149.9 23.25 138.95 32.85 117.65 49.45 104.15 59.85 90.95 70.7 86.45 74.4 81.9 78.25 72.7 85.8 63.55 93.55 50.35 104.65 36.6 115.45 22.95 126.05 10.8 137.95 10.1541015625 138.57734375 9.5 139.15 4.7625 143.25 0 147.3 -0.165625 147.4578125 -0.35 147.6 -3.1875 148.9375 -6.05 150.25 -9.025 151.175 -12.35 151.15 -13.7259765625 151.115625 -20 147.2
L -20 172.9
Q -17.024609375 171.4044921875 -13.8 169.4 -3.7 163.1 11.65 150 68.3 102.6 113.2 64.8 199.0833984375 -7.334375 208.1 -17.5
L 157.8 -17.5
M 10.65 139
L 10.3 139
Q 10.6 138.85 10.7 138.65
L 10.65 139
M 551.55 443.45
L 551.55 426.25
Q 538.091015625 439.003125 524 451.35 510.1435546875 463.605859375 497.65 477.2
L 516.05 477.2
Q 534.4251953125 459.7533203125 551.55 443.45
M 450.75 269.3
Q 465.95 254.85 482.15 241.6 484.8 239.2 487.6 237.1 501.45 226.4 517.5 219.4 521.35 217.7 525.7 217.7 537.9 217.85 548.35 224.6 549.9458984375 225.6703125 551.55 226.7
L 551.55 187.95
Q 531.941015625 189.7564453125 514.3 203.75 497 217.7 480.15 231.9 457.95 250.4 436.4 269.45 400.15 301.25 363.9 333.25 347 348.3 330 363.1 319.3 372.2 297.35 392.3
L 296.8 393.05
Q 282.1 404.15 278.05 415.65 279.05 418.6 280.8 421.6 283.75 426.8 288.95 432.2 291.55 434.95 294.85 437.85 297.2 433.95 300.1 429.95 312.2 413.7 330.1 402.05 328.9 400.85 328 399.7 327.175 398.6 326.35 397.5 325.6 396.025 324.85 394.55 324.35 393.1 324.35 391.75 324.35 391.2 324.45 390.6 325.6 384.65 337.85 372.45 340.8 369.55 344.15 366.6 348.6 362.55 353.85 358 358.75 353.7 373.6 340.45 383.8 331 390 325.3
L 399.2 317.25
Q 409.55 307.95 419.8 298.4 420.45 297.7 421.2 296.85 436 282.9 450.75 269.3 Z"/>

<path fill="#CC3300" stroke="none" d="
M 10.3 139
L 10.65 139 10.7 138.65
Q 10.6 138.85 10.3 139
M 494.95 481.05
L 495.35 481.05 495.35 480.55
Q 495.2 480.9 494.95 481.05 Z"/>

<path fill="#1E1E1E" stroke="none" d="
M 213 -17.5
L 208.1 -17.5
Q 199.0833984375 -7.334375 113.2 64.8 68.3 102.6 11.65 150 -3.7 163.1 -13.8 169.4 -17.024609375 171.4044921875 -20 172.9
L -20 180.35
Q -17.323828125 178.9462890625 -14.45 177.15 -4.3 170.9 11.05 157.7 67.7 110.4 112.6 72.55 201.3 -1.8 208 -10.2 210.9517578125 -13.8349609375 213 -17.5
M 516.05 477.2
L 526.3 477.2
Q 539.2552734375 464.905078125 551.55 453.2
L 551.55 443.45
Q 534.4251953125 459.7533203125 516.05 477.2
M 387.65 442.5
Q 384.8 440.4 382 438.7 379.5 440.55 376.55 443.1 367.1 451.25 359.2 460.65 351.7548828125 469.1587890625 346.95 477.2
L 355.55 477.2
Q 357.6419921875 473.6984375 360.05 470.25 371.4 454.2 387.65 442.5
M 294.85 437.85
Q 291.55 434.95 288.95 432.2 283.75 426.8 280.8 421.6 279.05 418.6 278.05 415.65 277.15 418.1 276.75 420.55 277.65 425.85 280.8 431.3 283.75 436.55 288.95 441.95 290.1 443.15 291.4 444.35 292.85 441.1 294.85 437.85 Z"/>

<path fill="#000000" stroke="none" d="
M 215.6 -17.5
L 213 -17.5
Q 210.9517578125 -13.8349609375 208 -10.2 201.3 -1.8 112.6 72.55 67.7 110.4 11.05 157.7 -4.3 170.9 -14.45 177.15 -17.323828125 178.9462890625 -20 180.35
L -20 186.75
Q -17.6029296875 185.475 -15.05 183.9 -4.8 177.65 10.5 164.45 67.15 117.1 112.1 79.4 200.8 5.1 207.55 -3.35 212.9 -9.95 215.3 -16.75 215.441796875 -17.1125 215.6 -17.5
M 535.15 477.2
Q 543.5044921875 469.2853515625 551.55 461.6
L 551.55 453.2
Q 539.2552734375 464.905078125 526.3 477.2
L 535.15 477.2
M 291.4 444.35
Q 290.1 443.15 288.95 441.95 283.75 436.55 280.8 431.3 277.65 425.85 276.75 420.55 275.2 430.05 280.8 439.8 283.75 445.05 288.95 450.4 289.95 447.4 291.4 444.35 Z"/>

<path fill="#4D4D4D" stroke="none" d="
M 437.1 477.2
Q 434.6802734375 475.55078125 432.05 473.75 399.35 450.55 398.45 449.8 392.8 446.2 387.65 442.5 371.4 454.2 360.05 470.25 357.6419921875 473.6984375 355.55 477.2
L 375.05 477.2
Q 375.96796875 476.2576171875 376.65 475.6 380.55 471.75 383.8 471.5 386.35 471.2 393.5 475.25 395.223046875 476.2091796875 396.85 477.2
L 437.1 477.2
M 300.1 429.95
Q 297.2 433.95 294.85 437.85 295.6 438.5 296.35 439.1 316.65 455.85 337.6 471.15 339.15 472.15 340.4 473.1 343.0787109375 475.2078125 345.85 477.2 346.260546875 477.476171875 346.65 477.75 346.810546875 477.475390625 346.95 477.2 351.7548828125 469.1587890625 359.2 460.65 367.1 451.25 376.55 443.1 379.5 440.55 382 438.7 368.65 429.3 357.5 420.7 346.65 414.55 339.15 409.25 333.5 405.2 330.1 402.05 312.2 413.7 300.1 429.95
M 307.05 434.7
Q 309.15 432.05 310.4 430.7 314.25 426.75 317.6 426.6 320.3 426.5 327.35 430.4 332.2 433.15 336.45 436.1 343.15 440.4 345 441.95 351.65 447.05 351.65 449.95 351.9 453.6 349.4 458.95 348.2 461.1 347.15 463.05 341.2 458.7 336.45 455.25 336.55 455.15 336.85 454.6 339.55 451.1 339.25 448.15 339.25 447.2 337.6 445.05 336.3 443.1 333.9 441.1 328.45 436.2 325.2 436.5 321.5 436.65 319.15 438.45 317.6 439.7 316.2 441.95 310.15 438.45 305.7 436.2 306.25 435.5 307.05 434.7 Z"/>

<path fill="#434343" stroke="none" d="
M 294.85 437.85
Q 292.85 441.1 291.4 444.35 293.65 446.55 296.35 448.85 314.2162109375 463.5478515625 332.55 477.2
L 345.85 477.2
Q 343.0787109375 475.2078125 340.4 473.1 339.15 472.15 337.6 471.15 316.65 455.85 296.35 439.1 295.6 438.5 294.85 437.85 Z"/>

<path fill="#339933" stroke="none" d="
M 310.4 430.7
Q 309.15 432.05 307.05 434.7 306.25 435.5 305.7 436.2 310.15 438.45 316.2 441.95 317.6 439.7 319.15 438.45 321.5 436.65 325.2 436.5 328.45 436.2 333.9 441.1 336.3 443.1 337.6 445.05 339.25 447.2 339.25 448.15 339.55 451.1 336.85 454.6 336.55 455.15 336.45 455.25 341.2 458.7 347.15 463.05 348.2 461.1 349.4 458.95 351.9 453.6 351.65 449.95 351.65 447.05 345 441.95 343.15 440.4 336.45 436.1 332.2 433.15 327.35 430.4 320.3 426.5 317.6 426.6 314.25 426.75 310.4 430.7 Z"/>

<path fill="#383838" stroke="none" d="
M 296.35 457.3
Q 308.7478515625 467.5296875 321.4 477.2
L 332.55 477.2
Q 314.2162109375 463.5478515625 296.35 448.85 293.65 446.55 291.4 444.35 289.95 447.4 288.95 450.4 292.15 453.75 296.35 457.3 Z"/>

<path fill="#CC0000" stroke="none" d="
M 376.65 475.6
Q 375.96796875 476.2576171875 375.05 477.2
L 396.85 477.2
Q 395.223046875 476.2091796875 393.5 475.25 386.35 471.2 383.8 471.5 380.55 471.75 376.65 475.6 Z"/>
</g>
</defs>

<g transform="matrix( 1, 0, 0, 1, 0,0) ">
<use xlink:href="#Layer3_0_FILL"/>
</g>

<g transform="matrix( 1.1967620849609375, 0, 0, 1.1967620849609375, 102.4,76.85) ">
<g transform="matrix( 1, 0, 0, 1, 0,0) ">
<use xlink:href="#S_mbolo_1_0_Layer0_0_FILL"/>
</g>
</g>

<g transform="matrix( 1.1967620849609375, 0, 0, 1.1967620849609375, -352.8,51.15) ">
<g transform="matrix( 1, 0, 0, 1, 0,0) ">
<use xlink:href="#S_mbolo_3_0_Layer0_0_FILL"/>
</g>
</g>

<g transform="matrix( 1, 0, 0, 1, 127.2,99.4) ">
<g transform="matrix( 1, 0, 0, 1, 0,0) ">
<use xlink:href="#S_mbolo_2_0_Layer0_0_FILL"/>
</g>
</g>

<g transform="matrix( 1, 0, 0, 1, 0,0) ">
<use xlink:href="#Layer0_0_FILL"/>
</g>
</svg>
