
<svg xmlns="http://www.w3.org/2000/svg" version="1.1" xmlns:xlink="http://www.w3.org/1999/xlink" preserveAspectRatio="none" x="0px" y="0px" width="550px" height="400px" viewBox="0 0 550 400">
<defs>
<g id="S_mbolo_1_0_Layer0_0_FILL">
<path fill="#66CCCC" stroke="none" d="
M 123.25 302.1
Q 122.65 302.3 122.25 302.45
L 129.95 317 124.4 318.8 132.65 318.8 130.35 307.15 142.25 308.25 127.05 304.45 125.5 301.2
Q 124.5 301.5 123.25 302.1
M 17.7 305.65
L 19.25 302.95
Q 17.15 302.85 15.5 302.7
L 8.5 319.5 3.4 321.1 8.8 321.1 16.75 311.3 18.95 321.1 17.7 305.65
M 85.55 192.35
L 67.4 192.35 121.6 301.55
Q 122 301.3 122.5 301.05 123.25 300.65 124.85 299.85 112.7 253.15 96.4 229.05 92.3 208.7 85.55 192.35
M 63.75 192.35
L 43.85 192.35 15.8 301.7
Q 16.7 301.8 19.45 302.3 41.7 253.55 45.1 231 56.65 211 63.75 192.35
M 17.8 106.4
Q 17.95 104.1 18.15 102.6 12 103.2 6.25 103.35 5.8 103.35 5.45 103.45 4.65 103.55 4 103.85 2.25 104.75 1.65 106.6
L 1.6 106.6
Q 0.95 108.7 1.25 111.75
L 1.45 115.45
Q 1.75 119.55 0 128.3 2.15 125.15 2.75 122.2 3.25 119.3 3.2 117 3.1 114.3 3.1 112.65 3.4 113.45 3.85 114.4 4.75 116.75 5 118.2
L 5 119.6
Q 5.0015625 119.5484375 5.1 119.45 5.25 118.7 5.55 116.65 5.8 114.55 4.8 111.6
L 4.15 109.3
Q 3.9 108.45 3.85 107.95
L 3.85 107.85
Q 4.1 107.2 4.3 106.95 4.55 106.5 5.25 106.1 5.75 105.8 6.55 105.75 6.6 105.75 6.65 105.75 12.15 106.15 17.8 106.4
M 26.6 101.65
Q 24.05 102 21.55 102.3 21.35 103.9 21.05 106.5 24 106.55 26.95 106.6 26.7 103.35 26.6 101.65
M 41.3 106.25
Q 41.1 102.2 41.65 99.1 35.15 100.4 29.05 101.3 29.25 103.2 29.7 106.6 35.5 106.55 41.3 106.25
M 81.8 77.5
Q 86.2 83.9 89.6 90.85 92.9 97.5 99.55 115.1 102.5 122.95 106.7 134 110.8 144.95 111.85 147.05 111.9 147.2 112 147.35 112.45 149.25 112.95 151.6 113.1 152.5 113.35 153.8 113.55 155 113.75 156.05 113.8 156.25 113.85 156.5
L 114.5 159.6
Q 117.65 164.6 120.65 167.65 119.3 164.25 117.5 161.35 120.05 165.15 123.2 167.45
L 122.6 165.85 123.9 166.9
Q 123.85 166.65 123.75 166.4 123.8 166.45 123.85 166.55 121.1 160.7 119.85 154.25
L 114.8 147.9
Q 114.5 147.6 114.3 147.35 113.8 146.8 113.65 146.6
L 113.05 144.85
Q 112.3 142.3 111.15 138.5 95.6 84.2 85.1 57.25 83.25 52.45 80.85 52.6 78.8 52.7 75.7 54.7 73.65 56.05 67.3 61.55 60.05 67.7 54.3 69.7 54.35 65.2 55.6 56.65 58.45 39.25 68.05 23.95
L 68.05 23.9
Q 71.65 16.95 69.95 13.7 69.4 12.4 67.95 11.85 63.5 10.8 59.55 11.25 58.45 11 57.2 10.8 51.55 9.6 46.85 9.3 45.85 10.2 44.9 11.5 44 12.7 43.25 14.6 43.05 15.2 42.9 15.6 43.65 16.05 44.55 16.55 44.9 15.8 45.45 14.8 46.45 13.05 46.75 12.75
L 46.85 12.75
Q 46.25 13.95 45.9 15.75 45.75 16.45 45.75 17.05 46.35 17.3 47.05 17.6 46.55 18.1 46.1 18.7 45.1 19.85 44.15 21.25 44 21.4 43.95 21.6 43.5 24.95 43.5 25.75
L 41.7 27.75
Q 40.9 28.6 40.35 29.25 37.9 36.65 39.1 44.55 46.15 45.3 53.05 40.2
L 53.1 40.15 53.1 40.2
Q 52.25 43.85 51.25 48.9 48.9 60.15 47 66.95 45.9 64.55 44.95 63 41.7 58.9 39.75 62.6 38.3 65.3 38.3 68.65 38.3 71.15 38.5 73.4 38.5 73.5 38.55 73.6 38.6 74.55 38.7 75.15 38.7 75.25 38.75 75.8 38.75 76.2 38.8 76.45 38.85 76.8 38.9 77.15 39.4 76.75 39.85 76.45 39.95 76.35 40.3 76.15 40.75 75.75 40.9 75.65 41.25 75.4 41.55 75.15 41.6 75.1 41.7 75.05 42 75.15 42.4 75.3 44.35 75.9 45.2 76.1 48.95 76.85 50.55 77.05 53.75 77.45 60.95 77.85
L 67.9 77.95
Q 70.05 77.85 73.4 77.55
L 73.75 77
Q 74.35 76.05 74.9 75.15 74.85 75.3 74.8 75.45 76.2 73.2 77.2 71.4 79.6 74.35 81.8 77.5
M 93.85 7.05
Q 90.45 0 84.75 0 78.1 0 73.65 3.85 72.25 5.1 71 6.7 69.55 8.55 68.35 11 70.05 11.55 71 13.55 73.1 13.35 74.85 13.8 78.2 14.75 79.7 18.7 79.95 19.2 80.15 19.8 81.6 23.5 82.9 34.1 83.2 36.25 83.45 38.15 84.55 45.15 86 48.35 88.5 53.85 93.6 54.7 92.35 52.5 92.35 49.2 92.35 46.9 94.6 38.2 95.85 33.4 96.4 28.85 96.8 25.2 96.8 21.75 96.8 13.25 93.85 7.05 Z"/>

<path fill="#FF3366" stroke="none" d="
M 41.95 128.05
Q 41.95 127.85 41.95 127.7 36.6 128.9 31.25 129.8 30.15 118.15 29.5 111.3 29.25 108.8 29.05 106.6 28.75 103.75 28.55 101.35 27.9 101.45 27.3 101.55 27.4 103.8 27.6 106.6 27.8 109.15 28 112.1 28.95 124.85 28.95 128.85 28.95 129.55 28.9 130.2 24.15 130.9 20.05 131.4
L 19.7 118.75
Q 19.7 113.85 20.45 106.5 20.6 104.9 20.8 103.25 20.85 102.8 20.95 102.3 19.9 102.4 18.9 102.55 18.6 104.75 18.5 106.4 18.4 107.7 18.4 108.65 18.3 111.8 18 116.95
L 18 122.25
Q 18 124.5 18.05 126.7 18.1 129.75 18.15 131.55 13.45 132 9.65 132 8.2 131.95 7.05 131.9 3.1 135.6 0.25 138.35 0.75 140.25 1.3 142.35 5.6 159.45 5.6 174.35 5.6 183.55 4.45 194.25 6 195.35 7.8 196.7 9.7 198.1 11.45 199.4 17.7 197.55 34.1 196.05 38.05 195.65 41.35 195.45 43.2 186.75 47.15 173.05 48.95 166.8 50.5 161.85 49.05 156.9 46.1 147.85 44 141.5 42.75 137.5 42.55 134.8 41.95 128.05 Z"/>

<path fill="#489191" stroke="none" d="
M 39.45 78.6
Q 38.4 79.6 35.8 82.6 38.85 88 43 92.05 42.9 92.75 42.85 93.45 42.7 95.55 42.4 100 42.3 101 42.2 102.15
L 42.15 113
Q 42.15 115.55 43.3 127.4 43.8 132.15 44.45 138.4
L 51.75 161.15
Q 51.4 162.5 51.05 163.75 49.75 168.55 49 171.35 46.35 181.7 44.05 191.3
L 85.15 191.3
Q 82.4 182 80.75 176.9 78.45 169.6 76.2 163
L 69.15 176.6 75.6 161.2
Q 79.35 152.25 79.35 145.85 79.35 139.85 75.85 134.25 73.75 130.95 66.05 121.95 62.3 117.55 59.05 110.3 57.15 106.1 56.3 102.75 59.75 98.2 63.7 92.7 65.75 89.8 69.95 83.9 71.75 81.35 73.4 78.4 67.55 78.95 64.5 78.95 60.9 78.95 51.45 77.8 45.65 77.1 41.45 76.35 40.45 77.5 40 78.05 39.6 78.45 39.45 78.6 Z"/>
</g>

<g id="S_mbolo_2_0_Layer0_0_FILL">
<path fill="#FFCC00" stroke="none" d="
M 127.05 304.45
L 125.5 301.2
Q 124.5 301.5 123.25 302.1 122.65 302.3 122.25 302.45
L 129.95 317 124.4 318.8 132.65 318.8 130.35 307.15 142.25 308.25 127.05 304.45
M 17.7 305.65
L 19.25 302.95
Q 17.15 302.85 15.5 302.7
L 8.5 319.5 3.4 321.1 8.8 321.1 16.75 311.3 18.95 321.1 17.7 305.65
M 87.4 197.05
Q 86.5 194.65 85.55 192.35
L 67.4 192.35 121.6 301.55
Q 122 301.3 122.5 301.05 123.25 300.65 124.85 299.85 112.7 253.15 96.4 229.05 92.9 211.55 87.4 197.05
M 63.75 192.35
L 43.85 192.35 15.8 301.7
Q 16.7 301.8 19.45 302.3 41.7 253.55 45.1 231 56.65 211 63.75 192.35
M 17.8 106.4
Q 17.95 104.1 18.15 102.6 12 103.2 6.25 103.35 5.8 103.35 5.45 103.45 4.65 103.55 4 103.85 2.25 104.75 1.65 106.6
L 1.6 106.6
Q 0.95 108.7 1.25 111.75
L 1.45 115.45
Q 1.75 119.55 0 128.3 2.15 125.15 2.75 122.2 3.25 119.3 3.2 117 3.1 114.3 3.1 112.65 3.4 113.45 3.85 114.4 4.75 116.75 5 118.2
L 5 119.6
Q 5.0015625 119.5484375 5.1 119.45 5.25 118.7 5.55 116.65 5.8 114.55 4.8 111.6
L 4.15 109.3
Q 3.9 108.45 3.85 107.95
L 3.85 107.85
Q 4.1 107.2 4.3 106.95 4.55 106.5 5.25 106.1 5.75 105.8 6.55 105.75 6.6 105.75 6.65 105.75 12.15 106.15 17.8 106.4
M 21.05 106.5
Q 24 106.55 26.95 106.6 26.7 103.35 26.6 101.65 24.05 102 21.55 102.3 21.35 103.9 21.05 106.5
M 41.3 106.25
Q 41.1 102.2 41.65 99.1 35.15 100.4 29.05 101.3 29.25 103.2 29.7 106.6 35.5 106.55 41.3 106.25
M 87.4 63.35
Q 86.2 60.15 85.1 57.25 83.25 52.45 80.85 52.6 78.8 52.7 75.7 54.7 73.65 56.05 67.3 61.55 60.05 67.7 54.3 69.7 54.35 65.2 55.6 56.65 58.45 39.25 68.05 23.95
L 68.05 23.9
Q 71.65 16.95 69.95 13.7 69.4 12.4 67.95 11.85 63.5 10.8 59.55 11.25 58.45 11 57.2 10.8 51.55 9.6 46.85 9.3 45.85 10.2 44.9 11.5 44 12.7 43.25 14.6 43.05 15.2 42.9 15.6 43.65 16.05 44.55 16.55 44.9 15.8 45.45 14.8 46.45 13.05 46.75 12.75
L 46.85 12.75
Q 46.25 13.95 45.9 15.75 45.75 16.45 45.75 17.05 46.35 17.3 47.05 17.6 46.55 18.1 46.1 18.7 45.1 19.85 44.15 21.25 44 21.4 43.95 21.6 43.5 24.95 43.5 25.75
L 41.7 27.75
Q 40.9 28.6 40.35 29.25 37.9 36.65 39.1 44.55 46.15 45.3 53.05 40.2
L 53.1 40.15 53.1 40.2
Q 52.25 43.85 51.25 48.9 48.9 60.15 47 66.95 45.9 64.55 44.95 63 41.7 58.9 39.75 62.6 38.3 65.3 38.3 68.65 38.3 71.15 38.5 73.4 38.5 73.5 38.55 73.6 38.6 74.55 38.7 75.15 38.7 75.25 38.75 75.8 38.75 76.2 38.8 76.45 38.85 76.8 38.9 77.15 39.4 76.75 39.85 76.45 39.95 76.35 40.3 76.15 40.75 75.75 40.9 75.65 41.25 75.4 41.55 75.15 41.6 75.1 41.7 75.05 42 75.15 42.4 75.3 44.35 75.9 45.2 76.1 48.95 76.85 50.55 77.05 53.75 77.45 60.95 77.85
L 67.9 77.95
Q 70.05 77.85 73.4 77.55
L 73.75 77
Q 74.35 76.05 74.9 75.15 74.85 75.3 74.8 75.45 76.2 73.2 77.2 71.4 79.6 74.35 81.8 77.5 84.85 81.9 87.4 86.6 88.55 88.7 89.6 90.85 92.9 97.5 99.55 115.1 102.5 122.95 106.7 134 110.8 144.95 111.85 147.05 111.9 147.2 112 147.35 112.45 149.25 112.95 151.6 113.1 152.5 113.35 153.8 113.55 155 113.75 156.05 113.8 156.25 113.85 156.5
L 114.5 159.6
Q 117.65 164.6 120.65 167.65 119.3 164.25 117.5 161.35 120.05 165.15 123.2 167.45
L 122.6 165.85 123.9 166.9
Q 123.85 166.65 123.75 166.4 123.8 166.45 123.85 166.55 121.1 160.7 119.85 154.25
L 114.8 147.9
Q 114.5 147.6 114.3 147.35 113.8 146.8 113.65 146.6
L 113.05 144.85
Q 112.3 142.3 111.15 138.5 97.25 90 87.4 63.35
M 96.8 21.75
Q 96.8 13.25 93.85 7.05 91.3 1.7 87.4 0.45 86.15 0 84.75 0 78.1 0 73.65 3.85 72.25 5.1 71 6.7 69.55 8.55 68.35 11 70.05 11.55 71 13.55 73.1 13.35 74.85 13.8 78.2 14.75 79.7 18.7 79.95 19.2 80.15 19.8 81.6 23.5 82.9 34.1 83.2 36.25 83.45 38.15 84.55 45.15 86 48.35 86.6 49.7 87.4 50.8 89.75 54.05 93.6 54.7 92.35 52.5 92.35 49.2 92.35 46.9 94.6 38.2 95.85 33.4 96.4 28.85 96.8 25.2 96.8 21.75 Z"/>

<path fill="#FF3300" stroke="none" d="
M 46.1 147.85
Q 44 141.5 42.75 137.5 42.55 134.8 41.95 128.05 41.95 127.85 41.95 127.7 36.6 128.9 31.25 129.8 30.15 118.15 29.5 111.3 29.25 108.8 29.05 106.6 28.75 103.75 28.55 101.35 27.9 101.45 27.3 101.55 27.4 103.8 27.6 106.6 27.8 109.15 28 112.1 28.95 124.85 28.95 128.85 28.95 129.55 28.9 130.2 24.15 130.9 20.05 131.4
L 19.7 118.75
Q 19.7 113.85 20.45 106.5 20.6 104.9 20.8 103.25 20.85 102.8 20.95 102.3 19.9 102.4 18.9 102.55 18.6 104.75 18.5 106.4 18.4 107.7 18.4 108.65 18.3 111.8 18 116.95
L 18 122.25
Q 18 124.5 18.05 126.7 18.1 129.75 18.15 131.55 13.45 132 9.65 132 8.2 131.95 7.05 131.9 3.1 135.6 0.25 138.35 0.75 140.25 1.3 142.35 5.6 159.45 5.6 174.35 5.6 183.55 4.45 194.25 6 195.35 7.8 196.7 9.7 198.1 11.45 199.4 17.7 197.55 34.1 196.05 38.05 195.65 41.35 195.45 43.2 186.75 47.15 173.05 48.95 166.8 50.5 161.85 49.05 156.9 46.1 147.85 Z"/>

<path fill="#FF9900" stroke="none" d="
M 39.45 78.6
Q 38.4 79.6 35.8 82.6 38.85 88 43 92.05 42.9 92.75 42.85 93.45 42.7 95.55 42.4 100 42.3 101 42.2 102.15
L 42.15 113
Q 42.15 115.55 43.3 127.4 43.8 132.15 44.45 138.4
L 51.75 161.15
Q 51.4 162.5 51.05 163.75 49.75 168.55 49 171.35 46.35 181.7 44.05 191.3
L 85.15 191.3
Q 82.4 182 80.75 176.9 78.45 169.6 76.2 163
L 69.15 176.6 75.6 161.2
Q 79.35 152.25 79.35 145.85 79.35 139.85 75.85 134.25 73.75 130.95 66.05 121.95 62.3 117.55 59.05 110.3 57.15 106.1 56.3 102.75 59.75 98.2 63.7 92.7 65.75 89.8 69.95 83.9 71.75 81.35 73.4 78.4 67.55 78.95 64.5 78.95 60.9 78.95 51.45 77.8 45.65 77.1 41.45 76.35 40.45 77.5 40 78.05 39.6 78.45 39.45 78.6 Z"/>
</g>

<g id="S_mbolo_3_0_Layer0_0_FILL">
<path fill="#FF6699" stroke="none" d="
M 123.25 302.1
Q 122.65 302.3 122.25 302.45
L 129.95 317 124.4 318.8 132.65 318.8 130.35 307.15 142.25 308.25 127.05 304.45 125.5 301.2
Q 124.5 301.5 123.25 302.1
M 17.7 305.65
L 19.25 302.95
Q 17.15 302.85 15.5 302.7
L 8.5 319.5 3.4 321.1 8.8 321.1 16.75 311.3 18.95 321.1 17.7 305.65
M 85.55 192.35
L 67.4 192.35 121.6 301.55
Q 122 301.3 122.5 301.05 123.25 300.65 124.85 299.85 112.7 253.15 96.4 229.05 92.3 208.7 85.55 192.35
M 63.75 192.35
L 43.85 192.35 15.8 301.7
Q 16.7 301.8 19.45 302.3 41.7 253.55 45.1 231 56.65 211 63.75 192.35
M 17.8 106.4
Q 17.95 104.1 18.15 102.6 12 103.2 6.25 103.35 5.8 103.35 5.45 103.45 4.65 103.55 4 103.85 2.25 104.75 1.65 106.6
L 1.6 106.6
Q 0.95 108.7 1.25 111.75
L 1.45 115.45
Q 1.75 119.55 0 128.3 2.15 125.15 2.75 122.2 3.25 119.3 3.2 117 3.1 114.3 3.1 112.65 3.4 113.45 3.85 114.4 4.75 116.75 5 118.2
L 5 119.6
Q 5.0015625 119.5484375 5.1 119.45 5.25 118.7 5.55 116.65 5.8 114.55 4.8 111.6
L 4.15 109.3
Q 3.9 108.45 3.85 107.95
L 3.85 107.85
Q 4.1 107.2 4.3 106.95 4.55 106.5 5.25 106.1 5.75 105.8 6.55 105.75 6.6 105.75 6.65 105.75 12.15 106.15 17.8 106.4
M 26.6 101.65
Q 24.05 102 21.55 102.3 21.35 103.9 21.05 106.5 24 106.55 26.95 106.6 26.7 103.35 26.6 101.65
M 41.3 106.25
Q 41.1 102.2 41.65 99.1 35.15 100.4 29.05 101.3 29.25 103.2 29.7 106.6 35.5 106.55 41.3 106.25
M 81.8 77.5
Q 86.2 83.9 89.6 90.85 92.9 97.5 99.55 115.1 102.5 122.95 106.7 134 110.8 144.95 111.85 147.05 111.9 147.2 112 147.35 112.45 149.25 112.95 151.6 113.1 152.5 113.35 153.8 113.55 155 113.75 156.05 113.8 156.25 113.85 156.5
L 114.5 159.6
Q 117.65 164.6 120.65 167.65 119.3 164.25 117.5 161.35 120.05 165.15 123.2 167.45
L 122.6 165.85 123.9 166.9
Q 123.85 166.65 123.75 166.4 123.8 166.45 123.85 166.55 121.1 160.7 119.85 154.25
L 114.8 147.9
Q 114.5 147.6 114.3 147.35 113.8 146.8 113.65 146.6
L 113.05 144.85
Q 112.3 142.3 111.15 138.5 95.6 84.2 85.1 57.25 83.25 52.45 80.85 52.6 78.8 52.7 75.7 54.7 73.65 56.05 67.3 61.55 60.05 67.7 54.3 69.7 54.35 65.2 55.6 56.65 58.45 39.25 68.05 23.95
L 68.05 23.9
Q 71.65 16.95 69.95 13.7 69.4 12.4 67.95 11.85 63.5 10.8 59.55 11.25 58.45 11 57.2 10.8 51.55 9.6 46.85 9.3 45.85 10.2 44.9 11.5 44 12.7 43.25 14.6 43.05 15.2 42.9 15.6 43.65 16.05 44.55 16.55 44.9 15.8 45.45 14.8 46.45 13.05 46.75 12.75
L 46.85 12.75
Q 46.25 13.95 45.9 15.75 45.75 16.45 45.75 17.05 46.35 17.3 47.05 17.6 46.55 18.1 46.1 18.7 45.1 19.85 44.15 21.25 44 21.4 43.95 21.6 43.5 24.95 43.5 25.75
L 41.7 27.75
Q 40.9 28.6 40.35 29.25 37.9 36.65 39.1 44.55 46.15 45.3 53.05 40.2
L 53.1 40.15 53.1 40.2
Q 52.25 43.85 51.25 48.9 48.9 60.15 47 66.95 45.9 64.55 44.95 63 41.7 58.9 39.75 62.6 38.3 65.3 38.3 68.65 38.3 71.15 38.5 73.4 38.5 73.5 38.55 73.6 38.6 74.55 38.7 75.15 38.7 75.25 38.75 75.8 38.75 76.2 38.8 76.45 38.85 76.8 38.9 77.15 39.4 76.75 39.85 76.45 39.95 76.35 40.3 76.15 40.75 75.75 40.9 75.65 41.25 75.4 41.55 75.15 41.6 75.1 41.7 75.05 42 75.15 42.4 75.3 44.35 75.9 45.2 76.1 48.95 76.85 50.55 77.05 53.75 77.45 60.95 77.85
L 67.9 77.95
Q 70.05 77.85 73.4 77.55
L 73.75 77
Q 74.35 76.05 74.9 75.15 74.85 75.3 74.8 75.45 76.2 73.2 77.2 71.4 79.6 74.35 81.8 77.5
M 96.8 21.75
Q 96.8 13.25 93.85 7.05 90.45 0 84.75 0 78.1 0 73.65 3.85 72.25 5.1 71 6.7 69.55 8.55 68.35 11 70.05 11.55 71 13.55 73.1 13.35 74.85 13.8 78.2 14.75 79.7 18.7 79.95 19.2 80.15 19.8 81.6 23.5 82.9 34.1 83.2 36.25 83.45 38.15 84.55 45.15 86 48.35 88.5 53.85 93.6 54.7 92.35 52.5 92.35 49.2 92.35 46.9 94.6 38.2 95.85 33.4 96.4 28.85 96.8 25.2 96.8 21.75 Z"/>

<path fill="#66CCCC" stroke="none" d="
M 42.75 137.5
Q 42.55 134.8 41.95 128.05 41.95 127.85 41.95 127.7 36.6 128.9 31.25 129.8 30.15 118.15 29.5 111.3 29.25 108.8 29.05 106.6 28.75 103.75 28.55 101.35 27.9 101.45 27.3 101.55 27.4 103.8 27.6 106.6 27.8 109.15 28 112.1 28.95 124.85 28.95 128.85 28.95 129.55 28.9 130.2 24.15 130.9 20.05 131.4
L 19.7 118.75
Q 19.7 113.85 20.45 106.5 20.6 104.9 20.8 103.25 20.85 102.8 20.95 102.3 19.9 102.4 18.9 102.55 18.6 104.75 18.5 106.4 18.4 107.7 18.4 108.65 18.3 111.8 18 116.95
L 18 122.25
Q 18 124.5 18.05 126.7 18.1 129.75 18.15 131.55 13.45 132 9.65 132 8.2 131.95 7.05 131.9 3.1 135.6 0.25 138.35 0.75 140.25 1.3 142.35 5.6 159.45 5.6 174.35 5.6 183.55 4.45 194.25 6 195.35 7.8 196.7 9.7 198.1 11.45 199.4 17.7 197.55 34.1 196.05 38.05 195.65 41.35 195.45 43.2 186.75 47.15 173.05 48.95 166.8 50.5 161.85 49.05 156.9 46.1 147.85 44 141.5 42.75 137.5 Z"/>

<path fill="#CC6699" stroke="none" d="
M 39.45 78.6
Q 38.4 79.6 35.8 82.6 38.85 88 43 92.05 42.9 92.75 42.85 93.45 42.7 95.55 42.4 100 42.3 101 42.2 102.15
L 42.15 113
Q 42.15 115.55 43.3 127.4 43.8 132.15 44.45 138.4
L 51.75 161.15
Q 51.4 162.5 51.05 163.75 49.75 168.55 49 171.35 46.35 181.7 44.05 191.3
L 85.15 191.3
Q 82.4 182 80.75 176.9 78.45 169.6 76.2 163
L 69.15 176.6 75.6 161.2
Q 79.35 152.25 79.35 145.85 79.35 139.85 75.85 134.25 73.75 130.95 66.05 121.95 62.3 117.55 59.05 110.3 57.15 106.1 56.3 102.75 59.75 98.2 63.7 92.7 65.75 89.8 69.95 83.9 71.75 81.35 73.4 78.4 67.55 78.95 64.5 78.95 60.9 78.95 51.45 77.8 45.65 77.1 41.45 76.35 40.45 77.5 40 78.05 39.6 78.45 39.45 78.6 Z"/>
</g>
</defs>

<g transform="matrix( 1, 0, 0, 1, 36.05,38.25) ">
<g transform="matrix( 1, 0, 0, 1, 0,0) ">
<use xlink:href="#S_mbolo_1_0_Layer0_0_FILL"/>
</g>
</g>

<g transform="matrix( 1, 0, 0, 1, 203.9,38.25) ">
<g transform="matrix( 1, 0, 0, 1, 0,0) ">
<use xlink:href="#S_mbolo_2_0_Layer0_0_FILL"/>
</g>
</g>

<g transform="matrix( 1, 0, 0, 1, 378.25,38.25) ">
<g transform="matrix( 1, 0, 0, 1, 0,0) ">
<use xlink:href="#S_mbolo_3_0_Layer0_0_FILL"/>
</g>
</g>
</svg>
