
<svg xmlns="http://www.w3.org/2000/svg" version="1.1" xmlns:xlink="http://www.w3.org/1999/xlink" preserveAspectRatio="none" x="0px" y="0px" width="550px" height="400px" viewBox="0 0 550 400">
<defs>
<g id="Layer0_0_FILL">
<path fill="#000000" stroke="none" d="
M 325.6 121.25
Q 325 120.75 324.3 120.55 322.55 119.9 321.25 120.95 320.55 121.55 320.3 122.15 320 122.05 319.2 122 318.5 121.95 317.95 122.2 316.9 122.55 316.25 123.75 315.15 125.55 315.4 127.6 315.6 129.6 316.55 131.9 317.45 134.15 318.55 135.55 319.45 136.65 319.95 137.35 319.3 138.4 319 139.6 318.7 140.8 318.7 142.85 318.7 143.05 318.7 143.3 317.05 142.45 314.5 142.75 314.3 142.35 313.95 141.8 312.4 139.15 311.8 137.3
L 309.5 129.95
Q 306.45 120.2 305 115.3 302.4 106.6 299.6 100.6 298.95 99.1 298.35 97.7 297.25 95.2 296.15 93.05 293.5 94.7 292.4 95.4 292.35 95.4 292.3 95.45 286.3 99.6 283.85 101.15 279.85 103.85 276.1 106.55 275.6 106.9 275.1 107.3 274.45 105.15 274.15 104.45 274 103.85 273.9 103.35 274.2 103.2 274.55 102.95 275.15 102.65 275.8 102.15 276.15 101.9 277.2 101.4 277.7 101.1 277.8 101 277.95 100.85 277.95 100.5
L 277.85 99.8
Q 279.85 98.9 280.95 98.65 285.65 97.55 287.25 96.75 288.9 95.95 288.9 94.6 288.9 93.95 288.25 93.45 287.45 92.8 285.65 92.6
L 279.85 92.5
Q 278.8 92.25 277.9 91.7 278.1 89.65 281.25 86.7 282.05 86 287.3 81.8 288.65 80.7 290.85 79.3 291.88203125 78.6251953125 292.65 78.1 294.45 76.8 296.3 75.6 303.75 70.65 308.75 63.35 313.75 56.1 311.05 47.85 308.45 39.95 300.55 39.9 292.25 39.8 285.1 44.35 284.54453125 44.7701171875 284 45.2 281.55 47.1 279.35 49.75 278.15 51.25 276 54.35 273.85 57.5 271.65 63.5 270.7 66.2 270.2 68 269.5 70.25 269 71 267.95 72.45 265.8 72.45 264.05 72.45 261.25 70.9 258.45 69.35 257.45 69.35 252.95 69.35 250.8 77.1 250.25 79.15 249.6 82.45 249.35 82.45 249.2 82.6
L 248.9 82.9
Q 248.55 83.05 248.1 83.5 247.25 84.05 247 84.2 246.65 84.45 246.65 84.8 246.65 85 246.7 85.1 246.55 85.15 246.4 85.15 242.85 84.7 242.35 84.7 240.15 84.7 237.95 86.15 236.6 87 236.2 87.7 234.55 86.6 232.35 86 235.65 81.45 235.65 77 235.65 74.15 233.85 71.35 231.9 68.35 228.85 67.2 223.05 65 216.65 70.55 211.45 67.1 204.25 68.8 196.55 70.65 191.45 77.4 186.15 84.4 185.65 94.45 182.8 90.85 181.6 92.5 180.75 93.75 180.75 98.6
L 182.25 107.45
Q 182.9 110.05 183.65 111.85 183.25 112.9 182.95 113.95 181.8 114.65 180.75 115.45 179.85 116 179.15 117.15 178.5 118.25 178.5 119 178.5 119.5 178.75 120.05 179.2 121 180.15 121 180.7 120.8 181.2 120.6 180.45 124.65 180.4 128.6 175.85 131.65 172.5 136.05 167.5 142.7 167.5 149.1 167.5 149.25 167.55 151.45 167.6 152.05 167.75 152.65 167.8 153.85 169 156.3 170.6 159.65 179.8 161.1 182.7 161.5 187.45 160.6 194.55 158.8 203.95 152.6
L 204 152.55
Q 207.3 149.95 209.8 147.4 210 147.2 210.2 147 211.85 148.15 213 149.05 214.85 150.45 215.4 151.25 215.95 151.95 218.7 156.05 219.15 156.7 219.6 157.25 218.35 158.25 217.1 159.45 216.9 159.55 216.75 159.7 211.5 164.6 208.9 166.9 203.75 171.5 201.2 173.85 196.7 177.9 193.9 180.95 185.35 189.4 180.9 194.45 172.85 203.65 172.85 208.9 172.85 210.8 173.9 211.35 174.75 211.8 176.5 212.1 179.5 212.6 185.15 212.6 191.2 212.6 199.9 211.85 200.1 211.85 200.25 211.85 201.85 215.95 204.3 218.1 204.95 218.85 205.8 219.25 206.25 219.5 206.8 219.7 213.15 221.1 218 215.2 218.85 213.5 218.85 212.05 218.85 210.55 218.05 209.1 217.75 208.55 216.65 208.05 217.7 207.65 217.95 207.4 219.35 206.05 219.35 204.45 219.35 203.7 219.25 203.05 219.1 202 218.7 201.1 217.65 198.75 215.25 198.3 215.7 197.25 216.05 195.75 216.05 195.65 216.05 195.55 215.9 189.9 206.3 191.95 204.2 192.4 201.6 193.8 198.7 195.4 198.05 199 198 199.75 198.05 200.45 198.05 200.5 198.2 202.15
L 198.25 202.65
Q 197.85 202.65 197.5 202.7 194.05 202.95 191.8 203.2 196.15 198.2 198.05 196.25 205.4 188.35 208.1 185.35 211.35 181.75 218.8 174.5 220.5 172.8 225.25 168.45 226.25 167.5 227 166.7 240.35 172.7 251.05 181.15 263.1 190.65 267.85 200.1 271.25 206.85 272.45 209.55 274.85 214.85 275.85 219 276.15 220.3 276.8 224.05 277.1 226.15 277.35 227.5 277.4 227.95 277.5 228.45 277.65 229.5 277.8 230.45 277.35 230.45 276.85 230.45
L 276.85 230.5
Q 264.7 231.2 261.5 231.45
L 254.5 231.6
Q 253.55 231.6 252.75 231.7
L 238.55 231.7
Q 229.25 231.75 221.3 231.35 214.85 231 213.5 230.65 210.1 230.2 207.8 229.95 206.9 229.8 206.15 229.75 205.65 229.7 203.65 229.6 202.75 231.6 201.8 233.75 199.25 239.4 196.15 246.45 189.65 261.15 186.4 270.8 185.25 274.3 182.15 282.65
L 182.15 282.7
Q 181.25 285 181 285.75
L 181 285.8
Q 176.65 297.25 174.25 302.55 174.2 302.3 174.15 302.05 173.65 298.85 173.45 297.45 172.8 293.7 172.25 291.25 173.9 289.95 174.6 289.35 175.75 288.3 175.75 287.55 175.75 285.7 173.45 286.55 172.3 287 171.3 287.75 170.5 285.65 169.5 283.85 170.15 283 170.65 282.35 172 280.6 172 279.9 172 278.95 171.35 278.55 170.5 278 168.85 279.4 168.15 279.95 167.5 280.85 166.65 279.75 165.65 278.75 164.75 277.85 163.8 277.1 165.25 275 165.25 274.25 165.25 273.2 164.35 272.85 163.25 272.45 161.75 273.9 161.3 274.3 160.8 275.2 159.8 274.65 158.75 274.25 157.5 273.75 154.2 272.85 154.1 272.8 153.85 272.75
L 152.05 271.75
Q 150.1 271.1 148.6 271.1 145.65 271.1 143.6 273.7 141.45 276.4 141.2 279.65 140.95 282.9 141.6 286.65 162.2 293 168.8 327.25 171.35 325.65 173.7 322.85
L 173.7 322.8
Q 173.75 322.7 173.85 322.6 175.25 321.1 176.6 317.85 178 314.55 178 312.65 178 312.2 178 311.85 180.65 306.2 185.3 298.2 186.75 295.7 189.45 291.25 190.3 289.85 192.6 286.15 195.1 282.1 197.5 278.55 204.8 268.05 206.1 256.5 206.3 254.4 206.9 245.65 207.25 240.6 207.55 238.7 211.7 240 219.9 243.7 233.45 249.85 243.95 253.7 251.9 256.6 257.55 258.35 273.2 263.6 288.4 261.95 289.75 265.1 291.8 269.35 293.65 273.25 296.1 278 304 293.45 306.65 297.65 311.6 305.35 321.65 319.55 324.15 323.1 330 329.35 332.65 325.5 334.6 322.7 338.75 316.55 339.65 315.2 346.7 304.5 350.15 296.75 351.7 293.25 354.75 287.45 355.75 285.55 357.8 281.6 358.25 280.7 359.8 277.7 363.55 270.55 367.85 265.6 368.55 265.6 369.45 265.35 370.4 265.15 370.85 264.8 371 264.65 371.15 264.55
L 371.2 264.55 375 264.95
Q 376.05 264.95 380.6 264.25 382.05 268.6 383.85 268.6 384.75 268.6 385.25 267.9 385.6 267.4 385.6 266.85 385.6 266.35 384.2 263.45 387.4 263.05 390.1 261.85 391.4 261.25 392.65 260.45 394.15 261.4 395.95 261.4 397.35 261.4 398.1 260.7 398.7 260.1 398.7 259.35 398.7 258.4 397.65 258.2 396.55 258.15 395.8 257.95 398.5 255.4 400.75 251.8 401.8 252.05 402.9 252.05 404.9 252.05 405.85 251.4 406.5 250.95 406.5 250.25 406.5 249 404 248.8 403.2 248.75 402.55 248.65 404.15 245.6 404.9 243.65 405.05 243.3 405.75 240.8 406.15 238.95 406.2 237.1 406.25 236.85 406.3 236.65 406.45 235.75 406.45 233.95 406.45 231.3 405.5 228.65 404.15 225 401.7 224.15 399.1 223 396.8 223.5 395.1 223.85 392.8 225.4 389.85 227.35 387.35 230.3 386.2 231.65 383.45 235.15 380.9 238.35 379.35 240.05 375.95 243.65 374.05 245 369.3 248.4 363.95 248.4 363.05 248.4 361.1 248.05 360.35 247.9 357.7 246.6 357.65 246.55 357.6 246.5 357.7 246.85 357.5 247.85 357.25 249.1 357.25 251.1 357.25 253.7 358 257.45 358.2 258.7 359.05 260.7 359.9 262.55 360.7 263.35 359.15 265.35 357.1 267.45 355.65 268.9 353.95 270.75 353.9 270.75 352.7 272.05 351.4 273.25 351.05 273.65 350.65 274.05 347.8 277.3 344.9 280.5 343.7 281.9 336.2 290.5 332.95 296.3 328.8 303.6 328.8 310.4 328.8 310.5 328.8 310.6 326.05 307.45 322 299.3 316.05 287.3 313.75 278.65 313.2 276.4 309.95 262.85 309.8 262.1 309.6 261.35 308.35 256.05 307.2 251.8 307.5 251 307.65 250.15 308.3 246.85 308.5 243.5 308.8 238.85 308.2 234.05
L 307.85 230.25
Q 307.65 228.85 307.5 227.7
L 307.15 225.6
Q 307 224.6 306.85 223.85 305.95 219.3 304.05 213.6 303.25 211.2 302.25 208.6 301.25 206.15 298.9 201.25 297.95 199.35 296.9 197.45 292.55 189.65 288.65 184.25 283.3 176.85 276.95 171.2 267.4 162.7 259.75 157.7 253.75 153.75 247.9 151.1 249.45 149.4 251.3 147.25 251.65 146.8 252.05 146.35 257.1 140.3 264.95 130.45 275.05 119.6 290.3 107.65 290.65 108.45 291.15 109.5 292.4 112.2 294.05 115.55 294.6 116.8 296.55 121.75 298.15 125.65 299.2 127.9 302.9 135.8 305.3 140.15 306.35 142.05 309.25 147.7 309.9 148.85 310.5 149.75 310.55 149.85 310.65 149.9 310.75 150.1 310.9 150.3 311.75 151.45 312.6 152.1 313 152.4 314.7 154.05 316.7 155.5 319.5 155.5 324.2 155.5 328.4 151 333.05 146 333.05 138.95 333.05 138.05 333 137.2 330.65 125.7 325.6 121.25
M 325.1 140.85
Q 325.25 140.6 325.7 140.3 326.15 141.1 327 142 327.8 142.85 327.3 141.7 326.8 140.55 326.55 138.45 326.25 136.3 324.3 131.75 323.1 129 322.65 127.35 321.55 123.7 323.25 122.85 323.4 122.8 323.5 122.75 325.75 122.2 329.05 133.8 330.25 137.5 330.25 139.5 330.25 143.65 328.5 146.65 327 148.9 325.7 150.2 324.25 151.6 323.25 152.15 321.3 153.2 318.55 153.2 316.7 153.2 313.65 150.6 313.4 150.05 313.1 149.4 313.75 148.8 314.25 147.5 314.45 146.95 314.65 146.4 314.7 146.15 314.75 145.95 314.95 145.1 314.95 144.45 315 144.5 315.1 144.55 315.2 144.6 316.95 145.1 317.2 145.25 318.05 146 319.05 146.75 319.9 146.75 320.9 146.75 321.45 146.05 321.8 145.7 322.1 145.05 322.6 144.25 323.45 142.95 323.75 142.25 325.1 140.85
M 324.55 138.15
Q 324.65 138.4 324.75 138.65 324.3 138.95 323.75 139.5 323.55 139.7 323.3 139.95 323.1 139.6 322.85 139.05 322.35 138 321.85 137.1 321.7 136.85 321.6 136.65 321.1 135.75 320.65 135 319.55 133.2 318.85 132.05 318.15 130.9 317.4 128.6 316.6 126.3 317.55 124.85 317.65 124.65 317.8 124.55 318.7 123.55 320 124.45
L 319.85 125.55
Q 319.85 127.9 322.55 133.3 323.25 134.7 324.55 138.15
M 398.45 226.2
Q 402.7 226.2 403.35 232.75 403.5 234.35 403.65 237.2 403.7 237.7 403.8 238.1
L 403.8 238.15
Q 403.55 238.85 403.2 239.95 402.65 239.7 402.05 239.45 399.95 238.55 399.1 237.9 396.45 236.15 393.3 233.75 391.55 235.7 391.5 235.75 390.3 237.25 385.55 242 381.3 246.15 377.2 248.65 370.95 252.5 365.1 252.5 363.5 252.5 360.7 251.35 360.05 251.1 359.5 250.85 359.5 250.1 359.6 249.3 359.95 249.45 360.35 249.55 362.95 250.4 365.95 250.4 369.45 250.4 373.45 248.15 378.6 245.2 383.75 238.9 387.45 234.3 389.35 232.25 389.4 232.25 392.5 229.2 396.1 226.2 398.45 226.2
M 387.05 243.75
Q 390.25 240.85 393.3 237.35 393.55 237 393.95 236.55 395.35 237.7 397.3 239.2 398.8 240.35 399.75 240.9 401 241.6 402.5 242.2 401.7 244.5 400.8 246.2 400.3 247.1 399.85 247.9 399.25 247.7 398.85 247.4 396.85 246.1 395.55 245.4 393.1 244 393.1 245.75 393.1 246.35 394.4 247.6 395.1 248.25 396.2 249.3 396.9 250.1 398.05 250.75 395.85 254.05 393.8 256 393.5 256.3 393.2 256.6 392.55 256.05 391.95 255.35
L 389.15 252.95
Q 388.3 251.55 387.45 251.75 386.7 251.95 386.7 252.75 386.7 254.3 389.6 257.4 389.85 257.7 390.6 258.55 387.15 260.65 383.1 261.15 382.45 259.5 382.3 258.65 382.15 257.7 382.15 256.65 382.1 256 381.8 255.55 381.35 254.95 380.55 255.2 380.05 255.3 379.65 257 379.35 258.35 379.35 259.25 379.35 259.95 379.7 261.25
L 379.85 261.85
Q 379.55 261.9 379.25 261.95
L 377 262.25
Q 376.5 262.35 374.8 262.45 373.15 262.55 373.15 262.5
L 373.55 262.5
Q 372.6 262.4 371.9 262.45 371.85 261.9 371.65 261.45 371.4 261 370.8 260.2 370.4 259.7 369 259.2 368.95 259.15 368.9 259.15 367.6 258.65 366.85 258.65 365.55 258.65 364.85 258.85 364.8 258.85 363.95 259.2 363.2 259.45 362.85 259.8 362.6 259.95 362.4 260.15 362.15 260.35 361.45 261.5 361.45 261.55 361.4 261.55 361.2 261.15 361 260.45 360.4 258.9 360.1 257.6 359.5 253.15 359.45 252.1 359.8 252.3 360.15 252.55 363.1 254.3 366.55 254.3 368.2 254.3 372 253.1 373.25 252.75 374.3 252.35 377.1 251.3 378.75 250.1 385.1 245.5 387.05 243.75
M 355.3 276.1
Q 355.35 276.2 355.45 276.35 356.35 277.45 357.15 278.4 356.7 279.2 356.25 280 354.95 278.6 354.2 277.75 354.15 277.7 354.1 277.6 353.5 276.9 352.7 275.9 353.4 275.15 354.05 274.45 354.2 274.7 354.35 274.9 354.8 275.5 355.3 276.1
M 344.55 284.3
Q 345.6 283.15 351.2 277.45 351.65 278.15 352.15 278.75 352.4 279.1 352.65 279.4 354.3 281.4 354.95 282.25 350.6 289.9 348.1 295.8 346.5 299.5 343.35 305.05 339.6 311.45 337.85 314.4 337.45 315.05 333.35 321.45 333.05 321.85 332.75 322.35 332 323.5 331.1 324.85 330.9 325.15 330.7 325.5 325.65 320.2 324.35 318.65 315.9 308.85 307.85 294.8 299.75 280.75 296.55 273.45 295.45 271.05 294.55 268.9 292.7 264.55 291.45 261.35 292.65 261.4 295.45 260.8 297.9 260.05 300.05 259 301.05 258.5 301.9 258 304.1 256.75 305.5 255 305.95 258.1 306.7 261.55 306.9 262.4 307.35 264.25 308.45 268.75 311.15 279.15 313.3 287.45 317.95 296.85 321.45 303.85 323.45 306.95 326.7 312.05 329.3 313.6 329.7 314.4 330.7 315.95
L 330.85 315.65
Q 330.55 315.2 330.45 312.1 330.65 304.7 333.4 299.1 336.35 293.15 344.55 284.3
M 247.4 86.35
Q 247.45 86.45 247.55 86.6 247.95 87.2 248.35 87.4 248.4 87.55 248.65 87.65 248.25 89.7 247.9 92 247.5 93.95 246.75 97.9 246 101.35 245 103.7 243.75 107.85 242.3 110.35 241.3 112.1 240.05 113.25 239.65 112.35 239.15 111.5 237.75 108.95 236 107.35 236.7 106.65 237.35 105.85 241 101.4 241 97.9 241 91.65 237.15 88.4 237.5 88 238.05 87.4 239.85 85.9 242.3 85.9 242.4 85.9 246.45 86.45 246.95 86.45 247.4 86.35
M 293.05 96.45
Q 293.2 96.35 293.35 96.25 294.15 95.8 294.9 95.35 295.6 96.9 296.55 98.8 297.15 100.05 297.85 101.45 300.65 107.3 303.25 116 306.75 127.35 307.85 130.55 308.5 132.45 310.7 137.9 311 138.7 311.3 139.4 311.15 139.4 311 139.5 310.8 139.6 310.65 139.7 310.5 139.85 310.45 140.05 310.1 140.35 308.85 142.05 308.8 142.1 308.8 142.15 307.95 140.8 307.45 139.9 303.15 131.4 301.15 127.45 295.25 114.75 291.3 106.85 293.7 104.95 296.25 103.05 296.6 102.75 296.95 102.5 296.55 102.6 296.15 102.8 293.8 103.65 290.7 105.6 285.75 108.75 280.7 112.75 276.8 115.85 273.35 118.95 273.05 118.1 272.75 117.5 275.55 115.15 276.6 113.9 276.45 113 276.3 112.2 276 110.5 275.7 109.25 276.55 108.6 277.45 107.9 283.4 103.4 285.2 102.2 286.6 101.3 289.15 99.25 291.35 97.5 293.05 96.45
M 204.75 104.8
Q 206.05 107.05 206.05 109.7 206.05 110.05 205.65 111.75
L 205.35 112.4
Q 205.2 112.5 205.05 112.6 204 113.35 202.6 114.85 200 117.55 200 119.65 200 121.05 200.9 121.75
L 201 121.85
Q 200.6 122.25 200.4 122.6 199.05 124.25 199.05 125.9 199.05 128.75 201.1 128.75 201.65 128.75 202.95 128.2
L 204.05 127.4
Q 205.9 125.25 205.95 125.15 205.95 125.05 206.7 122.15 207.4 119.25 208.5 117.3 210.5 113.75 213.65 112.7 214.95 112.25 216.5 112.25 217.15 112.25 217.7 112.8 217.3 113.45 216.9 114.2 216.75 114.5 216.55 114.85 216.15 115.55 215.6 116.5 214.75 117.8 213.55 119.6 213.45 119.75 213.35 119.95 212.8 119.6 211.95 119.5 209.5 119.15 209.5 121.8 209.5 122.75 209.75 123.4 210.25 124.75 211.95 124.75 212.6 124.75 213.1 124.55 213.35 124.45 213.55 124.3 214.15 123.8 214.35 122.85 214.4 122.4 214.4 121.85 214.4 121.35 214.25 120.95 214.9 120.05 215.6 118.9 216.55 117.35 217.5 115.45 217.9 114.65 218.35 113.9 218.8 115 219 116.9 219 120.2 216.1 124.65 215.8 125.15 215.45 125.6
L 215.45 125.65
Q 214.55 126.8 213.5 127.3 209.85 130.3 208.1 130.5 208.15 130.55 208.6 130.8 208.85 131 209.25 131 211.1 131 212.75 130.45 213.6 133.05 214.2 134.65 214.75 136.2 217.3 140.55 217.65 141.15 218.05 141.75 220.35 145.1 223.7 146.75 227.6 148.65 228.4 150.05 229.2 151.35 229.6 152.85 229.75 153.3 229.85 153.85 230 154.9 230 156.1 230 157.3 229.3 158.35 228.3 159.8 227.05 160.25 227 160.25 226.9 160.3 225.7 160.6 224.55 159.9 224.25 159.75 224 159.6 223.1 158.95 222.5 158.3
L 220.65 155.8
Q 219.3 153.95 217.05 150.75 215.95 149.2 214.25 147.75 212.45 146.15 209.9 144.7 207.6 146.65 204.55 149.1 204.65 148.6 204.75 148.1 208.15 127.9 184.65 138.15 178.5 140.85 174.9 144.45 170.4 148.9 169.55 150.05 169.5 149.6 169.5 149.1 169.5 143 174.2 136.9 176.55 133.8 181.5 129.5
L 181.5 129.45
Q 182.25 124.5 183.6 119.5 188.35 117.05 188.35 114 188.35 113.3 188.3 113.15 188 112.4 186.85 112.4 186.4 112.4 185.85 112.55 185.9 112.3 186 112.1
L 186 112.05
Q 186.1 110.85 186.6 109.4 187.15 107.95 188.05 106.25 188.9 105 189.75 104.2 190.85 103 191.9 102.55 193.7 101.75 194.75 101.6 195.8 101.4 196.8 101.2 197.8 101 199.9 101.2 202.8 101.45 204.75 104.8
M 180.3 146.05
Q 180.1 146.1 175.2 147.05 174.45 147.2 173.9 147.35 174.15 147.1 174.45 146.85 182.3 139.7 191.7 137.3 195.3 136.5 197.75 136.95 197.9 137.95 198.4 140.05 198.4 140.35 198.45 140.65
L 180.3 146.05
M 196.55 142.75
Q 198.05 142.35 198.65 142.15 199.25 141.9 200.8 141.25
L 200.8 141.2
Q 200 139.55 199.75 138.85 199.55 138 199.4 137.45 204 139.5 202.5 148.25 200.65 147.5 197.35 147.8 190.75 148.6 188 153 186.35 155.55 186.15 159.1 183.5 159.75 181.15 159.75 173.45 159.75 170.75 155.1 170.15 154 169.85 152.55 170.45 151 172.75 148.55 172.95 148.6 173.65 148.6 175.25 148.6 187.1 145.6
L 194.3 143.4
Q 195.05 143.15 196.55 142.75
M 201.35 149.8
Q 201.8 149.8 202.2 149.8 202.1 150.4 201.95 151.05 201.65 151.2 201.4 151.4 193.75 156.85 187.45 158.75 187.65 156.1 188.75 154.1 191.55 148.95 199.25 148.95 199.55 148.95 199.8 148.95 197.75 149.5 196 150.8 193.55 152.6 193.55 153.95 193.55 154.2 193.6 154.15 195.8 152.15 196.3 151.75 199 149.8 201.35 149.8
M 184.45 194.9
Q 188.55 190.2 197.5 181.1 199.8 178.65 212.3 167.05 215.65 163.95 218.25 161.3 219.6 159.9 220.75 158.6
L 220.8 158.65
Q 221 158.85 221.2 159.05 221.5 159.5 221.9 159.95 222.3 160.4 222.75 160.8 224.65 162.45 226.9 162.45 228.3 162.45 229.4 161.95 230.75 161.3 231.65 159.85 232.75 158 232.75 155.75 232.75 154.05 231.75 151.95 231.7 151.75 231.6 151.6 230.6 149.75 230.55 149.7 230.35 149.4 230.2 149.2 229.95 148.9 229.75 148.7 233.8 144.9 240.95 137.75 241.75 136.95 248.7 130.55 249.1 131.85 249.8 133.7
L 249.8 133.75
Q 249.85 133.75 249.9 133.8 249.95 133.85 250.3 134.1 250.5 134.2 250.95 134.55 251.05 134.6 251.15 134.7 251.25 134.75 251.45 134.9 254.25 132.95 256.95 130.7 257.2 130.95 257.6 131.35 257.65 131.4 258.75 132.6 259.25 133.1 259.6 133.4 258.35 134.85 257 136.6 253.35 141.25 251.45 143.6 250.45 144.85 248.15 147.25 246.95 148.5 244.55 151 242.4 153.1 240.9 154.75 240.1 155.65 239.45 156.4 238.85 157.15 238.4 157.7
L 239 157.75
Q 239.2 157.75 239.45 157.7 240.8 157.45 242.95 155.8 244.65 154.45 246.9 152.15 253.7 155.7 259.85 160.05 267.3 165.3 276.35 173.7 282.55 179.45 287.85 187.25 291.55 192.7 295.85 200.85 296.25 201.6 296.65 202.35 295.7 202.85 294.65 203.5 294.3 203.7 293.95 203.95 288.7 207.3 284.3 212.15 281 215.7 279.8 218.55 279.7 218.7 278.6 220.75 277.8 216.5 277.55 215.3 276.45 211.1 273.85 206.1 272 202.45 268.5 196.85 262.65 187.45 251.45 178.4 244.8 173.5 235.9 168.9 231.45 166.6 226.4 164.75 222.7 163.6 220.8 164.1 222.9 164.95 225 165.8 224.4 166.25 223.75 166.8 221.35 168.8 218.35 171.8 210.1 180.5 206.3 184.25 201.85 188.7 196.35 194.85 191.15 200.55 189.15 203.5 188.55 203.55 188.15 203.6 186.55 203.8 185.15 204.25 184.5 204.45 183.95 204.65
L 184.1 204.8
Q 185.2 204.95 187.85 204.95 188 204.95 188.2 204.95 192.8 204.85 197.45 204.65 197.9 204.65 198.45 204.65 198.55 205.4 198.7 206.15 198.7 206.3 198.75 206.4 199 207.7 199.3 208.95
L 199.35 209
Q 190.8 209.6 185.25 209.6 179.7 209.6 178.9 209.55 178.15 209.5 177.55 209.45 176.25 209.25 175.85 208.85 177.4 203 184.45 194.9
M 203.35 194.55
Q 203.95 194.25 205.25 193.9 208 193.25 210.3 193.25 212.65 193.25 213.65 194.25 214.25 194.8 214.25 195.5 214.25 195.6 214.25 195.7 214.15 196.65 213.15 198.1 213.1 198.15 213.05 198.25 210.5 198.4 207.9 199.75 206.4 200.5 205.75 200.95 205.25 201.3 205.25 201.45 205.25 201.75 205.6 201.7 205.95 201.65 208.15 200.75 210.05 199.95 214.25 199.95 216.2 200.25 216.75 201.1 217.05 201.5 217.2 202.4 217.3 203.2 217.3 204.4 217.25 206.9 212.3 207.65 211.25 207.8 210.45 207.95 209.15 208.15 208.45 208.3 207.5 208.45 207.65 208.5 207.95 208.55 210.25 208.7 210.5 208.7 210.7 208.75 212.55 208.8 213.15 208.9 213.75 209 214 209 214.2 209 215.45 209.5 216.65 209.95 216.6 211.95 216.55 213.9 214.4 215.2 212.45 216.25 211.9 216.5 211.75 216.55 211.6 216.65 206.25 218.3 204.05 214.85 203.1 213.55 202.3 211.65 201.8 210.4 201.35 208.85 201.05 207.85 200.8 206.7 200.75 206.55 200.75 206.45 200.7 206.15 200.65 205.85 200.5 205.2 200.45 204.55 200.3 203.75 200.25 202.95
L 200.05 201.2
Q 200.05 201.15 200.05 201.1 200 200.6 199.95 199.5 200.15 196.3 203.35 194.55
M 312.15 142.15
Q 312.25 142 312.4 141.85
L 312.45 141.8
Q 313.1 142.95 313.65 143.5 313.55 143.7 313.5 143.9 313.45 144 313.45 144.1 313.1 145.55 313.05 145.7 312.5 147.05 312.4 147.2 312.25 147.4 312.1 147.6 311.9 147.2 311.65 146.8 310.8 145.5 310.15 144.4 310.75 143.85 311.45 142.95 311.65 142.7 312.15 142.15
M 321.1 139.25
Q 321.1 139.3 321.15 139.4 321.7 140.45 321.95 140.85 321.6 141.05 321.05 142.1 320.7 142.75 320.4 143.2 320.4 142.55 320.5 141.9 320.7 140.2 320.9 139.6 321 139.4 321.1 139.25
M 267.15 101.85
Q 268.4 101 269.1 100.35 269.35 101.5 269.65 103.15 269.65 103.1 269.65 103 270.05 105.25 270.35 106.55 270.8 108.4 271.2 109.9 271.85 111.95 271.95 112.3 271.4 112.7 270.7 113.2 267.95 115.3 265.45 117.55 264.65 118.2 263.9 118.9 262.9 119.85 261.9 120.8 260.65 121.95 259.55 123 257.55 124.9 255.85 126.55 255.65 126.75 255.45 127 253.45 128.9 252.3 130.15 252.1 129.6 251.8 129 251.55 128.3 250.6 125.85
L 250.55 125.9
Q 249.85 124.15 249.6 123.3 248.3 119.35 248.1 118.6 248 118.4 247.95 118.15 249.15 116.95 250.7 115.45 253.25 112.8 255 111.1 255.75 110.4 256.35 109.85 257.7 108.6 259.25 107.35 260.95 106 262.85 104.65 262.95 104.55 263.05 104.5 263.6 104.15 264.7 103.45 265.7 102.8 267.15 101.85
M 157.75 276.05
Q 158.8 276.55 159.8 277.1
L 159.75 277.15
Q 159.25 278 158.3 280.1 157.15 282.75 157.15 283.65 157.15 284.1 157.25 284.35 157.5 284.95 158.25 284.95 159 284.95 159.9 283.6 161.25 281.45 162.25 279.8 162.45 279.4 162.65 279.1 163.65 279.9 164.5 280.85 165.4 281.85 166.2 283.05 165.65 283.85 164.8 285.2 163.8 286.95 163.8 288.1 163.8 288.3 164 288.6 164.25 289 164.75 289 165.4 289 166.35 287.85 167.15 286.8 167.85 285.95 168.7 287.65 169.3 289.55 168.55 290.25 167.8 291.2 166.2 293 166.2 293.65 166.2 293.7 166.3 294.15 166.5 294.65 167.15 294.65 168 294.65 170.1 293.05 170.25 294.05 170.4 295.3 170.9 299 171.1 300.15 171.25 300.9 171.4 302.05 171.3 302.8 171.3 303.9 171.3 306.15 172.15 308.2 172.4 308.8 173.25 310.35 173.35 310.6 173.5 310.9 173.65 311.2 173.9 311.5 174.6 312.45 175.25 312.45 175.7 312.45 175.9 312.1 175.7 313.45 175.15 315.35 174.35 318 173.15 319.85 171.85 313.4 168.95 305.1 166.35 297.75 163 293.2 160.35 289.65 157.15 287.25 155.55 286 153.2 284.7
L 153.2 281.3
Q 153.25 278.6 153.65 274.5 154.3 274.65 155.2 275 156.7 275.55 157.75 276.05
M 144 276
Q 145.5 272.65 148.65 272.65 149.1 272.65 149.65 272.75
L 152 274
Q 151.85 274.7 151.8 275.35 151.8 276.95 151.65 280.15 151.55 281.85 151.5 283.1
L 151.5 284.4
Q 151.55 285.35 151.6 286.15 156.05 288.15 156.75 288.8 160.4 292.05 162.2 295 166.3 302 167.9 307.4 168.5 309.45 169.55 313.6 170.15 315.75 171.1 319.85 171.3 320.7 171.5 321.95 170.95 322.55 170.1 323.6 170.05 323.65 170 323.75 168.4 315.2 165.15 307.6 161.9 299.95 158.3 296.1 154.7 292.2 151.8 289.65 150.05 288.3 147.85 286.75 145.95 285.55 143.3 284.4 142.95 282.45 142.95 280.6 142.95 278.2 144 276
M 294.9 206.65
Q 295.1 206.5 295.4 206.35 296.3 205.8 297.85 204.95 298.95 207.35 299.9 209.95
L 299.85 209.95
Q 298.95 210.5 298.1 211 297.4 211.4 296.75 211.85 296.5 212 296.25 212.15 292.8 214.3 290.5 216.05 283.3 221.35 279.4 225.25 279.3 224.55 279.15 223.75 279 222.9 278.85 222.1 279.4 221.35 281.05 219.35 284.6 214.85 286.3 213.2 289.35 210.15 294.2 207.05 294.4 206.9 294.9 206.65
M 297.4 214.2
Q 298.3 213.65 299.3 213.1 300 212.7 300.75 212.3 301.15 213.45 301.55 214.6 303.2 219.95 304.35 225.85
L 304.3 225.85
Q 302.6 226 300.65 226.3 298.35 226.6 295.65 227.05 284.4 228.9 280.4 230.7 280.35 230.7 280.3 230.7 280.05 229 279.65 226.45 279.6 226.25 279.55 226.05 284.45 222 291.95 217.35 293.6 216.3 297.4 214.2
M 301.25 230.15
L 300.1 230.15
Q 291.4 230.65 287.1 230.9 287.15 230.85 287.25 230.85 290.15 230.1 293.5 229.6 296.6 229.05 301 228.5 302.75 228.25 304.75 228 304.75 228.1 304.75 228.15 304.9 229 305.05 230.15
L 301.25 230.15
M 304.1 231.6
L 305.25 231.55
Q 305.4 232.7 305.55 234.05 306.4 239.95 305.5 245.9 305.45 245.8 305.45 245.7 305.25 247.9 304.7 250.05 304.05 252.45 301.9 254.4 300.8 255.2 299.55 255.95 299.35 256.05 299.2 256.15 298.1 256.8 296.95 257.3 292.9 258.35 287.25 258.95 273.2 260.2 256.25 255.4 251 253.75 243.8 251.35 218.85 241.9 212.15 239.25 205.45 236.6 205.55 236.85 205.65 237.1 205.35 239.05 205.05 240.95 204.7 243.6 204.3 246.25 204.05 253.65 202.9 266.25 196.15 276.3 192.9 281.25 190 286.05 188.4 285.85 187.05 285.35 187 285.35 185.65 284.7 185 284.4 184.15 284 184.05 283.95 183.95 283.9 186.2 277.15 187.75 272.75 189.9 266.55 199.25 244.2 201.7 238.25 203.45 234.05 204.05 232.5 204.55 231.25 205.6 231.4 207 231.6 215.9 232.75 238.95 233.9
L 260.8 233.65 304.1 231.6
M 184.8 286.8
Q 184.95 286.85 185.1 286.95 185.65 287.15 186.3 287.4 187.5 287.85 188.7 288.15 187.9 289.4 187.2 290.65 186.35 290.3 185.2 289.6 184.7 289.25 184.3 288.95 184.1 288.8 184 288.7 183.25 288.15 182.7 287.55 182.95 286.7 183.25 285.9 183.8 286.35 184.8 286.8
M 285.1 46.35
Q 286.3 45.7 287.5 44.95 294.45 40.55 302.5 42.15 310.8 43.65 310.2 52.65 309.55 61.8 302.8 67.95 296.7 73.35 289.8 78.1 287.8259765625 79.5849609375 286.15 80.85 276.2 88.35 276.2 91.8 276.2 92.75 276.6 93.1 277.25 93.65 279.85 94.3
L 285.65 94.4
Q 286.8 94.7 286.9 94.75
L 286.8 94.9 286.15 95.35
Q 282.85 96.1 277.5 98.15 277.3 97.55 277.1 97.35
L 276.7 97.2
Q 275.95 97.2 273.8 98.2 273.35 98.35 272.6 98.9 272.45 99 272.35 99.1
L 271.9 98.15
Q 271.55 97.2 270.85 97.25 270.7 97.25 270.6 97.3
L 270.55 97.3
Q 270.1 97.3 269.95 97.45 265.05 99 254.45 108.4 251.55 111.2 248.85 114 247.25 115.7 245.25 118.05 246.2 121.7 247 124.85 247.5 126.5 248.1 128.45 245.7 130.7 240.25 136.1 234.95 141.2 231.85 144.25 229.5 146.5 228.1 147.95 227.7 147.7 227.25 147.45 222.6 144.5 219.05 139.7 218.6 139.15 218.2 138.55 218.95 138.45 219.65 138.3 224.3 137.25 227 133 227.45 132.3 227.85 131.65 229.4 132.35 231.35 132.35 236.9 132.35 239.95 127.3 240.4 126.55 240.8 125.8 242 123.3 242 121.3 242 118 240.6 114.55 240.9 114.3 241.15 114.05 242.4 112.85 243.1 111.4 245.15 107.5 245.95 105.55 246.95 103.05 247.7 99.7 247.95 98.65 248.95 93.85 249.45 90.5 249.95 87.95 250.8 87.95 251.05 87.25 251.1 87.2 251.25 86 251.25 85.35 251.4 84.8 251.65 83.9 251.65 83.6 251.65 83 251.25 82.9 251.05 82.85 250.9 82.8 250.95 82.55 251 82.3 251.35 80.6 252.5 76.45 253 74.55 254.1 72.8 255.95 69.95 258.2 70.8 258.5 70.95 260.9 72.5 263.75 74 266.45 74 270 74 271.65 68.7 274.45 59.8 276.6 56.35 280.15 50.7 283.8 47.45 284.4423828125 46.8775390625 285.1 46.35
M 187.25 98.5
Q 187.85 98.5 187.75 98.35 187.8 97.45 187.75 97.45 187.55 89.4 189.25 84.6 194.5 69.85 209.2 69.85 213 69.85 215.65 71.45 216.55 72.1 216.65 72.15 222.35 67.85 227 67.85 230.55 67.85 232.75 72 234.25 74.95 234.25 76.9 234.25 80.5 230.55 85.55 235.3 87.65 237.5 91 239.5 94.05 239.5 96.35 239.5 101.2 236.35 104.2 235.45 105.05 234.1 105.95 233.65 106.25 233.15 106.5 237 110.15 238.35 112.65 238.7 113.3 239 114 238.4 114.35 237.8 114.65 237.1697265625 114.876953125 236.5 115 234.15 115.5 232.2 113.9 230.05 112.1 228.8 109.75 227.3 106.95 224.45 107 221.5 107.1 219.5 109.65 219.165625 110.1919921875 218.8 110.85 217.95 110.15 216.85 110.15 213.6 110.15 211.3 111.7 209.05 113.1 207.65 115.9 206.6 118 205.6 123.25
L 205.6 124.05
Q 205.75 123.7 205.6 124.15 205.45 124.55 204.95 125.25 204.45 125.9 203.75 126.7 203 127.45 202.1 127.6 201.15 127.7 200.8 127.5 200.4 127.3 200.35 126.25 200.3 125.15 200.65 124.3 200.95 123.45 201.8 122.8 203.25 123.35 203.55 123.15 203.85 122.9 203.75 122.85 203.5 122.7 202.4 121.55 201.25 120.35 201.25 119.5 201.25 118.65 202.8 116.65 204.2 114.8 206.45 113.75 206.95 112.7 207.3 111.45 207.6 110.2 207.3 108.3 207 106.35 205.95 104.3 204.85 102.25 203.15 100.85 201.4 99.45 197.15 99.95 192.9 100.45 190.35 102.1 189.45 102.65 188.7 103.25 187.3 104.35 186.5 105.6 186.1 106.3 185.75 107 185.2 108.15 184.65 109.4 184.25 108.4 183.9 107.4 182.25 102.65 182.25 98.55 182.25 97.55 182.45 96.2 182.8 94.2 183.4 93.6 183.9 94 185.4 96.4 185.5 96.55 185.6 96.7 185.6 96.75 185.6 96.8 187.1 98.5 187.25 98.5
M 223.8 108.35
Q 226.55 107.75 227.9 110.6 229.2 113.45 231.6 115.1 234.05 116.9 237.2 116.25 237.9427734375 116.109375 238.65 115.8 239.1 115.6 239.55 115.35 240.4 117.8 240.5 120.4 240.5 120.75 240.5 121.1 240.5 122.65 238.6 125.75 236.05 130 232.35 130 230.7 130 228.75 129.65 229.4 127.9 229.4 126.25 229.4 125.75 229 124.7 228.55 123.45 228 123.1 228 123.15 227.85 123.25 228.3 123.7 228.5 126.15 228.5 127.45 227.45 129.4 226.3 129.1 226.25 129.1 225.25 129.1 223.85 128.75 224.7 129.2 226.5 130.85
L 226.55 130.85
Q 226.25 131.2 226 131.6 223.75 134.75 220.65 135.95 218.95 136.55 217 136.65 215.8 134.45 214.55 130.4 214.45 130.05 214.35 129.7 217 128.15 218.85 124.75 221.25 120.4 221.25 116.8 221.1 115.15 220.5 113.5 220.1 112.5 219.65 111.8 220.058203125 111.1876953125 220.45 110.6 221.95625 108.8517578125 223.8 108.35
M 186.35 131.75
Q 186.35 131.45 185.85 131.25 184.85 131.15 184.2 131.15 183 131.2 182.55 131.75
L 182.55 132
Q 183.25 132.3 185.3 132.3 186.35 132.3 186.35 131.75
M 182.1 127.85
Q 182.1 127.9 182.15 128.55 182.3 129.2 183 129.2 184.45 129.2 185.9 124.25 185.9 123.3 184.95 123.3 183.7 123.3 182.8 125.5 182.1 127.15 182.1 127.85
M 183.65 125.75
Q 183.65 125.45 183.95 124.7 184.35 123.7 184.95 123.7 185.35 123.7 185.35 124.1 184.7 126.4 184.05 126.4 183.75 126.4 183.65 126.1 183.65 125.8 183.65 125.75
M 195.55 122.2
Q 195.55 119.1 193.1 122.05 190.65 125 190.65 128.15 190.65 128.2 190.7 128.8 190.9 129.35 191.6 129.35 193.65 129.35 195.55 122.2
M 193.85 121.85
Q 195 120.45 195 121.9 194.1 125.25 193.15 125.25 192.8 125.25 192.7 125 192.7 124.75 192.7 124.7 192.7 123.2 193.85 121.85
M 203.05 110
Q 203.4 109.25 203.4 108.4 203.4 107.05 202.65 106.05 201.3 104.3 198 104.3 194.9 104.3 192.3 106.55 190.75 107.85 190.5 108.25 190.2 108.65 190.2 109.65 190.2 109.7 190.45 110.45 190.85 111.2 191.8 111.2 193.25 111.2 194.65 110.1 196.1 108.95 197.2 108.95 198.05 108.95 199.15 110.1 200.2 111.25 201.2 111.25 202.5 111.25 203.05 110 Z"/>

<path fill="#993300" stroke="none" d="
M 227.9 110.6
Q 226.55 107.75 223.8 108.35 221.95625 108.8517578125 220.45 110.6 220.058203125 111.1876953125 219.65 111.8 220.1 112.5 220.5 113.5 221.1 115.15 221.25 116.8 221.25 120.4 218.85 124.75 217 128.15 214.35 129.7 214.45 130.05 214.55 130.4 215.8 134.45 217 136.65 218.95 136.55 220.65 135.95 223.75 134.75 226 131.6 226.25 131.2 226.55 130.85
L 226.5 130.85
Q 224.7 129.2 223.85 128.75 225.25 129.1 226.25 129.1 226.3 129.1 227.45 129.4 228.5 127.45 228.5 126.15 228.3 123.7 227.85 123.25 228 123.15 228 123.1 228.55 123.45 229 124.7 229.4 125.75 229.4 126.25 229.4 127.9 228.75 129.65 230.7 130 232.35 130 236.05 130 238.6 125.75 240.5 122.65 240.5 121.1 240.5 120.75 240.5 120.4 239.95 117.9 238.65 115.8 237.9427734375 116.109375 237.2 116.25 234.05 116.9 231.6 115.1 229.2 113.45 227.9 110.6
M 193.45 89.45
Q 191.1 93.8 189.7 98.7 188.9 101.45 188.7 103.25 189.45 102.65 190.35 102.1 192.9 100.45 197.15 99.95 201.4 99.45 203.15 100.85 204.85 102.25 205.95 104.3 207 106.35 207.3 108.3 207.6 110.2 207.3 111.45 206.95 112.7 206.45 113.75 204.2 114.8 202.8 116.65 201.25 118.65 201.25 119.5 201.25 120.35 202.4 121.55 203.5 122.7 203.75 122.85 203.85 122.9 203.55 123.15 203.25 123.35 201.8 122.8 200.95 123.45 200.65 124.3 200.3 125.15 200.35 126.25 200.4 127.3 200.8 127.5 201.15 127.7 202.1 127.6 203 127.45 203.75 126.7 204.45 125.9 204.95 125.25 205.45 124.55 205.6 124.15 205.75 123.7 205.6 124.05
L 205.6 123.25
Q 206.6 118 207.65 115.9 209.05 113.1 211.3 111.7 213.6 110.15 216.85 110.15 217.95 110.15 218.8 110.85 219.165625 110.1919921875 219.5 109.65 221.5 107.1 224.45 107 227.3 106.95 228.8 109.75 230.05 112.1 232.2 113.9 234.15 115.5 236.5 115 237.1697265625 114.876953125 237.8 114.65 236.45 112.85 234.5 111.4 232.35 109.85 229.3 108.4 228.9 108.25 228.55 108.1 229.85 107.4 231.05 106.45 234.85 103.4 234.85 99.55 234.85 92.65 226.9 89.5 228.05 86.8 228.05 83.85 228.05 80.1 226.25 77.45 224.3 74.65 221.25 74.65 219.05 74.65 217.2 75.95 215.8 77 214.8 78.65 211.95 77.25 209.15 77.25 199.95 77.25 193.45 89.45
M 183.85 99.25
Q 183.85 99.45 183.65 99.45 183.4 100.3 184.65 103.95 185.1 105.15 185.75 107 186.1 106.3 186.5 105.6 187.3 104.35 188.7 103.25 188.05 102.65 187.15 101.9 184.3 99.5 183.85 99.25 Z"/>

<path fill="#FF9900" stroke="none" d="
M 239.55 115.35
Q 239.1 115.6 238.65 115.8 239.95 117.9 240.5 120.4 240.4 117.8 239.55 115.35
M 187.75 98.35
Q 187.85 98.5 187.25 98.5 187.1 98.5 185.6 96.8 185.6 96.75 185.6 96.7 185.5 96.55 185.4 96.4 183.9 94 183.4 93.6 182.8 94.2 182.45 96.2 182.25 97.55 182.25 98.55 182.25 102.65 183.9 107.4 184.25 108.4 184.65 109.4 185.2 108.15 185.75 107 185.1 105.15 184.65 103.95 183.4 100.3 183.65 99.45 183.85 99.45 183.85 99.25 184.3 99.5 187.15 101.9 188.05 102.65 188.7 103.25 188.9 101.45 189.7 98.7 191.1 93.8 193.45 89.45 199.95 77.25 209.15 77.25 211.95 77.25 214.8 78.65 215.8 77 217.2 75.95 219.05 74.65 221.25 74.65 224.3 74.65 226.25 77.45 228.05 80.1 228.05 83.85 228.05 86.8 226.9 89.5 234.85 92.65 234.85 99.55 234.85 103.4 231.05 106.45 229.85 107.4 228.55 108.1 228.9 108.25 229.3 108.4 232.35 109.85 234.5 111.4 236.45 112.85 237.8 114.65 238.4 114.35 239 114 238.7 113.3 238.35 112.65 237 110.15 233.15 106.5 233.65 106.25 234.1 105.95 235.45 105.05 236.35 104.2 239.5 101.2 239.5 96.35 239.5 94.05 237.5 91 235.3 87.65 230.55 85.55 234.25 80.5 234.25 76.9 234.25 74.95 232.75 72 230.55 67.85 227 67.85 222.35 67.85 216.65 72.15 216.55 72.1 215.65 71.45 213 69.85 209.2 69.85 194.5 69.85 189.25 84.6 187.55 89.4 187.75 97.45 187.8 97.45 187.75 98.35
M 186.3 287.4
Q 185.65 287.15 185.1 286.95
L 184.3 288.95
Q 184.7 289.25 185.2 289.6 186.35 290.3 187.2 290.65 187.9 289.4 188.7 288.15 187.5 287.85 186.3 287.4
M 301.25 230.15
L 301 228.5
Q 296.6 229.05 293.5 229.6 290.15 230.1 287.25 230.85 287.15 230.85 287.1 230.9 291.4 230.65 300.1 230.15
L 301.25 230.15
M 294.9 206.65
Q 294.4 206.9 294.2 207.05 289.35 210.15 286.3 213.2 284.6 214.85 281.05 219.35 279.4 221.35 278.85 222.1 279 222.9 279.15 223.75 279.3 224.55 279.4 225.25 283.3 221.35 290.5 216.05 292.8 214.3 296.25 212.15 296.5 212 296.75 211.85
L 294.9 206.65
M 313.05 145.7
Q 313.1 145.55 313.45 144.1 312.75 143.1 312.15 142.15 311.65 142.7 311.45 142.95 310.75 143.85 310.15 144.4 310.8 145.5 311.65 146.8 311.9 147.2 312.1 147.6 312.25 147.4 312.4 147.2 312.5 147.05 313.05 145.7
M 357.15 278.4
Q 356.35 277.45 355.45 276.35
L 354.2 277.75
Q 354.95 278.6 356.25 280 356.7 279.2 357.15 278.4 Z"/>

<path fill="#FFCC00" stroke="none" d="
M 185.1 286.95
Q 184.95 286.85 184.8 286.8 183.8 286.35 183.25 285.9 182.95 286.7 182.7 287.55 183.25 288.15 184 288.7 184.1 288.8 184.3 288.95
L 185.1 286.95
M 301 228.5
L 301.25 230.15 305.05 230.15
Q 304.9 229 304.75 228.15 304.75 228.1 304.75 228 302.75 228.25 301 228.5
M 295.4 206.35
Q 295.1 206.5 294.9 206.65
L 296.75 211.85
Q 297.4 211.4 298.1 211 298.95 210.5 299.85 209.95
L 299.9 209.95
Q 298.95 207.35 297.85 204.95 296.3 205.8 295.4 206.35
M 312.4 141.85
Q 312.25 142 312.15 142.15 312.75 143.1 313.45 144.1 313.45 144 313.5 143.9 313.55 143.7 313.65 143.5 313.1 142.95 312.45 141.8
L 312.4 141.85
M 355.45 276.35
Q 355.35 276.2 355.3 276.1 354.8 275.5 354.35 274.9 354.2 274.7 354.05 274.45 353.4 275.15 352.7 275.9 353.5 276.9 354.1 277.6 354.15 277.7 354.2 277.75
L 355.45 276.35 Z"/>

<path fill="#333333" stroke="none" d="
M 301.5 232.35
Q 292 234.95 284.9 236.4 268.85 239.65 252.15 239.65 239.8 239.65 218.05 236.45 210.35 235.15 205.7 234.4 199.2 248.55 192.5 266.9 189 276.5 185.65 284.7 187 285.35 187.05 285.35 188.4 285.85 190 286.05 192.9 281.25 196.15 276.3 202.9 266.25 204.05 253.65 204.3 246.25 204.7 243.6 205.05 240.95 205.35 239.05 205.65 237.1 205.55 236.85 205.45 236.6 212.15 239.25 218.85 241.9 243.8 251.35 251 253.75 256.25 255.4 273.2 260.2 287.25 258.95 292.9 258.35 296.95 257.3 298.1 256.8 299.2 256.15 299.35 256.05 299.55 255.95 300.8 255.2 301.9 254.4 304.05 252.45 304.7 250.05 305.25 247.9 305.45 245.7 305.45 245.8 305.5 245.9 306.4 239.95 305.55 234.05 305.4 232.7 305.25 231.55
L 304.1 231.6
Q 302.75 231.95 301.5 232.35
M 242.15 142
Q 241.25 142.75 240.4 143.4
L 231.75 151.95
Q 232.75 154.05 232.75 155.75 232.75 158 231.65 159.85 230.75 161.3 229.4 161.95 228.3 162.45 226.9 162.45 224.65 162.45 222.75 160.8 222.3 160.4 221.9 159.95 221.5 159.5 221.2 159.05 221 158.85 220.8 158.65
L 220.75 158.6
Q 219.6 159.9 218.25 161.3 218.5 161.6 218.75 162 219.35 162.9 219.95 163.6
L 203.85 179.65
Q 196.8 186.55 190 193.95 180.3 204.45 177.55 209.45 178.15 209.5 178.9 209.55 179.7 209.6 185.25 209.6 190.8 209.6 199.35 209
L 199.3 208.95
Q 199 207.7 198.75 206.4 194.95 206.25 190.5 205.45 189 205.2 187.85 204.95 185.2 204.95 184.1 204.8
L 183.95 204.65
Q 184.5 204.45 185.15 204.25 186.55 203.8 188.15 203.6 188.55 203.55 189.15 203.5 191.15 200.55 196.35 194.85 201.85 188.7 206.3 184.25 210.1 180.5 218.35 171.8 221.35 168.8 223.75 166.8 224.4 166.25 225 165.8 222.9 164.95 220.8 164.1 222.7 163.6 226.4 164.75 231.45 166.6 235.9 168.9 244.8 173.5 251.45 178.4 262.65 187.45 268.5 196.85 272 202.45 273.85 206.1 276.45 211.1 277.55 215.3 277.8 216.5 278.6 220.75 279.7 218.7 279.8 218.55 281 215.7 284.3 212.15 288.7 207.3 293.95 203.95 282.7 185.55 272.45 176.65 257.1 163.35 242.95 155.8 240.8 157.45 239.45 157.7 239.2 157.75 239 157.75
L 238.4 157.7
Q 238.85 157.15 239.45 156.4 240.1 155.65 240.9 154.75 242.4 153.1 244.55 151 246.95 148.5 248.15 147.25 250.45 144.85 251.45 143.6 253.35 141.25 257 136.6 258.35 134.85 259.6 133.4 259.25 133.1 258.75 132.6 257.65 131.4 257.6 131.35 257.2 130.95 256.95 130.7 254.25 132.95 251.45 134.9 251.25 134.75 251.15 134.7 250.8 135.05 249.1 136.4 246.3 138.55 242.15 142
M 298.75 109.35
Q 297.55 106 296.25 103.05 293.7 104.95 291.3 106.85 295.25 114.75 301.15 127.45 303.15 131.4 307.45 139.9 307.95 140.8 308.8 142.15 308.8 142.1 308.85 142.05 310.1 140.35 310.45 140.05 310.5 139.85 310.65 139.7 310.3 139.1 309.95 138.5 307.2 133.5 304.25 125.85 300.85 115.35 298.75 109.35
M 296.15 102.8
Q 295.5 101.25 294.8 99.85 291.45 101.9 288.15 104.05 281.7 108.2 276.3 112.2 276.45 113 276.6 113.9 275.55 115.15 272.75 117.5 273.05 118.1 273.35 118.95 276.8 115.85 280.7 112.75 285.75 108.75 290.7 105.6 293.8 103.65 296.15 102.8
M 348.1 295.8
Q 350.6 289.9 354.95 282.25 354.3 281.4 352.65 279.4 347.5 285.9 345.05 289.25 338 298.85 334.6 308.8 332.1 316 332.4 320.45 330 317.8 327.05 314 320.4 305.35 314.55 295.2 305.6 279.75 301.85 266.7 304.5 265.65 307.35 264.25 306.9 262.4 306.7 261.55 305.95 258.1 305.5 255 304.1 256.75 301.9 258 301.05 258.5 300.05 259 297.9 260.05 295.45 260.8 292.65 261.4 291.45 261.35 292.7 264.55 294.55 268.9 295.45 271.05 296.55 273.45 299.75 280.75 307.85 294.8 315.9 308.85 324.35 318.65 325.65 320.2 330.7 325.5 330.9 325.15 331.1 324.85 332 323.5 332.75 322.35 333.05 321.85 333.35 321.45 337.45 315.05 337.85 314.4 339.6 311.45 343.35 305.05 346.5 299.5 348.1 295.8 Z"/>

<path fill="#666666" stroke="none" d="
M 284.9 236.4
Q 292 234.95 301.5 232.35 302.75 231.95 304.1 231.6
L 260.8 233.65 238.95 233.9
Q 215.9 232.75 207 231.6 205.6 231.4 204.55 231.25 204.05 232.5 203.45 234.05 201.7 238.25 199.25 244.2 189.9 266.55 187.75 272.75 186.2 277.15 183.95 283.9 184.05 283.95 184.15 284 185 284.4 185.65 284.7 189 276.5 192.5 266.9 199.2 248.55 205.7 234.4 210.35 235.15 218.05 236.45 239.8 239.65 252.15 239.65 268.85 239.65 284.9 236.4
M 198.75 206.4
Q 198.7 206.3 198.7 206.15 198.55 205.4 198.45 204.65 197.9 204.65 197.45 204.65 192.8 204.85 188.2 204.95 188 204.95 187.85 204.95 189 205.2 190.5 205.45 194.95 206.25 198.75 206.4
M 276.35 173.7
Q 267.3 165.3 259.85 160.05 253.7 155.7 246.9 152.15 244.65 154.45 242.95 155.8 257.1 163.35 272.45 176.65 282.7 185.55 293.95 203.95 294.3 203.7 294.65 203.5 295.7 202.85 296.65 202.35 296.25 201.6 295.85 200.85 291.55 192.7 287.85 187.25 282.55 179.45 276.35 173.7
M 197.5 181.1
Q 188.55 190.2 184.45 194.9 177.4 203 175.85 208.85 176.25 209.25 177.55 209.45 180.3 204.45 190 193.95 196.8 186.55 203.85 179.65
L 219.95 163.6
Q 219.35 162.9 218.75 162 218.5 161.6 218.25 161.3 215.65 163.95 212.3 167.05 199.8 178.65 197.5 181.1
M 240.4 143.4
Q 241.25 142.75 242.15 142 246.3 138.55 249.1 136.4 250.8 135.05 251.15 134.7 251.05 134.6 250.95 134.55 250.5 134.2 250.3 134.1 249.95 133.85 249.9 133.8 249.85 133.75 249.8 133.75
L 249.8 133.7
Q 249.1 131.85 248.7 130.55 241.75 136.95 240.95 137.75 233.8 144.9 229.75 148.7 229.95 148.9 230.2 149.2 230.35 149.4 230.55 149.7 230.6 149.75 231.6 151.6 231.7 151.75 231.75 151.95
L 240.4 143.4
M 293.35 96.25
Q 293.2 96.35 293.05 96.45 291.35 97.5 289.15 99.25 286.6 101.3 285.2 102.2 283.4 103.4 277.45 107.9 276.55 108.6 275.7 109.25 276 110.5 276.3 112.2 281.7 108.2 288.15 104.05 291.45 101.9 294.8 99.85 295.5 101.25 296.15 102.8 296.55 102.6 296.95 102.5 296.6 102.75 296.25 103.05 297.55 106 298.75 109.35 300.85 115.35 304.25 125.85 307.2 133.5 309.95 138.5 310.3 139.1 310.65 139.7 310.8 139.6 311 139.5 311.15 139.4 311.3 139.4 311 138.7 310.7 137.9 308.5 132.45 307.85 130.55 306.75 127.35 303.25 116 300.65 107.3 297.85 101.45 297.15 100.05 296.55 98.8 295.6 96.9 294.9 95.35 294.15 95.8 293.35 96.25
M 351.2 277.45
Q 345.6 283.15 344.55 284.3 336.35 293.15 333.4 299.1 330.65 304.7 330.45 312.1 330.55 315.2 330.85 315.65
L 330.7 315.95
Q 329.7 314.4 329.3 313.6 326.7 312.05 323.45 306.95 321.45 303.85 317.95 296.85 313.3 287.45 311.15 279.15 308.45 268.75 307.35 264.25 304.5 265.65 301.85 266.7 305.6 279.75 314.55 295.2 320.4 305.35 327.05 314 330 317.8 332.4 320.45 332.1 316 334.6 308.8 338 298.85 345.05 289.25 347.5 285.9 352.65 279.4 352.4 279.1 352.15 278.75 351.65 278.15 351.2 277.45 Z"/>

<path fill="#FF9999" stroke="none" d="
M 298.15 216.1
Q 295.15 217.45 291.95 219.1 283.35 223.6 279.65 226.45 280.05 229 280.3 230.7 280.35 230.7 280.4 230.7 284.4 228.9 295.65 227.05 298.35 226.6 300.65 226.3 300.4 224.85 300.1 223.45 299.25 219.05 298.15 216.1
M 212.5 195.8
Q 207.45 196.2 205.65 196.9 203.05 197.9 201.1 199.85 200.5 200.45 200.05 201.1 200.05 201.15 200.05 201.2
L 200.25 202.95
Q 200.3 203.75 200.45 204.55 200.5 205.2 200.65 205.85 200.7 206.15 200.75 206.45 200.75 206.55 200.8 206.7 201.05 207.85 201.35 208.85 201.8 210.4 202.3 211.65 203.1 213.55 204.05 214.85 206.25 218.3 211.6 216.65 211.75 216.55 211.9 216.5 212.45 216.25 214.4 215.2 216.55 213.9 216.6 211.95 216.65 209.95 215.45 209.5 214.2 209 214 209 213.75 209 213.15 208.9 212.55 208.8 210.7 208.75 210.5 208.7 210.25 208.7 207.95 208.55 207.65 208.5 207.5 208.45 208.45 208.3 209.15 208.15 210.45 207.95 211.25 207.8 212.3 207.65 217.25 206.9 217.3 204.4 217.3 203.2 217.2 202.4 216.7 202.3 216.25 202.15 211 200.7 208.85 200.7 208.65 200.7 208.15 200.75 205.95 201.65 205.6 201.7 205.25 201.75 205.25 201.45 205.25 201.3 205.75 200.95 206.4 200.5 207.9 199.75 210.5 198.4 213.05 198.25 213.1 198.15 213.15 198.1 214.15 196.65 214.25 195.7 213.3 195.75 212.5 195.8
M 219 116.9
Q 218.8 115 218.35 113.9 217.9 114.65 217.5 115.45 216.55 117.35 215.6 118.9 214.9 120.05 214.25 120.95 214.4 121.35 214.4 121.85 214.4 122.4 214.35 122.85 214.15 123.8 213.55 124.3 213.35 124.45 213.1 124.55 212.95 124.7 212.85 124.8 211.15 126.7 206.45 130.25 206.9 131.2 207.4 132.15 207.85 133.55 207.85 137.15 207.85 141.5 205.2 147.15 204.95 147.65 204.75 148.1 204.65 148.6 204.55 149.1 207.6 146.65 209.9 144.7 212.45 146.15 214.25 147.75 215.95 149.2 217.05 150.75 219.3 153.95 220.65 155.8
L 222.5 158.3
Q 223.1 158.95 224 159.6 224.25 159.75 224.55 159.9 225.7 160.6 226.9 160.3 224.4 158.15 221.35 154.15 217.85 148.95 215.6 145.95 216.4 144.75 217.2 143.3 217.65 142.55 218.05 141.75 217.65 141.15 217.3 140.55 214.75 136.2 214.2 134.65 213.6 133.05 212.75 130.45 211.1 131 209.25 131 208.85 131 208.6 130.8 208.15 130.55 208.1 130.5 209.85 130.3 213.5 127.3 214.55 126.8 215.45 125.65
L 215.45 125.6
Q 215.8 125.15 216.1 124.65 219 120.2 219 116.9
M 210.15 117.95
Q 208.15 120.3 208.15 123.55 208.15 123.8 208.55 125.25 209 124.85 209.75 123.4 209.5 122.75 209.5 121.8 209.5 119.15 211.95 119.5 212.8 119.6 213.35 119.95 213.45 119.75 213.55 119.6 214.75 117.8 215.6 116.5 216.15 115.55 216.55 114.85 216.75 114.5 216.9 114.2 217.3 113.45 217.7 112.8 217.15 112.25 216.5 112.25 214.95 112.25 213.65 112.7 214 113 214.3 113.3 214.9 114 215.25 115 212.05 115.8 210.15 117.95
M 324.75 138.65
Q 324.65 138.4 324.55 138.15 323.25 134.7 322.55 133.3 319.85 127.9 319.85 125.55
L 320 124.45
Q 318.7 123.55 317.8 124.55 318.15 127.8 321 133.75 322.3 136.6 323.75 139.5 324.3 138.95 324.75 138.65
M 327.55 137.35
Q 328.05 139.95 328 142 328 142.65 328 143.35 327 143.8 325.15 145.15 321.8 147.5 320.3 150.05 318.75 148.9 317.65 148.15 315.75 146.85 314.65 146.4 314.45 146.95 314.25 147.5 313.75 148.8 313.1 149.4 313.4 150.05 313.65 150.6 316.7 153.2 318.55 153.2 321.3 153.2 323.25 152.15 324.25 151.6 325.7 150.2 327 148.9 328.5 146.65 330.25 143.65 330.25 139.5 330.25 137.5 329.05 133.8 325.75 122.2 323.5 122.75 323.85 124.25 325.35 129.35 327.4 136.55 327.55 137.35 Z"/>

<path fill="#FFCCCC" stroke="none" d="
M 299.3 213.1
Q 298.3 213.65 297.4 214.2 293.6 216.3 291.95 217.35 284.45 222 279.55 226.05 279.6 226.25 279.65 226.45 283.35 223.6 291.95 219.1 295.15 217.45 298.15 216.1 299.25 219.05 300.1 223.45 300.4 224.85 300.65 226.3 302.6 226 304.3 225.85
L 304.35 225.85
Q 303.2 219.95 301.55 214.6 301.15 213.45 300.75 212.3 300 212.7 299.3 213.1
M 321.15 139.4
Q 321.1 139.3 321.1 139.25 321 139.4 320.9 139.6 320.7 140.2 320.5 141.9 320.4 142.55 320.4 143.2 320.7 142.75 321.05 142.1 321.6 141.05 321.95 140.85 321.7 140.45 321.15 139.4
M 217.2 202.4
Q 217.05 201.5 216.75 201.1 216.2 200.25 214.25 199.95 210.05 199.95 208.15 200.75 208.65 200.7 208.85 200.7 211 200.7 216.25 202.15 216.7 202.3 217.2 202.4
M 205.25 193.9
Q 203.95 194.25 203.35 194.55 200.15 196.3 199.95 199.5 200 200.6 200.05 201.1 200.5 200.45 201.1 199.85 203.05 197.9 205.65 196.9 207.45 196.2 212.5 195.8 213.3 195.75 214.25 195.7 214.25 195.6 214.25 195.5 214.25 194.8 213.65 194.25 212.65 193.25 210.3 193.25 208 193.25 205.25 193.9
M 218.05 141.75
Q 217.65 142.55 217.2 143.3 216.4 144.75 215.6 145.95 217.85 148.95 221.35 154.15 224.4 158.15 226.9 160.3 227 160.25 227.05 160.25 228.3 159.8 229.3 158.35 230 157.3 230 156.1 230 154.9 229.85 153.85 229.75 153.3 229.6 152.85 229.2 151.35 228.4 150.05 227.6 148.65 223.7 146.75 220.35 145.1 218.05 141.75
M 206.05 109.7
Q 206.05 107.05 204.75 104.8 202.8 101.45 199.9 101.2 197.8 101 196.8 101.2 195.8 101.4 194.75 101.6 193.7 101.75 191.9 102.55 190.85 103 189.75 104.2 188.9 105 188.05 106.25 187.15 107.95 186.6 109.4 186.1 110.85 186 112.05
L 186 112.1
Q 185.9 112.3 185.85 112.55 186.4 112.4 186.85 112.4 188 112.4 188.3 113.15 188.35 113.3 188.35 114 188.35 117.05 183.6 119.5 182.25 124.5 181.5 129.45
L 181.5 129.5
Q 176.55 133.8 174.2 136.9 169.5 143 169.5 149.1 169.5 149.6 169.55 150.05 170.4 148.9 174.9 144.45 178.5 140.85 184.65 138.15 208.15 127.9 204.75 148.1 204.95 147.65 205.2 147.15 207.85 141.5 207.85 137.15 207.85 133.55 207.4 132.15 206.9 131.2 206.45 130.25 211.15 126.7 212.85 124.8 212.95 124.7 213.1 124.55 212.6 124.75 211.95 124.75 210.25 124.75 209.75 123.4 209 124.85 208.55 125.25 208.15 123.8 208.15 123.55 208.15 120.3 210.15 117.95 212.05 115.8 215.25 115 214.9 114 214.3 113.3 214 113 213.65 112.7 210.5 113.75 208.5 117.3 207.4 119.25 206.7 122.15 205.95 125.05 205.95 125.15 205.9 125.25 204.05 127.4
L 202.95 128.2
Q 201.65 128.75 201.1 128.75 199.05 128.75 199.05 125.9 199.05 124.25 200.4 122.6 200.6 122.25 201 121.85
L 200.9 121.75
Q 200 121.05 200 119.65 200 117.55 202.6 114.85 204 113.35 205.05 112.6 205.2 112.5 205.35 112.4
L 205.65 111.75
Q 206.05 110.05 206.05 109.7
M 203.4 108.4
Q 203.4 109.25 203.05 110 202.5 111.25 201.2 111.25 200.2 111.25 199.15 110.1 198.05 108.95 197.2 108.95 196.1 108.95 194.65 110.1 193.25 111.2 191.8 111.2 190.85 111.2 190.45 110.45 190.2 109.7 190.2 109.65 190.2 108.65 190.5 108.25 190.75 107.85 192.3 106.55 194.9 104.3 198 104.3 201.3 104.3 202.65 106.05 203.4 107.05 203.4 108.4
M 193.1 122.05
Q 195.55 119.1 195.55 122.2 193.65 129.35 191.6 129.35 190.9 129.35 190.7 128.8 190.65 128.2 190.65 128.15 190.65 125 193.1 122.05
M 182.15 128.55
Q 182.1 127.9 182.1 127.85 182.1 127.15 182.8 125.5 183.7 123.3 184.95 123.3 185.9 123.3 185.9 124.25 184.45 129.2 183 129.2 182.3 129.2 182.15 128.55
M 185.85 131.25
Q 186.35 131.45 186.35 131.75 186.35 132.3 185.3 132.3 183.25 132.3 182.55 132
L 182.55 131.75
Q 183 131.2 184.2 131.15 184.85 131.15 185.85 131.25
M 317.8 124.55
Q 317.65 124.65 317.55 124.85 316.6 126.3 317.4 128.6 318.15 130.9 318.85 132.05 319.55 133.2 320.65 135 321.1 135.75 321.6 136.65 321.7 136.85 321.85 137.1 322.35 138 322.85 139.05 323.1 139.6 323.3 139.95 323.55 139.7 323.75 139.5 322.3 136.6 321 133.75 318.15 127.8 317.8 124.55
M 325.7 140.3
Q 325.25 140.6 325.1 140.85 323.75 142.25 323.45 142.95 322.6 144.25 322.1 145.05 321.8 145.7 321.45 146.05 320.9 146.75 319.9 146.75 319.05 146.75 318.05 146 317.2 145.25 316.95 145.1 315.2 144.6 315.1 144.55 315 144.5 314.95 144.45 314.95 145.1 314.75 145.95 314.7 146.15 314.65 146.4 315.75 146.85 317.65 148.15 318.75 148.9 320.3 150.05 321.8 147.5 325.15 145.15 327 143.8 328 143.35 328 142.65 328 142 328.05 139.95 327.55 137.35 327.4 136.55 325.35 129.35 323.85 124.25 323.5 122.75 323.4 122.8 323.25 122.85 321.55 123.7 322.65 127.35 323.1 129 324.3 131.75 326.25 136.3 326.55 138.45 326.8 140.55 327.3 141.7 327.8 142.85 327 142 326.15 141.1 325.7 140.3 Z"/>

<path fill="#FFFFFF" stroke="none" d="
M 148.65 272.65
Q 145.5 272.65 144 276 142.95 278.2 142.95 280.6 142.95 282.45 143.3 284.4 145.95 285.55 147.85 286.75 150.05 288.3 151.8 289.65 154.7 292.2 158.3 296.1 161.9 299.95 165.15 307.6 168.4 315.2 170 323.75 170.05 323.65 170.1 323.6 170.95 322.55 171.5 321.95 171.3 320.7 171.1 319.85 170.15 315.75 169.55 313.6 168.5 309.45 167.9 307.4 166.3 302 162.2 295 160.4 292.05 156.75 288.8 156.05 288.15 151.6 286.15 151.55 285.35 151.5 284.4
L 151.5 283.1
Q 151.55 281.85 151.65 280.15 151.8 276.95 151.8 275.35 151.85 274.7 152 274
L 149.65 272.75
Q 149.1 272.65 148.65 272.65
M 256.35 109.85
Q 255.75 110.4 255 111.1 254.95 111.55 254.9 112.15 254.65 115.1 254.65 118.3 254.65 121.85 255.45 127 255.65 126.75 255.85 126.55 257.55 124.9 259.55 123 258.9 117.7 258.9 114.9 258.9 111.55 259.15 108.55 259.2 107.9 259.25 107.35 257.7 108.6 256.35 109.85
M 264.45 107.3
Q 264.45 105.15 264.65 103.65 264.65 103.55 264.7 103.45 263.6 104.15 263.05 104.5 262.95 104.55 262.85 104.65 262.7 105.65 262.7 106.95 262.7 109.75 263.45 115.55 263.7 117.6 263.9 118.9 264.65 118.2 265.45 117.55 265.25 116.85 265.15 116.25 264.45 112.55 264.45 107.3
M 175.2 147.05
Q 180.1 146.1 180.3 146.05
L 198.45 140.65
Q 198.4 140.35 198.4 140.05 197.9 137.95 197.75 136.95 195.3 136.5 191.7 137.3 182.3 139.7 174.45 146.85 174.15 147.1 173.9 147.35 174.45 147.2 175.2 147.05
M 183.95 124.7
Q 183.65 125.45 183.65 125.75 183.65 125.8 183.65 126.1 183.75 126.4 184.05 126.4 184.7 126.4 185.35 124.1 185.35 123.7 184.95 123.7 184.35 123.7 183.95 124.7
M 195 121.9
Q 195 120.45 193.85 121.85 192.7 123.2 192.7 124.7 192.7 124.75 192.7 125 192.8 125.25 193.15 125.25 194.1 125.25 195 121.9
M 403.35 232.75
Q 402.7 226.2 398.45 226.2 396.1 226.2 392.5 229.2 389.4 232.25 389.35 232.25 387.45 234.3 383.75 238.9 378.6 245.2 373.45 248.15 369.45 250.4 365.95 250.4 362.95 250.4 360.35 249.55 359.95 249.45 359.6 249.3 359.5 250.1 359.5 250.85 360.05 251.1 360.7 251.35 363.5 252.5 365.1 252.5 370.95 252.5 377.2 248.65 381.3 246.15 385.55 242 390.3 237.25 391.5 235.75 391.55 235.7 393.3 233.75 396.45 236.15 399.1 237.9 399.95 238.55 402.05 239.45 402.65 239.7 403.2 239.95 403.55 238.85 403.8 238.15
L 403.8 238.1
Q 403.7 237.7 403.65 237.2 403.5 234.35 403.35 232.75 Z"/>

<path fill="#CC0000" stroke="none" d="
M 159.8 277.1
Q 158.8 276.55 157.75 276.05 156.7 275.55 155.2 275 154.3 274.65 153.65 274.5 153.25 278.6 153.2 281.3
L 153.2 284.7
Q 155.55 286 157.15 287.25 160.35 289.65 163 293.2 166.35 297.75 168.95 305.1 171.85 313.4 173.15 319.85 174.35 318 175.15 315.35 175.7 313.45 175.9 312.1 175.7 312.45 175.25 312.45 174.6 312.45 173.9 311.5 173.65 311.2 173.5 310.9 173.35 310.6 173.25 310.35 172.4 308.8 172.15 308.2 171.3 306.15 171.3 303.9 171.3 302.8 171.4 302.05 171.25 300.9 171.1 300.15 170.9 299 170.4 295.3 170.25 294.05 170.1 293.05 168 294.65 167.15 294.65 166.5 294.65 166.3 294.15 166.2 293.7 166.2 293.65 166.2 293 167.8 291.2 168.55 290.25 169.3 289.55 168.7 287.65 167.85 285.95 167.15 286.8 166.35 287.85 165.4 289 164.75 289 164.25 289 164 288.6 163.8 288.3 163.8 288.1 163.8 286.95 164.8 285.2 165.65 283.85 166.2 283.05 165.4 281.85 164.5 280.85 163.65 279.9 162.65 279.1 162.45 279.4 162.25 279.8 161.25 281.45 159.9 283.6 159 284.95 158.25 284.95 157.5 284.95 157.25 284.35 157.15 284.1 157.15 283.65 157.15 282.75 158.3 280.1 159.25 278 159.75 277.15
L 159.8 277.1
M 393.3 237.35
Q 390.25 240.85 387.05 243.75 385.1 245.5 378.75 250.1 377.1 251.3 374.3 252.35 373.25 252.75 372 253.1 368.2 254.3 366.55 254.3 363.1 254.3 360.15 252.55 359.8 252.3 359.45 252.1 359.5 253.15 360.1 257.6 360.4 258.9 361 260.45 361.2 261.15 361.4 261.55 361.45 261.55 361.45 261.5 362.15 260.35 362.4 260.15 362.6 259.95 362.85 259.8 363.2 259.45 363.95 259.2 364.8 258.85 364.85 258.85 365.55 258.65 366.85 258.65 367.6 258.65 368.9 259.15 368.95 259.15 369 259.2 370.4 259.7 370.8 260.2 371.4 261 371.65 261.45 371.85 261.9 371.9 262.45 372.6 262.4 373.55 262.5
L 373.15 262.5
Q 373.15 262.55 374.8 262.45 376.5 262.35 377 262.25
L 379.25 261.95
Q 379.55 261.9 379.85 261.85
L 379.7 261.25
Q 379.35 259.95 379.35 259.25 379.35 258.35 379.65 257 380.05 255.3 380.55 255.2 381.35 254.95 381.8 255.55 382.1 256 382.15 256.65 382.15 257.7 382.3 258.65 382.45 259.5 383.1 261.15 387.15 260.65 390.6 258.55 389.85 257.7 389.6 257.4 386.7 254.3 386.7 252.75 386.7 251.95 387.45 251.75 388.3 251.55 389.15 252.95
L 391.95 255.35
Q 392.55 256.05 393.2 256.6 393.5 256.3 393.8 256 395.85 254.05 398.05 250.75 396.9 250.1 396.2 249.3 395.1 248.25 394.4 247.6 393.1 246.35 393.1 245.75 393.1 244 395.55 245.4 396.85 246.1 398.85 247.4 399.25 247.7 399.85 247.9 400.3 247.1 400.8 246.2 401.7 244.5 402.5 242.2 401 241.6 399.75 240.9 398.8 240.35 397.3 239.2 395.35 237.7 393.95 236.55 393.55 237 393.3 237.35 Z"/>

<path fill="#669999" stroke="none" d="
M 247.95 118.15
Q 248 118.4 248.1 118.6 248.3 119.35 249.6 123.3 249.85 124.15 250.55 125.9
L 250.6 125.85
Q 251.55 128.3 251.8 129 252.1 129.6 252.3 130.15 253.45 128.9 255.45 127 254.65 121.85 254.65 118.3 254.65 115.1 254.9 112.15 254.95 111.55 255 111.1 253.25 112.8 250.7 115.45 249.15 116.95 247.95 118.15
M 263.9 118.9
Q 263.7 117.6 263.45 115.55 262.7 109.75 262.7 106.95 262.7 105.65 262.85 104.65 260.95 106 259.25 107.35 259.2 107.9 259.15 108.55 258.9 111.55 258.9 114.9 258.9 117.7 259.55 123 260.65 121.95 261.9 120.8 262.9 119.85 263.9 118.9
M 269.1 100.35
Q 268.4 101 267.15 101.85 265.7 102.8 264.7 103.45 264.65 103.55 264.65 103.65 264.45 105.15 264.45 107.3 264.45 112.55 265.15 116.25 265.25 116.85 265.45 117.55 267.95 115.3 270.7 113.2 271.4 112.7 271.95 112.3 271.85 111.95 271.2 109.9 270.8 108.4 270.35 106.55 270.05 105.25 269.65 103 269.65 103.1 269.65 103.15 269.35 101.5 269.1 100.35 Z"/>

<path fill="#CC3366" stroke="none" d="
M 202.2 149.8
Q 201.8 149.8 201.35 149.8 199 149.8 196.3 151.75 195.8 152.15 193.6 154.15 193.55 154.2 193.55 153.95 193.55 152.6 196 150.8 197.75 149.5 199.8 148.95 199.55 148.95 199.25 148.95 191.55 148.95 188.75 154.1 187.65 156.1 187.45 158.75 193.75 156.85 201.4 151.4 201.65 151.2 201.95 151.05 202.1 150.4 202.2 149.8 Z"/>

<path fill="#993366" stroke="none" d="
M 198.65 142.15
Q 198.05 142.35 196.55 142.75 195.05 143.15 194.3 143.4
L 187.1 145.6
Q 175.25 148.6 173.65 148.6 172.95 148.6 172.75 148.55 170.45 151 169.85 152.55 170.15 154 170.75 155.1 173.45 159.75 181.15 159.75 183.5 159.75 186.15 159.1 186.35 155.55 188 153 190.75 148.6 197.35 147.8 200.65 147.5 202.5 148.25 204 139.5 199.4 137.45 199.55 138 199.75 138.85 200 139.55 200.8 141.2
L 200.8 141.25
Q 199.25 141.9 198.65 142.15 Z"/>
</g>
</defs>

<g transform="matrix( 1, 0, 0, 1, 0,0) ">
<use xlink:href="#Layer0_0_FILL"/>
</g>
</svg>
