
<svg xmlns="http://www.w3.org/2000/svg" version="1.1" xmlns:xlink="http://www.w3.org/1999/xlink" preserveAspectRatio="none" x="0px" y="0px" width="550px" height="400px" viewBox="0 0 550 400">
<defs>
<g id="Layer1_0_FILL">
<path fill="#000000" stroke="none" d="
M 301.6 149.7
Q 302.9828125 149.53828125 304.35 149.35 304.2357421875 148.7896484375 304.1 148.2 302.8484375 149.0046875 301.6 149.7
M 353.2 176.45
Q 348.25 166.9 342.7 160.35 329.95 162.5 317.45 164.7 315.05 165.1 308.7 165.9 308.1 163.9 307.7 162.3 307.7 162.1 307.5 161.9
L 307.7 161.9
Q 306.201171875 156.8416015625 304.9 151.65 301.5541015625 152.303125 297.8 153.25 291.487109375 154.83515625 287.8 155.55 282.9736328125 156.75 278.25 156.75 250 156.75 242.65 125.15 239.7 108.25 237.7 101.05 235.3 91.75 230.75 87.55 229.15 92.5 227.15 98.3 216.2 94.5 207.25 90.95 204.1 89.55 201.3 88.15 200.3 90.95 199.1 93.9 194.35 105.45 189.6 117.2 189.75 117.2 190.15 117.4 191.95 118.15 193.75 118.75 218.8 126.7 233.1 139.65 213.85 128.3 192.35 122.35 186 138.45 180.05 166.9 175.45 188.55 172.85 207.45 156.15 240.45 146.05 279.45 138.3 308.25 135.7 334.9 121 362.95 92.75 433.75 80.4 465.15 68.9 489.8 64.7 481.05 45.8 471.9 44.05 471.1 -12.25 449.65 -22 445.45 -31.55 440.1 -32.9 442.5 -34.9 445.05 -41.45 453.8 -47.25 462.35 -25.15 482.45 -12.85 491.8 30.5 525 36.25 528.75 41.05 531.95 45.8 534.75
L 46.2 534.95
Q 52.6 538.9 64.9 545.25 114.4 515.05 152.8 479.05 174.05 459.4 195.35 436.7 205.9 425.55 213.25 416.65 156.35 412.05 149.4 358.75 157.95 410.85 216.8 412.45 227.75 412.85 254.2 413.45 280.65 414.05 301.1 412.05 321.6 410.05 355 405.1 372.5 403.9 381.45 401.1 379.25 411.05 379.25 435.3 379.25 465.75 423.8 525.8 429.35 533.35 436.35 542.3 447.05 536.9 458.4 531.75 461 530.55 463.55 529.55 450.05 498.75 440.7 479.25 414.25 422.8 394.95 371.9 345.45 347.25 314.05 338.9 286.4 331.35 225.75 324.55 231.75 305.7 231.75 298.5 231.75 295.35 230.55 283.2 230.55 282.4 230.35 281.6 238.7 276.45 248.85 270.3 278.65 251.8 290.4 241.85 293.35 243.65 296.35 245.45 298.75 246.8 301.1 248 309.65 240.65 314.45 235.7 316.05 234.1 317.65 232.3 327.35 219.4 332.75 203.85 327.95 223.35 319.2 234.9 321.8 238.65 324.8 242.85 332.15 253.4 347.05 273.65 354 283.6 368.55 305.5 373.5 312.65 380.45 321.4 400.15 319 426.6 314.05 452.85 308.85 471.55 304.7 478.7 302.9 484.25 301.7 483.85 299.7 483.85 297.5 484.05 287.6 484.45 279.25 483.05 279.05 481.65 278.85 473.5 278.25 455.4 277.05 437.15 275.85 420.6 276.85 403.9 277.65 387.8 282.4 375.5 231.1 368.95 214 355.8 181.4 353.2 176.45
M 344.45 157.75
Q 345.7716796875 156.2080078125 347.5 154.45 329.72734375 150.4 316.95 150.4 312.9490234375 150.4 308.05 151.15 309.0603515625 155.336328125 310.05 159.55 310.25 160.7 310.65 161.9 327.35 161.3 344.45 157.75
M 414.65 71.05
Q 409.5 63.9 405.3 58.3 369.9 50.35 352.8 63.1 339.1 73.25 339.1 88.55 339.1 91.95 339.3 94.5 332.35 94.9 322 97.1 307.1 100.85 299.35 102.65 301.7 122.95 306.3 143.25 314.25 137.45 326 125.35 339.3 111.6 346.65 107.25 358.060546875 100.5673828125 370.9 102.05 371.0361328125 100.8138671875 371.95 99.9 373 98.85 374.5 98.85 376 98.85 377.05 99.9 378.1 100.95 378.1 102.45 378.1 103.95 377.05 105 376 106.05 374.5 106.05 373 106.05 371.95 105 371.41171875 104.46171875 371.15 103.8 368.982421875 104.091796875 365.55 104.45 349.85 107.45 338.1 116.8 334.55 119.55 323.6 131.5 317.85 138.25 309.45 144.4 308.3 145.4 306.9 146.4 307.223046875 147.72265625 307.55 149.05 322.3458984375 147.718359375 338.55 149.95 344.3640625 150.754296875 350.05 151.95 350.3423828125 151.6873046875 350.65 151.4 356.2 145.8 364.75 139.45 369.15 143.8 374.9 149.4 393 166.5 412.65 171.65 419.25 153.15 424.4 133.3 426.4 131.3 431.35 125.95 430.75 124.95 430.35 123.95 424.4 111.2 421 103.25 421.2 102.45 421.6 101.65 423 98.5 426.8 89.55 425.2 85.95 414.65 71.05
M 237.1 72.05
Q 236.1 71.65 235.3 71.45 235.1 71.45 235.1 71.65 234.1 75.6 233.3 78.8 232.5 82 231.35 85.55 238.1 87.35 240.9 97.1 242.45 102.65 243.05 116.6 243.05 129.1 248.25 139.45 255.8 154.15 271.3 154.15 289 154.15 303.5 145 299.15 125.55 296.95 105.65 296.55 102.85 296.75 100.5 285.2 91.15 260.95 81 249.25 76.2 237.1 72.05
M -58.2 423.4
Q -56.2 422.8 -54.2 422.8 -52.6 387.8 -70.1 369.7 -103.1 400.3 -157.8 429.35 -156.6 440.9 -139.9 438.7 -123.4 436.3 -113.25 433.75 -103.3 430.75 -94.75 430.55 -86.6 430.35 -75.45 437.5
L -75.3 437.5
Q -74.1 438.3 -72.9 439.3 -72.7 438.3 -72.3 437.1 -70.5 431.15 -65.75 427.35 -62.35 424.6 -58.2 423.4
M -53.8 425.75
Q -59.95 425.55 -65.35 430.55 -69.9 434.7 -70.9 440.7 -65.75 444.85 -61.35 449.05 -53 457.2 -49.25 460.55 -48.05 458 -46.25 455.4 -40.3 446.65 -34.3 438.5 -44.25 432.75 -53.8 425.75
M 438.3 544.9
Q 441.1 548.65 444.3 552.65 450.85 561.2 458.4 570.55 458.6 570.9 459 571.3 459 571.5 459.2 571.9 463.95 570.55 468.75 568.15 474.3 565.15 476.9 560 476.7 560 476.7 559.8 475.7 557.6 474.9 555.4 469.75 543.5 464.95 532.75 454.8 537.9 444.3 542.9 441.1 544.5 438.3 544.9
M 512.9 558.8
Q 506.3 562.2 498.55 562.55 491 562.95 478.7 561.4 477.7 563.15 476.3 564.95 469.55 573.1 459.6 574.5 466.55 612.1 489.4 625.6 502.35 612.3 522.65 590 542.9 567.75 559.2 546.65 550.45 538.3 543.5 540.9 536.35 543.3 528 549.45 519.65 555.4 512.9 558.8
M 16.4 146.8
Q 13.4 141.05 10.6 135.05 9.85 133.7 9.45 132.3 -4.5 134.7 -15.8 137.65 -19.4 138.65 -26.75 141.45 -24.55 154.75 -22.8 165.7 -21 174.45 -18.4 183.4 -5.1 180.6 3.25 178 15 162.1 13.8 158.75 12 153.15 10.8 149.6 13.6 148.2 16.4 146.8
M 27.9 140.85
Q 23.95 134.5 20.15 127.7 18.75 125.35 18 123.15 14.2 127.3 11.4 130.5 15.4 137.85 19.55 145.2 23.75 142.85 27.9 140.85
M 154.8 48.2
Q 141.25 43.6 130.9 38.45 122.55 33.85 110.65 27.1 81.6 54.95 51.8 86.55 31.3 108.25 19.75 121.15 24.95 129.9 30.7 139.25 102.7 100.1 111.85 72.05 116.2 76 121.95 81.2 135.1 92.3 148.6 99.9 149.6 97.3 150.8 94.7 156.95 82.8 162.95 70.85 160.95 70.05 158.95 69.05 157.15 68.05 150.8 65.5 154 56.15 156.55 49 155.55 48.6 154.8 48.2
M 198.3 86.75
Q 184.4 80.4 182 79.4 173.45 75.8 165.5 72.25 164.5 74.65 163.15 77 156.95 89.15 151.4 101.25 152 101.65 152.8 102.05 158.75 105.05 187 116.2 192.35 103.45 196.95 90.35 197.55 88.55 198.3 86.75
M 494.8 283.4
Q 494.8 281.8 495 280.2 490.4 279.65 485.85 279.25 487.45 288.2 487.05 298.3 487.05 299.7 487.05 300.9 492 299.7 495 298.7 494.6 291.35 494.8 283.4
M 497.4 279.25
Q 498.35 287.4 498.15 296.55 498.15 297.9 497.95 299.3 501.95 301.1 506.1 302.1 510.9 303.3 531.6 302.7 534.15 287.6 535.75 279.25
L 535.75 279.05
Q 534.75 275.45 531.95 270.5 529.8 266.7 528.8 267.1 520.65 265.7 515.45 261.35 510.3 256.95 502.35 264.3 499.15 271.3 497.4 279.25 Z"/>

<path fill="#FFFFFF" stroke="none" d="
M 350.05 151.95
Q 344.3640625 150.754296875 338.55 149.95 322.3458984375 147.718359375 307.55 149.05 305.95390625 149.193359375 304.35 149.35 302.9828125 149.53828125 301.6 149.7 290.434765625 151.3146484375 280.1 155 280.3 155.1 281.25 155.65 282.3 156.1 283.6 156.1 284.86484375 156.1 287.8 155.55 291.487109375 154.83515625 297.8 153.25 301.5541015625 152.303125 304.9 151.65 306.530859375 151.373046875 308.05 151.15 312.9490234375 150.4 316.95 150.4 329.72734375 150.4 347.5 154.45 355.837109375 156.3287109375 365.25 159.1 378.15 162.9 395 169.2 373.6759765625 157.0263671875 350.05 151.95 Z"/>
</g>

<g id="Layer0_0_FILL">
<path fill="#000000" stroke="none" d="
M 194.55 42.2
Q 181.4 37.25 165.9 32.25 162.55 39.85 154.2 64.5 160.15 67.05 161.75 67.85 162.75 68.25 163.95 68.85 174.45 73.85 183.2 77.6 185.6 78.6 201.9 85.95 204.1 86.95 206.7 88.15 215.05 91.55 225.15 95.1 228.75 84.95 230.95 77 232.9 69.65 235.5 58.1 225.55 53.55 220.8 51.55 204.3 45 194.55 42.2
M 169.5 40.8
Q 178.45 44 191.95 48.2 192.35 48.2 214.85 56.75 222.8 59.7 227.95 61.5 227.35 63.7 226.75 66.45 226.75 66.65 222.8 84.75 222.4 86.35 222.2 87.95 214.25 83.75 203.7 79.2 192.75 74.25 181.05 69.45 174.05 66.65 166.5 63.7 163.35 62.3 160.55 61.3 164.1 53.95 169.5 40.8 Z"/>

<path fill="#FF3333" stroke="none" d="
M 191.95 48.2
Q 178.45 44 169.5 40.8 164.1 53.95 160.55 61.3 163.35 62.3 166.5 63.7 174.05 66.65 181.05 69.45 192.75 74.25 203.7 79.2 214.25 83.75 222.2 87.95 222.4 86.35 222.8 84.75 226.75 66.65 226.75 66.45 227.35 63.7 227.95 61.5 222.8 59.7 214.85 56.75 192.35 48.2 191.95 48.2 Z"/>
</g>
</defs>

<g transform="matrix( 1, 0, 0, 1, 0,0) ">
<use xlink:href="#Layer1_0_FILL"/>
</g>

<g transform="matrix( 1, 0, 0, 1, 0,0) ">
<use xlink:href="#Layer0_0_FILL"/>
</g>
</svg>
