
<svg xmlns="http://www.w3.org/2000/svg" version="1.1" xmlns:xlink="http://www.w3.org/1999/xlink" preserveAspectRatio="none" x="0px" y="0px" width="550px" height="400px" viewBox="0 0 550 400">
<defs>
<g id="Layer0_0_FILL">
<path fill="#3366CC" stroke="none" d="
M 546.65 296.65
Q 545.1775390625 295.8880859375 543.7 295.2 543.6498046875 295.15546875 543.6 295.1 543.269140625 295.266015625 542.95 295.35 544.034375 295.993359375 545.1 296.65 545.1697265625 296.6998046875 545.25 296.75 548.15 298.5 550.85 300.55 558.35 306.2 564.7 313.65 565.85 315.05 567 316.5 572.6 323.7 577.2 332.45 584.2 345.8 587.35 360.3 588.3 364.55 588.75 368.5 589.25 367.75 589.7 366.7 590.65 364.2 590.65 362.25 590.65 360.6 589.7 356.5 588.65 352.4 588.65 350.6 588.65 350.25 588.9 350.1 589 350 589.3 349.8 590.35 350.75 591.65 351.05 592.25 351.2 592.65 351.15 593.8 350.45 591.05 344.9 589.65 342.05 585.9 335.55 582.4 329.5 577.35 323.35 573.6 318.7 568.05 313 567.55 312.5 567.1 312 559.5 304.25 550.9 299.05 548.7869140625 297.7703125 546.65 296.65
M 537.8 291.95
Q 537.7791015625 291.9603515625 537.75 291.95 537.5798828125 292.1318359375 537.45 292.25 537.3583984375 292.3263671875 537.25 292.4 537.5595703125 292.522265625 537.9 292.65 538.025 292.71171875 538.15 292.75 537.9537109375 292.39296875 537.8 291.95
M 591.9 354.85
Q 591.9 355.25 592.25 355.55 592.65 355.85 593.15 355.85 593.6 355.85 593.95 355.55 594.3 355.25 594.3 354.85 594.3 354.45 593.95 354.2 593.6 353.9 593.15 353.9 592.65 353.9 592.25 354.2 591.9 354.45 591.9 354.85 Z"/>

<path fill="#FFFFFF" stroke="none" d="
M 537.8 291.95
Q 537.9537109375 292.39296875 538.15 292.75 538.575 293.5990234375 539.2 294.25 539.24921875 294.301171875 539.3 294.35 540.5109375 295.55 542 295.55 542.4439453125 295.55 542.95 295.35 543.269140625 295.266015625 543.6 295.1 543.14921875 294.7142578125 542.65 294.35 542.1693359375 294.016015625 541.65 293.7 540.4185546875 292.898046875 537.8 291.95
M 533.15 290.55
Q 532.95 290.5 532.65 290.4 531.569140625 290.0806640625 530.3 289.8 530.90625 291.002734375 531.25 291.6 532.6939453125 292.266796875 534.1 293 534.3171875 293 534.55 293 536.3466796875 293 537.25 292.4 537.3583984375 292.3263671875 537.45 292.25 537.5798828125 292.1318359375 537.75 291.95 535.8224609375 291.2865234375 533.15 290.55
M 523.4 288.45
Q 523.05 288.4 522.9 288.4 521.418359375 288.233984375 520.15 288.1 520.7974609375 289.7314453125 521.6 290.75 523.566796875 291.5814453125 525.65 292.6 527.08515625 292.3509765625 528.6 291 528.8279296875 290.79609375 529 290.6 529.4830078125 290.1330078125 529.8 289.65 528.7158203125 289.4267578125 527.5 289.2 525.1 288.6 523.4 288.45
M 513.35 288.15
Q 513.2 288.15 513.05 288.15 511.3755859375 288.4123046875 510.05 288.95 510.696875 290.3931640625 511.85 291 513.05 291.65 515.9 291.65 517.517578125 291.65 519.05 289.75 519.06953125 289.73828125 519.1 289.7 519.669921875 288.9814453125 520.15 288.1 516.461328125 287.8138671875 514.6 288 514.3 288 513.9 288.05 513.6 288.1 513.35 288.15
M 112.4 271.25
Q 110.1 268.7 110 264.45 104.05 264.65 97.75 264.85 97.45 264.85 97.05 264.9 96.25 264.9 95.4 264.9 89.3 265.15 84 265.3 83.35 268.85 81.4 271.4 78.7 274.8 74.8 274.8 71.6 274.8 68.35 271.75 65.6 269.1 65.05 265.85 57.95 266.2 53.45 266.4 52.5 266.4 51.7 266.45 52.9 272.85 57.85 278.35 64.35 285.4 73.95 285.4 76.45 285.4 78.85 284.85 84.25 283.5 89 279.25 95.2 273.8 97.45 266.2 97.5 267.45 98.25 269.9 99.6 274.25 101.95 278 108.8 288.4 120.65 289.05 121.4 289.1 122.2 289.1 131.65 289.1 139.45 280.9 144.1 275.95 145.9 270.1 146.85 266.95 146.95 263.5 139.25 263.65 129.65 263.95 128.7 268.2 126.3 270.85 123.6 274 119.85 274 114.95 274 112.4 271.25 Z"/>

<path fill="#CC3300" stroke="none" d="
M 534.1 293
Q 535.3615234375 293.650390625 536.6 294.35 538.528515625 295.4404296875 540.4 296.65 543.5296875 298.66015625 546.5 301 547.05 301.4 547.65 301.9 548.9 302.9 550.1 304 556 309.2 560.95 315.6 562.75 317.9 564.45 320.35 566.25 323.1 567.95 326 575.35 338.8 578.25 352.55 579.6 358.7 579.8 364.05 580.45 365.6 581.15 366.65 583.3 369.95 586.3 369.95 587.7 369.95 588.75 368.5 588.3 364.55 587.35 360.3 584.2 345.8 577.2 332.45 572.6 323.7 567 316.5 565.85 315.05 564.7 313.65 558.35 306.2 550.85 300.55 548.15 298.5 545.25 296.75 545.1697265625 296.6998046875 545.1 296.65 544.034375 295.993359375 542.95 295.35 542.4439453125 295.55 542 295.55 540.5109375 295.55 539.3 294.35 539.24921875 294.301171875 539.2 294.25 538.575 293.5990234375 538.15 292.75 538.025 292.71171875 537.9 292.65 537.5595703125 292.522265625 537.25 292.4 536.3466796875 293 534.55 293 534.3171875 293 534.1 293
M 530.3 289.8
Q 530.0556640625 289.73125 529.8 289.65 529.4830078125 290.1330078125 529 290.6 530.15078125 291.0794921875 531.25 291.6 530.90625 291.002734375 530.3 289.8
M 590.2 369.7
Q 589.15 369.7 588.4 370.25 587.65 370.9 587.65 371.7 587.65 372.6 588.4 373.15 589.15 373.75 590.2 373.75 591.2 373.75 591.9 373.15 592.65 372.6 592.65 371.7 592.65 370.9 591.9 370.25 591.2 369.7 590.2 369.7 Z"/>

<path fill="#FF6600" stroke="none" d="
M 526.6 293.05
Q 527.837109375 293.6818359375 529.05 294.35 531.03671875 295.45078125 532.95 296.65 538.629296875 300.1947265625 543.65 304.6 543.95 304.85 544.25 305.15 545.85 306.6 547.4 308.15 551.75 312.55 555.1 317.45 557.3 320.7 559.1 324.2 566.15 337.9 566.25 354.9 567.15 354.05 568.05 352.05 569.65 348.5 571.75 348.5 573.75 348.5 575.35 351.85 576.1 353.3 578 359.2 578.95 362.05 579.8 364.05 579.6 358.7 578.25 352.55 575.35 338.8 567.95 326 566.25 323.1 564.45 320.35 562.75 317.9 560.95 315.6 556 309.2 550.1 304 548.9 302.9 547.65 301.9 547.05 301.4 546.5 301 543.5296875 298.66015625 540.4 296.65 538.528515625 295.4404296875 536.6 294.35 535.3615234375 293.650390625 534.1 293 532.6939453125 292.266796875 531.25 291.6 530.15078125 291.0794921875 529 290.6 528.8279296875 290.79609375 528.6 291 527.08515625 292.3509765625 525.65 292.6 526.132421875 292.8177734375 526.6 293.05
M 520.15 288.1
Q 519.669921875 288.9814453125 519.1 289.7 519.06953125 289.73828125 519.05 289.75 520.2953125 290.226171875 521.6 290.75 520.7974609375 289.7314453125 520.15 288.1
M 571.95 364.8
Q 573.15 364.8 574 364.1 574.9 363.4 574.9 362.4 574.9 361.35 574 360.65 573.15 359.95 571.95 359.95 570.65 359.95 569.8 360.65 568.9 361.35 568.9 362.4 568.9 363.4 569.8 364.1 570.65 364.8 571.95 364.8 Z"/>

<path fill="#FFCC00" stroke="none" d="
M 515.9 291.65
Q 513.05 291.65 511.85 291 510.696875 290.3931640625 510.05 288.95 508.11328125 289.80859375 506.95 291.3 505.35 293.4 505.75 295.5 506.1 297.9 512.15 298.7 514 299.4 514 301.3 514 301.7 513.35 303.05 513.3 303.2 513.25 303.35 512.45 304.95 512.45 305.6 512.45 306.65 513.55 307.6 514.6 308.5 515.5 308.5 516.6 308.5 517.25 307.6 517.8 306.85 517.8 305.75 517.8 305.15 517.4 303.55 517.35 303.45 517.35 303.4 516.95 301.65 516.95 301.4 516.95 300.35 517.4 299.7 517.65 299.35 517.9 299.2 518.6 299.25 519.3 299.4 520.8 299.55 522.45 299.95 524.8 300.9 527.45 302.45 531.85 305.05 535.9 308.7 539 311.4 541.8 314.65 543.45 316.6 545 318.6 548.05 322.65 550.5 326.95 555.05 335.2 557.1 344.5 557.5 346.1 558.1 348.2 558.9 350.75 559.2 351.25 561.95 355.55 564.85 355.55 565.55 355.55 566.25 354.9 566.15 337.9 559.1 324.2 557.3 320.7 555.1 317.45 551.75 312.55 547.4 308.15 545.85 306.6 544.25 305.15 543.95 304.85 543.65 304.6 538.629296875 300.1947265625 532.95 296.65 531.03671875 295.45078125 529.05 294.35 527.837109375 293.6818359375 526.6 293.05 526.132421875 292.8177734375 525.65 292.6 523.566796875 291.5814453125 521.6 290.75 520.2953125 290.226171875 519.05 289.75 517.517578125 291.65 515.9 291.65
M 536.15 315.75
Q 536.15 316.3 536.6 316.65 537.1 317.05 537.8 317.05 538.55 317.05 539 316.65 539.5 316.3 539.5 315.75 539.5 315.15 539 314.7 538.55 314.4 537.8 314.4 537.1 314.4 536.6 314.7 536.15 315.15 536.15 315.75 Z"/>

<path fill="#662244" stroke="none" d="
M 501.2 288.9
Q 498.75 292.3 498.8 296.25 498.6 302.3 510.6 302.95 511.85 302.95 513.35 303.05 514 301.7 514 301.3 514 299.4 512.15 298.7 506.1 297.9 505.75 295.5 505.35 293.4 506.95 291.3 508.11328125 289.80859375 510.05 288.95 511.3755859375 288.4123046875 513.05 288.15 513.2 288.15 513.35 288.15 513.6 288.1 513.9 288.05 514.3 288 514.6 288 516.461328125 287.8138671875 520.15 288.1 521.418359375 288.233984375 522.9 288.4 523.05 288.4 523.4 288.45 525.1 288.6 527.5 289.2 528.7158203125 289.4267578125 529.8 289.65 530.0556640625 289.73125 530.3 289.8 531.569140625 290.0806640625 532.65 290.4 532.95 290.5 533.15 290.55 535.8224609375 291.2865234375 537.75 291.95 537.7791015625 291.9603515625 537.8 291.95 540.4185546875 292.898046875 541.65 293.7 542.1693359375 294.016015625 542.65 294.35 543.14921875 294.7142578125 543.6 295.1 543.6498046875 295.15546875 543.7 295.2 545.1775390625 295.8880859375 546.65 296.65 548.7869140625 297.7703125 550.9 299.05 550.7953125 297.8072265625 550.35 296.65 549.937109375 295.4544921875 549.15 294.35 547.813671875 292.4380859375 545.45 290.8 542.8 288.8 534.3 286.15 531.35 285.3 527.75 284.55 524.3 283.85 521.9 283.7 513.6 282.85 510.65 283.35 504.35 284.25 501.2 288.9
M 514.65 315.2
L 508.25 314
Q 510.2 315.2 513.5 320.05 517.15 320.7 520.35 321.3 516.35 316.3 514.65 315.2
M 532.9 307.75
Q 534.5 308.3 535.9 308.7 531.85 305.05 527.45 302.45 524.8 300.9 522.45 299.95 520.8 299.55 519.3 299.4 518.6 299.25 517.9 299.2 517.65 299.35 517.4 299.7 516.95 300.35 516.95 301.4 516.95 301.65 517.35 303.4 517.35 303.45 517.4 303.55 519.65 303.8 522.25 304.35 529.1 306.25 532.9 307.75
M 477.75 308.2
L 472.35 307.2
Q 469.6 309.25 467.15 311.2 469.4 311.65 472.55 312.3 475.8 309.45 477.75 308.2 Z"/>

<path fill="#993366" stroke="none" d="
M 525.8 167.2
Q 519 158.4 506.8 156.1 496.1 154.05 483.95 158.9 466.5 165.9 462.9 184.85 462.5 186.85 462.25 188.8 459.95 187.1 457.75 186.7 449.1 185.05 442.55 187.85 433.2 191.75 430.85 204.2 429.4 211.75 432.95 218.95 433.05 219.05 433.05 219.2 434.75 222.4 437.7 225.95 434.95 226.55 432.3 227.7 421.05 232.6 421.05 245.6 421 258.75 431.2 266.35 431.8 266.75 432.35 267.15 427.15 273.3 427.2 282 427.2 286.65 429.65 290.45 432.7 295 439.25 298.35 445.5 301.6 458.8 304.6
L 472.35 307.2 477.75 308.2 508.25 314 514.65 315.2 527.05 317.55 533.9 318.4
Q 539.75 318.8 545 318.6 543.45 316.6 541.8 314.65 539 311.4 535.9 308.7 534.5 308.3 532.9 307.75 529.1 306.25 522.25 304.35 519.65 303.8 517.4 303.55 517.8 305.15 517.8 305.75 517.8 306.85 517.25 307.6 516.6 308.5 515.5 308.5 514.6 308.5 513.55 307.6 512.45 306.65 512.45 305.6 512.45 304.95 513.25 303.35 513.3 303.2 513.35 303.05 511.85 302.95 510.6 302.95 498.6 302.3 498.8 296.25 498.75 292.3 501.2 288.9 504.35 284.25 510.65 283.35 513.6 282.85 521.9 283.7 524.3 283.85 527.75 284.55 531.35 285.3 534.3 286.15 542.8 288.8 545.45 290.8 547.813671875 292.4380859375 549.15 294.35 549.937109375 295.4544921875 550.35 296.65 550.7953125 297.8072265625 550.9 299.05 559.5 304.25 567.1 312 573.7 306.85 576.5 297.85 576.5982421875 297.24453125 576.65 296.65 576.8296875 295.4787109375 576.9 294.35 577.5296875 285.266796875 573.15 278.95 571.35 276.4 569 274.65
L 568.85 274.55
Q 579.7 266.2 581.6 256.1 582.6 251.05 581.25 245.15 579.95 239.25 577 234.9 573.5 229.85 568.4 226.6 566.95 225.75 565.5 225 566.85 223.35 568.1 221.4 572.45 214.85 573.9 207.15 576.25 194.85 570.9 185.65 565.25 175.85 552.9 173.5 546.85 172.35 540.3 174 534.85 175.4 530.9 178.5 529.85 172.35 525.8 167.2
M 508.05 159.6
Q 517.8 161.45 523 169 527.85 176 526.45 183.5 525.45 188.75 520.1 191.2 516.15 192.9 513.1 192.35 510.25 191.8 504.8 187.15 499.45 182.35 494.6 181.45 487.9 180.15 480.05 183.2 472.15 186.1 469.9 185.65 467 185.1 467.15 181.4 468.9 175.35 473.05 170.65 476.2 166.95 481 164.1 493.25 156.8 508.05 159.6
M 543.6 193.1
Q 538 189.95 537.5 189.45 535 187.4 535.65 184.2 536.25 180.9 541.1 178.4 545.2 176.2 550.5 176.55 551.9 176.65 553.35 176.85 554.3 177 555.25 177.2 562.45 178.55 565.05 183.4 567.15 187.1 566.15 192.35 565.1 197.85 562.25 200.4 559.8 202.7 556.65 202.1 554.75 201.75 550.4 198.15 545.15 193.85 543.6 193.1
M 439.75 192.05
Q 440.1 191.75 440.45 191.5 446.05 187.55 452.15 188.7 457.8 189.8 456.7 195.65 456.15 198.65 452.2 200.3 447.3 201.8 445.25 202.45 443.45 202.95 439.85 206.35 436.9 209.2 435 208.8 433.35 208.5 432.95 205.85 432.85 205.35 432.8 204.9 432.8 204 432.9 203.4 434.25 196.2 439.75 192.05
M 424.95 241.65
Q 425 241.05 425.1 240.45 426.05 235.45 430.95 231.45 435.9 227.3 440.5 228.15 442.45 228.5 443.2 230.45 443.95 232.1 443.6 233.95 443.1 236.6 435.7 240.5 428.8 244.2 426.55 243.75 425.7 243.6 425.05 242 424.95 241.8 424.95 241.65
M 536.6 316.65
Q 536.15 316.3 536.15 315.75 536.15 315.15 536.6 314.7 537.1 314.4 537.8 314.4 538.55 314.4 539 314.7 539.5 315.15 539.5 315.75 539.5 316.3 539 316.65 538.55 317.05 537.8 317.05 537.1 317.05 536.6 316.65
M 547.85 247.75
L 554.7 267.15 572.5 261.7 554.7 267.15 560.3 283.35 554.7 267.15 537.25 272.45 554.7 267.15 547.85 247.75
M 501.05 252.7
L 521.3 270.45 501.05 252.7 481.4 273.7 501.05 252.7 476.55 232 501.05 252.7 520.65 231.6 501.05 252.7
M 520.35 321.3
Q 517.15 320.7 513.5 320.05 515.05 322.35 516.95 325.5 523.4 336.25 523.75 342.4 524.1 348.6 522.25 357.5 521.3 362.3 519.55 369.15 518.85 372.5 523.45 373.5 526.5 374.2 530.6 373.75 537.9 373.55 545.3 372.7 547.8 372.4 550.15 371.65 550.8 371.35 551.15 370.85 551.2 369.55 550.1 368.85 547.6 367.05 544.7 366 539.1 363.85 533.15 362.45 532.3 362.2 531.5 362 532.1 358.45 532.3 353.55 532.6 343.75 530.35 336.85 529 332.7 522.75 324.4 521.45 322.7 520.35 321.3
M 526.7 343.1
Q 527.25 343.1 527.6 344.9 527.9 346.4 527.9 347.75 527.9 352.8 526.8 360.35 525.25 370.65 522.9 370.65 522.3 370.65 521.8 370.05 521.3 369.4 521.3 368.6 521.3 368.2 523.05 359.5 523.15 359.1 523.25 358.7 523.75 354.5 524.15 351.65 525.3 343.1 526.7 343.1
M 447.45 338
Q 453.25 329.95 464.8 319.2 469.3 315 472.55 312.3 469.4 311.65 467.15 311.2 448.15 325.45 441.65 334.35 435.1 343.2 432.15 348.95 429.2 354.65 425.5 363.1 421.6 363.8 414.4 366.9 404.75 371.05 405.2 372.95 405.65 374.85 421.45 374.6 437.25 374.35 436.8 370.5 436.3 366.6 439.05 356.25 441.8 345.9 447.45 338
M 436.15 346.05
Q 436.75 346.05 436.9 346.35 437 346.55 437 347.45 437 349 435.6 351.7 433.25 356.2 433.15 356.4 432.8 357.2 431.25 360.95 429.55 364.35 428.25 364.35 427.1 364.35 427.1 362.5 427.1 359.95 430.55 353.65 431.45 351.95 432.25 350.7 432.4 350.45 432.5 350.2 434.5 346.05 436.15 346.05
M 425.3 364.75
Q 426 365.15 426 365.85 426 367.5 422 369.35 418.2 371.1 415.45 371.1 413.25 371.1 413.25 369.9 413.25 368.7 417.85 366.65 418.15 366.5 418.45 366.4 422.1 364.8 424.45 364.45 424.6 364.5 424.8 364.55 425.05 364.6 425.3 364.75 Z"/>

<path fill="#E94D9B" stroke="none" d="
M 425.1 240.45
Q 425 241.05 424.95 241.65 424.95 241.8 425.05 242 425.7 243.6 426.55 243.75 428.8 244.2 435.7 240.5 443.1 236.6 443.6 233.95 443.95 232.1 443.2 230.45 442.45 228.5 440.5 228.15 435.9 227.3 430.95 231.45 426.05 235.45 425.1 240.45
M 440.45 191.5
Q 440.1 191.75 439.75 192.05 434.25 196.2 432.9 203.4 432.8 204 432.8 204.9 432.85 205.35 432.95 205.85 433.35 208.5 435 208.8 436.9 209.2 439.85 206.35 443.45 202.95 445.25 202.45 447.3 201.8 452.2 200.3 456.15 198.65 456.7 195.65 457.8 189.8 452.15 188.7 446.05 187.55 440.45 191.5
M 537.5 189.45
Q 538 189.95 543.6 193.1 545.15 193.85 550.4 198.15 554.75 201.75 556.65 202.1 559.8 202.7 562.25 200.4 565.1 197.85 566.15 192.35 567.15 187.1 565.05 183.4 562.45 178.55 555.25 177.2 554.3 177 553.35 176.85 551.9 176.65 550.5 176.55 545.2 176.2 541.1 178.4 536.25 180.9 535.65 184.2 535 187.4 537.5 189.45
M 523 169
Q 517.8 161.45 508.05 159.6 493.25 156.8 481 164.1 476.2 166.95 473.05 170.65 468.9 175.35 467.15 181.4 467 185.1 469.9 185.65 472.15 186.1 480.05 183.2 487.9 180.15 494.6 181.45 499.45 182.35 504.8 187.15 510.25 191.8 513.1 192.35 516.15 192.9 520.1 191.2 525.45 188.75 526.45 183.5 527.85 176 523 169
M 527.6 344.9
Q 527.25 343.1 526.7 343.1 525.3 343.1 524.15 351.65 523.75 354.5 523.25 358.7 523.15 359.1 523.05 359.5 521.3 368.2 521.3 368.6 521.3 369.4 521.8 370.05 522.3 370.65 522.9 370.65 525.25 370.65 526.8 360.35 527.9 352.8 527.9 347.75 527.9 346.4 527.6 344.9
M 426 365.85
Q 426 365.15 425.3 364.75 425.05 364.6 424.8 364.55 424.6 364.5 424.45 364.45 422.1 364.8 418.45 366.4 418.15 366.5 417.85 366.65 413.25 368.7 413.25 369.9 413.25 371.1 415.45 371.1 418.2 371.1 422 369.35 426 367.5 426 365.85
M 436.9 346.35
Q 436.75 346.05 436.15 346.05 434.5 346.05 432.5 350.2 432.4 350.45 432.25 350.7 431.45 351.95 430.55 353.65 427.1 359.95 427.1 362.5 427.1 364.35 428.25 364.35 429.55 364.35 431.25 360.95 432.8 357.2 433.15 356.4 433.25 356.2 435.6 351.7 437 349 437 347.45 437 346.55 436.9 346.35 Z"/>

<path fill="#FF9999" stroke="none" d="
M 292.95 318.05
Q 292.95 318.15 293 318.3 293.65 323.3 297.3 343 302.5 371.2 306.8 373.5 307.35 373.55 307.85 373.6 319.55 374.55 323.75 372.35 328.45 369.9 321 368.1 320.3 367.85 319.65 367.75 317.85 367.3 316.3 366.85 312.55 365.8 310.65 365 310.25 364.8 309.75 364.15 309.65 364.05 309.55 363.95 306.55 359.25 299.75 335 297.7 327.5 295.75 318 294.4 318 292.95 318.05
M 291.05 318.1
Q 288.65 318.15 286.9 318.25 288.1 327.9 288.45 335.5 289.95 364.3 287.5 365.5 286.25 366.1 284.05 366.85 282.1 367.5 279.45 368.25 278.8 368.4 278.2 368.6 271.3 370.45 276.75 372.9 282.25 375.3 295.75 373.9 295.9 373.9 296.05 373.9 299.15 369.95 295.6 345.2
L 291.05 318.1
M 291.4 345.45
Q 292.1 345.45 292.7 346.35 293.25 347.2 293.4 348.25 293.5 348.95 294.35 364.75 294.5 365.9 294.4 366.85 294.2 369.8 292.3 370.8 290.95 371.5 286.2 371.5
L 284 371.5
Q 282.7 371.25 282.5 369.9 282.3 368.25 286.6 367.75 287.65 367.55 288.4 366.85 288.6 366.7 288.75 366.5 289.6 365.6 289.65 364.4 290 362.3 290.2 358.75 290.2 358.25 290.25 357.8 290.25 357.1 290.3 356.55
L 290.3 356.2
Q 290.3 355.05 290.35 354.35 290.35 353.65 290.3 353.05 290.2 351.9 290.05 350.95 289.9 349.2 289.9 347.9 289.85 345.45 291.4 345.45
M 352.95 183.2
Q 346.65 173.8 334.2 172.25 328.05 171.5 321.65 173.45 316.35 175.25 312.6 178.55 311.15 172.5 306.8 167.6 299.5 159.25 287.2 157.7 276.4 156.3 264.5 161.95 247.5 169.95 245.05 189.1 244.8 191.15 244.65 193.1 242.35 191.55 240.15 191.25 231.4 190.15 225 193.3 222.7 194.45 220.9 196.1 219.2 197.65 217.95 199.6 215.1 203.95 214.3 210.4 213.35 218 217.3 225 217.4 225.1 217.45 225.2 219.3 228.35 222.45 231.7 219.8 232.45 217.2 233.8 206.25 239.35 207.1 252.35 207.85 265.4 218.45 272.4 219.05 272.75 219.7 273.15 216.05 278.05 215.5 284.2 215.3 286.15 215.45 288.25 215.7 292.85 218.45 296.5 221.7 300.9 228.5 303.85 234.95 306.75 248.4 308.9
L 286.3 313.7 295.15 314.8 317.3 317.6 324.25 318
Q 332.7 318.1 339.9 316.85 362.9 312.95 365.25 296.65 366.15 290.4 365.1 285.35 364.1 280.1 360.9 276.2 359 273.75 356.55 272.15
L 356.4 272.05
Q 366.7 263.05 367.95 252.9 368.6 247.75 366.95 241.95 365.25 236.15 362.05 232.05 358.2 227.15 352.95 224.25 351.5 223.5 349.95 222.85 351.25 221.1 352.35 219.15 356.3 212.25 357.25 204.45 358.85 192.05 352.95 183.2
M 336.8 175.75
Q 344.05 176.65 346.95 181.3 349.25 184.9 348.6 190.2 347.9 195.75 345.2 198.55 342.9 200.95 339.75 200.55 337.8 200.3 333.2 197 327.75 193 326.15 192.3 320.4 189.6 319.8 189.1 317.25 187.15 317.65 183.9 318.05 180.6 322.75 177.8 326.7 175.4 332.05 175.4 333.4 175.4 334.85 175.55 335.8 175.6 336.8 175.75
M 330.35 265.5
Q 330 258.95 327.55 253.55 323.25 243.85 313.35 241.8 311.05 241.3 308.5 241.25 305.9 241.15 303.55 241.5 303.05 243.5 302.55 246.05 300.85 254.95 300.85 264.05 300.85 267.9 301.25 270 300.3 270 296.25 269.6 292.15 269.15 288.55 267.8 286.65 267.05 285.35 266.4 285.3 266.6 285.3 266.85 285.3 266.6 285.35 266.4 287.35 244.3 302.95 241.6 303.25 241.55 303.55 241.5 305.9 241.15 308.5 241.25 311.05 241.3 313.35 241.8 323.25 243.85 327.55 253.55 330 258.95 330.35 265.5
M 346.1 278.2
Q 348.4 280.5 348 283.6 347.35 286.55 344.65 288.5 343.4 289.25 341.45 289.85 339.1 290.55 337.85 290.9 310.05 299 284.2 295.25 274.55 293.85 264.75 290.8 263.45 290.35 262.15 289.95 246.95 284.8 231.3 275.65 227.4 273.35 225.7 271.35 223.15 268.6 223.85 265.7 224.2 262.6 227.15 261.05 229.9 259.35 233.6 260.6 240.3 264.65 247.1 267.9 250 269.25 252.9 270.5 253.3 270.65 253.75 270.85 294.85 287.95 339.95 275.95 343.6 275.75 346.1 278.2
M 222.45 197.7
Q 222.75 197.4 223.05 197.15 228.45 192.85 234.6 193.6 240.35 194.35 239.6 200.25 239.2 203.3 235.35 205.15 230.55 206.95 228.6 207.75 227.75 208.05 226.55 209 225.2 210.05 223.45 211.95 223.45 212 223.4 212 220.6 215 218.7 214.75 217.05 214.55 216.5 211.9 216.35 211.4 216.3 210.95 216.2 210.05 216.3 209.45 216.85 205.2 218.9 201.85 220.1 199.9 221.85 198.25 222.15 197.95 222.45 197.7
M 249.15 185.4
Q 250.5 179.25 254.35 174.3 257.3 170.4 261.9 167.3 273.65 159.15 288.6 161.05 298.45 162.3 304.1 169.55 309.35 176.25 308.4 183.8 307.75 189.1 302.6 191.9 298.7 193.85 295.65 193.45 292.75 193.1 287.05 188.8 281.45 184.4 276.55 183.75 269.8 182.9 262.1 186.35 254.4 189.75 252.15 189.45 249.2 189.1 249.15 185.4
M 267.3 233.55
Q 265.9 234.3 264.35 235.5 259.85 238.9 255.8 244.25 250.3 251.5 248.3 258.45 247.9 259.7 247.65 261 247.6 261.15 247.6 261.3 243.6 258.65 240.3 255.55 235.75 251.35 233.9 247.85 233.7 248.4 233.5 248.95 233.7 248.4 233.9 247.85 235.25 244.05 237.2 240.95 238.15 239.35 239.3 237.95 240.2 236.8 241.25 235.75 247.6 229.4 255.85 230 259.35 230.2 263.2 231.65 265.4 232.5 267.3 233.55 267.8 233.8 268.25 234.1 282.05 242.75 276.2 264.65 282.05 242.75 268.25 234.1 267.8 233.8 267.3 233.55
M 210.8 246.9
Q 211.45 241.9 216.05 237.6 220.75 233.1 225.4 233.7 227.35 233.95 228.3 235.85 229.05 237.4 228.85 239.3 228.5 242 221.4 246.35 214.7 250.45 212.45 250.15 211.55 250.05 210.85 248.45 210.75 248.25 210.7 248.1 210.7 247.55 210.8 246.9
M 102 343.7
L 101.45 316.6
Q 99.05 316.65 97.3 316.75 97.05 326.4 96.3 334 93.55 362.8 90.95 364 89.6 364.6 87.3 365.35 85.25 366 82.45 366.75 81.8 366.9 81.15 367.1 74 368.95 79.1 371.4 84.25 373.8 97.95 372.4 98.1 372.4 98.25 372.4 101.9 368.45 102 343.7
M 95.9 346.4
Q 96.25 343.95 97.8 343.95 98.5 343.95 98.95 344.85 99.35 345.7 99.35 346.75 99.35 347.45 97.9 363.25 97.85 364.4 97.65 365.35 97 368.3 94.95 369.3 93.5 370 88.75 370
L 86.55 370
Q 85.3 369.75 85.3 368.4 85.3 366.75 89.7 366.25 90.8 366.05 91.65 365.35 91.85 365.2 92.05 365 93 364.1 93.25 362.9 93.9 360.8 94.6 357.25 94.7 356.75 94.8 356.3 94.9 355.6 95.05 355.05
L 95.1 354.7
Q 95.25 353.55 95.4 352.85 95.5 352.15 95.55 351.55 95.65 350.4 95.6 349.45 95.75 347.7 95.9 346.4
M 103.35 316.55
Q 103.35 316.65 103.35 316.8 103.3 321.8 104.05 341.5 105.1 369.7 109.05 372 109.6 372.05 110.1 372.1 121.65 373.05 126.15 370.85 131.25 368.4 124.05 366.6 123.4 366.35 122.75 366.25 121 365.8 119.55 365.35 115.95 364.3 114.15 363.5 113.8 363.3 113.4 362.65 113.3 362.55 113.2 362.45 110.9 357.75 107.65 333.5 106.7 326 106.15 316.5 104.8 316.5 103.35 316.55
M 66.25 162.55
Q 50.35 172.65 50.35 191.95 50.35 194 50.45 195.95 47.95 194.7 45.7 194.7 36.9 194.7 30.95 198.65 22.5 204.25 22.5 216.95 22.5 224.6 27.3 231.05 27.4 231.15 27.45 231.25 29.7 234.1 33.25 237.05 30.7 238.1 28.3 239.75 18.15 246.65 20.6 259.45 23 272.35 34.4 277.9 35.05 278.2 35.7 278.5 31.75 285.5 33.35 294.05 34.25 298.6 37.4 301.85 41.2 305.8 48.3 307.85 55.05 309.9 68.65 310.35
L 97.35 310.35 105.85 310.35 138.1 310.35 145.05 309.9
Q 153.45 308.95 160.4 306.85 182.75 300.1 183.05 283.6 183.25 270.75 176.2 263.85 174 261.7 171.35 260.4
L 171.2 260.35
Q 180.3 250.1 180.3 239.85 180.3 234.7 177.9 229.15 175.5 223.6 171.8 219.9 167.4 215.55 161.8 213.3 160.25 212.75 158.65 212.3 159.7 210.4 160.55 208.3 163.6 201 163.6 193.15 163.6 180.65 156.65 172.6 149.25 164.05 136.7 164.05 130.5 164.05 124.4 166.85 119.35 169.25 116 173.05 113.85 167.2 108.9 162.9 100.6 155.5 88.2 155.5 77.3 155.5 66.25 162.55
M 66.9 187.1
Q 59.7 191.45 57.4 191.45 54.45 191.45 53.95 187.75 54.5 181.5 57.7 176.1 60.15 171.9 64.3 168.2 74.95 158.7 90 158.7 99.95 158.7 106.5 165.2 112.55 171.15 112.55 178.75 112.55 184.1 107.75 187.5 104.2 189.95 101.1 189.95 98.2 189.95 92 186.4 85.85 182.7 80.9 182.7 74.1 182.7 66.9 187.1
M 137.75 167.25
Q 138.7 167.2 139.7 167.2 147 167.2 150.45 171.5 153.2 174.75 153.2 180.1 153.2 185.7 150.9 188.75 148.9 191.45 145.7 191.45 143.75 191.45 138.8 188.75 132.85 185.5 131.2 185 125.15 183 124.5 182.6 121.7 181 121.7 177.75 121.7 174.4 126 171.05 129.65 168.15 134.9 167.45 136.3 167.3 137.75 167.25
M 87.6 236.5
Q 94.05 235.85 101.75 235.85 122.6 235.85 131.95 239.2 145.3 244.05 153.85 259.25 149.35 258.9 143.75 258.6 137.45 258.25 129.8 257.95 115.4 257.4 102.65 257.3 102.7 254.75 102.65 253.55 102.4 250.9 100.05 250.9 99.95 250.9 99.8 250.95 99.7 248.55 99.65 247.4 99.35 244.5 97 244.5 95.3 244.5 94.15 247.85 93.9 248.8 93.7 249.7 92.55 249.7 91.8 250.9 90.85 252.45 90.85 255.35
L 90.95 257.35
Q 74.8 257.4 66.6 258.3 64.95 258.55 55.05 260.15 50.5 260.85 44.3 261.85 45.85 257.95 48.45 253.85 53.65 246.15 60.45 243.4 68.9 240 76.2 238.35 77.95 237.9 79.65 237.6 83.35 236.9 87.6 236.5
M 110 264.45
Q 111.85 264.4 113.7 264.4
L 124.8 264.1
Q 127.25 264 129.65 263.95 139.25 263.65 146.95 263.5 147 263.5 147.1 263.5 153.05 263.3 158.05 263.2 153.05 263.3 147.1 263.5 147 263.5 146.95 263.5 146.85 266.95 145.9 270.1 144.1 275.95 139.45 280.9 131.65 289.1 122.2 289.1 121.4 289.1 120.65 289.05 108.8 288.4 101.95 278 99.6 274.25 98.25 269.9 97.5 267.45 97.45 266.2 95.2 273.8 89 279.25 84.25 283.5 78.85 284.85 76.45 285.4 73.95 285.4 64.35 285.4 57.85 278.35 52.9 272.85 51.7 266.45 47.9 266.5 46.75 266.5 47.9 266.5 51.7 266.45 52.5 266.4 53.45 266.4 57.95 266.2 65.05 265.85 66.95 265.8 69.05 265.75 74.4 265.6 81 265.35 82.45 265.3 84 265.3 89.3 265.15 95.4 264.9 96.25 264.9 97.05 264.9 97.45 264.85 97.75 264.85 104.05 264.65 110 264.45
M 97.05 250.45
Q 97.1 252.2 97.1 253.85 97.1 255.7 97.2 257.3 97.3 261.85 97.2 264.25 97.3 261.85 97.2 257.3 97.1 255.7 97.1 253.85 97.1 252.2 97.05 250.45
M 99.55 255.6
Q 99.55 256.45 99.55 257.3 99.55 261.8 99.35 263.15
L 99.35 263.9 99.35 263.15
Q 99.55 261.8 99.55 257.3 99.55 256.45 99.55 255.6
M 94.7 255.75
L 94.75 264.25 94.7 255.75
M 97.9 289.15
Q 98.1 289.15 98.25 289.15 100.7 288.95 103.6 289.7 104.75 290.05 105.75 290.65 108.55 292.4 108.55 295.85 108.55 298.5 107.5 299.55 106.35 300.65 103.6 300.65 103 300.65 101.25 300.3 99.5 299.9 99.05 299.9 95.65 299.9 93.35 301.85 92.5 302.55 91.8 303.55 89.3 307.15 87.3 307.15 85.25 307.15 84.1 305.7 83 304.35 83 302.5 83 302.15 83.05 301.85 83.1 301.3 83.2 300.85 83.35 299.6 83.9 298.5 84.15 297.8 84.55 297.2 85.95 294.8 87.9 293.3 92.4 289.65 97.5 289.2 97.7 289.15 97.9 289.15
M 46.3 203.7
Q 46.3 206.75 42.75 209.1 38.2 211.5 36.35 212.5 34.65 213.35 31.75 217.35 29.35 220.7 27.4 220.7 25.75 220.7 24.85 218.15 24.65 217.7 24.55 217.25 24.35 216.35 24.35 215.75 24.35 208.45 29 203.35 29.25 203 29.55 202.7 34.35 197.75 40.55 197.75 46.3 197.75 46.3 203.7
M 27.65 243.7
Q 31.75 238.65 36.45 238.65 38.4 238.65 39.55 240.4 40.55 241.9 40.55 243.8 40.55 246.5 34.05 251.7 27.95 256.6 25.65 256.6 24.75 256.6 23.85 255.15 23.7 254.95 23.65 254.8 23.6 254.25 23.6 253.6 23.6 248.55 27.65 243.7 Z"/>

<path fill="#FFC4CE" stroke="none" d="
M 292.7 346.35
Q 292.1 345.45 291.4 345.45 289.85 345.45 289.9 347.9 289.9 349.2 290.05 350.95 290.2 351.9 290.3 353.05 290.35 353.65 290.35 354.35 290.3 355.05 290.3 356.2
L 290.3 356.55
Q 290.25 357.1 290.25 357.8 290.2 358.25 290.2 358.75 290 362.3 289.65 364.4 289.6 365.6 288.75 366.5 288.6 366.7 288.4 366.85 287.65 367.55 286.6 367.75 282.3 368.25 282.5 369.9 282.7 371.25 284 371.5
L 286.2 371.5
Q 290.95 371.5 292.3 370.8 294.2 369.8 294.4 366.85 294.5 365.9 294.35 364.75 293.5 348.95 293.4 348.25 293.25 347.2 292.7 346.35
M 216.05 237.6
Q 211.45 241.9 210.8 246.9 210.7 247.55 210.7 248.1 210.75 248.25 210.85 248.45 211.55 250.05 212.45 250.15 214.7 250.45 221.4 246.35 228.5 242 228.85 239.3 229.05 237.4 228.3 235.85 227.35 233.95 225.4 233.7 220.75 233.1 216.05 237.6
M 264.35 235.5
Q 265.9 234.3 267.3 233.55 265.4 232.5 263.2 231.65 259.35 230.2 255.85 230 247.6 229.4 241.25 235.75 240.2 236.8 239.3 237.95 238.15 239.35 237.2 240.95 235.25 244.05 233.9 247.85 235.75 251.35 240.3 255.55 243.6 258.65 247.6 261.3 247.6 261.15 247.65 261 247.9 259.7 248.3 258.45 250.3 251.5 255.8 244.25 259.85 238.9 264.35 235.5
M 254.35 174.3
Q 250.5 179.25 249.15 185.4 249.2 189.1 252.15 189.45 254.4 189.75 262.1 186.35 269.8 182.9 276.55 183.75 281.45 184.4 287.05 188.8 292.75 193.1 295.65 193.45 298.7 193.85 302.6 191.9 307.75 189.1 308.4 183.8 309.35 176.25 304.1 169.55 298.45 162.3 288.6 161.05 273.65 159.15 261.9 167.3 257.3 170.4 254.35 174.3
M 223.05 197.15
Q 222.75 197.4 222.45 197.7 222.15 197.95 221.85 198.25 220.1 199.9 218.9 201.85 216.85 205.2 216.3 209.45 216.2 210.05 216.3 210.95 216.35 211.4 216.5 211.9 217.05 214.55 218.7 214.75 220.6 215 223.4 212 223.45 212 223.45 211.95 225.2 210.05 226.55 209 227.75 208.05 228.6 207.75 230.55 206.95 235.35 205.15 239.2 203.3 239.6 200.25 240.35 194.35 234.6 193.6 228.45 192.85 223.05 197.15
M 302.55 246.05
Q 303.05 243.5 303.55 241.5 303.25 241.55 302.95 241.6 287.35 244.3 285.35 266.4 286.65 267.05 288.55 267.8 292.15 269.15 296.25 269.6 300.3 270 301.25 270 300.85 267.9 300.85 264.05 300.85 254.95 302.55 246.05
M 346.95 181.3
Q 344.05 176.65 336.8 175.75 335.8 175.6 334.85 175.55 333.4 175.4 332.05 175.4 326.7 175.4 322.75 177.8 318.05 180.6 317.65 183.9 317.25 187.15 319.8 189.1 320.4 189.6 326.15 192.3 327.75 193 333.2 197 337.8 200.3 339.75 200.55 342.9 200.95 345.2 198.55 347.9 195.75 348.6 190.2 349.25 184.9 346.95 181.3
M 97.8 343.95
Q 96.25 343.95 95.9 346.4 95.75 347.7 95.6 349.45 95.65 350.4 95.55 351.55 95.5 352.15 95.4 352.85 95.25 353.55 95.1 354.7
L 95.05 355.05
Q 94.9 355.6 94.8 356.3 94.7 356.75 94.6 357.25 93.9 360.8 93.25 362.9 93 364.1 92.05 365 91.85 365.2 91.65 365.35 90.8 366.05 89.7 366.25 85.3 366.75 85.3 368.4 85.3 369.75 86.55 370
L 88.75 370
Q 93.5 370 94.95 369.3 97 368.3 97.65 365.35 97.85 364.4 97.9 363.25 99.35 347.45 99.35 346.75 99.35 345.7 98.95 344.85 98.5 343.95 97.8 343.95
M 36.45 238.65
Q 31.75 238.65 27.65 243.7 23.6 248.55 23.6 253.6 23.6 254.25 23.65 254.8 23.7 254.95 23.85 255.15 24.75 256.6 25.65 256.6 27.95 256.6 34.05 251.7 40.55 246.5 40.55 243.8 40.55 241.9 39.55 240.4 38.4 238.65 36.45 238.65
M 42.75 209.1
Q 46.3 206.75 46.3 203.7 46.3 197.75 40.55 197.75 34.35 197.75 29.55 202.7 29.25 203 29 203.35 24.35 208.45 24.35 215.75 24.35 216.35 24.55 217.25 24.65 217.7 24.85 218.15 25.75 220.7 27.4 220.7 29.35 220.7 31.75 217.35 34.65 213.35 36.35 212.5 38.2 211.5 42.75 209.1
M 101.75 235.85
Q 94.05 235.85 87.6 236.5 83.35 236.9 79.65 237.6 77.95 237.9 76.2 238.35 68.9 240 60.45 243.4 53.65 246.15 48.45 253.85 45.85 257.95 44.3 261.85 50.5 260.85 55.05 260.15 64.95 258.55 66.6 258.3 74.8 257.4 90.95 257.35
L 90.85 255.35
Q 90.85 252.45 91.8 250.9 92.55 249.7 93.7 249.7 93.9 248.8 94.15 247.85 95.3 244.5 97 244.5 99.35 244.5 99.65 247.4 99.7 248.55 99.8 250.95 99.95 250.9 100.05 250.9 102.4 250.9 102.65 253.55 102.7 254.75 102.65 257.3 115.4 257.4 129.8 257.95 137.45 258.25 143.75 258.6 149.35 258.9 153.85 259.25 145.3 244.05 131.95 239.2 122.6 235.85 101.75 235.85
M 139.7 167.2
Q 138.7 167.2 137.75 167.25 136.3 167.3 134.9 167.45 129.65 168.15 126 171.05 121.7 174.4 121.7 177.75 121.7 181 124.5 182.6 125.15 183 131.2 185 132.85 185.5 138.8 188.75 143.75 191.45 145.7 191.45 148.9 191.45 150.9 188.75 153.2 185.7 153.2 180.1 153.2 174.75 150.45 171.5 147 167.2 139.7 167.2
M 57.4 191.45
Q 59.7 191.45 66.9 187.1 74.1 182.7 80.9 182.7 85.85 182.7 92 186.4 98.2 189.95 101.1 189.95 104.2 189.95 107.75 187.5 112.55 184.1 112.55 178.75 112.55 171.15 106.5 165.2 99.95 158.7 90 158.7 74.95 158.7 64.3 168.2 60.15 171.9 57.7 176.1 54.5 181.5 53.95 187.75 54.45 191.45 57.4 191.45 Z"/>

<path fill="#C44E75" stroke="none" d="
M 295.75 318
Q 295.45 316.4 295.15 314.8
L 286.3 313.7
Q 286.6 316 286.9 318.25 288.65 318.15 291.05 318.1
L 295.6 345.2
Q 299.15 369.95 296.05 373.9 296.85 373.8 297.5 373.55 299.3 372.85 299.65 370.7 299.7 369.85 299.7 368.85 299.85 369.55 300.2 370.2 301.2 372.3 303.3 373 303.8 373.2 304.35 373.3 304.8 373.35 305.2 373.35 306.05 373.4 306.8 373.5 302.5 371.2 297.3 343 293.65 323.3 293 318.3 292.95 318.15 292.95 318.05 294.4 318 295.75 318
M 103.35 316.8
Q 103.35 316.65 103.35 316.55 104.8 316.5 106.15 316.5 106 313.5 105.85 310.35
L 97.35 310.35
Q 97.35 313.65 97.3 316.75 99.05 316.65 101.45 316.6
L 102 343.7
Q 101.9 368.45 98.25 372.4 99.05 372.3 99.75 372.05 101.65 371.35 102.3 369.2 102.5 368.35 102.65 367.35 102.7 368.05 102.95 368.7 103.65 370.8 105.6 371.5 106.1 371.7 106.65 371.8 107.05 371.85 107.45 371.85 108.3 371.9 109.05 372 105.1 369.7 104.05 341.5 103.3 321.8 103.35 316.8 Z"/>

<path fill="#FF3366" stroke="none" d="
M 348 283.6
Q 348.4 280.5 346.1 278.2 343.6 275.75 339.95 275.95 294.85 287.95 253.75 270.85 253.3 270.65 252.9 270.5 250 269.25 247.1 267.9 240.3 264.65 233.6 260.6 229.9 259.35 227.15 261.05 224.2 262.6 223.85 265.7 223.15 268.6 225.7 271.35 227.4 273.35 231.3 275.65 246.95 284.8 262.15 289.95 263.45 290.35 264.75 290.8 274.55 293.85 284.2 295.25 310.05 299 337.85 290.9 339.1 290.55 341.45 289.85 343.4 289.25 344.65 288.5 347.35 286.55 348 283.6
M 258.3 281.15
Q 258.7 281.3 259.2 281.5 269.05 285.05 279.55 286.85 310.3 291.75 339.95 283.8 310.3 291.75 279.55 286.85 269.05 285.05 259.2 281.5 258.7 281.3 258.3 281.15 244 275.9 230.9 266.85 244 275.9 258.3 281.15
M 98.25 289.15
Q 98.1 289.15 97.9 289.15 97.7 289.15 97.5 289.2 92.4 289.65 87.9 293.3 85.95 294.8 84.55 297.2 84.15 297.8 83.9 298.5 83.35 299.6 83.2 300.85 83.1 301.3 83.05 301.85 83 302.15 83 302.5 83 304.35 84.1 305.7 85.25 307.15 87.3 307.15 89.3 307.15 91.8 303.55 92.5 302.55 93.35 301.85 95.65 299.9 99.05 299.9 99.5 299.9 101.25 300.3 103 300.65 103.6 300.65 106.35 300.65 107.5 299.55 108.55 298.5 108.55 295.85 108.55 292.4 105.75 290.65 104.75 290.05 103.6 289.7 100.7 288.95 98.25 289.15
M 94.75 295.75
Q 97.55 294.75 100.4 295 97.55 294.75 94.75 295.75 91.95 296.75 90 299.35 91.95 296.75 94.75 295.75 Z"/>

<path fill="#000000" stroke="none" d="
M 81.4 271.4
Q 83.35 268.85 84 265.3 82.45 265.3 81 265.35 74.4 265.6 69.05 265.75 66.95 265.8 65.05 265.85 65.6 269.1 68.35 271.75 71.6 274.8 74.8 274.8 78.7 274.8 81.4 271.4
M 110 264.45
Q 110.1 268.7 112.4 271.25 114.95 274 119.85 274 123.6 274 126.3 270.85 128.7 268.2 129.65 263.95 127.25 264 124.8 264.1
L 124.8 264.65 124.8 264.1 113.7 264.4
Q 111.85 264.4 110 264.45 Z"/>
</g>

<path id="Layer0_0_1_STROKES" stroke="#000000" stroke-width="1" stroke-linejoin="round" stroke-linecap="round" fill="none" d="
M 124.8 264.1
L 124.8 264.65"/>

<path id="Layer0_0_2_STROKES" stroke="#000000" stroke-width="2" stroke-linejoin="round" stroke-linecap="round" fill="none" d="
M 123.7 70.75
Q 121.25 67.8 117.85 65.1 113.8 61.85 109.25 59.55 108.5 59.15 107.9 58.85 105.5 57.6 104.9 57.6 101.45 57.6 98.65 58.85 94.95 60.4 92.4 64.2 93.9 64.6 95.75 65.4 97.45 65.05 99.35 65.05 102.35 65.05 105.9 67.25 108.25 66.85 110.9 66.85 117.95 66.85 123.7 70.75 125.45 71.95 127.1 73.45 134.45 80.5 134.45 91 134.45 97 130.15 103.05 130.75 105 130.75 106.75 130.75 108.8 129.9 110.5 128.45 113.05 125.5 113.35 126.1 115.95 126.1 118 121.55 118 117 116.25 113.2 119.35 107.65 120.25 107.4 122.4 105.2 124.25 101.85 126.45 100.25 128.05 101.4 128.7 104 129.75 106.25 130.8 106.7 132.7 106.3 132.8 104.15 134.5 101.9 136.4 101.15 137.35 101.45 137.5 104.3 140.1 107.15 142.6 107.65 142.9
L 104.9 147.55
M 112.8 75.25
Q 113.7 75.25 114.65 75.35 112.95 73 110.45 70.7 108.05 68.5 105.9 67.25 103.6 67.55 101.6 68.1 105.2 70.05 108.65 72.45 110.5 73.85 112.25 75.3 112.45 75.25 112.8 75.25 Z
M 90.4 67.5
Q 90.85 67.15 91.4 66.95 91.05 66.85 90.75 66.85 90.6 67.15 90.4 67.5 90.3 67.7 90.2 67.9 87.6 73.6 87.35 78.7 88.15 77.4 89.15 76.15 93.2 71.05 99.45 68.8 95.8 67.1 91.4 66.95 93.45 65.85 95.75 65.4 96.05 65.45 96.3 65.6 99.05 66.75 101.6 68.1 100.4 68.4 99.45 68.8 102.45 70.1 104.9 72.45 105.75 73.35 106.55 74.3 108 74.9 109.55 76.1 110.8 75.35 112.25 75.3 114.75 77.4 116.75 79.7 116 77.45 114.65 75.35 117.6 75.95 120.55 78.05 127.1 82.65 127.1 92.85 127.1 94.25 126.8 95.8 129.8 91 129.8 86.45 129.8 78.05 123.7 70.75
M 90.75 66.85
Q 90.35 66.85 90 66.85 83.15 66.85 78.05 73.4 73.4 79.3 73.4 85.45 73.4 89.2 74.85 92.3 76.9 90.05 79 88.25 79 81.55 83.6 74.35 86.55 69.75 90.4 67.5
M 90.75 66.85
Q 91.45 65.4 92.4 64.2 89.3 63.15 87.35 63.15 78.35 63.15 74.35 69.7 71.6 74.2 71.6 80.8 71.6 87.55 74.6 92.6 74.7 92.4 74.85 92.3 76.5 95.8 79.9 98.4 81.75 99.75 83.7 100.8 83.6 100.3 83.6 99.75 83.6 98.9 83.7 98.15 79 94.45 79 88.25 81.85 85.75 84.85 84.05 85.7 81.25 87.35 78.7 87.35 79 87.35 79.45 87.35 81.05 87.75 82.55 88.55 82.1 89.5 81.8 90.8 80.55 92.4 80.15 92.6 79.45 92.8 79 94.2 76 97.85 75.35 100 73.4 102.5 73.4 104.6 73.4 106.55 74.3 107.55 75.5 108.35 76.9 108.85 76.4 109.55 76.1 110.95 77.35 112.35 79 114.8 79.35 117.25 81.35 117.05 80.5 116.75 79.7 119.2 82.3 120.9 85.2 123.5 89 124.15 93.65 125.35 95 126.35 96.35 126.5 96.1 126.8 95.8 126.65 96.2 126.5 96.55 129.15 100 130.15 103.05 128.45 105.4 126.1 107.7 125.25 108.55 124.3 109.4 125.05 111.5 125.5 113.35 125.15 113.35 124.75 113.35 122.2 113.35 120.2 112.6 120 112.95 119.7 113.35 118.45 115 117 116.25 115.9 115.8 114.8 115.3 111.2 116.65 107.4 116.95 107.65 118.4 107.65 119.65 107.65 119.95 107.65 120.25 105.45 120.6 103 120.6 101.75 120.55 100.4 120.25 96.1 122.4 92.3 122.4 89.25 122.4 87.35 120.6 87.65 119.3 89.1 116.85 88.95 116.8 88.85 116.75 83.8 118 78.5 118 74.85 118.2 71.6 117 65.05 114.8 65.05 107.7 65.05 106.45 67.5 102.25 70.45 97.3 74.35 92.85 74.55 92.75 74.6 92.6 76.85 96.4 80.9 99.3 82.25 100.35 83.6 101.2 83.6 100.95 83.7 100.85
L 83.7 100.8
Q 83.8 99.65 84.05 98.4 83.9 98.2 83.7 98.15 83.8 96.4 84 94.85 83.6 93.2 83.6 91.45 83.6 87.55 84.85 84.05 86.2 83.2 87.75 82.55 87.8 83.05 87.95 83.55 88.65 82.45 89.5 81.8 90.8 81.25 92.25 80.95 92.3 80.5 92.4 80.15 93.2 79.9 94.15 79.9 94.35 79.9 94.5 79.95 94.95 79 95.6 78.1 96.65 76.45 97.85 75.35 98.75 75.25 99.75 75.25 103 75.25 107.35 77.8 107.85 77.25 108.35 76.9 108.85 77.9 109.4 79 109.8728515625 79 110.4 79
L 110.5 79
Q 110.95 79 111.35 79 111.8 79 112.35 79 112.6 79.45 112.95 79.9
L 113.3 79.95
Q 115.85 81.65 116 85.85 116.45 86.6 116.8 87.4 117.2 87.65 117.55 87.9 117.75 86.8 117.75 85.45 117.75 83.3 117.25 81.35 118.45 82.3 119.7 83.65 120.35 84.4 120.9 85.2 123.2 89.2 123.9 93.45 123.95 93.55 124.15 93.65 124.25 95 124.25 96.35
L 124.25 96.4
Q 124.65 97.3 124.85 98.3 125.55 97.5 126.2 96.55 126.3 96.4 126.35 96.35 126.4 96.4 126.5 96.55 126.05 98.3 125.15 100.05 125.15 100.65 125.15 101.2 125.15 104.25 123.6 107.25 123.95 108.4 124.3 109.4 122.3 111.25 120.2 112.6 119.5 112.35 118.85 112.05 116.3 113.35 112.95 113.35 112.45 113.55 112.05 113.85 113.4 114.7 114.8 115.3 117.6 114.3 120.2 112.6 121.05 111.4 121.7 109.95 120.5 111.25 118.85 112.05 117.65 111.4 116.75 110.55 114.95 112.1 112.95 113.35 112.85 113.35 112.8 113.35 111.8 113.35 111 113.35 111.45 113.55 112.05 113.85 109.65 115.15 107.15 116.05 107.2 116.5 107.4 116.95 106.5 117 105.65 117 102.9 118.95 100.4 120.25 98.45 119.75 96.45 118.75 95.75 118.4 95.15 118 91.8 117.9 89.1 116.85 89.15 116.75 89.25 116.65 89 116.65 88.85 116.75 88.05 116.45 87.35 116.05 82.7 113.55 82.7 108.7 82.7 105.8 83.8 102.85 83.6 102.25 83.6 101.65 83.6 101.4 83.6 101.2
L 83.7 101.2
Q 83.7 100.95 83.7 100.85
M 94.35 80.35
Q 93.95 81.1 93.65 81.9 94.4 81.8 95.1 81.8 96.5 81.8 97.95 82.3 96.3 80.75 95.25 80.25 94.75 80.25 94.35 80.35 94.4 80.2 94.5 79.95 94.8 80.05 95.25 80.25 97.25 79.9 99.35 79.9 102.25 79.9 104.85 80.5 105.05 80.35 105.35 80.2 106.3 78.85 107.35 77.8 108.25 78.4 109.25 79.1 109.3 79 109.4 79
L 109.5 79.1
Q 109.9453125 79.0109375 110.4 79
M 93.65 81.9
Q 92.8 82 92 82.3 91.85 83.25 91.85 84.55 91.85 85.4 91.95 86.2 92.4 85.85 92.85 85.45 92.9 83.65 93.65 81.9 Z
M 99.95 84.2
Q 99.2 83.5 98.65 82.9 95.6 83.5 92.85 85.45 92.8 85.9 92.8 86.45 92.8 88.25 93.1 89.95 95.55 87.85 98.1 86.55 98.95 85.3 99.95 84.2 100.25 83.85 100.6 83.55 99.95 83.15 99.35 82.85 98.95 82.85 98.65 82.9 98.25 82.55 97.95 82.3 98.6 82.45 99.35 82.85 100.25 82.7 101.15 82.7 101.3 82.7 101.55 82.7 103.1 81.35 104.85 80.5 105.05 80.5 105.2 80.55 105.35 80.35 105.35 80.2 107 79.45 108.75 79.15 109 79.1 109.25 79.1
L 109.3 79.1 109.5 79.1
Q 109.5 79.15 109.5 79.3 109.9 79.55 110.4 79.9 113.95 82.55 115.85 85.45 114.8 82.45 112.95 79.9
L 110.5 79
M 94.35 80.35
Q 93.2 80.55 92.25 80.95 92.05 81.5 92 82.3 89.85 82.9 88.25 84.6 89 86.3 90.2 87.85 91.05 86.95 91.95 86.2 92 88.2 92.5 90.1 92.6 90.25 92.75 90.35 92.85 90.1 93.1 89.95 93.1 90.35 93.15 90.7 93.45 90.9 93.8 91.15 94.45 91.55 95 91.9 96.45 88.8 98.1 86.55 99.5 85.75 101.05 85.3 100.4 84.7 99.95 84.2
M 95 91.9
Q 95.3 92.1 95.7 92.3 98.3 87.95 101.75 86.15 101.45 85.75 101.15 85.45 101.1 85.4 101.05 85.3 101.75 85 102.45 84.9 102.35 84.8 102.05 84.6 101.3 84.05 100.6 83.55 101.05 83.15 101.55 82.7 102.6 82.75 103.7 83.15 103.85 82.9 104 82.7 104.55 81.55 105.2 80.55 105.65 80.65 106.05 80.75 107.2 79.6 108.75 79.15 109.05 79.15 109.3 79.1 109.4 79.15 109.5 79.3 110.15 80.95 110.6 82.75 112.9 84.2 114.25 86.05 115.1 86.45 116 86.95 116 86.65 116 86.45 116 86.3 116 86.25 115.9 85.85 115.85 85.45 115.9 85.6 116 85.85 116 86.05 116 86.25 116.2 86.65 116.25 87.1 116.6 87.25 116.8 87.4 117.05 87.9 117.2 88.4 117.3 88.4 117.4 88.5 117.5 88.2 117.55 87.9 120.5 89.8 123.35 92.85 123.6 93.15 123.9 93.45 124.2 94.85 124.25 96.35 123.7 95.05 122.9 94.05 123.35 95.3 123.35 96.55 123.35 98.8 120.9 100.9 121.05 101.15 121.1 101.4 122.75 100.45 124.2 99 124.2 98.7 124.25 98.4 124.25 97.9 124.25 97.5 124.25 97.35 124.25 97.15 124.25 96.85 124.25 96.55 124.25 96.5 124.25 96.4
M 87.95 83.55
Q 87.2 84.8 86.45 86.45 85.65 88.25 85.2 89.95 85.35 89.55 85.55 89.2 86.6 86.3 88.25 84.6 88.1 84.05 87.95 83.55 Z
M 84.9 97.55
Q 85.2 98.3 85.6 98.9 87.35 95.9 90.15 92.85 91.4 91.55 92.6 90.45 92.5 90.25 92.5 90.1 91.15 89.05 90.2 87.85 89.25 88.9 88.25 90.1 85.9 93.4 84.75 96.5 84.8 97.05 84.9 97.55 84.75 97.15 84.6 96.75 84.3 97.55 84.05 98.4 84.75 98.8 85.45 99.25
L 85.45 99.2
Q 85.1 98.4 84.9 97.55 Z
M 84.75 96.5
Q 84.65 96.65 84.6 96.75 84.25 95.85 84 94.85 84.45 92.3 85.2 89.95 84.6 92.4 84.6 94.7 84.6 95.65 84.75 96.5 Z
M 100.95 91.2
Q 100.3 91.45 99.65 91.7 99.4 92.8 99.35 93.85 99.8 94 100.3 94.15 100.6 92.6 100.95 91.2 101.05 90.7 101.15 90.25 101.25 89.95 101.3 89.8 101.55 88.6 102.05 87.1 101.6 87.65 101.15 88.3 100.1 89.95 99.65 91.7 98.3 92.3 97.1 92.95 98.15 93.45 99.35 93.85 99.35 94.05 99.35 94.2 99.35 96.25 99.75 97.9 99.95 95.95 100.3 94.15 100.8 94.25 101.4 94.45 101.15 92.85 101.15 91.1 101.05 91.15 100.95 91.2 Z
M 92.75 90.35
Q 92.9 90.45 93.15 90.7 93.5 92.5 94.15 94.15 94.4 93.4 94.7 92.8 94.85 92.35 95 91.9
M 92.75 90.35
Q 92.6 90.35 92.6 90.45 93.05 92.55 93.95 94.7 94.05 94.4 94.15 94.15 94.2 94.4 94.4 94.6 94.95 93.35 95.7 92.3 96.3 92.6 97.1 92.95 95.7 93.75 94.45 94.8 96.05 98.4 99.45 100.75 99.5 99.25 99.75 97.9 100.25 100 101.4 101.4 102.45 100.45 103.4 99.85 101.9 97.85 101.4 94.45 102.9 94.6 104.45 94.7 104.6 94.2 104.9 93.7 105.35 92.9 105.9 92.35 105.35 91.2 104.65 90.05 102.8 90.4 101.15 91.1 101.15 90.45 101.3 89.8 101.75 88.2 102.25 86.85 102.15 86.95 102.05 87.1 102.05 86.95 102.25 86.65 101.95 86.3 101.75 86.15 102.15 85.85 102.6 85.6 102.7 85.4 102.8 85.2 102.6 85 102.45 84.9 102.75 84.85 102.95 84.85 103.3 83.95 103.7 83.15 103.85 83.15 104 83.2 104.95 81.8 106.05 80.75 108.35 81.5 110.45 82.7 110.5 82.75 110.6 82.75 110.8 83.85 111 84.95 112.6 85.3 114.25 86.05 114.65 86.6 115.05 87.25 115.15 87.35 115.4 87.4 115.7 87.55 115.95 87.7 116 87.35 116 86.95 116.2 86.95 116.25 87.1 116.3 87.45 116.45 87.95 116.8 88.15 117.2 88.4 117.25 88.6 117.3 88.75 117.4 88.6 117.4 88.5 121.65 91.1 122.9 94.05 121.85 92.85 120.55 91.9 119.15 90.9 117.65 90.25 117.75 91.1 117.75 91.9 117.75 93.05 117.3 94.25 119.05 96.85 120.9 100.9 120.8 101.1 120.55 101.2 119.6 102 118.35 102.55 119.75 102.1 121.1 101.4 121.45 102.1 121.85 103 121.85 103.25 122.05 103.45 123.8 101.5 124.2 99 124.55 98.65 124.85 98.3 125.05 99.15 125.15 100.05 124.65 101.15 123.9 102.4 123.6 104.25 123.1 106.05 123.35 106.65 123.6 107.25 123.5 107.5 123.35 107.7 122.6 108.9 121.7 109.95 122.55 108.1 123.1 106.05 122.75 105.2 122.5 104.45 121.25 106 119.6 107.7 118.15 109.2 116.75 110.55 115.45 109.35 114.6 107.8 114.25 107.9 113.95 107.95 112.6 110.45 110.3 112.9 110.7 113.05 111 113.35 110.45 113.2 110 113.2 108.65 114.55 107.1 115.9 107.1 115.95 107.15 116.05 106.8 116.25 106.5 116.35 106.05 116.65 105.65 117 105.45 117 105.35 117 104.6 117.1 103.85 117.1 99.95 118 95.6 118 95.35 118 95.15 118 93.6 116.95 92.6 115.65 90.95 116.25 89.25 116.65 90.1 115.3 91.35 113.55 91.05 113.05 90.8 112.35
L 85.55 112.35
Q 84.6 110.95 84.6 108.7 84.6 108.25 85.15 106.85 84.6 105.6 84.25 104.25 83.9 103.65 83.8 102.85 83.8 102.7 83.9 102.55 83.7 101.95 83.7 101.2 84 101.35 84.3 101.5 84.35 101.35 84.45 101.15 84.05 100.95 83.7 100.8
M 94.15 95
Q 94.1 95 94.1 95.05
L 94.1 95.1
Q 94.1015625 95.0484375 94.15 95 94.2 94.8 94.4 94.6 94.4 94.7 94.45 94.8 94.35 94.85 94.15 95 Z
M 94.1 95.1
Q 93.95 95.35 93.8 95.65 93.3 96.7 92.85 97.8 92.25 99.75 91.8 101.8 94.55 102.6 97.5 102.95 98.15 102.85 98.9 102.8 95.8 99 94.1 95.1 Z
M 93.95 94.7
Q 93.95 94.85 94.1 95.05 93.9 95.2 93.65 95.35 93.2 96.55 92.85 97.8 91.95 99.85 91.4 101.7 91.55 101.8 91.8 101.8 91.65 102.45 91.55 103 92.8 103.05 94.15 103.05 95.85 103.05 97.5 102.95 98.3 103 99.1 103.05 98.95 102.85 98.9 102.8 99.1 102.7 99.35 102.7 99.35 102.45 99.35 102.1 99.4 101.4 99.45 100.75 99.8 100.9 100.25 101.2 100.7 101.4 101.1 101.7 101.25 101.6 101.4 101.4 101.65 101.8 102.05 102.1 103.4 101.7 104.7 101.2 104.65 101.15 104.65 101.1 104 100.55 103.4 99.85 103.85 99.55 104.3 99.45 104 98.05 104 97 104 95.9 104.45 94.7 104.65 94.7 104.9 94.7 105.9 94.7 106.7 94.7
L 106.7 94.55
Q 106.35 93.4 105.9 92.35 106.2 92.05 106.55 91.9 106.25 90.75 105.9 89.8 105.25 89.9 104.65 90.05 103.6 88.4 102.35 86.8 102.25 86.8 102.25 86.85
M 93.95 94.7
Q 93.8 95 93.65 95.35 91.8 96.85 90.15 98.8 89.3 99.75 88.55 100.8 89.15 100.95 89.75 101.2 90.5 101.5 91.4 101.7 91.15 102.25 91.05 102.95 91.2 102.95 91.55 103 91.45 103.55 91.4 104.15 94.45 104.9 97.85 104.95 98.6 104.1 99.4 103.35 99.2 103.15 99.1 103.05 99.2 103 99.35 103.05 99.35 102.85 99.35 102.7 99.75 102.6 100.2 102.55 100.6 102.1 101.1 101.7 101.45 101.95 101.95 102.1
L 102.05 102.1
Q 102.15 102.1 102.25 102.25 102.95 102.55 103.7 102.85 104.3 102.2 104.85 101.4 104.7 101.3 104.7 101.2
L 104.85 101.15
Q 104.7 101.15 104.65 101.1 104.6 100.65 104.45 100.15 104.3 99.75 104.3 99.45 105.25 98.8 106.1 98.65 106.7 96.7 106.7 94.7
L 106.8 94.7 106.7 94.55
Q 106.7 93.15 106.55 91.9 107.55 91.1 109.05 91.1 110.3 91.1 111.35 91.55 111.35 90.75 111.35 90.05 111.35 89.6 111.35 89.2 108.55 89.25 105.9 89.8 105.05 87.55 103.4 85.85 102.8 86.2 102.35 86.8
L 102.25 86.65
Q 102.35 86.15 102.6 85.6 102.7 85.6 102.8 85.6 102.8 85.4 102.9 85.3 102.8 85.3 102.8 85.2 102.9 84.95 102.95 84.85 103 84.8 103.2 84.8 103.55 83.95 104 83.2 105.35 83.65 106.9 84.55 106.99375 84.55 107.125 84.55
L 107.2 84.55
Q 107.45 84.55 107.65 84.55 109.3 84.55 111 84.95 111.15 85.4 111.2 85.9 112.8 86.5 115.05 87.25 115.45 88.2 115.75 89.2 115.9 88.4 115.95 87.7 116.2 87.85 116.45 87.95 116.6 88.9 116.75 89.9 116.8 89.9 116.9 89.95 117.1 89.45 117.3 88.75 117.55 89.5 117.65 90.25 117.25 90.05 116.9 89.95 116.8 90.05 116.75 90.25 116.8 91.1 116.8 91.9 116.8 92.6 116.75 93.4 116.7513671875 93.4556640625 116.8 93.65 117.05 93.95 117.3 94.25 117.05 94.8 116.75 95.35 116.6 96.55 115.95 97.9 116 98.8 116 99.75 116 101.4 115.75 103.05 117.05 102.95 118.35 102.55 117.1 103.15 115.6 103.45 115.15 105.4 114.3 107.2 114.35 107.5 114.6 107.8 119.05 106.6 121.55 104.05 121.85 103.75 122.05 103.45 122.25 103.9 122.5 104.45 123.3 103.35 123.9 102.4 124.15 100.75 124.2 99
M 102.8 85.6
Q 102.9 85.45 103 85.45 102.95 85.3 102.9 85.3 103 85 103.2 84.8 104.45 84.55 105.8 84.55 106.2 84.55 106.55 84.6 106.7 84.55 106.9 84.55
L 106.9 84.6
Q 106.99375 84.553125 107.125 84.55
M 103.4 85.85
Q 103.25 85.6 103 85.45 104.45 84.85 106.05 84.7 106.25 84.6 106.55 84.6 106.6 84.6 106.7 84.6 106.7 84.55 106.9 84.6
L 107 84.6
Q 107.4 84.7 107.9 84.8 107.4 84.6 107.2 84.55
M 106.05 84.7
Q 104.6 84.9 103.4 85.85
M 111.2 86
L 111.2 85.9
Q 111.1515625 85.9 111.05 85.85 111.1515625 85.903125 111.2 86 112.25 86.5 113.3 87.35 114.5 88.4 115.35 89.55 115.45 89.55 115.6 89.6 115.7 89.45 115.75 89.2 115.75 89.45 115.85 89.6 116.25 89.8 116.75 89.9 116.75 90.05 116.75 90.25 116.45 90.65 116.2 91.1 116.7 92.2 116.75 93.4 116.75 93.453125 116.75 93.55
L 116.8 93.65
Q 116.8 93.95 116.8 94.2 116.8 94.8 116.75 95.35 116.6 95.65 116.4 95.9 116.2 96.75 115.9 97.55 115.9 97.75 115.95 97.9 115.45 98.9 114.75 100 114.55 100.65 114.2 101.2 113.7 102.1 112.9 102.7 112.9 102.85 112.95 103.05 113.7 103.05 114.55 103.05 115.1 103.05 115.75 103.05 115.7 103.3 115.6 103.45 114.5 103.75 113.1 103.9 113.5 105.75 114.3 107.2 114.1 107.55 113.95 107.95 111.8 108.4 109.4 108.55 108.45 110.05 107.95 110.55 107.75 110.8 107.6 111 109 111.9 110.3 112.9 110.15 113.05 110 113.2 107.6 113.05 105.8 112.6 106.6 114.3 107.1 115.9 106.9 115.95 106.7 116.05 106.6 116.25 106.5 116.35 105.2 116.75 103.85 117.1 100.85 117 98.05 116.05 96.3 115.5 95.1 114.7 93.8 115.2 92.6 115.65 91.8 114.7 91.35 113.55 91.5 113.15 91.8 112.75 91.4 112.6 90.95 112.35
L 90.8 112.35 90.8 112.3
Q 86.9 110.35 85.15 106.85 85.25 106.6 85.55 106.25 84.65 105.3 84.25 104.25 84 103.45 83.9 102.55 84.05 102.1 84.3 101.5 85.7 102.25 87.25 102.85 87.35 102.55 87.6 102.25 85.95 101.8 84.45 101.15 84.85 100.15 85.45 99.25
L 85.55 99.3 85.45 99.2
Q 85.55 99.1 85.6 98.9 85.8 99.25 86 99.65 87.25 100.3 88.55 100.8 88.2 101.3 87.85 101.8 88.15 102.1 88.5 102.5 89.75 102.7 91.05 102.95 90.8 103.45 90.75 104.05 91.05 104.1 91.4 104.15 91.35 104.35 91.35 104.5 94.05 105.8 96.4 105.85
L 96.5 105.85
Q 96.8 105.85 97 105.85 97.45 105.4 97.85 104.95 98.1 104.95 98.35 104.95 98.95 104.95 99.5 104.95 99.4 104.15 99.4 103.35 99.35 103.25 99.35 103.05 99.45 103.05 99.6 103.05 99.9 102.8 100.2 102.55 101.05 102.4 101.95 102.1 102.05 102.2 102.25 102.25 102.75 102.6 103.3 103 103.4 102.95 103.7 102.95
L 103.7 102.85
Q 103.8 102.85 103.85 102.95 105.65 102.7 107.2 102.25 105.8 101.8 104.9 101.2 104.85 101.3 104.85 101.4
M 111.05 85.85
L 111 85.85
Q 109.5 85 107.9 84.8
M 111.35 89.2
Q 111.35 88.75 111.35 88.3 110.9 87.85 110.45 87.4 108.65 85.7 107 84.6
M 107.6 98.4
Q 107.6 99 107.65 99.65 108.35 99.15 109.15 98.65 108.45 98.4 107.65 98.4
L 107.6 98.4
Q 107.4 96.5 106.8 94.7 109.25 94.55 111.15 94.05 111.3 92.85 111.35 91.55 112.15 91.9 112.95 92.55 113.2 91.3 113.3 90.65 112.8 89.9 112.15 89.2 111.75 89.2 111.35 89.2
M 110.3 97.6
Q 110.9 97.15 111.35 96.55 111.95 95.95 112.4 95.5 112.45 94.6 112.8 93.55 111.95 93.85 111.15 94.05 110.8 95.9 110.3 97.6 110.1 98.2 109.9 98.8
L 110 98.9
Q 111.15 99.3 111.35 99.3
L 111.35 99.5
Q 111.95 99 112.4 98.5 112.35 97.55 112.35 96.55 112.35 96.1 112.4 95.5 113.2 94.5 113.8 93.55 113.7 93.35 113.6 93.2 113.2 93.4 112.8 93.55 112.8 93.35 112.85 93.15 112.9 92.85 112.95 92.55 113.1 92.75 113.3 92.85 113.4 92.95 113.6 93.2 113.9 93.05 114.2 92.85
L 114.25 92.85
Q 114.3 92.75 114.35 92.6 113.9 91.6 113.3 90.65 113.3 90.35 113.3 90.1 114.1 90.65 114.95 91.45 115.35 90.65 115.55 89.9 115.4 89.65 115.35 89.55 113.8 89.2 112.35 89.2 112.25 89.2 112.15 89.2 111.75 88.75 111.35 88.3 111.3 87.05 111.2 86
M 107.65 99.65
Q 107.65 99.95 107.65 100.3 107.65 101.2 107.6 102.2 107.95 102.1 108.35 101.95 109.25 100.45 109.9 98.8 109.55 98.7 109.15 98.65 109.7 98.15 110.3 97.6
M 107.6 98.4
Q 106.9 98.4 106.1 98.65 105.65 99.85 105.05 101.1 106.35 100.45 107.65 99.65
M 115.6 89.6
Q 115.55 89.65 115.55 89.9 115.75 90.25 115.95 90.65 115.9 90.1 115.85 89.6 115.7 89.6 115.6 89.6 Z
M 115.95 90.65
Q 115.95 90.9 116 91.25 116.15 91.2 116.2 91.1 116.15 90.85 115.95 90.65 Z
M 114.35 92.6
Q 114.65 92 114.95 91.45 115.15 91.6 115.45 91.9 115.75 91.6 116 91.25 116 91.55 116 91.9 116 92.2 115.95 92.55 116.4 92.95 116.75 93.55 116.7 94.8 116.4 95.9 116.15 96.35 115.75 96.75 115.85 97.15 115.9 97.55 115.55 98.5 114.95 99.25 114.95 99.65 114.75 100 113.95 101.2 112.85 102.5 112.85 102.55 112.9 102.7 112.6 102.85 112.35 103.05 112.6 103.05 112.95 103.05 113 103.45 113.1 103.9 112.25 104.05 111.35 104.05
L 111.35 104.95
Q 110.15 107.15 109.4 108.55 107.9 108.7 106.25 108.7 106.05 108.7 105.8 108.7 105.5 108.85 105.25 109.1 106.35 110.05 107.6 111 106.7 111.8 105.75 112.45 105.8 112.5 105.8 112.6 105.65 112.6 105.65 112.5 103.4 113.85 100.5 114.15 99.1 115.15 97.85 115.15 96.65 115.15 95.6 114.55 95.3 114.7 95.1 114.7 94.1 114.15 93.35 113.35 92.6 113.05 91.8 112.75 91.95 112.6 92.05 112.35
L 90.95 112.35
Q 90.85 112.3 90.8 112.3 90.3 110.8 90.2 109.1 88.85 108.55 87.35 107.7 86.2 107.05 85.55 106.25 85.6 105.8 85.8 105.4 86.45 104.15 87.25 102.85 88.45 103.35 89.8 103.75 88.65 103.05 87.75 102.25 87.65 102.25 87.6 102.25 87.6 102.2 87.65 102.2 86.3 100.9 85.55 99.3 85.8 99.5 86 99.65 86.8 100.8 87.85 101.8 87.75 102 87.65 102.2
L 87.75 102.25
Q 88.1 102.4 88.5 102.5 89.4 103.25 90.3 103.9 90.5 103.9 90.75 104.05 90.65 104.1 90.65 104.15 90.85 104.25 91.15 104.45 91.2 104.5 91.35 104.5 91.55 104.7 91.95 104.95 92.8 105.4 93.7 105.85
L 96.4 105.85
M 114.25 92.85
Q 114.3 92.8 114.5 92.75
L 114.35 92.6
M 115.95 92.55
Q 115.7 92.2 115.45 91.9 114.95 92.35 114.5 92.75 114.95 93.65 115.25 94.6 115.85 93.45 115.95 92.55 Z
M 114.25 92.85
Q 114.05 93.15 113.8 93.55 114.5 94.4 114.75 95.4 115.05 95 115.25 94.6 115.55 95.65 115.75 96.75 115.45 97.15 115.1 97.5 115.1 97.75 115.1 97.9 115.1 98.65 114.95 99.25 114.6 99.85 114.2 100.3 113.5 100.95 112.65 101.65 112.8 102.1 112.85 102.5 112.6 102.8 112.35 103.05 111.8 103 111.35 103
L 111.35 103.45
Q 111.95 103.3 112.35 103.05 111.95 103.45 111.35 104.05
L 111.35 103.45
Q 110.45 103.85 109.25 104.05 110 104.05 110.9 104.05 111.15 104.05 111.35 104.05 109.05 106.25 105.8 108.7 105.5 108.7 105.25 108.7 105.05 108.8 105.05 108.9 105.05 109 105.25 109.1 104.95 109.3 104.7 109.55 104.55 109.75 104.4 110.05 105.05 111 105.65 112.3 105.65 112.35 105.75 112.45
L 105.65 112.5
Q 104.15 112.15 103.2 111.6 101.85 113.2 100.5 114.15 99.65 114.25 98.75 114.25 97.7 114.25 96.6 114.1 96.1 114.3 95.6 114.55 95.1 114.25 94.55 113.75 93.95 113.55 93.35 113.35 92.9 112.9 92.6 112.35
L 92.05 112.35
Q 92.25 112.2 92.4 112.05 91.55 110.85 91.2 109.35 90.75 109.2 90.2 109.1 90.15 108.7 90.15 108.1 90.15 106.35 90.65 104.2 90.4 104.15 90.2 104.05 90 103.85 89.8 103.75 90 103.75 90.3 103.9 90.4 104.05 90.65 104.15
L 90.65 104.2
Q 90.85 104.35 91.15 104.45
M 112.4 98.5
Q 112.4 99.15 112.45 99.85 113.4 99.2 114.2 98.4 114.65 97.9 115.1 97.5 115.05 96.35 114.75 95.4 113.9 96.75 112.4 98.5 Z
M 102.8 85.6
Q 102.5 86.15 102.35 86.8
M 112.45 99.85
Q 112.55 100.8 112.65 101.65 112.1 102.1 111.35 102.45
L 111.35 103
Q 110.9 102.95 110.5 102.95 109.3 103.45 107.95 103.85 108.65 103.9 109.25 104.05 108.65 104.05 108.05 104.05 107.65 104.05 107.35 104.05 107.2 104.05 107.15 104.05 106.6 106.35 105.25 108.7 104.95 108.7 104.65 108.7 104.85 108.8 105.05 108.9 104.9 109.2 104.7 109.55 104.45 109.65 104.25 109.75 104.3 109.85 104.4 110.05 104.15 110.2 104 110.5 103.55 111.05 103.2 111.6 103.1 111.5 103 111.4 102.7 111.25 102.35 111 99.5 112.7 96.6 114.1 95.6 113.95 94.55 113.75 93.95 113.05 93.35 112.2 93.1 112.3 92.8 112.35
L 92.6 112.35
Q 92.45 112.2 92.4 112.05 92.6 111.7 92.85 111.3 92.4 110.45 92 109.55 91.55 109.4 91.2 109.35 90.95 108.1 90.95 106.75 90.95 106.45 91.05 106.25 90.95 106 90.95 105.85
L 91.1 105.85
Q 91.15 105.2 91.35 104.5
M 108.35 101.95
Q 108.75 101.8 109.15 101.65 110.4 100.45 111.35 99.5
L 112.45 99.85 111.35 102.45
Q 110.95 102.6 110.5 102.95 109.25 102.7 108.2 102.5 107.9 102.8 107.6 103.05
L 107.575 103.075
Q 107.446875 103.1623046875 107.4 103.35 107.35 103.45 107.2 103.75 107.6 103.75 107.95 103.85 107.6 103.9 107.35 104.05
M 107.6 103.05
Q 107.85 102.8 108 102.5 107.75 102.45 107.55 102.4 107.45 102.8 107.4 103.25 107.446875 103.15625 107.575 103.075
M 108.35 101.95
Q 108.2 102.2 108 102.5 108.05 102.5 108.2 102.5 108.65 102.1 109.15 101.65 110.3 101.15 112.45 99.85
M 107.4 103.35
Q 107.4 103.3 107.4 103.25 107.15 103.35 107 103.45 107 103.55 106.9 103.65 107 103.65 107.1 103.75 107.15 103.45 107.4 103.35 Z
M 107.6 102.2
Q 107.4 102.2 107.2 102.25 107.4 102.25 107.55 102.4 107.55 102.25 107.6 102.2 Z
M 107.2 103.75
Q 107.15 103.75 107.1 103.75 107 103.75 106.9 103.9 107 103.9 107.15 104.05 107.2 103.85 107.2 103.75 Z
M 106.9 103.9
Q 106.7 103.9 106.55 103.9 106.3 104.1 106.2 104.25 106.35 104.2 106.7 104.15 106.7 104.1 106.9 103.9 Z
M 106.55 103.9
Q 106.7 103.75 106.9 103.65 105.35 103.35 103.85 102.95
L 103.7 102.95
Q 103.6 103 103.55 103.05 104.85 103.75 106.55 103.9 Z
M 106.7 104.15
Q 106.9 104.1 107.15 104.05
M 104.85 101.15
L 104.9 101.2
Q 104.95 101.15 105.05 101.1 104.9 101.1 104.85 101.15 Z
M 103.3 103
Q 103.4 103 103.55 103.05 102.45 104.15 101.15 104.9 103.85 104.7 106.2 104.25 104.4 105.75 102.8 106.9 102.9 107.05 103 107.15 104.55 106.25 105.9 104.95 106.3 104.6 106.7 104.15
M 102.8 106.9
Q 102.45 107.15 102.05 107.45 102.15 107.5 102.25 107.55 102.6 107.4 103 107.15 103.4 107.55 104 108 104.3 108.3 104.65 108.7 103.85 108.55 103.25 108.5 103.7 109.1 104.25 109.75 103.3 110.45 102.35 111 101.25 110.05 100.5 108.5 96.45 111.25 93.35 112.2 93.2 111.9 93.05 111.6 92.9 111.4 92.85 111.3 93.45 110.45 94.1 109.6 93.65 109.6 93.2 109.6 92.6 109.6 92 109.55 91.4 108 91.05 106.25 91.05 106.05 91.1 105.85
L 93.7 105.85
Q 94.85 106.45 96.15 106.9 96.6 106.35 97 105.85 98.35 105.8 99.6 105.5 99.5 105.2 99.5 104.95 100.1 104.95 100.7 104.95 100 104.1 99.4 103.35 99.45 103.25 99.6 103.05 100.2 103.05 100.7 103.05 102.05 103.05 103.3 103
M 102.25 107.55
Q 101.65 107.8 101.15 108.1 101.05 108.1 100.95 108.25 102.05 108.4 103.25 108.5 102.75 108 102.25 107.55 Z
M 100.7 104.95
Q 100.8 104.95 100.85 105 101.05 104.95 101.15 104.9 100.95 104.9 100.7 104.95 Z
M 100.4 108.4
Q 100.4 108.25 100.3 108.1 98.15 107.65 96.15 106.9 95.35 107.95 94.5 109 94.35 109.3 94.1 109.6 97.55 109.4 100.4 108.4 100.7 108.3 100.95 108.25 100.6 108.1 100.3 108.1 99.9 107.15 99.65 106 99.5 105.9 99.35 105.85
L 97 105.85
M 102.8 106.9
Q 101.75 105.9 100.85 105 100.25 105.3 99.6 105.5 99.6 105.75 99.65 106 100.95 106.45 102.05 107.45 101.6 107.7 101.15 108.1
M 100.4 108.4
L 100.5 108.5
Q 100.7 108.4 100.95 108.25"/>

<path id="Layer0_0_3_STROKES" stroke="#990000" stroke-width="3" stroke-linejoin="round" stroke-linecap="round" fill="none" d="
M 330.35 265.5
Q 330 258.95 327.55 253.55 323.25 243.85 313.35 241.8 311.05 241.3 308.5 241.25 305.9 241.15 303.55 241.5
M 285.35 266.4
Q 285.3 266.6 285.3 266.85
M 124.8 264.1
Q 127.25 264 129.65 263.95
M 110 264.45
Q 111.85 264.4 113.7 264.4
L 124.8 264.1
M 84 265.3
Q 82.45 265.3 81 265.35 74.4 265.6 69.05 265.75 66.95 265.8 65.05 265.85 57.95 266.2 53.45 266.4 52.5 266.4 51.7 266.45
M 129.65 263.95
Q 139.25 263.65 146.95 263.5
M 84 265.3
Q 89.3 265.15 95.4 264.9 96.25 264.9 97.05 264.9 97.45 264.85 97.75 264.85 104.05 264.65 110 264.45
M 146.95 263.5
Q 147 263.5 147.1 263.5 153.05 263.3 158.05 263.2
M 46.75 266.5
Q 47.9 266.5 51.7 266.45
M 303.55 241.5
Q 303.25 241.55 302.95 241.6 287.35 244.3 285.35 266.4
M 233.5 248.95
Q 233.7 248.4 233.9 247.85
M 267.3 233.55
Q 267.8 233.8 268.25 234.1 282.05 242.75 276.2 264.65
M 233.9 247.85
Q 235.25 244.05 237.2 240.95 238.15 239.35 239.3 237.95 240.2 236.8 241.25 235.75 247.6 229.4 255.85 230 259.35 230.2 263.2 231.65 265.4 232.5 267.3 233.55"/>

<path id="Layer0_0_4_STROKES" stroke="#990000" stroke-width="1" stroke-linejoin="round" stroke-linecap="round" fill="none" d="
M 97.05 250.45
Q 97.1 252.2 97.1 253.85 97.1 255.7 97.2 257.3 97.3 261.85 97.2 264.25
M 99.55 255.6
Q 99.55 256.45 99.55 257.3 99.55 261.8 99.35 263.15
L 99.35 263.9
M 94.7 255.75
L 94.75 264.25"/>

<path id="Layer0_0_5_STROKES" stroke="#990000" stroke-width="2" stroke-linejoin="round" stroke-linecap="round" fill="none" d="
M 90 299.35
Q 91.95 296.75 94.75 295.75 97.55 294.75 100.4 295
M 230.9 266.85
Q 244 275.9 258.3 281.15 258.7 281.3 259.2 281.5 269.05 285.05 279.55 286.85 310.3 291.75 339.95 283.8"/>

<path id="Layer0_0_6_STROKES" stroke="#581D3B" stroke-width="4" stroke-linejoin="round" stroke-linecap="round" fill="none" d="
M 520.65 231.6
L 501.05 252.7 521.3 270.45
M 547.85 247.75
L 554.7 267.15 572.5 261.7
M 560.3 283.35
L 554.7 267.15 537.25 272.45
M 476.55 232
L 501.05 252.7 481.4 273.7"/>
</defs>

<g transform="matrix( 1, 0, 0, 1, 0,0) ">
<use xlink:href="#Layer0_0_FILL"/>

<use xlink:href="#Layer0_0_1_STROKES"/>

<use xlink:href="#Layer0_0_2_STROKES"/>

<use xlink:href="#Layer0_0_3_STROKES"/>

<use xlink:href="#Layer0_0_4_STROKES"/>

<use xlink:href="#Layer0_0_5_STROKES"/>

<use xlink:href="#Layer0_0_6_STROKES"/>
</g>
</svg>
