
<svg xmlns="http://www.w3.org/2000/svg" version="1.1" xmlns:xlink="http://www.w3.org/1999/xlink" preserveAspectRatio="none" x="0px" y="0px" width="550px" height="400px" viewBox="0 0 550 400">
<defs>
<g id="Layer2_0_FILL">
<path fill="#66CCCC" stroke="none" d="
M 556.3 411.1
L 556.3 -3.9 -4.3 -3.9 -4.3 411.1 556.3 411.1 Z"/>
</g>

<g id="S_mbolo_1_0_Layer0_0_FILL">
<path fill="#FF3333" stroke="none" d="
M 11.5 136.8
Q 11.4 137.2 11.5 137.8 11.45 137.95 11.6 140.9 12.3 143.2 16.6 143.4 19.1 142.8 19.8 141.9 20.6 140.45 21 138.55 21.2 137.45 21.35 136.75 21.35 136.6 21.35 136.5 21.35 136.4 21.4 136.35
L 21.35 136.35
Q 17.65 136.5 11.5 136.8
M 54.65 133.7
Q 53.75 133.75 53.05 133.75 52.45 133.9 51.45 134.05 51.3 136.8 51.15 138.9 51.25 138.9 51.5 138.9 53.1 138.9 54.05 137.3 54.85 135.95 54.8 135.2 54.75 134.45 54.65 133.7
M 31.4 16.35
Q 31.3 15.95 31.2 15.7 29.95 8.95 26.9 4.95 21.15 -2.6 12.75 1.4 6.5 3.2 5.85 9.4 5.4 12.35 6.75 17.05 8.3 23 12.25 35.3 13.7 40 14.5 42.9 15.1 43.3 16.3 44.3 18.65 46.15 19.35 46.6 24.45 49.8 29.15 50.05 29.65 50.05 30.2 50.05 36 50.1 37.8 47.1 37.7 46.55 37.6 45.7 37.1 41.2 35.6 35.25 34.8 32.3 33.35 25.1 36.35 24.45 39.35 23.6 35.4 20 31.4 16.35
M 20.75 11.9
L 21.1 10.55
Q 22.35 10.85 23.3 11.55
L 22.45 12.65
Q 23.15 13.2 23.65 14
L 23.7 14.1 24.85 13.35 24.9 13.4
Q 25.5 14.45 25.7 15.65
L 24.3 15.85
Q 24.4 16.65 24.25 17.5
L 25.55 17.8 25.55 17.85
Q 25.25 19.05 24.55 20
L 23.45 19.2
Q 22.9 19.95 22.1 20.45
L 22.05 20.5 22.75 21.6 22.75 21.65
Q 21.65 22.3 20.5 22.45
L 20.3 21.1
Q 19.45 21.25 18.6 21
L 18.25 22.35
Q 16.95 22.05 16 21.35
L 16.85 20.25
Q 16.15 19.75 15.7 19
L 14.55 19.7 14.5 19.7
Q 14.5 19.65 14.5 19.6 13.8 18.55 13.65 17.4
L 15 17.2
Q 14.85 16.3 15.05 15.35
L 15.1 15.3 13.75 15
Q 14.05 13.7 14.8 12.75
L 14.85 12.75 15.9 13.55
Q 16.4 12.95 17.15 12.45
L 16.45 11.3 16.45 11.25
Q 17.55 10.6 18.75 10.45
L 18.95 11.8
Q 19.8 11.65 20.75 11.9
M 10.95 6.15
Q 11.55 5.55 12.3 5.25
L 12.65 6.1
Q 13.2 5.9 13.85 5.9
L 13.85 4.95 13.9 4.95
Q 14.75 4.95 15.5 5.3
L 15.1 6.15
Q 15.65 6.35 16.1 6.85 16.15 6.85 16.15 6.9
L 16.8 6.2 16.85 6.25
Q 17.4 6.85 17.7 7.6
L 16.85 7.95
Q 17.05 8.45 17.05 9.05
L 17.95 9.05
Q 17.95 9.95 17.65 10.65
L 16.8 10.25
Q 16.55 10.85 16.1 11.35
L 16.75 12
Q 16.1 12.6 15.35 12.9
L 15.35 12.95 15 12.05
Q 14.5 12.25 13.85 12.25
L 13.85 13.2
Q 13 13.2 12.25 12.85
L 12.6 12
Q 12.1 11.8 11.65 11.4
L 11 12.05 10.95 12
Q 10.35 11.35 10.05 10.65
L 10.9 10.3
Q 10.65 9.75 10.65 9.05
L 9.75 9.05
Q 9.75 8.15 10.1 7.4
L 10.95 7.75
Q 11.15 7.25 11.55 6.85
L 10.9 6.2
Q 10.95 6.2 10.95 6.15
M 14.65 7.3
Q 14.3 7.15 13.85 7.15 13.45 7.15 13.15 7.25
L 13.1 7.25
Q 12.75 7.4 12.5 7.7
L 12.45 7.7
Q 12.2 7.95 12.1 8.25
L 12.1 8.3
Q 11.9 8.65 11.9 9.05 11.9 9.5 12.05 9.85 12.2 10.15 12.5 10.45
L 12.5 10.5
Q 12.75 10.75 13.1 10.85
L 13.1 10.9
Q 13.45 11 13.85 11 14.25 11 14.55 10.9 14.9 10.75 15.2 10.5
L 15.2 10.45
Q 15.55 10.15 15.65 9.8
L 15.7 9.8
Q 15.8 9.45 15.8 9.05 15.8 8.7 15.7 8.4 15.55 8.05 15.25 7.75 15.25 7.7 15.2 7.7 14.95 7.45 14.65 7.3
M 22.15 15
Q 22.1 15 22.1 14.95 21.8 14.45 21.35 14.15 20.9 13.8 20.3 13.65 19.75 13.5 19.25 13.6
L 19.2 13.6
Q 18.65 13.7 18.15 14
L 18.1 14
Q 17.65 14.3 17.4 14.65
L 17.35 14.7
Q 17 15.15 16.85 15.75
L 16.85 15.8
Q 16.75 16.35 16.8 16.9
L 16.8 16.95
Q 16.9 17.45 17.2 17.95
L 17.2 18
Q 17.55 18.45 17.9 18.75
L 17.95 18.8
Q 18.4 19.1 18.95 19.25
L 19 19.25
Q 19.55 19.35 20 19.3
L 20.05 19.3
Q 20.6 19.25 21.1 18.9
L 21.15 18.9
Q 21.65 18.6 22 18.15
L 22 18.1
Q 22.3 17.65 22.45 17.1 22.55 16.55 22.5 16.1 22.4 15.5 22.15 15 Z"/>

<path fill="#000000" stroke="none" d="
M 16.3 44.3
Q 15.1 43.3 14.5 42.9 14.45 42.8 14.4 42.75 10.95 47 8.25 51.4 6.3 54.25 2.3 59.9 1.35 61.15 0 63.4 3.65 79.5 6.05 97.4 6 97.4 6.1 97.55 6.55 101 7 104.8 6.9 106.1 7.2 108.35 7.8 112.95 10.35 136.75 10.85 136.8 11.5 136.8 17.65 136.5 21.35 136.35
L 21.4 136.35
Q 21.35 136.4 21.35 136.5 21.35 136.6 21.35 136.75 21.2 137.45 21 138.55 20.6 140.45 19.8 141.9 19.1 142.8 16.6 143.4 16.2 143.5 15.75 143.6
L 16.85 143.4
Q 16.85 146.75 17.5 158.6 17.95 171.05 18.15 176.45 18.1 181.1 18 185.75 18 186 18.15 186.25 18.05 191.05 17.95 196 18.2 199.15 18.25 205.5 18.25 211.85 18.45 214.95 18.35 221.1 18.25 227.45 18.35 227.75 18.45 228 18.4 231.9 18.35 235.8 18.2 236.05 18.2 236.3
L 18.15 236.3
Q 18 236.55 18.05 236.75 18 237.1 18.15 237.2 18.25 237.6 18.9 237.6 19.1 237.5 19.3 237.35 19.85 237.25 20.6 237.35 20.7 237.35 20.95 237.35 20.65 237.95 20.35 238.7
L 20.2 238.75
Q 17.55 240.7 17.65 242.05 17.55 243.05 18.85 243.25 23.05 243.25 27.25 243.25 31.75 242.9 33.2 242.15 33.8 241.65 33.8 240.95 33.75 240.5 33.7 240.2 36.8 239.9 44.3 239.35 46.55 239.3 47.75 239.25 50.3 239.2 53 239.15 55.5 238.85 55.6 237.7 55.45 237.3 55.1 236.7 54.55 236.1 54 235.85 51.3 235.8 48.75 235.7 42.9 234.4 40.25 232.05 40.75 231.8 41.25 231.75 42.35 231.2 42.4 230.8 42.05 230.3 41.85 229.8 41.2 228.65 41.35 227.9 41.25 227.85 41.3 227.8 41.35 227.55 41.4 227.3 41.65 206.9 46.65 174.05 50.95 144.3 51.05 141.7 51 140.5 51.15 138.9 51.3 136.8 51.45 134.05 52.45 133.9 53.05 133.75 53.75 133.75 54.65 133.7 55.4 133.7 56.15 133.65 55.95 129.8 55.7 128.15 55.2 123.15 55.5 113.9 55.15 109.15 54.75 104.4 54.7 103.35 54.8 102.45 54.65 102.3 54.7 102.15 54.1 96 53.45 89.85 50 70 46.3 56.3 44.8 54.7 44.25 54.1 42.85 52.65 40.6 50.25
L 37.8 47.1
Q 36 50.1 30.2 50.05 29.65 50.05 29.15 50.05 24.45 49.8 19.35 46.6 18.65 46.15 16.3 44.3
M 19.65 48.7
Q 19.15 48.05 18.6 47.4 18.75 47.55 19.05 47.7 22.7 50.05 26.75 50.8 28.3 53.3 31.25 56.95 30.5 59.5 30.15 63 26.95 58.75 26.5 57.9 25.7 57 19.65 48.7
M 34.25 50.65
Q 35.65 50.2 36.85 49.5 37.15 49.2 37.45 48.9 38.7 50.15 39.75 51.35 38.3 55.65 36.85 61.35 35.4 59.45 33.35 57.1 33.3 57.05 33.25 57 34.05 53.15 34.25 50.65
M 30.3 236.7
Q 30.25 236.6 30.2 236.65 30.2 236.55 30.35 236.6 30.3 236.65 30.3 236.7 Z"/>

<path fill="#FFFFFF" stroke="none" d="
M 36.85 49.5
Q 35.65 50.2 34.25 50.65 34.05 53.15 33.25 57 33.3 57.05 33.35 57.1 35.4 59.45 36.85 61.35 38.3 55.65 39.75 51.35 38.7 50.15 37.45 48.9 37.15 49.2 36.85 49.5
M 18.6 47.4
Q 19.15 48.05 19.65 48.7 25.7 57 26.5 57.9 26.95 58.75 30.15 63 30.5 59.5 31.25 56.95 28.3 53.3 26.75 50.8 22.7 50.05 19.05 47.7 18.75 47.55 18.6 47.4
M 12.3 5.25
Q 11.55 5.55 10.95 6.15 10.95 6.2 10.9 6.2
L 11.55 6.85
Q 11.15 7.25 10.95 7.75
L 10.1 7.4
Q 9.75 8.15 9.75 9.05
L 10.65 9.05
Q 10.65 9.75 10.9 10.3
L 10.05 10.65
Q 10.35 11.35 10.95 12
L 11 12.05 11.65 11.4
Q 12.1 11.8 12.6 12
L 12.25 12.85
Q 13 13.2 13.85 13.2
L 13.85 12.25
Q 14.5 12.25 15 12.05
L 15.35 12.95 15.35 12.9
Q 16.1 12.6 16.75 12
L 16.1 11.35
Q 16.55 10.85 16.8 10.25
L 17.65 10.65
Q 17.95 9.95 17.95 9.05
L 17.05 9.05
Q 17.05 8.45 16.85 7.95
L 17.7 7.6
Q 17.4 6.85 16.85 6.25
L 16.8 6.2 16.15 6.9
Q 16.15 6.85 16.1 6.85 15.65 6.35 15.1 6.15
L 15.5 5.3
Q 14.75 4.95 13.9 4.95
L 13.85 4.95 13.85 5.9
Q 13.2 5.9 12.65 6.1
L 12.3 5.25
M 13.85 7.15
Q 14.3 7.15 14.65 7.3 14.95 7.45 15.2 7.7 15.25 7.7 15.25 7.75 15.55 8.05 15.7 8.4 15.8 8.7 15.8 9.05 15.8 9.45 15.7 9.8
L 15.65 9.8
Q 15.55 10.15 15.2 10.45
L 15.2 10.5
Q 14.9 10.75 14.55 10.9 14.25 11 13.85 11 13.45 11 13.1 10.9
L 13.1 10.85
Q 12.75 10.75 12.5 10.5
L 12.5 10.45
Q 12.2 10.15 12.05 9.85 11.9 9.5 11.9 9.05 11.9 8.65 12.1 8.3
L 12.1 8.25
Q 12.2 7.95 12.45 7.7
L 12.5 7.7
Q 12.75 7.4 13.1 7.25
L 13.15 7.25
Q 13.45 7.15 13.85 7.15
M 21.1 10.55
L 20.75 11.9
Q 19.8 11.65 18.95 11.8
L 18.75 10.45
Q 17.55 10.6 16.45 11.25
L 16.45 11.3 17.15 12.45
Q 16.4 12.95 15.9 13.55
L 14.85 12.75 14.8 12.75
Q 14.05 13.7 13.75 15
L 15.1 15.3 15.05 15.35
Q 14.85 16.3 15 17.2
L 13.65 17.4
Q 13.8 18.55 14.5 19.6 14.5 19.65 14.5 19.7
L 14.55 19.7 15.7 19
Q 16.15 19.75 16.85 20.25
L 16 21.35
Q 16.95 22.05 18.25 22.35
L 18.6 21
Q 19.45 21.25 20.3 21.1
L 20.5 22.45
Q 21.65 22.3 22.75 21.65
L 22.75 21.6 22.05 20.5 22.1 20.45
Q 22.9 19.95 23.45 19.2
L 24.55 20
Q 25.25 19.05 25.55 17.85
L 25.55 17.8 24.25 17.5
Q 24.4 16.65 24.3 15.85
L 25.7 15.65
Q 25.5 14.45 24.9 13.4
L 24.85 13.35 23.7 14.1 23.65 14
Q 23.15 13.2 22.45 12.65
L 23.3 11.55
Q 22.35 10.85 21.1 10.55
M 22.1 14.95
Q 22.1 15 22.15 15 22.4 15.5 22.5 16.1 22.55 16.55 22.45 17.1 22.3 17.65 22 18.1
L 22 18.15
Q 21.65 18.6 21.15 18.9
L 21.1 18.9
Q 20.6 19.25 20.05 19.3
L 20 19.3
Q 19.55 19.35 19 19.25
L 18.95 19.25
Q 18.4 19.1 17.95 18.8
L 17.9 18.75
Q 17.55 18.45 17.2 18
L 17.2 17.95
Q 16.9 17.45 16.8 16.95
L 16.8 16.9
Q 16.75 16.35 16.85 15.8
L 16.85 15.75
Q 17 15.15 17.35 14.7
L 17.4 14.65
Q 17.65 14.3 18.1 14
L 18.15 14
Q 18.65 13.7 19.2 13.6
L 19.25 13.6
Q 19.75 13.5 20.3 13.65 20.9 13.8 21.35 14.15 21.8 14.45 22.1 14.95 Z"/>
</g>

<g id="S_mbolo_2_0_Layer0_0_FILL">
<path fill="#FF3333" stroke="none" d="
M 12.2 146.9
Q 12.45 145.85 12.6 145.1
L 12.6 145.05
Q 12.6 144.88125 12.6 144.7 8.9 145 2.5 144.95 2.5 145.4 2.45 145.9 2.45 146.05 2.45 149 3.2 151.5 6.5 151.85 6.7 151.85 7.6 151.85 10.1 151.3 10.85 150.2 11.7 148.95 12.2 146.9
M 42.75 146.5
Q 44.3 146.5 45.3 144.9 46.05 143.7 46.05 142.85 46.05 142.1 45.95 141.4
L 44.4 141.4
Q 43.9 141.55 42.85 141.7 42.6 144.5 42.4 146.5 42.55 146.5 42.75 146.5
M 39.25 19
L 39.25 18.3
Q 39.35 11.3 37.65 6.7 34.55 -1.8 26.3 0.45 20.2 1.05 18.15 6.8 17.2 9.55 17.2 14.7 17.2 21.1 18.1 35.15 18.4 40.6 18.4 43.8 19.05 44.55 19.95 45.75 21.85 48.2 22.4 48.7 27.35 53.4 32.1 53.8 37.65 54.45 39.45 51.3 39.45 51.25 39.5 51.25 39.4 50.3 39.45 49.5 39.45 40.85 39.45 39 39.45 35.95 39.35 28.2
L 44.7 28 39.25 19
M 24.85 6.15
L 24.9 6.15
Q 25.75 6.15 26.5 6.5
L 26.1 7.35
Q 26.65 7.55 27.1 8.05 27.15 8.05 27.15 8.1
L 27.8 7.4 27.85 7.45
Q 28.4 8.05 28.7 8.8
L 27.85 9.15
Q 28.05 9.65 28.05 10.25
L 28.95 10.25
Q 28.95 11.15 28.65 11.85
L 27.8 11.45
Q 27.55 12.05 27.1 12.55
L 27.75 13.2
Q 27.1 13.8 26.35 14.1
L 26.35 14.15 26 13.25
Q 25.5 13.45 24.85 13.45
L 24.85 14.4
Q 24 14.4 23.25 14.05
L 23.6 13.2
Q 23.1 13 22.65 12.6
L 22 13.25 21.95 13.2
Q 21.35 12.55 21.05 11.85
L 21.9 11.5
Q 21.65 10.95 21.65 10.25
L 20.75 10.25
Q 20.75 9.35 21.1 8.6
L 21.95 8.95
Q 22.15 8.45 22.55 8.05
L 21.9 7.4
Q 21.95 7.4 21.95 7.35 22.55 6.75 23.3 6.45
L 23.65 7.3
Q 24.2 7.1 24.85 7.1
L 24.85 6.15
M 25.85 13.95
L 26.9 14.75
Q 27.4 14.15 28.15 13.65
L 27.45 12.5 27.45 12.45
Q 28.55 11.8 29.75 11.65
L 29.95 13
Q 30.8 12.85 31.75 13.1
L 32.1 11.75
Q 33.35 12.05 34.3 12.75
L 33.45 13.85
Q 34.15 14.4 34.65 15.2
L 34.7 15.3 35.85 14.55 35.9 14.6
Q 36.5 15.65 36.7 16.85
L 35.3 17.05
Q 35.4 17.85 35.25 18.7
L 36.55 19 36.55 19.05
Q 36.25 20.25 35.55 21.2
L 34.45 20.4
Q 33.9 21.15 33.1 21.65
L 33.05 21.7 33.75 22.8 33.75 22.85
Q 32.65 23.5 31.5 23.65
L 31.3 22.3
Q 30.45 22.45 29.6 22.2
L 29.25 23.55
Q 27.95 23.25 27 22.55
L 27.85 21.45
Q 27.15 20.95 26.7 20.2
L 25.55 20.9 25.5 20.9
Q 25.5 20.85 25.5 20.8 24.8 19.75 24.65 18.6
L 26 18.4
Q 25.85 17.5 26.05 16.55
L 26.1 16.5 24.75 16.2
Q 25.05 14.9 25.8 13.95
L 25.85 13.95
M 30.25 14.8
L 30.2 14.8
Q 29.65 14.9 29.15 15.2
L 29.1 15.2
Q 28.65 15.5 28.4 15.85
L 28.35 15.9
Q 28 16.35 27.85 16.95
L 27.85 17
Q 27.75 17.55 27.8 18.1
L 27.8 18.15
Q 27.9 18.65 28.2 19.15
L 28.2 19.2
Q 28.55 19.65 28.9 19.95
L 28.95 20
Q 29.4 20.3 29.95 20.45
L 30 20.45
Q 30.55 20.55 31 20.5
L 31.05 20.5
Q 31.6 20.45 32.1 20.1
L 32.15 20.1
Q 32.65 19.8 33 19.35
L 33 19.3
Q 33.3 18.85 33.45 18.3 33.55 17.75 33.5 17.3 33.4 16.7 33.15 16.2 33.1 16.2 33.1 16.15 32.8 15.65 32.35 15.35 31.9 15 31.3 14.85 30.75 14.7 30.25 14.8
M 24.1 8.45
Q 23.75 8.6 23.5 8.9
L 23.45 8.9
Q 23.2 9.15 23.1 9.45
L 23.1 9.5
Q 22.9 9.85 22.9 10.25 22.9 10.7 23.05 11.05 23.2 11.35 23.5 11.65
L 23.5 11.7
Q 23.75 11.95 24.1 12.05
L 24.1 12.1
Q 24.45 12.2 24.85 12.2 25.25 12.2 25.55 12.1 25.9 11.95 26.2 11.7
L 26.2 11.65
Q 26.55 11.35 26.65 11
L 26.7 11
Q 26.8 10.65 26.8 10.25 26.8 9.9 26.7 9.6 26.55 9.25 26.25 8.95 26.25 8.9 26.2 8.9 25.95 8.65 25.65 8.5 25.3 8.35 24.85 8.35 24.45 8.35 24.15 8.45
L 24.1 8.45 Z"/>

<path fill="#000000" stroke="none" d="
M 19.95 45.75
Q 19.05 44.55 18.4 43.8 14.25 47.75 10.7 51.95 8.2 54.75 3.1 60.3 2.05 61.45 0.15 63.75
L 0.15 104.2 0.2 104.35 0.2 112.3
Q 0 113.9 0 116.05 0 121.15 1.35 144.9 1.95 144.9 2.5 144.95 8.9 145 12.6 144.7
L 12.65 144.7
Q 12.6046875 144.88125 12.6 145.05
L 12.6 145.1
Q 12.45 145.85 12.2 146.9 11.7 148.95 10.85 150.2 10.1 151.3 7.6 151.85 7.7 155.1 8.25 166.8 8.75 179.3 9.05 184.65
L 9.05 193.95 9.25 194.4 9.25 204.15
Q 9.55 207.4 9.75 213.6 9.95 220 10.2 223.05
L 10.2 235.5 10.4 236.1 10.4 243.9
Q 10.3 244.15 10.25 244.35
L 10.2 244.35
Q 10.1 244.65 10.1 244.8 10.1 245.25 10.2 245.25 10.35 245.65 10.95 245.65 11.2 245.65 11.35 245.4 11.9 245.4 12.65 245.4 12.8 245.4 13 245.4 12.75 246.05 12.4 246.75 12.35 246.8 12.25 246.85 9.7 248.8 9.7 250.1 9.7 251.15 10.85 251.2
L 19.25 251.2
Q 23.9 251 25.25 250.2 25.85 249.85 25.85 249 25.85 248.65 25.75 248.25 28.85 248.05 36.35 247.35 38.7 247.45 39.8 247.25
L 45.05 247.15
Q 47.6 246.8 47.6 245.7 47.6 245.3 47.15 244.7 46.65 244.05 46.05 243.8
L 40.8 243.7
Q 35 242.45 32.3 240.05 32.85 239.9 33.3 239.75 34.45 239.35 34.45 238.8 34.2 238.4 33.9 237.85 33.35 236.8 33.35 235.9 33.35 235.85 33.3 235.8 33.4 235.55 33.4 235.3 33.4 214.85 37.75 181.7 42 151.9 42.2 149.25 42.25 148.15 42.4 146.5 42.6 144.5 42.85 141.7 43.9 141.55 44.4 141.4
L 45.95 141.4 47.45 141.35
Q 47.3 137.5 47.2 135.9 46.95 131 47.75 121.9
L 47.75 112.3 47.95 110.35 47.9 110.05 47.9 97.45
Q 46.95 77 45.55 62.35 44.45 60.5 44.05 59.8 43.2 58.3 41.75 55.9 40.3 53.65 39.5 51.25 39.45 51.25 39.45 51.3 37.65 54.45 32.1 53.8 27.35 53.4 22.4 48.7 21.85 48.2 19.95 45.75
M 38.2 53.95
Q 38.55 53.7 38.85 53.45 39.65 55 40.45 56.3 38.6 60.6 36.3 66.5 35.3 64.45 33.8 61.7 33.75 61.6 33.7 61.55 35.1 57.65 35.7 54.9 37.1 54.65 38.2 53.95
M 21.9 49.9
Q 24.95 52.95 28.8 54.2 29.85 57.15 31.85 61.3 30.8 64.1 29.8 67.8 27.6 63 27.15 61.95 26.65 61 22.25 51.1 21.9 50.3 21.55 49.5 21.7 49.7 21.9 49.9
M 22.35 244.75
Q 22.3 244.7 22.25 244.7 22.3 244.65 22.4 244.65 22.35 244.7 22.35 244.75 Z"/>

<path fill="#FFFFFF" stroke="none" d="
M 28.8 54.2
Q 24.95 52.95 21.9 49.9 21.7 49.7 21.55 49.5 21.9 50.3 22.25 51.1 26.65 61 27.15 61.95 27.6 63 29.8 67.8 30.8 64.1 31.85 61.3 29.85 57.15 28.8 54.2
M 38.85 53.45
Q 38.55 53.7 38.2 53.95 37.1 54.65 35.7 54.9 35.1 57.65 33.7 61.55 33.75 61.6 33.8 61.7 35.3 64.45 36.3 66.5 38.6 60.6 40.45 56.3 39.65 55 38.85 53.45
M 26.9 14.75
L 25.85 13.95 25.8 13.95
Q 25.05 14.9 24.75 16.2
L 26.1 16.5 26.05 16.55
Q 25.85 17.5 26 18.4
L 24.65 18.6
Q 24.8 19.75 25.5 20.8 25.5 20.85 25.5 20.9
L 25.55 20.9 26.7 20.2
Q 27.15 20.95 27.85 21.45
L 27 22.55
Q 27.95 23.25 29.25 23.55
L 29.6 22.2
Q 30.45 22.45 31.3 22.3
L 31.5 23.65
Q 32.65 23.5 33.75 22.85
L 33.75 22.8 33.05 21.7 33.1 21.65
Q 33.9 21.15 34.45 20.4
L 35.55 21.2
Q 36.25 20.25 36.55 19.05
L 36.55 19 35.25 18.7
Q 35.4 17.85 35.3 17.05
L 36.7 16.85
Q 36.5 15.65 35.9 14.6
L 35.85 14.55 34.7 15.3 34.65 15.2
Q 34.15 14.4 33.45 13.85
L 34.3 12.75
Q 33.35 12.05 32.1 11.75
L 31.75 13.1
Q 30.8 12.85 29.95 13
L 29.75 11.65
Q 28.55 11.8 27.45 12.45
L 27.45 12.5 28.15 13.65
Q 27.4 14.15 26.9 14.75
M 30.2 14.8
L 30.25 14.8
Q 30.75 14.7 31.3 14.85 31.9 15 32.35 15.35 32.8 15.65 33.1 16.15 33.1 16.2 33.15 16.2 33.4 16.7 33.5 17.3 33.55 17.75 33.45 18.3 33.3 18.85 33 19.3
L 33 19.35
Q 32.65 19.8 32.15 20.1
L 32.1 20.1
Q 31.6 20.45 31.05 20.5
L 31 20.5
Q 30.55 20.55 30 20.45
L 29.95 20.45
Q 29.4 20.3 28.95 20
L 28.9 19.95
Q 28.55 19.65 28.2 19.2
L 28.2 19.15
Q 27.9 18.65 27.8 18.15
L 27.8 18.1
Q 27.75 17.55 27.85 17
L 27.85 16.95
Q 28 16.35 28.35 15.9
L 28.4 15.85
Q 28.65 15.5 29.1 15.2
L 29.15 15.2
Q 29.65 14.9 30.2 14.8
M 24.9 6.15
L 24.85 6.15 24.85 7.1
Q 24.2 7.1 23.65 7.3
L 23.3 6.45
Q 22.55 6.75 21.95 7.35 21.95 7.4 21.9 7.4
L 22.55 8.05
Q 22.15 8.45 21.95 8.95
L 21.1 8.6
Q 20.75 9.35 20.75 10.25
L 21.65 10.25
Q 21.65 10.95 21.9 11.5
L 21.05 11.85
Q 21.35 12.55 21.95 13.2
L 22 13.25 22.65 12.6
Q 23.1 13 23.6 13.2
L 23.25 14.05
Q 24 14.4 24.85 14.4
L 24.85 13.45
Q 25.5 13.45 26 13.25
L 26.35 14.15 26.35 14.1
Q 27.1 13.8 27.75 13.2
L 27.1 12.55
Q 27.55 12.05 27.8 11.45
L 28.65 11.85
Q 28.95 11.15 28.95 10.25
L 28.05 10.25
Q 28.05 9.65 27.85 9.15
L 28.7 8.8
Q 28.4 8.05 27.85 7.45
L 27.8 7.4 27.15 8.1
Q 27.15 8.05 27.1 8.05 26.65 7.55 26.1 7.35
L 26.5 6.5
Q 25.75 6.15 24.9 6.15
M 23.5 8.9
Q 23.75 8.6 24.1 8.45
L 24.15 8.45
Q 24.45 8.35 24.85 8.35 25.3 8.35 25.65 8.5 25.95 8.65 26.2 8.9 26.25 8.9 26.25 8.95 26.55 9.25 26.7 9.6 26.8 9.9 26.8 10.25 26.8 10.65 26.7 11
L 26.65 11
Q 26.55 11.35 26.2 11.65
L 26.2 11.7
Q 25.9 11.95 25.55 12.1 25.25 12.2 24.85 12.2 24.45 12.2 24.1 12.1
L 24.1 12.05
Q 23.75 11.95 23.5 11.7
L 23.5 11.65
Q 23.2 11.35 23.05 11.05 22.9 10.7 22.9 10.25 22.9 9.85 23.1 9.5
L 23.1 9.45
Q 23.2 9.15 23.45 8.9
L 23.5 8.9 Z"/>
</g>

<g id="S_mbolo_3_0_Layer0_0_FILL">
<path fill="#FF3333" stroke="none" d="
M 0.45 136.75
Q 0.45 136.85 0.45 137.1 0.5 136.95 0.55 136.8 0.5 136.8 0.45 136.75
M 12.15 135.2
Q 12.15 135.05 12.15 134.95 12.15 134.846875 12.15 134.8 8.2 135 1.6 135 1.45 135.4 1.5 135.95 1.4 136.1 1.45 139.05 2.05 141.4 5.65 141.9 5.85 141.95 6.05 141.95 5.95 141.85 6 141.75 6.45 141.55 7.45 141.7 9.35 141.4 10.2 140.3 11.15 139.05 11.65 137 12 135.9 12.15 135.2
M 44.6 134.95
Q 45.3 133.65 45.35 132.9 45.35 132.15 45.3 131.4 44.5 131.45 43.9 131.45 43.4 131.6 42.5 131.75 42.15 134.55 41.95 136.5 42.1 136.45 42.25 136.55 43.65 136.55 44.6 134.95
M 53 23.3
Q 53 23 53.15 22.65 54.65 16.45 54.1 11.2 53.2 1.25 43.5 0.25 36.85 -1.05 33.6 4.05 31.95 6.35 31.1 11.4 29.8 17.5 28.5 31 28 36.1 27.55 39 27.95 39.85 28.75 41.15 30.25 43.7 30.75 44.25 35.45 49.55 39.9 50.8 44.35 52 45.75 51.7 47.1 51.4 47.2 51 49.1 42.2 49.45 40.65 49.85 37.95 51.25 31.45 53.65 32.35 56 33.2 54.5 28.45 53 23.3
M 41.05 7.95
L 41.7 7.25 41.75 7.3
Q 42.3 7.9 42.6 8.65
L 41.75 9
Q 41.95 9.5 41.95 10.1
L 42.85 10.1
Q 42.85 11 42.55 11.7
L 41.7 11.3
Q 41.45 11.9 41 12.4
L 41.65 13.05
Q 41 13.65 40.25 13.95
L 40.25 14 39.9 13.1
Q 39.4 13.3 38.75 13.3
L 38.75 14.25
Q 37.9 14.25 37.15 13.9
L 37.5 13.05
Q 37 12.85 36.55 12.45
L 35.9 13.1 35.85 13.05
Q 35.25 12.4 34.95 11.7
L 35.8 11.35
Q 35.55 10.8 35.55 10.1
L 34.65 10.1
Q 34.65 9.2 35 8.45
L 35.85 8.8
Q 36.05 8.3 36.45 7.9
L 35.8 7.25
Q 35.85 7.25 35.85 7.2 36.45 6.6 37.2 6.3
L 37.55 7.15
Q 38.1 6.95 38.75 6.95
L 38.75 6 38.8 6
Q 39.65 6 40.4 6.35
L 40 7.2
Q 40.55 7.4 41 7.9 41.05 7.9 41.05 7.95
M 41.35 12.35
L 41.35 12.3
Q 42.45 11.65 43.65 11.5
L 43.85 12.85
Q 44.7 12.7 45.65 12.95
L 46 11.6
Q 47.25 11.9 48.2 12.6
L 47.35 13.7
Q 48.05 14.25 48.55 15.05
L 48.6 15.15 49.75 14.4 49.8 14.45
Q 50.4 15.5 50.6 16.7
L 49.2 16.9
Q 49.3 17.7 49.15 18.55
L 50.45 18.85 50.45 18.9
Q 50.15 20.1 49.45 21.05
L 48.35 20.25
Q 47.8 21 47 21.5
L 46.95 21.55 47.65 22.65 47.65 22.7
Q 46.55 23.35 45.4 23.5
L 45.2 22.15
Q 44.35 22.3 43.5 22.05
L 43.15 23.4
Q 41.85 23.1 40.9 22.4
L 41.75 21.3
Q 41.05 20.8 40.6 20.05
L 39.45 20.75 39.4 20.75
Q 39.4 20.7 39.4 20.65 38.7 19.6 38.55 18.45
L 39.9 18.25
Q 39.75 17.35 39.95 16.4
L 40 16.35 38.65 16.05
Q 38.95 14.75 39.7 13.8
L 39.75 13.8 40.8 14.6
Q 41.3 14 42.05 13.5
L 41.35 12.35
M 47.35 18.15
Q 47.45 17.6 47.4 17.15 47.3 16.55 47.05 16.05 47 16.05 47 16 46.7 15.5 46.25 15.2 45.8 14.85 45.2 14.7 44.65 14.55 44.15 14.65
L 44.1 14.65
Q 43.55 14.75 43.05 15.05
L 43 15.05
Q 42.55 15.35 42.3 15.7
L 42.25 15.75
Q 41.9 16.2 41.75 16.8
L 41.75 16.85
Q 41.65 17.4 41.7 17.95
L 41.7 18
Q 41.8 18.5 42.1 19
L 42.1 19.05
Q 42.45 19.5 42.8 19.8
L 42.85 19.85
Q 43.3 20.15 43.85 20.3
L 43.9 20.3
Q 44.45 20.4 44.9 20.35
L 44.95 20.35
Q 45.5 20.3 46 19.95
L 46.05 19.95
Q 46.55 19.65 46.9 19.2
L 46.9 19.15
Q 47.2 18.7 47.35 18.15
M 40.7 10.1
Q 40.7 9.75 40.6 9.45 40.45 9.1 40.15 8.8 40.15 8.75 40.1 8.75 39.85 8.5 39.55 8.35 39.2 8.2 38.75 8.2 38.35 8.2 38.05 8.3
L 38 8.3
Q 37.65 8.45 37.4 8.75
L 37.35 8.75
Q 37.1 9 37 9.3
L 37 9.35
Q 36.8 9.7 36.8 10.1 36.8 10.55 36.95 10.9 37.1 11.2 37.4 11.5
L 37.4 11.55
Q 37.65 11.8 38 11.9
L 38 11.95
Q 38.35 12.05 38.75 12.05 39.15 12.05 39.45 11.95 39.8 11.8 40.1 11.55
L 40.1 11.5
Q 40.45 11.2 40.55 10.85
L 40.6 10.85
Q 40.7 10.5 40.7 10.1 Z"/>

<path fill="#000000" stroke="none" d="
M 28.75 41.15
Q 27.95 39.85 27.55 39 22.65 41.65 18.15 44.9 15 46.75 8.8 51.15 7.45 51.9 5.25 54 2.85 74.15 1.25 94.25 1.2 94.25 1.3 94.4 1 98.3 0.7 102.35 0.4 103.85 0.3 106.15 -0.35 111.05 0.4 134.9 0.9 134.85 1.6 135 8.2 135 12.15 134.8
L 12.2 134.8
Q 12.153125 134.846875 12.15 134.95 12.15 135.05 12.15 135.2 12 135.9 11.65 137 11.15 139.05 10.2 140.3 9.35 141.4 7.45 141.7 6.45 141.55 6 141.75 5.95 141.85 6.05 141.95 6.65 145.05 7.25 156.9 7.8 169.3 8.15 174.7 8.2 179.35 8.25 183.95 8.35 184.2 8.45 184.45 8.6 189.25 8.55 194.2 8.9 197.35 9.2 203.65 9.4 210 9.75 213.1 9.75 219.25 9.9 225.55 10 225.85 10.1 226.1 10.1 230 10.1 233.9 9.95 234.15 9.95 234.4
L 9.9 234.4
Q 9.75 234.65 9.8 234.85 9.75 235.2 9.9 235.3 10 235.7 10.65 235.7 10.85 235.6 11.05 235.45 11.6 235.35 12.35 235.45 12.45 235.45 12.7 235.45 12.4 236.05 12.1 236.8
L 11.95 236.85
Q 9.3 238.8 9.4 240.15 9.3 241.15 10.6 241.3 14.8 241.3 19 241.3 23.5 240.95 24.95 240.2 25.55 239.7 25.55 239 25.5 238.55 25.45 238.25 28.55 238 36.05 237.35 38.3 237.3 39.5 237.25 42.05 237.15 44.75 237.2 47.25 236.85 47.3 235.7 47.2 235.25 46.85 234.75 46.3 234.1 45.75 233.85 43.05 233.8 40.5 233.7 34.7 232.4 32.05 230.05 32.55 229.8 33.05 229.75 34.05 229.2 34.2 228.8 33.85 228.3 33.65 227.8 33 226.65 33.1 225.9 33 225.85 33.05 225.8 33.1 225.55 33.15 225.3 32.95 204.7 37.1 171.65 41.2 141.85 41.65 139.25 41.7 138.2 41.95 136.5 42.15 134.55 42.5 131.75 43.4 131.6 43.9 131.45 44.5 131.45 45.3 131.4 45.95 131.4 46.6 131.35 46.6 127.55 46.6 125.9 46.4 121 47.75 111.9 47.95 107.15 48.3 102.75 48.3 101.75 48.65 100.95 48.5 100.75 48.55 100.7 49 94.95 49.45 89.6 50.25 72.55 51.2 61.05 50.55 59.35 50.3 58.8 49.75 57.15 48.65 54.5
L 47.2 51
Q 47.1 51.4 45.75 51.7 44.35 52 39.9 50.8 35.45 49.55 30.75 44.25 30.25 43.7 28.75 41.15
M 29.8 44.85
Q 29.855859375 45.0546875 30.1 45.25 32.55 48.4 36.55 50.35 37.15 53.05 38.7 57.15 37.15 59.15 35.75 62.3 34.05 57.55 33.75 56.75 33.2 55.8 30.2 46.4 30.001171875 45.654296875 29.8 44.85
M 40.5 57.75
Q 42.55 54.65 43.4 52.7 44.95 52.65 45.9 52.5
L 46.6 52.35
Q 47.15 53.75 47.65 55.1 45.35 58 42.4 62.45 41.8 60.5 40.6 57.9 40.55 57.75 40.5 57.75
M 22.05 234.7
Q 22 234.7 21.95 234.7 21.95 234.6 22.05 234.65 22 234.65 22.05 234.7 Z"/>

<path fill="#FFFFFF" stroke="none" d="
M 43.4 52.7
Q 42.55 54.65 40.5 57.75 40.55 57.75 40.6 57.9 41.8 60.5 42.4 62.45 45.35 58 47.65 55.1 47.15 53.75 46.6 52.35
L 45.9 52.5
Q 44.95 52.65 43.4 52.7
M 30.1 45.25
Q 29.855859375 45.0546875 29.8 44.85 30.001171875 45.654296875 30.2 46.4 33.2 55.8 33.75 56.75 34.05 57.55 35.75 62.3 37.15 59.15 38.7 57.15 37.15 53.05 36.55 50.35 32.55 48.4 30.1 45.25
M 41.35 12.3
L 41.35 12.35 42.05 13.5
Q 41.3 14 40.8 14.6
L 39.75 13.8 39.7 13.8
Q 38.95 14.75 38.65 16.05
L 40 16.35 39.95 16.4
Q 39.75 17.35 39.9 18.25
L 38.55 18.45
Q 38.7 19.6 39.4 20.65 39.4 20.7 39.4 20.75
L 39.45 20.75 40.6 20.05
Q 41.05 20.8 41.75 21.3
L 40.9 22.4
Q 41.85 23.1 43.15 23.4
L 43.5 22.05
Q 44.35 22.3 45.2 22.15
L 45.4 23.5
Q 46.55 23.35 47.65 22.7
L 47.65 22.65 46.95 21.55 47 21.5
Q 47.8 21 48.35 20.25
L 49.45 21.05
Q 50.15 20.1 50.45 18.9
L 50.45 18.85 49.15 18.55
Q 49.3 17.7 49.2 16.9
L 50.6 16.7
Q 50.4 15.5 49.8 14.45
L 49.75 14.4 48.6 15.15 48.55 15.05
Q 48.05 14.25 47.35 13.7
L 48.2 12.6
Q 47.25 11.9 46 11.6
L 45.65 12.95
Q 44.7 12.7 43.85 12.85
L 43.65 11.5
Q 42.45 11.65 41.35 12.3
M 47.4 17.15
Q 47.45 17.6 47.35 18.15 47.2 18.7 46.9 19.15
L 46.9 19.2
Q 46.55 19.65 46.05 19.95
L 46 19.95
Q 45.5 20.3 44.95 20.35
L 44.9 20.35
Q 44.45 20.4 43.9 20.3
L 43.85 20.3
Q 43.3 20.15 42.85 19.85
L 42.8 19.8
Q 42.45 19.5 42.1 19.05
L 42.1 19
Q 41.8 18.5 41.7 18
L 41.7 17.95
Q 41.65 17.4 41.75 16.85
L 41.75 16.8
Q 41.9 16.2 42.25 15.75
L 42.3 15.7
Q 42.55 15.35 43 15.05
L 43.05 15.05
Q 43.55 14.75 44.1 14.65
L 44.15 14.65
Q 44.65 14.55 45.2 14.7 45.8 14.85 46.25 15.2 46.7 15.5 47 16 47 16.05 47.05 16.05 47.3 16.55 47.4 17.15
M 41.7 7.25
L 41.05 7.95
Q 41.05 7.9 41 7.9 40.55 7.4 40 7.2
L 40.4 6.35
Q 39.65 6 38.8 6
L 38.75 6 38.75 6.95
Q 38.1 6.95 37.55 7.15
L 37.2 6.3
Q 36.45 6.6 35.85 7.2 35.85 7.25 35.8 7.25
L 36.45 7.9
Q 36.05 8.3 35.85 8.8
L 35 8.45
Q 34.65 9.2 34.65 10.1
L 35.55 10.1
Q 35.55 10.8 35.8 11.35
L 34.95 11.7
Q 35.25 12.4 35.85 13.05
L 35.9 13.1 36.55 12.45
Q 37 12.85 37.5 13.05
L 37.15 13.9
Q 37.9 14.25 38.75 14.25
L 38.75 13.3
Q 39.4 13.3 39.9 13.1
L 40.25 14 40.25 13.95
Q 41 13.65 41.65 13.05
L 41 12.4
Q 41.45 11.9 41.7 11.3
L 42.55 11.7
Q 42.85 11 42.85 10.1
L 41.95 10.1
Q 41.95 9.5 41.75 9
L 42.6 8.65
Q 42.3 7.9 41.75 7.3
L 41.7 7.25
M 40.6 9.45
Q 40.7 9.75 40.7 10.1 40.7 10.5 40.6 10.85
L 40.55 10.85
Q 40.45 11.2 40.1 11.5
L 40.1 11.55
Q 39.8 11.8 39.45 11.95 39.15 12.05 38.75 12.05 38.35 12.05 38 11.95
L 38 11.9
Q 37.65 11.8 37.4 11.55
L 37.4 11.5
Q 37.1 11.2 36.95 10.9 36.8 10.55 36.8 10.1 36.8 9.7 37 9.35
L 37 9.3
Q 37.1 9 37.35 8.75
L 37.4 8.75
Q 37.65 8.45 38 8.3
L 38.05 8.3
Q 38.35 8.2 38.75 8.2 39.2 8.2 39.55 8.35 39.85 8.5 40.1 8.75 40.15 8.75 40.15 8.8 40.45 9.1 40.6 9.45 Z"/>
</g>
</defs>

<g transform="matrix( 1, 0, 0, 1, 0,0) ">
<use xlink:href="#Layer2_0_FILL"/>
</g>

<g transform="matrix( 1.413330078125, 0, 0, 1.413330078125, 51.3,44.5) ">
<g transform="matrix( 1, 0, 0, 1, 0,0) ">
<use xlink:href="#S_mbolo_1_0_Layer0_0_FILL"/>
</g>
</g>

<g transform="matrix( 1.413330078125, 0, 0, 1.413330078125, 233.95,38.9) ">
<g transform="matrix( 1, 0, 0, 1, 0,0) ">
<use xlink:href="#S_mbolo_2_0_Layer0_0_FILL"/>
</g>
</g>

<g transform="matrix( 1.413330078125, 0, 0, 1.413330078125, 400.75,45.9) ">
<g transform="matrix( 1, 0, 0, 1, 0,0) ">
<use xlink:href="#S_mbolo_3_0_Layer0_0_FILL"/>
</g>
</g>
</svg>
