
<svg xmlns="http://www.w3.org/2000/svg" version="1.1" xmlns:xlink="http://www.w3.org/1999/xlink" preserveAspectRatio="none" x="0px" y="0px" width="550px" height="400px" viewBox="0 0 550 400">
<defs>
<linearGradient id="Gradient_1" gradientUnits="userSpaceOnUse" x1="-286.7875" y1="318.25" x2="-261.9125" y2="-448.05000000000007" spreadMethod="pad">
<stop  offset="0%" stop-color="#B4FFD7"/>

<stop  offset="100%" stop-color="#84AECC"/>
</linearGradient>

<linearGradient id="Gradient_2" gradientUnits="userSpaceOnUse" x1="175.0625" y1="143.925" x2="231.4375" y2="111.375" spreadMethod="pad">
<stop  offset="0%" stop-color="#663300"/>

<stop  offset="100%" stop-color="#CC9966"/>
</linearGradient>

<linearGradient id="Gradient_3" gradientUnits="userSpaceOnUse" x1="248.3625" y1="263.5875" x2="260.2375" y2="315.9125" spreadMethod="pad">
<stop  offset="0%" stop-color="#993300"/>

<stop  offset="100%" stop-color="#D94800"/>
</linearGradient>

<linearGradient id="Gradient_4" gradientUnits="userSpaceOnUse" x1="253.75000000000003" y1="286.27500000000003" x2="260.95000000000005" y2="317.425" spreadMethod="pad">
<stop  offset="0%" stop-color="#993300"/>

<stop  offset="100%" stop-color="#D94800"/>
</linearGradient>

<radialGradient id="Gradient_5" gradientUnits="userSpaceOnUse" cx="0" cy="0" r="201.03750000000002" fx="0" fy="0" gradientTransform="matrix( 0.9999999999999999, 0, 0, 0.9999999999999999, 276.95,330.2) " spreadMethod="pad">
<stop  offset="0%" stop-color="#A8E505"/>

<stop  offset="100%" stop-color="#329800"/>
</radialGradient>

<radialGradient id="Gradient_6" gradientUnits="userSpaceOnUse" cx="0" cy="0" r="150.425" fx="0" fy="0" gradientTransform="matrix( 1, 0, 0, 1.0029084261259764, 270.5,315.95) " spreadMethod="pad">
<stop  offset="0%" stop-color="#84B404"/>

<stop  offset="100%" stop-color="#287B00"/>
</radialGradient>

<radialGradient id="Gradient_7" gradientUnits="userSpaceOnUse" cx="0" cy="0" r="201.03750000000002" fx="0" fy="0" gradientTransform="matrix( 0.9999999999999999, 0, 0, 0.9999999999999999, 272.6,422.75) " spreadMethod="pad">
<stop  offset="0%" stop-color="#A8E505"/>

<stop  offset="100%" stop-color="#329800"/>
</radialGradient>

<radialGradient id="Gradient_8" gradientUnits="userSpaceOnUse" cx="0" cy="0" r="201.03750000000002" fx="0" fy="0" gradientTransform="matrix( 0.9999999999999999, 0, 0, 0.9999999999999999, 272.6,291.15) " spreadMethod="pad">
<stop  offset="0%" stop-color="#A8E505"/>

<stop  offset="100%" stop-color="#329800"/>
</radialGradient>

<g id="Layer8_0_FILL">
<path fill="#66CC99" stroke="none" d="
M 69.4 343.1
L 69.4 376.5
Q 69.4 397.05 83.9 411.55 98.45 426.1 119 426.1
L 196.6 426.1
Q 190.4458984375 414.8849609375 183.15 405.1 175.948046875 395.41796875 167.6 387.15 162.8748046875 382.4421875 157.75 378.2 152.56796875 373.8869140625 147 370.05 144.630078125 368.4361328125 142.2 366.9 138.4048828125 364.5146484375 134.45 362.35 132.9134765625 361.491015625 131.35 360.65 129.309765625 359.619140625 127.25 358.6 127.11953125 358.5576171875 127 358.5 122.13359375 356.1447265625 117.05 354.1 92.4896484375 344.2044921875 69.4 343.1
M 397.9 330.3
Q 373.1 346 356 373.9 342.65 395.65 335.45 422.1 334.893359375 424.1376953125 334.4 426.1
L 388.75 426.1
Q 409.3 426.1 423.8 411.55 438.35 397.05 438.35 376.5
L 438.35 314.1
Q 416.3111328125 318.6201171875 397.9 330.3 Z"/>

<path fill="url(#Gradient_1)" stroke="none" d="
M 119 -192.75
Q 98.45 -192.75 83.9 -178.25 69.4 -163.7 69.4 -143.15
L 69.4 343.1
Q 92.4896484375 344.2044921875 117.05 354.1 122.13359375 356.1447265625 127 358.5 127.11953125 358.5576171875 127.25 358.6 129.309765625 359.619140625 131.35 360.65 132.9134765625 361.491015625 134.45 362.35 138.4048828125 364.5146484375 142.2 366.9 144.630078125 368.4361328125 147 370.05 152.56796875 373.8869140625 157.75 378.2 162.8748046875 382.4421875 167.6 387.15 175.948046875 395.41796875 183.15 405.1 190.4458984375 414.8849609375 196.6 426.1
L 334.4 426.1
Q 334.893359375 424.1376953125 335.45 422.1 342.65 395.65 356 373.9 373.1 346 397.9 330.3 416.3111328125 318.6201171875 438.35 314.1
L 438.35 -143.15
Q 438.35 -163.7 423.8 -178.25 409.3 -192.75 388.75 -192.75
L 119 -192.75 Z"/>
</g>

<g id="Layer7_0_FILL">
<path fill="#A33600" stroke="none" d="
M 288.3 311.5
Q 288.25 311.95 288.25 312.45 288.2 312.95 288.15 313.55 288.1 314.8 287.95 316.5 287.7 320.4 287.5 322.55 287.65 322.55 287.85 322.55 288.15 322.55 288.55 322.6
L 289.4 314
Q 292.15 315.1 298.95 317.7 297.6 318.8 294.7 321 293.1 322.25 292.1 323 292.6 323.1 293.2 323.2 295.25 321.5 299.05 318.45 299.2 318.15 299.3 317.85 299.45 317.9 299.6 318 299.35 318.2 299.05 318.45 298.8 319.05 298.55 319.75 297.4 322.65 297 324.1 297.45 324.2 297.95 324.35 298.45 323.05 299.8 319.85 300.15 319 300.45 318.3 300.65 317.55 300.9 317.05 300.4 316.9 299.75 316.7 297.85 316.15 294.75 315 291.3 313.75 289.5 313
L 289.75 310.9
Q 289 310.8 288.35 310.75 273.85 309.5 271.15 309.3 271.25 309.9 271.3 310.45 275.7 310.7 282.1 311.1 285.85 311.35 288.3 311.5 Z"/>

<path fill="#5D1F00" stroke="none" d="
M 224.85 315.4
Q 224.25 315.65 223.75 315.85 223.3 315 222.9 314.4 222.7 313.95 222.5 313.6 222.05 313.9 221.3 314.35 218.5 316.15 211.5 320.75 211 321.1 210.55 321.4 210.7 321.75 210.9 322.1 208.75 323.15 205.05 325 199.55 327.65 196 329.45 195.2 329.9 194.45 330.25 194.15 330.35 193.85 330.55 193.3 330.8 192.8 331.1 193.05 331.4 193.35 331.8 193.5 332 193.6 332.15 194 331.95 194.7 331.65 194.65 331.55 194.55 331.45
L 194.85 331.6
Q 194.8 331.6 194.7 331.65 195.95 333.3 197.55 335.55 198.65 337.05 199.45 338.15 200.65 337.55 201.8 337.05 200.8 335.6 199.25 333.6 199 333.3 198.8 333
L 205.3 335.4
Q 205.95 335.1 206.65 334.8 204.45 333.8 200.4 332.35 198.7 331.75 197.5 331.35 196.8 331.1 196.3 330.95 196.55 330.75 196.95 330.6 201.55 328.4 211.65 323.6 213.05 326.35 215.45 331.2
L 215.45 331.15
Q 216.05 330.95 216.7 330.75 215.4 328.35 212.7 323.1 213.15 322.85 213.7 322.6 213.9 322.05 213.65 321.7 213.45 321.5 213.3 321.25 218.95 317.2 221.75 315.25 222 315.75 222.3 316.4 222.6 316.95 223 317.65 223.95 319.4 225.5 321.85 227.15 324.5 228.75 327.05 229.3 326.9 229.8 326.75 226.4 320.6 224.4 317.05 225.3 316.65 226.5 316.15 228.8 315.25 229.85 314.85
L 229.3 313.5 228.8 313.75
Q 228.75 313.75 228.5 313.85 227.7 314.15 224.85 315.4 Z"/>
</g>

<g id="Layer6_0_FILL">
<path fill="url(#Gradient_2)" stroke="none" d="
M 277.9 243.4
Q 277.85 243.45 277.85 243.55 277.3 244.35 276.95 245.05 276.85 245.25 276.7 245.45 276.85 245.6 277 245.75 284.65 253.5 284.75 253.35
L 284.8 253.3
Q 284.75 253.3 284.95 253.45 285.25 253.1 285.55 252.75 285.8 252.3 286.1 251.8 286.35 251.35 286.65 250.85 286.9 250.45 287.2 249.85 287.5 249.15 287.85 248.5 285.6 246.9 280.4 243 279.5 242.35 278.75 241.75 278.6 241.95 278.6 242.15 278.2 242.8 277.9 243.4
M 259.2 243.15
Q 259.05 243 258.85 242.8 258.7 243 258.55 243.15 250.95 250.75 251.15 250.9
L 251.2 251
Q 251.15 250.95 251.05 251.15 251.4 251.55 251.8 251.9 252.65 252.75 253.9 253.65 254.4 254.1 255.05 254.55 255.85 255.1 256.5 255.6 258.15 253.05 261.75 247.45 262.25 246.55 262.85 245.75 262.6 245.6 262.45 245.45 261.65 244.95 261 244.5 260 243.8 259.2 243.15
M 256.05 234.85
Q 255.9 234.25 255.85 233.7 255.8 233.2 255.75 232.75 255.7 232.45 255.7 232.25 255.5 232.2 255.25 232.2 244.6 230.75 244.6 231
L 244.6 231.1
Q 244.55 231.05 244.35 231 244.3 231.5 244.3 232 244.3 232.35 244.35 232.85 244.35 233.55 244.35 234.45 244.45 235.05 244.6 235.75 244.65 236.65 244.75 237.45 247.7 237.25 254.35 236.9 255.4 236.85 256.45 236.8 256.4 236.6 256.35 236.4 256.15 235.55 256.05 234.85
M 269.9 247.8
Q 269.35 247.85 268.85 247.9 268.35 247.9 267.85 247.95
L 267.75 247.95
Q 267.55 247.95 267.4 247.95 267.35 248.15 267.4 248.4 267.4 250 267.45 251.45 267.45 252.65 267.5 253.65 267.55 258 267.7 259.25
L 267.75 259.7 267.75 259.75 267.85 259.75
Q 267.8 259.7515625 267.8 259.8 267.8 259.85 267.8 260 267.9 260 267.95 260 268.4 260 268.85 260.05 269.35 260.05 269.9 260 270.5 260 271.2 259.9
L 271.25 259.9
Q 271.85 259.85 272.55 259.8 273.4 259.65 274.1 259.55 273.55 256.5 272.2 249.65 272 248.75 271.9 247.9 271.85 247.65 271.8 247.5 271.6 247.55 271.4 247.55 270.7 247.65 270.05 247.8
L 270 247.8
Q 269.95 247.8 269.9 247.8
M 251.95 217.5
L 251.8 217.3
Q 251.45 217.6 251.15 217.9 250.5 218.45 249.85 219.25 249.75 219.3 249.7 219.4 249.3 219.8 248.95 220.3 248.45 220.9 248 221.4 250.35 223.1 255.65 227.05 256.55 227.7 257.35 228.35 257.45 228.1 257.55 228 257.95 227.35 258.35 226.8 258.6 226.45 258.8 226.2 259.15 225.75 259.45 225.35 259.6 225.15 259.7 225 259.6 224.9 259.45 224.7 252.15 217.3 252 217.45
L 251.95 217.5
M 282.45 221.9
L 282.4 221.85 282.55 221.75
Q 282.2 221.45 281.85 221.1 281.15 220.45 280.2 219.7 279.7 219.35 279.2 219 278.6 218.5 278 218.1 276.9 219.85 274.15 224 273.7 224.7 273.25 225.4 273.45 225.5 273.65 225.6 274.3 226.05 274.9 226.45 275.8 227.15 276.5 227.7 276.65 227.9 276.85 228.05 276.95 227.9 277.1 227.75 282.65 222.05 282.45 221.9
M 268.8 213.8
Q 268.4 213.65 267.95 213.65 267.05 213.5 265.85 213.5 265.35 213.45 264.75 213.45 263.95 213.45 263.3 213.45 263.75 215.8 264.8 221.4 265 222.35 265.15 223.25 265.35 223.25 265.55 223.25 266.25 223.15 266.95 223.15 268 223.1 268.8 223.15 268.95 223.15 269.1 223.15 269.2 223.15 269.25 223.15 269.25 223 269.25 222.8 269.05 214 268.85 214
L 268.8 213.95
Q 268.85 213.95 268.8 213.8
M 289.65 237.25
Q 289.55 236.6 289.4 235.75 289.2 235.2 289.05 234.6 288.9 233.85 288.7 233.15 286.45 233.25 281 233.55 280.05 233.55 279.2 233.6 279.3 233.8 279.35 234 279.4 234.1 279.45 234.2 279.6 234.85 279.75 235.45 280 236.6 280.15 237.45 280.2 237.7 280.25 237.9 280.4 237.9 280.6 237.95 289.7 239.15 289.7 238.9
L 289.7 238.8
Q 289.701171875 238.85 289.85 238.85 289.85 238.4 289.8 237.95 289.75 237.65 289.65 237.25 Z"/>

<path fill="#333333" stroke="none" d="
M 259.95 225.25
Q 259.85 225.1 259.7 225 259.6 225.15 259.45 225.35 259.15 225.75 258.8 226.2 258.6 226.45 258.35 226.8 257.95 227.35 257.55 228 257.45 228.1 257.35 228.35 257.55 228.45 257.75 228.6 261.75 231.55 264.2 233.45 258.9 232.7 256.05 232.3 255.85 232.25 255.7 232.25 255.7 232.45 255.75 232.75 255.8 233.2 255.85 233.7 255.9 234.25 256.05 234.85 256.15 235.55 256.35 236.4 256.4 236.6 256.45 236.8 256.7 236.8 256.9 236.8 262.25 236.5 265.25 236.4 261.2 240.45 259.05 242.6 258.9 242.7 258.85 242.8 259.05 243 259.2 243.15 260 243.8 261 244.5 261.65 244.95 262.45 245.45 262.6 245.6 262.85 245.75 262.9 245.55 263.05 245.35 265.1 242.15 266.45 240 266.65 244.7 266.7 249.4 266.7 249.85 266.7 252.55 266.7 253.6 266.7 254.9 266.7 256.45 266.7 258.55 266.7 259.15 266.7 259.75 266.7 261.7 266.7 263.95 266.7 273.15 266.6 282.2 266.6 282.85 266.6 283.55 266.55 284.65 266.55 285.75 266.55 286.7 266.55 287.65 266.35 303 265.9 317.75 265.85 318.2 265.85 318.75 265.8 321.25 265.7 323.8 266.25 323.75 266.95 323.8 266.95 320.8 266.95 317.9 269.9 315.65 274.25 311.65 274.8 318.2 275.3 323.8 276.05 323.8 276.7 323.8 276.25 317.35 275.75 310.35 276.15 309.9 276.55 309.5 279.1 307.15 281.9 304.5 284.1 318 285.25 324.15 285.45 324.15 285.7 324.15 286.25 324.15 286.85 324.15 285 312.4 283.5 302.95 283.4 302.15 283.25 301.35 283.25 301 283.15 300.6 283.05 299.9 282.95 299.2 281.05 287.4 279.65 279.55 279 275.7 278.35 272 278.25 271.45 278.15 270.95 278.05 270.5 277.95 270.05 277.85 269.5 277.75 268.95 275.5 256.85 273.05 246.4 272.85 245.35 272.6 244.4 272.05 242.2 271.55 240.15 272.85 241.5 273.95 242.65 274.55 243.2 275.05 243.75 275.8 244.5 276.45 245.15 276.6 245.35 276.7 245.45 276.85 245.25 276.95 245.05 277.3 244.35 277.85 243.55 277.85 243.45 277.9 243.4 278.2 242.8 278.6 242.15 278.6 241.95 278.75 241.75 278.55 241.65 278.35 241.5 274.45 238.6 272.1 236.85 277.25 237.5 279.9 237.85 280.05 237.9 280.25 237.9 280.2 237.7 280.15 237.45 280 236.6 279.75 235.45 279.6 234.85 279.45 234.2 279.4 234.1 279.35 234 279.3 233.8 279.2 233.6 279 233.6 278.8 233.65 273.85 233.85 271.05 233.9 274.8 230.05 276.65 228.2 276.75 228.1 276.85 228.05 276.65 227.9 276.5 227.7 275.8 227.15 274.9 226.45 274.3 226.05 273.65 225.6 273.45 225.5 273.25 225.4 273.15 225.55 273.05 225.7 270.8 229.1 269.35 231.25 269.3 226.25 269.25 223.65 269.25 223.5 269.25 223.45
L 269.25 223.4
Q 269.25 223.25 269.25 223.15 269.2 223.15 269.1 223.15 268.95 223.15 268.8 223.15 268 223.1 266.95 223.15 266.25 223.15 265.55 223.25 265.35 223.25 265.15 223.25 265.2 223.45 265.2 223.65 266.25 229.2 266.75 232.15 262.2 227.5 259.95 225.25
M 259.1 226.4
Q 259.45 225.95 259.65 225.55 261.65 227.65 262.85 228.85 264.55 230.5 266.85 232.7
L 266.9 232.75
Q 266.75 232.8 266.65 232.85 266.45 233 266.3 233.15 266.25 233.2 266.2 233.35 266.05 233.5 265.95 233.7 265.45 233.6 265 233.55 263.8 232.6 262.9 231.95 260.15 229.8 257.95 228.25 258.3 227.6 258.6 227.05 258.85 226.7 259.1 226.4
M 256.45 234.9
Q 256.25 234.2 256.2 233.65 256.1 233.15 256.05 232.8 257.5 233 258.6 233.15 259.75 233.3 260.6 233.45 262.45 233.65 264.75 233.85 265.3 234.3 265.75 234.6 265.75 234.7 265.75 234.75 265.85 235.25 266.05 235.65 265.85 235.75 265.7 235.95 263.95 236 262.7 236 259.45 236.15 256.8 236.35 256.55 235.55 256.45 234.9
M 261.3 244.25
Q 260.15 243.45 259.45 242.95 261.45 241 262.55 239.8 264.05 238.3 265.8 236.4 266.05 236.35 266.3 236.35 266.4 237.75 266.45 239.15 266.05 239.7 265.75 240.2 264 242.85 262.65 245.1 261.9 244.65 261.3 244.25
M 274.65 226.7
Q 275.7 227.45 276.3 227.9 274.65 229.5 273.7 230.55 272.3 231.95 270.55 233.9 270.3 233.9 270.05 234 269.95 233.85 269.85 233.7 269.7 233.5 269.6 233.35 269.45 233.25 269.45 233.2 269.45 232.6 269.45 232.15 269.45 232.1 269.45 232.05 269.45 232 269.5 231.95 270.2 230.9 270.7 230.1 272.25 227.75 273.45 225.9 274.1 226.3 274.65 226.7
M 273.65 234.3
Q 276.65 234.2 278.95 234.05 279.2 234.75 279.4 235.4 279.7 236.6 279.85 237.4 277.3 237.05 275.7 236.85 273.85 236.6 271.55 236.4 270.9 235.9 270.35 235.5 270.4 235.3 270.35 235.05 270.35 234.85 270.3 234.65 270.5 234.5 270.6 234.4 272.4 234.3 273.65 234.3
M 268.8 223.45
Q 268.8 225.95 268.9 227.5 268.9 229.3 269.05 231.75 268.85 232.05 268.65 232.35 268.55 232.5 268.4 232.65 268.15 232.6 267.9 232.6 267.55 232.55 267.25 232.6 266.9 230.5 266.7 229.15 266.15 226 265.6 223.6 266.35 223.5 266.95 223.45 268.1 223.4 268.8 223.45
M 265.85 233.95
Q 265.85 234.05 265.8 234.15 265.65 234.05 265.55 233.95 265.65 233.95 265.85 233.95
M 268.9 232.85
L 268.85 232.8 268.9 232.8
Q 269 232.65 269.15 232.45 269.1 232.7 269.15 233 269 232.9 268.9 232.85
M 270.55 236.35
Q 270.5 236.2 270.5 236.15 270.65 236.2 270.8 236.35 270.7 236.35 270.55 236.35
M 269.55 237.7
Q 269.25 237.45 269 237.2 269.25 237.1 269.45 237.05 269.45 237.35 269.55 237.7
M 270.05 238.2
Q 269.85 237.35 269.8 236.7 269.8 236.65 269.85 236.65 270.1 237.5 270.3 238.4 270.15 238.3 270.05 238.2
M 269.05 237.65
Q 269.35 237.9 269.65 238.2 269.9 239.8 270.1 241 270.6 243.9 271.15 246.3 270.7 246.8 270.35 247.3 270.15 247.35 270 247.4 269.45 242 269.05 237.65
M 270.15 238.75
Q 270.3 238.85 270.4 238.95 271.1 241.95 271.8 245.4 271.6 245.6 271.5 245.8 270.6 241.4 270.15 238.75
M 271.35 239.45
Q 271 238 270.65 236.6 270.95 236.65 271.25 236.7 272.4 237.6 273.25 238.25 276 240.3 278.15 241.9 278 242.3 277.85 242.7 277.75 242.95 277.65 243.15 277.1 244.15 276.7 244.8 274.65 242.65 273.4 241.4 272.45 240.45 271.35 239.45
M 267.1 236.9
Q 267.2 236.95 267.3 237 267.3 237.45 267.3 237.9 267.25 237.95 267.2 238.05 267.15 237.45 267.1 236.9
M 267.6 237.5
Q 267.55 237.3 267.55 237.1 267.7 237.15 267.8 237.2 267.7 237.35 267.6 237.5
M 267.6 238.25
Q 267.75 237.95 267.95 237.75 268.4 242.3 268.8 247.5 268.25 247.55 267.85 247.6 267.85 244.65 267.8 242.9 267.75 240.85 267.6 238.25
M 268.85 247.9
Q 269.35 247.85 269.9 247.8 269.95 247.8 270 247.8
L 270.05 247.8
Q 270.7 247.65 271.4 247.55 271.6 247.55 271.8 247.5 271.85 247.65 271.9 247.9 272.05 247.65 272.2 247.45 274 256.15 275.95 267.6 274.45 266.4 272.6 264.65 272.05 264.15 271.55 263.65 271.35 261.7 271.2 259.9 270.5 260 269.9 260 270 261.1 270.1 262.25 269 261.1 267.95 260 267.9 260 267.8 260 267.8 259.85 267.8 259.8
L 267.75 259.75 267.75 259.7
Q 267.741015625 259.691015625 267.7 259.65 267.65 259.45 267.7 259.25 267.55 258 267.5 253.65 267.45 252.65 267.45 251.45 267.4 250 267.4 248.4 267.35 248.15 267.4 247.95 267.55 247.95 267.75 247.95
L 267.85 247.95
Q 268.35 247.9 268.85 247.9
M 267.65 260.7
Q 268.75 261.75 270.2 263.1 270.7 269.85 271.35 277.5 269.45 279.3 267.3 281.45 267.35 280.65 267.35 279.85 267.55 269.55 267.65 260.7
M 271.6 264.4
Q 273.55 266.15 276.05 268.4 276.4 270.3 276.7 272.3 274.95 274 272.75 276.15 272.15 269.95 271.6 264.4
M 276.9 273.4
Q 277.25 275.55 277.6 277.8 279.4 288.9 280.8 297.7 278.7 296.1 276.25 294 275.2 293.05 274.2 292.15 273.7 286.1 273.05 279.75 272.95 278.6 272.85 277.45 274.75 275.6 276.9 273.4
M 271.5 278.8
Q 271.55 279.35 271.55 279.95 272 285.5 272.45 290.65 269.45 288.05 267.25 286.35 267.3 284.55 267.3 282.85 269.1 281.15 271.5 278.8
M 267.25 288.2
Q 269.4 289.85 272.65 292.3 273.4 301.9 274.1 310.15 271.5 312.65 270.3 313.85 268.8 315.25 266.95 316.8 267 301.4 267.25 288.2
M 274.35 293.65
Q 274.9 294.05 275.45 294.5 278.75 297.05 281 298.85 281.3 300.8 281.6 302.6 280.75 303.35 279.65 304.45
L 275.6 308.65
Q 275 301.4 274.35 293.65 Z"/>
</g>

<g id="Layer5_0_FILL">
<path fill="#772700" stroke="none" d="
M 246 320.35
L 246.2 320.75
Q 248 320.55 251.45 320.15
L 251.25 319.5
Q 247.75 320.05 246 320.35
M 249.7 315.1
L 249.5 314.65
Q 246 315.45 244.3 315.9
L 244.35 316.05 244.45 316.4
Q 246.45 315.9 249.7 315.1
M 269.25 318.1
Q 271.25 317.85 273 317.65
L 272.85 316.3
Q 271.1 316.55 269.1 316.85 269.15 317.5 269.25 318.1
M 268.5 310.3
Q 268.5 310.5 268.55 310.7 270.5 310.2 272.25 309.9
L 272.2 309.45
Q 270.45 309.85 268.5 310.3
M 268.15 306.9
Q 268.2 307.3 268.25 307.7 270.05 307.35 272 307
L 271.9 306.25
Q 270.2 306.5 268.15 306.9
M 267.9 303.7
Q 267.9 304.05 267.95 304.45 269.95 304.25 271.7 304.05
L 271.6 303.2
Q 269.95 303.4 267.9 303.7
M 242.5 311.65
L 242.8 312.25
Q 244.35 312 248.35 311.3
L 248.1 310.6
Q 244.4 311.3 242.5 311.65
M 238.45 301.8
L 238.7 302.35
Q 240.5 302 244.8 301.1
L 244.65 300.7
Q 240.45 301.5 238.45 301.8
M 240.45 306.6
L 240.7 307.2
Q 242.65 307.05 246.7 306.65
L 246.55 306.25
Q 242.5 306.6 240.45 306.6
M 236.1 296.05
L 236.45 296.8 236.5 296.9
Q 238.2 296.55 242.95 295.8
L 242.65 294.9
Q 237.95 295.7 236.1 296.05
M 240.95 290.15
L 240.7 289.4
Q 237.5 289.95 235.6 290.25
L 235.45 291.2
Q 237.15 290.9 240.95 290.15
M 270.4 290.05
Q 268.65 290.35 266.5 290.7 266.6 291.3 266.65 291.95 268.8 291.65 270.5 291.35
L 270.4 290.05
M 267.1 296.2
Q 267.1 296.4 267.15 296.6 269.15 296.2 270.95 295.9
L 270.9 295.45
Q 269.15 295.75 267.1 296.2
M 269.05 285.15
L 268.85 284.65
Q 267.5 284.85 265.85 285.15 265.9 285.4 265.9 285.65 267.55 285.35 269.05 285.15
M 266 277.1
L 265.65 276.2
Q 260.55 277.15 252.2 278.7 241.3 280.7 236.65 281.55
L 236.5 282.65
Q 240.8 281.8 250.25 279.95 259.55 278.15 266 277.1
M 256.4 316.25
Q 256.3 316.5 256.25 316.7 256.35 318.15 256.5 320.55 256.7 320.55 256.85 320.55 256.7 319.7 256.6 318.35 256.5 317.15 256.4 316.25
M 257.95 311.2
Q 257.9 311.5 257.8 311.75 258.05 313.25 258.2 316.2 258.4 319.2 258.45 320.55 258.75 320.55 259.05 320.55 258.8 319.3 258.55 316.8 258.2 313.2 257.95 311.2
M 261.15 314.7
Q 260.7 313.95 260.2 313.3 260.95 318.3 261.4 320.55 261.8 320.55 262.1 320.55 261.8 319.35 261.4 316.5 261.25 315.45 261.15 314.7
M 263.3 317.7
Q 263.3 317.65 263.25 317.65 263.5 318.8 263.8 320.55 264 320.55 264.15 320.55 264 319.95 263.9 319.05 263.85 318.65 263.8 318.4 263.55 318 263.3 317.7
M 260.1 303.65
Q 260 303.95 259.9 304.3 260.25 306.75 260.45 308.55 260.6 308.8 260.75 309.05
L 260.8 309.05
Q 260.65 308.1 260.5 306.8 260.25 305 260.1 303.65
M 261.2 299.35
Q 261.15 299.5 261.15 299.6 261.65 303 262.2 306.9 262.65 310.1 263 312.45 263.3 313 263.7 313.6 263.4 311.4 263.1 309.55 262.4 305.05 261.2 299.35
M 264.85 308.05
Q 264.85 308.2 264.85 308.4 265.65 314.65 266 317.1 266.05 317.15 266.1 317.3 266.4 317.7 266.65 318.05 265.8 313.75 265.2 310.5 265 309.35 264.85 308.05
M 262.85 292.9
Q 262.65 293.55 262.55 294.2 263.4 298.4 264 302.25 263.45 298.15 262.85 292.9
M 252.6 302.7
Q 252.05 301.95 251.45 301.1 252.25 303.95 253.55 308.45 254.3 311.05 254.9 312.75 255 312.25 255.2 311.8 254.55 309.85 254.35 309.05 253.8 307.25 252.6 302.7
M 256.25 307.8
Q 256.05 307.4 255.85 307.15 256 307.65 256.15 308.2 256.25 308 256.25 307.8
M 247.4 295.4
Q 247.6 295.95 247.8 296.55 248.7 299.25 250.55 304.75 250.75 305.4 252.25 312 253 315.15 253.7 316.85 253.85 316.35 254 315.85 252.65 311 251.05 305.65 249.75 301.3 248.55 296.95 248 296.2 247.4 295.4
M 250.45 283.15
Q 250.05 283.15 249.65 283.25 251.1 289.4 252.5 294.7 252.9 296.2 253.35 298 253.7 298.45 254 298.85 254.1 299.05 254.2 299.15 254 297.8 253.85 297.2 253.05 294 252.25 290.7 251.1 286.25 250.45 283.15
M 247.75 283.55
Q 247.4 283.65 247.1 283.75 247.6 286.2 248.5 290.25 248.7 291.2 248.9 292.05 249.1 292.3 249.3 292.6 249.15 292.05 249.05 291.5 248.35 288.6 247.75 283.55
M 244.8 284.1
Q 244.55 284.15 244.3 284.2 244.55 285.65 244.8 287.05 245.15 287.4 245.45 287.8 245.35 287.05 245.15 286 244.9 284.9 244.8 284.1
M 261.15 284.6
Q 260.8 282.6 260.55 281.25 260.3 281.25 260.05 281.3 260.6 283.7 261.35 287.65 261.45 287.35 261.55 287.05 261.35 286.15 261.15 284.6
M 257.6 281.8
Q 257.35 281.85 257 281.9 258 286.3 258.8 291.25 259.2 293.7 259.5 295.25 259.75 294.3 259.95 293.4 259.65 291.95 259.25 289.8 258.2 285 257.6 281.8
M 254.35 282.4
Q 254 282.45 253.55 282.55 254.95 288.45 256.5 296 257.25 299.65 257.75 302.05 257.95 301.35 258.15 300.7 257.25 297.15 256.65 294.5 255.45 289.3 254.35 282.4
M 260.85 264.05
Q 260.1 264.15 259.35 264.25 248.05 265.45 248 265.45 243.35 266.15 239.7 266.6
L 239.35 267
Q 242.9 266.6 249.9 265.75 256.3 264.95 261.2 264.35
L 261.15 264.25 260.85 264.05
M 256.3 261.7
L 255.85 261.45
Q 253.15 261.9 249.65 262.5 244.75 263.35 241.95 263.8
L 241.4 264.45
Q 244.05 263.95 247.9 263.2 252.6 262.35 256.3 261.7
M 262.45 267.7
L 262.45 267.6
Q 245.25 269.75 238 270.6
L 237.95 271.5
Q 241.9 270.95 249.9 269.65 257.2 268.5 262.45 267.7
M 251.65 259.25
Q 250.3 259.35 248.65 259.55 246.6 259.85 245 260.05
L 244.2 261.05
Q 246.3 260.7 249.3 260.2 251.2 259.95 252.6 259.7
L 251.65 259.25 Z"/>

<path fill="url(#Gradient_3)" stroke="none" d="
M 244.8 317.25
L 246 320.35
Q 247.75 320.05 251.25 319.5
L 249.7 315.1
Q 246.45 315.9 244.45 316.4
L 244.8 317.25
M 273 317.65
Q 271.25 317.85 269.25 318.1 269.3 319.3 269.45 320.25 269.45 321 269.55 321.6
L 267.95 321.6
Q 267.95 321.95 268 322.35 267.7 322 267.3 321.6
L 252.85 321.6 252.4 322.8 251.45 320.15
Q 248 320.55 246.2 320.75
L 251.85 335.35 273.1 330.45 273 317.65
M 272.25 309.9
Q 270.5 310.2 268.55 310.7 268.8 314.2 269.1 316.85 271.1 316.55 272.85 316.3
L 272.25 309.9
M 272 307
Q 270.05 307.35 268.25 307.7 268.35 309.05 268.5 310.3 270.45 309.85 272.2 309.45
L 272 307
M 267.95 304.45
Q 268 305 268.05 305.55 268.1 306.25 268.15 306.9 270.2 306.5 271.9 306.25
L 271.7 304.05
Q 269.95 304.25 267.95 304.45
M 242.8 312.25
L 242.95 312.7 243.3 313.55 244.3 315.9
Q 246 315.45 249.5 314.65
L 248.35 311.3
Q 244.35 312 242.8 312.25
M 240.7 307.2
L 240.9 307.7 241.7 309.65 242.1 310.55 242.5 311.65
Q 244.4 311.3 248.1 310.6
L 246.7 306.65
Q 242.65 307.05 240.7 307.2
M 239.05 303.15
L 240 305.55 240.45 306.6
Q 242.5 306.6 246.55 306.25
L 244.8 301.1
Q 240.5 302 238.7 302.35
L 238.85 302.75 239.05 303.15
M 242.95 295.8
Q 238.2 296.55 236.5 296.9
L 236.5 297 238.45 301.8
Q 240.45 301.5 244.65 300.7
L 242.95 295.8
M 235.45 291.2
L 235.15 293.65 235.15 293.7 236.1 296.05
Q 237.95 295.7 242.65 294.9
L 240.95 290.15
Q 237.15 290.9 235.45 291.2
M 270.95 295.9
Q 269.15 296.2 267.15 296.6 267.55 300.15 267.9 303.7 269.95 303.4 271.6 303.2
L 270.95 295.9
M 266.65 291.95
Q 266.9 294.05 267.1 296.2 269.15 295.75 270.9 295.45
L 270.5 291.35
Q 268.8 291.65 266.65 291.95
M 270.05 286
L 269.35 286 269.05 285.15
Q 267.55 285.35 265.9 285.65 266.25 288.15 266.5 290.7 268.65 290.35 270.4 290.05
L 270.2 287.8 270.05 286
M 265.65 276.2
L 264.8 273.95 236.95 279.55 236.65 281.55
Q 241.3 280.7 252.2 278.7 260.55 277.15 265.65 276.2
M 256.5 280
Q 256.9 279.95 257.2 279.95 258.5 279.7 259.65 279.55 259.9 279.45 260.25 279.4 262.5 279 263.9 278.75 263.9 278.9 264.05 278.75 264.6 278.6 265.05 278.5 265.15 279.25 265.2 279.95 265.35 281 265.5 282.1 265.7 283.55 265.85 285.15 267.5 284.85 268.85 284.65
L 266 277.1
Q 259.55 278.15 250.25 279.95 240.8 281.8 236.5 282.65
L 235.6 290.25
Q 237.5 289.95 240.7 289.4
L 238.65 283.55 239.05 282.95 239.05 282.9
Q 239.8 282.75 240.9 282.6
L 240.95 282.6
Q 242.25 282.35 244 282.1 244.2 282.05 244.4 282.05 246.5 281.65 249.2 281.25 249.6 281.15 250 281.1 251.45 280.8 253.1 280.6 253.4 280.55 253.7 280.5 253.9 280.45 254.1 280.4 255.4 280.2 256.5 280
M 262.45 267.7
Q 257.2 268.5 249.9 269.65 241.9 270.95 237.95 271.5
L 237.4 275.5
Q 243.8 274.35 254.9 272.3 261.6 271.05 263.6 270.75
L 262.45 267.7
M 262.45 267.6
L 261.2 264.35
Q 256.3 264.95 249.9 265.75 242.9 266.6 239.35 267
L 238.3 268.25 238 270.6
Q 245.25 269.75 262.45 267.6
M 260.85 264.05
L 256.3 261.7
Q 252.6 262.35 247.9 263.2 244.05 263.95 241.4 264.45
L 239.7 266.6
Q 243.35 266.15 248 265.45 248.05 265.45 259.35 264.25 260.1 264.15 260.85 264.05
M 249.3 260.2
Q 246.3 260.7 244.2 261.05
L 241.95 263.8
Q 244.75 263.35 249.65 262.5 253.15 261.9 255.85 261.45
L 252.6 259.7
Q 251.2 259.95 249.3 260.2
M 248.65 259.55
Q 250.3 259.35 251.65 259.25
L 247.5 257 245 260.05
Q 246.6 259.85 248.65 259.55 Z"/>

<path fill="#431600" stroke="none" d="
M 231.4 322.65
L 231.55 322.9
Q 233.55 322.05 237.65 320.25 242.05 318.4 244.8 317.25
L 244.45 316.4 244.35 316.05
Q 243.5 316.45 242.8 316.85 235.55 320.65 231.4 322.65
M 240.3 321.15
L 240.2 321.15
Q 239.7 321.3 234.95 323.2 233.45 323.8 232.4 324.2
L 232.55 324.5
Q 240.1 321.2 240.3 321.15
M 242.95 312.7
Q 241.6 313.3 237.6 315.45 234.95 316.9 232.05 318.45 232.7 318.25 239.3 315.35 241.15 314.55 243.3 313.55
L 242.95 312.7
M 228.2 317.65
L 228.55 318.2
Q 230.45 317.1 234 315.05 238.85 312.3 242.1 310.55
L 241.7 309.65
Q 239.1 311.2 236.25 312.95 231.85 315.65 228.2 317.65
M 225.05 306.25
Q 226.2 305.55 227.15 304.95
L 222 307.8 222.2 308.1
Q 223.4 307.35 225.05 306.25
M 239.05 303.15
L 238.85 302.75
Q 236.65 303.95 230.55 307.35 226.05 309.9 224 311
L 224.2 311.3 239.05 303.15
M 240.9 307.7
L 240.7 307.2 240.45 306.6 240 305.55
Q 237.85 306.85 232.9 309.9 228.05 312.85 226 314.15
L 226.65 315.2
Q 236.9 309.85 240.9 307.7
M 236.45 296.8
Q 236.35 296.85 236.25 296.95 234.45 297.85 228.25 301.25 222.65 304.4 220.55 305.55
L 220.9 306.1 236.5 297 236.5 296.9 236.45 296.8 Z"/>

<path fill="#5D1F00" stroke="none" d="
M 240.2 321.15
L 240.3 321.15
Q 240.1 321.2 232.55 324.5
L 233.85 326.55 239 338.35 251.85 335.35 246.2 320.75 246 320.35 244.8 317.25
Q 242.05 318.4 237.65 320.25 233.55 322.05 231.55 322.9
L 232.4 324.2
Q 233.45 323.8 234.95 323.2 239.7 321.3 240.2 321.15
M 242.5 311.65
L 242.1 310.55
Q 238.85 312.3 234 315.05 230.45 317.1 228.55 318.2
L 231.4 322.65
Q 235.55 320.65 242.8 316.85 243.5 316.45 244.35 316.05
L 244.3 315.9 243.3 313.55
Q 241.15 314.55 239.3 315.35 232.7 318.25 232.05 318.45 234.95 316.9 237.6 315.45 241.6 313.3 242.95 312.7
L 242.8 312.25 242.5 311.65
M 226.65 315.2
L 228.2 317.65
Q 231.85 315.65 236.25 312.95 239.1 311.2 241.7 309.65
L 240.9 307.7
Q 236.9 309.85 226.65 315.2
M 240 305.55
L 239.05 303.15 224.2 311.3 226 314.15
Q 228.05 312.85 232.9 309.9 237.85 306.85 240 305.55
M 238.45 301.8
L 236.5 297 220.9 306.1 222 307.8 227.15 304.95
Q 226.2 305.55 225.05 306.25 223.4 307.35 222.2 308.1
L 224 311
Q 226.05 309.9 230.55 307.35 236.65 303.95 238.85 302.75
L 238.7 302.35 238.45 301.8
M 236.45 296.8
L 236.1 296.05 235.15 293.7 219.2 303.4 220.55 305.55
Q 222.65 304.4 228.25 301.25 234.45 297.85 236.25 296.95 236.35 296.85 236.45 296.8
M 243.65 295.7
Q 243.5 295.2 243.3 294.75 242.45 292.25 241.65 290.05 241.5 289.65 241.4 289.3 240.45 286.7 239.7 284.6 239.35 283.7 239.05 282.95
L 238.65 283.55 240.7 289.4 240.95 290.15 242.65 294.9 242.95 295.8 244.65 300.7 244.8 301.1 246.55 306.25 246.7 306.65 248.1 310.6 248.35 311.3 249.5 314.65 249.7 315.1 251.25 319.5 251.45 320.15 252.4 322.8 252.85 321.6
Q 252.75 321.35 252.65 321.1 252.6 320.8 252.5 320.55 252.45 320.35 252.3 320.1 252.2 319.7 252.05 319.4 251.3 317.3 250.45 314.95 250.35 314.7 250.3 314.45 249.7 312.9 249.1 311.2 249 310.8 248.85 310.45 248.2 308.55 247.5 306.55 247.4 306.35 247.35 306.15 247.1 305.4 246.8 304.6 246.1 302.7 245.5 301 245.45 300.75 245.4 300.55 244.45 298 243.65 295.7
M 264.15 317.55
Q 263.8 317.1 263.45 316.55 262.9 315.85 262.35 315 261.6 314.05 261 313.1 260.75 312.85 260.55 312.5 260.45 312.3 260.3 312.15 260.1 311.85 259.9 311.6 259.15 310.5 258.45 309.5 258.35 310 258.2 310.5 258.8 311.35 259.45 312.3 259.65 312.5 259.75 312.7 259.95 313 260.2 313.3 260.7 313.95 261.15 314.7 261.45 315.1 261.75 315.55 262.55 316.7 263.25 317.65 263.3 317.65 263.3 317.7 263.55 318 263.8 318.4 263.9 318.55 264.05 318.7 264.75 319.7 265.4 320.5 265.95 320.5 266.4 320.5 265.75 319.65 264.95 318.6 264.55 318.1 264.15 317.55
M 264.6 285.85
Q 264.4 286.65 264.2 287.4 264.35 289.15 264.55 291.05 264.6 291.65 264.7 292.3 264.9 294.4 265.1 296.6 265.15 296.8 265.15 296.95 265.4 299.8 265.65 302.8 265.7 303.35 265.8 303.95 265.85 304.35 265.85 304.65 265.95 305.9 266.05 307.3 266.1 307.65 266.15 308.05 266.25 309.35 266.4 310.75 266.4 311 266.4 311.2 266.65 313.95 266.9 317.15 266.95 317.75 267.05 318.35 267.05 318.5 267.05 318.65 267.4 319.2 267.75 319.7 267.7 319 267.65 318.3 267.6 317.65 267.55 317.1 267.25 313.85 267.05 311 267 310.8 267 310.6 266.9 309.25 266.75 308 266.7 307.55 266.7 307.15 266.55 305.85 266.45 304.6 266.45 304.25 266.4 303.9 266.3 303.05 266.25 302.3 266 299.5 265.8 296.85 265.75 296.7 265.75 296.5 265.5 294.25 265.35 292.2 265.25 291.55 265.2 290.95 264.95 288.3 264.7 285.85 264.65 285.7 264.65 285.6 264.6 285.7 264.6 285.85
M 244.15 289.55
Q 243.95 289.25 243.7 288.9 243.25 288.3 242.9 287.75 243.1 288.35 243.3 288.95 243.45 289.3 243.55 289.7 243.7 290 243.75 290.35 245.1 292.15 246.55 294.2 246.9 294.6 247.2 295.1 247.35 295.25 247.4 295.35
L 247.4 295.4
Q 248 296.2 248.55 296.95 249.55 298.4 250.4 299.6 250.5 299.7 250.65 299.95 251.05 300.55 251.45 301.1 252.05 301.95 252.6 302.7 253.9 304.5 254.55 305.4 254.75 305.65 254.85 305.8 254.9 305.9 254.95 305.9 255.35 306.5 255.85 307.15 256.05 307.4 256.25 307.8 256.25 308 256.15 308.2 256.05 308.7 255.9 309.1 255.8 309.55 255.65 309.95 255.4 310.95 255.2 311.8 255 312.25 254.9 312.75 254.8 313.1 254.7 313.45 254.6 313.7 254.55 313.95 254.25 314.95 254 315.85 253.85 316.35 253.7 316.85 253.3 318.15 252.95 319.2
L 253 319.25
Q 253.1 319.5 253.15 319.85 253.25 319.5 253.35 319.2 253.65 318.4 253.95 317.4 254.1 317 254.2 316.6 254.55 315.35 255 313.85 255.1 313.6 255.2 313.4 255.2 313.35 255.2 313.3 255.3 312.95 255.4 312.55 255.75 311.3 256.15 309.9 256.25 309.5 256.4 309.05 256.6 308.2 256.9 307.25 256.25 306.4 255.75 305.7 255.65 305.55 255.5 305.45 255.45 305.35 255.4 305.25 255.2 305 254.9 304.55 253.95 303.3 252 300.55 251.75 300.15 251.45 299.7 251.35 299.55 251.25 299.45 251 299.15 250.8 298.85 249.6 297.15 248.05 294.95 248 294.9 248 294.85 247.95 294.8 247.95 294.75 247.65 294.4 247.4 294.05 246.9 293.35 246.5 292.75 245.25 291.05 244.15 289.55
M 253.55 282.55
Q 254 282.45 254.35 282.4 255.75 282.1 257 281.9 257.35 281.85 257.6 281.8 258.9 281.55 260.05 281.3 260.3 281.25 260.55 281.25 261.95 281 263.05 280.75 262.6 282.75 261.85 285.85 261.8 286.1 261.7 286.35 261.6 286.7 261.55 287.05 261.45 287.35 261.35 287.65 260.95 289.55 260.35 291.8 260.25 292.35 260.1 293 260 293.2 259.95 293.4 259.75 294.3 259.5 295.25 259.3 296.05 259.1 296.85 259 297.4 258.85 297.85 258.8 298.05 258.75 298.25 258.45 299.5 258.15 300.7 257.95 301.35 257.75 302.05 257.55 302.9 257.35 303.75 257.5 303.95 257.65 304.25 257.8 303.6 258 302.95 258.125 302.425 258.25 301.9 258.3 301.75 258.35 301.6 258.4 301.35 258.5 301.15 258.85 299.7 259.25 298.15 259.3 297.95 259.35 297.8 259.5 297.1 259.7 296.35 259.7 296.3 259.7 296.25 259.95 295.35 260.2 294.4 260.35 293.7 260.5 292.9 260.7 292.3 260.85 291.7 261.25 290.15 261.6 288.7 261.65 288.45 261.7 288.15 262 287.2 262.2 286.25 262.2 286 262.3 285.75 263.1 282.4 263.7 280.25 262.25 280.5 260.5 280.85 260.25 280.9 259.95 280.95 258.8 281.15 257.55 281.4 257.2 281.45 256.9 281.55 255.65 281.75 254.35 282 253.9 282.1 253.5 282.15 252.85 282.3 252.15 282.4 251.25 282.55 250.35 282.7 249.9 282.8 249.55 282.9 248.6 283.05 247.7 283.2 247.35 283.25 247 283.35 245.8 283.55 244.7 283.75 244.45 283.8 244.25 283.8 243.25 284 242.35 284.15 242.45 284.3 242.65 284.5 243.45 284.35 244.3 284.2 244.55 284.15 244.8 284.1 245.85 283.95 247.1 283.75 247.4 283.65 247.75 283.55 248.65 283.4 249.65 283.25 250.05 283.15 250.45 283.15 250.95 283 251.6 282.9 252.6 282.7 253.55 282.55
M 251.65 259.25
L 252.6 259.7 255.85 261.45 256.3 261.7 260.85 264.05 261.15 264.25 261.2 264.35 262.45 267.6 262.45 267.7 263.6 270.75 264.45 273.05
Q 262.65 273.55 255.95 274.8 244.95 276.75 237.05 278.4
L 236.95 279.55 264.8 273.95 265.65 276.2 266 277.1 268.85 284.65 269.05 285.15 269.35 286 270.05 286 269.9 284.65 269.9 284.6 262.2 263.95 248.3 256 247.5 257 251.65 259.25 Z"/>

<path fill="#DBDBDB" stroke="none" d="
M 228.65 295.35
L 233.2 269.2 216.75 278.65 213.25 304.75 228.65 295.35 Z"/>

<path fill="#8C8C8C" stroke="none" d="
M 235.15 293.7
L 235.15 293.65 228.65 295.35 213.25 304.75 219.2 303.4 235.15 293.7
M 269.9 284.65
L 270.05 286 270.2 287.8 274.45 283.45 269.9 284.65 Z"/>

<path fill="#FFFFFF" stroke="none" d="
M 255.95 274.8
Q 262.65 273.55 264.45 273.05
L 263.6 270.75
Q 261.6 271.05 254.9 272.3 243.8 274.35 237.4 275.5
L 237.05 278.4
Q 244.95 276.75 255.95 274.8
M 257.2 279.95
Q 256.9 279.95 256.5 280 255.4 280.2 254.1 280.4 253.9 280.45 253.7 280.5 253.4 280.55 253.1 280.6 251.45 280.8 250 281.1 249.6 281.15 249.2 281.25 246.5 281.65 244.4 282.05 244.2 282.05 244 282.1 242.25 282.35 240.95 282.6
L 240.9 282.6
Q 239.8 282.75 239.05 282.9
L 239.05 282.95
Q 239.35 283.7 239.7 284.6 240.45 286.7 241.4 289.3 241.5 289.65 241.65 290.05 242.45 292.25 243.3 294.75 243.5 295.2 243.65 295.7 244.45 298 245.4 300.55 245.45 300.75 245.5 301 246.1 302.7 246.8 304.6 247.1 305.4 247.35 306.15 247.4 306.35 247.5 306.55 248.2 308.55 248.85 310.45 249 310.8 249.1 311.2 249.7 312.9 250.3 314.45 250.35 314.7 250.45 314.95 251.3 317.3 252.05 319.4 252.2 319.7 252.3 320.1 252.45 320.35 252.5 320.55 252.6 320.8 252.65 321.1 252.75 321.35 252.85 321.6
L 267.3 321.6
Q 267.7 322 268 322.35 267.95 321.95 267.95 321.6
L 269.55 321.6
Q 269.45 321 269.45 320.25 269.3 319.3 269.25 318.1 269.15 317.5 269.1 316.85 268.8 314.2 268.55 310.7 268.5 310.5 268.5 310.3 268.35 309.05 268.25 307.7 268.2 307.3 268.15 306.9 268.1 306.25 268.05 305.55 268 305 267.95 304.45 267.9 304.05 267.9 303.7 267.55 300.15 267.15 296.6 267.1 296.4 267.1 296.2 266.9 294.05 266.65 291.95 266.6 291.3 266.5 290.7 266.25 288.15 265.9 285.65 265.9 285.4 265.85 285.15 265.7 283.55 265.5 282.1 265.35 281 265.2 279.95 265.15 279.25 265.05 278.5 264.6 278.6 264.05 278.75 263.9 278.9 263.9 278.75 262.5 279 260.25 279.4 259.9 279.45 259.65 279.55 258.5 279.7 257.2 279.95
M 253.5 282.15
Q 253.9 282.1 254.35 282 255.65 281.75 256.9 281.55 257.2 281.45 257.55 281.4 258.8 281.15 259.95 280.95 260.25 280.9 260.5 280.85 262.25 280.5 263.7 280.25 263.1 282.4 262.3 285.75 262.2 286 262.2 286.25 262 287.2 261.7 288.15 261.65 288.45 261.6 288.7 261.25 290.15 260.85 291.7 260.7 292.3 260.5 292.9 260.35 293.7 260.2 294.4 259.95 295.35 259.7 296.25 259.7 296.3 259.7 296.35 259.5 297.1 259.35 297.8 259.3 297.95 259.25 298.15 258.85 299.7 258.5 301.15 258.4 301.35 258.35 301.6 258.3 301.75 258.25 301.9 258.125 302.425 258 302.95 257.8 303.6 257.65 304.25 257.5 303.95 257.35 303.75 255.8 301.4 254.2 299.15 254.1 299.05 254 298.85 253.7 298.45 253.35 298 252.1 296.25 250.75 294.5 250.4 294 250.05 293.55 249.7 293.1 249.3 292.6 249.1 292.3 248.9 292.05 247.75 290.6 246.55 289.1 246.3 288.8 246.05 288.5 245.75 288.15 245.45 287.8 245.15 287.4 244.8 287.05 243.75 285.75 242.65 284.5 242.45 284.3 242.35 284.15 243.25 284 244.25 283.8 244.45 283.8 244.7 283.75 245.8 283.55 247 283.35 247.35 283.25 247.7 283.2 248.6 283.05 249.55 282.9 249.9 282.8 250.35 282.7 251.25 282.55 252.15 282.4 252.85 282.3 253.5 282.15
M 243.7 288.9
Q 243.95 289.25 244.15 289.55 245.25 291.05 246.5 292.75 246.9 293.35 247.4 294.05 247.65 294.4 247.95 294.75 247.95 294.8 248 294.85 248 294.9 248.05 294.95 249.6 297.15 250.8 298.85 251 299.15 251.25 299.45 251.35 299.55 251.45 299.7 251.75 300.15 252 300.55 253.95 303.3 254.9 304.55 255.2 305 255.4 305.25 255.45 305.35 255.5 305.45 255.65 305.55 255.75 305.7 256.25 306.4 256.9 307.25 256.6 308.2 256.4 309.05 256.25 309.5 256.15 309.9 255.75 311.3 255.4 312.55 255.3 312.95 255.2 313.3 255.2 313.35 255.2 313.4 255.1 313.6 255 313.85 254.55 315.35 254.2 316.6 254.1 317 253.95 317.4 253.65 318.4 253.35 319.2 253.25 319.5 253.15 319.85 253.1 319.5 253 319.25
L 252.95 319.2
Q 252.65 318.2 252.35 317.1 252 315.8 251.7 314.6 251.6 314.4 251.6 314.15 251.05 312.3 250.7 310.85 250.55 310.5 250.5 310.15 249.65 307.1 249.45 306.5 249.4 306.45 249.4 306.35 249.3 306.15 249.25 305.95 248.2 303.05 247.35 300.55 247.35 300.4 247.25 300.2 246.3 297.55 245.55 295.4 245.45 294.95 245.25 294.55 245.25 294.5 245.2 294.4 244.45 292.25 243.75 290.35 243.7 290 243.55 289.7 243.45 289.3 243.3 288.95 243.1 288.35 242.9 287.75 243.25 288.3 243.7 288.9
M 262.85 292.9
Q 262.9 292.7 262.95 292.55 263.1 291.9 263.3 291.25 263.75 289.3 264.2 287.4 264.4 286.65 264.6 285.85 264.6 285.7 264.65 285.6 264.65 285.7 264.7 285.85 264.95 288.3 265.2 290.95 265.25 291.55 265.35 292.2 265.5 294.25 265.75 296.5 265.75 296.7 265.8 296.85 266 299.5 266.25 302.3 266.3 303.05 266.4 303.9 266.45 304.25 266.45 304.6 266.55 305.85 266.7 307.15 266.7 307.55 266.75 308 266.9 309.25 267 310.6 267 310.8 267.05 311 267.25 313.85 267.55 317.1 267.6 317.65 267.65 318.3 267.7 319 267.75 319.7 267.4 319.2 267.05 318.65 266.95 318.5 266.9 318.4 266.75 318.2 266.65 318.05 266.4 317.7 266.1 317.3 266.05 317.15 266 317.1 265 315.6 263.85 313.85 263.8 313.75 263.7 313.6 263.3 313 263 312.45 262.85 312.25 262.7 312.05 262.6 311.85 262.45 311.65 261.55 310.2 260.8 309.05
L 260.75 309.05
Q 260.6 308.8 260.45 308.55 260.4 308.45 260.3 308.35 259.7 307.35 259.25 306.7 259.45 306.05 259.65 305.3 259.7 305.05 259.8 304.75 259.85 304.5 259.9 304.3 260 303.95 260.1 303.65 260.55 301.75 261.15 299.6 261.15 299.5 261.2 299.35
L 261.2 299.3
Q 261.4 298.5 261.65 297.7 261.7 297.45 261.75 297.3 262.15 295.7 262.55 294.2 262.65 293.55 262.85 292.9
M 263.45 316.55
Q 263.8 317.1 264.15 317.55 264.55 318.1 264.95 318.6 265.75 319.65 266.4 320.5 265.95 320.5 265.4 320.5 264.8 320.55 264.15 320.55 264 320.55 263.8 320.55 263.1 320.55 262.4 320.55 262.2 320.55 262.1 320.55 261.8 320.55 261.4 320.55 260.1 320.55 259.05 320.55 258.75 320.55 258.45 320.55 257.55 320.55 256.85 320.55 256.7 320.55 256.5 320.55 255.85 320.55 255.3 320.55 255 320.55 254.8 320.55 254.9 320.1 255.1 319.7 255.25 319.3 255.4 318.85 255.85 317.85 256.25 316.7 256.3 316.5 256.4 316.25 256.9 314.8 257.35 313.3 257.45 313.05 257.55 312.8 257.65 312.25 257.8 311.75 257.9 311.5 257.95 311.2 258.1 310.85 258.2 310.5 258.35 310 258.45 309.5 259.15 310.5 259.9 311.6 260.1 311.85 260.3 312.15 260.45 312.3 260.55 312.5 260.75 312.85 261 313.1 261.6 314.05 262.35 315 262.9 315.85 263.45 316.55 Z"/>

<path fill="url(#Gradient_4)" stroke="none" d="
M 254.8 320.55
Q 255 320.55 255.3 320.55 255.85 320.55 256.5 320.55 256.35 318.15 256.25 316.7 255.85 317.85 255.4 318.85 255.25 319.3 255.1 319.7 254.9 320.1 254.8 320.55
M 257.55 312.8
Q 257.45 313.05 257.35 313.3 256.9 314.8 256.4 316.25 256.5 317.15 256.6 318.35 256.7 319.7 256.85 320.55 257.55 320.55 258.45 320.55 258.4 319.2 258.2 316.2 258.05 313.25 257.8 311.75 257.65 312.25 257.55 312.8
M 259.45 312.3
Q 258.8 311.35 258.2 310.5 258.1 310.85 257.95 311.2 258.2 313.2 258.55 316.8 258.8 319.3 259.05 320.55 260.1 320.55 261.4 320.55 260.95 318.3 260.2 313.3 259.95 313 259.75 312.7 259.65 312.5 259.45 312.3
M 263.8 320.55
Q 263.5 318.8 263.25 317.65 262.55 316.7 261.75 315.55 261.45 315.1 261.15 314.7 261.25 315.45 261.4 316.5 261.8 319.35 262.1 320.55 262.2 320.55 262.4 320.55 263.1 320.55 263.8 320.55
M 265.4 320.5
Q 264.75 319.7 264.05 318.7 263.9 318.55 263.8 318.4 263.85 318.65 263.9 319.05 264 319.95 264.15 320.55 264.8 320.55 265.4 320.5
M 260.5 306.8
Q 260.65 308.1 260.8 309.05 261.55 310.2 262.45 311.65 262.6 311.85 262.7 312.05 262.85 312.25 263 312.45 262.65 310.1 262.2 306.9 261.65 303 261.15 299.6 260.55 301.75 260.1 303.65 260.25 305 260.5 306.8
M 259.9 304.3
Q 259.85 304.5 259.8 304.75 259.7 305.05 259.65 305.3 259.45 306.05 259.25 306.7 259.7 307.35 260.3 308.35 260.4 308.45 260.45 308.55 260.25 306.75 259.9 304.3
M 262.95 292.55
Q 262.9 292.7 262.85 292.9 263.45 298.15 264 302.25 263.4 298.4 262.55 294.2 262.15 295.7 261.75 297.3 261.7 297.45 261.65 297.7 261.4 298.5 261.2 299.3
L 261.2 299.35
Q 262.4 305.05 263.1 309.55 263.4 311.4 263.7 313.6 263.8 313.75 263.85 313.85 265 315.6 266 317.1 265.65 314.65 264.85 308.4 264.85 308.2 264.85 308.05 265 309.35 265.2 310.5 265.8 313.75 266.65 318.05 266.75 318.2 266.9 318.4 266.95 318.5 267.05 318.65 267.05 318.5 267.05 318.35 266.95 317.75 266.9 317.15 266.65 313.95 266.4 311.2 266.4 311 266.4 310.75 266.25 309.35 266.15 308.05 266.1 307.65 266.05 307.3 265.95 305.9 265.85 304.65 265.85 304.35 265.8 303.95 265.7 303.35 265.65 302.8 265.4 299.8 265.15 296.95 265.15 296.8 265.1 296.6 264.9 294.4 264.7 292.3 264.6 291.65 264.55 291.05 264.35 289.15 264.2 287.4 263.75 289.3 263.3 291.25 263.1 291.9 262.95 292.55
M 250.65 299.95
Q 250.5 299.7 250.4 299.6 249.55 298.4 248.55 296.95 249.75 301.3 251.05 305.65 252.65 311 254 315.85 254.25 314.95 254.55 313.95 254.6 313.7 254.7 313.45 254.8 313.1 254.9 312.75 254.3 311.05 253.55 308.45 252.25 303.95 251.45 301.1 251.05 300.55 250.65 299.95
M 254.95 305.9
Q 254.9 305.9 254.85 305.8 254.75 305.65 254.55 305.4 253.9 304.5 252.6 302.7 253.8 307.25 254.35 309.05 254.55 309.85 255.2 311.8 255.4 310.95 255.65 309.95 255.8 309.55 255.9 309.1 256.05 308.7 256.15 308.2 256 307.65 255.85 307.15 255.35 306.5 254.95 305.9
M 245.2 294.4
Q 245.25 294.5 245.25 294.55 245.45 294.95 245.55 295.4 246.3 297.55 247.25 300.2 247.35 300.4 247.35 300.55 248.2 303.05 249.25 305.95 249.3 306.15 249.4 306.35 249.4 306.45 249.45 306.5 249.65 307.1 250.5 310.15 250.55 310.5 250.7 310.85 251.05 312.3 251.6 314.15 251.6 314.4 251.7 314.6 252 315.8 252.35 317.1 252.65 318.2 252.95 319.2 253.3 318.15 253.7 316.85 253 315.15 252.25 312 250.75 305.4 250.55 304.75 248.7 299.25 247.8 296.55 247.6 295.95 247.4 295.4
L 247.4 295.35
Q 247.35 295.25 247.2 295.1 246.9 294.6 246.55 294.2 245.1 292.15 243.75 290.35 244.45 292.25 245.2 294.4
M 244.8 287.05
Q 244.55 285.65 244.3 284.2 243.45 284.35 242.65 284.5 243.75 285.75 244.8 287.05
M 249.65 283.25
Q 248.65 283.4 247.75 283.55 248.35 288.6 249.05 291.5 249.15 292.05 249.3 292.6 249.7 293.1 250.05 293.55 250.4 294 250.75 294.5 252.1 296.25 253.35 298 252.9 296.2 252.5 294.7 251.1 289.4 249.65 283.25
M 251.6 282.9
Q 250.95 283 250.45 283.15 251.1 286.25 252.25 290.7 253.05 294 253.85 297.2 254 297.8 254.2 299.15 255.8 301.4 257.35 303.75 257.55 302.9 257.75 302.05 257.25 299.65 256.5 296 254.95 288.45 253.55 282.55 252.6 282.7 251.6 282.9
M 247.1 283.75
Q 245.85 283.95 244.8 284.1 244.9 284.9 245.15 286 245.35 287.05 245.45 287.8 245.75 288.15 246.05 288.5 246.3 288.8 246.55 289.1 247.75 290.6 248.9 292.05 248.7 291.2 248.5 290.25 247.6 286.2 247.1 283.75
M 260.05 281.3
Q 258.9 281.55 257.6 281.8 258.2 285 259.25 289.8 259.65 291.95 259.95 293.4 260 293.2 260.1 293 260.25 292.35 260.35 291.8 260.95 289.55 261.35 287.65 260.6 283.7 260.05 281.3
M 263.05 280.75
Q 261.95 281 260.55 281.25 260.8 282.6 261.15 284.6 261.35 286.15 261.55 287.05 261.6 286.7 261.7 286.35 261.8 286.1 261.85 285.85 262.6 282.75 263.05 280.75
M 257 281.9
Q 255.75 282.1 254.35 282.4 255.45 289.3 256.65 294.5 257.25 297.15 258.15 300.7 258.45 299.5 258.75 298.25 258.8 298.05 258.85 297.85 259 297.4 259.1 296.85 259.3 296.05 259.5 295.25 259.2 293.7 258.8 291.25 258 286.3 257 281.9 Z"/>

<path fill="#C4C4C4" stroke="none" d="
M 247.5 257
L 248.3 256 262.2 263.95 269.9 284.6 269.9 284.65 274.45 283.45 265.85 263.25 247.5 251.7 233.2 269.2 228.65 295.35 235.15 293.65 235.45 291.2 235.6 290.25 236.5 282.65 236.65 281.55 236.95 279.55 237.05 278.4 237.4 275.5 237.95 271.5 238 270.6 238.3 268.25 239.35 267 239.7 266.6 241.4 264.45 241.95 263.8 244.2 261.05 245 260.05 247.5 257 Z"/>

<path fill="#F7F7F7" stroke="none" d="
M 245.65 252.8
L 245.2 253.05 224.85 265.15 216.75 278.65 233.2 269.2 247.5 251.7 245.65 252.8 Z"/>

<path fill="#000000" stroke="none" d="
M 243.5 247.4
Q 243.25 246.8 243.05 246.25 243.3 246.1 243.5 245.85 244.05 245.1 244.05 244.15 244.05 243.15 243.6 242.6 243.35 242.3 242.4 241.7 242.4 241.65 242.3 241.65 242.45 241.45 243.1 241.05 242.8 241.1 242.2 241.15 241.75 241.2 241.75 241.7 241.75 242.15 242 242.65 242.3 243.3 242.4 243.5 242.2 243.4 241.95 243.4
L 241.95 243.45
Q 241.05 243 240.3 243 240.1 243 239.55 243.35 239.05 243.65 238.85 243.85 238.7 244.1 238.65 244.6 238.55 244.95 238.55 245.1
L 238.6 245.6
Q 238.65 245.35 239 244.9 239.55 244.05 239.95 244 239.85 244.05 239.7 244.4 239.6 244.8 239.6 245.15 239.6 245.55 239.75 245.95 239.9 246.45 240.1 246.75 240.1 246.6 240.25 245.95 240.35 245.3 240.45 244.95 240.5 244.95 240.55 244.95 240.35 245.45 240.9 246 241.4 246.6 242 246.6 242.35 246.6 242.65 246.5 242.9 247.05 243.1 247.6 241.85 248.25 240.35 249.05 239.7 248.65 239.3 248.4 239.05 248.5 238.7 248.75 238.15 249 237.9 249.15 238.2 249.25 238.65 249.35 238.85 249.45 239.05 249.6 239.05 249.8 239.05 250.1
L 239 251.35
Q 239.2 251.25 239.85 250.9 240.05 250.8 240.2 250.7 240.2 250.15 240.25 249.75 241.3 249.15 243.35 248.1 243.75 249.25 244.2 250.45 244.6 251.5 245.2 253.05
L 245.65 252.8
Q 245.2 251.7 244.8 250.65 244.2 249.25 243.7 247.9 244.3 247.65 244.95 247.25 247.35 246 248.35 245.4 248.45 245.75 248.5 246.1 248.55 245.95 248.6 245.8 248.95 245.25 249.45 244.85 249.05 244.85 248.6 244.75 248.5 244.7 248.35 244.7 248 244.6 247.75 244.5 248 244.8 248.1 245 246.8 245.7 243.5 247.4 Z"/>
</g>

<g id="Layer4_0_FILL">
<path fill="url(#Gradient_5)" stroke="none" d="
M 290.3 426.1
Q 297.2712890625 421.7697265625 304.7 418.05 322.55 409.1 341 404.55 340 402.45 339.1 400.4 332.75 387.15 325.05 376 316.95 377.9 306.85 381.95 289.1 389.05 271.3 400.4 265.25 404.25 259.25 408.65 247.940625 416.8201171875 237.55 426.1
L 290.3 426.1
M 315.5 363.6
Q 315.2 363.25 314.95 363 306.05 352.7 296 345.15 279.85 349.15 262.1 357.2 234 369.95 209.05 389.9 202.7 395 196.7 400.4 191.5439453125 405.071484375 186.65 410 179.026171875 417.734375 172.05 426.1
L 203.95 426.1
Q 218.080078125 411.9724609375 234.35 400.4 238.65 397.35 243.1 394.5 276.05 373.15 315.5 363.6
M 262.5 328.4
Q 257.7 327.1 252.85 326.3 203.3 343.65 171.4 368.95 165.0865234375 373.932421875 159.2 379.4 148.7236328125 389.1314453125 139.6 400.4 139.2 400.9 138.8 401.4 129.5408203125 412.95 121.7 426.1
L 130.2 426.1
Q 137.8244140625 415.6984375 146.55 405.95 149.05 403.15 151.65 400.4 156.5 395.35 161.65 390.4 164.0078125 388.148828125 166.4 385.95 207.952734375 348.0634765625 262.5 328.4
M 240.1 325.2
Q 203.7 335.8 169.8 361.35 161.18203125 367.85234375 153.5 374.75 141.3888671875 385.7087890625 131.6 397.7 130.55 398.95 129.55 400.2 129.45 400.35 129.4 400.4 121.044140625 413.054296875 116.8 426.05 117.5064453125 426.090234375 118.2 426.1 125.3828125 412.639453125 135.15 400.4 135.4 400.05 135.7 399.75 145.0779296875 388.0359375 156.85 377.45 162.9802734375 371.946875 169.75 366.75 203 341.15 247.65 325.65 243.9 325.2 240.1 325.2
M 218.3 352.8
Q 193.0953125 368.145703125 170.2 389.75 166.3958984375 393.3755859375 162.65 397.15 161.05 398.75 159.45 400.4 155.25 404.75 151.35 409.1 143.762109375 417.575390625 137.25 426.1
L 154.6 426.1
Q 158.2708984375 421.60859375 162.15 417.25 169.85 408.55 178.45 400.4 178.75546875 400.113671875 179.05 399.8 185.980859375 393.3763671875 193.45 387.2 219.2 366.05 248.1 352.05 267.25 342.8 285.05 337.95 280.25 335.15 275.2 332.95 272 331.6 268.8 330.45 244.35 336.95 218.3 352.8
M 151.45 373.2
Q 151.297265625 373.390625 151.15 373.55 151.315234375 373.3990234375 151.45 373.25 165.296484375 360.673828125 181.7 350.15 206.65 334.1 233.1 325.65 230.55 325.9 227.4 326.4 208.9 331.6 191.15 341.55 180.9 347.35 171.6 354.55 163.3 360.95 156 368.4 153.7001953125 370.7935546875 151.45 373.2
M 400.2 395.95
Q 383.653125 374.3244140625 366 359.4 356.76484375 351.5802734375 347.2 345.6 330.65 335.25 310.95 328.9 296.95 324.35 278.35 321.05 273.65 320.75 268.95 320.75 317.50390625 326.6482421875 361.2 365.95 363.8107421875 368.2873046875 366.4 370.75 380.75 384.45 393.45 400.4 401.5875 410.7265625 408.95 421.95 409.328515625 422.5283203125 409.7 423.1 409.5517578125 422.421875 409.4 421.75 406.8263671875 410.5845703125 402.3 400.4 401.3 398.15 400.2 395.95
M 347.55 380.7
Q 348.8919921875 382.3998046875 350.2 384.1 356.2041015625 392.025 361.5 400.4 361.65 400.6 361.75 400.8 369.3953125 412.89609375 375.65 426.1
L 388.75 426.1
Q 390.501953125 426.1 392.2 426 384.5701171875 412.5939453125 375.85 400.4 369.4 391.5 362.4 383.25 358.85234375 379.0748046875 355.2 375.15 335.4564453125 353.8677734375 313.4 340.6 285.75 323.9 256.5 321.2 251 321.6 245.6 322.45 262.2 322.65 278.3 328.2 286.7 331.15 295.05 335.5 297.3 336.7 299.55 337.95 303.45 340.25 307.35 342.85 325.95 355.2 342.35 374.4 344.95 377.5 347.55 380.7 Z"/>

<path fill="url(#Gradient_6)" stroke="none" d="
M 375 362
Q 371.847265625 359.022265625 368.55 356.25 340.0966796875 332.1603515625 303 324.4 290.55 321.8 278.35 321.05 296.95 324.35 310.95 328.9 330.65 335.25 347.2 345.6 356.76484375 351.5802734375 366 359.4 383.653125 374.3244140625 400.2 395.95 390.95 377.15 375 362
M 355.2 375.15
Q 358.85234375 379.0748046875 362.4 383.25 369.4 391.5 375.85 400.4 384.5701171875 412.5939453125 392.2 426 401.18671875 425.441015625 408.95 421.95 401.5875 410.7265625 393.45 400.4 380.75 384.45 366.4 370.75 363.8107421875 368.2873046875 361.2 365.95 317.50390625 326.6482421875 268.95 320.75 262.65 320.7 256.5 321.2 285.75 323.9 313.4 340.6 335.4564453125 353.8677734375 355.2 375.15
M 350.2 384.1
Q 348.8919921875 382.3998046875 347.55 380.7 344.95 377.5 342.35 374.4 325.95 355.2 307.35 342.85 303.45 340.25 299.55 337.95 297.3 336.7 295.05 335.5 286.7 331.15 278.3 328.2 262.2 322.65 245.6 322.45 236.4 323.85 227.4 326.4 230.55 325.9 233.1 325.65 206.65 334.1 181.7 350.15 165.296484375 360.673828125 151.45 373.25 151.315234375 373.3990234375 151.15 373.55 143.7 381.55 136.85 390.15 133.9 393.85 131.35 397.55 130.4 398.85 129.55 400.2 130.55 398.95 131.6 397.7 141.3888671875 385.7087890625 153.5 374.75 161.18203125 367.85234375 169.8 361.35 203.7 335.8 240.1 325.2 243.9 325.2 247.65 325.65 203 341.15 169.75 366.75 162.9802734375 371.946875 156.85 377.45 145.0779296875 388.0359375 135.7 399.75 135.4 400.05 135.15 400.4 125.3828125 412.639453125 118.2 426.1 118.604296875 426.1 119 426.1
L 121.7 426.1
Q 129.5408203125 412.95 138.8 401.4 139.2 400.9 139.6 400.4 148.7236328125 389.1314453125 159.2 379.4 165.0865234375 373.932421875 171.4 368.95 203.3 343.65 252.85 326.3 257.7 327.1 262.5 328.4 207.952734375 348.0634765625 166.4 385.95 164.0078125 388.148828125 161.65 390.4 156.5 395.35 151.65 400.4 149.05 403.15 146.55 405.95 137.8244140625 415.6984375 130.2 426.1
L 137.25 426.1
Q 143.762109375 417.575390625 151.35 409.1 155.25 404.75 159.45 400.4 161.05 398.75 162.65 397.15 166.3958984375 393.3755859375 170.2 389.75 193.0953125 368.145703125 218.3 352.8 244.35 336.95 268.8 330.45 272 331.6 275.2 332.95 280.25 335.15 285.05 337.95 267.25 342.8 248.1 352.05 219.2 366.05 193.45 387.2 185.980859375 393.3763671875 179.05 399.8 178.75546875 400.113671875 178.45 400.4 169.85 408.55 162.15 417.25 158.2708984375 421.60859375 154.6 426.1
L 172.05 426.1
Q 179.026171875 417.734375 186.65 410 191.5439453125 405.071484375 196.7 400.4 202.7 395 209.05 389.9 234 369.95 262.1 357.2 279.85 349.15 296 345.15 306.05 352.7 314.95 363 315.2 363.25 315.5 363.6 276.05 373.15 243.1 394.5 238.65 397.35 234.35 400.4 218.080078125 411.9724609375 203.95 426.1
L 237.55 426.1
Q 247.940625 416.8201171875 259.25 408.65 265.25 404.25 271.3 400.4 289.1 389.05 306.85 381.95 316.95 377.9 325.05 376 332.75 387.15 339.1 400.4 340 402.45 341 404.55 322.55 409.1 304.7 418.05 297.2712890625 421.7697265625 290.3 426.1
L 375.65 426.1
Q 369.3953125 412.89609375 361.75 400.8 361.65 400.6 361.5 400.4 356.2041015625 392.025 350.2 384.1 Z"/>
</g>

<g id="Layer3_0_FILL">
<path fill="#FFFFFF" stroke="none" d="
M 327.05 413.5
L 326.9 413.6
Q 326.2 413.6 325.55 413.85 324.3 414.35 324.3 415.35 324.3 416.35 324.45 416.35
L 324.65 416.4
Q 326.1 416.4 326.9 416.1 327.05 415.9 327.15 415.8 327.25 415.6 327.25 414.65 327.25 413.6 327.05 413.5
M 359.2 417.75
Q 359.75 418.35 360.65 418.35 361.65 418.35 361.85 418.1 362.15 417.85 362.2 417.85
L 362.5 416.4 362.2 414.45
Q 360.15 414.5 359.3 415.25 358.9 415.5 358.4 416.55 359.1 417.65 359.2 417.75
M 379.1 419.65
Q 377.15 419.1 376.35 419.8 375.9 420.3 375.9 421.5 375.9 421.9 377.65 423.6 378.05 423.5 378.6 423.25 378.95 423.05 379.1 423.05
L 379.45 421.6 379.1 419.65
M 392.6 413.15
Q 392.4 412.75 392.4 412.45 391 412.2 390.3 412.35 389.25 412.65 389.25 413.8 389.25 414.8 389.35 414.9 389.45 414.95 389.7 415.1
L 389.8 415.3
Q 390.1 415.45 391.1 415.45 392.2 415.45 392.55 415.1 392.7 414.85 392.9 413.9
L 392.6 413.15
M 139.9 402.35
Q 139.3 402.35 139.1 402.5 138.8 402.65 138.8 403.7 138.8 404.75 139.05 405 139.2 405.15 139.9 405.3 140.55 405.15 140.7 405
L 141.05 403.85
Q 141.05 403.6 140.8 403.15 140.45 402.55 139.9 402.35
M 163.45 410.65
Q 163.1 410.1 162.1 410.35 162.1 411.3 162.4 411.8
L 163.3 411.65 163.45 410.65
M 190.2 420.45
L 189.7 419.5
Q 189.15 419.35 188.3 419.75 187.55 420.1 187.45 420.45 187.7 421.25 188.9 421.75 189.9 421.35 190.2 420.45
M 183.1 415.4
Q 183.2 415.3 183.55 414.8
L 183.2 413.75
Q 182.75 413.55 182.1 413.55 181.5 413.6 181.35 413.6
L 181.25 413.55
Q 181.2 413.7 181.2 414.7 181.2 415.7 181.5 415.7 181.7 415.75 182.4 415.75 182.85 415.65 183.1 415.4
M 200.8 400.4
Q 202 400.2 202.3 399.75 201.9 399.15 201.2 398.95 201 398.95 200.3 398.95 200.3 399.9 200.8 400.4
M 213.75 418.7
Q 214.95 418.25 215.35 417.05 214 415.45 213.15 415.7 212.5 415.95 212.3 417.4 212.6 418.3 213.75 418.7
M 214.15 400.4
Q 213.65 400.4 213.55 400.4 213.6 401.2 214.4 401.5 215.05 401.2 215.2 400.7 214.85 400.5 214.5 400.4 214.35 400.4 214.15 400.4
M 244.1 420.6
Q 243.95 420.4 243.95 420.3 242.2 419.7 240.95 420.55 239.9 421.3 239.9 422.55 239.9 422.75 240.25 423.1 240.4 423.25 241.8 424.45 242.7 423.95 243.55 422.95 244.25 422.05 244.25 421.75 244.25 420.8 244.1 420.6
M 251.95 412.6
Q 251.95 413.4 252.4 414.1 252.95 415.1 254.2 415.45 255.2 415.05 256 414.1 256.65 413.25 256.65 412.6 256.65 410.15 254.3 410.7 251.95 411.25 251.95 412.6
M 257.1 397.65
Q 257.1 398.6 257.6 399.1 258.8 398.95 259.15 398.45 258.75 397.85 258 397.65 257.8 397.65 257.1 397.65
M 303.5 422.9
Q 302.7 422.9 302.2 423.35 302.2 424.85 303.2 425.25 304 424.9 304.15 424.45 304.15 423.55 303.5 422.9
M 291.85 406.9
Q 291.6 406.6 291.6 406.45 289.6 405.75 288.75 406.75 288.2 407.3 288.2 408.25 288.2 408.4 288.55 408.7 288.85 408.95 290.15 410 290.95 409.85 291.75 409.35 291.85 409.5 291.95 409.35 292.1 409.15 292.1 408.15 292.1 407.2 291.85 406.9
M 311.7 390.25
Q 311 390.3 310.7 390.45 310.25 390.65 310.25 391.65 310.25 392.7 310.6 392.9 310.85 393.05 311.7 393.2
L 312.65 392.85 313.15 391.55
Q 312.5 390.6 311.7 390.25
M 294.65 389.35
Q 294.85 389.15 295 388.65 294 388.1 293.6 388.1 293.25 388.3 293.05 388.3 293.05 389.05 293.55 389.8 294.3 389.65 294.65 389.35
M 292.1 357.8
Q 293.05 357.4 293.4 356.45
L 292.9 355.45
Q 292.15 355.65 291.95 355.8 291.35 356.05 290.8 356.9 291.3 357.5 292.1 357.8
M 322.3 366.8
Q 321.7 366.4 320.65 366.4 320.65 367.3 321.5 367.6 322.15 367.3 322.3 366.8
M 281.5 389.75
Q 281 390.3 281 391.25 281 391.4 281.35 391.7 281.6 391.95 282.95 393 283.75 392.85 284.55 392.35 284.9 392.8 284.9 391.15 284.9 390.25 284.65 389.9 284.4 389.6 284.4 389.45 282.35 388.75 281.5 389.75
M 271.7 378.85
L 271.35 377.9
Q 270.9 377.7 270.3 377.7 269.75 377.7 269.6 377.7
L 269.5 377.65
Q 269.45 377.75 269.45 378.75 269.45 379.75 269.7 379.8 269.85 379.8 270.55 379.8 271 379.7 271.25 379.45 271.35 379.35 271.7 378.85
M 259 354.8
Q 258.4 354.5 257.9 354.55 257.4 354.55 257.1 354.8 257.1 355.6 257.75 356.25 258.5 356.25 259.15 355.3
L 259 354.8
M 249.05 370.7
Q 247.1 370.45 246.5 371 246.7 371.55 246.9 371.95 247.35 372.5 248.3 373.25 249.05 373.1 249.2 372.95
L 249.5 372.15 249.25 371.4
Q 249.05 370.95 249.05 370.7
M 280.2 369
Q 280.2 369.3 282.3 371 283.1 370.7 283.75 369.7 283.6 369.2 282.7 368.35 281.75 367.55 281.65 367.45 281.65 367.5 280.9 367.7 280.2 368 280.2 369
M 272.2 355.15
Q 272.2 356.1 272.65 356.6 273.8 356.45 274.1 355.95 273.7 355.35 273.05 355.15 272.85 355.15 272.2 355.15
M 272.2 339.85
Q 272.65 340.3 273.8 340.5 274.45 340.15 274.75 339.65 274.7 339.4 274.4 339
L 274.1 338.7
Q 273.45 338.7 272.8 339.1 272.2 339.45 272.2 339.85
M 320.35 334.4
Q 320.85 333.9 321 333.45 320.45 333.1 319.95 333.1 319.45 333.1 319.35 333.1
L 319.35 333.9
Q 319.85 334.4 320.35 334.4
M 303.85 338.2
Q 302.35 337.2 301.75 337.8 301.75 338.4 302.05 338.85 303.5 338.7 303.85 338.2
M 231.05 389.15
L 231.1 389.3
Q 231.35 389.45 232.35 389.45 233.35 389.45 233.8 389 234.15 388.4 234.3 388.15 234.3 387.9 234.05 387.2 233.8 386.45 233.8 386.2 232.7 386 231.8 386.1 231 386.2 230.75 386.2 230.65 386.55 230.45 386.7 230.4 386.75 230.4 387.7 230.4 388.7 230.55 388.85 230.65 388.95 231.05 389.15
M 217.3 368.1
L 217.8 366.8
Q 217.2 365.8 216.3 365.4 215.65 365.45 215.35 365.6 214.85 365.85 214.85 366.85 214.85 367.9 215.25 368.15 215.45 368.3 216.3 368.4
L 217.3 368.1
M 207 352.05
Q 207.35 352.55 208.45 352.7 209.05 352.55 209.3 351.75 208.2 351.25 207 351.25
L 207 352.05
M 231.05 353.2
Q 231.05 354.15 231.55 354.65 232.7 354.5 233 354 232.6 353.4 231.9 353.25 231.75 353.2 231.05 353.2
M 185 384.05
Q 182.55 384.05 182.55 386.7 182.55 387.55 182.75 387.9 183.25 388.95 185 388.95 185.95 388.95 186.65 388.35 187.45 387.7 187.45 386.6 187.45 384.1 185 384.05
M 173.6 394.65
Q 173 393.75 171.9 393.35 171.15 393.4 170.85 393.55 170.25 393.8 170.25 394.8 170.25 396.4 170.45 395.85 170.9 396.35 171.9 396.65 172.7 395.95 173.2 395.3 173.6 394.8 173.6 394.65
M 170.6 369
Q 169.95 369.2 169.95 370.2 169.95 370.3 170.3 370.65 171.3 371.4 171.9 371.95 172.75 371.65 173.1 370.7 171.8 369.4 171.25 368.9 171.25 369 170.6 369
M 182.9 369.7
Q 182.9 370.5 183.7 370.85 184.35 370.5 184.5 370.05 184 369.7 183.45 369.7 182.95 369.7 182.9 369.7
M 196.9 345.5
Q 198.05 345.35 198.35 344.85 197.95 344.25 197.25 344.1 197.1 344.05 196.4 344.05 196.4 345 196.9 345.5
M 239.9 342.1
Q 240.55 341.8 240.7 341.3 240.15 340.95 239.65 340.95 239.15 340.95 239.05 340.95 239.05 341.8 239.9 342.1
M 230.75 333.1
Q 230.15 333.15 229.9 333.3 229.6 333.45 229.6 334.5 229.6 335.55 229.9 335.75 230.05 335.9 230.75 336.05 231.4 335.85 231.55 335.7
L 231.85 334.65
Q 231.85 334.35 231.6 333.9 231.25 333.3 230.75 333.1
M 237.55 329.05
Q 237.55 330.05 238 330.55 239.25 330.35 239.55 329.9 239.1 329.25 238.4 329.1 238.2 329.05 237.55 329.05
M 155.3 382.1
Q 155.2 381.8 154.9 381.45
L 154.65 381.1
Q 153.65 381.1 153.25 381.3 152.45 381.6 152.45 382.65 152.45 383.65 152.6 383.65 152.7 383.65 152.8 383.4
L 153.65 383.7
Q 154.35 383.45 154.7 383.15 155.05 382.8 155.3 382.1
M 387.8 395.85
Q 389.4 395.85 390.6 395.55
L 390.95 394.15
Q 389.5 393.2 388.45 393.2 387.3 393.1 387.3 394.25 387.3 395.2 387.55 395.55
L 387.8 395.85
M 369.95 388.8
Q 369.25 389 369 389.15 368.45 389.4 367.85 390.25 368.35 390.75 369.15 391.1 370.15 390.65 370.45 389.8
L 369.95 388.8
M 378 371.15
L 377.9 371.1
Q 377.8 371.2 377.8 372.2 377.8 373.2 378 373.25
L 378.15 373.25
Q 379.6 373.25 380.25 373.1
L 380.75 372.3 380.4 371.3
Q 379.5 371.1 378.8 371.1 378.15 371.15 378 371.15
M 354.2 395.75
Q 354.2 394.85 353.95 394.5 353.7 394.1 353.7 394 350.2 392.9 350.2 395.85 350.2 396 350.6 396.35 350.85 396.6 352.15 397.65 353.05 397.45 353.85 397 354.2 397.4 354.2 395.75
M 364.15 375.85
Q 363.95 375.55 363.85 375.2
L 363.8 374.9
Q 361.95 374.55 360.65 374.9
L 360.6 374.8
Q 360.5 374.95 360.5 375.95 360.5 376.9 360.75 377.25
L 361 377.55
Q 362.7 377.55 363.8 377.25
L 364.15 375.85
M 339.3 381.75
Q 338.65 380.8 337.85 380.45 337.15 380.5 336.85 380.65 336.35 380.85 336.35 381.85 336.35 382.9 336.75 383.1 337 383.25 337.85 383.4
L 338.8 383.05 339.3 381.75
M 360 363
Q 360.65 362.65 360.8 362.2 360.3 361.85 359.75 361.85 359.3 361.85 359.2 361.85 359.2 362.65 360 363
M 347.15 368.1
Q 345.85 368.1 345.2 368.75 345.15 368.85 344.55 369.85 344.85 370.35 345.7 370.7 347.1 370.1 347.45 369.05
L 347.15 368.1
M 346.5 343.25
Q 345.95 342.9 345.45 342.9 344.95 342.9 344.85 342.9 344.85 344.2 345.2 344.7
L 346 344.7
Q 346.5 344.2 346.5 343.25
M 326.75 343.9
Q 326.05 343.9 325.75 344.05 325.3 344.25 325.3 345.25 325.3 346.3 325.65 346.5 325.9 346.65 326.75 346.8
L 327.7 346.45 328.2 345.2
Q 327.55 344.2 326.75 343.9 Z"/>
</g>

<g id="Layer1_0_FILL">
<path fill="url(#Gradient_7)" stroke="none" d="
M 182.25 69.5
Q 182.25 69.25 182.3 69.05 182.3 68.3 181.7 68.15 180.3 68 179.05 67.4 177.8 66.75 176.45 66.6 174.3 66.5 172.1 66.25 169.8 66.05 167.65 66.05 159.95 65.9 152.3 65.9 144.65 65.95 136.9 65.5 134.8 65.4 132.75 65.45 130.7 65.5 128.55 65.6 128.1 65.7 127.7 65.65 127.25 65.6 126.8 65.5 125.1 65.4 123.4 66.35 121.6 67.25 120.85 68.75 119.1 72.6 118.65 76.55 118.35 79.65 118.2 82.65 118 85.7 117.9 88.9 117.8 92.8 117.7 96.6 117.55 100.4 117.55 104.25 117.55 105 117.45 105.7 117.4 106.45 117.3 107.2 117.15 109.15 117.05 111.1 117 113.1 116.95 115.15 116.75 118.55 116.9 121.9 117 125.25 117.15 128.65 117.3 132.5 117.2 136.35 117.15 140.25 117.05 144.05 117 148.45 117.2 152.8 117.45 157.15 118.55 161.55 118.95 163.05 120.15 164.1 121.35 165.2 122.85 165.35 123.9 165.5 124.85 165.45 125.8 165.4 126.75 165.35 128.05 165.2 128.65 164.3 128.85 163.85 129.4 163.4 130.7 162.6 131.1 161.3 131.45 160.05 131.65 158.65 131.95 156.25 132.1 153.95 132.25 151.65 132.4 149.2 132.55 146.05 132.6 142.9 132.75 139.75 132.9 136.5 133.05 132.7 132.85 128.9 132.6 125.1 132.6 121.3 132.55 116.35 132.85 111.45 133.05 106.55 133 101.6 132.95 101.25 133 100.95 133 100.65 133 100.3 133 99.15 133.3 98.9 133.5 98.6 134.65 98.6
L 136.95 98.6
Q 144 98.7 151.05 98.6 158.05 98.55 165.1 97.95 168.3 97.75 171.05 96.85 173.85 95.9 176.15 93.65 176.65 93.3 177 92.55 177.5 91.5 177.1 90.85 176.65 90.15 175.55 90
L 173.3 89.8
Q 170.9 89.4 168.45 89.05 166.05 88.7 163.6 88.6 161.15 88.45 158.7 88.25 156.25 88.05 153.8 87.9 149.3 87.6 144.9 87.6 140.55 87.65 136.05 88.5 135.65 88.6 135.3 88.65 134.95 88.65 134.55 88.65 133.8 88.65 133.6 88.5 133.35 88.25 133.35 87.45 133.35 84.5 133.3 81.6 133.15 78.7 132.6 75.8 132.55 74.85 133.45 74.85 134.45 74.95 135.35 74.95 136.3 74.95 137.35 74.95 140.15 75.3 142.9 75.45 145.7 75.65 148.5 75.65 150.8 75.6 153.1 75.6 155.4 75.65 158 75.65 161.85 75.4 166 75.55 170.05 75.65 174.2 75.35 175.6 75.3 176.75 74.75 177.85 74.2 178.85 73.45 179.75 72.7 180.5 71.8 181.25 70.85 182.05 69.85 182.25 69.7 182.25 69.5
M 127.45 85.9
Q 127.6 84.8 127.65 83.6 127.75 80.3 128.6 77.4 128.9 76.35 129.85 76.1 130.9 77.45 131 79.1 131.05 80.15 131.1 81.25 131.15 83.05 130.95 84.8 130.8 86.35 129.9 87.4 129.15 88.15 128.05 87.6 127.35 86.85 127.45 85.9
M 127.8 102.85
Q 128 102 128.35 101.2 128.5 100.75 128.7 100.45 128.8 100.55 128.85 100.75 129.05 101.7 129.1 102.75 129.15 103.5 129.15 104.35 129.25 108.25 129.5 112.2 129.7 114.95 129.7 117.85 129.75 124.7 129.95 131.55 129.95 132.2 129.95 132.85 130.1 136.45 129.95 140.1 129.85 143.55 129.65 147 129.5 149.85 129.2 152.85 128.95 155.8 128.15 158.55 127.8 159.6 126.9 160.25 126.55 160.2 126.35 160 125.85 159.65 125.65 159.05 125.25 157.95 125 156.8 124.45 154 124.45 151.15 124.45 146.55 124.5 142 124.5 140.15 124.55 138.35 124.55 136.6 124.6 134.85 124.65 130.45 124.7 125.95 124.7 123.55 124.8 121.2 125.05 114.65 126.5 108.3 127.1 105.55 127.8 102.85 Z"/>

<path fill="#FFFFFF" stroke="none" d="
M 128.35 101.2
Q 128 102 127.8 102.85 127.1 105.55 126.5 108.3 125.05 114.65 124.8 121.2 124.7 123.55 124.7 125.95 124.65 130.45 124.6 134.85 124.55 136.6 124.55 138.35 124.5 140.15 124.5 142 124.45 146.55 124.45 151.15 124.45 154 125 156.8 125.25 157.95 125.65 159.05 125.85 159.65 126.35 160 126.55 160.2 126.9 160.25 127.8 159.6 128.15 158.55 128.95 155.8 129.2 152.85 129.5 149.85 129.65 147 129.85 143.55 129.95 140.1 130.1 136.45 129.95 132.85 129.95 132.2 129.95 131.55 129.75 124.7 129.7 117.85 129.7 114.95 129.5 112.2 129.25 108.25 129.15 104.35 129.15 103.5 129.1 102.75 129.05 101.7 128.85 100.75 128.8 100.55 128.7 100.45 128.5 100.75 128.35 101.2
M 127.65 83.6
Q 127.6 84.8 127.45 85.9 127.35 86.85 128.05 87.6 129.15 88.15 129.9 87.4 130.8 86.35 130.95 84.8 131.15 83.05 131.1 81.25 131.05 80.15 131 79.1 130.9 77.45 129.85 76.1 128.9 76.35 128.6 77.4 127.75 80.3 127.65 83.6
M 301.55 -38
Q 301.4 -37.75 301.4 -37.5 301.15 -31.9 301.85 -26.2 302 -24.85 302 -23.65 302.05 -20.4 302 -17 302 -14.15 302.85 -11.55 303.15 -10.7 304.1 -10.35 305.15 -10.05 305.8 -10.85
L 306 -12.75
Q 306 -13.15 305.95 -13.55 305.15 -23.65 303.1 -33.5 302.6 -35.85 301.55 -38
M 330.25 -26.55
Q 330.45 -26.1 330.5 -25.6 330.8 -20.85 330.95 -16.1 331 -15.15 330.85 -14.25 330.6 -12.35 330.35 -10.5 330.15 -9 329.95 -7.45 329.6 -4.95 330.4 -2.55 330.9 -1 332.45 -1.5 333.45 -2.9 333.55 -4.75 333.7 -6.7 333.8 -8.6 333.95 -12.05 333.75 -15.6 333.55 -19.3 332.9 -23 332.3 -26.25 330.6 -29.1 329.7 -30.55 328.1 -31.4 328.65 -30.05 329.3 -28.7 329.85 -27.65 330.25 -26.55
M 369.6 -12.65
Q 369.3 -22.8 367.25 -32.85 366.6 -35.95 363.75 -37.25 367.5 -29 367.15 -19.95 366.6 -6.25 364.35 7.25 363 15.4 364.95 23.2 365.35 24.7 366.8 24.65 368.55 23.9 368.7 21.65 369.15 14 369.2 6.25 369.25 -3.3 369.6 -12.65
M 219.85 91.45
Q 220.8 91.8 221.55 92.45 223.5 94.2 223.95 96.9 224.45 99.8 224.65 102.75 224.9 106.45 226.05 110.05 226.25 109.75 226.4 109.45 227.4 107.3 227.15 104.8 226.95 101.65 226.6 98.65 226.45 97.6 226.25 96.6 225.9 95.1 225.3 93.55 224 90.25 220.55 89.45 219.4 89.25 218.8 89.85
L 218.65 91.05
Q 219.25 91.2 219.85 91.45
M 191.95 92.3
Q 191.6 92.9 191.75 93.5 192.2 95.15 192.7 96.6 194.25 101.3 194.3 106.35 194.35 108.1 195.45 109.5
L 196.85 109.45
Q 196.95 109.3 197.05 109.15 197.55 108 197.35 107 197.3 101.7 195.15 97.15 194.35 95.45 193.55 93.7 193.05 92.6 191.95 92.3
M 249.4 112.4
Q 250.25 108.55 251.6 104.75 248.45 109.3 246.95 114.6 244.95 121.4 244.75 128.55 244.7 130.85 244.8 133.2 244.85 134.95 245 136.7 245.8 144.45 248.8 151.4 250.1 154.45 252.7 156.8 255 158.85 258.2 158.65 258.9 158.7 259.6 158.35 259.95 158.2 260.2 157.6 260.2 157.4 260.15 157.35 259.3 156.85 258.45 156.35 256.7 155.5 255.15 154 252.75 151.6 251.25 148.4 249.85 145.45 248.95 142.3 248 139.2 247.6 136.1 247.15 132.25 247.2 128.25 247.2 126.3 247.35 124.45 247.7 120.75 248.45 117.1 248.9 114.75 249.4 112.4
M 275.6 95
Q 272.95 93.85 270.05 93.6 274.65 96.1 277.5 100.35 279.05 102.7 279.6 105.3 280.7 110.3 279 114.85 278.45 116.25 277.7 117.7 276.1 120.8 274.9 124.1 278.15 123.15 279.75 120.1 280.4 118.9 281 117.65 282.7 114 282.7 110 282.6 108.15 282.5 106.35 282.25 102.5 280.4 99.15 279.4 97.45 277.8 96.35 276.75 95.55 275.6 95
M 325.7 144.95
Q 325.6 141.7 325.15 138.5 324.7 135.25 323.8 132.15 322.8 128.65 321.25 125.4 319.7 122.15 317.9 119.1 318.15 120 318.55 120.95 319.15 122.45 319.9 123.95 320.75 125.65 321.15 127.8 321.9 132.15 322.65 136.55 323.1 139.35 323.05 142.15 322.95 146.65 322.15 151 321.85 152.6 321.2 154.05 320.2 156.1 318.85 157.95 318.1 158.9 316.95 159.25 316.2 159.5 315.5 159.8 314.6 159.95 313.7 160.15 312.4 160.45 311.2 160.9 310.7 161.1 310.25 161.45 310.35 162 310.6 162.5 310.85 162.95 311.3 163.15 313.45 164.35 315.85 163.85 319.45 163.25 321.85 160.45 322.45 159.7 322.95 158.9 324.9 155.65 325.35 151.85 325.8 148.4 325.7 144.95
M 377.45 93.6
Q 376.75 92.95 375.85 93.1 374.8 92.85 373.85 93.15 374.45 94.85 375.05 96.65 376.95 102.5 377.5 108.35 377.65 110.3 377.75 112.3 378.05 119.2 378.25 126.15 378.4 131 379.1 135.95 379.3 137.45 379.65 139 380.3 141.95 381.2 144.9 381.75 146.75 382.5 148.55 383.2 150.3 384.15 151.9 384.55 152.65 385.1 153.3 385.15 153.05 385.2 152.8 385.3 152.1 385.25 151.45 385.05 148.2 384.55 145.05 384 141.8 383.5 138.55 383.05 135.4 382.65 132.25 382.15 128.35 381.8 124.3 381.5 121.15 381.5 118.05 381.45 114.35 381.45 110.55 381.45 105.85 380.7 101.05 380.3 98.3 379.1 95.95 378.75 95.2 378.25 94.55 377.9 94.05 377.45 93.6
M 344.7 60.5
Q 344.5 60.2 344.25 59.95 344.1 59.9 343.95 59.9 343.3 60.8 343.3 62.15 343.25 63.8 343.35 65.35 343.35 65.85 343.35 66.4 343.4 66.95 343.4 67.55 343.85 78.55 344.45 89.45 344.5 90.8 344.55 92.2
L 344.55 120.4
Q 344.9 125 345.15 129.6 345.2 130.6 345.2 131.65 345.25 132.7 345.3 133.8 345.7 140.05 348.1 145.8 348.4 146.45 348.7 147.1 349.3 146.25 349.4 145.15 349.4 144.85 349.4 144.55 349.05 136.45 348.85 128.4 348.75 124.3 348.5 120 348.5 119.65 348.45 119.3
L 348.45 92.5
Q 348.2 89.65 348.15 87.1 348 82.05 348.05 77.1 348.1 71.75 346.9 66.5 346.8 65.95 346.65 65.45 346.25 63.85 345.7 62.45 345.3 61.45 344.7 60.5
M 280.7 -40.4
Q 281.8 -39.75 282.85 -39 285.8 -36.75 286.55 -32.95 286.9 -31.1 287 -29.2 287.15 -26.45 288.2 -23.9
L 288.65 -30.05
Q 288.4 -32.15 287.95 -34.2 287.5 -36.4 286.65 -38.45 286.2 -39.65 285.4 -40.6 284.85 -41.3 284.05 -41.45 282.15 -42 280.7 -40.4
M 253.15 -39.65
Q 253.15 -39.2 253.2 -38.75 253.45 -36.7 253.85 -34.55 254.6 -30.3 255.5 -26 256.4 -21.8 257.9 -17.7 258.15 -18.2 258.4 -18.65 259.15 -20.2 259.2 -21.95 259.25 -23.2 259.05 -24.55 258.75 -27.05 258.25 -29.5 257.3 -34.05 255.15 -38 254.5 -39.15 253.25 -39.85 253.2 -39.9 253.15 -39.8 253.15 -39.75 253.15 -39.65
M 230.35 -38.5
Q 229.75 -38.3 229.3 -37.95 228.75 -37.5 228.55 -36.8 228.35 -36 228.55 -35.2 228.7 -34.45 229.4 -34.35 230.7 -34.1 231.45 -35.05
L 231.6 -35.75
Q 231.8 -37.4 230.7 -38.45 230.5 -38.5 230.35 -38.5
M 230.15 -28.7
Q 230.15 -29.45 229.6 -29.95 228.75 -27.7 228.5 -25.2 228.1 -21.35 227.95 -17.3 227.85 -13.85 227.85 -10.2 227.85 -6.5 228.2 -2.9 228.4 -0.65 228.6 1.65 228.8 3.9 229.1 6.2 229.5 9.55 230.05 12.95 230.5 15.8 231.05 18.65 231.7 22.05 233 25.4 233.6 26.95 234.9 28.15 235.3 28.45 235.85 28.55 236.45 28.75 237.05 28.6 237.65 28.4 238 27.85 239.15 26.15 238.75 24 237.95 20.05 236.9 16.25 236 13 235.1 9.7 234.1 6.1 233.45 2.5 233.05 0.25 232.65 -2.05 232.25 -4.2 231.9 -6.4 231.55 -8.65 231.25 -10.85 231 -13.05 230.8 -15.2 230.6 -17.4 230.45 -19.55 230.35 -21.7 230.3 -23.85 230.2 -26.3 230.15 -28.7
M 129.85 -55.5
Q 128.9 -55.25 128.6 -54.2 127.75 -51.3 127.65 -48 127.6 -46.8 127.45 -45.7 127.35 -44.75 128.05 -44 129.15 -43.45 129.9 -44.2 130.8 -45.25 130.95 -46.8 131.15 -48.55 131.1 -50.35 131.05 -51.45 131 -52.5 130.9 -54.15 129.85 -55.5
M 128.35 -30.4
Q 128 -29.6 127.8 -28.75 127.1 -26.05 126.5 -23.3 125.05 -16.95 124.8 -10.4 124.7 -8.05 124.7 -5.65 124.65 -1.15 124.6 3.25 124.55 5 124.55 6.75 124.5 8.55 124.5 10.4 124.45 14.95 124.45 19.55 124.45 22.4 125 25.2 125.25 26.35 125.65 27.45 125.85 28.05 126.35 28.4 126.55 28.6 126.9 28.65 127.8 28 128.15 26.95 128.95 24.2 129.2 21.25 129.5 18.25 129.65 15.4 129.85 11.95 129.95 8.5 130.1 4.85 129.95 1.25 129.95 0.6 129.95 -0.05 129.75 -6.9 129.7 -13.75 129.7 -16.65 129.5 -19.4 129.25 -23.35 129.15 -27.25 129.15 -28.1 129.1 -28.85 129.05 -29.9 128.85 -30.85 128.8 -31.05 128.7 -31.15 128.5 -30.85 128.35 -30.4 Z"/>

<path fill="url(#Gradient_8)" stroke="none" d="
M 307.2 -24.9
Q 306.95 -26.65 306.9 -28.35 306.75 -30.05 306.45 -31.7 306.3 -33 305.95 -34.2 305.55 -35.4 305.35 -36.7 304.95 -38.15 304.35 -39.4 303.75 -40.6 302.95 -41.8 302.1 -43.1 300.55 -43.4 299 -43.75 297.8 -43.1 296.85 -42.7 296.85 -41.8 296.7 -39.2 296.55 -36.55 296.4 -33.9 296.3 -31.3 296.25 -27.7 296.25 -24.25 296.2 -20.8 296.3 -17.3 296.55 -7.8 297.2 1.65 297.4 4.5 297.7 7.2 298.05 9.95 298.45 12.85 298.8 15.45 299.15 18.15 299.55 20.8 299.95 23.4 300.15 24.65 300.4 25.9 300.6 27.15 300.85 28.4 301.35 30.35 302.55 32.1 302.95 32.6 303.2 32.9 303.45 33.1 304.05 33.35 304.5 33.55 304.95 33.75 305.35 33.9 305.9 33.9 306.75 33.9 307.5 33.9 308.35 33.9 309.15 33.6 309.95 33.35 310.5 32.95 311.1 32.5 311.4 31.65 311.7 30.75 311.7 29.5 311.7 28.95 311.75 28.45 311.8 28 311.7 27.45 311.55 26.15 311.6 24.85 311.7 23.55 311.6 22.3 311.45 20.05 311.4 17.75 311.35 15.45 311.35 13.15 311.35 11.7 311.45 10.3 311.6 8.9 311.6 7.5 311.7 4.15 312.2 1.1 312.85 -1.95 313.65 -5.1 314.25 -7.05 314.75 -8.95 315.25 -10.9 315.85 -12.85 316.4 -14.95 317.15 -17 317.8 -19.05 318.85 -21 319.35 -21.95 319.95 -22.8 320.55 -23.65 321 -24.55 321.75 -26.05 322.85 -27.25 323.85 -28.4 325.1 -29.4 325.85 -27.7 325.85 -26.05 325.9 -24.4 325.8 -22.7 325.55 -20.75 325.35 -18.7 325.1 -16.75 324.9 -14.8 324.75 -13.25 324.65 -11.7 324.45 -10.15 324.35 -8.55
L 323.6 -0.7
Q 323.6 -0.25 323.7 0.25 323.8 0.7 323.7 1.05 323.7 2.2 323.6 3.35 323.6 4.5 323.6 5.65 323.6 6.45 323.65 7.3 323.8 8.2 323.85 9.05 323.85 9.45 323.8 9.6 323.4 10.05 323.4 10.55 323.4 11 323.5 11.55 323.6 12.1 323.6 12.55 323.6 13.05 323.6 13.5 323.6 16.2 323.85 18.85 324.05 21.45 324.55 24.1 324.75 25.8 325.1 27.4 325.45 29.05 326.4 30.55 327 31.6 328.55 32.2 330.15 32.75 331.3 32.4 331.45 32.3 331.55 32.3 331.75 32.25 331.9 32.1 332.35 31.75 332.8 31.45 333.25 31.05 333.8 30.75 335.5 29.7 336.3 28.1 337.15 26.5 337.3 24.75 337.65 21.45 337.85 18.2 338 15 338.35 11.7 338.45 9.7 338.75 7.6 338.95 5.65 339.4 3.6 339.95 0.95 340.7 -1.65 341.35 -4.25 342.2 -6.85 342.75 -8.75 343.45 -10.55 344.1 -12.4 344.9 -14.2 346.05 -16.7 347.25 -19.05 348.4 -21.45 349.65 -23.8 351.5 -27 353.7 -29.65 355.85 -32.4 359.05 -34.35 359.8 -34.85 360.55 -35 361.3 -35.2 362.1 -35.3 362.9 -35.35 363.1 -34.6 363.6 -32.9 363.45 -30.7 363.35 -28.55 363.2 -26.35 363.1 -24.2 362.95 -22.05 362.7 -19.6 362.45 -17.35 362.1 -15 361.85 -12.6 361.6 -10.9 361.3 -9.1 361 -7.25 360.85 -5.55 360.75 -3.9 360.75 -2.35 360.75 -0.8 360.55 0.9 360.4 3.45 360.15 6 359.95 8.55 359.8 11.1 359.65 13.05 359.7 15.05 359.7 17.05 359.7 18.95 359.8 21.6 360.25 24.15 360.75 26.65 361.45 29.1 361.85 30.55 363.05 30.8 364.3 31.2 365.45 30.75 366.55 30.3 367.65 29.95 368.35 29.7 368.95 28.95 369.55 28.2 369.85 27.3 370 26.8 370.25 26.2 370.4 25.65 370.75 25.2 371.2 24.55 371.25 23.9 371.3 23.25 371.1 22.6 371.05 22.15 371 21.65 370.9 21.2 370.9 20.8 370.75 19.05 370.7 17.35 370.7 15.55 370.55 13.85 370.4 10.35 370.45 6.9 370.45 3.45 370.9 -0.05 371.45 -3.4 371.5 -6.8 371.55 -10.15 371.45 -13.6 371.3 -16.45 371.05 -19.3 370.75 -22.1 370.65 -24.9 370.2 -31.75 366.75 -37.85 366.15 -38.85 365.45 -39.7 364.65 -40.45 363.6 -40.85 361.45 -41.45 359.45 -41.35 357.4 -41.2 355.45 -40.15 352.65 -38.65 350.35 -36.65 348.1 -34.7 346.25 -32.15 343.45 -28.4 341.45 -24.3 339.5 -20.2 337.75 -15.95 337.25 -14.65 336.75 -13.25 336.25 -11.85 335.65 -10.35 335.4 -11.1 335.4 -11.3 335.35 -12.6 335.35 -13.8 335.3 -15.1 335.3 -16.4 335.2 -24.2 331 -30.85 330.4 -31.7 329.85 -32.55 329.3 -33.45 328.3 -33.9 327.45 -34.3 326.7 -34.7 325.95 -35.05 325.1 -35.4 323.25 -36.2 321.65 -35.4 319.4 -34.6 317.85 -33.1 316.2 -31.55 315.15 -29.6 313.8 -27.1 312.65 -24.45 311.55 -21.85 310.4 -19.25 309.9 -17.95 309.45 -16.7 309 -15.45 308.4 -13.95 307.6 -16.8 307.55 -19.55 307.5 -22.3 307.2 -24.9
M 367.25 -32.85
Q 369.3 -22.8 369.6 -12.65 369.25 -3.3 369.2 6.25 369.15 14 368.7 21.65 368.55 23.9 366.8 24.65 365.35 24.7 364.95 23.2 363 15.4 364.35 7.25 366.6 -6.25 367.15 -19.95 367.5 -29 363.75 -37.25 366.6 -35.95 367.25 -32.85
M 330.5 -25.6
Q 330.45 -26.1 330.25 -26.55 329.85 -27.65 329.3 -28.7 328.65 -30.05 328.1 -31.4 329.7 -30.55 330.6 -29.1 332.3 -26.25 332.9 -23 333.55 -19.3 333.75 -15.6 333.95 -12.05 333.8 -8.6 333.7 -6.7 333.55 -4.75 333.45 -2.9 332.45 -1.5 330.9 -1 330.4 -2.55 329.6 -4.95 329.95 -7.45 330.15 -9 330.35 -10.5 330.6 -12.35 330.85 -14.25 331 -15.15 330.95 -16.1 330.8 -20.85 330.5 -25.6
M 301.4 -37.5
Q 301.4 -37.75 301.55 -38 302.6 -35.85 303.1 -33.5 305.15 -23.65 305.95 -13.55 306 -13.15 306 -12.75
L 305.8 -10.85
Q 305.15 -10.05 304.1 -10.35 303.15 -10.7 302.85 -11.55 302 -14.15 302 -17 302.05 -20.4 302 -23.65 302 -24.85 301.85 -26.2 301.15 -31.9 301.4 -37.5
M 189.35 89.15
Q 188.55 89.35 187.7 89.55 186.95 89.8 186.35 90.1 185.75 90.4 185.7 90.65 185.7 90.75 185.85 93.35 186.05 95.9 186.5 100.1 186.9 104.3 187.45 109.75 188 115.25 188.75 121.3 189.45 127.35 190.3 133.55 191.1 139.7 192 145.35 192.9 151.05 193.8 155.75 194.8 160.5 195.7 163.6 196.1 164.65 197.15 165.05 198.3 165.45 199.6 165.45 200.95 165.45 202.2 165.15 203.45 164.85 204.25 164.45 205.15 164.45 205.8 163.95
L 206.25 163.5
Q 206.85 162.75 207.05 161.8 207.25 160.9 207.3 159.9 207.4 159.4 207.45 158.85 207.5 158.3 207.4 157.8 207.25 157.15 207.05 156.4 206.95 155.75 206.75 155.1 206.55 153.6 206.3 152.05 206.1 150.45 205.9 148.95 205.75 147.45 205.55 145.85 205.35 144.3 205.15 142.7 205.05 142 204.9 141.35 204.8 140.7 204.7 139.95 204.3 137.45 204.05 135 203.8 132.5 203.25 130.1 202.85 128.15 202.6 126.25 202.35 124.35 202.1 122.4 202.1 121.9 202.1 121.45 202.1 120.95 202.3 120.55 203.1 117.2 204.4 114.05 205.75 110.85 207.5 107.95 209.45 104.8 211.8 102.05 214.15 99.2 216.75 96.65 217.35 96 218.05 95.55 218.8 95.05 219.55 94.5 219.85 95.05 220.1 95.55 220.35 96 220.5 96.55 220.9 98.15 221.3 99.75 221.7 101.35 221.9 102.9 222.2 105.1 222.3 107.4 222.5 109.6 222.75 111.8 223.05 114.9 225.15 117.5 225.7 118.25 226.2 118.35 226.65 118.45 227.5 118.1
L 227.9 113.85
Q 228.1 113.2 228.15 112.55 228.25 111.9 228.25 111.2 228.3 108.05 228.05 105.05 227.8 102.05 227.35 99 226.95 96.45 226.35 94.15 225.7 91.85 224.05 89.8 223.65 89.25 223.2 88.8 222.75 88.4 222.1 88.3 220.4 88.15 218.85 88.4 217.35 88.7 216 89.75 215.4 90.25 214.85 90.65 214.25 91.05 213.75 91.5 211.2 93.55 209.2 96 207.15 98.5 205.15 101.05 202.8 104.3 201.35 107.75 201.25 108.1 201 108.55 200.8 109 200.45 109.6 200.4 109.25 200.35 109.1 200.3 109 200.3 108.9 199.95 106.95 199.6 104.95 199.3 103 198.7 101.05 198 98.2 197 95.45 196.05 92.75 194.55 90.3 194.1 89.65 193.75 89.15 193.5 88.6 192.65 88.6 192.25 88.6 191.85 88.6 191.45 88.6 191 88.75
L 191 88.7
Q 190.998828125 88.75 190.95 88.75 190.7 88.75 190.65 88.8 190.2 88.95 189.35 89.15
M 191.75 93.5
Q 191.6 92.9 191.95 92.3 193.05 92.6 193.55 93.7 194.35 95.45 195.15 97.15 197.3 101.7 197.35 107 197.55 108 197.05 109.15 196.95 109.3 196.85 109.45
L 195.45 109.5
Q 194.35 108.1 194.3 106.35 194.25 101.3 192.7 96.6 192.2 95.15 191.75 93.5
M 221.55 92.45
Q 220.8 91.8 219.85 91.45 219.25 91.2 218.65 91.05
L 218.8 89.85
Q 219.4 89.25 220.55 89.45 224 90.25 225.3 93.55 225.9 95.1 226.25 96.6 226.45 97.6 226.6 98.65 226.95 101.65 227.15 104.8 227.4 107.3 226.4 109.45 226.25 109.75 226.05 110.05 224.9 106.45 224.65 102.75 224.45 99.8 223.95 96.9 223.5 94.2 221.55 92.45
M 257.25 88.7
Q 254.95 89.4 252.8 90.55 250.25 91.9 248.05 93.65 245.9 95.4 244.1 97.7 241.1 101.35 239.25 105.55 237.4 109.75 236.15 114.25 235.25 117.3 234.7 120.4 234.2 123.5 234 126.65 233.9 129.75 233.85 132.75 233.8 135.75 234.2 138.8 234.55 142.8 235.55 146.5 236.6 150.2 238.4 153.8 241 158.75 245 161.7 248.95 164.65 254.6 165.2 260 165.85 264.15 163.85 268.35 161.85 271.6 157.9 273.8 155.5 275.75 152.8 277.65 150.15 279.15 147.2 280.8 144.15 282.25 141.1 283.75 138 285.15 134.85 285.65 133.8 285.35 133.15 285.1 132.5 284.5 132.1 283.85 131.75 282.95 131.7 281.45 131.9 280.7 132.85 279.9 133.8 279.3 135.1 278.15 138 276.75 140.7 275.3 143.4 273.55 146.05 272.35 148 270.95 149.7 269.55 151.45 267.8 152.95 267 153.6 266.2 154.1 265.4 154.55 264.35 154.5 261.8 154.35 259.65 153.35 257.55 152.4 255.8 150.45 253.75 148 252.7 145.2 251.65 142.35 251.15 139.1 251.75 138.95 251.85 138.95 255.9 138.8 259.45 137.45 263 136.1 266.3 133.95 268.6 132.35 270.75 130.55 272.85 128.65 274.85 126.75 281.85 120.05 283.65 110.75 284.15 107.85 283.8 105.2 283.4 102.45 282 100.1 280.6 97.7 278.9 95.6 277.2 93.45 274.85 91.95 274.2 91.6 273.5 91.2 272.9 90.75 272.3 90.3 269.9 88.6 267.3 88.15 264.7 87.65 261.95 87.85 259.55 88.05 257.25 88.7
M 277 106.65
Q 277.4 108.35 277 110.2 276.35 114.3 274.55 117.95 272.7 121.55 269.6 124.4 268.1 125.85 266.5 127.15 264.95 128.45 263.25 129.75 261.1 131.3 258.7 132.45 256.4 133.6 253.75 134.25 253 134.45 252.2 134.5 251.45 134.6 250.45 134.75 250.3 133.85 250.2 133.05 250.1 132.3 250 131.45 249.9 128.45 250.1 125.55 250.35 122.6 251 119.65 252.05 114.2 254.45 109.35 255.85 106.55 258 104.25 260.15 101.95 263.05 100.55 266.45 98.9 269.7 99.75 272.95 100.6 275.4 103.45 276.65 104.95 277 106.65
M 270.05 93.6
Q 272.95 93.85 275.6 95 276.75 95.55 277.8 96.35 279.4 97.45 280.4 99.15 282.25 102.5 282.5 106.35 282.6 108.15 282.7 110 282.7 114 281 117.65 280.4 118.9 279.75 120.1 278.15 123.15 274.9 124.1 276.1 120.8 277.7 117.7 278.45 116.25 279 114.85 280.7 110.3 279.6 105.3 279.05 102.7 277.5 100.35 274.65 96.1 270.05 93.6
M 251.6 104.75
Q 250.25 108.55 249.4 112.4 248.9 114.75 248.45 117.1 247.7 120.75 247.35 124.45 247.2 126.3 247.2 128.25 247.15 132.25 247.6 136.1 248 139.2 248.95 142.3 249.85 145.45 251.25 148.4 252.75 151.6 255.15 154 256.7 155.5 258.45 156.35 259.3 156.85 260.15 157.35 260.2 157.4 260.2 157.6 259.95 158.2 259.6 158.35 258.9 158.7 258.2 158.65 255 158.85 252.7 156.8 250.1 154.45 248.8 151.4 245.8 144.45 245 136.7 244.85 134.95 244.8 133.2 244.7 130.85 244.75 128.55 244.95 121.4 246.95 114.6 248.45 109.3 251.6 104.75
M 331.15 103.55
Q 330.8 102.8 330.45 101.95 329.85 100.7 329.3 99.45 328.75 98.2 327.9 97.1 325.65 93.9 323 91.4 321.7 90.2 320 89.25 318.3 88.4 316.4 88 314.5 87.55 312.5 87.8 310.5 88.05 308.8 89.15 308.15 89.55 307.55 89.9 306.95 90.25 306.4 90.65 304.4 91.95 303.05 93.85 301.65 95.75 300.8 97.9 300.05 100.15 299.95 102.45 299.75 104.8 300.3 107.05 301.05 110.05 302.35 112.75 303.65 115.45 305.25 118.1 306.5 120.3 308 122.3 309.45 124.35 310.95 126.4 312.2 128.3 313.3 130.3 314.35 132.3 314.9 134.5 316 138.15 315.85 141.65 315.65 145.2 314.6 148.7 314.25 149.95 313.5 151 312.75 151.9 311.85 152.75 311.25 153.2 310.3 153.35 309.3 153.4 308.25 153.25 307.2 153.05 306.3 152.4 305.25 151.55 304.3 150.7 303.45 149.85 302.6 148.7 301.3 146.85 300.75 144.8 300.15 142.7 299.75 140.5 299.3 138.1 297.8 136.3 296.35 134.6 294.6 132.95 294 134.7 293.3 136.2 292.65 137.75 292.1 139.4 291.5 141.35 291.3 143.35 291.15 145.35 291.65 147.35 292.85 152.25 295.9 156.2 297.2 157.7 298.6 159.15 300 160.55 301.65 161.75 305.9 164.75 311.25 165.15 312.95 165.3 314.6 165.2 316.3 165.15 317.9 164.45 321.85 162.85 324.1 159.95 326.4 157.05 327.45 153.05 328.55 149.7 328.85 146.3 329.2 142.85 329 139.25 328.65 132.45 325.45 126.4 324.25 124.15 322.85 122.05 321.5 119.95 320 117.95 318.15 115.25 316.4 112.5 314.6 109.75 313.1 106.75 312.65 105.9 312.35 104.95 312.05 104 312.15 102.9 312.25 100.75 313.2 98.95 314.1 97.1 315.55 95.4 316.05 94.85 316.75 94.65 317.4 94.5 318.05 94.6 319.1 94.9 320.25 95.25 321.35 95.6 322.3 96.2 324.45 97.6 325.95 99.65 327.45 101.65 328.45 104.05 328.65 104.65 328.8 105.35 328.9 106 329 106.7 329.1 107.75 330.15 107.8 330.7 107.95 330.95 107.75 331.3 107.5 331.55 107.15 332.25 106.15 331.8 105.1 331.45 104.3 331.15 103.55
M 325.15 138.5
Q 325.6 141.7 325.7 144.95 325.8 148.4 325.35 151.85 324.9 155.65 322.95 158.9 322.45 159.7 321.85 160.45 319.45 163.25 315.85 163.85 313.45 164.35 311.3 163.15 310.85 162.95 310.6 162.5 310.35 162 310.25 161.45 310.7 161.1 311.2 160.9 312.4 160.45 313.7 160.15 314.6 159.95 315.5 159.8 316.2 159.5 316.95 159.25 318.1 158.9 318.85 157.95 320.2 156.1 321.2 154.05 321.85 152.6 322.15 151 322.95 146.65 323.05 142.15 323.1 139.35 322.65 136.55 321.9 132.15 321.15 127.8 320.75 125.65 319.9 123.95 319.15 122.45 318.55 120.95 318.15 120 317.9 119.1 319.7 122.15 321.25 125.4 322.8 128.65 323.8 132.15 324.7 135.25 325.15 138.5
M 346.9 56.8
Q 346.25 55.5 344.9 54.6 343.2 53.3 340.9 53.55 339.35 53.8 338.5 54.9 337.65 56.05 337.65 57.45 337.65 63.8 337.55 70.15 337.45 76.45 337.55 82.8 337.65 91.75 337.65 100.6 337.75 109.45 337.9 118.4 338 124.05 338.45 129.5 338.95 135 339.6 140.5 339.85 142.2 340.05 143.85 340.3 145.45 340.45 147.15 340.75 149.55 341 151.85 341.2 154.2 341.55 156.6 341.9 158.5 342.6 160.2 343.4 161.95 344.45 163.5 345.35 164.75 346.25 165.1 347.2 165.45 348.65 164.75 349.7 164.25 350.7 163.7 351.7 163.15 352.55 162.4 353.9 161.15 355.15 159.85 356.45 158.55 357.1 156.75 357.85 154.8 358.25 152.85 358.7 150.9 359 148.85 359.55 145.35 359.95 141.85 360.4 138.35 360.95 134.85 361.5 131 362.3 127.15 362.6 125.65 362.85 124.1 363.1 122.55 363.5 121.05 363.85 119.75 364.2 118.45 364.55 117.2 364.75 115.9 365.55 112.35 366.8 108.95 368 105.65 369.6 102.35 369.95 101.5 370.5 100.6 371.1 99.7 371.8 98.65 371.9 99.25 372.05 99.5 372.15 99.8 372.15 100.1 372.25 103.6 372.45 107.1 372.65 110.6 372.45 114.1 372.05 120.2 372.2 126.3 372.45 132.35 373 138.45 373.5 143.4 374.7 148.15 375.95 152.95 378.25 157.45 380.65 162.45 386.4 163.95 388.25 164.35 388.95 162.5 389.3 161.7 389.5 160.85 389.65 160 389.65 159.05 389.65 158.1 389.45 157.25 389.2 156.2 388.8 155.25 388.4 154.25 388.25 153.2 387.9 150.35 387.7 147.5 387.5 144.6 387.3 141.75 387 138.9 386.65 135.95 386.4 133 386.2 130.2 386 128.45 386 126.65 385.95 124.85 385.85 123.1 385.85 122.6 386 122.1 386.1 121.6 385.95 121.15 385.55 118.7 385.85 116.2 386.1 113.65 385.5 111.2 385.2 110.05 385.1 108.9 385.1 107.65 384.9 106.55 384.5 104.5 384.2 102.55 383.85 100.6 383.2 98.65 382.8 97.15 382 95.8 381.25 94.5 380.4 93 380.3 92.8 379.75 92.5 378.35 91.5 376.9 90.7 375.45 89.95 373.75 89.55 372.85 89.35 371.9 89.35 371 89.4 370.2 89.95 369.55 90.3 368.85 90.8 368.25 91.3 367.65 91.85 365.9 93.25 364.7 95 363.6 96.75 362.45 98.65 360.75 101.6 359.55 104.75 358.4 107.85 357.6 111.2 356.8 114.25 356.25 117.25 355.7 120.3 355.15 123.4 354.75 126.35 354.45 129.3 354.2 132.2 353.8 135.1 353.65 136.65 353.45 138.15 353.2 139.65 353.1 141.15 352.9 141.2 352.7 141.2 352.65 140.8 352.55 140.45 352.45 140.15 352.45 139.8 352.25 137.9 352.1 136.1 352.05 134.3 351.85 132.45 351.7 130.35 351.65 128.3 351.6 126.3 351.4 124.25 351.3 122.75 351.2 121.35 351.15 119.9 351.05 118.45 350.95 117.2 350.75 115.9 350.55 114.65 350.65 113.4 350.85 110.2 350.95 107.15 351.05 104.05 350.65 100.95 350.45 98.6 350.25 96.3 350.1 94 349.9 91.7 349.8 90.3 349.75 88.95 349.7 87.65 349.65 86.25 349.55 84.85 349.55 83.45 349.55 82.05 349.45 80.65 349.35 78.15 349.2 75.7 349.05 73.2 349 70.65 348.8 67.9 348.7 65.1 348.6 62.3 347.9 59.55 347.5 58.05 346.9 56.8
M 344.25 59.95
Q 344.5 60.2 344.7 60.5 345.3 61.45 345.7 62.45 346.25 63.85 346.65 65.45 346.8 65.95 346.9 66.5 348.1 71.75 348.05 77.1 348 82.05 348.15 87.1 348.2 89.65 348.45 92.5
L 348.45 119.3
Q 348.5 119.65 348.5 120 348.75 124.3 348.85 128.4 349.05 136.45 349.4 144.55 349.4 144.85 349.4 145.15 349.3 146.25 348.7 147.1 348.4 146.45 348.1 145.8 345.7 140.05 345.3 133.8 345.25 132.7 345.2 131.65 345.2 130.6 345.15 129.6 344.9 125 344.55 120.4
L 344.55 92.2
Q 344.5 90.8 344.45 89.45 343.85 78.55 343.4 67.55 343.4 66.95 343.35 66.4 343.35 65.85 343.35 65.35 343.25 63.8 343.3 62.15 343.3 60.8 343.95 59.9 344.1 59.9 344.25 59.95
M 375.85 93.1
Q 376.75 92.95 377.45 93.6 377.9 94.05 378.25 94.55 378.75 95.2 379.1 95.95 380.3 98.3 380.7 101.05 381.45 105.85 381.45 110.55 381.45 114.35 381.5 118.05 381.5 121.15 381.8 124.3 382.15 128.35 382.65 132.25 383.05 135.4 383.5 138.55 384 141.8 384.55 145.05 385.05 148.2 385.25 151.45 385.3 152.1 385.2 152.8 385.15 153.05 385.1 153.3 384.55 152.65 384.15 151.9 383.2 150.3 382.5 148.55 381.75 146.75 381.2 144.9 380.3 141.95 379.65 139 379.3 137.45 379.1 135.95 378.4 131 378.25 126.15 378.05 119.2 377.75 112.3 377.65 110.3 377.5 108.35 376.95 102.5 375.05 96.65 374.45 94.85 373.85 93.15 374.8 92.85 375.85 93.1
M 281.25 -42.95
Q 279.75 -42.7 278.4 -41.65 277.8 -41.15 277.25 -40.75 276.65 -40.3 276.15 -39.9 273.55 -37.85 271.6 -35.35 269.55 -32.9 267.55 -30.35 265.15 -27.1 263.75 -23.65 263.6 -23.3 263.4 -22.85 263.2 -22.4 262.85 -21.8 262.8 -22.15 262.75 -22.3 262.7 -22.4 262.7 -22.5 262.35 -24.45 262 -26.45 261.7 -28.4 261.1 -30.35 260.4 -33.2 259.4 -35.95 258.45 -38.65 256.95 -41.05 256.45 -41.75 256.15 -42.25 255.9 -42.8 255.05 -42.8 254.65 -42.8 254.25 -42.8 253.85 -42.8 253.35 -42.65 253.1 -42.65 253 -42.6 252.6 -42.45 251.75 -42.25 250.95 -42.05 250.1 -41.8 249.35 -41.6 248.75 -41.3 248.15 -41 248.05 -40.75 248.05 -40.65 248.25 -38.05 248.4 -35.5 248.85 -31.3 249.25 -27.1 249.85 -21.65 250.35 -16.15 251.1 -10.1 251.85 -4.05 252.65 2.15 253.45 8.3 254.4 14 255.25 19.65 256.2 24.35 257.15 29.1 258.1 32.2 258.5 33.25 259.55 33.65 260.65 34.05 262 34.05 263.3 34.05 264.6 33.75 265.85 33.45 266.65 33.05 267.55 33.05 268.15 32.55
L 268.6 32.1
Q 269.25 31.35 269.45 30.4 269.65 29.5 269.7 28.5 269.75 28 269.85 27.45 269.9 26.9 269.75 26.4 269.65 25.75 269.45 25 269.3 24.35 269.15 23.7 268.9 22.2 268.7 20.65 268.5 19.05 268.25 17.55 268.15 16.05 267.95 14.45 267.75 12.9 267.55 11.35 267.4 10.6 267.3 9.95 267.2 9.3 267.05 8.55 266.65 6.05 266.45 3.6 266.2 1.1 265.6 -1.3 265.25 -3.25 265 -5.15 264.75 -7.05 264.5 -9 264.5 -9.5 264.5 -9.95 264.5 -10.45 264.7 -10.85 265.5 -14.2 266.8 -17.35 268.15 -20.55 269.9 -23.45 271.85 -26.6 274.2 -29.35 276.5 -32.2 279.15 -34.75 279.75 -35.35 280.45 -35.85 281.15 -36.35 281.9 -36.9 282.2 -36.35 282.5 -35.85 282.75 -35.35 282.9 -34.85 283.3 -33.25 283.7 -31.65 284.1 -30.05 284.3 -28.5 284.6 -26.25 284.7 -24 284.85 -21.8 285.15 -19.6 285.45 -16.5 287.55 -13.9 288.1 -13.15 288.6 -13.05 289.05 -12.95 289.85 -13.3
L 290.3 -17.55
Q 290.5 -18.2 290.55 -18.85 290.6 -19.5 290.6 -20.2 290.7 -23.35 290.45 -26.35 290.2 -29.35 289.75 -32.4 289.35 -34.95 288.7 -37.25 288.1 -39.55 286.4 -41.6 286 -42.15 285.6 -42.6 285.15 -43 284.5 -43.1 282.8 -43.25 281.25 -42.95
M 253.2 -38.75
Q 253.15 -39.2 253.15 -39.65 253.15 -39.75 253.15 -39.8 253.2 -39.9 253.25 -39.85 254.5 -39.15 255.15 -38 257.3 -34.05 258.25 -29.5 258.75 -27.05 259.05 -24.55 259.25 -23.2 259.2 -21.95 259.15 -20.2 258.4 -18.65 258.15 -18.2 257.9 -17.7 256.4 -21.8 255.5 -26 254.6 -30.3 253.85 -34.55 253.45 -36.7 253.2 -38.75
M 282.85 -39
Q 281.8 -39.75 280.7 -40.4 282.15 -42 284.05 -41.45 284.85 -41.3 285.4 -40.6 286.2 -39.65 286.65 -38.45 287.5 -36.4 287.95 -34.2 288.4 -32.15 288.65 -30.05
L 288.2 -23.9
Q 287.15 -26.45 287 -29.2 286.9 -31.1 286.55 -32.95 285.8 -36.75 282.85 -39
M 196.45 -20.75
Q 191.75 -16.25 188.8 -10.6 187.55 -8.2 186.85 -5.7 186.15 -3.15 185.5 -0.55 184.75 3.05 184.4 6.65 184.1 10.2 184.65 13.8 184.85 15.75 185.4 17.55 185.95 19.35 187.2 20.9 188.3 22.5 189.75 23.5 191.2 24.6 193.2 24.75 197.35 25.1 201.15 23.15 203.55 22 205.3 20.25 207.15 18.55 208.8 16.5 209.45 15.55 210.15 14.7 210.85 13.7 211.4 12.65 212.25 11.25 212.8 9.8 213.45 8.3 214.25 6.9 216.05 3.45 217.8 0 219.6 -3.4 220.95 -7 221.25 -7.85 221.75 -8.5 222.2 -9.25 222.9 -10.05 223.05 -8.95 223.1 -8 223.1 -7 223.2 -6.05 223.55 -2.4 223.95 1.1 224.4 4.55 224.8 8.2 225 10.55 225.35 12.9 225.75 15.2 226.3 17.55 227.15 21.35 228.35 25 229.55 28.6 231.8 31.85 232.5 32.6 233.25 33.05 234.05 33.55 234.75 33.7 235.55 34 236.4 33.9 237.25 33.7 238.05 33.35 238.75 33.05 239.4 32.7 240.15 32.4 240.75 31.85 241.55 31.05 241.9 30.4 242.25 29.75 242.1 28.75 241.95 28 241.9 27.65 241.25 25.85 240.75 24.15 240.15 22.4 239.7 20.65 238.9 17.45 238.05 14.25 237.25 11.05 236.55 7.85 235.35 2.45 234.45 -2.95 233.6 -8.3 233.2 -13.85 232.8 -18.25 232.95 -22.65 233.1 -27 233.3 -31.5 233.45 -33.2 233.6 -35 233.7 -36.8 233.3 -38.5 233.2 -39.8 232.25 -41.2 231.3 -42.6 229.45 -42.7 228.35 -42.9 227.65 -42.55 226.95 -42.2 226.75 -41.4 226.1 -39.65 225.6 -38 225.05 -36.25 224.5 -34.4 224.35 -34.4 224.15 -34.3 224 -34.25 223.75 -34.25 219.95 -33.65 216.3 -32.5 212.7 -31.4 209.1 -29.65 205.5 -27.95 202.45 -25.7 199.35 -23.45 196.45 -20.75
M 199.7 -3.55
Q 200.1 -5.2 200.6 -6.85 201.2 -8.4 201.8 -10 202.15 -11 202.7 -11.9 203.15 -12.85 203.6 -13.85 204.65 -16 206.35 -17.6 208.1 -19.25 210.05 -20.75 212.45 -22.5 215.05 -24 217.65 -25.5 220.3 -26.9 221 -27.25 221.75 -27.5 222.45 -27.75 223.3 -27.95 223.5 -27 223.35 -26.15 223.2 -25.3 223 -24.45 222.2 -21.85 221.15 -19.3 220.1 -16.75 219.05 -14.2 218.25 -12.25 217.3 -10.3 216.25 -8.35 215.55 -6.35 214.65 -3.7 213.15 -1.45 211.7 0.8 210.45 3.2 209.75 4.5 209.2 5.75 208.65 7.05 207.95 8.3 205.65 12.65 201.4 15.15 201.2 15.3 200.75 15.45
L 200.35 15.45
Q 199.8 14.75 199.5 13.9 199.25 13.05 199.05 12.2 198.65 9.75 198.6 7.25 198.6 4.8 198.85 2.3 199.05 0.8 199.2 -0.65 199.35 -2.1 199.7 -3.55
M 229.6 -29.95
Q 230.15 -29.45 230.15 -28.7 230.2 -26.3 230.3 -23.85 230.35 -21.7 230.45 -19.55 230.6 -17.4 230.8 -15.2 231 -13.05 231.25 -10.85 231.55 -8.65 231.9 -6.4 232.25 -4.2 232.65 -2.05 233.05 0.25 233.45 2.5 234.1 6.1 235.1 9.7 236 13 236.9 16.25 237.95 20.05 238.75 24 239.15 26.15 238 27.85 237.65 28.4 237.05 28.6 236.45 28.75 235.85 28.55 235.3 28.45 234.9 28.15 233.6 26.95 233 25.4 231.7 22.05 231.05 18.65 230.5 15.8 230.05 12.95 229.5 9.55 229.1 6.2 228.8 3.9 228.6 1.65 228.4 -0.65 228.2 -2.9 227.85 -6.5 227.85 -10.2 227.85 -13.85 227.95 -17.3 228.1 -21.35 228.5 -25.2 228.75 -27.7 229.6 -29.95
M 229.3 -37.95
Q 229.75 -38.3 230.35 -38.5 230.5 -38.5 230.7 -38.45 231.8 -37.4 231.6 -35.75
L 231.45 -35.05
Q 230.7 -34.1 229.4 -34.35 228.7 -34.45 228.55 -35.2 228.35 -36 228.55 -36.8 228.75 -37.5 229.3 -37.95
M 136.9 -66.1
Q 134.8 -66.2 132.75 -66.15 130.7 -66.1 128.55 -66 128.1 -65.9 127.7 -65.95 127.25 -66 126.8 -66.1 125.1 -66.2 123.4 -65.25 121.6 -64.35 120.85 -62.85 119.1 -59 118.65 -55.05 118.35 -51.95 118.2 -48.95 118 -45.9 117.9 -42.7 117.8 -38.8 117.7 -35 117.55 -31.2 117.55 -27.35 117.55 -26.6 117.45 -25.9 117.4 -25.15 117.3 -24.4 117.15 -22.45 117.05 -20.5 117 -18.5 116.95 -16.45 116.75 -13.05 116.9 -9.7 117 -6.35 117.15 -2.95 117.3 0.9 117.2 4.75 117.15 8.65 117.05 12.45 117 16.85 117.2 21.2 117.45 25.55 118.55 29.95 118.95 31.45 120.15 32.5 121.35 33.6 122.85 33.75 123.9 33.9 124.85 33.85 125.8 33.8 126.75 33.75 128.05 33.6 128.65 32.7 128.85 32.25 129.4 31.8 130.7 31 131.1 29.7 131.45 28.45 131.65 27.05 131.95 24.65 132.1 22.35 132.25 20.05 132.4 17.6 132.55 14.45 132.6 11.3 132.75 8.15 132.9 4.9 133.05 1.1 132.85 -2.7 132.6 -6.5 132.6 -10.3 132.55 -15.25 132.85 -20.15 133.05 -25.05 133 -30 132.95 -30.35 133 -30.65 133 -30.95 133 -31.3 133 -32.45 133.3 -32.7 133.5 -33 134.65 -33
L 136.95 -33
Q 144 -32.9 151.05 -33 158.05 -33.05 165.1 -33.65 168.3 -33.85 171.05 -34.75 173.85 -35.7 176.15 -37.95 176.65 -38.3 177 -39.05 177.5 -40.1 177.1 -40.75 176.65 -41.45 175.55 -41.6
L 173.3 -41.8
Q 170.9 -42.2 168.45 -42.55 166.05 -42.9 163.6 -43 161.15 -43.15 158.7 -43.35 156.25 -43.55 153.8 -43.7 149.3 -44 144.9 -44 140.55 -43.95 136.05 -43.1 135.65 -43 135.3 -42.95 134.95 -42.95 134.55 -42.95 133.8 -42.95 133.6 -43.1 133.35 -43.35 133.35 -44.15 133.35 -47.1 133.3 -50 133.15 -52.9 132.6 -55.8 132.55 -56.75 133.45 -56.75 134.45 -56.65 135.35 -56.65 136.3 -56.65 137.35 -56.65 140.15 -56.3 142.9 -56.15 145.7 -55.95 148.5 -55.95 150.8 -56 153.1 -56 155.4 -55.95 158 -55.95 161.85 -56.2 166 -56.05 170.05 -55.95 174.2 -56.25 175.6 -56.3 176.75 -56.85 177.85 -57.4 178.85 -58.15 179.75 -58.9 180.5 -59.8 181.25 -60.75 182.05 -61.75 182.25 -61.9 182.25 -62.1 182.25 -62.35 182.3 -62.55 182.3 -63.3 181.7 -63.45 180.3 -63.6 179.05 -64.2 177.8 -64.85 176.45 -65 174.3 -65.1 172.1 -65.35 169.8 -65.55 167.65 -65.55 159.95 -65.7 152.3 -65.7 144.65 -65.65 136.9 -66.1
M 127.8 -28.75
Q 128 -29.6 128.35 -30.4 128.5 -30.85 128.7 -31.15 128.8 -31.05 128.85 -30.85 129.05 -29.9 129.1 -28.85 129.15 -28.1 129.15 -27.25 129.25 -23.35 129.5 -19.4 129.7 -16.65 129.7 -13.75 129.75 -6.9 129.95 -0.05 129.95 0.6 129.95 1.25 130.1 4.85 129.95 8.5 129.85 11.95 129.65 15.4 129.5 18.25 129.2 21.25 128.95 24.2 128.15 26.95 127.8 28 126.9 28.65 126.55 28.6 126.35 28.4 125.85 28.05 125.65 27.45 125.25 26.35 125 25.2 124.45 22.4 124.45 19.55 124.45 14.95 124.5 10.4 124.5 8.55 124.55 6.75 124.55 5 124.6 3.25 124.65 -1.15 124.7 -5.65 124.7 -8.05 124.8 -10.4 125.05 -16.95 126.5 -23.3 127.1 -26.05 127.8 -28.75
M 128.6 -54.2
Q 128.9 -55.25 129.85 -55.5 130.9 -54.15 131 -52.5 131.05 -51.45 131.1 -50.35 131.15 -48.55 130.95 -46.8 130.8 -45.25 129.9 -44.2 129.15 -43.45 128.05 -44 127.35 -44.75 127.45 -45.7 127.6 -46.8 127.65 -48 127.75 -51.3 128.6 -54.2 Z"/>
</g>

<g id="Layer0_0_FILL">
<path fill="#FFFFFF" stroke="none" d="
M 412.65 258.05
Q 412.55 257.6 412.45 257.1 411.25 251.4 409.95 247.9 406 236.6 399.05 236.35 393.6 236.15 390.4 241.1 389.65 242.2 388.35 244.95 387.25 247.1 386.55 247.75
L 386 247.05
Q 385.55 245.6 384.85 241.55 384.15 237.75 383.6 235.85 381.65 229.45 377.4 229.3 372.8 229.2 368.05 235.45 366.7 237.35 365.65 239.3 365.65 238.75 365.7 238.15 366 231.55 364.75 222.6 363.35 211.8 360.3 202.9 352.25 178.8 336.6 178.25 325.1 177.85 318.55 184.55 309.95 193.25 309.05 214.65 307.9 240.8 311.9 250.15 313.85 254.75 317.4 256.8 320.6 258.6 325.95 258.8 326.1 258.8 377.8 258.4 397.85 258.25 412.65 258.05
M 141.5 -133.85
Q 132.9 -133.85 128.75 -113.95 126.15 -101.9 126.15 -92.05 125 -92.05 120.1 -95.85 115.3 -99.65 111.9 -99.65 102.7 -99.65 99.25 -80 99.15 -79.6 99.1 -79.1 122.2 -81.25 146.9 -82.15 158.95 -82.55 186.2 -82.9 204.65 -83.1 211 -83.95 219.65 -85 219.65 -88.2 220.55 -108.6 217.75 -128.75 212.1 -169.05 193.45 -169.05 180.1 -169.05 172.55 -141.85 169.45 -130.75 168.05 -117.55 166.75 -105.15 167.3 -94.85 160.75 -109.8 156.2 -118.3 147.8 -133.85 141.5 -133.85 Z"/>
</g>
</defs>

<g transform="matrix( 1, 0, 0, 1, 0,0) ">
<use xlink:href="#Layer8_0_FILL"/>
</g>

<g transform="matrix( 1, 0, 0, 1, 0,0) ">
<use xlink:href="#Layer7_0_FILL"/>
</g>

<g transform="matrix( 1, 0, 0, 1, 0,0) ">
<use xlink:href="#Layer6_0_FILL"/>
</g>

<g transform="matrix( 1, 0, 0, 1, 0,0) ">
<use xlink:href="#Layer5_0_FILL"/>
</g>

<g transform="matrix( 1, 0, 0, 1, 0,0) ">
<use xlink:href="#Layer4_0_FILL"/>
</g>

<g transform="matrix( 1, 0, 0, 1, 0,0) ">
<use xlink:href="#Layer3_0_FILL"/>
</g>

<g transform="matrix( 1, 0, 0, 1, 0,0) ">
<use xlink:href="#Layer1_0_FILL"/>
</g>

<g transform="matrix( 1, 0, 0, 1, 0,0) ">
<use xlink:href="#Layer0_0_FILL"/>
</g>
</svg>
