
<svg xmlns="http://www.w3.org/2000/svg" version="1.1" xmlns:xlink="http://www.w3.org/1999/xlink" preserveAspectRatio="none" x="0px" y="0px" width="550px" height="400px" viewBox="0 0 550 400">
<defs>
<linearGradient id="Gradient_1" gradientUnits="userSpaceOnUse" x1="-286.7875" y1="318.25" x2="-261.9125" y2="-448.05000000000007" spreadMethod="pad">
<stop  offset="0%" stop-color="#B4FFD7"/>

<stop  offset="100%" stop-color="#84AECC"/>
</linearGradient>

<linearGradient id="Gradient_2" gradientUnits="userSpaceOnUse" x1="175.0625" y1="143.925" x2="231.4375" y2="111.375" spreadMethod="pad">
<stop  offset="0%" stop-color="#663300"/>

<stop  offset="100%" stop-color="#CC9966"/>
</linearGradient>

<linearGradient id="Gradient_3" gradientUnits="userSpaceOnUse" x1="248.3625" y1="263.5875" x2="260.2375" y2="315.9125" spreadMethod="pad">
<stop  offset="0%" stop-color="#993300"/>

<stop  offset="100%" stop-color="#D94800"/>
</linearGradient>

<linearGradient id="Gradient_4" gradientUnits="userSpaceOnUse" x1="253.75000000000003" y1="286.27500000000003" x2="260.95000000000005" y2="317.425" spreadMethod="pad">
<stop  offset="0%" stop-color="#993300"/>

<stop  offset="100%" stop-color="#D94800"/>
</linearGradient>

<radialGradient id="Gradient_5" gradientUnits="userSpaceOnUse" cx="0" cy="0" r="201.03750000000002" fx="0" fy="0" gradientTransform="matrix( 0.9999999999999999, 0, 0, 0.9999999999999999, 276.95,330.2) " spreadMethod="pad">
<stop  offset="0%" stop-color="#A8E505"/>

<stop  offset="100%" stop-color="#329800"/>
</radialGradient>

<radialGradient id="Gradient_6" gradientUnits="userSpaceOnUse" cx="0" cy="0" r="150.425" fx="0" fy="0" gradientTransform="matrix( 1, 0, 0, 1.0029084261259764, 270.5,315.95) " spreadMethod="pad">
<stop  offset="0%" stop-color="#84B404"/>

<stop  offset="100%" stop-color="#287B00"/>
</radialGradient>

<g id="Layer10_0_FILL">
<path fill="#66CC99" stroke="none" d="
M 69.4 343.1
L 69.4 376.5
Q 69.4 397.05 83.9 411.55 98.45 426.1 119 426.1
L 196.6 426.1
Q 190.4458984375 414.8849609375 183.15 405.1 175.948046875 395.41796875 167.6 387.15 162.8748046875 382.4421875 157.75 378.2 152.56796875 373.8869140625 147 370.05 144.630078125 368.4361328125 142.2 366.9 138.4048828125 364.5146484375 134.45 362.35 132.9134765625 361.491015625 131.35 360.65 129.309765625 359.619140625 127.25 358.6 127.11953125 358.5576171875 127 358.5 122.13359375 356.1447265625 117.05 354.1 92.4896484375 344.2044921875 69.4 343.1
M 397.9 330.3
Q 373.1 346 356 373.9 342.65 395.65 335.45 422.1 334.893359375 424.1376953125 334.4 426.1
L 388.75 426.1
Q 409.3 426.1 423.8 411.55 438.35 397.05 438.35 376.5
L 438.35 314.1
Q 416.3111328125 318.6201171875 397.9 330.3 Z"/>

<path fill="url(#Gradient_1)" stroke="none" d="
M 119 -192.75
Q 98.45 -192.75 83.9 -178.25 69.4 -163.7 69.4 -143.15
L 69.4 343.1
Q 92.4896484375 344.2044921875 117.05 354.1 122.13359375 356.1447265625 127 358.5 127.11953125 358.5576171875 127.25 358.6 129.309765625 359.619140625 131.35 360.65 132.9134765625 361.491015625 134.45 362.35 138.4048828125 364.5146484375 142.2 366.9 144.630078125 368.4361328125 147 370.05 152.56796875 373.8869140625 157.75 378.2 162.8748046875 382.4421875 167.6 387.15 175.948046875 395.41796875 183.15 405.1 190.4458984375 414.8849609375 196.6 426.1
L 334.4 426.1
Q 334.893359375 424.1376953125 335.45 422.1 342.65 395.65 356 373.9 373.1 346 397.9 330.3 416.3111328125 318.6201171875 438.35 314.1
L 438.35 -143.15
Q 438.35 -163.7 423.8 -178.25 409.3 -192.75 388.75 -192.75
L 119 -192.75 Z"/>
</g>

<g id="Layer9_0_FILL">
<path fill="#FFFFFF" stroke="none" d="
M 384.2 273.7
Q 378.55 273.7 375.85 278.8 373.65 283 373.8 289.7 373 288.15 371.75 287.05 370.2 285.7 368.6 285.7 362.5 285.7 357.85 292.1 355.9 294.75 354.9 297.3 358.35 297.3 361.9 297.45 377.85 298.05 379.3 298 386.35 297.85 389.1 295.5 392.2 292.9 392.2 286.1 392.2 280.35 389.8 276.9 387.6 273.7 384.2 273.7 Z"/>
</g>

<g id="Layer8_0_FILL">
<path fill="#FFFFFF" stroke="none" d="
M 229.95 12.05
Q 229.5 9.35 228.9 6.65 228.45 3.9 226.55 1.55 224.6 -1.4 221.65 -0.1 220.65 0.4 219.7 1.1 218.75 1.85 217.7 2.7 217.4 2.8 216.9 3.3 216.45 3.65 216.1 4.1 215.6 4.6 215.15 5.2 214.9 5.7 214.2 6.2 213.55 7.15 212.6 8.1 211.5 9.15 210.55 10.05 208.85 11.8 207.8 13.9 206.55 15.9 204.9 17.5 204.5 17.65 204.5 18 204.5 18.25 204.3 18.6 204.3 18.7 204.3 18.95
L 204.05 19.05
Q 203.35 20 202.45 20.9 201.6 21.85 200.8 22.8 199.5 24.5 198.25 26.65 196.95 28.5 195.45 30.15 194.05 32.1 192.5 34 191.15 35.95 189.45 37.85 187.75 40.05 185.95 42.15 184.25 44.5 182.35 46.7 180.95 48.45 179.7 50.55 178.5 52.55 177.15 54.5 176.55 54.15 176.05 53.65 175.1 52.8 174.15 51.7 173.3 50.75 172.35 49.8 171.75 49.15 171.05 48.7 170.45 48 169.95 47.4 168.5 45.55 166.95 43.65 165.35 41.7 163.8 40.05 161.85 37.85 159.85 35.85 157.85 33.65 155.75 31.6 153.65 29.55 151.35 27.6 149.1 25.45 147.05 23.4 145.15 21.85 143.55 20.25 141.75 18.95 140.05 17.15 138.25 15.45 136.65 13.4 135 11.45 133.1 9.45 132.7 9.05 132.3 8.7 132.1 8.2 131.75 7.75 131.4 6.55 130.3 6.2 129.85 6.05 129.6 5.7 129.2 5.6 128.7 5.4 126.55 4.25 124.85 4.6 122.95 4.85 121.6 6.8 121 7.25 120.65 8.1 120.15 8.9 120.3 9.45 121 12.4 120.65 15.2 120.3 18 120.05 20.9 119.6 23.75 119.35 26.65 119.1 32 118.85 37.6 118.75 42.7 118.65 48.35 118.4 51.25 118.3 54.15 118.2 57 118.2 59.9 118 63.05 118 66.05 118.2 68.95 118 72.1 117.85 75.5 117.85 78.8 117.75 81.95 117.5 85.2 117.4 87.5 117.4 89.9 117.25 92.2 117.25 94.4 117.25 98.7 117.05 103.05 116.9 107.25 116.9 111.8 116.9 116.45 117.05 121.25 117.05 126.05 117.25 131.05 117.25 133.9 118 136.05 118.75 138.4 121 140.3 122.15 140.85 123.45 140.4 124.5 140.15 125.65 138.75 126.95 137.35 128.25 134 129.7 129.05 130.65 123.55 131.25 121.25 131.4 119.15 131.75 116.8 132.1 114.35 132.3 111 132.7 107.6 133 104 133.2 100.5
L 135 84.15
Q 135.1 81.35 135.25 78.45 135.6 75.6 135.7 72.7 135.95 69.45 136.05 66.05 136.2 62.7 136.55 59.3 136.55 57 136.55 54.85 136.4 52.65 136.55 50.55 136.65 45.55 136.55 41 136.4 36.2 135.95 31.4 135.7 30.75 135.7 30.15 135.6 29.55 135.6 28.7 136.05 29.05 136.4 29.2 136.55 29.3 136.85 29.65 138.95 31.6 141.15 33.9 143.3 35.95 145.5 38.2 147.6 40.5 149.8 42.7 151.75 45.1 153.9 47.4 156.55 50.3 159.1 53.25 161.85 56.3 164.25 59.2 165.2 59.9 165.8 60.8 166.6 61.6 167.3 62.55 168.25 63.3 168.7 64.25 169.2 65.35 170.45 65.95 171.25 66.4 171.85 67.15 172.35 67.95 173.05 68.35 173.95 69.2 174.9 69.8 175.85 70.4 176.9 70.85 177.3 71 177.8 70.85 178.25 70.75 179 71 180.15 71.35 180.95 71 181.9 70.5 182.6 69.8 183.3 69.2 183.9 68.5 184.5 67.95 185.15 67.5 185.95 66.55 187.15 65.7 188.3 64.9 189.1 64 191.15 61.4 192.95 58.95 194.85 56.4 196.7 54.05 198.1 52.3 199.5 50.65 201.75 47.85 204.05 45.3 206.3 42.6 208.6 40.05 208.85 39.55 209.3 39.1 209.8 38.6 210.2 38.2 209.9 40.65 209.7 42.95 209.3 45.1 209.2 47.4 208.6 53.15 208.6 58.85 208.4 61.85 208.4 65.1 208.6 68.25 208.25 71.35 208.25 74.6 208.15 77.6 207.8 80.9 207.65 84 207.45 87.9 207.3 91.85 207.2 95.7 206.95 99.55 206.95 101.5 207.2 103.55 207.2 105.6 207.2 107.6 207.2 109.1 207.2 110.65 207.2 112.2 207.2 113.8
L 207.2 120.65
Q 207.2 122.2 206.95 123.45 206.85 124.85 207.2 126.4 207.3 127.65 207.65 128.85 207.9 130.15 208.4 131.15 208.95 133.05 209.45 134.9 209.8 136.8 211.15 138.15 212.1 138.25 212.95 138.4 214.05 138.85 215.35 139.2 216.8 139.55 218.15 139.2 219.95 139.1 221.75 138.6 223.65 137.9 225.05 136.4 226.95 134.3 227.5 132 228 129.55 228.1 126.75 228.1 125.45 228.1 124.05 228 122.9 228 121.5
L 228 112.85
Q 228 110.4 228 108.1 228 105.85 228 103.4
L 228 89.55
Q 228 87.9 227.9 86.05 227.65 84.25 227.65 82.65 227.65 80.4 227.65 78.45 227.65 76.45 227.65 74.5 227.65 73.2 227.65 72.1 227.5 70.85 227.5 69.8 227.65 68.25 227.9 66.9 228 65.6 228 64.1 228.1 60.65 228.35 57.3 228.35 53.65 228.45 50.55 228.75 47.4 228.9 44.5 229.25 41.7 229.35 38.6 229.85 34.1 229.95 29.65 230.3 25.35 230.45 20.9 230.65 18.7 230.45 16.4 230.3 14.25 229.95 12.05
M 246.65 56.4
Q 246.2 54.85 245.25 53.45 244.75 52.65 244.2 52.05 243.6 51.25 242.8 50.75 240.45 49.7 238.15 51 235.7 52.2 235.1 54.6 234.65 56.65 234.5 58.85 234.3 60.6 234.5 62.2 234.5 64 234.5 65.7 234.3 67.6 234.3 69.2 234.3 71 234.15 72.7 234.15 75.6 234.15 78.45 234.3 81.35 234.15 84.15 234.05 89.2 234.5 93.9 234.75 98.7 235.25 103.75 235.6 109.2 236.1 114.75 236.7 120.2 237.2 125.8 237.55 127.2 237.9 128.35 238.15 129.65 238.5 131.05 238.85 132.45 239.55 134 240.8 136.4 242.45 138.25 244.2 140.15 247.2 140.65 249.35 140.75 250.4 139.7 251.55 138.6 252 136.55 252.35 135.95 252.25 134 252 132.1 251.9 130.15 251.75 127.65 251.4 124.85 251.4 123.8 251.4 122.65 251.4 121.7 251.3 120.65
L 249.8 98.6
Q 249.45 95.35 249.45 92.3 249.45 89.2 249.35 86.15
L 249.1 86.15
Q 249.1 83.3 249.1 80.9 249.1 78.35 249.1 75.5 249.35 71.45 249 67.6 248.5 63.65 247.55 59.65 247.1 57.9 246.65 56.4
M 247.7 40.75
Q 248.15 40.3 248.15 39.7 248.05 38.2 247.1 36.3 246.1 34.35 244.75 33.9 243.7 33.4 242.7 32.95 241.4 32.45 241.15 32.8 239.95 33.4 239.1 34.35 238.35 35 237.9 36.3 237.4 37.6 237.65 39.35 238 41.1 238.85 42.05 239.45 42.7 240.2 43.05 240.9 43.4 241.85 43.2 242.7 43.2 243.3 42.7 244.05 42.6 244.75 42.35 245.7 42.15 246.55 41.7 247.2 41.45 247.7 40.75
M 358.5 -151.4
Q 357.8 -152.8 356.45 -153.75 354.55 -155.15 352.25 -154.8 350.45 -154.55 349.7 -153.4 348.75 -152.25 348.75 -150.7 348.75 -143.95 348.6 -137.3 348.5 -130.6 348.6 -123.85 348.75 -114.45 348.75 -105.05 348.85 -95.75 349 -86.35 349.1 -80.35 349.55 -74.55 350.1 -68.8 350.8 -62.85 351.05 -61.2 351.3 -59.5 351.55 -57.7 351.75 -56 352 -53.4 352.25 -50.95 352.5 -48.5 352.95 -45.9 353.3 -43.95 353.95 -42.1 354.8 -40.35 355.85 -38.55 356.9 -37.3 357.8 -36.95 358.9 -36.6 360.4 -37.3 361.45 -37.9 362.5 -38.5 363.55 -39.05 364.5 -39.85 365.85 -41.15 367.3 -42.4 368.55 -43.85 369.25 -45.75 370.1 -47.8 370.55 -49.9 371.05 -51.9 371.4 -54.1 371.85 -57.85 372.3 -61.45 372.75 -65.2 373.35 -68.9 373.95 -73 374.75 -76.95 375.1 -78.65 375.35 -80.25 375.65 -81.9 376 -83.5 376.35 -84.9 376.7 -86.2 377.2 -87.6 377.45 -89 378.25 -92.75 379.5 -96.25 380.8 -99.85 382.6 -103.25 382.95 -104.2 383.5 -105.05 384.05 -106 384.8 -107.2 384.9 -106.5 385 -106.25 385.15 -106 385.15 -105.65 385.4 -101.95 385.5 -98.2 385.75 -94.6 385.5 -90.85 385.15 -84.45 385.25 -78.05 385.5 -71.5 386.1 -65.05 386.6 -59.95 387.95 -54.8 389.25 -49.75 391.65 -45 394.2 -39.75 400.3 -38.15 402.25 -37.65 403 -39.65 403.35 -40.6 403.55 -41.5 403.7 -42.3 403.7 -43.25 403.7 -44.3 403.45 -45.25 403.2 -46.25 402.85 -47.35 402.4 -48.4 402.25 -49.6 401.8 -52.5 401.7 -55.5 401.45 -58.65 401.25 -61.55 400.9 -64.6 400.55 -67.8 400.3 -70.95 400.1 -73.85 399.85 -75.65 399.85 -77.55 399.85 -79.5 399.7 -81.3 399.7 -81.9 399.85 -82.35 399.95 -82.9 399.85 -83.35 399.35 -86 399.7 -88.65 399.95 -91.3 399.35 -93.85 399 -95.05 398.9 -96.35 398.9 -97.6 398.65 -98.9 398.3 -101.05 397.95 -103 397.65 -105.05 396.95 -107.2 396.45 -108.8 395.65 -110.25 394.8 -111.65 393.9 -113.15 393.8 -113.35 393.2 -113.7 391.8 -114.65 390.3 -115.6 388.65 -116.4 386.85 -116.75 385.95 -117 384.9 -117 383.95 -117 383.1 -116.4 382.45 -115.9 381.75 -115.5 381.05 -114.9 380.45 -114.45 378.6 -112.9 377.3 -111.05 376.15 -109.15 375 -107.2 373.1 -104.05 371.9 -100.8 370.7 -97.35 369.85 -93.85 369 -90.7 368.4 -87.45 367.9 -84.2 367.3 -81.05 366.8 -77.9 366.45 -74.8 366.25 -71.7 365.75 -68.55 365.65 -67.05 365.4 -65.4 365.15 -63.8 365.05 -62.25 364.8 -62.15 364.55 -62.15 364.55 -62.65 364.5 -63 364.4 -63.35 364.4 -63.7 364.15 -65.65 364.05 -67.65 363.9 -69.5 363.8 -71.5 363.55 -73.7 363.55 -75.8 363.45 -78.05 363.35 -80.1 363.2 -81.65 363.1 -83.15 362.95 -84.7 362.95 -86.2 362.75 -87.6 362.6 -89 362.4 -90.25 362.5 -91.55 362.75 -94.95 362.85 -98.2 362.95 -101.45 362.5 -104.7 362.25 -107.3 362 -109.65 361.9 -112.05 361.65 -114.55 361.55 -115.9 361.55 -117.45 361.45 -118.9 361.45 -120.25 361.3 -121.8 361.3 -123.15 361.3 -124.7 361.2 -126.25 361.05 -128.9 360.95 -131.45 360.8 -134.05 360.8 -136.85 360.55 -139.75 360.4 -142.65 360.3 -145.55 359.6 -148.5 359.25 -150.1 358.5 -151.4
M 301.5 -16.75
Q 297.9 -16.75 297.05 -13 296.45 -9.1 296.7 -5.25 296.8 -1.4 297.05 2.7 297.75 7.75 298.35 12.55 298.9 17.3 299.6 22.3 300.55 29.3 301.25 36.4 302.15 43.55 303.1 50.75 304.4 60.25 305.6 69.45 306.85 77.4 308 85.35 309.3 93.25 310.35 101.25 311.3 106.55 311.85 111.6 312.6 116.7 313.25 122.1 313.95 126.5 315 130.55 316.2 134.75 318.4 138.6 318.75 139.1 319 139.55 319.35 139.9 319.8 140.3 323.3 140.75 326.45 140.15 329.1 139.7 331.65 137.75 334.15 135.85 335.3 131.5 335.15 127.75 335.15 123.9 335.15 120.05 334.65 116.35 333.35 106.65 331.9 97.1 330.55 87.5 329.1 77.85 328.9 75.6 328.55 73.3 328.3 71.2 327.8 68.85 329.1 68.75 329.95 69.2 330.9 69.7 331.8 70.15 338.9 74.7 346.1 79.2 352.95 83.65 360.05 88.1 366.95 92.2 373.6 96.3 380.35 100.4 387.2 104.35 389.7 105.85 392.25 107.15 394.9 108.35 397.4 109.95 399.35 110.4 400.8 110.05 402.05 109.7 403.1 108.35 404.05 107.15 403.55 104 402.25 101.1 400.2 99.2 399 98.15 397.8 97.1 396.6 96.05 395.15 95.25 392 93.15 388.65 90.9 385.4 88.7 382 86.55 377.45 83.55 373 80.75 368.55 77.6 363.8 74.7 358.5 71.35 353.45 68.25 348.15 65.1 342.75 61.85 342.45 61.6 341.5 60.6 343 60.15 344.4 59.65 346.1 59.3 347.2 58.7 352.95 56.65 358.65 54.5 364.4 52.3 370.1 50.2 372.5 49.3 374.9 48.35 377.2 47.4 379.5 46.2 381.3 45.3 382.7 44 384.05 42.6 384.9 40.65 382.6 37.95 379.5 38.85 374.55 40.5 369.75 41.95 364.95 43.2 360.2 44.85 353.55 46.7 347.2 48.7 340.8 50.55 334.15 52.3 332.15 53 329.95 53.25 327.8 53.55 325.25 54.05 325.15 53.15 325.05 52.3 325.05 51.5 324.8 50.65 323.65 42.7 322.6 35 321.3 27.25 320.05 19.3 319.35 14.15 318.3 8.9 317.1 3.65 315.5 -1.5 314.2 -4.9 312.8 -8.15 311.3 -11.15 308.5 -13.85 305.6 -16.45 301.5 -16.75
M 263.2 -11.65
Q 262 -8.85 261.8 -5.9 261.5 -3 261.35 0.05 261.15 6.3 260.9 12.55 260.55 18.6 260.4 24.75 260.2 32 260.2 39.2 260.4 46.3 260.2 53.55 260.05 61.4 260.05 69.2 259.95 76.9 259.95 84.6 259.95 90.3 260.2 95.8 260.4 101.25 260.65 107 260.9 113.05 261.35 119.15 261.8 125.2 262.95 131.15 263.7 133.65 264.5 135.6 265.4 137.85 266.8 139.7 269.5 140.4 272.1 140.15 274.3 139.9 276.85 138.6 279.55 137.35 281.5 134.3 283.4 131.25 284.9 128.35 286.7 125.45 287.7 122.2 287.95 121.5 287.95 120.9 288.15 120.4 287.4 119.7 285.95 118.7 284.55 119.7 283.55 120.55 282.6 121.5 281.65 122.45 280.7 123.3 280.2 123.9 280.05 124.4 279.7 124.85 279.35 125.35 279.35 122.9 279.35 120.55 279.55 118.1 279.35 115.8 279.35 113.05 279.2 110.65 279.2 108.1 279.2 105.7 279.1 102.45 278.85 99.2 278.85 96.2 278.85 92.9 278.85 88.45 278.85 84 278.85 79.45 279.1 74.85 279.2 70.15 279.55 65.35 279.7 60.6 279.7 55.55 279.8 48.45 279.8 41.25 279.8 34 279.7 26.9 279.7 21.95 279.7 17.05 279.55 12.3 279.35 7.25 279.2 2 278.4 -2.9 277.55 -8.05 275.25 -12.6 273.95 -14.8 272.35 -16 270.55 -17.2 268.25 -17.1 267.3 -17.1 266.6 -16.75 265.75 -16.45 265.2 -15.75 263.9 -13.6 263.2 -11.65
M 193.8 -117.7
L 193.7 -117.7
Q 193.45 -117.7 193.45 -117.6 192.95 -117.45 192 -117.2 191.25 -117 190.4 -116.75 189.6 -116.5 188.85 -116.15 188.3 -115.9 188.15 -115.75 188.15 -115.5 188.4 -112.75 188.5 -110.1 189 -105.65 189.45 -101.2 190.05 -95.4 190.65 -89.7 191.5 -83.25 192.15 -76.85 193.1 -70.35 193.9 -63.8 194.85 -57.85 195.75 -51.8 196.8 -46.75 197.75 -41.75 198.85 -38.55 199.25 -37.45 200.3 -36.95 201.5 -36.6 202.85 -36.6 204.3 -36.6 205.7 -36.85 206.95 -37.2 207.8 -37.65 208.85 -37.65 209.45 -38.15
L 209.9 -38.55
Q 210.55 -39.4 210.8 -40.45 210.95 -41.4 211.05 -42.4 211.15 -43 211.15 -43.5 211.3 -44.05 211.15 -44.65 210.95 -45.4 210.8 -46.05 210.7 -46.75 210.45 -47.55 210.2 -49.1 210.05 -50.7 209.8 -52.35 209.55 -53.95 209.45 -55.65 209.2 -57.25 208.95 -58.9 208.85 -60.6 208.6 -61.3 208.5 -62.05 208.4 -62.75 208.25 -63.6 207.9 -66.1 207.55 -68.8 207.3 -71.4 206.7 -73.95 206.4 -76 206.05 -78.05 205.85 -80 205.6 -82.15 205.6 -82.6 205.6 -83 205.6 -83.6 205.7 -83.95 206.6 -87.6 208 -90.95 209.45 -94.2 211.3 -97.35 213.3 -100.7 215.85 -103.6 218.3 -106.6 221.1 -109.3 221.65 -110 222.5 -110.45 223.2 -111.05 224.05 -111.65 224.25 -111.05 224.6 -110.45 224.85 -110 224.9 -109.4 225.4 -107.8 225.85 -106 226.2 -104.3 226.45 -102.65 226.8 -100.35 226.95 -97.95 227.05 -95.65 227.4 -93.35 227.75 -90 229.95 -87.25 230.55 -86.4 231 -86.35 231.5 -86.2 232.4 -86.65
L 232.85 -91.2
Q 233 -91.8 233.1 -92.5 233.1 -93.2 233.1 -93.85 233.2 -97.3 233 -100.45 232.75 -103.6 232.25 -106.85 231.85 -109.5 231.15 -111.9 230.55 -114.45 228.75 -116.5 228.35 -117.1 227.9 -117.6 227.4 -118.05 226.7 -118.15 224.9 -118.3 223.3 -118.05 221.65 -117.7 220.3 -116.65 219.6 -116.05 219 -115.6 218.4 -115.15 217.8 -114.65 215.15 -112.55 213.05 -110 210.95 -107.3 208.85 -104.65 206.3 -101.2 204.75 -97.6 204.65 -97.2 204.4 -96.7 204.15 -96.25 203.8 -95.65 203.7 -96 203.7 -96.1 203.6 -96.25 203.6 -96.35 203.2 -98.45 202.85 -100.55 202.55 -102.5 201.95 -104.65 201.25 -107.7 200.2 -110.6 199.2 -113.35 197.55 -115.9 197.05 -116.65 196.7 -117.2 196.45 -117.8 195.5 -117.8 195.2 -117.8 194.75 -117.8 194.25 -117.8 193.8 -117.7
M 316.85 -116.4
Q 316.3 -116.05 315.75 -115.75 313.6 -114.2 312.25 -112.2 310.7 -110.25 309.85 -107.9 309.1 -105.55 308.85 -103.1 308.75 -100.7 309.3 -98.3 310 -95.05 311.4 -92.25 312.8 -89.5 314.55 -86.65 315.85 -84.3 317.35 -82.15 319 -80 320.45 -77.8 321.9 -75.8 322.95 -73.7 324.15 -71.65 324.7 -69.25 325.85 -65.4 325.65 -61.7 325.5 -57.95 324.45 -54.2 324.05 -52.95 323.2 -51.9 322.5 -50.85 321.4 -50 320.8 -49.6 319.95 -49.35 318.75 -49.35 317.7 -49.45 316.55 -49.65 315.6 -50.35 314.55 -51.3 313.45 -52.15 312.6 -53.1 311.75 -54.2 310.35 -56.2 309.75 -58.4 309.1 -60.6 308.75 -62.85 308.25 -65.55 306.6 -67.45 305.1 -69.15 303.2 -70.95 302.65 -69.15 301.85 -67.55 301.15 -65.9 300.65 -64.15 299.95 -62.05 299.7 -59.95 299.6 -57.85 300.1 -55.65 301.4 -50.5 304.65 -46.25 306 -44.8 307.45 -43.25 308.95 -41.75 310.7 -40.45 315.15 -37.3 320.8 -36.85 322.7 -36.7 324.45 -36.85 326.1 -36.85 327.8 -37.65 332.05 -39.4 334.5 -42.3 336.85 -45.5 338 -49.65 339 -53.2 339.4 -56.8 339.75 -60.45 339.6 -64.3 339.25 -71.5 335.75 -77.8 334.5 -80.25 333.1 -82.5 331.65 -84.7 330.05 -86.75 328.05 -89.7 326.2 -92.5 324.45 -95.4 322.85 -98.55 322.35 -99.5 322 -100.55 321.65 -101.45 321.75 -102.65 321.9 -104.95 322.95 -106.85 323.9 -108.8 325.4 -110.6 325.85 -111.15 326.55 -111.4 327.4 -111.65 328.05 -111.4 329.1 -111.15 330.45 -110.8 331.55 -110.45 332.5 -109.75 334.75 -108.25 336.35 -106.15 338 -104.05 339 -101.45 339.25 -100.9 339.4 -100.1 339.5 -99.4 339.6 -98.65 339.75 -97.6 340.8 -97.5 341.4 -97.35 341.75 -97.6 342.1 -97.85 342.35 -98.2 343 -99.25 342.5 -100.35 342.2 -101.2 341.85 -102.05 341.5 -102.75 341.15 -103.7 340.55 -104.95 339.85 -106.35 339.25 -107.7 338.5 -108.8 336 -112.2 333.35 -114.9 331.9 -116.15 330.05 -117.1 328.3 -118.05 326.2 -118.5 324.2 -119 322.15 -118.65 320.05 -118.4 318.15 -117.2 317.55 -116.85 316.85 -116.4
M 249.8 -108.25
Q 246.65 -104.3 244.65 -99.85 242.8 -95.4 241.4 -90.7 240.45 -87.45 239.85 -84.2 239.45 -80.95 239.2 -77.55 239.1 -74.3 239.1 -71.15 238.95 -67.95 239.45 -64.7 239.75 -60.55 240.8 -56.6 242 -52.75 243.8 -48.85 246.55 -43.6 250.8 -40.6 254.9 -37.45 261 -36.85 266.7 -36.15 271.05 -38.25 275.5 -40.35 278.95 -44.55 281.3 -47.1 283.3 -49.9 285.25 -52.75 286.9 -55.85 288.65 -59.15 290.2 -62.25 291.8 -65.55 293.3 -68.9 293.8 -70.1 293.55 -70.8 293.2 -71.4 292.6 -71.7 291.9 -72.15 291 -72.15 289.35 -71.95 288.5 -71.05 287.7 -70.1 287.05 -68.55 285.85 -65.55 284.3 -62.75 282.85 -59.95 281.05 -57.1 279.8 -55.05 278.25 -53.2 276.7 -51.3 274.9 -49.75 274.05 -49.1 273.25 -48.65 272.45 -48.05 271.25 -48.15 268.6 -48.3 266.25 -49.35 264.05 -50.35 262.25 -52.35 260.05 -54.9 259 -57.95 257.85 -60.95 257.3 -64.35
L 258 -64.6
Q 262.25 -64.7 266 -66.1 269.85 -67.65 273.35 -69.85 275.85 -71.5 278.05 -73.45 280.2 -75.45 282.35 -77.55 289.7 -84.55 291.65 -94.35 292.25 -97.35 291.8 -100.35 291.4 -103.1 289.95 -105.65 288.4 -108.25 286.7 -110.45 284.8 -112.65 282.35 -114.2 281.65 -114.65 280.95 -115.05 280.35 -115.5 279.7 -115.9 277.1 -117.8 274.3 -118.3 271.6 -118.75 268.7 -118.65 266.1 -118.4 263.8 -117.7 261.35 -117 259 -115.75 256.35 -114.3 254 -112.4 251.75 -110.6 249.8 -108.25
M 269.85 -105.2
Q 273.45 -106.95 276.85 -106 280.35 -105.05 282.95 -102.05 284.2 -100.55 284.65 -98.8 285 -96.95 284.65 -94.95 283.95 -90.6 282 -86.75 280.1 -82.9 276.7 -80 275.25 -78.5 273.6 -77.1 271.85 -75.65 270.1 -74.3 267.9 -72.65 265.35 -71.4 262.85 -70.2 260.05 -69.6 259.25 -69.4 258.4 -69.25 257.65 -69.15 256.55 -69.05 256.45 -70 256.35 -70.8 256.2 -71.65 256.1 -72.55 256 -75.65 256.2 -78.75 256.45 -81.9 257.15 -84.9 258.15 -90.7 260.8 -95.9 262.25 -98.9 264.5 -101.2 266.8 -103.7 269.85 -105.2
M 117.85 -109.5
Q 117.6 -105.55 117.6 -101.45 117.6 -100.7 117.6 -99.95 117.5 -99.15 117.4 -98.45 117.25 -96.35 117.15 -94.2 117.05 -92.15 117.05 -89.95 116.8 -86.4 116.9 -82.8 117.05 -79.3 117.25 -75.65 117.4 -71.65 117.25 -67.55 117.25 -63.45 117.15 -59.5 117.05 -54.7 117.25 -50.1 117.5 -45.6 118.75 -40.95 119.1 -39.4 120.4 -38.25 121.7 -37.1 123.2 -36.85 124.4 -36.7 125.35 -36.7 126.35 -36.85 127.4 -36.85 128.7 -37.1 129.35 -38.05 129.6 -38.5 130.2 -38.9 131.5 -39.85 131.95 -41.15 132.3 -42.4 132.55 -43.95 132.9 -46.5 133 -49 133.1 -51.4 133.35 -53.95 133.45 -57.25 133.55 -60.6 133.7 -63.95 133.8 -67.45 134.05 -71.4 133.8 -75.45 133.55 -79.4 133.55 -83.35 133.45 -88.75 133.8 -93.85 134.05 -99 133.95 -104.3 133.95 -104.65 133.95 -104.95 133.95 -105.3 133.95 -105.65 133.95 -106.85 134.3 -107.2 134.5 -107.45 135.7 -107.45
L 138.15 -107.45
Q 145.6 -107.3 153.05 -107.45 160.55 -107.55 167.9 -108.15 171.25 -108.4 174.15 -109.3 177.15 -110.35 179.55 -112.65 180.15 -113 180.5 -113.85 181.05 -114.9 180.65 -115.75 180.15 -116.4 179 -116.5
L 176.65 -116.75
Q 174.05 -117.1 171.5 -117.6 168.95 -117.95 166.35 -118.05 163.7 -118.15 161.15 -118.4 158.6 -118.65 156 -118.75 151.25 -119.1 146.55 -119.1 141.85 -119 137.2 -118.15 136.85 -118.05 136.4 -118.05 136.05 -117.95 135.7 -117.95 134.85 -117.95 134.65 -118.15 134.4 -118.4 134.4 -119.25 134.4 -122.4 134.3 -125.4 134.15 -128.55 133.55 -131.45 133.45 -132.5 134.4 -132.5 135.45 -132.5 136.55 -132.5 137.4 -132.5 138.6 -132.4 141.5 -132.05 144.4 -131.9 147.4 -131.7 150.4 -131.7 152.7 -131.8 155.25 -131.7 157.75 -131.7 160.4 -131.7 164.5 -131.9 168.85 -131.8 173.15 -131.7 177.55 -132.05 179.1 -132.05 180.3 -132.65 181.4 -133.25 182.35 -134.05 183.4 -134.85 184.25 -135.75 185 -136.85 185.85 -137.85 185.95 -137.95 185.95 -138.2 185.95 -138.45 186.1 -138.7 186.1 -139.5 185.5 -139.65 184 -139.85 182.6 -140.45 181.3 -141.05 179.9 -141.3 177.55 -141.4 175.25 -141.6 172.95 -141.8 170.7 -141.8 162.4 -141.95 154.4 -141.95 146.3 -141.95 138.15 -142.4 135.95 -142.55 133.7 -142.55 131.5 -142.4 129.3 -142.3 128.85 -142.2 128.35 -142.3 127.9 -142.3 127.4 -142.4 125.65 -142.55 123.8 -141.5 121.95 -140.6 121.1 -139.05 119.35 -134.95 118.75 -130.75 118.5 -127.5 118.3 -124.2 118.1 -121.05 118.1 -117.7 118 -113.6 117.85 -109.5 Z"/>
</g>

<g id="S_mbolo_3_0_Layer0_0_FILL">
<path fill="#CCCCCC" stroke="none" d="
M 17.2 27.7
Q 17.9 26.6 18.4 25.5 15 27 9.55 27 7.9 27 4.6 26.25 4.6 26.35 4.65 26.45 4.85 27.8 5.45 28.3 6 28.8 7.3 28.9 7.7 28.95 10.5 28.95 11.05 28.95 11.6 29.85 12.2 30.75 12.85 30.75 15.15 30.75 17.2 27.7
M 19.2 32.65
Q 19.2 33 19.2 33.05 19.25 33.1 19.4 33.35 22.35 33.35 23.1 36.4 23.2 36.65 23.5 38.5 23.65 39.45 23.95 39.45 25.9 39.45 27.7 36.6 29.3 34.05 29.3 32.15 29.3 30.35 28.1 28.95 27.05 27.7 26.15 27.7 24.55 27.7 21.9 29.1 21.15 29.5 20.6 29.85 20.3 30.25 20.05 30.65 19.2 32.15 19.2 32.65
M 15.05 36.5
Q 14.85 36 14.25 36 13.9 36 13.55 36.05 12.4 36.3 11.5 37.35 11.35 37.6 11.25 37.95 10.7 39.25 10.7 40.95 10.7 42.7 11.3 43.85 12.35 45.9 14.95 45.9 15.95 45.9 16.95 45.3 18.4 44.45 18.4 43.05 18.4 42.15 17.4 41.55 15.95 40.65 15.55 40.25 15.2 39.85 15.15 39.05 15.15 38.8 15.15 37.65 15.2 36.85 15.05 36.5 Z"/>

<path fill="#FFFFFF" stroke="none" d="
M 14.95 7.5
Q 14.2 7.1 11.9 7.1 10.1 7.1 8.15 8.75 6.2 10.35 6.25 11.55 6.35 12.6 5.75 13 5.45 13.2 4.45 13.35 3.8 13.4 3.45 13.6 3.2 13.7 3.05 13.8 2.4 14.35 2.4 15.6 2.4 16.4 3.65 18.15 4.25 19.05 4.9 19.85 4.9 19.95 4.85 20.1 4.45 21.5 4.45 22.65 4.45 25.05 4.6 26.25 7.9 27 9.55 27 15 27 18.4 25.5 19.2 23.55 19.2 21.55 19.2 20.5 18.65 19.7 18.4 19.35 17.4 18.4 16.5 17.55 16.1 16.8 15.55 15.7 15.55 14.2 15.55 14.05 15.85 12.4 16.15 10.7 16.15 10.35 16.15 8.15 14.95 7.5 Z"/>

<path fill="#333333" stroke="none" d="
M 35.1 4.1
Q 35.55 4.5 37.05 6.35 35.05 2.65 32.95 1 32.1 0.35 31.25 0 30.6 0 29.95 0 25.85 0 23.05 0.65 17.8 1.85 13.1 3.65 7.35 5.9 4 8.55 0 11.75 0 15.2 0 15.7 0.05 16.3 0.1 17.35 0.3 18.55 0.4 19.15 0.55 19.8 0.7 20.5 0.85 21.25 1.35 23.25 2.15 25.6 3.05 25.85 4.35 26.15 4.45 26.2 4.6 26.25 4.45 25.05 4.45 22.65 4.45 21.5 4.85 20.1 4.9 19.95 4.9 19.85 4.25 19.05 3.65 18.15 2.4 16.4 2.4 15.6 2.4 14.35 3.05 13.8 3.2 13.7 3.45 13.6 3.8 13.4 4.45 13.35 5.45 13.2 5.75 13 6.35 12.6 6.25 11.55 6.2 10.35 8.15 8.75 10.1 7.1 11.9 7.1 14.2 7.1 14.95 7.5 16.15 8.15 16.15 10.35 16.15 10.7 15.85 12.4 15.55 14.05 15.55 14.2 15.55 15.7 16.1 16.8 16.5 17.55 17.4 18.4 18.4 19.35 18.65 19.7 19.2 20.5 19.2 21.55 19.2 23.55 18.4 25.5 19.95 24.8 21.05 23.8 23.8 21.3 23.8 16.85 23.8 16.2 23.65 13.85 23.5 11.5 23.5 10.4 23.5 5.85 26.55 3.45 26.55 3.4 26.6 3.4 28.4 2.5 30.7 2.5 33.2 2.5 35.1 4.1 Z"/>

<path fill="#000000" stroke="none" d="
M 46 33.7
Q 45.3 30.8 44.75 28.45 42.8 20.9 41.05 15.65 39.1 10 37.05 6.35 35.55 4.5 35.1 4.1 33.2 2.5 30.7 2.5 28.4 2.5 26.6 3.4 26.55 3.4 26.55 3.45 23.5 5.85 23.5 10.4 23.5 11.5 23.65 13.85 23.8 16.2 23.8 16.85 23.8 21.3 21.05 23.8 19.95 24.8 18.4 25.5 17.9 26.6 17.2 27.7 15.15 30.75 12.85 30.75 12.2 30.75 11.6 29.85 11.05 28.95 10.5 28.95 7.7 28.95 7.3 28.9 6 28.8 5.45 28.3 4.85 27.8 4.65 26.45 4.6 26.35 4.6 26.25 4.45 26.2 4.35 26.15 3.05 25.85 2.15 25.6 2.75 27.45 3.6 29.5 3.95 30.5 6.7 37.15 8.25 40.95 12.35 50.6
L 46 33.7
M 14.25 36
Q 14.85 36 15.05 36.5 15.2 36.85 15.15 37.65 15.15 38.8 15.15 39.05 15.2 39.85 15.55 40.25 15.95 40.65 17.4 41.55 18.4 42.15 18.4 43.05 18.4 44.45 16.95 45.3 15.95 45.9 14.95 45.9 12.35 45.9 11.3 43.85 10.7 42.7 10.7 40.95 10.7 39.25 11.25 37.95 11.35 37.6 11.5 37.35 12.4 36.3 13.55 36.05 13.9 36 14.25 36
M 19.2 33.05
Q 19.2 33 19.2 32.65 19.2 32.15 20.05 30.65 20.3 30.25 20.6 29.85 21.15 29.5 21.9 29.1 24.55 27.7 26.15 27.7 27.05 27.7 28.1 28.95 29.3 30.35 29.3 32.15 29.3 34.05 27.7 36.6 25.9 39.45 23.95 39.45 23.65 39.45 23.5 38.5 23.2 36.65 23.1 36.4 22.35 33.35 19.4 33.35 19.25 33.1 19.2 33.05 Z"/>
</g>

<g id="S_mbolo_2_0_Layer0_0_FILL">
<path fill="#000000" stroke="none" d="
M 24.95 20.4
Q 24.75 20.1 24.55 19.75 23.75 20.15 22.75 20.15 22.15 20.15 19.7 18.7 17.3 17.2 16.05 17.2 10.3 17.2 9.35 20.65
L 9.35 20.75
Q 9.3583984375 20.875 9.4 21 9.55 21.75 9.85 23 10.05 23.45 10.25 23.9 11.12265625 25.4439453125 12.55 25.95 13.26171875 26.2 14.1 26.2 16.75 26.2 18.55 25.15 20.35 24.1 21.3 24.1 21.9 24.1 23.05 26.2 23.25 26.55 23.45 26.85 22.85 25.45 22.85 24.5 22.85 22.45 24.95 20.4
M 31.15 11.65
Q 31.1 11.6 30.95 11.45 30.55 11.05 29.4 10 29.05 9.7 28.7 9.4 28.65 9.35 28.6 9.35 27.6 10.4 27.35 10.75 26.5 11.95 26.5 13.2 26.5 13.9 26.7 14.6 26.85 15.35 26.85 15.85 26.85 16.8 26.5 17.6 26.85 18.35 27.25 19.25 28 19 28.8 19 29.7 19 30.45 19.3 29.7 18.5 29.7 18.4 31.7 15.25 31.7 13.8 31.7 12.35 31.15 11.65
M 27.75 18.1
Q 27.7 18.153125 27.7 18.25
L 27.65 18.2 27.75 18.1 Z"/>

<path fill="#CCCC99" stroke="none" d="
M 0.9 15.6
Q 0.2 15.8 0.05 16.5 -0.05 16.75 0 16.95 0.1 17.2 0.15 17.55 0.95 20.45 2.95 22.6 5.7 25.25 8.9 24.4 9.6 24.2 10.25 23.9 10.05 23.45 9.85 23 9.55 21.75 9.4 21 9.3583984375 20.875 9.35 20.75 9.1 20.8 9.05 20.8 6.45 21.5 4.2 20.05 2.15 18.6 1.1 15.55 1.05 15.6 0.9 15.6
M 30.95 11.45
Q 33 9.1 32.1 5.65 31.25 2.8 29.15 0.65 28.9 0.45 28.7 0.25 28.55 0.1 28.25 0.05 27.6 -0.15 27.1 0.35 27 0.5 26.95 0.5 29.05 2.95 29.3 5.4 29.4 7.5 28.25 9.15 28.4 9.25 28.6 9.35 28.65 9.35 28.7 9.4 29.05 9.7 29.4 10 30.55 11.05 30.95 11.45 Z"/>

<path fill="#FFFFCC" stroke="none" d="
M 9.35 18.4
Q 9.25 18.45 9.2 18.5 8.45 19.2 7.55 19.45 6 19.85 5 19.3 4.2 18.85 3.45 17.75 2.4 16.2 2.25 16.1 1.8 15.5 1.1 15.55 2.15 18.6 4.2 20.05 6.45 21.5 9.05 20.8 9.1 20.8 9.35 20.75
L 9.35 20.65
Q 9.15 19.8 9.15 19.75 9.15 19.05 9.35 18.4
M 26.95 0.5
Q 26.55 1.1 26.8 1.75 26.85 1.95 27.65 3.6 28.25 4.8 28.25 5.75 28.2 6.85 27.1 8 26.7 8.4 26.2 8.7 27.3 8.7 28.25 9.15 29.4 7.5 29.3 5.4 29.05 2.95 26.95 0.5 Z"/>

<path fill="#FFCC99" stroke="none" d="
M 24.95 20.4
Q 22.85 22.45 22.85 24.5 22.85 25.45 23.45 26.85 24.35 28.25 25.35 28.25 27.6 28.25 30.25 26.45 32.9 24.65 32.9 23.15 32.9 22.1 31.3 20.25 30.8 19.7 30.45 19.3 29.7 19 28.8 19 28 19 27.25 19.25 26.05 19.55 24.95 20.4
M 29.85 23.5
Q 28.7 23.5 28.85 22.2 28.85 20.7 30 20.85 31.1 21.05 31.1 22.15 31.1 22.65 30.85 23 30.5 23.5 29.85 23.5
M 26 22.95
Q 27.3 23.1 27.3 24.3 27.3 24.85 26.95 25.25 26.5 25.75 25.85 25.75 24.9 25.75 24.65 25.1 24.65 25.05 24.65 24.35 24.65 22.75 26 22.95 Z"/>

<path fill="#83684E" stroke="none" d="
M 27.3 24.3
Q 27.3 23.1 26 22.95 24.65 22.75 24.65 24.35 24.65 25.05 24.65 25.1 24.9 25.75 25.85 25.75 26.5 25.75 26.95 25.25 27.3 24.85 27.3 24.3
M 28.85 22.2
Q 28.7 23.5 29.85 23.5 30.5 23.5 30.85 23 31.1 22.65 31.1 22.15 31.1 21.05 30 20.85 28.85 20.7 28.85 22.2 Z"/>

<path fill="#333333" stroke="none" d="
M 22.75 20.15
Q 23.75 20.15 24.55 19.75 23.45 18.05 21.55 16.05 20.3 14.7 17.4 12.4 11.8 15.35 11.4 15.65 9.8 16.8 9.35 18.4 9.15 19.05 9.15 19.75 9.15 19.8 9.35 20.65 10.3 17.2 16.05 17.2 17.3 17.2 19.7 18.7 22.15 20.15 22.75 20.15
M 24.2 9
Q 23.65 9.15 22.6 9.7 22.7 9.85 22.8 10 23.75 11.4 24.65 13.45 25.25 14.8 26.5 17.6 26.85 16.8 26.85 15.85 26.85 15.35 26.7 14.6 26.5 13.9 26.5 13.2 26.5 11.95 27.35 10.75 27.6 10.4 28.6 9.35 28.4 9.25 28.25 9.15 27.3 8.7 26.2 8.7 25.25 8.65 24.2 9 Z"/>

<path fill="#CCCCCC" stroke="none" d="
M 24.55 19.75
Q 24.75 20.1 24.95 20.4 26.05 19.55 27.25 19.25 26.85 18.35 26.5 17.6 26.25 18.25 25.75 18.8 25.2 19.4 24.55 19.75 Z"/>

<path fill="#FFFFFF" stroke="none" d="
M 22.8 10
Q 22.7 9.85 22.6 9.7 22.3 9.85 21.95 10 20.95 10.5 19.55 11.2 18.4 11.85 17.4 12.4 20.3 14.7 21.55 16.05 23.45 18.05 24.55 19.75 25.2 19.4 25.75 18.8 26.25 18.25 26.5 17.6 25.25 14.8 24.65 13.45 23.75 11.4 22.8 10 Z"/>
</g>

<g id="Layer7_0_FILL">
<path fill="#A33600" stroke="none" d="
M 288.15 313.55
Q 288.1 314.8 287.95 316.5 287.7 320.4 287.5 322.55 287.65 322.55 287.85 322.55 288.15 322.55 288.55 322.6
L 289.4 314
Q 292.15 315.1 298.95 317.7 297.6 318.8 294.7 321 293.1 322.25 292.1 323 292.6 323.1 293.2 323.2 295.25 321.5 299.05 318.45 299.2 318.15 299.3 317.85 299.45 317.9 299.6 318 299.35 318.2 299.05 318.45 298.8 319.05 298.55 319.75 297.4 322.65 297 324.1 297.45 324.2 297.95 324.35 298.45 323.05 299.8 319.85 300.15 319 300.45 318.3 300.65 317.55 300.9 317.05 300.4 316.9 299.75 316.7 297.85 316.15 294.75 315 291.3 313.75 289.5 313
L 289.75 310.9
Q 289 310.8 288.35 310.75 273.85 309.5 271.15 309.3 271.25 309.9 271.3 310.45 275.7 310.7 282.1 311.1 285.85 311.35 288.3 311.5 288.25 311.95 288.25 312.45 288.2 312.95 288.15 313.55 Z"/>

<path fill="#5D1F00" stroke="none" d="
M 223.75 315.85
Q 223.3 315 222.9 314.4 222.7 313.95 222.5 313.6 222.05 313.9 221.3 314.35 218.5 316.15 211.5 320.75 211 321.1 210.55 321.4 210.7 321.75 210.9 322.1 208.75 323.15 205.05 325 199.55 327.65 196 329.45 195.2 329.9 194.45 330.25 194.15 330.35 193.85 330.55 193.3 330.8 192.8 331.1 193.05 331.4 193.35 331.8 193.5 332 193.6 332.15 194 331.95 194.7 331.65 194.65 331.55 194.55 331.45
L 194.85 331.6
Q 194.8 331.6 194.7 331.65 195.95 333.3 197.55 335.55 198.65 337.05 199.45 338.15 200.65 337.55 201.8 337.05 200.8 335.6 199.25 333.6 199 333.3 198.8 333
L 205.3 335.4
Q 205.95 335.1 206.65 334.8 204.45 333.8 200.4 332.35 198.7 331.75 197.5 331.35 196.8 331.1 196.3 330.95 196.55 330.75 196.95 330.6 201.55 328.4 211.65 323.6 213.05 326.35 215.45 331.2
L 215.45 331.15
Q 216.05 330.95 216.7 330.75 215.4 328.35 212.7 323.1 213.15 322.85 213.7 322.6 213.9 322.05 213.65 321.7 213.45 321.5 213.3 321.25 218.95 317.2 221.75 315.25 222 315.75 222.3 316.4 222.6 316.95 223 317.65 223.95 319.4 225.5 321.85 227.15 324.5 228.75 327.05 229.3 326.9 229.8 326.75 226.4 320.6 224.4 317.05 225.3 316.65 226.5 316.15 228.8 315.25 229.85 314.85
L 229.3 313.5 228.8 313.75
Q 228.75 313.75 228.5 313.85 227.7 314.15 224.85 315.4 224.25 315.65 223.75 315.85 Z"/>
</g>

<g id="Layer6_0_FILL">
<path fill="url(#Gradient_2)" stroke="none" d="
M 277.9 243.4
Q 277.85 243.45 277.85 243.55 277.3 244.35 276.95 245.05 276.85 245.25 276.7 245.45 276.85 245.6 277 245.75 284.65 253.5 284.75 253.35
L 284.8 253.3
Q 284.75 253.3 284.95 253.45 285.25 253.1 285.55 252.75 285.8 252.3 286.1 251.8 286.35 251.35 286.65 250.85 286.9 250.45 287.2 249.85 287.5 249.15 287.85 248.5 285.6 246.9 280.4 243 279.5 242.35 278.75 241.75 278.6 241.95 278.6 242.15 278.2 242.8 277.9 243.4
M 259.2 243.15
Q 259.05 243 258.85 242.8 258.7 243 258.55 243.15 250.95 250.75 251.15 250.9
L 251.2 251
Q 251.15 250.95 251.05 251.15 251.4 251.55 251.8 251.9 252.65 252.75 253.9 253.65 254.4 254.1 255.05 254.55 255.85 255.1 256.5 255.6 258.15 253.05 261.75 247.45 262.25 246.55 262.85 245.75 262.6 245.6 262.45 245.45 261.65 244.95 261 244.5 260 243.8 259.2 243.15
M 255.7 232.25
Q 255.5 232.2 255.25 232.2 244.6 230.75 244.6 231
L 244.6 231.1
Q 244.55 231.05 244.35 231 244.3 231.5 244.3 232 244.3 232.35 244.35 232.85 244.35 233.55 244.35 234.45 244.45 235.05 244.6 235.75 244.65 236.65 244.75 237.45 247.7 237.25 254.35 236.9 255.4 236.85 256.45 236.8 256.4 236.6 256.35 236.4 256.15 235.55 256.05 234.85 255.9 234.25 255.85 233.7 255.8 233.2 255.75 232.75 255.7 232.45 255.7 232.25
M 272.2 249.65
Q 272 248.75 271.9 247.9 271.85 247.65 271.8 247.5 271.6 247.55 271.4 247.55 270.7 247.65 270.05 247.8
L 270 247.8
Q 269.95 247.8 269.9 247.8 269.35 247.85 268.85 247.9 268.35 247.9 267.85 247.95
L 267.75 247.95
Q 267.55 247.95 267.4 247.95 267.35 248.15 267.4 248.4 267.4 250 267.45 251.45 267.45 252.65 267.5 253.65 267.55 258 267.7 259.25
L 267.75 259.7 267.75 259.75 267.85 259.75
Q 267.8 259.7515625 267.8 259.8 267.8 259.85 267.8 260 267.9 260 267.95 260 268.4 260 268.85 260.05 269.35 260.05 269.9 260 270.5 260 271.2 259.9
L 271.25 259.9
Q 271.85 259.85 272.55 259.8 273.4 259.65 274.1 259.55 273.55 256.5 272.2 249.65
M 248.95 220.3
Q 248.45 220.9 248 221.4 250.35 223.1 255.65 227.05 256.55 227.7 257.35 228.35 257.45 228.1 257.55 228 257.95 227.35 258.35 226.8 258.6 226.45 258.8 226.2 259.15 225.75 259.45 225.35 259.6 225.15 259.7 225 259.6 224.9 259.45 224.7 252.15 217.3 252 217.45
L 251.95 217.5 251.8 217.3
Q 251.45 217.6 251.15 217.9 250.5 218.45 249.85 219.25 249.75 219.3 249.7 219.4 249.3 219.8 248.95 220.3
M 279.2 219
Q 278.6 218.5 278 218.1 276.9 219.85 274.15 224 273.7 224.7 273.25 225.4 273.45 225.5 273.65 225.6 274.3 226.05 274.9 226.45 275.8 227.15 276.5 227.7 276.65 227.9 276.85 228.05 276.95 227.9 277.1 227.75 282.65 222.05 282.45 221.9
L 282.4 221.85 282.55 221.75
Q 282.2 221.45 281.85 221.1 281.15 220.45 280.2 219.7 279.7 219.35 279.2 219
M 265.85 213.5
Q 265.35 213.45 264.75 213.45 263.95 213.45 263.3 213.45 263.75 215.8 264.8 221.4 265 222.35 265.15 223.25 265.35 223.25 265.55 223.25 266.25 223.15 266.95 223.15 268 223.1 268.8 223.15 268.95 223.15 269.1 223.15 269.2 223.15 269.25 223.15 269.25 223 269.25 222.8 269.05 214 268.85 214
L 268.8 213.95
Q 268.85 213.95 268.8 213.8 268.4 213.65 267.95 213.65 267.05 213.5 265.85 213.5
M 289.05 234.6
Q 288.9 233.85 288.7 233.15 286.45 233.25 281 233.55 280.05 233.55 279.2 233.6 279.3 233.8 279.35 234 279.4 234.1 279.45 234.2 279.6 234.85 279.75 235.45 280 236.6 280.15 237.45 280.2 237.7 280.25 237.9 280.4 237.9 280.6 237.95 289.7 239.15 289.7 238.9
L 289.7 238.8
Q 289.701171875 238.85 289.85 238.85 289.85 238.4 289.8 237.95 289.75 237.65 289.65 237.25 289.55 236.6 289.4 235.75 289.2 235.2 289.05 234.6 Z"/>

<path fill="#333333" stroke="none" d="
M 258.8 226.2
Q 258.6 226.45 258.35 226.8 257.95 227.35 257.55 228 257.45 228.1 257.35 228.35 257.55 228.45 257.75 228.6 261.75 231.55 264.2 233.45 258.9 232.7 256.05 232.3 255.85 232.25 255.7 232.25 255.7 232.45 255.75 232.75 255.8 233.2 255.85 233.7 255.9 234.25 256.05 234.85 256.15 235.55 256.35 236.4 256.4 236.6 256.45 236.8 256.7 236.8 256.9 236.8 262.25 236.5 265.25 236.4 261.2 240.45 259.05 242.6 258.9 242.7 258.85 242.8 259.05 243 259.2 243.15 260 243.8 261 244.5 261.65 244.95 262.45 245.45 262.6 245.6 262.85 245.75 262.9 245.55 263.05 245.35 265.1 242.15 266.45 240 266.65 244.7 266.7 249.4 266.7 249.85 266.7 252.55 266.7 253.6 266.7 254.9 266.7 256.45 266.7 258.55 266.7 259.15 266.7 259.75 266.7 261.7 266.7 263.95 266.7 273.15 266.6 282.2 266.6 282.85 266.6 283.55 266.55 284.65 266.55 285.75 266.55 286.7 266.55 287.65 266.35 303 265.9 317.75 265.85 318.2 265.85 318.75 265.8 321.25 265.7 323.8 266.25 323.75 266.95 323.8 266.95 320.8 266.95 317.9 269.9 315.65 274.25 311.65 274.8 318.2 275.3 323.8 276.05 323.8 276.7 323.8 276.25 317.35 275.75 310.35 276.15 309.9 276.55 309.5 279.1 307.15 281.9 304.5 284.1 318 285.25 324.15 285.45 324.15 285.7 324.15 286.25 324.15 286.85 324.15 285 312.4 283.5 302.95 283.4 302.15 283.25 301.35 283.25 301 283.15 300.6 283.05 299.9 282.95 299.2 281.05 287.4 279.65 279.55 279 275.7 278.35 272 278.25 271.45 278.15 270.95 278.05 270.5 277.95 270.05 277.85 269.5 277.75 268.95 275.5 256.85 273.05 246.4 272.85 245.35 272.6 244.4 272.05 242.2 271.55 240.15 272.85 241.5 273.95 242.65 274.55 243.2 275.05 243.75 275.8 244.5 276.45 245.15 276.6 245.35 276.7 245.45 276.85 245.25 276.95 245.05 277.3 244.35 277.85 243.55 277.85 243.45 277.9 243.4 278.2 242.8 278.6 242.15 278.6 241.95 278.75 241.75 278.55 241.65 278.35 241.5 274.45 238.6 272.1 236.85 277.25 237.5 279.9 237.85 280.05 237.9 280.25 237.9 280.2 237.7 280.15 237.45 280 236.6 279.75 235.45 279.6 234.85 279.45 234.2 279.4 234.1 279.35 234 279.3 233.8 279.2 233.6 279 233.6 278.8 233.65 273.85 233.85 271.05 233.9 274.8 230.05 276.65 228.2 276.75 228.1 276.85 228.05 276.65 227.9 276.5 227.7 275.8 227.15 274.9 226.45 274.3 226.05 273.65 225.6 273.45 225.5 273.25 225.4 273.15 225.55 273.05 225.7 270.8 229.1 269.35 231.25 269.3 226.25 269.25 223.65 269.25 223.5 269.25 223.45
L 269.25 223.4
Q 269.25 223.25 269.25 223.15 269.2 223.15 269.1 223.15 268.95 223.15 268.8 223.15 268 223.1 266.95 223.15 266.25 223.15 265.55 223.25 265.35 223.25 265.15 223.25 265.2 223.45 265.2 223.65 266.25 229.2 266.75 232.15 262.2 227.5 259.95 225.25 259.85 225.1 259.7 225 259.6 225.15 259.45 225.35 259.15 225.75 258.8 226.2
M 258.6 227.05
Q 258.85 226.7 259.1 226.4 259.45 225.95 259.65 225.55 261.65 227.65 262.85 228.85 264.55 230.5 266.85 232.7
L 266.9 232.75
Q 266.75 232.8 266.65 232.85 266.45 233 266.3 233.15 266.25 233.2 266.2 233.35 266.05 233.5 265.95 233.7 265.45 233.6 265 233.55 263.8 232.6 262.9 231.95 260.15 229.8 257.95 228.25 258.3 227.6 258.6 227.05
M 256.45 234.9
Q 256.25 234.2 256.2 233.65 256.1 233.15 256.05 232.8 257.5 233 258.6 233.15 259.75 233.3 260.6 233.45 262.45 233.65 264.75 233.85 265.3 234.3 265.75 234.6 265.75 234.7 265.75 234.75 265.85 235.25 266.05 235.65 265.85 235.75 265.7 235.95 263.95 236 262.7 236 259.45 236.15 256.8 236.35 256.55 235.55 256.45 234.9
M 262.65 245.1
Q 261.9 244.65 261.3 244.25 260.15 243.45 259.45 242.95 261.45 241 262.55 239.8 264.05 238.3 265.8 236.4 266.05 236.35 266.3 236.35 266.4 237.75 266.45 239.15 266.05 239.7 265.75 240.2 264 242.85 262.65 245.1
M 274.65 226.7
Q 275.7 227.45 276.3 227.9 274.65 229.5 273.7 230.55 272.3 231.95 270.55 233.9 270.3 233.9 270.05 234 269.95 233.85 269.85 233.7 269.7 233.5 269.6 233.35 269.45 233.25 269.45 233.2 269.45 232.6 269.45 232.15 269.45 232.1 269.45 232.05 269.45 232 269.5 231.95 270.2 230.9 270.7 230.1 272.25 227.75 273.45 225.9 274.1 226.3 274.65 226.7
M 273.65 234.3
Q 276.65 234.2 278.95 234.05 279.2 234.75 279.4 235.4 279.7 236.6 279.85 237.4 277.3 237.05 275.7 236.85 273.85 236.6 271.55 236.4 270.9 235.9 270.35 235.5 270.4 235.3 270.35 235.05 270.35 234.85 270.3 234.65 270.5 234.5 270.6 234.4 272.4 234.3 273.65 234.3
M 268.8 223.45
Q 268.8 225.95 268.9 227.5 268.9 229.3 269.05 231.75 268.85 232.05 268.65 232.35 268.55 232.5 268.4 232.65 268.15 232.6 267.9 232.6 267.55 232.55 267.25 232.6 266.9 230.5 266.7 229.15 266.15 226 265.6 223.6 266.35 223.5 266.95 223.45 268.1 223.4 268.8 223.45
M 265.85 233.95
Q 265.85 234.05 265.8 234.15 265.65 234.05 265.55 233.95 265.65 233.95 265.85 233.95
M 268.9 232.8
Q 269 232.65 269.15 232.45 269.1 232.7 269.15 233 269 232.9 268.9 232.85
L 268.85 232.8 268.9 232.8
M 270.8 236.35
Q 270.7 236.35 270.55 236.35 270.5 236.2 270.5 236.15 270.65 236.2 270.8 236.35
M 269.55 237.7
Q 269.25 237.45 269 237.2 269.25 237.1 269.45 237.05 269.45 237.35 269.55 237.7
M 270.05 238.2
Q 269.85 237.35 269.8 236.7 269.8 236.65 269.85 236.65 270.1 237.5 270.3 238.4 270.15 238.3 270.05 238.2
M 269.05 237.65
Q 269.35 237.9 269.65 238.2 269.9 239.8 270.1 241 270.6 243.9 271.15 246.3 270.7 246.8 270.35 247.3 270.15 247.35 270 247.4 269.45 242 269.05 237.65
M 270.15 238.75
Q 270.3 238.85 270.4 238.95 271.1 241.95 271.8 245.4 271.6 245.6 271.5 245.8 270.6 241.4 270.15 238.75
M 271.35 239.45
Q 271 238 270.65 236.6 270.95 236.65 271.25 236.7 272.4 237.6 273.25 238.25 276 240.3 278.15 241.9 278 242.3 277.85 242.7 277.75 242.95 277.65 243.15 277.1 244.15 276.7 244.8 274.65 242.65 273.4 241.4 272.45 240.45 271.35 239.45
M 267.6 237.5
Q 267.55 237.3 267.55 237.1 267.7 237.15 267.8 237.2 267.7 237.35 267.6 237.5
M 267.3 237
Q 267.3 237.45 267.3 237.9 267.25 237.95 267.2 238.05 267.15 237.45 267.1 236.9 267.2 236.95 267.3 237
M 267.6 238.25
Q 267.75 237.95 267.95 237.75 268.4 242.3 268.8 247.5 268.25 247.55 267.85 247.6 267.85 244.65 267.8 242.9 267.75 240.85 267.6 238.25
M 268.85 247.9
Q 269.35 247.85 269.9 247.8 269.95 247.8 270 247.8
L 270.05 247.8
Q 270.7 247.65 271.4 247.55 271.6 247.55 271.8 247.5 271.85 247.65 271.9 247.9 272.05 247.65 272.2 247.45 274 256.15 275.95 267.6 274.45 266.4 272.6 264.65 272.05 264.15 271.55 263.65 271.35 261.7 271.2 259.9 270.5 260 269.9 260 270 261.1 270.1 262.25 269 261.1 267.95 260 267.9 260 267.8 260 267.8 259.85 267.8 259.8
L 267.75 259.75 267.75 259.7
Q 267.741015625 259.691015625 267.7 259.65 267.65 259.45 267.7 259.25 267.55 258 267.5 253.65 267.45 252.65 267.45 251.45 267.4 250 267.4 248.4 267.35 248.15 267.4 247.95 267.55 247.95 267.75 247.95
L 267.85 247.95
Q 268.35 247.9 268.85 247.9
M 267.65 260.7
Q 268.75 261.75 270.2 263.1 270.7 269.85 271.35 277.5 269.45 279.3 267.3 281.45 267.35 280.65 267.35 279.85 267.55 269.55 267.65 260.7
M 271.6 264.4
Q 273.55 266.15 276.05 268.4 276.4 270.3 276.7 272.3 274.95 274 272.75 276.15 272.15 269.95 271.6 264.4
M 276.9 273.4
Q 277.25 275.55 277.6 277.8 279.4 288.9 280.8 297.7 278.7 296.1 276.25 294 275.2 293.05 274.2 292.15 273.7 286.1 273.05 279.75 272.95 278.6 272.85 277.45 274.75 275.6 276.9 273.4
M 271.5 278.8
Q 271.55 279.35 271.55 279.95 272 285.5 272.45 290.65 269.45 288.05 267.25 286.35 267.3 284.55 267.3 282.85 269.1 281.15 271.5 278.8
M 267.25 288.2
Q 269.4 289.85 272.65 292.3 273.4 301.9 274.1 310.15 271.5 312.65 270.3 313.85 268.8 315.25 266.95 316.8 267 301.4 267.25 288.2
M 274.35 293.65
Q 274.9 294.05 275.45 294.5 278.75 297.05 281 298.85 281.3 300.8 281.6 302.6 280.75 303.35 279.65 304.45
L 275.6 308.65
Q 275 301.4 274.35 293.65 Z"/>
</g>

<g id="Layer5_0_FILL">
<path fill="#772700" stroke="none" d="
M 246 320.35
L 246.2 320.75
Q 248 320.55 251.45 320.15
L 251.25 319.5
Q 247.75 320.05 246 320.35
M 249.7 315.1
L 249.5 314.65
Q 246 315.45 244.3 315.9
L 244.35 316.05 244.45 316.4
Q 246.45 315.9 249.7 315.1
M 269.1 316.85
Q 269.15 317.5 269.25 318.1 271.25 317.85 273 317.65
L 272.85 316.3
Q 271.1 316.55 269.1 316.85
M 268.55 310.7
Q 270.5 310.2 272.25 309.9
L 272.2 309.45
Q 270.45 309.85 268.5 310.3 268.5 310.5 268.55 310.7
M 268.15 306.9
Q 268.2 307.3 268.25 307.7 270.05 307.35 272 307
L 271.9 306.25
Q 270.2 306.5 268.15 306.9
M 267.9 303.7
Q 267.9 304.05 267.95 304.45 269.95 304.25 271.7 304.05
L 271.6 303.2
Q 269.95 303.4 267.9 303.7
M 242.5 311.65
L 242.8 312.25
Q 244.35 312 248.35 311.3
L 248.1 310.6
Q 244.4 311.3 242.5 311.65
M 240.45 306.6
L 240.7 307.2
Q 242.65 307.05 246.7 306.65
L 246.55 306.25
Q 242.5 306.6 240.45 306.6
M 238.45 301.8
L 238.7 302.35
Q 240.5 302 244.8 301.1
L 244.65 300.7
Q 240.45 301.5 238.45 301.8
M 236.1 296.05
L 236.45 296.8 236.5 296.9
Q 238.2 296.55 242.95 295.8
L 242.65 294.9
Q 237.95 295.7 236.1 296.05
M 240.95 290.15
L 240.7 289.4
Q 237.5 289.95 235.6 290.25
L 235.45 291.2
Q 237.15 290.9 240.95 290.15
M 270.5 291.35
L 270.4 290.05
Q 268.65 290.35 266.5 290.7 266.6 291.3 266.65 291.95 268.8 291.65 270.5 291.35
M 267.1 296.2
Q 267.1 296.4 267.15 296.6 269.15 296.2 270.95 295.9
L 270.9 295.45
Q 269.15 295.75 267.1 296.2
M 269.05 285.15
L 268.85 284.65
Q 267.5 284.85 265.85 285.15 265.9 285.4 265.9 285.65 267.55 285.35 269.05 285.15
M 266 277.1
L 265.65 276.2
Q 260.55 277.15 252.2 278.7 241.3 280.7 236.65 281.55
L 236.5 282.65
Q 240.8 281.8 250.25 279.95 259.55 278.15 266 277.1
M 256.4 316.25
Q 256.3 316.5 256.25 316.7 256.35 318.15 256.5 320.55 256.7 320.55 256.85 320.55 256.7 319.7 256.6 318.35 256.5 317.15 256.4 316.25
M 257.95 311.2
Q 257.9 311.5 257.8 311.75 258.05 313.25 258.2 316.2 258.4 319.2 258.45 320.55 258.75 320.55 259.05 320.55 258.8 319.3 258.55 316.8 258.2 313.2 257.95 311.2
M 261.15 314.7
Q 260.7 313.95 260.2 313.3 260.95 318.3 261.4 320.55 261.8 320.55 262.1 320.55 261.8 319.35 261.4 316.5 261.25 315.45 261.15 314.7
M 263.8 318.4
Q 263.55 318 263.3 317.7 263.3 317.65 263.25 317.65 263.5 318.8 263.8 320.55 264 320.55 264.15 320.55 264 319.95 263.9 319.05 263.85 318.65 263.8 318.4
M 260.1 303.65
Q 260 303.95 259.9 304.3 260.25 306.75 260.45 308.55 260.6 308.8 260.75 309.05
L 260.8 309.05
Q 260.65 308.1 260.5 306.8 260.25 305 260.1 303.65
M 261.2 299.35
Q 261.15 299.5 261.15 299.6 261.65 303 262.2 306.9 262.65 310.1 263 312.45 263.3 313 263.7 313.6 263.4 311.4 263.1 309.55 262.4 305.05 261.2 299.35
M 264.85 308.05
Q 264.85 308.2 264.85 308.4 265.65 314.65 266 317.1 266.05 317.15 266.1 317.3 266.4 317.7 266.65 318.05 265.8 313.75 265.2 310.5 265 309.35 264.85 308.05
M 262.85 292.9
Q 262.65 293.55 262.55 294.2 263.4 298.4 264 302.25 263.45 298.15 262.85 292.9
M 252.6 302.7
Q 252.05 301.95 251.45 301.1 252.25 303.95 253.55 308.45 254.3 311.05 254.9 312.75 255 312.25 255.2 311.8 254.55 309.85 254.35 309.05 253.8 307.25 252.6 302.7
M 255.85 307.15
Q 256 307.65 256.15 308.2 256.25 308 256.25 307.8 256.05 307.4 255.85 307.15
M 247.4 295.4
Q 247.6 295.95 247.8 296.55 248.7 299.25 250.55 304.75 250.75 305.4 252.25 312 253 315.15 253.7 316.85 253.85 316.35 254 315.85 252.65 311 251.05 305.65 249.75 301.3 248.55 296.95 248 296.2 247.4 295.4
M 250.45 283.15
Q 250.05 283.15 249.65 283.25 251.1 289.4 252.5 294.7 252.9 296.2 253.35 298 253.7 298.45 254 298.85 254.1 299.05 254.2 299.15 254 297.8 253.85 297.2 253.05 294 252.25 290.7 251.1 286.25 250.45 283.15
M 244.8 284.1
Q 244.55 284.15 244.3 284.2 244.55 285.65 244.8 287.05 245.15 287.4 245.45 287.8 245.35 287.05 245.15 286 244.9 284.9 244.8 284.1
M 247.75 283.55
Q 247.4 283.65 247.1 283.75 247.6 286.2 248.5 290.25 248.7 291.2 248.9 292.05 249.1 292.3 249.3 292.6 249.15 292.05 249.05 291.5 248.35 288.6 247.75 283.55
M 260.55 281.25
Q 260.3 281.25 260.05 281.3 260.6 283.7 261.35 287.65 261.45 287.35 261.55 287.05 261.35 286.15 261.15 284.6 260.8 282.6 260.55 281.25
M 257.6 281.8
Q 257.35 281.85 257 281.9 258 286.3 258.8 291.25 259.2 293.7 259.5 295.25 259.75 294.3 259.95 293.4 259.65 291.95 259.25 289.8 258.2 285 257.6 281.8
M 254.35 282.4
Q 254 282.45 253.55 282.55 254.95 288.45 256.5 296 257.25 299.65 257.75 302.05 257.95 301.35 258.15 300.7 257.25 297.15 256.65 294.5 255.45 289.3 254.35 282.4
M 262.45 267.7
L 262.45 267.6
Q 245.25 269.75 238 270.6
L 237.95 271.5
Q 241.9 270.95 249.9 269.65 257.2 268.5 262.45 267.7
M 256.3 261.7
L 255.85 261.45
Q 253.15 261.9 249.65 262.5 244.75 263.35 241.95 263.8
L 241.4 264.45
Q 244.05 263.95 247.9 263.2 252.6 262.35 256.3 261.7
M 261.2 264.35
L 261.15 264.25 260.85 264.05
Q 260.1 264.15 259.35 264.25 248.05 265.45 248 265.45 243.35 266.15 239.7 266.6
L 239.35 267
Q 242.9 266.6 249.9 265.75 256.3 264.95 261.2 264.35
M 251.65 259.25
Q 250.3 259.35 248.65 259.55 246.6 259.85 245 260.05
L 244.2 261.05
Q 246.3 260.7 249.3 260.2 251.2 259.95 252.6 259.7
L 251.65 259.25 Z"/>

<path fill="url(#Gradient_3)" stroke="none" d="
M 244.45 316.4
L 244.8 317.25 246 320.35
Q 247.75 320.05 251.25 319.5
L 249.7 315.1
Q 246.45 315.9 244.45 316.4
M 269.25 318.1
Q 269.3 319.3 269.45 320.25 269.45 321 269.55 321.6
L 267.95 321.6
Q 267.95 321.95 268 322.35 267.7 322 267.3 321.6
L 252.85 321.6 252.4 322.8 251.45 320.15
Q 248 320.55 246.2 320.75
L 251.85 335.35 273.1 330.45 273 317.65
Q 271.25 317.85 269.25 318.1
M 272.25 309.9
Q 270.5 310.2 268.55 310.7 268.8 314.2 269.1 316.85 271.1 316.55 272.85 316.3
L 272.25 309.9
M 272 307
Q 270.05 307.35 268.25 307.7 268.35 309.05 268.5 310.3 270.45 309.85 272.2 309.45
L 272 307
M 267.95 304.45
Q 268 305 268.05 305.55 268.1 306.25 268.15 306.9 270.2 306.5 271.9 306.25
L 271.7 304.05
Q 269.95 304.25 267.95 304.45
M 242.8 312.25
L 242.95 312.7 243.3 313.55 244.3 315.9
Q 246 315.45 249.5 314.65
L 248.35 311.3
Q 244.35 312 242.8 312.25
M 240.7 307.2
L 240.9 307.7 241.7 309.65 242.1 310.55 242.5 311.65
Q 244.4 311.3 248.1 310.6
L 246.7 306.65
Q 242.65 307.05 240.7 307.2
M 238.85 302.75
L 239.05 303.15 240 305.55 240.45 306.6
Q 242.5 306.6 246.55 306.25
L 244.8 301.1
Q 240.5 302 238.7 302.35
L 238.85 302.75
M 242.95 295.8
Q 238.2 296.55 236.5 296.9
L 236.5 297 238.45 301.8
Q 240.45 301.5 244.65 300.7
L 242.95 295.8
M 235.45 291.2
L 235.15 293.65 235.15 293.7 236.1 296.05
Q 237.95 295.7 242.65 294.9
L 240.95 290.15
Q 237.15 290.9 235.45 291.2
M 270.95 295.9
Q 269.15 296.2 267.15 296.6 267.55 300.15 267.9 303.7 269.95 303.4 271.6 303.2
L 270.95 295.9
M 266.65 291.95
Q 266.9 294.05 267.1 296.2 269.15 295.75 270.9 295.45
L 270.5 291.35
Q 268.8 291.65 266.65 291.95
M 270.05 286
L 269.35 286 269.05 285.15
Q 267.55 285.35 265.9 285.65 266.25 288.15 266.5 290.7 268.65 290.35 270.4 290.05
L 270.2 287.8 270.05 286
M 265.65 276.2
L 264.8 273.95 236.95 279.55 236.65 281.55
Q 241.3 280.7 252.2 278.7 260.55 277.15 265.65 276.2
M 256.5 280
Q 256.9 279.95 257.2 279.95 258.5 279.7 259.65 279.55 259.9 279.45 260.25 279.4 262.5 279 263.9 278.75 263.9 278.9 264.05 278.75 264.6 278.6 265.05 278.5 265.15 279.25 265.2 279.95 265.35 281 265.5 282.1 265.7 283.55 265.85 285.15 267.5 284.85 268.85 284.65
L 266 277.1
Q 259.55 278.15 250.25 279.95 240.8 281.8 236.5 282.65
L 235.6 290.25
Q 237.5 289.95 240.7 289.4
L 238.65 283.55 239.05 282.95 239.05 282.9
Q 239.8 282.75 240.9 282.6
L 240.95 282.6
Q 242.25 282.35 244 282.1 244.2 282.05 244.4 282.05 246.5 281.65 249.2 281.25 249.6 281.15 250 281.1 251.45 280.8 253.1 280.6 253.4 280.55 253.7 280.5 253.9 280.45 254.1 280.4 255.4 280.2 256.5 280
M 262.45 267.7
Q 257.2 268.5 249.9 269.65 241.9 270.95 237.95 271.5
L 237.4 275.5
Q 243.8 274.35 254.9 272.3 261.6 271.05 263.6 270.75
L 262.45 267.7
M 262.45 267.6
L 261.2 264.35
Q 256.3 264.95 249.9 265.75 242.9 266.6 239.35 267
L 238.3 268.25 238 270.6
Q 245.25 269.75 262.45 267.6
M 259.35 264.25
Q 260.1 264.15 260.85 264.05
L 256.3 261.7
Q 252.6 262.35 247.9 263.2 244.05 263.95 241.4 264.45
L 239.7 266.6
Q 243.35 266.15 248 265.45 248.05 265.45 259.35 264.25
M 249.3 260.2
Q 246.3 260.7 244.2 261.05
L 241.95 263.8
Q 244.75 263.35 249.65 262.5 253.15 261.9 255.85 261.45
L 252.6 259.7
Q 251.2 259.95 249.3 260.2
M 248.65 259.55
Q 250.3 259.35 251.65 259.25
L 247.5 257 245 260.05
Q 246.6 259.85 248.65 259.55 Z"/>

<path fill="#431600" stroke="none" d="
M 231.4 322.65
L 231.55 322.9
Q 233.55 322.05 237.65 320.25 242.05 318.4 244.8 317.25
L 244.45 316.4 244.35 316.05
Q 243.5 316.45 242.8 316.85 235.55 320.65 231.4 322.65
M 242.95 312.7
Q 241.6 313.3 237.6 315.45 234.95 316.9 232.05 318.45 232.7 318.25 239.3 315.35 241.15 314.55 243.3 313.55
L 242.95 312.7
M 240.3 321.15
L 240.2 321.15
Q 239.7 321.3 234.95 323.2 233.45 323.8 232.4 324.2
L 232.55 324.5
Q 240.1 321.2 240.3 321.15
M 228.2 317.65
L 228.55 318.2
Q 230.45 317.1 234 315.05 238.85 312.3 242.1 310.55
L 241.7 309.65
Q 239.1 311.2 236.25 312.95 231.85 315.65 228.2 317.65
M 225.05 306.25
Q 226.2 305.55 227.15 304.95
L 222 307.8 222.2 308.1
Q 223.4 307.35 225.05 306.25
M 240.45 306.6
L 240 305.55
Q 237.85 306.85 232.9 309.9 228.05 312.85 226 314.15
L 226.65 315.2
Q 236.9 309.85 240.9 307.7
L 240.7 307.2 240.45 306.6
M 239.05 303.15
L 238.85 302.75
Q 236.65 303.95 230.55 307.35 226.05 309.9 224 311
L 224.2 311.3 239.05 303.15
M 236.45 296.8
Q 236.35 296.85 236.25 296.95 234.45 297.85 228.25 301.25 222.65 304.4 220.55 305.55
L 220.9 306.1 236.5 297 236.5 296.9 236.45 296.8 Z"/>

<path fill="#5D1F00" stroke="none" d="
M 240.2 321.15
L 240.3 321.15
Q 240.1 321.2 232.55 324.5
L 233.85 326.55 239 338.35 251.85 335.35 246.2 320.75 246 320.35 244.8 317.25
Q 242.05 318.4 237.65 320.25 233.55 322.05 231.55 322.9
L 232.4 324.2
Q 233.45 323.8 234.95 323.2 239.7 321.3 240.2 321.15
M 242.8 312.25
L 242.5 311.65 242.1 310.55
Q 238.85 312.3 234 315.05 230.45 317.1 228.55 318.2
L 231.4 322.65
Q 235.55 320.65 242.8 316.85 243.5 316.45 244.35 316.05
L 244.3 315.9 243.3 313.55
Q 241.15 314.55 239.3 315.35 232.7 318.25 232.05 318.45 234.95 316.9 237.6 315.45 241.6 313.3 242.95 312.7
L 242.8 312.25
M 226.65 315.2
L 228.2 317.65
Q 231.85 315.65 236.25 312.95 239.1 311.2 241.7 309.65
L 240.9 307.7
Q 236.9 309.85 226.65 315.2
M 240 305.55
L 239.05 303.15 224.2 311.3 226 314.15
Q 228.05 312.85 232.9 309.9 237.85 306.85 240 305.55
M 238.7 302.35
L 238.45 301.8 236.5 297 220.9 306.1 222 307.8 227.15 304.95
Q 226.2 305.55 225.05 306.25 223.4 307.35 222.2 308.1
L 224 311
Q 226.05 309.9 230.55 307.35 236.65 303.95 238.85 302.75
L 238.7 302.35
M 236.45 296.8
L 236.1 296.05 235.15 293.7 219.2 303.4 220.55 305.55
Q 222.65 304.4 228.25 301.25 234.45 297.85 236.25 296.95 236.35 296.85 236.45 296.8
M 243.65 295.7
Q 243.5 295.2 243.3 294.75 242.45 292.25 241.65 290.05 241.5 289.65 241.4 289.3 240.45 286.7 239.7 284.6 239.35 283.7 239.05 282.95
L 238.65 283.55 240.7 289.4 240.95 290.15 242.65 294.9 242.95 295.8 244.65 300.7 244.8 301.1 246.55 306.25 246.7 306.65 248.1 310.6 248.35 311.3 249.5 314.65 249.7 315.1 251.25 319.5 251.45 320.15 252.4 322.8 252.85 321.6
Q 252.75 321.35 252.65 321.1 252.6 320.8 252.5 320.55 252.45 320.35 252.3 320.1 252.2 319.7 252.05 319.4 251.3 317.3 250.45 314.95 250.35 314.7 250.3 314.45 249.7 312.9 249.1 311.2 249 310.8 248.85 310.45 248.2 308.55 247.5 306.55 247.4 306.35 247.35 306.15 247.1 305.4 246.8 304.6 246.1 302.7 245.5 301 245.45 300.75 245.4 300.55 244.45 298 243.65 295.7
M 263.3 317.7
Q 263.55 318 263.8 318.4 263.9 318.55 264.05 318.7 264.75 319.7 265.4 320.5 265.95 320.5 266.4 320.5 265.75 319.65 264.95 318.6 264.55 318.1 264.15 317.55 263.8 317.1 263.45 316.55 262.9 315.85 262.35 315 261.6 314.05 261 313.1 260.75 312.85 260.55 312.5 260.45 312.3 260.3 312.15 260.1 311.85 259.9 311.6 259.15 310.5 258.45 309.5 258.35 310 258.2 310.5 258.8 311.35 259.45 312.3 259.65 312.5 259.75 312.7 259.95 313 260.2 313.3 260.7 313.95 261.15 314.7 261.45 315.1 261.75 315.55 262.55 316.7 263.25 317.65 263.3 317.65 263.3 317.7
M 264.7 285.85
Q 264.65 285.7 264.65 285.6 264.6 285.7 264.6 285.85 264.4 286.65 264.2 287.4 264.35 289.15 264.55 291.05 264.6 291.65 264.7 292.3 264.9 294.4 265.1 296.6 265.15 296.8 265.15 296.95 265.4 299.8 265.65 302.8 265.7 303.35 265.8 303.95 265.85 304.35 265.85 304.65 265.95 305.9 266.05 307.3 266.1 307.65 266.15 308.05 266.25 309.35 266.4 310.75 266.4 311 266.4 311.2 266.65 313.95 266.9 317.15 266.95 317.75 267.05 318.35 267.05 318.5 267.05 318.65 267.4 319.2 267.75 319.7 267.7 319 267.65 318.3 267.6 317.65 267.55 317.1 267.25 313.85 267.05 311 267 310.8 267 310.6 266.9 309.25 266.75 308 266.7 307.55 266.7 307.15 266.55 305.85 266.45 304.6 266.45 304.25 266.4 303.9 266.3 303.05 266.25 302.3 266 299.5 265.8 296.85 265.75 296.7 265.75 296.5 265.5 294.25 265.35 292.2 265.25 291.55 265.2 290.95 264.95 288.3 264.7 285.85
M 243.55 289.7
Q 243.7 290 243.75 290.35 245.1 292.15 246.55 294.2 246.9 294.6 247.2 295.1 247.35 295.25 247.4 295.35
L 247.4 295.4
Q 248 296.2 248.55 296.95 249.55 298.4 250.4 299.6 250.5 299.7 250.65 299.95 251.05 300.55 251.45 301.1 252.05 301.95 252.6 302.7 253.9 304.5 254.55 305.4 254.75 305.65 254.85 305.8 254.9 305.9 254.95 305.9 255.35 306.5 255.85 307.15 256.05 307.4 256.25 307.8 256.25 308 256.15 308.2 256.05 308.7 255.9 309.1 255.8 309.55 255.65 309.95 255.4 310.95 255.2 311.8 255 312.25 254.9 312.75 254.8 313.1 254.7 313.45 254.6 313.7 254.55 313.95 254.25 314.95 254 315.85 253.85 316.35 253.7 316.85 253.3 318.15 252.95 319.2
L 253 319.25
Q 253.1 319.5 253.15 319.85 253.25 319.5 253.35 319.2 253.65 318.4 253.95 317.4 254.1 317 254.2 316.6 254.55 315.35 255 313.85 255.1 313.6 255.2 313.4 255.2 313.35 255.2 313.3 255.3 312.95 255.4 312.55 255.75 311.3 256.15 309.9 256.25 309.5 256.4 309.05 256.6 308.2 256.9 307.25 256.25 306.4 255.75 305.7 255.65 305.55 255.5 305.45 255.45 305.35 255.4 305.25 255.2 305 254.9 304.55 253.95 303.3 252 300.55 251.75 300.15 251.45 299.7 251.35 299.55 251.25 299.45 251 299.15 250.8 298.85 249.6 297.15 248.05 294.95 248 294.9 248 294.85 247.95 294.8 247.95 294.75 247.65 294.4 247.4 294.05 246.9 293.35 246.5 292.75 245.25 291.05 244.15 289.55 243.95 289.25 243.7 288.9 243.25 288.3 242.9 287.75 243.1 288.35 243.3 288.95 243.45 289.3 243.55 289.7
M 254.35 282
Q 253.9 282.1 253.5 282.15 252.85 282.3 252.15 282.4 251.25 282.55 250.35 282.7 249.9 282.8 249.55 282.9 248.6 283.05 247.7 283.2 247.35 283.25 247 283.35 245.8 283.55 244.7 283.75 244.45 283.8 244.25 283.8 243.25 284 242.35 284.15 242.45 284.3 242.65 284.5 243.45 284.35 244.3 284.2 244.55 284.15 244.8 284.1 245.85 283.95 247.1 283.75 247.4 283.65 247.75 283.55 248.65 283.4 249.65 283.25 250.05 283.15 250.45 283.15 250.95 283 251.6 282.9 252.6 282.7 253.55 282.55 254 282.45 254.35 282.4 255.75 282.1 257 281.9 257.35 281.85 257.6 281.8 258.9 281.55 260.05 281.3 260.3 281.25 260.55 281.25 261.95 281 263.05 280.75 262.6 282.75 261.85 285.85 261.8 286.1 261.7 286.35 261.6 286.7 261.55 287.05 261.45 287.35 261.35 287.65 260.95 289.55 260.35 291.8 260.25 292.35 260.1 293 260 293.2 259.95 293.4 259.75 294.3 259.5 295.25 259.3 296.05 259.1 296.85 259 297.4 258.85 297.85 258.8 298.05 258.75 298.25 258.45 299.5 258.15 300.7 257.95 301.35 257.75 302.05 257.55 302.9 257.35 303.75 257.5 303.95 257.65 304.25 257.8 303.6 258 302.95
L 258.25 301.9
Q 258.3 301.75 258.35 301.6 258.4 301.35 258.5 301.15 258.85 299.7 259.25 298.15 259.3 297.95 259.35 297.8 259.5 297.1 259.7 296.35 259.7 296.3 259.7 296.25 259.95 295.35 260.2 294.4 260.35 293.7 260.5 292.9 260.7 292.3 260.85 291.7 261.25 290.15 261.6 288.7 261.65 288.45 261.7 288.15 262 287.2 262.2 286.25 262.2 286 262.3 285.75 263.1 282.4 263.7 280.25 262.25 280.5 260.5 280.85 260.25 280.9 259.95 280.95 258.8 281.15 257.55 281.4 257.2 281.45 256.9 281.55 255.65 281.75 254.35 282
M 251.65 259.25
L 252.6 259.7 255.85 261.45 256.3 261.7 260.85 264.05 261.15 264.25 261.2 264.35 262.45 267.6 262.45 267.7 263.6 270.75 264.45 273.05
Q 262.65 273.55 255.95 274.8 244.95 276.75 237.05 278.4
L 236.95 279.55 264.8 273.95 265.65 276.2 266 277.1 268.85 284.65 269.05 285.15 269.35 286 270.05 286 269.9 284.65 269.9 284.6 262.2 263.95 248.3 256 247.5 257 251.65 259.25 Z"/>

<path fill="#DBDBDB" stroke="none" d="
M 233.2 269.2
L 216.75 278.65 213.25 304.75 228.65 295.35 233.2 269.2 Z"/>

<path fill="#8C8C8C" stroke="none" d="
M 235.15 293.7
L 235.15 293.65 228.65 295.35 213.25 304.75 219.2 303.4 235.15 293.7
M 269.9 284.65
L 270.05 286 270.2 287.8 274.45 283.45 269.9 284.65 Z"/>

<path fill="#FFFFFF" stroke="none" d="
M 263.6 270.75
Q 261.6 271.05 254.9 272.3 243.8 274.35 237.4 275.5
L 237.05 278.4
Q 244.95 276.75 255.95 274.8 262.65 273.55 264.45 273.05
L 263.6 270.75
M 257.2 279.95
Q 256.9 279.95 256.5 280 255.4 280.2 254.1 280.4 253.9 280.45 253.7 280.5 253.4 280.55 253.1 280.6 251.45 280.8 250 281.1 249.6 281.15 249.2 281.25 246.5 281.65 244.4 282.05 244.2 282.05 244 282.1 242.25 282.35 240.95 282.6
L 240.9 282.6
Q 239.8 282.75 239.05 282.9
L 239.05 282.95
Q 239.35 283.7 239.7 284.6 240.45 286.7 241.4 289.3 241.5 289.65 241.65 290.05 242.45 292.25 243.3 294.75 243.5 295.2 243.65 295.7 244.45 298 245.4 300.55 245.45 300.75 245.5 301 246.1 302.7 246.8 304.6 247.1 305.4 247.35 306.15 247.4 306.35 247.5 306.55 248.2 308.55 248.85 310.45 249 310.8 249.1 311.2 249.7 312.9 250.3 314.45 250.35 314.7 250.45 314.95 251.3 317.3 252.05 319.4 252.2 319.7 252.3 320.1 252.45 320.35 252.5 320.55 252.6 320.8 252.65 321.1 252.75 321.35 252.85 321.6
L 267.3 321.6
Q 267.7 322 268 322.35 267.95 321.95 267.95 321.6
L 269.55 321.6
Q 269.45 321 269.45 320.25 269.3 319.3 269.25 318.1 269.15 317.5 269.1 316.85 268.8 314.2 268.55 310.7 268.5 310.5 268.5 310.3 268.35 309.05 268.25 307.7 268.2 307.3 268.15 306.9 268.1 306.25 268.05 305.55 268 305 267.95 304.45 267.9 304.05 267.9 303.7 267.55 300.15 267.15 296.6 267.1 296.4 267.1 296.2 266.9 294.05 266.65 291.95 266.6 291.3 266.5 290.7 266.25 288.15 265.9 285.65 265.9 285.4 265.85 285.15 265.7 283.55 265.5 282.1 265.35 281 265.2 279.95 265.15 279.25 265.05 278.5 264.6 278.6 264.05 278.75 263.9 278.9 263.9 278.75 262.5 279 260.25 279.4 259.9 279.45 259.65 279.55 258.5 279.7 257.2 279.95
M 253.5 282.15
Q 253.9 282.1 254.35 282 255.65 281.75 256.9 281.55 257.2 281.45 257.55 281.4 258.8 281.15 259.95 280.95 260.25 280.9 260.5 280.85 262.25 280.5 263.7 280.25 263.1 282.4 262.3 285.75 262.2 286 262.2 286.25 262 287.2 261.7 288.15 261.65 288.45 261.6 288.7 261.25 290.15 260.85 291.7 260.7 292.3 260.5 292.9 260.35 293.7 260.2 294.4 259.95 295.35 259.7 296.25 259.7 296.3 259.7 296.35 259.5 297.1 259.35 297.8 259.3 297.95 259.25 298.15 258.85 299.7 258.5 301.15 258.4 301.35 258.35 301.6 258.3 301.75 258.25 301.9
L 258 302.95
Q 257.8 303.6 257.65 304.25 257.5 303.95 257.35 303.75 255.8 301.4 254.2 299.15 254.1 299.05 254 298.85 253.7 298.45 253.35 298 252.1 296.25 250.75 294.5 250.4 294 250.05 293.55 249.7 293.1 249.3 292.6 249.1 292.3 248.9 292.05 247.75 290.6 246.55 289.1 246.3 288.8 246.05 288.5 245.75 288.15 245.45 287.8 245.15 287.4 244.8 287.05 243.75 285.75 242.65 284.5 242.45 284.3 242.35 284.15 243.25 284 244.25 283.8 244.45 283.8 244.7 283.75 245.8 283.55 247 283.35 247.35 283.25 247.7 283.2 248.6 283.05 249.55 282.9 249.9 282.8 250.35 282.7 251.25 282.55 252.15 282.4 252.85 282.3 253.5 282.15
M 243.75 290.35
Q 243.7 290 243.55 289.7 243.45 289.3 243.3 288.95 243.1 288.35 242.9 287.75 243.25 288.3 243.7 288.9 243.95 289.25 244.15 289.55 245.25 291.05 246.5 292.75 246.9 293.35 247.4 294.05 247.65 294.4 247.95 294.75 247.95 294.8 248 294.85 248 294.9 248.05 294.95 249.6 297.15 250.8 298.85 251 299.15 251.25 299.45 251.35 299.55 251.45 299.7 251.75 300.15 252 300.55 253.95 303.3 254.9 304.55 255.2 305 255.4 305.25 255.45 305.35 255.5 305.45 255.65 305.55 255.75 305.7 256.25 306.4 256.9 307.25 256.6 308.2 256.4 309.05 256.25 309.5 256.15 309.9 255.75 311.3 255.4 312.55 255.3 312.95 255.2 313.3 255.2 313.35 255.2 313.4 255.1 313.6 255 313.85 254.55 315.35 254.2 316.6 254.1 317 253.95 317.4 253.65 318.4 253.35 319.2 253.25 319.5 253.15 319.85 253.1 319.5 253 319.25
L 252.95 319.2
Q 252.65 318.2 252.35 317.1 252 315.8 251.7 314.6 251.6 314.4 251.6 314.15 251.05 312.3 250.7 310.85 250.55 310.5 250.5 310.15 249.65 307.1 249.45 306.5 249.4 306.45 249.4 306.35 249.3 306.15 249.25 305.95 248.2 303.05 247.35 300.55 247.35 300.4 247.25 300.2 246.3 297.55 245.55 295.4 245.45 294.95 245.25 294.55 245.25 294.5 245.2 294.4 244.45 292.25 243.75 290.35
M 262.85 292.9
Q 262.9 292.7 262.95 292.55 263.1 291.9 263.3 291.25 263.75 289.3 264.2 287.4 264.4 286.65 264.6 285.85 264.6 285.7 264.65 285.6 264.65 285.7 264.7 285.85 264.95 288.3 265.2 290.95 265.25 291.55 265.35 292.2 265.5 294.25 265.75 296.5 265.75 296.7 265.8 296.85 266 299.5 266.25 302.3 266.3 303.05 266.4 303.9 266.45 304.25 266.45 304.6 266.55 305.85 266.7 307.15 266.7 307.55 266.75 308 266.9 309.25 267 310.6 267 310.8 267.05 311 267.25 313.85 267.55 317.1 267.6 317.65 267.65 318.3 267.7 319 267.75 319.7 267.4 319.2 267.05 318.65 266.95 318.5 266.9 318.4 266.75 318.2 266.65 318.05 266.4 317.7 266.1 317.3 266.05 317.15 266 317.1 265 315.6 263.85 313.85 263.8 313.75 263.7 313.6 263.3 313 263 312.45 262.85 312.25 262.7 312.05 262.6 311.85 262.45 311.65 261.55 310.2 260.8 309.05
L 260.75 309.05
Q 260.6 308.8 260.45 308.55 260.4 308.45 260.3 308.35 259.7 307.35 259.25 306.7 259.45 306.05 259.65 305.3 259.7 305.05 259.8 304.75 259.85 304.5 259.9 304.3 260 303.95 260.1 303.65 260.55 301.75 261.15 299.6 261.15 299.5 261.2 299.35
L 261.2 299.3
Q 261.4 298.5 261.65 297.7 261.7 297.45 261.75 297.3 262.15 295.7 262.55 294.2 262.65 293.55 262.85 292.9
M 264.15 317.55
Q 264.55 318.1 264.95 318.6 265.75 319.65 266.4 320.5 265.95 320.5 265.4 320.5 264.8 320.55 264.15 320.55 264 320.55 263.8 320.55 263.1 320.55 262.4 320.55 262.2 320.55 262.1 320.55 261.8 320.55 261.4 320.55 260.1 320.55 259.05 320.55 258.75 320.55 258.45 320.55 257.55 320.55 256.85 320.55 256.7 320.55 256.5 320.55 255.85 320.55 255.3 320.55 255 320.55 254.8 320.55 254.9 320.1 255.1 319.7 255.25 319.3 255.4 318.85 255.85 317.85 256.25 316.7 256.3 316.5 256.4 316.25 256.9 314.8 257.35 313.3 257.45 313.05 257.55 312.8 257.65 312.25 257.8 311.75 257.9 311.5 257.95 311.2 258.1 310.85 258.2 310.5 258.35 310 258.45 309.5 259.15 310.5 259.9 311.6 260.1 311.85 260.3 312.15 260.45 312.3 260.55 312.5 260.75 312.85 261 313.1 261.6 314.05 262.35 315 262.9 315.85 263.45 316.55 263.8 317.1 264.15 317.55 Z"/>

<path fill="url(#Gradient_4)" stroke="none" d="
M 254.8 320.55
Q 255 320.55 255.3 320.55 255.85 320.55 256.5 320.55 256.35 318.15 256.25 316.7 255.85 317.85 255.4 318.85 255.25 319.3 255.1 319.7 254.9 320.1 254.8 320.55
M 257.55 312.8
Q 257.45 313.05 257.35 313.3 256.9 314.8 256.4 316.25 256.5 317.15 256.6 318.35 256.7 319.7 256.85 320.55 257.55 320.55 258.45 320.55 258.4 319.2 258.2 316.2 258.05 313.25 257.8 311.75 257.65 312.25 257.55 312.8
M 259.45 312.3
Q 258.8 311.35 258.2 310.5 258.1 310.85 257.95 311.2 258.2 313.2 258.55 316.8 258.8 319.3 259.05 320.55 260.1 320.55 261.4 320.55 260.95 318.3 260.2 313.3 259.95 313 259.75 312.7 259.65 312.5 259.45 312.3
M 263.8 320.55
Q 263.5 318.8 263.25 317.65 262.55 316.7 261.75 315.55 261.45 315.1 261.15 314.7 261.25 315.45 261.4 316.5 261.8 319.35 262.1 320.55 262.2 320.55 262.4 320.55 263.1 320.55 263.8 320.55
M 263.9 319.05
Q 264 319.95 264.15 320.55 264.8 320.55 265.4 320.5 264.75 319.7 264.05 318.7 263.9 318.55 263.8 318.4 263.85 318.65 263.9 319.05
M 260.5 306.8
Q 260.65 308.1 260.8 309.05 261.55 310.2 262.45 311.65 262.6 311.85 262.7 312.05 262.85 312.25 263 312.45 262.65 310.1 262.2 306.9 261.65 303 261.15 299.6 260.55 301.75 260.1 303.65 260.25 305 260.5 306.8
M 259.9 304.3
Q 259.85 304.5 259.8 304.75 259.7 305.05 259.65 305.3 259.45 306.05 259.25 306.7 259.7 307.35 260.3 308.35 260.4 308.45 260.45 308.55 260.25 306.75 259.9 304.3
M 262.95 292.55
Q 262.9 292.7 262.85 292.9 263.45 298.15 264 302.25 263.4 298.4 262.55 294.2 262.15 295.7 261.75 297.3 261.7 297.45 261.65 297.7 261.4 298.5 261.2 299.3
L 261.2 299.35
Q 262.4 305.05 263.1 309.55 263.4 311.4 263.7 313.6 263.8 313.75 263.85 313.85 265 315.6 266 317.1 265.65 314.65 264.85 308.4 264.85 308.2 264.85 308.05 265 309.35 265.2 310.5 265.8 313.75 266.65 318.05 266.75 318.2 266.9 318.4 266.95 318.5 267.05 318.65 267.05 318.5 267.05 318.35 266.95 317.75 266.9 317.15 266.65 313.95 266.4 311.2 266.4 311 266.4 310.75 266.25 309.35 266.15 308.05 266.1 307.65 266.05 307.3 265.95 305.9 265.85 304.65 265.85 304.35 265.8 303.95 265.7 303.35 265.65 302.8 265.4 299.8 265.15 296.95 265.15 296.8 265.1 296.6 264.9 294.4 264.7 292.3 264.6 291.65 264.55 291.05 264.35 289.15 264.2 287.4 263.75 289.3 263.3 291.25 263.1 291.9 262.95 292.55
M 251.45 301.1
Q 251.05 300.55 250.65 299.95 250.5 299.7 250.4 299.6 249.55 298.4 248.55 296.95 249.75 301.3 251.05 305.65 252.65 311 254 315.85 254.25 314.95 254.55 313.95 254.6 313.7 254.7 313.45 254.8 313.1 254.9 312.75 254.3 311.05 253.55 308.45 252.25 303.95 251.45 301.1
M 254.85 305.8
Q 254.75 305.65 254.55 305.4 253.9 304.5 252.6 302.7 253.8 307.25 254.35 309.05 254.55 309.85 255.2 311.8 255.4 310.95 255.65 309.95 255.8 309.55 255.9 309.1 256.05 308.7 256.15 308.2 256 307.65 255.85 307.15 255.35 306.5 254.95 305.9 254.9 305.9 254.85 305.8
M 245.2 294.4
Q 245.25 294.5 245.25 294.55 245.45 294.95 245.55 295.4 246.3 297.55 247.25 300.2 247.35 300.4 247.35 300.55 248.2 303.05 249.25 305.95 249.3 306.15 249.4 306.35 249.4 306.45 249.45 306.5 249.65 307.1 250.5 310.15 250.55 310.5 250.7 310.85 251.05 312.3 251.6 314.15 251.6 314.4 251.7 314.6 252 315.8 252.35 317.1 252.65 318.2 252.95 319.2 253.3 318.15 253.7 316.85 253 315.15 252.25 312 250.75 305.4 250.55 304.75 248.7 299.25 247.8 296.55 247.6 295.95 247.4 295.4
L 247.4 295.35
Q 247.35 295.25 247.2 295.1 246.9 294.6 246.55 294.2 245.1 292.15 243.75 290.35 244.45 292.25 245.2 294.4
M 244.8 287.05
Q 244.55 285.65 244.3 284.2 243.45 284.35 242.65 284.5 243.75 285.75 244.8 287.05
M 249.65 283.25
Q 248.65 283.4 247.75 283.55 248.35 288.6 249.05 291.5 249.15 292.05 249.3 292.6 249.7 293.1 250.05 293.55 250.4 294 250.75 294.5 252.1 296.25 253.35 298 252.9 296.2 252.5 294.7 251.1 289.4 249.65 283.25
M 251.6 282.9
Q 250.95 283 250.45 283.15 251.1 286.25 252.25 290.7 253.05 294 253.85 297.2 254 297.8 254.2 299.15 255.8 301.4 257.35 303.75 257.55 302.9 257.75 302.05 257.25 299.65 256.5 296 254.95 288.45 253.55 282.55 252.6 282.7 251.6 282.9
M 247.1 283.75
Q 245.85 283.95 244.8 284.1 244.9 284.9 245.15 286 245.35 287.05 245.45 287.8 245.75 288.15 246.05 288.5 246.3 288.8 246.55 289.1 247.75 290.6 248.9 292.05 248.7 291.2 248.5 290.25 247.6 286.2 247.1 283.75
M 260.05 281.3
Q 258.9 281.55 257.6 281.8 258.2 285 259.25 289.8 259.65 291.95 259.95 293.4 260 293.2 260.1 293 260.25 292.35 260.35 291.8 260.95 289.55 261.35 287.65 260.6 283.7 260.05 281.3
M 260.55 281.25
Q 260.8 282.6 261.15 284.6 261.35 286.15 261.55 287.05 261.6 286.7 261.7 286.35 261.8 286.1 261.85 285.85 262.6 282.75 263.05 280.75 261.95 281 260.55 281.25
M 257 281.9
Q 255.75 282.1 254.35 282.4 255.45 289.3 256.65 294.5 257.25 297.15 258.15 300.7 258.45 299.5 258.75 298.25 258.8 298.05 258.85 297.85 259 297.4 259.1 296.85 259.3 296.05 259.5 295.25 259.2 293.7 258.8 291.25 258 286.3 257 281.9 Z"/>

<path fill="#C4C4C4" stroke="none" d="
M 247.5 257
L 248.3 256 262.2 263.95 269.9 284.6 269.9 284.65 274.45 283.45 265.85 263.25 247.5 251.7 233.2 269.2 228.65 295.35 235.15 293.65 235.45 291.2 235.6 290.25 236.5 282.65 236.65 281.55 236.95 279.55 237.05 278.4 237.4 275.5 237.95 271.5 238 270.6 238.3 268.25 239.35 267 239.7 266.6 241.4 264.45 241.95 263.8 244.2 261.05 245 260.05 247.5 257 Z"/>

<path fill="#F7F7F7" stroke="none" d="
M 245.65 252.8
L 245.2 253.05 224.85 265.15 216.75 278.65 233.2 269.2 247.5 251.7 245.65 252.8 Z"/>

<path fill="#000000" stroke="none" d="
M 244.05 244.15
Q 244.05 243.15 243.6 242.6 243.35 242.3 242.4 241.7 242.4 241.65 242.3 241.65 242.45 241.45 243.1 241.05 242.8 241.1 242.2 241.15 241.75 241.2 241.75 241.7 241.75 242.15 242 242.65 242.3 243.3 242.4 243.5 242.2 243.4 241.95 243.4
L 241.95 243.45
Q 241.05 243 240.3 243 240.1 243 239.55 243.35 239.05 243.65 238.85 243.85 238.7 244.1 238.65 244.6 238.55 244.95 238.55 245.1
L 238.6 245.6
Q 238.65 245.35 239 244.9 239.55 244.05 239.95 244 239.85 244.05 239.7 244.4 239.6 244.8 239.6 245.15 239.6 245.55 239.75 245.95 239.9 246.45 240.1 246.75 240.1 246.6 240.25 245.95 240.35 245.3 240.45 244.95 240.5 244.95 240.55 244.95 240.35 245.45 240.9 246 241.4 246.6 242 246.6 242.35 246.6 242.65 246.5 242.9 247.05 243.1 247.6 241.85 248.25 240.35 249.05 239.7 248.65 239.3 248.4 239.05 248.5 238.7 248.75 238.15 249 237.9 249.15 238.2 249.25 238.65 249.35 238.85 249.45 239.05 249.6 239.05 249.8 239.05 250.1
L 239 251.35
Q 239.2 251.25 239.85 250.9 240.05 250.8 240.2 250.7 240.2 250.15 240.25 249.75 241.3 249.15 243.35 248.1 243.75 249.25 244.2 250.45 244.6 251.5 245.2 253.05
L 245.65 252.8
Q 245.2 251.7 244.8 250.65 244.2 249.25 243.7 247.9 244.3 247.65 244.95 247.25 247.35 246 248.35 245.4 248.45 245.75 248.5 246.1 248.55 245.95 248.6 245.8 248.95 245.25 249.45 244.85 249.05 244.85 248.6 244.75 248.5 244.7 248.35 244.7 248 244.6 247.75 244.5 248 244.8 248.1 245 246.8 245.7 243.5 247.4 243.25 246.8 243.05 246.25 243.3 246.1 243.5 245.85 244.05 245.1 244.05 244.15 Z"/>
</g>

<g id="Layer4_0_FILL">
<path fill="url(#Gradient_5)" stroke="none" d="
M 290.3 426.1
Q 297.2712890625 421.7697265625 304.7 418.05 322.55 409.1 341 404.55 340 402.45 339.1 400.4 332.75 387.15 325.05 376 316.95 377.9 306.85 381.95 289.1 389.05 271.3 400.4 265.25 404.25 259.25 408.65 247.940625 416.8201171875 237.55 426.1
L 290.3 426.1
M 315.5 363.6
Q 315.2 363.25 314.95 363 306.05 352.7 296 345.15 279.85 349.15 262.1 357.2 234 369.95 209.05 389.9 202.7 395 196.7 400.4 191.5439453125 405.071484375 186.65 410 179.026171875 417.734375 172.05 426.1
L 203.95 426.1
Q 218.080078125 411.9724609375 234.35 400.4 238.65 397.35 243.1 394.5 276.05 373.15 315.5 363.6
M 262.5 328.4
Q 257.7 327.1 252.85 326.3 203.3 343.65 171.4 368.95 165.0865234375 373.932421875 159.2 379.4 148.7236328125 389.1314453125 139.6 400.4 139.2 400.9 138.8 401.4 129.5408203125 412.95 121.7 426.1
L 130.2 426.1
Q 137.8244140625 415.6984375 146.55 405.95 149.05 403.15 151.65 400.4 156.5 395.35 161.65 390.4 164.0078125 388.148828125 166.4 385.95 207.952734375 348.0634765625 262.5 328.4
M 218.3 352.8
Q 193.0953125 368.145703125 170.2 389.75 166.3958984375 393.3755859375 162.65 397.15 161.05 398.75 159.45 400.4 155.25 404.75 151.35 409.1 143.762109375 417.575390625 137.25 426.1
L 154.6 426.1
Q 158.2708984375 421.60859375 162.15 417.25 169.85 408.55 178.45 400.4 178.75546875 400.113671875 179.05 399.8 185.980859375 393.3763671875 193.45 387.2 219.2 366.05 248.1 352.05 267.25 342.8 285.05 337.95 280.25 335.15 275.2 332.95 272 331.6 268.8 330.45 244.35 336.95 218.3 352.8
M 240.1 325.2
Q 203.7 335.8 169.8 361.35 161.18203125 367.85234375 153.5 374.75 141.3888671875 385.7087890625 131.6 397.7 130.55 398.95 129.55 400.2 129.45 400.35 129.4 400.4 121.044140625 413.054296875 116.8 426.05 117.5064453125 426.090234375 118.2 426.1 125.3828125 412.639453125 135.15 400.4 135.4 400.05 135.7 399.75 145.0779296875 388.0359375 156.85 377.45 162.9802734375 371.946875 169.75 366.75 203 341.15 247.65 325.65 243.9 325.2 240.1 325.2
M 151.15 373.55
Q 151.315234375 373.3990234375 151.45 373.25 165.296484375 360.673828125 181.7 350.15 206.65 334.1 233.1 325.65 230.55 325.9 227.4 326.4 208.9 331.6 191.15 341.55 180.9 347.35 171.6 354.55 163.3 360.95 156 368.4 153.7001953125 370.7935546875 151.45 373.2 151.297265625 373.390625 151.15 373.55
M 400.2 395.95
Q 383.653125 374.3244140625 366 359.4 356.76484375 351.5802734375 347.2 345.6 330.65 335.25 310.95 328.9 296.95 324.35 278.35 321.05 273.65 320.75 268.95 320.75 317.50390625 326.6482421875 361.2 365.95 363.8107421875 368.2873046875 366.4 370.75 380.75 384.45 393.45 400.4 401.5875 410.7265625 408.95 421.95 409.328515625 422.5283203125 409.7 423.1 409.5517578125 422.421875 409.4 421.75 406.8263671875 410.5845703125 402.3 400.4 401.3 398.15 400.2 395.95
M 362.4 383.25
Q 358.85234375 379.0748046875 355.2 375.15 335.4564453125 353.8677734375 313.4 340.6 285.75 323.9 256.5 321.2 251 321.6 245.6 322.45 262.2 322.65 278.3 328.2 286.7 331.15 295.05 335.5 297.3 336.7 299.55 337.95 303.45 340.25 307.35 342.85 325.95 355.2 342.35 374.4 344.95 377.5 347.55 380.7 348.8919921875 382.3998046875 350.2 384.1 356.2041015625 392.025 361.5 400.4 361.65 400.6 361.75 400.8 369.3953125 412.89609375 375.65 426.1
L 388.75 426.1
Q 390.501953125 426.1 392.2 426 384.5701171875 412.5939453125 375.85 400.4 369.4 391.5 362.4 383.25 Z"/>

<path fill="url(#Gradient_6)" stroke="none" d="
M 366 359.4
Q 383.653125 374.3244140625 400.2 395.95 390.95 377.15 375 362 371.847265625 359.022265625 368.55 356.25 340.0966796875 332.1603515625 303 324.4 290.55 321.8 278.35 321.05 296.95 324.35 310.95 328.9 330.65 335.25 347.2 345.6 356.76484375 351.5802734375 366 359.4
M 350.2 384.1
Q 348.8919921875 382.3998046875 347.55 380.7 344.95 377.5 342.35 374.4 325.95 355.2 307.35 342.85 303.45 340.25 299.55 337.95 297.3 336.7 295.05 335.5 286.7 331.15 278.3 328.2 262.2 322.65 245.6 322.45 236.4 323.85 227.4 326.4 230.55 325.9 233.1 325.65 206.65 334.1 181.7 350.15 165.296484375 360.673828125 151.45 373.25 151.315234375 373.3990234375 151.15 373.55 143.7 381.55 136.85 390.15 133.9 393.85 131.35 397.55 130.4 398.85 129.55 400.2 130.55 398.95 131.6 397.7 141.3888671875 385.7087890625 153.5 374.75 161.18203125 367.85234375 169.8 361.35 203.7 335.8 240.1 325.2 243.9 325.2 247.65 325.65 203 341.15 169.75 366.75 162.9802734375 371.946875 156.85 377.45 145.0779296875 388.0359375 135.7 399.75 135.4 400.05 135.15 400.4 125.3828125 412.639453125 118.2 426.1 118.604296875 426.1 119 426.1
L 121.7 426.1
Q 129.5408203125 412.95 138.8 401.4 139.2 400.9 139.6 400.4 148.7236328125 389.1314453125 159.2 379.4 165.0865234375 373.932421875 171.4 368.95 203.3 343.65 252.85 326.3 257.7 327.1 262.5 328.4 207.952734375 348.0634765625 166.4 385.95 164.0078125 388.148828125 161.65 390.4 156.5 395.35 151.65 400.4 149.05 403.15 146.55 405.95 137.8244140625 415.6984375 130.2 426.1
L 137.25 426.1
Q 143.762109375 417.575390625 151.35 409.1 155.25 404.75 159.45 400.4 161.05 398.75 162.65 397.15 166.3958984375 393.3755859375 170.2 389.75 193.0953125 368.145703125 218.3 352.8 244.35 336.95 268.8 330.45 272 331.6 275.2 332.95 280.25 335.15 285.05 337.95 267.25 342.8 248.1 352.05 219.2 366.05 193.45 387.2 185.980859375 393.3763671875 179.05 399.8 178.75546875 400.113671875 178.45 400.4 169.85 408.55 162.15 417.25 158.2708984375 421.60859375 154.6 426.1
L 172.05 426.1
Q 179.026171875 417.734375 186.65 410 191.5439453125 405.071484375 196.7 400.4 202.7 395 209.05 389.9 234 369.95 262.1 357.2 279.85 349.15 296 345.15 306.05 352.7 314.95 363 315.2 363.25 315.5 363.6 276.05 373.15 243.1 394.5 238.65 397.35 234.35 400.4 218.080078125 411.9724609375 203.95 426.1
L 237.55 426.1
Q 247.940625 416.8201171875 259.25 408.65 265.25 404.25 271.3 400.4 289.1 389.05 306.85 381.95 316.95 377.9 325.05 376 332.75 387.15 339.1 400.4 340 402.45 341 404.55 322.55 409.1 304.7 418.05 297.2712890625 421.7697265625 290.3 426.1
L 375.65 426.1
Q 369.3953125 412.89609375 361.75 400.8 361.65 400.6 361.5 400.4 356.2041015625 392.025 350.2 384.1
M 355.2 375.15
Q 358.85234375 379.0748046875 362.4 383.25 369.4 391.5 375.85 400.4 384.5701171875 412.5939453125 392.2 426 401.18671875 425.441015625 408.95 421.95 401.5875 410.7265625 393.45 400.4 380.75 384.45 366.4 370.75 363.8107421875 368.2873046875 361.2 365.95 317.50390625 326.6482421875 268.95 320.75 262.65 320.7 256.5 321.2 285.75 323.9 313.4 340.6 335.4564453125 353.8677734375 355.2 375.15 Z"/>
</g>

<g id="Layer3_0_FILL">
<path fill="#FFFFFF" stroke="none" d="
M 326.9 413.6
Q 326.2 413.6 325.55 413.85 324.3 414.35 324.3 415.35 324.3 416.35 324.45 416.35
L 324.65 416.4
Q 326.1 416.4 326.9 416.1 327.05 415.9 327.15 415.8 327.25 415.6 327.25 414.65 327.25 413.6 327.05 413.5
L 326.9 413.6
M 362.2 414.45
Q 360.15 414.5 359.3 415.25 358.9 415.5 358.4 416.55 359.1 417.65 359.2 417.75 359.75 418.35 360.65 418.35 361.65 418.35 361.85 418.1 362.15 417.85 362.2 417.85
L 362.5 416.4 362.2 414.45
M 379.1 419.65
Q 377.15 419.1 376.35 419.8 375.9 420.3 375.9 421.5 375.9 421.9 377.65 423.6 378.05 423.5 378.6 423.25 378.95 423.05 379.1 423.05
L 379.45 421.6 379.1 419.65
M 392.4 412.45
Q 391 412.2 390.3 412.35 389.25 412.65 389.25 413.8 389.25 414.8 389.35 414.9 389.45 414.95 389.7 415.1
L 389.8 415.3
Q 390.1 415.45 391.1 415.45 392.2 415.45 392.55 415.1 392.7 414.85 392.9 413.9
L 392.6 413.15
Q 392.4 412.75 392.4 412.45
M 139.9 402.35
Q 139.3 402.35 139.1 402.5 138.8 402.65 138.8 403.7 138.8 404.75 139.05 405 139.2 405.15 139.9 405.3 140.55 405.15 140.7 405
L 141.05 403.85
Q 141.05 403.6 140.8 403.15 140.45 402.55 139.9 402.35
M 163.45 410.65
Q 163.1 410.1 162.1 410.35 162.1 411.3 162.4 411.8
L 163.3 411.65 163.45 410.65
M 182.4 415.75
Q 182.85 415.65 183.1 415.4 183.2 415.3 183.55 414.8
L 183.2 413.75
Q 182.75 413.55 182.1 413.55 181.5 413.6 181.35 413.6
L 181.25 413.55
Q 181.2 413.7 181.2 414.7 181.2 415.7 181.5 415.7 181.7 415.75 182.4 415.75
M 189.7 419.5
Q 189.15 419.35 188.3 419.75 187.55 420.1 187.45 420.45 187.7 421.25 188.9 421.75 189.9 421.35 190.2 420.45
L 189.7 419.5
M 202.3 399.75
Q 201.9 399.15 201.2 398.95 201 398.95 200.3 398.95 200.3 399.9 200.8 400.4 202 400.2 202.3 399.75
M 213.75 418.7
Q 214.95 418.25 215.35 417.05 214 415.45 213.15 415.7 212.5 415.95 212.3 417.4 212.6 418.3 213.75 418.7
M 215.2 400.7
Q 214.85 400.5 214.5 400.4 214.35 400.4 214.15 400.4 213.65 400.4 213.55 400.4 213.6 401.2 214.4 401.5 215.05 401.2 215.2 400.7
M 251.95 412.6
Q 251.95 413.4 252.4 414.1 252.95 415.1 254.2 415.45 255.2 415.05 256 414.1 256.65 413.25 256.65 412.6 256.65 410.15 254.3 410.7 251.95 411.25 251.95 412.6
M 244.1 420.6
Q 243.95 420.4 243.95 420.3 242.2 419.7 240.95 420.55 239.9 421.3 239.9 422.55 239.9 422.75 240.25 423.1 240.4 423.25 241.8 424.45 242.7 423.95 243.55 422.95 244.25 422.05 244.25 421.75 244.25 420.8 244.1 420.6
M 259.15 398.45
Q 258.75 397.85 258 397.65 257.8 397.65 257.1 397.65 257.1 398.6 257.6 399.1 258.8 398.95 259.15 398.45
M 303.5 422.9
Q 302.7 422.9 302.2 423.35 302.2 424.85 303.2 425.25 304 424.9 304.15 424.45 304.15 423.55 303.5 422.9
M 291.6 406.45
Q 289.6 405.75 288.75 406.75 288.2 407.3 288.2 408.25 288.2 408.4 288.55 408.7 288.85 408.95 290.15 410 290.95 409.85 291.75 409.35 291.85 409.5 291.95 409.35 292.1 409.15 292.1 408.15 292.1 407.2 291.85 406.9 291.6 406.6 291.6 406.45
M 311.7 390.25
Q 311 390.3 310.7 390.45 310.25 390.65 310.25 391.65 310.25 392.7 310.6 392.9 310.85 393.05 311.7 393.2
L 312.65 392.85 313.15 391.55
Q 312.5 390.6 311.7 390.25
M 295 388.65
Q 294 388.1 293.6 388.1 293.25 388.3 293.05 388.3 293.05 389.05 293.55 389.8 294.3 389.65 294.65 389.35 294.85 389.15 295 388.65
M 292.9 355.45
Q 292.15 355.65 291.95 355.8 291.35 356.05 290.8 356.9 291.3 357.5 292.1 357.8 293.05 357.4 293.4 356.45
L 292.9 355.45
M 321.5 367.6
Q 322.15 367.3 322.3 366.8 321.7 366.4 320.65 366.4 320.65 367.3 321.5 367.6
M 281.5 389.75
Q 281 390.3 281 391.25 281 391.4 281.35 391.7 281.6 391.95 282.95 393 283.75 392.85 284.55 392.35 284.9 392.8 284.9 391.15 284.9 390.25 284.65 389.9 284.4 389.6 284.4 389.45 282.35 388.75 281.5 389.75
M 271.7 378.85
L 271.35 377.9
Q 270.9 377.7 270.3 377.7 269.75 377.7 269.6 377.7
L 269.5 377.65
Q 269.45 377.75 269.45 378.75 269.45 379.75 269.7 379.8 269.85 379.8 270.55 379.8 271 379.7 271.25 379.45 271.35 379.35 271.7 378.85
M 249.05 370.7
Q 247.1 370.45 246.5 371 246.7 371.55 246.9 371.95 247.35 372.5 248.3 373.25 249.05 373.1 249.2 372.95
L 249.5 372.15 249.25 371.4
Q 249.05 370.95 249.05 370.7
M 259 354.8
Q 258.4 354.5 257.9 354.55 257.4 354.55 257.1 354.8 257.1 355.6 257.75 356.25 258.5 356.25 259.15 355.3
L 259 354.8
M 282.7 368.35
Q 281.75 367.55 281.65 367.45 281.65 367.5 280.9 367.7 280.2 368 280.2 369 280.2 369.3 282.3 371 283.1 370.7 283.75 369.7 283.6 369.2 282.7 368.35
M 272.65 356.6
Q 273.8 356.45 274.1 355.95 273.7 355.35 273.05 355.15 272.85 355.15 272.2 355.15 272.2 356.1 272.65 356.6
M 274.1 338.7
Q 273.45 338.7 272.8 339.1 272.2 339.45 272.2 339.85 272.65 340.3 273.8 340.5 274.45 340.15 274.75 339.65 274.7 339.4 274.4 339
L 274.1 338.7
M 303.85 338.2
Q 302.35 337.2 301.75 337.8 301.75 338.4 302.05 338.85 303.5 338.7 303.85 338.2
M 321 333.45
Q 320.45 333.1 319.95 333.1 319.45 333.1 319.35 333.1
L 319.35 333.9
Q 319.85 334.4 320.35 334.4 320.85 333.9 321 333.45
M 231.8 386.1
Q 231 386.2 230.75 386.2 230.65 386.55 230.45 386.7 230.4 386.75 230.4 387.7 230.4 388.7 230.55 388.85 230.65 388.95 231.05 389.15
L 231.1 389.3
Q 231.35 389.45 232.35 389.45 233.35 389.45 233.8 389 234.15 388.4 234.3 388.15 234.3 387.9 234.05 387.2 233.8 386.45 233.8 386.2 232.7 386 231.8 386.1
M 216.3 365.4
Q 215.65 365.45 215.35 365.6 214.85 365.85 214.85 366.85 214.85 367.9 215.25 368.15 215.45 368.3 216.3 368.4
L 217.3 368.1 217.8 366.8
Q 217.2 365.8 216.3 365.4
M 209.3 351.75
Q 208.2 351.25 207 351.25
L 207 352.05
Q 207.35 352.55 208.45 352.7 209.05 352.55 209.3 351.75
M 231.55 354.65
Q 232.7 354.5 233 354 232.6 353.4 231.9 353.25 231.75 353.2 231.05 353.2 231.05 354.15 231.55 354.65
M 187.45 386.6
Q 187.45 384.1 185 384.05 182.55 384.05 182.55 386.7 182.55 387.55 182.75 387.9 183.25 388.95 185 388.95 185.95 388.95 186.65 388.35 187.45 387.7 187.45 386.6
M 171.9 393.35
Q 171.15 393.4 170.85 393.55 170.25 393.8 170.25 394.8 170.25 396.4 170.45 395.85 170.9 396.35 171.9 396.65 172.7 395.95 173.2 395.3 173.6 394.8 173.6 394.65 173 393.75 171.9 393.35
M 171.25 368.9
Q 171.25 369 170.6 369 169.95 369.2 169.95 370.2 169.95 370.3 170.3 370.65 171.3 371.4 171.9 371.95 172.75 371.65 173.1 370.7 171.8 369.4 171.25 368.9
M 183.7 370.85
Q 184.35 370.5 184.5 370.05 184 369.7 183.45 369.7 182.95 369.7 182.9 369.7 182.9 370.5 183.7 370.85
M 198.35 344.85
Q 197.95 344.25 197.25 344.1 197.1 344.05 196.4 344.05 196.4 345 196.9 345.5 198.05 345.35 198.35 344.85
M 240.7 341.3
Q 240.15 340.95 239.65 340.95 239.15 340.95 239.05 340.95 239.05 341.8 239.9 342.1 240.55 341.8 240.7 341.3
M 230.75 333.1
Q 230.15 333.15 229.9 333.3 229.6 333.45 229.6 334.5 229.6 335.55 229.9 335.75 230.05 335.9 230.75 336.05 231.4 335.85 231.55 335.7
L 231.85 334.65
Q 231.85 334.35 231.6 333.9 231.25 333.3 230.75 333.1
M 239.55 329.9
Q 239.1 329.25 238.4 329.1 238.2 329.05 237.55 329.05 237.55 330.05 238 330.55 239.25 330.35 239.55 329.9
M 154.65 381.1
Q 153.65 381.1 153.25 381.3 152.45 381.6 152.45 382.65 152.45 383.65 152.6 383.65 152.7 383.65 152.8 383.4
L 153.65 383.7
Q 154.35 383.45 154.7 383.15 155.05 382.8 155.3 382.1 155.2 381.8 154.9 381.45
L 154.65 381.1
M 390.95 394.15
Q 389.5 393.2 388.45 393.2 387.3 393.1 387.3 394.25 387.3 395.2 387.55 395.55
L 387.8 395.85
Q 389.4 395.85 390.6 395.55
L 390.95 394.15
M 369.95 388.8
Q 369.25 389 369 389.15 368.45 389.4 367.85 390.25 368.35 390.75 369.15 391.1 370.15 390.65 370.45 389.8
L 369.95 388.8
M 378 371.15
L 377.9 371.1
Q 377.8 371.2 377.8 372.2 377.8 373.2 378 373.25
L 378.15 373.25
Q 379.6 373.25 380.25 373.1
L 380.75 372.3 380.4 371.3
Q 379.5 371.1 378.8 371.1 378.15 371.15 378 371.15
M 353.7 394
Q 350.2 392.9 350.2 395.85 350.2 396 350.6 396.35 350.85 396.6 352.15 397.65 353.05 397.45 353.85 397 354.2 397.4 354.2 395.75 354.2 394.85 353.95 394.5 353.7 394.1 353.7 394
M 363.8 374.9
Q 361.95 374.55 360.65 374.9
L 360.6 374.8
Q 360.5 374.95 360.5 375.95 360.5 376.9 360.75 377.25
L 361 377.55
Q 362.7 377.55 363.8 377.25
L 364.15 375.85
Q 363.95 375.55 363.85 375.2
L 363.8 374.9
M 337.85 380.45
Q 337.15 380.5 336.85 380.65 336.35 380.85 336.35 381.85 336.35 382.9 336.75 383.1 337 383.25 337.85 383.4
L 338.8 383.05 339.3 381.75
Q 338.65 380.8 337.85 380.45
M 359.75 361.85
Q 359.3 361.85 359.2 361.85 359.2 362.65 360 363 360.65 362.65 360.8 362.2 360.3 361.85 359.75 361.85
M 347.15 368.1
Q 345.85 368.1 345.2 368.75 345.15 368.85 344.55 369.85 344.85 370.35 345.7 370.7 347.1 370.1 347.45 369.05
L 347.15 368.1
M 346 344.7
Q 346.5 344.2 346.5 343.25 345.95 342.9 345.45 342.9 344.95 342.9 344.85 342.9 344.85 344.2 345.2 344.7
L 346 344.7
M 328.2 345.2
Q 327.55 344.2 326.75 343.9 326.05 343.9 325.75 344.05 325.3 344.25 325.3 345.25 325.3 346.3 325.65 346.5 325.9 346.65 326.75 346.8
L 327.7 346.45 328.2 345.2 Z"/>
</g>

<g id="Layer0_0_FILL">
<path fill="#FFFFFF" stroke="none" d="
M 358.45 184.3
Q 353.85 184.3 351.6 194.85 350.25 201.3 350.25 206.55 349.65 206.55 347 204.55 344.45 202.5 342.65 202.5 337.75 202.5 335.95 213 335.85 213.15 335.85 213.45 348.15 212.3 361.3 211.8 367.75 211.6 382.25 211.4 392.05 211.3 395.45 210.9 400.1 210.3 400.1 208.6 400.55 197.7 399.1 187 396.05 165.5 386.1 165.5 379 165.5 375 180 373.35 185.9 372.55 192.95 371.9 199.6 372.2 205.05 368.7 197.1 366.25 192.6 361.8 184.3 358.45 184.3
M 116.25 254.35
Q 111.3 259.35 110.8 271.65 110.1 286.65 112.4 292 113.55 294.65 115.55 295.85 117.4 296.85 120.5 297 120.55 297 150.25 296.75 161.75 296.65 170.25 296.55 170.2 296.3 170.1 296 169.45 292.75 168.7 290.75 166.4 284.25 162.45 284.1 159.3 284 157.45 286.85 157.05 287.45 156.3 289.05 155.65 290.25 155.25 290.65
L 154.95 290.25
Q 154.7 289.4 154.3 287.1 153.9 284.9 153.55 283.8 152.45 280.15 150 280.05 147.35 280 144.65 283.6 143.85 284.7 143.25 285.8 143.25 285.5 143.3 285.15 143.45 281.35 142.75 276.2 141.95 270 140.2 264.9 135.55 251.05 126.6 250.75 120 250.55 116.25 254.35 Z"/>
</g>
</defs>

<g transform="matrix( 1, 0, 0, 1, 0,0) ">
<use xlink:href="#Layer10_0_FILL"/>
</g>

<g transform="matrix( 1, 0, 0, 1, 0,0) ">
<use xlink:href="#Layer9_0_FILL"/>
</g>

<g transform="matrix( 1, 0, 0, 1, 0,0) ">
<use xlink:href="#Layer8_0_FILL"/>
</g>

<g transform="matrix( -2.17974853515625, 1.35992431640625, 0.8937530517578125, 3.307647705078125, 275.05,161.2) ">
<g transform="matrix( 1, 0, 0, 1, 0,0) ">
<use xlink:href="#S_mbolo_3_0_Layer0_0_FILL"/>
</g>
</g>

<g transform="matrix( -2.2352142333984375, 1.823150634765625, 1.823150634765625, 2.2352142333984375, 225.2,117) ">
<g transform="matrix( 1, 0, 0, 1, 0,0) ">
<use xlink:href="#S_mbolo_2_0_Layer0_0_FILL"/>
</g>
</g>

<g transform="matrix( 1, 0, 0, 1, 0,0) ">
<use xlink:href="#Layer7_0_FILL"/>
</g>

<g transform="matrix( 1, 0, 0, 1, 0,0) ">
<use xlink:href="#Layer6_0_FILL"/>
</g>

<g transform="matrix( 1, 0, 0, 1, 0,0) ">
<use xlink:href="#Layer5_0_FILL"/>
</g>

<g transform="matrix( 1, 0, 0, 1, 0,0) ">
<use xlink:href="#Layer4_0_FILL"/>
</g>

<g transform="matrix( 1, 0, 0, 1, 0,0) ">
<use xlink:href="#Layer3_0_FILL"/>
</g>

<g transform="matrix( 1, 0, 0, 1, 0,0) ">
<use xlink:href="#Layer0_0_FILL"/>
</g>
</svg>
