
<svg xmlns="http://www.w3.org/2000/svg" version="1.1" xmlns:xlink="http://www.w3.org/1999/xlink" preserveAspectRatio="none" x="0px" y="0px" width="550px" height="400px" viewBox="0 0 550 400">
<defs>
<linearGradient id="Gradient_1" gradientUnits="userSpaceOnUse" x1="267.27500000000003" y1="411.075" x2="282.425" y2="306.925" spreadMethod="pad">
<stop  offset="0%" stop-color="#191225"/>

<stop  offset="100%" stop-color="#230B18"/>
</linearGradient>

<radialGradient id="Gradient_2" gradientUnits="userSpaceOnUse" cx="0" cy="0" r="593.8625000000002" fx="0" fy="0" gradientTransform="matrix( 0.9999999999999997, 0, 0, 0.9999999999999997, 312.05,256.2) " spreadMethod="pad">
<stop  offset="0%" stop-color="#333366"/>

<stop  offset="100%" stop-color="#1C0000"/>
</radialGradient>

<linearGradient id="Gradient_3" gradientUnits="userSpaceOnUse" x1="74.6" y1="117" x2="74.6" y2="117" spreadMethod="pad">
<stop  offset="0%" stop-color="#191225"/>

<stop  offset="100%" stop-color="#230B18"/>
</linearGradient>

<linearGradient id="Gradient_4" gradientUnits="userSpaceOnUse" x1="267.27500000000003" y1="411.075" x2="282.425" y2="306.925" spreadMethod="pad">
<stop  offset="0%" stop-color="#331900"/>

<stop  offset="100%" stop-color="#231100"/>
</linearGradient>

<radialGradient id="Gradient_5" gradientUnits="userSpaceOnUse" cx="0" cy="0" r="44.7875" fx="0" fy="0" gradientTransform="matrix( 1, 0, 0, 0.4440413061680157, 29.15,23.45) " spreadMethod="pad">
<stop  offset="0%" stop-color="#FF9900"/>

<stop  offset="100%" stop-color="#990000"/>
</radialGradient>

<linearGradient id="Gradient_6" gradientUnits="userSpaceOnUse" x1="40.550000000000004" y1="14.175" x2="39.85" y2="27.325" spreadMethod="pad">
<stop  offset="0%" stop-color="#FFFFFF" stop-opacity="0.1568627450980392"/>

<stop  offset="98.82352941176471%" stop-color="#FFFFFF" stop-opacity="0.5882352941176471"/>
</linearGradient>

<g id="S_mbolo_2_0_Layer0_0_FILL">
<path fill="#100800" stroke="none" d="
M 394.3 439.05
Q 394.5 448.55 394.95 461.55 396.3 500.85 397.85 539.9 399.45 579.55 399 619.25 398.8 638.5 398.9 657.6
L 402.1 657.6
Q 401.1 626.6 401.5 595.55 401.95 556.15 399.85 517.25 397.7 477.9 394.3 439.05
M 33.7 204.1
Q 38.55 268.05 40.45 331.95 42.35 396.15 47.7 459 53.1 522.8 55.45 586.95 56.8 623.55 57.8 657.6
L 58.9 657.6
Q 58.85 603.8 55.9 549.8 52.5 486.9 48.1 424.05 43.65 360.85 41 297.25 38.4 233.8 35.5 170.35 32.35 186.3 33.7 204.1
M 146.15 258.85
Q 145.25 262.7 144.45 266.65 143.15 325.35 143 361 142.8 396.65 142.65 454.55 142.45 512.4 144.05 571.6 145.2 614.5 143.6 657.6
L 159.25 657.6
Q 157.6 626.85 156.45 596.25 154.35 538.1 154.55 479.7 154.8 421.4 157 363.2 158.95 311.9 151.75 266.35 151.15 262.35 150.45 258.4 149.6 253.65 148.65 249 147.3 253.85 146.15 258.85
M 23 0
Q 23.05 0.8 23.05 1.6 25.65 90.8 25.4 180.6 25.15 269.75 22.7 359.6 20.3 448.65 18.05 538.65 16.5 599.4 19.65 657.6
L 19.9 657.6
Q 19.65 573.6 22.5 489.6 25.55 400.2 26.9 311.8 28.25 222.15 27.2 132.8 26.45 66.35 25.3 0
L 23 0
M 70.4 0
L 44 0
Q 45.15 45.65 45.3 91.2 45.45 165.15 48.55 220.6 51.6 276 57.55 370.25 63.5 464.5 65.15 502.6 73.55 459.8 73.35 410.6 73 336.9 72.45 262.55 71.85 188.4 69.75 114.5 68.1 57.45 70.4 0
M 115.5 0
L 113.35 0
Q 113.15 47.25 112.05 94.5 111.9 100.5 111.75 106.55 111 134.65 109.95 162.75 108 215.05 105 267.35 104.8 270.15 104.65 273 102.75 305.05 100.45 337.1 94.2 425.1 83.3 512.45 74 587.2 81.35 657.6
L 81.55 657.6
Q 80.9 648 80.8 638.2 80.05 550.25 90.5 463.95 100.95 377.9 106.85 290.95 107.5 281.5 108.1 272 108.25 269.1 108.45 266.2 112.9 191.8 114 116.6 114.05 113.15 114.1 109.65 114.2 103.4 114.3 97.2 114.95 48.55 115.5 0
M 175.55 0
Q 175.35 9.2 175.45 18.6 176.15 95.35 183.35 170.95 183.95 177.2 184.6 183.5 184.7 184.2 184.75 184.9 188.6 221.85 191.3 258.95 191.65 263.8 192 268.65 195.05 313.15 196.45 357.9 196.65 364.7 196.85 371.55 196.85 372.9 196.9 374.25 199.15 468.7 203.75 562.7 206.05 610.1 206.35 657.6
L 207.5 657.6
Q 206.35 582.5 204.35 507.8 202.45 438.15 199.95 368.9 199.7 362.4 199.5 355.95 198.8 337 198.05 318.1 197.05 293.7 195.6 269.45 195.3 264.4 195 259.35 192.6 223.3 189.2 187.4 188.6 181.15 187.95 174.9 185.65 152.3 182.95 129.75 175.15 65.05 176.4 0
L 175.55 0
M 616.2 230.5
Q 615.9 194.1 611.75 275.9 607.55 357.7 607.25 452.8 606.95 547.85 603.15 637.45 602.7 647.5 602.3 657.6
L 611.3 657.6
Q 612.4 622.7 612.6 587.65 613.15 497.9 612.7 408.15 612.25 317.6 616.2 230.5
M 428.75 0
L 420.1 0
Q 419.5 52.65 419.9 105.25 420.1 136.6 420.35 167.95 420.55 198.6 420.75 229.25 421.15 284.4 420.75 339.05 420.75 339.5 420.75 340 420.7 346.6 420.65 353.25 420.65 353.65 420.65 354.1 420.45 388.4 424.85 502.3 431 391.6 430.5 373 430.25 364.2 430.05 355.45 429.9 349.95 429.8 344.45 429.65 338 429.5 331.55 429.45 329.35 429.45 327.2 429.4 326.15 429.4 325.15 429.3 322.15 429.25 319.25 429.25 318.95 429.25 318.7 428.6 282.95 428.35 247.15 428.05 202.65 427.4 158.3 427.1 139.8 426.75 121.3 425.65 60.6 428.75 0
M 441.35 0
L 439.25 0
Q 440.3 25.25 442.75 50.4 446.9 93.4 449.9 136.55 450.3 142.75 450.7 148.95 452.55 177.6 453.9 206.3 454.15 211.55 454.4 216.9 454.65 223.3 454.9 229.7 455.7 249.85 456.2 269.95 456.3 274.3 456.4 278.65 457.15 314.95 456.95 351.2 456.9 357.35 456.85 363.55 456.6 386.1 456 408.6 454.75 453.05 452 497.35 448.55 553.1 448.9 608.2 449.5 574.05 451.4 538.85 456.1 451.75 459.15 364.6 459.2 362.3 459.3 360.05 459.45 356.05 459.55 352.1 460.65 314.85 460.2 277.75 460.1 273.35 460.05 268.95 459.5 241.55 458.15 214.2 457.85 209.1 457.6 204 456.9 192.5 456.1 181 454.8 162.95 453.35 145 452.8 139 452.3 133 450.5 112.35 448.45 91.8 443.85 45.7 441.35 0
M 463.55 0
L 459.15 0
Q 458.2 60 460.55 119.9 460.75 126.3 461.05 132.65 461.9 151.5 463.05 170.3 463.95 184.85 464.8 199.4 465.05 204.2 465.35 209 467 238.1 468.55 267.15 468.8 271.45 469 275.8 471.15 316.7 473.05 357.6 473.1 358.9 473.15 360.2 473.45 366.4 473.75 372.65 477.7 460.75 480.65 548.55 482.5 603 483.1 657.6
L 485.6 657.6
Q 484.9 575.85 483.25 494.75 482.1 434.9 478.45 375.65 477.95 367.7 477.45 359.75 475.55 332.4 473.2 305.2 471.9 290.35 470.8 275.45 470.45 271.15 470.15 266.9 468 237.6 466.45 208.2 466.15 203.4 465.95 198.65 464.2 163.8 463.3 128.9 463.15 122.75 463 116.6 463 116.15 463 115.75 461.75 57.35 463.55 0
M 545.95 0
L 530.85 0
Q 532.15 71 529.7 141.65 529.55 145.4 529.45 149.1 529.3 153.65 529.15 158.25 527.55 210.05 527.25 262.05 527.2 266 527.2 270 527.05 303.85 527.5 337.8 528.8 435.95 528.7 534 528.65 597.45 532.55 657.6
L 547.7 657.6
Q 545.35 568.35 542.65 479.7 539.7 381.8 539.7 283.55 539.7 276.4 539.75 269.3 539.75 265.75 539.75 262.2 540.05 203.55 542.15 145.15 542.25 141.4 542.4 137.65 543.35 112.5 544.6 87.4 546.85 42.95 545.95 0
M 574.15 0
Q 574.8 5.3 575.55 10.75 587.65 100.55 588.3 192.05 588.55 232.75 587.35 273.25 587.25 275.45 587.2 277.7 585.7 325.1 582.1 372.2 575.2 463.05 571.25 554.75 569 606.55 572.6 657.6
L 575.75 657.6
Q 571.2 581.2 575.6 504.6 580.8 413.75 586.2 323.2 587.55 300.65 588.3 278.05 588.35 275.95 588.45 273.85 590.45 207.55 587.45 140.85 584.2 69.65 575.2 0
L 574.15 0 Z"/>

<path fill="url(#Gradient_1)" stroke="none" d="
M 184 384.7
Q 190.15 377.4 196.85 371.55 196.65 364.7 196.45 357.9 195.6 358.45 194.8 359.05 181.8 368 173.55 381.75 165.25 395.15 161.85 412.95 158.45 430.65 158.4 436.55 171.65 397.75 184 384.7
M 576.3 274.25
Q 581.7 275.75 587.2 277.7 587.25 275.45 587.35 273.25 572.6 265.1 557.15 263.45 548.35 262.5 539.75 262.2 539.75 265.75 539.75 269.3 558.8 268.9 576.3 274.25
M 603.75 284.1
Q 600.75 281.8 596.35 278.9 592.4 276.15 588.45 273.85 588.35 275.95 588.3 278.05 595.9 280.7 603.75 284.1
M 477.45 359.75
Q 477.95 367.7 478.45 375.65 492.7 385 501.6 394.45 513.4 407.3 524.1 418.05 525.1 418.9 525.95 420.1 523.65 416.3 519 405.3 514.3 394.25 502.95 380.3 492.7 367.8 477.45 359.75
M 473.15 360.2
Q 473.1 358.9 473.05 357.6 466.55 354.55 459.55 352.1 459.45 356.05 459.3 360.05 459.2 362.3 459.15 364.6 463.8 366.75 468.25 369.35 471.05 371 473.75 372.65 473.45 366.4 473.15 360.2
M 434.6 345.25
Q 432.2 344.75 429.8 344.45 429.9 349.95 430.05 355.45 444.25 358 456.85 363.55 456.9 357.35 456.95 351.2 446.35 347.6 434.6 345.25
M 469 275.8
Q 468.8 271.45 468.55 267.15 464.3 267.9 460.05 268.95 460.1 273.35 460.2 277.75 464.6 276.65 469 275.8
M 477.85 265.85
Q 474 266.25 470.15 266.9 470.45 271.15 470.8 275.45 483 273.1 495.05 272.25 511 271.05 527.2 270 527.2 266 527.25 262.05 522.45 262.1 517.7 262.4 497.95 263.4 477.85 265.85
M 429.05 161.6
Q 428.35 159.9 427.4 158.3 428.05 202.65 428.35 247.15 428.6 282.95 429.25 318.7 430.25 315.65 431.15 312.75 433.15 308.7 435.25 304.6 435.3 304.1 435.55 303.9 434 308.5 432.05 313.25 430.65 316.3 429.25 319.25 429.3 322.15 429.4 325.15 431.35 321.75 433.25 318.3 439.5 306.5 439.1 297.5 438.1 297.55 437.75 298.05 438.65 294.3 438.8 290.85 439.35 289.35 440.05 287.75 440.8 285.15 441.75 282.9 449.1 280.55 456.4 278.65 456.3 274.3 456.2 269.95 450.5 271.5 444.8 273.6 445.75 270.4 446.6 267.2 449.85 255.55 446.55 248 445.95 248.75 445.75 250.2 445.75 247.7 445.85 245.2 445.8 244.65 446.1 244.1 448.3 232.05 447.3 221.85 447.45 221.55 447.7 221.55 451.05 219.2 454.4 216.9 454.15 211.55 453.9 206.3 448.75 209.4 443.65 212.25 443.05 205.6 441.1 200.6 440.6 189 438.2 178.65 437.5 181.4 437.9 185.6 438.25 191.25 438.75 197.05 437.7 197.4 437.4 198.15 437.25 197.95 437.25 197.8 436.3 195.45 435.45 193.5 434.8 190.8 434.35 188.4 433.7 186.5 433.4 184.5 433.3 184.1 433.25 183.9 432.4 178 431.7 172.65 433.85 171 441.85 161.2 446.15 155.7 450.7 148.95 450.3 142.75 449.9 136.55 439.05 152.2 429.05 161.6
M 438.7 212.55
Q 438.6115234375 213.66875 438.8 214.8 438.65 214.65 438.5 214.95 438.35 214.75 438.55 214.65 438.596875 213.571875 438.7 212.55
M 442.8 238.1
Q 442.8 237.190234375 442.95 236.8 442.8669921875 237.033984375 443.1 237.5 442.45 242.8 441.75 247.85 441.55 247.65 441.7 247.65 442.25 243.05 442.8 238.1
M 443.6 228.8
Q 443.7 226.4 443.8 224 444.25 223.55 445.1 223.3 444.15 225.1 444.15 227.3 443.9 228.55 443.9 230.05 443.5 229.25 443.6 228.8
M 443.3 257.3
Q 442.3 266.15 440.15 275.35 439.85 275.25 439.75 275.5 440.45 271.15 441.1 266.8 442.2 261.2 443.5 256.1 443.4 256.6 443.3 257.3
M 456.2 127
Q 454.25 130.1 452.3 133 452.8 139 453.35 145 457.1 139.25 461.05 132.65 460.75 126.3 460.55 119.9 458.4 123.45 456.2 127
M 529.15 158.25
Q 529.3 153.65 529.45 149.1 527 151.2 524.55 153.3 505.5 169.3 485.2 184.9 475.55 192.2 465.95 198.65 466.15 203.4 466.45 208.2 475.2 201.8 483.75 195.25 502.55 180.55 520.8 165.7 524.95 162.2 529.15 158.25
M 542.4 137.65
Q 542.25 141.4 542.15 145.15 550.3 136.35 558.8 125.85 578.35 101.9 568.95 112.8 561.5 119.6 553.1 127.65 547.85 132.65 542.4 137.65
M 500.9 17.1
Q 501.3 22.3 495.95 40 490.45 57.4 480.5 80.95 472.9 98.5 463 115.75 463 116.15 463 116.6 463.15 122.75 463.3 128.9 467.45 121.8 471.85 113.85 488.1 84.25 496 58.3 503.6 32.55 500.3 11.6 500.25 11.85 500.9 17.1 Z"/>

<path fill="url(#Gradient_2)" stroke="none" d="
M 212.35 291.35
Q 210.6 287.3 212.35 286.75 216.1 294.6 219.4 302.85 218.95 301.35 218.8 300.25 218.65 299.75 218.55 299.75 214.05 289.65 211.75 279.2 210.9 275.6 210.2 272.25 203.95 271.2 195.6 269.45 197.05 293.7 198.05 318.1 198.8 337 199.5 355.95 213.05 347.45 230.9 342.75 228.9 339.75 227.3 337 225.05 333.1 224.9 331.25 223.95 329.15 223.05 327.2 220.85 322.65 218.8 318.35 217.5 315.65 218.45 315.1 221 321.25 224.4 327.4 227.5 333.35 231.35 339.55 232.3 340.85 233.2 342.1
L 233.45 342.05
Q 231.75 339.3 230.35 336.5 228 332.3 225.95 328.45 224.6 326.45 223.65 324.5 221.9 321.2 220.35 317.85 218.5 314.4 216.75 311.1 214.95 307.75 213.65 304.95 212.8 302.35 213.9 302.5 214.9 305.35 216.7 308.75 218 311.3 219.55 313.95 219.35 313.1 219.2 312.7 218.15 309.35 218.75 308 219 308.85 219.5 309.75 219.5 309.7 219.6 309.8 219.1 308.5 218.6 307.35 215.2 299.3 212.35 291.35
M 210.9 219.55
Q 210.7 214.8 212.7 213.45 213.15 218.15 213.8 223.25 214.1 221.55 214.75 221.05 214.75 230.65 215.5 240.75 215.5 242.6 215.7 244.6 215.85 243.2 215.95 242.2 216.15 241.4 216.15 240.8 216 239.85 216.05 239.25 216.05 226.95 216.05 214.95 215.85 211.1 216.15 207.6 202.75 198.85 189.2 187.4 192.6 223.3 195 259.35 201.45 260.1 208 261.2 207.3 257.7 208.45 257.1 208.9 259 209.3 261.4 210.25 261.6 211.35 261.8 211.05 260.5 210.9 259.55 208.6 248.25 209.7 237.3 209.9 233.55 211.6 232.4 211.1 225.9 210.9 219.55
M 151.75 266.35
Q 158.95 311.9 157 363.2 154.8 421.4 154.55 479.7 154.35 538.1 156.45 596.25 157.6 626.85 159.25 657.6
L 206.35 657.6
Q 206.05 610.1 203.75 562.7 199.15 468.7 196.9 374.25 196.85 372.9 196.85 371.55 190.15 377.4 184 384.7 171.65 397.75 158.4 436.55 158.45 430.65 161.85 412.95 165.25 395.15 173.55 381.75 181.8 368 194.8 359.05 195.6 358.45 196.45 357.9 195.05 313.15 192 268.65 181.8 266.4 162.05 266.25 156.85 266.2 151.75 266.35
M 108.1 272
Q 107.5 281.5 106.85 290.95 100.95 377.9 90.5 463.95 80.05 550.25 80.8 638.2 80.9 648 81.55 657.6
L 143.6 657.6
Q 145.2 614.5 144.05 571.6 142.45 512.4 142.65 454.55 142.8 396.65 143 361 143.15 325.35 144.45 266.65 132.95 267.3 122.15 269.05 114.85 270.15 108.1 272
M 23.05 1.6
Q 23.05 0.8 23 0
L 0 0 0 657.6 19.65 657.6
Q 16.5 599.4 18.05 538.65 20.3 448.65 22.7 359.6 25.15 269.75 25.4 180.6 25.65 90.8 23.05 1.6
M 104.35 96.2
Q 93.5 80.3 89.15 62.7 86.4 52.3 85.35 49 97.75 76.9 112.05 94.5 113.15 47.25 113.35 0
L 70.4 0
Q 68.1 57.45 69.75 114.5 71.85 188.4 72.45 262.55 73 336.9 73.35 410.6 73.55 459.8 65.15 502.6 63.5 464.5 57.55 370.25 51.6 276 48.55 220.6 45.45 165.15 45.3 91.2 45.15 45.65 44 0
L 25.3 0
Q 26.45 66.35 27.2 132.8 28.25 222.15 26.9 311.8 25.55 400.2 22.5 489.6 19.65 573.6 19.9 657.6
L 57.8 657.6
Q 56.8 623.55 55.45 586.95 53.1 522.8 47.7 459 42.35 396.15 40.45 331.95 38.55 268.05 33.7 204.1 32.35 186.3 35.5 170.35 38.4 233.8 41 297.25 43.65 360.85 48.1 424.05 52.5 486.9 55.9 549.8 58.85 603.8 58.9 657.6
L 81.35 657.6
Q 74 587.2 83.3 512.45 94.2 425.1 100.45 337.1 102.75 305.05 104.65 273 95.5 275.75 87.35 279.85 80.4 283.3 73.45 284.5 74.05 284 74.35 283.85 90.35 272.55 105 267.35 108 215.05 109.95 162.75 111 134.65 111.75 106.55 107.9 101.45 104.35 96.2
M 184.6 183.5
Q 175.6 175.6 166.5 166.55 146.05 146.5 128.25 126.65 120.8 118.35 114.1 109.65 114.05 113.15 114 116.6 112.9 191.8 108.45 266.2 110.85 265.45 113.25 264.85 128.95 260.75 146.15 258.85 147.3 253.85 148.65 249 149.6 253.65 150.45 258.4 151 258.35 151.55 258.3 164.3 256.9 178.1 257.9 184.7 258.25 191.3 258.95 188.6 221.85 184.75 184.9 184.7 184.2 184.6 183.5
M 175.45 18.6
Q 175.35 9.2 175.55 0
L 115.5 0
Q 114.95 48.55 114.3 97.2 128.35 113.8 143.65 131.7 159.6 150.1 178.6 166.8 181 168.9 183.35 170.95 176.15 95.35 175.45 18.6
M 181.9 0
L 176.4 0
Q 175.15 65.05 182.95 129.75 185.65 152.3 187.95 174.9 202.1 186.9 216.45 198.1 216.6 198.3 216.9 198.45 217.2 195.1 217.85 191.75 218.6 187.6 221.55 186.5 220.55 193.75 220.25 201.5 220.95 202.25 221.65 203.05 221.85 200.8 222.45 198.65 224.4 187.2 226.35 175.8 226.9 172.05 229.15 172.1 228.75 175.4 228.7 179.05 231.45 168.35 235.5 158.25 235.75 157 236.4 156.15 225.65 146.1 215.65 132.55 196.7 107.55 187.65 79.2 181.55 61.35 180.55 40.9 179.25 20.3 181.65 2.2 181.8 1 181.9 0
M 587.2 277.7
Q 581.7 275.75 576.3 274.25 558.8 268.9 539.75 269.3 539.7 276.4 539.7 283.55 539.7 381.8 542.65 479.7 545.35 568.35 547.7 657.6
L 572.6 657.6
Q 569 606.55 571.25 554.75 575.2 463.05 582.1 372.2 585.7 325.1 587.2 277.7
M 473.2 305.2
Q 475.55 332.4 477.45 359.75 492.7 367.8 502.95 380.3 514.3 394.25 519 405.3 523.65 416.3 525.95 420.1 525.1 418.9 524.1 418.05 513.4 407.3 501.6 394.45 492.7 385 478.45 375.65 482.1 434.9 483.25 494.75 484.9 575.85 485.6 657.6
L 532.55 657.6
Q 528.65 597.45 528.7 534 528.8 435.95 527.5 337.8 527.05 303.85 527.2 270 511 271.05 495.05 272.25 483 273.1 470.8 275.45 471.9 290.35 473.2 305.2
M 418.9 342.75
Q 419.8 341.35 420.75 340 420.75 339.5 420.75 339.05 419.85 340.85 418.9 342.75
M 435.25 304.6
Q 433.15 308.7 431.15 312.75 430.25 315.65 429.25 318.7 429.25 318.95 429.25 319.25 430.65 316.3 432.05 313.25 434 308.5 435.55 303.9 435.3 304.1 435.25 304.6
M 404.7 372.4
Q 404.1 372.95 403.7 373.65 399.4 378.5 394.95 383 397.25 381.1 399.5 379.2 404.75 374.55 409.75 369.45 412.75 365.95 416.1 363 416.3 362.3 417.15 362.35 413.75 367.95 408.65 373.2 403.7 377.9 398.7 382.1 393.65 386.2 388.4 389.35 388.3 389.3 388.2 389.45 386.45 391 384.9 392.65 386.2 391.75 387.65 391.2 392.15 388.75 396.45 385.4 401.1 381.3 405.85 376.3 406.55 375.3 407.25 374.95 407.55 374.45 408.25 374.25 407.05 379.55 401.75 384.65 396.7 389.2 391.1 392.55 387.3 394.7 383.65 396.8 380.4 398.45 377.15 399.85 376.35 400.15 375.55 400.45 373.6 401.35 371.75 402.35 371.85 402.95 372.2 403.3 375.35 402.05 378.65 400.55 379.1 400.3 379.75 400 380.1 399.65 380.8 399.4 380.95 399.2 381.4 399.2 381.5 398.85 381.9 398.9 382 398.9 382.1 398.85 380.9 400.3 379.3 401.7 377.7 403.05 375.85 403.9 374.25 404.4 373 405.05 378.3 417.4 371.5 435.85 368.5 443.75 361.4 449.1 357.05 452.2 352.7 454.75 352.6 455.35 352.85 455.95 353.25 462.4 351.25 469.15 348.9 475.4 345.25 481.05 345.1 481.2 344.95 481.45 341.35 486.35 337.75 489.85 337.4 490.15 337.25 490.35 336.75 490.7 336.3 491.15
L 336.15 491.3
Q 335.6 491.85 335 492.55 333.35 497.85 331.8 504.9 331.6 509.6 332.05 514.2 332.6 519.1 333.5 524 334.35 528.9 335.15 533.8 335.45 535.55 334.7 536.65 334.35 531.65 333.25 526.8 332.15 521.9 331.6 516.9 331.05 512.45 331.15 507.95 330.5 510.95 329.9 514.3 328.7 521.25 327.9 526.8 327.9 530.85 328.3 534.8 328.75 539.15 329.7 543.45 330.05 544.9 329.85 546.05 328.4 541.85 327.9 537.15 327.4 532.75 327.3 528.25 327.25 527.05 327.3 525.9 326.55 522.8 325.35 519.55 325.15 523.9 321.55 526.6 324.75 522.95 324.9 518.3
L 324.9 518.25
Q 323.4 514 321.2 509.35 320.25 507.15 319.2 505.1 318.85 505.6 318.45 506.15 315.05 511.3 313.85 514.1 313.85 514.15 313.85 514.2 313.65 517.5 314.65 520.6 316.05 524.65 320.05 526.6 320.5 526.85 321.15 526.9 320.95 527.05 320.8 527.15 320.05 527.65 319.25 527.05 313.6 522.75 313.5 516 313.45 514.2 313.5 512.45 313.35 511.55 313.05 510.6 313.1 515.9 313.1 521.2 313.05 527.15 313.35 533.05 313.6 538.95 315.45 544.6 316.05 546.4 316.3 547.95 313.7 542.65 313.1 536.4 312.6 530.4 312.55 524.4 312.55 518.45 312.55 512.4 312.55 510.35 312.35 508.4 311 504.45 308.85 499.55 303.85 488.4 297.6 482.35 297.65 482.45 297.7 482.55 297.45 482.25 297.2 481.95 296.8 481.55 296.4 481.2 296.6 481.35 296.85 481.5 293.25 477.15 290.75 471.05 287.9 464.35 286.75 457.8 285.6 451.75 287 447.3 287.4 445.75 288 444.4 280.7 437.75 274.45 429.55 271.35 425.45 269.5 421.45 268.7 420.35 268.2 419.35 255.95 399.6 269.8 391.05 266.5 387.9 263.9 384.9 263.45 384.45 263 384 262.15 383.1 261.65 382.55 258.2 380.45 254.85 378.5 252.85 377.1 251.2 376.15 247.9 374.15 245.1 371.8 241.65 369.05 240.7 365.65 240.65 365.35 241.15 365.8 243.75 368.85 246.85 370.8 251.05 373.55 255.75 376.35 252.8 373.25 250 370.45 245.45 365.75 241.1 361.55 236.45 356.9 232.55 352.05 220.2 355.2 210.6 361.3 205.15 364.7 199.95 368.9 202.45 438.15 204.35 507.8 206.35 582.5 207.5 657.6
L 398.9 657.6
Q 398.8 638.5 399 619.25 399.45 579.55 397.85 539.9 396.3 500.85 394.95 461.55 394.5 448.55 394.3 439.05 397.7 477.9 399.85 517.25 401.95 556.15 401.5 595.55 401.1 626.6 402.1 657.6
L 483.1 657.6
Q 482.5 603 480.65 548.55 477.7 460.75 473.75 372.65 471.05 371 468.25 369.35 463.8 366.75 459.15 364.6 456.1 451.75 451.4 538.85 449.5 574.05 448.9 608.2 448.55 553.1 452 497.35 454.75 453.05 456 408.6 456.6 386.1 456.85 363.55 444.25 358 430.05 355.45 430.25 364.2 430.5 373 431 391.6 424.85 502.3 420.45 388.4 420.65 354.1 420 354 419.4 353.95 417.45 356.95 414.95 360.3 414.25 361.05 413.55 362.05 411.7 366.4 407.05 370.35 405.7 371.4 404.7 372.4
M 469 275.8
Q 464.6 276.65 460.2 277.75 460.65 314.85 459.55 352.1 466.55 354.55 473.05 357.6 471.15 316.7 469 275.8
M 440.05 287.75
Q 439.35 289.35 438.8 290.85 438.65 294.3 437.75 298.05 438.1 297.55 439.1 297.5 439.5 306.5 433.25 318.3 431.35 321.75 429.4 325.15 429.4 326.15 429.45 327.2 430.3 325.7 431.15 324.2 431.35 323.65 432 323.8 431.2 327.55 429.5 331.55 429.65 338 429.8 344.45 432.2 344.75 434.6 345.25 446.35 347.6 456.95 351.2 457.15 314.95 456.4 278.65 449.1 280.55 441.75 282.9 440.8 285.15 440.05 287.75
M 465.35 209
Q 461.75 211.6 458.15 214.2 459.5 241.55 460.05 268.95 464.3 267.9 468.55 267.15 467 238.1 465.35 209
M 454.4 216.9
Q 451.05 219.2 447.7 221.55 447.45 221.55 447.3 221.85 448.3 232.05 446.1 244.1 445.8 244.65 445.85 245.2 445.75 247.7 445.75 250.2 445.95 248.75 446.55 248 449.85 255.55 446.6 267.2 445.75 270.4 444.8 273.6 450.5 271.5 456.2 269.95 455.7 249.85 454.9 229.7 454.65 223.3 454.4 216.9
M 441.85 161.2
Q 433.85 171 431.7 172.65 432.4 178 433.25 183.9 433.3 184.1 433.4 184.5 433.7 186.5 434.35 188.4 434.8 190.8 435.45 193.5 436.3 195.45 437.25 197.8 437.25 197.95 437.4 198.15 437.7 197.4 438.75 197.05 438.25 191.25 437.9 185.6 437.5 181.4 438.2 178.65 440.6 189 441.1 200.6 443.05 205.6 443.65 212.25 448.75 209.4 453.9 206.3 452.55 177.6 450.7 148.95 446.15 155.7 441.85 161.2
M 440.15 275.35
Q 442.3 266.15 443.3 257.3 443.4 256.6 443.5 256.1 442.2 261.2 441.1 266.8 440.45 271.15 439.75 275.5 439.85 275.25 440.15 275.35
M 443.8 224
Q 443.7 226.4 443.6 228.8 443.5 229.25 443.9 230.05 443.9 228.55 444.15 227.3 444.15 225.1 445.1 223.3 444.25 223.55 443.8 224
M 442.95 236.8
Q 442.8 237.190234375 442.8 238.1 442.25 243.05 441.7 247.65 441.55 247.65 441.75 247.85 442.45 242.8 443.1 237.5 442.8669921875 237.033984375 442.95 236.8
M 438.8 214.8
Q 438.6115234375 213.66875 438.7 212.55 438.596875 213.571875 438.55 214.65 438.35 214.75 438.5 214.95 438.65 214.65 438.8 214.8
M 461.05 132.65
Q 457.1 139.25 453.35 145 454.8 162.95 456.1 181 456.9 192.5 457.6 204 461.15 201.75 464.8 199.4 463.95 184.85 463.05 170.3 461.9 151.5 461.05 132.65
M 335.05 492.45
Q 335.0970703125 492.3560546875 335.15 492.3
L 335.05 492.4 335.05 492.45
M 309.05 465.15
Q 308.05 462.15 308.1 459.85 308 458.65 308.1 457.55 305.05 456.1 302.5 454.95 301.35 455.2 300.35 456 295.95 457.65 295.2 463.2 294.9 463.7 295.1 464.5 294.6 468.25 295.05 472.6 295.6 476.7 297.1 480.95 297.15 481.4 297.35 481.85 298.65 482.65 300.55 483.6 303.15 484.8 305.85 485.65 310.7 487.05 316.05 487.05 323.05 487.05 331.6 483.5 335.9 481.7 339.1 479.85
L 338.9 479.85
Q 338.5 479 338.5 478.05 338.5 477.65 339.95 476.65 340 475.7 340.05 474.7 340 469.7 338.45 465.4 337.45 462.9 336.5 460.75 332.65 461.3 329.35 461.55 329 464.35 328.05 467.25 326.85 469.9 325.4 472.15 323.7 474.3 322.5 475.15 321.25 475.75 320.55 475.85 319.65 475.75 319.65 475.8 319.65 475.7 319.6 475.75 321.3 472.3 321.7 470.7 322.2 468.65 322.25 466.55 322.35 464.35 321.65 462.25 321.25 461.6 321.2 461.15 319.25 460.8 317.65 460.5 317.2 460.6 317 460.85 314.85 461.75 314.55 464.45 314 466.4 314.05 469.05 314 471.4 314.9 473.6 315.45 475.4 315.45 475.7 315.15 475.55 312.55 471.9 309.65 467.7 309.05 465.15
M 312.9 461.9
Q 312.95 461.7 313 461.75 312.95 461.65 312.95 461.6 312.75 461.75 312.9 461.85
L 312.9 461.9
M 246.7 330.2
Q 246.2 329.1 245.8 328.4 246.25 329.35 246.7 330.25 246.8 330.2 246.7 330.2
M 236.95 351
Q 235.6 351 234.45 351.55 236.85 354.2 239.55 357.05 244.95 362.75 250.5 368.6 251.75 369.9 253.3 371.55 252.9 370.75 252.5 370.45 252 369.75 251.35 369.2 249.15 366.6 247.8 364.65 248 364.55 248.3 364.75 248.45 365 248.9 365.25 248.6 364.7 248.4 364.5 247.85 363.7 247.45 363.45 242.4 358.95 237.65 351.85
L 237.6 351.85
Q 237.3 351.35 236.95 351
M 228.1 328.3
Q 227.45 326.95 227.05 325.65 224.3 320.25 221.85 315.1 224.35 320.85 227.4 326.85 227.7 327.55 228.1 328.3
M 211.8 272.4
Q 212.55 275.5 213.45 278.6 214.65 283.3 216.55 288.35 216.05 284.85 215.85 281.7 214.45 276.95 213.65 272.6 212.65 272.25 211.8 272.4
M 212.35 240.7
Q 212.1 237.65 211.8 234.9 212.05 243.9 213.4 253 214.1 255.55 214.95 258.5 213.3 249.5 212.35 240.7
M 219.75 215.1
Q 219.95 212.7 220.55 210.3 220.15 210 219.9 209.85 219.55 212.4 219.75 215.1
M 227.8 199.95
Q 227.45 200.8 227.4 201.8 227.7 200.8 228.15 199.95 228.25 199.15 228.5 198.7 228.3125 197.153125 228.65 195.9 228.0400390625 197.8853515625 227.8 199.95
M 287.7 112.25
Q 286.95 112.7 286.15 113.7 286 114.35 285.7 115.25 286.7 113.6 287.7 112.25
M 299.25 106.95
Q 300.25 105.8 301.3 104.85 301.45 104.2 302.35 103.7 301.35 104.2 300.85 104.95 300.05 105.45 299.25 106.2 299.25 106.3 299.25 106.4 299.25 106.6 299.25 106.95
M 313.25 104.6
Q 312.45 103.95 312 103.45 311.5 103.7 311.4 104.3 312.3 104.45 313.25 104.6
M 316.3 104.25
Q 316.25 104.1 316.35 104 315.35 102.15 314.15 100.8 314.05 100.55 313.8 100.35 313.5 100.65 313.25 101.3 314.75 102.35 316.3 104.25
M 232.45 177.75
Q 231.2 182.7 230.4 187.45 231.05 185.15 232.05 183 233.2 180.6 234.2 178.35 234.65 172.7 235.45 167.1 233.6 172.15 232.45 177.75
M 239 158.55
Q 238.7 159 238.7 159.85 237.05 166.75 236.15 174.2 237.55 170 238.95 165.95 239.95 163.1 241.05 160.4 240 159.4 239 158.55
M 315.85 95.85
Q 315.4 96.35 315.15 96.85 315.1 96.85 315.2 97 317.8 99.3 320.45 101.65 321.85 102.8 323.4 104.3 322.85 103.4 322.35 102.85 322.05 102.3 321.85 102.05 318.55 98.85 315.85 95.85
M 309.55 94.95
Q 309.062890625 96.0703125 308.2 97.35 308.9328125 96.3203125 309.95 95.4 309.6 95.1 309.55 94.95
M 415.55 353.7
Q 415.4 353.7 415.25 353.7 412.5 357.25 409.9 360.95 409.25 361.5 408.75 362.35 409 362.2 409.2 361.95 412.3 357.8 415.55 353.7
M 369.65 384.55
Q 368.5 385.6 367.35 387 369.1 385.35 371 383.85 370.15 384.05 369.65 384.55
M 396.65 343.1
Q 396.3 343.15 396.5 343.15 396.1 343.65 395.65 344.3 395.35 345.05 395.05 345.7 395.8 344.25 396.65 343.1
M 403.15 306.25
Q 402.8 306.45 402.6 307.2 402.35 307.25 402.4 307.65 402.4 307.8 402.55 308.25 402.6 307.95 402.8 307.6 403.1 306.7 403.5 306.1 403.35 305.75 403.35 305.95 403.15 305.9 403.15 306.25
M 417 171.25
Q 417.45 170.9 418.05 170.55 417.7 169.65 417.55 169.1 415.3 165.1 413.2 161.75 415.2 166.45 417 171.25
M 334.95 110
Q 334.7 109.3 334.4 108.9 331.8 106.4 329.35 104.3 329.45 104.55 329.85 104.85 332.1 107.45 334.7 109.9 334.75 109.9 334.95 110
M 355.2 119.35
Q 356.7 119.95 358.5 120.85 358.25 120.6 358 120.25 354 115.5 349.95 111.1 350.65 112.45 351.5 113.95 353.25 116.55 355.2 119.35
M 346.65 114.4
Q 346.1 113.25 345.55 112.3 344.75 111.15 343.9 110.1 341 106.2 338.15 102.65 339.7 106.15 341.7 110.3 342.8 111.1 344.05 112.25 345.35 113 346.65 114.4
M 386.95 139
Q 387.15 139.4 387.85 139.7 386.6 137.95 385.85 136.3 386.3 137.5 386.95 139
M 367.65 122.55
Q 367.45 121.85 367.65 121.45 367.25 120.65 367 120.25 365.2 117.1 362.95 114.45 364.75 118.65 366.1 123.5 366.6 124.5 367.4 125.55 367.8 125.75 368.5 126.15 368 124.2 367.65 122.55
M 331.8 97.4
Q 331.15 96.85 330.7 96.7 332.85 101.05 335.05 105.4 336.1 106.2 337.2 106.85 335.8 104.3 334.75 101.75 333.7 99.75 332.7 97.95 332.2 97.55 331.8 97.4
M 330.05 93.7
Q 328.8 91.95 327.5 90.5 324.9 87.4 325.65 86.7 329.45 88.6 332.7 93.05 333.35 93.75 334 94.95 336.45 95.85 338.85 97.85 342.35 100.55 345.45 104.3 345.35 104.1 345.5 104.05 347.9 105.8 350.2 107.7 348.9 105.9 349.8 105.2 349.8 104.5 350.7 103.95 354.75 108.4 358.55 113.15 358.8 113.45 359.4 114.25 358.45 112.1 357.65 110.1 357.1 108.75 357.3 108.1 356.9 108 357.05 107.85 354.25 105.1 354.8 103.7 354 102.5 354.7 102.1 360.05 104 363.95 109.2 366.95 113 369.25 117.5 371.95 121.6 374.5 126.2 375.8 129 377.4 131.85 379.55 133.15 381.45 134.8 377.85 127.2 373.45 120.65 367.2 111.4 360 104 355.45 99.3 354.15 97.2 360.8 101.2 366.7 107.65 372.3 113.8 377.1 120.85 377.25 120.2 377.55 119.95 376.45 118.1 377.15 117.05 383.05 121 386.85 128.2 390.45 134.9 394 141.95 395.3 144.55 396.75 147.7 399.7 150.75 402.8 154.2 399.2 147.8 395.55 141.95 393.05 137.75 393.25 135.7 398.65 140.5 402.35 147.8 400 141.9 397.45 136.3 395.9 133.2 395.8 131.2 394.1 127.6 392.4 124.25 390.2 120.2 390.25 118.05 395.65 122.95 399.8 130.4 403.8 137.65 406.9 146.05 408.2 149.5 409.9 153.3 410.95 154 412.15 155.1 410.65 152.05 409.05 149.4 407.05 146.45 407.8 144.45 411.6 151.1 415.55 157.6 416.5 159.35 417.5 161.45 418.8 163.5 419.8 166.45 420 167.1 420.35 167.95 420.1 136.6 419.9 105.25 419.5 52.65 420.1 0
L 182.5 0
Q 182.4 1.55 182.25 3.5 184.45 22.15 187.8 46.4 190.6 69.45 201.2 92.5 211.5 115.2 228.05 134.9 233.4 141.25 239.45 147 239.5 146.4 239.75 145.8 240.95 142.75 242.5 141.7 241.75 145.1 241.1 148.6 242.55 150.05 244.25 151.4 245.7 146.6 247.4 142.1 248.45 138.35 251.9 138.5 251.8 138.85 251.7 139.3 254.55 132.9 257.75 127.2 259.2 123.75 262.1 123.2 260.85 125.7 260 128.4 260.75 127.4 261.75 127.05 260.71875 129.99609375 259.55 133.35 259.884375 132.465625 260.4 131.95 261.4 128.5 262.95 125.6 267.05 114.35 272.6 104.3 274.5 100.35 278.05 100 273.7 107.95 269.3 117.1 268.65 118.1 268.15 119.4 269.2 117.95 270.45 117 272 114 273.9 111.2 277.5 104.95 283.45 104.85 279.15 111.85 272.3 123.35 273.45 121.8 274.65 120.45 282 110.95 289.65 102.15 293.75 97.2 298.35 94.85 298.8 97.95 296.65 101.9 299 99.05 301.9 96.35 306.2 92 310.65 89.15 310.75 90.6 310.4 92.45
L 310.55 92.45
Q 311.1 92.95 311.6 93.55 312.5 92.4 313.5 91.5
L 313.55 91.5
Q 312.85 89.95 314.35 89.75 314.5 89.8 314.95 90.15 317 88.4 319.55 87.95 318.85 90.15 317.95 92.35 319.65 94 321.35 96.15 322 96.9 322.95 97.8 323.5 98.2 324.4 99.15 322.2 96.15 324.45 94.25 327.2 99.15 331.7 103.05 331 102.1 330.7 101.15 326.8 93.8 321.25 88.5 318.1 85.5 321.25 84.85 325.45 88.4 328.9 93.65 329.4 93.6 330.05 93.7
M 441.35 0
Q 443.85 45.7 448.45 91.8 450.5 112.35 452.3 133 454.25 130.1 456.2 127 458.4 123.45 460.55 119.9 458.2 60 459.15 0
L 441.35 0
M 439.25 0
L 428.75 0
Q 425.65 60.6 426.75 121.3 427.1 139.8 427.4 158.3 428.35 159.9 429.05 161.6 439.05 152.2 449.9 136.55 446.9 93.4 442.75 50.4 440.3 25.25 439.25 0
M 529.15 158.25
Q 524.95 162.2 520.8 165.7 502.55 180.55 483.75 195.25 475.2 201.8 466.45 208.2 468 237.6 470.15 266.9 474 266.25 477.85 265.85 497.95 263.4 517.7 262.4 522.45 262.1 527.25 262.05 527.55 210.05 529.15 158.25
M 495.95 40
Q 501.3 22.3 500.9 17.1 500.25 11.85 500.3 11.6 503.6 32.55 496 58.3 488.1 84.25 471.85 113.85 467.45 121.8 463.3 128.9 464.2 163.8 465.95 198.65 475.55 192.2 485.2 184.9 505.5 169.3 524.55 153.3 527 151.2 529.45 149.1 529.55 145.4 529.7 141.65 532.15 71 530.85 0
L 463.55 0
Q 461.75 57.35 463 115.75 472.9 98.5 480.5 80.95 490.45 57.4 495.95 40
M 575.55 10.75
Q 574.8 5.3 574.15 0
L 545.95 0
Q 546.85 42.95 544.6 87.4 543.35 112.5 542.4 137.65 547.85 132.65 553.1 127.65 561.5 119.6 568.95 112.8 578.35 101.9 558.8 125.85 550.3 136.35 542.15 145.15 540.05 203.55 539.75 262.2 548.35 262.5 557.15 263.45 572.6 265.1 587.35 273.25 588.55 232.75 588.3 192.05 587.65 100.55 575.55 10.75
M 661.65 226.5
Q 661.15 226.95 660.65 227.5
L 660.65 0 575.2 0
Q 584.2 69.65 587.45 140.85 590.45 207.55 588.45 273.85 592.4 276.15 596.35 278.9 600.75 281.8 603.75 284.1 595.9 280.7 588.3 278.05 587.55 300.65 586.2 323.2 580.8 413.75 575.6 504.6 571.2 581.2 575.75 657.6
L 602.3 657.6
Q 602.7 647.5 603.15 637.45 606.95 547.85 607.25 452.8 607.55 357.7 611.75 275.9 615.9 194.1 616.2 230.5 612.25 317.6 612.7 408.15 613.15 497.9 612.6 587.65 612.4 622.7 611.3 657.6
L 660.65 657.6 660.65 232.2
Q 661.15 231.6 661.65 231.1
L 661.65 226.5 Z"/>

<path fill="url(#Gradient_3)" stroke="none" d="
M 150.45 258.4
Q 151.15 262.35 151.75 266.35 156.85 266.2 162.05 266.25 181.8 266.4 192 268.65 191.65 263.8 191.3 258.95 184.7 258.25 178.1 257.9 164.3 256.9 151.55 258.3 151 258.35 150.45 258.4
M 87.35 279.85
Q 95.5 275.75 104.65 273 104.8 270.15 105 267.35 90.35 272.55 74.35 283.85 74.05 284 73.45 284.5 80.4 283.3 87.35 279.85
M 113.25 264.85
Q 110.85 265.45 108.45 266.2 108.25 269.1 108.1 272 114.85 270.15 122.15 269.05 132.95 267.3 144.45 266.65 145.25 262.7 146.15 258.85 128.95 260.75 113.25 264.85
M 89.15 62.7
Q 93.5 80.3 104.35 96.2 107.9 101.45 111.75 106.55 111.9 100.5 112.05 94.5 97.75 76.9 85.35 49 86.4 52.3 89.15 62.7
M 166.5 166.55
Q 175.6 175.6 184.6 183.5 183.95 177.2 183.35 170.95 181 168.9 178.6 166.8 159.6 150.1 143.65 131.7 128.35 113.8 114.3 97.2 114.2 103.4 114.1 109.65 120.8 118.35 128.25 126.65 146.05 146.5 166.5 166.55
M 429.45 327.2
Q 429.45 329.35 429.5 331.55 431.2 327.55 432 323.8 431.35 323.65 431.15 324.2 430.3 325.7 429.45 327.2
M 327.5 90.5
Q 328.8 91.95 330.05 93.7 329.4 93.6 328.9 93.65 325.45 88.4 321.25 84.85 318.1 85.5 321.25 88.5 326.8 93.8 330.7 101.15 331 102.1 331.7 103.05 327.2 99.15 324.45 94.25 322.2 96.15 324.4 99.15 323.5 98.2 322.95 97.8 322 96.9 321.35 96.15 319.65 94 317.95 92.35 318.85 90.15 319.55 87.95 317 88.4 314.95 90.15 314.5 89.8 314.35 89.75 312.85 89.95 313.55 91.5
L 313.5 91.5
Q 312.5 92.4 311.6 93.55 311.1 92.95 310.55 92.45
L 310.4 92.45
Q 310.75 90.6 310.65 89.15 306.2 92 301.9 96.35 299 99.05 296.65 101.9 298.8 97.95 298.35 94.85 293.75 97.2 289.65 102.15 282 110.95 274.65 120.45 273.45 121.8 272.3 123.35 279.15 111.85 283.45 104.85 277.5 104.95 273.9 111.2 272 114 270.45 117 269.2 117.95 268.15 119.4 268.65 118.1 269.3 117.1 273.7 107.95 278.05 100 274.5 100.35 272.6 104.3 267.05 114.35 262.95 125.6 261.4 128.5 260.4 131.95 259.884375 132.465625 259.55 133.35 260.71875 129.99609375 261.75 127.05 260.75 127.4 260 128.4 260.85 125.7 262.1 123.2 259.2 123.75 257.75 127.2 254.55 132.9 251.7 139.3 251.8 138.85 251.9 138.5 248.45 138.35 247.4 142.1 245.7 146.6 244.25 151.4 242.55 150.05 241.1 148.6 241.75 145.1 242.5 141.7 240.95 142.75 239.75 145.8 239.5 146.4 239.45 147 233.4 141.25 228.05 134.9 211.5 115.2 201.2 92.5 190.6 69.45 187.8 46.4 184.45 22.15 182.25 3.5 182.4 1.55 182.5 0
L 181.9 0
Q 181.8 1 181.65 2.2 179.25 20.3 180.55 40.9 181.55 61.35 187.65 79.2 196.7 107.55 215.65 132.55 225.65 146.1 236.4 156.15 235.75 157 235.5 158.25 231.45 168.35 228.7 179.05 228.75 175.4 229.15 172.1 226.9 172.05 226.35 175.8 224.4 187.2 222.45 198.65 221.85 200.8 221.65 203.05 220.95 202.25 220.25 201.5 220.55 193.75 221.55 186.5 218.6 187.6 217.85 191.75 217.2 195.1 216.9 198.45 216.6 198.3 216.45 198.1 202.1 186.9 187.95 174.9 188.6 181.15 189.2 187.4 202.75 198.85 216.15 207.6 215.85 211.1 216.05 214.95 216.05 226.95 216.05 239.25 216 239.85 216.15 240.8 216.15 241.4 215.95 242.2 215.85 243.2 215.7 244.6 215.5 242.6 215.5 240.75 214.75 230.65 214.75 221.05 214.1 221.55 213.8 223.25 213.15 218.15 212.7 213.45 210.7 214.8 210.9 219.55 211.1 225.9 211.6 232.4 209.9 233.55 209.7 237.3 208.6 248.25 210.9 259.55 211.05 260.5 211.35 261.8 210.25 261.6 209.3 261.4 208.9 259 208.45 257.1 207.3 257.7 208 261.2 201.45 260.1 195 259.35 195.3 264.4 195.6 269.45 203.95 271.2 210.2 272.25 210.9 275.6 211.75 279.2 214.05 289.65 218.55 299.75 218.65 299.75 218.8 300.25 218.95 301.35 219.4 302.85 216.1 294.6 212.35 286.75 210.6 287.3 212.35 291.35 215.2 299.3 218.6 307.35 219.1 308.5 219.6 309.8 219.5 309.7 219.5 309.75 219 308.85 218.75 308 218.15 309.35 219.2 312.7 219.35 313.1 219.55 313.95 218 311.3 216.7 308.75 214.9 305.35 213.9 302.5 212.8 302.35 213.65 304.95 214.95 307.75 216.75 311.1 218.5 314.4 220.35 317.85 221.9 321.2 223.65 324.5 224.6 326.45 225.95 328.45 228 332.3 230.35 336.5 231.75 339.3 233.45 342.05
L 233.2 342.1
Q 232.3 340.85 231.35 339.55 227.5 333.35 224.4 327.4 221 321.25 218.45 315.1 217.5 315.65 218.8 318.35 220.85 322.65 223.05 327.2 223.95 329.15 224.9 331.25 225.05 333.1 227.3 337 228.9 339.75 230.9 342.75 213.05 347.45 199.5 355.95 199.7 362.4 199.95 368.9 205.15 364.7 210.6 361.3 220.2 355.2 232.55 352.05 236.45 356.9 241.1 361.55 245.45 365.75 250 370.45 252.8 373.25 255.75 376.35 251.05 373.55 246.85 370.8 243.75 368.85 241.15 365.8 240.65 365.35 240.7 365.65 241.65 369.05 245.1 371.8 247.9 374.15 251.2 376.15 252.85 377.1 254.85 378.5 258.2 380.45 261.65 382.55 262.15 383.1 263 384 263.45 384.45 263.9 384.9 266.5 387.9 269.8 391.05 255.95 399.6 268.2 419.35 268.7 420.35 269.5 421.45 271.35 425.45 274.45 429.55 280.7 437.75 288 444.4 287.4 445.75 287 447.3 285.6 451.75 286.75 457.8 287.9 464.35 290.75 471.05 293.25 477.15 296.85 481.5 296.6 481.35 296.4 481.2 296.8 481.55 297.2 481.95 297.45 482.25 297.7 482.55 297.65 482.45 297.6 482.35 303.85 488.4 308.85 499.55 311 504.45 312.35 508.4 312.55 510.35 312.55 512.4 312.55 518.45 312.55 524.4 312.6 530.4 313.1 536.4 313.7 542.65 316.3 547.95 316.05 546.4 315.45 544.6 313.6 538.95 313.35 533.05 313.05 527.15 313.1 521.2 313.1 515.9 313.05 510.6 313.35 511.55 313.5 512.45 313.45 514.2 313.5 516 313.6 522.75 319.25 527.05 320.05 527.65 320.8 527.15 320.95 527.05 321.15 526.9 320.5 526.85 320.05 526.6 316.05 524.65 314.65 520.6 313.65 517.5 313.85 514.2 313.85 514.15 313.85 514.1 315.05 511.3 318.45 506.15 318.85 505.6 319.2 505.1 320.25 507.15 321.2 509.35 323.4 514 324.9 518.25
L 324.9 518.3
Q 324.75 522.95 321.55 526.6 325.15 523.9 325.35 519.55 326.55 522.8 327.3 525.9 327.25 527.05 327.3 528.25 327.4 532.75 327.9 537.15 328.4 541.85 329.85 546.05 330.05 544.9 329.7 543.45 328.75 539.15 328.3 534.8 327.9 530.85 327.9 526.8 328.7 521.25 329.9 514.3 330.5 510.95 331.15 507.95 331.05 512.45 331.6 516.9 332.15 521.9 333.25 526.8 334.35 531.65 334.7 536.65 335.45 535.55 335.15 533.8 334.35 528.9 333.5 524 332.6 519.1 332.05 514.2 331.6 509.6 331.8 504.9 333.35 497.85 335 492.55 335.6 491.85 336.15 491.3
L 336.3 491.15
Q 336.75 490.7 337.25 490.35 337.4 490.15 337.75 489.85 341.35 486.35 344.95 481.45 345.1 481.2 345.25 481.05 348.9 475.4 351.25 469.15 353.25 462.4 352.85 455.95 352.6 455.35 352.7 454.75 357.05 452.2 361.4 449.1 368.5 443.75 371.5 435.85 378.3 417.4 373 405.05 374.25 404.4 375.85 403.9 377.7 403.05 379.3 401.7 380.9 400.3 382.1 398.85 382 398.9 381.9 398.9 381.5 398.85 381.4 399.2 380.95 399.2 380.8 399.4 380.1 399.65 379.75 400 379.1 400.3 378.65 400.55 375.35 402.05 372.2 403.3 371.85 402.95 371.75 402.35 373.6 401.35 375.55 400.45 376.35 400.15 377.15 399.85 380.4 398.45 383.65 396.8 387.3 394.7 391.1 392.55 396.7 389.2 401.75 384.65 407.05 379.55 408.25 374.25 407.55 374.45 407.25 374.95 406.55 375.3 405.85 376.3 401.1 381.3 396.45 385.4 392.15 388.75 387.65 391.2 386.2 391.75 384.9 392.65 386.45 391 388.2 389.45 388.3 389.3 388.4 389.35 393.65 386.2 398.7 382.1 403.7 377.9 408.65 373.2 413.75 367.95 417.15 362.35 416.3 362.3 416.1 363 412.75 365.95 409.75 369.45 404.75 374.55 399.5 379.2 397.25 381.1 394.95 383 399.4 378.5 403.7 373.65 404.1 372.95 404.7 372.4 405.7 371.4 407.05 370.35 411.7 366.4 413.55 362.05 414.25 361.05 414.95 360.3 417.45 356.95 419.4 353.95 420 354 420.65 354.1 420.65 353.65 420.65 353.25 420.7 346.6 420.75 340 419.8 341.35 418.9 342.75 419.85 340.85 420.75 339.05 421.15 284.4 420.75 229.25 420.55 198.6 420.35 167.95 420 167.1 419.8 166.45 418.8 163.5 417.5 161.45 416.5 159.35 415.55 157.6 411.6 151.1 407.8 144.45 407.05 146.45 409.05 149.4 410.65 152.05 412.15 155.1 410.95 154 409.9 153.3 408.2 149.5 406.9 146.05 403.8 137.65 399.8 130.4 395.65 122.95 390.25 118.05 390.2 120.2 392.4 124.25 394.1 127.6 395.8 131.2 395.9 133.2 397.45 136.3 400 141.9 402.35 147.8 398.65 140.5 393.25 135.7 393.05 137.75 395.55 141.95 399.2 147.8 402.8 154.2 399.7 150.75 396.75 147.7 395.3 144.55 394 141.95 390.45 134.9 386.85 128.2 383.05 121 377.15 117.05 376.45 118.1 377.55 119.95 377.25 120.2 377.1 120.85 372.3 113.8 366.7 107.65 360.8 101.2 354.15 97.2 355.45 99.3 360 104 367.2 111.4 373.45 120.65 377.85 127.2 381.45 134.8 379.55 133.15 377.4 131.85 375.8 129 374.5 126.2 371.95 121.6 369.25 117.5 366.95 113 363.95 109.2 360.05 104 354.7 102.1 354 102.5 354.8 103.7 354.25 105.1 357.05 107.85 356.9 108 357.3 108.1 357.1 108.75 357.65 110.1 358.45 112.1 359.4 114.25 358.8 113.45 358.55 113.15 354.75 108.4 350.7 103.95 349.8 104.5 349.8 105.2 348.9 105.9 350.2 107.7 347.9 105.8 345.5 104.05 345.35 104.1 345.45 104.3 342.35 100.55 338.85 97.85 336.45 95.85 334 94.95 333.35 93.75 332.7 93.05 329.45 88.6 325.65 86.7 324.9 87.4 327.5 90.5
M 330.7 96.7
Q 331.15 96.85 331.8 97.4 332.2 97.55 332.7 97.95 333.7 99.75 334.75 101.75 335.8 104.3 337.2 106.85 336.1 106.2 335.05 105.4 332.85 101.05 330.7 96.7
M 367.65 121.45
Q 367.45 121.85 367.65 122.55 368 124.2 368.5 126.15 367.8 125.75 367.4 125.55 366.6 124.5 366.1 123.5 364.75 118.65 362.95 114.45 365.2 117.1 367 120.25 367.25 120.65 367.65 121.45
M 387.85 139.7
Q 387.15 139.4 386.95 139 386.3 137.5 385.85 136.3 386.6 137.95 387.85 139.7
M 345.55 112.3
Q 346.1 113.25 346.65 114.4 345.35 113 344.05 112.25 342.8 111.1 341.7 110.3 339.7 106.15 338.15 102.65 341 106.2 343.9 110.1 344.75 111.15 345.55 112.3
M 358.5 120.85
Q 356.7 119.95 355.2 119.35 353.25 116.55 351.5 113.95 350.65 112.45 349.95 111.1 354 115.5 358 120.25 358.25 120.6 358.5 120.85
M 334.4 108.9
Q 334.7 109.3 334.95 110 334.75 109.9 334.7 109.9 332.1 107.45 329.85 104.85 329.45 104.55 329.35 104.3 331.8 106.4 334.4 108.9
M 418.05 170.55
Q 417.45 170.9 417 171.25 415.2 166.45 413.2 161.75 415.3 165.1 417.55 169.1 417.7 169.65 418.05 170.55
M 402.6 307.2
Q 402.8 306.45 403.15 306.25 403.15 305.9 403.35 305.95 403.35 305.75 403.5 306.1 403.1 306.7 402.8 307.6 402.6 307.95 402.55 308.25 402.4 307.8 402.4 307.65 402.35 307.25 402.6 307.2
M 396.5 343.15
Q 396.3 343.15 396.65 343.1 395.8 344.25 395.05 345.7 395.35 345.05 395.65 344.3 396.1 343.65 396.5 343.15
M 367.35 387
Q 368.5 385.6 369.65 384.55 370.15 384.05 371 383.85 369.1 385.35 367.35 387
M 415.25 353.7
Q 415.4 353.7 415.55 353.7 412.3 357.8 409.2 361.95 409 362.2 408.75 362.35 409.25 361.5 409.9 360.95 412.5 357.25 415.25 353.7
M 308.2 97.35
Q 309.062890625 96.0703125 309.55 94.95 309.6 95.1 309.95 95.4 308.9328125 96.3203125 308.2 97.35
M 315.15 96.85
Q 315.4 96.35 315.85 95.85 318.55 98.85 321.85 102.05 322.05 102.3 322.35 102.85 322.85 103.4 323.4 104.3 321.85 102.8 320.45 101.65 317.8 99.3 315.2 97 315.1 96.85 315.15 96.85
M 238.7 159.85
Q 238.7 159 239 158.55 240 159.4 241.05 160.4 239.95 163.1 238.95 165.95 237.55 170 236.15 174.2 237.05 166.75 238.7 159.85
M 230.4 187.45
Q 231.2 182.7 232.45 177.75 233.6 172.15 235.45 167.1 234.65 172.7 234.2 178.35 233.2 180.6 232.05 183 231.05 185.15 230.4 187.45
M 316.35 104
Q 316.25 104.1 316.3 104.25 314.75 102.35 313.25 101.3 313.5 100.65 313.8 100.35 314.05 100.55 314.15 100.8 315.35 102.15 316.35 104
M 312 103.45
Q 312.45 103.95 313.25 104.6 312.3 104.45 311.4 104.3 311.5 103.7 312 103.45
M 301.3 104.85
Q 300.25 105.8 299.25 106.95 299.25 106.6 299.25 106.4 299.25 106.3 299.25 106.2 300.05 105.45 300.85 104.95 301.35 104.2 302.35 103.7 301.45 104.2 301.3 104.85
M 286.15 113.7
Q 286.95 112.7 287.7 112.25 286.7 113.6 285.7 115.25 286 114.35 286.15 113.7
M 227.4 201.8
Q 227.45 200.8 227.8 199.95 228.0400390625 197.8853515625 228.65 195.9 228.3125 197.153125 228.5 198.7 228.25 199.15 228.15 199.95 227.7 200.8 227.4 201.8
M 220.55 210.3
Q 219.95 212.7 219.75 215.1 219.55 212.4 219.9 209.85 220.15 210 220.55 210.3
M 211.8 234.9
Q 212.1 237.65 212.35 240.7 213.3 249.5 214.95 258.5 214.1 255.55 213.4 253 212.05 243.9 211.8 234.9
M 213.45 278.6
Q 212.55 275.5 211.8 272.4 212.65 272.25 213.65 272.6 214.45 276.95 215.85 281.7 216.05 284.85 216.55 288.35 214.65 283.3 213.45 278.6
M 227.05 325.65
Q 227.45 326.95 228.1 328.3 227.7 327.55 227.4 326.85 224.35 320.85 221.85 315.1 224.3 320.25 227.05 325.65
M 234.45 351.55
Q 235.6 351 236.95 351 237.3 351.35 237.6 351.85
L 237.65 351.85
Q 242.4 358.95 247.45 363.45 247.85 363.7 248.4 364.5 248.6 364.7 248.9 365.25 248.45 365 248.3 364.75 248 364.55 247.8 364.65 249.15 366.6 251.35 369.2 252 369.75 252.5 370.45 252.9 370.75 253.3 371.55 251.75 369.9 250.5 368.6 244.95 362.75 239.55 357.05 236.85 354.2 234.45 351.55
M 245.8 328.4
Q 246.2 329.1 246.7 330.2 246.8 330.2 246.7 330.25 246.25 329.35 245.8 328.4
M 313 461.75
Q 312.95 461.7 312.9 461.9
L 312.9 461.85
Q 312.75 461.75 312.95 461.6 312.95 461.65 313 461.75
M 308.1 459.85
Q 308.05 462.15 309.05 465.15 309.65 467.7 312.55 471.9 315.15 475.55 315.45 475.7 315.45 475.4 314.9 473.6 314 471.4 314.05 469.05 314 466.4 314.55 464.45 314.85 461.75 317 460.85 317.2 460.6 317.65 460.5 319.25 460.8 321.2 461.15 321.25 461.6 321.65 462.25 322.35 464.35 322.25 466.55 322.2 468.65 321.7 470.7 321.3 472.3 319.6 475.75 319.65 475.7 319.65 475.8 319.65 475.75 320.55 475.85 321.25 475.75 322.5 475.15 323.7 474.3 325.4 472.15 326.85 469.9 328.05 467.25 329 464.35 329.35 461.55 332.65 461.3 336.5 460.75 337.45 462.9 338.45 465.4 340 469.7 340.05 474.7 340 475.7 339.95 476.65 338.5 477.65 338.5 478.05 338.5 479 338.9 479.85
L 339.1 479.85
Q 335.9 481.7 331.6 483.5 323.05 487.05 316.05 487.05 310.7 487.05 305.85 485.65 303.15 484.8 300.55 483.6 298.65 482.65 297.35 481.85 297.15 481.4 297.1 480.95 295.6 476.7 295.05 472.6 294.6 468.25 295.1 464.5 294.9 463.7 295.2 463.2 295.95 457.65 300.35 456 301.35 455.2 302.5 454.95 305.05 456.1 308.1 457.55 308 458.65 308.1 459.85
M 335.15 492.3
Q 335.0970703125 492.3560546875 335.05 492.45
L 335.05 492.4 335.15 492.3 Z"/>

<path fill="url(#Gradient_4)" stroke="none" d="
M 457.6 204
Q 457.85 209.1 458.15 214.2 461.75 211.6 465.35 209 465.05 204.2 464.8 199.4 461.15 201.75 457.6 204 Z"/>
</g>

<g id="S_mbolo_3_0_Layer1_0_FILL">
<path fill="#CCCCCC" stroke="none" d="
M 246.15 -113.8
Q 236.55 -108.95 238 -99.1 242.3 -69.6 242.3 -39.85 242.3 -10.15 243.2 19.55 243.95 49.65 241.5 78.95 238.75 110.95 247.15 136.25 248.15 127.75 247.8 119.25 246.5 89.65 246.5 60.7 246.4 31.85 247.05 2.25 247.7 -27 248.25 -56.2 248.7 -86.2 246.15 -113.8 Z"/>
</g>

<g id="S_mbolo_3_0_Layer0_0_FILL">
<path fill="#999999" stroke="none" d="
M 253.3 405.05
Q 252.9 405.55 252.5 406.1 251.15 410.2 250.95 414.85 250.65 423 250.4 431.1 250.4 431.2 250.4 431.3 251.35 434.6 252.05 437.65 252 438.8 252.05 440 252.15 444.5 252.55 448.9 253 453.65 254.3 457.8 254.4 456.7 254.15 455.2 253.3 450.95 252.9 446.6 252.55 442.6 252.55 438.6 253.25 433.05 254.35 426.1 254.85 422.75 255.4 419.75 255.3 424.25 255.75 428.7 256.25 433.7 257.2 438.6 258.15 443.45 258.45 448.4 259.15 447.35 258.85 445.6 258.15 440.65 257.45 435.75 256.65 430.9 256.2 426 255.75 421.35 255.95 416.7 258.45 403.3 261.4 396 258.5 399.25 253.3 405.05
M 250.7 410.9
Q 251 409.05 251.45 407.3 248.15 411.4 245 416.85 245.9 418.9 246.8 421.15 248.65 425.75 250 430 250.15 425.25 250.05 420.55 250 415.65 250.7 410.9 Z"/>

<path fill="#CCCCCC" stroke="none" d="
M 228.85 395.4
Q 226.55 394.1 225.25 392.95 231.25 399.15 236.05 411.3 237.95 416.2 239.1 420.2 239.25 422.15 239.25 424.2 239.25 430.2 239.25 436.2 239.3 442.2 239.75 448.15 240.25 454.45 242.5 459.75 242.3 458.2 241.8 456.35 240.15 450.7 239.95 444.85 239.7 438.9 239.75 433 239.75 427.65 239.7 422.4 239.95 423.35 240.1 424.25 240.05 426 240.1 427.8 240.15 434.5 245.05 438.8 245.75 439.4 246.4 438.9 246.55 438.8 246.75 438.7 246.2 438.65 245.75 438.4 242.3 436.4 241.1 432.4 240.2 429.3 240.4 426 240.4 425.95 240.4 425.9 241.4 423.05 244.35 417.95 244.7 417.4 245 416.85 248.15 411.4 251.45 407.3 251 409.05 250.7 410.9 250 415.65 250.05 420.55 250.15 425.25 250 430
L 250 430.05
Q 249.85 434.75 247.05 438.4 250.15 435.65 250.4 431.3 250.4 431.2 250.4 431.1 250.65 423 250.95 414.85 251.15 410.2 252.5 406.1 252.9 405.55 253.3 405.05 258.5 399.25 261.4 396 261.8 395 262.2 394.2 261.85 394.4 261.6 394.65 262.35 393.55 263 392.5 263.4 391.75 263.8 391.05 264.55 389.45 265.15 387.85 265.8 386.15 266.2 384.5 264.7 387.15 263.15 388.35 261.75 389.4 261.75 389.8 261.75 390.8 262.1 391.65
L 262.3 391.65
Q 259.5 393.5 255.75 395.3 248.35 398.8 242.3 398.8 237.65 398.8 233.45 397.4 231.1 396.6 228.85 395.4
M 221.7 377.8
Q 221.2 381.3 221.75 384.85 222.25 388.45 223.7 391.5 224 391.75 224.3 392.1 223.6 391.15 223.5 390.45 223.5 390.4 223.5 390.35 223.5 390.3 224.2 389.1 224.9 387.9 224.9 387 224.9 385.75 224.3 385.5 223.4 385.35 222.5 384.8 222.8 382.45 222.85 380.85 222.9 378.55 221.7 377.8 Z"/>

<path fill="#000000" stroke="none" d="
M 426.65 15.05
Q 427.15 19.85 421.7 35.7 416.25 51.55 406.1 71.05 395.95 90.55 381.65 107.1 367.3 123.6 354.55 130.75 353.5 128.65 352 126.7 351.5 128 352.2 130.4 352.35 131.1 352.6 131.85 352.15 132.05 351.65 132.3 350.15 129.75 348.25 127.45 347.6 129.75 349.15 132.95 349.25 133.2 349.4 133.4 347.8 134.15 346.1 134.9 345.7 133.9 345.35 133 344.35 130.7 343 128.75 342.1 127 341.05 125.45 337.3 119.75 333.45 114.1 332.95 115.7 334.7 118.15 336.35 120.55 337.8 123 336.65 122.1 335.45 121.3 334.05 118.25 332.65 115.2 329.6 108.5 325.6 102.35 321.7 96.3 316.35 91.85 316.35 93.65 318.35 96.85 320.05 99.65 321.7 102.5 321.9 104.15 323.25 106.7 325.75 111.3 328.05 116.1 324.5 110.1 319.15 105.75 318.95 107.55 321.35 110.8 325.05 115.8 328.5 121.1 325.55 118.1 322.5 115.4 321.25 113 319.85 110.65 316.45 104.95 312.9 99.45 309.1 93.65 303.3 90.2 302.8 91 303.7 92.4 303.35 92.7 303.3 93.1 298.5 87.4 292.95 82.45 287.25 77.35 280.55 74.1 282 75.7 286.35 79.4 293.5 85.45 299.55 92.7 304 98.05 307.5 104 305.5 102.7 303.5 101.5 302.05 99.25 300.6 97 298.25 93.4 295.45 90.1 293.2 86.6 290.2 83.5 286.4 79.55 281.05 77.8 280.55 78.2 281.1 79 280.75 80.15 283.35 82.25 283.45 82.35 283.6 82.4 283.45 83 283.95 83.95 284.8 85.5 285.65 87.1 285.15 86.7 284.8 86.3 281 82.65 277.05 79.1 276.3 79.5 276.1 80.05 275.5 80.6 276.5 81.95 274.25 80.45 271.9 79.1 271.85 79.2 271.85 79.3 268.8 76.4 265.25 74.3 262.95 72.95 260.45 72.15 259.8 71.4 259.15 70.7 256.25 67.4 252.15 65.95 251.45 66.65 254 68.85 255.3 70 256.5 71.25 255.9 71.2 255.3 71.15 252.15 67.25 247.75 64.65 244.7 65.3 247.75 67.4 253.25 71.3 257.1 76.85 257.55 77.55 258.1 78.3 253.75 75.65 250.85 71.7 248.75 73.35 250.85 75.45 250.15 74.9 249.4 74.45 248.6 73.85 247.8 73.25 246.25 71.65 244.4 70.45 245.45 68.75 246 67.05 243.6 67.35 241.45 68.8 241.15 68.65 240.85 68.55 239.45 68.9 240 69.9
L 239.95 69.9
Q 239 70.7 238.1 71.55 237.55 71.1 237 70.75 236.9 70.75 236.85 70.75 237.25 69.45 237.15 68.2 232.7 70.6 228.35 74.1 225.65 76.25 223.1 78.6 225.25 75.5 224.8 73.05 220.3 75.25 216.15 79.2 208.5 86.65 201.05 94.4 199.75 95.8 198.5 97.2 198.5 97.15 198.55 97.1 205.65 87.5 209.9 81.65 204 82.25 200.35 87.35 198.55 89.75 196.9 92.15 195.7 93.05 194.6 94.25 195.15 93.25 195.7 92.35 200.35 84.9 204.5 78.35 201.1 79 199.1 82.1 193.65 90.55 189.3 99.5 188 102.15 186.8 104.85 186.35 105.5 185.85 106.2 187.1 103.5 188.15 100.85 187.2 101.4 186.35 102.1 187.45 99.95 188.5 97.8 185.8 98.7 184.1 101.4 181 106.45 178.1 111.65 178.2 111.3 178.25 111.05 175 111.35 173.75 114.45 172.15 118.35 170.55 122.3 169 121.45 167.45 120.6 168.2 117.65 168.95 114.85 167.15 116 166.15 118.55 165.95 119.05 165.8 119.55 159.9 115.95 154.5 111.55 138.1 98.3 127.75 80.25 117.35 62.1 114.45 41.5 111.35 20.1 108.95 2.75 109.05 1.25 109.2 0
L 108.45 0
Q 108.35 0.75 108.25 1.55 106.05 18.5 107.2 37 108.35 55.45 114.2 70.45 123.4 93.95 142.15 111.55 152.2 121 162.75 127.3 162.2 128.15 161.8 129.1 157.9 137.95 155.05 147 155.3 144.15 155.4 141.35 153.35 141.85 152.75 144.85 150.75 154.5 148.7 164.25 148.35 166.15 147.95 168 147.25 167.5 146.5 167.05 146.95 160.6 147.85 154.55 144.95 156.1 144.15 159.65 143.6 162.5 143.2 165.3 143 165.2 142.75 165.15 123.7 157.55 105.05 147.2 86.25 136.85 70.25 122.5 54.2 108.2 39.55 92.9 25 77.7 11.8 49.55 12.8 52.85 15.6 62.9 20.2 79.85 31 94.1 41.7 108.3 54.8 120.05 72.7 136.25 92.95 149.5 118.2 166.15 142.45 173 142.25 176.05 142.3 179.1 142.45 189.1 142.4 199.2 142.45 199.85 142.45 200.5 142.35 201.1 142.25 201.7 142.15 202.8 142.05 203.8 141.95 202.2 141.8 200.65 141.15 192.6 141 184.5 140.35 185.2 140.1 186.5 139.55 182.55 139 178.65 137.1 180.4 137.25 184.2 137.4 189.5 137.9 194.75 136.4 196.25 136 199.45 135 209.05 137.2 218.25 137.45 219.15 137.65 220.05 136.65 220.25 135.65 220.4 135.2 218.65 134.8 216.85 133.75 217.9 134.3 220.7 119.45 223.6 104.55 228.05 90.95 232.1 78.05 237.85 58 246.75 39.8 256.8 21.55 266.75 0.8 285.25 0.35 285.6 0 285.95 6.75 284.65 13.85 279.55 29.7 268.3 48.7 259.15 67.7 249.9 88.5 242.3 109.3 234.6 119.5 233.05 129.7 231.5 136.5 229.85 137.3 232.85 138.1 235.75 140.55 244.6 144.95 252.5 145.05 252.7 145.2 252.9 145.45 254 145.85 255.15 142.45 248.7 138.8 242.55 137.1 243.75 138.7 247 141.7 253.45 144.95 259.9 145.45 260.85 145.95 261.8
L 145.9 261.85
Q 145.5 261.15 145.15 260.4 144.6 261.85 145.6 264.85 145.8 265.35 145.95 265.9 144.45 264 143.1 262 141.45 259.7 140.25 257.1 139.15 257.6 140.15 259.55 141.45 262.05 143.2 264.3 145.1 266.85 146.8 269.4 148.4 271.9 150.05 274.4 151 276.05 152.35 277.3 154.45 280.35 156.75 283.35 158.3 285.35 159.85 287.35 159.7 287.45 159.65 287.55 158.7 286.65 157.8 285.8 154.05 281.6 150.85 276.95 147.6 272.4 144.85 267.45 143.95 268.6 145.25 270.55 147.4 273.95 149.45 277.45 150.35 279 151.35 280.6 151.5 282.35 153.7 285.2 155.35 287.35 157.3 289.25 136.4 305.05 121.35 326 108.45 343.95 100.1 364.25 91.8 384.55 88.5 404.55 85.2 424.5 85 429.6 98.35 383.95 110.55 360.65 122.95 336.75 137.1 319.1 146.8 307.05 159 297.7 162.9 300.8 167.55 303.15 172.05 305.35 176.5 307.65 179.4 309.2 182.2 310.75 177.75 310.15 173.3 309.5 170.3 309.05 167.6 307.3 167.15 307.15 167.2 307.35 168.25 310.3 171.55 311.35 174.55 312.2 177.65 312.7 179.5 313.05 181.3 313.3 184.75 313.85 188.15 314.25 188.85 314.6 189.5 315.05 189.95 315.3 190.35 315.6 193.25 317.45 196.25 319.05 182.5 333.3 194.7 346.75 195.4 347.45 196 348.15 197.95 351.15 201 353.6 207.35 358.75 214.55 362.15 213.95 363.55 213.55 365.1 212.3 369.8 213.35 374.7 214.5 380.1 217.35 384.95 220.3 390 224.3 392.7 224 392.1 223.7 391.5 222.25 388.45 221.75 384.85 221.2 381.3 221.7 377.8 221.75 377.2 221.8 376.6 222.7 371.5 226.95 368.6 228.05 367.85 229.1 367.1 231.8 367.65 234.7 368.05 234.6 369.1 234.7 370.15 234.9 372.2 235.65 374.55 236.4 376.85 239.15 379.7 241.85 382.45 242.1 382.4 242.3 382.35 241.5 380.75 240.65 379.1 240.65 376.95 240.65 374.8 241.15 372.85 241.65 370.4 243.6 369.2 243.9 369.05 244.25 368.8 246 368.8 247.8 368.8 248 369.25 248.2 369.75 249 371.55 248.85 373.5 248.75 375.35 248.35 377.1 248 378.7 246.2 381.8 246.25 381.8 246.3 381.85 246.45 381.85 247.2 381.8 247.9 381.7 249.15 380.85 250.35 379.95 252 377.95 253.65 375.95 254.65 373.4 255.65 370.95 255.95 368.35 259.45 367.9 263.05 367.3 264.15 369.25 265.05 371.4 266.65 375.25 266.65 379.5 266.7 382 266.2 384.5 265.8 386.15 265.15 387.85 264.55 389.45 263.8 391.05 263.4 391.75 263 392.5 262.35 393.55 261.6 394.65 261.85 394.4 262.2 394.2 262.85 393.6 263.9 392.85 264.15 392.65 264.4 392.45 268.1 389.5 271.6 385.45 271.75 385.3 271.9 385.15 275.7 380.6 277.85 375.3 280.05 369.75 279.4 363.85 279.35 363.3 279.25 362.8 283.65 361.1 287.95 359 295.05 355.5 297.95 349.05 304.85 334.05 299.4 321.3 300.8 321.1 302.2 320.85 304.05 320.6 305.7 319.7 307.25 318.9 308.45 317.85 308.35 317.85 308.3 317.85 308 317.85 307.7 317.9 307.45 317.95 307.15 318 306.6 318.15 306.05 318.3 305.5 318.4 304.95 318.5 301.75 319.05 298.55 319.5 298.3 319 298.1 318.55 300 318.25 301.9 317.65 302.7 317.55 303.45 317.45 306.7 317.1 309.95 316.35 313.65 315.5 317.35 314.65 322.9 313.4 327.95 310.75 333.3 308 334.4 303.45 333.85 303.45 333.4 303.7 332.7 304 332 304.45 327.55 307.55 322.7 309.65 318.45 311.5 313.95 312.35 312.5 312.6 311.15 312.85 312.75 311.85 314.5 310.85 314.6 310.85 314.65 310.8 319.85 309.5 324.9 307.4 329.95 305.25 334.75 302.55 339.75 299.6 343.2 295.65 342.6 295.5 342.15 295.75 338.95 297.55 335.9 299.45 330.95 302.55 325.7 305 323.45 306.05 321.25 307 325.65 304.25 329.8 301.2 330.35 300.8 330.85 300.4 332 299.85 333.2 299.35 337.9 297.3 339.65 293.85 340.35 293.3 341 292.75 343.5 290.75 345.35 288.45 372.6 302.05 394.2 327.6 415.75 353.1 427.65 373.95 439.55 394.75 450.3 411.65 451.35 413.2 452.15 414.65 449.9 409.8 445.1 395.75 440.35 381.65 428.9 359.75 417.5 337.8 399.7 318.9 381.9 300.05 360.5 286.5 355.05 283.1 349.35 280.55 349.2 280.25 349.1 280 349.1 279.8 349.05 279.55 356.15 272.9 357.85 265 357.2 264.8 356.95 265.1 353.9 269.05 350.15 272.6 347.5 275.15 344.9 277.8 346.25 275.85 347.5 273.85 353.75 267.5 359 260.4 365.25 251.95 364.7 243.5 363.85 243.35 363.35 243.5 364.35 240.45 364.4 237.45 365 236.25 365.55 235.05 366.45 233.2 367.3 231.35 394.25 232.7 420.3 241.3 439.45 247.65 458.85 253.6 481.6 260.55 502.25 271.85 516.05 279.4 530.35 286.6 527.35 284.1 522.85 280.2 503.35 263.45 482.75 254.9 462.15 246.4 442.95 240.3 423.15 233.95 403.1 228.65 386.9 224.4 370.25 224.2 371.15 221.7 372.05 219.2 375.15 210.45 371.8 202.95 371.2 203.8 370.95 205.35 371 205 371 204.7 371.15 202.55 371.1 200.45 371.2 200 371.35 199.6 373.6 190.65 372.5 182.3 372.7 182.2 372.9 182.15 391.15 176.85 408.7 170.1 427.55 162.85 445.95 153.35 464.35 143.85 484.95 122.85 505.5 101.8 495.55 111.35 487.8 117.25 479.05 123.85 465.15 134.4 449.8 142.9 430.55 153.6 410.15 161.7 389.6 169.85 368.85 173.8 368.4 168.5 366.3 163.95 366 154.65 363.45 145.95 362.85 148 363.2 151.4 363.7 156 363.95 160.65 363.1 160.8 362.6 161.2 362.55 161.05 362.5 160.9 361.7 158.9 360.7 157.15 360.2 155.05 359.6 152.9 359.15 151.25 358.7 149.6 358.6 149.35 358.55 149.05 357.8 144.5 357 139.9 359.25 139.2 367.15 132.6 380.6 121.3 397.25 98.45 413.8 75.55 421.7 52.45 429.55 29.3 426.1 10.05 426.1 10.2 426.65 15.05
M 343 134.7
Q 343.25 135.3 343.45 135.95 343 136.15 342.55 136.3 340.65 132.35 338.8 128.35 341.1 131.35 343 134.7
M 364 174.65
Q 363.85 174.65 363.7 174.7 363.75 174.6 363.75 174.45 364 172.7 364.15 171 364.1 172.8 364 174.65
M 368.05 193.95
Q 368.15 193.4 368.25 192.85 368.25 193.2 368.35 193.55 367.8 197.5 367.05 201.5 367 201.4 367 201.35 367.65 197.65 368.05 193.95
M 368.8 186.85
Q 368.95 185 369 183.15 369.6 183 370.25 182.85 369.55 184.1 369.35 185.8 369.25 186.85 369.15 187.9 368.95 187.35 368.8 186.85
M 368.85 208.9
Q 368.8 209.4 368.7 209.9 367.85 217.2 365.6 224.2 365.45 224.2 365.25 224.2 366.05 220.7 366.5 217.2 367.7 213 368.85 208.9
M 357.85 255.35
Q 356.15 258.15 354.35 260.85 355.75 257.75 356.9 254.55 359.05 251.6 360.9 248.55 361.05 248.25 361.15 248 359.85 251.75 357.85 255.35
M 334.85 292.5
Q 335.35 292 335.95 291.5 338.6 289.1 341.3 286.7 341.4 286.75 341.55 286.8 338.5 289.55 335.25 292.15 335.05 292.35 334.85 292.5
M 257.1 73.5
Q 257.6 73.7 258.2 74 258.7 74.2 259.15 74.4 260.2 75.75 261.15 77.3 262.3 79.2 263.55 81.15 262.5 80.6 261.4 80.05 259.4 76.7 257.1 73.5
M 256.25 79.65
Q 256 79.4 255.75 79.2 258.2 81 260.8 82.7 261.05 83.05 261.3 83.55 261.15 83.5 261.05 83.45 258.55 81.65 256.25 79.65
M 248.25 77.7
Q 248.6 77.95 248.8 78.3 249.35 78.8 249.8 79.35 248.35 78.3 246.9 77.4 244.25 75.8 241.7 74.05 241.6 74 241.55 73.95 241.9 73.55 242.3 73.15 245.15 75.55 248.25 77.7
M 270.4 85.25
Q 269.2 84.45 268 83.75 266.3 80.8 264.55 77.95 267.5 80.7 270.2 83.6 271.05 84.45 271.9 85.3 272.4 86.1 272.9 86.9 271.7 86.05 270.4 85.25
M 281.4 90.85
Q 279.7 88.65 277.8 86.7 277.05 85.5 276.3 84.45 280.4 87.95 284.3 91.7 284.5 91.9 284.7 92.15 283.1 91.45 281.4 90.85
M 292.25 94.45
Q 291 90.8 289.2 87.45 291.4 89.65 293.25 92 293.55 92.45 293.85 93 293.65 93.25 293.8 93.8 294.1 95.2 294.6 96.6 294.1 96.3 293.6 96.1 292.9 95.25 292.25 94.45
M 236 72.65
Q 236.2 72.85 236.4 73 235.45 73.85 234.5 74.75 235.45 73.65 236 72.65
M 214.15 87.05
Q 213.1 88.25 212.15 89.5 212.4 88.9 212.6 88.25 213.35 87.6 214.15 87.05
M 240.6 76.95
Q 241.8 78.05 242.8 79.3 242.8 79.44765625 242.9 79.65 242.846875 79.5484375 242.75 79.5 241.25 78.3 239.75 77.35 240 76.95 240.25 76.6 240.5 76.75 240.6 76.95
M 238.4 79.05
Q 239 79.45 239.65 79.85 238.7 79.8 237.8 79.75 238.05 79.35 238.4 79.05
M 227.7 80.55
Q 226.7 81.4 225.65 82.3 225.65 82.05 225.65 81.85 225.65 81.8 225.65 81.75 226.45 81.15 227.25 80.65 228 80.15 228.75 79.7 228.2 80.1 227.7 80.55
M 165.3 128.8
Q 166.35 129.35 167.35 129.9 166.35 132.25 165.3 134.65 163.85 138.2 162.45 141.75 163.4 135.7 165 129.85 165.2 129.3 165.3 128.8
M 311.75 105.55
Q 312.75 106.95 313.75 108.35 313.3 108.05 312.85 107.7 312.25 106.6 311.75 105.55
M 161.75 136.25
Q 161.15 140.8 160.5 145.4 159.45 147.45 158.35 149.5 157.35 151.45 156.65 153.45 157.7 149.35 158.75 145.2 160.05 140.65 161.75 136.25
M 154.75 162.85
Q 154.6 163.4 154.45 164 154 164.8 153.65 165.65 153.85 164.85 154 164.1 154.5 162.1 155 160.15 154.75 161.45 154.75 162.85
M 146.8 174.15
Q 146.4 176.25 146 178.35 146.05 176.15 146.15 173.95 146.45 174.05 146.8 174.15
M 138.75 201.5
Q 139.8 208.75 141.25 216 140.5 213.8 139.65 211.75 138.5 204.35 138.15 196.8 138.4 199.1 138.75 201.5
M 138.2 229.45
Q 139.1 229.2 140 229 141.05 232.8 142.15 236.55 142.45 239.55 142.95 242.45 141.25 238.6 139.85 234.55 138.95 232.05 138.2 229.45
M 147.65 244.8
Q 147.75 244.9 148.05 245.05 148.25 245.5 148.35 245.95 148.65 247 148.85 248.15 148.35 246.95 147.85 245.8 147.7 245.3 147.65 244.8
M 148.2 265.9
L 148.3 265.95
Q 150.7 270.05 153.45 274.05 154.2 275.55 155.1 277 154.4 276.05 153.8 275.05 150.85 270.55 148.2 265.9
M 164 295.05
L 164.05 295.1
Q 169.05 299.8 173.9 301.95 174.35 302.2 174.85 302.55 175.1 302.75 175.35 303.05 175.05 302.95 174.7 302.85
L 174.25 302.95
Q 175.65 304.45 177.85 305.8 178.45 306.15 179 306.5 179.35 306.85 179.75 307.2 178.4 306.4 176.95 305.65 171.45 302.55 165.95 299.4 163.4 297.9 160.9 296.3 162.1 295.4 163.4 294.55 163.7 294.8 164 295.05
M 172.2 268.7
Q 172.55 269.4 173.05 270.05 173.05 270.1 173.05 270.15 172.2 268.85 172.2 268.7
M 239.65 370.5
Q 239.6 370.603125 239.6 370.7 239.55 370.8 239.5 370.9
L 239.5 370.85
Q 239.55 370.75 239.55 370.65 239.5984375 370.6015625 239.65 370.5
M 334.2 147.45
Q 334.2 147.05 334.55 146.95 334.7 146.85 334.8 146.85
L 334.8 139.05
Q 336.85 143.55 342.2 155 351.45 176.2 354.35 190.8 356.25 189.85 358.05 185.85 359.9 180.95 360.95 178.95
L 360.95 181
Q 360.95 192 357.15 211.9 352.4 236.35 346.15 242.9
L 355.55 233.55 355.55 234.15
Q 355.15 234.85 349.85 246.9 343.5 260.2 337.75 267.45 331.6 275 321.1 282.85 311.6 289.4 311 290 313.75 290.3 321.45 287.15 325.45 285.45 329.5 283.45
L 329.5 284.05
Q 311.6 295.7 298.45 302.65 294.25 303.95 290.1 304.9 278.75 307.4 265.3 307.4 244.55 307.4 236.8 306 218.25 302.6 212.8 301.25 211.6 300.9 210.45 300.6 205.7 297.3 200 292.95 181.4529296875 278.74375 175.8 272.5 178.2484375 275.078125 182.85 277.5 184 278.1 187.1 279.6 174.55 270.9 163.5 249.9 158.05 239.55 154.9 229.55 151.9 220 152.5 215.7 152.65 215.85 155.9 220.2 158.8 224.05 159.95 225.1 158.35 219.25 157.05 212.85 154.2 199.35 154.2 189.6 154.2 181.75 155 173 155.65 165.55 156 164.65
L 156 164.4
Q 156.1 167.25 157.6 173.95 159.1 180.95 160.15 183.15 160.15 182.2 159.85 180.3 159.55 178.4 159.55 177.75 159.55 166.3 171.35 150.6 176 144.4 180.85 139.95 181 139.75 181.2 139.6 180.95 140.45 180.8 141.35 179.75 145.75 179.75 146.25
L 179.75 146.85
Q 182.55 142.15 204.7 126.35 222.15 113.9 229.15 109.75 228.2 111.35 226 114.85 223.1 119.3 222.15 120.95 224.6 119.75 233 115.9 242.75 110.9 242.2 108.25 242.4 108.25 242.8 108 243.2 107.7 243.9 107.7 244.5 110.65 244.5 118.3 245.35 117.7 247.5 113.85 249.85 109.75 249.9 108.2 253 109.8 258.45 111.75 266.9 114.8 269.7 114.8 270.7 114.8 271.15 114.4 271.35 114.2 271.85 113.6 271.65 113.4 270 110.05 268.25 106.5 268.25 105.85 270.15 109.4 283.85 114.95 294.2 119.1 298.55 120.1 298.55 119.55 298.9 119.05 299.15 118.5 299.15 117.7 299.15 117.25 298 114.85 296.85 112.4 296.8 111.2 301.1 114.9 317.8 131.7 332.9 146.8 334.2 147.45
M 234.9 312.6
L 236.1 312.6 259.4 309.75
Q 261.05 309.75 261.55 310.2 260.85 310.75 259.6 311.25 258.15 311.9 257.75 312.1 264.4 311.35 270.8 313.8 273.4 314.75 275.65 316.15 279.6 325.5 286.55 320.5 286.15 326.25 274.7 335.6 276.65 335.35 281.05 333.05 285.55 330.7 287.15 329 286.7 333.15 283.4 337.1 280.1 341.05 275 342.75 269.85 344.45 260.15 346.25 250.5 348.1 240.4 346.1 230.3 344.1 225 342.15 219.7 340.25 212.95 331.45
L 212.95 330.85
Q 213.5 331.05 217.5 333.85 221.8 336.75 224.2 335.45 220.5 335.2 218.4 331.4 215.9 326.7 215.9 322.2 215.9 321.05 216.25 318.9 216.65 316.75 217.1 315.4 217.1 316.4 218.95 320 219.9 321.85 221.25 324.3 221.25 322 221.75 319.4 224.3 315.7 228.3 313.35 232.95 311.15 234.45 310.2
L 236.35 310.2
Q 235.45 312.45 234.9 312.6
M 194.05 282.85
L 194 282.85
Q 194.044140625 283.07109375 194.05 283.3
L 194.05 282.85
M 160.15 225.3
Q 160.05 225.2 159.95 225.1 160.05 225.45 160.15 225.9
L 160.15 225.3
M 221.9 121.3
Q 222 121.15 222.15 120.95 221.55 121.2 221.3 121.3
L 221.9 121.3 Z"/>

<path fill="#3A112E" stroke="none" d="
M 236.1 312.6
L 234.9 312.6
Q 235.45 312.45 236.35 310.2
L 234.45 310.2
Q 232.95 311.15 228.3 313.35 224.3 315.7 221.75 319.4 221.25 322 221.25 324.3 219.9 321.85 218.95 320 217.1 316.4 217.1 315.4 216.65 316.75 216.25 318.9 215.9 321.05 215.9 322.2 215.9 326.7 218.4 331.4 220.5 335.2 224.2 335.45 221.8 336.75 217.5 333.85 213.5 331.05 212.95 330.85
L 212.95 331.45
Q 219.7 340.25 225 342.15 230.3 344.1 240.4 346.1 250.5 348.1 260.15 346.25 269.85 344.45 275 342.75 280.1 341.05 283.4 337.1 286.7 333.15 287.15 329 285.55 330.7 281.05 333.05 276.65 335.35 274.7 335.6 286.15 326.25 286.55 320.5 279.6 325.5 275.65 316.15 273.4 314.75 270.8 313.8 264.4 311.35 257.75 312.1 258.15 311.9 259.6 311.25 260.85 310.75 261.55 310.2 261.05 309.75 259.4 309.75
L 236.1 312.6
M 334.55 146.95
Q 334.2 147.05 334.2 147.45 332.9 146.8 317.8 131.7 301.1 114.9 296.8 111.2 296.85 112.4 298 114.85 299.15 117.25 299.15 117.7 299.15 118.5 298.9 119.05 298.55 119.55 298.55 120.1 294.2 119.1 283.85 114.95 270.15 109.4 268.25 105.85 268.25 106.5 270 110.05 271.65 113.4 271.85 113.6 271.35 114.2 271.15 114.4 270.7 114.8 269.7 114.8 266.9 114.8 258.45 111.75 253 109.8 249.9 108.2 249.85 109.75 247.5 113.85 245.35 117.7 244.5 118.3 244.5 110.65 243.9 107.7 243.2 107.7 242.8 108 242.4 108.25 242.2 108.25 242.75 110.9 233 115.9 224.6 119.75 222.15 120.95 222 121.15 221.9 121.3
L 221.3 121.3
Q 221.55 121.2 222.15 120.95 223.1 119.3 226 114.85 228.2 111.35 229.15 109.75 222.15 113.9 204.7 126.35 182.55 142.15 179.75 146.85
L 179.75 146.25
Q 179.75 145.75 180.8 141.35 180.95 140.45 181.2 139.6 181 139.75 180.85 139.95 176 144.4 171.35 150.6 159.55 166.3 159.55 177.75 159.55 178.4 159.85 180.3 160.15 182.2 160.15 183.15 159.1 180.95 157.6 173.95 156.1 167.25 156 164.4
L 156 164.65
Q 155.65 165.55 155 173 154.2 181.75 154.2 189.6 154.2 199.35 157.05 212.85 158.35 219.25 159.95 225.1 160.05 225.2 160.15 225.3
L 160.15 225.9
Q 160.05 225.45 159.95 225.1 158.8 224.05 155.9 220.2 152.65 215.85 152.5 215.7 151.9 220 154.9 229.55 158.05 239.55 163.5 249.9 174.55 270.9 187.1 279.6 184 278.1 182.85 277.5 178.2484375 275.078125 175.8 272.5 181.4529296875 278.74375 200 292.95 205.7 297.3 210.45 300.6 211.6 300.9 212.8 301.25 218.25 302.6 236.8 306 244.55 307.4 265.3 307.4 278.75 307.4 290.1 304.9 294.25 303.95 298.45 302.65 311.6 295.7 329.5 284.05
L 329.5 283.45
Q 325.45 285.45 321.45 287.15 313.75 290.3 311 290 311.6 289.4 321.1 282.85 331.6 275 337.75 267.45 343.5 260.2 349.85 246.9 355.15 234.85 355.55 234.15
L 355.55 233.55 346.15 242.9
Q 352.4 236.35 357.15 211.9 360.95 192 360.95 181
L 360.95 178.95
Q 359.9 180.95 358.05 185.85 356.25 189.85 354.35 190.8 351.45 176.2 342.2 155 336.85 143.55 334.8 139.05
L 334.8 146.85
Q 334.7 146.85 334.55 146.95
M 194 282.85
L 194.05 282.85 194.05 283.3
Q 194.044140625 283.07109375 194 282.85 Z"/>
</g>

<g id="S_mbolo_1_0_Layer1_0_FILL">
<path fill="#9C0000" stroke="none" d="
M 55.1 11.05
Q 57.55 12 59.7 13.05 60.8 10.55 60.8 7.8 60.8 6.8 60.65 5.85 27.6 -5.1 0.45 4.5 0 6.1 0 7.8 0 10.25 0.9 12.5 3.75 11.25 7.55 10.15 18.9 6.85 32.15 6.85 44.15 6.85 55.1 11.05 Z"/>

<path fill="url(#Gradient_5)" stroke="none" d="
M 51.9 21.1
Q 57.65 17.55 59.7 13.05 57.55 12 55.1 11.05 44.15 6.85 32.15 6.85 18.9 6.85 7.55 10.15 3.75 11.25 0.9 12.5 2.8 17.3 8.9 21.1 17.8 26.6 30.4 26.6 43 26.6 51.9 21.1 Z"/>
</g>

<g id="S_mbolo_1_0_Layer0_0_FILL">
<path fill="url(#Gradient_6)" stroke="none" d="
M 50.5 20.9
Q 54.75 18.65 54.65 16.5 54.6 14.3 50.25 13.45 45.95 12.6 40.15 13.55 34.25 14.5 30.05 16.65 25.9 18.95 25.9 21.15 26 23.3 30.3 24.1 34.6 25 40.4 24 46.3 23.1 50.5 20.9 Z"/>
</g>

<g id="texto_0_Layer0_0_FILL">
<path fill="#FFFFCC" stroke="none" d="
M 118.3 4.25
Q 118.3 4.35 118.3 4.55 118.3 4.8 118.3 4.9 118.3 5.75 117.6 5.75 117.1 5.75 116.5 4.45 115.9 3.15 115.3 3.15 115.1 3.15 114.8 3.2 114.55 3.35 114.4 3.35 114.25 3.35 113.95 3.2 113.65 3.15 113.45 3.15 113 3.15 108.85 3.7 108.75 3.75 108.2 4.05 107.65 4.35 107.4 4.35 106.9 4.35 106.8 3.65 106.45 3.3 106.15 3.3 105.25 3.3 104.45 5.15 103.8 6.65 103.75 7.65
L 103.95 8.05 104.5 8.2
Q 105 8.2 105.2 7.8
L 105.7 7.55 106.25 7.7
Q 106.5 8 106.9 7.95
L 107.6 7.8
Q 107.7 7.8 108 7.95 108.3 8.05 108.5 8.05 108.95 8.05 110.4 6.2 111.8 4.35 112 4.3 112.55 4.25 112.95 4.25 114.4 4.25 114.4 9.1
L 114.4 10.4 114.2 10.75
Q 111.55 10.95 108.8 11.1 104.75 11.4 104.85 12.3 103.75 15.95 103.75 18.35 103.75 19 104.2 19.15 104.7 19.25 104.75 19.5
L 105.25 21.8
Q 105.3 22.15 105.8 22.25
L 106.35 22.15
Q 106.45 22.1 106.8 22.1 107.05 22.1 107.3 22.4 107.55 22.65 107.9 22.65 108.3 22.65 108.65 22.4 109.05 22.1 110.05 22.2 110.5 22.1 111.65 21.7
L 112.8 21.2
Q 113.35 21.2 113.5 21.85 113.65 22.5 114.25 22.5 114.5 22.5 115 22.25 115.05 22.2 115.8 20.55 116.4 19.3 116.8 19.3 117.4 19.3 117.4 20
L 117.6 20.35 118.15 20.55
Q 119.181640625 20.353515625 119 20.35 119.053125 20.35 119.1 20.35 119.15 20.4 119.2 20.4
L 119.5 20.85 119.45 20.85
Q 119.6 21.25 119.15 21.45
L 119.1 21.5
Q 119.1 22 119.9 22.1 121 22.1 121.05 20.3 121.05 19.2 120.4 12.65 119.75 6.1 119.75 4.55 119.75 4.05 119.85 3.9 119.85 3.35 119.1 3.35 118.3 3.35 118.3 4.25
M 111.85 12
Q 112 12 112.2 12.2 112.4 12.35 112.5 12.35 113.1 13.45 114.1 13.9
L 114.4 14.3
Q 114.1 18.45 113.55 19.1 113.1 19.6 110.95 20.75
L 110.4 20.85 109.95 20.55
Q 108.8 17.7 108.8 15.25 108.8 14.7 108.9 13.95 109.1 13 109.1 12.65
L 109.15 12.5
Q 109.15 12.35 109.15 12.25
L 109.65 12.1
Q 111.1 12 111.85 12
M 158.4 10.9
Q 158.4 10.2 156.85 7.05 155.35 3.95 155.35 3.6 155.3 3.05 154.4 2.9 154.15 2.9 152.65 2.85 150.9 2.85 147.75 3.35 143.8 3.95 144.3 4.75
L 144.3 5.15
Q 141.75 9.35 141.75 14.6 141.75 15.2 141.85 16.3 142 17.45 142 18.05
L 142 18.2
Q 142.15 18.45 142.65 18.95 143.8 22.3 146.7 23.55
L 147.35 23.5
Q 147.75 23.35 148.25 23.25
L 148.35 23.25 148.8 23.55
Q 149 23.8 150.15 23.8 150.65 23.8 152.5 23.3 154.1 22.95 154.25 23.05
L 154.6 22.95 155.8 22.95
Q 156.95 21.4 157.75 17 158.35 13.5 158.4 10.9
M 152.1 7.65
Q 152.75 10.3 152.75 12.1 152.75 12.65 152.5 16.3 152.25 20 152.2 20 152.4 20.4 152.4 20.8
L 151.95 21.1
Q 151.55 21.15 149.55 21.25
L 149.1 21.1
Q 146.95 18 146.95 11.35 146.95 10.15 147.25 8.35 147.8 5.6 147.8 5.45
L 147.75 5.4
Q 147.35 4.95 147.35 4.9 147.35 4.05 149.75 4.15 151.15 4.15 152.1 7.65
M 184.05 3.15
L 183.85 2.75 183.4 2.55 182.85 2.65 182.65 3.05
Q 182.1 6.05 181.7 10.9 181.2 17.25 181.05 18.75 181 19.2 180.45 19.2 179.65 19.2 177.75 13.8 175.85 8.35 174.95 8.35 174.5 8.25 174 7.95
L 173.4 8 173.15 8.25
Q 172.6 10.05 172.2 11.75 171.5 13.95 170.8 15.25 170.65 15.55 170.25 15.55 169.8 15.55 169.6 15.2 168.25 10.9 166.35 2.6 166.35 2.45 166.3 2.35 166.2 1.95 165.6 1.95 165 1.95 164.85 2.45 165 2.6 165 3
L 164.8 3.4 164.7 3.4 165.2 4.55
Q 165.2 5.1 164.45 5.1 164.1 5.1 163.75 4.3
L 163.4 4.05 162.25 3.95 161.9 3.65
Q 161.9 3.25 161.45 2.5 161.05 2.55 160.25 2.75 160.7 6.1 162.2 10.95 163.5 14.95 164.85 19 165.25 20.4 165.65 21.75 166.15 23.4 166.9 23.4 167.15 23.4 167.45 23.2 167.75 23.05 168 23.05 168.1 23.05 168.75 23.2
L 169.3 23.05 169.45 22.6 169.4 22.25 169.65 21.8 170.1 21.7 170.6 21.75 170.9 21.7
Q 171.1 21.45 171.1 21.2 171.1 20.95 170.9 20.45 170.75 19.9 170.75 19.7 170.75 19.2 171.35 17.95 172 16.6 172.4 16.6 172.8 16.6 173.05 16.9 173.25 17.2 174.2 19.4 175.1 21.5 175.1 21.6
L 175.55 21.9 175.95 21.9
Q 176.3 21.9 176.55 21.7 176.85 21.45 177.1 21.4 177.55 21.45 177.8 21.8 178.05 22.2 178.5 22.25 178.85 22.2 179.5 22.2
L 179.85 22.45
Q 180.15 23.15 180.75 23.15 181.1 23.15 181.7 22.4 182.35 21.7 182.35 21.35 182.95 9.55 184.05 3.15
M 204.05 14.2
L 204.05 14.05 203.25 13.45
Q 203.25 13.4 203.3 13.15 203.4 12.9 203.35 12.85 203.35 4.3 199.9 2.8 199.85 2.8 199.7 2.75 199.6 2.75 199.55 2.75 199.1 2.75 198.95 3.1
L 198.45 3.35 197 3.5 196.5 3.45
Q 196.25 3.15 196.15 2.8
L 195.75 2.55 195.25 2.55
Q 194.9 2.65 194.45 3.1 194.2 3.3 193.45 3.3 193 3.3 192.5 3.9 192.05 4.45 191.55 4.45 191 4.45 191 3.75 191 3.3 190.2 3.3 189.85 3.3 189.55 3.65 186.3 7.65 186.3 13.9
L 186.55 14.3 187.75 14.55 187.95 14.85
Q 188.25 20.9 191.65 23.05 192.15 23.3 192.4 23.3 193 23.3 193.15 22.95
L 193.6 22.65 194.15 22.8
Q 195.1 23.3 195.8 23.3 196.35 23.3 197.1 23
L 197.65 22.95
Q 198.1 23.25 198.25 23.5
L 198.75 23.6
Q 199.65 23.25 201.9 19.9
L 201.95 19.5 201.55 19.2
Q 201.35 19.15 201.2 19.15 200.8 19.15 200 20.3 199.5 21 199 21.75
L 198.5 22 197.95 21.9
Q 197.85 21.8 197.4 21.7 197.3 21.7 196.95 21.8 196.95 22.35 196.4 22.35 195.2 22.35 193.75 20.35 193.45 19.9 192.05 17.55
L 192.1 17.15 192.55 16.9 192.65 16.9 193.15 16.6 193.2 16.25 193.2 16.15 193.3 15.7 193.75 15.5 197.3 15.5
Q 204.05 15.4 204.05 14.2
M 195.45 5.05
Q 195.85 4.9 196.35 4.8
L 196.95 4.85 197.25 5.2
Q 197.25 6 197.4 7.8 197.55 9.5 197.55 10.5 197.55 10.95 197.35 11.85 197.15 12.75 197.15 13.1 197.15 13.4 197.4 13.85
L 197.3 14.3 196.75 14.5 196.7 14.5
Q 196.15 14.5 195.35 14.55 194.55 14.55 194.25 14.55 192.6 14.55 192.6 12.85 192.6 9.5 195 5.3
L 195.45 5.05
M 223.25 13.45
Q 223.25 13.4 223.35 13.15 223.45 12.9 223.4 12.85 223.4 4.3 219.95 2.8 219.9 2.8 219.75 2.75 219.65 2.75 219.6 2.75 219.15 2.75 218.95 3.1
L 218.5 3.35 217.05 3.5 216.55 3.45
Q 216.3 3.15 216.2 2.8
L 215.8 2.55 215.3 2.55
Q 214.9 2.65 214.5 3.1 214.25 3.3 213.45 3.3 213.05 3.3 212.55 3.9 212.1 4.45 211.6 4.45 211.05 4.45 211.05 3.75 211.05 3.3 210.25 3.3 209.9 3.3 209.6 3.65 206.3 7.65 206.3 13.9
L 206.6 14.3 207.75 14.55 208 14.85
Q 208.3 20.9 211.7 23.05 212.2 23.3 212.45 23.3 213.05 23.3 213.2 22.95
L 213.65 22.65 214.2 22.8
Q 215.15 23.3 215.85 23.3 216.35 23.3 217.15 23
L 217.7 22.95
Q 218.1 23.25 218.3 23.5
L 218.8 23.6
Q 219.7 23.25 221.95 19.9
L 222 19.5 221.55 19.2
Q 221.4 19.15 221.25 19.15 220.85 19.15 220.05 20.3 219.55 21 219.05 21.75
L 218.55 22 218 21.9
Q 217.9 21.8 217.45 21.7 217.35 21.7 216.95 21.8 216.95 22.35 216.45 22.35 215.25 22.35 213.8 20.35 213.45 19.9 212.1 17.55
L 212.15 17.15 212.6 16.9 212.7 16.9 213.2 16.6 213.25 16.25 213.25 16.15 213.35 15.7 213.8 15.5 217.35 15.5
Q 224.1 15.4 224.1 14.2
L 224.1 14.05 223.25 13.45
M 215.5 5.05
Q 215.9 4.9 216.4 4.8
L 216.95 4.85 217.25 5.2
Q 217.25 6 217.45 7.8 217.6 9.5 217.6 10.5 217.6 10.95 217.4 11.85 217.2 12.75 217.2 13.1 217.2 13.4 217.45 13.85
L 217.35 14.3 216.8 14.5 216.75 14.5
Q 216.2 14.5 215.4 14.55 214.6 14.55 214.3 14.55 212.65 14.55 212.65 12.85 212.65 9.5 215.05 5.3
L 215.5 5.05
M 245.25 14.9
Q 245 10.35 243.9 7.15 243.85 6.9 243 2.65
L 242.7 2.3
Q 242.4 2.15 242.6 1.5
L 242.4 1.1 241.85 1 241.45 1
Q 236.6 1 232.55 3.8 232.35 4 232.15 4 231.3 4 231.3 2.9 231.3 2.35 230.95 1.65 230.55 0.9 230.15 0.9 229.75 0.9 229.25 0.4 228.35 0.4 227.7 0.9
L 227.1 1.15
Q 227.2 1.55 227.2 1.75
L 226.95 2.15
Q 226.65 2.25 226.05 2.25 225.5 2.25 225.5 2.9 225.5 3.7 225.75 5.15 226 6.9 226.05 7.45 226.35 10.15 226.35 17.2
L 226.35 22.15
Q 226.9 22.1 227.25 22.1 227.8 22.1 227.95 22.55 228.1 23.05 228.75 23.05 229.1 23.05 229.2 22.85
L 229.7 22.75
Q 229.8 22.75 230.25 22.9 230.5 23.05 230.8 23 231.25 23 231.65 22.1
L 231.6 20
Q 231.55 18.1 231.75 14.7 232 11.05 232 9.45 232 8 231.85 6.75 232.7 4.65 235.65 3.3
L 236.2 3.25 236.6 3.6
Q 238.15 8.05 238.6 13 238.85 15.95 238.85 22.55
L 238.85 23 239.05 23.45 239.6 23.55
Q 240.2 23.55 240.25 23.15 240.35 22.65 240.4 22.2 240.4 21.75 240.85 21.75 241 21.75 241.3 21.8 241.6 21.9 241.7 21.9 242.15 21.9 242.4 21.55 242.7 21.2 243.2 21.2 243.7 21.2 243.7 22.8
L 243.95 23.15 244.5 23.3
Q 245.25 23.3 245.25 22.75 245.2 15.35 245.25 14.9
M 221.35 -55.95
Q 219.5 -55.95 218.55 -50.85 218 -47.6 218 -44.4 218 -40.7 218.75 -35.3 219.4 -30.85 220.05 -26.25 220.1 -25.1 221.35 -25.1 222.1 -25.1 222.45 -25.55
L 223.25 -25.85
Q 223.55 -25.8 224.45 -25.45 225.4 -25.05 225.5 -25.05 226.75 -25.05 229.3 -25.75 231.85 -26.5 231.75 -26.5 233 -26.5 233 -25.6 233 -22.2 228.4 -11.6
L 228.7 -11 229.5 -10.7
Q 230.15 -10.65 230.65 -11.15 231.2 -11.6 231.85 -11.6 232.3 -11.6 232.7 -11.05 233.2 -10.5 233.45 -10.4
L 234.9 -10.4 236 -10.1 236.95 -10.25 237.45 -10.8 237.65 -11.35 237.65 -11.45
Q 241.8 -22.8 242.95 -27.15 245.25 -35.5 245.25 -43.3 245.25 -56.05 245 -56.6 245 -57.5 243.85 -57.5 242.85 -57.5 242.65 -56.7 242.5 -55.95 242.45 -55.2
L 241.95 -54.65
Q 241.1 -54.5 240.75 -54.65 239.15 -54.15 239.25 -54.15 238.45 -54.15 238.2 -55 237.9 -55.85 236.95 -55.85
L 236.1 -55.55 235.75 -54.95
Q 235.75 -40.2 233.8 -29.85
L 233.35 -29.2
Q 231.85 -28.55 231 -28.25
L 230.05 -28.25 229.4 -28.8
Q 227.85 -35.8 227.15 -52.55 227.1 -53.5 227.15 -54.6 226.95 -56.2 225.8 -56.2 224.7 -56.2 224.55 -55.2 224.35 -54.25 223.45 -54.25
L 222.65 -54.45 222.35 -55.05
Q 222.35 -55.95 221.35 -55.95
M 210.8 -55.7
Q 210.8 -56.6 209.6 -56.6 208.7 -56.6 203.85 -54.4 199.05 -52.15 198.55 -52.15 197.95 -52.15 197.75 -53 197.55 -53.5 197.75 -54.6
L 197.85 -55.75 197.55 -56.35 196.55 -56.65
Q 195.55 -56.3 194.7 -56.1
L 193.85 -56.6
Q 193.6 -57.2 192.5 -57.05 191.4 -57.05 191.65 -55.3
L 191.3 -54.5
Q 191.15 -54.5 190.7 -54.5 190.35 -54.45 190.15 -54.45 189.2 -54.45 188.9 -55 188.65 -55.55 188.35 -56.1
L 187.7 -56.65 186.75 -56.65 186.1 -56.15 186.1 -55.5
Q 186.1 -53 187 -47.9 187.9 -42.9 187.9 -40.3 187.9 -39.5 187.7 -38.25 187.45 -36.4 187.45 -36 187.25 -34.15 187.45 -21.05 187.45 -17.3 186.95 -13.05 186.45 -8.75 186.4 -9.1 186.45 -8.2 187.9 -8.2 188.15 -8.2 188.5 -8.45 188.9 -8.75 189.2 -8.75 190.3 -8.75 190.45 -7.75 190.65 -6.75 191.6 -6.75 192.6 -7.15 193.6 -7.35
L 195.2 -6.35 196.1 -6.35 196.65 -6.75
Q 197.5 -8.1 196.85 -22.95
L 197.5 -23.6 198.5 -23.6
Q 203.7 -21.75 207.95 -20.95 208.45 -20.85 209.1 -20.7
L 210.15 -20.85
Q 210.5 -21 210.9 -21.4 211.7 -21.55 213 -22.4 215.15 -26.1 215.15 -38.85 215.15 -48.85 210 -54.4
L 210.3 -55.05
Q 210.8 -55.3 210.8 -55.7
M 200.45 -50.7
L 201.55 -50.75 202.2 -50.25
Q 205.5 -39.75 205.5 -35.4 205.5 -33.6 203.85 -29.6 202 -24.95 200.45 -24.95
L 200.35 -24.9
Q 200.15 -24.9 199.9 -25.1 197 -25.85 196.65 -27 196.55 -28.7 196.45 -30.45 195.9 -39.9 197.35 -48.8 197.5 -49.15 200.45 -50.7
M 138.05 -10.7
Q 137.8 -10.45 137.4 -9 137.1 -7.75 136.55 -7.75 136.05 -7.75 135.85 -8.35 135.65 -8.95 135 -8.95 134.8 -8.95 134.55 -8.7
L 133.95 -8.5 133.8 -8.55 132.95 -8.3
Q 132.2 -8.3 132.2 -7.7 132.2 -3.5 132.65 4.85 133.1 13.25 133.1 17.45 133.1 17.7 133.5 17.95 133.85 18.1 133.85 18.4 133.85 18.85 133.8 19.6 133.7 20.4 133.7 20.8 133.7 23.5 134.4 23.5 135.1 23.5 135.35 22.7 135.6 21.9 136.1 21.9 136.65 21.9 136.85 22.35 137 22.85 137.55 22.85 138.25 22.85 138.25 22.3 138.25 21.2 138.25 18.95 138.2 16.7 138.2 15.55 138.2 15.4 138.45 15.15
L 138.9 14.8
Q 139.3 12.75 139.3 10.25 139.3 7.95 138.8 3.35 138.3 -1.2 138.3 -3.5
L 138.3 -3.55
Q 138.3 -7.1 139.2 -10.15
L 139.25 -10.4
Q 139.25 -10.75 138.6 -10.85
L 138.05 -10.7
M 129.05 -10.85
L 128.5 -10.7
Q 128.25 -10.45 127.85 -9 127.5 -7.75 127 -7.75 126.5 -7.75 126.3 -8.35 126.1 -8.95 125.45 -8.95 125.25 -8.95 124.95 -8.7
L 124.35 -8.5 124.25 -8.55 123.4 -8.3
Q 122.65 -8.3 122.65 -7.7 122.65 -3.5 123.1 4.85 123.55 13.25 123.55 17.45 123.55 17.7 123.95 17.95 124.3 18.1 124.3 18.4 124.3 18.85 124.25 19.6 124.15 20.4 124.15 20.8 124.15 23.5 124.85 23.5 125.5 23.5 125.8 22.7 126.05 21.9 126.55 21.9 127.1 21.9 127.25 22.35 127.45 22.85 128 22.85 128.7 22.85 128.7 22.3 128.7 21.2 128.7 18.95 128.65 16.7 128.65 15.55 128.65 15.4 128.9 15.15
L 129.35 14.8
Q 129.75 12.75 129.75 10.25 129.75 7.95 129.25 3.35 128.75 -1.2 128.75 -3.5
L 128.75 -3.55
Q 128.75 -7.1 129.65 -10.15
L 129.7 -10.4
Q 129.7 -10.75 129.05 -10.85
M 160.9 -56.6
Q 160.65 -57.2 159.55 -57.05 158.45 -57.05 158.75 -55.3
L 158.4 -54.5
Q 158.2 -54.5 157.8 -54.5 157.4 -54.45 157.25 -54.45 156.25 -54.45 155.95 -55 155.65 -55.55 155.4 -56.1
L 154.75 -56.65 153.8 -56.65 153.2 -56.15 153.2 -55.5
Q 153.2 -53 154 -47.9 154.95 -42.9 154.95 -40.3 154.95 -39.5 154.75 -38.25 154.5 -36.4 154.5 -36 154.3 -34.15 154.5 -21.05 154.5 -17.3 154 -13.05 153.5 -8.75 153.45 -9.1 153.5 -8.2 154.95 -8.2 155.25 -8.2 155.6 -8.45 155.95 -8.75 156.25 -8.75 157.3 -8.75 157.5 -7.75 157.7 -6.75 158.65 -6.75 159.65 -7.15 160.65 -7.35
L 162.25 -6.35 163.15 -6.35 163.7 -6.75
Q 164.55 -8.1 163.9 -22.95
L 164.55 -23.6 165.5 -23.6
Q 170.75 -21.75 174.95 -20.95 175.5 -20.85 176.2 -20.7
L 177.15 -20.85
Q 177.55 -21 177.95 -21.4 178.8 -21.55 180.05 -22.4 182.2 -26.1 182.2 -38.85 182.2 -48.85 177.1 -54.4
L 177.35 -55.05
Q 177.85 -55.3 177.85 -55.7 177.85 -56.6 176.6 -56.6 175.75 -56.6 170.9 -54.4 166.15 -52.15 165.65 -52.15 165 -52.15 164.8 -53 164.6 -53.5 164.8 -54.6
L 164.9 -55.75 164.6 -56.35 163.6 -56.65
Q 162.6 -56.3 161.75 -56.1
L 160.9 -56.6
M 168.6 -50.75
L 169.2 -50.25
Q 172.55 -39.75 172.55 -35.4 172.55 -33.6 170.9 -29.6 169.05 -24.95 167.5 -24.95
L 167.4 -24.9
Q 167.2 -24.9 166.95 -25.1 164.05 -25.85 163.7 -27 163.6 -28.7 163.55 -30.45 163 -39.9 164.4 -48.8 164.55 -49.15 167.5 -50.7
L 168.6 -50.75
M 125.6 -56.1
Q 124.1 -56.1 122.75 -53 121.7 -50.5 121.65 -48.8
L 122 -48.15 122.85 -47.95
Q 123.7 -47.95 124 -48.55
L 124.85 -49 125.75 -48.7
Q 126.25 -48.25 126.85 -48.3 128.15 -48.55 128 -48.55 128.2 -48.55 128.7 -48.35 129.2 -48.15 129.55 -48.15 130.3 -48.15 132.65 -51.25 135 -54.3 135.35 -54.4 136.3 -54.5 136.95 -54.5 139.35 -54.5 139.35 -46.4
L 139.35 -44.2 139.05 -43.65
Q 134.65 -43.35 130 -43.05 123.3 -42.55 123.45 -41.1 121.65 -35.05 121.65 -31 121.65 -29.9 122.35 -29.7 123.15 -29.45 123.3 -29.05
L 124.1 -25.25
Q 124.2 -24.6 125.05 -24.5
L 125.95 -24.6
Q 126.15 -24.7 126.7 -24.7 127.15 -24.7 127.55 -24.25 127.95 -23.8 128.55 -23.8 129.2 -23.8 129.8 -24.25 130.4 -24.7 132.1 -24.55 132.9 -24.7 134.8 -25.45
L 136.7 -26.2
Q 137.6 -26.2 137.85 -25.15 138.1 -24.1 139.15 -24.1 139.5 -24.1 140.4 -24.5 140.45 -24.55 141.7 -27.3 142.65 -29.35 143.4 -29.35 144.35 -29.35 144.35 -28.25
L 144.7 -27.65 145.6 -27.35
Q 147.3068359375 -27.642578125 147.05 -27.65 147.1125 -27.65 147.2 -27.65 147.3 -27.6 147.35 -27.6
L 147.9 -26.85 147.85 -26.85
Q 148 -26.15 147.3 -25.8
L 147.2 -25.7
Q 147.2 -24.9 148.5 -24.75 150.35 -24.75 150.45 -27.75 150.45 -29.55 149.35 -40.45 148.35 -51.4 148.35 -54 148.35 -54.85 148.4 -55.15 148.4 -56.05 147.2 -56.05 145.85 -56.05 145.85 -54.5 145.85 -54.3 145.85 -54 145.85 -53.6 145.85 -53.45 145.85 -52 144.7 -52 143.85 -52 142.9 -54.2 141.9 -56.35 140.85 -56.35 140.6 -56.35 140.05 -56.2 139.6 -56.05 139.35 -56.05 139.15 -56.05 138.65 -56.2 138.1 -56.35 137.8 -56.35 137.05 -56.35 130.1 -55.4 129.95 -55.3 129.05 -54.8 128.15 -54.3 127.7 -54.3 126.85 -54.3 126.7 -55.5 126.15 -56.1 125.6 -56.1
M 135.7 -41.25
Q 136 -41 136.15 -41
L 136.15 -40.95
Q 137.25 -39.15 138.9 -38.4
L 139.35 -37.75
Q 138.9 -30.85 137.9 -29.75 137.25 -28.9 133.65 -27
L 132.7 -26.85 131.95 -27.3
Q 130 -32.1 130 -36.2 130 -37.05 130.2 -38.35 130.55 -39.9 130.55 -40.45 130.55 -40.5 130.65 -40.8 130.6 -41 130.65 -41.15
L 131.5 -41.4
Q 133.9 -41.55 135.1 -41.55 135.35 -41.55 135.7 -41.25
M 77.8 -8.35
Q 77.95 -6.1 78.55 -0.45 79.1 4.5 79.1 7.35 79.1 7.9 78.55 7.9
L 77.6 7.65 77.1 7.8 76.85 8.2 77.1 8.6 77.6 8.8
Q 78.45 8.55 78.5 8.55 79.1 8.55 79.1 9
L 79 20.9
Q 79.7 20.9 80.5 21 81.35 21.05 81.4 21.5 81.4 22 81.4 22.5 81.45 23.15 81.9 23.25
L 82.5 23.25 82.85 23
Q 83.2 22.4 83.2 21.7 83.2 21.6 83.25 21.45 83.35 21.35 83.35 21.3
L 83.85 21.1 84.3 21.2 84.55 21.55
Q 84.55 22.2 85.3 22.2 86.1 22.2 86 21.7
L 85.2 10.05
Q 85.15 9.55 85.8 9.55 87 9.4 88.6 9.4 89.7 9.35 91.5 9.4 93.7 9.45 94.35 9.45
L 94.75 9.55 94.95 9.9 95 17.6
Q 95 17.7 94.9 17.85 94.7 18.05 94.7 18.15 94.7 20.35 95.65 20.35
L 96.1 20.55 96.25 20.9 96.15 21.8 96.4 22.2 96.9 22.35
Q 97.3 22.35 97.6 22 97.85 21.6 98.2 21.6 98.6 21.6 98.85 22 99.1 22.35 99.6 22.35 100.15 22.35 100.25 22
L 100.7 21.6
Q 101.3 21.7 101.85 21.9 102.6 21.9 102.6 20.9
L 102.5 20.9
Q 102.5 17 102.35 16.05 102.3 15.7 101.8 15.55 101.25 15.4 101.25 15.1 101.25 12.85 101.6 8.55 101.9 4.25 101.9 2.15 102 -7.7 101.1 -8.7
L 100.65 -8.9 100.2 -8.7 99.95 -8.4 99.95 -6.9
Q 99.95 -6.5 99.35 -6.35
L 98.7 -6.35 98.35 -6.7
Q 98.35 -7.8 97.75 -9.75
L 97.25 -9.9 96.7 -9.75 96.5 -9.35 96.55 -9.1 96.4 -8.75 95.9 -8.6
Q 95.3 -8.5 95.25 -8.05 94.95 -5.55 94.95 6.4 94.95 6.75 94.35 6.85 92.75 7.05 90 7 86.95 7 85.7 7.1
L 85.2 7 85 6.65
Q 84.75 2.1 84.75 -1.55 84.75 -2.6 84.85 -4.75 84.95 -6.9 84.95 -8.05 84.95 -8.6 84.3 -8.5 83.6 -8.5 83.55 -7.85 83.5 -7.25 83.45 -6.7 83.45 -5.85 82.75 -5.85 82.05 -5.85 82.05 -7.55 82.05 -8.5 81.75 -8.85 80.85 -8.85 80.55 -8.65
L 80.6 -8.35
Q 80.6 -7.85 80 -7.8 79.5 -7.8 79.05 -8.65
L 78.55 -8.8 78 -8.65 77.8 -8.35
M 78.35 -75.45
Q 78.55 -71.7 79.55 -62.35 80.5 -54.1 80.5 -49.3 80.5 -48.4 79.55 -48.4
L 78 -48.8 77.15 -48.55 76.75 -47.9 77.15 -47.25 78 -46.95
Q 79.35 -47.35 79.45 -47.35 80.5 -47.35 80.5 -46.6
L 80.3 -26.75
Q 81.45 -26.75 82.85 -26.6 84.2 -26.45 84.3 -25.7 84.3 -24.9 84.3 -24.1 84.4 -23 85.15 -22.8
L 86.1 -22.8 86.75 -23.25
Q 87.3 -24.2 87.3 -25.45 87.3 -25.6 87.45 -25.8 87.55 -26 87.55 -26.1
L 88.4 -26.4 89.15 -26.2 89.55 -25.65
Q 89.55 -24.55 90.85 -24.55 92.2 -24.55 92 -25.45
L 90.65 -44.85
Q 90.55 -45.65 91.7 -45.65 93.7 -45.9 96.35 -45.9 98.1 -46 101.1 -45.9 104.8 -45.85 105.9 -45.85
L 106.6 -45.65 106.95 -45.1 107 -32.25
Q 107 -32.1 106.8 -31.8 106.5 -31.45 106.5 -31.35 106.5 -27.65 108.1 -27.65
L 108.8 -27.35 109.05 -26.75 108.9 -25.25 109.3 -24.55 110.15 -24.35
Q 110.8 -24.35 111.3 -24.95 111.8 -25.55 112.3 -25.55 112.95 -25.55 113.4 -24.95 113.85 -24.35 114.7 -24.35 115.55 -24.35 115.75 -24.95
L 116.45 -25.55
Q 117.55 -25.4 118.35 -25.1 119.6 -25.1 119.6 -26.75
L 119.5 -26.75
Q 119.5 -33.25 119.25 -34.8 119.15 -35.4 118.3 -35.65 117.4 -35.95 117.4 -36.4 117.4 -40.15 117.95 -47.3 118.5 -54.5 118.5 -58 118.65 -74.45 117.2 -76.1
L 116.45 -76.4 115.65 -76.1 115.3 -75.6 115.3 -73.05
Q 115.3 -72.4 114.25 -72.15
L 113.15 -72.15 112.55 -72.8
Q 112.55 -74.55 111.6 -77.85
L 110.75 -78.15 109.85 -77.85 109.5 -77.2 109.6 -76.75 109.3 -76.2 108.5 -75.9
Q 107.55 -75.75 107.4 -75 106.95 -70.85 106.95 -50.9 106.95 -50.3 105.9 -50.15 103.25 -49.8 98.65 -49.9 93.6 -49.9 91.45 -49.75
L 90.65 -49.9 90.35 -50.5
Q 89.9 -58.1 89.9 -64.15 89.9 -65.95 90.1 -69.5 90.3 -73.1 90.3 -75 90.3 -75.95 89.15 -75.8 88 -75.8 87.9 -74.7 87.8 -73.65 87.7 -72.8 87.7 -71.3 86.6 -71.3 85.45 -71.3 85.45 -74.15 85.45 -75.8 84.9 -76.35 83.45 -76.35 82.9 -75.95
L 82.95 -75.45
Q 82.95 -74.7 81.95 -74.55 81.2 -74.55 80.4 -75.95
L 79.55 -76.25 78.65 -75.95 78.35 -75.45 Z"/>
</g>
</defs>

<g transform="matrix( 1, 0, 0, 1, -74.6,-117) ">
<g transform="matrix( 1, 0, 0, 1, 0,0) ">
<use xlink:href="#S_mbolo_2_0_Layer0_0_FILL"/>
</g>
</g>

<g transform="matrix( 1, 0, 0, 1, -1.15,-117) ">
<g transform="matrix( 1, 0, 0, 1, 0,0) ">
<use xlink:href="#S_mbolo_3_0_Layer1_0_FILL"/>
</g>

<g transform="matrix( 1, 0, 0, 1, 0,0) ">
<use xlink:href="#S_mbolo_3_0_Layer0_0_FILL"/>
</g>

<g transform="matrix( 0.2594146728515625, 0.093017578125, -0.1164703369140625, 0.3248138427734375, 209.6,355.65) ">
<g transform="matrix( 1, 0, 0, 1, 0,0) ">
<use xlink:href="#S_mbolo_1_0_Layer1_0_FILL"/>
</g>

<g transform="matrix( 1, 0, 0, 1, 0,0) ">
<use xlink:href="#S_mbolo_1_0_Layer0_0_FILL"/>
</g>
</g>

<g transform="matrix( 0.2624969482421875, -0.083984375, 0.10516357421875, 0.328643798828125, 262.5,363.25) ">
<g transform="matrix( 1, 0, 0, 1, 0,0) ">
<use xlink:href="#S_mbolo_1_0_Layer1_0_FILL"/>
</g>

<g transform="matrix( 1, 0, 0, 1, 0,0) ">
<use xlink:href="#S_mbolo_1_0_Layer0_0_FILL"/>
</g>
</g>

<g transform="matrix( 0.2744598388671875, -0.0249786376953125, 0.0312957763671875, 0.3436279296875, 252.95,353.45) ">
<g transform="matrix( 1, 0, 0, 1, 0,0) ">
<use xlink:href="#S_mbolo_1_0_Layer1_0_FILL"/>
</g>

<g transform="matrix( 1, 0, 0, 1, 0,0) ">
<use xlink:href="#S_mbolo_1_0_Layer0_0_FILL"/>
</g>
</g>

<g transform="matrix( 0.2677154541015625, 0.0653839111328125, -0.081878662109375, 0.3351898193359375, 218.35,349.6) ">
<g transform="matrix( 1, 0, 0, 1, 0,0) ">
<use xlink:href="#S_mbolo_1_0_Layer1_0_FILL"/>
</g>

<g transform="matrix( 1, 0, 0, 1, 0,0) ">
<use xlink:href="#S_mbolo_1_0_Layer0_0_FILL"/>
</g>
</g>

<g transform="matrix( 0.2755889892578125, -0.0022430419921875, 0.0028076171875, 0.3450469970703125, 235.45,354.85) ">
<g transform="matrix( 1, 0, 0, 1, 0,0) ">
<use xlink:href="#S_mbolo_1_0_Layer1_0_FILL"/>
</g>

<g transform="matrix( 1, 0, 0, 1, 0,0) ">
<use xlink:href="#S_mbolo_1_0_Layer0_0_FILL"/>
</g>
</g>

<g transform="matrix( 0.2739410400390625, 0.0299835205078125, -0.03753662109375, 0.343017578125, 226.25,362.1) ">
<g transform="matrix( 1, 0, 0, 1, 0,0) ">
<use xlink:href="#S_mbolo_1_0_Layer1_0_FILL"/>
</g>

<g transform="matrix( 1, 0, 0, 1, 0,0) ">
<use xlink:href="#S_mbolo_1_0_Layer0_0_FILL"/>
</g>
</g>

<g transform="matrix( 0.27410888671875, -0.0285797119140625, 0.035797119140625, 0.34320068359375, 244.85,364.1) ">
<g transform="matrix( 1, 0, 0, 1, 0,0) ">
<use xlink:href="#S_mbolo_1_0_Layer1_0_FILL"/>
</g>

<g transform="matrix( 1, 0, 0, 1, 0,0) ">
<use xlink:href="#S_mbolo_1_0_Layer0_0_FILL"/>
</g>
</g>
</g>

<g transform="matrix( 1.0249481201171875, 0, 0, 0.924591064453125, 85.55,113.9) ">
<g transform="matrix( 1, 0, 0, 1, 0,0) ">
<use xlink:href="#texto_0_Layer0_0_FILL"/>
</g>
</g>
</svg>
