
<svg xmlns="http://www.w3.org/2000/svg" version="1.1" xmlns:xlink="http://www.w3.org/1999/xlink" preserveAspectRatio="none" x="0px" y="0px" width="550px" height="400px" viewBox="0 0 550 400">
<defs>
<g id="S_mbolo_14_0_Layer0_0_FILL">
<path fill="#000000" stroke="none" d="
M 12.45 72.35
Q 10.55 73.4 7.4 76.35 4.05 104.85 1.75 133.25 1.7 133.25 1.85 133.45 1.4 139 1 144.7 0.55 146.8 0.4 150.05 -0.5 157 0.55 190.7 1.25 190.65 2.25 190.85 11.6 190.85 17.15 190.55
L 17.25 190.55
Q 17.153125 190.646875 17.15 190.8 17.15 190.9 17.15 191.15 16.95 192.1 16.45 193.7 15.75 196.55 14.2 198.45 12.65 200.35 10.65 200.65 8.6 200.9 8.55 200.7 9.4 205.1 10.25 221.8 11 239.35 11.5 246.95 11.6 253.55 11.65 260.05 11.8 260.4 11.95 260.75 12.15 267.5 12.1 274.5 12.6 278.95 13 287.85 13.3 296.85 13.8 301.25
L 13.8 301.3
Q 13.8005859375 309.92578125 14 318.85 14.21875 321.7169921875 14.3 325.5 14.38125 329.3390625 14.25 332.9 17.70546875 332.8005859375 17.95 332.8 17.55 333.65 17.1 334.75
L 16.9 334.8
Q 13.15 337.55 13.3 339.45 13.142578125 340.8474609375 18.55 340.85 23.967578125 340.906640625 27 340.4 30.02734375 339.88828125 32.05 337.1 40.354296875 336.39609375 47.7 336.45 55.0369140625 336.5111328125 58.7 336.35 62.3673828125 336.2349609375 64.05 335.6 66.8 334.8 66.85 333.15 66.7 332.55 66.2 331.85 65.45 330.9 64.65 330.55 60.85 330.5 57.25 330.35 49.05 328.5 45.3 325.2 48.1 325.0125 48.35 323.4 46.49375 318.6859375 46.9 308.8 46.9791015625 305.164453125 47.15 301.3 48.15625 276.6359375 52.45 242.65 58.25 200.55 58.85 196.85 58.95 195.35 59.3 192.95 59.55 190.2 60.05 186.25 61.35 186.05 62.05 185.85 62.9 185.85 64 185.75 64.95 185.75 65.85 185.7 65.85 184.8 65.85 184
L 65.85 183.95
Q 65.65 154.5 69.75 122.25 91.7 147.55 124.4 164
L 124.9 163.1 130.25 153.45 130.7 152.6
Q 100.6 131.8 67 72.85
L 66.7 72.15
Q 66.7 72.2 66.65 72.25
L 59.85 87.95
Q 59 85.35 57.4 81.9 57.3 81.65 57.25 81.65 59.95 77.6 61.2 74.95 61.25 74.75 61.35 74.55
L 62.05 73.1
Q 59.9 72.8 56.4 71.85 53.9 71.15 51.3 69.55
L 51.65 71.2
Q 52.5 75.05 54.7 80.8 52.5 83.65 50.55 88.1 48.1 81.4 47.7 80.25 46.9 78.9 42.7 65.65 42.5 64.85 42.3 64.05 42.2109375 63.7830078125 42.1 63.5
L 42.15 63.55 40.45 57.9
Q 39.45 56.25 38.95 55.15 32 58.9 25.65 63.5 21.2 66.1 12.45 72.35
M 31.15 331.7
Q 31.1 331.7 31.15 331.75 31.1 331.75 31 331.75 31 331.6 31.15 331.7 Z"/>

<path fill="#FF3333" stroke="none" d="
M 142.75 166.95
Q 144.6416015625 165.3453125 144.6 163.35 144.553125 161.3998046875 138.8 157.6 133.046875 153.855078125 130.25 153.45
L 124.9 163.1
Q 127.0056640625 164.9552734375 131.75 167.4 136.495703125 169.8517578125 138.65 169.2 140.855078125 168.5478515625 142.75 166.95
M 2.1 192.2
Q 2 192.4 2.05 196.55 2.9 199.9 8 200.6 8.15 200.65 8.4 200.65
L 8.35 200.7 8.55 200.7
Q 8.6 200.9 10.65 200.65 12.65 200.35 14.2 198.45 15.75 196.55 16.45 193.7 16.95 192.1 17.15 191.15 17.15 190.9 17.15 190.8 17.15 190.646875 17.15 190.55 11.6 190.85 2.25 190.85 2.05 191.4 2.1 192.2
M 72.45 44.5
Q 75.85 45.75 79.15 46.95 77.05 40.25 74.9 33 74.9 32.55 75.1 32.05 77.25 23.3 76.45 15.9 75.2 1.8 61.5 0.4 52.1 -1.45 47.5 5.75 45.15 9 43.95 16.15 42.1 24.8 40.3 43.85 39.55 51.05 38.95 55.15 39.45 56.25 40.45 57.9 40.55 58.05 40.65 58.2 42.75 61.8 43.45 62.6 47.45 67.1 51.3 69.55 53.9 71.15 56.4 71.85 59.9 72.8 62.05 73.1 63.8 73.3 64.65 73.1 66.35 72.75 66.65 72.25 66.7 72.2 66.7 72.15 69.4 59.7 69.9 57.5 70.45 53.7 72.45 44.5 Z"/>

<path fill="#FFFFFF" stroke="none" d="
M 42.15 63.55
L 42.1 63.5
Q 42.2109375 63.7830078125 42.3 64.05 42.5 64.85 42.7 65.65 46.9 78.9 47.7 80.25 48.1 81.4 50.55 88.1 52.5 83.65 54.7 80.8 52.5 75.05 51.65 71.2
L 51.3 69.55
Q 47.45 67.1 43.45 62.6 42.75 61.8 40.65 58.2 40.55 58.05 40.45 57.9
L 42.15 63.55
M 64.65 73.1
Q 63.8 73.3 62.05 73.1
L 61.35 74.55
Q 61.25 74.75 61.2 74.95 59.95 77.6 57.25 81.65 57.3 81.65 57.4 81.9 59 85.35 59.85 87.95
L 66.65 72.25
Q 66.35 72.75 64.65 73.1 Z"/>
</g>

<g id="S_mbolo_8_0_Layer0_0_FILL">
<path fill="#FFFFFF" stroke="none" d="
M 5.9 4.9
Q 6.45 4.75 6.85 4.7 7.25 4.65 7.6 4.7 7.8 4.65 8 4.7
L 8.05 4.75 8.1 4.75
Q 8.25 4.9 8.5 4.95 8.75 5.05 9.4 4.85 9.7 4.75 10 4.55 10.3 4.35 10.15 3.85 10 3.3 9.2 3.1 8.5 2.95 7.6 2.95 6.65 3.05 5.45 3.3
L 4.7 0.55
Q 4.65 0.15 4.2 0.05 3.8 -0.05 3.35 0.1 2.9 0.2 2.55 0.5 2.3 0.8 2.4 1.15
L 3.2 4.05
Q 2 4.65 1.25 5.55 0.6 6.3 0.2 7.45 -0.2 8.6 0.2 10.3 0.5 11.3 1.4 11.9 2.3 12.55 3.25 12.95 4.35 13.4 5.75 13.7
L 8 22.1
Q 7.3 22.25 6.8 22.25 6.3 22.35 5.8 22.35 5.3 22.35 5.05 22.15 4.95 22.1 4.8 22.05 4.65 22 4.45 21.95 4.25 21.95 4 22 3.3 22.2 3.1 22.55 2.9 22.9 2.95 23.05 3 23.25 3.1 23.4 3.2 23.5 3.25 23.5 3.9 23.9 4.8 23.95 5.65 24.05 6.5 24.05 7.45 23.95 8.45 23.75
L 9.2 26.55
Q 9.35 26.95 9.7 27.1 10.1 27.15 10.55 27.1 11 26.95 11.35 26.65 11.65 26.35 11.55 25.95
L 10.75 23.05
Q 12 22.4 12.9 21.5 13.65 20.7 14.15 19.4 14.65 18.2 14.2 16.45 13.8 15 12.8 14.2 11.7 13.4 10.65 12.95 9.35 12.4 7.85 12.3
L 5.9 4.9
M 2.6 9.55
Q 2.35 8.7 2.5 8 2.6 7.3 2.85 6.85 3.1 6.25 3.65 5.8
L 5.2 11.65
Q 4.5 11.45 4 11.2 3.55 10.9 3.15 10.55 2.75 10.15 2.6 9.55
M 8.4 14.3
Q 9.2 14.5 9.85 14.85 10.45 15.1 11 15.6 11.55 16.05 11.75 16.8 12.1 18.05 11.9 18.85 11.7 19.7 11.3 20.25 10.9 20.9 10.3 21.3
L 8.4 14.3 Z"/>
</g>

<g id="Copia_de_S_mbolo_14_2_0_Layer0_0_FILL">
<path fill="#000000" stroke="none" d="
M 40.45 57.9
Q 39.45 56.25 38.95 55.15 32 58.9 25.65 63.5 21.2 66.1 12.45 72.35 10.55 73.4 7.4 76.35 4.05 104.85 1.75 133.25 1.7 133.25 1.85 133.45 1.4 139 1 144.7 0.55 146.8 0.4 150.05 -0.5 157 0.55 190.7 1.25 190.65 2.25 190.85 11.6 190.85 17.15 190.55
L 17.25 190.55
Q 17.153125 190.646875 17.15 190.8 17.15 190.9 17.15 191.15 16.95 192.1 16.45 193.7 15.75 196.55 14.2 198.45 12.65 200.35 10.65 200.65 8.6 200.9 8.55 200.7 9.4 205.1 10.25 221.8 11 239.35 11.5 246.95 11.6 253.55 11.65 260.05 11.8 260.4 11.95 260.75 12.15 267.5 12.1 274.5 12.6 278.95 13 287.85 13.3 296.85 13.8 301.25 13.75 310.15 13.95 319.05 14.15 321.9 14.25 325.75 14.35 329.55 14.2 333.1 17.65 333 17.9 333 17.5 333.85 17.05 334.95
L 16.85 335
Q 13.1 337.75 13.25 339.65 13.1 341.05 18.5 341.1 23.9 341.1 26.95 340.6 30 340.1 32 337.3 40.3 336.6 47.65 336.65 55 336.7 58.65 336.6 62.3 336.45 64 335.8 66.75 335 66.8 333.35 66.65 332.75 66.15 332.05 65.4 331.1 64.6 330.75 60.8 330.7 57.2 330.55 49 328.7 45.25 325.4 48.05 325.2 48.3 323.6 46.45 318.9 46.85 309 46.95 305.35 47.15 301.25 48.1607421875 276.601171875 52.45 242.65 58.25 200.55 58.85 196.85 58.95 195.35 59.3 192.95 59.55 190.2 60.05 186.25 61.35 186.05 62.05 185.85 62.9 185.85 64 185.75 64.95 185.75 65.85 185.7 65.85 184.8 65.85 184
L 65.85 183.95
Q 65.65 154.5 69.75 122.25 91.7 147.55 124.4 164
L 124.9 163.1 130.25 153.45 130.7 152.6
Q 100.6 131.8 67 72.85
L 66.7 72.15
Q 66.7 72.2 66.65 72.25
L 59.85 87.95
Q 59 85.35 57.4 81.9 57.3 81.65 57.25 81.65 59.95 77.6 61.2 74.95 61.25 74.75 61.35 74.55
L 62.05 73.1
Q 59.9 72.8 56.4 71.85 53.9 71.15 51.3 69.55
L 51.65 71.2
Q 52.5 75.05 54.7 80.8 52.5 83.65 50.55 88.1 48.1 81.4 47.7 80.25 46.9 78.9 42.7 65.65 42.5 64.85 42.3 64.05 42.2109375 63.7830078125 42.1 63.5
L 42.15 63.55 40.45 57.9
M 31.1 331.9
Q 31.05 331.9 31.1 331.95 31.05 331.95 30.95 331.95 30.95 331.8 31.1 331.9 Z"/>

<path fill="#FF3333" stroke="none" d="
M 142.75 166.95
Q 144.6416015625 165.3453125 144.6 163.35 144.553125 161.3998046875 138.8 157.6 133.046875 153.855078125 130.25 153.45
L 124.9 163.1
Q 127.0056640625 164.9552734375 131.75 167.4 136.495703125 169.8517578125 138.65 169.2 140.855078125 168.5478515625 142.75 166.95
M 2.1 192.2
Q 2 192.4 2.05 196.55 2.9 199.9 8 200.6 8.15 200.65 8.4 200.65
L 8.35 200.7 8.55 200.7
Q 8.6 200.9 10.65 200.65 12.65 200.35 14.2 198.45 15.75 196.55 16.45 193.7 16.95 192.1 17.15 191.15 17.15 190.9 17.15 190.8 17.15 190.646875 17.15 190.55 11.6 190.85 2.25 190.85 2.05 191.4 2.1 192.2
M 72.45 44.5
Q 75.85 45.75 79.15 46.95 77.05 40.25 74.9 33 74.9 32.55 75.1 32.05 77.25 23.3 76.45 15.9 75.2 1.8 61.5 0.4 52.1 -1.45 47.5 5.75 45.15 9 43.95 16.15 42.1 24.8 40.3 43.85 39.55 51.05 38.95 55.15 39.45 56.25 40.45 57.9 40.55 58.05 40.65 58.2 42.75 61.8 43.45 62.6 47.45 67.1 51.3 69.55 53.9 71.15 56.4 71.85 59.9 72.8 62.05 73.1 63.8 73.3 64.65 73.1 66.35 72.75 66.65 72.25 66.7 72.2 66.7 72.15 69.4 59.7 69.9 57.5 70.45 53.7 72.45 44.5 Z"/>

<path fill="#FFFFFF" stroke="none" d="
M 51.3 69.55
Q 47.45 67.1 43.45 62.6 42.75 61.8 40.65 58.2 40.55 58.05 40.45 57.9
L 42.15 63.55 42.1 63.5
Q 42.2109375 63.7830078125 42.3 64.05 42.5 64.85 42.7 65.65 46.9 78.9 47.7 80.25 48.1 81.4 50.55 88.1 52.5 83.65 54.7 80.8 52.5 75.05 51.65 71.2
L 51.3 69.55
M 64.65 73.1
Q 63.8 73.3 62.05 73.1
L 61.35 74.55
Q 61.25 74.75 61.2 74.95 59.95 77.6 57.25 81.65 57.3 81.65 57.4 81.9 59 85.35 59.85 87.95
L 66.65 72.25
Q 66.35 72.75 64.65 73.1 Z"/>
</g>
</defs>

<g transform="matrix( 1, 0, 0, 1, 145.95,39.05) ">
<g transform="matrix( 1, 0, 0, 1, 0,0) ">
<g transform="matrix( 1, 0, 0, 1, 0,0) ">
<use xlink:href="#S_mbolo_14_0_Layer0_0_FILL"/>
</g>

<g transform="matrix( 0.9659271240234375, 0.2588043212890625, -0.2588043212890625, 0.9659271240234375, 56,3.75) ">
<g transform="matrix( 1, 0, 0, 1, 0,0) ">
<use xlink:href="#S_mbolo_8_0_Layer0_0_FILL"/>
</g>
</g>
</g>

<g transform="matrix( -1, 0, 0, 1, 271.3,0) ">
<g transform="matrix( 1, 0, 0, 1, 0,0) ">
<use xlink:href="#Copia_de_S_mbolo_14_2_0_Layer0_0_FILL"/>
</g>

<g transform="matrix( -0.9659271240234375, 0.2588043212890625, 0.2588043212890625, 0.9659271240234375, 62.9,3.75) ">
<g transform="matrix( 1, 0, 0, 1, 0,0) ">
<use xlink:href="#S_mbolo_8_0_Layer0_0_FILL"/>
</g>
</g>
</g>
</g>
</svg>
