
<svg xmlns="http://www.w3.org/2000/svg" version="1.1" xmlns:xlink="http://www.w3.org/1999/xlink" preserveAspectRatio="none" x="0px" y="0px" width="550px" height="400px" viewBox="0 0 550 400">
<defs>
<g id="S_mbolo_1_0_Layer0_0_FILL">
<path fill="#000000" stroke="none" d="
M 45.15 5.15
L 43.3 5.15 42.2 6.65 42.55 7.1 41.5 8.7 41.7 9.2 40.1 11.05
Q 40.35 11.05 40.45 11.25
L 40.35 11.4
Q 40.2 11.4 40.05 11.4
L 39.95 11.5
Q 40 11.6 40.3 11.65
L 38.1 13.6 38.25 15.3
Q 34.7 18.85 32.6 22.9
L 31.7 23.35 31.6 24
Q 31.4 24 31.25 24.1 29.85 24.8 29.35 26.25
L 29.65 27.05
Q 29.4 27.3 29.1 27.65 28.1 28.65 26.9 29.35 25.95 29.85 26.45 30.55
L 22.7 33.6 22.7 34.15 16.05 40.75 14.05 41.3
Q 13.15 42.45 12 43.2 8.65 45.5 5 47.45 4.65 47.8 4.3 48.1
L 4.4 46.5 4.1 45.9 4.55 45.5 3.95 44.65
Q 4.1 44.5 4.15 44.4 4.65 43.8 5 43.15
L 4.2 42.9 5.4 40.6 4.8 39.25 5.95 36.3 5.65 35.85 6.45 34.75 6.15 33.05 7 32.2 6.75 31.55 7.45 30.5
Q 7.35 30.2 7.25 29.95
L 8.35 28.9 8.35 28 8.9 27.45 8.85 26.3 10.35 24.2 10.1 23.4 10.8 22.5 11 20.6 11.95 19.8 12.8 18.2
Q 12.65 18.05 12.65 17.95 12.65 17.45 12.9 17
L 13.5 16.75 14.05 14.95 14.45 14.3 13.35 14.3 14 13.6 10.55 14.35 9.4 17.4 8.35 17.7 7.6 19.2 8.3 19.8 8.3 19.85
Q 5.75 23.15 5.35 26.55 5.1 26.55 5 26.65 4.45 28.05 4.1 29.6
L 2.55 31.8 3.4 32.15
Q 3.3 32.25 3.3 32.4
L 3.4 32.5 3.4 32.65 2.9 33.15 3.1 33.65 1.95 36.3 2 37.8
Q 1.75 37.95 1.75 38.05
L 1.55 39.5 1.6 40.35 1.15 41.45 1.6 41.95 0.65 43.2 0.75 43.9 0.8 44 0.9 44.65
Q 0.55 45.1 0.45 45.65 0.45 45.75 0.7 45.75
L 0.9 46.75 0.15 47.35 0.55 48.8 0 49.4 1.25 49.4 0.7 50 4.55 50.25 7 49.5 7.45 48.9 9.25 48.65 9.5 48.1 13.3 46.6
Q 14 45.5 15 44.75 17 43.15 19.4 42.05 19.6 41.35 20.05 40.85 23.25 37.65 26.55 34.6
L 27.3 33.6 27.1 33 27.95 32.65 28.2 32.2 28.85 31.9 30.1 30.55 30.75 29.25 31.7 28.85
Q 32.2 27.05 34.1 26.25 34.8 23.75 37.05 22.75
L 37.4 21.15 39.15 18.95 38.9 18.45 39.55 18.1 41.7 14.8 41.7 14.2 43.2 12.9 44.25 10.3 45.65 8.8 45.15 8.05 46 6.95 45.8 5.8 45.15 5.8 45.15 5.15
M 83.5 22.55
L 83.3 22.95 84.65 22.65
Q 84 22.55 83.5 22.55
M 139.05 29.6
L 138.95 30.2 132.75 32.05 130.05 33.5 128.45 35.15 126.85 35.4 123.2 38.5 121.8 38.75 118.3 41.6 117.75 42.55 118 43.4 117.65 43.95 117.9 44.65 120.25 46.15 125.9 45.75 126.5 45.35
Q 131.55 44.45 136.6 42.7
L 136.15 45.15 136.8 45.75
Q 136.75 45.85 136.75 46 136.75 46.1 136.85 46.2 136.85 46.25 137.05 46.25 137.1 46.4 137.3 46.4
L 137 47.3 137.9 47.65 138.5 48.45
Q 138.3 48.45 138.15 48.55 138.1 48.65 138.15 48.75
L 138.15 48.8
Q 138.4 48.9 138.75 49 138.9 49 138.95 49.05
L 138.75 49.15 141.1 49.55 141.5 49.05 143.7 48.3 144.15 47.45 143.2 47.35 143.45 46.8 141.95 46.6
Q 141.3 46.85 140.7 46.8 140.6 47 140.45 46.8
L 140.15 44.8 140.7 43.9 139.7 42.55 141.3 40.6 140.65 40.35 140.5 40.25
Q 140.5 40.2 140.7 40.2
L 141.1 39.75 141.2 39.7
Q 141.3 39.6 141.45 39.5 141.5 39.4 141.5 39.35 141.2 39.15 140.9 39.05 141.25 39.05 141.65 38.85 142.4 38.75 142.95 38.3 143.45 37.9 143.7 37.35
L 144.85 36.95 147.7 34.45 148.2 33.25 149.9 31.65 149.9 30.9 150.95 30.6 151.1 30.05 151.65 29.65 151.4 28.9
Q 151.3 28.65 151.1 28.55 150.95 28.5 150.75 28.55
L 150.5 27.9 148.3 28.15 147.9 28.55 148.15 28.05 143 28.4
Q 142.75 28.6 142.4 28.55 140.75 29.15 139.05 29.6
M 140.15 35
L 138.95 36.45 139.7 36.7
Q 138.5 37.4 137.35 38.2 135.1 39.85 132.5 40.6 130.3 41.35 128.95 43
L 121.1 43.6 121.35 43 123.45 40.75 125.55 40.1 125.75 39.6 129.55 37.7 130.25 36.55 131.45 35.95
Q 133.6 36.25 134.95 34.15
L 139.1 33 139.4 32.55 140.25 32.65 142.8 31.3 142.15 32.75 141.4 33 140.15 35
M 125.6 10
L 124 10.15 116.95 18.25 116.95 18.85 113.85 21.25 114 21.8 111.1 25.05 109.1 26.25 106.55 27.25 100.1 27.3 99.45 28.75 100.45 28.85 100.1 29.4 103.2 29.6 107.2 29.2 106.7 29.6 106.6 30.35 104.15 32.75 104.1 33.75 103.2 34.6
Q 102.9 34.5 102.6 34.35
L 101.9 35.5 101.05 35.85 100.6 36.45 95.6 40 93.8 40.2
Q 91.15 43 87.05 43.65
L 86.35 44.65 83.5 45.35 83.05 44.9 78 44.65 77.6 44 76.95 43.9 76.7 42.65 77.55 40.75 77.2 39.4 77.9 38.5 80.35 37.8 80.7 37.2 81.9 36.85 82.35 36.05 88 32.9 90.2 29.85 91.4 29.6 93.65 26.7 94.85 26.4 100.1 20.2 99.75 19.8
Q 100.8 18.5 101.6 17.15 102.4 15.75 104 15.3
L 104 14.8 106.7 9.55 107.3 9 107.85 6.75 106.95 6.7 107.2 6.15 105.4 6 100.95 7.3 100.25 8.35 94.3 12.6 94.25 13.45 91.4 15.7 90.45 17 89.8 17.25 88.55 19.6 87.65 19.8 85.4 22.85 84.8 23.1 84 24.1 84 24.8 82.7 25.9 82.55 26.4 81.9 26.9 82.1 27.75 80.8 28.15 80.1 29.25 80.35 29.75 80.1 30.25 79.5 30.45
Q 78.8 30.6 79.5 30.85
L 78.8 31.05 77.05 33.4 77.4 34 75.15 37.1 74.75 37.95
Q 71.75 38.85 69.05 40.85
L 67.85 40.85
Q 66.15 42.9 63.65 42.65
L 62.5 43.6 60.55 43.4 59.2 44.25 54 45.25 52.35 44.4 52.45 43.55 52.95 43.1 52.8 42.65 53.3 42.15 53.05 41.1
Q 53.9 40 55.05 39.5 58.7 38.2 62.3 36.7
L 64.9 35.85
Q 67.5 35.75 69.4 34.55 70.3 34 70.9 33.3 72.4 31.65 73.95 29.6
L 73.9 28.9
Q 73.05 29 73.4 28.35
L 72.65 27.7 65.75 27.9
Q 64.3 29.7 61.9 29.7
L 51.55 37.65 44.3 38.45 43.85 38 46.1 35.85 46.35 34.85 48.4 34.35 50.45 30.85
Q 49.85 30.25 50.7 30.05 50.7 29.95 50.6 29.85 50.55 29.75 50.5 29.75 48.8 29.75 49.85 29.6
L 46.05 28.9 45.35 30 46.35 30.35 45.25 32.4 43.95 32.5 41.7 34.85 41.05 35.85
Q 41.9 36.55 40.55 37.55
L 39.75 37.95 40.55 38.2
Q 37.75 37.9 36.8 40.15
L 34.55 40.95 32 42.45 31.6 43.1 30.55 43.2 30.2 43.8 29.6 43.6 29.4 43.1 30.45 41.35
Q 29.75 41.45 29.9 40.75 30.8 39.95 31.6 39 32.25 38.15 32.9 37.2 33.6 36.2 34.65 35.5 37.75 33.5 40.4 30.45
L 39.25 30.45 39.75 29.75 36.8 29.7 34.55 32.2
Q 35.4 32.15 34.95 32.4
L 34.1 32.4 29.65 36.8 26.75 39 26.75 40.15 26.2 40.45 25.6 44.2 26.3 44.25 26.25 44.8 27.15 44.85 28.2 46.15
Q 31.85 45.75 34.8 44.5
L 35.15 44.05 36.1 43.9 38 43 38 42.45 38.55 41.6 41.3 39.75 46.45 41.3 50.6 40.35 49.95 40.7 48.55 43.05 49.2 43.8 48.9 44.3 49.85 45.15 50.1 46
Q 50.45 46.35 50.8 46.6
L 52.65 46.95 52.9 47.6 57.55 47.3 58 46.6 59.4 46.8 60.15 46.1
Q 63 45.5 65.55 45.25
L 66.2 44.4 70.05 43.2 70.45 42.75 72.25 41.45 73.05 41.7 73.2 43.2 73.55 43.8 73.4 44.9
Q 73.7 45.25 74.1 45.6 76.2 47.35 78.95 47.6 80 47.45 81 47.6 83.3 47.95 85.75 47.35
L 86.35 46.6 87.45 46.8 88.3 46.2 89.3 46.2 96.25 42.15 96.7 41.45 97.75 41.1 98.15 40.25 98.6 40.45 96.4 42.45
Q 96.4 42.5 96.4 42.55 96.35 42.65 96.25 42.7
L 95.55 43.9
Q 95.75 43.95 95.75 44.15 95.8 44.5 95.55 44.85 95.05 45.5 94.5 46
L 93.3 48.3 94.35 48.4 94 48.95
Q 99.5 48.75 104.35 47.65
L 104.75 47.05 108.25 46.45
Q 108.35 46.45 108.45 46.45 108.45 46.4 108.45 46.35 108.4 46.2 108.4 46.15 108.25 46.15 108.1 46.2
L 108.7 45.75
Q 110.7 46.5 112.5 45.6 114 44.9 114.85 43.65
L 113.9 43.35
Q 113.85 42.4 112.3 42.9 110.45 43.6 108.7 44.4
L 108.5 44.5 103.55 44.8 102.85 45.5 100 45.65
Q 100.05 45.75 100.15 45.85 100.15 45.9 100.15 45.95 100.05 46 100 46.1
L 98.95 45.95 98 46.4 98.7 45.65 98.95 44.25 99.55 43.95 99.45 43.4 104.75 37.1
Q 104.5 36.45 105.4 36.35
L 105.05 36.35
Q 105.4 35.95 105.45 35.4 105.45 35.6 105.9 35.4
L 107.6 33.6 109.65 32.8 109.95 31.8 109.7 31.8
Q 110.35 31.2 112.95 30.25
L 114.1 28.85
Q 114.8 28.6 114 28.3
L 116.45 27.2
Q 118.35 28.05 119.55 26.85 121.7 26.65 123.9 26.5
L 124.55 25.9
Q 126.15 25.95 127.7 25.7 132.85 24.6 138.05 24.2
L 138.5 23.7 139.7 23.5 140.65 22.3
Q 139.4 22.3 139.95 21.7 138.1 21.05 136.15 21.55 134.35 22.15 132.5 22.6 129.8 22.9 127.15 23.25 122.75 24 118.3 24.9
L 118.8 23.85 120.6 22.55 121.1 21.15 123.5 19.55 123.45 18.85 125.4 16.65 126.1 16.55 126.1 15.9 126.65 15.7 127.05 14.6 129.8 10.3 129.7 9.75 129 9.15 129.4 7.6 128.6 7.6 128.7 7 127.4 7 127.05 7.6 126.5 7.85 125.9 8.8 125.6 10
M 101.45 10.55
L 101.55 10.05 103.15 9.65
Q 103.4 9.5 103.45 9.65
L 103.2 9.9 103.2 10.45 102.6 11.05 102.8 11.65 98.95 15.9 97.75 18.9 97.2 19.6 95.85 20.05 95.2 21.05 95.3 21.55 91.9 24 90.6 26.25
Q 85.9 30.55 80.8 33.95
L 82.05 32.2
Q 82.3 31.95 82.5 31.7 83.15 30.85 83.75 29.85 83.8 29.7 83.3 29.75
L 84.25 28.75 85.45 28.15
Q 86.45 26.15 87.85 24.5 90 22 92.25 19.6 92.95 18.95 93.3 18.05
L 93.8 17.6 93.8 17 95.35 15.9
Q 95.65 15.2 96.15 14.8 97.75 13.5 99.65 12.45
L 100.3 10.95 101.45 10.55
M 119.65 19.95
L 119 19.95 120.05 18.75 119.65 19.95
M 89.2 29.95
L 89.2 30 89.15 30.05
Q 89.15 29.95 89.15 29.85
L 89.2 29.95
M 103.9 34.6
Q 104 34.5 104.15 34.45 104.85 34.8 103.9 34.6
M 107.2 45.4
L 108 45.15 109.05 45.5 107.2 45.4
M 59.1 35
L 56.9 36.25 58.65 35.1 58.95 34.55 60.25 34 61.55 32.75
Q 62.9 32.5 64.1 32.05 64.55 31.95 64.9 31.7 65.9 30.9 67.2 30.6
L 67.55 29.95 69.4 29.7
Q 69.55 29.5 69.75 29.5 70.45 29 70.05 29.5 68.6 31.05 66.95 32.15 65.5 33.05 63.75 33.5
L 61.25 35.1 59.1 35
M 243.25 15.3
L 243.4 15.05 243.65 14.35
Q 243.3 14.05 242.9 13.75 240.5 11.8 237.65 11.05 237.15 11.5 236.65 11.9 234.55 13.75 231.95 13.95
L 227.1 18.85 221.1 22.75 221 23.25 218.8 25.9 217.95 26.05 217.25 27.05 217.15 27.65 215.75 28.15 215 30.55
Q 213.85 31.65 212.75 32.8 211.15 34.5 210.25 36.7
L 211.15 36.85
Q 211.05 37.1 210.9 37.35 209.6 39.95 207.1 41.3 206.35 41.3 205.7 41.45 205.1 41.7 204.65 42.2
L 203.45 42.3 202.45 43.35 201.5 43.55 200.85 44.2 196.4 44.85 195.7 45.65 192.4 46.35 191.75 45.75 192.65 43.8 192.3 43.1 193.95 41.35 193.85 40.75 195.15 39.75 194.75 39.05 195.45 37.55 196.55 37.2
Q 196.55 37.05 196.7 36.95 196.8 36.7 197.1 36.55
L 196.4 35.95 196.25 35.85
Q 197.2 34.2 199 33.5
L 199.3 32.8 199.85 32.65 200.35 30.9 201.8 30.25 202.95 28.55 204.25 28 204.85 26.8 203.95 26.65 204.15 26.2
Q 203.45 26.15 202.8 26.05 201.15 25.9 200.3 27.3
L 196.2 27.55 194.2 28.75
Q 191.95 29.2 189.8 29.85 188.5 30.35 187.3 31.1
L 186.05 31.3 184.15 32.2 183.65 32.9 182.2 33.25 181.95 33.85
Q 177.8 36.1 173.7 38.45
L 171.9 40.5 172.15 41.05 170.35 43.2 170.65 43.65 168.8 46.25 169.55 46.8 169.7 47.3 175.25 47.45 175.7 47.8 177.25 47.6 178.25 46.6
Q 180.4 45.9 182.65 45.3
L 183.25 44.05 186.25 43.45 186.75 42.65 186.75 42.05 187.7 41.2 190.5 40 190.25 40.5 190.8 41.05 188.15 44.05 188.2 45.1 188.65 46.35 189.2 46.5 188.95 47.3
Q 189.9 47.9 190.75 48.3 193.7 48.05 196.7 47.85
L 196.5 47.25 198.75 47.45 201.15 45.15 203.7 45.65
Q 203.85 45.3 204.25 45.15 205.7 44.4 207.25 43.8
L 208.05 42.65 209.35 42.9 209.8 42.3 211.7 44
Q 213.65 44.75 215.7 45.25 218.05 45.5 220.4 45.25 223.55 44.65 226.7 44.3 226.9 44.05 227.2 44.05 228.7 43.55 230.3 43.2
L 233.35 41.95
Q 233.35 41.9 233.35 41.85 233.2 41.7 233.15 41.6
L 233.05 41.45
Q 233.25 41.35 233.45 41.3 233.6 41.3 233.85 41.3 233.5 41.1 233.2 41
L 232.65 41.1
Q 232.55 41.05 232.45 41 232.4 40.85 232.45 40.75 232.55 40.7 232.7 40.7 232.9 40.7 233.15 40.7
L 232.15 40.35 231.7 40.75 229.55 40.7 228.55 41.45
Q 226.65 41.9 224.8 42.45 219.6 43.8 214.7 43
L 214.8 42.3
Q 214.3 42.3 213.85 42.3
L 213.95 42.15
Q 214.05 42.1 214.1 41.95
L 212.75 40.45
Q 213.15 40.35 213.65 40.35 215.45 40.2 216.3 38.75
L 220.5 36.85 221.1 35.6 222.55 35.1 222.8 34.55 224.3 34 224.8 33.1 227 32.5
Q 228.1 30.35 230.3 30.2
L 232.45 27.55 235.15 26.9 240.7 20.9 240.2 20.2 241.85 18.7 241.75 18 242.9 16.85 243.25 15.3
M 224.15 24.25
L 224.45 23.4 228.3 21.3 228.9 20.1 229.7 19.8 233 16.6 235.3 15.65
Q 235.7 14.3 237.7 13.85 238.45 14.05 239.25 14.3
L 238.4 18.7
Q 234.75 22.3 231.05 25.75 229.6 27.05 228.05 28.3
L 223.6 30.95 223.3 31.55 216.25 35.7 215.35 36.95 213.6 37.55
Q 214.8 36.7 214.95 35.45 214.95 35.25 214.8 35.1
L 216.65 33.1 217.3 31.4 218.4 30.9 219 29.35 220.4 28 220.3 27.55 224.15 24.25
M 181.95 42.55
L 181 42.7 179.6 43.8 179 43.8
Q 176.3 44.65 173.7 45.35 173.5 45.4 173.25 45.25
L 173.5 43.9 175.3 42.05 175.1 41.9
Q 175.95 41.45 177 41.1
L 177.25 40.6 177.8 40.25 178.05 39.7 178.5 39.4 178.05 38.55 180.5 38 181.6 36.55 182.95 36.25 183.25 35.65 184.9 34.75 185.95 34.75 185.95 34.25 187.7 33.75 188.75 32.65 189.6 32.65
Q 190.8 31.8 192.25 31.45 194.75 30.6 197.45 30.1
L 195.9 32.9 194.2 33.5 194.15 34.15 189.95 36.45 189.4 37.3 189.6 37.8 188.5 38.2 183.45 41.85 181.95 42.55
M 187.25 40.5
L 187.05 40.5
Q 187.45 40.35 187.55 40.35
L 187.25 40.5
M 201.2 44.85
Q 200.65 45 200.55 44.85 200.35 44.55 200.6 44.8
L 201.2 44.85
M 386.3 5.5
L 385 3.8 384.05 3.65 383.7 2.45 383.2 2.35 383.05 1.85
Q 382.55 1.75 382.05 1.75 375.2 1.7 371.2 7.1
L 369.8 7.55 369.1 8.35 369.1 9
Q 366.05 9.5 364.5 11.15
L 364.8 11.8 363.1 12.75 362.85 13.25 361.3 13.95 360.6 15.05 360.75 15.75 358.8 16.15 356.2 19.1 356.5 19.55 355.35 20.9 355.55 21.7 348.65 22.25
Q 346.95 23.5 344.6 22.85
L 345.5 21.45 344.95 21.05 345.9 18.1 345.1 17.95
Q 344.85 17.6 344.6 17.4
L 343.95 16.75 343.9 16
Q 342.95 15.4 342.25 14.6 340.7 12.85 338.35 13.3
L 337.55 14.05
Q 336 14.3 334.5 14.55
L 333.8 15.55 332 15.8 331.7 16.3 328.55 17.1 328.4 17.6 326.35 18.05 324.7 20.05 323.55 20.05 322.15 21.05 322.1 21.7 321.2 21.8 321 22.4 319.75 22.75 319.05 23.95 318 24.1 315.25 27.3 313.8 27.5 313.4 28.15 313.4 28.75 312.1 29.5 311.6 30.1 310.8 32.65 308.55 33.9 307.9 35.35 308.25 36.85 308.1 37.95 309.55 38.85
Q 304.25 41.55 298.25 41.3 294.5 43.55 289.85 42.45 288.8 42.95 287.6 43 284.5 43.45 281.3 43.45 276.9 43.4 274.1 42.5
L 271.05 40.95
Q 270.95 40.8 270.8 40.7
L 270.75 40.7
Q 270.8 40.6 270.9 40.6
L 269.35 39.4 269.85 38.8 267.95 36.7 269.2 34.85 268.55 34.15 269.2 33.25 269.05 32.5 269.85 31.35 269.85 29.85 271.05 28.05 272.2 27.7 272.8 26.6 272.45 25.45 274.3 24.7 274.6 23.4 276.8 21.45 284.9 15.8 284.9 15.2 288.5 14.05 288.55 13.5 289.2 13.3
Q 290.6 11.05 293.15 11.15
L 293.3 10.55
Q 296.95 10.2 298.85 7.5
L 300.4 7.35
Q 302.95 4.95 306.5 5.15
L 307.05 4.2 316.05 2.35 316.7 3.35 318.7 3.85
Q 317.75 4.75 318.85 5
L 318.35 5.4 318.7 6.25 317.55 7.1 317.45 7.6 317.75 8.2 317.15 8.8 315.5 9.05 314.7 10.05 314.6 10.95 313.8 11.15 313.5 11.65 310.8 12.85 310.45 13.35
Q 309.75 13.55 309.1 13.95 305.55 16.55 301.5 17.2
L 299.95 18.45 295.2 19.35 292.65 21.2 291.25 21.15 290.05 22.65 291.15 22.9 290.7 23.35
Q 296 24.55 301 19.95 305.2 19.75 308.75 17
L 311.2 16.3 313.75 14.65 314.55 13.7
Q 317.9 12.1 320.85 9.3
L 320.85 8.7
Q 321.05 8.35 321 8.2 320.75 7.95 320.7 7.8
L 322.25 6.5 322.5 4.95 320.85 3.25 321.4 2.7 319.4 0.75
Q 316.6 0.15 313.8 0
L 313.3 0.45 309.4 0.95 308.85 1.7
Q 305.95 2.35 303.4 3.2 298.15 4.9 293.3 7.3
L 292.7 8.45 289.45 9.15 288.5 10.8 284.7 12.9
Q 282.7 12.75 281.95 14.6
L 279.05 16
Q 276.8 17.95 274.3 19.25 272.45 20.2 272.1 22.55 271.4 22.65 271.65 23.25
L 270.1 24 265.55 31.35 265.75 32.05 264.65 34.6 264.65 35.7 265.5 36.95 265.25 38.05 266 39.7 265.55 40.5 268 41.6
Q 268.1 41.65 268.1 41.7 268.1 41.8 267.95 41.9
L 271.4 44.25 273.1 43.95
Q 273.6 44.8 275.15 45.25
L 280.3 45.1 280.9 45.5 284.45 45.35 285.05 45.75 289 45.65
Q 290.7 45.4 292.45 45.25 293.7 45.05 295 45.1
L 295.65 44.45
Q 300.45 43.55 305.1 43.05 307.3 42.4 309.55 41.8
L 310 41.35 315.4 40.15 316 39.4
Q 320.1 38.8 323.9 37.1
L 325.05 36.05
Q 324.9 35.95 324.75 35.75
L 324.85 35.7
Q 325.15 35.7 325.45 35.75 325.5 35.85 325.65 35.85 326.5 35.95 327.2 35.15 326.5 34.6 328 34.8
L 329.2 33.95 330.45 33.75
Q 331.3 32.8 332.35 32.25 334.5 31.3 336.7 30.45
L 341.05 27.25
Q 341.2 26.95 341.45 26.65 342 26.4 342.45 26.05 343.9 25.4 345.2 25.55 348.5 26.15 351.3 24.45
L 349.05 27.05 348.65 28.75 347.45 29.2 347.05 29.95
Q 347.1 30.25 347.2 30.55
L 346.6 30.95 344.25 36 344.35 36.05 344.45 36.05
Q 344.45 36.1 344.4 36.25
L 344.25 36.85 343.45 37.2 343.9 37.65 343.65 38.45 344.25 38.9 343.65 40.5 344.05 42.15 346 43.4 347.2 43.45 348 44.05
Q 349.75 44.45 351.5 44.15 356.15 43.9 360.7 43.45
L 361.4 42.9 362.6 42.75
Q 363.7 42.1 364.75 41.3 365.7 40.5 366.15 41.8
L 366.95 42.3
Q 367.8 42.15 367.55 42.9
L 370.65 42.75 371.2 43.1
Q 378.1 43.9 384.95 42.3
L 389.7 42.8
Q 392.45 40.8 396.35 41.3
L 397.2 40.6 399.45 40.85 403.8 39.3
Q 403.85 39.25 403.85 39.15 403.9 39.1 403.9 39.05 403.6 38.65 404.25 38.75 404.4 38.65 404.4 38.55 404.3 37.95 403.6 38.05 403.7 38 403.7 37.95 403.55 37.35 402.65 37.4
L 386.2 40.5
Q 384.75 40.2 383.8 40.85
L 381.55 40.6 380.5 41 377.1 41.2
Q 376.15 40.8 375.2 41.2 373.3 41.05 371 40.95 369.65 41.2 368.85 40.35
L 371.1 39.75 371.8 38.45 373.55 38.4 373.6 37.8
Q 376.05 36.55 378.6 36.35
L 379.55 35 381.7 34.35
Q 384.65 33 383 32.4
L 385.6 31.3 386.65 29.6 388.05 29.2 389.1 27.3 389.9 26.9 389.8 26
Q 389.95 25.95 390.1 25.9 390.75 25.4 390.1 25.4
L 390.35 25.1 390.95 23.75 389.05 22.05
Q 384.05 21.05 380.25 24.1
L 379.7 24 379.55 24.55 377.95 24.45 376.15 26.4 375.1 26.6
Q 373.55 28.9 370.8 28.9
L 370.05 29.75 370.05 30.5 368.15 31.95 368.25 32.65
Q 367.35 35.7 364.15 37.8
L 364.15 39.3
Q 358.35 41.95 352.15 42.55
L 351.8 42.15 348.45 42.05 347.9 40.6 346.95 39.75 347.7 38.25 347.55 36.95 348.65 36.05 348.15 35.45 350 33.05 349.55 32.25
Q 350.15 31.65 350.75 31.15 352.1 30.1 352.1 29 351.9 28.85 351.75 28.75
L 352.35 27.7 353.1 27.5 356 23.75 362.6 22.6 362.85 22.1 363.65 21.45
Q 365.7 22.15 366.9 20.55
L 369.8 19.7
Q 370.75 18.1 372.4 18.4
L 372.9 18 374.15 17.8 374.85 16.15 377.35 15.5 378.65 13.8
Q 381.95 12.75 383.6 9.3
L 383.45 8.7 385.15 6.5 385.7 6.35 386.3 5.5
M 386.9 24.55
L 387.1 24.55
Q 386.65 25.7 385.95 26.85
L 384.35 27.55
Q 383.85 28.4 383.25 29.15 382.55 29.85 381.75 30.55 381.3 30.95 380.85 31.35 377 33.9 373 36.25
L 371.65 36.25
Q 371.2 36.55 370.75 36.8 369.25 37.35 367.7 37.8
L 370.25 35.4
Q 372.1 30.45 377.35 28.55 378.15 27.05 380.25 26.5
L 380.5 26 383.7 25.4
Q 383.9 25.15 384.15 25.15 385.45 24.7 386.9 24.55
M 381.35 4.3
L 381.9 4.5 381.5 5.15 382 5.55 381.2 8.2 380.15 8.65 377.9 11.6 375.95 12.15 375.2 13.75 373.95 13.85 373.7 14.45 373.2 14.65 372.9 15.5 368.25 17 367.65 17.6 367.45 18.35 366.7 18.25
Q 364.85 18.95 362.95 19.5 361.55 19.95 360.05 20.3 360.4 19.8 360.75 19.2 362 17.35 364.05 16.85
L 364.8 15.9 364.65 15.3 365.1 14.8
Q 366.95 14.35 368.15 13.35 368.2 13.1 368.4 12.9 369.7 11.55 371.1 10.3 373.95 7.75 376.85 6.15 378.85 5.05 381.35 4.3
M 327.2 21.45
L 328.55 20.1 330.1 19.75 330 21.7 331.3 22.55 331.3 23.25
Q 331.55 23.35 331.8 23.6 331.95 23.6 331.95 23.85
L 337.15 25.4 338.35 25.55 337.1 25.8 337.95 26.2 336.4 26.4 336.85 26.9 333.2 29.4 332.35 29.35 327.65 32.05 326.6 32.4 326.15 33.4 324.65 33.5 323.75 34.35 322.4 34.45 322.15 35 320.7 35.25 319.75 36.3 319.05 36.45 318.6 36.85 315.9 36.8 315.55 37.3 313.8 37.3 313.3 36.85 311.2 36.55
Q 312.6 34.55 314.1 32.65
L 314.55 31.2 315.9 30.85 317.4 29.15
Q 317.75 28.4 318.2 27.9 319.05 27.15 320 26.4 320.5 26.05 320.85 25.55
L 322.85 25.05 323.55 24.25 323.15 23.7 326.35 21.45 327.2 21.45
M 333.85 19.75
L 333.4 19.5 333.85 18.45
Q 334.25 18.4 334.3 18.2 334.3 18 334.25 17.85
L 335.2 17.4 335.1 17.25
Q 335.85 16.85 336.7 16.55
L 337.3 16.85 340.25 16.65 340.95 17.2 341.2 18.05 341.85 18.1 342.1 19.25 342.4 19.7 341.2 21.55 341.45 22.05 341.4 22.65 340.75 23 336.35 23.1 333.55 20.4 333.85 19.75 Z"/>
</g>

<g id="S_mbolo_2_0_Layer0_0_FILL">
<path fill="#C44E4E" stroke="none" d="
M 16.05 41.4
Q 15.7 41.55 15.2 41.6 4.85 42.85 0.85 33 -3.05 53.45 11.2 67.95 19.9 76.8 33.05 73.4
L 29.9 71.55 30.6 71.75
Q 15.15 60.95 16.05 41.4 Z"/>

<path fill="#999999" stroke="none" d="
M 15.9 38.05
L 16.05 41.4
Q 15.15 60.95 30.6 71.75
L 29.9 71.55 33.05 73.4
Q 35.45 76.05 39.05 75.5 38.1 74.7 37.25 73.9 20.8 59.7 19.4 37.55
L 19.6 37.2 19.5 36.55 15.9 38.05
M 36.75 3.05
L 33.6 6.35
Q 22.1 16.55 20.35 32.15 20.05 34.15 19.9 36.4
L 20.15 37.15 23.4 39.55
Q 25.75 59.45 40.6 71.9 43.1 73.95 45.45 76.05
L 55.4 76.05
Q 42.9 70.4 37.65 56.95 37.4 56.3 37.15 55.65 37.1 55.35 36.95 55.05
L 36.2 53.6 36.3 53.25 35.4 52.3
Q 35 46.3 34.75 40.45
L 34.65 36.2
Q 34.3 36.4 34.1 36.65 33.5 37.15 32.75 37.4 30.5 38.25 27.85 38.6 25.75 39 23.6 39.25 23.6 38 23.7 36.95 23.8 18.65 36.9 6.5
L 38.9 4.7 36.75 3.05
M 399.05 33.35
Q 392.6 31.35 386.2 28.8
L 384.2 34.15
Q 394.3 36.9 404.55 37.4 405.6 37.4 406.55 37.6
L 404.2 35.3
Q 401.6 34.5 399.05 33.35 Z"/>

<path fill="#666666" stroke="none" d="
M 19.9 36.4
L 19.5 36.55 19.6 37.2 19.4 37.55
Q 20.8 59.7 37.25 73.9 38.1 74.7 39.05 75.5
L 45.45 76.05
Q 43.1 73.95 40.6 71.9 25.75 59.45 23.4 39.55
L 20.15 37.15 19.9 36.4 Z"/>

<path fill="#FF6666" stroke="none" d="
M 25.1 9.65
Q 23.35 10 21.5 10.35 13.7 12 7.45 16.85 3.25 23.3 1.5 30.5 1.1 31.75 0.85 33 4.85 42.85 15.2 41.6 15.7 41.55 16.05 41.4
L 15.9 38.05
Q 15.3 23.45 23.5 11.85 24.35 10.75 25.1 9.65 Z"/>

<path fill="#CCCCCC" stroke="none" d="
M 26.6 8
L 25.1 9.65
Q 24.35 10.75 23.5 11.85 15.3 23.45 15.9 38.05
L 19.5 36.55 19.9 36.4
Q 20.05 34.15 20.35 32.15 22.1 16.55 33.6 6.35
L 26.6 8
M 46.45 6.15
L 46.55 5.9 36.9 6.5
Q 23.8 18.65 23.7 36.95 23.6 38 23.6 39.25 25.75 39 27.85 38.6 30.5 38.25 32.75 37.4 33.5 37.15 34.1 36.65 34.3 36.4 34.65 36.2
L 36.2 28.15 36.5 27.9 36.45 27.15 37.15 25.55 37.15 25.5 37.1 24.85 38.9 19.35 38.75 18.55
Q 42.5 12.35 46.45 6.15 Z"/>

<path fill="#FF9999" stroke="none" d="
M 25.1 9.65
L 26.6 8 30.7 5.2
Q 16.65 5.75 7.5 16.65 7.5 16.75 7.45 16.85 13.7 12 21.5 10.35 23.35 10 25.1 9.65 Z"/>

<path fill="#FFFFFF" stroke="none" d="
M 36.75 3.05
L 30.7 5.2 26.6 8 33.6 6.35 36.75 3.05
M 50.95 2.55
L 42.5 2.1 38.9 4.7 36.9 6.5 46.55 5.9 50.95 2.55 Z"/>

<path fill="#FFCC00" stroke="none" d="
M 47.15 25.75
Q 46.35 25.75 45.6 25.75 45.6 26.6 45.65 26.5 46.15 25.8 47.15 25.75
M 328.95 5.6
L 328.95 5.35 270 4 155.25 3.75
Q 128.75 4.3 95.5 4.55
L 61.6 5.25 46.45 6.15
Q 42.5 12.35 38.75 18.55
L 38.9 19.35 37.1 24.85 37.15 25.5 37.15 25.55
Q 40.85 25.7 45.6 25.75 45.6 23.75 101.1 24.1 130.65 24.3 178.15 24.95 193 24.95 271.8 21.7 272.8 21.7 286.75 22.5 300.6 23.3 301.6 23.3 302.65 23.3 320.6 22.5 335.05 21.85 338.5 21.7 337.85 10.85 351.2 7.05
L 328.95 5.6
M 330.3 6.6
L 330.55 6.7 330.55 6.75
Q 330.4 6.7 330.3 6.6
M 311.25 22.45
L 311.25 22.55 311.05 22.65 311.25 22.45
M 213.3 18.75
L 213.1 19 212.8 19.15 213.3 18.75
M 214.8 15.95
L 214.9 15.7 214.9 15.8 214.8 15.95
M 177.2 22.7
L 177.05 22.75 176.9 22.75
Q 176.9552734375 22.7490234375 177.2 22.7
M 123 12.3
L 123 12.1
Q 123.15 12.05 123.2 12.1
L 123 12.3
M 80.05 19.6
L 80 19.75 79.85 19.8 80.05 19.6 Z"/>

<path fill="#CC6600" stroke="none" d="
M 335.3 68.8
Q 333.15 60.95 337.95 54.8 331.4 55.15 327.75 55.15 322.85 55.15 291.05 56.35 259.3 57.55 254.25 57.55 253.25 57.55 233.55 56.75 213.8 55.95 212.8 55.95 178.55 55.85 145.55 56 79.85 56.3 79.85 57.55 51.9 57.55 47.75 57.5 42.2 57.35 37.65 56.95 42.9 70.4 55.4 76.05 58.55 76.35 61.6 76.7 110.15 78.35 158.95 78.85 170.05 79.05 181.15 79.15 224.2 79.45 267.05 78.75 298.15 78.2 328.95 77.4
L 328.95 77.65
Q 337.55 76.95 346 76.2
L 346.4 75.65
Q 340 74.85 335.7 69.8 335.5 69.3 335.3 68.8 Z"/>

<path fill="#7B5C3D" stroke="none" d="
M 336.9 41.1
L 333.75 41.25
Q 335.05 47.05 338.95 51.4 339.55 51.95 340.1 52.55
L 339.35 53.2
Q 338.6 54 337.95 54.8 333.15 60.95 335.3 68.8 335.5 69.3 335.7 69.8 340 74.85 346.4 75.65
L 346 76.2 349.55 74.8
Q 346.9 73.65 344.5 71.95 333.25 64.45 340.65 54.7 341.65 53.3 343 51.95 342.15 50.8 341.35 49.6 338.7 45.55 336.9 41.1 Z"/>

<path fill="#000000" stroke="none" d="
M 328.95 40.5
L 328.95 40.25
Q 317.25 39.65 305.6 39.1 284.7 38.05 264.2 39.65 222.9 42.85 181.15 42.8 167.05 42.8 153 42.45 111.1 38 94.75 38.85 78.15 39.75 61.6 40.35 48.2 41.55 34.75 40.45 35 46.3 35.4 52.3
L 36.3 53.25 36.2 53.6 36.95 55.05
Q 37.1 55.35 37.15 55.65 37.4 56.3 37.65 56.95 42.2 57.35 47.75 57.5 51.9 57.55 79.85 57.55 79.85 56.3 145.55 56 178.55 55.85 212.8 55.95 213.8 55.95 233.55 56.75 253.25 57.55 254.25 57.55 259.3 57.55 291.05 56.35 322.85 55.15 327.75 55.15 331.4 55.15 337.95 54.8 338.6 54 339.35 53.2
L 340.1 52.55
Q 339.55 51.95 338.95 51.4 335.05 47.05 333.75 41.25 331.4 40.85 328.95 40.5
M 386.2 28.8
Q 392.6 31.35 399.05 33.35 401.6 34.5 404.2 35.3
L 388.5 25.8 387.55 26.85 386.2 28.8
M 383.8 38
Q 383.8 38.95 383.9 39.95 384.25 45.55 387.85 49.75
L 388.6 49.95 406.55 37.6
Q 405.6 37.4 404.55 37.4 394.3 36.9 384.2 34.15
L 383.8 38 Z"/>

<path fill="#333333" stroke="none" d="
M 340.2 29.8
L 340.25 29.05
Q 340 28.4 339.7 27.6 338.7 24.45 338.5 21.7 335.05 21.85 320.6 22.5 302.65 23.3 301.6 23.3 300.6 23.3 286.75 22.5 272.8 21.7 271.8 21.7 193 24.95 178.15 24.95 130.65 24.3 101.1 24.1 45.6 23.75 45.6 25.75 46.35 25.75 47.15 25.75 46.15 25.8 45.65 26.5 45.6 26.6 45.6 25.75 40.85 25.7 37.15 25.55
L 36.45 27.15 36.5 27.9 36.2 28.15 34.65 36.2 34.75 40.45
Q 48.2 41.55 61.6 40.35 78.15 39.75 94.75 38.85 111.1 38 153 42.45 167.05 42.8 181.15 42.8 222.9 42.85 264.2 39.65 284.7 38.05 305.6 39.1 317.25 39.65 328.95 40.25
L 328.95 40.5
Q 331.4 40.85 333.75 41.25
L 334.4 36.6 340.2 29.8
M 126.5 35.45
Q 126.5 35.4 126.5 35.35 126.55 35.35 126.6 35.35
L 126.5 35.45
M 123.6 28.7
Q 124.1 28.95 123.45 28.8 123.55 28.75 123.6 28.7
M 147.45 32.6
Q 147.45 32.55 147.6 32.55
L 147.55 32.65 147.45 32.6
M 118.45 34.2
L 118.55 34.05
Q 118.55 34.1 118.55 34.15 118.5 34.15 118.45 34.2
M 113.85 25.7
L 113.8 25.8
Q 113.8 25.7 113.8 25.65
L 113.85 25.7
M 55.9 35.1
L 55.8 35.05 55.85 35.05 55.9 35.1 Z"/>

<path fill="#513D28" stroke="none" d="
M 55.8 35.05
L 55.9 35.1 55.85 35.05 55.8 35.05
M 113.8 25.8
L 113.85 25.7 113.8 25.65
Q 113.8 25.7 113.8 25.8
M 118.55 34.05
L 118.45 34.2
Q 118.5 34.15 118.55 34.15 118.55 34.1 118.55 34.05
M 147.6 32.55
Q 147.45 32.55 147.45 32.6
L 147.55 32.65 147.6 32.55
M 123.45 28.8
Q 124.1 28.95 123.6 28.7 123.55 28.75 123.45 28.8
M 126.5 35.35
Q 126.5 35.4 126.5 35.45
L 126.6 35.35
Q 126.55 35.35 126.5 35.35
M 80 19.75
L 80.05 19.6 79.85 19.8 80 19.75
M 123 12.1
L 123 12.3 123.2 12.1
Q 123.15 12.05 123 12.1
M 214.9 15.7
L 214.8 15.95 214.9 15.8 214.9 15.7
M 213.1 19
L 213.3 18.75 212.8 19.15 213.1 19
M 311.25 22.55
L 311.25 22.45 311.05 22.65 311.25 22.55
M 330.55 6.7
L 330.3 6.6
Q 330.4 6.7 330.55 6.75
L 330.55 6.7 Z"/>

<path fill="#B48558" stroke="none" d="
M 177.05 22.75
L 177.2 22.7
Q 176.9552734375 22.7490234375 176.9 22.75
L 177.05 22.75 Z"/>

<path fill="#FFFF00" stroke="none" d="
M 354.5 6.15
L 355.05 5.5
Q 354.3 5.15 353.55 4.75 352.7 4.75 351.85 4.6 350.95 4.55 349.9 4.55 349.75 4.55 349.4 4.4 348.95 4.5 348.5 4.35
L 347.8 4.6
Q 340.35 3.4 332.75 2.55 330.85 2.3 328.95 2.1
L 328.95 1.85
Q 288.9 0.25 248.1 0
L 100.6 0.55
Q 91.9 0.7 83.3 0.8 72.45 0.95 61.6 1.3 56.25 1.75 50.95 2.55
L 46.55 5.9 46.45 6.15 61.6 5.25 95.5 4.55
Q 128.75 4.3 155.25 3.75
L 270 4 328.95 5.35 328.95 5.6 351.2 7.05 354.5 6.15 Z"/>

<path fill="#CC9966" stroke="none" d="
M 355.05 5.5
L 354.5 6.15 351.2 7.05
Q 337.85 10.85 338.5 21.7 338.7 24.45 339.7 27.6 340 28.4 340.25 29.05
L 340.2 29.8 334.4 36.6 333.75 41.25 336.9 41.1
Q 336.85 40.7 336.9 40.4 337.7 33.85 342.85 29.6 342.65 29.25 342.6 28.75 341.7 24.95 341.85 21.8 342.35 11.85 353.95 8.25
L 357.65 6.8 355.05 5.5
M 383.9 39.95
Q 383.8 38.95 383.8 38
L 336.9 41.1
Q 338.7 45.55 341.35 49.6 342.15 50.8 343 51.95 341.65 53.3 340.65 54.7 333.25 64.45 344.5 71.95 346.9 73.65 349.55 74.8 352.8 72.95 355.9 70.85 372 60.45 387.85 49.75 384.25 45.55 383.9 39.95 Z"/>

<path fill="#FFE0BB" stroke="none" d="
M 387.55 26.85
L 388.5 25.8 357.65 6.8 353.95 8.25 387.55 26.85 Z"/>

<path fill="#FFCC99" stroke="none" d="
M 383.8 38
L 384.2 34.15 386.2 28.8 387.55 26.85 353.95 8.25
Q 342.35 11.85 341.85 21.8 341.7 24.95 342.6 28.75 342.65 29.25 342.85 29.6 337.7 33.85 336.9 40.4 336.85 40.7 336.9 41.1
L 383.8 38 Z"/>
</g>

<g id="S_mbolo_3_0_Layer0_0_FILL">
<path fill="#666666" stroke="none" d="
M 21.05 35.3
L 20.85 34.65 20.45 34.75 20.5 35.35 20.3 35.7
Q 21.75 56.8 39.05 70.3 39.95 71.05 40.9 71.8
L 47.65 72.3
Q 45.15 70.3 42.55 68.4 26.95 56.55 24.55 37.7
L 21.05 35.3 Z"/>

<path fill="#999999" stroke="none" d="
M 16.65 36.2
L 16.8 39.4
Q 15.85 57.95 32.05 68.25
L 31.35 68.05 34.65 69.8
Q 37.15 72.35 40.9 71.8 39.95 71.05 39.05 70.3 21.75 56.8 20.3 35.7
L 20.5 35.35 20.45 34.75 16.65 36.2
M 38.55 2.95
L 35.25 6.1
Q 23.15 15.8 21.3 30.6 21 32.55 20.85 34.65
L 21.05 35.3 24.55 37.7
Q 26.95 56.55 42.55 68.4 45.15 70.3 47.65 72.3
L 58.1 72.35
Q 44.3 66.65 38.95 52.95 38.9 52.65 38.75 52.4
L 37.95 51 38.05 50.6 37.1 49.7
Q 36.7 44.05 36.4 38.5
L 36.3 34.45
Q 36 34.65 35.7 34.9 35.1 35.3 34.35 35.55 31.95 36.4 29.2 36.75 26.95 37.1 24.7 37.35 24.7 36.15 24.8 35.15 24.9 17.75 38.7 6.2
L 40.8 4.5 38.55 2.95
M 220.15 27.15
L 218.05 32.25
Q 228.65 34.9 239.4 35.3 240.5 35.35 241.55 35.55
L 239.05 33.4
Q 236.35 32.6 233.65 31.55 226.85 29.6 220.15 27.15 Z"/>

<path fill="#C44E4E" stroke="none" d="
M 15.9 39.6
Q 5 40.75 0.9 31.4 -3.3 50.8 11.7 64.65 20.85 73.05 34.65 69.8
L 31.35 68.05 32.05 68.25
Q 15.85 57.95 16.8 39.4 16.4 39.5 15.9 39.6 Z"/>

<path fill="#FF6666" stroke="none" d="
M 24.6 11.3
Q 25.5 10.2 26.35 9.2 24.4 9.55 22.55 9.85 14.35 11.45 7.75 16.05 3.4 22.2 1.5 29.1 1.1 30.2 0.9 31.4 5 40.75 15.9 39.6 16.4 39.5 16.8 39.4
L 16.65 36.2
Q 16 22.3 24.6 11.3 Z"/>

<path fill="#CCCCCC" stroke="none" d="
M 27.85 7.6
L 26.35 9.2
Q 25.5 10.2 24.6 11.3 16 22.3 16.65 36.2
L 20.45 34.75 20.85 34.65
Q 21 32.55 21.3 30.6 23.15 15.8 35.25 6.1
L 27.85 7.6
M 40.6 17.7
Q 44.6 11.75 48.7 5.9
L 48.8 5.65 38.7 6.2
Q 24.9 17.75 24.8 35.15 24.7 36.15 24.7 37.35 26.95 37.1 29.2 36.75 31.95 36.4 34.35 35.55 35.1 35.3 35.7 34.9 36 34.65 36.3 34.45
L 37.3 29.25 37.95 26.8 38.25 26.55 38.2 25.85 38.95 24.25 38.9 23.65 40.8 18.4 40.6 17.7 Z"/>

<path fill="#FF9999" stroke="none" d="
M 26.35 9.2
L 27.85 7.6 32.2 5
Q 17.4 5.5 7.8 15.85 7.8 15.95 7.75 16.05 14.35 11.45 22.55 9.85 24.4 9.55 26.35 9.2 Z"/>

<path fill="#FFFFFF" stroke="none" d="
M 35.25 6.1
L 38.55 2.95 32.2 5 27.85 7.6 35.25 6.1
M 53.45 2.5
L 44.5 2.05 40.8 4.5 38.7 6.2 48.8 5.65 53.45 2.5 Z"/>

<path fill="#CC6600" stroke="none" d="
M 166.65 65.2
Q 164.15 56.75 170.95 50.35 158.7 51.85 146.2 51.85 129.65 51.85 113.15 52.55 94 53.35 74.75 54 56.65 54.8 38.75 52.4 38.9 52.65 38.95 52.95 44.3 66.65 58.1 72.35 61.4 72.65 64.55 73 81.95 74.5 99.35 75 118.75 75.75 137.9 74.9 158.15 73.9 178 72.25
L 178.3 71.75
Q 171.65 70.95 167.15 66.2 166.95 65.65 166.65 65.2 Z"/>

<path fill="#000000" stroke="none" d="
M 170.55 48.65
Q 166.4 44.55 165.1 39.05
L 165.1 38.95
Q 158.4 38.05 151.7 37.15 144.25 36.2 136.9 37.7 117.2 41.75 97.2 40.35 82.25 36.15 76.45 36.95 56.5 40 36.4 38.5 36.7 44.05 37.1 49.7
L 38.05 50.6 37.95 51 38.75 52.4
Q 56.65 54.8 74.75 54 94 53.35 113.15 52.55 129.65 51.85 146.2 51.85 158.7 51.85 170.95 50.35
L 171.75 49.7
Q 171.15 49.15 170.55 48.65
M 221.55 25.3
L 220.15 27.15
Q 226.85 29.6 233.65 31.55 236.35 32.6 239.05 33.4
L 222.6 24.35 221.55 25.3
M 217.6 35.9
Q 217.6 36.85 217.7 37.8 218.1 43.1 221.9 47.1
L 222.65 47.3 241.55 35.55
Q 240.5 35.35 239.4 35.3 228.65 34.9 218.05 32.25
L 217.6 35.9 Z"/>

<path fill="#7B5C3D" stroke="none" d="
M 165.1 39.05
Q 166.4 44.55 170.55 48.65 171.15 49.15 171.75 49.7
L 170.95 50.35
Q 164.15 56.75 166.65 65.2 166.95 65.65 167.15 66.2 171.65 70.95 178.3 71.75
L 178 72.25 181.65 70.9
Q 178.85 69.8 176.4 68.15 162.95 60.05 174.75 49.15 173.9 48.05 173.05 46.95 170.25 43.1 168.4 38.9
L 165.1 39.05 Z"/>

<path fill="#FFCC00" stroke="none" d="
M 171.95 27.45
Q 171.6 26.8 171.3 26.05 165.9 11 183.4 6.5
L 138.95 3.85 98.05 3.6
Q 88.6 4.15 76.7 4.35
L 48.7 5.9
Q 44.6 11.75 40.6 17.7
L 40.8 18.4 38.9 23.65 38.95 24.25 38.2 25.85 38.25 26.55 37.95 26.8 37.3 29.25 55.15 25.15
Q 55.2 25.15 55.25 25.15
L 55.2 25.25
Q 69.65 23.2 84.25 23.45 85.9 23.35 94.25 23.45
L 108.3 23.35
Q 124.9 24.05 141.5 24.6 156.7 25.1 171.95 27.45 Z"/>

<path fill="#333333" stroke="none" d="
M 171.8 28.15
L 171.95 27.45
Q 156.7 25.1 141.5 24.6 124.9 24.05 108.3 23.35
L 94.25 23.45
Q 85.9 23.35 84.25 23.45 69.65 23.2 55.2 25.25 55.1517578125 25.1533203125 55.15 25.25
L 55.15 25.15 37.3 29.25 36.3 34.45 36.4 38.5
Q 56.5 40 76.45 36.95 82.25 36.15 97.2 40.35 117.2 41.75 136.9 37.7 144.25 36.2 151.7 37.15 158.4 38.05 165.1 38.95
L 165.75 34.6 171.8 28.15 Z"/>

<path fill="#FFFF00" stroke="none" d="
M 187.45 5.05
Q 186.65 4.65 185.9 4.35 185 4.3 184.05 4.2 183.15 4.15 182.05 4.15 181.85 4.15 181.5 4 181 4.05 180.55 3.95
L 179.85 4.2
Q 172 3.05 164.05 2.2 147.75 0.35 131.15 0
L 78.55 0.55
Q 75.4 0.75 72.35 0.8 62.95 1.15 53.45 2.5
L 48.8 5.65 48.7 5.9 76.7 4.35
Q 88.6 4.15 98.05 3.6
L 138.95 3.85 183.4 6.5 186.85 5.7 187.45 5.05 Z"/>

<path fill="#CC9966" stroke="none" d="
M 190.2 6.3
L 187.45 5.05 186.85 5.7 183.4 6.5
Q 165.9 11 171.3 26.05 171.6 26.8 171.95 27.45
L 171.8 28.15 165.75 34.6 165.1 38.95 165.1 39.05 168.4 38.9
Q 168.35 38.5 168.4 38.2 169.2 31.95 174.65 27.95 174.45 27.6 174.35 27.1 170.25 12.2 186.25 7.65
L 190.2 6.3
M 217.7 37.8
Q 217.6 36.85 217.6 35.9
L 168.4 38.9
Q 170.25 43.1 173.05 46.95 173.9 48.05 174.75 49.15 162.95 60.05 176.4 68.15 178.85 69.8 181.65 70.9 185.1 69.15 188.3 67.15 205.25 57.25 221.9 47.1 218.1 43.1 217.7 37.8 Z"/>

<path fill="#FFE0BB" stroke="none" d="
M 221.55 25.3
L 222.6 24.35 190.2 6.3 186.25 7.65 221.55 25.3 Z"/>

<path fill="#FFCC99" stroke="none" d="
M 218.05 32.25
L 220.15 27.15 221.55 25.3 186.25 7.65
Q 170.25 12.2 174.35 27.1 174.45 27.6 174.65 27.95 169.2 31.95 168.4 38.2 168.35 38.5 168.4 38.9
L 217.6 35.9 218.05 32.25 Z"/>
</g>

<g id="S_mbolo_4_0_Layer0_0_FILL">
<path fill="#666666" stroke="none" d="
M 20.9 32.65
L 20.45 32.75 20.55 33.35 20.35 33.7
Q 21.8 54.8 39.1 68.3 40 69.05 40.95 69.8
L 47.7 70.3
Q 45.2 68.3 42.6 66.35 27 54.55 24.6 35.65
L 21.1 33.3 20.9 32.65 Z"/>

<path fill="#C44E4E" stroke="none" d="
M 16.8 37.35
Q 16.45 37.5 15.95 37.6 5.05 38.75 0.9 29.4 -3.25 48.8 11.75 62.65 20.9 71.05 34.7 67.8
L 31.4 66.05 32.1 66.25
Q 15.9 55.95 16.8 37.35 Z"/>

<path fill="#999999" stroke="none" d="
M 16.7 34.2
L 16.8 37.35
Q 15.9 55.95 32.1 66.25
L 31.4 66.05 34.7 67.8
Q 37.2 70.35 40.95 69.8 40 69.05 39.1 68.3 21.8 54.8 20.35 33.7
L 20.55 33.35 20.45 32.75 16.7 34.2
M 38.6 0.95
L 35.25 4.1
Q 23.2 13.75 21.3 28.55 21.05 30.5 20.9 32.65
L 21.1 33.3 24.6 35.65
Q 27 54.55 42.6 66.35 45.2 68.3 47.7 70.3
L 58.15 70.35
Q 44.35 64.65 39 50.9 38.9 50.65 38.8 50.4
L 38 48.95 38.1 48.6 37.15 47.7
Q 36.75 42.05 36.45 36.5
L 36.35 32.45
Q 36.05 32.65 35.75 32.85 35.15 33.3 34.4 33.55 32 34.4 29.25 34.75 27 35.1 24.75 35.35 24.75 34.15 24.85 33.15 24.95 15.75 38.75 4.2
L 40.85 2.5 38.6 0.95
M 128.9 24.9
L 126.8 30
Q 137.45 32.65 148.2 33.05 149.25 33.1 150.35 33.3
L 147.8 31.15
Q 145.1 30.35 142.4 29.3 135.6 27.35 128.9 24.9 Z"/>

<path fill="#FF6666" stroke="none" d="
M 24.65 9.3
Q 25.55 8.2 26.4 7.2 24.45 7.55 22.6 7.85 14.4 9.45 7.8 14.05 3.45 20.2 1.55 27.05 1.15 28.2 0.9 29.4 5.05 38.75 15.95 37.6 16.45 37.5 16.8 37.35
L 16.7 34.2
Q 16.05 20.3 24.65 9.3 Z"/>

<path fill="#CCCCCC" stroke="none" d="
M 27.9 5.6
L 26.4 7.2
Q 25.55 8.2 24.65 9.3 16.05 20.3 16.7 34.2
L 20.45 32.75 20.9 32.65
Q 21.05 30.5 21.3 28.55 23.2 13.75 35.25 4.1
L 27.9 5.6
M 48.75 3.9
L 48.85 3.65 38.75 4.2
Q 24.95 15.75 24.85 33.15 24.75 34.15 24.75 35.35 27 35.1 29.25 34.75 32 34.4 34.4 33.55 35.15 33.3 35.75 32.85 36.05 32.65 36.35 32.45
L 37.35 27.25 38 24.8 38.3 24.55 38.25 23.85 39 22.25 38.9 21.65 40.85 16.4 40.65 15.7
Q 44.65 9.75 48.75 3.9 Z"/>

<path fill="#FF9999" stroke="none" d="
M 26.4 7.2
L 27.9 5.6 32.25 3
Q 17.45 3.5 7.85 13.85 7.85 13.95 7.8 14.05 14.4 9.45 22.6 7.85 24.45 7.55 26.4 7.2 Z"/>

<path fill="#FFFFFF" stroke="none" d="
M 38.6 0.95
L 32.25 3 27.9 5.6 35.25 4.1 38.6 0.95
M 51.15 2.05
L 53.5 0.45 44.55 0 40.85 2.5 38.75 4.2 48.85 3.65 51.15 2.05 Z"/>

<path fill="#000000" stroke="none" d="
M 73.85 36.8
L 73.85 36.7
Q 68 35.9 62.1 36.55 49.35 37.45 36.45 36.5 36.75 42.05 37.15 47.7
L 38.1 48.6 38 48.95 38.8 50.4
Q 50.4 51.95 62.1 52.2 71 51.5 79.7 48.1
L 80.5 47.45
Q 79.9 46.9 79.3 46.4 75.2 42.3 73.85 36.8
M 126.5 35.55
Q 126.85 40.85 130.65 44.85
L 131.45 45.05 150.35 33.3
Q 149.25 33.1 148.2 33.05 137.45 32.65 126.8 30
L 126.35 33.65
Q 126.35 34.6 126.5 35.55
M 131.35 22.1
L 130.35 23.05 128.9 24.9
Q 135.6 27.35 142.4 29.3 145.1 30.35 147.8 31.15
L 131.35 22.1 Z"/>

<path fill="#333333" stroke="none" d="
M 74.55 32.35
L 80.55 25.9 80.7 25.2
Q 65.55 22.85 44.55 25.6
L 37.35 27.25 36.35 32.45 36.45 36.5
Q 49.35 37.45 62.1 36.55 68 35.9 73.85 36.7
L 74.55 32.35 Z"/>

<path fill="#FFCC00" stroke="none" d="
M 40.65 15.7
L 40.85 16.4 38.9 21.65 39 22.25 38.25 23.85 38.3 24.55 38 24.8 37.35 27.25 44.55 25.6
Q 65.55 22.85 80.7 25.2 80.35 24.55 80.05 23.8 74.65 8.75 92.15 4.25
L 48.75 3.9
Q 44.65 9.75 40.65 15.7
M 55.2 23.15
Q 55.25 23.15 55.3 23.15
L 55.25 23.2 54.95 23.25
Q 54.55 23.35 53.65 23.5
L 55.2 23.15 Z"/>

<path fill="#CC6600" stroke="none" d="
M 86.75 70
L 87.05 69.5
Q 80.4 68.7 75.9 63.95 75.7 63.4 75.4 62.95 72.9 54.5 79.7 48.1 71 51.5 62.1 52.2 50.4 51.95 38.8 50.4 38.9 50.65 39 50.9 44.35 64.65 58.15 70.35 60.15 70.5 62.1 70.75 74.5 71 86.75 70 Z"/>

<path fill="#FFFF00" stroke="none" d="
M 92.15 4.25
L 95.6 3.45 96.2 2.8
Q 73.7 0.65 51.15 2.05
L 48.85 3.65 48.75 3.9 92.15 4.25 Z"/>

<path fill="#7B5C3D" stroke="none" d="
M 83.55 46.9
Q 82.65 45.8 81.85 44.7 79.05 40.85 77.15 36.65
L 73.85 36.8
Q 75.2 42.3 79.3 46.4 79.9 46.9 80.5 47.45
L 79.7 48.1
Q 72.9 54.5 75.4 62.95 75.7 63.4 75.9 63.95 80.4 68.7 87.05 69.5
L 86.75 70 90.45 68.65
Q 87.65 67.55 85.15 65.9 71.7 57.8 83.55 46.9 Z"/>

<path fill="#CC9966" stroke="none" d="
M 95 5.4
L 98.95 4.05 96.2 2.8 95.6 3.45 92.15 4.25
Q 74.65 8.75 80.05 23.8 80.35 24.55 80.7 25.2
L 80.55 25.9 74.55 32.35 73.85 36.7 73.85 36.8 77.15 36.65
Q 77.1 36.25 77.15 35.95 78 29.7 83.4 25.7 83.2 25.35 83.15 24.85 79.05 9.95 95 5.4
M 130.65 44.85
Q 126.85 40.85 126.5 35.55 126.35 34.6 126.35 33.65
L 77.15 36.65
Q 79.05 40.85 81.85 44.7 82.65 45.8 83.55 46.9 71.7 57.8 85.15 65.9 87.65 67.55 90.45 68.65 93.85 66.9 97.1 64.9 114 55 130.65 44.85 Z"/>

<path fill="#FFCC99" stroke="none" d="
M 126.8 30
L 128.9 24.9 130.35 23.05 95 5.4
Q 79.05 9.95 83.15 24.85 83.2 25.35 83.4 25.7 78 29.7 77.15 35.95 77.1 36.25 77.15 36.65
L 126.35 33.65 126.8 30 Z"/>

<path fill="#FFE0BB" stroke="none" d="
M 130.35 23.05
L 131.35 22.1 98.95 4.05 95 5.4 130.35 23.05 Z"/>
</g>

<g id="S_mbolo_5_0_Layer0_0_FILL">
<path fill="#000000" stroke="none" d="
M 2.5 33.4
Q 5.2 32.65 7.9 31.55 14.7 29.65 21.4 27.2
L 19.95 25.35 18.95 24.35 2.5 33.4
M 2.15 35.35
Q 1.05 35.4 0 35.55
L 18.9 47.3 19.65 47.1
Q 23.45 43.15 23.8 37.8 23.95 36.85 23.95 35.9
L 23.5 32.25
Q 12.85 34.9 2.15 35.35
M 204.6 39.1
L 204.6 39
Q 197.9 38.05 191.25 37.15 183.75 36.25 176.45 37.75 158.6 41.4 140.55 40.6 122.5 41.4 104.65 37.75 97.3 36.25 89.85 37.15 83.15 38.05 76.45 39
L 76.45 39.1
Q 75.15 44.55 71 48.7 70.4 49.15 69.8 49.75
L 70.6 50.4
Q 82.85 51.9 95.35 51.9 111.9 51.9 128.35 52.6 134.45 52.8 140.55 53.05 146.6 52.8 152.7 52.6 169.15 51.9 185.7 51.9 198.25 51.9 210.5 50.4
L 211.25 49.75
Q 210.7 49.15 210.1 48.7 205.95 44.55 204.6 39.1
M 261.1 25.35
L 259.7 27.2
Q 266.4 29.65 273.2 31.55 275.85 32.65 278.6 33.4
L 262.1 24.35 261.1 25.35
M 261.45 47.1
L 262.2 47.3 281.1 35.55
Q 280.05 35.4 278.95 35.35 268.2 34.9 257.6 32.25
L 257.15 35.9
Q 257.15 36.85 257.25 37.8 257.6 43.15 261.45 47.1 Z"/>

<path fill="#999999" stroke="none" d="
M 2.5 33.4
L 0 35.55
Q 1.05 35.4 2.15 35.35 12.85 34.9 23.5 32.25
L 21.4 27.2
Q 14.7 29.65 7.9 31.55 5.2 32.65 2.5 33.4
M 259.7 27.2
L 257.6 32.25
Q 268.2 34.9 278.95 35.35 280.05 35.4 281.1 35.55
L 278.6 33.4
Q 275.85 32.65 273.2 31.55 266.4 29.65 259.7 27.2 Z"/>

<path fill="#CC9966" stroke="none" d="
M 66.75 49.15
Q 67.65 48.1 68.45 47 71.25 43.15 73.15 38.9
L 23.95 35.9
Q 23.95 36.85 23.8 37.8 23.45 43.15 19.65 47.1 36.3 57.3 53.25 67.2 56.45 69.15 59.9 70.9 62.7 69.8 65.15 68.2 78.6 60.1 66.75 49.15
M 51.35 6.3
L 55.3 7.7
Q 71.25 12.25 67.2 27.1 67.1 27.6 66.9 27.95 72.35 32 73.15 38.2 73.2 38.5 73.15 38.9
L 76.45 39.1 76.45 39 75.75 34.6 69.75 28.15 69.6 27.5
Q 69.95 26.85 70.25 26.05 75.65 11 58.15 6.5
L 54.7 5.7 54.1 5.05 51.35 6.3
M 229.7 6.3
L 226.95 5.05 226.4 5.7 222.95 6.5
Q 205.45 11 210.8 26.05 211.15 26.85 211.45 27.5
L 211.35 28.15 205.3 34.6 204.6 39 204.6 39.1 207.95 38.9
Q 207.85 38.5 207.95 38.2 208.75 32 214.2 27.95 214 27.6 213.9 27.1 209.8 12.25 225.8 7.7
L 229.7 6.3
M 261.45 47.1
Q 257.6 43.15 257.25 37.8 257.15 36.85 257.15 35.9
L 207.95 38.9
Q 209.8 43.15 212.6 47 213.4 48.1 214.3 49.15 202.45 60.1 215.95 68.2 218.4 69.8 221.2 70.9 224.6 69.15 227.85 67.2 244.75 57.3 261.45 47.1 Z"/>

<path fill="#7B5C3D" stroke="none" d="
M 68.45 47
Q 67.65 48.1 66.75 49.15 78.6 60.1 65.15 68.2 62.7 69.8 59.9 70.9
L 63.55 72.25 63.25 71.75
Q 69.9 71 74.4 66.2 74.6 65.7 74.9 65.25 77.4 56.75 70.6 50.4
L 69.8 49.75
Q 70.4 49.15 71 48.7 75.15 44.55 76.45 39.1
L 73.15 38.9
Q 71.25 43.15 68.45 47
M 207.95 38.9
L 204.6 39.1
Q 205.95 44.55 210.1 48.7 210.7 49.15 211.25 49.75
L 210.5 50.4
Q 203.7 56.75 206.2 65.25 206.5 65.7 206.7 66.2 211.2 71 217.85 71.75
L 217.5 72.25 221.2 70.9
Q 218.4 69.8 215.95 68.2 202.45 60.1 214.3 49.15 213.4 48.1 212.6 47 209.8 43.15 207.95 38.9 Z"/>

<path fill="#FFCC99" stroke="none" d="
M 66.9 27.95
Q 67.1 27.6 67.2 27.1 71.25 12.25 55.3 7.7
L 19.95 25.35 21.4 27.2 23.5 32.25 23.95 35.9 73.15 38.9
Q 73.2 38.5 73.15 38.2 72.35 32 66.9 27.95
M 259.7 27.2
L 261.1 25.35 225.8 7.7
Q 209.8 12.25 213.9 27.1 214 27.6 214.2 27.95 208.75 32 207.95 38.2 207.85 38.5 207.95 38.9
L 257.15 35.9 257.6 32.25 259.7 27.2 Z"/>

<path fill="#FFE0BB" stroke="none" d="
M 55.3 7.7
L 51.35 6.3 18.95 24.35 19.95 25.35 55.3 7.7
M 261.1 25.35
L 262.1 24.35 229.7 6.3 225.8 7.7 261.1 25.35 Z"/>

<path fill="#CC6600" stroke="none" d="
M 206.2 65.25
Q 203.7 56.75 210.5 50.4 198.25 51.9 185.7 51.9 169.15 51.9 152.7 52.6 146.6 52.8 140.55 53.05 134.45 52.8 128.35 52.6 111.9 51.9 95.35 51.9 82.85 51.9 70.6 50.4 77.4 56.75 74.9 65.25 74.6 65.7 74.4 66.2 69.9 71 63.25 71.75
L 63.55 72.25
Q 83.4 73.9 103.65 74.95 122 75.75 140.55 75.1 159.05 75.75 177.45 74.95 197.7 73.9 217.5 72.25
L 217.85 71.75
Q 211.2 71 206.7 66.2 206.5 65.7 206.2 65.25 Z"/>

<path fill="#333333" stroke="none" d="
M 205.3 34.6
L 211.35 28.15 211.45 27.5
Q 196.2 25.1 181 24.6 164.45 24.05 147.85 23.4
L 133.25 23.4
Q 116.65 24.05 100.05 24.6 84.85 25.1 69.6 27.5
L 69.75 28.15 75.75 34.6 76.45 39
Q 83.15 38.05 89.85 37.15 97.3 36.25 104.65 37.75 122.5 41.4 140.55 40.6 158.6 41.4 176.45 37.75 183.75 36.25 191.25 37.15 197.9 38.05 204.6 39
L 205.3 34.6 Z"/>

<path fill="#FFCC00" stroke="none" d="
M 211.45 27.5
Q 211.15 26.85 210.8 26.05 205.45 11 222.95 6.5
L 178.5 3.85 102.6 3.85 58.15 6.5
Q 75.65 11 70.25 26.05 69.95 26.85 69.6 27.5 84.85 25.1 100.05 24.6 116.65 24.05 133.25 23.4
L 147.85 23.4
Q 164.45 24.05 181 24.6 196.2 25.1 211.45 27.5 Z"/>

<path fill="#FFFF00" stroke="none" d="
M 226.95 5.05
Q 226.2 4.7 225.4 4.35 224.55 4.3 223.6 4.2 222.65 4.15 221.55 4.15 221.4 4.15 221.05 4 220.55 4.1 220.05 3.95
L 219.4 4.2
Q 211.5 3.05 203.55 2.2 187.3 0.35 170.65 0
L 140.55 0.35 110.4 0
Q 93.8 0.35 77.5 2.2 69.55 3.05 61.7 4.2
L 61 3.95
Q 60.55 4.1 60.05 4 59.65 4.15 59.5 4.15 58.4 4.15 57.5 4.2 56.55 4.3 55.65 4.35 54.9 4.7 54.1 5.05
L 54.7 5.7 58.15 6.5 102.6 3.85 178.5 3.85 222.95 6.5 226.4 5.7 226.95 5.05 Z"/>
</g>
</defs>

<g transform="matrix( 1, 0, 0, 1, 70.4,31.5) ">
<g transform="matrix( 1, 0, 0, 1, 0,0) ">
<use xlink:href="#S_mbolo_1_0_Layer0_0_FILL"/>
</g>
</g>

<g transform="matrix( 1, 0, 0, 1, 56.75,95.65) ">
<g transform="matrix( 1, 0, 0, 1, 0,0) ">
<use xlink:href="#S_mbolo_2_0_Layer0_0_FILL"/>
</g>
</g>

<g transform="matrix( 1, 0, 0, 1, 48.1,196.25) ">
<g transform="matrix( 1, 0, 0, 1, 0,0) ">
<use xlink:href="#S_mbolo_3_0_Layer0_0_FILL"/>
</g>
</g>

<g transform="matrix( 1, 0, 0, 1, 306.1,198.5) ">
<g transform="matrix( 1, 0, 0, 1, 0,0) ">
<use xlink:href="#S_mbolo_4_0_Layer0_0_FILL"/>
</g>
</g>

<g transform="matrix( 1, 0, 0, 1, 49,295.75) ">
<g transform="matrix( 1, 0, 0, 1, 0,0) ">
<use xlink:href="#S_mbolo_5_0_Layer0_0_FILL"/>
</g>
</g>
</svg>
