
<svg xmlns="http://www.w3.org/2000/svg" version="1.1" xmlns:xlink="http://www.w3.org/1999/xlink" preserveAspectRatio="none" x="0px" y="0px" width="550px" height="400px" viewBox="0 0 550 400">
<defs>
<linearGradient id="Gradient_1" gradientUnits="userSpaceOnUse" x1="6.1" y1="40.4125" x2="2.0999999999999996" y2="26.987500000000004" spreadMethod="pad">
<stop  offset="0.7843137254901961%" stop-color="#999999"/>

<stop  offset="99.2156862745098%" stop-color="#666666"/>
</linearGradient>

<linearGradient id="Gradient_2" gradientUnits="userSpaceOnUse" x1="0.8499999999999979" y1="26.450000000000003" x2="50.150000000000006" y2="9.15" spreadMethod="pad">
<stop  offset="0%" stop-color="#999999"/>

<stop  offset="99.2156862745098%" stop-color="#666666"/>
</linearGradient>

<linearGradient id="Gradient_3" gradientUnits="userSpaceOnUse" x1="20.2875" y1="27.974999999999994" x2="66.11250000000001" y2="45.625" spreadMethod="pad">
<stop  offset="0%" stop-color="#666666"/>

<stop  offset="97.6470588235294%" stop-color="#CCCCCC"/>
</linearGradient>

<linearGradient id="Gradient_4" gradientUnits="userSpaceOnUse" x1="19.4625" y1="9.712499999999999" x2="34.6375" y2="45.7875" spreadMethod="pad">
<stop  offset="0%" stop-color="#CCCCCC"/>

<stop  offset="100%" stop-color="#999999"/>
</linearGradient>

<linearGradient id="Gradient_5" gradientUnits="userSpaceOnUse" x1="16.875" y1="18.474999999999998" x2="19.625" y2="43.425" spreadMethod="pad">
<stop  offset="0.7843137254901961%" stop-color="#999999"/>

<stop  offset="99.2156862745098%" stop-color="#333333"/>
</linearGradient>

<linearGradient id="Gradient_6" gradientUnits="userSpaceOnUse" x1="23.787499999999998" y1="11.987499999999997" x2="34.0125" y2="35.3125" spreadMethod="pad">
<stop  offset="0%" stop-color="#999999"/>

<stop  offset="100%" stop-color="#F5F5F5"/>
</linearGradient>

<linearGradient id="Gradient_7" gradientUnits="userSpaceOnUse" x1="47.75" y1="12.774999999999999" x2="48.150000000000006" y2="41.125" spreadMethod="pad">
<stop  offset="0%" stop-color="#333333"/>

<stop  offset="99.2156862745098%" stop-color="#A3A3A3"/>
</linearGradient>

<linearGradient id="Gradient_8" gradientUnits="userSpaceOnUse" x1="7.924999999999999" y1="18.5625" x2="36.075" y2="4.337499999999999" spreadMethod="pad">
<stop  offset="0.7843137254901961%" stop-color="#999999"/>

<stop  offset="99.2156862745098%" stop-color="#333333"/>
</linearGradient>

<linearGradient id="Gradient_9" gradientUnits="userSpaceOnUse" x1="18.1875" y1="10.837499999999999" x2="30.112499999999997" y2="27.0625" spreadMethod="pad">
<stop  offset="0.7843137254901961%" stop-color="#FFFFFF" stop-opacity="0.28627450980392155"/>

<stop  offset="98.43137254901961%" stop-color="#FFFFFF" stop-opacity="0.8392156862745098"/>
</linearGradient>

<linearGradient id="Gradient_10" gradientUnits="userSpaceOnUse" x1="19.4625" y1="9.712499999999999" x2="34.6375" y2="45.7875" spreadMethod="pad">
<stop  offset="0.7843137254901961%" stop-color="#FFFFFF" stop-opacity="0.28627450980392155"/>

<stop  offset="99.2156862745098%" stop-color="#FFFFFF" stop-opacity="0.7490196078431373"/>
</linearGradient>

<linearGradient id="Gradient_11" gradientUnits="userSpaceOnUse" x1="20.162499999999998" y1="13.524999999999999" x2="28.1375" y2="24.375" spreadMethod="pad">
<stop  offset="0.7843137254901961%" stop-color="#FFFFFF" stop-opacity="0.28627450980392155"/>

<stop  offset="99.2156862745098%" stop-color="#FFFFFF" stop-opacity="0.7490196078431373"/>
</linearGradient>

<linearGradient id="Gradient_12" gradientUnits="userSpaceOnUse" x1="6.15" y1="40.4125" x2="2.1500000000000004" y2="26.987500000000004" spreadMethod="pad">
<stop  offset="0.7843137254901961%" stop-color="#999999"/>

<stop  offset="99.2156862745098%" stop-color="#666666"/>
</linearGradient>

<linearGradient id="Gradient_13" gradientUnits="userSpaceOnUse" x1="0.8999999999999986" y1="26.450000000000003" x2="50.2" y2="9.15" spreadMethod="pad">
<stop  offset="0%" stop-color="#999999"/>

<stop  offset="99.2156862745098%" stop-color="#666666"/>
</linearGradient>

<linearGradient id="Gradient_14" gradientUnits="userSpaceOnUse" x1="20.3375" y1="27.974999999999994" x2="66.1625" y2="45.625" spreadMethod="pad">
<stop  offset="0%" stop-color="#666666"/>

<stop  offset="97.6470588235294%" stop-color="#CCCCCC"/>
</linearGradient>

<linearGradient id="Gradient_15" gradientUnits="userSpaceOnUse" x1="19.512500000000003" y1="9.712499999999999" x2="34.6875" y2="45.7875" spreadMethod="pad">
<stop  offset="0%" stop-color="#CCCCCC"/>

<stop  offset="100%" stop-color="#999999"/>
</linearGradient>

<linearGradient id="Gradient_16" gradientUnits="userSpaceOnUse" x1="18.625" y1="16.362499999999997" x2="22.275" y2="44.0375" spreadMethod="pad">
<stop  offset="0.7843137254901961%" stop-color="#999999"/>

<stop  offset="99.2156862745098%" stop-color="#333333"/>
</linearGradient>

<linearGradient id="Gradient_17" gradientUnits="userSpaceOnUse" x1="23.8375" y1="11.987499999999997" x2="34.0625" y2="35.3125" spreadMethod="pad">
<stop  offset="0%" stop-color="#999999"/>

<stop  offset="100%" stop-color="#F5F5F5"/>
</linearGradient>

<linearGradient id="Gradient_18" gradientUnits="userSpaceOnUse" x1="47.8" y1="12.774999999999999" x2="48.2" y2="41.125" spreadMethod="pad">
<stop  offset="0%" stop-color="#333333"/>

<stop  offset="99.2156862745098%" stop-color="#A3A3A3"/>
</linearGradient>

<linearGradient id="Gradient_19" gradientUnits="userSpaceOnUse" x1="7.975" y1="18.5625" x2="36.125" y2="4.337499999999999" spreadMethod="pad">
<stop  offset="0.7843137254901961%" stop-color="#999999"/>

<stop  offset="99.2156862745098%" stop-color="#333333"/>
</linearGradient>

<linearGradient id="Gradient_20" gradientUnits="userSpaceOnUse" x1="46.3875" y1="-1.512500000000001" x2="58.3125" y2="14.7125" spreadMethod="pad">
<stop  offset="0.7843137254901961%" stop-color="#FFFFFF" stop-opacity="0.28627450980392155"/>

<stop  offset="98.43137254901961%" stop-color="#FFFFFF" stop-opacity="0.8392156862745098"/>
</linearGradient>

<linearGradient id="Gradient_21" gradientUnits="userSpaceOnUse" x1="17.8375" y1="19.125" x2="33.6625" y2="34.475" spreadMethod="pad">
<stop  offset="0.7843137254901961%" stop-color="#FFFFFF" stop-opacity="0.28627450980392155"/>

<stop  offset="98.43137254901961%" stop-color="#FFFFFF" stop-opacity="0.8392156862745098"/>
</linearGradient>

<linearGradient id="Gradient_22" gradientUnits="userSpaceOnUse" x1="18.65" y1="23.025" x2="19.15" y2="37.275" spreadMethod="pad">
<stop  offset="0.7843137254901961%" stop-color="#999999"/>

<stop  offset="99.2156862745098%" stop-color="#333333"/>
</linearGradient>

<linearGradient id="Gradient_23" gradientUnits="userSpaceOnUse" x1="17.450000000000003" y1="23.012500000000003" x2="29.25" y2="30.1875" spreadMethod="pad">
<stop  offset="0.7843137254901961%" stop-color="#FFFFFF" stop-opacity="0.28627450980392155"/>

<stop  offset="98.43137254901961%" stop-color="#FFFFFF" stop-opacity="0.8392156862745098"/>
</linearGradient>

<linearGradient id="Gradient_24" gradientUnits="userSpaceOnUse" x1="19.6" y1="21.4" x2="43.5" y2="40.5" spreadMethod="pad">
<stop  offset="0.7843137254901961%" stop-color="#FFFFFF" stop-opacity="0.28627450980392155"/>

<stop  offset="98.43137254901961%" stop-color="#FFFFFF" stop-opacity="0.8392156862745098"/>
</linearGradient>

<g id="Copia_de_S_mbolo_9_3_0_Layer1_0_FILL">
<path fill="url(#Gradient_1)" stroke="none" d="
M 5.5 27.15
L 5.5 27.1
Q 3.8677734375 27.3251953125 1.5 27.95 0.6814453125 28.1787109375 0 28.35 0.195703125 33.0310546875 1.65 37.1 2.0728515625 38.1849609375 2.55 39.2 3.3404296875 40.8787109375 4.35 42.4 6.0150390625 42.6 8.05 42.6 9.0998046875 42.6 10.1 42.55 8.7638671875 40.6029296875 7.8 38.45 7.37421875 37.5162109375 7 36.5 5.5 32.1923828125 5.5 27.15 Z"/>

<path fill="#666666" stroke="none" d="
M 5.5 27.1
Q 5.5021484375 26.021484375 5.55 24.95 4.2533203125 25.1671875 2.6 25.55 1.0916015625 25.9025390625 0 26.2 0 26.6728515625 0 27.15 0 27.7708984375 0 28.35 0.6814453125 28.1787109375 1.5 27.95 3.8677734375 27.3251953125 5.5 27.1
M 4.2 19.1
Q 5.466796875 18.905078125 6.7 18.75 6.9296875 18.0228515625 7.2 17.3 5.54296875 17.276171875 3.3 17.65 2.190234375 17.826171875 1.35 18 1.11640625 18.8271484375 0.9 19.65 2.1806640625 19.38125 4.2 19.1 Z"/>

<path fill="url(#Gradient_2)" stroke="none" d="
M 6.7 18.75
Q 5.466796875 18.905078125 4.2 19.1 2.1806640625 19.38125 0.9 19.65 0.1171875 22.781640625 0 26.2 1.0916015625 25.9025390625 2.6 25.55 4.2533203125 25.1671875 5.55 24.95 5.79609375 21.7193359375 6.7 18.75 Z"/>

<path fill="url(#Gradient_3)" stroke="none" d="
M 46.05 42.15
Q 45.8814453125 42.049609375 45.7 41.95 44.7140625 43.481640625 43.45 44.9 36.95 52.3 27.75 52.3 26.4 52.3 25.15 52.15 17.6 51.25 12 44.9 10.98984375 43.7578125 10.1 42.55 9.0998046875 42.6 8.05 42.6 6.0150390625 42.6 4.35 42.4 5.651953125 44.4248046875 7.35 46.25 13.65 53.1 22.2 54.1 23.6 54.25 25.15 54.25 35.55 54.25 42.85 46.25 44.6732421875 44.303515625 46.05 42.15
M 40.15 11.35
Q 40.008984375 11.181640625 39.85 11 36.9158203125 7.6724609375 33.3 6.05 31.5376953125 5.433203125 29.6 5.2 28.5 5.05 27.3 5.05 19.36328125 5.05 13.65 11.3 13.580859375 11.4091796875 13.5 11.5 10.6814453125 14.7142578125 9.25 18.55 8.1759765625 21.513671875 7.9 24.8 7.8 25.9638671875 7.8 27.15 7.8 32.1341796875 9.5 36.3 9.7005859375 36.7685546875 9.9 37.2 9.7341796875 36.7626953125 9.55 36.3 8.4 32.7296875 8.4 28.6 8.4 26.675390625 8.65 24.85 9.1216796875 21.4986328125 10.45 18.5 11.8365234375 15.53125 14.1 12.95 19.85 6.5 27.9 6.5 29.1 6.5 30.2 6.65 32.85 6.95 35.2 8.05 37.848828125 9.2064453125 40.15 11.35 Z"/>

<path fill="#DEDEDE" stroke="none" d="
M 45.7 12.25
Q 44.6990234375 10.7611328125 43.45 9.35 37.79375 2.954296875 30.1 2.1 29.5154296875 2.0564453125 28.9 2 28.342578125 2 27.75 2 26.4 2 25.15 2.15 24.263671875 2.2556640625 23.4 2.45 22.8072265625 2.5634765625 22.2 2.7 19.193359375 3.558203125 16.5 5.35 16.1205078125 5.6265625 15.75 5.9 13.7814453125 7.3458984375 12 9.35 11.6228515625 9.7794921875 11.25 10.2 10.84296875 10.740234375 10.45 11.25 8.401171875 14.0958984375 7.2 17.3 6.9296875 18.0228515625 6.7 18.75 5.79609375 21.7193359375 5.55 24.95 5.5021484375 26.021484375 5.5 27.1
L 5.5 27.15
Q 5.5 32.1923828125 7 36.5 7.37421875 37.5162109375 7.8 38.45 8.7638671875 40.6029296875 10.1 42.55 10.98984375 43.7578125 12 44.9 17.6 51.25 25.15 52.15 26.4 52.3 27.75 52.3 36.95 52.3 43.45 44.9 44.7140625 43.481640625 45.7 41.95 50 35.54296875 50 27.15 50 18.7333984375 45.7 12.25
M 41.1 11.5
Q 43.219140625 13.8955078125 44.55 16.65 45.01015625 17.594921875 45.35 18.55 46.85 22.5283203125 46.85 27.15 46.85 36 41.45 42.3 41.25 42.5 41.1 42.7 36.25 48.3 29.6 49.05 28.5 49.2 27.3 49.2 23.449609375 49.2 20.1 47.7 16.4998046875 46.091015625 13.5 42.7 13.3072265625 42.4818359375 13.1 42.25 11.519140625 40.34765625 10.4 38.2 10.13828125 37.7193359375 9.9 37.2 9.7005859375 36.7685546875 9.5 36.3 7.8 32.1341796875 7.8 27.15 7.8 25.9638671875 7.9 24.8 8.1759765625 21.513671875 9.25 18.55 10.6814453125 14.7142578125 13.5 11.5 13.580859375 11.4091796875 13.65 11.3 19.36328125 5.05 27.3 5.05 28.5 5.05 29.6 5.2 31.5376953125 5.433203125 33.3 6.05 37.66328125 7.602734375 41.1 11.5
M 23 14.85
Q 22.65 14.9 22.4 14.95 16.35 25.2 15.15 27.4 15.85 28.05 16.75 28.85 17.55 29.5 18.2 29.95 19.15 28.3 21.4 25.35 22.95 23.3 23.8 22.1 24.2 25.7 24.8 30.35 25.3740234375 34.7822265625 25.85 38 26.1783203125 39.8509765625 26.45 41.3 28.5 40.75 33.4 39.45 37.9 38.25 40.55 37.5 39.4828125 31.9783203125 38.6 27.5 36.6513671875 17.5 35.65 12.7 27.65 14.05 23 14.85 Z"/>

<path fill="url(#Gradient_4)" stroke="none" d="
M 45.6 26.65
Q 45.6 20.85 43.3 16.15 42.0521484375 13.608203125 40.15 11.35 37.848828125 9.2064453125 35.2 8.05 32.85 6.95 30.2 6.65 29.1 6.5 27.9 6.5 19.85 6.5 14.1 12.95 11.8365234375 15.53125 10.45 18.5 9.1216796875 21.4986328125 8.65 24.85 8.4 26.675390625 8.4 28.6 8.4 32.7296875 9.55 36.3 9.7341796875 36.7626953125 9.9 37.2 10.13828125 37.7193359375 10.4 38.2 11.519140625 40.34765625 13.1 42.25 13.3072265625 42.4818359375 13.5 42.7 16.4998046875 46.091015625 20.1 47.7 22.9130859375 48.7 26.05 48.7 27.25 48.7 28.35 48.55 35 47.8 39.85 42.2 40 42 40.2 41.8 45.6 35.5 45.6 26.65
M 20.55 14.65
L 36.05 11.85 41.2 39.05 24.45 43.4 22 25.75 17 32.55 12.2 28.75 20.55 14.65 Z"/>

<path fill="#333333" stroke="none" d="
M 18.2 29.95
L 17 32.55 22 25.75 23.8 22.1
Q 22.95 23.3 21.4 25.35 19.15 28.3 18.2 29.95 Z"/>

<path fill="url(#Gradient_5)" stroke="none" d="
M 36.05 11.85
L 35.65 12.7
Q 36.6513671875 17.5 38.6 27.5 39.4828125 31.9783203125 40.55 37.5 37.9 38.25 33.4 39.45 28.5 40.75 26.45 41.3 26.1783203125 39.8509765625 25.85 38 25.3740234375 34.7822265625 24.8 30.35 24.2 25.7 23.8 22.1
L 22 25.75 24.45 43.4 41.2 39.05 36.05 11.85
M 22.4 14.95
L 20.55 14.65 12.2 28.75 17 32.55 18.2 29.95
Q 17.55 29.5 16.75 28.85 15.85 28.05 15.15 27.4 16.35 25.2 22.4 14.95 Z"/>

<path fill="#FFFFFF" stroke="none" d="
M 22.4 14.95
Q 22.65 14.9 23 14.85 27.65 14.05 35.65 12.7
L 36.05 11.85 20.55 14.65 22.4 14.95 Z"/>

<path fill="url(#Gradient_6)" stroke="none" d="
M 44.55 16.65
Q 43.219140625 13.8955078125 41.1 11.5 37.66328125 7.602734375 33.3 6.05 36.9158203125 7.6724609375 39.85 11 40.008984375 11.181640625 40.15 11.35 42.0521484375 13.608203125 43.3 16.15 45.6 20.85 45.6 26.65 45.6 35.5 40.2 41.8 40 42 39.85 42.2 35 47.8 28.35 48.55 27.25 48.7 26.05 48.7 22.9130859375 48.7 20.1 47.7 23.449609375 49.2 27.3 49.2 28.5 49.2 29.6 49.05 36.25 48.3 41.1 42.7 41.25 42.5 41.45 42.3 46.85 36 46.85 27.15 46.85 22.5283203125 45.35 18.55 45.01015625 17.594921875 44.55 16.65 Z"/>

<path fill="url(#Gradient_7)" stroke="none" d="
M 45.8 11.7
Q 45.75703125 11.9890625 45.7 12.25 50 18.7333984375 50 27.15 50 35.54296875 45.7 41.95 45.8814453125 42.049609375 46.05 42.15 50.25 35.5904296875 50.25 27.15 50.25 18.4353515625 45.8 11.7 Z"/>

<path fill="url(#Gradient_8)" stroke="none" d="
M 45.7 12.25
Q 45.75703125 11.9890625 45.8 11.7 44.517578125 9.7416015625 42.85 7.95 35.55 0 25.15 0 25.0568359375 0 24.95 0 24.3046875 0.00625 23.65 0.05 23.265234375 0.07578125 22.85 0.1 22.5294921875 0.1529296875 22.2 0.2 20.0826171875 0.43515625 18.1 1 17.265625 1.28203125 16.45 1.6 13.2419921875 2.85078125 10.4 5.1 10.00703125 5.4224609375 9.6 5.75 8.440625 6.77265625 7.35 7.95 6.0640625 9.3408203125 5 10.8 4.58359375 11.421484375 4.2 12 2.40859375 14.8404296875 1.35 18 2.190234375 17.826171875 3.3 17.65 5.54296875 17.276171875 7.2 17.3 8.401171875 14.0958984375 10.45 11.25 10.84296875 10.740234375 11.25 10.2 11.6228515625 9.7794921875 12 9.35 13.7814453125 7.3458984375 15.75 5.9 16.1205078125 5.6265625 16.5 5.35 19.193359375 3.558203125 22.2 2.7 22.8072265625 2.5634765625 23.4 2.45 24.263671875 2.2556640625 25.15 2.15 26.4 2 27.75 2 28.342578125 2 28.9 2 29.5154296875 2.0564453125 30.1 2.1 37.79375 2.954296875 43.45 9.35 44.6990234375 10.7611328125 45.7 12.25 Z"/>
</g>

<g id="Copia_de_S_mbolo_9_3_0_Layer0_0_FILL">
<path fill="url(#Gradient_9)" stroke="none" d="
M 36.65 21.05
L 35.3 13.6 22.65 15.95 16.35 27.3 18.2 28.85 24.15 20.65 25.75 30.95
Q 30.95625 24.9134765625 36.65 21.05 Z"/>

<path fill="url(#Gradient_10)" stroke="none" d="
M 37.05 11.05
Q 36.71328125 10.838671875 36.35 10.6 35.3568359375 9.988671875 34.45 9.6 32.3 8.6 29.9 8.35 28.9 8.2 27.8 8.2 20.45 8.2 15.2 14.1 13.15 16.45 11.9 19.2 10.6 21.9 10.2 25 10 26.65 10 28.4 10 32.2 11.05 35.45 11.15 35.85 11.35 36.25 11.6 36.7 11.8 37.2 12.8 39.15 14.3 40.85 14.45 41.1 14.65 41.25 15.1703125 41.8568359375 15.7 42.4 18.5185546875 36.8603515625 22.25 32.45
L 21.65 29.05 18.1 33.6 11.7 28.65 20.6 14.15 36.45 11.2 38.2 19.4
Q 38.515625 19.2646484375 38.8 19.1 40.869921875 17.8990234375 42.25 17.25 41.257421875 15.25546875 39.85 13.65 38.486328125 12.0548828125 37.05 11.05 Z"/>

<path fill="url(#Gradient_11)" stroke="none" d="
M 45.7 12.25
Q 44.6990234375 10.7611328125 43.45 9.35 37.79375 2.954296875 30.1 2.1 29.5154296875 2.0564453125 28.9 2 28.342578125 2 27.75 2 26.4 2 25.15 2.15 24.263671875 2.2556640625 23.4 2.45 22.8072265625 2.5634765625 22.2 2.7 19.193359375 3.558203125 16.5 5.35 16.1205078125 5.6265625 15.75 5.9 13.7814453125 7.3458984375 12 9.35 11.6228515625 9.7794921875 11.25 10.2 10.84296875 10.740234375 10.45 11.25 8.401171875 14.0958984375 7.2 17.3 6.9296875 18.0228515625 6.7 18.75 5.79609375 21.7193359375 5.55 24.95 5.5021484375 26.021484375 5.5 27.1
L 5.5 27.15
Q 5.5 32.1923828125 7 36.5 7.37421875 37.5162109375 7.8 38.45 8.7638671875 40.6029296875 10.1 42.55 10.98984375 43.7578125 12 44.9 12.8216796875 45.831640625 13.65 46.65 15.28203125 48.14765625 17 49.25 17.60546875 48.1052734375 18.35 46.8 16.5169921875 45.701953125 14.85 44.1 14.154296875 43.4396484375 13.5 42.7 13.3072265625 42.4818359375 13.1 42.25 11.519140625 40.34765625 10.4 38.2 10.13828125 37.7193359375 9.9 37.2 9.7005859375 36.7685546875 9.5 36.3 7.8 32.1341796875 7.8 27.15 7.8 25.9638671875 7.9 24.8 8.1759765625 21.513671875 9.25 18.55 10.6814453125 14.7142578125 13.5 11.5 13.580859375 11.4091796875 13.65 11.3 19.36328125 5.05 27.3 5.05 28.5 5.05 29.6 5.2 31.5376953125 5.433203125 33.3 6.05 37.66328125 7.602734375 41.1 11.5 43.0505859375 13.7048828125 44.3 16.2 44.444140625 16.430859375 44.55 16.65 45.01015625 17.594921875 45.35 18.55 45.550390625 19.0451171875 45.7 19.5 47.1626953125 18.8216796875 48.6 18.25 48.06875 16.5908203125 47.25 15 46.583203125 13.6013671875 45.7 12.25 Z"/>
</g>

<g id="Copia_de_S_mbolo_9_4_0_Layer1_0_FILL">
<path fill="url(#Gradient_12)" stroke="none" d="
M 5.55 27.15
L 5.55 27.1
Q 3.9 27.35 1.55 27.95 0.75 28.2 0.1 28.4 0.25 33.05 1.75 37.1 2.1 38.2 2.65 39.25 3.4 40.9 4.4 42.45 6.05 42.6 8.1 42.6 9.15 42.6 10.2 42.55 8.8 40.6 7.85 38.5 7.4 37.5 7.1 36.55 5.55 32.2 5.55 27.15 Z"/>

<path fill="#666666" stroke="none" d="
M 5.55 27.1
Q 5.55 26 5.65 25 4.3 25.15 2.65 25.55 1.15 25.9 0.1 26.2 0.05 26.65 0.05 27.15 0.05 27.75 0.1 28.4 0.75 28.2 1.55 27.95 3.9 27.35 5.55 27.1
M 3.35 17.65
Q 2.25 17.85 1.45 18 1.15 18.85 0.95 19.7 2.25 19.4 4.25 19.1 5.5 18.9 6.75 18.8 7 18 7.25 17.3 5.6 17.3 3.35 17.65 Z"/>

<path fill="url(#Gradient_13)" stroke="none" d="
M 4.25 19.1
Q 2.25 19.4 0.95 19.7 0.15 22.8 0.1 26.2 1.15 25.9 2.65 25.55 4.3 25.15 5.65 25 5.85 21.7 6.75 18.8 5.5 18.9 4.25 19.1 Z"/>

<path fill="url(#Gradient_14)" stroke="none" d="
M 46.1 42.15
Q 45.95 42.05 45.8 41.95 44.75 43.5 43.5 44.9 37 52.3 27.8 52.3 26.45 52.3 25.2 52.15 17.65 51.25 12.05 44.9 11.05 43.75 10.2 42.55 9.15 42.6 8.1 42.6 6.05 42.6 4.4 42.45 5.7 44.4 7.4 46.25 13.7 53.1 22.25 54.1 23.65 54.25 25.2 54.25 35.6 54.25 42.9 46.25 44.7 44.3 46.1 42.15
M 39.9 11
Q 36.95 7.65 33.4 6.1 31.6 5.45 29.65 5.2 28.55 5.05 27.35 5.05 19.4 5.05 13.7 11.35 13.65 11.4 13.55 11.5 10.75 14.7 9.3 18.6 8.25 21.5 7.95 24.85 7.85 25.95 7.85 27.15 7.85 32.15 9.6 36.35 9.75 36.75 9.95 37.2 9.8 36.75 9.65 36.35 8.45 32.75 8.45 28.6 8.45 26.7 8.7 24.9 9.15 21.5 10.55 18.55 11.9 15.55 14.15 12.95 19.9 6.5 27.95 6.5 29.15 6.5 30.25 6.65 32.9 6.95 35.25 8.05 37.9 9.2 40.25 11.4 40.05 11.2 39.9 11 Z"/>

<path fill="#DEDEDE" stroke="none" d="
M 45.75 12.3
Q 44.75 10.75 43.5 9.35 37.85 2.95 30.15 2.15 29.55 2.05 29 2.05 28.4 2 27.8 2 26.45 2 25.2 2.15 24.3 2.25 23.45 2.45 22.85 2.55 22.3 2.75 19.25 3.55 16.55 5.4 16.15 5.65 15.8 5.9 13.85 7.35 12.05 9.35 11.65 9.8 11.35 10.25 10.9 10.75 10.5 11.3 8.45 14.1 7.25 17.3 7 18 6.75 18.8 5.85 21.7 5.65 25 5.55 26 5.55 27.1
L 5.55 27.15
Q 5.55 32.2 7.1 36.55 7.4 37.5 7.85 38.5 8.8 40.6 10.2 42.55 11.05 43.75 12.05 44.9 17.65 51.25 25.2 52.15 26.45 52.3 27.8 52.3 37 52.3 43.5 44.9 44.75 43.5 45.8 41.95 50.05 35.55 50.05 27.15 50.05 18.75 45.75 12.3
M 41.15 11.5
Q 43.25 13.9 44.6 16.65 45.05 17.6 45.45 18.6 46.9 22.55 46.9 27.15 46.9 36 41.5 42.3 41.3 42.5 41.15 42.7 36.3 48.3 29.65 49.05 28.55 49.2 27.35 49.2 23.5 49.2 20.2 47.75 16.55 46.1 13.55 42.7 13.35 42.5 13.2 42.25 11.55 40.35 10.45 38.25 10.2 37.7 9.95 37.2 9.75 36.75 9.6 36.35 7.85 32.15 7.85 27.15 7.85 25.95 7.95 24.85 8.25 21.5 9.3 18.6 10.75 14.7 13.55 11.5 13.65 11.4 13.7 11.35 19.4 5.05 27.35 5.05 28.55 5.05 29.65 5.2 31.6 5.45 33.4 6.1 37.7 7.6 41.15 11.5
M 20.65 16
L 20.6 16
Q 20.4 17 20.15 18.15 20 19.15 19.9 19.95 21.85 19.95 25.5 20.45 28.05 20.7 29.5 20.85 26.6 23 22.85 25.9 22.4685546875 26.184765625 22.1 26.45 21.361328125 27.0291015625 20.65 27.55 18.4791015625 29.2421875 16.75 30.7 16.2158203125 31.138671875 15.7 31.55 14.9302734375 32.193359375 14.25 32.75 15.7 34.3 19.3 37.85 22.4560546875 41.0060546875 24.35 42.85 24.46484375 42.9669921875 24.55 43.05 28.8 39.4 32.25 36.4 36.48828125 32.712109375 39.5 30.05 41.958984375 27.88359375 43.6 26.4 39.977734375 22.0390625 37.4 18.95 36.3046875 17.6326171875 35.4 16.55 35.2 16.25 35 16.1 23.2642578125 15.9513671875 20.65 16 Z"/>

<path fill="url(#Gradient_15)" stroke="none" d="
M 45.65 26.65
Q 45.65 20.85 43.35 16.15 42.1 13.6 40.25 11.4 37.9 9.2 35.25 8.05 32.9 6.95 30.25 6.65 29.15 6.5 27.95 6.5 19.9 6.5 14.15 12.95 11.9 15.55 10.55 18.55 9.15 21.5 8.7 24.9 8.45 26.7 8.45 28.6 8.45 32.75 9.65 36.35 9.8 36.75 9.95 37.2 10.2 37.7 10.45 38.25 11.55 40.35 13.2 42.25 13.35 42.5 13.55 42.7 16.55 46.1 20.2 47.75 22.95 48.7 26.1 48.7 27.3 48.7 28.4 48.55 35.05 47.8 39.9 42.2 40.05 42 40.25 41.8 45.65 35.5 45.65 26.65
M 17.95 14.15
L 18 14.15 34.35 14.35 44.55 26.35 23.55 44.45 11.4 32.05 25.45 21.15 17.05 20.2 17.95 14.15 Z"/>

<path fill="#FFFFFF" stroke="none" d="
M 35 16.1
L 34.35 14.35 18 14.15 20.65 16
Q 23.2642578125 15.9513671875 35 16.1 Z"/>

<path fill="url(#Gradient_16)" stroke="none" d="
M 29.5 20.85
L 25.45 21.15 11.4 32.05 23.55 44.45 44.55 26.35 34.35 14.35 35 16.1
Q 35.2 16.25 35.4 16.55 36.3046875 17.6326171875 37.4 18.95 39.977734375 22.0390625 43.6 26.4 41.958984375 27.88359375 39.5 30.05 36.48828125 32.712109375 32.25 36.4 28.8 39.4 24.55 43.05 24.46484375 42.9669921875 24.35 42.85 22.4560546875 41.0060546875 19.3 37.85 15.7 34.3 14.25 32.75 14.9302734375 32.193359375 15.7 31.55 16.2158203125 31.138671875 16.75 30.7 18.4791015625 29.2421875 20.65 27.55 21.361328125 27.0291015625 22.1 26.45 22.4685546875 26.184765625 22.85 25.9 26.6 23 29.5 20.85
M 20.6 16
L 20.65 16 18 14.15 17.95 14.15 17.05 20.2 19.9 19.95
Q 20 19.15 20.15 18.15 20.4 17 20.6 16 Z"/>

<path fill="#333333" stroke="none" d="
M 29.5 20.85
Q 28.05 20.7 25.5 20.45 21.85 19.95 19.9 19.95
L 17.05 20.2 25.45 21.15 29.5 20.85 Z"/>

<path fill="url(#Gradient_17)" stroke="none" d="
M 44.6 16.65
Q 43.25 13.9 41.15 11.5 37.7 7.6 33.4 6.1 36.95 7.65 39.9 11 40.05 11.2 40.25 11.4 42.1 13.6 43.35 16.15 45.65 20.85 45.65 26.65 45.65 35.5 40.25 41.8 40.05 42 39.9 42.2 35.05 47.8 28.4 48.55 27.3 48.7 26.1 48.7 22.95 48.7 20.2 47.75 23.5 49.2 27.35 49.2 28.55 49.2 29.65 49.05 36.3 48.3 41.15 42.7 41.3 42.5 41.5 42.3 46.9 36 46.9 27.15 46.9 22.55 45.45 18.6 45.05 17.6 44.6 16.65 Z"/>

<path fill="url(#Gradient_18)" stroke="none" d="
M 45.85 11.7
Q 45.8 12 45.75 12.3 50.05 18.75 50.05 27.15 50.05 35.55 45.8 41.95 45.95 42.05 46.1 42.15 50.3 35.6 50.3 27.15 50.3 18.45 45.85 11.7 Z"/>

<path fill="url(#Gradient_19)" stroke="none" d="
M 45.75 12.3
Q 45.8 12 45.85 11.7 44.55 9.75 42.9 7.95 35.6 0 25.2 0 25.1 0 25.05 0 24.35 0 23.75 0.05 23.3 0.1 22.95 0.15 22.6 0.15 22.25 0.2 20.15 0.45 18.15 1.05 17.3 1.3 16.5 1.6 13.3 2.85 10.5 5.1 10.05 5.4 9.65 5.8 8.5 6.75 7.4 7.95 6.1 9.35 5.05 10.85 4.65 11.4 4.25 12.05 2.45 14.85 1.45 18 2.25 17.85 3.35 17.65 5.6 17.3 7.25 17.3 8.45 14.1 10.5 11.3 10.9 10.75 11.35 10.25 11.65 9.8 12.05 9.35 13.85 7.35 15.8 5.9 16.15 5.65 16.55 5.4 19.25 3.55 22.3 2.75 22.85 2.55 23.45 2.45 24.3 2.25 25.2 2.15 26.45 2 27.8 2 28.4 2 29 2.05 29.55 2.05 30.15 2.15 37.85 2.95 43.5 9.35 44.75 10.75 45.75 12.3 Z"/>
</g>

<g id="Copia_de_S_mbolo_9_4_0_Layer0_0_FILL">
<path fill="url(#Gradient_20)" stroke="none" d="
M 21.2 16.75
L 20.85 19.1 31.6 20.35 15.9 32.85 22.2 38.8
Q 22.871875 37.782421875 23.55 36.85 26.2 33.3 30.45 29.4 32.6 27.4 37.8 24.6 38.840625 24.05 39.8 23.55
L 33.9 16.85 21.2 16.75 Z"/>

<path fill="url(#Gradient_21)" stroke="none" d="
M 43.7 17.05
Q 43.51796875 16.5953125 43.3 16.15 42.0521484375 13.608203125 40.15 11.35 37.848828125 9.2064453125 35.2 8.05 32.85 6.95 30.2 6.65 29.1 6.5 27.9 6.5 19.85 6.5 14.1 12.95 11.8365234375 15.53125 10.45 18.5 9.1216796875 21.4986328125 8.65 24.85 8.4 26.675390625 8.4 28.6 8.4 32.7296875 9.55 36.3 9.7341796875 36.7626953125 9.9 37.2 10.13828125 37.7193359375 10.4 38.2 11.519140625 40.34765625 13.1 42.25 13.3072265625 42.4818359375 13.5 42.7 14.154296875 43.4396484375 14.85 44.1 15.672265625 44.890234375 16.55 45.55 17.32578125 42.5697265625 18.8 39.6
L 11.4 32.05 25.45 21.15 17.05 20.2 17.95 14.15 34.35 14.35 38.6 19.35
Q 41.2439453125 17.8779296875 43.7 17.05 Z"/>

<path fill="url(#Gradient_11)" stroke="none" d="
M 45.7 12.25
Q 44.6990234375 10.7611328125 43.45 9.35 37.79375 2.954296875 30.1 2.1 29.5154296875 2.0564453125 28.9 2 28.342578125 2 27.75 2 26.4 2 25.15 2.15 24.263671875 2.2556640625 23.4 2.45 22.8072265625 2.5634765625 22.2 2.7 19.193359375 3.558203125 16.5 5.35 16.1205078125 5.6265625 15.75 5.9 13.7814453125 7.3458984375 12 9.35 11.6228515625 9.7794921875 11.25 10.2 10.84296875 10.740234375 10.45 11.25 8.401171875 14.0958984375 7.2 17.3 6.9296875 18.0228515625 6.7 18.75 5.79609375 21.7193359375 5.55 24.95 5.5021484375 26.021484375 5.5 27.1
L 5.5 27.15
Q 5.5 32.1923828125 7 36.5 7.37421875 37.5162109375 7.8 38.45 8.7638671875 40.6029296875 10.1 42.55 10.98984375 43.7578125 12 44.9 12.8216796875 45.831640625 13.65 46.65 15.28203125 48.14765625 17 49.25 17.60546875 48.1052734375 18.35 46.8 17.4333984375 46.2435546875 16.55 45.55 15.672265625 44.890234375 14.85 44.1 14.154296875 43.4396484375 13.5 42.7 13.3072265625 42.4818359375 13.1 42.25 11.519140625 40.34765625 10.4 38.2 10.13828125 37.7193359375 9.9 37.2 9.7005859375 36.7685546875 9.5 36.3 7.8 32.1341796875 7.8 27.15 7.8 25.9638671875 7.9 24.8 8.1759765625 21.513671875 9.25 18.55 10.6814453125 14.7142578125 13.5 11.5 13.580859375 11.4091796875 13.65 11.3 19.36328125 5.05 27.3 5.05 28.5 5.05 29.6 5.2 31.5376953125 5.433203125 33.3 6.05 37.66328125 7.602734375 41.1 11.5 43.0505859375 13.7048828125 44.3 16.2 44.444140625 16.430859375 44.55 16.65 44.5787109375 16.7087890625 44.6 16.75 45.0328125 17.655859375 45.35 18.55 45.550390625 19.0451171875 45.7 19.5 47.1626953125 18.8216796875 48.6 18.25 48.26484375 17.1845703125 47.8 16.1 47.5548828125 15.5607421875 47.25 15 46.583203125 13.6013671875 45.7 12.25 Z"/>
</g>

<g id="Copia_de_S_mbolo_9_2_2_0_Layer1_0_FILL">
<path fill="#666666" stroke="none" d="
M 5.5 27.1
Q 5.5 26 5.6 25 4.25 25.15 2.6 25.55 1.1 25.9 0.05 26.2 0 26.65 0 27.15 0 27.75 0.05 28.4 0.7 28.2 1.5 27.95 3.85 27.35 5.5 27.1
M 1.4 18
Q 1.1 18.85 0.9 19.7 2.2 19.4 4.2 19.1 5.45 18.9 6.7 18.8 6.95 18 7.2 17.3 5.55 17.3 3.3 17.65 2.2 17.85 1.4 18 Z"/>

<path fill="url(#Gradient_1)" stroke="none" d="
M 5.5 27.15
L 5.5 27.1
Q 3.85 27.35 1.5 27.95 0.7 28.2 0.05 28.4 0.2 33.05 1.7 37.1 2.05 38.2 2.6 39.25 3.35 40.9 4.35 42.45 6 42.6 8.05 42.6 9.1 42.6 10.15 42.55 8.75 40.6 7.8 38.5 7.35 37.5 7.05 36.55 5.5 32.2 5.5 27.15 Z"/>

<path fill="url(#Gradient_2)" stroke="none" d="
M 4.2 19.1
Q 2.2 19.4 0.9 19.7 0.1 22.8 0.05 26.2 1.1 25.9 2.6 25.55 4.25 25.15 5.6 25 5.8 21.7 6.7 18.8 5.45 18.9 4.2 19.1 Z"/>

<path fill="url(#Gradient_3)" stroke="none" d="
M 46.05 42.15
Q 45.9 42.05 45.75 41.95 44.7 43.5 43.45 44.9 36.95 52.3 27.75 52.3 26.4 52.3 25.15 52.15 17.6 51.25 12 44.9 11 43.75 10.15 42.55 9.1 42.6 8.05 42.6 6 42.6 4.35 42.45 5.65 44.4 7.35 46.25 13.65 53.1 22.2 54.1 23.6 54.25 25.15 54.25 35.55 54.25 42.85 46.25 44.65 44.3 46.05 42.15
M 39.85 11
Q 36.9 7.65 33.35 6.1 31.55 5.45 29.6 5.2 28.5 5.05 27.3 5.05 19.35 5.05 13.65 11.35 13.6 11.4 13.5 11.5 10.7 14.7 9.25 18.6 8.2 21.5 7.9 24.85 7.8 25.95 7.8 27.15 7.8 32.15 9.55 36.35 9.7 36.75 9.9 37.2 9.75 36.75 9.6 36.35 8.4 32.75 8.4 28.6 8.4 26.7 8.65 24.9 9.1 21.5 10.5 18.55 11.85 15.55 14.1 12.95 19.85 6.5 27.9 6.5 29.1 6.5 30.2 6.65 32.85 6.95 35.2 8.05 37.85 9.2 40.2 11.4 40 11.2 39.85 11 Z"/>

<path fill="url(#Gradient_7)" stroke="none" d="
M 45.8 11.7
Q 45.75 12 45.7 12.3 50 18.75 50 27.15 50 35.55 45.75 41.95 45.9 42.05 46.05 42.15 50.25 35.6 50.25 27.15 50.25 18.45 45.8 11.7 Z"/>

<path fill="#DEDEDE" stroke="none" d="
M 45.7 12.3
Q 44.7 10.75 43.45 9.35 37.8 2.95 30.1 2.15 29.5 2.05 28.95 2.05 28.35 2 27.75 2 26.4 2 25.15 2.15 24.25 2.25 23.4 2.45 22.8 2.55 22.25 2.75 19.2 3.55 16.5 5.4 16.1 5.65 15.75 5.9 13.8 7.35 12 9.35 11.6 9.8 11.3 10.25 10.85 10.75 10.45 11.3 8.4 14.1 7.2 17.3 6.95 18 6.7 18.8 5.8 21.7 5.6 25 5.5 26 5.5 27.1
L 5.5 27.15
Q 5.5 32.2 7.05 36.55 7.35 37.5 7.8 38.5 8.75 40.6 10.15 42.55 11 43.75 12 44.9 17.6 51.25 25.15 52.15 26.4 52.3 27.75 52.3 36.95 52.3 43.45 44.9 44.7 43.5 45.75 41.95 50 35.55 50 27.15 50 18.75 45.7 12.3
M 41.1 11.5
Q 43.2 13.9 44.55 16.65 45 17.6 45.4 18.6 46.85 22.55 46.85 27.15 46.85 36 41.45 42.3 41.25 42.5 41.1 42.7 36.25 48.3 29.6 49.05 28.5 49.2 27.3 49.2 23.45 49.2 20.15 47.75 16.5 46.1 13.5 42.7 13.3 42.5 13.15 42.25 11.5 40.35 10.4 38.25 10.15 37.7 9.9 37.2 9.7 36.75 9.55 36.35 7.8 32.15 7.8 27.15 7.8 25.95 7.9 24.85 8.2 21.5 9.25 18.6 10.7 14.7 13.5 11.5 13.6 11.4 13.65 11.35 19.35 5.05 27.3 5.05 28.5 5.05 29.6 5.2 31.55 5.45 33.35 6.1 37.65 7.6 41.1 11.5
M 37.9 21.65
Q 35.534375 20.4912109375 33.4 19.45 27.0341796875 16.23203125 22.95 14.2 21.2220703125 13.3458984375 19.9 12.7 16.05 19.85 13.85 24 13.65 24.3 13.5 24.55 13.7447265625 25.1646484375 13.95 25.75 15.4931640625 29.5490234375 16.55 32.2 18.3357421875 36.554296875 18.95 37.9 19.9 37.75 21.05 37.5 22.05 37.3 22.85 37.05 22.1 35.3 21.15 31.7 20.558984375 29.5890625 20.15 28.3 20.0701171875 28.06015625 20 27.85 20.1572265625 27.9439453125 20.3 28.05 21.3529296875 28.655078125 22.5 29.3 24.655078125 30.6103515625 27.2 32.1 31 34.35 33.95 35.9 35.55 36.8 36.85 37.5 37.65 35.5 39.65 30.85 41.45 26.55 42.5 24 40.1029296875 22.7775390625 37.9 21.65 Z"/>

<path fill="url(#Gradient_4)" stroke="none" d="
M 45.6 26.65
Q 45.6 20.85 43.3 16.15 42.05 13.6 40.2 11.4 37.85 9.2 35.2 8.05 32.85 6.95 30.2 6.65 29.1 6.5 27.9 6.5 19.85 6.5 14.1 12.95 11.85 15.55 10.5 18.55 9.1 21.5 8.65 24.9 8.4 26.7 8.4 28.6 8.4 32.75 9.6 36.35 9.75 36.75 9.9 37.2 10.15 37.7 10.4 38.25 11.5 40.35 13.15 42.25 13.3 42.5 13.5 42.7 16.5 46.1 20.15 47.75 22.9 48.7 26.05 48.7 27.25 48.7 28.35 48.55 35 47.8 39.85 42.2 40 42 40.2 41.8 45.6 35.5 45.6 26.65
M 18.2 41.05
L 12.2 25.8 19.45 11.85 44.1 24.45 37.25 40.35 21.8 31.45 24.15 39.6 18.2 41.05 Z"/>

<path fill="#333333" stroke="none" d="
M 20 27.85
Q 20.0701171875 28.06015625 20.15 28.3 20.558984375 29.5890625 21.15 31.7 22.1 35.3 22.85 37.05
L 24.15 39.6 21.8 31.45 20 27.85 Z"/>

<path fill="url(#Gradient_22)" stroke="none" d="
M 16.55 32.2
Q 15.4931640625 29.5490234375 13.95 25.75 13.7447265625 25.1646484375 13.5 24.55
L 12.2 25.8 18.2 41.05 24.15 39.6 22.85 37.05
Q 22.05 37.3 21.05 37.5 19.9 37.75 18.95 37.9 18.3357421875 36.554296875 16.55 32.2
M 44.1 24.45
L 42.5 24
Q 41.45 26.55 39.65 30.85 37.65 35.5 36.85 37.5 35.55 36.8 33.95 35.9 31 34.35 27.2 32.1 24.655078125 30.6103515625 22.5 29.3 21.3529296875 28.655078125 20.3 28.05 20.1572265625 27.9439453125 20 27.85
L 21.8 31.45 37.25 40.35 44.1 24.45 Z"/>

<path fill="#FFFFFF" stroke="none" d="
M 42.5 24
L 44.1 24.45 19.45 11.85 12.2 25.8 13.5 24.55
Q 13.65 24.3 13.85 24 16.05 19.85 19.9 12.7 21.2220703125 13.3458984375 22.95 14.2 27.0341796875 16.23203125 33.4 19.45 35.534375 20.4912109375 37.9 21.65 40.1029296875 22.7775390625 42.5 24 Z"/>

<path fill="url(#Gradient_6)" stroke="none" d="
M 44.55 16.65
Q 43.2 13.9 41.1 11.5 37.65 7.6 33.35 6.1 36.9 7.65 39.85 11 40 11.2 40.2 11.4 42.05 13.6 43.3 16.15 45.6 20.85 45.6 26.65 45.6 35.5 40.2 41.8 40 42 39.85 42.2 35 47.8 28.35 48.55 27.25 48.7 26.05 48.7 22.9 48.7 20.15 47.75 23.45 49.2 27.3 49.2 28.5 49.2 29.6 49.05 36.25 48.3 41.1 42.7 41.25 42.5 41.45 42.3 46.85 36 46.85 27.15 46.85 22.55 45.4 18.6 45 17.6 44.55 16.65 Z"/>

<path fill="url(#Gradient_8)" stroke="none" d="
M 43.45 9.35
Q 44.7 10.75 45.7 12.3 45.75 12 45.8 11.7 44.5 9.75 42.85 7.95 35.55 0 25.15 0 25.05 0 25 0 24.3 0 23.7 0.05 23.25 0.1 22.9 0.15 22.55 0.15 22.2 0.2 20.1 0.45 18.1 1.05 17.25 1.3 16.45 1.6 13.25 2.85 10.45 5.1 10 5.4 9.6 5.8 8.45 6.75 7.35 7.95 6.05 9.35 5 10.85 4.6 11.4 4.2 12.05 2.4 14.85 1.4 18 2.2 17.85 3.3 17.65 5.55 17.3 7.2 17.3 8.4 14.1 10.45 11.3 10.85 10.75 11.3 10.25 11.6 9.8 12 9.35 13.8 7.35 15.75 5.9 16.1 5.65 16.5 5.4 19.2 3.55 22.25 2.75 22.8 2.55 23.4 2.45 24.25 2.25 25.15 2.15 26.4 2 27.75 2 28.35 2 28.95 2.05 29.5 2.05 30.1 2.15 37.8 2.95 43.45 9.35 Z"/>
</g>

<g id="Copia_de_S_mbolo_9_2_2_0_Layer0_0_FILL">
<path fill="url(#Gradient_23)" stroke="none" d="
M 38.25 22.85
L 20.35 13.8 14.5 24.8 19.4 37.3
Q 20.1861328125 36.062890625 21.1 34.75
L 18.85 26.15 28.2 31.2
Q 29.4154296875 29.9734375 30.8 28.7 34.6466796875 25.165625 38.25 22.85 Z"/>

<path fill="url(#Gradient_24)" stroke="none" d="
M 40.15 11.35
Q 37.848828125 9.2064453125 35.2 8.05 32.85 6.95 30.2 6.65 29.1 6.5 27.9 6.5 19.85 6.5 14.1 12.95 11.8365234375 15.53125 10.45 18.5 9.1216796875 21.4986328125 8.65 24.85 8.4 26.675390625 8.4 28.6 8.4 32.7296875 9.55 36.3 9.7341796875 36.7626953125 9.9 37.2 10.13828125 37.7193359375 10.4 38.2 11.519140625 40.34765625 13.1 42.25 13.3072265625 42.4818359375 13.5 42.7 14.154296875 43.4396484375 14.85 44.1 15.35859375 44.5888671875 15.85 45 16.55234375 42.6443359375 17.8 40.1
L 12.2 25.8 19.45 11.85 35.6 20.1
Q 39.3458984375 17.5810546875 43.2 16 42.002734375 13.549609375 40.15 11.35 Z"/>

<path fill="url(#Gradient_11)" stroke="none" d="
M 45.7 12.25
Q 44.6990234375 10.7611328125 43.45 9.35 37.79375 2.954296875 30.1 2.1 29.5154296875 2.0564453125 28.9 2 28.342578125 2 27.75 2 26.4 2 25.15 2.15 24.263671875 2.2556640625 23.4 2.45 22.8072265625 2.5634765625 22.2 2.7 19.193359375 3.558203125 16.5 5.35 16.1205078125 5.6265625 15.75 5.9 13.7814453125 7.3458984375 12 9.35 11.6228515625 9.7794921875 11.25 10.2 10.84296875 10.740234375 10.45 11.25 8.401171875 14.0958984375 7.2 17.3 6.9296875 18.0228515625 6.7 18.75 5.79609375 21.7193359375 5.55 24.95 5.5021484375 26.021484375 5.5 27.1
L 5.5 27.15
Q 5.5 32.1923828125 7 36.5 7.37421875 37.5162109375 7.8 38.45 8.7638671875 40.6029296875 10.1 42.55 10.98984375 43.7578125 12 44.9 12.8216796875 45.831640625 13.65 46.65 15.28203125 48.14765625 17 49.25 17.60546875 48.1052734375 18.35 46.8 17.083984375 46.0369140625 15.85 45 15.35859375 44.5888671875 14.85 44.1 14.154296875 43.4396484375 13.5 42.7 13.3072265625 42.4818359375 13.1 42.25 11.519140625 40.34765625 10.4 38.2 10.13828125 37.7193359375 9.9 37.2 9.7005859375 36.7685546875 9.5 36.3 7.8 32.1341796875 7.8 27.15 7.8 25.9638671875 7.9 24.8 8.1759765625 21.513671875 9.25 18.55 10.6814453125 14.7142578125 13.5 11.5 13.580859375 11.4091796875 13.65 11.3 19.36328125 5.05 27.3 5.05 28.5 5.05 29.6 5.2 31.5376953125 5.433203125 33.3 6.05 37.66328125 7.602734375 41.1 11.5 42.844140625 13.471484375 44.05 15.7 44.1900390625 15.958203125 44.3 16.2 44.444140625 16.430859375 44.55 16.65 45.01015625 17.594921875 45.35 18.55 45.5306640625 18.9923828125 45.65 19.4 45.683203125 19.47109375 45.7 19.5 47.1626953125 18.8216796875 48.6 18.25 48.06875 16.5908203125 47.25 15 47.2013671875 14.851171875 47.1 14.7 46.4892578125 13.46015625 45.7 12.25 Z"/>
</g>
</defs>

<g transform="matrix( 4.067626953125, 0, 0, 4.067626953125, 57.9,96.45) ">
<g transform="matrix( 1, 0, 0, 1, 0,0) ">
<use xlink:href="#Copia_de_S_mbolo_9_3_0_Layer1_0_FILL"/>
</g>

<g transform="matrix( 1, 0, 0, 1, 0,0) ">
<use xlink:href="#Copia_de_S_mbolo_9_3_0_Layer0_0_FILL"/>
</g>
</g>

<g transform="matrix( 2.3998870849609375, 0, 0, 2.3998870849609375, 286.5,226.6) ">
<g transform="matrix( 1, 0, 0, 1, 0,0) ">
<use xlink:href="#Copia_de_S_mbolo_9_4_0_Layer1_0_FILL"/>
</g>

<g transform="matrix( 1, 0, 0, 1, 0,0) ">
<use xlink:href="#Copia_de_S_mbolo_9_4_0_Layer0_0_FILL"/>
</g>
</g>

<g transform="matrix( 2.8229522705078125, 0, 0, 2.8229522705078125, 297.65,23.25) ">
<g transform="matrix( 1, 0, 0, 1, 0,0) ">
<use xlink:href="#Copia_de_S_mbolo_9_2_2_0_Layer1_0_FILL"/>
</g>

<g transform="matrix( 1, 0, 0, 1, 0,0) ">
<use xlink:href="#Copia_de_S_mbolo_9_2_2_0_Layer0_0_FILL"/>
</g>
</g>
</svg>
