<?xml version="1.0" encoding="utf-8"?>
<!-- Generator: Adobe Illustrator 18.0.0, SVG Export Plug-In . SVG Version: 6.00 Build 0)  -->
<!DOCTYPE svg PUBLIC "-//W3C//DTD SVG 1.1//EN" "http://www.w3.org/Graphics/SVG/1.1/DTD/svg11.dtd">
<svg version="1.1" xmlns="http://www.w3.org/2000/svg" xmlns:xlink="http://www.w3.org/1999/xlink" x="0px" y="0px"
	 viewBox="0 0 550 400" enable-background="new 0 0 550 400" xml:space="preserve">
<g id="Capa_2">
	<ellipse fill="#E5E5E5" cx="288.2" cy="350" rx="88.4" ry="13.7"/>
</g>
<g id="Capa_1">
	<g>
		<g transform="matrix( 0.9399261474609375, 0, 0, 0.9399261474609375, 269,153.75) ">
			<g transform="matrix( 1, 0, 0, 1, 0,0) ">
				<g>
					<g id="S_mbolo_9_0_Layer0_0_FILL">
						
							<linearGradient id="SVGID_1_" gradientUnits="userSpaceOnUse" x1="-180.2284" y1="163.6593" x2="-167.4787" y2="91.5427" gradientTransform="matrix(0.9399 0 0 -0.9399 190.7701 165.2265)">
							<stop  offset="7.843137e-003" style="stop-color:#FF9900"/>
							<stop  offset="1" style="stop-color:#8E4723"/>
						</linearGradient>
						<path fill="url(#SVGID_1_)" d="M62.4,39.1c0-10.8-3.5-20-10.6-27.6c-7-7.6-15.5-11.4-25.4-11.4c-1.5,0-2.9,0.1-4.2,0.3
							C13.9,1.3,6.8,5,0.7,11.5c-7,7.6-10.6,16.8-10.6,27.6c0,10.7,3.5,19.9,10.6,27.4c6,6.6,13.1,10.3,21.3,11.3
							c1.3,0.1,2.8,0.2,4.2,0.2c10,0,18.4-3.8,25.4-11.5C58.8,59,62.4,49.8,62.4,39.1 M52.6,13.5c6.3,7.1,9.4,15.6,9.4,25.6
							s-3.1,18.5-9.4,25.5C46.4,71.7,38.8,75.2,30,75.2c-1.3,0-2.5-0.1-3.7-0.2c-7.2-0.9-13.5-4.3-18.9-10.4
							c-6.2-7-9.3-15.5-9.3-25.5s3.1-18.5,9.3-25.6c5.4-6,11.7-9.5,18.9-10.3C27.5,3.1,28.7,3,30,3C38.8,3,46.4,6.5,52.6,13.5
							 M41.4,18.4c-7.7,1.3-13.7,2.3-18.2,3.1c-0.3,0-0.6,0.1-0.9,0.1c-5.8,9.8-9.3,15.8-10.4,17.9c0.7,0.6,1.4,1.3,2.3,2.1
							c0.8,0.6,1.5,1.1,2.1,1.6c0.9-1.6,2.4-3.8,4.6-6.6c1.5-2,2.6-3.5,3.4-4.7c0.4,3.4,0.9,7.4,1.4,11.9c0.9,6.7,1.7,11.9,2.4,15.7
							c2-0.5,5.3-1.4,10-2.7c4.3-1.1,7.7-2.1,10.3-2.8C45.1,36.9,42.8,25,41.4,18.4z"/>
						<path fill="#FFCC00" d="M62,39.1c0-10-3.1-18.5-9.4-25.6C46.4,6.5,38.8,3,30,3c-1.3,0-2.5,0.1-3.7,0.2
							C19.1,4.1,12.8,7.5,7.4,13.5c-6.2,7.1-9.3,15.6-9.3,25.6s3.1,18.5,9.3,25.5c5.4,6.1,11.7,9.6,18.9,10.4
							c1.2,0.1,2.4,0.2,3.7,0.2c8.8,0,16.3-3.5,22.6-10.6C58.9,57.6,62,49.1,62,39.1 M49.2,16.6c5.5,6.2,8.3,13.7,8.3,22.5
							c0,8.5-2.6,15.7-7.8,21.8c-0.2,0.2-0.4,0.4-0.5,0.6c-4.6,5.4-10.2,8.4-16.5,9.1c-1.1,0.1-2.2,0.2-3.3,0.2
							c-7.7,0-14.3-3.1-19.8-9.3c-5.5-6.2-8.2-13.6-8.2-22.3c0-8.8,2.7-16.3,8.2-22.5c5.5-6.2,12.1-9.3,19.8-9.3
							c1.1,0,2.3,0.1,3.3,0.2C39.1,8.3,44.6,11.4,49.2,16.6z"/>
						<path fill="#FFFF00" d="M57.5,39.1c0-8.8-2.8-16.3-8.3-22.5c-4.6-5.3-10.2-8.3-16.5-9.1c-1.1-0.1-2.2-0.2-3.3-0.2
							c-7.7,0-14.3,3.1-19.8,9.3c-5.5,6.2-8.2,13.7-8.2,22.5c0,8.7,2.7,16.2,8.2,22.3c5.5,6.2,12.1,9.3,19.8,9.3
							c1.1,0,2.3-0.1,3.3-0.2c6.4-0.7,11.9-3.8,16.5-9.1c0.1-0.2,0.3-0.4,0.5-0.6C54.9,54.8,57.5,47.6,57.5,39.1 M23.2,21.4
							c4.5-0.8,10.5-1.8,18.2-3.1c1.4,6.7,3.7,18.5,7,35.6c-2.5,0.7-6,1.7-10.3,2.8c-4.7,1.2-8,2.1-10,2.7
							c-0.7-3.8-1.5-9.1-2.4-15.7c-0.6-4.5-1.1-8.4-1.4-11.9c-0.8,1.1-2,2.7-3.4,4.7c-2.2,2.8-3.7,5-4.6,6.6c-0.6-0.4-1.3-1-2.1-1.6
							c-0.9-0.8-1.6-1.5-2.3-2.1c1.1-2.1,4.6-8.1,10.4-17.9C22.6,21.5,22.9,21.5,23.2,21.4z"/>
					</g>
				</g>
			</g>
		</g>
		<g transform="matrix( 0.9360198974609375, -0.0855255126953125, 0.0855255126953125, 0.9360198974609375, 248.3,85.5) ">
			<g transform="matrix( 1, 0, 0, 1, 0,0) ">
				<g>
					<g id="Copia_de_S_mbolo_9_0_Layer0_0_FILL">
						<path fill="#FFFF00" d="M50.5,10.7c-1.7-1.8-3.3-3.8-4.9-6.1c-1.6,1.6-3.5,3.6-5.8,5.9c-3.9,3.9-8.8,8.8-14.7,14.7
							c-1.3,1.3-2.6,2.6-4,4c-2-1.7-4.7-4-8-6.9c-3.6-3.3-6.2-5.6-7.8-6.9C8.1,12.6,12,9.1,17.1,4.6c0.4-0.4,0.8-0.7,1.2-1.1
							C21.1,1,23.7-1.3,26-3.3c-1.4,0-3.3,0-5.7-0.1c-3.6-0.2-6.3-0.3-8-0.1c0-0.8,0-1.6,0.1-2.6c0.1-1.1,0.2-2.2,0.4-3.1
							c0.4,0,0.9-0.1,1.4-0.1c3.2-0.3,9.6-0.7,19.2-1.3c0.2,0.2,0.4,0.4,0.6,0.6c0.7,0.7,1.4,1.4,2.2,2.2c1.5,1.6,3.2,3.4,5.1,5.3
							c-3.9-7.1-6.2-14-7-20.8c-2.6-1.3-5.3-2.1-8.3-2.4C25-25.9,23.9-26,22.7-26C15-26,8.4-22.9,2.9-16.7C-2.6-10.5-5.3-3-5.3,5.8
							c0,8.7,2.7,16.2,8.2,22.3c5.5,6.2,12.1,9.3,19.8,9.3c1.1,0,2.3-0.1,3.3-0.2c6.4-0.7,11.9-3.8,16.5-9.1
							c0.1-0.2,0.3-0.4,0.5-0.6C47.2,22.7,49.7,17.1,50.5,10.7z"/>
						<path fill="#FFCC00" d="M54.5,14.5c-0.6-0.5-1.1-1-1.7-1.5c-0.7-0.7-1.5-1.5-2.3-2.3c-0.8,6.4-3.3,12-7.4,16.9
							c-0.2,0.2-0.4,0.4-0.5,0.6c-4.6,5.4-10.2,8.4-16.5,9.1c-1.1,0.1-2.2,0.2-3.3,0.2c-7.7,0-14.3-3.1-19.8-9.3
							c-5.5-6.2-8.2-13.6-8.2-22.3c0-8.8,2.7-16.3,8.2-22.5C8.4-22.9,15-26,22.7-26c1.1,0,2.3,0.1,3.3,0.2c2.9,0.4,5.7,1.2,8.3,2.4
							C34.1-24.7,34-26,34-27.4c0-0.3,0-0.5,0-0.8c0-0.1,0-0.1,0-0.2c-3.3-1.3-6.8-1.9-10.6-1.9c-1.3,0-2.5,0.1-3.7,0.2
							c-7.2,0.9-13.5,4.3-18.9,10.3C-5.5-12.7-8.6-4.2-8.6,5.8c0,10,3.1,18.5,9.3,25.5c5.4,6.1,11.7,9.6,18.9,10.4
							c1.2,0.1,2.4,0.2,3.7,0.2c8.8,0,16.3-3.5,22.6-10.6C50.3,26.4,53.1,20.8,54.5,14.5z"/>
						
							<linearGradient id="SVGID_2_" gradientUnits="userSpaceOnUse" x1="-318.8022" y1="123.0069" x2="-306.0526" y2="50.8903" gradientTransform="matrix(0.936 8.552599e-002 8.552599e-002 -0.936 301.2169 120.7056)">
							<stop  offset="7.843137e-003" style="stop-color:#FF9900"/>
							<stop  offset="1" style="stop-color:#8E4723"/>
						</linearGradient>
						<path fill="url(#SVGID_2_)" d="M55,13.7c-0.1,0-0.2-0.1-0.4-0.1c0,0.3-0.1,0.6-0.1,0.9c-1.3,6.3-4.2,11.9-8.5,16.8
							c-6.2,7.1-13.7,10.6-22.6,10.6c-1.3,0-2.5-0.1-3.7-0.2c-7.2-0.9-13.5-4.3-18.9-10.4c-6.2-7-9.3-15.5-9.3-25.5
							c0-10,3.1-18.5,9.3-25.6c5.4-6,11.7-9.5,18.9-10.3c1.2-0.1,2.4-0.2,3.7-0.2c3.8,0,7.3,0.6,10.6,1.9h0.1l0.5-1.4
							c-0.2-0.1-0.4-0.2-0.6-0.3c-4.4-2.1-9.2-3.1-14.4-3.1c-1.5,0-2.9,0.1-4.2,0.3C7.2-32,0.1-28.3-5.9-21.8
							C-13-14.2-16.5-5-16.5,5.8c0,10.7,3.5,19.9,10.6,27.4c6,6.6,13.1,10.3,21.3,11.3c1.3,0.1,2.8,0.2,4.2,0.2
							c10,0,18.4-3.8,25.4-11.5c5-5.4,8.3-11.5,9.7-18.5C54.9,14.4,54.9,14.1,55,13.7z"/>
						<path fill="#993300" d="M54.6,13.6c0.1,0,0.2,0.1,0.4,0.1c0.5-2.5,0.7-5.2,0.7-8c0-10.8-3.5-20-10.6-27.6
							c-3.2-3.5-6.7-6.1-10.5-8l-0.5,1.4v0.1c4.5,1.8,8.4,4.7,11.9,8.5c6.3,7.1,9.4,15.6,9.4,25.6C55.3,8.5,55.1,11.1,54.6,13.6z"/>
						
							<linearGradient id="SVGID_3_" gradientUnits="userSpaceOnUse" x1="-286.6648" y1="119.1294" x2="-339.2798" y2="68.2024" gradientTransform="matrix(0.936 8.552599e-002 8.552599e-002 -0.936 301.2169 120.7056)">
							<stop  offset="7.843137e-003" style="stop-color:#FF9900"/>
							<stop  offset="1" style="stop-color:#8E4723"/>
						</linearGradient>
						<path fill="url(#SVGID_3_)" d="M45.6,4.6c0.4-0.4,0.8-0.8,1.2-1.2c-2-2.1-3.8-4-5.5-5.8c-1.9-2-3.6-3.7-5.1-5.3
							C35.4-8.6,34.7-9.3,34-10c-0.2-0.2-0.4-0.5-0.6-0.6c-9.6,0.6-16,1-19.2,1.3c-0.6,0.1-1.1,0.1-1.4,0.1
							c-0.2,0.9-0.3,1.9-0.4,3.1c-0.1,1-0.2,1.8-0.1,2.6c1.8-0.1,4.5-0.1,8,0.1c2.4,0.1,4.4,0.1,5.7,0.1c-2.3,2-4.9,4.3-7.8,6.8
							c-0.4,0.4-0.8,0.7-1.2,1.1c-5,4.5-8.9,8-11.7,10.7c1.5,1.3,4.1,3.6,7.8,6.9c3.4,2.9,6,5.2,8,6.9c1.4-1.4,2.7-2.7,4-4
							c5.9-5.8,10.8-10.7,14.7-14.7C42.1,8.1,44,6.2,45.6,4.6z"/>
						<path fill="#FF9900" d="M50.5,10.7c0.2-1.6,0.4-3.2,0.4-4.9c0-8.8-2.8-16.3-8.3-22.5c-2.5-2.8-5.3-5-8.3-6.6
							c0.8,6.8,3.1,13.8,7,20.8c1.7,1.8,3.5,3.7,5.5,5.8c-0.4,0.4-0.8,0.8-1.2,1.2C47.2,6.8,48.8,8.8,50.5,10.7z"/>
						<path fill="#CC6600" d="M50.8,5.8c0,1.7-0.1,3.3-0.4,4.9c0.8,0.8,1.6,1.6,2.3,2.3c0.6,0.5,1.2,1,1.7,1.5
							c0.1-0.3,0.1-0.6,0.1-0.9c0.5-2.5,0.7-5.1,0.7-7.8c0-10-3.1-18.5-9.4-25.6c-3.4-3.9-7.4-6.7-11.9-8.5v-0.1H34
							c0,0.1,0,0.1,0,0.2c0,0.3,0,0.5,0,0.8c0,1.4,0.1,2.7,0.3,4.1c3,1.6,5.8,3.8,8.3,6.6C48.1-10.5,50.8-3,50.8,5.8z"/>
					</g>
				</g>
			</g>
		</g>
		<g transform="matrix( 0.8623504638671875, 0.373931884765625, -0.373931884765625, 0.8623504638671875, 298.75,49.8) ">
			<g transform="matrix( 1, 0, 0, 1, 0,0) ">
				<g>
					<g id="Copia_de_S_mbolo_9_2_0_Layer0_0_FILL">
						
							<linearGradient id="SVGID_4_" gradientUnits="userSpaceOnUse" x1="627.8906" y1="812.9252" x2="640.6403" y2="740.8086" gradientTransform="matrix(0.8624 -0.3739 -0.3739 -0.8624 -221.7896 901.3186)">
							<stop  offset="7.843137e-003" style="stop-color:#FF9900"/>
							<stop  offset="1" style="stop-color:#8E4723"/>
						</linearGradient>
						<path fill="url(#SVGID_4_)" d="M56.7-6.8c0-10.8-3.5-20-10.6-27.6c-7-7.6-15.5-11.4-25.4-11.4c-1.5,0-2.9,0.1-4.2,0.3
							C8.2-44.6,1.1-40.9-4.9-34.4c-7,7.6-10.6,16.8-10.6,27.6c0,10.7,3.5,19.9,10.6,27.4c6,6.6,13.1,10.3,21.3,11.3
							c1.3,0.1,2.8,0.2,4.2,0.2c10,0,18.4-3.8,25.4-11.5C53.1,13.1,56.7,3.9,56.7-6.8 M46.9-32.4c6.3,7.1,9.4,15.6,9.4,25.6
							s-3.1,18.5-9.4,25.5c-6.2,7.1-13.7,10.6-22.6,10.6c-1.3,0-2.5-0.1-3.7-0.2c-7.2-0.9-13.5-4.3-18.9-10.4
							c-6.2-7-9.3-15.5-9.3-25.5c0-10,3.1-18.5,9.3-25.6c5.4-6,11.7-9.5,18.9-10.3c1.2-0.1,2.4-0.2,3.7-0.2
							C33.2-42.9,40.7-39.4,46.9-32.4z"/>
						<path fill="#FFCC00" d="M56.3-6.8c0-10-3.1-18.5-9.4-25.6c-6.2-7-13.7-10.6-22.6-10.6c-1.3,0-2.5,0.1-3.7,0.2
							c-7.2,0.9-13.5,4.3-18.9,10.3c-6.2,7.1-9.3,15.6-9.3,25.6c0,10,3.1,18.5,9.3,25.5c5.4,6.1,11.7,9.6,18.9,10.4
							c1.2,0.1,2.4,0.2,3.7,0.2c8.8,0,16.3-3.5,22.6-10.6C53.2,11.7,56.3,3.2,56.3-6.8 M43.5-29.3C49-23,51.8-15.5,51.8-6.8
							c0,8.5-2.6,15.7-7.8,21.8c-0.2,0.2-0.4,0.4-0.5,0.6C38.9,20.9,33.4,24,27,24.7c-1.1,0.1-2.2,0.2-3.3,0.2
							c-7.7,0-14.3-3.1-19.8-9.3C-1.6,9.4-4.3,1.9-4.3-6.8c0-8.8,2.7-16.3,8.2-22.5c5.5-6.2,12.1-9.3,19.8-9.3
							c1.1,0,2.3,0.1,3.3,0.2C33.4-37.5,38.9-34.5,43.5-29.3z"/>
						<path fill="#FFFF00" d="M51.8-6.8c0-8.8-2.8-16.3-8.3-22.5c-4.6-5.3-10.2-8.3-16.5-9.1c-1.1-0.1-2.2-0.2-3.3-0.2
							c-7.7,0-14.3,3.1-19.8,9.3C-1.6-23-4.3-15.5-4.3-6.8c0,8.7,2.7,16.2,8.2,22.3c5.5,6.2,12.1,9.3,19.8,9.3
							c1.1,0,2.3-0.1,3.3-0.2c6.4-0.7,11.9-3.8,16.5-9.1c0.1-0.2,0.3-0.4,0.5-0.6C49.2,8.9,51.8,1.7,51.8-6.8 M26.2-26
							c3.3,3,7.3,6.8,12.1,11.3c3,2.8,6.2,5.8,9.8,9.2c-1.5,2-3.7,4.7-6.4,8c-0.1,0.1-0.1,0.2-0.2,0.3c-2.6,3.2-4.6,5.6-6,7.2
							c-0.2,0.3-0.4,0.6-0.6,0.8c-0.2-0.1-0.3-0.3-0.5-0.5c-2.7-2.6-6.3-6.2-10.6-10.8c-1.4-1.5-2.7-2.9-4-4.3
							c-1.5-1.5-2.8-3-4.1-4.4c0,1.4,0,3.3-0.1,5.7c-0.1,3.5,0,6.2,0.2,8c-0.8,0-1.7,0-2.7-0.1C12,4.4,11,4.3,10.1,4.2
							c-0.2-1.3-0.4-4-0.9-8C9-5.7,8.8-8,8.6-10.6c-0.1-1.8-0.3-3.7-0.5-5.8c0.1-0.2,0.3-0.4,0.5-0.6c3.2-3.3,7.5-7.6,12.9-13.1
							C22.8-29,24.4-27.6,26.2-26z"/>
						
							<linearGradient id="SVGID_5_" gradientUnits="userSpaceOnUse" x1="611.7975" y1="809.9383" x2="664.4484" y2="759.0472" gradientTransform="matrix(0.8624 -0.3739 -0.3739 -0.8624 -221.7896 901.3186)">
							<stop  offset="7.843137e-003" style="stop-color:#FF9900"/>
							<stop  offset="1" style="stop-color:#8E4723"/>
						</linearGradient>
						<path fill="url(#SVGID_5_)" d="M38.3-14.7C33.5-19.2,29.4-23,26.2-26c-1.8-1.6-3.4-3.1-4.7-4.2c-5.4,5.5-9.7,9.9-12.9,13.1
							c-0.2,0.2-0.4,0.5-0.5,0.6c0.2,2.1,0.4,4.1,0.5,5.8C8.8-8,9-5.7,9.2-3.8c0.4,4,0.7,6.7,0.9,8C11,4.3,12,4.4,13.2,4.5
							c1,0.1,1.8,0.1,2.7,0.1c-0.2-1.8-0.3-4.5-0.2-8c0.1-2.4,0.1-4.4,0.1-5.7c1.3,1.4,2.6,2.8,4.1,4.4c1.3,1.4,2.6,2.8,4,4.3
							c4.3,4.6,7.9,8.2,10.6,10.8c0.2,0.2,0.3,0.4,0.5,0.5c0.2-0.2,0.4-0.5,0.6-0.8c1.4-1.6,3.3-4,6-7.2c0.1-0.1,0.1-0.2,0.2-0.3
							c2.7-3.4,4.9-6,6.4-8C44.5-8.8,41.3-11.9,38.3-14.7z"/>
					</g>
				</g>
			</g>
		</g>
	</g>
	<g>
		<g transform="matrix( 1, 0, 0, 1, 212.5,223.7) ">
			<g transform="matrix( 1, 0, 0, 1, 0,0) ">
				<g>
					<g id="S_mbolo_5_0_Layer0_0_FILL">
						<path fill="#874343" d="M5-6.6C5.3-4.5,5.9-1.9,6.7,1c1.6,5.9,2.8,10.5,3.5,13.8c1.7-1.9,4-4.2,6.7-6.7c2.8-2.5,5-4.4,6.8-5.6
							c-1.4-0.6-3.8-1.6-7.1-2.9C12.4-1.9,8.6-4,5-6.6z"/>
						<path fill="#CC6699" d="M23.7,2.5c0.3-0.2,0.7-0.5,1-0.7c-2.5-1.7-6.1-4.2-10.8-7.5C7.9-9.7,3-13-0.8-15.4
							C1-10.7,2.8-5.6,4.8-0.1C7.2,7,9,12.1,9.9,15.1c0.1-0.1,0.2-0.2,0.3-0.3C9.5,11.5,8.3,6.9,6.7,1C5.9-1.9,5.3-4.5,5-6.6
							C8.6-4,12.4-1.9,16.5-0.3C19.9,1,22.2,1.9,23.7,2.5z"/>
					</g>
				</g>
			</g>
		</g>
		<g transform="matrix( 0.5826416015625, 0, 0, 0.5826416015625, 333.95,257.25) ">
			<g transform="matrix( 1, 0, 0, 1, 0,0) ">
				<g>
					<g id="S_mbolo_4_0_Layer0_0_FILL">
						<path fill="#CC6666" d="M63.9-21c-0.1-2.1-0.6-3.9-1.7-5.3c-1.1-1.5-2.6-2.2-4.4-2.1c-2.6,0.1-4.4,1.6-5.7,4.4
							c-0.9,2.1-1.3,4.6-1.2,7.4c0.1,3,0.9,5.5,2.3,7.5c-2.1,1.4-4.2,2.1-6.3,2.2c-0.9,0-1.7,0-2.6-0.2c1.5-2.3,2.2-4.3,2.1-6.1
							c-0.1-3.2-0.8-5.6-2.2-7.4c-1.1-1.5-2.4-2.2-3.8-2.1c-2.3,0.1-4,0.9-5.1,2.5c-1,1.3-1.4,3-1.4,4.9c0.1,3.5,1.5,6.4,4.1,8.8
							c0.1,0.1,0.3,0.2,0.4,0.4c-1.4,1-2.9,1.6-4.5,1.7c-0.8,0-1.6-0.1-2.5-0.3c0.4,1.4,0.9,3,1.4,4.8c0,0,0,0.1,0.1,0.1
							c0.6,0.2,1.1,0.2,1.4,0.2c2.5-0.1,5-1.5,7.5-4.3c1.6,0.7,3.3,1,5.1,0.9c3.2-0.1,6.1-1.2,8.8-3.4c3.4,0.2,5.9-0.3,7.6-1.6
							c1.7-1.2,2.4-2,2.1-2.3c-0.3,0-0.6,0-0.9,0c-1.9-0.1-3.4-0.2-4.5-0.4c-0.1,0-0.2,0-0.2,0C62.8-14.4,64.1-17.7,63.9-21
							 M54.5-21.9c0.6-0.8,1.5-1.2,2.6-1.2c2.1-0.1,3.1,1.3,3.2,4c0.1,2.1-1.1,4.5-3.5,7c-2.1-1.3-3.2-3.4-3.3-6.3
							C53.5-19.9,53.8-21,54.5-21.9 M37.6-14.3c0-0.6,0.2-1.3,0.7-2.1c0.6-1,1.2-1.5,2-1.6c0.9,0,1.5,0.3,1.8,1.1
							c0.3,0.6,0.4,1.6,0.5,3c0.1,1.8-0.5,3.6-1.7,5.3C38.8-10,37.7-11.9,37.6-14.3z"/>
					</g>
				</g>
			</g>
		</g>
		<g transform="matrix( 1, 0, 0, 1, 209.1,228.8) ">
			<g transform="matrix( 1, 0, 0, 1, 0,0) ">
				<g>
					<g id="S_mbolo_1_0_Layer1_0_FILL">
						<path fill="#CC6699" d="M45.5,75.9c-3,1-5.4,3.3-7.3,6.7c-2.1,3.9-3.1,8.7-2.9,14.4l1,9.9c0,0.1,0.1,0.7,0.1,1.8
							c0,1.1,0,2.1,0.2,3.1c0.1,0.7,0.1,1.4,0.1,2.3c0.3,1.8,2.9,2.6,7.8,2.4c4.8-0.2,7.5-1.2,7.9-3c1-4.7,1.9-8.6,2.5-11.7
							c1.1-4.6,1.7-7.5,1.9-8.7c0.3-1.4,0.3-3.7,0.2-6.9c-0.2-4.3-1.4-7.3-3.8-9.2C51,75.3,48.4,74.9,45.5,75.9 M37.8,94.6
							c0.6-1.4,1.5-2.1,2.7-2.3c-0.5,0.8-1,1.7-1.5,2.7c-0.5,1.2-0.8,2.1-0.8,2.7c0.1,1.5,0.7,2.5,1.9,2.9l1.8-0.1
							c0.4-0.2,0.9-0.6,1.2-1.3c0.3-0.6,0.5-1.1,0.5-1.4c0-0.2-0.1-0.4-0.3-0.6c-0.4-0.4-0.6-0.8-0.7-0.9l-1.3,0.1
							c-0.5,0.9-0.7,1.4-0.7,1.4c0.2,0,0.4,0,0.8,0.2c0.3,0.2,0.5,0.4,0.7,0.6c-0.3,0.3-0.8,0.4-1.4,0.5c-0.6,0-1.1-0.3-1.2-0.9
							c-0.1-1.9,0.7-2.9,2.5-3c1.3,0,2.2,0.4,2.6,1.3c0.2,0.4,0.3,0.9,0.2,1.4c0,0.8-0.2,1.6-0.6,2.4c-0.6,1.1-1.6,1.7-3,1.7
							c-2.6,0.1-3.9-1.2-4-4C37.1,96.7,37.4,95.6,37.8,94.6 M104.8,78.6c-0.2-4.3-1.8-7.6-4.9-9.7c-2.8-2-6.1-2.6-9.9-1.9
							c-3.9,0.7-7.2,2.7-9.7,5.9c-2.9,3.7-4.2,8.2-4,13.8c0.1,1.7,0.8,4.8,2.1,9.3l4.9,16.9c0.5,1.3,2.7,1.9,6.4,1.8
							c3.7-0.1,5.8-0.8,6.3-2.3l0.2-0.3c1.2-4.2,2.8-9.2,4.7-15.1c0.7-2.1,1.5-4.9,2.4-8.6C104.4,83.9,104.9,80.6,104.8,78.6
							 M80,92.2c-0.1-1.3,0.3-2.9,1-4.8c0.9-2.5,2-3.7,3.5-3.7l0.2,0.3c-1.2,0.7-2.2,1.9-2.8,3.7c-0.6,1.5-0.8,2.9-0.7,4.4
							c0,1,0.3,2.1,0.9,3.1c0.9,1.6,2.1,2.3,3.7,2.3c1.9-0.1,3.3-1.1,4.1-3c0.4-1.8,0.6-2.8,0.6-2.8c0-0.6-0.2-1.2-0.6-2
							c-0.5-1.1-1.2-1.6-2-1.6c-1.5,0.1-2.6,0.6-3.3,1.6c-0.5,0.6-0.8,1.2-0.7,1.7c0,0.3,0.3,0.9,0.8,1.7c0.5,1,1,1.5,1.5,1.5
							c0.9,0,1.4-0.4,1.5-1.2c0-0.2-0.2-0.5-0.5-0.8c-0.4-0.4-0.5-0.7-0.5-0.8c0-0.1,0-0.3,0.2-0.5c0.1-0.2,0.4-0.3,0.6-0.3
							c0.9,0,1.5,0.7,1.6,2.3c0,0.5-0.1,1-0.3,1.5c-0.4,0.8-1,1.2-1.9,1.2c-1.5,0.1-2.6-0.7-3.4-2.2c-0.5-1.5-0.8-2.3-0.8-2.3
							c0.6-3.1,2.3-4.7,4.9-4.8c1.8-0.1,3.1,0.7,3.9,2.4c0.4,0.9,0.6,1.8,0.7,2.7c0,1.1-0.3,2.3-0.9,3.7c-1.1,2.2-2.8,3.3-5.1,3.4
							c-2.2,0.1-3.9-1-4.9-3.1C80.3,93.4,80,92.2,80,92.2z"/>
						<path fill="#8E476B" d="M40.6,92.3c-1.2,0.2-2.1,0.9-2.7,2.3c-0.5,1-0.7,2.1-0.7,3.2c0.1,2.7,1.5,4.1,4,4
							c1.4-0.1,2.4-0.6,3-1.7c0.4-0.7,0.6-1.5,0.6-2.4c0.1-0.5,0-0.9-0.2-1.4C44.2,95.4,43.3,95,42,95c-1.7,0.1-2.5,1.1-2.5,3
							c0.2,0.6,0.6,0.9,1.2,0.9c0.6,0,1-0.2,1.4-0.5c-0.1-0.2-0.3-0.4-0.7-0.6c-0.3-0.2-0.6-0.2-0.8-0.2c0,0,0.2-0.5,0.7-1.4
							l1.3-0.1c0.1,0.2,0.4,0.5,0.7,0.9c0.2,0.2,0.2,0.4,0.3,0.6c0,0.4-0.1,0.9-0.5,1.4c-0.4,0.7-0.8,1.1-1.2,1.3l-1.8,0.1
							c-1.2-0.4-1.8-1.4-1.9-2.9c0-0.6,0.2-1.5,0.8-2.7C39.5,94,40,93.1,40.6,92.3z"/>
						<path fill="#6B3535" d="M81,87.3c-0.7,1.9-1.1,3.5-1,4.8c0,0.1,0.3,1.2,0.9,3.5c1,2.2,2.7,3.2,4.9,3.1
							c2.4-0.1,4.1-1.2,5.1-3.4c0.6-1.4,0.9-2.6,0.9-3.7c0-0.9-0.3-1.8-0.7-2.7c-0.8-1.6-2.1-2.4-3.9-2.4c-2.6,0.1-4.3,1.7-4.9,4.8
							c0,0,0.3,0.8,0.8,2.3c0.8,1.5,1.9,2.3,3.4,2.2c0.9,0,1.5-0.4,1.9-1.2c0.2-0.5,0.4-1,0.3-1.5c-0.2-1.6-0.7-2.4-1.6-2.3
							c-0.3,0-0.5,0.1-0.6,0.3c-0.1,0.2-0.2,0.3-0.2,0.5c0,0.2,0.2,0.4,0.5,0.8c0.4,0.4,0.5,0.6,0.5,0.8c-0.1,0.8-0.6,1.2-1.5,1.2
							c-0.5,0-1-0.5-1.5-1.5c-0.5-0.8-0.7-1.4-0.8-1.7c0-0.5,0.2-1.1,0.7-1.7c0.7-1,1.8-1.5,3.3-1.6c0.8,0,1.5,0.5,2,1.6
							c0.4,0.7,0.6,1.4,0.6,2c0,0-0.2,1-0.6,2.8c-0.8,1.9-2.2,2.9-4.1,3c-1.6,0.1-2.8-0.7-3.7-2.3c-0.6-1-0.9-2.1-0.9-3.1
							c-0.1-1.5,0.2-3,0.7-4.4c0.6-1.8,1.5-3.1,2.8-3.7l-0.2-0.3C83.1,83.6,81.9,84.9,81,87.3z"/>
					</g>
				</g>
			</g>
			<g transform="matrix( 1, 0, 0, 1, 0,0) ">
				<g>
					<g id="S_mbolo_1_0_Layer0_0_FILL">
						<path fill="#CC6699" d="M47.2,51.9c0.1-0.7,0.1-1.5,0-2.2c-0.4,0.1-1.1,0.3-2.3,0.7c-1.1,0.4-3.2-0.3-6.3-2.1
							c0.3,3.1-0.1,6.3-1.3,9.3c-0.9,2.3-2.4,4.2-4.5,5.7c-3.1,2.1-6.5,3.4-10.4,3.9c3.4-0.4,6.8-0.9,10.1-1.7
							c2-0.5,3.8-1.2,5.6-2.2c3.3-1.8,5.9-4.3,7.8-7.5C46.7,54.5,47.1,53.2,47.2,51.9 M5.2,44.6c0.2-0.2,0.4-0.3,0.7-0.3
							c-1-0.8-2.1-1.2-3.3-1.1c-1.4,0.1-2.7,0.7-3.7,2c-1.1,1.3-1.5,2.9-1.5,4.7c0.1,1.8,0.7,3.3,1.8,4.6c1.1,1.2,2.4,1.8,3.8,1.7
							c1.3,0,2.3-0.5,3.3-1.4c-0.6-0.1-1.1-0.3-1.5-0.6c-0.2-0.2-0.5-0.5-0.8-0.8c-0.6-0.8-1-1.8-1.1-3c0-0.2-0.1-0.5-0.1-0.7
							c-0.1-1.4,0.3-2.7,0.9-3.8C4.1,45.2,4.6,44.8,5.2,44.6 M23.3,40.9c-0.2,0-0.5,0-0.7,0.1c-1.5,0.2-2.7,1.1-3.8,2.5
							c-1.2,1.7-1.7,3.7-1.7,6c0,0.1,0,0.2,0,0.2c0.1,2.4,0.8,4.4,2.1,6c1.3,1.6,2.9,2.4,4.7,2.3c1.4-0.1,2.7-0.7,3.8-1.9
							c-1-0.1-1.8-0.7-2.6-1.8c-0.9-1.3-1.4-3-1.4-4.9c0-0.7,0-1.4,0.1-2.1c0.2-1.1,0.5-2.1,1-3c0.6-1,1.4-1.7,2.3-2
							c0.1,0,0.2-0.1,0.2-0.1C26,41.4,24.7,40.9,23.3,40.9 M74.9,106.7c0.1-0.6,0-1.1-0.2-1.6c-0.5-1-1.5-1.4-3-1.4
							c-0.9,0-1.6,0.5-2.1,1.3c-0.4,0.6-0.5,1.2-0.5,1.7c0,0,0.1,0.5,0.3,1.2c0.3,0.8,0.8,1.2,1.6,1.2c0.4,0,0.8-0.2,1-0.4
							c0.2-0.2,0.3-0.4,0.3-0.8c0.1-0.6-0.2-0.9-0.7-0.9c-0.2,0-0.3,0.1-0.4,0.2c-0.1,0.1-0.2,0.2-0.2,0.3c-0.4-0.2-0.6-0.5-0.7-0.9
							c0-0.3,0.1-0.6,0.3-0.9c0.3-0.5,0.8-0.8,1.6-0.9c0.9,0,1.4,0.5,1.4,1.7c0,0-0.1,0.6-0.3,1.6c-0.4,1.1-1.2,1.6-2.4,1.7
							c-1.1,0-2-0.5-2.7-1.6c-0.4-0.7-0.6-1.4-0.7-2c0-0.7,0.2-1.6,0.6-2.8c0.6-1.3,1-2.3,1.3-3l-0.3-0.2c-2,1.4-2.9,3.4-2.8,6
							c0,1,0.3,1.9,0.7,2.7c0.8,1.6,2.2,2.4,4.1,2.3C73.8,111.4,75,109.8,74.9,106.7 M113.8,92.9c0.1,0,0.2,0,0.2,0.1
							c0.1,0,0.1-0.1,0.1-0.3c0-0.1-0.1-0.2-0.1-0.3c-1.9,0.7-3.2,2-3.8,4c-0.3,1-0.4,2.2-0.3,3.6c1.1,2.8,2.9,4.2,5.4,4.1
							c2.1-0.1,3.6-1,4.5-2.7c0.6-1.1,0.8-2.2,0.8-3.3c-0.2-0.6-0.4-1.3-0.8-1.9c-0.7-1.2-1.4-1.8-2.3-1.7c-0.1,0-0.2,0-0.3,0
							c-0.7,0.1-1.4,0.3-1.9,0.6c-0.3,0.2-0.7,0.5-0.9,0.8c-0.7,0.7-1,1.4-0.9,2.1c0,0,0.1,0.5,0.4,1.4c0.4,0.9,1,1.3,1.9,1.3
							c1,0,1.4-0.5,1.4-1.4c0-0.6-0.3-1-0.8-0.9c-0.3,0-0.5,0.1-0.6,0.3c0,0.1-0.1,0.3-0.1,0.4c-0.2-0.2-0.3-0.4-0.4-0.5
							c-0.2-0.2-0.3-0.4-0.3-0.6c0-0.3,0.2-0.7,0.5-1.1c0.5-0.6,1.3-0.9,2.2-0.9c0.5,0,1,0.7,1.6,2.2l-0.5,2.2
							c-0.7,1.5-1.8,2.3-3.4,2.4c-1.3,0.1-2.4-0.4-3.3-1.5c-0.6-0.8-0.9-1.6-0.9-2.4c0-1,0.1-1.9,0.2-2.7
							C111.8,94,112.6,93,113.8,92.9z"/>
						<path fill="#FFCCFF" d="M31.2,34.5c-3.3-1.2-6.6-1.9-9.9-2.2c3.8,0.5,7.3,1.8,10.5,3.9c1.9,1.3,3.4,2.8,4.5,4.6
							c0.7,0.2,1.6,0.6,2.8,1.3c0.7,0.4,1.7,1,2.9,1.7c0.6,0.3,1.5,0.4,2.7,0.3c0.1,0,0.3,0,0.4-0.1c-0.5-0.7-1.1-1.4-1.7-2
							C39.7,38.8,35.7,36.2,31.2,34.5 M129.7,6c0.2,0.1,0.3,0.2,0.4,0.3c11.1,9.1,17.3,20.6,18.6,34.7c0-0.9,0-1.9-0.1-2.8
							C148,22.6,141.8,10,129.8,0.2c-0.1-0.1-0.3-0.2-0.4-0.3c-1.8-1.3-3.7-2.5-5.6-3.7c-3-1.9-6.3-3.6-9.8-5
							c-2.4-1-4.9-1.9-7.4-2.7c-2.1-0.7-4.2-1.4-6.4-1.9c-0.6-0.2-1.2-0.3-1.8-0.4c-2.9-0.8-5.9-1.5-8.8-2.1
							c-1.1-0.2-2.2-0.4-3.3-0.5c-2.1-0.3-4.3-0.5-6.4-0.6c-1.2-0.1-2.5-0.2-3.7-0.3c-1.7-0.1-3.4-0.1-5.1,0
							c-3.6,0.1-7.2,0.4-10.8,0.9c-3.7,0.6-7.4,1.3-11.1,2.2c-2.6,0.7-5.1,1.4-7.6,2.1c-3.5,1.1-7,2.6-10.2,4.5
							c-2.1,1.1-4.2,2.4-6.2,3.6c-3.1,1.8-5.9,3.9-8.5,6.4c-1.3,1.3-2.6,2.6-3.8,4c-1.2,1.4-2.3,2.8-3.3,4.4
							c-0.4,0.7-0.9,1.4-1.3,2.1c-5,8.2-7.8,16-8.3,23.5l1.3-0.7c1.3-5.4,3.7-11,7.2-16.7c0.4-0.7,0.9-1.4,1.3-2.1
							c1-1.5,2.1-3,3.3-4.4c1.2-1.4,2.5-2.8,3.8-4c2.6-2.5,5.4-4.6,8.5-6.4c2-1.3,4.1-2.5,6.2-3.6C35-3.5,38.4-5,42-6
							c2.5-0.7,5.1-1.4,7.6-2.1C53.3-9,57-9.8,60.7-10.4c3.6-0.6,7.2-0.9,10.8-0.9c1.7,0,3.4,0,5.2,0.1c1.2,0,2.4,0.1,3.7,0.2
							c2.1,0.1,4.3,0.3,6.4,0.6c1.1,0.1,2.2,0.3,3.3,0.5c2.9,0.6,5.8,1.4,8.8,2.1c0.6,0.1,1.2,0.3,1.8,0.5c2.1,0.5,4.2,1.2,6.3,1.9
							c2.5,0.8,4.9,1.7,7.4,2.7c3.5,1.4,6.8,3.1,9.8,5C126,3.4,127.8,4.7,129.7,6z"/>
						<path fill="#FFB8EB" d="M2.1,35.3c-0.2,0.1-0.4,0.2-0.7,0.3l-1.3,0.7c-1.5,1-2.9,2.1-4.3,3.4c-1.4,1.4-2.5,3-3.4,4.8
							c-1.9,4.3-2.3,8.6-1.2,13.1c0.6,2.3,2,4.3,4.1,5.9c2.8,2.3,6,3.6,9.8,3.9c0.1,0,0.2,0,0.2,0c1.7,0.2,3.5,0.3,5.2,0.4
							c2.6,0.1,5.1,0,7.7-0.3c0.8-0.1,1.7-0.2,2.5-0.3c0.3,0,0.7,0,1-0.1l0.7,0c3.8-0.5,7.3-1.8,10.4-3.9c2.1-1.5,3.6-3.4,4.5-5.7
							c1.2-3.1,1.6-6.2,1.3-9.3c0-0.4-0.1-0.8-0.2-1.2c0-0.1-0.1-0.2-0.1-0.3c-0.2-1.1-0.5-2.1-0.9-3.2c-0.3-0.9-0.8-1.8-1.2-2.7
							c-1.1-1.8-2.6-3.3-4.5-4.6c-3.2-2.1-6.7-3.4-10.5-3.9c-1.2-0.1-2.4-0.2-3.6-0.3c-1.3,0-2.5,0.1-3.8,0.2
							c-1.7,0.2-3.5,0.5-5.2,0.8c-0.2,0-0.5,0.1-0.7,0.2C5.9,33.7,3.9,34.4,2.1,35.3 M22.6,41c0.2,0,0.5-0.1,0.7-0.1
							c1.4-0.1,2.7,0.4,3.9,1.5c0.2,0.1,0.3,0.3,0.4,0.4c0.1,0.1,0.3,0.3,0.4,0.4c0.8,1,1.5,2.2,1.9,3.5c0.2,0.8,0.3,1.6,0.3,2.5
							c0.1,2.4-0.5,4.5-1.7,6.2c-0.3,0.3-0.5,0.6-0.8,0.8c-1.1,1.2-2.3,1.8-3.8,1.9c-1.8,0.1-3.3-0.7-4.7-2.3c-1.3-1.6-2-3.6-2.1-6
							c0-0.1,0-0.2,0-0.2c0-2.3,0.5-4.3,1.7-6C19.8,42.1,21.1,41.2,22.6,41 M6.5,44.8c0,0.1,0.1,0.1,0.1,0.2c1,1.2,1.6,2.7,1.7,4.4
							c0.1,1.7-0.3,3.1-1.2,4.4C7,53.9,6.9,54,6.8,54.1c-0.2,0.3-0.4,0.5-0.5,0.7c-0.9,0.9-2,1.3-3.3,1.4c-1.4,0.1-2.7-0.5-3.8-1.7
							c-1.2-1.3-1.8-2.8-1.8-4.6c-0.1-1.8,0.4-3.4,1.5-4.7c1-1.3,2.2-2,3.7-2c1.2,0,2.3,0.3,3.3,1.1C6,44.5,6.2,44.7,6.5,44.8z"/>
						<path fill="#330000" d="M5.8,44.2c-0.3,0-0.5,0.2-0.7,0.3c-0.6,0.2-1,0.7-1.4,1.3c-0.7,1.1-1,2.3-0.9,3.8c0,0.2,0,0.5,0.1,0.7
							c0.1,1.2,0.5,2.2,1.1,3c0.3,0.3,0.5,0.6,0.8,0.8c0.4,0.4,0.9,0.6,1.5,0.6c0.1-0.2,0.3-0.4,0.5-0.7C6.9,54,7,53.9,7.1,53.8
							c0.9-1.3,1.3-2.7,1.2-4.4c-0.1-1.7-0.6-3.2-1.7-4.4c0,0-0.1-0.1-0.1-0.2C6.2,44.7,6,44.5,5.8,44.2 M27.1,42.4
							c-0.1,0-0.2,0-0.2,0.1c-0.9,0.3-1.6,1-2.3,2c-0.5,0.9-0.8,1.9-1,3c-0.1,0.7-0.1,1.4-0.1,2.1c0.1,1.9,0.6,3.6,1.4,4.9
							c0.8,1.1,1.7,1.7,2.6,1.8c0.3-0.2,0.5-0.5,0.8-0.8c1.2-1.7,1.8-3.8,1.7-6.2c0-0.9-0.1-1.7-0.3-2.5c-0.4-1.3-1-2.5-1.9-3.5
							c-0.2-0.1-0.3-0.3-0.4-0.4C27.4,42.7,27.3,42.5,27.1,42.4z"/>
						<path fill="#FF99CC" d="M130.1,6.3c-0.1-0.1-0.3-0.2-0.4-0.3c-1.8-1.3-3.7-2.5-5.6-3.7c-3-1.9-6.3-3.6-9.8-5
							c-2.4-1-4.9-1.9-7.4-2.7c-2.1-0.7-4.2-1.3-6.3-1.9c-0.6-0.2-1.2-0.4-1.8-0.5C95.8-8.6,92.9-9.3,90-10
							c-1.1-0.2-2.2-0.4-3.3-0.5c-2.1-0.3-4.3-0.4-6.4-0.6c-1.2-0.1-2.4-0.2-3.7-0.2c-1.7-0.1-3.4-0.1-5.2-0.1
							c-3.6,0.1-7.2,0.4-10.8,0.9C57-9.8,53.3-9,49.6-8.2C47.1-7.5,44.5-6.8,42-6C38.4-5,35-3.5,31.7-1.5c-2.1,1.1-4.2,2.4-6.2,3.6
							C22.5,3.9,19.6,6,17,8.5c-1.3,1.3-2.6,2.6-3.8,4c-1.2,1.4-2.3,2.8-3.3,4.4c-0.4,0.7-0.9,1.4-1.3,2.1
							c-3.5,5.7-5.9,11.3-7.2,16.7c0.2-0.1,0.5-0.2,0.7-0.3c1.8-0.9,3.8-1.7,5.8-2.1c0.3-0.1,0.5-0.2,0.7-0.2
							c1.7-0.4,3.5-0.6,5.2-0.8c1.3-0.1,2.6-0.2,3.8-0.2c1.2,0,2.4,0.1,3.6,0.3c3.3,0.3,6.6,1.1,9.9,2.2c4.5,1.7,8.6,4.2,12.1,7.5
							c0.7,0.6,1.3,1.3,1.7,2c-0.1,0-0.3,0.1-0.4,0.1c-1.2,0.1-2.1,0-2.7-0.3c-1.2-0.8-2.2-1.3-2.9-1.7c-1.2-0.7-2.1-1.1-2.8-1.3
							c0.5,0.9,0.9,1.8,1.2,2.7c0.4,1.1,0.7,2.2,0.9,3.2c0,0.1,0,0.2,0.1,0.3c0.1,0.4,0.1,0.8,0.2,1.2c3.1,1.8,5.2,2.5,6.3,2.1
							c1.1-0.4,1.9-0.6,2.3-0.7c0.1,0.7,0.1,1.4,0,2.2c-0.1,1.4-0.5,2.7-1.2,3.9c-1.9,3.2-4.5,5.7-7.8,7.5c-1.8,1-3.7,1.7-5.6,2.2
							c-3.3,0.8-6.7,1.3-10.1,1.7l-0.7,0c-0.3,0-0.6,0.1-1,0.1c-0.8,0.1-1.7,0.2-2.5,0.3c-2.5,0.3-5.1,0.3-7.7,0.3
							c-1.8-0.1-3.5-0.2-5.2-0.4c3,7.5,6.2,12.8,9.5,15.8c3.3,3.1,6,5.2,8.1,6.4c2.1,1.2,4.6,2.3,7.4,3.2c2.9,1,5.7,1.8,8.7,2.5
							c3.2,0.8,6.5,1.5,9.9,2c3.7,0.7,7.4,1.3,11.2,1.9c1.2,0.1,2.4,0.2,3.6,0.3c-0.1,1.2-0.1,2.3,0,3.5l1,9.9
							c0,0.1,0.1,0.7,0.1,1.8c0,1.1,0,2.1,0.2,3.1c0.1,0.7,0.1,1.4,0.1,2.3c0.3,1.8,2.9,2.6,7.8,2.4c4.8-0.2,7.5-1.2,7.9-3
							c1-4.7,1.9-8.6,2.5-11.7c0.9-4,1.5-6.7,1.8-8.1c0.9-0.1,1.8-0.1,2.7-0.2c3.5-0.2,7-0.5,10.5-1c3-0.3,6-0.8,9-1.4
							c0,0.1,0.1,0.3,0.1,0.4l4.9,16.9c0.5,1.3,2.7,1.9,6.4,1.8c3.7-0.1,5.8-0.8,6.3-2.3l0.2-0.3c1.2-4.2,2.8-9.2,4.7-15.1
							c0.7-2.1,1.5-4.9,2.4-8.6c0.4-1.6,0.7-3,0.9-4.3c0,0,0,0,0.1-0.1c1.1-1.1,2-2.2,2.8-3.4c8.4-12.2,12.6-25.9,12.7-41.2
							C147.4,26.9,141.2,15.3,130.1,6.3 M114.1,93c-0.1-0.1-0.2-0.1-0.2-0.1c-1.3,0-2.1,1.1-2.5,3.2c-0.1,0.8-0.2,1.7-0.2,2.7
							c0,0.8,0.3,1.6,0.9,2.4c0.8,1,1.9,1.5,3.3,1.5c1.6-0.1,2.7-0.8,3.4-2.4l0.5-2.2c-0.6-1.5-1.1-2.2-1.6-2.2
							c-0.9,0-1.6,0.3-2.2,0.9c-0.4,0.4-0.5,0.8-0.5,1.1c0,0.2,0.1,0.4,0.3,0.6c0.1,0.1,0.3,0.3,0.4,0.5c0-0.2,0.1-0.3,0.1-0.4
							c0.1-0.2,0.3-0.3,0.6-0.3c0.6,0,0.9,0.3,0.8,0.9c0,0.9-0.4,1.3-1.4,1.4c-0.9,0-1.5-0.4-1.9-1.3c-0.3-0.9-0.4-1.4-0.4-1.4
							c0-0.6,0.3-1.3,0.9-2.1c0.3-0.3,0.6-0.6,0.9-0.8c0.6-0.4,1.2-0.6,1.9-0.6c0.1,0,0.2,0,0.3,0c0.9,0,1.6,0.5,2.3,1.7
							c0.3,0.6,0.6,1.2,0.8,1.9c0,1.1-0.2,2.2-0.8,3.3c-0.9,1.8-2.4,2.7-4.5,2.7c-2.5,0.1-4.3-1.3-5.4-4.1c-0.1-1.3,0.1-2.5,0.3-3.6
							c0.6-2,1.9-3.3,3.8-4c0,0.1,0,0.2,0.1,0.3C114.2,92.9,114.2,93.1,114.1,93 M74.7,105.1c0.2,0.5,0.3,1,0.2,1.6
							c0.1,3.1-1.1,4.7-3.7,4.8c-1.9,0.1-3.3-0.7-4.1-2.3c-0.4-0.8-0.6-1.7-0.7-2.7c-0.1-2.6,0.8-4.6,2.8-6l0.3,0.2
							c-0.3,0.7-0.7,1.6-1.3,3c-0.5,1.2-0.7,2.1-0.6,2.8c0,0.6,0.2,1.3,0.7,2c0.7,1.1,1.6,1.7,2.7,1.6c1.2,0,2-0.6,2.4-1.7
							c0.2-1,0.3-1.6,0.3-1.6c0-1.2-0.5-1.8-1.4-1.7c-0.7,0-1.2,0.3-1.6,0.9c-0.1,0.3-0.2,0.6-0.3,0.9c0,0.4,0.2,0.7,0.7,0.9
							c0-0.1,0.1-0.2,0.2-0.3c0.1-0.2,0.2-0.2,0.4-0.2c0.5,0,0.8,0.3,0.7,0.9c0,0.3-0.1,0.6-0.3,0.8c-0.3,0.3-0.6,0.4-1,0.4
							c-0.8,0-1.3-0.4-1.6-1.2c-0.2-0.8-0.3-1.2-0.3-1.2c0-0.6,0.1-1.1,0.5-1.7c0.5-0.9,1.2-1.3,2.1-1.3
							C73.2,103.6,74.2,104.1,74.7,105.1z"/>
					</g>
				</g>
			</g>
			<g transform="matrix( -0.8084869384765625, 0.31719970703125, 0.31719970703125, 0.8084869384765625, 103.3,46.55) ">
				<g transform="matrix( 1, 0, 0, 1, 0,0) ">
					<g>
						<g id="Geniecillo_Bocas_Bocas_Geniecillo_boca_sonrissa_0_Layer0_0_FILL">
							<path fill="#993366" d="M-9.6-17.7c-0.8-2.4-1.2-4.4-1.1-6c5.3-2.1,9.4-2.5,12.3-1.4c-0.1-0.2-0.2-0.4-0.3-0.5
								c-0.8-1.3-1.7-2.3-2.6-2.8c-2.6-1.3-5.9-1.1-9.9,0.5c-3.9,1.8-7,4.4-9.1,7.8c-0.7,1.2-1.2,2-1.4,2.4
								c-0.2,0.2-0.3,0.5-0.4,0.8c2.2-2.3,5.1-4.2,8.7-5.8c0.2,1.3,0.5,2.9,1,4.6c1.1,4.6,3,9.5,5.7,14.7
								c6.6,12.9,14.7,22,24.1,27.2c10,5.6,21.5,8.3,34.5,8.1c6.9-0.2,13.5-1.3,20-3.3c4.5-1.3,8.9-3.6,13.1-6.9
								c-4.4,2.1-8.9,3.8-13.5,5c-5.5,1.4-11.3,2.1-17.1,2.2c-12.6,0.2-23.9-2.4-33.8-7.6C11.1,16.5,3.1,8-3.7-4.1
								C-6.4-8.9-8.4-13.5-9.6-17.7z"/>
						</g>
					</g>
				</g>
			</g>
		</g>
		<g transform="matrix( 0.9930572509765625, -0.1175689697265625, 0.1175689697265625, 0.9930572509765625, 259.4,218.8) ">
			<g transform="matrix( 1, 0, 0, 1, 0,0) ">
				<g>
					<g id="S_mbolo_6_0_Layer0_0_FILL">
						<path fill="#874343" d="M9,5.8c2.7-0.2,5.3-0.2,7.7,0.2c2.4,0.4,4.9,1.7,7.5,3.7c2.6,2.1,4.5,3.6,5.5,4.5
							c-0.5-1.8-1.3-4.6-2.4-8.3c-1.5-5.1-2.6-10.3-3.5-15.7C21-7.1,16-1.9,9,5.8z"/>
						<path fill="#CC6699" d="M26.5-18.1l-0.4,0c-0.6,1.1-3,4.3-7.4,9.8c-4.5,5.7-7.8,10-10,13c0.1,0.3,0.3,0.7,0.4,1
							C16-1.9,21-7.1,23.9-9.7c0.8,5.3,2,10.5,3.5,15.7c1.1,3.7,1.9,6.4,2.4,8.3c0.4-0.2,0.7-0.3,1.1-0.4c-0.7-3.5-1.4-7.9-2.1-13.4
							C27.8-7.8,27-14,26.5-18.1 M25.5-11.1c0.1-0.1,0.2-0.2,0.3-0.2l0,0.2L25.5-11.1z"/>
					</g>
				</g>
			</g>
		</g>
		<g transform="matrix( 1.5768890380859375, 0, 0, 1.4202880859375, 207.3,243.4) ">
			<g transform="matrix( 1, 0, 0, 1, 0,0) ">
				<g>
					
						<path id="S_mbolo_7_2_Layer0_0_1_STROKES" fill="none" stroke="#CC6699" stroke-width="5" stroke-linecap="round" stroke-linejoin="round" d="
						M29.7,4.9c0.5-3.1,1.8-5.6,3.9-7.6c2-1.8,4.2-2.8,6.7-2.9c2.5-0.1,4.8,0.6,6.8,2.3c2.2,1.8,3.7,4.4,4.4,7.9"/>
				</g>
				<g>
					
						<path id="S_mbolo_7_2_Layer0_0_2_STROKES" fill="none" stroke="#CC6699" stroke-width="4" stroke-linecap="round" stroke-linejoin="round" d="
						M9.6,2.8c0.3-1.5,1-2.8,2-3.8c1-0.9,2.1-1.4,3.4-1.5c1.3-0.1,2.5,0.3,3.5,1.2c1.1,0.9,1.9,2.3,2.3,4"/>
				</g>
			</g>
		</g>
	</g>
</g>
</svg>
