
<svg xmlns="http://www.w3.org/2000/svg" version="1.1" xmlns:xlink="http://www.w3.org/1999/xlink" preserveAspectRatio="none" x="0px" y="0px" width="550px" height="400px" viewBox="0 0 550 400">
<defs>
<radialGradient id="Gradient_1" gradientUnits="userSpaceOnUse" cx="0" cy="0" r="344.50000000000006" fx="0" fy="0" gradientTransform="matrix( 0.9999999999999999, 0, 0, 0.9999999999999999, 272.95,198.45) " spreadMethod="pad">
<stop  offset="0%" stop-color="#A5E4FA"/>

<stop  offset="98.43137254901961%" stop-color="#36D1F7"/>
</radialGradient>

<radialGradient id="Gradient_2" gradientUnits="userSpaceOnUse" cx="0" cy="0" r="207.84041090762406" fx="0" fy="0" gradientTransform="matrix( 0.9999859945060187, 0.005292522253956194, 0, 0.05665404503666744, 272.2,303.65) " spreadMethod="pad">
<stop  offset="61.1764705882353%" stop-color="#395656"/>

<stop  offset="100%" stop-color="#679A9A"/>
</radialGradient>

<linearGradient id="Gradient_3" gradientUnits="userSpaceOnUse" x1="160.125" y1="286.9625" x2="159.77499999999998" y2="277.5375" spreadMethod="pad">
<stop  offset="0%" stop-color="#707070"/>

<stop  offset="96.86274509803921%" stop-color="#2C2C2C"/>
</linearGradient>

<linearGradient id="Gradient_4" gradientUnits="userSpaceOnUse" x1="159.275" y1="273.7" x2="159.82500000000002" y2="278.90000000000003" spreadMethod="pad">
<stop  offset="0%" stop-color="#D9D9D9"/>

<stop  offset="96.86274509803921%" stop-color="#999999"/>
</linearGradient>

<radialGradient id="Gradient_5" gradientUnits="userSpaceOnUse" cx="0" cy="0" r="24.24539260354431" fx="0" fy="0" gradientTransform="matrix( 0.7676716275272496, -0.6408434069955482, 0.5604157549510547, 0.6712615574482733, 159.45,281.55) " spreadMethod="pad">
<stop  offset="18.823529411764707%" stop-color="#747474"/>

<stop  offset="49.411764705882355%" stop-color="#747474"/>

<stop  offset="80.7843137254902%" stop-color="#424242"/>

<stop  offset="87.45098039215686%" stop-color="#2E2E2E"/>

<stop  offset="97.25490196078431%" stop-color="#1E1E1E"/>
</radialGradient>

<linearGradient id="Gradient_6" gradientUnits="userSpaceOnUse" x1="432.4375" y1="279.725" x2="430.5625" y2="269.275" spreadMethod="pad">
<stop  offset="0%" stop-color="#707070"/>

<stop  offset="96.86274509803921%" stop-color="#2C2C2C"/>
</linearGradient>

<linearGradient id="Gradient_7" gradientUnits="userSpaceOnUse" x1="432.475" y1="263.5375" x2="432.625" y2="274.1625" spreadMethod="pad">
<stop  offset="0%" stop-color="#D9D9D9"/>

<stop  offset="96.86274509803921%" stop-color="#999999"/>
</linearGradient>

<radialGradient id="Gradient_8" gradientUnits="userSpaceOnUse" cx="0" cy="0" r="21.50015261573741" fx="0" fy="0" gradientTransform="matrix( 0.8656915293883197, 0.500577842043884, -0.5988329585426255, 1.0366205486228168, 376.75,282.2) " spreadMethod="pad">
<stop  offset="18.823529411764707%" stop-color="#747474"/>

<stop  offset="49.411764705882355%" stop-color="#747474"/>

<stop  offset="80.7843137254902%" stop-color="#424242"/>

<stop  offset="87.45098039215686%" stop-color="#2E2E2E"/>

<stop  offset="97.25490196078431%" stop-color="#1E1E1E"/>
</radialGradient>

<linearGradient id="Gradient_9" gradientUnits="userSpaceOnUse" x1="377.1" y1="289.28749999999997" x2="376.5" y2="281.0125" spreadMethod="pad">
<stop  offset="0%" stop-color="#707070"/>

<stop  offset="96.86274509803921%" stop-color="#2C2C2C"/>
</linearGradient>

<linearGradient id="Gradient_10" gradientUnits="userSpaceOnUse" x1="377.6625" y1="270.1875" x2="377.0375" y2="286.11249999999995" spreadMethod="pad">
<stop  offset="0%" stop-color="#D9D9D9"/>

<stop  offset="96.86274509803921%" stop-color="#999999"/>
</linearGradient>

<linearGradient id="Gradient_11" gradientUnits="userSpaceOnUse" x1="279.48749999999995" y1="244.20000000000002" x2="279.8125" y2="301" spreadMethod="pad">
<stop  offset="1.9607843137254901%" stop-color="#FFFFFF" stop-opacity="0.12941176470588237"/>

<stop  offset="100%" stop-color="#FFFFFF" stop-opacity="0.7098039215686275"/>
</linearGradient>

<linearGradient id="Gradient_12" gradientUnits="userSpaceOnUse" x1="236.35" y1="109.44999999999999" x2="235.45000000000002" y2="302.25" spreadMethod="pad">
<stop  offset="1.9607843137254901%" stop-color="#FFFFFF" stop-opacity="0.12941176470588237"/>

<stop  offset="100%" stop-color="#FFFFFF" stop-opacity="0.7098039215686275"/>
</linearGradient>

<linearGradient id="Gradient_13" gradientUnits="userSpaceOnUse" x1="445.95000000000005" y1="218.7" x2="444.75" y2="234.5" spreadMethod="pad">
<stop  offset="1.9607843137254901%" stop-color="#FFFFFF" stop-opacity="0.12941176470588237"/>

<stop  offset="100%" stop-color="#FFFFFF" stop-opacity="0.7098039215686275"/>
</linearGradient>

<filter id="Filter_1" x="-100%" y="-100%" width="300%" height="300%" color-interpolation-filters="sRGB">
<feFlood flood-color="#FFFFFF" flood-opacity="1" in="SourceGraphic" result="result1"/>

<feGaussianBlur in="SourceGraphic" stdDeviation="17.666666666666668,17.666666666666668" result="result2"/>

<feComposite in2="result2" in="result1" operator="in" result="result3"/>

<feComposite in2="result3" in="SourceGraphic" operator="over" result="result4"/>
</filter>

<filter id="Filter_2" x="-100%" y="-100%" width="300%" height="300%" color-interpolation-filters="sRGB">
<feFlood flood-color="#FFFFFF" flood-opacity="1" in="SourceGraphic" result="result1"/>

<feGaussianBlur in="SourceGraphic" stdDeviation="17.666666666666668,17.666666666666668" result="result2"/>

<feComposite in2="result2" in="result1" operator="in" result="result3"/>

<feComposite in2="result3" in="SourceGraphic" operator="over" result="result4"/>
</filter>

<filter id="Filter_3" x="-52.45540874620385%" y="-50.95177968644246%" width="204.91081749240772%" height="201.9035593728849%" color-interpolation-filters="sRGB">
<feFlood flood-color="#FFFFFF" flood-opacity="1" in="SourceGraphic" result="result1"/>

<feFlood flood-color="#000000" flood-opacity="1" in="SourceGraphic" result="result2"/>

<feComposite in2="SourceGraphic" in="result2" operator="in" result="result3"/>

<feColorMatrix in="result3" type="matrix" values="0 0 0 0 255 0 0 0 0 255 0 0 0 0 255 0 0 0 255 0" result="result4"/>

<feComposite in2="SourceGraphic" in="result1" operator="in" result="result5"/>

<feGaussianBlur in="result3" stdDeviation="2.3333333333333335,2.3333333333333335" result="result6"/>

<feComposite in2="result6" in="result5" operator="out" result="result7"/>

<feComposite in2="result4" in="result7" operator="in" result="result8"/>
</filter>

<filter id="Filter_4" x="-100%" y="-100%" width="300%" height="300%" color-interpolation-filters="sRGB">
<feFlood flood-color="#FFFFFF" flood-opacity="1" in="SourceGraphic" result="result1"/>

<feGaussianBlur in="SourceGraphic" stdDeviation="17.666666666666668,17.666666666666668" result="result2"/>

<feComposite in2="result2" in="result1" operator="in" result="result3"/>

<feComposite in2="result3" in="SourceGraphic" operator="over" result="result4"/>
</filter>

<g id="Layer7_0_FILL">
<path fill="url(#Gradient_1)" stroke="none" d="
M 550.95 -5
L -5 -5 -5 401.95 550.95 401.95 550.95 -5 Z"/>
</g>

<g id="Layer5_0_FILL">
<path fill="url(#Gradient_2)" stroke="none" d="
M 359.15 311.6
Q 372.1 311.45 384.75 311.45 422.65 310.9 457.15 310.35 455.6 309 453.15 307.6 450.35 306 446.3 304.4 442.25 302.65 436.95 300.9 432.75 299.6 426.6 297.75 392.3 295.9 362.85 295.4 316.5 294.4 196.7 296.5 131.5 297.7 108.35 297.65 103.3 299.3 99.1 301.05 93.5 303.35 89.1 307.5 88.15 308.4 87.25 309.35 88.15 309.35 89.1 309.45 160.6 311.1 199 311.9 203.05 312 207.6 312 216.025 312.125 224.45 312.25 224.65 312.15 224.95 312.25 225.15 312.15 225.4 312.25 225.55 312.25 225.75 312.25 225.95 312.25 226.2 312.25 226.55 312.25 226.9 312.25 227.1 312.25 227.25 312.3 227.45 312.25 227.6 312.3 227.8 312.25 227.95 312.3 256.025 312.15 284.1 312 316.85 312 359.15 311.6 Z"/>
</g>

<g id="Layer4_0_FILL">
<path fill="#000000" stroke="none" d="
M 333.85 273.2
Q 339.55 273.1 346.05 273.05 342.2 282.05 345.3 290.35 348.45 298.9 357.15 301.6 365.75 304.35 375 299.6 384.05 294.85 388.25 285.25 391.25 278.55 390.55 272.35 393.45 272.25 395.85 272.25 395.85 273.45 395.85 274.65 395.85 276.1 395.65 277.6 398.9 277.5 402.15 277.35
L 402.15 245.45 140 245.45 140 279.35
Q 141.45 279.4 142.9 279.4 142.2 276.25 142.05 274.95 144.15 275 148.3 275.2 148.15 275.65 148.1 276.1 146.35 282.95 148.65 289.4 151.8 298 160.5 300.65 169.2 303.35 178.25 298.55 187.4 293.85 191.6 284.35 193.55 280.1 194 275.95 194.9 275.95 195.85 275.95 200.35 275.9 204.4 275.9 204.4 276.65 204.4 277.45 204.4 278.2 203.95 280.4
L 220.2 279.95
Q 218.55 280.1 217.5 280.15 218.85 280.15 220.2 280.15
L 220.75 280.15
Q 230.6 280.4 240.3 280.5 241.5 280.5 242.65 280.5 251.4 280.6 260.05 280.6 280.6 280.6 307.3 280.15
L 307.3 279.9
Q 314.35 279.7 321.75 279.55 323.1 279.45 324.4 279.45 327.7 279.4 331.1 279.35 331.9 276.3 333.85 273.2 Z"/>
</g>

<g id="Layer3_0_FILL">
<path fill="#660000" stroke="none" d="
M 182.95 272.4
Q 183.45 274.85 183.45 277.3 183.35 278.2 183.3 279.1 184.2 279.1 185.2 279.1 189.65 279.05 193.7 279.05 193.3 275.75 191.3 273.95 190.2 273.1 186.2 272.6 185.25 272.5 182.95 272.4
M 139.05 274.45
Q 139.35 273.75 139.75 273.05 131.3 274.35 131.3 277.5 131.3 277.7 131.4 278.05 133.5 278.15 137.6 278.35 138.15 276.4 139.05 274.45
M 225.5 131.65
Q 226.8 118.25 242.4 113.4 258.6 108.45 275.55 105.5 284.15 104.05 292.75 103 298.4 102.45 303.95 101.9
L 303.3 99.6 303.25 99.6
Q 288.7 101.05 274.25 102.5 265.65 103.4 257.05 104.95 240.1 107.6 223.9 112.45 208.3 116.9 206.95 129.7 206.2 136.55 206.55 143.4 207.05 154.35 208.5 165.25 210.35 179.2 213 193.05 215.65 206.4 218.3 219.75 218.45 220.25 218.5 220.7
L 219.6 226.7 221 234.85 221.65 238.55 229.6 283.65
Q 230.8 283.65 232 283.65
L 223.45 238.3
Q 223.3 238.4 223.2 238.4 222.95 237.5 222.85 236.7 222.6 235.65 222.5 234.75 222.7 234.75 222.85 234.75
L 221.2 226.35 220.25 220.6
Q 227.7 219.8 235.4 219.2 233.45 208.7 231.4 198.35 228.75 183.75 226.95 169.1 225.55 157.55 225.05 146.05 224.7 138.75 225.5 131.65
M 344.8 274.1
Q 343.95 275.15 343.25 276.3 349 276.25 355.5 276.2 355.65 275.75 355.75 275.4 360.05 265.85 369.2 261.15 378.25 256.35 386.95 259.05 395.6 261.7 398.8 270.4 399.7 272.9 400 275.5 402.85 275.4 405.3 275.4 405 265.2 402.5 260 398.4 251.4 387.2 251.4 380.35 251.4 372 254.6 363.9 257.65 356.6 262.75 349.15 268.1 344.8 274.1
M 337.8 213.1
Q 336.7 213.1 335.6 213.15
L 335.1 221.05 334.75 225.4 334.55 229.05 331.2 282.7
Q 332.5 282.6 333.85 282.6
L 337 228.8 337.1 225.25 337.4 220.95 337.8 213.1
M 445.75 211.2
Q 445.95 210.75 446.25 210.25 445.4 210.25 444.5 210.3 442.95 212.9 441.65 216.45 440.7 218.9 439.95 221.75 437.6 229.45 437.6 232.4 437.6 232.5 437.6 232.6 438.2 232.6 438.85 232.5 438.85 231.35 440.25 225.6 441.75 219.3 442.7 217.3 442.9 216.95 442.95 216.5 444.3 213.85 445.75 211.2 Z"/>

<path fill="#000000" stroke="none" d="
M 170 275.75
Q 170 275.85 170.1 275.9 174.9 276.05 178.4 276.45 181.55 276.75 182.6 277 183 277.15 183.45 277.3 183.45 274.85 182.95 272.4 181.6 272.35 179.95 272.35 171.15 272.2 167.55 272.2 169.2 273.6 170 275.75
M 155.85 272
Q 151.7 272 147.95 272.2 143.1 272.5 139.75 273.05 139.35 273.75 139.05 274.45 138.15 276.4 137.6 278.35 137.45 278.75 137.4 279.25 140.2 278.2 146.45 277.25 149 276.8 151.3 276.55 152.9 273.75 155.85 272 Z"/>

<path fill="url(#Gradient_3)" stroke="none" d="
M 151.3 285.6
Q 152.6 289.05 156.05 290 159.35 291.15 163.05 289.25 166.6 287.35 168.2 283.6 169.05 281.9 169.2 280.15 165.2 282.8 162.1 283.85 157.5 285.4 150.8 282.95 150.9 284.35 151.3 285.6 Z"/>

<path fill="#333333" stroke="none" d="
M 151.3 276.55
Q 152.15 276.4 153.05 276.3 158.05 275.75 162 275.75 165.4 275.75 168.4 275.85 169.25 275.9 170.1 275.9 170 275.85 170 275.75 169.2 273.6 167.55 272.2 166.95 272.2 166.45 272.2 160.85 272 155.85 272 152.9 273.75 151.3 276.55 Z"/>

<path fill="url(#Gradient_4)" stroke="none" d="
M 151.5 279.05
Q 150.8 281.05 150.8 282.95 157.5 285.4 162.1 283.85 165.2 282.8 169.2 280.15 169.2 279.75 169.2 279.4 169.2 277.95 168.7 276.55 168.55 276.2 168.4 275.85 165.4 275.75 162 275.75 158.05 275.75 153.05 276.3 152.25 277.3 151.8 278.5 151.65 278.85 151.5 279.05 Z"/>

<path fill="#CCCCCC" stroke="none" d="
M 150.8 282.95
Q 150.8 281.05 151.5 279.05 151.65 278.85 151.8 278.5 152.25 277.3 153.05 276.3 152.15 276.4 151.3 276.55 150.9 277.25 150.55 278 150.4 278.35 150.25 278.65 149.2 281.5 149.55 284.15 149.6 285.2 149.95 286.15 151.5 290.1 155.4 291.25 159.25 292.55 163.45 290.35 167.55 288.2 169.45 283.85 170.1 282.55 170.35 281.2 170.6 280.15 170.6 279.05 170.6 277.45 170.1 275.9 169.25 275.9 168.4 275.85 168.55 276.2 168.7 276.55 169.2 277.95 169.2 279.4 169.2 279.75 169.2 280.15 169.05 281.9 168.2 283.6 166.6 287.35 163.05 289.25 159.35 291.15 156.05 290 152.6 289.05 151.3 285.6 150.9 284.35 150.8 282.95
M 132.2 245.4
Q 146.8 243.75 158.3 242.7 167 241.8 173.85 241.3 175.4 241.2 182.25 240.75 191.4 240.2 210 239.15 211.5 239 213.1 238.95 216.1 238.75 219.35 238.6
L 221.65 238.55 221 234.85 218.8 235.05
Q 216.75 235.1 212.15 235.45 205.95 235.9 195.1 236.8 176.1 238.25 166.65 239.5 157.3 240.75 133.35 244.6 132.85 245.05 132.2 245.4
M 373.3 272.5
Q 370.8 273.8 369.2 275.95 368 277.3 367.35 279 366.9 280.05 366.6 281.05 365.7 284.2 366.75 287.1 368.3 291 372.1 292.25 376.05 293.5 380.2 291.25 384.35 289.2 386.25 284.85 387.3 282.35 387.3 280.05 387.2 278.35 386.65 276.75 386.5 276.2 386.25 275.7 384.75 272.7 381.35 271.55 377.45 270.4 373.3 272.5
M 368.65 279.4
Q 369.1 277.95 370.1 276.75 371.55 274.85 373.75 273.75 377.35 271.9 380.7 272.95 383.7 273.9 384.95 276.55 385.25 276.95 385.3 277.45 385.95 279 385.95 280.7 385.9 282.6 384.95 284.5 383.35 288.2 379.75 290.1 376.1 292.05 372.7 290.9 369.4 289.8 368 286.45 367.25 284.3 367.7 282 367.95 280.7 368.65 279.4
M 334.55 229.05
L 334.75 225.4
Q 320.3 226.45 307.3 227.7 292.35 229.05 279.35 230.55 265.8 232.05 242.45 233.55 235.35 234 227.3 234.55
L 224.15 234.7
Q 223.9 234.7 223.6 234.7 223.25 234.75 222.85 234.75 222.7 234.75 222.5 234.75 222.6 235.65 222.85 236.7 222.95 237.5 223.2 238.4 223.3 238.4 223.45 238.3
L 223.6 238.3
Q 233.75 237.75 242.45 237.2 246.8 236.9 250.75 236.65 255.2 236.2 259.25 236 265.15 235.55 270.15 235.1 275.15 234.6 279.35 234.15 286.55 233.3 294.35 232.5 300.65 231.9 307.3 231.25 320.2 230.15 334.55 229.05
M 421.3 222.1
Q 421.35 221.7 421.45 221.35 421.5 220.65 421.6 220.15 412.1 220.6 406.4 220.85 386.25 221.9 367.95 223.1 356.8 223.8 346.4 224.55
L 338.95 225.05
Q 338.05 225.1 337.1 225.25
L 337 228.8 337.05 228.8
Q 338.4 228.7 339.8 228.6
L 347.45 228.05
Q 357.3 227.35 367.95 226.7 386.25 225.55 406.4 224.5 411.95 224.15 421 223.7 421.15 222.9 421.3 222.1 Z"/>

<path fill="url(#Gradient_5)" stroke="none" d="
M 137.4 279.25
Q 135.65 286.1 137.95 292.55 141.1 301.1 149.85 303.8 158.5 306.5 167.55 301.7 176.7 297 180.9 287.5 182.85 283.25 183.3 279.1 183.35 278.2 183.45 277.3 183 277.15 182.6 277 181.55 276.75 178.4 276.45 174.9 276.05 170.1 275.9 170.6 277.45 170.6 279.05 170.6 280.15 170.35 281.2 170.1 282.55 169.45 283.85 167.55 288.2 163.45 290.35 159.25 292.55 155.4 291.25 151.5 290.1 149.95 286.15 149.6 285.2 149.55 284.15 149.2 281.5 150.25 278.65 150.4 278.35 150.55 278 150.9 277.25 151.3 276.55 149 276.8 146.45 277.25 140.2 278.2 137.4 279.25 Z"/>

<path fill="#990000" stroke="none" d="
M 159.4 257.6
Q 159.25 257.6 159.2 257.6 154.1 258 146.55 259.35 141.3 260.25 138.65 260.8 137.95 260.95 137.4 261.15 132.35 262.4 129.3 263.9 127.2 264.95 126 266.05 125.15 266.8 124.7 267.95 123.7 269.85 123.65 272.75 123.65 272.9 123.65 273.1 123.65 277.35 125.1 281.7 125.25 282.05 125.4 282.4 125.8 282.4 126.3 282.4 127.75 282.45 129.3 282.45 130.75 282.55 132.2 282.55 131.5 279.4 131.4 278.05 131.3 277.7 131.3 277.5 131.3 274.35 139.75 273.05 143.1 272.5 147.95 272.2 151.7 272 155.85 272 160.85 272 166.45 272.2 166.95 272.2 167.55 272.2 171.15 272.2 179.95 272.35 181.6 272.35 182.95 272.4 185.25 272.5 186.2 272.6 190.2 273.1 191.3 273.95 193.3 275.75 193.7 279.05 193.7 279.8 193.7 280.6 193.7 281.35 193.3 283.5
L 199.5 283.4
Q 199.55 282.95 199.7 282.6 200 281 200.4 279 201.95 271.65 202.3 269.9 202.35 269.4 202.35 269.35 202.35 269 202.35 268.65
L 202.35 268.5
Q 202.15 264.6 200.35 262.05 199.15 260.45 197.35 259.4 196.4 258.85 195.3 258.45 192.1 257.2 187 256.75 185.9 256.6 184.6 256.55 182.8 256.5 180.8 256.5 178.1 256.5 169.25 256.95 167.2 257.1 165.55 257.2 162.45 256.95 159.4 257.6
M 158.3 242.7
Q 146.8 243.75 132.2 245.4 132.85 245.05 133.35 244.6 157.3 240.75 166.65 239.5 176.1 238.25 195.1 236.8 205.95 235.9 212.15 235.45 216.75 235.1 218.8 235.05
L 221 234.85 219.6 226.7
Q 214.65 227.5 210.1 228.2 194.7 230.3 182.95 230.85 176.85 231.1 167.9 232.45 156.45 234.05 140.25 237.25 124.7 240.55 118.45 241.9 117.5 242.8 116.5 243.65 116 244.05 115.4 244.55 114.95 244.9 114.7 245.3 113.1 246.65 111.7 247.9 107.7 251.25 104.65 253.9 102.9 255.5 101.3 256.75 102.45 259.65 104.05 263.4 104.65 264.85 105.25 266.45 105.4 266.75 105.55 267.05 110.85 270.05 112.1 274.3 113.1 277.7 111.5 281.9 117.2 282.1 123.7 282.35 123.15 280.85 122.5 279.1 120.65 273.6 120.65 270.1 120.65 267.25 121.35 265.2 121.9 263.55 122.95 262.4 124.9 260.25 129.3 258.7 131.4 257.95 134.05 257.4 140.8 255.9 153.4 255 155.75 254.8 158.2 254.75 165.9 254.25 173.3 254.2 174.35 254.2 175.45 254.2 192.7 254.2 198.45 256.15 201.6 257.2 203.15 259.15 203.25 259.3 203.4 259.5 204.9 261.65 204.9 265.15 204.9 268.5 203.35 274.25 202.7 276.25 201.95 278.65 201.85 278.75 201.85 279 201.05 281 200.25 283.4
L 209.5 283.1
Q 207.9 283.25 206.85 283.3 208.15 283.3 209.5 283.3
L 210.05 283.3
Q 219.9 283.5 229.6 283.65
L 221.65 238.55 219.35 238.6
Q 216.1 238.75 213.1 238.95 211.5 239 210 239.15 191.4 240.2 182.25 240.75 175.4 241.2 173.85 241.3 167 241.8 158.3 242.7
M 331.2 282.7
L 334.55 229.05
Q 320.2 230.15 307.3 231.25 300.65 231.9 294.35 232.5 286.55 233.3 279.35 234.15 275.15 234.6 270.15 235.1 265.15 235.55 259.25 236 255.2 236.2 250.75 236.65 246.8 236.9 242.45 237.2 233.75 237.75 223.6 238.3
L 223.45 238.3 232 283.65
Q 240.7 283.75 249.4 283.75 282.4 283.75 331.2 282.7
M 335.1 221.05
Q 330.75 221.4 325.5 221.6 322.1 221.85 312.3 222.25 307.35 222.45 306.95 222.45 303.45 222.6 301.15 222.6 299.7 222.6 296.05 224.05 292.9 225.45 292.85 225.45 291.8 225.45 291 224.9 290.6 224.55 289.7 223.35 288 221.15 285.7 221.15 283.2 221.15 277.2 222.95 271.1 224.85 269.3 224.85 268.1 224.85 263.4 223.6 258.6 222.25 255.75 222.25 248.8 222.25 240.15 223.35 235.2 224 223.75 225.95 222.5 226.25 221.2 226.35
L 222.85 234.75
Q 223.25 234.75 223.6 234.7 223.9 234.7 224.15 234.7
L 227.3 234.55
Q 235.35 234 242.45 233.55 265.8 232.05 279.35 230.55 292.35 229.05 307.3 227.7 320.3 226.45 334.75 225.4
L 335.1 221.05
M 439.95 221.75
Q 440.7 218.9 441.65 216.45 431.45 216.15 426.8 216.15 400.85 216.15 380.85 217.3 363.05 218.25 341.5 220.5 339.55 220.7 337.4 220.95
L 337.1 225.25
Q 338.05 225.1 338.95 225.05
L 346.4 224.55
Q 356.8 223.8 367.95 223.1 386.25 221.9 406.4 220.85 412.1 220.6 421.6 220.15 421.5 220.65 421.45 221.35 421.35 221.7 421.3 222.1 421.15 222.9 421 223.7 411.95 224.15 406.4 224.5 386.25 225.55 367.95 226.7 357.3 227.35 347.45 228.05
L 339.8 228.6
Q 338.4 228.7 337.05 228.8
L 337 228.8 333.85 282.6
Q 337.1 282.55 340.55 282.45 341.3 279.45 343.25 276.3 343.95 275.15 344.8 274.1 349.15 268.1 356.6 262.75 363.9 257.65 372 254.6 380.35 251.4 387.2 251.4 398.4 251.4 402.5 260 405 265.2 405.3 275.4 405.3 276.6 405.3 277.8 405.3 279.25 405.1 280.7 408.3 280.65 411.6 280.5 412.85 280.5 414.2 280.45 418.45 280.3 422.75 280.25 424.65 280.15 426.7 280.1 428.1 280.05 429.55 279.95 432.6 279.9 435.95 279.8 437.15 277.95 438.85 274.95 441.65 269.7 443.4 266.45 444.9 263.9 442.95 262.2 440.6 260.45 430.25 263.4 429.8 263.4 429.15 263.55 429.7 261.7 430.3 260.05 435 246.2 437.6 232.6 437.6 232.5 437.6 232.4 437.6 229.45 439.95 221.75
M 436.1 219.4
Q 436.05 220.1 435.95 220.85 435.85 221.85 435.75 223.1 431.45 223.25 427.65 223.35
L 427.65 219.8
Q 431.65 219.6 436.1 219.4
M 451.2 216.75
Q 450.35 216.75 449.5 216.75 446.05 216.6 442.95 216.5 442.9 216.95 442.7 217.3 441.75 219.3 440.25 225.6 438.85 231.35 438.85 232.5 443.15 232.15 448.15 231.75 448.95 228.1 449.8 223.95 449.95 223.15 450 222.4 450.2 221.5 450.45 220.6 450.65 219.65 450.8 218.75 450.9 217.65 451.2 216.75 Z"/>

<path fill="url(#Gradient_6)" stroke="none" d="
M 99.05 275.7
Q 99.2 277.25 99.4 278.9 99.55 280.45 99.75 281.9
L 111.5 281.9
Q 113.1 277.7 112.1 274.3 111.95 274.25 111.9 274.15 111.05 273.6 110 273.6 108.7 273.6 106.05 275.05 103.35 276.55 101.5 276.55 100.7 276.55 100.45 276.45 99.8 276.25 99.05 275.7 Z"/>

<path fill="#C00000" stroke="none" d="
M 121.35 265.2
Q 120.65 267.25 120.65 270.1 120.65 273.6 122.5 279.1 123.15 280.85 123.7 282.35 123.85 282.35 124 282.35 124.7 282.35 125.4 282.4 125.25 282.05 125.1 281.7 123.65 277.35 123.65 273.1 123.65 272.9 123.65 272.75 123.7 269.85 124.7 267.95 125.15 266.8 126 266.05 127.2 264.95 129.3 263.9 132.35 262.4 137.4 261.15 137.95 260.95 138.65 260.8 141.3 260.25 146.55 259.35 154.1 258 159.2 257.6 159.25 257.6 159.4 257.6 162.45 256.95 165.55 257.2 167.2 257.1 169.25 256.95 178.1 256.5 180.8 256.5 182.8 256.5 184.6 256.55 185.9 256.6 187 256.75 192.1 257.2 195.3 258.45 196.4 258.85 197.35 259.4 199.15 260.45 200.35 262.05 202.15 264.6 202.35 268.5
L 202.35 268.65
Q 202.35 269 202.35 269.35 202.35 269.4 202.3 269.9 201.95 271.65 200.4 279 200 281 199.7 282.6 199.55 282.95 199.5 283.4
L 200.25 283.4
Q 201.05 281 201.85 279 201.85 278.75 201.95 278.65 202.7 276.25 203.35 274.25 204.9 268.5 204.9 265.15 204.9 261.65 203.4 259.5 203.25 259.3 203.15 259.15 201.6 257.2 198.45 256.15 192.7 254.2 175.45 254.2 174.35 254.2 173.3 254.2 165.9 254.25 158.2 254.75 155.75 254.8 153.4 255 140.8 255.9 134.05 257.4 131.4 257.95 129.3 258.7 124.9 260.25 122.95 262.4 121.9 263.55 121.35 265.2
M 325.5 221.6
Q 330.75 221.4 335.1 221.05
L 335.6 213.15
Q 311.95 214.1 290.85 215.25 261.8 216.95 235.4 219.2 227.7 219.8 220.25 220.6
L 221.2 226.35
Q 222.5 226.25 223.75 225.95 235.2 224 240.15 223.35 248.8 222.25 255.75 222.25 258.6 222.25 263.4 223.6 268.1 224.85 269.3 224.85 271.1 224.85 277.2 222.95 283.2 221.15 285.7 221.15 288 221.15 289.7 223.35 290.6 224.55 291 224.9 291.8 225.45 292.85 225.45 292.9 225.45 296.05 224.05 299.7 222.6 301.15 222.6 303.45 222.6 306.95 222.45 307.35 222.45 312.3 222.25 322.1 221.85 325.5 221.6
M 444.5 210.3
Q 442.35 210.3 440.25 210.4 396.5 211.2 381.85 211.65 361.5 212.2 342.7 212.9 336.5 192.75 326.7 159.8 318.4 131.5 309.6 101.2 309.25 100.05 308.95 98.95 308.85 98.4 308.7 97.9 308.55 97.7 308.55 97.5 308.05 95.9 307.65 94.25 304.65 94.4 301.75 94.55 301.65 94.55 301.55 94.55 292.7 94.95 283.9 95.6 239.2 98.55 204.75 104 201.1 104.45 197.6 105.1 196.75 107.25 195.85 109.7 194.45 113.4 192.85 117.8 192.25 119.55 191.55 121.4 182.65 145.6 177.2 162.25 164.35 201.5 160.95 227.5 144.4 229.8 129.35 232.5 124.55 236.55 118.45 241.9 124.7 240.55 140.25 237.25 156.45 234.05 167.9 232.45 176.85 231.1 182.95 230.85 194.7 230.3 210.1 228.2 214.65 227.5 219.6 226.7
L 218.5 220.7
Q 218.45 220.25 218.3 219.75 215.65 206.4 213 193.05 210.35 179.2 208.5 165.25 207.05 154.35 206.55 143.4 206.2 136.55 206.95 129.7 208.3 116.9 223.9 112.45 240.1 107.6 257.05 104.95 265.65 103.4 274.25 102.5 288.7 101.05 303.25 99.6
L 303.3 99.6 303.95 101.9
Q 314.85 135.05 324.95 169.1 332.65 194.95 338.15 213.05 337.95 213.05 337.8 213.1
L 337.4 220.95
Q 339.55 220.7 341.5 220.5 363.05 218.25 380.85 217.3 400.85 216.15 426.8 216.15 431.45 216.15 441.65 216.45 442.95 212.9 444.5 210.3
M 451.2 216.75
Q 451.9 213.15 452.55 210.1 449.3 210.25 446.25 210.25 445.95 210.75 445.75 211.2 444.3 213.85 442.95 216.5 446.05 216.6 449.5 216.75 450.35 216.75 451.2 216.75 Z"/>

<path fill="url(#Gradient_7)" stroke="none" d="
M 105.55 267.05
Q 105.4 266.95 105.1 266.9 101.05 264.75 100.35 264.75 99.55 264.75 98.95 266.2 98.55 267.3 98.55 268.1 98.55 271.35 99.05 275.7 99.8 276.25 100.45 276.45 100.7 276.55 101.5 276.55 103.35 276.55 106.05 275.05 108.7 273.6 110 273.6 111.05 273.6 111.9 274.15 111.95 274.25 112.1 274.3 110.85 270.05 105.55 267.05 Z"/>

<path fill="#CC0000" stroke="none" d="
M 114.7 245.3
Q 110.1 243.15 107.5 241.95 106.05 244.9 104.2 247.95 103 249.85 102.05 251.6 103.15 252.55 104.65 253.9 107.7 251.25 111.7 247.9 113.1 246.65 114.7 245.3 Z"/>

<path fill="url(#Gradient_8)" stroke="none" d="
M 355.5 276.2
Q 351.65 285.2 354.75 293.5 357.85 302.05 366.6 304.75 375.2 307.5 384.4 302.75 393.5 298 397.7 288.4 400.7 281.7 400 275.5 399.7 272.9 398.8 270.4 395.6 261.7 386.95 259.05 378.25 256.35 369.2 261.15 360.05 265.85 355.75 275.4 355.65 275.75 355.5 276.2
M 369.2 275.95
Q 370.8 273.8 373.3 272.5 377.45 270.4 381.35 271.55 384.75 272.7 386.25 275.7 386.5 276.2 386.65 276.75 387.2 278.35 387.3 280.05 387.3 282.35 386.25 284.85 384.35 289.2 380.2 291.25 376.05 293.5 372.1 292.25 368.3 291 366.75 287.1 365.7 284.2 366.6 281.05 366.9 280.05 367.35 279 368 277.3 369.2 275.95 Z"/>

<path fill="url(#Gradient_9)" stroke="none" d="
M 369.45 283.75
Q 368.4 282.9 367.7 282 367.25 284.3 368 286.45 369.4 289.8 372.7 290.9 376.1 292.05 379.75 290.1 383.35 288.2 384.95 284.5 385.9 282.6 385.95 280.7 385.1 281.3 384.3 281.85 378.6 285.55 375.6 285.55 372 285.55 369.45 283.75 Z"/>

<path fill="url(#Gradient_10)" stroke="none" d="
M 370.1 276.75
Q 369.1 277.95 368.65 279.4 367.95 280.7 367.7 282 368.4 282.9 369.45 283.75 372 285.55 375.6 285.55 378.6 285.55 384.3 281.85 385.1 281.3 385.95 280.7 385.95 279 385.3 277.45 385.25 276.95 384.95 276.55 383.7 273.9 380.7 272.95 377.35 271.9 373.75 273.75 371.55 274.85 370.1 276.75 Z"/>

<path fill="#FF9900" stroke="none" d="
M 435.95 220.85
Q 436.05 220.1 436.1 219.4 431.65 219.6 427.65 219.8
L 427.65 223.35
Q 431.45 223.25 435.75 223.1 435.85 221.85 435.95 220.85 Z"/>
</g>

<g id="Layer2_0_FILL">
<path fill="url(#Gradient_6)" stroke="none" d="
M 442.35 268.5
Q 437.65 268.55 432 271.2 426.25 273.95 424.05 273.95 422 273.95 421.3 273.4 420.9 272.95 419.85 271.2 419.75 271.5 419.75 271.8 419.7 271.85 419.7 272 419.15 279.7 426.7 280.1 428.1 280.05 429.55 279.95 432.6 279.9 435.95 279.8 437.15 277.95 438.85 274.95 440.8 271.2 442.35 268.5 Z"/>

<path fill="url(#Gradient_7)" stroke="none" d="
M 442.95 262.2
Q 440.6 260.45 430.25 263.4 429.8 263.4 429.15 263.55 420.8 266.55 419.85 271.1 419.85 271.15 419.85 271.2 420.9 272.95 421.3 273.4 422 273.95 424.05 273.95 426.25 273.95 432 271.2 437.65 268.55 442.35 268.5 442.9 267.4 443.4 266.45 444.55 264.5 443.75 263.1 443.45 262.65 442.95 262.2 Z"/>
</g>

<g id="Layer1_0_FILL">
<path fill="url(#Gradient_11)" stroke="none" d="
M 124.4 274.8
Q 124.4 275.95 125.75 280.85
L 130.5 280.95
Q 129.9 279.05 129.9 276.75 129.9 274.35 135.15 273.05 140.4 271.65 152.6 270.8 164.85 269.95 185.45 270.95 190.55 271.3 192.85 273.05 195.25 274.95 195.25 279.2 195.25 280.65 195.15 282
L 197.95 282.05
Q 198.45 280.25 199 278.3 200.75 271.8 200.75 269.85 200.75 262.4 195.05 259.9 191.1 258.15 181 258 157.1 257.75 143.8 260.4 124.4 264.4 124.4 274.8
M 145.1 238.6
Q 126.85 242.45 121.6 243.3 119.25 245.15 113.65 249.85 107.35 255 103.35 257.9 104.3 260.2 105.25 262.75 105.75 264.1 106.15 265.3 109.8 267.25 111.55 269.5 114.35 272.95 114.35 279.2 114.35 279.55 114.2 280.7 116.85 280.65 120.15 280.6 119.5 279.25 119 276.25 118.55 273.25 118.8 267.4 119 261.45 126.3 258.7 133.55 255.9 143.55 254.55 153.45 253.05 160.85 252.65 168.25 252.15 174.3 252.15 189.8 252.15 195.4 253.5 207.1 256.35 207.1 266.1 207.1 268.9 205.7 274.25 204.75 277.8 203.35 281.5 204.6 281.85 205.8 281.9 206.35 281.9 209.3 281.9 209.85 281.9 227.15 281.55 224.6 268.15 222.5 255.1 221.3 247.05 220.25 240.15 207.6 240.55 176.15 243.2 137.2 246.5 128.85 247.2
L 128.95 247.1
Q 129.55 246.3 130.05 245.6 130.85 244.55 131.6 243.7 149.15 240.05 177.55 237 192.65 235.3 219.2 233.2 218.8 230.5 218.35 228 212.15 229.45 199.55 230.65 183.65 231.95 176.8 232.75 167.1 234 145.1 238.6
M 331.1 241.1
Q 331.8 234.95 332.35 229.95 312.2 232.6 296.05 234.4 261.05 238.55 247 238.55 244.5 238.55 234 239.3 229.25 239.65 226.45 239.85 228.05 247.6 230.6 259.7 233.3 272.75 235.5 281.35 242.1 281.55 253.8 281.7 272.8 281.7 298.2 280.85 304.15 280.65 328.4 279.8 328.6 277.15 328.9 273.95 330.2 258.25 330.2 255.45 330.2 250.2 331.1 241.1
M 333 223.25
Q 333 223 333 222.9 331.2 223.1 328.05 223.5 320.7 224.4 317.9 224.4
L 311.7 223.85
Q 306.15 223.6 305 223.6 300.7 223.6 297.85 225.35 295.05 227.05 293.65 227.05 291.2 227.05 288.9 224.85 286.6 222.55 285.15 222.55 283.75 222.55 279.35 224.4 275 226.25 269.35 226.25 267.7 226.25 262.3 224.9 256.9 223.6 253.15 223.6 249.25 223.6 239.4 225.25 228.75 227.05 223.95 227.85 224.3 229.5 224.95 232.65 254.35 232.1 333 223.25
M 422.3 222.9
Q 421.95 223.5 421.3 225.8 412.3 226.35 392.8 227.55 349.3 230.3 339.1 231 336.9 265.5 336.05 279.8 337.25 279.7 338.95 279.35 339.2 279.25 339.5 279.25 344.2 266.75 359.2 257.9 374.2 248.95 387.3 248.95 398.55 248.95 404.35 255.35 410.2 261.85 410.2 274.5 410.2 275.7 410.05 277.8 412.15 277.85 415.35 278 416.15 278 416.85 278 415.85 276.3 415.85 273.9 415.85 269.25 420.65 265.3 423.6 262.9 427.65 261.5 429.45 255 434.55 238.1 436.6 231.45 438.2 224.5 430.3 225.45 428.85 225.45 428.3 225.45 426 225.6 425.85 223.6 425.85 221.9 425.4 221.75 425.05 221.75 422.85 221.75 422.3 222.9 Z"/>

<path fill="#F0F0F0" fill-opacity="0.807843137254902" stroke="none" d="
M 158.3 255.6
Q 155.9 255.65 153.55 255.85 141.15 256.75 134.45 258.25 126.3 260.05 123.5 263.25 122.8 264.05 122 265.7 121.4 267.1 122.3 267.8 123.2 268.45 124 267.4 124.9 265.85 125.5 265.2 128.45 262.4 137.05 260.35 137.6 260.1 138.3 260 141.05 259.4 146.35 258.5 153.95 257.2 159.1 256.75 159.25 256.75 159.4 256.75 162.45 256.15 165.6 256.35 167.3 256.25 169.3 256.15 178.35 255.65 181.05 255.65 183.1 255.65 184.95 255.7 186.2 255.8 187.35 255.9 192.5 256.35 195.8 257.6 196.9 258 197.8 258.6 198.65 259.05 200.95 261.35 201.85 262.3 202.5 261.45 203.2 260.7 202.5 259.75 201.25 258.1 198.05 256.95 192.35 255 175.35 255 174.2 255 173.15 255 165.9 255.1 158.3 255.6 Z"/>

<path fill="#F0F0F0" fill-opacity="0.9568627450980393" stroke="none" d="
M 130.75 234.25
L 124.9 238.65
Q 149.15 232.3 181.2 229.15 186.45 228.6 193.15 228.25 199.15 227.85 202.2 227.5 202.45 227.5 206.75 226.8 209.7 226.35 211.25 226.3 212.55 226.25 215.5 226 216.6 225.9 217.45 225.7
L 216.6 221.85 130.75 234.25
M 333.3 219.2
Q 333.35 218.4 333.4 217.5 333.55 215.95 333.7 214.7 278.1 216.8 222.5 221.55 222.7 223 222.95 224.65 233.15 222.6 238.7 221.85 248.05 220.45 256.55 220.45 259.25 220.45 263 221.55 266.75 222.6 268.05 222.6 272.15 222.6 278.65 220.85 285.2 219.1 286.45 219.1 288.85 219.1 290.75 221 292.6 222.9 293.8 222.9 294.65 222.9 297.7 221.6 300.8 220.3 304.7 220.3
L 314.85 220.65
Q 315.55 220.65 323.85 219.9 330.25 219.3 333.3 219.2
M 440.1 214.85
Q 440.7 214.85 441.5 214.85 441.55 214.55 441.7 214.3 442.25 212.95 442.75 211.85 441.65 211.85 440.6 211.85 391.45 211.85 340.05 214.7 339.8 214.7 339.5 214.7 339.45 216.5 339.35 218.95 339.55 218.95 339.8 218.95 366.9 216.1 393.45 215.2 417.4 214 440.1 214.85
M 450 215.55
L 450.85 212
Q 448.2 212 446.85 212.05 446.4 212.95 445.8 214.1 445.55 214.7 445.25 215.2 448.2 215.4 450 215.55 Z"/>

<path fill="#FFFFFF" stroke="none" d="
M 132.2 245.4
Q 146.8 243.75 158.3 242.7 163.4 241.9 166.65 241.45 176.1 240.2 195.1 238.75 205.95 237.85 212.15 237.4 216.75 237.05 218.8 237
L 221.35 236.8 221 234.85 218.8 235.05
Q 216.75 235.1 212.15 235.45 205.95 235.9 195.1 236.8 176.1 238.25 166.65 239.5 157.3 240.75 133.35 244.6 132.85 245.05 132.2 245.4
M 334.7 227.35
L 334.75 225.4
Q 333.75 225.45 332.8 225.55 319.4 226.5 307.3 227.7 292.35 229.05 279.35 230.55 265.8 232.05 242.45 233.55 235.35 234 227.3 234.55
L 224.15 234.7
Q 223.9 234.7 223.6 234.7 223.25 234.75 222.85 234.75
L 222.5 234.75 222.95 236.7
Q 223.3 236.7 223.6 236.65 223.9 236.65 224.15 236.65
L 227.3 236.5
Q 235.35 235.95 242.45 235.55 265.8 234 279.35 232.5 292.35 231 307.3 229.65 319.3 228.45 332.6 227.5 333.65 227.4 334.7 227.35
M 421.45 221.35
Q 421.5 220.65 421.6 220.15 412.1 220.6 406.4 220.85 386.25 221.9 367.95 223.1 356.8 223.8 346.4 224.55
L 338.95 225.05
Q 338.05 225.1 337.1 225.25
L 337.1 227.2
Q 338.05 227.05 338.95 227
L 346.4 226.5
Q 356.8 225.75 367.95 225.05 386.25 223.85 406.4 222.8 412 222.55 421.3 222.1 421.35 221.7 421.45 221.35 Z"/>

<path fill="url(#Gradient_12)" stroke="none" d="
M 302.6 97.95
Q 307.1 95.95 285.5 97.35 267.4 98.55 251.05 100.5 237.5 102 202.55 108.45 200.9 112.1 199.35 115.6 187.25 142.25 181.75 160.45 174.85 183.2 168.75 226 185.8 224 208.15 221.05 204.9 209.1 203.5 202.75 198.8 180.95 198.45 157.15 198.3 142.9 203.2 123 204.45 117.75 207.95 114.8 210.8 112.5 216.95 110.4 225.35 108.25 234.15 106.5 251.25 103.05 266 102 273.2 101.55 292.15 99.15
L 302.6 97.95 Z"/>

<path fill="url(#Gradient_13)" stroke="none" d="
M 448.9 220.25
Q 448.15 220.25 447.2 220.25 444.35 220.25 442.8 219.95 442.4 221.5 441.75 224.05 440.8 228.2 440.45 230.9 440.6 230.9 441.35 230.9 444.3 230.9 447 230.45 448.4 222.8 448.9 220.25 Z"/>
</g>

<g id="S_mbolo_2_0_Layer0_0_FILL">
<path fill="#FFFFFF" stroke="none" d="
M 293.05 49.35
Q 292.55 48.55 291.8 48.2 289.6 47.25 287.25 46.55 285.9 46.15 284.55 45.65 274.9 46.8 263.95 48.45 221.15 55 178.2 58.85 177.95 58.85 177.65 58.9 179.3 55.5 177.3 51.5 176 51.5 174.85 51.95 170.7 53.75 167 56.55 165.8 28.15 164.05 0 161.2 18 161.35 39.8 161.4 45.4 161.3 50.95 152.8 42.35 144.4 35.55 143.85 36.1 144 36.25 149.9 47.25 156 57.65 156.95 59.2 157.85 60.8 77.2 68.85 0 83.35 5.3 84.65 10.55 84.45 25.2 83.9 39.4 83.3 96 81 152.3 75.15 150 80.5 149.7 86 156.1 82.4 160.2 75.9 159.35 87.55 157.9 98.9 153.7 131.45 163.5 157.15 172.7 140.25 170.8 117.45 169.2 98.1 168.1 78.5 174.45 88.2 185.3 87.05 186.7 79.55 180.85 71.95 238.55 64.95 293.05 49.35 Z"/>
</g>

<g id="S_mbolo_1_0_Layer0_0_FILL">
<path fill="#FFFFFF" stroke="none" d="
M 43 149.3
Q 45.1 151.65 47.65 150.75 48.05 150.65 47.95 150.55 45.9 148.5 43.5 148.05 42.65 148.9 43 149.3
M 230.95 0
Q 222.2 36.75 215.6 81.9 212.25 104.85 208.3 127.45 207.85 126.2 207.45 125 200.8 105.7 192.7 90.1 186.15 105.8 195.7 127.35 196.55 129.3 197.4 131.35 168.25 128.15 139.05 124.25 74.05 115.55 9.55 107.65 9.55 108.15 9.5 108.15 7.4 108.75 5.3 109 4.25 109.2 3.15 109.7 2.1 110.3 1.05 110.9 0.5 111.25 0 111.85 3.25 118.4 9.4 120.05 85.75 141.5 164.3 152.4 183.4 155.05 202.5 158.05 198 180.5 192.85 202.65 177.85 267.1 183.7 324 193.15 286.6 199.75 241.05 204.35 209.45 209.15 178.25 214.1 199.8 225.6 198.75 228 181.2 221.4 163.8 220.85 162.25 220.25 160.8 257 166.55 293.75 173.3 347.55 183.15 399.25 171.8 329.6 142.75 256.05 136.8 236.1 135.25 216.15 133.3 217.05 127.65 217.95 122 227.75 61.05 230.95 0 Z"/>
</g>

<g id="S_mbolo_10_0_Layer0_0_FILL">
<path fill="#FFFFFF" stroke="none" d="
M 286.1 148.25
Q 286.1 86.85 244.2 43.4 202.3 0 143.05 0 83.8 0 41.9 43.4 0 86.85 0 148.25 0 209.65 41.9 253.05 83.8 296.5 143.05 296.5 202.3 296.5 244.2 253.05 286.1 209.65 286.1 148.25 Z"/>
</g>

<path id="Layer1_0_1_STROKES" stroke="#FFCC00" stroke-width="1" stroke-linejoin="round" stroke-linecap="round" fill="none" d="
M 125.4 282.4
Q 124.7 282.35 124 282.35 124.1 282.75 124.25 283.15
M 199.5 283.4
L 200.05 283.4
Q 199.9 283.8 199.8 284.2"/>
</defs>

<g transform="matrix( 1, 0, 0, 1, 0,0) ">
<use xlink:href="#Layer7_0_FILL"/>
</g>

<g transform="matrix( 1, 0, 0, 1, 0,0) ">
<use xlink:href="#Layer5_0_FILL"/>
</g>

<g transform="matrix( 1, 0, 0, 1, 0,0) ">
<use xlink:href="#Layer4_0_FILL"/>
</g>

<g transform="matrix( 1, 0, 0, 1, 0,0) ">
<use xlink:href="#Layer3_0_FILL"/>
</g>

<g transform="matrix( 1, 0, 0, 1, 0,0) ">
<use xlink:href="#Layer2_0_FILL"/>
</g>

<g transform="matrix( 1, 0, 0, 1, 0,0) ">
<use xlink:href="#Layer1_0_FILL"/>

<use xlink:href="#Layer1_0_1_STROKES"/>
</g>

<g filter="url(#Filter_1)" transform="matrix( 1, 0, 0, 1, 0,0) ">
<g transform="matrix( 0.0870513916015625, -0.0870513916015625, 0.12286376953125, 0.12286376953125, 418.8,218.35) ">
<g transform="matrix( 1, 0, 0, 1, 0,0) ">
<use xlink:href="#S_mbolo_2_0_Layer0_0_FILL"/>
</g>
</g>
</g>

<g filter="url(#Filter_2)" transform="matrix( 1, 0, 0, 1, 0,0) ">
<g transform="matrix( 0.1360321044921875, 0, 0, 0.1360321044921875, 175.35,87.4) ">
<g transform="matrix( 1, 0, 0, 1, 0,0) ">
<g transform="matrix( 1, 0, 0, 1, 0,0) ">
<use xlink:href="#S_mbolo_1_0_Layer0_0_FILL"/>
</g>
</g>
</g>
</g>

<g filter="url(#Filter_3)" transform="matrix( 1, 0, 0, 1, 0,0) ">
<g transform="matrix( 0.0808868408203125, 0, 0, 0.0808868408203125, 190.9,96.45) ">
<g transform="matrix( 1, 0, 0, 1, 0,0) ">
<use xlink:href="#S_mbolo_10_0_Layer0_0_FILL"/>
</g>
</g>
</g>

<g filter="url(#Filter_4)" transform="matrix( 1, 0, 0, 1, 0,0) ">
<g transform="matrix( 0.082611083984375, 0.082611083984375, -0.1288909912109375, 0.1288909912109375, 118.8,241.05) ">
<g transform="matrix( 1, 0, 0, 1, 0,0) ">
<use xlink:href="#S_mbolo_2_0_Layer0_0_FILL"/>
</g>
</g>
</g>
</svg>
