
<svg xmlns="http://www.w3.org/2000/svg" version="1.1" xmlns:xlink="http://www.w3.org/1999/xlink" preserveAspectRatio="none" x="0px" y="0px" width="550px" height="400px" viewBox="0 0 550 400">
<defs>
<radialGradient id="Gradient_1" gradientUnits="userSpaceOnUse" cx="0" cy="0" r="344.50000000000006" fx="0" fy="0" gradientTransform="matrix( 0.9999999999999999, 0, 0, 0.9999999999999999, 272.95,198.45) " spreadMethod="pad">
<stop  offset="0%" stop-color="#A5E4FA"/>

<stop  offset="98.43137254901961%" stop-color="#36D1F7"/>
</radialGradient>

<radialGradient id="Gradient_2" gradientUnits="userSpaceOnUse" cx="0" cy="0" r="207.84041090762406" fx="0" fy="0" gradientTransform="matrix( 0.9999859945060187, 0.005292522253956194, 0, 0.05665404503666744, 272.2,303.65) " spreadMethod="pad">
<stop  offset="61.1764705882353%" stop-color="#395656"/>

<stop  offset="100%" stop-color="#679A9A"/>
</radialGradient>

<linearGradient id="Gradient_3" gradientUnits="userSpaceOnUse" x1="282.20000000000005" y1="259.175" x2="281.5" y2="292.02500000000003" spreadMethod="pad">
<stop  offset="0%" stop-color="#663300"/>

<stop  offset="100%" stop-color="#331900"/>
</linearGradient>

<radialGradient id="Gradient_4" gradientUnits="userSpaceOnUse" cx="0" cy="0" r="24.24539260354431" fx="0" fy="0" gradientTransform="matrix( 0.7676716275272496, -0.6408434069955482, 0.5604157549510547, 0.6712615574482733, 159.45,281.55) " spreadMethod="pad">
<stop  offset="18.823529411764707%" stop-color="#747474"/>

<stop  offset="49.411764705882355%" stop-color="#747474"/>

<stop  offset="80.7843137254902%" stop-color="#424242"/>

<stop  offset="87.45098039215686%" stop-color="#2E2E2E"/>

<stop  offset="97.25490196078431%" stop-color="#1E1E1E"/>
</radialGradient>

<linearGradient id="Gradient_5" gradientUnits="userSpaceOnUse" x1="159.275" y1="273.7" x2="159.82500000000002" y2="278.90000000000003" spreadMethod="pad">
<stop  offset="0%" stop-color="#D9D9D9"/>

<stop  offset="96.86274509803921%" stop-color="#999999"/>
</linearGradient>

<linearGradient id="Gradient_6" gradientUnits="userSpaceOnUse" x1="432.475" y1="263.5375" x2="432.625" y2="274.1625" spreadMethod="pad">
<stop  offset="0%" stop-color="#D9D9D9"/>

<stop  offset="96.86274509803921%" stop-color="#999999"/>
</linearGradient>

<radialGradient id="Gradient_7" gradientUnits="userSpaceOnUse" cx="0" cy="0" r="21.50015261573741" fx="0" fy="0" gradientTransform="matrix( 0.8656915293883197, 0.500577842043884, -0.5988329585426255, 1.0366205486228168, 376.75,282.2) " spreadMethod="pad">
<stop  offset="18.823529411764707%" stop-color="#747474"/>

<stop  offset="49.411764705882355%" stop-color="#747474"/>

<stop  offset="80.7843137254902%" stop-color="#424242"/>

<stop  offset="87.45098039215686%" stop-color="#2E2E2E"/>

<stop  offset="97.25490196078431%" stop-color="#1E1E1E"/>
</radialGradient>

<linearGradient id="Gradient_8" gradientUnits="userSpaceOnUse" x1="377.6625" y1="270.1875" x2="377.0375" y2="286.11249999999995" spreadMethod="pad">
<stop  offset="0%" stop-color="#D9D9D9"/>

<stop  offset="96.86274509803921%" stop-color="#999999"/>
</linearGradient>

<g id="Layer7_0_FILL">
<path fill="url(#Gradient_1)" stroke="none" d="
M -5 -5
L -5 401.95 550.95 401.95 550.95 -5 -5 -5 Z"/>
</g>

<g id="Layer5_0_FILL">
<path fill="url(#Gradient_2)" stroke="none" d="
M 359.15 311.6
Q 372.1 311.45 384.75 311.45 422.65 310.9 457.15 310.35 455.6 309 453.15 307.6 450.35 306 446.3 304.4 442.25 302.65 436.95 300.9 432.75 299.6 426.6 297.75 392.3 295.9 362.85 295.4 316.5 294.4 196.7 296.5 131.5 297.7 108.35 297.65 103.3 299.3 99.1 301.05 93.5 303.35 89.1 307.5 88.15 308.4 87.25 309.35 88.15 309.35 89.1 309.45 160.6 311.1 199 311.9 203.05 312 207.6 312
L 224.45 312.25
Q 224.65 312.15 224.95 312.25 225.15 312.15 225.4 312.25 225.55 312.25 225.75 312.25 225.95 312.25 226.2 312.25 226.55 312.25 226.9 312.25 227.1 312.25 227.25 312.3 227.45 312.25 227.6 312.3 227.8 312.25 227.95 312.3
L 284.1 312
Q 316.85 312 359.15 311.6 Z"/>
</g>

<g id="Layer4_0_FILL">
<path fill="#000000" stroke="none" d="
M 324.4 279.45
Q 327.7 279.4 331.1 279.35 331.9 276.3 333.85 273.2 339.55 273.1 346.05 273.05 342.2 282.05 345.3 290.35 348.45 298.9 357.15 301.6 365.75 304.35 375 299.6 384.05 294.85 388.25 285.25 391.25 278.55 390.55 272.35 393.45 272.25 395.85 272.25 395.85 273.45 395.85 274.65 395.85 276.1 395.65 277.6 398.9 277.5 402.15 277.35
L 402.15 245.45 140 245.45 140 279.35
Q 141.45 279.4 142.9 279.4 142.2 276.25 142.05 274.95 144.15 275 148.3 275.2 148.15 275.65 148.1 276.1 146.35 282.95 148.65 289.4 151.8 298 160.5 300.65 169.2 303.35 178.25 298.55 187.4 293.85 191.6 284.35 193.55 280.1 194 275.95 194.9 275.95 195.85 275.95 200.35 275.9 204.4 275.9 204.4 276.65 204.4 277.45 204.4 278.2 203.95 280.4
L 220.2 279.95
Q 218.55 280.1 217.5 280.15 218.85 280.15 220.2 280.15
L 220.75 280.15
Q 230.6 280.4 240.3 280.5 241.5 280.5 242.65 280.5 251.4 280.6 260.05 280.6 280.6 280.6 307.3 280.15
L 307.3 279.9
Q 314.35 279.7 321.75 279.55 323.1 279.45 324.4 279.45 Z"/>
</g>

<g id="Layer3_0_FILL">
<path fill="url(#Gradient_3)" stroke="none" d="
M 280.65 97.6
Q 281.35 98 281.85 98 283 98 285.35 95.55 286.2 96.95 287.25 97.95 288.15 98.8 288.65 98.8 289.75 98.8 291.8 97.8 293.9 96.75 296 96.75 296 96.35 296.25 95.75 296.4294921875 95.2115234375 296.45 94.8 290.155859375 95.137890625 283.9 95.6 239.2 98.55 204.75 104 201.1 104.45 197.6 105.1 196.75 107.25 195.85 109.7 194.45 113.4 192.85 117.8 192.25 119.55 191.55 121.4 182.65 145.6 177.2 162.25 166.4685546875 195.0287109375 162.3 218.55 163.15 219.184375 163.15 219.55 163.15 220.05 162.75 220.5 162.35 220.9 162.35 221.4 162.35 222.75 163.6 223.85 165 225.1 167.25 225.1 169.65 225.1 170 225 170.9 224.7 171.35 223.05 171.3 223 170.3 222.5 170.15 222.4 170.15 222 170.15 221.25 171.6 220 173 218.75 173 217.5 173 215.15 171.9 214.3 169.1 212.2 168.9 211.95 172 211.8 173.35 211.1 175.05 210.15 175.05 207.85 175.05 205.9 173.45 204.75 171.8 203.6 171.8 202.75 171.8 201.3 172.6 201.3 170.7 200.8 170.35 200 170.15 199.55 170.15 197 170.15 194.45 170.35 193.9 170.8 192.75 173 191.45 173 193.95 174 196.1 175.3 198.85 177.5 198.85 180 198.85 182.85 196 185.7 193.15 185.7 190.65 185.7 188.75 184.3 186.75 182.85 184.7 182.85 183.85 182.85 182 185.75 179.6 188.6 177.2 188.6 175.05 188.6 172.25 184.5 169.55 180.4 166.8 180.4 163.8 180.4 163.15 180.65 162.85 180.8 162.65 181.2 162.35
L 183.8 162.35
Q 183.65 162.057421875 183.65 161.55 183.65 158.8 191.65 156 199.65 153.15 199.65 150.85 199.65 150.1 197.45 146.35 194.55 141.45 194.35 141.05 194.75 141.05 194.75 140.65 196.25 140.2 197.95 140.1 198.85 139.85 198.85 137.95 198.85 134.15 196 133.55 194.4 133.25 194 132.95 193.1 132.4 193.1 130.75 193.1 128.95 194.25 128.5 194.85 128.25 196.8 128.4 200.5 128.65 200.5 125.25 200.5 124.55 199.6 123.85 198.4 122.9 198 122.2 198.45 122.2 198.45 121.75 197.4 121.8 197.3 121.65 197.2 121.5 197.2 120.3 197.2 118.55 199.65 116.6 202.3 114.45 202.55 113.55 199.25 112.75 199.25 110.9 199.25 109.65 202.55 107.85 205.65 106.2 207.05 106.2 207.55 106.2 207.95 106.6 208.3 107 208.7 107 208.2 106.05 209.85 105.05 211.3 104.15 212.15 104.15 213 104.15 214.2 104.75 215.45 105.35 215.65 105.35 215.8 104.2 216.55 103.45 216.95 103.05 217.7 102.5
L 219.35 102.5
Q 222.15 105.3 222.6 105.65 223.041796875 105.9935546875 223.05 105.35
L 223.05 105.35
Q 223.59453125 105.341015625 224.55 105.15 225.55 104.95 225.9 104.95 226.45 104.45 227.05 103.35 227.75 102.5 229.35 102.5 233.95 104.15 234.1 104.15 235.6 104.15 236.8 102.3 238 100.45 239.2 100.45 239.85 100.45 239.95 100.5 240.05 100.55 240.25 100.85 240.25 101.55 240.05 102.65 239.85 103.8 239.85 104.15 240.75 104.15 242.25 104.55 243.75 104.95 244.15 104.95 244.4 104.95 246 102.7 246 102.1 245.75 101.7 245.4 101.3 245.15 100.85 248.35 100.85 250.3 100.05 250.95 100.05 251.75 100.65 252.6 101.25 252.75 101.25 254.9 101.25 256.05 99.85 257.2 98.4 259.3 98.4 259.9 98.4 261.5 100.05 263.05 101.7 265.65 101.7 268.15 101.7 268.6 101.55 269.85 101.15 270.6 99.2 270.6 99.65 270.75 99.8 270.95 100.05 271.6 100.05 271.9 100.05 274.85 98.6 277.75 97.15 279.4 97.15 279.9 97.15 280.65 97.6
M 409.9 257.9
Q 409.05 257.85 407.9 256.9 406.8 256 406.5 255.05
L 405.75 255.8
Q 404.75 254.4 402.65 253 400.3 251.5 398.9 251.65 398.65 250.6 398.65 246.9 396.5 247.65 395.95 246.25 395.8 245.75 395.7 242.65 395.5 236.75 389.75 236.75 388 236.75 386.85 237.8 386.05 238.55 386.05 238.95
L 387.25 241.25
Q 388.4 243.7 388.4 244.4 388.4 246.6 385.4 246.4 382.5 246.25 382.65 248.5 377.3 249.25 376.65 249.25 376.1 247.9 376.1 246 376.1 245.7 376.4 244.7 376.65 243.7 376.65 243.4 376.65 242.5 375.6 241.15 374.6 239.85 374 239.85 372.7 239.85 371.7 241.7 370.85 243.1 370.85 243.8 370.85 244.85 371.95 245.35 373 245.8 373 247.2 373 249.75 368.5 248.75 368.5 249.95 367.4 251.25 366.2 252.5 365.9 253 365.4 252.75 363.25 250.6
L 363.25 249.8
Q 362.5482421875 249.364453125 361.3 248.15 359.55 246.4 358.7 246.4 358.1 246.4 357.25 248.2 356.5 249.9 356.5 250.7 356.5 251.55 357.5 252 357.95 252.2 359.05 252.4
L 359.2 252.45
Q 359.35 252.6 359.35 253 359.35 253.75 358 255.05 356.75 256.35 356.2 256.35 356.1 256.35 355.5 255.8 354.85 255.2 354.6 254.75 354.15 255.1 353.4 256.9 352.7 258.65 352.75 259.25
L 352.75 259.5
Q 352.4 259.3 351.5 259.15 350.65 259 350.15 259 348.25 259 348.05 260.1 347.95 260.7 348.3 262.1 344.4 261.05 343.55 261.05 342.25 261.05 341.5 262.9 341.15 263.85 341 264.85 341 265.6 342.45 266.55 343.85 267.55 343.85 268.55 343.85 269.4 341.65 270.25 341.35 270.25 341.05 269.85 340.85 269.4 340.75 269.25 340.4 269.55 339.75 271.2 339.25 272.4 337.85 272.6
L 336.8 272.6
Q 337 271.8 336.95 271.3 336.95 270.3 336 269.75 335.65 270.2 335.6 271.25
L 335.5 272.6
Q 335.3 272.35 334.7 272.35 334.5791015625 272.35 334.45 272.4
L 333.85 282.6
Q 337.1 282.55 340.55 282.45 341.3 279.45 343.25 276.3 343.95 275.15 344.8 274.1 349.15 268.1 356.6 262.75 363.9 257.65 372 254.6 380.35 251.4 387.2 251.4 398.4 251.4 402.5 260 405 265.2 405.3 275.4 405.3 276.6 405.3 277.8 405.3 279.25 405.1 280.7 407.6755859375 280.659765625 410.3 280.55 410.4708984375 280.2484375 410.65 279.95 410.8 279.65 410.75 279.15 410.15 279.15 409.5 278.65 408.85 278.15 408.85 277.55 408.85 277.2 409.6 276.55 410 276.15 410.75 275.5 410.15 275.05 409.9 274.8 409.4 274.35 409.4 273.65 409.4 273.6 411.9 271 414.4 268.45 414.4 264.6 414.4 262.3 413.85 261.6 413.4 261.05 412.15 261.05 411.3 261.05 410.6 262.1 409.9 263.15 409.15 263.15 407.8 263.15 407.8 261.45 407.8 260.6 408.65 259.55 409.75 258.25 409.9 257.9
M 328.65 269.5
Q 327.4 270.35 326.3 271.25 324.1 273.05 324.75 274.5 324.55 274.25 324.5 274.2 324.4 274.15 323.95 274.15 323.35 274.15 322 275.35 320.65 276.55 320.15 276.55 318.4 276.55 317 274.4 315.5 272.1 316.6 270.25 316.5 270.25 316.15 270.5 315.8 270.75 315.45 270.75 315.1 270.05 314.4 269 313 266.95 310.55 265.5 310.55 262.05 310.45 261.35 310 258.75 308.25 258.75 307.65 258.75 306.9 259.5 307.85 257.65 306.6 255.35 305.2 252.75 302.05 252.75 299.7 252.75 297.7 254.55 295.9 256.15 295.9 257.8 295.9 258.15 296.15 259.25 296.4 260.35 296.4 260.65 296.4 265 293 265 292.65 265 290.6 263.95 288.6 262.9 288.55 262.9 288.05 262.9 284.55 268.55 282.8 271.35 281.1 274.15 280.8 274.15 279.85 273.9 278.95 273.65 278.6 273.65 277.15 273.65 276.15 274.65 275.35 275.8 274.9 276 274.85 274.15 272.45 272.5 270.35 271.05 268.8 271.05 267.65 271.05 266.95 274.7 266.25 278.35 265.25 278.35 264.7 278.35 263.1 277.3
L 263.15 277.45
Q 263.2 277.6 263.4 277.6 263.75 278.95 261.5 279.2 257.2 279.65 256.85 279.75
L 255.5 279.75 254.9 276.65
Q 254.6 275 253.3 275 251.2 275 250.9 277.75 250.6 280.5 247.4 280.5 245.85 280.5 244.75 280 245.55 278.5 245.55 278.1 245.55 277.7 244.5 276.6 243.5 275.5 243.25 275.5 242.628125 275.5 242.45 275.75 242.5873046875 275.887109375 242.65 276
L 242.4 276
Q 242.4 275.8658203125 242.45 275.75 242.0861328125 275.4119140625 241.15 275 239.95 274.5 239.15 274.5 238 274.5 238 275.5 238 276.8 239.05 277.5 240.05 278.25 240.05 279.05 240.05 279.5 239.25 280 238.5 280.5 237.7 280.5 235.7 280.5 235.35 279.75 235.35 278.8 235.35 278.4 235.35 277.85 234.6 277.1 233.75 276.25 233.1 276.25 232.3 276.25 231.25 277.7 231.0892578125 277.914453125 230.95 278.1
L 232 283.65
Q 240.7 283.75 249.4 283.75 282.4 283.75 331.2 282.7
L 332.25 265.9
Q 331.57265625 264.876171875 331.2 264.55 330.55 264 329.7 264 328.4 264 327.85 264.5 327.35 264.95 327.35 266.05 327.35 266.7 328 268.05 328.65 269.35 328.65 269.5
M 201.1 282.4
Q 200.8865234375 282.9525390625 200.7 283.35
L 209.5 283.1
Q 207.9 283.25 206.85 283.3 208.15 283.3 209.5 283.3
L 210.05 283.3
Q 210.7740234375 283.3146484375 211.5 283.3 211.5 283.2646484375 211.5 283.2 211.5 283.05 210.9 282.6 210.05 281.9 209.65 281.5
L 208.6 281.5
Q 208.3623046875 281.7376953125 208.35 282.4 208.6154296875 282.5888671875 208.85 282.8
L 208.35 282.5
Q 208.35 282.4630859375 208.35 282.4 207.4865234375 281.9 206.3 281.9 204.75 282 204.4 282 203.5 282 203.45 281.9 203.3 281.25 202.85 280.15 201.8 280.6 201.1 282.4
M 145.25 265.4
Q 144.35 265 143.55 265 139.95 265 140.2 267.55 140.45 270.6 137.55 271.5 137 269.45 136.85 269.3 136.7 269.15 135.05 269.15 133.1 269.15 132.8 269.35 132.05 269.8 131.55 272.3 131.4 271.5 131.05 271.35 130.85 271.25 130.1 271.25 129.4755859375 271.25 128.8 272.05 128.590625 271.8537109375 128.35 271.65 127 270.5 126.45 270.5 125.05 270.5 125 271.8 125 272.45 125.25 273.25 125.25 273.85 124.75 274.05 124.144921875 274.2013671875 123.65 274.35 123.8681640625 278.0044921875 125.1 281.7 125.25 282.05 125.4 282.4 125.8 282.4 126.3 282.4 127.75 282.45 129.3 282.45 129.3751953125 282.4552734375 129.45 282.45 130.8251953125 282.55 132.2 282.55 131.5 279.4 131.4 278.05 131.3 277.7 131.3 277.5 131.3 274.35 139.75 273.05 143.1 272.5 147.95 272.2 151.7 272 155.85 272 160.85 272 166.45 272.2 166.95 272.2 167.55 272.2 171.15 272.2 179.95 272.35 181.6 272.35 182.95 272.4 185.25 272.5 186.2 272.6 190.2 273.1 191.3 273.95 193.3 275.75 193.7 279.05 193.7 279.8 193.7 280.6 193.7 281.35 193.3 283.5
L 194.5 283.45
Q 194.5201171875 281.439453125 194.75 280.75 195.25 280.75 195.25 281
L 195.75 281
Q 195.95 279.6 196.55 277.8 197.05 276.45 197.05 274.55 197.05 272.55 196 270.75 194.8 268.6 192.9 268.6 192 268.6 190.65 270.2 189.35 271.75 188.7 271.75 188.4 271.75 186.05 266.9 183.75 262.05 181.3 262.05 180.15 262.05 179.75 262.95 179.45 263.5 179.15 264.95 178.3 267.85 174.25 267.85 172.95 267.85 172.5 267.55 172.25 267.4 170.85 266 171.65 265.05 171.65 264.75 171.65 264.05 168.1 261.85 164.75 259.75 164.45 259.75 163.35 259.75 162.45 260.75 161.65 261.7 161.65 262.6 161.65 263.5 161.7 263.6 161.8 263.7 162.5 263.9 162.15 264.3 161 265.65 159.8 266.8 158.65 266.8 158.3 266.8 157.25 266.35 156.25 265.95 155.65 266 155.2 266.45 155.65 267.85 154.8 268.1 154.2 268.1 151.15 268.1 150.5 266.15 149.8 264.15 148.7 264.15 147.7 264.15 147.1 264.85 146.5 265.45 146.5 266.25 146.15 265.8 145.25 265.4
M 108.5 265.8
Q 109.55 263.9 109.55 263.45 109.55 261.85 107.75 260.6 106.2 259.5 104.95 259.5 103.3685546875 259.5 102.6 259.95 103.27734375 261.5888671875 104.05 263.4 104.65 264.85 105.25 266.45 105.4 266.75 105.55 267.05 110.85 270.05 112.1 274.3 113.1 277.7 111.5 281.9 117.2 282.1 123.7 282.35 123.15 280.85 122.5 279.1 121.08984375 274.9078125 120.75 271.85 120.5201171875 271.8 120.3 271.8 119.9 271.8 119.3 272.6 119 273 118.75 273.4 118.75 274.5 119.25 275
L 119.25 276.8
Q 118.55 277.05 117.95 277.05 117.6 277.05 116.35 275.5 115.05 273.9 115.05 273.25 115.55 270.35 115.55 269.75 115.55 268.35 114.5 267.35 113.4 266.3 111.75 266.3 111.15 266.3 110.6 266.8 110.1 267.25 109.55 267.1 109.05 265.9 108.5 265.8 Z"/>

<path fill="#C00000" stroke="none" d="
M 426.8 216.15
Q 431.45 216.15 441.65 216.45 442.95 212.9 444.5 210.3 442.35 210.3 440.25 210.4 396.5 211.2 381.85 211.65 361.5 212.2 342.7 212.9 336.5 192.75 326.7 159.8 318.4 131.5 309.6 101.2 309.25 100.05 308.95 98.95 308.85 98.4 308.7 97.9 308.55 97.7 308.55 97.5 308.05 95.9 307.65 94.25 306.2330078125 94.3208984375 304.85 94.4 303.2802734375 94.4708984375 301.75 94.55 301.65 94.55 301.55 94.55 299.1673828125 94.6576171875 296.8 94.75 296.6240234375 94.7845703125 296.45 94.8 296.4294921875 95.2115234375 296.25 95.75 296 96.35 296 96.75 293.9 96.75 291.8 97.8 289.75 98.8 288.65 98.8 288.15 98.8 287.25 97.95 286.2 96.95 285.35 95.55 283 98 281.85 98 281.35 98 280.65 97.6 279.9 97.15 279.4 97.15 277.75 97.15 274.85 98.6 271.9 100.05 271.6 100.05 270.95 100.05 270.75 99.8 270.6 99.65 270.6 99.2 269.85 101.15 268.6 101.55 268.15 101.7 265.65 101.7 263.05 101.7 261.5 100.05 259.9 98.4 259.3 98.4 257.2 98.4 256.05 99.85 254.9 101.25 252.75 101.25 252.6 101.25 251.75 100.65 250.95 100.05 250.3 100.05 248.35 100.85 245.15 100.85 245.4 101.3 245.75 101.7 246 102.1 246 102.7 244.4 104.95 244.15 104.95 243.75 104.95 242.25 104.55 240.75 104.15 239.85 104.15 239.85 103.8 240.05 102.65 240.25 101.55 240.25 100.85 240.05 100.55 239.95 100.5 239.85 100.45 239.2 100.45 238 100.45 236.8 102.3 235.6 104.15 234.1 104.15 233.95 104.15 229.35 102.5 227.75 102.5 227.05 103.35 226.45 104.45 225.9 104.95 225.55 104.95 224.55 105.15 223.59453125 105.341015625 223.05 105.35
L 223.05 105.35
Q 223.041796875 105.9935546875 222.6 105.65 222.15 105.3 219.35 102.5
L 217.7 102.5
Q 216.95 103.05 216.55 103.45 215.8 104.2 215.65 105.35 215.45 105.35 214.2 104.75 213 104.15 212.15 104.15 211.3 104.15 209.85 105.05 208.2 106.05 208.7 107 208.3 107 207.95 106.6 207.55 106.2 207.05 106.2 205.65 106.2 202.55 107.85 199.25 109.65 199.25 110.9 199.25 112.75 202.55 113.55 202.3 114.45 199.65 116.6 197.2 118.55 197.2 120.3 197.2 121.5 197.3 121.65 197.4 121.8 198.45 121.75 198.45 122.2 198 122.2 198.4 122.9 199.6 123.85 200.5 124.55 200.5 125.25 200.5 128.65 196.8 128.4 194.85 128.25 194.25 128.5 193.1 128.95 193.1 130.75 193.1 132.4 194 132.95 194.4 133.25 196 133.55 198.85 134.15 198.85 137.95 198.85 139.85 197.95 140.1 196.25 140.2 194.75 140.65 194.75 141.05 194.35 141.05 194.55 141.45 197.45 146.35 199.65 150.1 199.65 150.85 199.65 153.15 191.65 156 183.65 158.8 183.65 161.55 183.65 162.057421875 183.8 162.35
L 181.2 162.35
Q 180.8 162.65 180.65 162.85 180.4 163.15 180.4 163.8 180.4 166.8 184.5 169.55 188.6 172.25 188.6 175.05 188.6 177.2 185.75 179.6 182.85 182 182.85 183.85 182.85 184.7 184.3 186.75 185.7 188.75 185.7 190.65 185.7 193.15 182.85 196 180 198.85 177.5 198.85 175.3 198.85 174 196.1 173 193.95 173 191.45 170.8 192.75 170.35 193.9 170.15 194.45 170.15 197 170.15 199.55 170.35 200 170.7 200.8 172.6 201.3 171.8 201.3 171.8 202.75 171.8 203.6 173.45 204.75 175.05 205.9 175.05 207.85 175.05 210.15 173.35 211.1 172 211.8 168.9 211.95 169.1 212.2 171.9 214.3 173 215.15 173 217.5 173 218.75 171.6 220 170.15 221.25 170.15 222 170.15 222.4 170.3 222.5 171.3 223 171.35 223.05 170.9 224.7 170 225 169.65 225.1 167.25 225.1 165 225.1 163.6 223.85 162.35 222.75 162.35 221.4 162.35 220.9 162.75 220.5 163.15 220.05 163.15 219.55 163.15 219.184375 162.3 218.55 161.510546875 223.21328125 160.95 227.5 144.4 229.8 129.35 232.5 124.55 236.55 118.45 241.9 124.7 240.55 140.25 237.25 156.45 234.05 167.9 232.45 176.85 231.1 182.95 230.85 194.7 230.3 210.1 228.2 214.65 227.5 219.6 226.7
L 218.5 220.7
Q 218.45 220.25 218.3 219.75 215.65 206.4 213 193.05 210.35 179.2 208.5 165.25 207.05 154.35 206.55 143.4 206.2 136.55 206.95 129.7 208.3 116.9 223.9 112.45 240.1 107.6 257.05 104.95 265.65 103.4 274.25 102.5 288.7 101.05 303.25 99.6
L 303.3 99.6 303.95 101.9
Q 314.85 135.05 324.95 169.1 332.65 194.95 338.15 213.05 337.95 213.05 337.8 213.1
L 337.4 220.95
Q 339.55 220.7 341.5 220.5 363.05 218.25 380.85 217.3 400.85 216.15 426.8 216.15
M 120.65 270.1
Q 120.65 270.9322265625 120.75 271.85 121.9048828125 272.2572265625 123.4 274.5 123.533984375 274.4390625 123.65 274.35 123.65 273.739453125 123.65 273.1 123.65 272.9 123.65 272.75 123.7 269.85 124.7 267.95 125.15 266.8 126 266.05 127.2 264.95 129.3 263.9 132.35 262.4 137.4 261.15 137.95 260.95 138.65 260.8 141.3 260.25 146.55 259.35 154.1 258 159.2 257.6 159.25 257.6 159.4 257.6 162.45 256.95 165.55 257.2 167.2 257.1 169.25 256.95 178.1 256.5 180.8 256.5 182.8 256.5 184.6 256.55 185.9 256.6 187 256.75 192.1 257.2 195.3 258.45 196.4 258.85 197.35 259.4 199.15 260.45 200.35 262.05 202.15 264.6 202.35 268.5
L 202.35 268.65
Q 202.35 269 202.35 269.35 202.35 269.4 202.3 269.9 201.95 271.65 200.4 279 200 281 199.7 282.6 199.55 282.95 199.5 283.4
L 200.25 283.4
Q 201.05 281 201.85 279 201.85 278.75 201.95 278.65 202.7 276.25 203.35 274.25 204.9 268.5 204.9 265.15 204.9 261.65 203.4 259.5 203.25 259.3 203.15 259.15 201.6 257.2 198.45 256.15 192.7 254.2 175.45 254.2 174.35 254.2 173.3 254.2 165.9 254.25 158.2 254.75 155.75 254.8 153.4 255 140.8 255.9 134.05 257.4 131.4 257.95 129.3 258.7 124.9 260.25 122.95 262.4 121.9 263.55 121.35 265.2 120.65 267.25 120.65 270.1
M 335.1 221.05
L 335.6 213.15
Q 311.95 214.1 290.85 215.25 261.8 216.95 235.4 219.2 227.7 219.8 220.25 220.6
L 221.2 226.35
Q 222.5 226.25 223.75 225.95 235.2 224 240.15 223.35 248.8 222.25 255.75 222.25 258.6 222.25 263.4 223.6 268.1 224.85 269.3 224.85 271.1 224.85 277.2 222.95 283.2 221.15 285.7 221.15 288 221.15 289.7 223.35 290.6 224.55 291 224.9 291.8 225.45 292.85 225.45 292.9 225.45 296.05 224.05 299.7 222.6 301.15 222.6 303.45 222.6 306.95 222.45 307.35 222.45 312.3 222.25 322.1 221.85 325.5 221.6 330.75 221.4 335.1 221.05
M 451.2 216.75
Q 451.9 213.15 452.55 210.1 449.3 210.25 446.25 210.25 445.95 210.75 445.75 211.2 444.3 213.85 442.95 216.5 446.05 216.6 449.5 216.75 450.35 216.75 451.2 216.75 Z"/>

<path fill="#660000" stroke="none" d="
M 337.4 220.95
L 337.8 213.1
Q 336.7 213.1 335.6 213.15
L 335.1 221.05 334.75 225.4 334.55 229.05 332.25 265.9 331.2 282.7
Q 332.5 282.6 333.85 282.6
L 334.45 272.4 337 228.8 337.1 225.25 337.4 220.95
M 206.95 129.7
Q 206.2 136.55 206.55 143.4 207.05 154.35 208.5 165.25 210.35 179.2 213 193.05 215.65 206.4 218.3 219.75 218.45 220.25 218.5 220.7
L 219.6 226.7 221 234.85 221.65 238.55 229.6 283.65
Q 230.8 283.65 232 283.65
L 230.95 278.1 223.45 238.3
Q 223.3 238.4 223.2 238.4 222.95 237.5 222.85 236.7 222.6 235.65 222.5 234.75 222.7 234.75 222.85 234.75
L 221.2 226.35 220.25 220.6
Q 227.7 219.8 235.4 219.2 233.45 208.7 231.4 198.35 228.75 183.75 226.95 169.1 225.55 157.55 225.05 146.05 224.7 138.75 225.5 131.65 226.8 118.25 242.4 113.4 258.6 108.45 275.55 105.5 284.15 104.05 292.75 103 298.4 102.45 303.95 101.9
L 303.3 99.6 303.25 99.6
Q 288.7 101.05 274.25 102.5 265.65 103.4 257.05 104.95 240.1 107.6 223.9 112.45 208.3 116.9 206.95 129.7
M 182.95 272.4
Q 183.444921875 274.825 183.45 277.25
L 183.45 277.3
Q 183.352734375 278.1751953125 183.3 279.05
L 183.3 279.1
Q 184.2 279.1 185.2 279.1 189.65 279.05 193.7 279.05 193.3 275.75 191.3 273.95 190.2 273.1 186.2 272.6 185.25 272.5 182.95 272.4
M 137.6 278.35
Q 138.15 276.4 139.05 274.45 139.35 273.75 139.75 273.05 131.3 274.35 131.3 277.5 131.3 277.7 131.4 278.05 133.5 278.15 137.6 278.35
M 355.5 276.2
Q 355.65 275.75 355.75 275.4 360.05 265.85 369.2 261.15 378.25 256.35 386.95 259.05 395.6 261.7 398.8 270.4 399.7 272.9 400 275.5 402.85 275.4 405.3 275.4 405 265.2 402.5 260 398.4 251.4 387.2 251.4 380.35 251.4 372 254.6 363.9 257.65 356.6 262.75 349.15 268.1 344.8 274.1 343.95 275.15 343.25 276.3 349 276.25 355.5 276.2
M 445.75 211.2
Q 445.95 210.75 446.25 210.25 445.4 210.25 444.5 210.3 442.95 212.9 441.65 216.45 440.7 218.9 439.95 221.75 437.6 229.45 437.6 232.4 437.6 232.5 437.6 232.6 438.2 232.6 438.85 232.5 438.85 231.35 440.25 225.6 441.75 219.3 442.7 217.3 442.9 216.95 442.95 216.5 444.3 213.85 445.75 211.2 Z"/>

<path fill="#990000" stroke="none" d="
M 441.65 216.45
Q 431.45 216.15 426.8 216.15 400.85 216.15 380.85 217.3 363.05 218.25 341.5 220.5 339.55 220.7 337.4 220.95
L 337.1 225.25
Q 338.05 225.1 338.95 225.05
L 346.4 224.55
Q 356.8 223.8 367.95 223.1 386.25 221.9 406.4 220.85 412.1 220.6 421.6 220.15 421.5 220.65 421.45 221.35 421.35 221.7 421.3 222.1 421.15 222.9 421 223.7 411.95 224.15 406.4 224.5 386.25 225.55 367.95 226.7 357.3 227.35 347.45 228.05
L 339.8 228.6
Q 338.4 228.7 337.05 228.8
L 337 228.8 334.45 272.4
Q 334.5791015625 272.35 334.7 272.35 335.3 272.35 335.5 272.6
L 335.6 271.25
Q 335.65 270.2 336 269.75 336.95 270.3 336.95 271.3 337 271.8 336.8 272.6
L 337.85 272.6
Q 339.25 272.4 339.75 271.2 340.4 269.55 340.75 269.25 340.85 269.4 341.05 269.85 341.35 270.25 341.65 270.25 343.85 269.4 343.85 268.55 343.85 267.55 342.45 266.55 341 265.6 341 264.85 341.15 263.85 341.5 262.9 342.25 261.05 343.55 261.05 344.4 261.05 348.3 262.1 347.95 260.7 348.05 260.1 348.25 259 350.15 259 350.65 259 351.5 259.15 352.4 259.3 352.75 259.5
L 352.75 259.25
Q 352.7 258.65 353.4 256.9 354.15 255.1 354.6 254.75 354.85 255.2 355.5 255.8 356.1 256.35 356.2 256.35 356.75 256.35 358 255.05 359.35 253.75 359.35 253 359.35 252.6 359.2 252.45
L 359.05 252.4
Q 357.95 252.2 357.5 252 356.5 251.55 356.5 250.7 356.5 249.9 357.25 248.2 358.1 246.4 358.7 246.4 359.55 246.4 361.3 248.15 362.5482421875 249.364453125 363.25 249.8
L 363.25 250.6
Q 365.4 252.75 365.9 253 366.2 252.5 367.4 251.25 368.5 249.95 368.5 248.75 373 249.75 373 247.2 373 245.8 371.95 245.35 370.85 244.85 370.85 243.8 370.85 243.1 371.7 241.7 372.7 239.85 374 239.85 374.6 239.85 375.6 241.15 376.65 242.5 376.65 243.4 376.65 243.7 376.4 244.7 376.1 245.7 376.1 246 376.1 247.9 376.65 249.25 377.3 249.25 382.65 248.5 382.5 246.25 385.4 246.4 388.4 246.6 388.4 244.4 388.4 243.7 387.25 241.25
L 386.05 238.95
Q 386.05 238.55 386.85 237.8 388 236.75 389.75 236.75 395.5 236.75 395.7 242.65 395.8 245.75 395.95 246.25 396.5 247.65 398.65 246.9 398.65 250.6 398.9 251.65 400.3 251.5 402.65 253 404.75 254.4 405.75 255.8
L 406.5 255.05
Q 406.8 256 407.9 256.9 409.05 257.85 409.9 257.9 409.75 258.25 408.65 259.55 407.8 260.6 407.8 261.45 407.8 263.15 409.15 263.15 409.9 263.15 410.6 262.1 411.3 261.05 412.15 261.05 413.4 261.05 413.85 261.6 414.4 262.3 414.4 264.6 414.4 268.45 411.9 271 409.4 273.6 409.4 273.65 409.4 274.35 409.9 274.8 410.15 275.05 410.75 275.5 410 276.15 409.6 276.55 408.85 277.2 408.85 277.55 408.85 278.15 409.5 278.65 410.15 279.15 410.75 279.15 410.8 279.65 410.65 279.95 410.4708984375 280.2484375 410.3 280.55 410.9560546875 280.529296875 411.6 280.5 412.85 280.5 414.2 280.45 418.45 280.3 422.75 280.25 424.65 280.15 426.7 280.1 428.1 280.05 429.55 279.95 432.6 279.9 435.95 279.8 437.15 277.95 438.85 274.95 441.65 269.7 443.4 266.45 444.9 263.9 442.95 262.2 440.6 260.45 430.25 263.4 429.8 263.4 429.15 263.55 429.7 261.7 430.3 260.05 435 246.2 437.6 232.6 437.6 232.5 437.6 232.4 437.6 229.45 439.95 221.75 440.7 218.9 441.65 216.45
M 436.1 219.4
Q 436.05 220.1 435.95 220.85 435.85 221.85 435.75 223.1 431.45 223.25 427.65 223.35
L 427.65 219.8
Q 431.65 219.6 436.1 219.4
M 158.3 242.7
Q 146.8 243.75 132.2 245.4 132.85 245.05 133.35 244.6 157.3 240.75 166.65 239.5 176.1 238.25 195.1 236.8 205.95 235.9 212.15 235.45 216.75 235.1 218.8 235.05
L 221 234.85 219.6 226.7
Q 214.65 227.5 210.1 228.2 194.7 230.3 182.95 230.85 176.85 231.1 167.9 232.45 156.45 234.05 140.25 237.25 124.7 240.55 118.45 241.9 117.5 242.8 116.5 243.65 116 244.05 115.4 244.55 114.95 244.9 114.7 245.3 113.1 246.65 111.7 247.9 107.7 251.25 104.65 253.9 102.9 255.5 101.3 256.75 101.89453125 258.2494140625 102.6 259.95 103.3685546875 259.5 104.95 259.5 106.2 259.5 107.75 260.6 109.55 261.85 109.55 263.45 109.55 263.9 108.5 265.8 109.05 265.9 109.55 267.1 110.1 267.25 110.6 266.8 111.15 266.3 111.75 266.3 113.4 266.3 114.5 267.35 115.55 268.35 115.55 269.75 115.55 270.35 115.05 273.25 115.05 273.9 116.35 275.5 117.6 277.05 117.95 277.05 118.55 277.05 119.25 276.8
L 119.25 275
Q 118.75 274.5 118.75 273.4 119 273 119.3 272.6 119.9 271.8 120.3 271.8 120.5201171875 271.8 120.75 271.85 120.65 270.9322265625 120.65 270.1 120.65 267.25 121.35 265.2 121.9 263.55 122.95 262.4 124.9 260.25 129.3 258.7 131.4 257.95 134.05 257.4 140.8 255.9 153.4 255 155.75 254.8 158.2 254.75 165.9 254.25 173.3 254.2 174.35 254.2 175.45 254.2 192.7 254.2 198.45 256.15 201.6 257.2 203.15 259.15 203.25 259.3 203.4 259.5 204.9 261.65 204.9 265.15 204.9 268.5 203.35 274.25 202.7 276.25 201.95 278.65 201.85 278.75 201.85 279 201.05 281 200.25 283.4
L 200.7 283.35
Q 200.8865234375 282.9525390625 201.1 282.4 201.8 280.6 202.85 280.15 203.3 281.25 203.45 281.9 203.5 282 204.4 282 204.75 282 206.3 281.9 207.4865234375 281.9 208.35 282.4 208.3623046875 281.7376953125 208.6 281.5
L 209.65 281.5
Q 210.05 281.9 210.9 282.6 211.5 283.05 211.5 283.2 211.5 283.2646484375 211.5 283.3 220.612890625 283.5109375 229.6 283.65
L 221.65 238.55 219.35 238.6
Q 216.1 238.75 213.1 238.95 211.5 239 210 239.15 191.4 240.2 182.25 240.75 175.4 241.2 173.85 241.3 167 241.8 158.3 242.7
M 326.3 271.25
Q 327.4 270.35 328.65 269.5 328.65 269.35 328 268.05 327.35 266.7 327.35 266.05 327.35 264.95 327.85 264.5 328.4 264 329.7 264 330.55 264 331.2 264.55 331.57265625 264.876171875 332.25 265.9
L 334.55 229.05
Q 320.2 230.15 307.3 231.25 300.65 231.9 294.35 232.5 286.55 233.3 279.35 234.15 275.15 234.6 270.15 235.1 265.15 235.55 259.25 236 255.2 236.2 250.75 236.65 246.8 236.9 242.45 237.2 233.75 237.75 223.6 238.3
L 223.45 238.3 230.95 278.1
Q 231.0892578125 277.914453125 231.25 277.7 232.3 276.25 233.1 276.25 233.75 276.25 234.6 277.1 235.35 277.85 235.35 278.4 235.35 278.8 235.35 279.75 235.7 280.5 237.7 280.5 238.5 280.5 239.25 280 240.05 279.5 240.05 279.05 240.05 278.25 239.05 277.5 238 276.8 238 275.5 238 274.5 239.15 274.5 239.95 274.5 241.15 275 242.0861328125 275.4119140625 242.45 275.75 242.628125 275.5 243.25 275.5 243.5 275.5 244.5 276.6 245.55 277.7 245.55 278.1 245.55 278.5 244.75 280 245.85 280.5 247.4 280.5 250.6 280.5 250.9 277.75 251.2 275 253.3 275 254.6 275 254.9 276.65
L 255.5 279.75 256.85 279.75
Q 257.2 279.65 261.5 279.2 263.75 278.95 263.4 277.6 263.2 277.6 263.15 277.45
L 263.1 277.3
Q 264.7 278.35 265.25 278.35 266.25 278.35 266.95 274.7 267.65 271.05 268.8 271.05 270.35 271.05 272.45 272.5 274.85 274.15 274.9 276 275.35 275.8 276.15 274.65 277.15 273.65 278.6 273.65 278.95 273.65 279.85 273.9 280.8 274.15 281.1 274.15 282.8 271.35 284.55 268.55 288.05 262.9 288.55 262.9 288.6 262.9 290.6 263.95 292.65 265 293 265 296.4 265 296.4 260.65 296.4 260.35 296.15 259.25 295.9 258.15 295.9 257.8 295.9 256.15 297.7 254.55 299.7 252.75 302.05 252.75 305.2 252.75 306.6 255.35 307.85 257.65 306.9 259.5 307.65 258.75 308.25 258.75 310 258.75 310.45 261.35 310.55 262.05 310.55 265.5 313 266.95 314.4 269 315.1 270.05 315.45 270.75 315.8 270.75 316.15 270.5 316.5 270.25 316.6 270.25 315.5 272.1 317 274.4 318.4 276.55 320.15 276.55 320.65 276.55 322 275.35 323.35 274.15 323.95 274.15 324.4 274.15 324.5 274.2 324.55 274.25 324.75 274.5 324.1 273.05 326.3 271.25
M 159.4 257.6
Q 159.25 257.6 159.2 257.6 154.1 258 146.55 259.35 141.3 260.25 138.65 260.8 137.95 260.95 137.4 261.15 132.35 262.4 129.3 263.9 127.2 264.95 126 266.05 125.15 266.8 124.7 267.95 123.7 269.85 123.65 272.75 123.65 272.9 123.65 273.1 123.65 273.739453125 123.65 274.35 124.144921875 274.2013671875 124.75 274.05 125.25 273.85 125.25 273.25 125 272.45 125 271.8 125.05 270.5 126.45 270.5 127 270.5 128.35 271.65 128.590625 271.8537109375 128.8 272.05 129.4755859375 271.25 130.1 271.25 130.85 271.25 131.05 271.35 131.4 271.5 131.55 272.3 132.05 269.8 132.8 269.35 133.1 269.15 135.05 269.15 136.7 269.15 136.85 269.3 137 269.45 137.55 271.5 140.45 270.6 140.2 267.55 139.95 265 143.55 265 144.35 265 145.25 265.4 146.15 265.8 146.5 266.25 146.5 265.45 147.1 264.85 147.7 264.15 148.7 264.15 149.8 264.15 150.5 266.15 151.15 268.1 154.2 268.1 154.8 268.1 155.65 267.85 155.2 266.45 155.65 266 156.25 265.95 157.25 266.35 158.3 266.8 158.65 266.8 159.8 266.8 161 265.65 162.15 264.3 162.5 263.9 161.8 263.7 161.7 263.6 161.65 263.5 161.65 262.6 161.65 261.7 162.45 260.75 163.35 259.75 164.45 259.75 164.75 259.75 168.1 261.85 171.65 264.05 171.65 264.75 171.65 265.05 170.85 266 172.25 267.4 172.5 267.55 172.95 267.85 174.25 267.85 178.3 267.85 179.15 264.95 179.45 263.5 179.75 262.95 180.15 262.05 181.3 262.05 183.75 262.05 186.05 266.9 188.4 271.75 188.7 271.75 189.35 271.75 190.65 270.2 192 268.6 192.9 268.6 194.8 268.6 196 270.75 197.05 272.55 197.05 274.55 197.05 276.45 196.55 277.8 195.95 279.6 195.75 281
L 195.25 281
Q 195.25 280.75 194.75 280.75 194.5201171875 281.439453125 194.5 283.45
L 199.5 283.4
Q 199.55 282.95 199.7 282.6 200 281 200.4 279 201.95 271.65 202.3 269.9 202.35 269.4 202.35 269.35 202.35 269 202.35 268.65
L 202.35 268.5
Q 202.15 264.6 200.35 262.05 199.15 260.45 197.35 259.4 196.4 258.85 195.3 258.45 192.1 257.2 187 256.75 185.9 256.6 184.6 256.55 182.8 256.5 180.8 256.5 178.1 256.5 169.25 256.95 167.2 257.1 165.55 257.2 162.45 256.95 159.4 257.6
M 208.85 282.8
Q 208.6154296875 282.5888671875 208.35 282.4 208.35 282.4630859375 208.35 282.5
L 208.85 282.8
M 242.65 276
Q 242.5873046875 275.887109375 242.45 275.75 242.4 275.8658203125 242.4 276
L 242.65 276
M 335.1 221.05
Q 330.75 221.4 325.5 221.6 322.1 221.85 312.3 222.25 307.35 222.45 306.95 222.45 303.45 222.6 301.15 222.6 299.7 222.6 296.05 224.05 292.9 225.45 292.85 225.45 291.8 225.45 291 224.9 290.6 224.55 289.7 223.35 288 221.15 285.7 221.15 283.2 221.15 277.2 222.95 271.1 224.85 269.3 224.85 268.1 224.85 263.4 223.6 258.6 222.25 255.75 222.25 248.8 222.25 240.15 223.35 235.2 224 223.75 225.95 222.5 226.25 221.2 226.35
L 222.85 234.75
Q 223.25 234.75 223.6 234.7 223.9 234.7 224.15 234.7
L 227.3 234.55
Q 235.35 234 242.45 233.55 265.8 232.05 279.35 230.55 292.35 229.05 307.3 227.7 320.3 226.45 334.75 225.4
L 335.1 221.05
M 451.2 216.75
Q 450.35 216.75 449.5 216.75 446.05 216.6 442.95 216.5 442.9 216.95 442.7 217.3 441.75 219.3 440.25 225.6 438.85 231.35 438.85 232.5 443.15 232.15 448.15 231.75 448.95 228.1 449.8 223.95 449.95 223.15 450 222.4 450.2 221.5 450.45 220.6 450.65 219.65 450.8 218.75 450.9 217.65 451.2 216.75 Z"/>

<path fill="#FF9900" stroke="none" d="
M 435.95 220.85
Q 436.05 220.1 436.1 219.4 431.65 219.6 427.65 219.8
L 427.65 223.35
Q 431.45 223.25 435.75 223.1 435.85 221.85 435.95 220.85 Z"/>

<path fill="#CCCCCC" stroke="none" d="
M 132.2 245.4
Q 146.8 243.75 158.3 242.7 167 241.8 173.85 241.3 175.4 241.2 182.25 240.75 191.4 240.2 210 239.15 211.5 239 213.1 238.95 216.1 238.75 219.35 238.6
L 221.65 238.55 221 234.85 218.8 235.05
Q 216.75 235.1 212.15 235.45 205.95 235.9 195.1 236.8 176.1 238.25 166.65 239.5 157.3 240.75 133.35 244.6 132.85 245.05 132.2 245.4
M 334.55 229.05
L 334.75 225.4
Q 320.3 226.45 307.3 227.7 292.35 229.05 279.35 230.55 265.8 232.05 242.45 233.55 235.35 234 227.3 234.55
L 224.15 234.7
Q 223.9 234.7 223.6 234.7 223.25 234.75 222.85 234.75 222.7 234.75 222.5 234.75 222.6 235.65 222.85 236.7 222.95 237.5 223.2 238.4 223.3 238.4 223.45 238.3
L 223.6 238.3
Q 233.75 237.75 242.45 237.2 246.8 236.9 250.75 236.65 255.2 236.2 259.25 236 265.15 235.55 270.15 235.1 275.15 234.6 279.35 234.15 286.55 233.3 294.35 232.5 300.65 231.9 307.3 231.25 320.2 230.15 334.55 229.05
M 421.45 221.35
Q 421.5 220.65 421.6 220.15 412.1 220.6 406.4 220.85 386.25 221.9 367.95 223.1 356.8 223.8 346.4 224.55
L 338.95 225.05
Q 338.05 225.1 337.1 225.25
L 337 228.8 337.05 228.8
Q 338.4 228.7 339.8 228.6
L 347.45 228.05
Q 357.3 227.35 367.95 226.7 386.25 225.55 406.4 224.5 411.95 224.15 421 223.7 421.15 222.9 421.3 222.1 421.35 221.7 421.45 221.35
M 151.3 276.55
Q 150.9 277.25 150.55 278 150.4 278.35 150.25 278.65 150.130078125 278.97578125 150 279.3 150 279.4125 149.95 279.5 149.3064453125 281.87734375 149.6 284.1 149.5734375 284.2771484375 149.55 284.45 149.615234375 284.9119140625 149.7 285.35 149.83203125 285.7048828125 150.05 286.05 151.55 289.95 155.6 291.2 159.14921875 292.2333984375 162.85 290.65 163.1541015625 290.505078125 163.45 290.35 167.55 288.2 169.45 283.85 170.1 282.55 170.35 281.2 170.391796875 281.024609375 170.4 280.85 170.6 279.9662109375 170.6 279.05
L 170.6 279
Q 170.5921875 277.42578125 170.1 275.9 169.25 275.9 168.4 275.85 168.55 276.2 168.7 276.55 169.2 277.95 169.2 279.4 169.2 279.75 169.2 280.15 169.05 281.9 168.2 283.6 166.6 287.35 163.05 289.25 159.35 291.15 156.05 290 152.6 289.05 151.3 285.6 150.9 284.35 150.8 282.95 150.8 281.05 151.5 279.05 151.65 278.85 151.8 278.5 152.25 277.3 153.05 276.3 152.15 276.4 151.3 276.55
M 373.3 272.5
Q 370.8 273.8 369.2 275.95 368 277.3 367.35 279 366.9 280.05 366.6 281.05 365.7 284.2 366.75 287.1 368.3 291 372.1 292.25 376.05 293.5 380.2 291.25 384.35 289.2 386.25 284.85 387.3 282.35 387.3 280.05 387.2 278.35 386.65 276.75 386.5 276.2 386.25 275.7 384.75 272.7 381.35 271.55 377.45 270.4 373.3 272.5
M 370.1 276.75
Q 371.55 274.85 373.75 273.75 377.35 271.9 380.7 272.95 383.7 273.9 384.95 276.55 385.25 276.95 385.3 277.45 385.95 279 385.95 280.7 385.9 282.6 384.95 284.5 383.35 288.2 379.75 290.1 376.1 292.05 372.7 290.9 369.4 289.8 368 286.45 367.25 284.3 367.7 282 367.95 280.7 368.65 279.4 369.1 277.95 370.1 276.75 Z"/>

<path fill="#993333" stroke="none" d="
M 123.65 274.35
Q 123.533984375 274.4390625 123.4 274.5 121.9048828125 272.2572265625 120.75 271.85 121.08984375 274.9078125 122.5 279.1 123.15 280.85 123.7 282.35 123.85 282.35 124 282.35 124.7 282.35 125.4 282.4 125.25 282.05 125.1 281.7 123.8681640625 278.0044921875 123.65 274.35 Z"/>

<path fill="#000000" stroke="none" d="
M 170 275.75
Q 170 275.85 170.1 275.9 174.85 275.95 178.4 276.4 181.4 276.6 182.6 276.95 182.95 277.1 183.45 277.25 183.444921875 274.825 182.95 272.4 181.6 272.35 179.95 272.35 171.15 272.2 167.55 272.2 169.2 273.6 170 275.75
M 155.85 272
Q 151.7 272 147.95 272.2 143.1 272.5 139.75 273.05 139.35 273.75 139.05 274.45 138.15 276.4 137.6 278.35 137.4611328125 278.7205078125 137.4 279.15 140.1662109375 278.0900390625 146.45 277.15 148.8 276.75 151.3 276.5
L 151.25 276.55 151.3 276.55
Q 152.9 273.75 155.85 272 Z"/>

<path fill="#333333" stroke="none" d="
M 151.3 276.55
Q 152.15 276.4 153.05 276.3 158.05 275.75 162 275.75 165.4 275.75 168.4 275.85 169.25 275.9 170.1 275.9 170 275.85 170 275.75 169.2 273.6 167.55 272.2 166.95 272.2 166.45 272.2 160.85 272 155.85 272 152.9 273.75 151.3 276.55 Z"/>

<path fill="url(#Gradient_4)" stroke="none" d="
M 137.4 279.15
Q 137.3787109375 279.1884765625 137.35 279.2 135.65 286.05 137.9 292.45 140.95 301 150.15 303.7 159.15 306.45 167.9 301.6 176.7 296.95 180.85 287.45 182.8 283.05 183.3 279.05 183.352734375 278.1751953125 183.45 277.3
L 183.45 277.25
Q 182.95 277.1 182.6 276.95 181.4 276.6 178.4 276.4 174.85 275.95 170.1 275.9 170.5921875 277.42578125 170.6 279
L 170.6 279.05
Q 170.6 279.9662109375 170.4 280.85 170.41328125 280.99765625 170.4 281.15 170.15 282.4 169.5 283.8 167.7 288.05 163.7 290.25 163.27890625 290.4630859375 162.85 290.65 159.14921875 292.2333984375 155.6 291.2 151.55 289.95 150.05 286.05 149.83203125 285.7048828125 149.7 285.35 149.615234375 284.9119140625 149.55 284.45 149.5734375 284.2771484375 149.6 284.1 149.3064453125 281.87734375 149.95 279.5 150 279.4125 150 279.3 150.126953125 278.950390625 150.25 278.6 150.4 278.2 150.5 277.95 150.88359375 277.1828125 151.25 276.55
L 151.3 276.5
Q 148.8 276.75 146.45 277.15 140.1662109375 278.0900390625 137.4 279.15 Z"/>

<path fill="#666666" stroke="none" d="
M 151.3 285.6
Q 152.6 289.05 156.05 290 159.35 291.15 163.05 289.25 166.6 287.35 168.2 283.6 169.05 281.9 169.2 280.15 165.2 282.8 162.1 283.85 157.5 285.4 150.8 282.95 150.9 284.35 151.3 285.6
M 100.45 276.45
Q 99.8 276.25 99.05 275.7 99.2 277.25 99.4 278.9 99.55 280.45 99.75 281.9
L 111.5 281.9
Q 113.1 277.7 112.1 274.3 111.95 274.25 111.9 274.15 111.05 273.6 110 273.6 108.7 273.6 106.05 275.05 103.35 276.55 101.5 276.55 100.7 276.55 100.45 276.45
M 369.45 283.75
Q 368.4 282.9 367.7 282 367.25 284.3 368 286.45 369.4 289.8 372.7 290.9 376.1 292.05 379.75 290.1 383.35 288.2 384.95 284.5 385.9 282.6 385.95 280.7 385.1 281.3 384.3 281.85 378.6 285.55 375.6 285.55 372 285.55 369.45 283.75 Z"/>

<path fill="url(#Gradient_5)" stroke="none" d="
M 151.5 279.05
Q 150.8 281.05 150.8 282.95 157.5 285.4 162.1 283.85 165.2 282.8 169.2 280.15 169.2 279.75 169.2 279.4 169.2 277.95 168.7 276.55 168.55 276.2 168.4 275.85 165.4 275.75 162 275.75 158.05 275.75 153.05 276.3 152.25 277.3 151.8 278.5 151.65 278.85 151.5 279.05 Z"/>

<path fill="url(#Gradient_6)" stroke="none" d="
M 105.55 267.05
Q 105.4 266.95 105.1 266.9 101.05 264.75 100.35 264.75 99.55 264.75 98.95 266.2 98.55 267.3 98.55 268.1 98.55 271.35 99.05 275.7 99.8 276.25 100.45 276.45 100.7 276.55 101.5 276.55 103.35 276.55 106.05 275.05 108.7 273.6 110 273.6 111.05 273.6 111.9 274.15 111.95 274.25 112.1 274.3 110.85 270.05 105.55 267.05 Z"/>

<path fill="#CC0000" stroke="none" d="
M 114.7 245.3
Q 110.1 243.15 107.5 241.95 106.05 244.9 104.2 247.95 103 249.85 102.05 251.6 103.15 252.55 104.65 253.9 107.7 251.25 111.7 247.9 113.1 246.65 114.7 245.3 Z"/>

<path fill="url(#Gradient_7)" stroke="none" d="
M 355.75 275.4
Q 355.65 275.75 355.5 276.2 351.65 285.2 354.75 293.5 357.85 302.05 366.6 304.75 375.2 307.5 384.4 302.75 393.5 298 397.7 288.4 400.7 281.7 400 275.5 399.7 272.9 398.8 270.4 395.6 261.7 386.95 259.05 378.25 256.35 369.2 261.15 360.05 265.85 355.75 275.4
M 369.2 275.95
Q 370.8 273.8 373.3 272.5 377.45 270.4 381.35 271.55 384.75 272.7 386.25 275.7 386.5 276.2 386.65 276.75 387.2 278.35 387.3 280.05 387.3 282.35 386.25 284.85 384.35 289.2 380.2 291.25 376.05 293.5 372.1 292.25 368.3 291 366.75 287.1 365.7 284.2 366.6 281.05 366.9 280.05 367.35 279 368 277.3 369.2 275.95 Z"/>

<path fill="url(#Gradient_8)" stroke="none" d="
M 373.75 273.75
Q 371.55 274.85 370.1 276.75 369.1 277.95 368.65 279.4 367.95 280.7 367.7 282 368.4 282.9 369.45 283.75 372 285.55 375.6 285.55 378.6 285.55 384.3 281.85 385.1 281.3 385.95 280.7 385.95 279 385.3 277.45 385.25 276.95 384.95 276.55 383.7 273.9 380.7 272.95 377.35 271.9 373.75 273.75 Z"/>
</g>

<g id="Layer2_0_FILL">
<path fill="#666666" stroke="none" d="
M 442.35 268.5
Q 437.65 268.55 432 271.2 426.25 273.95 424.05 273.95 422 273.95 421.3 273.4 420.9 272.95 419.85 271.2 419.75 271.5 419.75 271.8 419.7 271.85 419.7 272 419.15 279.7 426.7 280.1 428.1 280.05 429.55 279.95 432.6 279.9 435.95 279.8 437.15 277.95 438.85 274.95 440.8 271.2 442.35 268.5 Z"/>

<path fill="url(#Gradient_6)" stroke="none" d="
M 442.95 262.2
Q 440.6 260.45 430.25 263.4 429.8 263.4 429.15 263.55 420.8 266.55 419.85 271.1 419.85 271.15 419.85 271.2 420.9 272.95 421.3 273.4 422 273.95 424.05 273.95 426.25 273.95 432 271.2 437.65 268.55 442.35 268.5 442.9 267.4 443.4 266.45 444.55 264.5 443.75 263.1 443.45 262.65 442.95 262.2 Z"/>
</g>
</defs>

<g transform="matrix( 1, 0, 0, 1, 0,0) ">
<use xlink:href="#Layer7_0_FILL"/>
</g>

<g transform="matrix( 1, 0, 0, 1, 0,0) ">
<use xlink:href="#Layer5_0_FILL"/>
</g>

<g transform="matrix( 1, 0, 0, 1, 0,0) ">
<use xlink:href="#Layer4_0_FILL"/>
</g>

<g transform="matrix( 1, 0, 0, 1, 0,0) ">
<use xlink:href="#Layer3_0_FILL"/>
</g>

<g transform="matrix( 1, 0, 0, 1, 0,0) ">
<use xlink:href="#Layer2_0_FILL"/>
</g>
</svg>
