
<svg xmlns="http://www.w3.org/2000/svg" version="1.1" xmlns:xlink="http://www.w3.org/1999/xlink" preserveAspectRatio="none" x="0px" y="0px" width="550px" height="400px" viewBox="0 0 550 400">
<defs>
<g id="S_mbolo_27_0_Layer0_0_FILL">
<path fill="#FF3366" stroke="none" d="
M 40.95 276.55
L 158.2 382.55 284.9 223.7 221.7 239.85 260.5 52.8 0 0 90.35 261.1 40.95 276.55
M 157.3 371.75
L 55.5 279.7 99.8 265.9 11.2 9.85 251.75 58.6 212.05 249.9 265.4 236.25 157.3 371.75
M 65.6 281.9
L 156.65 364.3 251.8 245 205.35 256.9 245.7 62.55 18.95 16.65 106.35 269.15 65.6 281.9
M 168.35 53.8
Q 169.65 56.55 170.25 59.45 170.65 62.4 170.75 65.4 170.85 68.3 170.95 71.05 170.95 73.95 170.95 76.85 171 80.9 171 85.15 171 89.35 170.95 93.45 170.95 96.4 170.85 99.1 170.65 101.9 170.55 104.7 170.5 107.4 170.5 110 170.5 112.6 170.5 115.2 170.5 117.05 170.5 118.9 170.55 120.75 170.65 122.65 170.65 124 170.65 125.5 170.75 126.95 170.75 128.5 170.85 129.8 170.75 131.25 170.75 132.6 170.75 134.05 170.95 133.75 171.1 133.5 171.3 133.25 171.55 132.85 172.15 132.35 172.65 131.8 173.15 131.25 173.8 130.85 174.6 130.2 175.45 130.85 175.9 131.15 175.75 131.45 175.75 131.8 175.55 132.3 175 134.15 174 135.85 173.1 137.55 172 139.25 170.85 141.05 169.35 141.75 167.75 142.55 166.55 142.7 165.05 142.8 163.5 142.4 162.7 141.3 162.1 140.1 161.6 138.9 161.25 137.5 160.55 133.95 160.25 130.45 159.95 126.95 159.9 123.35 159.7 120.05 159.65 116.95 159.45 113.7 159.45 110.35 159.45 105.9 159.5 101.4 159.5 96.9 159.65 92.3 159.7 88.15 159.65 84 159.65 79.75 159.7 75.55 159.75 71.95 159.95 68.45 160.15 64.85 160.25 61.25 160.35 59.4 160.55 57.7 160.7 56.05 161.35 54.4 161.8 53.25 162.5 52.05 162.85 51.6 163.3 51.4 163.75 51.2 164.25 51.2 165.6 51.15 166.6 51.85 167.65 52.6 168.35 53.8
M 185.15 94.3
Q 186.6 90.85 189.05 87.8 190.6 86.05 192.3 84.65 194.1 83.2 196.1 82.1 197.95 81.1 199.8 80.6 201.65 80 203.6 79.9 205.8 79.75 207.9 80.15 210 80.45 212.05 81.9 212.55 82.3 213 82.6 213.55 82.95 214.05 83.25 215.95 84.45 217.35 86.1 218.75 87.8 219.9 89.85 221.05 91.8 221.35 93.9 221.7 96.2 221.25 98.55 219.7 106.1 214.05 111.4 212.5 113.05 210.75 114.6 209.05 116.1 207.15 117.4 204.5 119.1 201.5 120.25 198.65 121.3 195.35 121.4
L 194.8 121.55
Q 195.25 124.15 196.1 126.5 196.95 128.85 198.65 130.85 200 132.35 201.7 133.1 203.5 133.95 205.55 134.05 206.45 134.15 207.1 133.7 207.7 133.3 208.35 132.8 209.75 131.65 210.95 130.2 212.1 128.75 213.1 127.15 214.45 125 215.6 122.85 216.8 120.7 217.7 118.35 218.2 117.2 218.85 116.5 219.45 115.75 220.75 115.55 221.45 115.55 222 115.9 222.45 116.2 222.7 116.6 222.9 117.2 222.5 118.1 221.35 120.7 220.1 123.2 218.95 125.6 217.55 128.1 216.35 130.5 214.75 132.65 213.25 134.9 211.45 136.85 208.8 140.1 205.4 141.65 202.05 143.25 197.65 142.75 193 142.3 189.85 139.9 186.55 137.55 184.5 133.5 183.05 130.5 182.15 127.6 181.35 124.55 181.1 121.3 180.7 118.8 180.75 116.35 180.75 113.95 180.9 111.4 181.1 108.8 181.4 106.35 181.9 103.8 182.6 101.25 183.7 97.7 185.15 94.3
M 184.45 165.55
Q 184.6 170.35 184.55 171.45 185.55 171.55 186.5 171.65 187.6 171.75 188.7 171.9 196.95 172.75 203.7 173.55 200.7 199.3 203.4 222.8 192.5 222.15 183.8 221.25 176.85 220.5 169.25 219.55 163.1 201.5 160.1 181.2
L 159.95 180.05 158.75 180.2
Q 152.1 181.15 143.9 182.45 143.75 182.5 143.65 182.5 144.95 175.85 146.05 168.9 146.2 167.45 146.45 166.05 151 166.9 156.7 167.85 158.15 168.05 159.75 168.35 160.25 168.4 160.75 168.5 160.95 167.9 161.8 165.75 163.25 161.95 164.55 160 167.4 156 169.5 156.85 170.1 157.1 170.65 157.7 170.95 157.3 171.2 156.95 172 155.85 173 155 175.15 153.1 177.25 153.1 179.65 153.1 181.9 155.6 184.2 158.05 184.45 165.55
M 82.95 60.65
Q 83.9 60.75 84.85 60.9 85.8 61.05 86.8 61.35 89.1 61.95 91.05 63.1 93.1 64.35 94.75 66.05 95.5 66.7 96 67.4 96.45 68.1 97.1 68.85 97.55 69.3 98 69.8 98.5 70.35 98.8 70.8 99.5 71.75 100.15 72.8 100.9 73.75 101.4 74.8 101.85 75.55 101.8 76 101.65 76.55 101.1 76.95 99.8 78.05 98.55 77.3 97.75 76.7 97 76.2 96.25 75.55 95.5 74.95 94.25 73.85 92.8 73.1 91.4 72.4 89.85 72.15 87.3 71.75 85 72.2 82.7 72.65 80.65 74.3 77.75 76.55 78.65 79.45 78.95 80.4 79.7 81.05 80.4 81.65 81.25 82.1 82.7 83 84.1 83.7 85.55 84.45 86.95 85.35 91.2 87.8 94.4 91.5 95.7 92.95 96.7 94.4 97.9 95.8 98.8 97.35 99.9 99.3 100.95 101.2 102.05 103.15 102.55 105.35 103.2 107.25 103.75 109 104.4 110.9 104.5 112.85 105.25 118.9 104.15 124.6 103.55 127.85 102.25 130.5 100.9 133.25 98.85 135.85 98.6 136.35 98 136.9 95.55 138.9 92.9 140.2 90.3 141.65 87.15 142.4 82.95 143.25 79.25 142.4 75.6 141.4 72.3 138.8 71.45 138 70.5 137.15 69.7 136.35 68.95 135.45 67.65 134.05 67.1 132.35 66.35 130.7 65.7 128.95 64.55 125.95 64.5 122.7 64.5 121.4 64.6 120.05 64.8 118.7 64.85 117.4 64.85 117.2 65.2 116.8 65.5 116.2 66.05 115.9 66.7 115.65 67.2 115.55 67.85 115.4 68.5 115.55 68.95 115.75 69.05 116.1 69.2 116.35 69.2 116.95 69.2 118.45 69.2 120 69.2 121.5 69.2 123.1 69.3 125.7 70.2 127.9 71.15 130.2 72.75 132.3 73.75 133.6 75.6 134.15 78.95 135.35 82.1 134.7 85.15 134.05 88.15 132.15 88.8 131.65 89.4 131.15 89.9 130.65 90.5 130.05 91.9 128.65 92.45 126.75 92.95 125 93.1 123 93.3 119.6 92.8 116.3 92.35 113.05 91.05 109.9 90.35 107.95 89.5 106.1 88.6 104.05 87.15 102.45 86.45 101.6 85.6 100.9 84.85 100.05 84 99.3 82.05 97.65 79.95 96.2 77.95 94.65 75.6 93.45 73.95 92.75 72.35 91.8 70.7 90.85 69.35 89.55 68.05 88.2 66.75 86.7 65.6 85.15 64.8 83.25 63.65 80.4 63.85 76.95 63.9 74.95 64.5 73.05 65 71.05 66.15 69.35 69.7 63.65 76.3 61.35 79.5 60.3 82.95 60.65
M 122.35 94.4
Q 124.8 92.6 127.65 91.2 130.65 89.7 133.65 88.85 136.55 87.95 139.7 87.4 139.9 87.4 140 87.4 140.15 87.3 140.25 87.3 140.75 85.8 141.1 84.45 141.55 83.05 142.05 81.65 142.2 80.9 142.85 80.65 143.4 80.4 144.3 80.6 145.8 80.65 146.5 81.85 147.35 82.95 147.4 84 147.8 85.4 147.7 86.85 147.5 88.25 147.4 89.7 147.25 93.35 147.15 96.9 146.95 100.5 147.35 104 147.7 108.55 148.4 112.85 149.1 117.25 150 121.7 150.55 124.3 151.25 126.9 151.9 129.5 152.6 132.1 153 133.5 153.45 134.95 153.85 136.3 154.45 137.8 154.45 138 154.55 138.65 154.7 139.45 154.45 139.95 154.05 140.55 153.45 141.1 153 141.55 152.35 141.85 151.85 142.1 151.25 142.4 150.55 142.7 149.95 142.8 149.3 142.95 148.6 142.7 148.05 142.55 147.4 142.1 146.75 141.75 146.2 141.1 144.35 138.5 143.4 135.6 142.4 132.6 141.7 129.55 141.3 127.65 141 125.8 140.75 123.85 140.55 121.95 140.15 118.95 139.8 116.2 139.55 113.3 139.15 110.35 139.15 109.5 139.1 108.75 139.1 108.05 138.95 107.1 138.4 107.75 138 108.35 137.65 108.95 137.35 109.5 136.3 112.5 134.75 115.3 133.45 118.1 131.9 120.85 131.3 122 130.7 123.3 130.25 124.5 129.55 125.5 129.15 126.45 128.55 127.2 128.05 127.9 127.55 128.65 126.15 130.4 124.65 131.7 123.2 133.1 121.25 134.15 118.15 135.65 114.8 135.4 113.15 135.35 112 134.4 110.85 133.6 109.9 132.3 108.95 131 108.5 129.55 108.05 128.05 107.85 126.5 107.45 123.55 107.7 120.7 107.95 117.7 108.6 114.85 109 112.7 109.65 110.65 110.2 108.55 111.3 106.65 113.6 102.1 117.45 98.4 119.8 96.2 122.35 94.4
M 116.5 184.65
Q 116.9 180.65 117.7 178.4 119.35 173.8 121.65 174.1 122.25 174.15 122.95 174.6 123.15 174.15 123.3 173.7 123.8 172.45 124.5 171.4 126.1 169.05 128.15 168.45 130.45 167.85 133.3 169.65 136.1 171.45 138.25 178.65 139.7 183.25 139.95 184.3 140.9 184.1 141.85 183.95 142.05 183.9 142.2 183.9 142.8 183.8 143.45 183.7 143.75 183.65 144.05 183.6 152.25 182.3 158.95 181.35 161.95 201.45 167.9 219.35 168.1 220 168.35 220.6 169.75 224.85 171.4 229 160.7 231.2 152.1 232.55 136.35 235.05 116.65 237.15 109.4 237.9 104.35 237.95 104.4 235.55 104.35 232.85 104.35 229.8 104.3 226.5 103.95 209.85 102.05 191.8 101.85 190.35 101.7 188.95 106.35 188.55 112.1 188 113.55 187.85 115.2 187.7 115.65 187.65 116.2 187.55 116.2 187 116.5 184.65
M 127.8 183.3
Q 126.9 181.15 124.95 178.85 124.95 179.35 124.95 179.9 124.8 183.15 125.45 186.4 127 186.15 128.65 185.95 128.2 184.3 127.8 183.3
M 136.1 184.85
Q 136.25 183.8 135.1 179.7 133.95 175.55 132.65 173.6 131.35 171.65 130.1 171.75 126.75 172.15 125.55 175.7 125.4 176.05 125.35 176.45 127.05 178.05 128.95 181.35 130.3 183.7 131.05 185.6 133.5 185.25 136.1 184.85
M 118.6 181.15
Q 117.75 184.6 117.9 187.35 120.15 187.1 122.3 186.8 122 183.3 122 183.25 121.65 180.1 122.3 176.85 122.35 176.7 122.4 176.55 121.8 176.25 121.4 176.25 119.7 176.45 118.6 181.15
M 138 92.95
Q 137.35 93.15 136.85 93.4 134.7 94.5 132.6 95.75 130.45 97 128.5 98.4 126.9 99.7 125.5 100.95 124.1 102.3 123.3 104 122.9 104.8 122.45 105.6 122.15 106.35 121.75 107.1 121.3 108.5 120.9 109.7 120.45 111.1 120.05 112.45 119.8 113.6 119.75 114.75 119.55 115.9 119.4 117.2 119.15 119.15 119.15 121.25 119.3 123.2 119.6 125.2 119.75 125.9 120 126.6 120.2 127.35 120.6 127.85
L 120.95 127.85
Q 121.3 127.65 121.5 127.6 124.95 125.5 126.8 122 127.35 121.05 127.8 120 128.25 118.9 128.85 117.9 129.85 115.9 131.05 114.15 132.3 112.25 133 110.1 133.65 108.5 134.35 106.9 135.15 105.35 135.85 103.75 136.65 101.65 137.55 99.6 138.4 97.55 138.95 95.35 139.15 94.65 139.35 94.05 139.45 93.35 139.25 92.6 138.5 92.7 138 92.95
M 171.2 163.35
Q 170.2 166.45 170 169.75 171.55 169.9 173.2 170.1 173.2 168.45 173.1 167.35 172.8 165.1 171.5 162.35 171.35 162.8 171.2 163.35
M 169.45 159.7
Q 169.55 159.6 169.6 159.45 169.15 159 168.75 158.9 167.05 158.65 164.8 162.9 163.05 166 162.45 168.7 164.75 169.05 166.9 169.35 167.45 165.9 167.5 165.8 167.95 162.7 169.45 159.7
M 180.3 159.25
Q 179.5 157 178.3 156.8 174.95 156.3 172.9 159.45 172.65 159.75 172.5 160.1 173.75 162.1 174.7 165.75 175.4 168.4 175.65 170.4 178.1 170.7 180.7 171 181.1 170.05 181.05 165.75 181 161.5 180.3 159.25
M 200.35 93.2
Q 198.65 95.05 197.5 97.35 195.55 101.25 194.7 105.75 194.15 108.1 193.95 110.55 193.85 112.85 193.9 115.3 193.95 116.05 194.1 116.6 194.15 117.25 194.25 118 195.05 117.9 195.65 117.8 196.3 117.7 196.95 117.5 199.1 117.05 201 116.2 202.95 115.2 204.65 113.95 206 112.85 207.35 111.8 208.6 110.7 209.75 109.5 212.35 107.3 213.8 104.3 215.35 101.4 215.85 98.1 216.15 96.5 215.85 95.1 215.5 93.8 214.5 92.6 212.55 90.3 209.9 89.55 207.3 88.85 204.5 90.15 202.15 91.3 200.35 93.2 Z"/>

<path fill="#FFFFFF" stroke="none" d="
M 55.5 279.7
L 157.3 371.75 265.4 236.25 212.05 249.9 251.75 58.6 11.2 9.85 99.8 265.9 55.5 279.7
M 156.65 364.3
L 65.6 281.9 106.35 269.15 18.95 16.65 245.7 62.55 205.35 256.9 251.8 245 156.65 364.3
M 117.7 178.4
Q 116.9 180.65 116.5 184.65 116.2 187 116.2 187.55 115.65 187.65 115.2 187.7 113.55 187.85 112.1 188 106.35 188.55 101.7 188.95 101.85 190.35 102.05 191.8 103.95 209.85 104.3 226.5 104.35 229.8 104.35 232.85 104.4 235.55 104.35 237.95 109.4 237.9 116.65 237.15 136.35 235.05 152.1 232.55 160.7 231.2 171.4 229 169.75 224.85 168.35 220.6 168.1 220 167.9 219.35 161.95 201.45 158.95 181.35 152.25 182.3 144.05 183.6 143.75 183.65 143.45 183.7 142.8 183.8 142.2 183.9 142.05 183.9 141.85 183.95 140.9 184.1 139.95 184.3 139.7 183.25 138.25 178.65 136.1 171.45 133.3 169.65 130.45 167.85 128.15 168.45 126.1 169.05 124.5 171.4 123.8 172.45 123.3 173.7 123.15 174.15 122.95 174.6 122.25 174.15 121.65 174.1 119.35 173.8 117.7 178.4
M 117.9 187.35
Q 117.75 184.6 118.6 181.15 119.7 176.45 121.4 176.25 121.8 176.25 122.4 176.55 122.35 176.7 122.3 176.85 121.65 180.1 122 183.25 122 183.3 122.3 186.8 120.15 187.1 117.9 187.35
M 135.1 179.7
Q 136.25 183.8 136.1 184.85 133.5 185.25 131.05 185.6 130.3 183.7 128.95 181.35 127.05 178.05 125.35 176.45 125.4 176.05 125.55 175.7 126.75 172.15 130.1 171.75 131.35 171.65 132.65 173.6 133.95 175.55 135.1 179.7
M 124.95 178.85
Q 126.9 181.15 127.8 183.3 128.2 184.3 128.65 185.95 127 186.15 125.45 186.4 124.8 183.15 124.95 179.9 124.95 179.35 124.95 178.85
M 127.65 91.2
Q 124.8 92.6 122.35 94.4 119.8 96.2 117.45 98.4 113.6 102.1 111.3 106.65 110.2 108.55 109.65 110.65 109 112.7 108.6 114.85 107.95 117.7 107.7 120.7 107.45 123.55 107.85 126.5 108.05 128.05 108.5 129.55 108.95 131 109.9 132.3 110.85 133.6 112 134.4 113.15 135.35 114.8 135.4 118.15 135.65 121.25 134.15 123.2 133.1 124.65 131.7 126.15 130.4 127.55 128.65 128.05 127.9 128.55 127.2 129.15 126.45 129.55 125.5 130.25 124.5 130.7 123.3 131.3 122 131.9 120.85 133.45 118.1 134.75 115.3 136.3 112.5 137.35 109.5 137.65 108.95 138 108.35 138.4 107.75 138.95 107.1 139.1 108.05 139.1 108.75 139.15 109.5 139.15 110.35 139.55 113.3 139.8 116.2 140.15 118.95 140.55 121.95 140.75 123.85 141 125.8 141.3 127.65 141.7 129.55 142.4 132.6 143.4 135.6 144.35 138.5 146.2 141.1 146.75 141.75 147.4 142.1 148.05 142.55 148.6 142.7 149.3 142.95 149.95 142.8 150.55 142.7 151.25 142.4 151.85 142.1 152.35 141.85 153 141.55 153.45 141.1 154.05 140.55 154.45 139.95 154.7 139.45 154.55 138.65 154.45 138 154.45 137.8 153.85 136.3 153.45 134.95 153 133.5 152.6 132.1 151.9 129.5 151.25 126.9 150.55 124.3 150 121.7 149.1 117.25 148.4 112.85 147.7 108.55 147.35 104 146.95 100.5 147.15 96.9 147.25 93.35 147.4 89.7 147.5 88.25 147.7 86.85 147.8 85.4 147.4 84 147.35 82.95 146.5 81.85 145.8 80.65 144.3 80.6 143.4 80.4 142.85 80.65 142.2 80.9 142.05 81.65 141.55 83.05 141.1 84.45 140.75 85.8 140.25 87.3 140.15 87.3 140 87.4 139.9 87.4 139.7 87.4 136.55 87.95 133.65 88.85 130.65 89.7 127.65 91.2
M 136.85 93.4
Q 137.35 93.15 138 92.95 138.5 92.7 139.25 92.6 139.45 93.35 139.35 94.05 139.15 94.65 138.95 95.35 138.4 97.55 137.55 99.6 136.65 101.65 135.85 103.75 135.15 105.35 134.35 106.9 133.65 108.5 133 110.1 132.3 112.25 131.05 114.15 129.85 115.9 128.85 117.9 128.25 118.9 127.8 120 127.35 121.05 126.8 122 124.95 125.5 121.5 127.6 121.3 127.65 120.95 127.85
L 120.6 127.85
Q 120.2 127.35 120 126.6 119.75 125.9 119.6 125.2 119.3 123.2 119.15 121.25 119.15 119.15 119.4 117.2 119.55 115.9 119.75 114.75 119.8 113.6 120.05 112.45 120.45 111.1 120.9 109.7 121.3 108.5 121.75 107.1 122.15 106.35 122.45 105.6 122.9 104.8 123.3 104 124.1 102.3 125.5 100.95 126.9 99.7 128.5 98.4 130.45 97 132.6 95.75 134.7 94.5 136.85 93.4
M 84.85 60.9
Q 83.9 60.75 82.95 60.65 79.5 60.3 76.3 61.35 69.7 63.65 66.15 69.35 65 71.05 64.5 73.05 63.9 74.95 63.85 76.95 63.65 80.4 64.8 83.25 65.6 85.15 66.75 86.7 68.05 88.2 69.35 89.55 70.7 90.85 72.35 91.8 73.95 92.75 75.6 93.45 77.95 94.65 79.95 96.2 82.05 97.65 84 99.3 84.85 100.05 85.6 100.9 86.45 101.6 87.15 102.45 88.6 104.05 89.5 106.1 90.35 107.95 91.05 109.9 92.35 113.05 92.8 116.3 93.3 119.6 93.1 123 92.95 125 92.45 126.75 91.9 128.65 90.5 130.05 89.9 130.65 89.4 131.15 88.8 131.65 88.15 132.15 85.15 134.05 82.1 134.7 78.95 135.35 75.6 134.15 73.75 133.6 72.75 132.3 71.15 130.2 70.2 127.9 69.3 125.7 69.2 123.1 69.2 121.5 69.2 120 69.2 118.45 69.2 116.95 69.2 116.35 69.05 116.1 68.95 115.75 68.5 115.55 67.85 115.4 67.2 115.55 66.7 115.65 66.05 115.9 65.5 116.2 65.2 116.8 64.85 117.2 64.85 117.4 64.8 118.7 64.6 120.05 64.5 121.4 64.5 122.7 64.55 125.95 65.7 128.95 66.35 130.7 67.1 132.35 67.65 134.05 68.95 135.45 69.7 136.35 70.5 137.15 71.45 138 72.3 138.8 75.6 141.4 79.25 142.4 82.95 143.25 87.15 142.4 90.3 141.65 92.9 140.2 95.55 138.9 98 136.9 98.6 136.35 98.85 135.85 100.9 133.25 102.25 130.5 103.55 127.85 104.15 124.6 105.25 118.9 104.5 112.85 104.4 110.9 103.75 109 103.2 107.25 102.55 105.35 102.05 103.15 100.95 101.2 99.9 99.3 98.8 97.35 97.9 95.8 96.7 94.4 95.7 92.95 94.4 91.5 91.2 87.8 86.95 85.35 85.55 84.45 84.1 83.7 82.7 83 81.25 82.1 80.4 81.65 79.7 81.05 78.95 80.4 78.65 79.45 77.75 76.55 80.65 74.3 82.7 72.65 85 72.2 87.3 71.75 89.85 72.15 91.4 72.4 92.8 73.1 94.25 73.85 95.5 74.95 96.25 75.55 97 76.2 97.75 76.7 98.55 77.3 99.8 78.05 101.1 76.95 101.65 76.55 101.8 76 101.85 75.55 101.4 74.8 100.9 73.75 100.15 72.8 99.5 71.75 98.8 70.8 98.5 70.35 98 69.8 97.55 69.3 97.1 68.85 96.45 68.1 96 67.4 95.5 66.7 94.75 66.05 93.1 64.35 91.05 63.1 89.1 61.95 86.8 61.35 85.8 61.05 84.85 60.9
M 184.55 171.45
Q 184.6 170.35 184.45 165.55 184.2 158.05 181.9 155.6 179.65 153.1 177.25 153.1 175.15 153.1 173 155 172 155.85 171.2 156.95 170.95 157.3 170.65 157.7 170.1 157.1 169.5 156.85 167.4 156 164.55 160 163.25 161.95 161.8 165.75 160.95 167.9 160.75 168.5 160.25 168.4 159.75 168.35 158.15 168.05 156.7 167.85 151 166.9 146.45 166.05 146.2 167.45 146.05 168.9 144.95 175.85 143.65 182.5 143.75 182.5 143.9 182.45 152.1 181.15 158.75 180.2
L 159.95 180.05 160.1 181.2
Q 163.1 201.5 169.25 219.55 176.85 220.5 183.8 221.25 192.5 222.15 203.4 222.8 200.7 199.3 203.7 173.55 196.95 172.75 188.7 171.9 187.6 171.75 186.5 171.65 185.55 171.55 184.55 171.45
M 178.3 156.8
Q 179.5 157 180.3 159.25 181 161.5 181.05 165.75 181.1 170.05 180.7 171 178.1 170.7 175.65 170.4 175.4 168.4 174.7 165.75 173.75 162.1 172.5 160.1 172.65 159.75 172.9 159.45 174.95 156.3 178.3 156.8
M 169.6 159.45
Q 169.55 159.6 169.45 159.7 167.95 162.7 167.5 165.8 167.45 165.9 166.9 169.35 164.75 169.05 162.45 168.7 163.05 166 164.8 162.9 167.05 158.65 168.75 158.9 169.15 159 169.6 159.45
M 170 169.75
Q 170.2 166.45 171.2 163.35 171.35 162.8 171.5 162.35 172.8 165.1 173.1 167.35 173.2 168.45 173.2 170.1 171.55 169.9 170 169.75
M 189.05 87.8
Q 186.6 90.85 185.15 94.3 183.7 97.7 182.6 101.25 181.9 103.8 181.4 106.35 181.1 108.8 180.9 111.4 180.75 113.95 180.75 116.35 180.7 118.8 181.1 121.3 181.35 124.55 182.15 127.6 183.05 130.5 184.5 133.5 186.55 137.55 189.85 139.9 193 142.3 197.65 142.75 202.05 143.25 205.4 141.65 208.8 140.1 211.45 136.85 213.25 134.9 214.75 132.65 216.35 130.5 217.55 128.1 218.95 125.6 220.1 123.2 221.35 120.7 222.5 118.1 222.9 117.2 222.7 116.6 222.45 116.2 222 115.9 221.45 115.55 220.75 115.55 219.45 115.75 218.85 116.5 218.2 117.2 217.7 118.35 216.8 120.7 215.6 122.85 214.45 125 213.1 127.15 212.1 128.75 210.95 130.2 209.75 131.65 208.35 132.8 207.7 133.3 207.1 133.7 206.45 134.15 205.55 134.05 203.5 133.95 201.7 133.1 200 132.35 198.65 130.85 196.95 128.85 196.1 126.5 195.25 124.15 194.8 121.55
L 195.35 121.4
Q 198.65 121.3 201.5 120.25 204.5 119.1 207.15 117.4 209.05 116.1 210.75 114.6 212.5 113.05 214.05 111.4 219.7 106.1 221.25 98.55 221.7 96.2 221.35 93.9 221.05 91.8 219.9 89.85 218.75 87.8 217.35 86.1 215.95 84.45 214.05 83.25 213.55 82.95 213 82.6 212.55 82.3 212.05 81.9 210 80.45 207.9 80.15 205.8 79.75 203.6 79.9 201.65 80 199.8 80.6 197.95 81.1 196.1 82.1 194.1 83.2 192.3 84.65 190.6 86.05 189.05 87.8
M 197.5 97.35
Q 198.65 95.05 200.35 93.2 202.15 91.3 204.5 90.15 207.3 88.85 209.9 89.55 212.55 90.3 214.5 92.6 215.5 93.8 215.85 95.1 216.15 96.5 215.85 98.1 215.35 101.4 213.8 104.3 212.35 107.3 209.75 109.5 208.6 110.7 207.35 111.8 206 112.85 204.65 113.95 202.95 115.2 201 116.2 199.1 117.05 196.95 117.5 196.3 117.7 195.65 117.8 195.05 117.9 194.25 118 194.15 117.25 194.1 116.6 193.95 116.05 193.9 115.3 193.85 112.85 193.95 110.55 194.15 108.1 194.7 105.75 195.55 101.25 197.5 97.35
M 170.25 59.45
Q 169.65 56.55 168.35 53.8 167.65 52.6 166.6 51.85 165.6 51.15 164.25 51.2 163.75 51.2 163.3 51.4 162.85 51.6 162.5 52.05 161.8 53.25 161.35 54.4 160.7 56.05 160.55 57.7 160.35 59.4 160.25 61.25 160.15 64.85 159.95 68.45 159.75 71.95 159.7 75.55 159.65 79.75 159.65 84 159.7 88.15 159.65 92.3 159.5 96.9 159.5 101.4 159.45 105.9 159.45 110.35 159.45 113.7 159.65 116.95 159.7 120.05 159.9 123.35 159.95 126.95 160.25 130.45 160.55 133.95 161.25 137.5 161.6 138.9 162.1 140.1 162.7 141.3 163.5 142.4 165.05 142.8 166.55 142.7 167.75 142.55 169.35 141.75 170.85 141.05 172 139.25 173.1 137.55 174 135.85 175 134.15 175.55 132.3 175.75 131.8 175.75 131.45 175.9 131.15 175.45 130.85 174.6 130.2 173.8 130.85 173.15 131.25 172.65 131.8 172.15 132.35 171.55 132.85 171.3 133.25 171.1 133.5 170.95 133.75 170.75 134.05 170.75 132.6 170.75 131.25 170.85 129.8 170.75 128.5 170.75 126.95 170.65 125.5 170.65 124 170.65 122.65 170.55 120.75 170.5 118.9 170.5 117.05 170.5 115.2 170.5 112.6 170.5 110 170.5 107.4 170.55 104.7 170.65 101.9 170.85 99.1 170.95 96.4 170.95 93.45 171 89.35 171 85.15 171 80.9 170.95 76.85 170.95 73.95 170.95 71.05 170.85 68.3 170.75 65.4 170.65 62.4 170.25 59.45 Z"/>
</g>

<g id="S_mbolo_28_0_Layer0_0_FILL">
<path fill="#FF9966" stroke="none" d="
M 40.95 276.55
L 158.2 382.55 284.9 223.7 221.7 239.85 260.5 52.8 0 0 90.35 261.1 40.95 276.55
M 157.3 371.75
L 55.5 279.7 99.8 265.9 11.2 9.85 251.75 58.6 212.05 249.9 265.4 236.25 157.3 371.75
M 65.6 281.9
L 156.65 364.3 251.8 245 205.35 256.9 245.7 62.55 18.95 16.65 106.35 269.15 65.6 281.9
M 166.6 51.85
Q 167.65 52.6 168.35 53.8 169.65 56.55 170.25 59.45 170.65 62.4 170.75 65.4 170.85 68.3 170.95 71.05 170.95 73.95 170.95 76.85 171 80.9 171 85.15 171 89.35 170.95 93.45 170.95 96.4 170.85 99.1 170.65 101.9 170.55 104.7 170.5 107.4 170.5 110 170.5 112.6 170.5 115.2 170.5 117.05 170.5 118.9 170.55 120.75 170.65 122.65 170.65 124 170.65 125.5 170.75 126.95 170.75 128.5 170.85 129.8 170.75 131.25 170.75 132.6 170.75 134.05 170.95 133.75 171.1 133.5 171.3 133.25 171.55 132.85 172.15 132.35 172.65 131.8 173.15 131.25 173.8 130.85 174.6 130.2 175.45 130.85 175.9 131.15 175.75 131.45 175.75 131.8 175.55 132.3 175 134.15 174 135.85 173.1 137.55 172 139.25 170.85 141.05 169.35 141.75 167.75 142.55 166.55 142.7 165.05 142.8 163.5 142.4 162.7 141.3 162.1 140.1 161.6 138.9 161.25 137.5 160.55 133.95 160.25 130.45 159.95 126.95 159.9 123.35 159.7 120.05 159.65 116.95 159.45 113.7 159.45 110.35 159.45 105.9 159.5 101.4 159.5 96.9 159.65 92.3 159.7 88.15 159.65 84 159.65 79.75 159.7 75.55 159.75 71.95 159.95 68.45 160.15 64.85 160.25 61.25 160.35 59.4 160.55 57.7 160.7 56.05 161.35 54.4 161.8 53.25 162.5 52.05 162.85 51.6 163.3 51.4 163.75 51.2 164.25 51.2 165.6 51.15 166.6 51.85
M 189.05 87.8
Q 190.6 86.05 192.3 84.65 194.1 83.2 196.1 82.1 197.95 81.1 199.8 80.6 201.65 80 203.6 79.9 205.8 79.75 207.9 80.15 210 80.45 212.05 81.9 212.55 82.3 213 82.6 213.55 82.95 214.05 83.25 215.95 84.45 217.35 86.1 218.75 87.8 219.9 89.85 221.05 91.8 221.35 93.9 221.7 96.2 221.25 98.55 219.7 106.1 214.05 111.4 212.5 113.05 210.75 114.6 209.05 116.1 207.15 117.4 204.5 119.1 201.5 120.25 198.65 121.3 195.35 121.4
L 194.8 121.55
Q 195.25 124.15 196.1 126.5 196.95 128.85 198.65 130.85 200 132.35 201.7 133.1 203.5 133.95 205.55 134.05 206.45 134.15 207.1 133.7 207.7 133.3 208.35 132.8 209.75 131.65 210.95 130.2 212.1 128.75 213.1 127.15 214.45 125 215.6 122.85 216.8 120.7 217.7 118.35 218.2 117.2 218.85 116.5 219.45 115.75 220.75 115.55 221.45 115.55 222 115.9 222.45 116.2 222.7 116.6 222.9 117.2 222.5 118.1 221.35 120.7 220.1 123.2 218.95 125.6 217.55 128.1 216.35 130.5 214.75 132.65 213.25 134.9 211.45 136.85 208.8 140.1 205.4 141.65 202.05 143.25 197.65 142.75 193 142.3 189.85 139.9 186.55 137.55 184.5 133.5 183.05 130.5 182.15 127.6 181.35 124.55 181.1 121.3 180.7 118.8 180.75 116.35 180.75 113.95 180.9 111.4 181.1 108.8 181.4 106.35 181.9 103.8 182.6 101.25 183.7 97.7 185.15 94.3 186.6 90.85 189.05 87.8
M 184.55 171.45
Q 185.55 171.55 186.5 171.65 187.6 171.75 188.7 171.9 196.95 172.75 203.7 173.55 200.7 199.3 203.4 222.8 192.5 222.15 183.8 221.25 176.85 220.5 169.25 219.55 163.1 201.5 160.1 181.2
L 159.95 180.05 158.75 180.2
Q 152.1 181.15 143.9 182.45 143.75 182.5 143.65 182.5 144.95 175.85 146.05 168.9 146.2 167.45 146.45 166.05 151 166.9 156.7 167.85 158.15 168.05 159.75 168.35 160.25 168.4 160.75 168.5 160.95 167.9 161.8 165.75 163.25 161.95 164.55 160 167.4 156 169.5 156.85 170.1 157.1 170.65 157.7 170.95 157.3 171.2 156.95 172 155.85 173 155 175.15 153.1 177.25 153.1 179.65 153.1 181.9 155.6 184.2 158.05 184.45 165.55 184.6 170.35 184.55 171.45
M 84.85 60.9
Q 85.8 61.05 86.8 61.35 89.1 61.95 91.05 63.1 93.1 64.35 94.75 66.05 95.5 66.7 96 67.4 96.45 68.1 97.1 68.85 97.55 69.3 98 69.8 98.5 70.35 98.8 70.8 99.5 71.75 100.15 72.8 100.9 73.75 101.4 74.8 101.85 75.55 101.8 76 101.65 76.55 101.1 76.95 99.8 78.05 98.55 77.3 97.75 76.7 97 76.2 96.25 75.55 95.5 74.95 94.25 73.85 92.8 73.1 91.4 72.4 89.85 72.15 87.3 71.75 85 72.2 82.7 72.65 80.65 74.3 77.75 76.55 78.65 79.45 78.95 80.4 79.7 81.05 80.4 81.65 81.25 82.1 82.7 83 84.1 83.7 85.55 84.45 86.95 85.35 91.2 87.8 94.4 91.5 95.7 92.95 96.7 94.4 97.9 95.8 98.8 97.35 99.9 99.3 100.95 101.2 102.05 103.15 102.55 105.35 103.2 107.25 103.75 109 104.4 110.9 104.5 112.85 105.25 118.9 104.15 124.6 103.55 127.85 102.25 130.5 100.9 133.25 98.85 135.85 98.6 136.35 98 136.9 95.55 138.9 92.9 140.2 90.3 141.65 87.15 142.4 82.95 143.25 79.25 142.4 75.6 141.4 72.3 138.8 71.45 138 70.5 137.15 69.7 136.35 68.95 135.45 67.65 134.05 67.1 132.35 66.35 130.7 65.7 128.95 64.55 125.95 64.5 122.7 64.5 121.4 64.6 120.05 64.8 118.7 64.85 117.4 64.85 117.2 65.2 116.8 65.5 116.2 66.05 115.9 66.7 115.65 67.2 115.55 67.85 115.4 68.5 115.55 68.95 115.75 69.05 116.1 69.2 116.35 69.2 116.95 69.2 118.45 69.2 120 69.2 121.5 69.2 123.1 69.3 125.7 70.2 127.9 71.15 130.2 72.75 132.3 73.75 133.6 75.6 134.15 78.95 135.35 82.1 134.7 85.15 134.05 88.15 132.15 88.8 131.65 89.4 131.15 89.9 130.65 90.5 130.05 91.9 128.65 92.45 126.75 92.95 125 93.1 123 93.3 119.6 92.8 116.3 92.35 113.05 91.05 109.9 90.35 107.95 89.5 106.1 88.6 104.05 87.15 102.45 86.45 101.6 85.6 100.9 84.85 100.05 84 99.3 82.05 97.65 79.95 96.2 77.95 94.65 75.6 93.45 73.95 92.75 72.35 91.8 70.7 90.85 69.35 89.55 68.05 88.2 66.75 86.7 65.6 85.15 64.8 83.25 63.65 80.4 63.85 76.95 63.9 74.95 64.5 73.05 65 71.05 66.15 69.35 69.7 63.65 76.3 61.35 79.5 60.3 82.95 60.65 83.9 60.75 84.85 60.9
M 122.35 94.4
Q 124.8 92.6 127.65 91.2 130.65 89.7 133.65 88.85 136.55 87.95 139.7 87.4 139.9 87.4 140 87.4 140.15 87.3 140.25 87.3 140.75 85.8 141.1 84.45 141.55 83.05 142.05 81.65 142.2 80.9 142.85 80.65 143.4 80.4 144.3 80.6 145.8 80.65 146.5 81.85 147.35 82.95 147.4 84 147.8 85.4 147.7 86.85 147.5 88.25 147.4 89.7 147.25 93.35 147.15 96.9 146.95 100.5 147.35 104 147.7 108.55 148.4 112.85 149.1 117.25 150 121.7 150.55 124.3 151.25 126.9 151.9 129.5 152.6 132.1 153 133.5 153.45 134.95 153.85 136.3 154.45 137.8 154.45 138 154.55 138.65 154.7 139.45 154.45 139.95 154.05 140.55 153.45 141.1 153 141.55 152.35 141.85 151.85 142.1 151.25 142.4 150.55 142.7 149.95 142.8 149.3 142.95 148.6 142.7 148.05 142.55 147.4 142.1 146.75 141.75 146.2 141.1 144.35 138.5 143.4 135.6 142.4 132.6 141.7 129.55 141.3 127.65 141 125.8 140.75 123.85 140.55 121.95 140.15 118.95 139.8 116.2 139.55 113.3 139.15 110.35 139.15 109.5 139.1 108.75 139.1 108.05 138.95 107.1 138.4 107.75 138 108.35 137.65 108.95 137.35 109.5 136.3 112.5 134.75 115.3 133.45 118.1 131.9 120.85 131.3 122 130.7 123.3 130.25 124.5 129.55 125.5 129.15 126.45 128.55 127.2 128.05 127.9 127.55 128.65 126.15 130.4 124.65 131.7 123.2 133.1 121.25 134.15 118.15 135.65 114.8 135.4 113.15 135.35 112 134.4 110.85 133.6 109.9 132.3 108.95 131 108.5 129.55 108.05 128.05 107.85 126.5 107.45 123.55 107.7 120.7 107.95 117.7 108.6 114.85 109 112.7 109.65 110.65 110.2 108.55 111.3 106.65 113.6 102.1 117.45 98.4 119.8 96.2 122.35 94.4
M 101.7 188.95
Q 106.35 188.55 112.1 188 113.55 187.85 115.2 187.7 115.65 187.65 116.2 187.55 116.2 187 116.5 184.65 116.9 180.65 117.7 178.4 119.35 173.8 121.65 174.1 122.25 174.15 122.95 174.6 123.15 174.15 123.3 173.7 123.8 172.45 124.5 171.4 126.1 169.05 128.15 168.45 130.45 167.85 133.3 169.65 136.1 171.45 138.25 178.65 139.7 183.25 139.95 184.3 140.9 184.1 141.85 183.95 142.05 183.9 142.2 183.9 142.8 183.8 143.45 183.7 143.75 183.65 144.05 183.6 152.25 182.3 158.95 181.35 161.95 201.45 167.9 219.35 168.1 220 168.35 220.6 169.75 224.85 171.4 229 160.7 231.2 152.1 232.55 136.35 235.05 116.65 237.15 109.4 237.9 104.35 237.95 104.4 235.55 104.35 232.85 104.35 229.8 104.3 226.5 103.95 209.85 102.05 191.8 101.85 190.35 101.7 188.95
M 124.95 178.85
Q 124.95 179.35 124.95 179.9 124.8 183.15 125.45 186.4 127 186.15 128.65 185.95 128.2 184.3 127.8 183.3 126.9 181.15 124.95 178.85
M 136.1 184.85
Q 136.25 183.8 135.1 179.7 133.95 175.55 132.65 173.6 131.35 171.65 130.1 171.75 126.75 172.15 125.55 175.7 125.4 176.05 125.35 176.45 127.05 178.05 128.95 181.35 130.3 183.7 131.05 185.6 133.5 185.25 136.1 184.85
M 121.4 176.25
Q 119.7 176.45 118.6 181.15 117.75 184.6 117.9 187.35 120.15 187.1 122.3 186.8 122 183.3 122 183.25 121.65 180.1 122.3 176.85 122.35 176.7 122.4 176.55 121.8 176.25 121.4 176.25
M 138.95 95.35
Q 139.15 94.65 139.35 94.05 139.45 93.35 139.25 92.6 138.5 92.7 138 92.95 137.35 93.15 136.85 93.4 134.7 94.5 132.6 95.75 130.45 97 128.5 98.4 126.9 99.7 125.5 100.95 124.1 102.3 123.3 104 122.9 104.8 122.45 105.6 122.15 106.35 121.75 107.1 121.3 108.5 120.9 109.7 120.45 111.1 120.05 112.45 119.8 113.6 119.75 114.75 119.55 115.9 119.4 117.2 119.15 119.15 119.15 121.25 119.3 123.2 119.6 125.2 119.75 125.9 120 126.6 120.2 127.35 120.6 127.85
L 120.95 127.85
Q 121.3 127.65 121.5 127.6 124.95 125.5 126.8 122 127.35 121.05 127.8 120 128.25 118.9 128.85 117.9 129.85 115.9 131.05 114.15 132.3 112.25 133 110.1 133.65 108.5 134.35 106.9 135.15 105.35 135.85 103.75 136.65 101.65 137.55 99.6 138.4 97.55 138.95 95.35
M 171.2 163.35
Q 170.2 166.45 170 169.75 171.55 169.9 173.2 170.1 173.2 168.45 173.1 167.35 172.8 165.1 171.5 162.35 171.35 162.8 171.2 163.35
M 169.6 159.45
Q 169.15 159 168.75 158.9 167.05 158.65 164.8 162.9 163.05 166 162.45 168.7 164.75 169.05 166.9 169.35 167.45 165.9 167.5 165.8 167.95 162.7 169.45 159.7 169.55 159.6 169.6 159.45
M 172.9 159.45
Q 172.65 159.75 172.5 160.1 173.75 162.1 174.7 165.75 175.4 168.4 175.65 170.4 178.1 170.7 180.7 171 181.1 170.05 181.05 165.75 181 161.5 180.3 159.25 179.5 157 178.3 156.8 174.95 156.3 172.9 159.45
M 200.35 93.2
Q 198.65 95.05 197.5 97.35 195.55 101.25 194.7 105.75 194.15 108.1 193.95 110.55 193.85 112.85 193.9 115.3 193.95 116.05 194.1 116.6 194.15 117.25 194.25 118 195.05 117.9 195.65 117.8 196.3 117.7 196.95 117.5 199.1 117.05 201 116.2 202.95 115.2 204.65 113.95 206 112.85 207.35 111.8 208.6 110.7 209.75 109.5 212.35 107.3 213.8 104.3 215.35 101.4 215.85 98.1 216.15 96.5 215.85 95.1 215.5 93.8 214.5 92.6 212.55 90.3 209.9 89.55 207.3 88.85 204.5 90.15 202.15 91.3 200.35 93.2 Z"/>

<path fill="#FFFFFF" stroke="none" d="
M 55.5 279.7
L 157.3 371.75 265.4 236.25 212.05 249.9 251.75 58.6 11.2 9.85 99.8 265.9 55.5 279.7
M 156.65 364.3
L 65.6 281.9 106.35 269.15 18.95 16.65 245.7 62.55 205.35 256.9 251.8 245 156.65 364.3
M 112.1 188
Q 106.35 188.55 101.7 188.95 101.85 190.35 102.05 191.8 103.95 209.85 104.3 226.5 104.35 229.8 104.35 232.85 104.4 235.55 104.35 237.95 109.4 237.9 116.65 237.15 136.35 235.05 152.1 232.55 160.7 231.2 171.4 229 169.75 224.85 168.35 220.6 168.1 220 167.9 219.35 161.95 201.45 158.95 181.35 152.25 182.3 144.05 183.6 143.75 183.65 143.45 183.7 142.8 183.8 142.2 183.9 142.05 183.9 141.85 183.95 140.9 184.1 139.95 184.3 139.7 183.25 138.25 178.65 136.1 171.45 133.3 169.65 130.45 167.85 128.15 168.45 126.1 169.05 124.5 171.4 123.8 172.45 123.3 173.7 123.15 174.15 122.95 174.6 122.25 174.15 121.65 174.1 119.35 173.8 117.7 178.4 116.9 180.65 116.5 184.65 116.2 187 116.2 187.55 115.65 187.65 115.2 187.7 113.55 187.85 112.1 188
M 118.6 181.15
Q 119.7 176.45 121.4 176.25 121.8 176.25 122.4 176.55 122.35 176.7 122.3 176.85 121.65 180.1 122 183.25 122 183.3 122.3 186.8 120.15 187.1 117.9 187.35 117.75 184.6 118.6 181.15
M 135.1 179.7
Q 136.25 183.8 136.1 184.85 133.5 185.25 131.05 185.6 130.3 183.7 128.95 181.35 127.05 178.05 125.35 176.45 125.4 176.05 125.55 175.7 126.75 172.15 130.1 171.75 131.35 171.65 132.65 173.6 133.95 175.55 135.1 179.7
M 124.95 179.9
Q 124.95 179.35 124.95 178.85 126.9 181.15 127.8 183.3 128.2 184.3 128.65 185.95 127 186.15 125.45 186.4 124.8 183.15 124.95 179.9
M 127.65 91.2
Q 124.8 92.6 122.35 94.4 119.8 96.2 117.45 98.4 113.6 102.1 111.3 106.65 110.2 108.55 109.65 110.65 109 112.7 108.6 114.85 107.95 117.7 107.7 120.7 107.45 123.55 107.85 126.5 108.05 128.05 108.5 129.55 108.95 131 109.9 132.3 110.85 133.6 112 134.4 113.15 135.35 114.8 135.4 118.15 135.65 121.25 134.15 123.2 133.1 124.65 131.7 126.15 130.4 127.55 128.65 128.05 127.9 128.55 127.2 129.15 126.45 129.55 125.5 130.25 124.5 130.7 123.3 131.3 122 131.9 120.85 133.45 118.1 134.75 115.3 136.3 112.5 137.35 109.5 137.65 108.95 138 108.35 138.4 107.75 138.95 107.1 139.1 108.05 139.1 108.75 139.15 109.5 139.15 110.35 139.55 113.3 139.8 116.2 140.15 118.95 140.55 121.95 140.75 123.85 141 125.8 141.3 127.65 141.7 129.55 142.4 132.6 143.4 135.6 144.35 138.5 146.2 141.1 146.75 141.75 147.4 142.1 148.05 142.55 148.6 142.7 149.3 142.95 149.95 142.8 150.55 142.7 151.25 142.4 151.85 142.1 152.35 141.85 153 141.55 153.45 141.1 154.05 140.55 154.45 139.95 154.7 139.45 154.55 138.65 154.45 138 154.45 137.8 153.85 136.3 153.45 134.95 153 133.5 152.6 132.1 151.9 129.5 151.25 126.9 150.55 124.3 150 121.7 149.1 117.25 148.4 112.85 147.7 108.55 147.35 104 146.95 100.5 147.15 96.9 147.25 93.35 147.4 89.7 147.5 88.25 147.7 86.85 147.8 85.4 147.4 84 147.35 82.95 146.5 81.85 145.8 80.65 144.3 80.6 143.4 80.4 142.85 80.65 142.2 80.9 142.05 81.65 141.55 83.05 141.1 84.45 140.75 85.8 140.25 87.3 140.15 87.3 140 87.4 139.9 87.4 139.7 87.4 136.55 87.95 133.65 88.85 130.65 89.7 127.65 91.2
M 139.35 94.05
Q 139.15 94.65 138.95 95.35 138.4 97.55 137.55 99.6 136.65 101.65 135.85 103.75 135.15 105.35 134.35 106.9 133.65 108.5 133 110.1 132.3 112.25 131.05 114.15 129.85 115.9 128.85 117.9 128.25 118.9 127.8 120 127.35 121.05 126.8 122 124.95 125.5 121.5 127.6 121.3 127.65 120.95 127.85
L 120.6 127.85
Q 120.2 127.35 120 126.6 119.75 125.9 119.6 125.2 119.3 123.2 119.15 121.25 119.15 119.15 119.4 117.2 119.55 115.9 119.75 114.75 119.8 113.6 120.05 112.45 120.45 111.1 120.9 109.7 121.3 108.5 121.75 107.1 122.15 106.35 122.45 105.6 122.9 104.8 123.3 104 124.1 102.3 125.5 100.95 126.9 99.7 128.5 98.4 130.45 97 132.6 95.75 134.7 94.5 136.85 93.4 137.35 93.15 138 92.95 138.5 92.7 139.25 92.6 139.45 93.35 139.35 94.05
M 86.8 61.35
Q 85.8 61.05 84.85 60.9 83.9 60.75 82.95 60.65 79.5 60.3 76.3 61.35 69.7 63.65 66.15 69.35 65 71.05 64.5 73.05 63.9 74.95 63.85 76.95 63.65 80.4 64.8 83.25 65.6 85.15 66.75 86.7 68.05 88.2 69.35 89.55 70.7 90.85 72.35 91.8 73.95 92.75 75.6 93.45 77.95 94.65 79.95 96.2 82.05 97.65 84 99.3 84.85 100.05 85.6 100.9 86.45 101.6 87.15 102.45 88.6 104.05 89.5 106.1 90.35 107.95 91.05 109.9 92.35 113.05 92.8 116.3 93.3 119.6 93.1 123 92.95 125 92.45 126.75 91.9 128.65 90.5 130.05 89.9 130.65 89.4 131.15 88.8 131.65 88.15 132.15 85.15 134.05 82.1 134.7 78.95 135.35 75.6 134.15 73.75 133.6 72.75 132.3 71.15 130.2 70.2 127.9 69.3 125.7 69.2 123.1 69.2 121.5 69.2 120 69.2 118.45 69.2 116.95 69.2 116.35 69.05 116.1 68.95 115.75 68.5 115.55 67.85 115.4 67.2 115.55 66.7 115.65 66.05 115.9 65.5 116.2 65.2 116.8 64.85 117.2 64.85 117.4 64.8 118.7 64.6 120.05 64.5 121.4 64.5 122.7 64.55 125.95 65.7 128.95 66.35 130.7 67.1 132.35 67.65 134.05 68.95 135.45 69.7 136.35 70.5 137.15 71.45 138 72.3 138.8 75.6 141.4 79.25 142.4 82.95 143.25 87.15 142.4 90.3 141.65 92.9 140.2 95.55 138.9 98 136.9 98.6 136.35 98.85 135.85 100.9 133.25 102.25 130.5 103.55 127.85 104.15 124.6 105.25 118.9 104.5 112.85 104.4 110.9 103.75 109 103.2 107.25 102.55 105.35 102.05 103.15 100.95 101.2 99.9 99.3 98.8 97.35 97.9 95.8 96.7 94.4 95.7 92.95 94.4 91.5 91.2 87.8 86.95 85.35 85.55 84.45 84.1 83.7 82.7 83 81.25 82.1 80.4 81.65 79.7 81.05 78.95 80.4 78.65 79.45 77.75 76.55 80.65 74.3 82.7 72.65 85 72.2 87.3 71.75 89.85 72.15 91.4 72.4 92.8 73.1 94.25 73.85 95.5 74.95 96.25 75.55 97 76.2 97.75 76.7 98.55 77.3 99.8 78.05 101.1 76.95 101.65 76.55 101.8 76 101.85 75.55 101.4 74.8 100.9 73.75 100.15 72.8 99.5 71.75 98.8 70.8 98.5 70.35 98 69.8 97.55 69.3 97.1 68.85 96.45 68.1 96 67.4 95.5 66.7 94.75 66.05 93.1 64.35 91.05 63.1 89.1 61.95 86.8 61.35
M 186.5 171.65
Q 185.55 171.55 184.55 171.45 184.6 170.35 184.45 165.55 184.2 158.05 181.9 155.6 179.65 153.1 177.25 153.1 175.15 153.1 173 155 172 155.85 171.2 156.95 170.95 157.3 170.65 157.7 170.1 157.1 169.5 156.85 167.4 156 164.55 160 163.25 161.95 161.8 165.75 160.95 167.9 160.75 168.5 160.25 168.4 159.75 168.35 158.15 168.05 156.7 167.85 151 166.9 146.45 166.05 146.2 167.45 146.05 168.9 144.95 175.85 143.65 182.5 143.75 182.5 143.9 182.45 152.1 181.15 158.75 180.2
L 159.95 180.05 160.1 181.2
Q 163.1 201.5 169.25 219.55 176.85 220.5 183.8 221.25 192.5 222.15 203.4 222.8 200.7 199.3 203.7 173.55 196.95 172.75 188.7 171.9 187.6 171.75 186.5 171.65
M 172.5 160.1
Q 172.65 159.75 172.9 159.45 174.95 156.3 178.3 156.8 179.5 157 180.3 159.25 181 161.5 181.05 165.75 181.1 170.05 180.7 171 178.1 170.7 175.65 170.4 175.4 168.4 174.7 165.75 173.75 162.1 172.5 160.1
M 168.75 158.9
Q 169.15 159 169.6 159.45 169.55 159.6 169.45 159.7 167.95 162.7 167.5 165.8 167.45 165.9 166.9 169.35 164.75 169.05 162.45 168.7 163.05 166 164.8 162.9 167.05 158.65 168.75 158.9
M 170 169.75
Q 170.2 166.45 171.2 163.35 171.35 162.8 171.5 162.35 172.8 165.1 173.1 167.35 173.2 168.45 173.2 170.1 171.55 169.9 170 169.75
M 192.3 84.65
Q 190.6 86.05 189.05 87.8 186.6 90.85 185.15 94.3 183.7 97.7 182.6 101.25 181.9 103.8 181.4 106.35 181.1 108.8 180.9 111.4 180.75 113.95 180.75 116.35 180.7 118.8 181.1 121.3 181.35 124.55 182.15 127.6 183.05 130.5 184.5 133.5 186.55 137.55 189.85 139.9 193 142.3 197.65 142.75 202.05 143.25 205.4 141.65 208.8 140.1 211.45 136.85 213.25 134.9 214.75 132.65 216.35 130.5 217.55 128.1 218.95 125.6 220.1 123.2 221.35 120.7 222.5 118.1 222.9 117.2 222.7 116.6 222.45 116.2 222 115.9 221.45 115.55 220.75 115.55 219.45 115.75 218.85 116.5 218.2 117.2 217.7 118.35 216.8 120.7 215.6 122.85 214.45 125 213.1 127.15 212.1 128.75 210.95 130.2 209.75 131.65 208.35 132.8 207.7 133.3 207.1 133.7 206.45 134.15 205.55 134.05 203.5 133.95 201.7 133.1 200 132.35 198.65 130.85 196.95 128.85 196.1 126.5 195.25 124.15 194.8 121.55
L 195.35 121.4
Q 198.65 121.3 201.5 120.25 204.5 119.1 207.15 117.4 209.05 116.1 210.75 114.6 212.5 113.05 214.05 111.4 219.7 106.1 221.25 98.55 221.7 96.2 221.35 93.9 221.05 91.8 219.9 89.85 218.75 87.8 217.35 86.1 215.95 84.45 214.05 83.25 213.55 82.95 213 82.6 212.55 82.3 212.05 81.9 210 80.45 207.9 80.15 205.8 79.75 203.6 79.9 201.65 80 199.8 80.6 197.95 81.1 196.1 82.1 194.1 83.2 192.3 84.65
M 197.5 97.35
Q 198.65 95.05 200.35 93.2 202.15 91.3 204.5 90.15 207.3 88.85 209.9 89.55 212.55 90.3 214.5 92.6 215.5 93.8 215.85 95.1 216.15 96.5 215.85 98.1 215.35 101.4 213.8 104.3 212.35 107.3 209.75 109.5 208.6 110.7 207.35 111.8 206 112.85 204.65 113.95 202.95 115.2 201 116.2 199.1 117.05 196.95 117.5 196.3 117.7 195.65 117.8 195.05 117.9 194.25 118 194.15 117.25 194.1 116.6 193.95 116.05 193.9 115.3 193.85 112.85 193.95 110.55 194.15 108.1 194.7 105.75 195.55 101.25 197.5 97.35
M 168.35 53.8
Q 167.65 52.6 166.6 51.85 165.6 51.15 164.25 51.2 163.75 51.2 163.3 51.4 162.85 51.6 162.5 52.05 161.8 53.25 161.35 54.4 160.7 56.05 160.55 57.7 160.35 59.4 160.25 61.25 160.15 64.85 159.95 68.45 159.75 71.95 159.7 75.55 159.65 79.75 159.65 84 159.7 88.15 159.65 92.3 159.5 96.9 159.5 101.4 159.45 105.9 159.45 110.35 159.45 113.7 159.65 116.95 159.7 120.05 159.9 123.35 159.95 126.95 160.25 130.45 160.55 133.95 161.25 137.5 161.6 138.9 162.1 140.1 162.7 141.3 163.5 142.4 165.05 142.8 166.55 142.7 167.75 142.55 169.35 141.75 170.85 141.05 172 139.25 173.1 137.55 174 135.85 175 134.15 175.55 132.3 175.75 131.8 175.75 131.45 175.9 131.15 175.45 130.85 174.6 130.2 173.8 130.85 173.15 131.25 172.65 131.8 172.15 132.35 171.55 132.85 171.3 133.25 171.1 133.5 170.95 133.75 170.75 134.05 170.75 132.6 170.75 131.25 170.85 129.8 170.75 128.5 170.75 126.95 170.65 125.5 170.65 124 170.65 122.65 170.55 120.75 170.5 118.9 170.5 117.05 170.5 115.2 170.5 112.6 170.5 110 170.5 107.4 170.55 104.7 170.65 101.9 170.85 99.1 170.95 96.4 170.95 93.45 171 89.35 171 85.15 171 80.9 170.95 76.85 170.95 73.95 170.95 71.05 170.85 68.3 170.75 65.4 170.65 62.4 170.25 59.45 169.65 56.55 168.35 53.8 Z"/>
</g>

<g id="S_mbolo_29_0_Layer0_0_FILL">
<path fill="#66CCCC" stroke="none" d="
M 40.95 276.55
L 158.2 382.55 284.9 223.7 221.7 239.85 260.5 52.8 0 0 90.35 261.1 40.95 276.55
M 157.3 371.75
L 55.5 279.7 99.8 265.9 11.2 9.85 251.75 58.6 212.05 249.9 265.4 236.25 157.3 371.75
M 106.35 269.15
L 65.6 281.9 156.65 364.3 251.8 245 205.35 256.9 245.7 62.55 18.95 16.65 106.35 269.15
M 170.25 59.45
Q 170.65 62.4 170.75 65.4 170.85 68.3 170.95 71.05 170.95 73.95 170.95 76.85 171 80.9 171 85.15 171 89.35 170.95 93.45 170.95 96.4 170.85 99.1 170.65 101.9 170.55 104.7 170.5 107.4 170.5 110 170.5 112.6 170.5 115.2 170.5 117.05 170.5 118.9 170.55 120.75 170.65 122.65 170.65 124 170.65 125.5 170.75 126.95 170.75 128.5 170.85 129.8 170.75 131.25 170.75 132.6 170.75 134.05 170.95 133.75 171.1 133.5 171.3 133.25 171.55 132.85 172.15 132.35 172.65 131.8 173.15 131.25 173.8 130.85 174.6 130.2 175.45 130.85 175.9 131.15 175.75 131.45 175.75 131.8 175.55 132.3 175 134.15 174 135.85 173.1 137.55 172 139.25 170.85 141.05 169.35 141.75 167.75 142.55 166.55 142.7 165.05 142.8 163.5 142.4 162.7 141.3 162.1 140.1 161.6 138.9 161.25 137.5 160.55 133.95 160.25 130.45 159.95 126.95 159.9 123.35 159.7 120.05 159.65 116.95 159.45 113.7 159.45 110.35 159.45 105.9 159.5 101.4 159.5 96.9 159.65 92.3 159.7 88.15 159.65 84 159.65 79.75 159.7 75.55 159.75 71.95 159.95 68.45 160.15 64.85 160.25 61.25 160.35 59.4 160.55 57.7 160.7 56.05 161.35 54.4 161.8 53.25 162.5 52.05 162.85 51.6 163.3 51.4 163.75 51.2 164.25 51.2 165.6 51.15 166.6 51.85 167.65 52.6 168.35 53.8 169.65 56.55 170.25 59.45
M 196.1 82.1
Q 197.95 81.1 199.8 80.6 201.65 80 203.6 79.9 205.8 79.75 207.9 80.15 210 80.45 212.05 81.9 212.55 82.3 213 82.6 213.55 82.95 214.05 83.25 215.95 84.45 217.35 86.1 218.75 87.8 219.9 89.85 221.05 91.8 221.35 93.9 221.7 96.2 221.25 98.55 219.7 106.1 214.05 111.4 212.5 113.05 210.75 114.6 209.05 116.1 207.15 117.4 204.5 119.1 201.5 120.25 198.65 121.3 195.35 121.4
L 194.8 121.55
Q 195.25 124.15 196.1 126.5 196.95 128.85 198.65 130.85 200 132.35 201.7 133.1 203.5 133.95 205.55 134.05 206.45 134.15 207.1 133.7 207.7 133.3 208.35 132.8 209.75 131.65 210.95 130.2 212.1 128.75 213.1 127.15 214.45 125 215.6 122.85 216.8 120.7 217.7 118.35 218.2 117.2 218.85 116.5 219.45 115.75 220.75 115.55 221.45 115.55 222 115.9 222.45 116.2 222.7 116.6 222.9 117.2 222.5 118.1 221.35 120.7 220.1 123.2 218.95 125.6 217.55 128.1 216.35 130.5 214.75 132.65 213.25 134.9 211.45 136.85 208.8 140.1 205.4 141.65 202.05 143.25 197.65 142.75 193 142.3 189.85 139.9 186.55 137.55 184.5 133.5 183.05 130.5 182.15 127.6 181.35 124.55 181.1 121.3 180.7 118.8 180.75 116.35 180.75 113.95 180.9 111.4 181.1 108.8 181.4 106.35 181.9 103.8 182.6 101.25 183.7 97.7 185.15 94.3 186.6 90.85 189.05 87.8 190.6 86.05 192.3 84.65 194.1 83.2 196.1 82.1
M 184.45 165.55
Q 184.6 170.35 184.55 171.45 185.55 171.55 186.5 171.65 187.6 171.75 188.7 171.9 196.95 172.75 203.7 173.55 200.7 199.3 203.4 222.8 192.5 222.15 183.8 221.25 176.85 220.5 169.25 219.55 163.1 201.5 160.1 181.2
L 159.95 180.05 158.75 180.2
Q 152.1 181.15 143.9 182.45 143.75 182.5 143.65 182.5 144.95 175.85 146.05 168.9 146.2 167.45 146.45 166.05 151 166.9 156.7 167.85 158.15 168.05 159.75 168.35 160.25 168.4 160.75 168.5 160.95 167.9 161.8 165.75 163.25 161.95 164.55 160 167.4 156 169.5 156.85 170.1 157.1 170.65 157.7 170.95 157.3 171.2 156.95 172 155.85 173 155 175.15 153.1 177.25 153.1 179.65 153.1 181.9 155.6 184.2 158.05 184.45 165.55
M 84.85 60.9
Q 85.8 61.05 86.8 61.35 89.1 61.95 91.05 63.1 93.1 64.35 94.75 66.05 95.5 66.7 96 67.4 96.45 68.1 97.1 68.85 97.55 69.3 98 69.8 98.5 70.35 98.8 70.8 99.5 71.75 100.15 72.8 100.9 73.75 101.4 74.8 101.85 75.55 101.8 76 101.65 76.55 101.1 76.95 99.8 78.05 98.55 77.3 97.75 76.7 97 76.2 96.25 75.55 95.5 74.95 94.25 73.85 92.8 73.1 91.4 72.4 89.85 72.15 87.3 71.75 85 72.2 82.7 72.65 80.65 74.3 77.75 76.55 78.65 79.45 78.95 80.4 79.7 81.05 80.4 81.65 81.25 82.1 82.7 83 84.1 83.7 85.55 84.45 86.95 85.35 91.2 87.8 94.4 91.5 95.7 92.95 96.7 94.4 97.9 95.8 98.8 97.35 99.9 99.3 100.95 101.2 102.05 103.15 102.55 105.35 103.2 107.25 103.75 109 104.4 110.9 104.5 112.85 105.25 118.9 104.15 124.6 103.55 127.85 102.25 130.5 100.9 133.25 98.85 135.85 98.6 136.35 98 136.9 95.55 138.9 92.9 140.2 90.3 141.65 87.15 142.4 82.95 143.25 79.25 142.4 75.6 141.4 72.3 138.8 71.45 138 70.5 137.15 69.7 136.35 68.95 135.45 67.65 134.05 67.1 132.35 66.35 130.7 65.7 128.95 64.55 125.95 64.5 122.7 64.5 121.4 64.6 120.05 64.8 118.7 64.85 117.4 64.85 117.2 65.2 116.8 65.5 116.2 66.05 115.9 66.7 115.65 67.2 115.55 67.85 115.4 68.5 115.55 68.95 115.75 69.05 116.1 69.2 116.35 69.2 116.95 69.2 118.45 69.2 120 69.2 121.5 69.2 123.1 69.3 125.7 70.2 127.9 71.15 130.2 72.75 132.3 73.75 133.6 75.6 134.15 78.95 135.35 82.1 134.7 85.15 134.05 88.15 132.15 88.8 131.65 89.4 131.15 89.9 130.65 90.5 130.05 91.9 128.65 92.45 126.75 92.95 125 93.1 123 93.3 119.6 92.8 116.3 92.35 113.05 91.05 109.9 90.35 107.95 89.5 106.1 88.6 104.05 87.15 102.45 86.45 101.6 85.6 100.9 84.85 100.05 84 99.3 82.05 97.65 79.95 96.2 77.95 94.65 75.6 93.45 73.95 92.75 72.35 91.8 70.7 90.85 69.35 89.55 68.05 88.2 66.75 86.7 65.6 85.15 64.8 83.25 63.65 80.4 63.85 76.95 63.9 74.95 64.5 73.05 65 71.05 66.15 69.35 69.7 63.65 76.3 61.35 79.5 60.3 82.95 60.65 83.9 60.75 84.85 60.9
M 122.35 94.4
Q 124.8 92.6 127.65 91.2 130.65 89.7 133.65 88.85 136.55 87.95 139.7 87.4 139.9 87.4 140 87.4 140.15 87.3 140.25 87.3 140.75 85.8 141.1 84.45 141.55 83.05 142.05 81.65 142.2 80.9 142.85 80.65 143.4 80.4 144.3 80.6 145.8 80.65 146.5 81.85 147.35 82.95 147.4 84 147.8 85.4 147.7 86.85 147.5 88.25 147.4 89.7 147.25 93.35 147.15 96.9 146.95 100.5 147.35 104 147.7 108.55 148.4 112.85 149.1 117.25 150 121.7 150.55 124.3 151.25 126.9 151.9 129.5 152.6 132.1 153 133.5 153.45 134.95 153.85 136.3 154.45 137.8 154.45 138 154.55 138.65 154.7 139.45 154.45 139.95 154.05 140.55 153.45 141.1 153 141.55 152.35 141.85 151.85 142.1 151.25 142.4 150.55 142.7 149.95 142.8 149.3 142.95 148.6 142.7 148.05 142.55 147.4 142.1 146.75 141.75 146.2 141.1 144.35 138.5 143.4 135.6 142.4 132.6 141.7 129.55 141.3 127.65 141 125.8 140.75 123.85 140.55 121.95 140.15 118.95 139.8 116.2 139.55 113.3 139.15 110.35 139.15 109.5 139.1 108.75 139.1 108.05 138.95 107.1 138.4 107.75 138 108.35 137.65 108.95 137.35 109.5 136.3 112.5 134.75 115.3 133.45 118.1 131.9 120.85 131.3 122 130.7 123.3 130.25 124.5 129.55 125.5 129.15 126.45 128.55 127.2 128.05 127.9 127.55 128.65 126.15 130.4 124.65 131.7 123.2 133.1 121.25 134.15 118.15 135.65 114.8 135.4 113.15 135.35 112 134.4 110.85 133.6 109.9 132.3 108.95 131 108.5 129.55 108.05 128.05 107.85 126.5 107.45 123.55 107.7 120.7 107.95 117.7 108.6 114.85 109 112.7 109.65 110.65 110.2 108.55 111.3 106.65 113.6 102.1 117.45 98.4 119.8 96.2 122.35 94.4
M 102.05 191.8
Q 101.85 190.35 101.7 188.95 106.35 188.55 112.1 188 113.55 187.85 115.2 187.7 115.65 187.65 116.2 187.55 116.2 187 116.5 184.65 116.9 180.65 117.7 178.4 119.35 173.8 121.65 174.1 122.25 174.15 122.95 174.6 123.15 174.15 123.3 173.7 123.8 172.45 124.5 171.4 126.1 169.05 128.15 168.45 130.45 167.85 133.3 169.65 136.1 171.45 138.25 178.65 139.7 183.25 139.95 184.3 140.9 184.1 141.85 183.95 142.05 183.9 142.2 183.9 142.8 183.8 143.45 183.7 143.75 183.65 144.05 183.6 152.25 182.3 158.95 181.35 161.95 201.45 167.9 219.35 168.1 220 168.35 220.6 169.75 224.85 171.4 229 160.7 231.2 152.1 232.55 136.35 235.05 116.65 237.15 109.4 237.9 104.35 237.95 104.4 235.55 104.35 232.85 104.35 229.8 104.3 226.5 103.95 209.85 102.05 191.8
M 124.95 178.85
Q 124.95 179.35 124.95 179.9 124.8 183.15 125.45 186.4 127 186.15 128.65 185.95 128.2 184.3 127.8 183.3 126.9 181.15 124.95 178.85
M 135.1 179.7
Q 133.95 175.55 132.65 173.6 131.35 171.65 130.1 171.75 126.75 172.15 125.55 175.7 125.4 176.05 125.35 176.45 127.05 178.05 128.95 181.35 130.3 183.7 131.05 185.6 133.5 185.25 136.1 184.85 136.25 183.8 135.1 179.7
M 118.6 181.15
Q 117.75 184.6 117.9 187.35 120.15 187.1 122.3 186.8 122 183.3 122 183.25 121.65 180.1 122.3 176.85 122.35 176.7 122.4 176.55 121.8 176.25 121.4 176.25 119.7 176.45 118.6 181.15
M 139.25 92.6
Q 138.5 92.7 138 92.95 137.35 93.15 136.85 93.4 134.7 94.5 132.6 95.75 130.45 97 128.5 98.4 126.9 99.7 125.5 100.95 124.1 102.3 123.3 104 122.9 104.8 122.45 105.6 122.15 106.35 121.75 107.1 121.3 108.5 120.9 109.7 120.45 111.1 120.05 112.45 119.8 113.6 119.75 114.75 119.55 115.9 119.4 117.2 119.15 119.15 119.15 121.25 119.3 123.2 119.6 125.2 119.75 125.9 120 126.6 120.2 127.35 120.6 127.85
L 120.95 127.85
Q 121.3 127.65 121.5 127.6 124.95 125.5 126.8 122 127.35 121.05 127.8 120 128.25 118.9 128.85 117.9 129.85 115.9 131.05 114.15 132.3 112.25 133 110.1 133.65 108.5 134.35 106.9 135.15 105.35 135.85 103.75 136.65 101.65 137.55 99.6 138.4 97.55 138.95 95.35 139.15 94.65 139.35 94.05 139.45 93.35 139.25 92.6
M 171.2 163.35
Q 170.2 166.45 170 169.75 171.55 169.9 173.2 170.1 173.2 168.45 173.1 167.35 172.8 165.1 171.5 162.35 171.35 162.8 171.2 163.35
M 169.45 159.7
Q 169.55 159.6 169.6 159.45 169.15 159 168.75 158.9 167.05 158.65 164.8 162.9 163.05 166 162.45 168.7 164.75 169.05 166.9 169.35 167.45 165.9 167.5 165.8 167.95 162.7 169.45 159.7
M 180.3 159.25
Q 179.5 157 178.3 156.8 174.95 156.3 172.9 159.45 172.65 159.75 172.5 160.1 173.75 162.1 174.7 165.75 175.4 168.4 175.65 170.4 178.1 170.7 180.7 171 181.1 170.05 181.05 165.75 181 161.5 180.3 159.25
M 200.35 93.2
Q 198.65 95.05 197.5 97.35 195.55 101.25 194.7 105.75 194.15 108.1 193.95 110.55 193.85 112.85 193.9 115.3 193.95 116.05 194.1 116.6 194.15 117.25 194.25 118 195.05 117.9 195.65 117.8 196.3 117.7 196.95 117.5 199.1 117.05 201 116.2 202.95 115.2 204.65 113.95 206 112.85 207.35 111.8 208.6 110.7 209.75 109.5 212.35 107.3 213.8 104.3 215.35 101.4 215.85 98.1 216.15 96.5 215.85 95.1 215.5 93.8 214.5 92.6 212.55 90.3 209.9 89.55 207.3 88.85 204.5 90.15 202.15 91.3 200.35 93.2 Z"/>

<path fill="#FFFFFF" stroke="none" d="
M 55.5 279.7
L 157.3 371.75 265.4 236.25 212.05 249.9 251.75 58.6 11.2 9.85 99.8 265.9 55.5 279.7
M 65.6 281.9
L 106.35 269.15 18.95 16.65 245.7 62.55 205.35 256.9 251.8 245 156.65 364.3 65.6 281.9
M 101.7 188.95
Q 101.85 190.35 102.05 191.8 103.95 209.85 104.3 226.5 104.35 229.8 104.35 232.85 104.4 235.55 104.35 237.95 109.4 237.9 116.65 237.15 136.35 235.05 152.1 232.55 160.7 231.2 171.4 229 169.75 224.85 168.35 220.6 168.1 220 167.9 219.35 161.95 201.45 158.95 181.35 152.25 182.3 144.05 183.6 143.75 183.65 143.45 183.7 142.8 183.8 142.2 183.9 142.05 183.9 141.85 183.95 140.9 184.1 139.95 184.3 139.7 183.25 138.25 178.65 136.1 171.45 133.3 169.65 130.45 167.85 128.15 168.45 126.1 169.05 124.5 171.4 123.8 172.45 123.3 173.7 123.15 174.15 122.95 174.6 122.25 174.15 121.65 174.1 119.35 173.8 117.7 178.4 116.9 180.65 116.5 184.65 116.2 187 116.2 187.55 115.65 187.65 115.2 187.7 113.55 187.85 112.1 188 106.35 188.55 101.7 188.95
M 117.9 187.35
Q 117.75 184.6 118.6 181.15 119.7 176.45 121.4 176.25 121.8 176.25 122.4 176.55 122.35 176.7 122.3 176.85 121.65 180.1 122 183.25 122 183.3 122.3 186.8 120.15 187.1 117.9 187.35
M 132.65 173.6
Q 133.95 175.55 135.1 179.7 136.25 183.8 136.1 184.85 133.5 185.25 131.05 185.6 130.3 183.7 128.95 181.35 127.05 178.05 125.35 176.45 125.4 176.05 125.55 175.7 126.75 172.15 130.1 171.75 131.35 171.65 132.65 173.6
M 124.95 179.9
Q 124.95 179.35 124.95 178.85 126.9 181.15 127.8 183.3 128.2 184.3 128.65 185.95 127 186.15 125.45 186.4 124.8 183.15 124.95 179.9
M 127.65 91.2
Q 124.8 92.6 122.35 94.4 119.8 96.2 117.45 98.4 113.6 102.1 111.3 106.65 110.2 108.55 109.65 110.65 109 112.7 108.6 114.85 107.95 117.7 107.7 120.7 107.45 123.55 107.85 126.5 108.05 128.05 108.5 129.55 108.95 131 109.9 132.3 110.85 133.6 112 134.4 113.15 135.35 114.8 135.4 118.15 135.65 121.25 134.15 123.2 133.1 124.65 131.7 126.15 130.4 127.55 128.65 128.05 127.9 128.55 127.2 129.15 126.45 129.55 125.5 130.25 124.5 130.7 123.3 131.3 122 131.9 120.85 133.45 118.1 134.75 115.3 136.3 112.5 137.35 109.5 137.65 108.95 138 108.35 138.4 107.75 138.95 107.1 139.1 108.05 139.1 108.75 139.15 109.5 139.15 110.35 139.55 113.3 139.8 116.2 140.15 118.95 140.55 121.95 140.75 123.85 141 125.8 141.3 127.65 141.7 129.55 142.4 132.6 143.4 135.6 144.35 138.5 146.2 141.1 146.75 141.75 147.4 142.1 148.05 142.55 148.6 142.7 149.3 142.95 149.95 142.8 150.55 142.7 151.25 142.4 151.85 142.1 152.35 141.85 153 141.55 153.45 141.1 154.05 140.55 154.45 139.95 154.7 139.45 154.55 138.65 154.45 138 154.45 137.8 153.85 136.3 153.45 134.95 153 133.5 152.6 132.1 151.9 129.5 151.25 126.9 150.55 124.3 150 121.7 149.1 117.25 148.4 112.85 147.7 108.55 147.35 104 146.95 100.5 147.15 96.9 147.25 93.35 147.4 89.7 147.5 88.25 147.7 86.85 147.8 85.4 147.4 84 147.35 82.95 146.5 81.85 145.8 80.65 144.3 80.6 143.4 80.4 142.85 80.65 142.2 80.9 142.05 81.65 141.55 83.05 141.1 84.45 140.75 85.8 140.25 87.3 140.15 87.3 140 87.4 139.9 87.4 139.7 87.4 136.55 87.95 133.65 88.85 130.65 89.7 127.65 91.2
M 138 92.95
Q 138.5 92.7 139.25 92.6 139.45 93.35 139.35 94.05 139.15 94.65 138.95 95.35 138.4 97.55 137.55 99.6 136.65 101.65 135.85 103.75 135.15 105.35 134.35 106.9 133.65 108.5 133 110.1 132.3 112.25 131.05 114.15 129.85 115.9 128.85 117.9 128.25 118.9 127.8 120 127.35 121.05 126.8 122 124.95 125.5 121.5 127.6 121.3 127.65 120.95 127.85
L 120.6 127.85
Q 120.2 127.35 120 126.6 119.75 125.9 119.6 125.2 119.3 123.2 119.15 121.25 119.15 119.15 119.4 117.2 119.55 115.9 119.75 114.75 119.8 113.6 120.05 112.45 120.45 111.1 120.9 109.7 121.3 108.5 121.75 107.1 122.15 106.35 122.45 105.6 122.9 104.8 123.3 104 124.1 102.3 125.5 100.95 126.9 99.7 128.5 98.4 130.45 97 132.6 95.75 134.7 94.5 136.85 93.4 137.35 93.15 138 92.95
M 86.8 61.35
Q 85.8 61.05 84.85 60.9 83.9 60.75 82.95 60.65 79.5 60.3 76.3 61.35 69.7 63.65 66.15 69.35 65 71.05 64.5 73.05 63.9 74.95 63.85 76.95 63.65 80.4 64.8 83.25 65.6 85.15 66.75 86.7 68.05 88.2 69.35 89.55 70.7 90.85 72.35 91.8 73.95 92.75 75.6 93.45 77.95 94.65 79.95 96.2 82.05 97.65 84 99.3 84.85 100.05 85.6 100.9 86.45 101.6 87.15 102.45 88.6 104.05 89.5 106.1 90.35 107.95 91.05 109.9 92.35 113.05 92.8 116.3 93.3 119.6 93.1 123 92.95 125 92.45 126.75 91.9 128.65 90.5 130.05 89.9 130.65 89.4 131.15 88.8 131.65 88.15 132.15 85.15 134.05 82.1 134.7 78.95 135.35 75.6 134.15 73.75 133.6 72.75 132.3 71.15 130.2 70.2 127.9 69.3 125.7 69.2 123.1 69.2 121.5 69.2 120 69.2 118.45 69.2 116.95 69.2 116.35 69.05 116.1 68.95 115.75 68.5 115.55 67.85 115.4 67.2 115.55 66.7 115.65 66.05 115.9 65.5 116.2 65.2 116.8 64.85 117.2 64.85 117.4 64.8 118.7 64.6 120.05 64.5 121.4 64.5 122.7 64.55 125.95 65.7 128.95 66.35 130.7 67.1 132.35 67.65 134.05 68.95 135.45 69.7 136.35 70.5 137.15 71.45 138 72.3 138.8 75.6 141.4 79.25 142.4 82.95 143.25 87.15 142.4 90.3 141.65 92.9 140.2 95.55 138.9 98 136.9 98.6 136.35 98.85 135.85 100.9 133.25 102.25 130.5 103.55 127.85 104.15 124.6 105.25 118.9 104.5 112.85 104.4 110.9 103.75 109 103.2 107.25 102.55 105.35 102.05 103.15 100.95 101.2 99.9 99.3 98.8 97.35 97.9 95.8 96.7 94.4 95.7 92.95 94.4 91.5 91.2 87.8 86.95 85.35 85.55 84.45 84.1 83.7 82.7 83 81.25 82.1 80.4 81.65 79.7 81.05 78.95 80.4 78.65 79.45 77.75 76.55 80.65 74.3 82.7 72.65 85 72.2 87.3 71.75 89.85 72.15 91.4 72.4 92.8 73.1 94.25 73.85 95.5 74.95 96.25 75.55 97 76.2 97.75 76.7 98.55 77.3 99.8 78.05 101.1 76.95 101.65 76.55 101.8 76 101.85 75.55 101.4 74.8 100.9 73.75 100.15 72.8 99.5 71.75 98.8 70.8 98.5 70.35 98 69.8 97.55 69.3 97.1 68.85 96.45 68.1 96 67.4 95.5 66.7 94.75 66.05 93.1 64.35 91.05 63.1 89.1 61.95 86.8 61.35
M 184.55 171.45
Q 184.6 170.35 184.45 165.55 184.2 158.05 181.9 155.6 179.65 153.1 177.25 153.1 175.15 153.1 173 155 172 155.85 171.2 156.95 170.95 157.3 170.65 157.7 170.1 157.1 169.5 156.85 167.4 156 164.55 160 163.25 161.95 161.8 165.75 160.95 167.9 160.75 168.5 160.25 168.4 159.75 168.35 158.15 168.05 156.7 167.85 151 166.9 146.45 166.05 146.2 167.45 146.05 168.9 144.95 175.85 143.65 182.5 143.75 182.5 143.9 182.45 152.1 181.15 158.75 180.2
L 159.95 180.05 160.1 181.2
Q 163.1 201.5 169.25 219.55 176.85 220.5 183.8 221.25 192.5 222.15 203.4 222.8 200.7 199.3 203.7 173.55 196.95 172.75 188.7 171.9 187.6 171.75 186.5 171.65 185.55 171.55 184.55 171.45
M 178.3 156.8
Q 179.5 157 180.3 159.25 181 161.5 181.05 165.75 181.1 170.05 180.7 171 178.1 170.7 175.65 170.4 175.4 168.4 174.7 165.75 173.75 162.1 172.5 160.1 172.65 159.75 172.9 159.45 174.95 156.3 178.3 156.8
M 169.6 159.45
Q 169.55 159.6 169.45 159.7 167.95 162.7 167.5 165.8 167.45 165.9 166.9 169.35 164.75 169.05 162.45 168.7 163.05 166 164.8 162.9 167.05 158.65 168.75 158.9 169.15 159 169.6 159.45
M 170 169.75
Q 170.2 166.45 171.2 163.35 171.35 162.8 171.5 162.35 172.8 165.1 173.1 167.35 173.2 168.45 173.2 170.1 171.55 169.9 170 169.75
M 199.8 80.6
Q 197.95 81.1 196.1 82.1 194.1 83.2 192.3 84.65 190.6 86.05 189.05 87.8 186.6 90.85 185.15 94.3 183.7 97.7 182.6 101.25 181.9 103.8 181.4 106.35 181.1 108.8 180.9 111.4 180.75 113.95 180.75 116.35 180.7 118.8 181.1 121.3 181.35 124.55 182.15 127.6 183.05 130.5 184.5 133.5 186.55 137.55 189.85 139.9 193 142.3 197.65 142.75 202.05 143.25 205.4 141.65 208.8 140.1 211.45 136.85 213.25 134.9 214.75 132.65 216.35 130.5 217.55 128.1 218.95 125.6 220.1 123.2 221.35 120.7 222.5 118.1 222.9 117.2 222.7 116.6 222.45 116.2 222 115.9 221.45 115.55 220.75 115.55 219.45 115.75 218.85 116.5 218.2 117.2 217.7 118.35 216.8 120.7 215.6 122.85 214.45 125 213.1 127.15 212.1 128.75 210.95 130.2 209.75 131.65 208.35 132.8 207.7 133.3 207.1 133.7 206.45 134.15 205.55 134.05 203.5 133.95 201.7 133.1 200 132.35 198.65 130.85 196.95 128.85 196.1 126.5 195.25 124.15 194.8 121.55
L 195.35 121.4
Q 198.65 121.3 201.5 120.25 204.5 119.1 207.15 117.4 209.05 116.1 210.75 114.6 212.5 113.05 214.05 111.4 219.7 106.1 221.25 98.55 221.7 96.2 221.35 93.9 221.05 91.8 219.9 89.85 218.75 87.8 217.35 86.1 215.95 84.45 214.05 83.25 213.55 82.95 213 82.6 212.55 82.3 212.05 81.9 210 80.45 207.9 80.15 205.8 79.75 203.6 79.9 201.65 80 199.8 80.6
M 197.5 97.35
Q 198.65 95.05 200.35 93.2 202.15 91.3 204.5 90.15 207.3 88.85 209.9 89.55 212.55 90.3 214.5 92.6 215.5 93.8 215.85 95.1 216.15 96.5 215.85 98.1 215.35 101.4 213.8 104.3 212.35 107.3 209.75 109.5 208.6 110.7 207.35 111.8 206 112.85 204.65 113.95 202.95 115.2 201 116.2 199.1 117.05 196.95 117.5 196.3 117.7 195.65 117.8 195.05 117.9 194.25 118 194.15 117.25 194.1 116.6 193.95 116.05 193.9 115.3 193.85 112.85 193.95 110.55 194.15 108.1 194.7 105.75 195.55 101.25 197.5 97.35
M 170.75 65.4
Q 170.65 62.4 170.25 59.45 169.65 56.55 168.35 53.8 167.65 52.6 166.6 51.85 165.6 51.15 164.25 51.2 163.75 51.2 163.3 51.4 162.85 51.6 162.5 52.05 161.8 53.25 161.35 54.4 160.7 56.05 160.55 57.7 160.35 59.4 160.25 61.25 160.15 64.85 159.95 68.45 159.75 71.95 159.7 75.55 159.65 79.75 159.65 84 159.7 88.15 159.65 92.3 159.5 96.9 159.5 101.4 159.45 105.9 159.45 110.35 159.45 113.7 159.65 116.95 159.7 120.05 159.9 123.35 159.95 126.95 160.25 130.45 160.55 133.95 161.25 137.5 161.6 138.9 162.1 140.1 162.7 141.3 163.5 142.4 165.05 142.8 166.55 142.7 167.75 142.55 169.35 141.75 170.85 141.05 172 139.25 173.1 137.55 174 135.85 175 134.15 175.55 132.3 175.75 131.8 175.75 131.45 175.9 131.15 175.45 130.85 174.6 130.2 173.8 130.85 173.15 131.25 172.65 131.8 172.15 132.35 171.55 132.85 171.3 133.25 171.1 133.5 170.95 133.75 170.75 134.05 170.75 132.6 170.75 131.25 170.85 129.8 170.75 128.5 170.75 126.95 170.65 125.5 170.65 124 170.65 122.65 170.55 120.75 170.5 118.9 170.5 117.05 170.5 115.2 170.5 112.6 170.5 110 170.5 107.4 170.55 104.7 170.65 101.9 170.85 99.1 170.95 96.4 170.95 93.45 171 89.35 171 85.15 171 80.9 170.95 76.85 170.95 73.95 170.95 71.05 170.85 68.3 170.75 65.4 Z"/>
</g>

<g id="S_mbolo_30_0_Layer0_0_FILL">
<path fill="#CC6699" stroke="none" d="
M 40.95 276.55
L 158.2 382.55 284.9 223.7 221.7 239.85 260.5 52.8 0 0 90.35 261.1 40.95 276.55
M 157.3 371.75
L 55.5 279.7 99.8 265.9 11.2 9.85 251.75 58.6 212.05 249.9 265.4 236.25 157.3 371.75
M 65.6 281.9
L 156.65 364.3 251.8 245 205.35 256.9 245.7 62.55 18.95 16.65 106.35 269.15 65.6 281.9
M 166.6 51.85
Q 167.65 52.6 168.35 53.8 169.65 56.55 170.25 59.45 170.65 62.4 170.75 65.4 170.85 68.3 170.95 71.05 170.95 73.95 170.95 76.85 171 80.9 171 85.15 171 89.35 170.95 93.45 170.95 96.4 170.85 99.1 170.65 101.9 170.55 104.7 170.5 107.4 170.5 110 170.5 112.6 170.5 115.2 170.5 117.05 170.5 118.9 170.55 120.75 170.65 122.65 170.65 124 170.65 125.5 170.75 126.95 170.75 128.5 170.85 129.8 170.75 131.25 170.75 132.6 170.75 134.05 170.95 133.75 171.1 133.5 171.3 133.25 171.55 132.85 172.15 132.35 172.65 131.8 173.15 131.25 173.8 130.85 174.6 130.2 175.45 130.85 175.9 131.15 175.75 131.45 175.75 131.8 175.55 132.3 175 134.15 174 135.85 173.1 137.55 172 139.25 170.85 141.05 169.35 141.75 167.75 142.55 166.55 142.7 165.05 142.8 163.5 142.4 162.7 141.3 162.1 140.1 161.6 138.9 161.25 137.5 160.55 133.95 160.25 130.45 159.95 126.95 159.9 123.35 159.7 120.05 159.65 116.95 159.45 113.7 159.45 110.35 159.45 105.9 159.5 101.4 159.5 96.9 159.65 92.3 159.7 88.15 159.65 84 159.65 79.75 159.7 75.55 159.75 71.95 159.95 68.45 160.15 64.85 160.25 61.25 160.35 59.4 160.55 57.7 160.7 56.05 161.35 54.4 161.8 53.25 162.5 52.05 162.85 51.6 163.3 51.4 163.75 51.2 164.25 51.2 165.6 51.15 166.6 51.85
M 189.05 87.8
Q 190.6 86.05 192.3 84.65 194.1 83.2 196.1 82.1 197.95 81.1 199.8 80.6 201.65 80 203.6 79.9 205.8 79.75 207.9 80.15 210 80.45 212.05 81.9 212.55 82.3 213 82.6 213.55 82.95 214.05 83.25 215.95 84.45 217.35 86.1 218.75 87.8 219.9 89.85 221.05 91.8 221.35 93.9 221.7 96.2 221.25 98.55 219.7 106.1 214.05 111.4 212.5 113.05 210.75 114.6 209.05 116.1 207.15 117.4 204.5 119.1 201.5 120.25 198.65 121.3 195.35 121.4
L 194.8 121.55
Q 195.25 124.15 196.1 126.5 196.95 128.85 198.65 130.85 200 132.35 201.7 133.1 203.5 133.95 205.55 134.05 206.45 134.15 207.1 133.7 207.7 133.3 208.35 132.8 209.75 131.65 210.95 130.2 212.1 128.75 213.1 127.15 214.45 125 215.6 122.85 216.8 120.7 217.7 118.35 218.2 117.2 218.85 116.5 219.45 115.75 220.75 115.55 221.45 115.55 222 115.9 222.45 116.2 222.7 116.6 222.9 117.2 222.5 118.1 221.35 120.7 220.1 123.2 218.95 125.6 217.55 128.1 216.35 130.5 214.75 132.65 213.25 134.9 211.45 136.85 208.8 140.1 205.4 141.65 202.05 143.25 197.65 142.75 193 142.3 189.85 139.9 186.55 137.55 184.5 133.5 183.05 130.5 182.15 127.6 181.35 124.55 181.1 121.3 180.7 118.8 180.75 116.35 180.75 113.95 180.9 111.4 181.1 108.8 181.4 106.35 181.9 103.8 182.6 101.25 183.7 97.7 185.15 94.3 186.6 90.85 189.05 87.8
M 184.55 171.45
Q 185.55 171.55 186.5 171.65 187.6 171.75 188.7 171.9 196.95 172.75 203.7 173.55 200.7 199.3 203.4 222.8 192.5 222.15 183.8 221.25 176.85 220.5 169.25 219.55 163.1 201.5 160.1 181.2
L 159.95 180.05 158.75 180.2
Q 152.1 181.15 143.9 182.45 143.75 182.5 143.65 182.5 144.95 175.85 146.05 168.9 146.2 167.45 146.45 166.05 151 166.9 156.7 167.85 158.15 168.05 159.75 168.35 160.25 168.4 160.75 168.5 160.95 167.9 161.8 165.75 163.25 161.95 164.55 160 167.4 156 169.5 156.85 170.1 157.1 170.65 157.7 170.95 157.3 171.2 156.95 172 155.85 173 155 175.15 153.1 177.25 153.1 179.65 153.1 181.9 155.6 184.2 158.05 184.45 165.55 184.6 170.35 184.55 171.45
M 84.85 60.9
Q 85.8 61.05 86.8 61.35 89.1 61.95 91.05 63.1 93.1 64.35 94.75 66.05 95.5 66.7 96 67.4 96.45 68.1 97.1 68.85 97.55 69.3 98 69.8 98.5 70.35 98.8 70.8 99.5 71.75 100.15 72.8 100.9 73.75 101.4 74.8 101.85 75.55 101.8 76 101.65 76.55 101.1 76.95 99.8 78.05 98.55 77.3 97.75 76.7 97 76.2 96.25 75.55 95.5 74.95 94.25 73.85 92.8 73.1 91.4 72.4 89.85 72.15 87.3 71.75 85 72.2 82.7 72.65 80.65 74.3 77.75 76.55 78.65 79.45 78.95 80.4 79.7 81.05 80.4 81.65 81.25 82.1 82.7 83 84.1 83.7 85.55 84.45 86.95 85.35 91.2 87.8 94.4 91.5 95.7 92.95 96.7 94.4 97.9 95.8 98.8 97.35 99.9 99.3 100.95 101.2 102.05 103.15 102.55 105.35 103.2 107.25 103.75 109 104.4 110.9 104.5 112.85 105.25 118.9 104.15 124.6 103.55 127.85 102.25 130.5 100.9 133.25 98.85 135.85 98.6 136.35 98 136.9 95.55 138.9 92.9 140.2 90.3 141.65 87.15 142.4 82.95 143.25 79.25 142.4 75.6 141.4 72.3 138.8 71.45 138 70.5 137.15 69.7 136.35 68.95 135.45 67.65 134.05 67.1 132.35 66.35 130.7 65.7 128.95 64.55 125.95 64.5 122.7 64.5 121.4 64.6 120.05 64.8 118.7 64.85 117.4 64.85 117.2 65.2 116.8 65.5 116.2 66.05 115.9 66.7 115.65 67.2 115.55 67.85 115.4 68.5 115.55 68.95 115.75 69.05 116.1 69.2 116.35 69.2 116.95 69.2 118.45 69.2 120 69.2 121.5 69.2 123.1 69.3 125.7 70.2 127.9 71.15 130.2 72.75 132.3 73.75 133.6 75.6 134.15 78.95 135.35 82.1 134.7 85.15 134.05 88.15 132.15 88.8 131.65 89.4 131.15 89.9 130.65 90.5 130.05 91.9 128.65 92.45 126.75 92.95 125 93.1 123 93.3 119.6 92.8 116.3 92.35 113.05 91.05 109.9 90.35 107.95 89.5 106.1 88.6 104.05 87.15 102.45 86.45 101.6 85.6 100.9 84.85 100.05 84 99.3 82.05 97.65 79.95 96.2 77.95 94.65 75.6 93.45 73.95 92.75 72.35 91.8 70.7 90.85 69.35 89.55 68.05 88.2 66.75 86.7 65.6 85.15 64.8 83.25 63.65 80.4 63.85 76.95 63.9 74.95 64.5 73.05 65 71.05 66.15 69.35 69.7 63.65 76.3 61.35 79.5 60.3 82.95 60.65 83.9 60.75 84.85 60.9
M 122.35 94.4
Q 124.8 92.6 127.65 91.2 130.65 89.7 133.65 88.85 136.55 87.95 139.7 87.4 139.9 87.4 140 87.4 140.15 87.3 140.25 87.3 140.75 85.8 141.1 84.45 141.55 83.05 142.05 81.65 142.2 80.9 142.85 80.65 143.4 80.4 144.3 80.6 145.8 80.65 146.5 81.85 147.35 82.95 147.4 84 147.8 85.4 147.7 86.85 147.5 88.25 147.4 89.7 147.25 93.35 147.15 96.9 146.95 100.5 147.35 104 147.7 108.55 148.4 112.85 149.1 117.25 150 121.7 150.55 124.3 151.25 126.9 151.9 129.5 152.6 132.1 153 133.5 153.45 134.95 153.85 136.3 154.45 137.8 154.45 138 154.55 138.65 154.7 139.45 154.45 139.95 154.05 140.55 153.45 141.1 153 141.55 152.35 141.85 151.85 142.1 151.25 142.4 150.55 142.7 149.95 142.8 149.3 142.95 148.6 142.7 148.05 142.55 147.4 142.1 146.75 141.75 146.2 141.1 144.35 138.5 143.4 135.6 142.4 132.6 141.7 129.55 141.3 127.65 141 125.8 140.75 123.85 140.55 121.95 140.15 118.95 139.8 116.2 139.55 113.3 139.15 110.35 139.15 109.5 139.1 108.75 139.1 108.05 138.95 107.1 138.4 107.75 138 108.35 137.65 108.95 137.35 109.5 136.3 112.5 134.75 115.3 133.45 118.1 131.9 120.85 131.3 122 130.7 123.3 130.25 124.5 129.55 125.5 129.15 126.45 128.55 127.2 128.05 127.9 127.55 128.65 126.15 130.4 124.65 131.7 123.2 133.1 121.25 134.15 118.15 135.65 114.8 135.4 113.15 135.35 112 134.4 110.85 133.6 109.9 132.3 108.95 131 108.5 129.55 108.05 128.05 107.85 126.5 107.45 123.55 107.7 120.7 107.95 117.7 108.6 114.85 109 112.7 109.65 110.65 110.2 108.55 111.3 106.65 113.6 102.1 117.45 98.4 119.8 96.2 122.35 94.4
M 112.1 188
Q 113.55 187.85 115.2 187.7 115.65 187.65 116.2 187.55 116.2 187 116.5 184.65 116.9 180.65 117.7 178.4 119.35 173.8 121.65 174.1 122.25 174.15 122.95 174.6 123.15 174.15 123.3 173.7 123.8 172.45 124.5 171.4 126.1 169.05 128.15 168.45 130.45 167.85 133.3 169.65 136.1 171.45 138.25 178.65 139.7 183.25 139.95 184.3 140.9 184.1 141.85 183.95 142.05 183.9 142.2 183.9 142.8 183.8 143.45 183.7 143.75 183.65 144.05 183.6 152.25 182.3 158.95 181.35 161.95 201.45 167.9 219.35 168.1 220 168.35 220.6 169.75 224.85 171.4 229 160.7 231.2 152.1 232.55 136.35 235.05 116.65 237.15 109.4 237.9 104.35 237.95 104.4 235.55 104.35 232.85 104.35 229.8 104.3 226.5 103.95 209.85 102.05 191.8 101.85 190.35 101.7 188.95 106.35 188.55 112.1 188
M 124.95 178.85
Q 124.95 179.35 124.95 179.9 124.8 183.15 125.45 186.4 127 186.15 128.65 185.95 128.2 184.3 127.8 183.3 126.9 181.15 124.95 178.85
M 136.1 184.85
Q 136.25 183.8 135.1 179.7 133.95 175.55 132.65 173.6 131.35 171.65 130.1 171.75 126.75 172.15 125.55 175.7 125.4 176.05 125.35 176.45 127.05 178.05 128.95 181.35 130.3 183.7 131.05 185.6 133.5 185.25 136.1 184.85
M 121.4 176.25
Q 119.7 176.45 118.6 181.15 117.75 184.6 117.9 187.35 120.15 187.1 122.3 186.8 122 183.3 122 183.25 121.65 180.1 122.3 176.85 122.35 176.7 122.4 176.55 121.8 176.25 121.4 176.25
M 136.85 93.4
Q 134.7 94.5 132.6 95.75 130.45 97 128.5 98.4 126.9 99.7 125.5 100.95 124.1 102.3 123.3 104 122.9 104.8 122.45 105.6 122.15 106.35 121.75 107.1 121.3 108.5 120.9 109.7 120.45 111.1 120.05 112.45 119.8 113.6 119.75 114.75 119.55 115.9 119.4 117.2 119.15 119.15 119.15 121.25 119.3 123.2 119.6 125.2 119.75 125.9 120 126.6 120.2 127.35 120.6 127.85
L 120.95 127.85
Q 121.3 127.65 121.5 127.6 124.95 125.5 126.8 122 127.35 121.05 127.8 120 128.25 118.9 128.85 117.9 129.85 115.9 131.05 114.15 132.3 112.25 133 110.1 133.65 108.5 134.35 106.9 135.15 105.35 135.85 103.75 136.65 101.65 137.55 99.6 138.4 97.55 138.95 95.35 139.15 94.65 139.35 94.05 139.45 93.35 139.25 92.6 138.5 92.7 138 92.95 137.35 93.15 136.85 93.4
M 171.2 163.35
Q 170.2 166.45 170 169.75 171.55 169.9 173.2 170.1 173.2 168.45 173.1 167.35 172.8 165.1 171.5 162.35 171.35 162.8 171.2 163.35
M 169.45 159.7
Q 169.55 159.6 169.6 159.45 169.15 159 168.75 158.9 167.05 158.65 164.8 162.9 163.05 166 162.45 168.7 164.75 169.05 166.9 169.35 167.45 165.9 167.5 165.8 167.95 162.7 169.45 159.7
M 178.3 156.8
Q 174.95 156.3 172.9 159.45 172.65 159.75 172.5 160.1 173.75 162.1 174.7 165.75 175.4 168.4 175.65 170.4 178.1 170.7 180.7 171 181.1 170.05 181.05 165.75 181 161.5 180.3 159.25 179.5 157 178.3 156.8
M 200.35 93.2
Q 198.65 95.05 197.5 97.35 195.55 101.25 194.7 105.75 194.15 108.1 193.95 110.55 193.85 112.85 193.9 115.3 193.95 116.05 194.1 116.6 194.15 117.25 194.25 118 195.05 117.9 195.65 117.8 196.3 117.7 196.95 117.5 199.1 117.05 201 116.2 202.95 115.2 204.65 113.95 206 112.85 207.35 111.8 208.6 110.7 209.75 109.5 212.35 107.3 213.8 104.3 215.35 101.4 215.85 98.1 216.15 96.5 215.85 95.1 215.5 93.8 214.5 92.6 212.55 90.3 209.9 89.55 207.3 88.85 204.5 90.15 202.15 91.3 200.35 93.2 Z"/>

<path fill="#FFFFFF" stroke="none" d="
M 55.5 279.7
L 157.3 371.75 265.4 236.25 212.05 249.9 251.75 58.6 11.2 9.85 99.8 265.9 55.5 279.7
M 156.65 364.3
L 65.6 281.9 106.35 269.15 18.95 16.65 245.7 62.55 205.35 256.9 251.8 245 156.65 364.3
M 115.2 187.7
Q 113.55 187.85 112.1 188 106.35 188.55 101.7 188.95 101.85 190.35 102.05 191.8 103.95 209.85 104.3 226.5 104.35 229.8 104.35 232.85 104.4 235.55 104.35 237.95 109.4 237.9 116.65 237.15 136.35 235.05 152.1 232.55 160.7 231.2 171.4 229 169.75 224.85 168.35 220.6 168.1 220 167.9 219.35 161.95 201.45 158.95 181.35 152.25 182.3 144.05 183.6 143.75 183.65 143.45 183.7 142.8 183.8 142.2 183.9 142.05 183.9 141.85 183.95 140.9 184.1 139.95 184.3 139.7 183.25 138.25 178.65 136.1 171.45 133.3 169.65 130.45 167.85 128.15 168.45 126.1 169.05 124.5 171.4 123.8 172.45 123.3 173.7 123.15 174.15 122.95 174.6 122.25 174.15 121.65 174.1 119.35 173.8 117.7 178.4 116.9 180.65 116.5 184.65 116.2 187 116.2 187.55 115.65 187.65 115.2 187.7
M 118.6 181.15
Q 119.7 176.45 121.4 176.25 121.8 176.25 122.4 176.55 122.35 176.7 122.3 176.85 121.65 180.1 122 183.25 122 183.3 122.3 186.8 120.15 187.1 117.9 187.35 117.75 184.6 118.6 181.15
M 135.1 179.7
Q 136.25 183.8 136.1 184.85 133.5 185.25 131.05 185.6 130.3 183.7 128.95 181.35 127.05 178.05 125.35 176.45 125.4 176.05 125.55 175.7 126.75 172.15 130.1 171.75 131.35 171.65 132.65 173.6 133.95 175.55 135.1 179.7
M 124.95 179.9
Q 124.95 179.35 124.95 178.85 126.9 181.15 127.8 183.3 128.2 184.3 128.65 185.95 127 186.15 125.45 186.4 124.8 183.15 124.95 179.9
M 127.65 91.2
Q 124.8 92.6 122.35 94.4 119.8 96.2 117.45 98.4 113.6 102.1 111.3 106.65 110.2 108.55 109.65 110.65 109 112.7 108.6 114.85 107.95 117.7 107.7 120.7 107.45 123.55 107.85 126.5 108.05 128.05 108.5 129.55 108.95 131 109.9 132.3 110.85 133.6 112 134.4 113.15 135.35 114.8 135.4 118.15 135.65 121.25 134.15 123.2 133.1 124.65 131.7 126.15 130.4 127.55 128.65 128.05 127.9 128.55 127.2 129.15 126.45 129.55 125.5 130.25 124.5 130.7 123.3 131.3 122 131.9 120.85 133.45 118.1 134.75 115.3 136.3 112.5 137.35 109.5 137.65 108.95 138 108.35 138.4 107.75 138.95 107.1 139.1 108.05 139.1 108.75 139.15 109.5 139.15 110.35 139.55 113.3 139.8 116.2 140.15 118.95 140.55 121.95 140.75 123.85 141 125.8 141.3 127.65 141.7 129.55 142.4 132.6 143.4 135.6 144.35 138.5 146.2 141.1 146.75 141.75 147.4 142.1 148.05 142.55 148.6 142.7 149.3 142.95 149.95 142.8 150.55 142.7 151.25 142.4 151.85 142.1 152.35 141.85 153 141.55 153.45 141.1 154.05 140.55 154.45 139.95 154.7 139.45 154.55 138.65 154.45 138 154.45 137.8 153.85 136.3 153.45 134.95 153 133.5 152.6 132.1 151.9 129.5 151.25 126.9 150.55 124.3 150 121.7 149.1 117.25 148.4 112.85 147.7 108.55 147.35 104 146.95 100.5 147.15 96.9 147.25 93.35 147.4 89.7 147.5 88.25 147.7 86.85 147.8 85.4 147.4 84 147.35 82.95 146.5 81.85 145.8 80.65 144.3 80.6 143.4 80.4 142.85 80.65 142.2 80.9 142.05 81.65 141.55 83.05 141.1 84.45 140.75 85.8 140.25 87.3 140.15 87.3 140 87.4 139.9 87.4 139.7 87.4 136.55 87.95 133.65 88.85 130.65 89.7 127.65 91.2
M 132.6 95.75
Q 134.7 94.5 136.85 93.4 137.35 93.15 138 92.95 138.5 92.7 139.25 92.6 139.45 93.35 139.35 94.05 139.15 94.65 138.95 95.35 138.4 97.55 137.55 99.6 136.65 101.65 135.85 103.75 135.15 105.35 134.35 106.9 133.65 108.5 133 110.1 132.3 112.25 131.05 114.15 129.85 115.9 128.85 117.9 128.25 118.9 127.8 120 127.35 121.05 126.8 122 124.95 125.5 121.5 127.6 121.3 127.65 120.95 127.85
L 120.6 127.85
Q 120.2 127.35 120 126.6 119.75 125.9 119.6 125.2 119.3 123.2 119.15 121.25 119.15 119.15 119.4 117.2 119.55 115.9 119.75 114.75 119.8 113.6 120.05 112.45 120.45 111.1 120.9 109.7 121.3 108.5 121.75 107.1 122.15 106.35 122.45 105.6 122.9 104.8 123.3 104 124.1 102.3 125.5 100.95 126.9 99.7 128.5 98.4 130.45 97 132.6 95.75
M 86.8 61.35
Q 85.8 61.05 84.85 60.9 83.9 60.75 82.95 60.65 79.5 60.3 76.3 61.35 69.7 63.65 66.15 69.35 65 71.05 64.5 73.05 63.9 74.95 63.85 76.95 63.65 80.4 64.8 83.25 65.6 85.15 66.75 86.7 68.05 88.2 69.35 89.55 70.7 90.85 72.35 91.8 73.95 92.75 75.6 93.45 77.95 94.65 79.95 96.2 82.05 97.65 84 99.3 84.85 100.05 85.6 100.9 86.45 101.6 87.15 102.45 88.6 104.05 89.5 106.1 90.35 107.95 91.05 109.9 92.35 113.05 92.8 116.3 93.3 119.6 93.1 123 92.95 125 92.45 126.75 91.9 128.65 90.5 130.05 89.9 130.65 89.4 131.15 88.8 131.65 88.15 132.15 85.15 134.05 82.1 134.7 78.95 135.35 75.6 134.15 73.75 133.6 72.75 132.3 71.15 130.2 70.2 127.9 69.3 125.7 69.2 123.1 69.2 121.5 69.2 120 69.2 118.45 69.2 116.95 69.2 116.35 69.05 116.1 68.95 115.75 68.5 115.55 67.85 115.4 67.2 115.55 66.7 115.65 66.05 115.9 65.5 116.2 65.2 116.8 64.85 117.2 64.85 117.4 64.8 118.7 64.6 120.05 64.5 121.4 64.5 122.7 64.55 125.95 65.7 128.95 66.35 130.7 67.1 132.35 67.65 134.05 68.95 135.45 69.7 136.35 70.5 137.15 71.45 138 72.3 138.8 75.6 141.4 79.25 142.4 82.95 143.25 87.15 142.4 90.3 141.65 92.9 140.2 95.55 138.9 98 136.9 98.6 136.35 98.85 135.85 100.9 133.25 102.25 130.5 103.55 127.85 104.15 124.6 105.25 118.9 104.5 112.85 104.4 110.9 103.75 109 103.2 107.25 102.55 105.35 102.05 103.15 100.95 101.2 99.9 99.3 98.8 97.35 97.9 95.8 96.7 94.4 95.7 92.95 94.4 91.5 91.2 87.8 86.95 85.35 85.55 84.45 84.1 83.7 82.7 83 81.25 82.1 80.4 81.65 79.7 81.05 78.95 80.4 78.65 79.45 77.75 76.55 80.65 74.3 82.7 72.65 85 72.2 87.3 71.75 89.85 72.15 91.4 72.4 92.8 73.1 94.25 73.85 95.5 74.95 96.25 75.55 97 76.2 97.75 76.7 98.55 77.3 99.8 78.05 101.1 76.95 101.65 76.55 101.8 76 101.85 75.55 101.4 74.8 100.9 73.75 100.15 72.8 99.5 71.75 98.8 70.8 98.5 70.35 98 69.8 97.55 69.3 97.1 68.85 96.45 68.1 96 67.4 95.5 66.7 94.75 66.05 93.1 64.35 91.05 63.1 89.1 61.95 86.8 61.35
M 186.5 171.65
Q 185.55 171.55 184.55 171.45 184.6 170.35 184.45 165.55 184.2 158.05 181.9 155.6 179.65 153.1 177.25 153.1 175.15 153.1 173 155 172 155.85 171.2 156.95 170.95 157.3 170.65 157.7 170.1 157.1 169.5 156.85 167.4 156 164.55 160 163.25 161.95 161.8 165.75 160.95 167.9 160.75 168.5 160.25 168.4 159.75 168.35 158.15 168.05 156.7 167.85 151 166.9 146.45 166.05 146.2 167.45 146.05 168.9 144.95 175.85 143.65 182.5 143.75 182.5 143.9 182.45 152.1 181.15 158.75 180.2
L 159.95 180.05 160.1 181.2
Q 163.1 201.5 169.25 219.55 176.85 220.5 183.8 221.25 192.5 222.15 203.4 222.8 200.7 199.3 203.7 173.55 196.95 172.75 188.7 171.9 187.6 171.75 186.5 171.65
M 172.9 159.45
Q 174.95 156.3 178.3 156.8 179.5 157 180.3 159.25 181 161.5 181.05 165.75 181.1 170.05 180.7 171 178.1 170.7 175.65 170.4 175.4 168.4 174.7 165.75 173.75 162.1 172.5 160.1 172.65 159.75 172.9 159.45
M 169.6 159.45
Q 169.55 159.6 169.45 159.7 167.95 162.7 167.5 165.8 167.45 165.9 166.9 169.35 164.75 169.05 162.45 168.7 163.05 166 164.8 162.9 167.05 158.65 168.75 158.9 169.15 159 169.6 159.45
M 170 169.75
Q 170.2 166.45 171.2 163.35 171.35 162.8 171.5 162.35 172.8 165.1 173.1 167.35 173.2 168.45 173.2 170.1 171.55 169.9 170 169.75
M 192.3 84.65
Q 190.6 86.05 189.05 87.8 186.6 90.85 185.15 94.3 183.7 97.7 182.6 101.25 181.9 103.8 181.4 106.35 181.1 108.8 180.9 111.4 180.75 113.95 180.75 116.35 180.7 118.8 181.1 121.3 181.35 124.55 182.15 127.6 183.05 130.5 184.5 133.5 186.55 137.55 189.85 139.9 193 142.3 197.65 142.75 202.05 143.25 205.4 141.65 208.8 140.1 211.45 136.85 213.25 134.9 214.75 132.65 216.35 130.5 217.55 128.1 218.95 125.6 220.1 123.2 221.35 120.7 222.5 118.1 222.9 117.2 222.7 116.6 222.45 116.2 222 115.9 221.45 115.55 220.75 115.55 219.45 115.75 218.85 116.5 218.2 117.2 217.7 118.35 216.8 120.7 215.6 122.85 214.45 125 213.1 127.15 212.1 128.75 210.95 130.2 209.75 131.65 208.35 132.8 207.7 133.3 207.1 133.7 206.45 134.15 205.55 134.05 203.5 133.95 201.7 133.1 200 132.35 198.65 130.85 196.95 128.85 196.1 126.5 195.25 124.15 194.8 121.55
L 195.35 121.4
Q 198.65 121.3 201.5 120.25 204.5 119.1 207.15 117.4 209.05 116.1 210.75 114.6 212.5 113.05 214.05 111.4 219.7 106.1 221.25 98.55 221.7 96.2 221.35 93.9 221.05 91.8 219.9 89.85 218.75 87.8 217.35 86.1 215.95 84.45 214.05 83.25 213.55 82.95 213 82.6 212.55 82.3 212.05 81.9 210 80.45 207.9 80.15 205.8 79.75 203.6 79.9 201.65 80 199.8 80.6 197.95 81.1 196.1 82.1 194.1 83.2 192.3 84.65
M 197.5 97.35
Q 198.65 95.05 200.35 93.2 202.15 91.3 204.5 90.15 207.3 88.85 209.9 89.55 212.55 90.3 214.5 92.6 215.5 93.8 215.85 95.1 216.15 96.5 215.85 98.1 215.35 101.4 213.8 104.3 212.35 107.3 209.75 109.5 208.6 110.7 207.35 111.8 206 112.85 204.65 113.95 202.95 115.2 201 116.2 199.1 117.05 196.95 117.5 196.3 117.7 195.65 117.8 195.05 117.9 194.25 118 194.15 117.25 194.1 116.6 193.95 116.05 193.9 115.3 193.85 112.85 193.95 110.55 194.15 108.1 194.7 105.75 195.55 101.25 197.5 97.35
M 168.35 53.8
Q 167.65 52.6 166.6 51.85 165.6 51.15 164.25 51.2 163.75 51.2 163.3 51.4 162.85 51.6 162.5 52.05 161.8 53.25 161.35 54.4 160.7 56.05 160.55 57.7 160.35 59.4 160.25 61.25 160.15 64.85 159.95 68.45 159.75 71.95 159.7 75.55 159.65 79.75 159.65 84 159.7 88.15 159.65 92.3 159.5 96.9 159.5 101.4 159.45 105.9 159.45 110.35 159.45 113.7 159.65 116.95 159.7 120.05 159.9 123.35 159.95 126.95 160.25 130.45 160.55 133.95 161.25 137.5 161.6 138.9 162.1 140.1 162.7 141.3 163.5 142.4 165.05 142.8 166.55 142.7 167.75 142.55 169.35 141.75 170.85 141.05 172 139.25 173.1 137.55 174 135.85 175 134.15 175.55 132.3 175.75 131.8 175.75 131.45 175.9 131.15 175.45 130.85 174.6 130.2 173.8 130.85 173.15 131.25 172.65 131.8 172.15 132.35 171.55 132.85 171.3 133.25 171.1 133.5 170.95 133.75 170.75 134.05 170.75 132.6 170.75 131.25 170.85 129.8 170.75 128.5 170.75 126.95 170.65 125.5 170.65 124 170.65 122.65 170.55 120.75 170.5 118.9 170.5 117.05 170.5 115.2 170.5 112.6 170.5 110 170.5 107.4 170.55 104.7 170.65 101.9 170.85 99.1 170.95 96.4 170.95 93.45 171 89.35 171 85.15 171 80.9 170.95 76.85 170.95 73.95 170.95 71.05 170.85 68.3 170.75 65.4 170.65 62.4 170.25 59.45 169.65 56.55 168.35 53.8 Z"/>
</g>
</defs>

<g transform="matrix( 0.5908355712890625, 0, 0, 0.5908355712890625, 65.8,0) ">
<g transform="matrix( 1, 0, 0, 1, 0,0) ">
<use xlink:href="#S_mbolo_27_0_Layer0_0_FILL"/>
</g>
</g>

<g transform="matrix( 0.5908355712890625, 0, 0, 0.5908355712890625, 272.75,0) ">
<g transform="matrix( 1, 0, 0, 1, 0,0) ">
<use xlink:href="#S_mbolo_28_0_Layer0_0_FILL"/>
</g>
</g>

<g transform="matrix( 0.5908355712890625, 0, 0, 0.5908355712890625, 65.8,253.6) ">
<g transform="matrix( 1, 0, 0, 1, 0,0) ">
<use xlink:href="#S_mbolo_29_0_Layer0_0_FILL"/>
</g>
</g>

<g transform="matrix( 0.5908355712890625, 0, 0, 0.5908355712890625, 272.75,253.6) ">
<g transform="matrix( 1, 0, 0, 1, 0,0) ">
<use xlink:href="#S_mbolo_30_0_Layer0_0_FILL"/>
</g>
</g>
</svg>
