
<svg xmlns="http://www.w3.org/2000/svg" version="1.1" xmlns:xlink="http://www.w3.org/1999/xlink" preserveAspectRatio="none" x="0px" y="0px" width="550px" height="400px" viewBox="0 0 550 400">
<defs>
<linearGradient id="Gradient_1" gradientUnits="userSpaceOnUse" x1="259.925" y1="56.55000000000001" x2="326.675" y2="217.55" spreadMethod="pad">
<stop  offset="0%" stop-color="#04FFA5"/>

<stop  offset="100%" stop-color="#FFFF00"/>
</linearGradient>

<linearGradient id="Gradient_2" gradientUnits="userSpaceOnUse" x1="159.4125" y1="20.69999999999999" x2="115.7875" y2="267.5" spreadMethod="pad">
<stop  offset="0%" stop-color="#FFCC00"/>

<stop  offset="100%" stop-color="#DB4A22"/>
</linearGradient>

<linearGradient id="Gradient_3" gradientUnits="userSpaceOnUse" x1="99.05" y1="22.72500000000001" x2="68.05" y2="156.575" spreadMethod="pad">
<stop  offset="0%" stop-color="#FFCC00"/>

<stop  offset="100%" stop-color="#FA7A16"/>
</linearGradient>

<linearGradient id="Gradient_4" gradientUnits="userSpaceOnUse" x1="106.17500000000001" y1="105.5" x2="106.125" y2="57.69999999999999" spreadMethod="pad">
<stop  offset="0%" stop-color="#1C8E91"/>

<stop  offset="100%" stop-color="#FFFF00"/>
</linearGradient>

<g id="Layer0_0_FILL">
<path fill="url(#Gradient_1)" stroke="none" d="
M 421.5 79.25
L 435.45 79.25
Q 393.2482421875 34 304.3 34 223.2115234375 34 175.1 68.05 177.2603515625 67.9845703125 179.6 67.9 196.2 67.25 199.6 67.25 222 67.25 289 68.25
L 290 68.25
Q 285.95 68.7 196.55 76.7 175.3599609375 78.6033203125 160.15 80.2 158.520703125 81.6982421875 156.95 83.25 108.35 131.25 108.35 222.75 108.35 234.1 108.5 237.25 108.5 237.9 108.55 238.55 146.6 264.65 222.95 274.7 270.45 281 341.2 281 368 281 396.6 277.45 428.15 273.55 447.9 266.85 463.55 261.6 476 256.7 478.65 247.5 478.65 236.75 478.65 189.2 471.55 155.45 463.796875 118.225390625 446.55 93.15 431.8853515625 92.5994140625 413.95 91.75 335.25 87.428515625 329.45 87.25 334.4732421875 87.29375 362.2 84.55 400.25 80.85 421.5 79.25 Z"/>
</g>

<g id="S_mbolo_2_0_Layer0_0_FILL">
<path fill="#FFFF00" stroke="none" d="
M 4.35 98.85
Q 7.397265625 96.2537109375 16.1 97.75 24.8515625 99.2958984375 32.15 93.6 39.5001953125 87.954296875 39.5 77.7 39.5 75.25 39.3 73.2 39 79.3 35.8 84.55 32.65 89.95 26.15 90.75 17.2 91.35 8.35 92.95 4.55 93.45 2.8 96.9 1.078125 100.1435546875 0.4 103.6 1.3537109375 101.448828125 4.35 98.85
M 254.65 130.4
Q 255.5 131.65 255.4 131.55 255.15390625 131.2916015625 254.95 131 256.4857421875 134.06640625 257.8 135.5 259.148046875 137.00078125 268.4 144.05 277.7107421875 151.15546875 277.9 156.8 278.0837890625 162.4412109375 276.3 164.55 277.568359375 163.2251953125 278.45 161.5 280.8 156.7 278.55 151.75 275.9 145.9 267.6 141.55 262.15 138.75 254.65 130.4
M 231.95 36.7
Q 235.1310546875 38.562890625 236.75 44.45 238.376953125 50.347265625 234.1 56.95 229.81640625 63.546484375 228.35 66.3 234.8951171875 57.305078125 238.15 51.85 241.462890625 46.437890625 239.3 40.25 237.1927734375 34.0517578125 229.95 31.95 222.7009765625 29.8544921875 216.5 31.05 210.350390625 32.2474609375 202.75 37.65
L 198.4 40.6
Q 193.5 44.05 187.85 42.85 183.4990234375 42.0546875 182.6 37.1 181.744140625 32.1810546875 182.6 27.15 183.516015625 22.1689453125 181.85 16.5 180.1791015625 10.8353515625 175.25 9.8 163.45 7.05 154.45 15.15 148.25 20.65 142.65 26.65 136.8 33.1 129.1 30.75 127.2 30.1 126.2 28.65 121.2 21.2 119.45 12.05 118.35 6.4 113.9 2.65 109.95 -0.55 104.95 0.1 94.6 1.2 90.65 11.55 86.75 21.55 83.95 31.7 81.9 39.15 77 44.7 74.85 47.1 71.75 46.2 63.95 43.95 58.5 37.5 55.5 33.95 51.9 31.5 48.9 29.5 45.7 31.6 48.5 30.85234375 50.65 33 52.8 35.1984375 56.3 40.5 59.8 45.850390625 62.05 47.8 65.6 50.8 69.55 50.8 78.25 50.8 82.7 43.7 85.55 39.15 88.05 28 90.7 16.3 92.8 12.35 96.65 5.2 104.25 5.2 108.15 5.2 110.6 10.3 112.1 13.4 114.7 21.6 117.45 29.15 121.05 32.85 126.1 37.95 134.4 37.95 140.1 37.95 145.1 34.25 148.4 31.75 152.95 26.1 158.05 19.65 159.95 17.95 163.95 14.25 168.05 14.25 170.746484375 14.251953125 172.6 18 174.4603515625 21.7439453125 174.25 33.45 174.15 40.45 176.45 44.55 179.7 50.15 186.1 50.15 190.75 50.15 203.65 42.45 216.544921875 34.7046875 222.65 34.8 228.8130859375 34.8859375 231.95 36.7
M 276.4 94.8
Q 274.85 93.2 272.55 92.15 256.45 84.65 238.65 82.25 233.6 81.4 229.45 78.05 228.75 77.45 226.6 75.05 229.05 83.5 235.6 86.75 239.55 88.75 252.15 91.35 263.790625 93.70703125 272.2 98.05 280.6193359375 102.387109375 280.2 108.45 279.9265625 112.3833984375 278.3 114.25 278.6611328125 114.0162109375 279 113.75 279.8 113 280.15 112.05 283.7 102.45 276.4 94.8 Z"/>

<path fill="url(#Gradient_2)" stroke="none" d="
M 272.2 98.05
Q 263.790625 93.70703125 252.15 91.35 239.55 88.75 235.6 86.75 229.05 83.5 226.6 75.05 224.05 72.25 228.1 66.6 228.2 66.45 228.35 66.3 229.81640625 63.546484375 234.1 56.95 238.376953125 50.347265625 236.75 44.45 235.1310546875 38.562890625 231.95 36.7 228.8130859375 34.8859375 222.65 34.8 216.544921875 34.7046875 203.65 42.45 190.75 50.15 186.1 50.15 179.7 50.15 176.45 44.55 174.15 40.45 174.25 33.45 174.4603515625 21.7439453125 172.6 18 170.746484375 14.251953125 168.05 14.25 163.95 14.25 159.95 17.95 158.05 19.65 152.95 26.1 148.4 31.75 145.1 34.25 140.1 37.95 134.4 37.95 126.1 37.95 121.05 32.85 117.45 29.15 114.7 21.6 112.1 13.4 110.6 10.3 108.15 5.2 104.25 5.2 96.65 5.2 92.8 12.35 90.7 16.3 88.05 28 85.55 39.15 82.7 43.7 78.25 50.8 69.55 50.8 65.6 50.8 62.05 47.8 59.8 45.850390625 56.3 40.5 52.8 35.1984375 50.65 33 48.5 30.85234375 45.7 31.6
L 45.65 31.6
Q 39.4 35.3 37.65 42.55 36.65 46.5 37.35 50.45 39.25 61.1 39.3 72.1 39.3 72.65 39.3 73.2 39.5 75.25 39.5 77.7 39.5001953125 87.954296875 32.15 93.6 24.8515625 99.2958984375 16.1 97.75 7.397265625 96.2537109375 4.35 98.85 1.3537109375 101.448828125 0.4 103.6 0.249609375 104.473828125 0.15 105.35 -0.2 108.4 0.3 111.7 1.2 117.65 5.5 122.1 11.55 128.3 19.8 131.65 29 135.4 31.3 144.9 32.9 151.45 28.2 156.3 23.35 161.4 20 167.6 15.35 176.5 22 183.8 24.55 186.65 28.4 187.2 38.1 188.35 48.15 187.75 53.1 187.55 56.25 190.85 57.2 191.85 57.2 193.1 57.3 202.15 53.25 210.4 49.1 219.1 54.85 226.5 61.65 235.2 72.35 233.1 74.7 232.6 76.6 230.85 81 226.9 84.2 221.4 85.1 219.9 86.45 218.75 95.2 211.6 106.6 214.05 113.45 215.6 114.15 222.6 115.3 233.55 115.5 244.4 115.6 248.5 118.35 251.65 125.5 259.65 136 256.15 138.6 255.35 140.05 253.5 147.6 244.25 150.9 232.7 153.6 223.65 161.4 219.05 165.9 216.45 171 217.9 174.55 218.9 176.8 224.1 178.55 228.2 179.15 233.55 179.45 236.1 180 241.95 180.8 247.05 182.75 249.7 186.45 254.7 192.55 255.85 198.3 256.85 203.4 254.1 208.8 251.3 210.55 245.9 212.55 239.7 209.1 232.25 208.05 230 204.8 225.25 197.6 215.15 204.05 204.35 206.6 200.05 211.35 198.35 216.3 196.55 220.3 198.3 224.35 200.05 226.45 204.95 227.4 207.1 230.6 216.8 232.95 224 235 226.75 237.55 230.1 245.2 230.6 252.35 230.9 256.45 228.7 260.7 226.35 262.7 221.9 263.75 219.7 264.7 214.8 266.4 206.65 260.8 199.6 257.45 195.4 250.05 190.4
L 245.55 187.4
Q 237.05 181.85 237.85 172.2 238.75 167.7 241.8 164.5 242.85 163.45 244.45 163 249.05 162.2 253.75 163.4 257.85 164.4 262.6 167.1 266.85 169.5 271.65 167.7 273.9 166.8 275.55 165.35 275.6025390625 165.301953125 275.65 165.25 275.896484375 165.0205078125 276.1 164.75 276.2265625 164.6705078125 276.3 164.55 278.0837890625 162.4412109375 277.9 156.8 277.7107421875 151.15546875 268.4 144.05 259.148046875 137.00078125 257.8 135.5 256.4857421875 134.06640625 254.95 131 253.5537109375 129.1486328125 254.65 127 257.9 120.3 266.1 119.35 271.6 118.45 276.1 115.75 277.2369140625 115.0677734375 278.3 114.25 279.9265625 112.3833984375 280.2 108.45 280.6193359375 102.387109375 272.2 98.05
M 172.6 49.15
Q 187.9 54.95 200.95 64.3 215.4 74.6 224 90 232.95 105.9 232.05 124.05 231.2 141.4 224.6 157.1 222.2 162.5 219.2 167.3 209.55 182.55 195.1 192.85 180.1 203.5 162.45 208.2 151.05 211.4 139.4 211.65 135.65 211.8 131.9 211.6 113.75 211.05 96.5 205.4 81.3 200.4 67.8 191.55 53.7 182.2 44.25 168.1 34.2 153.05 33.3 135.1 32.4 118 36.95 101.35 41.6 84.35 52.7 70.75 63.65 57.5 79.4 50.2 94.1 43.4 110.1 41.7 119.95 40.5 129.8 40.7 135.5 40.8 141.2 41.35 157.3 43.4 172.6 49.15 Z"/>
</g>

<g id="Copia_de_S_mbolo_1_0_Layer0_0_FILL">
<path fill="#FFFF00" stroke="none" d="
M 171.8 94.25
Q 171.8 95.1 171.8 95.9 173.8 89 173.8 81.75 173.8 71.75 172.25 63.25 171.4 59.1 170.2 55.2 168.1 48.65 164.9 42.7 155.35 25.6 134.4 11.9 114.15 0 90.3 0 75.05 0 59.5 4.5 43.25 9.2 30.35 17.85 9 32.25 2.65 52.8 10.05 42.45 20.85 34.1 35 23.15 53.3 17.35 71.05 11.75 90.2 11.75 102.05 11.75 115.55 16.7 130.25 22.1 142.2 31.85 171.8 55.95 171.8 94.25 Z"/>

<path fill="url(#Gradient_3)" stroke="none" d="
M 171.8 95.9
Q 171.8 95.1 171.8 94.25 171.8 55.95 142.2 31.85 130.25 22.1 115.55 16.7 102.05 11.75 90.2 11.75 71.05 11.75 53.3 17.35 35 23.15 20.85 34.1 10.05 42.45 2.65 52.8 0 61.45 0 71.2 0 102.65 17.15 123.45 38.9 149.8 83.15 149.8 98.3 149.8 114.15 145.05 130.3 140.15 143.4 131.45 157.45 122.15 165.25 110.05 169.65 103.2 171.8 95.9
M 123.05 32.7
Q 126.3779296875 37.7673828125 126.5 43.95 126.5802734375 45.9421875 126.3 48.05 126 50.05 124.4 51.35 124.2306640625 51.474609375 124.05 51.55 122.50078125 52.5701171875 120.7 52.3 118.65 52 117.4 50.4 116.1 48.7 116.4 46.7 117.05 41.9 114.65 38.15
L 114.65 38.1
Q 112.55 34.8 108.85 33.55
L 108.75 33.55
Q 105.2 32.25 101.95 33.55 99.0775390625 34.7697265625 97.35 37.6 96.8833984375 38.3658203125 96.5 39.25 95.86875 40.6240234375 94.6 41.4 94.2017578125 41.65703125 93.7 41.85 91.75 42.6 89.9 41.8 88 40.95 87.25 39 86.5 37.1 87.35 35.2 87.4 35.1 87.45 35 91 27.05 98.2 24.3 104.8 21.55 112 24.05
L 112.05 24.1
Q 119.05 26.45 123.05 32.7
M 115.3 60.25
Q 114.85 60 114.85 59.45 114.85 58.9 115.3 58.4 115.75 58 116.45 57.9 117.05 57.8 117.5 58.1 117.95 58.45 117.95 59 117.95 59.55 117.5 59.95 117.05 60.35 116.45 60.45 115.75 60.55 115.3 60.25
M 120.15 58.4
Q 120.15 57.65 120.85 57 121.45 56.4 122.35 56.25 123.2 56.15 123.9 56.55 124.5 57 124.5 57.7 124.5 58.45 123.9 59.1 123.2 59.75 122.35 59.85 121.45 60 120.85 59.55 120.15 59.1 120.15 58.4
M 117 63.45
Q 117 63.1 117.35 62.75 117.7 62.4 118.15 62.3 118.6 62.25 118.95 62.5 119.3 62.75 119.3 63.1 119.3 63.5 118.95 63.85 118.6 64.2 118.15 64.25 117.7 64.35 117.35 64.1 117 63.85 117 63.45
M 84.95 56.55
Q 86.6 55.25 88.1 56.25 83.6 63.4 74.05 65.6 65.7 67.6 60.85 61.2 57.4 56.7 58 52.45 58 52.4 58.15 52.4 59.8 59.4 66 61.95 69.25 63.3 72.75 62.45 79.5 60.8 84.95 56.55
M 124.5 60.95
Q 124.85 61.25 124.85 61.65 124.85 62.1 124.5 62.45 124.1 62.8 123.6 62.9 123.1 62.95 122.7 62.7 122.35 62.45 122.35 62 122.35 61.6 122.7 61.2 123.1 60.9 123.6 60.85 124.1 60.75 124.5 60.95
M 127.45 56.5
Q 127.45 56.15 127.7 55.9 127.95 55.65 128.4 55.6 128.8 55.55 129.15 55.7 129.4 55.85 129.4 56.2 129.4 56.6 129.15 56.85 128.8 57.15 128.4 57.2 127.95 57.25 127.7 57.05 127.45 56.9 127.45 56.5
M 64.7 24.35
Q 64.75 24.4 64.8 24.45 68.5734375 28.12421875 69.4 33.95 69.3947265625 34.011328125 69.4 34.05 69.6 35.65 68.6 37 68.1 37.65 67.45 38 67.3751953125 38.04609375 67.3 38.1 66.7021484375 38.4115234375 65.95 38.5 64.3 38.75 63 37.75 61.65 36.7 61.45 35.1 61 32 59.1 30.05
L 59.05 30
Q 57.4 28.3 55.2 28.05 55.15 28.05 55.1 28.05 53.05 27.75 51.5 28.85 51.4 28.85 51.4 28.9 50.2173828125 29.7541015625 49.55 31.2 49.238671875 31.941015625 49.05 32.85 49 33 48.95 33.15 48.6 34.75 47.25 35.7 47.066015625 35.818359375 46.85 35.9 45.6396484375 36.560546875 44.25 36.3 42.6 35.95 41.7 34.6 40.75 33.2 41.1 31.6 41.4 30.05 41.9 28.65 43.45 24.55 46.85 22.3 50.85 19.35 56.15 20.1
L 56.05 20.1
Q 61.05 20.6 64.7 24.35
M 40.85 46.6
Q 41.2 46.9 41.2 47.25 41.2 47.6 40.85 47.85 40.55 48.05 40.15 48 39.7 47.95 39.4 47.6 39.1 47.3 39.1 46.95 39.1 46.65 39.4 46.4 39.7 46.15 40.15 46.25 40.55 46.25 40.85 46.6
M 42.65 42.7
Q 43.05 43.15 43.05 43.6 43.05 44.15 42.65 44.4 42.25 44.65 41.65 44.55 41.05 44.5 40.7 44.1 40.3 43.7 40.3 43.2 40.3 42.7 40.7 42.45 41.05 42.15 41.65 42.25 42.25 42.3 42.65 42.7
M 13.1 41.15
Q 13.15 41.1 13.15 41.95
L 13.15 42 12.6 41.4
Q 12.7 41.4 13.1 41.15
M 30.2 41.3
Q 29.95 41.05 29.95 40.7 29.95 40.4 30.2 40.25 30.5 40.1 30.85 40.15 31.25 40.2 31.5 40.45 31.7 40.65 31.7 41 31.7 41.3 31.5 41.5 31.25 41.65 30.85 41.6 30.5 41.55 30.2 41.3
M 37.7 41.4
Q 38.3 42 38.3 42.7 38.3 43.35 37.7 43.7 37.1 44.15 36.35 44 35.55 43.9 34.95 43.3 34.35 42.75 34.35 42.05 34.35 41.4 34.95 41 35.55 40.65 36.35 40.75 37.1 40.85 37.7 41.4
M 34.35 45
Q 34.75 44.8 35.15 44.85 35.65 44.95 36 45.25 36.35 45.6 36.35 46 36.35 46.4 36 46.6 35.65 46.8 35.15 46.75 34.75 46.7 34.35 46.35 34.05 46.05 34.05 45.65 34.05 45.25 34.35 45 Z"/>

<path fill="#CC6633" stroke="none" d="
M 35.15 44.85
Q 34.75 44.8 34.35 45 34.05 45.25 34.05 45.65 34.05 46.05 34.35 46.35 34.75 46.7 35.15 46.75 35.65 46.8 36 46.6 36.35 46.4 36.35 46 36.35 45.6 36 45.25 35.65 44.95 35.15 44.85
M 38.3 42.7
Q 38.3 42 37.7 41.4 37.1 40.85 36.35 40.75 35.55 40.65 34.95 41 34.35 41.4 34.35 42.05 34.35 42.75 34.95 43.3 35.55 43.9 36.35 44 37.1 44.15 37.7 43.7 38.3 43.35 38.3 42.7
M 29.95 40.7
Q 29.95 41.05 30.2 41.3 30.5 41.55 30.85 41.6 31.25 41.65 31.5 41.5 31.7 41.3 31.7 41 31.7 40.65 31.5 40.45 31.25 40.2 30.85 40.15 30.5 40.1 30.2 40.25 29.95 40.4 29.95 40.7
M 43.05 43.6
Q 43.05 43.15 42.65 42.7 42.25 42.3 41.65 42.25 41.05 42.15 40.7 42.45 40.3 42.7 40.3 43.2 40.3 43.7 40.7 44.1 41.05 44.5 41.65 44.55 42.25 44.65 42.65 44.4 43.05 44.15 43.05 43.6
M 41.2 47.25
Q 41.2 46.9 40.85 46.6 40.55 46.25 40.15 46.25 39.7 46.15 39.4 46.4 39.1 46.65 39.1 46.95 39.1 47.3 39.4 47.6 39.7 47.95 40.15 48 40.55 48.05 40.85 47.85 41.2 47.6 41.2 47.25
M 64.8 24.45
Q 64.75 24.4 64.7 24.35 61.05 20.6 56.05 20.1
L 56.15 20.1
Q 50.85 19.35 46.85 22.3 43.45 24.55 41.9 28.65 41.4 30.05 41.1 31.6 40.75 33.2 41.7 34.6 42.6 35.95 44.25 36.3 45.6396484375 36.560546875 46.85 35.9 47.066015625 35.818359375 47.25 35.7 48.6 34.75 48.95 33.15 49 33 49.05 32.85 49.238671875 31.941015625 49.55 31.2 50.2173828125 29.7541015625 51.4 28.9 51.4 28.85 51.5 28.85 53.05 27.75 55.1 28.05 55.15 28.05 55.2 28.05 57.4 28.3 59.05 30
L 59.1 30.05
Q 61 32 61.45 35.1 61.65 36.7 63 37.75 64.3 38.75 65.95 38.5 66.7021484375 38.4115234375 67.3 38.1 67.3751953125 38.04609375 67.45 38 68.1 37.65 68.6 37 69.6 35.65 69.4 34.05 69.3947265625 34.011328125 69.4 33.95 68.5734375 28.12421875 64.8 24.45
M 127.7 55.9
Q 127.45 56.15 127.45 56.5 127.45 56.9 127.7 57.05 127.95 57.25 128.4 57.2 128.8 57.15 129.15 56.85 129.4 56.6 129.4 56.2 129.4 55.85 129.15 55.7 128.8 55.55 128.4 55.6 127.95 55.65 127.7 55.9
M 124.85 61.65
Q 124.85 61.25 124.5 60.95 124.1 60.75 123.6 60.85 123.1 60.9 122.7 61.2 122.35 61.6 122.35 62 122.35 62.45 122.7 62.7 123.1 62.95 123.6 62.9 124.1 62.8 124.5 62.45 124.85 62.1 124.85 61.65
M 88.1 56.25
Q 86.6 55.25 84.95 56.55 79.5 60.8 72.75 62.45 69.25 63.3 66 61.95 59.8 59.4 58.15 52.4 58 52.4 58 52.45 57.4 56.7 60.85 61.2 65.7 67.6 74.05 65.6 83.6 63.4 88.1 56.25
M 117.35 62.75
Q 117 63.1 117 63.45 117 63.85 117.35 64.1 117.7 64.35 118.15 64.25 118.6 64.2 118.95 63.85 119.3 63.5 119.3 63.1 119.3 62.75 118.95 62.5 118.6 62.25 118.15 62.3 117.7 62.4 117.35 62.75
M 120.85 57
Q 120.15 57.65 120.15 58.4 120.15 59.1 120.85 59.55 121.45 60 122.35 59.85 123.2 59.75 123.9 59.1 124.5 58.45 124.5 57.7 124.5 57 123.9 56.55 123.2 56.15 122.35 56.25 121.45 56.4 120.85 57
M 114.85 59.45
Q 114.85 60 115.3 60.25 115.75 60.55 116.45 60.45 117.05 60.35 117.5 59.95 117.95 59.55 117.95 59 117.95 58.45 117.5 58.1 117.05 57.8 116.45 57.9 115.75 58 115.3 58.4 114.85 58.9 114.85 59.45
M 126.5 43.95
Q 126.3779296875 37.7673828125 123.05 32.7 119.05 26.45 112.05 24.1
L 112 24.05
Q 104.8 21.55 98.2 24.3 91 27.05 87.45 35 87.4 35.1 87.35 35.2 86.5 37.1 87.25 39 88 40.95 89.9 41.8 91.75 42.6 93.7 41.85 94.2017578125 41.65703125 94.6 41.4 95.86875 40.6240234375 96.5 39.25 96.8833984375 38.3658203125 97.35 37.6 99.0775390625 34.7697265625 101.95 33.55 105.2 32.25 108.75 33.55
L 108.85 33.55
Q 112.55 34.8 114.65 38.1
L 114.65 38.15
Q 117.05 41.9 116.4 46.7 116.1 48.7 117.4 50.4 118.65 52 120.7 52.3 122.50078125 52.5701171875 124.05 51.55 124.2306640625 51.474609375 124.4 51.35 126 50.05 126.3 48.05 126.5802734375 45.9421875 126.5 43.95 Z"/>
</g>

<g id="Copia_de_S_mbolo_5_0_Layer0_0_FILL">
<path fill="#CCFF33" stroke="none" d="
M 85.45 64.05
Q 92.85 63.55 109.25 63.55 117.1 63.55 128.75 64.6 139.25 65.55 141.9 66.2 141.3 66.8 137 67.95 133.05 69.05 132.55 69.05
L 132.55 69.35
Q 133.65 69.35 138.05 69.9 143.85 70.55 149.65 71.6 152.6 72.15 154.7 72.65 156.55 71.95 158.85 71.15 167.5 68.2 170.15 66.85 159.35 63.05 148.15 60.55 142.8 59.45 137.2 58.9
L 140.05 61.45
Q 131.7 62.35 120.45 61.7 109.2 61.05 98.95 60.2
L 105.75 57.65
Q 98.45 56.55 90.9 56.7 76.8 57.2 63 60.4
L 68.85 62.6
Q 58.25 67.7 46.2 67.85 37.55 68 28.8 68.25 29.15 68.2 29.5 68.15 29.8 67.95 30.1 67.8 30.6 67.4 31.05 67 31.55 66.6 31.95 66.1 32.3 65.6 32.6 65.05 32.7 64.85 32.8 64.6 19.85 63.25 8.4 69.75 6 71.1 3.6 72.35 7.95 74.7 20.8 76.35 20.75 76.25 20.7 76.15 30.3 72.95 50 72.45 60.6 72.2 78.25 71.95 78.2 71.9 74.95 69.85 71.7 67.85 71.1 67.1 73.65 64.8 85.45 64.05 Z"/>

<path fill="#FFFF00" stroke="none" d="
M 106 64.7
L 106.8 64.7
Q 107.7 64.75 120.6 65.3 130.8 65.75 131.65 66.05 130.45 66.8 129.45 67.45 127.5 68.8 127.5 69.5 127.5 70.6 130.55 71.15 134.5 71.8 134.8 71.95 133.95 72 132.75 72.55 132.9 73.2 137.65 73.45 142.35 73.7 146 73.8 149.65 73.8 152.25 73.5 152.45 73.45 152.65 73.45 153.05 73.3 153.5 73.15 154.05 72.9 154.7 72.65 152.6 72.15 149.65 71.6 143.85 70.55 138.05 69.9 133.65 69.35 132.55 69.35
L 132.55 69.05
Q 133.05 69.05 137 67.95 141.3 66.8 141.9 66.2 139.25 65.55 128.75 64.6 117.1 63.55 109.25 63.55 92.85 63.55 85.45 64.05 73.65 64.8 71.1 67.1 71.7 67.85 74.95 69.85 78.2 71.9 78.25 71.95 60.6 72.2 50 72.45 30.3 72.95 20.7 76.15 20.75 76.25 20.8 76.35 23.9 76.75 27.45 77.1 28.95 75.85 33.1 75.05 37.1 74.3 41.65 74.3 43.45 74.3 47.45 74.9 51.4 75.5 52.9 75.5 53.55 75.5 57.85 75.95 59.25 75.95 59.45 75 59.7 73.85 61.45 73.45 62.3 73.3 64 73.3 66.3 73.3 67.3 73.25 69.75 73.1 77.65 73.1 84.35 72.85 84.45 71.15 81.95 70.5 80 69.9 76.2 68.7 76.2 67.6 76.2 66.85 83.15 66.35 88.9 65.9 93.4 65.9 93.8 65.9 96.1 66.05
L 96.25 66.05
Q 95.55 67.1 95.55 67.35 95.55 68.1 96.35 68.3 96.85 68.45 98.2 68.45 98.246875 68.45 98.35 68.45 98.25 68.453125 98.25 68.5 98.6 68.7 104.65 68 107.9 67.55 108 67.5 109.55 67.2 109.8 66.8 109.6 66.35 108.15 65.7 106.55 65.1 106 64.85
L 106 64.7
M 94.7 88.85
Q 95.05 88.85 97.8 88.5 95.05 87.2 93.7 86.8 92.67578125 86.4849609375 91.55 86.25 89.05859375 86.3810546875 85 87.15 80.3 88.05 80.15 88.05 83.65 88.8 88.8 88.9 91.55 88.95 94.7 88.85
M 81.15 81.85
Q 81.3 81.9 83.5 81.9 87.33671875 81.9 92.45 80.65 86.7203125 80.4 83.85 80.4
L 80 80.55
Q 80 80.7 79.8 81.2 80.7 81.65 81.15 81.85
M 112.65 72.7
Q 113.75 72.5 116.15 71.85 109.1 71.1 104.7 71.1 101.7 71.1 97.15 71.65 95.451171875 71.8623046875 94.25 72.05 95.646875 72.210546875 97.45 72.45 103.15 73.2 105.6 73.2 109.7 73.2 112.65 72.7
M 85.4 76.55
Q 87.5060546875 76.7763671875 90.2 77.15 97 78.05 98.8 78.05 100.55 78.05 103.05 77.2 105.5 76.35 105.6 76.35
L 105.35 76.35
Q 94.65 76.05 94.25 76.05 90.4572265625 76.05 85.4 76.55
M 112.6 74.95
Q 114.5619140625 75.2853515625 117.25 75.85 123.2 77.1 125.1 77.1 127.6 77.1 131.95 76.2 134.2 75.75 137.25 75 135.25 74.85 128.35 74.7 122.9 74.6 121.5 74.6 116.182421875 74.6 112.6 74.95
M 98.6 80.7
Q 98.85 80.7 101.05 80.95 103.3 81.2 105.45 81.2 111.1 81.2 115.2 80.45 119.3 79.7 120.5 78.45
L 109.9 78.4
Q 109.2267578125 78.5234375 108.5 78.65 107.03828125 78.8984375 105.45 79.25 99.1 80.7 98.6 80.7
M 135.85 79.4
Q 135.0400390625 79.4263671875 134.3 79.45 130.10625 79.583203125 128.15 79.6 127.1685546875 79.65 126.75 79.65
L 126.75 79.8
Q 128.75 80.8 133.15 81 133.55 81 140.85 81 145 81 146.9 80.65 148.2 80.45 149.9 79.65
L 149.7 79.5
Q 148.8 79.5 145.6 79.3 145.5685546875 79.298046875 145.55 79.3 143.90546875 79.1943359375 143.1 79.15 140.5255859375 79.2166015625 135.85 79.4
M 115.45 83.95
Q 115.04765625 83.9654296875 114.65 83.95 112.3861328125 84.1490234375 109.7 84.35 109.56015625 84.3865234375 109.4 84.4 98.15 85.35 97.95 85.35 99.05 85.35 104 86 108.95 86.6 111.15 86.6 118.8 86.6 127.35 85.4 131.6 84.75 135.3 84.15
L 135.3 84
Q 131.248046875 83.759375 128 83.7 127.2412109375 83.7 126.5 83.7 121.55 83.7 115.45 83.95
M 102.35 93.55
Q 103.3318359375 93.6525390625 104.6 93.75 110.45 94.1 114 94.1 117.95 94.1 124.9 92.9 130.35 91.95 132.35 91.35
L 132.35 91.1 129.6 90.95
Q 128.20859375 90.95 125.55 91.15 123.917578125 91.2591796875 121.8 91.45 119.2322265625 91.68125 117.1 91.8 115.3515625 92.0390625 113.15 92.35 105.4458984375 93.43203125 102.35 93.55 Z"/>

<path fill="#669900" stroke="none" d="
M 170.5 31.4
Q 170.1 30.95 169.65 30.5 164.75 25.55 162.35 25.55 157.5 25.55 153.9 29.7 153.75 29.85 153.6 30.05 151.5 32.55 147.9 39.9 144.4 46.95 141.85 49.75 137.8 54.25 132.1 54.25 128.2 54.25 123.7 49.1 123.1 48.4 122.5 47.65 122.05 47 121.7 46.45 118 41 117.4 41 115.15 41 112.65 43 111.65 43.85 108.05 47.5 106.7 48.85 105.4 49.95 100.45 53.95 96.1 53.95 93 53.95 88.6 50.15 87.15 48.9 85.55 47.2 79.2 40.4 74.55 40.4 71.5 40.4 66.8 45.05 65.8 46.05 64.75 47.2 58.7 53.95 54.05 53.95 49.15 53.95 45 46.65 43.4 43.8 40.55 36.75 39.45 33.95 38.15 30.55 33.85 19.15 30.8 14.4 26.05 7.1 20.2 7.1 13.8 7.1 6.5 16.75 4.55 19.35 3.05 22.05 0 32.55 0 46.95 0 52.75 1.2 63.1 1.7 67.85 3.05 72.05 3.3 72.2 3.6 72.35 6 71.1 8.4 69.75 19.85 63.25 32.8 64.6 32.7 64.85 32.6 65.05 32.3 65.6 31.95 66.1 31.55 66.6 31.05 67 30.6 67.4 30.1 67.8 29.8 67.95 29.5 68.15 29.15 68.2 28.8 68.25 37.55 68 46.2 67.85 58.25 67.7 68.85 62.6
L 63 60.4
Q 76.8 57.2 90.9 56.7 98.45 56.55 105.75 57.65
L 98.95 60.2
Q 109.2 61.05 120.45 61.7 131.7 62.35 140.05 61.45
L 137.2 58.9
Q 142.8 59.45 148.15 60.55 159.35 63.05 170.15 66.85 170.7 66.55 171 66.35 171.1 66.2 171.15 66.05
L 172.3 63.85
Q 172.6 63.1 172.9 62.35 174.75 57.45 174.75 51.75 174.75 41.7 170.7 31.85 170.6 31.6 170.5 31.4 Z"/>

<path fill="#B1DE00" stroke="none" d="
M 169.65 30.5
Q 170.1 30.95 170.5 31.4 165.75 20.2 158.8 20.2 153.05 20.2 148.8 24.95 145.8 28.25 142.65 35.35 138.55 44.5 137.8 45.75 135.05 50.5 131.8 50.5 128.65 50.5 127.05 48.3 126.05 46.9 125.2 43.45 124.35 39.8 123.55 38.55 122.2 36.35 119.45 36.35 114.8 36.35 107.25 44.25 99.75 52.1 96.7 52.1 92.65 52.1 86 43.25 79.35 34.35 77.5 34.35 70.95 34.35 65.1 41.2 62.05 44.7 60.55 45.85 57.75 48 54.25 48 48.2 48 45.1 40.5 43.6 36.95 40.95 24 38.6 12.5 35.6 7.5 31.2 0 22.95 0 14.05 0 7.6 11.1 4.8 15.9 3.05 22.05 4.55 19.35 6.5 16.75 13.8 7.1 20.2 7.1 26.05 7.1 30.8 14.4 33.85 19.15 38.15 30.55 39.45 33.95 40.55 36.75 43.4 43.8 45 46.65 49.15 53.95 54.05 53.95 58.7 53.95 64.75 47.2 65.8 46.05 66.8 45.05 71.5 40.4 74.55 40.4 79.2 40.4 85.55 47.2 87.15 48.9 88.6 50.15 93 53.95 96.1 53.95 100.45 53.95 105.4 49.95 106.7 48.85 108.05 47.5 111.65 43.85 112.65 43 115.15 41 117.4 41 118 41 121.7 46.45 122.05 47 122.5 47.65 123.1 48.4 123.7 49.1 128.2 54.25 132.1 54.25 137.8 54.25 141.85 49.75 144.4 46.95 147.9 39.9 151.5 32.55 153.6 30.05 153.75 29.85 153.9 29.7 157.5 25.55 162.35 25.55 164.75 25.55 169.65 30.5 Z"/>

<path fill="url(#Gradient_4)" stroke="none" d="
M 184.85 88.15
Q 184.85 85.4 170.5 81.8 153.3 77.95 147.45 76.25 147.85 75.35 152.65 73.45 152.45 73.45 152.25 73.5 149.65 73.8 146 73.8 142.35 73.7 137.65 73.45 132.9 73.2 132.75 72.55 133.95 72 134.8 71.95 134.5 71.8 130.55 71.15 127.5 70.6 127.5 69.5 127.5 68.8 129.45 67.45 130.45 66.8 131.65 66.05 130.8 65.75 120.6 65.3 107.7 64.75 106.8 64.7
L 106 64.7 106 64.85
Q 106.55 65.1 108.15 65.7 109.6 66.35 109.8 66.8 109.55 67.2 108 67.5 107.9 67.55 104.65 68 98.6 68.7 98.25 68.5
L 98.2 68.5 98.2 68.45
Q 96.85 68.45 96.35 68.3 95.55 68.1 95.55 67.35 95.55 67.1 96.25 66.05
L 96.1 66.05
Q 93.8 65.9 93.4 65.9 88.9 65.9 83.15 66.35 76.2 66.85 76.2 67.6 76.2 68.7 80 69.9 81.95 70.5 84.45 71.15 84.35 72.85 77.65 73.1 69.75 73.1 67.3 73.25 66.3 73.3 64 73.3 62.3 73.3 61.45 73.45 59.7 73.85 59.45 75 59.25 75.95 57.85 75.95 53.55 75.5 52.9 75.5 51.4 75.5 47.45 74.9 43.45 74.3 41.65 74.3 37.1 74.3 33.1 75.05 28.95 75.85 27.45 77.1 29.25 77.3 31.2 77.45 39.4 78.2 56.9 79.55 71.95 80.9 79.8 82.35 78.5 84.45 66.05 88.35 51.55 92.9 50.5 93.45 50.5 93.95 50 93.95 52.65 94.8 69.1 96.3 92.4 98.5 117.95 98.5 153.25 98.5 170.2 95.45 184.85 92.85 184.85 88.15
M 104.6 93.75
Q 103.3318359375 93.6525390625 102.35 93.55 105.4458984375 93.43203125 113.15 92.35 115.3515625 92.0390625 117.1 91.8 119.2322265625 91.68125 121.8 91.45 123.917578125 91.2591796875 125.55 91.15 128.20859375 90.95 129.6 90.95
L 132.35 91.1 132.35 91.35
Q 130.35 91.95 124.9 92.9 117.95 94.1 114 94.1 110.45 94.1 104.6 93.75
M 114.65 83.95
Q 115.04765625 83.9654296875 115.45 83.95 121.55 83.7 126.5 83.7 127.2412109375 83.7 128 83.7 131.248046875 83.759375 135.3 84
L 135.3 84.15
Q 131.6 84.75 127.35 85.4 118.8 86.6 111.15 86.6 108.95 86.6 104 86 99.05 85.35 97.95 85.35 98.15 85.35 109.4 84.4 109.56015625 84.3865234375 109.7 84.35 112.3861328125 84.1490234375 114.65 83.95
M 134.3 79.45
Q 135.0400390625 79.4263671875 135.85 79.4 140.5255859375 79.2166015625 143.1 79.15 143.90546875 79.1943359375 145.55 79.3 145.5685546875 79.298046875 145.6 79.3 148.8 79.5 149.7 79.5
L 149.9 79.65
Q 148.2 80.45 146.9 80.65 145 81 140.85 81 133.55 81 133.15 81 128.75 80.8 126.75 79.8
L 126.75 79.65
Q 127.1685546875 79.65 128.15 79.6 130.10625 79.583203125 134.3 79.45
M 101.05 80.95
Q 98.85 80.7 98.6 80.7 99.1 80.7 105.45 79.25 107.03828125 78.8984375 108.5 78.65 109.2267578125 78.5234375 109.9 78.4
L 120.5 78.45
Q 119.3 79.7 115.2 80.45 111.1 81.2 105.45 81.2 103.3 81.2 101.05 80.95
M 117.25 75.85
Q 114.5619140625 75.2853515625 112.6 74.95 116.182421875 74.6 121.5 74.6 122.9 74.6 128.35 74.7 135.25 74.85 137.25 75 134.2 75.75 131.95 76.2 127.6 77.1 125.1 77.1 123.2 77.1 117.25 75.85
M 90.2 77.15
Q 87.5060546875 76.7763671875 85.4 76.55 90.4572265625 76.05 94.25 76.05 94.65 76.05 105.35 76.35
L 105.6 76.35
Q 105.5 76.35 103.05 77.2 100.55 78.05 98.8 78.05 97 78.05 90.2 77.15
M 116.15 71.85
Q 113.75 72.5 112.65 72.7 109.7 73.2 105.6 73.2 103.15 73.2 97.45 72.45 95.646875 72.210546875 94.25 72.05 95.451171875 71.8623046875 97.15 71.65 101.7 71.1 104.7 71.1 109.1 71.1 116.15 71.85
M 83.5 81.9
Q 81.3 81.9 81.15 81.85 80.7 81.65 79.8 81.2 80 80.7 80 80.55
L 83.85 80.4
Q 86.7203125 80.4 92.45 80.65 87.33671875 81.9 83.5 81.9
M 97.8 88.5
Q 95.05 88.85 94.7 88.85 91.55 88.95 88.8 88.9 83.65 88.8 80.15 88.05 80.3 88.05 85 87.15 89.05859375 86.3810546875 91.55 86.25 92.67578125 86.4849609375 93.7 86.8 95.05 87.2 97.8 88.5 Z"/>
</g>
</defs>

<g transform="matrix( 1, 0, 0, 1, 0,0) ">
<use xlink:href="#Layer0_0_FILL"/>
</g>

<g transform="matrix( 0.6737823486328125, 0, 0, 0.719696044921875, 243.65,111.35) ">
<g transform="matrix( 1, 0, 0, 1, 0,0) ">
<use xlink:href="#S_mbolo_2_0_Layer0_0_FILL"/>
</g>
</g>

<g transform="matrix( 0.8416900634765625, 0, 0, 0.8990936279296875, 261.05,133.9) ">
<g transform="matrix( 1, 0, 0, 1, 0,0) ">
<use xlink:href="#Copia_de_S_mbolo_1_0_Layer0_0_FILL"/>
</g>
</g>

<g transform="matrix( 2.3553314208984375, 0, 0, 2.3553314208984375, 68.3,117.05) ">
<g transform="matrix( 1, 0, 0, 1, 0,0) ">
<use xlink:href="#Copia_de_S_mbolo_5_0_Layer0_0_FILL"/>
</g>
</g>
</svg>
