
<svg xmlns="http://www.w3.org/2000/svg" version="1.1" xmlns:xlink="http://www.w3.org/1999/xlink" preserveAspectRatio="none" x="0px" y="0px" width="550px" height="400px" viewBox="0 0 550 400">
<defs>
<g id="Layer0_0_FILL">
<path fill="#000000" stroke="none" d="
M 195.1 168.2
Q 182.35 171.85 173.85 182.3 166.1 191.95 160.75 203.35 154.55 217 152.75 232.3 152.2 237.45 154 242.15
L 155.1 241.4
Q 155.75 237.7 156.3 234 158.1 222.45 163.85 212.15 169.65 202 180.5 197.65 190.9 193.35 202.05 193.85 213.05 194.9 221.45 201.75 229.6 208.35 234.85 217.25 236.25 219.55 237.7 221.8 241.3 227.1 243.75 232.95 243.25 229.55 242.8 226.05 241.15 215.25 237.55 205.05 234.85 197.8 231.4 190.85 227.25 182.6 221.1 175.8 215.45 169.6 207.25 167.8 201.1 166.5 195.1 168.2
M 183.95 84.2
Q 176.3 81.35 165.2 88.45 154.05 95.65 146.4 108.35 137.8 122.4 137.8 137.05 137.8 138.55 139.6 142.6 141.85 147.6 144.45 147.6 144.75 147.6 168.6 125.15 192.5 102.6 192.5 102.1 192.5 87.35 183.95 84.2
M 406.5 294.65
Q 425.65 275.7 434.2 252.15 439.6 237.4 439.6 226.4 439.6 196.5 431.35 186.25 417.9 169.75 385.95 215.75 383.8 218.9 381.5 221.95 366.4 241.9 338.85 262.35 311.2 282.8 264.5 287.4 236.3 290 209.35 287.25 181.35 282.7 164 272.85 146.6 263 138.4 256.2 130.95 249.5 134.65 253 133.8 252.25 132.8 251.45 121.75 242.15 114.65 234.95 109.8 229.55 117.35 242.25 121.15 248.55 122.45 250.65 111.3 266.3 111.25 266.7 110.35 268.65 110.35 271.4 110.35 271.55 110.4 272.35 110.75 274.95 111 277.6 111.65 288.45 115.35 298.65 118.65 307.85 124.55 315.5 125.15 316.35 125.8 317.05 153.15 352.2 214.8 352.2 323.1 352.2 381.5 314.7 395.35 305.75 406.5 294.65
M 407.6 206.75
Q 405.9 215.3 405.9 221.3 405.9 224.35 407.7 226.7 403.1 230.5 397.25 236.15 388.2 245.15 381.5 251.3 375.6 256.55 371.65 259.7 376.6 259.7 381.5 258.15 391.8 254.75 401.9 244.25 407.7 238.2 411.4 232.45 412.05 231.5 412.7 230.45 412.95 230.5 413.2 230.7 419.55 233.35 431.6 233.35 431.8 233.35 432 233.35 429.75 259.6 411.4 280.7 399.55 294.25 381.5 305.25 371 311.55 358.5 316.95 327.95 330.3 288.1 337.25 252 343.4 214.8 343.4 159.55 343.4 133.8 313.35 129.35 308.15 126.1 302.35 130.45 300.95 131.85 300.5 144.95 295.9 145.55 293.7 150.9 299.45 158.6 306.85 169.5 317.45 171.6 317.45 173.95 317.45 174.75 316.55 175.4 315.45 175.8 314.85 170.7 308.65 159.7 301.7 148.75 294.65 147.1 293.15 145.4 291.5 144.7 290.95 143.9 290.4 139.45 282.95 134.85 274.95 133.6 270.45 133.15 268.75 133.15 267.1 133.15 265.5 135.95 262.05 136.45 261.45 136.75 261.05 140 263.65 141.8 265.25 150.6 273.25 160.7 278.6 190.5 294.35 244.3 294.35 298.95 294.35 340.85 270.6 369.25 253 387.1 227.1 399.55 210.65 408.5 202.4 408.1 204.4 407.6 206.75
M 343.45 159.1
Q 341.35 159.25 339.35 159.75 337.25 159.9 335.2 160.55 328.35 162.5 322.2 166.3 309.35 174.35 300.45 186.7 297.3 191.15 294.65 195.95 292.45 199.8 290.45 203.55 287.85 208.55 287.4 214.2 287.3 215.9 287.2 217.65 287.6 216.8 288.1 216.05 290.35 211.95 293.2 208.15 295.8 204.75 298.35 201.45 300.7 198.6 303.15 195.75 303.7 195.05 304.35 194.5 306.35 192.45 308.45 190.6 318 181.85 330.05 177.35 342.1 172.8 354.35 176.45 367.6 180.35 378.05 192.15 384.25 199.75 385 201.75 384.9 199.3 382.25 192.3 379.5 185.25 376.5 180.1 373.45 174.9 371 171.85 368.5 168.7 365.9 166.75 363.5 164.8 360.75 163.45 358.95 162.5 357.2 161.65 355.35 160.95 353.4 160.45 350.5 159.75 347.5 159.15 345.5 159.1 343.45 159.1
M 390.65 91.95
Q 390.65 70.7 377.9 58.9 366.9 48.7 349.85 47.9 333.9 47.15 321.8 54.55 309.05 62.2 309.05 74 309.05 79.8 317.85 82.4 324.3 84.35 351.8 89.6 356.15 90.55 370.3 99.35 377.25 103.75 383.85 107.85 389.2 107.85 390.4 100.65 390.65 99.45 390.65 91.95 Z"/>

<path fill="#FFFFFF" stroke="none" d="
M 412.7 230.45
Q 412.05 231.5 411.4 232.45 407.7 238.2 401.9 244.25 391.8 254.75 381.5 258.15 365.2 270.05 346.6 279.55 320.65 292.8 293.7 300 266.2 307.3 234.6 308.5 202.95 309.7 176.5 298 150 286.25 133.6 270.45 134.85 274.95 139.45 282.95 143.9 290.4 144.7 290.95 145.4 291.5 147.1 293.15 148.75 294.65 159.7 301.7 170.7 308.65 175.8 314.85 175.4 315.45 174.75 316.55 173.95 317.45 171.6 317.45 169.5 317.45 158.6 306.85 150.9 299.45 145.55 293.7 144.95 295.9 131.85 300.5 130.45 300.95 126.1 302.35 129.35 308.15 133.8 313.35 159.55 343.4 214.8 343.4 252 343.4 288.1 337.25 327.95 330.3 358.5 316.95 371 311.55 381.5 305.25 399.55 294.25 411.4 280.7 429.75 259.6 432 233.35 431.8 233.35 431.6 233.35 419.55 233.35 413.2 230.7 412.95 230.5 412.7 230.45 Z"/>

<path fill="#CCCCCC" stroke="none" d="
M 405.9 221.3
Q 405.9 215.3 407.6 206.75 408.1 204.4 408.5 202.4 399.55 210.65 387.1 227.1 369.25 253 340.85 270.6 298.95 294.35 244.3 294.35 190.5 294.35 160.7 278.6 150.6 273.25 141.8 265.25 140 263.65 136.75 261.05 136.45 261.45 135.95 262.05 133.15 265.5 133.15 267.1 133.15 268.75 133.6 270.45 150 286.25 176.5 298 202.95 309.7 234.6 308.5 266.2 307.3 293.7 300 320.65 292.8 346.6 279.55 365.2 270.05 381.5 258.15 376.6 259.7 371.65 259.7 375.6 256.55 381.5 251.3 388.2 245.15 397.25 236.15 403.1 230.5 407.7 226.7 405.9 224.35 405.9 221.3 Z"/>
</g>
</defs>

<g transform="matrix( 1, 0, 0, 1, 0,0) ">
<use xlink:href="#Layer0_0_FILL"/>
</g>
</svg>
