
<svg xmlns="http://www.w3.org/2000/svg" version="1.1" xmlns:xlink="http://www.w3.org/1999/xlink" preserveAspectRatio="none" x="0px" y="0px" width="550px" height="400px" viewBox="0 0 550 400">
<defs>
<radialGradient id="Gradient_1" gradientUnits="userSpaceOnUse" cx="0" cy="0" r="392.3250000000001" fx="0" fy="0" gradientTransform="matrix( 0.9999999999999998, 0, 0, 0.9999999999999998, 229.95,211.05) " spreadMethod="pad">
<stop  offset="45.09803921568628%" stop-color="#FF3333"/>

<stop  offset="100%" stop-color="#AD002B"/>
</radialGradient>

<radialGradient id="Gradient_2" gradientUnits="userSpaceOnUse" cx="0" cy="0" r="10.063998335651707" fx="0" fy="0" gradientTransform="matrix( 0.8657096026274145, 0.50054658516334, -0.7713137205618715, 1.3352049107955102, 169.85,314.45) " spreadMethod="pad">
<stop  offset="32.94117647058823%" stop-color="#989898"/>

<stop  offset="75.29411764705883%" stop-color="#4D4D4D"/>

<stop  offset="100%" stop-color="#000000"/>
</radialGradient>

<linearGradient id="Gradient_3" gradientUnits="userSpaceOnUse" x1="171.6" y1="310.1875" x2="169.70000000000002" y2="315.3125" spreadMethod="pad">
<stop  offset="0%" stop-color="#E9E9E9"/>

<stop  offset="100%" stop-color="#B8B8B8"/>
</linearGradient>

<radialGradient id="Gradient_4" gradientUnits="userSpaceOnUse" cx="0" cy="0" r="10.063998335651682" fx="0" fy="0" gradientTransform="matrix( 0.8657096026274166, 0.5005465851633413, -0.7713137205618734, 1.3352049107955135, 368.75,314.45) " spreadMethod="pad">
<stop  offset="32.94117647058823%" stop-color="#989898"/>

<stop  offset="75.29411764705883%" stop-color="#4D4D4D"/>

<stop  offset="100%" stop-color="#000000"/>
</radialGradient>

<linearGradient id="Gradient_5" gradientUnits="userSpaceOnUse" x1="370.5" y1="310.1875" x2="368.6" y2="315.3125" spreadMethod="pad">
<stop  offset="0%" stop-color="#E9E9E9"/>

<stop  offset="100%" stop-color="#B8B8B8"/>
</linearGradient>

<linearGradient id="Gradient_6" gradientUnits="userSpaceOnUse" x1="225.88750000000002" y1="281.1625" x2="230.2125" y2="89.4375" spreadMethod="pad">
<stop  offset="0%" stop-color="#E9E9E9"/>

<stop  offset="100%" stop-color="#B8B8B8"/>
</linearGradient>

<linearGradient id="Gradient_7" gradientUnits="userSpaceOnUse" x1="427.5625" y1="268.21250000000003" x2="433.73749999999995" y2="214.38750000000002" spreadMethod="pad">
<stop  offset="0%" stop-color="#E9E9E9"/>

<stop  offset="100%" stop-color="#B8B8B8"/>
</linearGradient>

<linearGradient id="Gradient_8" gradientUnits="userSpaceOnUse" x1="365.5" y1="162.3875" x2="363" y2="137.5125" spreadMethod="pad">
<stop  offset="0%" stop-color="#FFFFFF" stop-opacity="0.13725490196078433"/>

<stop  offset="100%" stop-color="#FFFFFF" stop-opacity="0.4196078431372549"/>
</linearGradient>

<linearGradient id="Gradient_9" gradientUnits="userSpaceOnUse" x1="404.675" y1="161.7875" x2="395.02500000000003" y2="137.7125" spreadMethod="pad">
<stop  offset="0%" stop-color="#FFFFFF" stop-opacity="0.13725490196078433"/>

<stop  offset="100%" stop-color="#FFFFFF" stop-opacity="0.4196078431372549"/>
</linearGradient>

<g id="Layer5_0_FILL">
<path fill="url(#Gradient_1)" stroke="none" d="
M -7.5 -10.05
L -7.5 402.05 551.6 402.05 551.6 -10.05 -7.5 -10.05 Z"/>
</g>

<g id="Layer4_0_FILL">
<path fill="#990000" stroke="none" d="
M 437.2 330.4
Q 428.5 328.65 416.4 326.1 408.35 324.4 401.65 322.95 346.65 323.1 298.3 323.15 184.1 323.25 158.15 322.8 150.45 322.75 150.45 322.5 114.65 322.35 96.85 322.25 94.95 324 92.65 326.2 89.9 328.85 87.85 330.9 94 331 100.85 331.1 136.7 331.65 183 331.85 253.3 332.15 319.9 331.4 383.8 330.75 437.2 330.4 Z"/>
</g>

<g id="Layer3_0_FILL">
<path fill="#000000" stroke="none" d="
M 189.65 312.45
Q 190.7 308.4 189.95 305.15 189.65 303.75 189 302.55 186.85 298.5 182.3 298.4 182.2 298.4 182.15 298.4 177.5 298.4 173.1 302.55 168.65 306.65 167.1 312.45 165.55 318.3 167.75 322.35 169.95 326.5 174.6 326.5 179.2 326.5 183.7 322.35 188.05 318.3 189.65 312.45
M 367.9 298.4
Q 367.8 298.4 367.75 298.4 363.1 298.4 358.7 302.55 354.25 306.65 352.7 312.45 351.15 318.3 353.35 322.35 355.55 326.5 360.2 326.5 364.8 326.5 369.3 322.35 373.65 318.3 375.25 312.45 376.3 308.4 375.55 305.15 375.25 303.75 374.6 302.55 372.45 298.5 367.9 298.4
M 152.15 301.2
Q 152.15 303.9185546875 153.3 305.25
L 159.15 305.55
Q 160.0580078125 298.2244140625 166.25 295.5 170.75 293.55 181.85 293.55 183.8224609375 293.55 185.6 293.55 185.6 293.45703125 185.6 293.35 185.6 291.9 184.4 290.25 182.6 287.8 179.25 287.8 168.45 287.8 160.4 291.7 152.15 295.65 152.15 301.2
M 418.65 281.45
Q 418.65 269 416.25 264.05 411.3 253.85 394.95 253.85 383.1 253.85 372.45 260.6 363.62734375 266.1845703125 361.3 272 364.4515625 271.0474609375 367.75 270.25 375.9 268.25 380.1 268.25 392.75 268.25 398.85 277.85 403.65 285.45 403.65 297.3 403.65 300.230859375 403.05 304.05
L 411.9 304.05
Q 414.9267578125 299.45234375 415.75 297.6 418.65 290.9 418.65 281.45 Z"/>
</g>

<g id="Layer2_0_FILL">
<path fill="url(#Gradient_2)" stroke="none" d="
M 158.6 314.45
Q 157.05 320.3 159.25 324.35 161.45 328.5 166.1 328.5 170.75 328.5 175.2 324.35 179.6 320.3 181.15 314.45 182.65 308.65 180.5 304.55 178.3 300.4 173.65 300.4 169 300.4 164.6 304.55 160.15 308.65 158.6 314.45
M 167.85 309.3
Q 169.75 307.8 171.65 307.8 171.9 307.8 172.1 307.8 173.95 307.95 174.9 309.7 176.05 311.7 175.25 314.45 174.95 315.5 174.55 316.45 173.7 317.95 172.5 319.15 172.5 319.25 172.4 319.25 170.75 320.8 169.15 321.1 168.65 321.2 168.15 321.2 166.25 321.2 165.25 319.85 165 319.55 164.85 319.25 163.9 317.4 164.55 315 164.55 314.7 164.6 314.45 164.95 313.15 165.6 312 166.25 310.7 167.3 309.7 167.6 309.45 167.85 309.3 Z"/>

<path fill="#666666" stroke="none" d="
M 171.65 307.8
Q 169.75 307.8 167.85 309.3 167.6 309.45 167.3 309.7 166.25 310.7 165.6 312 164.95 313.15 164.6 314.45 164.55 314.7 164.55 315 163.9 317.4 164.85 319.25 165 319.55 165.25 319.85 166.25 321.2 168.15 321.2 168.65 321.2 169.15 321.1 170.75 320.8 172.4 319.25 172.5 319.25 172.5 319.15 173.7 317.95 174.55 316.45 174.95 315.5 175.25 314.45 176.05 311.7 174.9 309.7 173.95 307.95 172.1 307.8 171.9 307.8 171.65 307.8
M 171.3 309.05
Q 171.5 309.05 171.65 309.05 173.15 309.15 173.95 310.6 174.8 312.2 174.25 314.45 174 315.3 173.65 316.1 172.95 317.3 171.95 318.25 171.95 318.3 171.9 318.3 170.55 319.55 169.25 319.85 168.85 319.95 168.4 319.95 166.9 319.95 166.1 318.85 165.9 318.65 165.75 318.3 165 316.85 165.45 314.85 165.45 314.7 165.55 314.45 165.85 313.4 166.4 312.45 166.9 311.45 167.75 310.6 168 310.45 168.15 310.2 169.75 309.05 171.3 309.05
M 170.55 312.45
Q 170.45 312.45 170.35 312.45 169.7 312.45 169 313 168.65 313.35 168.45 313.7 168.25 314.15 168.15 314.55
L 168.15 314.6
Q 167.95 315.3 168.25 316 168.3 316.05 168.4 316.15 168.6 316.45 169 316.6 169.15 316.6 169.25 316.6 169.95 316.6 170.55 316 170.55 315.95 170.7 315.85 171.05 315.5 171.15 315.15 171.35 314.8 171.5 314.55 171.5 314.45 171.55 314.45 171.7 313.65 171.35 313 171.3 312.9 171.3 312.85 171 312.5 170.55 312.45
M 168.85 313.9
Q 168.95 313.65 169.25 313.4 169.7 313 170.15 313
L 170.25 313
Q 170.65 313.05 170.85 313.3 170.85 313.35 170.85 313.4 171.15 313.9 171 314.45 170.85 314.7 170.75 314.9 170.7 315.2 170.45 315.45 170.35 315.5 170.25 315.5 169.85 315.95 169.4 315.95 169.3 315.95 169.25 315.95 168.95 315.85 168.85 315.6 168.7 315.55 168.65 315.5 168.45 315.1 168.6 314.55
L 168.6 314.45
Q 168.65 314.2 168.85 313.9
M 370.55 307.8
Q 368.6 307.8 366.7 309.3 366.45 309.45 366.15 309.7 365.15 310.7 364.5 312 363.85 313.15 363.5 314.45 363.45 314.7 363.45 315 362.8 317.4 363.75 319.25 363.9 319.55 364.15 319.85 365.15 321.2 367 321.2 367.55 321.2 368 321.1 369.6 320.8 371.25 319.25 371.4 319.25 371.4 319.15 372.55 317.95 373.4 316.45 373.85 315.5 374.15 314.45 374.95 311.7 373.8 309.7 372.8 307.95 370.95 307.8 370.8 307.8 370.55 307.8
M 370.15 309.05
Q 370.4 309.05 370.55 309.05 372 309.15 372.8 310.6 373.7 312.2 373.1 314.45 372.85 315.3 372.55 316.1 371.85 317.3 370.85 318.25 370.85 318.3 370.8 318.3 369.45 319.55 368.15 319.85 367.75 319.95 367.3 319.95 365.8 319.95 365 318.85 364.8 318.65 364.6 318.3 363.9 316.85 364.35 314.85 364.35 314.7 364.45 314.45 364.75 313.4 365.3 312.45 365.8 311.45 366.65 310.6 366.9 310.45 367.05 310.2 368.6 309.05 370.15 309.05
M 370.25 313
Q 370.15 312.9 370.15 312.85 369.9 312.5 369.4 312.45 369.35 312.45 369.25 312.45 368.55 312.45 367.9 313 367.55 313.35 367.35 313.7 367.15 314.15 367 314.55
L 367 314.6
Q 366.85 315.3 367.15 316 367.2 316.05 367.3 316.15 367.5 316.45 367.9 316.6 368 316.6 368.15 316.6 368.8 316.6 369.4 316 369.45 315.95 369.6 315.85 369.95 315.5 370.05 315.15 370.25 314.8 370.4 314.55
L 370.4 314.45
Q 370.6 313.65 370.25 313
M 369.75 313.3
Q 369.75 313.35 369.75 313.4 370.05 313.9 369.9 314.45 369.75 314.7 369.6 314.9 369.6 315.2 369.35 315.45 369.25 315.5 369.15 315.5 368.75 315.95 368.3 315.95 368.2 315.95 368.15 315.95 367.85 315.85 367.75 315.6 367.6 315.55 367.55 315.5 367.35 315.1 367.5 314.55
L 367.5 314.45
Q 367.55 314.2 367.75 313.9 367.85 313.65 368.15 313.4 368.55 313 369.05 313
L 369.15 313
Q 369.55 313.05 369.75 313.3
M 342 175.7
Q 340.8 175.6 340.35 175.6 339.2 175.6 338.85 175.6 338.5 175.6 338.15 175.7 337.95 175.7 337.85 175.7 337.85 175.85 337.85 176 337.65 176.95 337.5 178.2 337.2 180.5 337.05 181.8 337 181.95 337 182.1 337.2 182.05 337.45 182 337.55 182 339.05 182
L 342.15 182.05 342.15 182.1 342.2 182.05 348.55 182.1 349.05 175.6 347.55 175.6
Q 346.3 175.7 345.05 175.7
L 342 175.7
M 342.6 176.6
Q 342.6 176.45 342.6 176.15 343.95 176.1 346.8 175.95 347.45 175.95 348.15 175.9 348.25 175.9 348.4 175.9 348.25 177.65 348.15 180.3 348.1 181 348.05 181.8 347.25 181.8 346.8 181.75
L 342.15 181.8
Q 342.25 180.45 342.3 180.3 342.45 178.5 342.55 177.55 342.55 177.3 342.6 177.1 342.6 176.75 342.6 176.6
M 388.85 135.3
Q 388.9 129.85 383.05 129.9
L 348.9 129.9
Q 343 129.85 342.6 135.3
L 339.75 162.5
Q 339.2 168.55 345.35 168.55
L 381.9 168.55
Q 388.15 168.55 388.3 162.5
L 388.85 135.3
M 381.45 131.6
Q 386.8 131.55 386.7 136.5
L 386.2 161.35
Q 386.1 166.85 380.4 166.85
L 347 166.85
Q 341.35 166.85 341.9 161.35
L 344.5 136.5
Q 344.85 131.55 350.25 131.6
L 381.45 131.6
M 399.35 125.75
Q 398.55 125.75 397.8 125.75 396.95 125.75 396.2 125.75
L 398.05 168.25
Q 401.35 168.35 406.85 168.65 407.6 168.65 408.4 168.7
L 399.35 125.75
M 397.1 127.1
L 398.1 127.1 406.45 166.65 399.3 166.5 397.1 127.1 Z"/>

<path fill="url(#Gradient_3)" stroke="none" d="
M 171.65 309.05
Q 171.5 309.05 171.3 309.05 169.75 309.05 168.15 310.2 168 310.45 167.75 310.6 166.9 311.45 166.4 312.45 165.85 313.4 165.55 314.45 165.45 314.7 165.45 314.85 165 316.85 165.75 318.3 165.9 318.65 166.1 318.85 166.9 319.95 168.4 319.95 168.85 319.95 169.25 319.85 170.55 319.55 171.9 318.3 171.95 318.3 171.95 318.25 172.95 317.3 173.65 316.1 174 315.3 174.25 314.45 174.8 312.2 173.95 310.6 173.15 309.15 171.65 309.05
M 171.95 312.2
Q 171.55 311.55 170.8 311.5
L 171.25 310.15
Q 171.1 310.15 171 310.15 169.7 310.15 168.55 311.05
L 168.4 310.9 168.9 312.2
Q 168.8 312.3 168.65 312.4 168.25 312.85 167.95 313.4 167.65 313.9 167.45 314.45 167.4 314.6 167.4 314.7 167.05 314.8 166.75 314.9 166.45 314.9 166.25 315 166 316.45 166.55 317.6 166.6 317.8 166.75 317.95 166.75 317.9 166.8 317.85 166.85 317.8 166.9 317.7 167.05 317.55 167.15 317.4 167.45 317.1 167.75 316.85 168.15 317.4 168.9 317.5 168.9 318.3 169 318.95 169 319.15 169.1 319.35 168.85 319.35 168.6 319.35 167.25 319.35 166.55 318.3
L 166.45 318.3
Q 166.3 318.1 166.2 317.9 165.6 316.65 166 315 166 314.9 166 314.85 166 314.7 166 314.45 166.3 313.6 166.8 312.75 167.3 311.85 168 311.05 168.15 310.9 168.4 310.75 169.7 309.7 171.1 309.7 171.3 309.7 171.4 309.7
L 171.5 309.7
Q 172.7 309.8 173.4 311 173.2 311.15 173.05 311.3 173.25 311.15 173.45 311
L 173.45 311.05
Q 174.2 312.3 173.8 314.05 173.75 314.3 173.7 314.45 173.45 315.25 173.15 315.95 172.55 317 171.65 317.9
L 171.65 317.95
Q 171.55 317.7 171.55 317.6 171.3 316.85 171.1 316.45 171.6 316 171.9 315.4 172.1 315 172.25 314.45
L 172.3 314.4
Q 172.95 314.2 173.35 314.15 173.4 314.15 173.45 314.15 173.75 312.5 173.1 311.35 173.1 311.3 173.05 311.3 172.95 311.35 172.8 311.45 172.65 311.55 172.55 311.7 172.4 311.75 172.3 311.85 172.15 312.05 171.95 312.2
M 170.35 312.45
Q 170.45 312.45 170.55 312.45 171 312.5 171.3 312.85 171.3 312.9 171.35 313 171.7 313.65 171.55 314.45 171.5 314.45 171.5 314.55 171.35 314.8 171.15 315.15 171.05 315.5 170.7 315.85 170.55 315.95 170.55 316 169.95 316.6 169.25 316.6 169.15 316.6 169 316.6 168.6 316.45 168.4 316.15 168.3 316.05 168.25 316 167.95 315.3 168.15 314.6
L 168.15 314.55
Q 168.25 314.15 168.45 313.7 168.65 313.35 169 313 169.7 312.45 170.35 312.45
M 171.5 317.65
Q 171.55 317.8 171.6 317.95 170.45 319 169.25 319.25 169.2 319.1 169.15 318.95 170.35 318.7 171.5 317.65 Z"/>

<path fill="#999999" stroke="none" d="
M 171.6 317.95
Q 171.55 317.8 171.5 317.65 170.35 318.7 169.15 318.95 169.2 319.1 169.25 319.25 170.45 319 171.6 317.95
M 169.25 313.4
Q 168.95 313.65 168.85 313.9 168.65 314.2 168.6 314.45
L 168.6 314.55
Q 168.45 315.1 168.65 315.5 168.7 315.55 168.85 315.6 168.95 315.85 169.25 315.95 169.3 315.95 169.4 315.95 169.85 315.95 170.25 315.5 170.35 315.5 170.45 315.45 170.7 315.2 170.75 314.9 170.85 314.7 171 314.45 171.15 313.9 170.85 313.4 170.85 313.35 170.85 313.3 170.65 313.05 170.25 313
L 170.15 313
Q 169.7 313 169.25 313.4
M 173.45 311
Q 173.25 311.15 173.05 311.3 173.1 311.3 173.1 311.35 173.75 312.5 173.45 314.15 173.75 314.05 173.8 314.05 174.2 312.3 173.45 311.05
L 173.45 311
M 166.25 315
Q 166.1 315 166 315 165.6 316.65 166.2 317.9 166.3 318.1 166.45 318.3 166.55 318.15 166.75 317.95 166.6 317.8 166.55 317.6 166 316.45 166.25 315
M 171.25 310.15
L 171.4 309.7
Q 171.3 309.7 171.1 309.7 169.7 309.7 168.4 310.75
L 168.4 310.9 168.55 311.05
Q 169.7 310.15 171 310.15 171.1 310.15 171.25 310.15
M 369.75 313.4
Q 369.75 313.35 369.75 313.3 369.55 313.05 369.15 313
L 369.05 313
Q 368.55 313 368.15 313.4 367.85 313.65 367.75 313.9 367.55 314.2 367.5 314.45
L 367.5 314.55
Q 367.35 315.1 367.55 315.5 367.6 315.55 367.75 315.6 367.85 315.85 368.15 315.95 368.2 315.95 368.3 315.95 368.75 315.95 369.15 315.5 369.25 315.5 369.35 315.45 369.6 315.2 369.6 314.9 369.75 314.7 369.9 314.45 370.05 313.9 369.75 313.4
M 365.15 315
Q 365 315 364.85 315 364.5 316.65 365.1 317.9 365.2 318.1 365.35 318.3 365.45 318.15 365.6 317.95 365.5 317.8 365.4 317.6 364.85 316.45 365.15 315
M 370.3 309.7
Q 370.15 309.7 370 309.7 368.55 309.7 367.3 310.75
L 367.3 310.9 367.45 311.05
Q 368.55 310.15 369.9 310.15 370 310.15 370.15 310.15
L 370.3 309.7
M 372.3 311.05
L 372.3 311
Q 372.15 311.15 371.95 311.3 372 311.3 372 311.35 372.65 312.5 372.3 314.15 372.65 314.05 372.7 314.05 373.1 312.3 372.3 311.05
M 368 318.95
Q 368.1 319.1 368.15 319.25 369.35 319 370.45 317.95 370.4 317.8 370.4 317.65 369.25 318.7 368 318.95
M 341.3 95.45
L 341.85 90.7
Q 341.6 90.7 340.9 90.6
L 340.45 95.4 319.4 304.8 320.5 304.85
Q 320.8 302.3 321.15 299.75 323.25 299.8 325.85 299.85 330.9 299.9 335.05 299.8 336.5 299.8 337.85 299.75 338.65 298.9 339.45 298 345.95 290.9 352.8 283.35 353.9 282.2 354.95 281.05 358.65 277 362.4 272.8 380.15 253.3 391.15 240.8 392.15 239.6 393.1 238.45 393.15 236.8 393.2 235.25 394.35 178.9 394.35 176.1 394.3 173.25 394.3 170.8 394.25 168.35 394.25 166.7 394.25 165.05 394.3 163.05 394.35 161 394.25 161
L 394.35 154.25
Q 394.35 150.1 394.05 137.4 393.9 130.3 393.8 125.7 393.75 125 393.75 124.4
L 338.5 124.7
Q 338.95 116.7 339.9 109.2 340.8 101.7 341.3 95.45
M 378.15 125.5
Q 378.5 125.5 392.7 125.45 393.8 145.1 393.6 154.45 393.35 163.8 393.55 170.7 393.7 177.55 393.55 182.55 393.35 187.45 392.85 208.1 392.25 228.7 392.3 233.25 392.3 237.75 392.05 238.1
L 337.35 298.95 321.3 298.85 338.3 125.75
Q 344.75 125.75 354.65 125.65 367.2 125.5 378.15 125.5
M 342.35 174.75
Q 341.2 174.8 340 174.85 339 174.9 338.15 174.95 338.1 174.95 337.95 174.95 337.25 175 336.65 175.05 336.6 175.45 336.55 175.95 336.35 177.2 336.15 178.9 335.95 180.6 335.85 181.8 335.75 182.6 335.7 183.15 336.35 183.15 337.35 183.1 337.75 183.1 338.2 183.1 339.4 183.15 341.6 183.15 343.1 183.15 345.05 183.2 346.1 183.2 348 183.15 348.55 183.15 349.2 183.1 349.25 182.6 349.35 182.1 349.35 181.9 349.35 181.8 349.35 181.55 349.4 181.3 349.85 177.65 350.15 175.8 350.15 175.7 350.15 175.6 350.25 174.95 350.3 174.55 349.95 174.55 349.6 174.55 349.35 174.55 349.1 174.55 348.8 174.55 348.5 174.55 345.85 174.6 342.35 174.75
M 340.35 175.6
Q 340.8 175.6 342 175.7
L 345.05 175.7
Q 346.3 175.7 347.55 175.6
L 349.05 175.6 348.55 182.1 342.2 182.05 342.15 182.1 342.15 182.05 339.05 182
Q 337.55 182 337.45 182 337.2 182.05 337 182.1 337 181.95 337.05 181.8 337.2 180.5 337.5 178.2 337.65 176.95 337.85 176 337.85 175.85 337.85 175.7 337.95 175.7 338.15 175.7 338.5 175.6 338.85 175.6 339.2 175.6 340.35 175.6
M 342.6 176.15
Q 342.6 176.45 342.6 176.6 342.6 176.75 342.6 177.1 342.55 177.3 342.55 177.55 342.45 178.5 342.3 180.3 342.25 180.45 342.15 181.8
L 346.8 181.75
Q 347.25 181.8 348.05 181.8 348.1 181 348.15 180.3 348.25 177.65 348.4 175.9 348.25 175.9 348.15 175.9 347.45 175.95 346.8 175.95 343.95 176.1 342.6 176.15
M 434.4 197.2
Q 434.1 196.95 433.7 196.75
L 433.4 196.75 433.3 196.75
Q 433.45 211.25 431.7 229.15 431.722265625 229.1240234375 431.75 228.95
L 431.75 229
Q 431.822265625 228.9875 431.85 228.95 431.9435546875 228.9416015625 432 228.9 432.2607421875 228.8703125 432.5 228.8 432.98203125 228.6451171875 433.4 228.45 433.4154296875 228.26640625 433.4 228.05 433.7744140625 223.86640625 434.3 214.5 434.8 203.45 434.75 201.3 434.75 200.323828125 434.45 197.6 434.424609375 197.4146484375 434.4 197.2 Z"/>

<path fill="#333333" stroke="none" d="
M 171.1 316.45
Q 171.3 316.85 171.55 317.6 171.55 317.7 171.65 317.95
L 171.65 317.9
Q 172.55 317 173.15 315.95 173.45 315.25 173.7 314.45 173.75 314.3 173.8 314.05 173.75 314.05 173.45 314.15 173.4 314.15 173.35 314.15 172.95 314.2 172.3 314.4
L 172.25 314.45
Q 172.1 315 171.9 315.4 171.6 316 171.1 316.45
M 166.8 317.85
Q 166.75 317.9 166.75 317.95 166.55 318.15 166.45 318.3
L 166.55 318.3
Q 167.25 319.35 168.6 319.35 168.85 319.35 169.1 319.35 169 319.15 169 318.95 168.9 318.3 168.9 317.5 168.15 317.4 167.75 316.85 167.45 317.1 167.15 317.4 167.05 317.55 166.9 317.7 166.85 317.8 166.8 317.85
M 168.9 312.2
L 168.4 310.9 168.4 310.75
Q 168.15 310.9 168 311.05 167.3 311.85 166.8 312.75 166.3 313.6 166 314.45 166 314.7 166 314.85 166 314.9 166 315 166.1 315 166.25 315 166.45 314.9 166.75 314.9 167.05 314.8 167.4 314.7 167.4 314.6 167.45 314.45 167.65 313.9 167.95 313.4 168.25 312.85 168.65 312.4 168.8 312.3 168.9 312.2
M 170.8 311.5
Q 171.55 311.55 171.95 312.2 172.15 312.05 172.3 311.85 172.4 311.75 172.55 311.7 172.65 311.55 172.8 311.45 172.95 311.35 173.05 311.3 173.2 311.15 173.4 311 172.7 309.8 171.5 309.7
L 171.4 309.7 171.25 310.15 170.8 311.5
M 367.3 310.75
L 367.25 310.75
Q 367.05 310.9 366.9 311.05 366.15 311.85 365.7 312.75 365.2 313.6 364.9 314.45 364.85 314.7 364.85 314.85 364.85 314.9 364.85 315 365 315 365.15 315 365.35 314.9 365.6 314.9 365.9 314.8 366.3 314.7 366.3 314.6 366.35 314.45 366.55 313.9 366.85 313.4 367.15 312.85 367.55 312.4 367.7 312.3 367.75 312.2
L 367.3 310.9 367.3 310.75
M 371.2 314.4
L 371.15 314.45
Q 370.95 315 370.8 315.4 370.45 316 370 316.45 370.15 316.85 370.4 317.6 370.4 317.7 370.55 317.95
L 370.55 317.9
Q 371.45 317 372 315.95 372.3 315.25 372.55 314.45 372.65 314.3 372.7 314.05 372.65 314.05 372.3 314.15
L 372.25 314.15
Q 371.85 314.2 371.2 314.4
M 366.65 316.85
Q 366.35 317.1 366.05 317.4 365.9 317.55 365.8 317.7 365.75 317.8 365.7 317.85 365.6 317.9 365.6 317.95 365.45 318.15 365.35 318.3
L 365.4 318.3
Q 366.15 319.35 367.5 319.35 367.75 319.35 368 319.35 367.9 319.15 367.9 318.95 367.75 318.3 367.75 317.5 367.05 317.4 366.65 316.85
M 370.4 309.7
L 370.3 309.7 370.15 310.15 369.7 311.5
Q 370.4 311.55 370.85 312.2 371 312.05 371.2 311.85 371.3 311.75 371.45 311.7 371.55 311.55 371.7 311.45 371.8 311.35 371.95 311.3 372.15 311.15 372.3 311 371.6 309.8 370.4 309.7 Z"/>

<path fill="url(#Gradient_4)" stroke="none" d="
M 380.35 307.15
Q 380.05 305.75 379.4 304.55 377.25 300.5 372.7 300.4 372.6 300.4 372.55 300.4 367.9 300.4 363.5 304.55 359.05 308.65 357.5 314.45 355.95 320.3 358.15 324.35 360.35 328.5 365 328.5 369.6 328.5 374.1 324.35 378.45 320.3 380.05 314.45 381.1 310.4 380.35 307.15
M 366.7 309.3
Q 368.6 307.8 370.55 307.8 370.8 307.8 370.95 307.8 372.8 307.95 373.8 309.7 374.95 311.7 374.15 314.45 373.85 315.5 373.4 316.45 372.55 317.95 371.4 319.15 371.4 319.25 371.25 319.25 369.6 320.8 368 321.1 367.55 321.2 367 321.2 365.15 321.2 364.15 319.85 363.9 319.55 363.75 319.25 362.8 317.4 363.45 315 363.45 314.7 363.5 314.45 363.85 313.15 364.5 312 365.15 310.7 366.15 309.7 366.45 309.45 366.7 309.3 Z"/>

<path fill="url(#Gradient_5)" stroke="none" d="
M 370.55 309.05
Q 370.4 309.05 370.15 309.05 368.6 309.05 367.05 310.2 366.9 310.45 366.65 310.6 365.8 311.45 365.3 312.45 364.75 313.4 364.45 314.45 364.35 314.7 364.35 314.85 363.9 316.85 364.6 318.3 364.8 318.65 365 318.85 365.8 319.95 367.3 319.95 367.75 319.95 368.15 319.85 369.45 319.55 370.8 318.3 370.85 318.3 370.85 318.25 371.85 317.3 372.55 316.1 372.85 315.3 373.1 314.45 373.7 312.2 372.8 310.6 372 309.15 370.55 309.05
M 368.15 319.25
Q 368.1 319.1 368 318.95 369.25 318.7 370.4 317.65 370.4 317.8 370.45 317.95 369.35 319 368.15 319.25
M 372.3 311
L 372.3 311.05
Q 373.1 312.3 372.7 314.05 372.65 314.3 372.55 314.45 372.3 315.25 372 315.95 371.45 317 370.55 317.9
L 370.55 317.95
Q 370.4 317.7 370.4 317.6 370.15 316.85 370 316.45 370.45 316 370.8 315.4 370.95 315 371.15 314.45
L 371.2 314.4
Q 371.85 314.2 372.25 314.15
L 372.3 314.15
Q 372.65 312.5 372 311.35 372 311.3 371.95 311.3 371.8 311.35 371.7 311.45 371.55 311.55 371.45 311.7 371.3 311.75 371.2 311.85 371 312.05 370.85 312.2 370.4 311.55 369.7 311.5
L 370.15 310.15
Q 370 310.15 369.9 310.15 368.55 310.15 367.45 311.05
L 367.3 310.9 367.75 312.2
Q 367.7 312.3 367.55 312.4 367.15 312.85 366.85 313.4 366.55 313.9 366.35 314.45 366.3 314.6 366.3 314.7 365.9 314.8 365.6 314.9 365.35 314.9 365.15 315 364.85 316.45 365.4 317.6 365.5 317.8 365.6 317.95 365.6 317.9 365.7 317.85 365.75 317.8 365.8 317.7 365.9 317.55 366.05 317.4 366.35 317.1 366.65 316.85 367.05 317.4 367.75 317.5 367.75 318.3 367.9 318.95 367.9 319.15 368 319.35 367.75 319.35 367.5 319.35 366.15 319.35 365.4 318.3
L 365.35 318.3
Q 365.2 318.1 365.1 317.9 364.5 316.65 364.85 315 364.85 314.9 364.85 314.85 364.85 314.7 364.9 314.45 365.2 313.6 365.7 312.75 366.15 311.85 366.9 311.05 367.05 310.9 367.25 310.75
L 367.3 310.75
Q 368.55 309.7 370 309.7 370.15 309.7 370.3 309.7
L 370.4 309.7
Q 371.6 309.8 372.3 311
M 370.15 312.85
Q 370.15 312.9 370.25 313 370.6 313.65 370.4 314.45
L 370.4 314.55
Q 370.25 314.8 370.05 315.15 369.95 315.5 369.6 315.85 369.45 315.95 369.4 316 368.8 316.6 368.15 316.6 368 316.6 367.9 316.6 367.5 316.45 367.3 316.15 367.2 316.05 367.15 316 366.85 315.3 367 314.6
L 367 314.55
Q 367.15 314.15 367.35 313.7 367.55 313.35 367.9 313 368.55 312.45 369.25 312.45 369.35 312.45 369.4 312.45 369.9 312.5 370.15 312.85 Z"/>

<path fill="url(#Gradient_6)" stroke="none" d="
M 293.3 90.1
Q 266.35 87.9 243.3 88.05 220.2 88.15 193.05 90.45 168.85 92.5 149.85 96.45
L 145.25 116.65
Q 144.4 120.4 143.65 124.2 134.7 166.95 126.5 215.95 119.95 255.25 116.4 282.15 116.4 282.85 116.6 283.6 119.95 285.3 121.25 286.25 127.05 290.35 127.05 295.6 127.05 297.85 126.55 300.9 126.3 302.7 125.95 304.2
L 141.65 304.2
Q 146.9 304.75 153.45 305.15 153.75 302.4 154.4 300.75 154.5 300.5 154.65 300.25 155.95 297.6 159.05 296.4 162.25 295.2 169.25 294.9 173.2 294.7 186.95 294.7 200.65 294.7 202.35 295.05 206.95 296 207.9 299.8 208.15 300.8 208.15 301.95 208.15 304.1 208 306.35 219.95 306.2 247.55 305.3 280.75 304.2 288.8 304.2
L 319.35 304.9 319.4 304.8 340.45 95.4
Q 320.25 92.3 293.3 90.1
M 162.25 124.25
Q 163.05 119.9 163.85 115.4 181.4 115.25 219.2 114.6 266.1 114.6 281.8 115 304.1 115.45 321 117.15 317.35 144.45 312.25 188.9 308.5 221.3 306.1 241.3 305.85 243.2 305.65 245.05 305 250.2 304.5 254.45 290.85 254.9 259.7 256.65 218.4 258.95 200.15 258.95 188.1 258.95 164.95 258.3 157.35 258.1 141.95 258.95 145.95 228 148.85 206.85 153.3 174.25 160.05 136.35 161.1 130.35 162.25 124.25
M 160 99.65
Q 160.05 100.2 160.1 100.6 160.15 101.2 160.15 101.45 160.15 102.25 160.05 103.05 159.95 104.05 159.75 105.1 157.15 105.1 154.75 105.2 151.45 105.3 149.65 105.5 149.65 105.3 149.65 105 149.65 104.95 149.65 104.85 149.65 104.05 149.8 102.55 149.8 102.25 149.85 101.85 150 100.85 150.15 100.2 150.4 100.15 150.75 100.1 152.1 99.9 154.25 99.6 157.5 99.15 160 99.1 160 99.35 160 99.65
M 145.55 291.65
Q 145.55 287.5 154.7 284.35 163.6 281.35 174.85 281.35 195.9 281.35 203.45 282.35 214.3 283.75 214.3 288.25 214.3 290.65 213.5 293.1 213.3 293.9 212.95 294.9 212.85 293.75 212.6 292.55 211.65 288.25 208.9 287.75 203.05 286.75 199.65 286.35 192.15 285.35 185.7 285.35 162.25 285.35 154.75 288.05 146.95 290.8 147.45 298.9 146.8 297.7 146.35 296.05 145.55 293.3 145.55 291.65
M 392.7 125.45
Q 378.5 125.5 378.15 125.5 367.2 125.5 354.65 125.65 344.75 125.75 338.3 125.75
L 321.3 298.85 337.35 298.95 392.05 238.1
Q 392.3 237.75 392.3 233.25 392.25 228.7 392.85 208.1 393.35 187.45 393.55 182.55 393.7 177.55 393.55 170.7 393.35 163.8 393.6 154.45 393.8 145.1 392.7 125.45
M 383.05 129.9
Q 388.9 129.85 388.85 135.3
L 388.3 162.5
Q 388.15 168.55 381.9 168.55
L 345.35 168.55
Q 339.2 168.55 339.75 162.5
L 342.6 135.3
Q 343 129.85 348.9 129.9
L 383.05 129.9
M 340 174.85
Q 341.2 174.8 342.35 174.75 345.85 174.6 348.5 174.55 348.8 174.55 349.1 174.55 349.35 174.55 349.6 174.55 349.95 174.55 350.3 174.55 350.25 174.95 350.15 175.6 350.15 175.7 350.15 175.8 349.85 177.65 349.4 181.3 349.35 181.55 349.35 181.8 349.35 181.9 349.35 182.1 349.25 182.6 349.2 183.1 348.55 183.15 348 183.15 346.1 183.2 345.05 183.2 343.1 183.15 341.6 183.15 339.4 183.15 338.2 183.1 337.75 183.1 337.35 183.1 336.35 183.15 335.7 183.15 335.75 182.6 335.85 181.8 335.95 180.6 336.15 178.9 336.35 177.2 336.55 175.95 336.6 175.45 336.65 175.05 337.25 175 337.95 174.95 338.1 174.95 338.15 174.95 339 174.9 340 174.85
M 358.4 98.3
Q 345.25 96.15 341.3 95.45 340.8 101.7 339.9 109.2 338.95 116.7 338.5 124.7
L 393.75 124.4
Q 393.75 125 393.8 125.7 393.9 130.3 394.05 137.4 394.35 150.1 394.35 154.25
L 394.25 161
Q 394.35 161 394.3 163.05 394.25 165.05 394.25 166.7 394.25 168.35 394.3 170.8 394.3 173.25 394.35 176.1 394.35 178.9 393.2 235.25 393.15 236.8 393.1 238.45 392.15 239.6 391.15 240.8 380.15 253.3 362.4 272.8 358.65 277 354.95 281.05 353.9 282.2 352.8 283.35 345.95 290.9 339.45 298 338.65 298.9 337.85 299.75 336.5 299.8 335.05 299.8 330.9 299.9 325.85 299.85 323.25 299.8 321.15 299.75 320.8 302.3 320.5 304.85
L 320.5 304.95 336.2 305.3 353.3 304.8
Q 353.95 301.65 354.9 297.35 354.95 297.1 354.95 296.95 356.2 291.25 357.6 287.4 358.2 285.6 358.85 284.2 358.95 284.05 359 283.85 365.05 271.35 382.9 271.35 394.45 271.35 400.6 272.55 402.35 272.95 403.7 273.4 410.8 275.95 410.8 283.2 410.8 283.25 409.8 295.2 409.35 300.5 408.9 304.35 411.4 304.35 414 304.4 412.6 302.7 412.6 295.7 412.6 287.7 416.6 285.25 418.2 284.25 421.25 283.55 421.45 283.5 421.75 283.5 429.7 227.9 429.7 213.8 429.7 210.35 428.75 193.6 428.3 186 428.05 181.1 423.25 177.8 416.7 175 412.9 173.35 409.1 172.2 408.3 171.95 407.5 171.7 402.1 170.15 396.75 169.55 396.15 160.75 395.4 143.65 394.75 129.25 394.05 118.7
L 393 105.75
Q 384.7 103.4 378.1 101.9 371.5 100.4 358.4 98.3
M 101.05 285.9
Q 100.55 287.25 100.55 289.2 100.55 290.85 101.9 298.45 102.5 301.65 103 304.2
L 122.45 304.2
Q 122.55 303.5 122.65 303 123.05 300.6 123.05 298.25 123.05 289.35 114.75 286.15 110.2 284.35 102.45 284.35 101.55 284.35 101.05 285.9
M 421.25 286.8
Q 418.9 287.8 417 289.9 413.65 293.65 413.65 298.45 413.65 299.4 414.25 302.45 414.5 303.55 414.7 304.4 414.9 304.4 415.1 304.4 418.95 304.45 422.95 304.5
L 423 304.5
Q 425.15 304.5 427.1 304.55 429.45 297.35 430 294.5 430.6 291.65 430.6 289.5 430.6 287.3 429.55 286.55 428.45 285.8 426.4 285.8 423.55 285.8 421.25 286.8 Z"/>

<path fill="#FFFFFF" stroke="none" d="
M 154.7 284.35
Q 145.55 287.5 145.55 291.65 145.55 293.3 146.35 296.05 146.8 297.7 147.45 298.9 146.95 290.8 154.75 288.05 162.25 285.35 185.7 285.35 192.15 285.35 199.65 286.35 203.05 286.75 208.9 287.75 211.65 288.25 212.6 292.55 212.85 293.75 212.95 294.9 213.3 293.9 213.5 293.1 214.3 290.65 214.3 288.25 214.3 283.75 203.45 282.35 195.9 281.35 174.85 281.35 163.6 281.35 154.7 284.35
M 163.85 115.4
Q 163.05 119.9 162.25 124.25 161.1 130.35 160.05 136.35 153.3 174.25 148.85 206.85 145.95 228 141.95 258.95 157.35 258.1 164.95 258.3 188.1 258.95 200.15 258.95 218.4 258.95 259.7 256.65 290.85 254.9 304.5 254.45 305 250.2 305.65 245.05 305.85 243.2 306.1 241.3 308.5 221.3 312.25 188.9 317.35 144.45 321 117.15 304.1 115.45 281.8 115 266.1 114.6 219.2 114.6 181.4 115.25 163.85 115.4
M 340.45 95.4
L 340.9 90.6
Q 337.3 90.15 333.7 89.7 286.4 83.75 240.45 83.75 205.45 83.75 180.55 87.05 165.1 89.5 151.05 91.35 150.95 91.35 150.85 91.35 147.7 91.75 144.65 92.15 144.05 94.95 143.4 97.95 142.5 102.55 141.5 107.4 140.25 113.75 139 120.7 138.85 121.25 138.75 121.85 133.05 151.9 126.4 191.7 121.45 221.4 116.65 252 116.45 253.05 116.35 254.15 115.8 257.35 115.3 260.65 115 262.8 114.65 264.95 114.5 265.8 114.4 266.65 113.9 269.8 113.4 273 113.05 275.3 112.7 277.6 112.6 278.4 112.5 279.2 112.3 280.3 112.15 281.4 112.1 281.75 112.05 282.15 110.7 281.8 109.15 281.45 102.3 279.9 101 279.9 99.55 279.9 98.7 281.55 97.9 283.15 97.9 285.9 97.9 287.65 99.3 297.65 99.85 301.65 100.3 304.2
L 103 304.2
Q 102.5 301.65 101.9 298.45 100.55 290.85 100.55 289.2 100.55 287.25 101.05 285.9 101.55 284.35 102.45 284.35 110.2 284.35 114.75 286.15 123.05 289.35 123.05 298.25 123.05 300.6 122.65 303 122.55 303.5 122.45 304.2
L 125.95 304.2
Q 126.3 302.7 126.55 300.9 127.05 297.85 127.05 295.6 127.05 290.35 121.25 286.25 119.95 285.3 116.6 283.6 116.4 282.85 116.4 282.15 119.95 255.25 126.5 215.95 134.7 166.95 143.65 124.2 144.4 120.4 145.25 116.65
L 149.85 96.45
Q 168.85 92.5 193.05 90.45 220.2 88.15 243.3 88.05 266.35 87.9 293.3 90.1 320.25 92.3 340.45 95.4
M 341.3 95.45
Q 345.25 96.15 358.4 98.3 371.5 100.4 378.1 101.9 384.7 103.4 393 105.75
L 394.05 118.7
Q 394.75 129.25 395.4 143.65 396.15 160.75 396.75 169.55 402.1 170.15 407.5 171.7 408.3 171.95 409.1 172.2 412.9 173.35 416.7 175 423.25 177.8 428.05 181.1 428.3 186 428.75 193.6 429.7 210.35 429.7 213.8 429.7 227.9 421.75 283.5 421.45 283.5 421.25 283.55 418.2 284.25 416.6 285.25 412.6 287.7 412.6 295.7 412.6 302.7 414 304.4 414.35 304.4 414.7 304.4 414.5 303.55 414.25 302.45 413.65 299.4 413.65 298.45 413.65 293.65 417 289.9 418.9 287.8 421.25 286.8 423.55 285.8 426.4 285.8 428.45 285.8 429.55 286.55 430.6 287.3 430.6 289.5 430.6 291.65 430 294.5 429.45 297.35 427.1 304.55 428.8 304.55 430.4 304.6 431.4 301.65 432.4 298.55 434.95 290.45 434.95 286.85 434.95 284.15 434.35 283.45 433.7 282.65 431.25 282.65 430.7 282.7 430.15 282.7 428 282.85 426.2 282.95 426.2 282.75 426.2 282.6 427.2 275.45 428.1 267.7 430.6392578125 246.7890625 431.75 229
L 431.75 228.95
Q 431.722265625 229.1240234375 431.7 229.15 433.45 211.25 433.3 196.75
L 433.4 196.75
Q 433.4 195.35 433.4 194 433.4 192.4 433.2 185.35 433.15 184.4 433.15 183.3 433.1 181.8 433.05 180.35 430.4 179.05 427.8 177.75 423.55 175.65 419.5 173.5 414.95 171.15 411 169 410.85 168.9 410.7 168.8 410.8 168.8 411 168.8 410.75 167.8 410.55 166.8 405.9 145 401.75 127.25 401.6 126.5 401.4 125.75 401.25 125.1 401.1 124.4
L 401.1 124.35
Q 400.65 122.45 400.25 120.65 398.5 113.4 396.95 106.85 396.05 103.1 395.15 99.55 393.8 99.25 392.45 99.05 366.15 94 341.85 90.7
L 341.3 95.45
M 397.8 125.75
Q 398.55 125.75 399.35 125.75
L 408.4 168.7
Q 407.6 168.65 406.85 168.65 401.35 168.35 398.05 168.25
L 396.2 125.75
Q 396.95 125.75 397.8 125.75
M 431.85 228.95
L 431.9 228.95 432 228.9
Q 431.9435546875 228.9416015625 431.85 228.95
M 434.4 197.2
Q 434.424609375 197.4146484375 434.45 197.6 434.75 200.323828125 434.75 201.3 434.8 203.45 434.3 214.5 433.7744140625 223.86640625 433.4 228.05 433.4154296875 228.26640625 433.4 228.45 434.35 227.95 434.75 227.2 435.25 226.15 435.55 221.3 435.6 220 436 211.55 436.4 203.1 436.35 201.2 436.3 199.25 435.75 198.4 435.35 197.8 434.4 197.2 Z"/>

<path fill="#990000" stroke="none" d="
M 158 101.5
Q 158 101.6 158 101.7 158 102.95 157.7 104.3 155.85 104.3 154.15 104.4 151.85 104.4 150.5 104.6 150.5 104.4 150.5 104.2
L 150.5 104.15
Q 150.5 103.65 150.6 102.95 150.6 102.85 150.6 102.8 150.3 102.75 150 102.65 149.9 102.6 149.8 102.55 149.65 104.05 149.65 104.85 149.65 104.95 149.65 105 149.65 105.3 149.65 105.5 151.45 105.3 154.75 105.2 157.15 105.1 159.75 105.1 159.95 104.05 160.05 103.05 159.35 102.95 158.65 102.3 158.25 101.9 158 101.5
M 107 270.15
Q 106.85 270.5 106.85 270.9 106.85 273.5 109.25 275.5 110.1 276.15 111.6 277.05 111.55 276.65 111.55 276.25 111.55 275.5 111.95 273.2 109.1 273 107.1 270.3 107.05 270.2 107 270.15
M 109.95 259
Q 109.55 258.75 109.25 258.5 109.25 261.1 111.65 263.05 112.35 263.6 113.45 264.3 113.9 261.95 114.1 260.6 111.8 260.3 109.95 259 Z"/>

<path fill="#FF0000" stroke="none" d="
M 158 101.5
Q 158 101.4 158 101.25 157.95 101.2 157.95 101.1 157.95 100.8 157.9 100.4 157.9 100.2 157.9 100.05 156.1 100.1 153.8 100.4 152.3 100.6 151.3 100.7 151.05 100.75 150.9 100.85 150.8 101.25 150.7 102 150.65 102.4 150.6 102.8 150.6 102.85 150.6 102.95 150.5 103.65 150.5 104.15
L 150.5 104.2
Q 150.5 104.4 150.5 104.6 151.85 104.4 154.15 104.4 155.85 104.3 157.7 104.3 158 102.95 158 101.7 158 101.6 158 101.5 Z"/>

<path fill="#CC0000" stroke="none" d="
M 160.1 100.6
Q 160.05 100.2 160 99.65 160 99.35 160 99.1 157.5 99.15 154.25 99.6 152.1 99.9 150.75 100.1 150.4 100.15 150.15 100.2 150 100.85 149.85 101.85 149.8 102.25 149.8 102.55 149.9 102.6 150 102.65 150.3 102.75 150.6 102.8 150.65 102.4 150.7 102 150.8 101.25 150.9 100.85 151.05 100.75 151.3 100.7 152.3 100.6 153.8 100.4 156.1 100.1 157.9 100.05 157.9 100.2 157.9 100.4 157.95 100.8 157.95 101.1 157.95 101.2 158 101.25 158 101.4 158 101.5 158.25 101.9 158.65 102.3 159.35 102.95 160.05 103.05 160.15 102.25 160.15 101.45 160.15 101.2 160.1 100.6
M 109.3 267.9
Q 107.5 268.95 107 270.15 107.05 270.2 107.1 270.3 109.1 273 111.95 273.2 112.25 271.2 112.8 268.1 112.9 267.3 113.1 266.6 111.2 266.8 109.3 267.9
M 114.9 254.25
Q 113.3 254.55 111.7 255.45 109.25 256.9 109.25 258.45
L 109.25 258.5
Q 109.55 258.75 109.95 259 111.8 260.3 114.1 260.6 114.3 259.35 114.35 258.85 114.75 255.4 114.9 254.25 Z"/>

<path fill="#000000" stroke="none" d="
M 386.7 136.5
Q 386.8 131.55 381.45 131.6
L 350.25 131.6
Q 344.85 131.55 344.5 136.5
L 341.9 161.35
Q 341.35 166.85 347 166.85
L 380.4 166.85
Q 386.1 166.85 386.2 161.35
L 386.7 136.5
M 398.1 127.1
L 397.1 127.1 399.3 166.5 406.45 166.65 398.1 127.1 Z"/>

<path fill="url(#Gradient_7)" stroke="none" d="
M 433.05 180.35
Q 433.1 181.8 433.15 183.3 433.15 184.4 433.2 185.35 433.4 192.4 433.4 194 433.4 195.35 433.4 196.75
L 433.7 196.75
Q 434.1 196.95 434.4 197.2 435.35 197.8 435.75 198.4 436.3 199.25 436.35 201.2 436.4 203.1 436 211.55 435.6 220 435.55 221.3 435.25 226.15 434.75 227.2 434.35 227.95 433.4 228.45 432.98203125 228.6451171875 432.5 228.8 432.2607421875 228.8703125 432 228.9
L 431.9 228.95 431.85 228.95
Q 431.822265625 228.9875 431.75 229 430.6392578125 246.7890625 428.1 267.7 427.2 275.45 426.2 282.6 426.2 282.75 426.2 282.95 428 282.85 430.15 282.7 438.9 222.05 438.2 183.95
L 433.05 180.35 Z"/>

<path fill="#CCCCCC" stroke="none" d="
M 116.65 252
L 116.4 252
Q 115.3 252.25 114.95 253.8 114.95 253.9 114.9 254.25 114.75 255.4 114.35 258.85 114.3 259.35 114.1 260.6 113.9 261.95 113.45 264.3 113.3 265.35 113.1 266.6 112.9 267.3 112.8 268.1 112.25 271.2 111.95 273.2 111.55 275.5 111.55 276.25 111.55 276.65 111.6 277.05 111.75 278.7 112.5 279.2 112.6 278.4 112.7 277.6 113.05 275.3 113.4 273 113.9 269.8 114.4 266.65 114.5 265.8 114.65 264.95 115 262.8 115.3 260.65 115.8 257.35 116.35 254.15 116.45 253.05 116.65 252 Z"/>
</g>

<g id="Layer1_0_FILL">
<path fill="url(#Gradient_8)" stroke="none" d="
M 384.05 138
Q 384.15 133.65 379.4 133.7
L 351.95 133.7
Q 347.15 133.65 346.85 138
L 344.85 156.85
Q 350.5583984375 157.4 355.25 157.4 361.5 157.4 367.3 155.9 373.1 154.35 375.5 154.35 377.2974609375 154.35 383.65 155.9
L 384.05 138 Z"/>

<path fill="url(#Gradient_9)" stroke="none" d="
M 398.4 130.95
L 397.65 130.95 399.3 156.55
Q 399.5271484375 156.4955078125 399.75 156.45 401.8306640625 156.0203125 403.25 155.75
L 398.4 130.95 Z"/>
</g>
</defs>

<g transform="matrix( 1, 0, 0, 1, 0,0) ">
<use xlink:href="#Layer5_0_FILL"/>
</g>

<g transform="matrix( 1, 0, 0, 1, 0,0) ">
<use xlink:href="#Layer4_0_FILL"/>
</g>

<g transform="matrix( 1, 0, 0, 1, 0,0) ">
<use xlink:href="#Layer3_0_FILL"/>
</g>

<g transform="matrix( 1, 0, 0, 1, 0,0) ">
<use xlink:href="#Layer2_0_FILL"/>
</g>

<g transform="matrix( 1, 0, 0, 1, 0,0) ">
<use xlink:href="#Layer1_0_FILL"/>
</g>
</svg>
