<svg height="400" preserveAspectRatio="none" viewBox="0 0 550 400" width="550" xmlns="http://www.w3.org/2000/svg">
    <g transform="translate(31.15 153.75)">
        <g>
            <g id="S_mbolo_2_0_Layer0_0_FILL">
                <path d="m129.3 37.8q.05-.8.05-1.45.2-2.3.15-4.15-.1-3.55-1.1-6.15-3.05-8-14.6-8-13.8 0-20.25 11.95-.5.9-.95 1.9-5.35-.5-11-.9.3-2 .6-3.7 1-6.4 1-8.95.2-2.3.15-4.2-.05-3.5-1.05-6.15-3.1-8-14.65-8-13.75 0-20.2 11.95-3.35 6.2-4.65 15.35-.15 1.05-.25 2.15-.6-.05-1.15-.05-10.1-.3-27.25 2.15-5.4 15.8-8.6 33.95-2.8 15.55-4.25 32.75-1.3 15.05-1.3 27.45 0 2.35.25 10.7.25 11.25.6 17 .1 1.55.4 5.9 10.5 1.85 17.75 3.2 33.3 5.25 63.2 5.25 9.85 0 22.4-.6 18.5-1.1 38.2-4.45-1.1-7.4-1.75-12.1-2.95-21.6-2.95-38 0-13.9.85-23.05.95-9.95 3.8-24.6 1.9-9.75 5.95-21.5-8.8-3.15-19.4-5.65m-4.6-10.05q.8 2.05.9 4.85.05 1.5-.05 3.75 0 .3 0 .65-1.5-.35-3-.65-10.55-2-18.95-3.2-3.45-.45-7.1-.85 5.25-10.4 17.15-10.4 8.7 0 11.05 5.85m-2.6 11.7q1.55.25 6.9 1.2 8.3 1.6 15.8 3.4-2.2 6.45-4.05 14.05-3.05 12.25-4.75 25.1-1.55 12.05-1.55 21.4 0 18.55 2.05 37.25 1.1 10.55 2.7 18.3-16.8 2.3-35.3 3.25-2.05-11-2.4-15.4-1.85-20.9-1.85-32.6 0-4.3.05-6.3v-13q1.4-27.6 4.75-46.25 1-5.65 2.65-12.65 6.25.8 12.05 1.75-.45 3.4-.8 6.9-2.05 18.2-2.05 39.4 0 19.1.95 33.85.3 5.1.7 9.55l.55 4.3-.95 1.35q-1.8 2.75-3.9 6.2-8.6 14.15-8.6 18.7 0 .55.2.7.1.1.55.2 4.75-7.55 12.15-20.5.55-.95 1.55-2.7l3 3.9q.95 1.35 6.3 9.5 4.3 6.55 5.15 6.55.5 0 .65-.2l.1-.2q.15.2.15-.6-4.15-7.85-8.95-15.7-2.3-3.7-4.25-6.5v-.05l-.45-3.6q-.15-1.55-.2-2.05-2-21.45-2-42.75 0-21.3 3.1-45.75m-27.05-3.75q.35.05.7.1 3.6.4 7.05.85-1.3 6.2-2.45 13.25-4.05 25.45-4.05 52.55 0 12.55.25 19.85.4 11 1.4 19.85.4 3.3.95 9.9.6 6 1.45 9.95.15.65.35 1.55-10.75.45-22.1.45-27 0-60.8-4.95-6.05-.9-12-1.9-1.7-21.4-1.7-31.45 0-7.55 2.2-30.85 1.85-19.65 2.7-25.55 2.15-15.7 8.7-35.4 11.1-1.35 23.25-1.35.65 0 5.25.05 14.8.2 34.75 1.75 5.1.4 14.1 1.35m-27.55-31.85q8.7 0 11.1 5.9.75 2 .85 4.85.05 1.45-.05 3.75 0 2.45-1.2 8.95-.3 1.6-.6 3.4-14.5-.9-31-1.2.1-1.2.25-2.2.35-2.85.5-3.85 3.85-19.6 20.15-19.6z"/>
                <path d="m95.75 35.8q-.35-.05-.7-.1-9-.95-14.1-1.35-19.95-1.55-34.75-1.75-4.6-.05-5.25-.05-12.15 0-23.25 1.35-6.55 19.7-8.7 35.4-.85 5.9-2.7 25.55-2.2 23.3-2.2 30.85 0 10.05 1.7 31.45 5.95 1 12 1.9 33.8 4.95 60.8 4.95 11.35 0 22.1-.45-.2-.9-.35-1.55-.85-3.95-1.45-9.95-.55-6.6-.95-9.9-1-8.85-1.4-19.85-.25-7.3-.25-19.85 0-27.1 4.05-52.55 1.15-7.05 2.45-13.25-3.45-.45-7.05-.85m33.25 4.85q-5.35-.95-6.9-1.2-3.1 24.45-3.1 45.75 0 21.3 2 42.75.05.5.2 2.05l.45 3.6v.05q1.95 2.8 4.25 6.5 4.8 7.85 8.95 15.7 0 .8-.15.6l-.1.2q-.15.2-.65.2-.85 0-5.15-6.55-5.35-8.15-6.3-9.5l-3-3.9q-1 1.75-1.55 2.7-7.4 12.95-12.15 20.5-.45-.1-.55-.2-.2-.15-.2-.7 0-4.55 8.6-18.7 2.1-3.45 3.9-6.2l.95-1.35-.55-4.3q-.4-4.45-.7-9.55-.95-14.75-.95-33.85 0-21.2 2.05-39.4.35-3.5.8-6.9-5.8-.95-12.05-1.75-1.65 7-2.65 12.65-3.35 18.65-4.75 46.25v13q-.05 2-.05 6.3 0 11.7 1.85 32.6.35 4.4 2.4 15.4 18.5-.95 35.3-3.25-1.6-7.75-2.7-18.3-2.05-18.7-2.05-37.25 0-9.35 1.55-21.4 1.7-12.85 4.75-25.1 1.85-7.6 4.05-14.05-7.5-1.8-15.8-3.4z" fill="#fff"/>
            </g>
        </g>
    </g>
    <g transform="translate(306.85 115.7)">
        <g>
            <g id="S_mbolo_3_0_Layer0_0_FILL">
                <path d="m177.8 44.2q-.05-4.85-1.45-8.45-4.25-11-20.05-11-18.95 0-27.8 16.45-.7 1.25-1.3 2.65-7.4-.75-15.15-1.3.45-2.7.85-5.05 1.4-8.8 1.4-12.3.2-3.15.2-5.75-.1-4.85-1.5-8.45-4.2-11-20.1-11-18.9 0-27.75 16.4-4.6 8.5-6.35 21.1-.2 1.4-.35 2.95-.8-.05-1.6-.05-13.9-.45-37.45 2.95-7.35 21.65-11.75 46.6-3.85 21.3-5.85 44.95-1.8 20.7-1.8 37.7 0 3.25.3 14.75.35 15.4.9 23.3.1 2.15.55 8.15 14.4 2.5 24.35 4.35 45.7 7.2 86.8 7.2 13.5 0 30.75-.85 25.4-1.45 52.45-6.05-1.5-10.2-2.4-16.65-4.05-29.65-4.05-52.15 0-19.1 1.15-31.65 1.35-13.65 5.25-33.85 2.55-13.3 8.15-29.5-12.05-4.3-26.65-7.7.1-1.15.1-2.05.25-3.15.15-5.7m-6.55-6.05q1.1 2.75 1.2 6.65.1 2.05-.05 5.1 0 .4 0 .9-2.05-.5-4.15-.9-14.4-2.75-25.95-4.35-4.8-.6-9.8-1.15 7.2-14.35 23.6-14.35 11.95 0 15.15 8.1m5.95 17.7q11.35 2.15 21.6 4.65-2.95 8.9-5.55 19.3-4.15 16.85-6.45 34.5-2.2 16.5-2.2 29.35 0 25.45 2.8 51.15 1.55 14.45 3.8 25.1-23.1 3.15-48.5 4.45-2.85-15.05-3.35-21.1-2.5-28.75-2.5-44.75 0-5.95.05-8.7v-17.8q1.95-37.95 6.55-63.55 1.35-7.75 3.6-17.4 8.6 1.15 16.6 2.45-.65 4.65-1.15 9.45-2.75 25-2.75 54.1 0 26.25 1.25 46.5.4 7 1 13.1l.7 5.95-1.3 1.85q-2.45 3.75-5.35 8.5-11.85 19.45-11.85 25.65 0 .75.3 1 .2.15.8.25 6.5-10.4 16.7-28.1.75-1.35 2.1-3.75l4.15 5.35q1.3 1.8 8.6 13 5.95 9.1 7.1 9.1.65 0 .85-.3l.15-.3q.25.3.25-.85-5.7-10.75-12.35-21.5-3.15-5.1-5.75-9l-.05-.05-.6-4.95q-.25-2.1-.3-2.85-2.75-29.35-2.75-58.7 0-29.2 4.3-62.8 2.1.35 9.5 1.7m-10.3 127.4q0-.1 0-.2l.05.3q-.05-.05-.05-.1m-36.35-134.2q.4.05.95.1 4.95.55 9.7 1.15-1.85 8.5-3.4 18.2-5.55 34.95-5.55 72.2 0 17.2.3 27.25.55 15.1 2 27.25.55 4.5 1.3 13.6.8 8.2 1.95 13.65.2.9.5 2.15-14.8.65-30.35.65-37.05 0-83.5-6.8-8.3-1.25-16.5-2.65-2.35-29.35-2.35-43.2 0-10.35 3-42.35 2.6-27 3.8-35.1 2.9-21.55 11.9-48.65 15.25-1.8 31.95-1.8.85 0 7.2.1 20.3.2 47.7 2.35 7 .6 19.4 1.9m-22.65-35.65q1.1 2.75 1.25 6.6.05 2.05-.15 5.2 0 3.35-1.6 12.3-.4 2.2-.85 4.65-19.9-1.25-42.6-1.65.15-1.65.35-3 .5-3.95.75-5.3 5.25-26.9 27.65-26.9 11.95 0 15.2 8.1z"/>
                <path d="m131.5 49.15q-.55-.05-.95-.1-12.4-1.3-19.4-1.9-27.4-2.15-47.7-2.35-6.35-.1-7.2-.1-16.7 0-31.95 1.8-9 27.1-11.9 48.65-1.2 8.1-3.8 35.1-3 32-3 42.35 0 13.85 2.35 43.2 8.2 1.4 16.5 2.65 46.45 6.8 83.5 6.8 15.55 0 30.35-.65-.3-1.25-.5-2.15-1.15-5.45-1.95-13.65-.75-9.1-1.3-13.6-1.45-12.15-2-27.25-.3-10.05-.3-27.25 0-37.25 5.55-72.2 1.55-9.7 3.4-18.2-4.75-.6-9.7-1.15m67.3 11.35q-10.25-2.5-21.6-4.65-7.4-1.35-9.5-1.7-4.3 33.6-4.3 62.8 0 29.35 2.75 58.7.05.75.3 2.85l.6 4.95.05.05q2.6 3.9 5.75 9 6.65 10.75 12.35 21.5 0 1.15-.25.85l-.15.3q-.2.3-.85.3-1.15 0-7.1-9.1-7.3-11.2-8.6-13l-4.15-5.35q-1.35 2.4-2.1 3.75-10.2 17.7-16.7 28.1-.6-.1-.8-.25-.3-.25-.3-1 0-6.2 11.85-25.65 2.9-4.75 5.35-8.5l1.3-1.85-.7-5.95q-.6-6.1-1-13.1-1.25-20.25-1.25-46.5 0-29.1 2.75-54.1.5-4.8 1.15-9.45-8-1.3-16.6-2.45-2.25 9.65-3.6 17.4-4.6 25.6-6.55 63.55v17.8q-.05 2.75-.05 8.7 0 16 2.5 44.75.5 6.05 3.35 21.1 25.4-1.3 48.5-4.45-2.25-10.65-3.8-25.1-2.8-25.7-2.8-51.15 0-12.85 2.2-29.35 2.3-17.65 6.45-34.5 2.6-10.4 5.55-19.3z" fill="#fff"/>
            </g>
        </g>
    </g>
    <g transform="translate(94.75 64.9)">
        <g>
            <g id="S_mbolo_1_0_Layer0_0_FILL">
                <path d="m224.55 63.1q.3-4 .2-7.2-.1-6.15-1.85-10.7-5.35-13.9-25.35-13.9-23.95 0-35.15 20.75-.85 1.6-1.65 3.35-9.3-.9-19.15-1.6.6-3.45 1.1-6.4 1.75-11.1 1.75-15.55.3-4 .25-7.25-.1-6.15-1.85-10.7-5.35-13.9-25.4-13.9-23.9 0-35.1 20.75-5.8 10.75-8.05 26.65-.25 1.8-.45 3.7-1-.05-2-.05-17.55-.55-47.3 3.75-9.35 27.35-14.9 58.9-4.85 26.95-7.4 56.8-2.25 26.2-2.25 47.65 0 4.1.4 18.65.45 19.5 1.1 29.45.15 2.7.7 10.3 18.2 3.2 30.8 5.5 57.75 9.1 109.7 9.1 17.1 0 38.9-1.05 32.05-1.85 66.3-7.65-1.95-12.9-3.05-21.05-5.15-37.5-5.15-65.95 0-24.1 1.5-40 1.65-17.25 6.6-42.75 3.25-16.85 10.3-37.3-15.25-5.45-33.65-9.75.1-1.45.1-2.55m-43.25 23.4q1.75-9.75 4.6-21.95 10.85 1.4 20.95 3.05-.8 5.9-1.45 12-3.5 31.6-3.5 68.35 0 33.15 1.6 58.8.5 8.85 1.25 16.55l.9 7.5-1.65 2.35q-3.1 4.75-6.75 10.75-14.95 24.55-14.95 32.4 0 .95.35 1.25.25.2 1 .35 8.25-13.15 21.1-35.55.95-1.7 2.7-4.7l5.2 6.75q1.65 2.3 10.9 16.45 7.5 11.45 8.95 11.45.85 0 1.1-.35l.2-.4q.3.4.3-1.05-7.2-13.6-15.6-27.2-4-6.45-7.3-11.35l-.05-.05-.75-6.25q-.3-2.65-.4-3.6-3.45-37.15-3.45-74.2 0-36.95 5.4-79.4 2.7.45 12 2.15 14.4 2.7 27.35 5.9-3.75 11.2-7 24.35-5.25 21.3-8.2 43.6-2.75 20.9-2.75 37.1 0 32.2 3.55 64.7 1.95 18.25 4.75 31.7-29.2 4-61.3 5.65-3.55-19.05-4.2-26.7-3.2-36.3-3.2-56.55 0-7.5.1-11v-22.5q2.45-47.95 8.25-80.35m-2.85-22.9q-2.3 10.75-4.25 23-7.05 44.15-7.05 91.25 0 21.75.4 34.45.7 19.1 2.5 34.45.7 5.7 1.65 17.15 1 10.4 2.5 17.3.25 1.1.6 2.7-18.7.8-38.35.8-46.85 0-105.55-8.6-10.5-1.55-20.85-3.3-2.95-37.15-2.95-54.65 0-13.05 3.8-53.5 3.25-34.15 4.75-44.4 3.7-27.2 15.05-61.45 19.3-2.3 40.4-2.3 1.1 0 9.1.1 25.65.3 60.3 3 8.85.75 24.5 2.4.55.05 1.2.1 6.25.75 12.25 1.5m1.4-6.05q-6.05-.75-12.35-1.45 9.1-18.1 29.8-18.1 15.1 0 19.15 10.2 1.4 3.5 1.55 8.4.1 2.6-.1 6.5 0 .5 0 1.1-2.6-.6-5.2-1.1-18.25-3.5-32.85-5.55m-42.05-25.7q0 4.25-2.05 15.55-.5 2.75-1.05 5.9-25.15-1.6-53.85-2.1.2-2.1.45-3.8.6-5 .9-6.7 6.65-34 35-34 15.1 0 19.2 10.25 1.35 3.45 1.55 8.35.05 2.6-.15 6.55m73.2 199.9q-.05-.05-.05-.1 0-.15 0-.3zm-140.5-65.4q-.15.6-.15 5.15 0 12.3 6.05 19.4 5.45 6.35 13.35 6.25 7.85-.1 13.35-6.5 6.1-7 6.1-18.7l-.3-4.45q-.95-4.45-3.9-4.45-2.25 0-3.4 4-1.05 5.55-1.7 8.75-1.25 5.9-3.5 8.85-3 4-8.55 4-5.7 0-7.9-8.4-1.1-4.25-1.05-8.9 0-.05.25-1.55.25-1.75.1-3.2-.45-4.55-4.3-4.55-3.65 0-4.45 4.3m2.4-73.8q-7.4-8.6-18.05-8.45-10.65.15-18.1 8.75-8.2 9.55-8.2 25.35l.4 6.05q1.2 6.05 5.2 6.05 3.1 0 4.6-5.4 1.45-7.6 2.35-11.9 1.7-8 4.7-11.95 4.1-5.45 11.55-5.45 7.8 0 10.7 11.35 1.5 5.75 1.45 12.05 0 .1-.35 2.15-.3 2.35-.15 4.3.65 6.15 5.8 6.15 5 0 6.1-5.8.2-.85.2-6.95 0-16.7-8.2-26.3m73.4-3.6q-7.1-8.7-17.5-7.5-10.35 1.25-17.6 11.4-7.95 11.25-7.95 28.35l.35 5.65q1.1 5.7 4.8 5.7 2.9 0 4.85-6.05.35-1.1 3.15-13.25 2.1-8.95 4.55-13.25 3.5-6.05 9.05-6.05 8.15 0 10.95 11.55 1.45 5.75 1.25 11.95 0 4.1-1.3 14.95 0 1.75.95 3.55 1.55 3 4.95 3 5.5 0 7-10.3.5-3.25.55-7.35-.1-3.65-.1-4.05 0-18.55-7.95-28.3z"/>
                <path d="m174.2 86.6q1.95-12.25 4.25-23-6-.75-12.25-1.5-.65-.05-1.2-.1-15.65-1.65-24.5-2.4-34.65-2.7-60.3-3-8-.1-9.1-.1-21.1 0-40.4 2.3-11.35 34.25-15.05 61.45-1.5 10.25-4.75 44.4-3.8 40.45-3.8 53.5 0 17.5 2.95 54.65 10.35 1.75 20.85 3.3 58.7 8.6 105.55 8.6 19.65 0 38.35-.8-.35-1.6-.6-2.7-1.5-6.9-2.5-17.3-.95-11.45-1.65-17.15-1.8-15.35-2.5-34.45-.4-12.7-.4-34.45 0-47.1 7.05-91.25m-45.4-5.15q10.4-1.2 17.5 7.5 7.95 9.75 7.95 28.3 0 .4.1 4.05-.05 4.1-.55 7.35-1.5 10.3-7 10.3-3.4 0-4.95-3-.95-1.8-.95-3.55 1.3-10.85 1.3-14.95.2-6.2-1.25-11.95-2.8-11.55-10.95-11.55-5.55 0-9.05 6.05-2.45 4.3-4.55 13.25-2.8 12.15-3.15 13.25-1.95 6.05-4.85 6.05-3.7 0-4.8-5.7l-.35-5.65q0-17.1 7.95-28.35 7.25-10.15 17.6-11.4m-73.95 2.65q10.65-.15 18.05 8.45 8.2 9.6 8.2 26.3 0 6.1-.2 6.95-1.1 5.8-6.1 5.8-5.15 0-5.8-6.15-.15-1.95.15-4.3.35-2.05.35-2.15.05-6.3-1.45-12.05-2.9-11.35-10.7-11.35-7.45 0-11.55 5.45-3 3.95-4.7 11.95-.9 4.3-2.35 11.9-1.5 5.4-4.6 5.4-4 0-5.2-6.05l-.4-6.05q0-15.8 8.2-25.35 7.45-8.6 18.1-8.75m15.5 87.4q0-4.55.15-5.15.8-4.3 4.45-4.3 3.85 0 4.3 4.55.15 1.45-.1 3.2-.25 1.5-.25 1.55-.05 4.65 1.05 8.9 2.2 8.4 7.9 8.4 5.55 0 8.55-4 2.25-2.95 3.5-8.85.65-3.2 1.7-8.75 1.15-4 3.4-4 2.95 0 3.9 4.45l.3 4.45q0 11.7-6.1 18.7-5.5 6.4-13.35 6.5-7.9.1-13.35-6.25-6.05-7.1-6.05-19.4m115.55-106.95q-2.85 12.2-4.6 21.95-5.8 32.4-8.25 80.35v22.5q-.1 3.5-.1 11 0 20.25 3.2 56.55.65 7.65 4.2 26.7 32.1-1.65 61.3-5.65-2.8-13.45-4.75-31.7-3.55-32.5-3.55-64.7 0-16.2 2.75-37.1 2.95-22.3 8.2-43.6 3.25-13.15 7-24.35-12.95-3.2-27.35-5.9-9.3-1.7-12-2.15-5.4 42.45-5.4 79.4 0 37.05 3.45 74.2.1.95.4 3.6l.75 6.25.05.05q3.3 4.9 7.3 11.35 8.4 13.6 15.6 27.2 0 1.45-.3 1.05l-.2.4q-.25.35-1.1.35-1.45 0-8.95-11.45-9.25-14.15-10.9-16.45l-5.2-6.75q-1.75 3-2.7 4.7-12.85 22.4-21.1 35.55-.75-.15-1-.35-.35-.3-.35-1.25 0-7.85 14.95-32.4 3.65-6 6.75-10.75l1.65-2.35-.9-7.5q-.75-7.7-1.25-16.55-1.6-25.65-1.6-58.8 0-36.75 3.5-68.35.65-6.1 1.45-12-10.1-1.65-20.95-3.05z" fill="#fff"/>
            </g>
        </g>
    </g>
</svg>
