<svg height="400" preserveAspectRatio="none" viewBox="0 0 550 400" width="550" xmlns="http://www.w3.org/2000/svg" xmlns:xlink="http://www.w3.org/1999/xlink">
    <defs>
        <linearGradient id="Gradient_1" gradientUnits="userSpaceOnUse" spreadMethod="pad" x1="283.8875" x2="282.3125" y1="291.5875" y2="362.2125">
            <stop offset="0" stop-color="#75cbc8"/>
            <stop offset="1" stop-color="#9afcff"/>
        </linearGradient>
        <linearGradient id="Gradient_2" gradientUnits="userSpaceOnUse" spreadMethod="pad" x1="127.575" x2="127.625" y1="19.5" y2="177.3">
            <stop offset="0" stop-color="#200000"/>
            <stop offset="1" stop-color="#5f5852"/>
        </linearGradient>
        <linearGradient id="lg1">
            <stop offset="0" stop-color="#850000"/>
            <stop offset=".52941176471" stop-color="#d00000"/>
            <stop offset="1" stop-color="#f00"/>
        </linearGradient>
        <linearGradient id="Gradient_3" gradientUnits="userSpaceOnUse" spreadMethod="pad" x1="295.65" x2="282.45" xlink:href="#lg1" y1="214.175" y2="70.725"/>
        <linearGradient id="Gradient_4" gradientUnits="userSpaceOnUse" spreadMethod="pad" x1="203.5875" x2="223.0125" xlink:href="#lg1" y1="243.425" y2="121.575"/>
        <g id="S_mbolo_1_0_Layer0_0_FILL">
            <path d="m130.55 236.8q-5.55.65-8.25 1.35l.05 1.6h.4q3.75.15 10.25-.4l-.05-2.8q-1.15.1-2.4.25m-8.3-4.25q5.75-.25 7.8-1.7-1.2-.6-7.7-.55-.05 0-.15 0zm-.2-12.6v1.5l.05.05 8.55.25q1.05-.05 2-.1v-1.3q-.75 0-1.55.05l-8.85-.3q-.1-.05-.2-.15m1.7 68.55q3.75.15 6.6-.75 2.7-.8 2.75-1.95 0-.55-.1-.6-.15 0-.15-.1-3.4-.3-8.95 1-.4.15-.75.25h-.05l.1 2.15q.3 0 .55 0m9.9-7.3-.05-3.05q-6.95.45-10.6 1.05l.05 2.3q1 .5 3.2.6 3.1.1 7.4-.9m-10.4-10.85q-.2.05-.4.15l.05 1.75q1.05-.25 2.15-.55 5.1-1.4 8.4-2.45v-1.65q-4.6 1.45-10.2 2.75m8.9-19.4q.5-.2 1-.35v-.95q-9-.2-10.15 1.3.25.2.25.4l4.1.3q2.7.1 4.8-.7m-9.75-7.7v2.05q.75-.1 1.6-.35.6-.1 5.75.35 2.1.2 3.35-.2l-.05-1.25q-6.55-1.4-10.65-.6m-.5-30.75v.1q.1.1.4.2.45.25.45.3l1.95.1q1.35.05 7.8-1.1l.05-.1q-1.1-.1-5 .1-4.65.4-5.65.4m10.5-7.3-.05-3.6q-6.35.7-7.55 2.8.2.4 1.4.8 1.05.35 1.7.35 1.2.05 4.5-.35m-10.8-10.25.05 2.15q.15.05.35.05 2.65.1 10.25-1.4l-.05-3.4q-.55.05-1.15.15-7.65 1.15-9.45 2.45m5.7-6.1q1.9-.45 4-1.15 0-.1-.25-.15h-.3q-1.45-.25-3.75.35-2.6.7-5.5.8l.05 1.05.85.1q1.35.05 4.9-1m-4.75-7.75 3.6.1q.3 0 1.95-.55 1.85-.55 2.5-.9-1.7-.15-3.15-.15-.6.05-4.9.2-.7.2-.7.8.25.3.7.5m-1.25-3.95h.05q.3.15.95.2 1.05 0 4.05-.65 3.7-.8 5.15-1.85-.1-.2-.15-.25-.05-.05-.6-.1-7.3 1-9.4 2.15v.3zm-.4-26.9h-.05v.85h.05q.4.05.8.1.65 0 6.2-.6 1.85-.2 3.6-.3v-.9l-.05-.35q-5.2.3-8.1.8-1.45.25-2.45.4m.2 13.9.05 1.95q3.4 0 6.8-.5 2.35-.3 3.8-.8l-.05-1.75q-2.5-.3-6.95.45-2.15.4-3.65.65m-.1-8.2v1.2q.9-.15 4.05-.8 3.6-.85 4.35-1.35-2.75-.25-6.25.45-1.35.25-2.15.5m9.2-15.65q-3-.9-7.65.15-1 .2-1.8.45h-.05l.05 1.7q.05 0 .1 0 .75 0 4.55-1 4.25-1.2 4.8-1.3m-7.35-10.1q3.1.45 4.25.5 2.15.05 4.1.05l-.05-3.15q-.85-.05-1.7 0-6 .3-8.95.8l.05 1.4q1 .2 2.3.4m-1.25-9.6q0 .85.2 1 .05.05 1 .3.75-.1 8.2-.6l-.05-4.45q-.85.1-1.75.2-7.5 1.1-7.6 3.55m6.1-10.25q-.35-.2-.35-.25-4.1.45-7.1 1.1l-.05.55.05.7q1-.2 2.3-.45 4.55-.9 5.65-1.35-.1-.15-.5-.3z" fill="#fff"/>
            <path d="m122.1 221.5-.05-.05.15 8.85q.1 0 .15 0 6.5-.05 7.7.55-2.05 1.45-7.8 1.7l.05 5.6q2.7-.7 8.25-1.35 1.25-.15 2.4-.25l-.3-16.2v1.3q-.95.05-2 .1zm.2-8.7q-.3-.1-.4-.2l.15 7.35q.1.1.2.15l8.85.3q.8-.05 1.55-.05l-.15-8.25q-6.45 1.15-7.8 1.1l-1.95-.1q0-.05-.45-.3m3.95 69.3q-2.2-.1-3.2-.6l.1 4.85q.35-.1.75-.25 5.55-1.3 8.95-1 0 .1.15.1.1.05.1.6-.05 1.15-2.75 1.95-2.85.9-6.6.75-.25 0-.55 0v4.5q.05 2.15 1.65 3.7.6.55 1.25.9l.15 8.35q0 1 .75 1.75.75.7 1.8.7 1 0 1.75-.75.7-.75.7-1.75l-.1-8.35q.65-.4 1.2-1 1.5-1.6 1.5-3.75l-.2-11.6q-4.3 1-7.4.9m7.2-12.85q-3.3 1.05-8.4 2.45-1.1.3-2.15.55l.1 6.95q3.65-.6 10.6-1.05zm-9.45-24.3q-.85.25-1.6.35l.45 25.2q.2-.1.4-.15 5.6-1.3 10.2-2.75l-.3-17q-.5.15-1 .35-2.1.8-4.8.7l-4.1-.3q0-.2-.25-.4 1.15-1.5 10.15-1.3l-.05-4.55q-1.25.4-3.35.2-5.15-.45-5.75-.35m-1.65-5.2.05 3.5q4.1-.8 10.65.6l-.05-4.5q-6.5.55-10.25.4zm-.35-42.6q-.2 0-.35-.05l.25 15.4q1 0 5.65-.4 3.9-.2 5-.1l-.15-6.8q-3.3.4-4.5.35-.65 0-1.7-.35-1.2-.4-1.4-.8 1.2-2.1 7.55-2.8l-.1-5.85q-7.6 1.5-10.25 1.4m-.85-31.05.2 10.55q2.1-1.15 9.4-2.15.55.05.6.1.05.05.15.25-1.45 1.05-5.15 1.85-3 .65-4.05.65-.65-.05-.95-.2l.15 11.55q2.9-.1 5.5-.8 2.3-.6 3.75-.35h.3q.25.05.25.15-2.1.7-4 1.15-3.55 1.05-4.9 1l-.85-.1.05 5.2q1.8-1.3 9.45-2.45.6-.1 1.15-.15l-.45-27.55q-1.45.5-3.8.8-3.4.5-6.8.5m5 15.1-3.6-.1q-.45-.2-.7-.5 0-.6.7-.8 4.3-.15 4.9-.2 1.45 0 3.15.15-.65.35-2.5.9-1.65.55-1.95.55m-5.25-30.1.1 4.85q.8-.25 2.15-.5 3.5-.7 6.25-.45-.75.5-4.35 1.35-3.15.65-4.05.8l.1 7q1.5-.25 3.65-.65 4.45-.75 6.95-.45l-.2-12.75q-1.75.1-3.6.3-5.55.6-6.2.6-.4-.05-.8-.1m6.2-20.4q-1.15-.05-4.25-.5-1.3-.2-2.3-.4l.2 11.1q.8-.25 1.8-.45 4.65-1.05 7.65-.15-.55.1-4.8 1.3-3.8 1-4.55 1-.05 0-.1 0l.15 7.65q1-.15 2.45-.4 2.9-.5 8.1-.8l.05.35-.3-18.65q-1.95 0-4.1-.05m117.85-55.75q-.1-.45-.35-.75l-8.15 7.7-5.65-.2q-.35 0-.6.15-.4.1-.6.35l-5.3 5.85-2.45-1.35 20.55-20.8q-.6-.5-1.4-.55-1.05-.1-1.8.6l-5.95 4.95-2.25-4.85 7.45-15.15q-.55-.2-1.1-.1-1.05.1-1.7.95l-3.85 5.1-2.05-1.4 4.85-8.1q.3-.6.15-1.15-.1-.6-.65-.9l-7.65 9.8q-.3.5-.2 1.05.15.55.65.95l3.05 2.15-3.8 4.95q-.5.55-.55 1.25-.1.7.25 1.35l3.4 7.4-10.2 8.35-3.55-4.75 2.15-1.95q.05-.1.2-.2l2.9-2.9q.3-.35.4-.75.05-.5-.1-.9l-2.6-6.1 4.55-10q-.4-.15-.85-.05-.6.1-.95.6l-4.15 6.15-1.8-4.2q-.25-.6-.75-.85-.45-.15-.9-.05l4.3 14.8-1.15 1.15-6.1-4.55q-.25.3-.3.65-.05.6.35 1.1l3.9 4.9-2.1 1.9q-.45.4-.5 1 0 .55.3 1l4.4 5.85-.05.05-8.05 6.65-7.4-5.4q-.45-.35-.95-.45-.5-.1-1.1 0l-23.5 5.5.15-4.45 5.3-3.6q.3-.2.45-.5.15-.35.2-.7l-1-4.75q-.15-.1-.35-.1-.6 0-1.05.45-.5.4-.5 1l-.1 2.55-5.25 3.65q-.35.15-.5.5-.15.3-.15.65l-.2 5.95-2.2.55-2.1-6.15 2.55-1.15q.35-.2.65-.55.2-.4.2-.8l.05-1.35q0-.05 0-.15l-.25-4.25 21.6-5.35 1.45 3.95q.1.4.5.7.3.3.75.3.45 0 .85-.15l8.55-4.4q.55-.25.75-.85.1-.45.05-.8l-9.2 2.65-.7-2.1 1.65-.45q.5-.15.95-.45.4-.35.65-.85l8.7-16.9.05.05q.4.35.95.35l2.65.1q.6.05 1.05-.35l6.5-5.85q.5-.4.5-1 0-.45-.2-.8l-8.35 5-1.5-.05-.25-.2 6.4-12.45q.4-.95.1-1.9-.25-.85-1.05-1.35l-12.05 17.6-4.65-6.2 7.1-22.75q-.9-.4-1.9-.05-.95.35-1.3 1.35l-9.1 20.8q-.3.6-.2 1.3.1.65.5 1.25l7.05 9.25-4.95 9.5-2.25.6h.05l-8.6 2.15-2.75-9.6 8.6-9.55q-.45-.45-1-.45-.6-.05-1.05.35l-3.25 2.85-5-5.25q-.35.3-.5.75-.15.6.2 1.15l2.95 5.35-3.65 3.15q-.35.3-.5.75-.1.4.05.85l3.05 10.35-17.75 4.4-1.05-2.2 6.55-2.75q.5-.25.75-.75.25-.55.1-1.05l-3.7-6.25q-.45.2-.7.65-.3.55-.1 1.15l1.2 4-6.75 2.85q-.35.2-.6.55-.25.3-.3.75 0 .4.2.75l1.45 3-3.1.8.15-4.45q.05-.6-.35-1.05-.45-.5-1.05-.5l-3.25-.1.2-.1q.4-.25.65-.7.15-.45.1-.9l-1-6.4 6.75.25q.8.05 1.45-.4.6-.45.95-1.1l5-12.1v-.05l2.35-5.7 26.7-14.65q.85-.5 1.2-1.45.25-.85-.1-1.6l-30.95 13.75q-.8.4-1.15 1.25l-2.6 6.45-6.7 1.45-8.25-.3 14.3-9.4q.1-.1.2-.15l17.3-14.25q-.45-.5-1.15-.65-1-.25-1.85.35l-15.2 9.25-3.55-4.6.1-3.15 2.35-6.65 4.3.15q.35 0 .65-.1.3-.15.55-.45l4.4-5.3q.35-.5.35-1.1-.1-.6-.6-1l-5.95 4.95-2.65-.1 2.8-7.8q.35-1-.05-1.9-.25-.5-.65-.8l-10.1 18.05-2.35-.1-1.2-10.95q-.55 0-.95.4-.5.45-.5 1.05l-.4 10.9q0 .6.45 1.05.4.45 1 .5l3.5.1-.1 2.95q0 .9.55 1.65l3.8 4.85-6.2 3.85h.05l-8.5 5.25q-.55.25-.85.85-.35.55-.35 1.15l-.1 3-5.5 1.6-.7-5.8.05-.05q0-.15 0-.3l-.3-1.85v-.1l-.45-2.9q0-.15 0-.25v-.05l-.65-4.2 9.85-9.1q-.3-.2-.65-.3-.65-.1-1.15.25l-10.5 7.25q-.4.2-.55.6-.15.4-.05.85l.45 3.35-3.6-.15q-.6 0-1.05.4-.45.45-.5 1.05 0 .6.45 1.05.4.5 1 .5l4.15.15.3 1.85v.05q-.05.05 0 .1l.05.85-6.3 2.85-2.45-15.15 10.65-3.35q.7-.2 1.25-.85.45-.65.5-1.45l.1-3q3.7-.6 6.6-3.7 1.4-1.45 2.35-3.15v-.05q1.55-2.95 1.65-6.6.05-.6-.4-1.05-.4-.4-.95-.5-.25 1.55-1 3.55-.75 1.9-1.7 3.25-1 1.3-2.1 2.45-2 2.05-4.35 2.7l.6-17.6q.05-1.05-.65-1.75-.45-.5-1-.7l-4.1 24.25-8.3 2.55-7.45-26q-.65.25-1 .85-.65.8-.45 1.85l4.25 25.8-2.15.75-1.95-9.75q-.05-.55-.45-.85-.45-.4-.95-.4l-7.35 1.35q.05.55.4.95.45.5 1.05.5l4.65.15 1.95 10.25q.1.4.35.75.3.3.75.45.4.05.8-.05l3.4-1.1 4.45 27.3-6.7 3.2-3.3-3.9q-.4-.4-.85-.6-.5-.25-1-.25l-3.75-.15 4.8-15.25q.25-.8-.05-1.65l-16.2-36.05q-.3.05-.65.2-.95.35-1.35 1.35-.4.95-.05 1.9l6.85 17.45q-4.75-.85-8.55-3.4-.7-.5-1.35-1.05-2.4-1.95-3.65-4.1-1.55-2.65-1.4-5.7 0-1.05-.65-1.75-.75-.75-1.7-.8-.05.5-.15 1.2-.45 3.1.4 7.8.85 4.7 4 7.25l.05.05q.1.05.25.2l-2 2.45-5.55-3.4q-.15.05-.25.2-.4.45-.35 1.1 0 .6.5 1l4.8 4.35q.3.3.7.4.4.05.8-.1.4-.1.65-.4l3.15-3.85q5.4 3.3 12.4 3.9l3.15 7.9-5.85 2.55-4.5-7q-.25-.3-.55-.5-.35-.2-.7-.2l-8.05 1.55q.1.4.4.75.4.45 1 .45l5.8.2 4.8 7.4q.3.45.8.6.55.2 1.05-.05l6.85-2.95.1.2-5.5 17.45q-.25.75 0 1.55.2.75.9 1.2.6.5 1.4.5l6 .2 1.65 2-7.05 3.4q-.6.25-1 .85-.4.6-.45 1.3l-.2 6.85-6.7 2.45q-.55.15-.8.65-.3.45-.15 1.05l.5 2.65-3.65.1-1-3.8 4.95-2.5q.45-.25.7-.7.2-.55 0-1.05l-4.45-13.3.05-1.2 5.75-4.45q0-.1-.05-.15-.25-.55-.85-.75-.6-.15-1.15.15l-1.5.8-4.65-7.4h-.05q-.6.25-.8.85-.25.5 0 1.15l2.85 6.7-1.65.85q-.4.15-.65.5-.2.35-.2.75l-.1 2.35q0 .25.1.55l4.1 12.25-3.15 1.6-3.85-15.3q-.2-.65-.7-1.15-.5-.5-1.15-.65l.25-7.3q-.15-.05-.3-.05-.6-.05-1.05.4-.5.45-.5 1.05l-.05.9-1.3 4.4-8.35-1.85 2-6.25q.15-.5.1-1l-.2-1.9 7-1.3q.35-.1.7-.35.3-.25.4-.65.15-.4.05-.8l-2.95-12.75q-.15-.6-.7-.9-.4-.3-.85-.25l1.2 13.05-5.1 1-6.35-34q-.9.1-1.5.85-.6.8-.5 1.8l3.8 36.2-2 6.2-10.1-2.2-.6-3.8 2.9-1.65q.4-.25.6-.7.2-.4.15-.85l-3-9.7q-.65.1-1.05.55-.35.5-.25 1.15l1.15 7.4-1 .65-.6-3.55q0-.2-.05-.35l-2.7-16.3 3.55-1.1q.45-.15.75-.5.25-.4.3-.9l-1.45-6.8q-.55 0-.9.4-.45.45-.5 1.05l-.15 4.2-2.1.65-.65-3.7q-.15-1-1-1.6-.85-.6-1.8-.45l1.45 24.25-5.45 2.65-1.2-1.05q.25-.1.45-.3.4-.35.6-.8.1-.5-.15-1.05l-4.65-9.65 2.15-2.05q.5-.4.5-1 0-.6-.4-1.1-.1-.1-.15-.15l-4.95 2.85q-.35.35-.45.85-.1.45.15.9l4.05 8.45h-.05q-.25 0-.45.1l-9.75-8.85q-.8-.75-1.8-.7-.85.1-1.45.6l11.65 14.4 3.8 3.35q.5.55 1.3.65.7.1 1.4-.2l5.65-2.7 1.45 8.9q.15.75.65 1.35.55.5 1.3.7l13.7 2.95q.3.1.6.15l12.05 2.6.1.05 6.45 25.6-13.65-.45.35-9.9q0-.6-.4-1.1-.45-.45-1-.45l-4.55-.15-1.3-10.8q-.5.05-.9.45-.45.45-.5 1.05l-.35 10.7q0 .6.4 1.05.45.45 1.05.5l4.55.15-.3 8.4-8.2-.3-11-11.8q-.7-.75-1.75-.8l-6.55-.25.9-3.8 4.5.15q.6 0 1.1-.4.45-.45.45-1.05l-1.05-6.5q-.1 0-.2 0-.6 0-1.1.4-.45.45-.45 1.05l-.15 3.5-4.25-.15q-.55 0-.95.25-.4.35-.55.85l-1.3 5.6-5-.15q-.1-.2-.25-.4l-6.1-6.7 3.35-5.45q.15-.4.2-.8 0-.4-.25-.8l-1.4-2.4q.8-.8 1.55-2.4-.05-5.25-.1-7.7h-.05q-.6 0-1.05.4-.5.45-.5 1.05-.1 2.95-1.05 5.1l-.05-.05q-.2.55-.4.9l-1.65-2.65q-.3-.55-.9-.7-.6-.15-1.1.2-.1.05-.2.1l3.9 8.9-3.4 5.7q-.3.4-.2.85.05.5.35.85l5.25 5.85-9.25-.3-12.9-21.95q-.9.45-1.25 1.35-.35 1 .1 2l6.3 13.65-3.25 1.95-2.9-6.6q-.25-.5-.75-.75-.45-.25-1.05-.05l-1.1.3q-.85-3.3-1.15-5-.1 0-.15 0-.6-.05-1.1.4-.45.45-.45 1.05l-.2 4.5-1.95.6q-.6.15-.95.75-.25.45-.1 1l6.75-.4 3.05 7q.2.4.6.65.35.2.8.25.4 0 .8-.25l4.35-2.65 2.6 5.7q.3.6.85 1.05.6.35 1.3.4l28.4.95 4.3 4.6-2.55 2.8v.05l-.15-.1-9.2-.95q-.2.55.15 1.1.25.5.85.7l7.55 2.1q.15.05.35.05l1.05.05q.35 0 .65-.1.3-.15.5-.35l2.85-3.15 4.7 5.05q.7.75 1.75.75l27.3.95.3 1.4q.2.85.85 1.35.65.5 1.5.55l11.8.4 16.05 6 .1 5.9q3-.65 7.1-1.1 0 .05.35.25.4.15.5.3-1.1.45-5.65 1.35-1.3.25-2.3.45l-.05-.7.3 16.65q2.95-.5 8.95-.8.85-.05 1.7 0l-.15-6.3q-7.45.5-8.2.6-.95-.25-1-.3-.2-.15-.2-1 .1-2.45 7.6-3.55.9-.1 1.75-.2l-.15-10.85 25.35-5.55q.1-.05.2-.05l42.85-9.95 8 5.85q.7.5 1.55.45.85 0 1.5-.55l9.15-7.5 4.5 2.55q.45.2.95.15.5-.1.85-.45l5.7-6.2 13.6-1.05q0-.6-.45-1.05-.4-.5-1-.5l-3.45-.1 4.55-6q.35-.5.3-1.1m-79.05 8.65-3.7 1.7q-.45.2-.65.6-.25.3-.25.7l-.3 7.5-2.65.7.5-14.05 9.75-2.45.2 4-2.65 1.25q-.15.05-.25.05m-1.65 4.05 1.35-.6 1.95 5.6-3.5.75zm-47.65-19.5q0-.05.05-.05l.85-.35 1.25 17.85q.05.55.5.95.4.4.95.4l3.3.1-.1 3.3-6-.2.2-5.4q0-.2 0-.35l.25-6.9q0-.4-.2-.75-.2-.4-.55-.6l-2.1-1.15 1.55-6.85zm-3.5 1.65-.9 3.75-3.4-.1q-.25.5-.05 1.1.1.55.7.85l2.75 1.55h.05l2.55 1.4-.15 4.75-7.15.65.4-11.5zm-14.45 14.35-.4-1.95 4.35-1.6-.1 3.45zm-5.95 3.15 3.45-.1 1.25 6.85-3.05-.1-.25-1.1q-.05-.3-.15-.55zm7.8 6.9-1.3-7.05 3.2-.1-.25 7.2zm6.6.9.3-8.3 7.15-.65-.2 5.4q0 .6.4 1.05.45.5 1.05.5l7.5.25-.2 6.45q-.65.35-1.15.85zm49.3-44.4q.2 0 .4-.05l4.8-1-2.95 7.15-11.9-.4.2-6zm-8.4 10.75 2.35.05 1 5.95-2.1 1.15zm-1.4 11.95 1.7-.9 6.85.25-.15 3.95q-.3.2-.5.45-.5.65-.55 1.5l-.35 10.2-6.1 1.4.05-1.05 1.6-.6q.45-.15.7-.55.3-.35.3-.8l-1.45-8.9q-.45.05-.8.4-.5.45-.5 1.05l-.2 6.35-1.6.55-.05-.05-3.65 1.35.15-3.85 2.7.1q.6 0 1.05-.4.45-.45.5-1.05zm-.85-2.95.15-3.4.55 3.05zm-9.4-16.6 5.05-1.45-.25 6.85-4.2-.15zm-3.15-1.05q0 .15.05.3l.9 7.65q0 .55.45.9.4.4.95.4l5.5.2-.25 7.7-11 7.35-2.95-3.9 4.65-5.2q.35-.35.35-.85.05-.55-.25-1l-3.5-4.95q.1-.45 0-.85l-1.7-10.5 6.15-2.8zm-9.4 19.55q-.4.4-.4.9 0 .55.3.95l3.65 4.8-2.55 1.75q-.5.35-.8.9-.3.45-.35 1.05l-.05 1.35-1.95-.05-1.2-17.65 5.6-2.75 2.4 3.5zm12.65 6.5 2.85-1.9-.3 8.9-1.6-.8zm-2.75 1.85.85 5.55q.05.35.3.65.2.25.55.4l1.05.6-7.4 2.25q-.4.1-.65.45l.25-6.4zm3.35 10.2-.05 1.4q0 .3.1.55l2.2 6.15-8.6 1.9.3-8.15zm5.25-13.85q0-.6-.45-1.05-.2-.3-.55-.4l2.3-1.55-.25 7.15-1.2-.05zm2.2 13.2-.1 1.85q0 .45.3.85.25.4.65.6.45.15.9.05l7.25-1.6-.15 3.9-11.1 2.45-2.35-6.45z" fill="url(#Gradient_2)"/>
        </g>
    </defs>
    <g>
        <g id="Layer7_0_FILL">
            <path d="m550.2-1h-550.2v401h550.2zm-122.45 14.5q21.45 2.95 51.3 9.5 7.41171875 1.61132813 24.95 5.65 26.85 101.67578125 26.85 243.85 0 44.6-4.4 80.2-.29335937 2.33789063-1 6.9-32.95585937 6.30625-76.55 11.95-58.91699219 9.24003906-108.9 10.75-24.33085937 1.45-44.15 1.45-71.05 0-167.25-11.3-32.6359375-3.83671875-88.8-12.25-2.72402344-14.44960937-5.6-33-7.85-50.35-7.85-82.6 0-91.65 13.6-160.65 4.3546875-21.96875 11.1-46.55 8.040625-2.28417969 13.35-3.7 29.1-7.8 58.2-12.75 53.54707031-9.20507812 124.5-11.8 2.63808594-.825 5.25-1.55 2.15703125.59882813 4.3 1.2 23.73105469-.7 49.35-.7 45.5 0 70.6 1.05 28.1 1.15 51.15 4.35z" fill="#517979"/>
            <path d="m479.05 23q-29.85-6.55-51.3-9.5-23.05-3.2-51.15-4.35-25.1-1.05-70.6-1.05-25.61894531 0-49.35.7-2.14296875-.60117187-4.3-1.2-2.61191406.725-5.25 1.55-70.95292969 2.59492188-124.5 11.8-29.1 4.95-58.2 12.75-5.309375 1.41582031-13.35 3.7-6.7453125 24.58125-11.1 46.55-13.6 69-13.6 160.65 0 32.25 7.85 82.6 2.87597656 18.55039063 5.6 33 56.1640625 8.41328125 88.8 12.25 96.2 11.3 167.25 11.3 19.81914063 0 44.15-1.45 49.98300781-1.50996094 108.9-10.75 43.59414063-5.64375 76.55-11.95.70664063-4.56210937 1-6.9 4.4-35.6 4.4-80.2 0-142.17421875-26.85-243.85-17.53828125-4.03867187-24.95-5.65z" fill="#699"/>
        </g>
    </g>
    <g>
        <g id="Layer6_0_FILL">
            <path d="m331 204.55q1.45 1.6 3.05 1.6 3.7 0 4.2-4.8.3-2.9.45-3.45-4.55-2.45-20.5-6.35-12.65-3.1-20.7-4.5.1 2.7 1.85 4.45 1.55 1.6 3.45 1.6 2.65.05 4.05 1.65 1.35 1.6 2.35 1.6.3 0 .9-.3.6-.3.95-.3 1.65 0 2.7 1.05 1 1.1 1 2.95 0 .65-.5 4.8 0 1.75.8 3.15.95 1.65 2.5 1.65 2.4 0 2.55-2.9-.3-3.35-.3-4.2 0-1.05.8-1.7.75-.55 1.85-.55 2.25 0 2.35 2.15.15 2.1 1.25 2.1.75 0 1.3-.9.3-.45.7-1.2 1.25.45 2.95 2.4m-37.45 20.1q-.95-.8-1.75-.8-21.55 7.65-44 16.75-8.35 3-12.75 4.75-8 3.25-8 5.2 0 .7.5.95.2515625.1078125.7.2-.1.721875-.1 1.45 0 1.35.5 2.35.7 1.35 2 1.35 1.2 0 3.4-2.1 2.15-2.15 2.6-2.15.65 0 .7.1.15.15.65 1.2.8-.75 2-1.5 1.55-.9 2.4-.9 2.1 0 2.75 2.1.3.95.5 4.55.3 6.65 4.85 6.65 2.05 0 3.7-1.8 1.6-1.75 1.6-3.6 0-.45-1.05-3.95-1.1-3.5-1.1-4.6 0-2.25 1.35-2.25l1.1.55q1.05.5 1.3.5 1.4 0 2.3-2.9.95-2.95 3.95-2.95.8 0 2.15.4 1.35.4 2.1.4 3 0 5.25-1.7 2.65-2 1.85-4.9.15 0 2.35.75 2 0 2.95-2.25.95-2.25 2.9-2.25 2.4 0 3.1 4.4.65 4.35 2.75 4.35 1.65 0 3.45-1.25 2.1-1.5 2.1-3.4 0-1.15-1.15-2.2-1.2-1.05-1.2-2.3.65-1.05 1.35-2.15 1.3-2.15 1.3-4.1 0-1.85-1.35-2.95z" fill="url(#Gradient_1)"/>
        </g>
    </g>
    <g transform="matrix(.82928467 0 0 .82928467 -417.35 449.35)">
        <g>
            <use xlink:href="#S_mbolo_1_0_Layer0_0_FILL"/>
        </g>
    </g>
    <g transform="matrix(.82928467 0 0 .82928467 -293.85 473.9)">
        <g>
            <use xlink:href="#S_mbolo_1_0_Layer0_0_FILL"/>
        </g>
    </g>
    <g transform="matrix(-.82928467 0 0 .82928467 -150.25 449.35)">
        <g>
            <use xlink:href="#S_mbolo_1_0_Layer0_0_FILL"/>
        </g>
    </g>
    <g transform="matrix(-.82928467 0 0 .82928467 -254.35 469.15)">
        <g>
            <use xlink:href="#S_mbolo_1_0_Layer0_0_FILL"/>
        </g>
    </g>
    <g transform="matrix(.82928467 0 0 .82928467 -40.35 456.6)">
        <g>
            <use xlink:href="#S_mbolo_1_0_Layer0_0_FILL"/>
        </g>
    </g>
    <g transform="matrix(.82928467 0 0 .82928467 83.15 481.15)">
        <g>
            <use xlink:href="#S_mbolo_1_0_Layer0_0_FILL"/>
        </g>
    </g>
    <g transform="matrix(-.82928467 0 0 .82928467 226.75 456.6)">
        <g>
            <use xlink:href="#S_mbolo_1_0_Layer0_0_FILL"/>
        </g>
    </g>
    <g transform="matrix(-.82928467 0 0 .82928467 122.65 476.4)">
        <g>
            <use xlink:href="#S_mbolo_1_0_Layer0_0_FILL"/>
        </g>
    </g>
    <g>
        <g id="Layer4_0_FILL">
            <path d="m26.95 311.9q0 .05.45 2.4.75 2.3 2.65 2.3 1.3 0 2.25-1.1 1-1.15 1-2.7 0-3.25-3.15-3.75-3.2-.55-3.2 2.85m-1.3 13.15q.5-.35.65-1.05l-.25-.95q-.9-.2-2.35-.2-.1.25-.2.2-.05.05-.05 1.05 0 1.05.25 1.25.15.15.8.3.8-.3 1.15-.6m8.45-.15q0-.3-.25-.75-.35-.55-.9-.8-.6 0-.8.15-.3.2-.3 1.25 0 1.05.25 1.25.2.15.85.3.65-.2.85-.35zm5.35-8.55q0-1-.35-1.25-.5-.1-.95-.3-.5.1-.9.85-.4.8-.4 1.6.5.4 1.3.8.85-.2 1.15-.95.15.9.15-.75m3.25-7.55q.6-.15 1.15-.95l-.3-1q-.55-.2-1.1-.2-.55.05-.7.05l-.05-.05q-.1.1-.1 1.1 0 1 .25 1.05.2 0 .85 0m471-244.45.35-1.5q-2.15-2.95-3.5-2.1-.95.65-.95 2.1 0 1.65.05 1.5.1.05.85.55.3.25 1.25.25 1 0 1.5-.4.25-.2.45-.4m-6.6-33.75q.95-1.2.95-2.75 0-3.85-3.65-3.15-3.7.75-3.7 3.9 0 .8.55 1.8.9 1.65 2.7 1.65 2 0 3.15-1.45m-72.2-13.5q-.55-.85-1.6-1.3-.5.15-1.05.65-.6.5-.6.85l.15.95q.5.5 1.5.8.75-.3 1.2-.95.4-.55.4-1m-12.35 9.3q.15.4.15-1.25 0-1.9-1.7-1.9-1.75 0-1.75 2 0 .2 1.7 1.8.5-.1 1.05-.4.45-.25.55-.25m-.95-8.45q.65-1.1.65-2.2 0-3.85-3.45-3.3-3.45.55-3.45 3.8 0 .9.5 1.7.9 1.45 3.2 1.45 1.65 0 2.55-1.45m-79.3 7.95q-1-1.2-1.8-1.8-1.3-.25-1.65.65-.15.35-.15 1.15 0 .25 1.8 1.7.9-.55 1.8-1.7m-63.8-2.3q.55-1.1.55-1.95 0-3-3.45-3.55-3.49101563-.49863281-3.5 3.3.009375-.2359375.3 1.75.85 2.25 3.25 2.25 1.9 0 2.85-1.8m-208.05 8.2q-.25-.3-.25-.4-2.1-.65-2.95.25-.5.55-.5 1.5 0 .2 1.95 1.75.85-.15 1.55-.65.4.4.4-1.2 0-.95-.2-1.25m-35.15 37.55q0-.75-.65-1.45h-1.05q-.1.15-.2.05-.05 0-.05.95 0 1 .15 1.1.15.1.75.2.85-.35 1.05-.85m0-32.75-.1-.1q-.1.05-.1 1.1 0 .95.15 1.05.1 0 .15 0l1.45-.1.5-.8-.3-1.05q-.35-.1-1.75-.1m4.05-6.45q.95-1.6.95-3.45 0-1.4-1.3-2-1.2-.55-2.8-.15-4.15.95-4.15 4.9 0 .15.1 1.45.65 1.25 3.75 1.25 2.2 0 3.45-2m116.45 15.25q0 1.43359375.2.9.15.15 1.2.15 1 0 1.25-.3.1-.2.2-.65l-.25-1q-.95-.2-1.65-.15-.6.05-.75.05-.05-.15-.1-.1-.1.05-.1 1.1m-.4-10.45q.9-.9.9-2.4 0-2.55-3.05-2.95-2.29023438-.29550781-2.9 1.9-.09433594 0-.15 0l-.25 1.45q.08828125.21191406.2.4l.1 1.3q.45 1.3 2.15 1.3 2 0 3-1m349.2 322.75q2.55 0 2.7-2.75 0-2.75-2.7-2.75-2.75 0-2.75 2.75 0 .8.35 1.45.65 1.3 2.4 1.3m-43.45-6.7q-.05-.8-.4-1.2-.25-.4-.9-.7-.55.3-.95.9-.35.55-.35 1 .55.45 1.3.7.8-.25 1.3-.7m-16.5 13.55q0 .75.5 1.45.75-.1 1.1-.45.2-.2.35-.7-1-.55-1.4-.5-.35.15-.55.2m17.95-7.8-.65-1q-1.05-.2-1.4-.1-.8.15-.8 1.2 0 1.05.35 1.25.25.15 1.05.25.75-.2 1.05-.55.3-.3.4-1.05m-53.05.3q1.15-.15 1.45-.65-.6-.8-1.95-.8 0 1 .5 1.45m-12.5.65q-.9.4-.95.45-.35.3-.35 1.35 0 1.05.35 1.15.25.1.95.15 1.05-.4 1.3-1.3-.4-1.4-1.3-1.8m5.7 6.7.3-1.7q-.8-2.55-2.55-2.35-1.65.15-1.65 2.25l.15 1q.5 1.25 1.95 1.25.95 0 1.3-.2.4-.25.5-.25m-.65-9.1q.95-1.05.95-2.2 0-3.55-3.4-3.55-3.4 0-3.4 3.4l.35 1.7q.8 1.75 3.05 1.75 1.4 0 2.45-1.1m-90.15 11.85q-.95.55-.95 1.45 0 .95.2 1.15.2.15.2.3l2.1.5q.75-.15 1.55-.65.4.35.4-1.3 0-.95-.25-1.25-.3-.25-.3-.35-1.8-.55-2.95.15m-5.6 8.55q-.3-.95-1.3-1.25 0 .1-.65.05-.65.2-.65 1.2 0 1.05.35 1.4.1.1.95.35.8-.25 1.3-1.75m-1.75-7.6q1.1-.15 1.45-.65-.55-.8-1.95-.8 0 .9.5 1.45m-6.85 3.1q-.3-1.05-.3-1.45-2.2-.75-3.2-.05-.65.5-.65 1.45 0 1 .15 1.15.15.1.45.35l.1.15q.3.1 1.35.1 1.1 0 1.5-.6.3-.75.6-1.1m-214.9-3.75q1.45-.45 1.8-1.6l-.8-1q-1.7-.25-2.3.35-.05-.2-.05-.25-.1-.05-.1 1 0 1.05.35 1.25.25.15 1.1.25m2.75.1q-.5-.15-1.15-.1-.7.1-.95.1v1.55q.5.4 1.3.8 1.05-.55 1.3-1.3zm2.75-11q-.55-.1-.95-.3-.75.15-.9.3-.4.35-.4 1.4 0 1.1.35 1.5.15.2.95.55.35-.1.7-.3.3-.2.45-.2.15-.05.15-1.7 0-1-.35-1.25m-9.65 4.35q-.25-.3-.25-.4-4.05-.75-4.05 1.75 0 .95.2 1.2.15.2.15.3l.35.15q.55.15 1.6.15 2.25 0 2.25-1.85 0-.95-.25-1.3m441.1-140.75q3.45 0 3.45-5.65 0-2.5-3.35-2.55-3.35-.05-3.35 3.1 0 1.15.55 2.65.9 2.45 2.7 2.45m-10.55 31.05q-.4-1.2-.4-1.6-1.8-.6-2.9.15-.85.6-.85 1.35 0 .7.6 1.15.4.35 1.5 1.15.4-.05 1.05-.3.5-.2.75-.2zm-43-85.4q-.85-1.15-1.85-1.8 0 1.15-.85 1.5-.85.2-.85.3 0 .15.35.5.3.25 1.35 1.3.65-.4 1.3-1.1.45-.5.55-.7m48.6-36.65.25-1.7q-.65-1-1.5-1.5-1.2-.65-2.4-.05l-.25 1.5q.2.35.4.85.35.5 1.7 1.4.35-.05 1-.3.55-.2.8-.2m-18.2 33.4q.6-.95.6-1.95 0-2.2-2.9-2.2-2.95 0-2.95 2.45 0 .15.1 1.6.55 1.4 3.05 1.4 1.35 0 2.1-1.3m-11.75-60.05q0-.7-.85-1.55-.55-.1-1.35.1-.7.25-1.05.55 0 1.65 1.6 2.4.45-.15 1-.7.5-.45.65-.8m-24.4-18q1.05-1.5 1.05-2.95 0-4.5-4.35-4.15-1.75.15-3.05 1.15-1.35 1.1-1.35 2.6 0 1.1.8 2.65 1.3 2.45 3.75 2.45 1.9 0 3.15-1.75m-53.3 38.6q-.45-.65-1.05-.85-1 .25-1.1.35-.35.3-.35 1.35 0 .3 1.45 1.8.9-.3 1.45-1.3 0-.7-.4-1.35m-6.6-26.9q-.4-.85-1.5-1.3-.5.1-1.1.6-.65.5-.65.85l.2.95q.45.5 1.55.85.7-.4 1.15-1.05.35-.5.35-.9m-22.3 13.4q.3-.65.3-2.7 0-3.1-3.15-2.95-3.2.15-3.2 3.7 0 .15.05 1.7.5 1.55 3.05 1.55 2.3 0 2.95-1.3m-138.65-44.05q-.9.35-.95.4-.35.3-.35 1.4 0 1 .35 1.1.25.1.95.2.55-.2 1-.85.3-.35.65-.95-.25-.9-1.65-1.3m-40.55 10.8q0 .4 1.15 1.95 1.35 1.85 2.55 1.85 1.35 0 2.15-1.7.65-1.3.65-2.6 0-3.05-3.25-3.1-3.25-.05-3.25 3.6m-29.55 36.15q.4-1.25.4-2.45 0-3-3.2-2.15-3.2.9-3.2 3.4 0 1.4.15 1.7.8 1.45 4.05 1.45 1.2 0 1.8-1.95m-81-39.8q-1.45.1-2.45.55-.95.45-.95 1 0 1.6.15.95.25.25.45.65.3.25 1.35.25.95 0 1.35-.25.2-.1.4-.25.2.35.2-1.3 0-.95-.25-1.25-.25-.3-.25-.35m15.3 21.2q-3.3.05-3.3 2.95 0 4.1 4 4.1 1.25 0 1.95-1 .65-1 .65-2.7 0-3.35-3.3-3.35m-2.6 92.4q-.4-.4-.95-.6-1.25.4-1.45 1.4l.15.75q.45.45 1.3.8l1.1-.35.45-1.3q-.35-.45-.6-.7m-2.5 32.25-.15-.5q-1.95 0-3.3 1.25-1.25 1.15-1.25 2.55 0 .45 1.8 2.05 2-.15 2.7-1.65.3-.7.3-2 0-1.05-.1-1.7m-40.35-67.35q-.15-.15-.15-.35-2.95-.45-2.95 1.55 0 .45 1.65 2.05.65-.2 1.45-.65.15.15.15-1.5 0-.9-.15-1.1m-2.9 37.8q.4-2.35.4-2.45 0-3.45-3.9-4.15-3.9-.75-3.9 3.7 0 .95 1.15 2.7 1.55 2.45 3.85 2.45 1.65 0 2.4-2.25m-15.55 87.45q0 .55.5 1.25l.05.15q.2.15 1.25.15 1 0 1.45-.55l.35-.9q-.9-1.1-1.9-1.55-.9-.35-1.35-.05zm491.1 20.15q-.35-.7-.35-1.45-1.3-.15-2.45-.1-.95.1-1.1.1-.15.4-.3.5-.05.05-.05.95 0 1 .2 1.25.15.1.45.3l.15.15q.3.1 1.3.1 1.05 0 1.45-.6.2-.35.7-1.2m1.85 2.75q-.25-.3-.25-.35-2-.8-2.9.15-.5.6-.5 1.55 0 .15.35.45 1.45 1.15 1.6 1.3.8-.15 1.6-.65.35.45.35-1.2 0-.95-.25-1.25m-13.9 7.85q1.15-.2 1.45-.65-.4-.65-1.05-.8-.2-.05-.9-.05 0 1 .5 1.5m3.9-15.55q1.15-.15 1.45-.65-.4-.6-1.1-.75-.2-.05-.85-.05 0 1 .5 1.45m-40.65 7.75q-.4-.55-.95-.85 0 .2-.95.2 0 .05-.3.5-.05.05-.05 1.05 0 1.05.35 1.3.25.15.95.2.65-.15 1-.45l.3-1.25q0-.25-.35-.7m-12.3 1.75q0-1.25-.65-1.95-1.35.4-2.15 1.75.4.4 1.15.7.35-.05.95-.25.55-.25.7-.25m7.3-4.55q-.3-.75-.8-1.45-.6-.15-1.5-.1-.8.1-.95.1-.15.4-.3.5-.05.05-.05.95 0 .15.35.45.8.7 1.45 1.35 1.25-.9 1.8-1.8m-2.45 10.6.35-1.5q-1.4-2.15-2.5-1.95-.8.15-2.05 1.95l.2 1.5q.45.25.75.55.35.25 1.3.25 1 0 1.5-.4.25-.2.45-.4m-364.4 8.2q0 1.6.15 1.45.5.3.85.6.25.2 1.25.2 1 0 1.5-.4.25-.2.45-.4l.35-1.4q-1.95-2.95-3.4-2.1-1.15.7-1.15 2.05m-6.4-6.1-.1-.05q-.15.1-.15 1.1 0 1 .15 1.05.1 0 .15 0 1.45 0 2.1-.15l.5-.8-.3-1q-.75-.15-2.35-.15m6.4 5.85q-.65-.95-1.65-1.3-.7.05-1.05.2-.55.25-.55 1.25 0 1.65.15.9.5.55 1.45.9.75-.35 1.25-1 .4-.55.4-.95m5.7-8.85q-.5-1.25-.5-1.7-3.55-.15-4.7 2.25.3.2 1 1.05.75.75 1.4.75.95 0 1.65-.3.7-.35.8-.35z" fill="#9ff"/>
            <path d="m343.65 192.1q-1.15-.2-2.2-.4-36.3-7.4-61.65-15.6-13.65-4.4-23.45-8.7-8.95-4-14.65-7.95-.85-.5-1.55-1.1-.05.15-.1.3-.9 3.05-1.65 8.4 6.85 4.25 15.4 8.25 31.25 14.65 84.85 25.4 1-1.65 1.8-2.8 1.8-3.05 3.2-5.8z" fill="#510000"/>
            <path d="m342.75 170.25q-2.9-6.4-7.15-10-1.95-1.65-4.95-2.7-1.25-.5-2.7-.9-4.05-1-9.4-1.35-4.45-.15-6.75-.35-6.95 1.25-2.7-13.4 5.15-18.05 27.3-60.25-15.55-14.7-33.1-19.8-9.75-2.8-20.1-2.7-1.3 3.3-5.85 17.1-2.4 7.25-4.05 12.75-1.9 4.7-4.7 12.45-2.65 7.7-5 13.65-2.3 5.95-4.5 10.75-2.25 4.85-7.65 12.5-1.6 1.75-2.95 3.55-6.05 8.15-6.8 17.9 5.7 3.95 14.65 7.95 9.8 4.3 23.45 8.7 25.35 8.2 61.65 15.6.25-.65.45-1.25 3.85-8.8 1.9-16.4-.05-.65-.05-1.2-.9-2.2-1-2.6z" fill="url(#Gradient_3)"/>
        </g>
    </g>
    <g>
        <g id="Layer3_0_FILL">
            <path d="m297.9 226.4q-.15-1.9-.2-3.3-.4-3.55-.85-6.55-1.05.5-2.05.95-4.15 1.95-8.15 3.75-28.5 12.95-50.7 20.4-26 8.8-40.5 9.2-1 .15-1.9.1.05.1.1.3 1.05 2.95 3.65 7.7 35.35-2.8 93.15-29.1 3.65-1.7 7.45-3.45z" fill="#510000"/>
            <path d="m226.7 141.55q-.75-4.75-1.55-9.8-12.65-1.55-23.85.05-14.7 2.15-26.85 9.75-2.8 1.75-5.45 3.75.9 3.4 5.4 17.2 2.4 7.25 4.35 12.7 1.25 4.9 3.65 12.75 2.4 7.8 4.1 13.95 1.65 6.2 2.75 11.35 1.05 5.2 1.3 14.55-1.5 12.9 4.9 23.05 14.5-.4 40.5-9.2 22.2-7.45 50.7-20.4 4-1.8 8.15-3.75-.2-.65-.35-1.3-2.15-9.3-8.25-14.3-.4-.5-.75-.9-2-1.25-2.35-1.5-6.15-3.45-11.7-3.8-2.55-.15-5.55.75-1.35.35-2.7.9-3.85 1.6-8.4 4.5-3.65 2.55-5.6 3.75-10.15 10.75-22.45-64.05z" fill="url(#Gradient_4)"/>
        </g>
    </g>
    <g>
        <g id="Layer2_0_FILL">
            <path d="m287.75 212.8q.85-.6.85-1.55 0-3.75-3.5-7.3-3.1-3.1-7.7-4.9-4.55-1.75-7.75-1.2-3.5.6-3.5 3.85 0 1 .7.5.8-.35 2.2-.75 1.55-.4 2.45-.4 6.1 0 10.55 6.15.9 1.2 2.65 4.2 1.1 1.9 1.55 1.9.8 0 1.5-.5m-74.3-77.95q-1.3-.3-2.3.4-1.05.8-1.05 2.4 0 1.7.25 3.9.5 5 2.15 12.35 2.45 10.95 6.3 21.75 9.7 27.35 19.4 30.85l1.05-.2.2-.8q-6.1-8.7-10.6-19.05-3.45-8-6.6-18.7-1.05-3.6-2.45-9.5-1.5-6.45-2.2-9.35-1.05-4.4-1.15-7.35-.1-1.05 0-1.9.35-4.1-3-4.8m69.2-58.35q-1.25 4.45-1.5 5.55-2.15 9.25-7.6 22.55-2.9 7.15-11.7 22.65-4.7 8.3-7.7 14.3-2.4 4.85-3.7 8.2l.1.6q2.25-3.45 5.8-8.8 3.5-5.25 8.25-12.3 8.15-12.55 12.05-21.05 2.8-6.15 8.7-23.45 5.8-17.2 5.8-19.2 0-1.3-.9-2.05-.9-.8-2.1-.45-3.15.9-4.2 7.85-.3 2.15-1.3 5.6m49.6 91.45q.25.25 2.35 3.65 1.05 1.65 2.3 1.65.6 0 .7-.25.05-.15.05-.3.1-.05.1-1.05 0-10.05-13.7-12.3-4.8-.8-9.4-.25-4.3.45-4.3 1.45 0 1 .2.65 1.9 1.4 6.15 1.4 11.15 0 15.55 5.35z" fill="#fff"/>
        </g>
    </g>
    <g>
        <g id="Layer1_0_FILL">
            <path d="m465.25 284.5q0-1.7-1.7-1.7-1.75.05-1.75 1.75 0 .65.2 1.1.4.95 1.5.95.75 0 1.25-.55.5-.6.5-1.55m4.25-7.5q2.85 0 2.85-3.4 0-3.5-3.5-2.85-3.5.65-3.5 3.1 0 1.3.4 1.85.85 1.3 3.75 1.3m-113.95-20.5q.45-1 .45-1.75 0-2.4-2.6-2.4-2.65-.05-2.65 2.55 0 .1.4 1.6.75 1.5 2.45 1.5 1.25 0 1.95-1.5m-10.8-114.2q1.05-1.3 1.05-2.55 0-3.1-3.9-2.6-3.9.55-3.9 3.5 0 2.95 4.65 2.95 1.05 0 2.1-1.3m-190 73.6q1.05-1.85 1.05-3 0-3.2-4-3.3-4.05-.1-4.05 3.25 0 .2.1 2.8.8 2.45 4.15 2.45 1.5 0 2.75-2.2m-74.85 102.6q-.55-.7-1.3-1 0 .85-.65 1.15-.3.1-.65.2 0 .15 1.3 1.45 1.05-.4 1.3-1.8m-6.15-11.6-.25-.8q-.95.1-1.7.9.45.4 1.05.65.5-.1.9-.75m-3.65 7.15q0 .65.3 1.2.55 1 1.95 1 1.05 0 1.8-.75.65-.7.65-1.4 0-2.45-2.35-2.3-2.35.15-2.35 2.25m-4.6 3.6q0 .7.25 1.2.5 1.05 1.9 1.05 1 0 1.7-.5.9-.6.9-1.75 0-1.85-2.35-2.05-2.4-.2-2.4 2.05m3.75-6.4q.5-.65.5-1.45 0-2.1-2.1-1.85-2.1.2-2.1 1.8 0 2.25 2.1 2.25 1 0 1.6-.75m20.2-35.5q.35-1.55.35-1.6 0-3.05-2.4-2.2-2.4.9-2.4 3.05 0 .55.4 1.2.7 1.05 2.1 1.05 1.3 0 1.95-1.5m-21.75-63.95q.35-.8.35-2.55 0-2.4-3.85-3.25-3.85-.8-3.85 2.9l.6 2.35q1 2.35 3.3 2.35 2.6 0 3.45-1.8m46.95-37.9q.95-.95.95-2.55 0-2.9-3.05-3.5-3.05-.65-3.05 2.8 0-.15.65 1.95.95 2.2 2.6 2.2 1.1 0 1.9-.9m-46.1-72.8q-.25-.3-.25-.35-1.65-.55-2.3.2-.4.4-.4 1.15l1.55 1.5q.65-.1 1.35-.55.25.3.25-.95 0-.75-.2-1m30.4 22.4q.55-1.25.55-2.95 0-4.5-3.75-3.85-3.75.6-3.75 4.4 0 .1.45 2.15 1 2 3.85 2 1.8 0 2.65-1.75m122.85-76.15q-.5.5-.5 1.15l1.6 1.5q.65-.2 1.35-.6.25.25.25-1 0-.7-.2-.95-.25-.25-.25-.4-1.5-.5-2.25.3m-1.5-6.8q2.7 0 2.7-4.15 0-3.05-3.3-2.65-3.35.4-3.35 3.65 0 .05.55 1.6 1.05 1.55 3.4 1.55m147.95 28.7q.1.25.1-1 0-2-1.65-1.95-1.7 0-1.7 1.8l.15.75q.35 1.05 1.5 1.05.75 0 1.2-.3zm3.25-9q1.15-1.3 1.15-2.35 0-3.75-3.65-4-3.65-.25-3.65 3.15l.4 2.2q.9 2.3 3.5 2.3 1.05 0 2.25-1.3m85.7 70.9q.8-1 .8-2.25 0-3.35-3.35-3.15-3.35.2-3.35 3.1l.5 1.65q.95 1.75 3.2 1.75 1.3 0 2.2-1.1m-7.95 60.1q2.3 0 2.3-1.6 0-1.4-2.15-1.7-2.15-.25-2.15 1.45l.2.85q.45 1 1.8 1m-57.55 5.5q.35-.65.35-2 0-2.7-2.5-2.4-2.55.3-2.55 2.8 0 1.2.25 1.6.6.9 2.55.9 1.35 0 1.9-.9m26.3-49.5q.75-.85.75-2.4 0-2-2.9-2.2-2.95-.2-2.95 2.15 0-.15.5 1.55.9 1.8 2.45 1.8 1.4 0 2.15-.9m86.05-38.4q-.65-.85-1.45-1.45-1.45-.3-1.45 1.45 0 .2 1.45 1.4.75-.5 1.45-1.4m-4.35-14q.05917969.40019531.15.6.9 1.9 4.3 1.9 2.75 0 3.6-2.2.3-.85.3-2.75 0-4.1-4.2-3.8-3.65488281.21503906-4.2 3.35-.3.82734375-.3 1.9 0 .51425781.35 1z" fill="#517979"/>
            <path d="m519.1 216.05q1.65 0 1.7-1.9 0-1.5-1.6-1.25-1.65.3-1.65 1.75 0 1.4 1.55 1.4m-317.15 50.7.1.9q.35.9 1.7.9 2.05 0 2.05-3.15 0-2.1-1.9-1.35-1.95.8-1.95 2.7m-1.15-191.1q.3.9 1.25.9.65 0 1.1-.7.35-.55.35-1 0-1.4-1.4-1.4-1.45 0-1.45 1.4zm-32.7 35.6q.35-.4.35-1.1 0-1.25-1.5-1.3-1.5 0-1.5 1.4l.25.75q.45.75 1.4.75.65 0 1-.5m-114.4 75.45q.4-.9.4-1.6 0-1.5-1.85-1.15-1.85.3-1.85 1.8 0 .05.15 1.15.4 1.05 1.65 1.05.95 0 1.5-1.25m49.5-87.95q2.05 0 2.05-2.25 0-1.95-2-2-2-.1-2 2.25 0 .1 0 1.05.3.95 1.95.95m171.95-76.1q1.75 0 1.75-2 0-1.8-1.95-1.85-1.95-.1-1.95 1.7 0 .55.4 1.2.55.95 1.75.95m143.35-5.6q1.5 0 1.5-1.65 0-1.55-1.45-1.45-1.45.05-1.45 1.4l.15.8q.3.9 1.25.9m38.5 65.35q1.75 0 1.75-2.15 0-1.85-1.75-1.75-1.75.1-1.75 1.95 0 .05.15 1 .4.95 1.6.95m-245.35 210.75q0 .4.15.5.1.1.45.15.95-.15 3.5-1.35 2.4-1.15 2.6-1.15.25 0 1 .2.65.2 1 .1.15.05.15-.6 0-2.95-4.4-1.2-4.45 1.7-4.45 3.35m-85.15-29.3q0 1.45 2.1 1.6 3 .2 5.05 2.15 1.2 1.15 1.85 3.15.24628906.77988281.5 1.35v.25q0 .4.35 1.45l.15-.15-.25-1.05q.25996094.42851563.5.65.35-.5.35-1.05 0-3.95-1.35-6.6-1.65-3.35-5.5-3.7-3.75-.35-3.75 1.95m174.1 15.25q-4.6.35-6.35 5l.1.7q.15-.05 2.2-2.1 1.85-1.8 2.95-1.8 3 0 3.35 1.05.4 1.05 1.25 1.05.35 0 .65-.25.3-.3.3-.7 0-3.3-4.45-2.95m-55.25-1.55q.3-.6.3-.95 0-3.45-5.3-2.35-5.3 1.1-5.3 3.65 0 .65.2.4.05 0 2.4-1.15 2.45-1.15 2.95-1.15 1.5 0 2.45 1.15.95 1.1 1.45 1.1.5 0 .85-.7m181.25-30.15q2.95-3.35 4.75-4.95 4.8-4.35 8.05-4.35.8 0 1.65.6.8.6 1.8.6.8 0 1.25-.75.3-.5.3-1 0-1.15-2.2-2.1-2.6-1.1-5.55-.05-1.25.45-3.2 1.8-1.55 1.15-2.3 1.95-1.8 1.85-3.15 4-1.45 2.3-1.85 4 .1.2.45.25m-244.85 37.3q0 .05.3 1.1.65 1.1 2.1 1.1 1.55 0 2-.8.25-.4.25-1.45 0-2.15-2.3-1.95-2.35.2-2.35 2m-27.15-41.45q1.3 0 1.3-1.5 0-1.1-1.4-1.35-1.45-.2-1.45 1.35l.2.75q.4.75 1.35.75m188.65-8.3q0-2.25-2.7-1.6-2.75.6-2.75 2.25 0 .05.25 1.25.5 1.15 1.7 1.15 1.6 0 2.65-1.2.85-1 .85-1.85m59.05-4.95q.55-.85.55-1.65 0-1.9-2.1-1.45-2.1.4-2.1 1.85 0 .05.05 1.25.35 1.15 1.7 1.15 1.2 0 1.9-1.15m61.85-5.9q0 .5.15.85.4.7 1.5.7.95 0 1.5-.9.45-.75.45-1.55 0-1.6-1.8-1.25-1.8.35-1.8 2.15z" fill="#fff"/>
            <path d="m200.55 284.75q-3.7 0-9.9 7.5-6.2 7.5-7.95 7.5-2.45 0-3.3-1.85-.85-1.85-3.45-1.85-1.7 0-4.8 1.85-3.05 1.85-5.45 1.85-1.45 0-1.75-.1-.4-.2-.85-.4 2.2 1.75 3.8 2.5 5.1 2.45 14.5 2.45 11.45 0 24.3-8.4 2.3-1.75 4.15-3.15-.7-1-1.5-2.5-2.85-5.4-7.8-5.4m74.15-5.2q-2.75 0-4.5 2.65-.45.75-2.75 5.9-1.05 2.35-2.35 4.05 1.25.8 2.45.8 3.65.05 7.05.85 3.35.8 5.65.8 4.3 0 7-2.7.15-.15.3-.25-1.25.35-2 .35-4.3 0-6.8-6.2-1.65-4.15-1.75-4.3-1-1.95-2.3-1.95m129.5-8.35q-1.3-3.05-3.7-3.05-7.45 0-11.95 8.55-1.95 4.3-2.75 5.9-1.35 2.65-2.6 2.65-1.1 0-2.3-2.25-1.6-3.05-2.6-4-3.8 2.35-6.75 4.15.2.7.45 1.7.95 3.8 3.35 3.8 1.65 0 3.4-2 1.15-1.3 1.75-2.6.6.55 2.25 2.2 1.75 1.4 4.15 1.4 6.15 0 18.25-12.55-.15-2.05-.95-3.9m-70.5 12.75q-5.15-5.45-5.25-5.45-4.7 0-6.55 8.55-.95 4.2-1.5 5.7 5 1.2 11.7 1.2 14.85 0 26.2-6.45.05-.05.1-.05-.8-1.1-1.7-3-2.1-4.4-4-4.4-.8 0-4.5 4.65-3.75 4.65-6.1 4.65-3.2 0-8.4-5.4m-42.45 53.75q-1.35-.2-2.9-.4-7.5-1.05-14.1-1.05-7.85 0-24 2.2-14.95 2-16.45 2.8h19.5q12.55-.85 24.1-2.5 5.85-.85 13.85-1.05m-143.4-6.05q0 3 8.6 5.95 9.6 3.3 22.6 3.3 6.1 0 12-.4 5.85-.4 7.35-.95-17.65-.05-30.15-3-15.7-3.7-15.75-10.8-4.65 4.3-4.65 5.9m-8.8.75q-.8 1.45-.8 2.4 0 2.4 2.05 4.45 1.85 1.85 3.6 2h.3q-1.25-.85-3.45-5.15-1.2-2.3-1.7-3.7m259.8-5.8q-13.25 5.05-20.8 5.85 10.15-.8 19.7-3.9 15.85-5.1 19.45-13.1-.2 0-.3-.15l-.05-.2v.35q-1.25 4.75-18 11.15z" fill="#76b6b4"/>
            <path d="m446.55 246.4q.6-2.8.6-5.75 0-3.45-1.95-5.45-2-2-5.45-2-4.15 0-8.2 2.8-6.05 4.1-8.8 13.05-3.45 11.05-16.55 24.95-.55.55-1.05 1.1-12.1 12.55-18.25 12.55-2.4 0-4.15-1.4-1.65-1.65-2.25-2.2-.6 1.3-1.75 2.6-1.75 2-3.4 2-2.4 0-3.35-3.8-.25-1-.45-1.7-.65-2.1-1-2.1-1.95 0-5.2 2-4.15 2.8-6.95 4.4-.05 0-.1.05-11.35 6.45-26.2 6.45-6.7 0-11.7-1.2-8-2-11.8-7.05-2.4-4.1-3.35-5.65-1.55-2.6-3.8-2.6-4.1 0-6.7 2.7-1.55 1.55-3.7 5.9-1.95 3.9-3.5 5.6-.15.1-.3.25-2.7 2.7-7 2.7-2.3 0-5.65-.8-3.4-.8-7.05-.85-1.2 0-2.45-.8-1.1-.7-2.2-2-2.05-2.8-2.4-2.8-1 0-3.95 1.7-2.95 1.65-4.5 1.65-3.1 0-4.15-2.9-.65-1.8-.65-6.35 0-4.75-.5-6.4-.9-2.9-3.75-2.9-6.1 0-8.75 3.1-1.95 2.2-2.5 6.8-.75 6.4-.9 6.8-.95 3.1-4.05 3.1-3.85 0-5.35-2.3-1.5-2.3-3.6-2.3-1 0-8 5.3-1.85 1.4-4.15 3.15-12.85 8.4-24.3 8.4-9.4 0-14.5-2.45-1.6-.75-3.8-2.5-1.85-1.5-4.15-3.65-.95-.9-1.5-3.1-.5-2.7-.8-4.05-1.25-5.05-5.45-5.05-1.3 0-3.65.85-2.3.85-3.1.85-2.3 0-3.65-1.35-1.3-1.35-1.3-3.65.65-6.45.65-7.3 0-5.55-2.95-9.25-2.95-3.6-7.25-3.6-2.4 0-4.35 1.95-1.95 1.95-2.6 5.4 1.25-.75 3.05-.75 4.55 0 6.6 6.2.55 1.7 1.45 5.3.9 3.1 1.85 4.6 1.95 3 7.95 4.25 6.3 1.25 8.15 3.6 7.25 9.25 12.35 13.1 8.2 6.3 18 6.3 7.7 0 16.8-5.95 10.55-6.95 17.7-8.5.85-.15 9 .4 1.55.1 2.9 0 3.7-.35 5.45-2.45.55-.7 1.3-7.7.6-5.95 3.4-5.95 1.95 0 3.25 2.4.7 1.3 1.95 5.25 2.35 7.65 5.75 7.65.5 0 1.65-.85 1.3-1 1.65-2.05 4.1 1.2 8.85 2.75 2.9.95 6 2 6.3 1.85 13.05 1.85 7.95 0 13.15-7.4.55-.9 1.05-1.65 1.5-2.45 2.3-3.5 1.7-2.3 3.3-2.3 1.15 0 3.55 2.25 3.45 3.25 5.5 4.8.15.1.3.2.6.4 1.2.8 3.05 2 6.7 3.35 8.05 3.05 18.85 3.05 9.6 0 21.3-6.6 5.85-3.3 9.9-6.6.95 0 3.4 2.9 2.45 2.85 5.05 2.85.55 0 .95-.2.35-.2 1.15-1 1.65 1 2.75 2.55.55.75 2.35.75 5.45 0 18.65-9.95.6-.45 1.15-.85 9.55-7.35 15.1-13.15 2.85-2.95 5.4-7.95 1.45-2.85 3.95-8.25 4.7-9 12.35-9 3.45 0 6.1 2.55m-15.2-3.95q-1.8 1.6-4.75 4.95-.35-.05-.45-.25.4-1.7 1.85-4 1.35-2.15 3.15-4 .75-.8 2.3-1.95 1.95-1.35 3.2-1.8 2.95-1.05 5.55.05 2.2.95 2.2 2.1 0 .5-.3 1-.45.75-1.25.75-1 0-1.8-.6-.85-.6-1.65-.6-3.25 0-8.05 4.35m-185.7 34.15q0 .35-.3.95-.35.7-.85.7-.5 0-1.45-1.1-.95-1.15-2.45-1.15-.5 0-2.95 1.15-2.35 1.15-2.4 1.15-.2.25-.2-.4 0-2.55 5.3-3.65 5.3-1.1 5.3 2.35m48.6 7.5q1.75-4.65 6.35-5 4.45-.35 4.45 2.95 0 .4-.3.7-.3.25-.65.25-.85 0-1.25-1.05-.35-1.05-3.35-1.05-1.1 0-2.95 1.8-2.05 2.05-2.2 2.1zm-165.65-18.65q-2.1-.15-2.1-1.6 0-2.3 3.75-1.95 3.85.35 5.5 3.7 1.35 2.65 1.35 6.6 0 .55-.35 1.05-.24003906-.22148437-.5-.65l.25 1.05-.15.15q-.35-1.05-.35-1.45v-.25q-.25371094-.57011719-.5-1.35-.65-2-1.85-3.15-2.05-1.95-5.05-2.15m83.2 28.2q-.15-.1-.15-.5 0-1.65 4.45-3.35 4.4-1.75 4.4 1.2 0 .65-.15.6-.35.1-1-.1-.75-.2-1-.2-.2 0-2.6 1.15-2.55 1.2-3.5 1.35-.35-.05-.45-.15m-41.05 17q-.4-.3-.75-.6-.85-.7-2.5-.7-.35 0-.65.15-.3.1-.4.1v2.4q.25 3.55 3.8 8.8 4.25 6.25 8.9 6.25 3.15 0 3.15-5.15 0-1.7-2.25-3.4-2.55-1.95-3.05-3.6-.3-1.15-3.2-2.3-2.9-1.2-3.05-1.95m46.7-8.4q-.6-3.75-3-3.75-3.65 0-8.8 3.25-3.1 1.95-10.4 7.05-2.3 1.5-9.45 2.25-3.9.4-5.1 2.85.75 1.55 2.6 5.05 2.35 4.45 2.7 6.55.3 1.55 4.3 2.8 3.3.95 5.35.95 1.6 0 6-3.75 4.5-3.85 7.9-4 5.85-.25 7.2-2.5 1-1.6 1-8.55 0-6.4-.3-8.2m22.75.25q-1.15-.4-2.5-.8-2.7-.8-4.35-.8-8.5 0-12.55 12.45-1.05 3.1-2.45 8.5-1.2 3.9-2.6 3.9-.3 0-3.55-.9-3.25-.95-3.7-.95-1.6 0-3.2 1.15-.75.5-1.3 1.15.15.3.45.65.9 1 2.3 1 .65 0 2.25-.5 1.6-.55 2.15-.55 1.1 0 3.2.8 2.15.8 2.6.8 1.15 0 3.05-.8 1.85-.8 3.2-.8 1.15 0 6.7 1.5 5.6 1.45 9.1 1.45 7.15 0 11.55-2.1 5.8-2.85 5.8-9.05 0-5.95-6.05-13.95-5.25-6.9-6.35-6.9-1.3 0-2 2.4-.7 2.35-1.75 2.35m61.15-8.65q-.85-.85-1.25-.85-.05 0-.25.15-1.4.8-9.25 6.2-9.25 6.3-11.5 6.3-4.05 0-10.4-2.25-6.35-2.25-8.8-2.25-.95 0-2 .25-1.55.4-1.55 1.2 0 .05 2.5 7.4 2.5 7.35 2.5 8.5 0 1.4-.7 4.55 1.75-.55 6.1-1.95 6.35-1.95 6.75-1.95 1.3 0 5.05 4.1 3.75 4.1 5.15 4.1 9.8 0 16.55-6.35 6.85-6.4 6.85-16 0-3.1-3.15-7.75-1.6-2.35-2.6-3.4m51.65 24.9q-.4-1.05-.4-2-2.55-.25-3.15-.25-1 0-4.5 1.85-3.5 1.85-3.5 2.2 0 .65.15.9.15.3.5.5-.1.35-.1.75 0 .3.15.6.1.35.1.6 1 0 2.8.25 2.9 0 5.4-1.05 2.9-1.2 2.9-3.05 0-.25-.35-1.3m-5.45-10.3q0-6.7-2.65-6.7-1.95 0-4.35 1.3-2.35 1.25-3.95 1.25-1.95 0-3.85-.5-3-.8-4.5-1.05-2.7-.45-4.55-1.15-1.2-.45-2.95-.45-9.35 0-11.55 7.95-2.75 9.55-3.4 10.8-.6 1.1-2.95 2.7-.35.85-1.05 2.65.45.05 9.6 2.2 7.65 1.8 11.05 1.8 4.6 0 9.25-1.4 5.3-1.55 5.3-3.7-.8-3.05-.8-3.95 0-1.5 1.75-2.2 1.1-.45 3.95-1.2 4.75-1.55 5.5-6.35-.0484375-.0484375-.1-.05.0515625 0 .1 0 .15-.9.15-1.95m28.9 9.05q-.65 0-1.55 1.05.45 1.55.65 3.9.4 1.65 2.3 1.65.4 0 1.2-.75.8-.8.8-1.2 0-1.35-1.3-3.05-1.3-1.6-2.1-1.6m-8.75-26.95q-3.8.25-10.5 4.6-8.25 5.35-8.25 11.05 0 2.7.1 3.15.1.4.65 1.85 1.9.6 2.95 1.05 2.8 1.15 3.9 2.4 1.1 1.3 2.55 4.65 1.8 2.75 5.65 2.75 3.1 0 4.6-.85 1.3-.8 2.25-2.85.2-.35 3.95-7.35 2.95-5.55 2.95-6.3 0-.6-5.15-6.8-5.3-6.4-5.65-7.35m35.7 3.1q-2.2-5-3.1-5-.35 0-9.7 5.8-9.55 5.95-9.55 6.6 0 1.3.85 2.95.85 1.6.85 2.85 0 .9-1.25 3.35-.7 1.45-1 2.25 2.75 1 5.8 3.05 2.05 1.35 3.65 2.55 3.6 0 9.75-7.85 5.8-7.4 5.8-10.4 0-1.3-2.1-6.15m-182.35-31.4q0-1.8-2-1.55-2 .2-2 1.8l.3 1.15q.55 1.15 2.05 1.15 1.65 0 1.65-2.55m-43.45 24.05q0 .1.5 2.55 1.1 2.45 4.1 2.45 3.2 0 4.65-2.45.9-1.5.9-3.1 0-2.55-1.6-3.75-1.4-1.1-3.45-.85-2.05.3-3.5 1.65-1.6 1.45-1.6 3.5m4.45-.5q-.3-1.05-.3-1.1 0-1.8 2.35-2 2.3-.2 2.3 1.95 0 1.05-.25 1.45-.45.8-2 .8-1.45 0-2.1-1.1m-5.45-16.95q.3-.5.3-1 0-1.3-1.55-1.4-1.6-.1-1.6 1.5 0 .85.15 1.25.3.15.55.3.2.1.7.1.95 0 1.45-.75m120.35-13.9q0-1.25-1.3-1.15-1.35.05-1.35 1.1 0 .4.25.8.35.6 1.1.6.6 0 .95-.45.35-.4.35-.9m6.65-15q0 .05.2 1.5.55 1.5 2.25 1.5 1.7 0 2.2-1.5.25-.6.25-1.95 0-2.65-2.45-2.4-2.45.25-2.45 2.85m-149.75-.7q-3.45-.15-3.45 3.5 0 .9.5 1.75.85 1.5 2.75 1.5 1.65 0 2.8-1.65.85-1.3.85-2.25 0-2.7-3.45-2.85m2.05 2.5q0 1.5-1.3 1.5-.95 0-1.35-.75l-.2-.75q0-1.55 1.45-1.35 1.4.25 1.4 1.35m224.2 25.8q-3.55 1.15-3.55 4.35 0 .6.45 1.4.7 1.3 2.2 1.3 2.45 0 3.65-2.4.8-1.55.8-2.75 0-3.05-3.55-1.9m-33 11.6q.6 0 1-.55.35-.4.35-.85 0-1.3-1.3-1.3-1.35-.05-1.35 1.25 0 .85.15 1 .25.15.45.3.2.15.7.15m-6.75-29.1q.25-.5.25-1.65 0-1.75-2.15-1.9-2.15-.2-2.15 2.3 0 .7.25 1.15.5 1 2.05 1 1.3 0 1.75-.9m0-6.25q3.9 0 5.95-2.9 1.4-2.05 1.4-4 0-2.9-1.95-4.3-1.7-1.2-4.2-.85-2.5.4-4.25 2.05-1.95 1.85-1.95 4.35 0 .05.95 2.85 1.45 2.8 4.05 2.8m.2-10.45q2.7-.65 2.7 1.6 0 .85-.85 1.85-1.05 1.2-2.65 1.2-1.2 0-1.7-1.15-.25-1.2-.25-1.25 0-1.65 2.75-2.25m103.4 51.85q0 .85.2 1.3.45 1.1 1.85 1.1 1.2 0 2.25-1.4.85-1.15.85-2 0-2.6-2.55-2.35-2.6.25-2.6 3.35m-32.3-59.6q0 .4.25.75.5.65 1.6.65 1.3 0 1.8-1.15.3-.65.3-1.35 0-2.4-1.95-1.85-2 .6-2 2.95m-4.65 4.1q0-1.5-1.05-2.95-1.15-1.6-2.8-2.1-4.35-1.3-8.35 5.9-.6 1.05-1.3 6.1-.6 4.4-.6 5.8 0 .8.65 2.05.95 1.85 2.6 1.85 3.85 0 5.4-3.7.75-1.85.75-4.1.35-3.15 2.6-5.15 2.1-1.85 2.1-3.7m-4.15-1.35q0 .8-.55 1.65-.7 1.15-1.9 1.15-1.35 0-1.7-1.15-.05-1.2-.05-1.25 0-1.45 2.1-1.85 2.1-.45 2.1 1.45m59.55.6q1.4 1.8 3.75 1.8 2.7 0 4.15-2.85.95-1.9.95-3.3 0-2.2-1.55-3.25-1.35-1-3.35-.6-4.9.95-4.9 6.2 0 .75.95 2m1.9-4q-.15-.35-.15-.85 0-1.8 1.8-2.15 1.8-.35 1.8 1.25 0 .8-.45 1.55-.55.9-1.5.9-1.1 0-1.5-.7z" fill="#9ff"/>
            <path d="m428.35 268.65q9.25-6.9 12.95-11.5 3.95-5 5.25-10.75-2.65-2.55-6.1-2.55-7.65 0-12.35 9-2.5 5.4-3.95 8.25-2.55 5-5.4 7.95-5.55 5.8-15.1 13.15-.55.4-1.15.85-13.2 9.95-18.65 9.95-1.8 0-2.35-.75-1.1-1.55-2.75-2.55-.8.8-1.15 1-.4.2-.95.2-2.6 0-5.05-2.85-2.45-2.9-3.4-2.9-4.05 3.3-9.9 6.6-11.7 6.6-21.3 6.6-10.8 0-18.85-3.05-3.65-1.35-6.7-3.35-.6-.4-1.2-.8-.15-.1-.3-.2-2.05-1.55-5.5-4.8-2.4-2.25-3.55-2.25-1.6 0-3.3 2.3-.8 1.05-2.3 3.5-.5.75-1.05 1.65-5.2 7.4-13.15 7.4-6.75 0-13.05-1.85-3.1-1.05-6-2-4.75-1.55-8.85-2.75-.35 1.05-1.65 2.05-1.15.85-1.65.85-3.4 0-5.75-7.65-1.25-3.95-1.95-5.25-1.3-2.4-3.25-2.4-2.8 0-3.4 5.95-.75 7-1.3 7.7-1.75 2.1-5.45 2.45-1.35.1-2.9 0-8.15-.55-9-.4-7.15 1.55-17.7 8.5-9.1 5.95-16.8 5.95-9.8 0-18-6.3-5.1-3.85-12.35-13.1-1.85-2.35-8.15-3.6-6-1.25-7.95-4.25-.95-1.5-1.85-4.6-.9-3.6-1.45-5.3-2.05-6.2-6.6-6.2-1.8 0-3.05.75-.35 1.7-.35 3.85 0 7.55 6.45 12.95 3.85 3.2 14.3 8.2 10.45 4.9 14.5 8.35 3.95 3.35 5.7 7.5-12.1 2.85-18 4.4-14.3 3.8-17.45 7.05-.9.9-.9 1.75 0 1.25 6.8 1.95 11.65 1.15 12.75 1.35-6.05.85-14.75 6-8.7 5.1-8.7 7.85 0 3.6 10.25 6.6 12.5 3.7 33.6 3.7l30.9-.7q2.35 0 29.75 1 27.35.95 35.1.95 43.65 0 114.3-7.2 73-7.4 85.45-13.9-3.95-3.95-23.15-5.9-2.4-.15-4.55-.3-8.95-.55-12.9-.85-2.5-.2-3-.25 6.7-2.3 10.25-3.95 7.25-3.45 7.25-6.25 0-3.1-7.15-6.05-5.85-2.45-16.45-4.8-1.2-.3-2.45-.55-.2-.05-.4-.05-.6-2.65-.6-5.2 0-.05 0-.15.05-8.1 5.9-14.9 3.3-3.9 12.9-11.1m-28.05 20q.9 0 3.1 5 2.1 4.85 2.1 6.15 0 3-5.8 10.4-6.15 7.85-9.75 7.85-1.6-1.2-3.65-2.55-3.05-2.05-5.8-3.05.3-.8 1-2.25 1.25-2.45 1.25-3.35 0-1.25-.85-2.85-.85-1.65-.85-2.95 0-.65 9.55-6.6 9.35-5.8 9.7-5.8m-43.1 6.5q6.7-4.35 10.5-4.6.35.95 5.65 7.35 5.15 6.2 5.15 6.8 0 .75-2.95 6.3-3.75 7-3.95 7.35-.95 2.05-2.25 2.85-1.5.85-4.6.85-3.85 0-5.65-2.75-1.45-3.35-2.55-4.65-1.1-1.25-3.9-2.4-1.05-.45-2.95-1.05-.55-1.45-.65-1.85-.1-.45-.1-3.15 0-5.7 8.25-11.05m17.7 23.4q.9-1.05 1.55-1.05.8 0 2.1 1.6 1.3 1.7 1.3 3.05 0 .4-.8 1.2-.8.75-1.2.75-1.9 0-2.3-1.65-.2-2.35-.65-3.9m3.15 13.9q7.55-.8 20.8-5.85 16.75-6.4 18-11.15v-.35l.05.2q.1.15.3.15-3.6 8-19.45 13.1-9.55 3.1-19.7 3.9m-33.15-30.7q2.65 0 2.65 6.7 0 1.05-.15 1.95-.0484375 0-.1 0 .0515625.0015625.1.05-.75 4.8-5.5 6.35-2.85.75-3.95 1.2-1.75.7-1.75 2.2 0 .9.8 3.95 0 2.15-5.3 3.7-4.65 1.4-9.25 1.4-3.4 0-11.05-1.8-9.15-2.15-9.6-2.2.7-1.8 1.05-2.65 2.35-1.6 2.95-2.7.65-1.25 3.4-10.8 2.2-7.95 11.55-7.95 1.75 0 2.95.45 1.85.7 4.55 1.15 1.5.25 4.5 1.05 1.9.5 3.85.5 1.6 0 3.95-1.25 2.4-1.3 4.35-1.3m7.7 15q0 .95.4 2 .35 1.05.35 1.3 0 1.85-2.9 3.05-2.5 1.05-5.4 1.05-1.8-.25-2.8-.25 0-.25-.1-.6-.15-.3-.15-.6 0-.4.1-.75-.35-.2-.5-.5-.15-.25-.15-.9 0-.35 3.5-2.2 3.5-1.85 4.5-1.85.6 0 3.15.25m-214.35 18.05q0-.95.8-2.4.5 1.4 1.7 3.7 2.2 4.3 3.45 5.15h-.3q-1.75-.15-3.6-2-2.05-2.05-2.05-4.45m18.2 2.8q-8.6-2.95-8.6-5.95 0-1.6 4.65-5.9.05 7.1 15.75 10.8 12.5 2.95 30.15 3-1.5.55-7.35.95-5.9.4-12 .4-13 0-22.6-3.3m143.65-44.6q.4 0 1.25.85 1 1.05 2.6 3.4 3.15 4.65 3.15 7.75 0 9.6-6.85 16-6.75 6.35-16.55 6.35-1.4 0-5.15-4.1-3.75-4.1-5.05-4.1-.4 0-6.75 1.95-4.35 1.4-6.1 1.95.7-3.15.7-4.55 0-1.15-2.5-8.5-2.5-7.35-2.5-7.4 0-.8 1.55-1.2 1.05-.25 2-.25 2.45 0 8.8 2.25 6.35 2.25 10.4 2.25 2.25 0 11.5-6.3 7.85-5.4 9.25-6.2.2-.15.25-.15m-62.4 8.7q1.35.4 2.5.8 1.05 0 1.75-2.35.7-2.4 2-2.4 1.1 0 6.35 6.9 6.05 8 6.05 13.95 0 6.2-5.8 9.05-4.4 2.1-11.55 2.1-3.5 0-9.1-1.45-5.55-1.5-6.7-1.5-1.35 0-3.2.8-1.9.8-3.05.8-.45 0-2.6-.8-2.1-.8-3.2-.8-.55 0-2.15.55-1.6.5-2.25.5-1.4 0-2.3-1-.3-.35-.45-.65.55-.65 1.3-1.15 1.6-1.15 3.2-1.15.45 0 3.7.95 3.25.9 3.55.9 1.4 0 2.6-3.9 1.4-5.4 2.45-8.5 4.05-12.45 12.55-12.45 1.65 0 4.35.8m-23.25-3.2q2.4 0 3 3.75.3 1.8.3 8.2 0 6.95-1 8.55-1.35 2.25-7.2 2.5-3.4.15-7.9 4-4.4 3.75-6 3.75-2.05 0-5.35-.95-4-1.25-4.3-2.8-.35-2.1-2.7-6.55-1.85-3.5-2.6-5.05 1.2-2.45 5.1-2.85 7.15-.75 9.45-2.25 7.3-5.1 10.4-7.05 5.15-3.25 8.8-3.25m-44.45 11.55q.35.3.75.6.15.75 3.05 1.95 2.9 1.15 3.2 2.3.5 1.65 3.05 3.6 2.25 1.7 2.25 3.4 0 5.15-3.15 5.15-4.65 0-8.9-6.25-3.55-5.25-3.8-8.8v-2.4q.1 0 .4-.1.3-.15.65-.15 1.65 0 2.5.7m118.35 27.25q1.55.2 2.9.4-8 .2-13.85 1.05-11.55 1.65-24.1 2.5h-19.5q1.5-.8 16.45-2.8 16.15-2.2 24-2.2 6.6 0 14.1 1.05z" fill="url(#Gradient_1)"/>
            <path d="m488.05 231.2-.95-.9q-.95-.1-.95.9 0 .05.95.95.6-.45.95-.95z" fill="#cff"/>
        </g>
    </g>
    <g>
        <g id="Layer0_0_FILL">
            <path d="m328.1 245q1.25-.6 1.25-1.15 0-1.45-1.4-1.35-1.4.1-1.4 1.45 0 .5.1.6.1.1.1.15zm-38.1-47.6q-.35-.6-1-1.15-.5.15-.5.2-.2.15-.2.7 0 .6.2.75.1.1.5.2.7-.2 1-.7m-13.75-3.15q1.95 2.15 5.65 2.15 1.75 0 2.8-.8 1-.75 1-1.9 0-3.25-5.4-5-5.4-1.75-5.4 2.75 0 1.35 1.35 2.8m-23.55-8.55q0-4.1-1.95-3.95-2 .1-2 3.2l.1.95q.4 1.15 1.95 1.15 1.9 0 1.9-1.35m-45 85.65q0-1.1.7-2.6.65-1.5.65-2.45 0-4.5-4.05-4.35-4.05.2-4.05 4 0 2.95 2 5.35 1.95 2.35 1.95 3.45 0 1.05-1.1 2.75-1.1 1.7-1.1 3.4l.45 1.75q.85 1.75 3.15 1.75 1.75 0 3.35-4.65 0-.5-.95-4.35-1-3.9-1-4.05m79.15-17.05q.25-.5.25-1 0-1.45-1.3-1.35-1.35.1-1.35 1.3 0 .45.2.95.3.85 1.05.85.75 0 1.15-.75m19.35-167.9-.1-.1q-.1.15-.1 1.4 0 1.2.35 1.25.2.05 1.05.05.55-.15.85-.45.15-.15.55-.75l-.4-1.2q-.6-.25-1.3-.25-.7.05-.9.05m16.4 88.6-.4-2.5q-2.55-.65-3.45.2-.65.55-.65 2.2 0 .55 2.3 2.5.55-.1 1.15-.35.45-.25.65-.25zm-43.6-13.2 2.8.6q1.3-.55 2.25-1.6.85-.95.85-1.5 0-2.45-3.15-2.45-3.15 0-3.15 2.45 0 1.2.2 1.8.2.6.2.7m8.9-36.1-.6-1.2q-.9.25-1.2.4-.7.35-1.4 1.4.6.6 1.6 1 1.25-.5 1.6-1.6m-86.8 59.4 1.2-.4.6-1.6q-.8-1.2-1.8-1.6-.85.05-1.2.2-.6.25-.6 1.5 0 1.3.45 1.55.3.2 1.35.35m-3.6-14.55q.4-1.05.4-3.05 0-3.2-3.75-3.25-3.75 0-3.75 3.45 0 .15.2 2.4.9 2.2 4.4 2.2 1.85 0 2.5-1.75z" fill="#9ff"/>
        </g>
    </g>
</svg>
