<svg height="400" preserveAspectRatio="none" viewBox="0 0 550 400" width="550" xmlns="http://www.w3.org/2000/svg" xmlns:xlink="http://www.w3.org/1999/xlink">
    <radialGradient id="Gradient_1" cx="265.95" cy="215.55" gradientUnits="userSpaceOnUse" r="363.45" spreadMethod="pad">
        <stop offset=".25490196078" stop-color="#ee0a55"/>
        <stop offset="1" stop-color="#600"/>
    </radialGradient>
    <radialGradient id="Gradient_2" cx="0" cy="0" gradientTransform="matrix(.99966654 .02582258 -.06166316 .99807523 258.75 203.25)" gradientUnits="userSpaceOnUse" r="345.627752" spreadMethod="pad">
        <stop offset="0" stop-color="#f69"/>
        <stop offset="1" stop-color="#f33"/>
    </radialGradient>
    <linearGradient id="Gradient_3" gradientUnits="userSpaceOnUse" spreadMethod="pad" x1="196.7125" x2="-28.2125" y1="23.6625" y2="243.6375">
        <stop offset="0" stop-color="#f9c"/>
        <stop offset="1" stop-color="#f9c"/>
    </linearGradient>
    <linearGradient id="Gradient_4" gradientUnits="userSpaceOnUse" spreadMethod="pad" x1="124.25" x2="124.25" y1="98.525" y2="33.375">
        <stop offset="0" stop-color="#fff" stop-opacity=".54902"/>
        <stop offset="1" stop-color="#fff" stop-opacity=".109804"/>
    </linearGradient>
    <g>
        <g id="Layer3_0_FILL">
            <path d="m46.1 443.8q-19.2-16.95-30.5-31.4-19.29863281-24.78691406-35.6-50.15v114.95h109.85q-23.66484375-15.74667969-43.75-33.4m505.45-461.3h-140.05q16.93242188 9.17167969 36.6 19.7 77.2 41.35 82.75 45.05-5.05 5.85-7.55 8.85-4.4 5.35-4.4 9.95 0 .55 11.7 13.75 10.36230469 11.71386719 20.95 22.85z" fill="#600"/>
            <path d="m518.9 66.05q0-4.6 4.4-9.95 2.5-3 7.55-8.85-5.55-3.7-82.75-45.05-19.66757812-10.52832031-36.6-19.7h-431.5v379.75q16.30136719 25.36308594 35.6 50.15 11.3 14.45 30.5 31.4 20.08515625 17.65332031 43.75 33.4h461.7v-374.55q-10.58769531-11.13613281-20.95-22.85-11.7-13.2-11.7-13.75m-26.3 75.2q5.35 10.5 4.6 18.15-3.55 30.75-46.6 79.5-36.6 41.25-104.15 98.1-43.15 36.25-74.75 49.3-25.05 10.25-54.15 9.55-34.05-.9-84.25-30.6-33.04980469-19.53789062-101.55-70.5-4.21621094-3.16738281-8.6-6.45-5.35-7.4-8.5-14.1-4.7-9.95-4.9-18.25-.4-13.15 8.65-31.4 9-18.65 26.55-40.45 39-48.5 104.7-95.9 53.1-38.4 94.05-55.65 39.25-16.7 70.9-15.45 8.88242188.33066406 20.3 3.85 14.52910156 4.54804688 33.15 14.25 30.55 15.9 61.65 40.1 30.85 24.1 49.3 46.3 8.95 10.85 13.6 19.65z" fill="url(#Gradient_1)"/>
            <path d="m497.2 159.4q.75-7.65-4.6-18.15-4.65-8.8-13.6-19.65-18.45-22.2-49.3-46.3-31.1-24.2-61.65-40.1-18.62089844-9.70195312-33.15-14.25-11.41757812-3.51933594-20.3-3.85-31.65-1.25-70.9 15.45-40.95 17.25-94.05 55.65-65.7 47.4-104.7 95.9-17.55 21.8-26.55 40.45-9.05 18.25-8.65 31.4.2 8.3 4.9 18.25 3.15 6.7 8.5 14.1 4.38378906 3.28261719 8.6 6.45 68.50019531 50.96210938 101.55 70.5 50.2 29.7 84.25 30.6 29.1.7 54.15-9.55 31.6-13.05 74.75-49.3 67.55-56.85 104.15-98.1 43.05-48.75 46.6-79.5z" fill="url(#Gradient_2)"/>
        </g>
    </g>
    <g transform="matrix(1.19676208 0 0 1.19676208 102.4 76.85)">
        <g>
            <g id="S_mbolo_1_0_Layer0_0_FILL">
                <path d="m248.25 59.55q-1-2.85-5.2-5.75-.2-.1-7.05-4.25-12.8-7.75-25.65-15.15-.4-.2-.8-.5-12.3-7.15-24.75-14-12.6-6.95-24.55-15-7.45-4.8-16.2-4.9-3.1 0-5.85 1.2-11.45 5-21.4 12.65-2 1.5-3.9 3.25-11.6 9.45-22.45 19.8-10.55 9.75-21.15 19.7-.5.6-1 1.1-7.3 6.85-14.75 13.5l-6.55 5.75q-4.45 4.1-11.75 10.85-10.6 9.45-14.1 12.55-3.75 3.25-6.95 6.15-2.4 2.1-4.5 4.2-8.8 8.7-9.6 13-.1.4-.1.8 0 3.2 4.15 7.35 2.4 2.3 6.45 5.15 5.4 3.8 13.15 8.2 7.95 6.15 17.5 12.9 2 1.2 4.05 2.7 3.7 2.65 7.75 5.25.6.5 24 17.1 7.95 5.45 13.4 8.95 11.25 7.35 12.95 7.35 5.75 0 10.1-3.25 4.8-4.1 8.85-8.75 9.65-10.75 20.5-20.3 10.95-9.65 21.4-19.6 7.15-6.85 14.4-13.6 3.55-3.4 7.15-6.75 10.25-9.55 20.8-18.7 16.6-14.55 25.05-23 19.05-19.45 16.6-25.95m-81.05-26.9q3.2 1.95 6.55 4.05-9.8 11.75-28 33.6-4.1 5-8.75 10.55-3.2-2.2-6.2-4.1 3.6-4.55 9.55-11.7-.6-.6-1.2-1.2-2.75-2.9-4.65-5.15-4.5 4.05-7.95 7.15-3 2.55-5.1 4.45-3.35-2.3-6.55-4.65 2.2-1.8 5.2-4.5 5.85-5.15 14.6-12.9 8.45-7.45 15.4-13.45 4.5-4.05 8.55-7.45 2.9 1.8 6.15 3.7 1.2.8 2.4 1.6m14.15 8.75q.2.2.65.4 3.8 2.45 7.4 4.75-1.2 1.3-2.6 2.6-1.8 1.85-3.3 3.45-12.4 12.45-18.2 19.2-5.75 6.65-10.8 11.75 2.55 1.75 5.75 3.85 2.9 2 5.35 3.7-3.15 3.25-5.55 5.35-5.65-3.75-11.05-7.45-.1 0-.1-.1-3.75-2.5-7.35-4.95 2.1-2.5 5.1-5.9 2.15-2.25 4.45-4.85 4.2-4.5 9.35-9.95 12.45-13.5 20.9-21.85m-13.75 51q5.55-5.9 13.75-14.75 12.5-13.4 20.95-21.75.2.1.5.3 3.9 2.4 7.65 4.75-1.3 1.3-2.7 2.7-14.9 15-21.55 22.65-5.75 6.6-10.75 11.65 2.5 1.8 5.7 3.9 3.05 2.05 5.35 3.75-3.2 3.1-5.55 5.35-5.6-3.85-11.05-7.35-.1-.2-.1-.3-3.7-2.45-7.35-4.95 2.15-2.5 5.15-5.95m-31.9-79.65q2.7 1.6 5.85 3.75 4.8 3.1 10.95 7-3.2 2.95-6.95 6.75-2.6-2.4-5.8-4.7-2.65-2.05-4.65-3.35-4.5 4.25-8.75 8.15-13.25 12.4-20.7 19.9 2.5 1.75 7.85 5.85 1.4 1.1 2.8 2-3.1 2.95-5.05 5.05-5.6-4.05-10.65-7.55-3.8-2.6-7.35-5.35 11.4-10.15 24.25-21.4 11.95-10.65 18.2-16.1m-23.65 80.05q-4.2-2.5-7.3-2.5-7.75 0-13.1 3.75-3.6 2.4-6.65 6.9-12.05-8.25-21.5-13.35 1.3-1.5 3-3.25 4.75-5.1 7.85-7.8 8.65-7.75 15.5-7.75 5.4 0 20.1 9.35 7.25 4.6 14 9.45 2.3 1.7 4.5 3.4 13.5 10.25 17.3 13.7 13.1 11.55 13.1 17.8 0 7.85-6.15 18.8-2.4 4.35-5.3 8.15-11.7-9.65-21.45-17.6.5-.6 1-1.4 5.95-7.35 5.95-13.5 0-2.1-3-6.65-2.95-4.3-7.35-8.85-5.85-5.9-10.5-8.65m44-46.65q-.1-.1-.2-.2-2.55-2-3.95-2.9-5.05 4.5-10.95 9.95-.8.7-1.5 1.4 2.2 1.2 4.4 3.2 1 .6 1.7 1.2 5.75-6.8 10.5-12.65z" fill="url(#Gradient_3)"/>
                <path d="m104.75 90.3q3.1 0 7.3 2.5 4.65 2.75 10.5 8.65 4.4 4.55 7.35 8.85 3 4.55 3 6.65 0 6.15-5.95 13.5-.5.8-1 1.4 9.75 7.95 21.45 17.6 2.9-3.8 5.3-8.15 6.15-10.95 6.15-18.8 0-6.25-13.1-17.8-3.8-3.45-17.3-13.7-2.2-1.7-4.5-3.4-6.75-4.85-14-9.45-14.7-9.35-20.1-9.35-6.85 0-15.5 7.75-3.1 2.7-7.85 7.8-1.7 1.75-3 3.25 9.45 5.1 21.5 13.35 3.05-4.5 6.65-6.9 5.35-3.75 13.1-3.75m36.8-73.8q-3.15-2.15-5.85-3.75-6.25 5.45-18.2 16.1-12.85 11.25-24.25 21.4 3.55 2.75 7.35 5.35 5.05 3.5 10.65 7.55 1.95-2.1 5.05-5.05-1.4-.9-2.8-2-5.35-4.1-7.85-5.85 7.45-7.5 20.7-19.9 4.25-3.9 8.75-8.15 2 1.3 4.65 3.35 3.2 2.3 5.8 4.7 3.75-3.8 6.95-6.75-6.15-3.9-10.95-7m39.8 61.15q-8.2 8.85-13.75 14.75-3 3.45-5.15 5.95 3.65 2.5 7.35 4.95 0 .1.1.3 5.45 3.5 11.05 7.35 2.35-2.25 5.55-5.35-2.3-1.7-5.35-3.75-3.2-2.1-5.7-3.9 5-5.05 10.75-11.65 6.65-7.65 21.55-22.65 1.4-1.4 2.7-2.7-3.75-2.35-7.65-4.75-.3-.2-.5-.3-8.45 8.35-20.95 21.75m.65-35.85q-.45-.2-.65-.4-8.45 8.35-20.9 21.85-5.15 5.45-9.35 9.95-2.3 2.6-4.45 4.85-3 3.4-5.1 5.9 3.6 2.45 7.35 4.95 0 .1.1.1 5.4 3.7 11.05 7.45 2.4-2.1 5.55-5.35-2.45-1.7-5.35-3.7-3.2-2.1-5.75-3.85 5.05-5.1 10.8-11.75 5.8-6.75 18.2-19.2 1.5-1.6 3.3-3.45 1.4-1.3 2.6-2.6-3.6-2.3-7.4-4.75m-8.25-5.1q-3.35-2.1-6.55-4.05-1.2-.8-2.4-1.6-3.25-1.9-6.15-3.7-4.05 3.4-8.55 7.45-6.95 6-15.4 13.45-8.75 7.75-14.6 12.9-3 2.7-5.2 4.5 3.2 2.35 6.55 4.65 2.1-1.9 5.1-4.45 3.45-3.1 7.95-7.15 1.9 2.25 4.65 5.15.6.6 1.2 1.2-5.95 7.15-9.55 11.7 3 1.9 6.2 4.1 4.65-5.55 8.75-10.55 18.2-21.85 28-33.6m-17.9 9.25q.1.1.2.2-4.75 5.85-10.5 12.65-.7-.6-1.7-1.2-2.2-2-4.4-3.2.7-.7 1.5-1.4 5.9-5.45 10.95-9.95 1.4.9 3.95 2.9z" fill="#c36"/>
            </g>
        </g>
    </g>
    <g transform="matrix(1.19676208 0 0 1.19676208 -352.8 51.15)">
        <g>
            <g id="S_mbolo_3_0_Layer0_0_FILL">
                <path d="m443.55 244.05q.85410156.44414063 1.7.9 1.10410156-2.76757812 2.65-5.55-2.15-1.15-4.35-2.3-21.95-12.2-42.8-26.55-1.36503906 2.59882813-2.5 5.2 22.01347656 15.384375 45.3 28.3m-83.2-64.15q-.55-.45-1.1-.95-1.39648437 2.35332031-2.5 4.65 1.66914063 1.60878906 3.6 3.25 14.5 11.95 29.5 22.9 1.1.7 2 1.4.89316406.71035156 1.8 1.4 1.1625-2.4875 2.7-5.05-2.35-1.6-4.5-3.3-.9-.7-2-1.4-15-10.95-29.5-22.9z" fill="#bdbdbd"/>
                <path d="m445.25 244.95q-.84589844-.45585937-1.7-.9-23.28652344-12.915625-45.3-28.3-.99257812 2.40136719-1.8 4.8 22.85 16.1 47.1 29.55.65429688-2.56914062 1.7-5.15m-90.2-57q2.3 2.4 5.3 4.95 14.5 11.95 29.5 22.9 1.1.7 2 1.4.73125-2.29140625 1.8-4.65-.90683594-.68964844-1.8-1.4-.9-.7-2-1.4-15-10.95-29.5-22.9-1.93085937-1.64121094-3.6-3.25-.97578125 2.2015625-1.7 4.35z" fill="#aaa"/>
                <path d="m417.7 182.7q-6.75 5.85-12.4 12.6-5.5 6.3-8.95 12.2-1.5375 2.5625-2.7 5.05-1.06875 2.35859375-1.8 4.65 2.2 1.75 4.6 3.35.80742188-2.39863281 1.8-4.8 1.13496094-2.60117187 2.5-5.2 2.25-4.25 5.15-8.4 8.15-11.5 19.75-19.85-2.05-1.5-4.05-2.7-1.8 1.3-3.9 3.1z" fill="#333"/>
                <path d="m356.75 183.6q-.88027344-.84472656-1.7-1.7-3.7-3.85-5.85-7.6-2.24042969-3.88203125-2.9-7.75-1.11777344 6.83847656 2.9 13.8 2.15 3.75 5.85 7.6.72421875-2.1484375 1.7-4.35m306.95-120.65q-.08925781.68574219-.2 1.35-.3 1.2-.6 2.25-1.5 5.9-5.5 11.65-4.95 7.35-73.15 72.3-35.1 33.6-79.95 76.15-12.2 12-20.55 17.7-12.05 8.45-20.4 7.75-3-.3-7.65-2.2-3.8-1.3-7.25-3.25-1.58007812-.85585937-3.2-1.7-1.04570312 2.58085938-1.7 5.15 2.5 1.3 4.9 2.6 3.45 1.95 7.25 3.25 4.65 1.9 7.65 2.2 8.35.7 20.4-7.75 8.35-5.7 20.55-17.7 44.85-42.55 79.95-76.15 68.2-64.95 73.15-72.3 4-5.75 5.5-11.65.3-1.05.6-2.25.15-.9.25-1.8.30332031-2.88105469-.05-5.6z" fill="#dbdbdb"/>
                <path d="m347.25 163.1q-.63359375 1.73730469-.95 3.45.65957031 3.86796875 2.9 7.75 2.15 3.75 5.85 7.6.81972656.85527344 1.7 1.7 1.10351563-2.29667969 2.5-4.65-2.35-2.05-4.2-4-3.7-3.85-5.85-7.6-1.25-2.15-1.95-4.25m315.7-103.55q-.05 0-.05.05-1.5 5.9-5.5 11.65-4.95 7.35-73.15 72.3-35.1 33.6-79.95 76.15-12.2 12-20.55 17.7-12.05 8.45-20.4 7.75-3-.3-7.65-2.2-3.8-1.3-7.25-3.25-.3-.15-.55-.3-1.54589844 2.78242188-2.65 5.55 1.61992188.84414063 3.2 1.7 3.45 1.95 7.25 3.25 4.65 1.9 7.65 2.2 8.35.7 20.4-7.75 8.35-5.7 20.55-17.7 44.85-42.55 79.95-76.15 68.2-64.95 73.15-72.3 4-5.75 5.5-11.65.3-1.05.6-2.25.11074219-.66425781.2-1.35-.23847656-1.72792969-.75-3.4z" fill="#f0f0f0"/>
                <path d="m433.4 187.55q-4.05-2.6-7.75-5.25-11.6 8.35-19.75 19.85-2.9 4.15-5.15 8.4 20.85 14.35 42.8 26.55 2.2 1.15 4.35 2.3 3.45-6.3 9.2-12.75 5.25-5.8 13.7-13.05-5.45-3.5-13.4-8.95-23.4-16.6-24-17.1m13.85 32.3q.2 2.5-1.7 6.4-.7 1.55-1.6 2.95-4.25-3.15-7.55-5.65.1-.2.3-.4 1.8-2.6 1.6-4.75 0-.7-1.1-2.2-1-1.4-2.6-2.8-4.05-3.55-6.35-3.3-2.5.1-4.3 1.5-1.05.8-2.15 2.4-4.2-2.5-7.45-4.15.3-.4.8-1.1 1.65-1.8 2.65-2.8 2.8-2.7 5.1-2.9 1.85-.2 6.95 2.7 3.45 1.9 6.55 4 4.6 3.25 6.15 4.25 4.6 3.6 4.7 5.85m-88-40.9q.55.5 1.1.95 14.5 11.95 29.5 22.9 1.1.7 2 1.4 2.15 1.7 4.5 3.3 3.45-5.9 8.95-12.2 5.65-6.75 12.4-12.6 2.1-1.8 3.9-3.1-9.55-6.75-17.5-12.9-7.75-4.4-13.15-8.2-4.05-2.85-6.45-5.15-12.8 8.35-21.45 20-2.1 2.85-3.8 5.6m8.75-2.25q1.5-1.85 2.4-2.85 2.75-2.8 5.15-2.9 1.9-.1 6.95 2.7 3.5 1.95 6.5 4.05 4.85 3.1 6.15 4.2 4.75 3.65 4.75 5.75.2 2.6-1.6 6.45-.85 1.5-1.65 2.9-4.2-3.1-7.65-5.55.1-.1.3-.5 1.95-2.5 1.75-4.6 0-.7-1.2-2.25-.95-1.4-2.65-2.8-3.9-3.5-6.2-3.3-2.65.1-4.35 1.4-1.1.9-2.1 2.5-4.35-2.5-7.55-4.1.4-.5 1-1.1m263.4-120.3q-.2.9.55 1.35.95.6 2 .1 1.05-.5.65-1.7-.55-.95-1.75-.95-1.1.05-1.45 1.2z" fill="#ccc"/>
                <path d="m445.55 226.25q1.9-3.9 1.7-6.4-.1-2.25-4.7-5.85-1.55-1-6.15-4.25-3.1-2.1-6.55-4-5.1-2.9-6.95-2.7-2.3.2-5.1 2.9-1 1-2.65 2.8-.5.7-.8 1.1 3.25 1.65 7.45 4.15 1.1-1.6 2.15-2.4 1.8-1.4 4.3-1.5 2.3-.25 6.35 3.3 1.6 1.4 2.6 2.8 1.1 1.5 1.1 2.2.2 2.15-1.6 4.75-.2.2-.3.4 3.3 2.5 7.55 5.65.9-1.4 1.6-2.95z" fill="#c00"/>
                <path d="m370.4 173.85q-.9 1-2.4 2.85-.6.6-1 1.1 3.2 1.6 7.55 4.1 1-1.6 2.1-2.5 1.7-1.3 4.35-1.4 2.3-.2 6.2 3.3 1.7 1.4 2.65 2.8 1.2 1.55 1.2 2.25.2 2.1-1.75 4.6-.2.4-.3.5 3.45 2.45 7.65 5.55.8-1.4 1.65-2.9 1.8-3.85 1.6-6.45 0-2.1-4.75-5.75-1.3-1.1-6.15-4.2-3-2.1-6.5-4.05-5.05-2.8-6.95-2.7-2.4.1-5.15 2.9z" fill="#393"/>
                <path d="m663.75 68.55q-.1.9-.25 1.8-.3 1.2-.6 2.25-1.5 5.9-5.5 11.65-4.95 7.35-73.15 72.3-35.1 33.6-79.95 76.15-12.2 12-20.55 17.7-12.05 8.45-20.4 7.75-3-.3-7.65-2.2-3.8-1.3-7.25-3.25-2.4-1.3-4.9-2.6-24.25-13.45-47.1-29.55-2.4-1.6-4.6-3.35-.9-.7-2-1.4-15-10.95-29.5-22.9-3-2.55-5.3-4.95-3.7-3.85-5.85-7.6-1.7 10.45 8.75 21.3 2.3 2.4 5.3 4.95 14.5 11.95 29.5 22.9 1.1.7 2 1.4 2.2 1.75 4.6 3.35 22.85 16.1 47.1 29.55 2.5 1.3 4.9 2.6 3.45 1.95 7.25 3.25 4.65 1.9 7.65 2.2 8.35.7 20.4-7.75 8.35-5.7 20.55-17.7 44.85-42.55 79.95-76.15 68.2-64.95 73.15-72.3 4-5.75 5.5-11.65.3-1.05.6-2.25 1-5.8-.6-10.85-.4-1.5-1.1-2.9-.45-.9-.95-1.75m-161.05 141q-.1.2-.3.3h.3z" fill="#c30"/>
                <path d="m662.9 59.6q0-.05.05-.05l-.05-.05q-.4-1.5-1.1-2.9-3.2-6.55-10.15-11.4-4.85-3.4-14.1-7.5-7.85-3.45-15.6-6.95-23.6-11.2-37.6-17.6-25.65-11.9-29.25-12.5-20.85-3.4-38.85 10.85-12.35 10-24.45 20.15-15.85 13.25-31.25 26.85-25.95 22.75-51.9 45.65-12.1 10.75-24.25 21.35-7.65 6.5-23.35 20.9l-.4.5q-10.5 7.95-13.4 16.2.7 2.1 1.95 4.25 2.15 3.75 5.85 7.6 1.85 1.95 4.2 4 1.7-2.75 3.8-5.6 8.65-11.65 21.45-20-4.15-4.15-4.15-7.35 0-.4.1-.8.8-4.3 9.6-13 2.1-2.1 4.5-4.2 3.2-2.9 6.95-6.15 3.5-3.1 14.1-12.55 7.3-6.75 11.75-10.85l6.55-5.75q7.45-6.65 14.75-13.5.5-.5 1-1.1 10.6-9.95 21.15-19.7 10.85-10.35 22.45-19.8 1.9-1.75 3.9-3.25 9.95-7.65 21.4-12.65 2.75-1.2 5.85-1.2 8.75.1 16.2 4.9 11.95 8.05 24.55 15 12.45 6.85 24.75 14 .4.3.8.5 12.85 7.4 25.65 15.15 6.85 4.15 7.05 4.25 4.2 2.9 5.2 5.75 2.45 6.5-16.6 25.95-8.45 8.45-25.05 23-10.55 9.15-20.8 18.7-3.6 3.35-7.15 6.75-7.25 6.75-14.4 13.6-10.45 9.95-21.4 19.6-10.85 9.55-20.5 20.3-4.05 4.65-8.85 8.75-4.35 3.25-10.1 3.25-1.7 0-12.95-7.35-8.45 7.25-13.7 13.05-5.75 6.45-9.2 12.75.25.15.55.3 3.45 1.95 7.25 3.25 4.65 1.9 7.65 2.2 8.35.7 20.4-7.75 8.35-5.7 20.55-17.7 44.85-42.55 79.95-76.15 68.2-64.95 73.15-72.3 4-5.75 5.5-11.65m-160.5 150.25q.2-.1.3-.3v.3zm126.5-154.45q1.1-3.95 4.95-4.05 4.1-.1 5.85 3.3 1.5 3.95-2.15 5.75-3.5 1.7-6.75-.3-2.6-1.6-1.9-4.7m-19.05-13.75q.2 1.6-1.85 2.65-1.65.8-3.45.8-1 0-13.45-6.35-12.45-6.35-14.85-7.55-2.4-1.25-6.2-3.4-3.75-2.15-3.8-2.6-.2-1.3 1.65-2.5 1.75-1.2 3.6-1.2 2.3 0 8.7 3.45 10.65 5.7 11.95 6.3 3.9 1.85 10.15 5.35 7.45 4.15 7.55 5.05z" fill="#fff"/>
                <path d="m608 44.3q2.05-1.05 1.85-2.65-.1-.9-7.55-5.05-6.25-3.5-10.15-5.35-1.3-.6-11.95-6.3-6.4-3.45-8.7-3.45-1.85 0-3.6 1.2-1.85 1.2-1.65 2.5.05.45 3.8 2.6 3.8 2.15 6.2 3.4 2.4 1.2 14.85 7.55 12.45 6.35 13.45 6.35 1.8 0 3.45-.8m25.85 7.05q-3.85.1-4.95 4.05-.7 3.1 1.9 4.7 3.25 2 6.75.3 3.65-1.8 2.15-5.75-1.75-3.4-5.85-3.3m-2.65 8.85q-2.35-1.45-1.75-4.3 1-3.55 4.5-3.65 3.75-.1 5.3 3 1.4 3.55-1.95 5.2-.5046875.2484375-1 .4-1.34628906.44375-2.65.25-1.24296875-.16347656-2.45-.9z" fill="#999"/>
                <path d="m631.75 60.35q-2-1.2-1.45-3.6.85-3 3.75-3.1 3.15-.05 4.5 2.55 1.15 3-1.65 4.4-.303125.14863281-.6.25.4953125-.1515625 1-.4 3.35-1.65 1.95-5.2-1.55-3.1-5.3-3-3.5.1-4.5 3.65-.6 2.85 1.75 4.3 1.20703125.73652344 2.45.9-.96191406-.16835937-1.9-.75z" fill="#7e7e7e"/>
                <path d="m630.3 56.75q-.55 2.4 1.45 3.6.93808594.58164063 1.9.75 1.30371094.19375 2.65-.25.296875-.10136719.6-.25 2.8-1.4 1.65-4.4-1.35-2.6-4.5-2.55-2.9.1-3.75 3.1m.35.4q.75-2.7 3.4-2.75 2.8-.1 4 2.25 1 2.7-1.5 3.95-2.4 1.15-4.6-.25-1.8-1.05-1.3-3.2z" fill="#626262"/>
                <path d="m634.05 54.4q-2.65.05-3.4 2.75-.5 2.15 1.3 3.2 2.2 1.4 4.6.25 2.5-1.25 1.5-3.95-1.2-2.35-4-2.25m-2.1 3.35q-.75-.45-.55-1.35.35-1.15 1.45-1.2 1.2 0 1.75.95.4 1.2-.65 1.7-1.05.5-2-.1z"/>
            </g>
        </g>
    </g>
    <g transform="translate(127.2 99.4)">
        <g>
            <g id="S_mbolo_2_0_Layer0_0_FILL">
                <path d="m160.25 4.9q-7.45-4.8-16.2-4.9-3.1 0-5.85 1.2-11.45 5-21.4 12.65-2 1.5-3.9 3.25-11.6 9.45-22.45 19.8-10.55 9.75-21.15 19.7-.5.6-1 1.1-7.3 6.85-14.75 13.5l-6.55 5.75q-4.45 4.1-11.75 10.85-10.6 9.45-14.1 12.55-3.75 3.25-6.95 6.15-2.4 2.1-4.5 4.2-8.8 8.7-9.6 13-.1.4-.1.8 0 2.5 2.55 5.6.7.85 1.6 1.75 2.4 2.3 6.45 5.15 4.95 3.5 11.95 7.5 8.35-9.4 18.9-20.45 25.25-26.45 51.85-50.35 41.15-36.95 78.4-61.45-5.8-3.55-11.45-7.35z" fill="url(#Gradient_4)"/>
            </g>
        </g>
    </g>
    <g>
        <g id="Layer0_0_FILL">
            <path d="m-20-17.5v-4.2q-2.47929688 2.09707031-4.95 4.2zm178.15.2q-.178125-.10019531-.35-.2h-177.8v164.65q6.22695312 3.915625 7.6 3.95 3.35.025 6.35-.85 2.8625-1.3125 5.7-2.65.184375-.1421875.35-.3 4.7625-4.05 9.5-8.15.6203125-.58242187 1.25-1.2 12.25-11.9 25.85-22.55 13.7-10.75 26.9-21.9 9.15-7.75 18.4-15.3 4.5-3.9 9.05-7.6 13.15-10.8 26.65-21.2 21.3-16.6 32.25-26.2 24.95-22.3 22.45-29.55-.02636719-.10527344-.05-.2-.02636719-.10527344-.05-.2-.2-.45-.45-.8l-.75-1.25-1.9-1.95q-1.2-1-2.7-1.95-.25-.1-8.25-4.6m324 258.9q-16.2 13.25-31.4 27.7-14.75 13.6-29.55 27.55-.75.85-1.4 1.55-10.25 9.55-20.6 18.85l-9.2 8.05q-6.2 5.7-16.4 15.15-14.85 13.25-19.75 17.55-5.25 4.55-9.7 8.6-3.35 2.95-6.3 5.85-12.25 12.2-13.4 18.15-.1.6-.1 1.15 0 1.35.5 2.8.75 1.475 1.5 2.95.825 1.1 1.65 2.2.9 1.1 2.1 2.3 3.35 3.15 9 7.2 7.55 5.3 18.4 11.4 11.15 8.65 24.45 18.05 2.8 1.7 5.65 3.75 5.2 3.7 10.85 7.35.85.75 33.55 23.95 2.67011719 1.828125 5.15 3.5h60.4q12.56816406-13.62167969 26.45-25.9 14.02910156-12.37324219 27.55-25.2v-199.4q-1.60410156-1.0296875-3.2-2.1-10.45-6.75-22.65-6.9-4.35 0-8.2 1.7-16.05 7-29.9 17.7-2.8 2.1-5.45 4.5z" fill="#070707"/>
            <path d="m215.6-17.5q-.15820312.3875-.3.75-2.4 6.8-7.75 13.4-6.75 8.45-95.45 82.75-44.95 37.7-101.6 85.05-15.3 13.2-25.55 19.45-2.55292969 1.575-4.95 2.85v16.4q3.40898437-1.67441406 7.15-4 10.2-6.15 25.55-19.35 56.7-47.25 101.75-85 88.8-74.25 95.55-82.65 5.45-6.6 7.8-13.4.45-1.25.95-2.55.65-2.65.8-5.05.25-3.85-.7-7.25-.16777344-.71328125-.4-1.4zm319.55 494.7h16.4v-15.6q-8.04550781 7.68535156-16.4 15.6m-233.8 0h20.05q-12.65214844-9.6703125-25.05-19.9-4.2-3.55-7.4-6.9-5.2-5.35-8.15-10.6-2.4 14.6 12.25 29.75 3.15 3.35 7.4 6.9.45507813.37539063.9.75z" fill="#600"/>
            <path d="m157.8-17.5q.171875.09980469.35.2 8 4.5 8.25 4.6 1.5.95 2.7 1.95l1.9 1.95.75 1.25q.25.35.45.8.02363281.09472656.05.2.03945313.12890625.1.25 2.4 7.25-22.45 29.55-10.95 9.6-32.25 26.2-13.5 10.4-26.7 21.25-4.5 3.7-9.05 7.55-9.2 7.55-18.35 15.3-13.2 11.1-26.95 21.9-13.65 10.6-25.8 22.5-.64589844.62734375-1.3 1.2-4.7375 4.1-9.5 8.15-.165625.1578125-.35.3-2.8375 1.3375-5.7 2.65-2.975.925-6.3.9-1.37597656-.034375-7.65-3.95v25.7q2.97539062-1.49550781 6.2-3.5 10.1-6.3 25.45-19.4 56.65-47.4 101.55-85.2 85.88339844-72.134375 94.9-82.3zm-147.15 156.5h-.35q.3-.15.4-.35zm540.9 304.45v-17.2q-13.45898438 12.753125-27.55 25.1-13.85644531 12.25585938-26.35 25.85h18.4q18.37519531-17.44667969 35.5-33.75m-100.8-174.15q15.2-14.45 31.4-27.7 2.65-2.4 5.45-4.5 13.85-10.7 29.9-17.7 3.85-1.7 8.2-1.7 12.2.15 22.65 6.9 1.59589844 1.0703125 3.2 2.1v-38.75q-19.60898437 1.80644531-37.25 15.8-17.3 13.95-34.15 28.15-22.2 18.5-43.75 37.55-36.25 31.8-72.5 63.8-16.9 15.05-33.9 29.85-10.7 9.1-32.65 29.2l-.55.75q-14.7 11.1-18.75 22.6 1 2.95 2.75 5.95 2.95 5.2 8.15 10.6 2.6 2.75 5.9 5.65 2.35-3.9 5.25-7.9 12.1-16.25 30-27.9-1.2-1.2-2.1-2.35-.825-1.1-1.65-2.2-.75-1.475-1.5-2.95-.5-1.45-.5-2.8 0-.55.1-1.15 1.15-5.95 13.4-18.15 2.95-2.9 6.3-5.85 4.45-4.05 9.7-8.6 4.9-4.3 19.75-17.55 10.2-9.45 16.4-15.15l9.2-8.05q10.35-9.3 20.6-18.85.65-.7 1.4-1.55 14.8-13.95 29.55-27.55z" fill="#333"/>
            <path d="m10.3 139h.35l.05-.35q-.1.2-.4.35m484.65 342.05h.4v-.5q-.15.35-.4.5z" fill="#c30"/>
            <path d="m213-17.5h-4.9q-9.01660156 10.165625-94.9 82.3-44.9 37.8-101.55 85.2-15.35 13.1-25.45 19.4-3.22460938 2.00449219-6.2 3.5v7.45q2.67617188-1.40371094 5.55-3.2 10.15-6.25 25.5-19.45 56.65-47.3 101.55-85.15 88.7-74.35 95.4-82.75 2.95175781-3.63496094 5-7.3m303.05 494.7h10.25q12.95527344-12.29492187 25.25-24v-9.75q-17.12480469 16.30332031-35.5 33.75m-128.4-34.7q-2.85-2.1-5.65-3.8-2.5 1.85-5.45 4.4-9.45 8.15-17.35 17.55-7.44511719 8.50878906-12.25 16.55h8.6q2.09199219-3.5015625 4.5-6.95 11.35-16.05 27.6-27.75m-92.8-4.65q-3.3-2.9-5.9-5.65-5.2-5.4-8.15-10.6-1.75-3-2.75-5.95-.9 2.45-1.3 4.9.9 5.3 4.05 10.75 2.95 5.25 8.15 10.65 1.15 1.2 2.45 2.4 1.45-3.25 3.45-6.5z" fill="#1e1e1e"/>
            <path d="m215.6-17.5h-2.6q-2.04824219 3.66503906-5 7.3-6.7 8.4-95.4 82.75-44.9 37.85-101.55 85.15-15.35 13.2-25.5 19.45-2.87382812 1.79628906-5.55 3.2v6.4q2.39707031-1.275 4.95-2.85 10.25-6.25 25.55-19.45 56.65-47.35 101.6-85.05 88.7-74.3 95.45-82.75 5.35-6.6 7.75-13.4.14179688-.3625.3-.75m319.55 494.7q8.35449219-7.91464844 16.4-15.6v-8.4q-12.29472656 11.70507813-25.25 24zm-243.75-32.85q-1.3-1.2-2.45-2.4-5.2-5.4-8.15-10.65-3.15-5.45-4.05-10.75-1.55 9.5 4.05 19.25 2.95 5.25 8.15 10.6 1-3 2.45-6.05z"/>
            <path d="m437.1 477.2q-2.41972656-1.64921875-5.05-3.45-32.7-23.2-33.6-23.95-5.65-3.6-10.8-7.3-16.25 11.7-27.6 27.75-2.40800781 3.4484375-4.5 6.95h19.5q.91796875-.94238281 1.6-1.6 3.9-3.85 7.15-4.1 2.55-.3 9.7 3.75 1.72304688.95917969 3.35 1.95zm-137-47.25q-2.9 4-5.25 7.9.75.65 1.5 1.25 20.3 16.75 41.25 32.05 1.55 1 2.8 1.95 2.67871094 2.1078125 5.45 4.1.41054688.27617188.8.55.16054688-.27460937.3-.55 4.80488281-8.04121094 12.25-16.55 7.9-9.4 17.35-17.55 2.95-2.55 5.45-4.4-13.35-9.4-24.5-18-10.85-6.15-18.35-11.45-5.65-4.05-9.05-7.2-17.9 11.65-30 27.9m6.95 4.75q2.1-2.65 3.35-4 3.85-3.95 7.2-4.1 2.7-.1 9.75 3.8 4.85 2.75 9.1 5.7 6.7 4.3 8.55 5.85 6.65 5.1 6.65 8 .25 3.65-2.25 9-1.2 2.15-2.25 4.1-5.95-4.35-10.7-7.8.1-.1.4-.65 2.7-3.5 2.4-6.45 0-.95-1.65-3.1-1.3-1.95-3.7-3.95-5.45-4.9-8.7-4.6-3.7.15-6.05 1.95-1.55 1.25-2.95 3.5-6.05-3.5-10.5-5.75.55-.7 1.35-1.5z" fill="#4d4d4d"/>
            <path d="m294.85 437.85q-2 3.25-3.45 6.5 2.25 2.2 4.95 4.5 17.86621094 14.69785156 36.2 28.35h13.3q-2.77128906-1.9921875-5.45-4.1-1.25-.95-2.8-1.95-20.95-15.3-41.25-32.05-.75-.6-1.5-1.25z" fill="#434343"/>
            <path d="m310.4 430.7q-1.25 1.35-3.35 4-.8.8-1.35 1.5 4.45 2.25 10.5 5.75 1.4-2.25 2.95-3.5 2.35-1.8 6.05-1.95 3.25-.3 8.7 4.6 2.4 2 3.7 3.95 1.65 2.15 1.65 3.1.3 2.95-2.4 6.45-.3.55-.4.65 4.75 3.45 10.7 7.8 1.05-1.95 2.25-4.1 2.5-5.35 2.25-9 0-2.9-6.65-8-1.85-1.55-8.55-5.85-4.25-2.95-9.1-5.7-7.05-3.9-9.75-3.8-3.35.15-7.2 4.1z" fill="#393"/>
            <path d="m296.35 457.3q12.39785156 10.2296875 25.05 19.9h11.15q-18.33378906-13.65214844-36.2-28.35-2.7-2.3-4.95-4.5-1.45 3.05-2.45 6.05 3.2 3.35 7.4 6.9z" fill="#383838"/>
            <path d="m376.65 475.6q-.68203125.65761719-1.6 1.6h21.8q-1.62695312-.99082031-3.35-1.95-7.15-4.05-9.7-3.75-3.25.25-7.15 4.1z" fill="#c00"/>
        </g>
    </g>
</svg>
