<svg height="400" preserveAspectRatio="none" viewBox="0 0 550 400" width="550" xmlns="http://www.w3.org/2000/svg">
    <g transform="translate(203.85 39.9)">
        <g>
            <g id="S_mbolo_31_0_Layer2_0_FILL">
                <path d="m24.5 117.9q.85-2.35 1.7-4.35 1-2.65 1.9-4.95-.65-.15-1.15-.4-1 2.15-2.1 4.65-.95 2.4-2.05 5.1-3.02695313 7.3203125-4.7 11.45.18398438.05.55.05.66386719 0 1.35-.05 2.675-6.84785156 4.5-11.5m-6-8.35q.89726563-1.34804687 1.25-2.1.40800781-.70605469 1.2-5.15-1 3.4-2 3.05-1.25 1.85-2.1 3.2-.7 1.15-1.1 2.05-1.5 2.75-4.1 7.2l-2.4 4.75q-1 2-2 3.95-.32929687.75058594-.65 1.4.85078125.1953125 1.85.4.05957031.01191406.1 0l3.85-8.1q2.2-4.4 6.1-10.65m-26.5 23.15 7.55-4.15q-1.09316406-.52402344-2.1-1.05-1.25-.7-2.35-1.25-5.1 1.55-8.9 2.65-.4 1.95-.85 4.05-3.85 17.25-10.6 30.55-4.1 8.25-10 17.25.9 1.65 1.9 3.7 1.1 2.05 2.05 4.05 6.45 1.15 21.75 7.2.08046875.03007813.15.05l-6-6.05q10.28515625-30.15371094 7.4-57z" fill="#900"/>
            </g>
        </g>
        <g>
            <g id="S_mbolo_31_0_Layer1_0_FILL">
                <path d="m28.3 108.4q.3-2.8.25-7.05-.35 1.85-.9 1.75-.4 2.3-.8 5-.3 2.55-.7 5.5-1.47578125 11.35839844-2.3 15.65 1.09550781-.12441406 2.15-.3 1.09316406-9.75410156 1.8-15.85.25-2.5.5-4.7m-7.85-4q.16953125-.74726562.5-2.1-.75.15-2.05.25-.45 1.95-.9 3.5-.35 1.3-.55 2.25-.75 3-2.1 8l-1.1 5.2q-.45 2.2-.85 4.35-.51132812 2.83574219-.85 4.55.98476563-.05625 2-.15l2.15-11.85q1.00488281-4.79941406 2.3-9.05 1.28535156-4.20214844 1.45-4.95m-14.75 26.1q.946875.05 1.85.05 1.63632812 0 3.4-.1-2.36914063-.26875-4.5-.65-1.19277344-.21054687-2.3-.45-1.4-.35-2.55-.6-4.6 2.8-7.95 4.9.1 1.95.2 4.1.75 17.65-2.3 32.25-1.85 9-5.2 19.25 1.3 1.35 2.8 3.1 1.6 1.7 3 3.4 4.11289062-.37675781 12.1.2l-1.25-.9q3.48378906-29.46328125-4.4-57.6z" fill="#f66"/>
            </g>
        </g>
        <g>
            <g id="S_mbolo_31_0_Layer0_0_FILL">
                <path d="m40 78.05q-.4.4-.55.55-1.05 1-3.65 4 3.05 5.4 7.2 9.45-.1.7-.15 1.4-.15 2.1-.45 6.55-.1 1-.2 2.15l-.05 10.85q0 2.55 1.15 14.4.5 4.75 1.15 11l7.3 22.75q-.35 1.35-.7 2.6-1.3 4.8-2.05 7.6-2.65 10.35-4.95 19.95h41.1q-2.75-9.3-4.4-14.4-2.3-7.3-4.55-13.9l-7.05 13.6 6.45-15.4q3.75-8.95 3.75-15.35 0-6-3.5-11.6-2.1-3.3-9.8-12.3-3.75-4.4-7-11.65-1.9-4.2-2.75-7.55 3.45-4.55 7.4-10.05 2.05-2.9 6.25-8.8 1.8-2.55 3.45-5.5-5.85.55-8.9.55-3.6 0-13.05-1.15-5.8-.7-10-1.45-1 1.15-1.45 1.7m23.75 114.3h-19.9l-28.05 109.35q.9.1 3.65.6 22.25-48.75 25.65-71.3 11.55-20 18.65-38.65m21.8 0h-18.15l54.2 109.2q.4-.25.9-.5.75-.4 2.35-1.2-12.15-46.7-28.45-70.8-4.1-20.35-10.85-36.7m-3.75-114.85q4.4 6.4 7.8 13.35 3.3 6.65 9.95 24.25 2.95 7.85 7.15 18.9 4.1 10.95 5.15 13.05.05.15.15.3.45 1.9.95 4.25.15.9.4 2.2.2 1.2.4 2.25.05.2.1.45l.65 3.1q3.15 5 6.15 8.05-1.35-3.4-3.15-6.3 2.55 3.8 5.7 6.1l-.6-1.6 1.3 1.05q-.05-.25-.15-.5.05.05.1.15-2.75-5.85-4-12.3l-5.05-6.35q-.3-.3-.5-.55-.5-.55-.65-.75l-.6-1.75q-.75-2.55-1.9-6.35-15.55-54.3-26.05-81.25-1.85-4.8-4.25-4.65-2.05.1-5.15 2.1-2.05 1.35-8.4 6.85-7.25 6.15-13 8.15.05-4.5 1.3-13.05 2.85-17.4 12.45-32.7v-.05q3.6-6.95 1.9-10.2-.55-1.3-2-1.85-4.45-1.05-8.4-.6-1.1-.25-2.35-.45-5.65-1.2-10.35-1.5-1 .9-1.95 2.2-.9 1.2-1.65 3.1-.2.6-.35 1 .75.45 1.65.95.35-.75.9-1.75 1-1.75 1.3-2.05h.1q-.6 1.2-.95 3-.15.7-.15 1.3.6.25 1.3.55-.5.5-.95 1.1-1 1.15-1.95 2.55-.15.15-.2.35-.45 3.35-.45 4.15l-1.8 2q-.8.85-1.35 1.5-2.45 7.4-1.25 15.3 7.05.75 13.95-4.35l.05-.05v.05q-.85 3.65-1.85 8.7-2.35 11.25-4.25 18.05-1.1-2.4-2.05-3.95-3.25-4.1-5.2-.4-1.45 2.7-1.45 6.05 0 2.5.2 4.75 0 .1.05.2.05.95.15 1.55 0 .1.05.65 0 .4.05.65.05.35.1.7.5-.4.95-.7.1-.1.45-.3.45-.4.6-.5.35-.25.65-.5.05-.05.15-.1.3.1.7.25 1.95.6 2.8.8 3.75.75 5.35.95 3.2.4 10.4.8l6.95.1q2.15-.1 5.5-.4l.35-.55q.6-.95 1.15-1.85-.05.15-.1.3 1.4-2.25 2.4-4.05 2.4 2.95 4.6 6.1m12.05-70.45q-3.4-7.05-9.1-7.05-6.65 0-11.1 3.85-1.4 1.25-2.65 2.85-1.45 1.85-2.65 4.3 1.7.55 2.65 2.55 2.1-.2 3.85.25 3.35.95 4.85 4.9.25.5.45 1.1 1.45 3.7 2.75 14.3.3 2.15.55 4.05 1.1 7 2.55 10.2 2.5 5.5 7.6 6.35-1.25-2.2-1.25-5.5 0-2.3 2.25-11 1.25-4.8 1.8-9.35.4-3.65.4-7.1 0-8.5-2.95-14.7m-52.55 99.2q-.2-4.05.35-7.15-6.5 1.3-12.6 2.2.2 1.9.65 5.3 5.8-.05 11.6-.35m-14.5-1.85q-.13671875-1.67558594-.2-2.75-2.55.35-5.05.65-.2 1.6-.5 4.2 2.50078125.04238281 5 .1.4109375-1.23085937.75-2.2m-9.7 1.95q.5484375-1.3625.85-2.25.11054688-.8296875.2-1.5-6.15.6-11.9.75-.45 0-.8.1-.8.1-1.45.4-1.75.9-2.35 2.75h-.05q-.65 2.1-.35 5.15l.2 3.7q.3 4.1-1.45 12.85 2.15-3.15 2.75-6.1.5-2.9.45-5.2-.1-2.7-.1-4.35.3.8.75 1.75.9 2.35 1.15 3.8v1.4q.0015625-.0515625.1-.15.15-.75.45-2.8.25-2.1-.75-5.05l-.65-2.3q-.25-.85-.3-1.35v-.1q.25-.65.45-.9.25-.45.95-.85.5-.3 1.3-.35.05 0 .1 0 5.16933594.37597656 10.45.6m106.15 195.75q-.6.2-1 .35l7.7 14.55-5.55 1.8h8.25l-2.3-11.65 11.9 1.1-15.2-3.8-1.55-3.25q-1 .3-2.25.9m-105.55 3.55 1.55-2.7q-2.1-.1-3.75-.25l-7 16.8-5.1 1.6h5.4l7.95-9.8 2.2 9.8z"/>
                <path d="m41.95 128.05q0-.2 0-.35-5.35 1.2-10.7 2.1-1.1-11.65-1.75-18.5-.25761719-2.49238281-.55-5.7-.28789062-3.21171875-.4-4.25-.65.1-1.25.2.1 2.25.3 5.05.2 2.55.4 5.5.95 12.75.95 16.75 0 .7-.05 1.35-4.75.7-8.85 1.2l-.35-12.65q.03183594-4.98808594.5-9.85.51699219-4.86191406.55-5.35.03691406-.49179687.2-1.25l-2.05.25q-.3 2.2-.4 3.85-.1 1.3-.1 2.25-.1 3.15-.4 8.3v5.3q0 2.25.05 4.45.05 3.05.1 4.85-4.7.45-8.5.45-1.45-.05-2.6-.1-3.95 3.7-6.8 6.45.5 1.9 1.05 4 4.3 17.1 4.3 32 0 9.2-1.15 19.9 1.55 1.1 3.35 2.45 1.9 1.4 3.65 2.7 6.25-1.85 22.65-3.35 3.95-.4 7.25-.6 1.85-8.7 5.8-22.4 1.8-6.25 3.35-11.2-1.45-4.95-4.4-14-2.1-6.35-3.35-10.35-.2-2.7-.8-9.45z" fill="#f36"/>
            </g>
        </g>
    </g>
</svg>
