<svg height="400" preserveAspectRatio="none" viewBox="0 0 550 400" width="550" xmlns="http://www.w3.org/2000/svg">
    <g transform="translate(36.05 38.25)">
        <g>
            <g id="S_mbolo_1_0_Layer0_0_FILL">
                <path d="m123.25 302.1q-.6.2-1 .35l7.7 14.55-5.55 1.8h8.25l-2.3-11.65 11.9 1.1-15.2-3.8-1.55-3.25q-1 .3-2.25.9m-105.55 3.55 1.55-2.7q-2.1-.1-3.75-.25l-7 16.8-5.1 1.6h5.4l7.95-9.8 2.2 9.8zm67.85-113.3h-18.15l54.2 109.2q.4-.25.9-.5.75-.4 2.35-1.2-12.15-46.7-28.45-70.8-4.1-20.35-10.85-36.7m-21.8 0h-19.9l-28.05 109.35q.9.1 3.65.6 22.25-48.75 25.65-71.3 11.55-20 18.65-38.65m-45.95-85.95q.15-2.3.35-3.8-6.15.6-11.9.75-.45 0-.8.1-.8.1-1.45.4-1.75.9-2.35 2.75h-.05q-.65 2.1-.35 5.15l.2 3.7q.3 4.1-1.45 12.85 2.15-3.15 2.75-6.1.5-2.9.45-5.2-.1-2.7-.1-4.35.3.8.75 1.75.9 2.35 1.15 3.8v1.4q.0015625-.0515625.1-.15.15-.75.45-2.8.25-2.1-.75-5.05l-.65-2.3q-.25-.85-.3-1.35v-.1q.25-.65.45-.9.25-.45.95-.85.5-.3 1.3-.35.05 0 .1 0 5.5.4 11.15.65m8.8-4.75q-2.55.35-5.05.65-.2 1.6-.5 4.2 2.95.05 5.9.1-.25-3.25-.35-4.95m14.7 4.6q-.2-4.05.35-7.15-6.5 1.3-12.6 2.2.2 1.9.65 5.3 5.8-.05 11.6-.35m40.5-28.75q4.4 6.4 7.8 13.35 3.3 6.65 9.95 24.25 2.95 7.85 7.15 18.9 4.1 10.95 5.15 13.05.05.15.15.3.45 1.9.95 4.25.15.9.4 2.2.2 1.2.4 2.25.05.2.1.45l.65 3.1q3.15 5 6.15 8.05-1.35-3.4-3.15-6.3 2.55 3.8 5.7 6.1l-.6-1.6 1.3 1.05q-.05-.25-.15-.5.05.05.1.15-2.75-5.85-4-12.3l-5.05-6.35q-.3-.3-.5-.55-.5-.55-.65-.75l-.6-1.75q-.75-2.55-1.9-6.35-15.55-54.3-26.05-81.25-1.85-4.8-4.25-4.65-2.05.1-5.15 2.1-2.05 1.35-8.4 6.85-7.25 6.15-13 8.15.05-4.5 1.3-13.05 2.85-17.4 12.45-32.7v-.05q3.6-6.95 1.9-10.2-.55-1.3-2-1.85-4.45-1.05-8.4-.6-1.1-.25-2.35-.45-5.65-1.2-10.35-1.5-1 .9-1.95 2.2-.9 1.2-1.65 3.1-.2.6-.35 1 .75.45 1.65.95.35-.75.9-1.75 1-1.75 1.3-2.05h.1q-.6 1.2-.95 3-.15.7-.15 1.3.6.25 1.3.55-.5.5-.95 1.1-1 1.15-1.95 2.55-.15.15-.2.35-.45 3.35-.45 4.15l-1.8 2q-.8.85-1.35 1.5-2.45 7.4-1.25 15.3 7.05.75 13.95-4.35l.05-.05v.05q-.85 3.65-1.85 8.7-2.35 11.25-4.25 18.05-1.1-2.4-2.05-3.95-3.25-4.1-5.2-.4-1.45 2.7-1.45 6.05 0 2.5.2 4.75 0 .1.05.2.05.95.15 1.55 0 .1.05.65 0 .4.05.65.05.35.1.7.5-.4.95-.7.1-.1.45-.3.45-.4.6-.5.35-.25.65-.5.05-.05.15-.1.3.1.7.25 1.95.6 2.8.8 3.75.75 5.35.95 3.2.4 10.4.8l6.95.1q2.15-.1 5.5-.4l.35-.55q.6-.95 1.15-1.85-.05.15-.1.3 1.4-2.25 2.4-4.05 2.4 2.95 4.6 6.1m12.05-70.45q-3.4-7.05-9.1-7.05-6.65 0-11.1 3.85-1.4 1.25-2.65 2.85-1.45 1.85-2.65 4.3 1.7.55 2.65 2.55 2.1-.2 3.85.25 3.35.95 4.85 4.9.25.5.45 1.1 1.45 3.7 2.75 14.3.3 2.15.55 4.05 1.1 7 2.55 10.2 2.5 5.5 7.6 6.35-1.25-2.2-1.25-5.5 0-2.3 2.25-11 1.25-4.8 1.8-9.35.4-3.65.4-7.1 0-8.5-2.95-14.7z" fill="#6cc"/>
                <path d="m41.95 128.05q0-.2 0-.35-5.35 1.2-10.7 2.1-1.1-11.65-1.75-18.5-.25-2.5-.45-4.7-.3-2.85-.5-5.25-.65.1-1.25.2.1 2.25.3 5.05.2 2.55.4 5.5.95 12.75.95 16.75 0 .7-.05 1.35-4.75.7-8.85 1.2l-.35-12.65q0-4.9.75-12.25.15-1.6.35-3.25.05-.45.15-.95-1.05.1-2.05.25-.3 2.2-.4 3.85-.1 1.3-.1 2.25-.1 3.15-.4 8.3v5.3q0 2.25.05 4.45.05 3.05.1 4.85-4.7.45-8.5.45-1.45-.05-2.6-.1-3.95 3.7-6.8 6.45.5 1.9 1.05 4 4.3 17.1 4.3 32 0 9.2-1.15 19.9 1.55 1.1 3.35 2.45 1.9 1.4 3.65 2.7 6.25-1.85 22.65-3.35 3.95-.4 7.25-.6 1.85-8.7 5.8-22.4 1.8-6.25 3.35-11.2-1.45-4.95-4.4-14-2.1-6.35-3.35-10.35-.2-2.7-.8-9.45z" fill="#f36"/>
                <path d="m39.45 78.6q-1.05 1-3.65 4 3.05 5.4 7.2 9.45-.1.7-.15 1.4-.15 2.1-.45 6.55-.1 1-.2 2.15l-.05 10.85q0 2.55 1.15 14.4.5 4.75 1.15 11l7.3 22.75q-.35 1.35-.7 2.6-1.3 4.8-2.05 7.6-2.65 10.35-4.95 19.95h41.1q-2.75-9.3-4.4-14.4-2.3-7.3-4.55-13.9l-7.05 13.6 6.45-15.4q3.75-8.95 3.75-15.35 0-6-3.5-11.6-2.1-3.3-9.8-12.3-3.75-4.4-7-11.65-1.9-4.2-2.75-7.55 3.45-4.55 7.4-10.05 2.05-2.9 6.25-8.8 1.8-2.55 3.45-5.5-5.85.55-8.9.55-3.6 0-13.05-1.15-5.8-.7-10-1.45-1 1.15-1.45 1.7-.4.4-.55.55z" fill="#489191"/>
            </g>
        </g>
    </g>
    <g transform="translate(203.9 38.25)">
        <g>
            <g id="S_mbolo_2_0_Layer0_0_FILL">
                <path d="m127.05 304.45-1.55-3.25q-1 .3-2.25.9-.6.2-1 .35l7.7 14.55-5.55 1.8h8.25l-2.3-11.65 11.9 1.1zm-109.35 1.2 1.55-2.7q-2.1-.1-3.75-.25l-7 16.8-5.1 1.6h5.4l7.95-9.8 2.2 9.8zm69.7-108.6q-.9-2.4-1.85-4.7h-18.15l54.2 109.2q.4-.25.9-.5.75-.4 2.35-1.2-12.15-46.7-28.45-70.8-3.5-17.5-9-32m-23.65-4.7h-19.9l-28.05 109.35q.9.1 3.65.6 22.25-48.75 25.65-71.3 11.55-20 18.65-38.65m-45.95-85.95q.15-2.3.35-3.8-6.15.6-11.9.75-.45 0-.8.1-.8.1-1.45.4-1.75.9-2.35 2.75h-.05q-.65 2.1-.35 5.15l.2 3.7q.3 4.1-1.45 12.85 2.15-3.15 2.75-6.1.5-2.9.45-5.2-.1-2.7-.1-4.35.3.8.75 1.75.9 2.35 1.15 3.8v1.4q.0015625-.0515625.1-.15.15-.75.45-2.8.25-2.1-.75-5.05l-.65-2.3q-.25-.85-.3-1.35v-.1q.25-.65.45-.9.25-.45.95-.85.5-.3 1.3-.35.05 0 .1 0 5.5.4 11.15.65m3.25.1q2.95.05 5.9.1-.25-3.25-.35-4.95-2.55.35-5.05.65-.2 1.6-.5 4.2m20.25-.25q-.2-4.05.35-7.15-6.5 1.3-12.6 2.2.2 1.9.65 5.3 5.8-.05 11.6-.35m46.1-42.9q-1.2-3.2-2.3-6.1-1.85-4.8-4.25-4.65-2.05.1-5.15 2.1-2.05 1.35-8.4 6.85-7.25 6.15-13 8.15.05-4.5 1.3-13.05 2.85-17.4 12.45-32.7v-.05q3.6-6.95 1.9-10.2-.55-1.3-2-1.85-4.45-1.05-8.4-.6-1.1-.25-2.35-.45-5.65-1.2-10.35-1.5-1 .9-1.95 2.2-.9 1.2-1.65 3.1-.2.6-.35 1 .75.45 1.65.95.35-.75.9-1.75 1-1.75 1.3-2.05h.1q-.6 1.2-.95 3-.15.7-.15 1.3.6.25 1.3.55-.5.5-.95 1.1-1 1.15-1.95 2.55-.15.15-.2.35-.45 3.35-.45 4.15l-1.8 2q-.8.85-1.35 1.5-2.45 7.4-1.25 15.3 7.05.75 13.95-4.35l.05-.05v.05q-.85 3.65-1.85 8.7-2.35 11.25-4.25 18.05-1.1-2.4-2.05-3.95-3.25-4.1-5.2-.4-1.45 2.7-1.45 6.05 0 2.5.2 4.75 0 .1.05.2.05.95.15 1.55 0 .1.05.65 0 .4.05.65.05.35.1.7.5-.4.95-.7.1-.1.45-.3.45-.4.6-.5.35-.25.65-.5.05-.05.15-.1.3.1.7.25 1.95.6 2.8.8 3.75.75 5.35.95 3.2.4 10.4.8l6.95.1q2.15-.1 5.5-.4l.35-.55q.6-.95 1.15-1.85-.05.15-.1.3 1.4-2.25 2.4-4.05 2.4 2.95 4.6 6.1 3.05 4.4 5.6 9.1 1.15 2.1 2.2 4.25 3.3 6.65 9.95 24.25 2.95 7.85 7.15 18.9 4.1 10.95 5.15 13.05.05.15.15.3.45 1.9.95 4.25.15.9.4 2.2.2 1.2.4 2.25.05.2.1.45l.65 3.1q3.15 5 6.15 8.05-1.35-3.4-3.15-6.3 2.55 3.8 5.7 6.1l-.6-1.6 1.3 1.05q-.05-.25-.15-.5.05.05.1.15-2.75-5.85-4-12.3l-5.05-6.35q-.3-.3-.5-.55-.5-.55-.65-.75l-.6-1.75q-.75-2.55-1.9-6.35-13.9-48.5-23.75-75.15m9.4-41.6q0-8.5-2.95-14.7-2.55-5.35-6.45-6.6-1.25-.45-2.65-.45-6.65 0-11.1 3.85-1.4 1.25-2.65 2.85-1.45 1.85-2.65 4.3 1.7.55 2.65 2.55 2.1-.2 3.85.25 3.35.95 4.85 4.9.25.5.45 1.1 1.45 3.7 2.75 14.3.3 2.15.55 4.05 1.1 7 2.55 10.2.6 1.35 1.4 2.45 2.35 3.25 6.2 3.9-1.25-2.2-1.25-5.5 0-2.3 2.25-11 1.25-4.8 1.8-9.35.4-3.65.4-7.1z" fill="#fc0"/>
                <path d="m46.1 147.85q-2.1-6.35-3.35-10.35-.2-2.7-.8-9.45 0-.2 0-.35-5.35 1.2-10.7 2.1-1.1-11.65-1.75-18.5-.25-2.5-.45-4.7-.3-2.85-.5-5.25-.65.1-1.25.2.1 2.25.3 5.05.2 2.55.4 5.5.95 12.75.95 16.75 0 .7-.05 1.35-4.75.7-8.85 1.2l-.35-12.65q0-4.9.75-12.25.15-1.6.35-3.25.05-.45.15-.95-1.05.1-2.05.25-.3 2.2-.4 3.85-.1 1.3-.1 2.25-.1 3.15-.4 8.3v5.3q0 2.25.05 4.45.05 3.05.1 4.85-4.7.45-8.5.45-1.45-.05-2.6-.1-3.95 3.7-6.8 6.45.5 1.9 1.05 4 4.3 17.1 4.3 32 0 9.2-1.15 19.9 1.55 1.1 3.35 2.45 1.9 1.4 3.65 2.7 6.25-1.85 22.65-3.35 3.95-.4 7.25-.6 1.85-8.7 5.8-22.4 1.8-6.25 3.35-11.2-1.45-4.95-4.4-14z" fill="#f30"/>
                <path d="m39.45 78.6q-1.05 1-3.65 4 3.05 5.4 7.2 9.45-.1.7-.15 1.4-.15 2.1-.45 6.55-.1 1-.2 2.15l-.05 10.85q0 2.55 1.15 14.4.5 4.75 1.15 11l7.3 22.75q-.35 1.35-.7 2.6-1.3 4.8-2.05 7.6-2.65 10.35-4.95 19.95h41.1q-2.75-9.3-4.4-14.4-2.3-7.3-4.55-13.9l-7.05 13.6 6.45-15.4q3.75-8.95 3.75-15.35 0-6-3.5-11.6-2.1-3.3-9.8-12.3-3.75-4.4-7-11.65-1.9-4.2-2.75-7.55 3.45-4.55 7.4-10.05 2.05-2.9 6.25-8.8 1.8-2.55 3.45-5.5-5.85.55-8.9.55-3.6 0-13.05-1.15-5.8-.7-10-1.45-1 1.15-1.45 1.7-.4.4-.55.55z" fill="#f90"/>
            </g>
        </g>
    </g>
    <g transform="translate(378.25 38.25)">
        <g>
            <g id="S_mbolo_3_0_Layer0_0_FILL">
                <path d="m123.25 302.1q-.6.2-1 .35l7.7 14.55-5.55 1.8h8.25l-2.3-11.65 11.9 1.1-15.2-3.8-1.55-3.25q-1 .3-2.25.9m-105.55 3.55 1.55-2.7q-2.1-.1-3.75-.25l-7 16.8-5.1 1.6h5.4l7.95-9.8 2.2 9.8zm67.85-113.3h-18.15l54.2 109.2q.4-.25.9-.5.75-.4 2.35-1.2-12.15-46.7-28.45-70.8-4.1-20.35-10.85-36.7m-21.8 0h-19.9l-28.05 109.35q.9.1 3.65.6 22.25-48.75 25.65-71.3 11.55-20 18.65-38.65m-45.95-85.95q.15-2.3.35-3.8-6.15.6-11.9.75-.45 0-.8.1-.8.1-1.45.4-1.75.9-2.35 2.75h-.05q-.65 2.1-.35 5.15l.2 3.7q.3 4.1-1.45 12.85 2.15-3.15 2.75-6.1.5-2.9.45-5.2-.1-2.7-.1-4.35.3.8.75 1.75.9 2.35 1.15 3.8v1.4q.0015625-.0515625.1-.15.15-.75.45-2.8.25-2.1-.75-5.05l-.65-2.3q-.25-.85-.3-1.35v-.1q.25-.65.45-.9.25-.45.95-.85.5-.3 1.3-.35.05 0 .1 0 5.5.4 11.15.65m8.8-4.75q-2.55.35-5.05.65-.2 1.6-.5 4.2 2.95.05 5.9.1-.25-3.25-.35-4.95m14.7 4.6q-.2-4.05.35-7.15-6.5 1.3-12.6 2.2.2 1.9.65 5.3 5.8-.05 11.6-.35m40.5-28.75q4.4 6.4 7.8 13.35 3.3 6.65 9.95 24.25 2.95 7.85 7.15 18.9 4.1 10.95 5.15 13.05.05.15.15.3.45 1.9.95 4.25.15.9.4 2.2.2 1.2.4 2.25.05.2.1.45l.65 3.1q3.15 5 6.15 8.05-1.35-3.4-3.15-6.3 2.55 3.8 5.7 6.1l-.6-1.6 1.3 1.05q-.05-.25-.15-.5.05.05.1.15-2.75-5.85-4-12.3l-5.05-6.35q-.3-.3-.5-.55-.5-.55-.65-.75l-.6-1.75q-.75-2.55-1.9-6.35-15.55-54.3-26.05-81.25-1.85-4.8-4.25-4.65-2.05.1-5.15 2.1-2.05 1.35-8.4 6.85-7.25 6.15-13 8.15.05-4.5 1.3-13.05 2.85-17.4 12.45-32.7v-.05q3.6-6.95 1.9-10.2-.55-1.3-2-1.85-4.45-1.05-8.4-.6-1.1-.25-2.35-.45-5.65-1.2-10.35-1.5-1 .9-1.95 2.2-.9 1.2-1.65 3.1-.2.6-.35 1 .75.45 1.65.95.35-.75.9-1.75 1-1.75 1.3-2.05h.1q-.6 1.2-.95 3-.15.7-.15 1.3.6.25 1.3.55-.5.5-.95 1.1-1 1.15-1.95 2.55-.15.15-.2.35-.45 3.35-.45 4.15l-1.8 2q-.8.85-1.35 1.5-2.45 7.4-1.25 15.3 7.05.75 13.95-4.35l.05-.05v.05q-.85 3.65-1.85 8.7-2.35 11.25-4.25 18.05-1.1-2.4-2.05-3.95-3.25-4.1-5.2-.4-1.45 2.7-1.45 6.05 0 2.5.2 4.75 0 .1.05.2.05.95.15 1.55 0 .1.05.65 0 .4.05.65.05.35.1.7.5-.4.95-.7.1-.1.45-.3.45-.4.6-.5.35-.25.65-.5.05-.05.15-.1.3.1.7.25 1.95.6 2.8.8 3.75.75 5.35.95 3.2.4 10.4.8l6.95.1q2.15-.1 5.5-.4l.35-.55q.6-.95 1.15-1.85-.05.15-.1.3 1.4-2.25 2.4-4.05 2.4 2.95 4.6 6.1m15-55.75q0-8.5-2.95-14.7-3.4-7.05-9.1-7.05-6.65 0-11.1 3.85-1.4 1.25-2.65 2.85-1.45 1.85-2.65 4.3 1.7.55 2.65 2.55 2.1-.2 3.85.25 3.35.95 4.85 4.9.25.5.45 1.1 1.45 3.7 2.75 14.3.3 2.15.55 4.05 1.1 7 2.55 10.2 2.5 5.5 7.6 6.35-1.25-2.2-1.25-5.5 0-2.3 2.25-11 1.25-4.8 1.8-9.35.4-3.65.4-7.1z" fill="#f69"/>
                <path d="m42.75 137.5q-.2-2.7-.8-9.45 0-.2 0-.35-5.35 1.2-10.7 2.1-1.1-11.65-1.75-18.5-.25-2.5-.45-4.7-.3-2.85-.5-5.25-.65.1-1.25.2.1 2.25.3 5.05.2 2.55.4 5.5.95 12.75.95 16.75 0 .7-.05 1.35-4.75.7-8.85 1.2l-.35-12.65q0-4.9.75-12.25.15-1.6.35-3.25.05-.45.15-.95-1.05.1-2.05.25-.3 2.2-.4 3.85-.1 1.3-.1 2.25-.1 3.15-.4 8.3v5.3q0 2.25.05 4.45.05 3.05.1 4.85-4.7.45-8.5.45-1.45-.05-2.6-.1-3.95 3.7-6.8 6.45.5 1.9 1.05 4 4.3 17.1 4.3 32 0 9.2-1.15 19.9 1.55 1.1 3.35 2.45 1.9 1.4 3.65 2.7 6.25-1.85 22.65-3.35 3.95-.4 7.25-.6 1.85-8.7 5.8-22.4 1.8-6.25 3.35-11.2-1.45-4.95-4.4-14-2.1-6.35-3.35-10.35z" fill="#6cc"/>
                <path d="m39.45 78.6q-1.05 1-3.65 4 3.05 5.4 7.2 9.45-.1.7-.15 1.4-.15 2.1-.45 6.55-.1 1-.2 2.15l-.05 10.85q0 2.55 1.15 14.4.5 4.75 1.15 11l7.3 22.75q-.35 1.35-.7 2.6-1.3 4.8-2.05 7.6-2.65 10.35-4.95 19.95h41.1q-2.75-9.3-4.4-14.4-2.3-7.3-4.55-13.9l-7.05 13.6 6.45-15.4q3.75-8.95 3.75-15.35 0-6-3.5-11.6-2.1-3.3-9.8-12.3-3.75-4.4-7-11.65-1.9-4.2-2.75-7.55 3.45-4.55 7.4-10.05 2.05-2.9 6.25-8.8 1.8-2.55 3.45-5.5-5.85.55-8.9.55-3.6 0-13.05-1.15-5.8-.7-10-1.45-1 1.15-1.45 1.7-.4.4-.55.55z" fill="#c69"/>
            </g>
        </g>
    </g>
</svg>
