<svg height="400" preserveAspectRatio="none" viewBox="0 0 550 400" width="550" xmlns="http://www.w3.org/2000/svg">
    <g>
        <g id="Layer1_0_FILL">
            <path d="m301.6 149.7q1.3828125-.16171875 2.75-.35-.11425781-.56035156-.25-1.15-1.2515625.8046875-2.5 1.5m51.6 26.75q-4.95-9.55-10.5-16.1-12.75 2.15-25.25 4.35-2.4.4-8.75 1.2-.6-2-1-3.6 0-.2-.2-.4h.2q-1.49882812-5.05839844-2.8-10.25-3.34589844.653125-7.1 1.6-6.31289062 1.58515625-10 2.3-4.82636719 1.2-9.55 1.2-28.25 0-35.6-31.6-2.95-16.9-4.95-24.1-2.4-9.3-6.95-13.5-1.6 4.95-3.6 10.75-10.95-3.8-19.9-7.35-3.15-1.4-5.95-2.8-1 2.8-2.2 5.75-4.75 11.55-9.5 23.3.15 0 .55.2 1.8.75 3.6 1.35 25.05 7.95 39.35 20.9-19.25-11.35-40.75-17.3-6.35 16.1-12.3 44.55-4.6 21.65-7.2 40.55-16.7 33-26.8 72-7.75 28.8-10.35 55.45-14.7 28.05-42.95 98.85-12.35 31.4-23.85 56.05-4.2-8.75-23.1-17.9-1.75-.8-58.05-22.25-9.75-4.2-19.3-9.55-1.35 2.4-3.35 4.95-6.55 8.75-12.35 17.3 22.1 20.1 34.4 29.45 43.35 33.2 49.1 36.95 4.8 3.2 9.55 6l.4.2q6.4 3.95 18.7 10.3 49.5-30.2 87.9-66.2 21.25-19.65 42.55-42.35 10.55-11.15 17.9-20.05-56.9-4.6-63.85-57.9 8.55 52.1 67.4 53.7 10.95.4 37.4 1 26.45.6 46.9-1.4 20.5-2 53.9-6.95 17.5-1.2 26.45-4-2.2 9.95-2.2 34.2 0 30.45 44.55 90.5 5.55 7.55 12.55 16.5 10.7-5.4 22.05-10.55 2.6-1.2 5.15-2.2-13.5-30.8-22.85-50.3-26.45-56.45-45.75-107.35-49.5-24.65-80.9-33-27.65-7.55-88.3-14.35 6-18.85 6-26.05 0-3.15-1.2-15.3 0-.8-.2-1.6 8.35-5.15 18.5-11.3 29.8-18.5 41.55-28.45 2.95 1.8 5.95 3.6 2.4 1.35 4.75 2.55 8.55-7.35 13.35-12.3 1.6-1.6 3.2-3.4 9.7-12.9 15.1-28.45-4.8 19.5-13.55 31.05 2.6 3.75 5.6 7.95 7.35 10.55 22.25 30.8 6.95 9.95 21.5 31.85 4.95 7.15 11.9 15.9 19.7-2.4 46.15-7.35 26.25-5.2 44.95-9.35 7.15-1.8 12.7-3-.4-2-.4-4.2.2-9.9.6-18.25-1.4-.2-2.8-.4-8.15-.6-26.25-1.8-18.25-1.2-34.8-.2-16.7.8-32.8 5.55-12.3-51.3-18.85-68.4-13.15-32.6-15.75-37.55m-8.75-18.7q1.32167969-1.54199219 3.05-3.3-17.77265625-4.05-30.55-4.05-4.00097656 0-8.9.75 1.01035156 4.18632813 2 8.4.2 1.15.6 2.35 16.7-.6 33.8-4.15m70.2-86.7q-5.15-7.15-9.35-12.75-35.4-7.95-52.5 4.8-13.7 10.15-13.7 25.45 0 3.4.2 5.95-6.95.4-17.3 2.6-14.9 3.75-22.65 5.55 2.35 20.3 6.95 40.6 7.95-5.8 19.7-17.9 13.3-13.75 20.65-18.1 11.41054688-6.68261719 24.25-5.2.13613281-1.23613281 1.05-2.15 1.05-1.05 2.55-1.05 1.5 0 2.55 1.05 1.05 1.05 1.05 2.55 0 1.5-1.05 2.55-1.05 1.05-2.55 1.05-1.5 0-2.55-1.05-.53828125-.53828125-.8-1.2-2.16757812.29179688-5.6.65-15.7 3-27.45 12.35-3.55 2.75-14.5 14.7-5.75 6.75-14.15 12.9-1.15 1-2.55 2 .32304688 1.32265625.65 2.65 14.79589844-1.33164062 31 .9 5.8140625.80429688 11.5 2 .29238281-.26269531.6-.55 5.55-5.6 14.1-11.95 4.4 4.35 10.15 9.95 18.1 17.1 37.75 22.25 6.6-18.5 11.75-38.35 2-2 6.95-7.35-.6-1-1-2-5.95-12.75-9.35-20.7.2-.8.6-1.6 1.4-3.15 5.2-12.1-1.6-3.6-12.15-18.5m-177.55 1q-1-.4-1.8-.6-.2 0-.2.2-1 3.95-1.8 7.15-.8 3.2-1.95 6.75 6.75 1.8 9.55 11.55 1.55 5.55 2.15 19.5 0 12.5 5.2 22.85 7.55 14.7 23.05 14.7 17.7 0 32.2-9.15-4.35-19.45-6.55-39.35-.4-2.8-.2-5.15-11.55-9.35-35.8-19.5-11.7-4.8-23.85-8.95m-295.3 351.35q2-.6 4-.6 1.6-35-15.9-53.1-33 30.6-87.7 59.65 1.2 11.55 17.9 9.35 16.5-2.4 26.65-4.95 9.95-3 18.5-3.2 8.15-.2 19.3 6.95h.15q1.2.8 2.4 1.8.2-1 .6-2.2 1.8-5.95 6.55-9.75 3.4-2.75 7.55-3.95m4.4 2.35q-6.15-.2-11.55 4.8-4.55 4.15-5.55 10.15 5.15 4.15 9.55 8.35 8.35 8.15 12.1 11.5 1.2-2.55 3-5.15 5.95-8.75 11.95-16.9-9.95-5.75-19.5-12.75m492.1 119.15q2.8 3.75 6 7.75 6.55 8.55 14.1 17.9.2.35.6.75 0 .2.2.6 4.75-1.35 9.55-3.75 5.55-3 8.15-8.15-.2 0-.2-.2-1-2.2-1.8-4.4-5.15-11.9-9.95-22.65-10.15 5.15-20.65 10.15-3.2 1.6-6 2m74.6 13.9q-6.6 3.4-14.35 3.75-7.55.4-19.85-1.15-1 1.75-2.4 3.55-6.75 8.15-16.7 9.55 6.95 37.6 29.8 51.1 12.95-13.3 33.25-35.6 20.25-22.25 36.55-43.35-8.75-8.35-15.7-5.75-7.15 2.4-15.5 8.55-8.35 5.95-15.1 9.35m-496.5-412q-3-5.75-5.8-11.75-.75-1.35-1.15-2.75-13.95 2.4-25.25 5.35-3.6 1-10.95 3.8 2.2 13.3 3.95 24.25 1.8 8.75 4.4 17.7 13.3-2.8 21.65-5.4 11.75-15.9 10.55-19.25-1.8-5.6-3-9.15 2.8-1.4 5.6-2.8m11.5-5.95q-3.95-6.35-7.75-13.15-1.4-2.35-2.15-4.55-3.8 4.15-6.6 7.35 4 7.35 8.15 14.7 4.2-2.35 8.35-4.35m126.9-92.65q-13.55-4.6-23.9-9.75-8.35-4.6-20.25-11.35-29.05 27.85-58.85 59.45-20.5 21.7-32.05 34.6 5.2 8.75 10.95 18.1 72-39.15 81.15-67.2 4.35 3.95 10.1 9.15 13.15 11.1 26.65 18.7 1-2.6 2.2-5.2 6.15-11.9 12.15-23.85-2-.8-4-1.8-1.8-1-8.15-3.55 3.2-9.35 5.75-16.5-1-.4-1.75-.8m43.5 38.55q-13.9-6.35-16.3-7.35-8.55-3.6-16.5-7.15-1 2.4-2.35 4.75-6.2 12.15-11.75 24.25.6.4 1.4.8 5.95 3 34.2 14.15 5.35-12.75 9.95-25.85.6-1.8 1.35-3.6m296.5 196.65q0-1.6.2-3.2-4.6-.55-9.15-.95 1.6 8.95 1.2 19.05 0 1.4 0 2.6 4.95-1.2 7.95-2.2-.4-7.35-.2-15.3m2.6-4.15q.95 8.15.75 17.3 0 1.35-.2 2.75 4 1.8 8.15 2.8 4.8 1.2 25.5.6 2.55-15.1 4.15-23.45v-.2q-1-3.6-3.8-8.55-2.15-3.8-3.15-3.4-8.15-1.4-13.35-5.75-5.15-4.4-13.1 2.95-3.2 7-4.95 14.95z"/>
            <path d="m350.05 151.95q-5.6859375-1.19570312-11.5-2-16.20410156-2.23164062-31-.9-1.59609375.14335938-3.2.3-1.3671875.18828125-2.75.35-11.16523437 1.61464844-21.5 5.3.2.1 1.15.65 1.05.45 2.35.45 1.26484375 0 4.2-.55 3.68710938-.71484375 10-2.3 3.75410156-.946875 7.1-1.6 1.63085937-.27695312 3.15-.5 4.89902344-.75 8.9-.75 12.77734375 0 30.55 4.05 8.33710938 1.87871094 17.75 4.65 12.9 3.8 29.75 10.1-21.32402344-12.17363281-44.95-17.25z" fill="#fff"/>
        </g>
    </g>
    <g>
        <g id="Layer0_0_FILL">
            <path d="m194.55 42.2q-13.15-4.95-28.65-9.95-3.35 7.6-11.7 32.25 5.95 2.55 7.55 3.35 1 .4 2.2 1 10.5 5 19.25 8.75 2.4 1 18.7 8.35 2.2 1 4.8 2.2 8.35 3.4 18.45 6.95 3.6-10.15 5.8-18.1 1.95-7.35 4.55-18.9-9.95-4.55-14.7-6.55-16.5-6.55-26.25-9.35m-25.05-1.4q8.95 3.2 22.45 7.4.4 0 22.9 8.55 7.95 2.95 13.1 4.75-.6 2.2-1.2 4.95 0 .2-3.95 18.3-.4 1.6-.6 3.2-7.95-4.2-18.5-8.75-10.95-4.95-22.65-9.75-7-2.8-14.55-5.75-3.15-1.4-5.95-2.4 3.55-7.35 8.95-20.5z"/>
            <path d="m191.95 48.2q-13.5-4.2-22.45-7.4-5.4 13.15-8.95 20.5 2.8 1 5.95 2.4 7.55 2.95 14.55 5.75 11.7 4.8 22.65 9.75 10.55 4.55 18.5 8.75.2-1.6.6-3.2 3.95-18.1 3.95-18.3.6-2.75 1.2-4.95-5.15-1.8-13.1-4.75-22.5-8.55-22.9-8.55z" fill="#f33"/>
        </g>
    </g>
</svg>
