<svg height="400" preserveAspectRatio="none" viewBox="0 0 550 400" width="550" xmlns="http://www.w3.org/2000/svg">
    <g>
        <g id="Layer0_0_FILL">
            <path d="m325.6 121.25q-.6-.5-1.3-.7-1.75-.65-3.05.4-.7.6-.95 1.2-.3-.1-1.1-.15-.7-.05-1.25.2-1.05.35-1.7 1.55-1.1 1.8-.85 3.85.2 2 1.15 4.3.9 2.25 2 3.65.9 1.1 1.4 1.8-.65 1.05-.95 2.25-.3 1.2-.3 3.25 0 .2 0 .45-1.65-.85-4.2-.55-.2-.4-.55-.95-1.55-2.65-2.15-4.5l-2.3-7.35q-3.05-9.75-4.5-14.65-2.6-8.7-5.4-14.7-.65-1.5-1.25-2.9-1.1-2.5-2.2-4.65-2.65 1.65-3.75 2.35-.05 0-.1.05-6 4.15-8.45 5.7-4 2.7-7.75 5.4-.5.35-1 .75-.65-2.15-.95-2.85-.15-.6-.25-1.1.3-.15.65-.4.6-.3 1.25-.8.35-.25 1.4-.75.5-.3.6-.4.15-.15.15-.5l-.1-.7q2-.9 3.1-1.15 4.7-1.1 6.3-1.9 1.65-.8 1.65-2.15 0-.65-.65-1.15-.8-.65-2.6-.85l-5.8-.1q-1.05-.25-1.95-.8.2-2.05 3.35-5 .8-.7 6.05-4.9 1.35-1.1 3.55-2.5 1.03203125-.67480469 1.8-1.2 1.8-1.3 3.65-2.5 7.45-4.95 12.45-12.25 5-7.25 2.3-15.5-2.6-7.9-10.5-7.95-8.3-.1-15.45 4.45-.55546875.42011719-1.1.85-2.45 1.9-4.65 4.55-1.2 1.5-3.35 4.6-2.15 3.15-4.35 9.15-.95 2.7-1.45 4.5-.7 2.25-1.2 3-1.05 1.45-3.2 1.45-1.75 0-4.55-1.55-2.8-1.55-3.8-1.55-4.5 0-6.65 7.75-.55 2.05-1.2 5.35-.25 0-.4.15l-.3.3q-.35.15-.8.6-.85.55-1.1.7-.35.25-.35.6 0 .2.05.3-.15.05-.3.05-3.55-.45-4.05-.45-2.2 0-4.4 1.45-1.35.85-1.75 1.55-1.65-1.1-3.85-1.7 3.3-4.55 3.3-9 0-2.85-1.8-5.65-1.95-3-5-4.15-5.8-2.2-12.2 3.35-5.2-3.45-12.4-1.75-7.7 1.85-12.8 8.6-5.3 7-5.8 17.05-2.85-3.6-4.05-1.95-.85 1.25-.85 6.1l1.5 8.85q.65 2.6 1.4 4.4-.4 1.05-.7 2.1-1.15.7-2.2 1.5-.9.55-1.6 1.7-.65 1.1-.65 1.85 0 .5.25 1.05.45.95 1.4.95.55-.2 1.05-.4-.75 4.05-.8 8-4.55 3.05-7.9 7.45-5 6.65-5 13.05 0 .15.05 2.35.05.6.2 1.2.05 1.2 1.25 3.65 1.6 3.35 10.8 4.8 2.9.4 7.65-.5 7.1-1.8 16.5-8l.05-.05q3.3-2.6 5.8-5.15.2-.2.4-.4 1.65 1.15 2.8 2.05 1.85 1.4 2.4 2.2.55.7 3.3 4.8.45.65.9 1.2-1.25 1-2.5 2.2-.2.1-.35.25-5.25 4.9-7.85 7.2-5.15 4.6-7.7 6.95-4.5 4.05-7.3 7.1-8.55 8.45-13 13.5-8.05 9.2-8.05 14.45 0 1.9 1.05 2.45.85.45 2.6.75 3 .5 8.65.5 6.05 0 14.75-.75.2 0 .35 0 1.6 4.1 4.05 6.25.65.75 1.5 1.15.45.25 1 .45 6.35 1.4 11.2-4.5.85-1.7.85-3.15 0-1.5-.8-2.95-.3-.55-1.4-1.05 1.05-.4 1.3-.65 1.4-1.35 1.4-2.95 0-.75-.1-1.4-.15-1.05-.55-1.95-1.05-2.35-3.45-2.8.45-1.05.8-2.55 0-.1 0-.2-.15-5.65-9.75-3.6-2.1.45-4.7 1.85-2.9 1.6-3.55 5.2-.05.75 0 1.45 0 .05.15 1.7l.05.5q-.4 0-.75.05-3.45.25-5.7.5 4.35-5 6.25-6.95 7.35-7.9 10.05-10.9 3.25-3.6 10.7-10.85 1.7-1.7 6.45-6.05 1-.95 1.75-1.75 13.35 6 24.05 14.45 12.05 9.5 16.8 18.95 3.4 6.75 4.6 9.45 2.4 5.3 3.4 9.45.3 1.3.95 5.05.3 2.1.55 3.45.05.45.15.95.15 1.05.3 2-.45 0-.95 0v.05q-12.15.7-15.35.95l-7 .15q-.95 0-1.75.1h-14.2q-9.3.05-17.25-.35-6.45-.35-7.8-.7-3.4-.45-5.7-.7-.9-.15-1.65-.2-.5-.05-2.5-.15-.9 2-1.85 4.15-2.55 5.65-5.65 12.7-6.5 14.7-9.75 24.35-1.15 3.5-4.25 11.85v.05q-.9 2.3-1.15 3.05v.05q-4.35 11.45-6.75 16.75-.05-.25-.1-.5-.5-3.2-.7-4.6-.65-3.75-1.2-6.2 1.65-1.3 2.35-1.9 1.15-1.05 1.15-1.8 0-1.85-2.3-1-1.15.45-2.15 1.2-.8-2.1-1.8-3.9.65-.85 1.15-1.5 1.35-1.75 1.35-2.45 0-.95-.65-1.35-.85-.55-2.5.85-.7.55-1.35 1.45-.85-1.1-1.85-2.1-.9-.9-1.85-1.65 1.45-2.1 1.45-2.85 0-1.05-.9-1.4-1.1-.4-2.6 1.05-.45.4-.95 1.3-1-.55-2.05-.95-1.25-.5-4.55-1.4-.1-.05-.35-.1l-1.8-1q-1.95-.65-3.45-.65-2.95 0-5 2.6-2.15 2.7-2.4 5.95-.25 3.25.4 7 20.6 6.35 27.2 40.6 2.55-1.6 4.9-4.4v-.05q.05-.1.15-.2 1.4-1.5 2.75-4.75 1.4-3.3 1.4-5.2 0-.45 0-.8 2.65-5.65 7.3-13.65 1.45-2.5 4.15-6.95.85-1.4 3.15-5.1 2.5-4.05 4.9-7.6 7.3-10.5 8.6-22.05.2-2.1.8-10.85.35-5.05.65-6.95 4.15 1.3 12.35 5 13.55 6.15 24.05 10 7.95 2.9 13.6 4.65 15.65 5.25 30.85 3.6 1.35 3.15 3.4 7.4 1.85 3.9 4.3 8.65 7.9 15.45 10.55 19.65 4.95 7.7 15 21.9 2.5 3.55 8.35 9.8 2.65-3.85 4.6-6.65 4.15-6.15 5.05-7.5 7.05-10.7 10.5-18.45 1.55-3.5 4.6-9.3 1-1.9 3.05-5.85.45-.9 2-3.9 3.75-7.15 8.05-12.1.7 0 1.6-.25.95-.2 1.4-.55.15-.15.3-.25h.05l3.8.4q1.05 0 5.6-.7 1.45 4.35 3.25 4.35.9 0 1.4-.7.35-.5.35-1.05 0-.5-1.4-3.4 3.2-.4 5.9-1.6 1.3-.6 2.55-1.4 1.5.95 3.3.95 1.4 0 2.15-.7.6-.6.6-1.35 0-.95-1.05-1.15-1.1-.05-1.85-.25 2.7-2.55 4.95-6.15 1.05.25 2.15.25 2 0 2.95-.65.65-.45.65-1.15 0-1.25-2.5-1.45-.8-.05-1.45-.15 1.6-3.05 2.35-5 .15-.35.85-2.85.4-1.85.45-3.7.05-.25.1-.45.15-.9.15-2.7 0-2.65-.95-5.3-1.35-3.65-3.8-4.5-2.6-1.15-4.9-.65-1.7.35-4 1.9-2.95 1.95-5.45 4.9-1.15 1.35-3.9 4.85-2.55 3.2-4.1 4.9-3.4 3.6-5.3 4.95-4.75 3.4-10.1 3.4-.9 0-2.85-.35-.75-.15-3.4-1.45-.05-.05-.1-.1.1.35-.1 1.35-.25 1.25-.25 3.25 0 2.6.75 6.35.2 1.25 1.05 3.25.85 1.85 1.65 2.65-1.55 2-3.6 4.1-1.45 1.45-3.15 3.3-.05 0-1.25 1.3-1.3 1.2-1.65 1.6-.4.4-3.25 3.65-2.9 3.2-4.1 4.6-7.5 8.6-10.75 14.4-4.15 7.3-4.15 14.1 0 .1 0 .2-2.75-3.15-6.8-11.3-5.95-12-8.25-20.65-.55-2.25-3.8-15.8-.15-.75-.35-1.5-1.25-5.3-2.4-9.55.3-.8.45-1.65.65-3.3.85-6.65.3-4.65-.3-9.45l-.35-3.8q-.2-1.4-.35-2.55l-.35-2.1q-.15-1-.3-1.75-.9-4.55-2.8-10.25-.8-2.4-1.8-5-1-2.45-3.35-7.35-.95-1.9-2-3.8-4.35-7.8-8.25-13.2-5.35-7.4-11.7-13.05-9.55-8.5-17.2-13.5-6-3.95-11.85-6.6 1.55-1.7 3.4-3.85.35-.45.75-.9 5.05-6.05 12.9-15.9 10.1-10.85 25.35-22.8.35.8.85 1.85 1.25 2.7 2.9 6.05.55 1.25 2.5 6.2 1.6 3.9 2.65 6.15 3.7 7.9 6.1 12.25 1.05 1.9 3.95 7.55.65 1.15 1.25 2.05.05.1.15.15.1.2.25.4.85 1.15 1.7 1.8.4.3 2.1 1.95 2 1.45 4.8 1.45 4.7 0 8.9-4.5 4.65-5 4.65-12.05 0-.9-.05-1.75-2.35-11.5-7.4-15.95m-.5 19.6q.15-.25.6-.55.45.8 1.3 1.7.8.85.3-.3-.5-1.15-.75-3.25-.3-2.15-2.25-6.7-1.2-2.75-1.65-4.4-1.1-3.65.6-4.5.15-.05.25-.1 2.25-.55 5.55 11.05 1.2 3.7 1.2 5.7 0 4.15-1.75 7.15-1.5 2.25-2.8 3.55-1.45 1.4-2.45 1.95-1.95 1.05-4.7 1.05-1.85 0-4.9-2.6-.25-.55-.55-1.2.65-.6 1.15-1.9.2-.55.4-1.1.05-.25.1-.45.2-.85.2-1.5.05.05.15.1.1.05 1.85.55.25.15 1.1.9 1 .75 1.85.75 1 0 1.55-.7.35-.35.65-1 .5-.8 1.35-2.1.3-.7 1.65-2.1m-.55-2.7q.1.25.2.5-.45.3-1 .85-.2.2-.45.45-.2-.35-.45-.9-.5-1.05-1-1.95-.15-.25-.25-.45-.5-.9-.95-1.65-1.1-1.8-1.8-2.95-.7-1.15-1.45-3.45-.8-2.3.15-3.75.1-.2.25-.3.9-1 2.2-.1l-.15 1.1q0 2.35 2.7 7.75.7 1.4 2 4.85m73.9 88.05q4.25 0 4.9 6.55.15 1.6.3 4.45.05.5.15.9v.05q-.25.7-.6 1.8-.55-.25-1.15-.5-2.1-.9-2.95-1.55-2.65-1.75-5.8-4.15-1.75 1.95-1.8 2-1.2 1.5-5.95 6.25-4.25 4.15-8.35 6.65-6.25 3.85-12.1 3.85-1.6 0-4.4-1.15-.65-.25-1.2-.5 0-.75.1-1.55.35.15.75.25 2.6.85 5.6.85 3.5 0 7.5-2.25 5.15-2.95 10.3-9.25 3.7-4.6 5.6-6.65.05 0 3.15-3.05 3.6-3 5.95-3m-11.4 17.55q3.2-2.9 6.25-6.4.25-.35.65-.8 1.4 1.15 3.35 2.65 1.5 1.15 2.45 1.7 1.25.7 2.75 1.3-.8 2.3-1.7 4-.5.9-.95 1.7-.6-.2-1-.5-2-1.3-3.3-2-2.45-1.4-2.45.35 0 .6 1.3 1.85.7.65 1.8 1.7.7.8 1.85 1.45-2.2 3.3-4.25 5.25-.3.3-.6.6-.65-.55-1.25-1.25l-2.8-2.4q-.85-1.4-1.7-1.2-.75.2-.75 1 0 1.55 2.9 4.65.25.3 1 1.15-3.45 2.1-7.5 2.6-.65-1.65-.8-2.5-.15-.95-.15-2-.05-.65-.35-1.1-.45-.6-1.25-.35-.5.1-.9 1.8-.3 1.35-.3 2.25 0 .7.35 2l.15.6q-.3.05-.6.1l-2.25.3q-.5.1-2.2.2-1.65.1-1.65.05h.4q-.95-.1-1.65-.05-.05-.55-.25-1-.25-.45-.85-1.25-.4-.5-1.8-1-.05-.05-.1-.05-1.3-.5-2.05-.5-1.3 0-2 .2-.05 0-.9.35-.75.25-1.1.6-.25.15-.45.35-.25.2-.95 1.35 0 .05-.05.05-.2-.4-.4-1.1-.6-1.55-.9-2.85-.6-4.45-.65-5.5.35.2.7.45 2.95 1.75 6.4 1.75 1.65 0 5.45-1.2 1.25-.35 2.3-.75 2.8-1.05 4.45-2.25 6.35-4.6 8.3-6.35m-31.75 32.35q.05.1.15.25.9 1.1 1.7 2.05-.45.8-.9 1.6-1.3-1.4-2.05-2.25-.05-.05-.1-.15-.6-.7-1.4-1.7.7-.75 1.35-1.45.15.25.3.45.45.6.95 1.2m-10.75 8.2q1.05-1.15 6.65-6.85.45.7.95 1.3.25.35.5.65 1.65 2 2.3 2.85-4.35 7.65-6.85 13.55-1.6 3.7-4.75 9.25-3.75 6.4-5.5 9.35-.4.65-4.5 7.05-.3.4-.6.9-.75 1.15-1.65 2.5-.2.3-.4.65-5.05-5.3-6.35-6.85-8.45-9.8-16.5-23.85-8.1-14.05-11.3-21.35-1.1-2.4-2-4.55-1.85-4.35-3.1-7.55 1.2.05 4-.55 2.45-.75 4.6-1.8 1-.5 1.85-1 2.2-1.25 3.6-3 .45 3.1 1.2 6.55.2.85.65 2.7 1.1 4.5 3.8 14.9 2.15 8.3 6.8 17.7 3.5 7 5.5 10.1 3.25 5.1 5.85 6.65.4.8 1.4 2.35l.15-.3q-.3-.45-.4-3.55.2-7.4 2.95-13 2.95-5.95 11.15-14.8m-97.15-197.95q.05.1.15.25.4.6.8.8.05.15.3.25-.4 2.05-.75 4.35-.4 1.95-1.15 5.9-.75 3.45-1.75 5.8-1.25 4.15-2.7 6.65-1 1.75-2.25 2.9-.4-.9-.9-1.75-1.4-2.55-3.15-4.15.7-.7 1.35-1.5 3.65-4.45 3.65-7.95 0-6.25-3.85-9.5.35-.4.9-1 1.8-1.5 4.25-1.5.1 0 4.15.55.5 0 .95-.1m45.65 10.1q.15-.1.3-.2.8-.45 1.55-.9.7 1.55 1.65 3.45.6 1.25 1.3 2.65 2.8 5.85 5.4 14.55 3.5 11.35 4.6 14.55.65 1.9 2.85 7.35.3.8.6 1.5-.15 0-.3.1-.2.1-.35.2-.15.15-.2.35-.35.3-1.6 2-.05.05-.05.1-.85-1.35-1.35-2.25-4.3-8.5-6.3-12.45-5.9-12.7-9.85-20.6 2.4-1.9 4.95-3.8.35-.3.7-.55-.4.1-.8.3-2.35.85-5.45 2.8-4.95 3.15-10 7.15-3.9 3.1-7.35 6.2-.3-.85-.6-1.45 2.8-2.35 3.85-3.6-.15-.9-.3-1.7-.3-1.7-.6-2.95.85-.65 1.75-1.35 5.95-4.5 7.75-5.7 1.4-.9 3.95-2.95 2.2-1.75 3.9-2.8m-88.3 8.35q1.3 2.25 1.3 4.9 0 .35-.4 2.05l-.3.65q-.15.1-.3.2-1.05.75-2.45 2.25-2.6 2.7-2.6 4.8 0 1.4.9 2.1l.1.1q-.4.4-.6.75-1.35 1.65-1.35 3.3 0 2.85 2.05 2.85.55 0 1.85-.55l1.1-.8q1.85-2.15 1.9-2.25 0-.1.75-3 .7-2.9 1.8-4.85 2-3.55 5.15-4.6 1.3-.45 2.85-.45.65 0 1.2.55-.4.65-.8 1.4-.15.3-.35.65-.4.7-.95 1.65-.85 1.3-2.05 3.1-.1.15-.2.35-.55-.35-1.4-.45-2.45-.35-2.45 2.3 0 .95.25 1.6.5 1.35 2.2 1.35.65 0 1.15-.2.25-.1.45-.25.6-.5.8-1.45.05-.45.05-1 0-.5-.15-.9.65-.9 1.35-2.05.95-1.55 1.9-3.45.4-.8.85-1.55.45 1.1.65 3 0 3.3-2.9 7.75-.3.5-.65.95v.05q-.9 1.15-1.95 1.65-3.65 3-5.4 3.2.05.05.5.3.25.2.65.2 1.85 0 3.5-.55.85 2.6 1.45 4.2.55 1.55 3.1 5.9.35.6.75 1.2 2.3 3.35 5.65 5 3.9 1.9 4.7 3.3.8 1.3 1.2 2.8.15.45.25 1 .15 1.05.15 2.25 0 1.2-.7 2.25-1 1.45-2.25 1.9-.05 0-.15.05-1.2.3-2.35-.4-.3-.15-.55-.3-.9-.65-1.5-1.3l-1.85-2.5q-1.35-1.85-3.6-5.05-1.1-1.55-2.8-3-1.8-1.6-4.35-3.05-2.3 1.95-5.35 4.4.1-.5.2-1 3.4-20.2-20.1-9.95-6.15 2.7-9.75 6.3-4.5 4.45-5.35 5.6-.05-.45-.05-.95 0-6.1 4.7-12.2 2.35-3.1 7.3-7.4v-.05q.75-4.95 2.1-9.95 4.75-2.45 4.75-5.5 0-.7-.05-.85-.3-.75-1.45-.75-.45 0-1 .15.05-.25.15-.45v-.05q.1-1.2.6-2.65.55-1.45 1.45-3.15.85-1.25 1.7-2.05 1.1-1.2 2.15-1.65 1.8-.8 2.85-.95 1.05-.2 2.05-.4 1-.2 3.1 0 2.9.25 4.85 3.6m-24.45 41.25q-.2.05-5.1 1-.75.15-1.3.3.25-.25.55-.5 7.85-7.15 17.25-9.55 3.6-.8 6.05-.35.15 1 .65 3.1 0 .3.05.6zm16.25-3.3q1.5-.4 2.1-.6.6-.25 2.15-.9v-.05q-.8-1.65-1.05-2.35-.2-.85-.35-1.4 4.6 2.05 3.1 10.8-1.85-.75-5.15-.45-6.6.8-9.35 5.2-1.65 2.55-1.85 6.1-2.65.65-5 .65-7.7 0-10.4-4.65-.6-1.1-.9-2.55.6-1.55 2.9-4 .2.05.9.05 1.6 0 13.45-3l7.2-2.2q.75-.25 2.25-.65m4.8 7.05q.45 0 .85 0-.1.6-.25 1.25-.3.15-.55.35-7.65 5.45-13.95 7.35.2-2.65 1.3-4.65 2.8-5.15 10.5-5.15.3 0 .55 0-2.05.55-3.8 1.85-2.45 1.8-2.45 3.15 0 .25.05.2 2.2-2 2.7-2.4 2.7-1.95 5.05-1.95m-16.9 45.1q4.1-4.7 13.05-13.8 2.3-2.45 14.8-14.05 3.35-3.1 5.95-5.75 1.35-1.4 2.5-2.7l.05.05q.2.2.4.4.3.45.7.9.4.45.85.85 1.9 1.65 4.15 1.65 1.4 0 2.5-.5 1.35-.65 2.25-2.1 1.1-1.85 1.1-4.1 0-1.7-1-3.8-.05-.2-.15-.35-1-1.85-1.05-1.9-.2-.3-.35-.5-.25-.3-.45-.5 4.05-3.8 11.2-10.95.8-.8 7.75-7.2.4 1.3 1.1 3.15v.05q.05 0 .1.05.05.05.4.3.2.1.65.45.1.05.2.15.1.05.3.2 2.8-1.95 5.5-4.2.25.25.65.65.05.05 1.15 1.25.5.5.85.8-1.25 1.45-2.6 3.2-3.65 4.65-5.55 7-1 1.25-3.3 3.65-1.2 1.25-3.6 3.75-2.15 2.1-3.65 3.75-.8.9-1.45 1.65-.6.75-1.05 1.3l.6.05q.2 0 .45-.05 1.35-.25 3.5-1.9 1.7-1.35 3.95-3.65 6.8 3.55 12.95 7.9 7.45 5.25 16.5 13.65 6.2 5.75 11.5 13.55 3.7 5.45 8 13.6.4.75.8 1.5-.95.5-2 1.15-.35.2-.7.45-5.25 3.35-9.65 8.2-3.3 3.55-4.5 6.4-.1.15-1.2 2.2-.8-4.25-1.05-5.45-1.1-4.2-3.7-9.2-1.85-3.65-5.35-9.25-5.85-9.4-17.05-18.45-6.65-4.9-15.55-9.5-4.45-2.3-9.5-4.15-3.7-1.15-5.6-.65 2.1.85 4.2 1.7-.6.45-1.25 1-2.4 2-5.4 5-8.25 8.7-12.05 12.45-4.45 4.45-9.95 10.6-5.2 5.7-7.2 8.65-.6.05-1 .1-1.6.2-3 .65-.65.2-1.2.4l.15.15q1.1.15 3.75.15.15 0 .35 0 4.6-.1 9.25-.3.45 0 1 0 .1.75.25 1.5 0 .15.05.25.25 1.3.55 2.55l.05.05q-8.55.6-14.1.6-5.55 0-6.35-.05-.75-.05-1.35-.1-1.3-.2-1.7-.6 1.55-5.85 8.6-13.95m18.9-.35q.6-.3 1.9-.65 2.75-.65 5.05-.65 2.35 0 3.35 1 .6.55.6 1.25 0 .1 0 .2-.1.95-1.1 2.4-.05.05-.1.15-2.55.15-5.15 1.5-1.5.75-2.15 1.2-.5.35-.5.5 0 .3.35.25.35-.05 2.55-.95 1.9-.8 6.1-.8 1.95.3 2.5 1.15.3.4.45 1.3.1.8.1 2-.05 2.5-5 3.25-1.05.15-1.85.3-1.3.2-2 .35-.95.15-.8.2.3.05 2.6.2.25 0 .45.05 1.85.05 2.45.15.6.1.85.1.2 0 1.45.5 1.2.45 1.15 2.45-.05 1.95-2.2 3.25-1.95 1.05-2.5 1.3-.15.05-.3.15-5.35 1.65-7.55-1.8-.95-1.3-1.75-3.2-.5-1.25-.95-2.8-.3-1-.55-2.15-.05-.15-.05-.25-.05-.3-.1-.6-.15-.65-.2-1.3-.15-.8-.2-1.6l-.2-1.75q0-.05 0-.1-.05-.5-.1-1.6.2-3.2 3.4-4.95m108.8-52.4q.1-.15.25-.3l.05-.05q.65 1.15 1.2 1.7-.1.2-.15.4-.05.1-.05.2-.35 1.45-.4 1.6-.55 1.35-.65 1.5-.15.2-.3.4-.2-.4-.45-.8-.85-1.3-1.5-2.4.6-.55 1.3-1.45.2-.25.7-.8m8.95-2.9q0 .05.05.15.55 1.05.8 1.45-.35.2-.9 1.25-.35.65-.65 1.1 0-.65.1-1.3.2-1.7.4-2.3.1-.2.2-.35m-53.95-37.4q1.25-.85 1.95-1.5.25 1.15.55 2.8 0-.05 0-.15.4 2.25.7 3.55.45 1.85.85 3.35.65 2.05.75 2.4-.55.4-1.25.9-2.75 2.1-5.25 4.35-.8.65-1.55 1.35-1 .95-2 1.9-1.25 1.15-2.35 2.2-2 1.9-3.7 3.55-.2.2-.4.45-2 1.9-3.15 3.15-.2-.55-.5-1.15-.25-.7-1.2-3.15l-.05.05q-.7-1.75-.95-2.6-1.3-3.95-1.5-4.7-.1-.2-.15-.45 1.2-1.2 2.75-2.7 2.55-2.65 4.3-4.35.75-.7 1.35-1.25 1.35-1.25 2.9-2.5 1.7-1.35 3.6-2.7.1-.1.2-.15.55-.35 1.65-1.05 1-.65 2.45-1.6m-109.4 174.2q1.05.5 2.05 1.05l-.05.05q-.5.85-1.45 2.95-1.15 2.65-1.15 3.55 0 .45.1.7.25.6 1 .6.75 0 1.65-1.35 1.35-2.15 2.35-3.8.2-.4.4-.7 1 .8 1.85 1.75.9 1 1.7 2.2-.55.8-1.4 2.15-1 1.75-1 2.9 0 .2.2.5.25.4.75.4.65 0 1.6-1.15.8-1.05 1.5-1.9.85 1.7 1.45 3.6-.75.7-1.5 1.65-1.6 1.8-1.6 2.45 0 .05.1.5.2.5.85.5.85 0 2.95-1.6.15 1 .3 2.25.5 3.7.7 4.85.15.75.3 1.9-.1.75-.1 1.85 0 2.25.85 4.3.25.6 1.1 2.15.1.25.25.55.15.3.4.6.7.95 1.35.95.45 0 .65-.35-.2 1.35-.75 3.25-.8 2.65-2 4.5-1.3-6.45-4.2-14.75-2.6-7.35-5.95-11.9-2.65-3.55-5.85-5.95-1.6-1.25-3.95-2.55v-3.4q.05-2.7.45-6.8.65.15 1.55.5 1.5.55 2.55 1.05m-13.75-.05q1.5-3.35 4.65-3.35.45 0 1 .1l2.35 1.25q-.15.7-.2 1.35 0 1.6-.15 4.8-.1 1.7-.15 2.95v1.3q.05.95.1 1.75 4.45 2 5.15 2.65 3.65 3.25 5.45 6.2 4.1 7 5.7 12.4.6 2.05 1.65 6.2.6 2.15 1.55 6.25.2.85.4 2.1-.55.6-1.4 1.65-.05.05-.1.15-1.6-8.55-4.85-16.15-3.25-7.65-6.85-11.5-3.6-3.9-6.5-6.45-1.75-1.35-3.95-2.9-1.9-1.2-4.55-2.35-.35-1.95-.35-3.8 0-2.4 1.05-4.6m150.9-69.35q.2-.15.5-.3.9-.55 2.45-1.4 1.1 2.4 2.05 5h-.05q-.9.55-1.75 1.05-.7.4-1.35.85-.25.15-.5.3-3.45 2.15-5.75 3.9-7.2 5.3-11.1 9.2-.1-.7-.25-1.5-.15-.85-.3-1.65.55-.75 2.2-2.75 3.55-4.5 5.25-6.15 3.05-3.05 7.9-6.15.2-.15.7-.4m2.5 7.55q.9-.55 1.9-1.1.7-.4 1.45-.8.4 1.15.8 2.3 1.65 5.35 2.8 11.25h-.05q-1.7.15-3.65.45-2.3.3-5 .75-11.25 1.85-15.25 3.65-.05 0-.1 0-.25-1.7-.65-4.25-.05-.2-.1-.4 4.9-4.05 12.4-8.7 1.65-1.05 5.45-3.15m3.85 15.95h-1.15q-8.7.5-13 .75.05-.05.15-.05 2.9-.75 6.25-1.25 3.1-.55 7.5-1.1 1.75-.25 3.75-.5 0 .1 0 .15.15.85.3 2zm2.85 1.45 1.15-.05q.15 1.15.3 2.5.85 5.9-.05 11.85-.05-.1-.05-.2-.2 2.2-.75 4.35-.65 2.4-2.8 4.35-1.1.8-2.35 1.55-.2.1-.35.2-1.1.65-2.25 1.15-4.05 1.05-9.7 1.65-14.05 1.25-31-3.55-5.25-1.65-12.45-4.05-24.95-9.45-31.65-12.1-6.7-2.65-6.6-2.4.1.25-.2 2.2-.3 1.9-.65 4.55-.4 2.65-.65 10.05-1.15 12.6-7.9 22.65-3.25 4.95-6.15 9.75-1.6-.2-2.95-.7-.05 0-1.4-.65-.65-.3-1.5-.7-.1-.05-.2-.1 2.25-6.75 3.8-11.15 2.15-6.2 11.5-28.55 2.45-5.95 4.2-10.15.6-1.55 1.1-2.8 1.05.15 2.45.35 8.9 1.15 31.95 2.3l21.85-.25zm-119.3 55.2q.15.05.3.15.55.2 1.2.45 1.2.45 2.4.75-.8 1.25-1.5 2.5-.85-.35-2-1.05-.5-.35-.9-.65-.2-.15-.3-.25-.75-.55-1.3-1.15.25-.85.55-1.65.55.45 1.55.9m100.3-240.45q1.2-.65 2.4-1.4 6.95-4.4 15-2.8 8.3 1.5 7.7 10.5-.65 9.15-7.4 15.3-6.1 5.4-13 10.15-1.97402344 1.48496094-3.65 2.75-9.95 7.5-9.95 10.95 0 .95.4 1.3.65.55 3.25 1.2l5.8.1q1.15.3 1.25.35l-.1.15-.65.45q-3.3.75-8.65 2.8-.2-.6-.4-.8l-.4-.15q-.75 0-2.9 1-.45.15-1.2.7-.15.1-.25.2l-.45-.95q-.35-.95-1.05-.9-.15 0-.25.05h-.05q-.45 0-.6.15-4.9 1.55-15.5 10.95-2.9 2.8-5.6 5.6-1.6 1.7-3.6 4.05.95 3.65 1.75 6.8.5 1.65 1.1 3.6-2.4 2.25-7.85 7.65-5.3 5.1-8.4 8.15-2.35 2.25-3.75 3.7-.4-.25-.85-.5-4.65-2.95-8.2-7.75-.45-.55-.85-1.15.75-.1 1.45-.25 4.65-1.05 7.35-5.3.45-.7.85-1.35 1.55.7 3.5.7 5.55 0 8.6-5.05.45-.75.85-1.5 1.2-2.5 1.2-4.5 0-3.3-1.4-6.75.3-.25.55-.5 1.25-1.2 1.95-2.65 2.05-3.9 2.85-5.85 1-2.5 1.75-5.85.25-1.05 1.25-5.85.5-3.35 1-5.9.85 0 1.1-.7.05-.05.2-1.25 0-.65.15-1.2.25-.9.25-1.2 0-.6-.4-.7-.2-.05-.35-.1.05-.25.1-.5.35-1.7 1.5-5.85.5-1.9 1.6-3.65 1.85-2.85 4.1-2 .3.15 2.7 1.7 2.85 1.5 5.55 1.5 3.55 0 5.2-5.3 2.8-8.9 4.95-12.35 3.55-5.65 7.2-8.9.64238281-.57246094 1.3-1.1m-97.85 52.15q.6 0 .5-.15.05-.9 0-.9-.2-8.05 1.5-12.85 5.25-14.75 19.95-14.75 3.8 0 6.45 1.6.9.65 1 .7 5.7-4.3 10.35-4.3 3.55 0 5.75 4.15 1.5 2.95 1.5 4.9 0 3.6-3.7 8.65 4.75 2.1 6.95 5.45 2 3.05 2 5.35 0 4.85-3.15 7.85-.9.85-2.25 1.75-.45.3-.95.55 3.85 3.65 5.2 6.15.35.65.65 1.35-.6.35-1.2.65-.63027344.22695313-1.3.35-2.35.5-4.3-1.1-2.15-1.8-3.4-4.15-1.5-2.8-4.35-2.75-2.95.1-4.95 2.65-.334375.54199219-.7 1.2-.85-.7-1.95-.7-3.25 0-5.55 1.55-2.25 1.4-3.65 4.2-1.05 2.1-2.05 7.35v.8q.15-.35 0 .1-.15.4-.65 1.1-.5.65-1.2 1.45-.75.75-1.65.9-.95.1-1.3-.1-.4-.2-.45-1.25-.05-1.1.3-1.95.3-.85 1.15-1.5 1.45.55 1.75.35.3-.25.2-.3-.25-.15-1.35-1.3-1.15-1.2-1.15-2.05 0-.85 1.55-2.85 1.4-1.85 3.65-2.9.5-1.05.85-2.3.3-1.25 0-3.15-.3-1.95-1.35-4-1.1-2.05-2.8-3.45-1.75-1.4-6-.9-4.25.5-6.8 2.15-.9.55-1.65 1.15-1.4 1.1-2.2 2.35-.4.7-.75 1.4-.55 1.15-1.1 2.4-.4-1-.75-2-1.65-4.75-1.65-8.85 0-1 .2-2.35.35-2 .95-2.6.5.4 2 2.8.1.15.2.3 0 .05 0 .1 1.5 1.7 1.65 1.7m36.55 9.85q2.75-.6 4.1 2.25 1.3 2.85 3.7 4.5 2.45 1.8 5.6 1.15.74277344-.140625 1.45-.45.45-.2.9-.45.85 2.45.95 5.05 0 .35 0 .7 0 1.55-1.9 4.65-2.55 4.25-6.25 4.25-1.65 0-3.6-.35.65-1.75.65-3.4 0-.5-.4-1.55-.45-1.25-1-1.6 0 .05-.15.15.45.45.65 2.9 0 1.3-1.05 3.25-1.15-.3-1.2-.3-1 0-2.4-.35.85.45 2.65 2.1h.05q-.3.35-.55.75-2.25 3.15-5.35 4.35-1.7.6-3.65.7-1.2-2.2-2.45-6.25-.1-.35-.2-.7 2.65-1.55 4.5-4.95 2.4-4.35 2.4-7.95-.15-1.65-.75-3.3-.4-1-.85-1.7.40820313-.61230469.8-1.2 1.50625-1.74824219 3.35-2.25m-37.45 23.4q0-.3-.5-.5-1-.1-1.65-.1-1.2.05-1.65.6v.25q.7.3 2.75.3 1.05 0 1.05-.55m-4.25-3.9q0 .05.05.7.15.65.85.65 1.45 0 2.9-4.95 0-.95-.95-.95-1.25 0-2.15 2.2-.7 1.65-.7 2.35m1.55-2.1q0-.3.3-1.05.4-1 1-1 .4 0 .4.4-.65 2.3-1.3 2.3-.3 0-.4-.3 0-.3 0-.35m11.9-3.55q0-3.1-2.45-.15-2.45 2.95-2.45 6.1 0 .05.05.65.2.55.9.55 2.05 0 3.95-7.15m-1.7-.35q1.15-1.4 1.15.05-.9 3.35-1.85 3.35-.35 0-.45-.25 0-.25 0-.3 0-1.5 1.15-2.85m9.2-11.85q.35-.75.35-1.6 0-1.35-.75-2.35-1.35-1.75-4.65-1.75-3.1 0-5.7 2.25-1.55 1.3-1.8 1.7-.3.4-.3 1.4 0 .05.25.8.4.75 1.35.75 1.45 0 2.85-1.1 1.45-1.15 2.55-1.15.85 0 1.95 1.15 1.05 1.15 2.05 1.15 1.3 0 1.85-1.25z"/>
            <path d="m227.9 110.6q-1.35-2.85-4.1-2.25-1.84375.50175781-3.35 2.25-.39179687.58769531-.8 1.2.45.7.85 1.7.6 1.65.75 3.3 0 3.6-2.4 7.95-1.85 3.4-4.5 4.95.1.35.2.7 1.25 4.05 2.45 6.25 1.95-.1 3.65-.7 3.1-1.2 5.35-4.35.25-.4.55-.75h-.05q-1.8-1.65-2.65-2.1 1.4.35 2.4.35.05 0 1.2.3 1.05-1.95 1.05-3.25-.2-2.45-.65-2.9.15-.1.15-.15.55.35 1 1.6.4 1.05.4 1.55 0 1.65-.65 3.4 1.95.35 3.6.35 3.7 0 6.25-4.25 1.9-3.1 1.9-4.65 0-.35 0-.7-.55-2.5-1.85-4.6-.70722656.309375-1.45.45-3.15.65-5.6-1.15-2.4-1.65-3.7-4.5m-34.45-21.15q-2.35 4.35-3.75 9.25-.8 2.75-1 4.55.75-.6 1.65-1.15 2.55-1.65 6.8-2.15 4.25-.5 6 .9 1.7 1.4 2.8 3.45 1.05 2.05 1.35 4 .3 1.9 0 3.15-.35 1.25-.85 2.3-2.25 1.05-3.65 2.9-1.55 2-1.55 2.85 0 .85 1.15 2.05 1.1 1.15 1.35 1.3.1.05-.2.3-.3.2-1.75-.35-.85.65-1.15 1.5-.35.85-.3 1.95.05 1.05.45 1.25.35.2 1.3.1.9-.15 1.65-.9.7-.8 1.2-1.45.5-.7.65-1.1.15-.45 0-.1v-.8q1-5.25 2.05-7.35 1.4-2.8 3.65-4.2 2.3-1.55 5.55-1.55 1.1 0 1.95.7.365625-.65800781.7-1.2 2-2.55 4.95-2.65 2.85-.05 4.35 2.75 1.25 2.35 3.4 4.15 1.95 1.6 4.3 1.1.66972656-.12304687 1.3-.35-1.35-1.8-3.3-3.25-2.15-1.55-5.2-3-.4-.15-.75-.3 1.3-.7 2.5-1.65 3.8-3.05 3.8-6.9 0-6.9-7.95-10.05 1.15-2.7 1.15-5.65 0-3.75-1.8-6.4-1.95-2.8-5-2.8-2.2 0-4.05 1.3-1.4 1.05-2.4 2.7-2.85-1.4-5.65-1.4-9.2 0-15.7 12.2m-9.6 9.8q0 .2-.2.2-.25.85 1 4.5.45 1.2 1.1 3.05.35-.7.75-1.4.8-1.25 2.2-2.35-.65-.6-1.55-1.35-2.85-2.4-3.3-2.65z" fill="#930"/>
            <path d="m239.55 115.35q-.45.25-.9.45 1.3 2.1 1.85 4.6-.1-2.6-.95-5.05m-51.8-17q.1.15-.5.15-.15 0-1.65-1.7 0-.05 0-.1-.1-.15-.2-.3-1.5-2.4-2-2.8-.6.6-.95 2.6-.2 1.35-.2 2.35 0 4.1 1.65 8.85.35 1 .75 2 .55-1.25 1.1-2.4-.65-1.85-1.1-3.05-1.25-3.65-1-4.5.2 0 .2-.2.45.25 3.3 2.65.9.75 1.55 1.35.2-1.8 1-4.55 1.4-4.9 3.75-9.25 6.5-12.2 15.7-12.2 2.8 0 5.65 1.4 1-1.65 2.4-2.7 1.85-1.3 4.05-1.3 3.05 0 5 2.8 1.8 2.65 1.8 6.4 0 2.95-1.15 5.65 7.95 3.15 7.95 10.05 0 3.85-3.8 6.9-1.2.95-2.5 1.65.35.15.75.3 3.05 1.45 5.2 3 1.95 1.45 3.3 3.25.6-.3 1.2-.65-.3-.7-.65-1.35-1.35-2.5-5.2-6.15.5-.25.95-.55 1.35-.9 2.25-1.75 3.15-3 3.15-7.85 0-2.3-2-5.35-2.2-3.35-6.95-5.45 3.7-5.05 3.7-8.65 0-1.95-1.5-4.9-2.2-4.15-5.75-4.15-4.65 0-10.35 4.3-.1-.05-1-.7-2.65-1.6-6.45-1.6-14.7 0-19.95 14.75-1.7 4.8-1.5 12.85.05 0 0 .9m-1.45 189.05q-.65-.25-1.2-.45l-.8 2q.4.3.9.65 1.15.7 2 1.05.7-1.25 1.5-2.5-1.2-.3-2.4-.75m114.95-57.25-.25-1.65q-4.4.55-7.5 1.1-3.35.5-6.25 1.25-.1 0-.15.05 4.3-.25 13-.75zm-6.35-23.5q-.5.25-.7.4-4.85 3.1-7.9 6.15-1.7 1.65-5.25 6.15-1.65 2-2.2 2.75.15.8.3 1.65.15.8.25 1.5 3.9-3.9 11.1-9.2 2.3-1.75 5.75-3.9.25-.15.5-.3zm18.15-60.95q.05-.15.4-1.6-.7-1-1.3-1.95-.5.55-.7.8-.7.9-1.3 1.45.65 1.1 1.5 2.4.25.4.45.8.15-.2.3-.4.1-.15.65-1.5m44.1 132.7q-.8-.95-1.7-2.05l-1.25 1.4q.75.85 2.05 2.25.45-.8.9-1.6z" fill="#f90"/>
            <path d="m185.1 286.95q-.15-.1-.3-.15-1-.45-1.55-.9-.3.8-.55 1.65.55.6 1.3 1.15.1.1.3.25zm115.9-58.45.25 1.65h3.8q-.15-1.15-.3-2 0-.05 0-.15-2 .25-3.75.5m-5.6-22.15q-.3.15-.5.3l1.85 5.2q.65-.45 1.35-.85.85-.5 1.75-1.05h.05q-.95-2.6-2.05-5-1.55.85-2.45 1.4m17-64.5q-.15.15-.25.3.6.95 1.3 1.95 0-.1.05-.2.05-.2.15-.4-.55-.55-1.2-1.7zm43.05 134.5q-.1-.15-.15-.25-.5-.6-.95-1.2-.15-.2-.3-.45-.65.7-1.35 1.45.8 1 1.4 1.7.05.1.1.15z" fill="#fc0"/>
            <path d="m301.5 232.35q-9.5 2.6-16.6 4.05-16.05 3.25-32.75 3.25-12.35 0-34.1-3.2-7.7-1.3-12.35-2.05-6.5 14.15-13.2 32.5-3.5 9.6-6.85 17.8 1.35.65 1.4.65 1.35.5 2.95.7 2.9-4.8 6.15-9.75 6.75-10.05 7.9-22.65.25-7.4.65-10.05.35-2.65.65-4.55.3-1.95.2-2.2-.1-.25 6.6 2.4 6.7 2.65 31.65 12.1 7.2 2.4 12.45 4.05 16.95 4.8 31 3.55 5.65-.6 9.7-1.65 1.15-.5 2.25-1.15.15-.1.35-.2 1.25-.75 2.35-1.55 2.15-1.95 2.8-4.35.55-2.15.75-4.35 0 .1.05.2.9-5.95.05-11.85-.15-1.35-.3-2.5l-1.15.05q-1.35.35-2.6.75m-59.35-90.35q-.9.75-1.75 1.4l-8.65 8.55q1 2.1 1 3.8 0 2.25-1.1 4.1-.9 1.45-2.25 2.1-1.1.5-2.5.5-2.25 0-4.15-1.65-.45-.4-.85-.85-.4-.45-.7-.9-.2-.2-.4-.4l-.05-.05q-1.15 1.3-2.5 2.7.25.3.5.7.6.9 1.2 1.6l-16.1 16.05q-7.05 6.9-13.85 14.3-9.7 10.5-12.45 15.5.6.05 1.35.1.8.05 6.35.05 5.55 0 14.1-.6l-.05-.05q-.3-1.25-.55-2.55-3.8-.15-8.25-.95-1.5-.25-2.65-.5-2.65 0-3.75-.15l-.15-.15q.55-.2 1.2-.4 1.4-.45 3-.65.4-.05 1-.1 2-2.95 7.2-8.65 5.5-6.15 9.95-10.6 3.8-3.75 12.05-12.45 3-3 5.4-5 .65-.55 1.25-1-2.1-.85-4.2-1.7 1.9-.5 5.6.65 5.05 1.85 9.5 4.15 8.9 4.6 15.55 9.5 11.2 9.05 17.05 18.45 3.5 5.6 5.35 9.25 2.6 5 3.7 9.2.25 1.2 1.05 5.45 1.1-2.05 1.2-2.2 1.2-2.85 4.5-6.4 4.4-4.85 9.65-8.2-11.25-18.4-21.5-27.3-15.35-13.3-29.5-20.85-2.15 1.65-3.5 1.9-.25.05-.45.05l-.6-.05q.45-.55 1.05-1.3.65-.75 1.45-1.65 1.5-1.65 3.65-3.75 2.4-2.5 3.6-3.75 2.3-2.4 3.3-3.65 1.9-2.35 5.55-7 1.35-1.75 2.6-3.2-.35-.3-.85-.8-1.1-1.2-1.15-1.25-.4-.4-.65-.65-2.7 2.25-5.5 4.2-.2-.15-.3-.2-.35.35-2.05 1.7-2.8 2.15-6.95 5.6m56.6-32.65q-1.2-3.35-2.5-6.3-2.55 1.9-4.95 3.8 3.95 7.9 9.85 20.6 2 3.95 6.3 12.45.5.9 1.35 2.25 0-.05.05-.1 1.25-1.7 1.6-2 .05-.2.2-.35-.35-.6-.7-1.2-2.75-5-5.7-12.65-3.4-10.5-5.5-16.5m-2.6-6.55q-.65-1.55-1.35-2.95-3.35 2.05-6.65 4.2-6.45 4.15-11.85 8.15.15.8.3 1.7-1.05 1.25-3.85 3.6.3.6.6 1.45 3.45-3.1 7.35-6.2 5.05-4 10-7.15 3.1-1.95 5.45-2.8m51.95 193q2.5-5.9 6.85-13.55-.65-.85-2.3-2.85-5.15 6.5-7.6 9.85-7.05 9.6-10.45 19.55-2.5 7.2-2.2 11.65-2.4-2.65-5.35-6.45-6.65-8.65-12.5-18.8-8.95-15.45-12.7-28.5 2.65-1.05 5.5-2.45-.45-1.85-.65-2.7-.75-3.45-1.2-6.55-1.4 1.75-3.6 3-.85.5-1.85 1-2.15 1.05-4.6 1.8-2.8.6-4 .55 1.25 3.2 3.1 7.55.9 2.15 2 4.55 3.2 7.3 11.3 21.35 8.05 14.05 16.5 23.85 1.3 1.55 6.35 6.85.2-.35.4-.65.9-1.35 1.65-2.5.3-.5.6-.9 4.1-6.4 4.5-7.05 1.75-2.95 5.5-9.35 3.15-5.55 4.75-9.25z" fill="#333"/>
            <path d="m284.9 236.4q7.1-1.45 16.6-4.05 1.25-.4 2.6-.75l-43.3 2.05-21.85.25q-23.05-1.15-31.95-2.3-1.4-.2-2.45-.35-.5 1.25-1.1 2.8-1.75 4.2-4.2 10.15-9.35 22.35-11.5 28.55-1.55 4.4-3.8 11.15.1.05.2.1.85.4 1.5.7 3.35-8.2 6.85-17.8 6.7-18.35 13.2-32.5 4.65.75 12.35 2.05 21.75 3.2 34.1 3.2 16.7 0 32.75-3.25m-86.15-30q-.05-.1-.05-.25-.15-.75-.25-1.5-.55 0-1 0-4.65.2-9.25.3-.2 0-.35 0 1.15.25 2.65.5 4.45.8 8.25.95m77.6-32.7q-9.05-8.4-16.5-13.65-6.15-4.35-12.95-7.9-2.25 2.3-3.95 3.65 14.15 7.55 29.5 20.85 10.25 8.9 21.5 27.3.35-.25.7-.45 1.05-.65 2-1.15-.4-.75-.8-1.5-4.3-8.15-8-13.6-5.3-7.8-11.5-13.55m-78.85 7.4q-8.95 9.1-13.05 13.8-7.05 8.1-8.6 13.95.4.4 1.7.6 2.75-5 12.45-15.5 6.8-7.4 13.85-14.3l16.1-16.05q-.6-.7-1.2-1.6-.25-.4-.5-.7-2.6 2.65-5.95 5.75-12.5 11.6-14.8 14.05m42.9-37.7q.85-.65 1.75-1.4 4.15-3.45 6.95-5.6 1.7-1.35 2.05-1.7-.1-.1-.2-.15-.45-.35-.65-.45-.35-.25-.4-.3-.05-.05-.1-.05v-.05q-.7-1.85-1.1-3.15-6.95 6.4-7.75 7.2-7.15 7.15-11.2 10.95.2.2.45.5.15.2.35.5.05.05 1.05 1.9.1.15.15.35zm52.95-47.15q-.15.1-.3.2-1.7 1.05-3.9 2.8-2.55 2.05-3.95 2.95-1.8 1.2-7.75 5.7-.9.7-1.75 1.35.3 1.25.6 2.95 5.4-4 11.85-8.15 3.3-2.15 6.65-4.2.7 1.4 1.35 2.95.4-.2.8-.3-.35.25-.7.55 1.3 2.95 2.5 6.3 2.1 6 5.5 16.5 2.95 7.65 5.7 12.65.35.6.7 1.2.15-.1.35-.2.15-.1.3-.1-.3-.7-.6-1.5-2.2-5.45-2.85-7.35-1.1-3.2-4.6-14.55-2.6-8.7-5.4-14.55-.7-1.4-1.3-2.65-.95-1.9-1.65-3.45-.75.45-1.55.9m57.85 181.2q-5.6 5.7-6.65 6.85-8.2 8.85-11.15 14.8-2.75 5.6-2.95 13 .1 3.1.4 3.55l-.15.3q-1-1.55-1.4-2.35-2.6-1.55-5.85-6.65-2-3.1-5.5-10.1-4.65-9.4-6.8-17.7-2.7-10.4-3.8-14.9-2.85 1.4-5.5 2.45 3.75 13.05 12.7 28.5 5.85 10.15 12.5 18.8 2.95 3.8 5.35 6.45-.3-4.45 2.2-11.65 3.4-9.95 10.45-19.55 2.45-3.35 7.6-9.85-.25-.3-.5-.65-.5-.6-.95-1.3z" fill="#666"/>
            <path d="m298.15 216.1q-3 1.35-6.2 3-8.6 4.5-12.3 7.35.4 2.55.65 4.25.05 0 .1 0 4-1.8 15.25-3.65 2.7-.45 5-.75-.25-1.45-.55-2.85-.85-4.4-1.95-7.35m-85.65-20.3q-5.05.4-6.85 1.1-2.6 1-4.55 2.95-.6.6-1.05 1.25 0 .05 0 .1l.2 1.75q.05.8.2 1.6.05.65.2 1.3.05.3.1.6 0 .1.05.25.25 1.15.55 2.15.45 1.55.95 2.8.8 1.9 1.75 3.2 2.2 3.45 7.55 1.8.15-.1.3-.15.55-.25 2.5-1.3 2.15-1.3 2.2-3.25.05-2-1.15-2.45-1.25-.5-1.45-.5-.25 0-.85-.1-.6-.1-2.45-.15-.2-.05-.45-.05-2.3-.15-2.6-.2-.15-.05.8-.2.7-.15 2-.35.8-.15 1.85-.3 4.95-.75 5-3.25 0-1.2-.1-2-.5-.1-.95-.25-5.25-1.45-7.4-1.45-.2 0-.7.05-2.2.9-2.55.95-.35.05-.35-.25 0-.15.5-.5.65-.45 2.15-1.2 2.6-1.35 5.15-1.5.05-.1.1-.15 1-1.45 1.1-2.4-.95.05-1.75.1m6.5-78.9q-.2-1.9-.65-3-.45.75-.85 1.55-.95 1.9-1.9 3.45-.7 1.15-1.35 2.05.15.4.15.9 0 .55-.05 1-.2.95-.8 1.45-.2.15-.45.25-.15.15-.25.25-1.7 1.9-6.4 5.45.45.95.95 1.9.45 1.4.45 5 0 4.35-2.65 10-.25.5-.45.95-.1.5-.2 1 3.05-2.45 5.35-4.4 2.55 1.45 4.35 3.05 1.7 1.45 2.8 3 2.25 3.2 3.6 5.05l1.85 2.5q.6.65 1.5 1.3.25.15.55.3 1.15.7 2.35.4-2.5-2.15-5.55-6.15-3.5-5.2-5.75-8.2.8-1.2 1.6-2.65.45-.75.85-1.55-.4-.6-.75-1.2-2.55-4.35-3.1-5.9-.6-1.6-1.45-4.2-1.65.55-3.5.55-.4 0-.65-.2-.45-.25-.5-.3 1.75-.2 5.4-3.2 1.05-.5 1.95-1.65v-.05q.35-.45.65-.95 2.9-4.45 2.9-7.75m-8.85 1.05q-2 2.35-2 5.6 0 .25.4 1.7.45-.4 1.2-1.85-.25-.65-.25-1.6 0-2.65 2.45-2.3.85.1 1.4.45.1-.2.2-.35 1.2-1.8 2.05-3.1.55-.95.95-1.65.2-.35.35-.65.4-.75.8-1.4-.55-.55-1.2-.55-1.55 0-2.85.45.35.3.65.6.6.7.95 1.7-3.2.8-5.1 2.95m114.6 20.7q-.1-.25-.2-.5-1.3-3.45-2-4.85-2.7-5.4-2.7-7.75l.15-1.1q-1.3-.9-2.2.1.35 3.25 3.2 9.2 1.3 2.85 2.75 5.75.55-.55 1-.85m2.8-1.3q.5 2.6.45 4.65 0 .65 0 1.35-1 .45-2.85 1.8-3.35 2.35-4.85 4.9-1.55-1.15-2.65-1.9-1.9-1.3-3-1.75-.2.55-.4 1.1-.5 1.3-1.15 1.9.3.65.55 1.2 3.05 2.6 4.9 2.6 2.75 0 4.7-1.05 1-.55 2.45-1.95 1.3-1.3 2.8-3.55 1.75-3 1.75-7.15 0-2-1.2-5.7-3.3-11.6-5.55-11.05.35 1.5 1.85 6.6 2.05 7.2 2.2 8z" fill="#f99"/>
            <path d="m299.3 213.1q-1 .55-1.9 1.1-3.8 2.1-5.45 3.15-7.5 4.65-12.4 8.7.05.2.1.4 3.7-2.85 12.3-7.35 3.2-1.65 6.2-3 1.1 2.95 1.95 7.35.3 1.4.55 2.85 1.95-.3 3.65-.45h.05q-1.15-5.9-2.8-11.25-.4-1.15-.8-2.3-.75.4-1.45.8m21.85-73.7q-.05-.1-.05-.15-.1.15-.2.35-.2.6-.4 2.3-.1.65-.1 1.3.3-.45.65-1.1.55-1.05.9-1.25-.25-.4-.8-1.45m-103.95 63q-.15-.9-.45-1.3-.55-.85-2.5-1.15-4.2 0-6.1.8.5-.05.7-.05 2.15 0 7.4 1.45.45.15.95.25m-11.95-8.5q-1.3.35-1.9.65-3.2 1.75-3.4 4.95.05 1.1.1 1.6.45-.65 1.05-1.25 1.95-1.95 4.55-2.95 1.8-.7 6.85-1.1.8-.05 1.75-.1 0-.1 0-.2 0-.7-.6-1.25-1-1-3.35-1-2.3 0-5.05.65m12.8-52.15q-.4.8-.85 1.55-.8 1.45-1.6 2.65 2.25 3 5.75 8.2 3.05 4 5.55 6.15.1-.05.15-.05 1.25-.45 2.25-1.9.7-1.05.7-2.25 0-1.2-.15-2.25-.1-.55-.25-1-.4-1.5-1.2-2.8-.8-1.4-4.7-3.3-3.35-1.65-5.65-5m-12-32.05q0-2.65-1.3-4.9-1.95-3.35-4.85-3.6-2.1-.2-3.1 0-1 .2-2.05.4-1.05.15-2.85.95-1.05.45-2.15 1.65-.85.8-1.7 2.05-.9 1.7-1.45 3.15-.5 1.45-.6 2.65v.05q-.1.2-.15.45.55-.15 1-.15 1.15 0 1.45.75.05.15.05.85 0 3.05-4.75 5.5-1.35 5-2.1 9.95v.05q-4.95 4.3-7.3 7.4-4.7 6.1-4.7 12.2 0 .5.05.95.85-1.15 5.35-5.6 3.6-3.6 9.75-6.3 23.5-10.25 20.1 9.95.2-.45.45-.95 2.65-5.65 2.65-10 0-3.6-.45-5-.5-.95-.95-1.9 4.7-3.55 6.4-5.45.1-.1.25-.25-.5.2-1.15.2-1.7 0-2.2-1.35-.75 1.45-1.2 1.85-.4-1.45-.4-1.7 0-3.25 2-5.6 1.9-2.15 5.1-2.95-.35-1-.95-1.7-.3-.3-.65-.6-3.15 1.05-5.15 4.6-1.1 1.95-1.8 4.85-.75 2.9-.75 3-.05.1-1.9 2.25l-1.1.8q-1.3.55-1.85.55-2.05 0-2.05-2.85 0-1.65 1.35-3.3.2-.35.6-.75l-.1-.1q-.9-.7-.9-2.1 0-2.1 2.6-4.8 1.4-1.5 2.45-2.25.15-.1.3-.2l.3-.65q.4-1.7.4-2.05m-2.65-1.3q0 .85-.35 1.6-.55 1.25-1.85 1.25-1 0-2.05-1.15-1.1-1.15-1.95-1.15-1.1 0-2.55 1.15-1.4 1.1-2.85 1.1-.95 0-1.35-.75-.25-.75-.25-.8 0-1 .3-1.4.25-.4 1.8-1.7 2.6-2.25 5.7-2.25 3.3 0 4.65 1.75.75 1 .75 2.35m-10.3 13.65q2.45-2.95 2.45.15-1.9 7.15-3.95 7.15-.7 0-.9-.55-.05-.6-.05-.65 0-3.15 2.45-6.1m-10.95 6.5q-.05-.65-.05-.7 0-.7.7-2.35.9-2.2 2.15-2.2.95 0 .95.95-1.45 4.95-2.9 4.95-.7 0-.85-.65m3.7 2.7q.5.2.5.5 0 .55-1.05.55-2.05 0-2.75-.3v-.25q.45-.55 1.65-.6.65 0 1.65.1m131.95-6.7q-.15.1-.25.3-.95 1.45-.15 3.75.75 2.3 1.45 3.45.7 1.15 1.8 2.95.45.75.95 1.65.1.2.25.45.5.9 1 1.95.25.55.45.9.25-.25.45-.45-1.45-2.9-2.75-5.75-2.85-5.95-3.2-9.2m7.9 15.75q-.45.3-.6.55-1.35 1.4-1.65 2.1-.85 1.3-1.35 2.1-.3.65-.65 1-.55.7-1.55.7-.85 0-1.85-.75-.85-.75-1.1-.9-1.75-.5-1.85-.55-.1-.05-.15-.1 0 .65-.2 1.5-.05.2-.1.45 1.1.45 3 1.75 1.1.75 2.65 1.9 1.5-2.55 4.85-4.9 1.85-1.35 2.85-1.8 0-.7 0-1.35.05-2.05-.45-4.65-.15-.8-2.2-8-1.5-5.1-1.85-6.6-.1.05-.25.1-1.7.85-.6 4.5.45 1.65 1.65 4.4 1.95 4.55 2.25 6.7.25 2.1.75 3.25.5 1.15-.3.3-.85-.9-1.3-1.7z" fill="#fcc"/>
            <path d="m148.65 272.65q-3.15 0-4.65 3.35-1.05 2.2-1.05 4.6 0 1.85.35 3.8 2.65 1.15 4.55 2.35 2.2 1.55 3.95 2.9 2.9 2.55 6.5 6.45 3.6 3.85 6.85 11.5 3.25 7.6 4.85 16.15.05-.1.1-.15.85-1.05 1.4-1.65-.2-1.25-.4-2.1-.95-4.1-1.55-6.25-1.05-4.15-1.65-6.2-1.6-5.4-5.7-12.4-1.8-2.95-5.45-6.2-.7-.65-5.15-2.65-.05-.8-.1-1.75v-1.3q.05-1.25.15-2.95.15-3.2.15-4.8.05-.65.2-1.35l-2.35-1.25q-.55-.1-1-.1m107.7-162.8q-.6.55-1.35 1.25-.05.45-.1 1.05-.25 2.95-.25 6.15 0 3.55.8 8.7.2-.25.4-.45 1.7-1.65 3.7-3.55-.65-5.3-.65-8.1 0-3.35.25-6.35.05-.65.1-1.2-1.55 1.25-2.9 2.5m8.1-2.55q0-2.15.2-3.65 0-.1.05-.2-1.1.7-1.65 1.05-.1.05-.2.15-.15 1-.15 2.3 0 2.8.75 8.6.25 2.05.45 3.35.75-.7 1.55-1.35-.2-.7-.3-1.3-.7-3.7-.7-8.95m-89.25 39.75q4.9-.95 5.1-1l18.15-5.4q-.05-.3-.05-.6-.5-2.1-.65-3.1-2.45-.45-6.05.35-9.4 2.4-17.25 9.55-.3.25-.55.5.55-.15 1.3-.3m8.75-22.35q-.3.75-.3 1.05 0 .05 0 .35.1.3.4.3.65 0 1.3-2.3 0-.4-.4-.4-.6 0-1 1m11.05-2.8q0-1.45-1.15-.05-1.15 1.35-1.15 2.85 0 .05 0 .3.1.25.45.25.95 0 1.85-3.35m208.35 110.85q-.65-6.55-4.9-6.55-2.35 0-5.95 3-3.1 3.05-3.15 3.05-1.9 2.05-5.6 6.65-5.15 6.3-10.3 9.25-4 2.25-7.5 2.25-3 0-5.6-.85-.4-.1-.75-.25-.1.8-.1 1.55.55.25 1.2.5 2.8 1.15 4.4 1.15 5.85 0 12.1-3.85 4.1-2.5 8.35-6.65 4.75-4.75 5.95-6.25.05-.05 1.8-2 3.15 2.4 5.8 4.15.85.65 2.95 1.55.6.25 1.15.5.35-1.1.6-1.8v-.05q-.1-.4-.15-.9-.15-2.85-.3-4.45z" fill="#fff"/>
            <path d="m159.8 277.1q-1-.55-2.05-1.05-1.05-.5-2.55-1.05-.9-.35-1.55-.5-.4 4.1-.45 6.8v3.4q2.35 1.3 3.95 2.55 3.2 2.4 5.85 5.95 3.35 4.55 5.95 11.9 2.9 8.3 4.2 14.75 1.2-1.85 2-4.5.55-1.9.75-3.25-.2.35-.65.35-.65 0-1.35-.95-.25-.3-.4-.6-.15-.3-.25-.55-.85-1.55-1.1-2.15-.85-2.05-.85-4.3 0-1.1.1-1.85-.15-1.15-.3-1.9-.2-1.15-.7-4.85-.15-1.25-.3-2.25-2.1 1.6-2.95 1.6-.65 0-.85-.5-.1-.45-.1-.5 0-.65 1.6-2.45.75-.95 1.5-1.65-.6-1.9-1.45-3.6-.7.85-1.5 1.9-.95 1.15-1.6 1.15-.5 0-.75-.4-.2-.3-.2-.5 0-1.15 1-2.9.85-1.35 1.4-2.15-.8-1.2-1.7-2.2-.85-.95-1.85-1.75-.2.3-.4.7-1 1.65-2.35 3.8-.9 1.35-1.65 1.35-.75 0-1-.6-.1-.25-.1-.7 0-.9 1.15-3.55.95-2.1 1.45-2.95zm233.5-39.75q-3.05 3.5-6.25 6.4-1.95 1.75-8.3 6.35-1.65 1.2-4.45 2.25-1.05.4-2.3.75-3.8 1.2-5.45 1.2-3.45 0-6.4-1.75-.35-.25-.7-.45.05 1.05.65 5.5.3 1.3.9 2.85.2.7.4 1.1.05 0 .05-.05.7-1.15.95-1.35.2-.2.45-.35.35-.35 1.1-.6.85-.35.9-.35.7-.2 2-.2.75 0 2.05.5.05 0 .1.05 1.4.5 1.8 1 .6.8.85 1.25.2.45.25 1 .7-.05 1.65.05h-.4q0 .05 1.65-.05 1.7-.1 2.2-.2l2.25-.3q.3-.05.6-.1l-.15-.6q-.35-1.3-.35-2 0-.9.3-2.25.4-1.7.9-1.8.8-.25 1.25.35.3.45.35 1.1 0 1.05.15 2 .15.85.8 2.5 4.05-.5 7.5-2.6-.75-.85-1-1.15-2.9-3.1-2.9-4.65 0-.8.75-1 .85-.2 1.7 1.2l2.8 2.4q.6.7 1.25 1.25.3-.3.6-.6 2.05-1.95 4.25-5.25-1.15-.65-1.85-1.45-1.1-1.05-1.8-1.7-1.3-1.25-1.3-1.85 0-1.75 2.45-.35 1.3.7 3.3 2 .4.3 1 .5.45-.8.95-1.7.9-1.7 1.7-4-1.5-.6-2.75-1.3-.95-.55-2.45-1.7-1.95-1.5-3.35-2.65-.4.45-.65.8z" fill="#c00"/>
            <path d="m247.95 118.15q.05.25.15.45.2.75 1.5 4.7.25.85.95 2.6l.05-.05q.95 2.45 1.2 3.15.3.6.5 1.15 1.15-1.25 3.15-3.15-.8-5.15-.8-8.7 0-3.2.25-6.15.05-.6.1-1.05-1.75 1.7-4.3 4.35-1.55 1.5-2.75 2.7m15.95.75q-.2-1.3-.45-3.35-.75-5.8-.75-8.6 0-1.3.15-2.3-1.9 1.35-3.6 2.7-.05.55-.1 1.2-.25 3-.25 6.35 0 2.8.65 8.1 1.1-1.05 2.35-2.2 1-.95 2-1.9m5.2-18.55q-.7.65-1.95 1.5-1.45.95-2.45 1.6-.05.1-.05.2-.2 1.5-.2 3.65 0 5.25.7 8.95.1.6.3 1.3 2.5-2.25 5.25-4.35.7-.5 1.25-.9-.1-.35-.75-2.4-.4-1.5-.85-3.35-.3-1.3-.7-3.55 0 .1 0 .15-.3-1.65-.55-2.8z" fill="#699"/>
            <path d="m202.2 149.8q-.4 0-.85 0-2.35 0-5.05 1.95-.5.4-2.7 2.4-.05.05-.05-.2 0-1.35 2.45-3.15 1.75-1.3 3.8-1.85-.25 0-.55 0-7.7 0-10.5 5.15-1.1 2-1.3 4.65 6.3-1.9 13.95-7.35.25-.2.55-.35.15-.65.25-1.25z" fill="#c36"/>
            <path d="m198.65 142.15q-.6.2-2.1.6-1.5.4-2.25.65l-7.2 2.2q-11.85 3-13.45 3-.7 0-.9-.05-2.3 2.45-2.9 4 .3 1.45.9 2.55 2.7 4.65 10.4 4.65 2.35 0 5-.65.2-3.55 1.85-6.1 2.75-4.4 9.35-5.2 3.3-.3 5.15.45 1.5-8.75-3.1-10.8.15.55.35 1.4.25.7 1.05 2.35v.05q-1.55.65-2.15.9z" fill="#936"/>
        </g>
    </g>
</svg>
