<svg height="400" preserveAspectRatio="none" viewBox="0 0 550 400" width="550" xmlns="http://www.w3.org/2000/svg">
    <g>
        <g id="Layer0_0_FILL">
            <path d="m546.65 296.65q-1.47246094-.76191406-2.95-1.45-.05019531-.04453125-.1-.1-.33085937.16601563-.65.25 1.084375.64335938 2.15 1.3.06972656.04980469.15.1 2.9 1.75 5.6 3.8 7.5 5.65 13.85 13.1 1.15 1.4 2.3 2.85 5.6 7.2 10.2 15.95 7 13.35 10.15 27.85.95 4.25 1.4 8.2.5-.75.95-1.8.95-2.5.95-4.45 0-1.65-.95-5.75-1.05-4.1-1.05-5.9 0-.35.25-.5.1-.1.4-.3 1.05.95 2.35 1.25.6.15 1 .1 1.15-.7-1.6-6.25-1.4-2.85-5.15-9.35-3.5-6.05-8.55-12.2-3.75-4.65-9.3-10.35-.5-.5-.95-1-7.6-7.75-16.2-12.95-2.11308594-1.2796875-4.25-2.4m-8.85-4.7q-.02089844.01035156-.05 0-.17011719.18183594-.3.3-.09160156.07636719-.2.15.30957031.12226563.65.25.125.06171875.25.1-.19628906-.35703125-.35-.8m54.1 62.9q0 .4.35.7.4.3.9.3.45 0 .8-.3.35-.3.35-.7 0-.4-.35-.65-.35-.3-.8-.3-.5 0-.9.3-.35.25-.35.65z" fill="#36c"/>
            <path d="m537.8 291.95q.15371094.44296875.35.8.425.84902344 1.05 1.5.04921875.05117188.1.1 1.2109375 1.2 2.7 1.2.44394531 0 .95-.2.31914063-.08398437.65-.25-.45078125-.38574219-.95-.75-.48066406-.33398437-1-.65-1.23144531-.80195313-3.85-1.75m-4.65-1.4q-.2-.05-.5-.15-1.08085937-.31933594-2.35-.6.60625 1.20273438.95 1.8 1.44394531.66679688 2.85 1.4.2171875 0 .45 0 1.79667969 0 2.7-.6.10839844-.07363281.2-.15.12988281-.11816406.3-.3-1.92753906-.66347656-4.6-1.4m-9.75-2.1q-.35-.05-.5-.05-1.48164062-.16601563-2.75-.3.64746094 1.63144531 1.45 2.65 1.96679688.83144531 4.05 1.85 1.43515625-.24902344 2.95-1.6.22792969-.20390625.4-.4.48300781-.46699219.8-.95-1.08417969-.22324219-2.3-.45-2.4-.6-4.1-.75m-10.05-.3q-.15 0-.3 0-1.67441406.26230469-3 .8.646875 1.44316406 1.8 2.05 1.2.65 4.05.65 1.61757813 0 3.15-1.9.01953125-.01171875.05-.05.56992188-.71855469 1.05-1.6-3.68867187-.28613281-5.55-.1-.3 0-.7.05-.3.05-.55.1m-400.95-16.9q-2.3-2.55-2.4-6.8-5.95.2-12.25.4-.3 0-.7.05-.8 0-1.65 0-6.1.25-11.4.4-.65 3.55-2.6 6.1-2.7 3.4-6.6 3.4-3.2 0-6.45-3.05-2.75-2.65-3.3-5.9-7.1.35-11.6.55-.95 0-1.75.05 1.2 6.4 6.15 11.9 6.5 7.05 16.1 7.05 2.5 0 4.9-.55 5.4-1.35 10.15-5.6 6.2-5.45 8.45-13.05.05 1.25.8 3.7 1.35 4.35 3.7 8.1 6.85 10.4 18.7 11.05.75.05 1.55.05 9.45 0 17.25-8.2 4.65-4.95 6.45-10.8.95-3.15 1.05-6.6-7.7.15-17.3.45-.95 4.25-3.35 6.9-2.7 3.15-6.45 3.15-4.9 0-7.45-2.75z" fill="#fff"/>
            <path d="m534.1 293q1.26152344.65039063 2.5 1.35 1.92851562 1.09042969 3.8 2.3 3.1296875 2.01015625 6.1 4.35.55.4 1.15.9 1.25 1 2.45 2.1 5.9 5.2 10.85 11.6 1.8 2.3 3.5 4.75 1.8 2.75 3.5 5.65 7.4 12.8 10.3 26.55 1.35 6.15 1.55 11.5.65 1.55 1.35 2.6 2.15 3.3 5.15 3.3 1.4 0 2.45-1.45-.45-3.95-1.4-8.2-3.15-14.5-10.15-27.85-4.6-8.75-10.2-15.95-1.15-1.45-2.3-2.85-6.35-7.45-13.85-13.1-2.7-2.05-5.6-3.8-.08027344-.05019531-.15-.1-1.065625-.65664062-2.15-1.3-.50605469.2-.95.2-1.4890625 0-2.7-1.2-.05078125-.04882812-.1-.1-.625-.65097656-1.05-1.5-.125-.03828125-.25-.1-.34042969-.12773437-.65-.25-.90332031.6-2.7.6-.2328125 0-.45 0m-3.8-3.2q-.24433594-.06875-.5-.15-.31699219.48300781-.8.95 1.15078125.47949219 2.25 1-.34375-.59726562-.95-1.8m59.9 79.9q-1.05 0-1.8.55-.75.65-.75 1.45 0 .9.75 1.45.75.6 1.8.6 1 0 1.7-.6.75-.55.75-1.45 0-.8-.75-1.45-.7-.55-1.7-.55z" fill="#c30"/>
            <path d="m526.6 293.05q1.23710937.63183594 2.45 1.3 1.98671875 1.10078125 3.9 2.3 5.67929688 3.54472656 10.7 7.95.3.25.6.55 1.6 1.45 3.15 3 4.35 4.4 7.7 9.3 2.2 3.25 4 6.75 7.05 13.7 7.15 30.7.9-.85 1.8-2.85 1.6-3.55 3.7-3.55 2 0 3.6 3.35.75 1.45 2.65 7.35.95 2.85 1.8 4.85-.2-5.35-1.55-11.5-2.9-13.75-10.3-26.55-1.7-2.9-3.5-5.65-1.7-2.45-3.5-4.75-4.95-6.4-10.85-11.6-1.2-1.1-2.45-2.1-.6-.5-1.15-.9-2.9703125-2.33984375-6.1-4.35-1.87148438-1.20957031-3.8-2.3-1.23847656-.69960937-2.5-1.35-1.40605469-.73320312-2.85-1.4-1.09921875-.52050781-2.25-1-.17207031.19609375-.4.4-1.51484375 1.35097656-2.95 1.6.48242188.21777344.95.45m-6.45-4.95q-.48007812.88144531-1.05 1.6-.03046875.03828125-.05.05 1.2453125.47617187 2.55 1-.80253906-1.01855469-1.45-2.65m51.8 76.7q1.2 0 2.05-.7.9-.7.9-1.7 0-1.05-.9-1.75-.85-.7-2.05-.7-1.3 0-2.15.7-.9.7-.9 1.75 0 1 .9 1.7.85.7 2.15.7z" fill="#f60"/>
            <path d="m515.9 291.65q-2.85 0-4.05-.65-1.153125-.60683594-1.8-2.05-1.93671875.85859375-3.1 2.35-1.6 2.1-1.2 4.2.35 2.4 6.4 3.2 1.85.7 1.85 2.6 0 .4-.65 1.75-.05.15-.1.3-.8 1.6-.8 2.25 0 1.05 1.1 2 1.05.9 1.95.9 1.1 0 1.75-.9.55-.75.55-1.85 0-.6-.4-2.2-.05-.1-.05-.15-.4-1.75-.4-2 0-1.05.45-1.7.25-.35.5-.5.7.05 1.4.2 1.5.15 3.15.55 2.35.95 5 2.5 4.4 2.6 8.45 6.25 3.1 2.7 5.9 5.95 1.65 1.95 3.2 3.95 3.05 4.05 5.5 8.35 4.55 8.25 6.6 17.55.4 1.6 1 3.7.8 2.55 1.1 3.05 2.75 4.3 5.65 4.3.7 0 1.4-.65-.1-17-7.15-30.7-1.8-3.5-4-6.75-3.35-4.9-7.7-9.3-1.55-1.55-3.15-3-.3-.3-.6-.55-5.02070312-4.40527344-10.7-7.95-1.91328125-1.19921875-3.9-2.3-1.21289063-.66816406-2.45-1.3-.46757812-.23222656-.95-.45-2.08320312-1.01855469-4.05-1.85-1.3046875-.52382813-2.55-1-1.53242187 1.9-3.15 1.9m20.25 24.1q0 .55.45.9.5.4 1.2.4.75 0 1.2-.4.5-.35.5-.9 0-.6-.5-1.05-.45-.3-1.2-.3-.7 0-1.2.3-.45.45-.45 1.05z" fill="#fc0"/>
            <path d="m501.2 288.9q-2.45 3.4-2.4 7.35-.2 6.05 11.8 6.7 1.25 0 2.75.1.65-1.35.65-1.75 0-1.9-1.85-2.6-6.05-.8-6.4-3.2-.4-2.1 1.2-4.2 1.16328125-1.49140625 3.1-2.35 1.32558594-.53769531 3-.8.15 0 .3 0 .25-.05.55-.1.4-.05.7-.05 1.86132813-.18613281 5.55.1 1.26835938.13398437 2.75.3.15 0 .5.05 1.7.15 4.1.75 1.21582031.22675781 2.3.45.25566406.08125.5.15 1.26914063.28066406 2.35.6.3.1.5.15 2.67246094.73652344 4.6 1.4.02910156.01035156.05 0 2.61855469.94804687 3.85 1.75.51933594.31601563 1 .65.49921875.36425781.95.75.04980469.05546875.1.1 1.47753906.68808594 2.95 1.45 2.13691406 1.1203125 4.25 2.4-.1046875-1.24277344-.55-2.4-.41289062-1.19550781-1.2-2.3-1.33632813-1.91191406-3.7-3.55-2.65-2-11.15-4.65-2.95-.85-6.55-1.6-3.45-.7-5.85-.85-8.3-.85-11.25-.35-6.3.9-9.45 5.55m13.45 26.3-6.4-1.2q1.95 1.2 5.25 6.05 3.65.65 6.85 1.25-4-5-5.7-6.1m18.25-7.45q1.6.55 3 .95-4.05-3.65-8.45-6.25-2.65-1.55-5-2.5-1.65-.4-3.15-.55-.7-.15-1.4-.2-.25.15-.5.5-.45.65-.45 1.7 0 .25.4 2 0 .05.05.15 2.25.25 4.85.8 6.85 1.9 10.65 3.4m-55.15.45-5.4-1q-2.75 2.05-5.2 4 2.25.45 5.4 1.1 3.25-2.85 5.2-4.1z" fill="#624"/>
            <path d="m525.8 167.2q-6.8-8.8-19-11.1-10.7-2.05-22.85 2.8-17.45 7-21.05 25.95-.4 2-.65 3.95-2.3-1.7-4.5-2.1-8.65-1.65-15.2 1.15-9.35 3.9-11.7 16.35-1.45 7.55 2.1 14.75.1.1.1.25 1.7 3.2 4.65 6.75-2.75.6-5.4 1.75-11.25 4.9-11.25 17.9-.05 13.15 10.15 20.75.6.4 1.15.8-5.2 6.15-5.15 14.85 0 4.65 2.45 8.45 3.05 4.55 9.6 7.9 6.25 3.25 19.55 6.25l13.55 2.6 5.4 1 30.5 5.8 6.4 1.2 12.4 2.35 6.85.85q5.85.4 11.1.2-1.55-2-3.2-3.95-2.8-3.25-5.9-5.95-1.4-.4-3-.95-3.8-1.5-10.65-3.4-2.6-.55-4.85-.8.4 1.6.4 2.2 0 1.1-.55 1.85-.65.9-1.75.9-.9 0-1.95-.9-1.1-.95-1.1-2 0-.65.8-2.25.05-.15.1-.3-1.5-.1-2.75-.1-12-.65-11.8-6.7-.05-3.95 2.4-7.35 3.15-4.65 9.45-5.55 2.95-.5 11.25.35 2.4.15 5.85.85 3.6.75 6.55 1.6 8.5 2.65 11.15 4.65 2.36367187 1.63808594 3.7 3.55.78710938 1.10449219 1.2 2.3.4453125 1.15722656.55 2.4 8.6 5.2 16.2 12.95 6.6-5.15 9.4-14.15.09824219-.60546875.15-1.2.1796875-1.17128906.25-2.3.6296875-9.08320312-3.75-15.4-1.8-2.55-4.15-4.3l-.15-.1q10.85-8.35 12.75-18.45 1-5.05-.35-10.95-1.3-5.9-4.25-10.25-3.5-5.05-8.6-8.3-1.45-.85-2.9-1.6 1.35-1.65 2.6-3.6 4.35-6.55 5.8-14.25 2.35-12.3-3-21.5-5.65-9.8-18-12.15-6.05-1.15-12.6.5-5.45 1.4-9.4 4.5-1.05-6.15-5.1-11.3m-17.75-7.6q9.75 1.85 14.95 9.4 4.85 7 3.45 14.5-1 5.25-6.35 7.7-3.95 1.7-7 1.15-2.85-.55-8.3-5.2-5.35-4.8-10.2-5.7-6.7-1.3-14.55 1.75-7.9 2.9-10.15 2.45-2.9-.55-2.75-4.25 1.75-6.05 5.9-10.75 3.15-3.7 7.95-6.55 12.25-7.3 27.05-4.5m35.55 33.5q-5.6-3.15-6.1-3.65-2.5-2.05-1.85-5.25.6-3.3 5.45-5.8 4.1-2.2 9.4-1.85 1.4.1 2.85.3.95.15 1.9.35 7.2 1.35 9.8 6.2 2.1 3.7 1.1 8.95-1.05 5.5-3.9 8.05-2.45 2.3-5.6 1.7-1.9-.35-6.25-3.95-5.25-4.3-6.8-5.05m-103.85-1.05q.35-.3.7-.55 5.6-3.95 11.7-2.8 5.65 1.1 4.55 6.95-.55 3-4.5 4.65-4.9 1.5-6.95 2.15-1.8.5-5.4 3.9-2.95 2.85-4.85 2.45-1.65-.3-2.05-2.95-.1-.5-.15-.95 0-.9.1-1.5 1.35-7.2 6.85-11.35m-14.8 49.6q.05-.6.15-1.2.95-5 5.85-9 4.95-4.15 9.55-3.3 1.95.35 2.7 2.3.75 1.65.4 3.5-.5 2.65-7.9 6.55-6.9 3.7-9.15 3.25-.85-.15-1.5-1.75-.1-.2-.1-.35m111.65 75q-.45-.35-.45-.9 0-.6.45-1.05.5-.3 1.2-.3.75 0 1.2.3.5.45.5 1.05 0 .55-.5.9-.45.4-1.2.4-.7 0-1.2-.4m11.25-68.9 6.85 19.4 17.8-5.45-17.8 5.45 5.6 16.2-5.6-16.2-17.45 5.3 17.45-5.3zm-46.8 4.95 20.25 17.75-20.25-17.75-19.65 21 19.65-21-24.5-20.7 24.5 20.7 19.6-21.1zm19.3 68.6q-3.2-.6-6.85-1.25 1.55 2.3 3.45 5.45 6.45 10.75 6.8 16.9.35 6.2-1.5 15.1-.95 4.8-2.7 11.65-.7 3.35 3.9 4.35 3.05.7 7.15.25 7.3-.2 14.7-1.05 2.5-.3 4.85-1.05.65-.3 1-.8.05-1.3-1.05-2-2.5-1.8-5.4-2.85-5.6-2.15-11.55-3.55-.85-.25-1.65-.45.6-3.55.8-8.45.3-9.8-1.95-16.7-1.35-4.15-7.6-12.45-1.3-1.7-2.4-3.1m6.35 21.8q.55 0 .9 1.8.3 1.5.3 2.85 0 5.05-1.1 12.6-1.55 10.3-3.9 10.3-.6 0-1.1-.6-.5-.65-.5-1.45 0-.4 1.75-9.1.1-.4.2-.8.5-4.2.9-7.05 1.15-8.55 2.55-8.55m-79.25-5.1q5.8-8.05 17.35-18.8 4.5-4.2 7.75-6.9-3.15-.65-5.4-1.1-19 14.25-25.5 23.15-6.55 8.85-9.5 14.6-2.95 5.7-6.65 14.15-3.9.7-11.1 3.8-9.65 4.15-9.2 6.05.45 1.9 16.25 1.65 15.8-.25 15.35-4.1-.5-3.9 2.25-14.25 2.75-10.35 8.4-18.25m-11.3 8.05q.6 0 .75.3.1.2.1 1.1 0 1.55-1.4 4.25-2.35 4.5-2.45 4.7-.35.8-1.9 4.55-1.7 3.4-3 3.4-1.15 0-1.15-1.85 0-2.55 3.45-8.85.9-1.7 1.7-2.95.15-.25.25-.5 2-4.15 3.65-4.15m-10.85 18.7q.7.4.7 1.1 0 1.65-4 3.5-3.8 1.75-6.55 1.75-2.2 0-2.2-1.2 0-1.2 4.6-3.25.3-.15.6-.25 3.65-1.6 6-1.95.15.05.35.1.25.05.5.2z" fill="#936"/>
            <path d="m425.1 240.45q-.1.6-.15 1.2 0 .15.1.35.65 1.6 1.5 1.75 2.25.45 9.15-3.25 7.4-3.9 7.9-6.55.35-1.85-.4-3.5-.75-1.95-2.7-2.3-4.6-.85-9.55 3.3-4.9 4-5.85 9m15.35-48.95q-.35.25-.7.55-5.5 4.15-6.85 11.35-.1.6-.1 1.5.05.45.15.95.4 2.65 2.05 2.95 1.9.4 4.85-2.45 3.6-3.4 5.4-3.9 2.05-.65 6.95-2.15 3.95-1.65 4.5-4.65 1.1-5.85-4.55-6.95-6.1-1.15-11.7 2.8m97.05-2.05q.5.5 6.1 3.65 1.55.75 6.8 5.05 4.35 3.6 6.25 3.95 3.15.6 5.6-1.7 2.85-2.55 3.9-8.05 1-5.25-1.1-8.95-2.6-4.85-9.8-6.2-.95-.2-1.9-.35-1.45-.2-2.85-.3-5.3-.35-9.4 1.85-4.85 2.5-5.45 5.8-.65 3.2 1.85 5.25m-14.5-20.45q-5.2-7.55-14.95-9.4-14.8-2.8-27.05 4.5-4.8 2.85-7.95 6.55-4.15 4.7-5.9 10.75-.15 3.7 2.75 4.25 2.25.45 10.15-2.45 7.85-3.05 14.55-1.75 4.85.9 10.2 5.7 5.45 4.65 8.3 5.2 3.05.55 7-1.15 5.35-2.45 6.35-7.7 1.4-7.5-3.45-14.5m4.6 175.9q-.35-1.8-.9-1.8-1.4 0-2.55 8.55-.4 2.85-.9 7.05-.1.4-.2.8-1.75 8.7-1.75 9.1 0 .8.5 1.45.5.6 1.1.6 2.35 0 3.9-10.3 1.1-7.55 1.1-12.6 0-1.35-.3-2.85m-101.6 20.95q0-.7-.7-1.1-.25-.15-.5-.2-.2-.05-.35-.1-2.35.35-6 1.95-.3.1-.6.25-4.6 2.05-4.6 3.25 0 1.2 2.2 1.2 2.75 0 6.55-1.75 4-1.85 4-3.5m10.9-19.5q-.15-.3-.75-.3-1.65 0-3.65 4.15-.1.25-.25.5-.8 1.25-1.7 2.95-3.45 6.3-3.45 8.85 0 1.85 1.15 1.85 1.3 0 3-3.4 1.55-3.75 1.9-4.55.1-.2 2.45-4.7 1.4-2.7 1.4-4.25 0-.9-.1-1.1z" fill="#e94d9b"/>
            <path d="m292.95 318.05q0 .1.05.25.65 5 4.3 24.7 5.2 28.2 9.5 30.5.55.05 1.05.1 11.7.95 15.9-1.25 4.7-2.45-2.75-4.25-.7-.25-1.35-.35-1.8-.45-3.35-.9-3.75-1.05-5.65-1.85-.4-.2-.9-.85-.1-.1-.2-.2-3-4.7-9.8-28.95-2.05-7.5-4-17-1.35 0-2.8.05m-1.9.05q-2.4.05-4.15.15 1.2 9.65 1.55 17.25 1.5 28.8-.95 30-1.25.6-3.45 1.35-1.95.65-4.6 1.4-.65.15-1.25.35-6.9 1.85-1.45 4.3 5.5 2.4 19 1 .15 0 .3 0 3.1-3.95-.45-28.7zm.35 27.35q.7 0 1.3.9.55.85.7 1.9.1.7.95 16.5.15 1.15.05 2.1-.2 2.95-2.1 3.95-1.35.7-6.1.7h-2.2q-1.3-.25-1.5-1.6-.2-1.65 4.1-2.15 1.05-.2 1.8-.9.2-.15.35-.35.85-.9.9-2.1.35-2.1.55-5.65 0-.5.05-.95 0-.7.05-1.25v-.35q0-1.15.05-1.85 0-.7-.05-1.3-.1-1.15-.25-2.1-.15-1.75-.15-3.05-.05-2.45 1.5-2.45m61.55-162.25q-6.3-9.4-18.75-10.95-6.15-.75-12.55 1.2-5.3 1.8-9.05 5.1-1.45-6.05-5.8-10.95-7.3-8.35-19.6-9.9-10.8-1.4-22.7 4.25-17 8-19.45 27.15-.25 2.05-.4 4-2.3-1.55-4.5-1.85-8.75-1.1-15.15 2.05-2.3 1.15-4.1 2.8-1.7 1.55-2.95 3.5-2.85 4.35-3.65 10.8-.95 7.6 3 14.6.1.1.15.2 1.85 3.15 5 6.5-2.65.75-5.25 2.1-10.95 5.55-10.1 18.55.75 13.05 11.35 20.05.6.35 1.25.75-3.65 4.9-4.2 11.05-.2 1.95-.05 4.05.25 4.6 3 8.25 3.25 4.4 10.05 7.35 6.45 2.9 19.9 5.05l37.9 4.8 8.85 1.1 22.15 2.8 6.95.4q8.45.1 15.65-1.15 23-3.9 25.35-20.2.9-6.25-.15-11.3-1-5.25-4.2-9.15-1.9-2.45-4.35-4.05l-.15-.1q10.3-9 11.55-19.15.65-5.15-1-10.95-1.7-5.8-4.9-9.9-3.85-4.9-9.1-7.8-1.45-.75-3-1.4 1.3-1.75 2.4-3.7 3.95-6.9 4.9-14.7 1.6-12.4-4.3-21.25m-16.15-7.45q7.25.9 10.15 5.55 2.3 3.6 1.65 8.9-.7 5.55-3.4 8.35-2.3 2.4-5.45 2-1.95-.25-6.55-3.55-5.45-4-7.05-4.7-5.75-2.7-6.35-3.2-2.55-1.95-2.15-5.2.4-3.3 5.1-6.1 3.95-2.4 9.3-2.4 1.35 0 2.8.15.95.05 1.95.2m-6.45 89.75q-.35-6.55-2.8-11.95-4.3-9.7-14.2-11.75-2.3-.5-4.85-.55-2.6-.1-4.95.25-.5 2-1 4.55-1.7 8.9-1.7 18 0 3.85.4 5.95-.95 0-5-.4-4.1-.45-7.7-1.8-1.9-.75-3.2-1.4-.05.2-.05.45 0-.25.05-.45 2-22.1 17.6-24.8.3-.05.6-.1 2.35-.35 4.95-.25 2.55.05 4.85.55 9.9 2.05 14.2 11.75 2.45 5.4 2.8 11.95m15.75 12.7q2.3 2.3 1.9 5.4-.65 2.95-3.35 4.9-1.25.75-3.2 1.35-2.35.7-3.6 1.05-27.8 8.1-53.65 4.35-9.65-1.4-19.45-4.45-1.3-.45-2.6-.85-15.2-5.15-30.85-14.3-3.9-2.3-5.6-4.3-2.55-2.75-1.85-5.65.35-3.1 3.3-4.65 2.75-1.7 6.45-.45 6.7 4.05 13.5 7.3 2.9 1.35 5.8 2.6.4.15.85.35 41.1 17.1 86.2 5.1 3.65-.2 6.15 2.25m-123.65-80.5q.3-.3.6-.55 5.4-4.3 11.55-3.55 5.75.75 5 6.65-.4 3.05-4.25 4.9-4.8 1.8-6.75 2.6-.85.3-2.05 1.25-1.35 1.05-3.1 2.95 0 .05-.05.05-2.8 3-4.7 2.75-1.65-.2-2.2-2.85-.15-.5-.2-.95-.1-.9 0-1.5.55-4.25 2.6-7.6 1.2-1.95 2.95-3.6.3-.3.6-.55m26.7-12.3q1.35-6.15 5.2-11.1 2.95-3.9 7.55-7 11.75-8.15 26.7-6.25 9.85 1.25 15.5 8.5 5.25 6.7 4.3 14.25-.65 5.3-5.8 8.1-3.9 1.95-6.95 1.55-2.9-.35-8.6-4.65-5.6-4.4-10.5-5.05-6.75-.85-14.45 2.6-7.7 3.4-9.95 3.1-2.95-.35-3-4.05m18.15 48.15q-1.4.75-2.95 1.95-4.5 3.4-8.55 8.75-5.5 7.25-7.5 14.2-.4 1.25-.65 2.55-.05.15-.05.3-4-2.65-7.3-5.75-4.55-4.2-6.4-7.7-.2.55-.4 1.1.2-.55.4-1.1 1.35-3.8 3.3-6.9.95-1.6 2.1-3 .9-1.15 1.95-2.2 6.35-6.35 14.6-5.75 3.5.2 7.35 1.65 2.2.85 4.1 1.9.5.25.95.55 13.8 8.65 7.95 30.55 5.85-21.9-7.95-30.55-.45-.3-.95-.55m-56.5 13.35q.65-5 5.25-9.3 4.7-4.5 9.35-3.9 1.95.25 2.9 2.15.75 1.55.55 3.45-.35 2.7-7.45 7.05-6.7 4.1-8.95 3.8-.9-.1-1.6-1.7-.1-.2-.15-.35 0-.55.1-1.2m-108.8 96.8-.55-27.1q-2.4.05-4.15.15-.25 9.65-1 17.25-2.75 28.8-5.35 30-1.35.6-3.65 1.35-2.05.65-4.85 1.4-.65.15-1.3.35-7.15 1.85-2.05 4.3 5.15 2.4 18.85 1 .15 0 .3 0 3.65-3.95 3.75-28.7m-6.1 2.7q.35-2.45 1.9-2.45.7 0 1.15.9.4.85.4 1.9 0 .7-1.45 16.5-.05 1.15-.25 2.1-.65 2.95-2.7 3.95-1.45.7-6.2.7h-2.2q-1.25-.25-1.25-1.6 0-1.65 4.4-2.15 1.1-.2 1.95-.9.2-.15.4-.35.95-.9 1.2-2.1.65-2.1 1.35-5.65.1-.5.2-.95.1-.7.25-1.25l.05-.35q.15-1.15.3-1.85.1-.7.15-1.3.1-1.15.05-2.1.15-1.75.3-3.05m7.45-29.85q0 .1 0 .25-.05 5 .7 24.7 1.05 28.2 5 30.5.55.05 1.05.1 11.55.95 16.05-1.25 5.1-2.45-2.1-4.25-.65-.25-1.3-.35-1.75-.45-3.2-.9-3.6-1.05-5.4-1.85-.35-.2-.75-.85-.1-.1-.2-.2-2.3-4.7-5.55-28.95-.95-7.5-1.5-17-1.35 0-2.8.05m-37.1-154q-15.9 10.1-15.9 29.4 0 2.05.1 4-2.5-1.25-4.75-1.25-8.8 0-14.75 3.95-8.45 5.6-8.45 18.3 0 7.65 4.8 14.1.1.1.15.2 2.25 2.85 5.8 5.8-2.55 1.05-4.95 2.7-10.15 6.9-7.7 19.7 2.4 12.9 13.8 18.45.65.3 1.3.6-3.95 7-2.35 15.55.9 4.55 4.05 7.8 3.8 3.95 10.9 6 6.75 2.05 20.35 2.5h28.7 8.5 32.25l6.95-.45q8.4-.95 15.35-3.05 22.35-6.75 22.65-23.25.2-12.85-6.85-19.75-2.2-2.15-4.85-3.45l-.15-.05q9.1-10.25 9.1-20.5 0-5.15-2.4-10.7-2.4-5.55-6.1-9.25-4.4-4.35-10-6.6-1.55-.55-3.15-1 1.05-1.9 1.9-4 3.05-7.3 3.05-15.15 0-12.5-6.95-20.55-7.4-8.55-19.95-8.55-6.2 0-12.3 2.8-5.05 2.4-8.4 6.2-2.15-5.85-7.1-10.15-8.3-7.4-20.7-7.4-10.9 0-21.95 7.05m.65 24.55q-7.2 4.35-9.5 4.35-2.95 0-3.45-3.7.55-6.25 3.75-11.65 2.45-4.2 6.6-7.9 10.65-9.5 25.7-9.5 9.95 0 16.5 6.5 6.05 5.95 6.05 13.55 0 5.35-4.8 8.75-3.55 2.45-6.65 2.45-2.9 0-9.1-3.55-6.15-3.7-11.1-3.7-6.8 0-14 4.4m70.85-19.85q.95-.05 1.95-.05 7.3 0 10.75 4.3 2.75 3.25 2.75 8.6 0 5.6-2.3 8.65-2 2.7-5.2 2.7-1.95 0-6.9-2.7-5.95-3.25-7.6-3.75-6.05-2-6.7-2.4-2.8-1.6-2.8-4.85 0-3.35 4.3-6.7 3.65-2.9 8.9-3.6 1.4-.15 2.85-.2m-50.15 69.25q6.45-.65 14.15-.65 20.85 0 30.2 3.35 13.35 4.85 21.9 20.05-4.5-.35-10.1-.65-6.3-.35-13.95-.65-14.4-.55-27.15-.65.05-2.55 0-3.75-.25-2.65-2.6-2.65-.1 0-.25.05-.1-2.4-.15-3.55-.3-2.9-2.65-2.9-1.7 0-2.85 3.35-.25.95-.45 1.85-1.15 0-1.9 1.2-.95 1.55-.95 4.45l.1 2q-16.15.05-24.35.95-1.65.25-11.55 1.85-4.55.7-10.75 1.7 1.55-3.9 4.15-8 5.2-7.7 12-10.45 8.45-3.4 15.75-5.05 1.75-.45 3.45-.75 3.7-.7 7.95-1.1m22.4 27.95q1.85-.05 3.7-.05l11.1-.3q2.45-.1 4.85-.15 9.6-.3 17.3-.45.05 0 .15 0 5.95-.2 10.95-.3-5 .1-10.95.3-.1 0-.15 0-.1 3.45-1.05 6.6-1.8 5.85-6.45 10.8-7.8 8.2-17.25 8.2-.8 0-1.55-.05-11.85-.65-18.7-11.05-2.35-3.75-3.7-8.1-.75-2.45-.8-3.7-2.25 7.6-8.45 13.05-4.75 4.25-10.15 5.6-2.4.55-4.9.55-9.6 0-16.1-7.05-4.95-5.5-6.15-11.9-3.8.05-4.95.05 1.15 0 4.95-.05.8-.05 1.75-.05 4.5-.2 11.6-.55 1.9-.05 4-.1 5.35-.15 11.95-.4 1.45-.05 3-.05 5.3-.15 11.4-.4.85 0 1.65 0 .4-.05.7-.05 6.3-.2 12.25-.4m-12.95-14q.05 1.75.05 3.4 0 1.85.1 3.45.1 4.55 0 6.95.1-2.4 0-6.95-.1-1.6-.1-3.45 0-1.65-.05-3.4m2.5 5.15q0 .85 0 1.7 0 4.5-.2 5.85v.75-.75q.2-1.35.2-5.85 0-.85 0-1.7m-4.85.15.05 8.5zm3.2 33.4q.2 0 .35 0 2.45-.2 5.35.55 1.15.35 2.15.95 2.8 1.75 2.8 5.2 0 2.65-1.05 3.7-1.15 1.1-3.9 1.1-.6 0-2.35-.35-1.75-.4-2.2-.4-3.4 0-5.7 1.95-.85.7-1.55 1.7-2.5 3.6-4.5 3.6-2.05 0-3.2-1.45-1.1-1.35-1.1-3.2 0-.35.05-.65.05-.55.15-1 .15-1.25.7-2.35.25-.7.65-1.3 1.4-2.4 3.35-3.9 4.5-3.65 9.6-4.1.2-.05.4-.05m-51.6-85.45q0 3.05-3.55 5.4-4.55 2.4-6.4 3.4-1.7.85-4.6 4.85-2.4 3.35-4.35 3.35-1.65 0-2.55-2.55-.2-.45-.3-.9-.2-.9-.2-1.5 0-7.3 4.65-12.4.25-.35.55-.65 4.8-4.95 11-4.95 5.75 0 5.75 5.95m-18.65 40q4.1-5.05 8.8-5.05 1.95 0 3.1 1.75 1 1.5 1 3.4 0 2.7-6.5 7.9-6.1 4.9-8.4 4.9-.9 0-1.8-1.45-.15-.2-.2-.35-.05-.55-.05-1.2 0-5.05 4.05-9.9z" fill="#f99"/>
            <path d="m292.7 346.35q-.6-.9-1.3-.9-1.55 0-1.5 2.45 0 1.3.15 3.05.15.95.25 2.1.05.6.05 1.3-.05.7-.05 1.85v.35q-.05.55-.05 1.25-.05.45-.05.95-.2 3.55-.55 5.65-.05 1.2-.9 2.1-.15.2-.35.35-.75.7-1.8.9-4.3.5-4.1 2.15.2 1.35 1.5 1.6h2.2q4.75 0 6.1-.7 1.9-1 2.1-3.95.1-.95-.05-2.1-.85-15.8-.95-16.5-.15-1.05-.7-1.9m-76.65-108.75q-4.6 4.3-5.25 9.3-.1.65-.1 1.2.05.15.15.35.7 1.6 1.6 1.7 2.25.3 8.95-3.8 7.1-4.35 7.45-7.05.2-1.9-.55-3.45-.95-1.9-2.9-2.15-4.65-.6-9.35 3.9m48.3-2.1q1.55-1.2 2.95-1.95-1.9-1.05-4.1-1.9-3.85-1.45-7.35-1.65-8.25-.6-14.6 5.75-1.05 1.05-1.95 2.2-1.15 1.4-2.1 3-1.95 3.1-3.3 6.9 1.85 3.5 6.4 7.7 3.3 3.1 7.3 5.75 0-.15.05-.3.25-1.3.65-2.55 2-6.95 7.5-14.2 4.05-5.35 8.55-8.75m-10-61.2q-3.85 4.95-5.2 11.1.05 3.7 3 4.05 2.25.3 9.95-3.1 7.7-3.45 14.45-2.6 4.9.65 10.5 5.05 5.7 4.3 8.6 4.65 3.05.4 6.95-1.55 5.15-2.8 5.8-8.1.95-7.55-4.3-14.25-5.65-7.25-15.5-8.5-14.95-1.9-26.7 6.25-4.6 3.1-7.55 7m-31.3 22.85q-.3.25-.6.55-.3.25-.6.55-1.75 1.65-2.95 3.6-2.05 3.35-2.6 7.6-.1.6 0 1.5.05.45.2.95.55 2.65 2.2 2.85 1.9.25 4.7-2.75.05 0 .05-.05 1.75-1.9 3.1-2.95 1.2-.95 2.05-1.25 1.95-.8 6.75-2.6 3.85-1.85 4.25-4.9.75-5.9-5-6.65-6.15-.75-11.55 3.55m79.5 48.9q.5-2.55 1-4.55-.3.05-.6.1-15.6 2.7-17.6 24.8 1.3.65 3.2 1.4 3.6 1.35 7.7 1.8 4.05.4 5 .4-.4-2.1-.4-5.95 0-9.1 1.7-18m44.4-64.75q-2.9-4.65-10.15-5.55-1-.15-1.95-.2-1.45-.15-2.8-.15-5.35 0-9.3 2.4-4.7 2.8-5.1 6.1-.4 3.25 2.15 5.2.6.5 6.35 3.2 1.6.7 7.05 4.7 4.6 3.3 6.55 3.55 3.15.4 5.45-2 2.7-2.8 3.4-8.35.65-5.3-1.65-8.9m-249.15 162.65q-1.55 0-1.9 2.45-.15 1.3-.3 3.05.05.95-.05 2.1-.05.6-.15 1.3-.15.7-.3 1.85l-.05.35q-.15.55-.25 1.25-.1.45-.2.95-.7 3.55-1.35 5.65-.25 1.2-1.2 2.1-.2.2-.4.35-.85.7-1.95.9-4.4.5-4.4 2.15 0 1.35 1.25 1.6h2.2q4.75 0 6.2-.7 2.05-1 2.7-3.95.2-.95.25-2.1 1.45-15.8 1.45-16.5 0-1.05-.4-1.9-.45-.9-1.15-.9m-61.35-105.3q-4.7 0-8.8 5.05-4.05 4.85-4.05 9.9 0 .65.05 1.2.05.15.2.35.9 1.45 1.8 1.45 2.3 0 8.4-4.9 6.5-5.2 6.5-7.9 0-1.9-1-3.4-1.15-1.75-3.1-1.75m6.3-29.55q3.55-2.35 3.55-5.4 0-5.95-5.75-5.95-6.2 0-11 4.95-.3.3-.55.65-4.65 5.1-4.65 12.4 0 .6.2 1.5.1.45.3.9.9 2.55 2.55 2.55 1.95 0 4.35-3.35 2.9-4 4.6-4.85 1.85-1 6.4-3.4m59 26.75q-7.7 0-14.15.65-4.25.4-7.95 1.1-1.7.3-3.45.75-7.3 1.65-15.75 5.05-6.8 2.75-12 10.45-2.6 4.1-4.15 8 6.2-1 10.75-1.7 9.9-1.6 11.55-1.85 8.2-.9 24.35-.95l-.1-2q0-2.9.95-4.45.75-1.2 1.9-1.2.2-.9.45-1.85 1.15-3.35 2.85-3.35 2.35 0 2.65 2.9.05 1.15.15 3.55.15-.05.25-.05 2.35 0 2.6 2.65.05 1.2 0 3.75 12.75.1 27.15.65 7.65.3 13.95.65 5.6.3 10.1.65-8.55-15.2-21.9-20.05-9.35-3.35-30.2-3.35m37.95-68.65q-1 0-1.95.05-1.45.05-2.85.2-5.25.7-8.9 3.6-4.3 3.35-4.3 6.7 0 3.25 2.8 4.85.65.4 6.7 2.4 1.65.5 7.6 3.75 4.95 2.7 6.9 2.7 3.2 0 5.2-2.7 2.3-3.05 2.3-8.65 0-5.35-2.75-8.6-3.45-4.3-10.75-4.3m-82.3 24.25q2.3 0 9.5-4.35 7.2-4.4 14-4.4 4.95 0 11.1 3.7 6.2 3.55 9.1 3.55 3.1 0 6.65-2.45 4.8-3.4 4.8-8.75 0-7.6-6.05-13.55-6.55-6.5-16.5-6.5-15.05 0-25.7 9.5-4.15 3.7-6.6 7.9-3.2 5.4-3.75 11.65.5 3.7 3.45 3.7z" fill="#ffc4ce"/>
            <path d="m295.75 318q-.3-1.6-.6-3.2l-8.85-1.1q.3 2.3.6 4.55 1.75-.1 4.15-.15l4.55 27.1q3.55 24.75.45 28.7.8-.1 1.45-.35 1.8-.7 2.15-2.85.05-.85.05-1.85.15.7.5 1.35 1 2.1 3.1 2.8.5.2 1.05.3.45.05.85.05.85.05 1.6.15-4.3-2.3-9.5-30.5-3.65-19.7-4.3-24.7-.05-.15-.05-.25 1.45-.05 2.8-.05m-192.4-1.2q0-.15 0-.25 1.45-.05 2.8-.05-.15-3-.3-6.15h-8.5q0 3.3-.05 6.4 1.75-.1 4.15-.15l.55 27.1q-.1 24.75-3.75 28.7.8-.1 1.5-.35 1.9-.7 2.55-2.85.2-.85.35-1.85.05.7.3 1.35.7 2.1 2.65 2.8.5.2 1.05.3.4.05.8.05.85.05 1.6.15-3.95-2.3-5-30.5-.75-19.7-.7-24.7z" fill="#c44e75"/>
            <path d="m348 283.6q.4-3.1-1.9-5.4-2.5-2.45-6.15-2.25-45.1 12-86.2-5.1-.45-.2-.85-.35-2.9-1.25-5.8-2.6-6.8-3.25-13.5-7.3-3.7-1.25-6.45.45-2.95 1.55-3.3 4.65-.7 2.9 1.85 5.65 1.7 2 5.6 4.3 15.65 9.15 30.85 14.3 1.3.4 2.6.85 9.8 3.05 19.45 4.45 25.85 3.75 53.65-4.35 1.25-.35 3.6-1.05 1.95-.6 3.2-1.35 2.7-1.95 3.35-4.9m-89.7-2.45q.4.15.9.35 9.85 3.55 20.35 5.35 30.75 4.9 60.4-3.05-29.65 7.95-60.4 3.05-10.5-1.8-20.35-5.35-.5-.2-.9-.35-14.3-5.25-27.4-14.3 13.1 9.05 27.4 14.3m-160.05 8q-.15 0-.35 0-.2 0-.4.05-5.1.45-9.6 4.1-1.95 1.5-3.35 3.9-.4.6-.65 1.3-.55 1.1-.7 2.35-.1.45-.15 1-.05.3-.05.65 0 1.85 1.1 3.2 1.15 1.45 3.2 1.45 2 0 4.5-3.6.7-1 1.55-1.7 2.3-1.95 5.7-1.95.45 0 2.2.4 1.75.35 2.35.35 2.75 0 3.9-1.1 1.05-1.05 1.05-3.7 0-3.45-2.8-5.2-1-.6-2.15-.95-2.9-.75-5.35-.55m-3.5 6.6q2.8-1 5.65-.75-2.85-.25-5.65.75-2.8 1-4.75 3.6 1.95-2.6 4.75-3.6z" fill="#f36"/>
            <path d="m81.4 271.4q1.95-2.55 2.6-6.1-1.55 0-3 .05-6.6.25-11.95.4-2.1.05-4 .1.55 3.25 3.3 5.9 3.25 3.05 6.45 3.05 3.9 0 6.6-3.4m28.6-6.95q.1 4.25 2.4 6.8 2.55 2.75 7.45 2.75 3.75 0 6.45-3.15 2.4-2.65 3.35-6.9-2.4.05-4.85.15v.55-.55l-11.1.3q-1.85 0-3.7.05z"/>
        </g>
        <path id="Layer0_0_1_STROKES" d="m124.8 264.1v.55" fill="none" stroke="#000" stroke-linecap="round" stroke-linejoin="round"/>
        <path id="Layer0_0_2_STROKES" d="m123.7 70.75q-2.45-2.95-5.85-5.65-4.05-3.25-8.6-5.55-.75-.4-1.35-.7-2.4-1.25-3-1.25-3.45 0-6.25 1.25-3.7 1.55-6.25 5.35 1.5.4 3.35 1.2 1.7-.35 3.6-.35 3 0 6.55 2.2 2.35-.4 5-.4 7.05 0 12.8 3.9 1.75 1.2 3.4 2.7 7.35 7.05 7.35 17.55 0 6-4.3 12.05.6 1.95.6 3.7 0 2.05-.85 3.75-1.45 2.55-4.4 2.85.6 2.6.6 4.65-4.55 0-9.1-1.75-3.8 3.1-9.35 4-.25 2.15-2.45 4-3.35 2.2-4.95 3.8 1.15.65 3.75 1.7 2.25 1.05 2.7 2.95-.4.1-2.55 1.8-2.25 1.9-3 2.85.3.15 3.15 2.75 2.85 2.5 3.35 2.8l-2.75 4.65m7.9-72.3q.9 0 1.85.1-1.7-2.35-4.2-4.65-2.4-2.2-4.55-3.45-2.3.3-4.3.85 3.6 1.95 7.05 4.35 1.85 1.4 3.6 2.85.2-.05.55-.05zm-22.4-7.75q.45-.35 1-.55-.35-.1-.65-.1-.15.3-.35.65-.1.2-.2.4-2.6 5.7-2.85 10.8.8-1.3 1.8-2.55 4.05-5.1 10.3-7.35-3.65-1.7-8.05-1.85 2.05-1.1 4.35-1.55.3.05.55.2 2.75 1.15 5.3 2.5-1.2.3-2.15.7 3 1.3 5.45 3.65.85.9 1.65 1.85 1.45.6 3 1.8 1.25-.75 2.7-.8 2.5 2.1 4.5 4.4-.75-2.25-2.1-4.35 2.95.6 5.9 2.7 6.55 4.6 6.55 14.8 0 1.4-.3 2.95 3-4.8 3-9.35 0-8.4-6.1-15.7m-32.95-3.9q-.4 0-.75 0-6.85 0-11.95 6.55-4.65 5.9-4.65 12.05 0 3.75 1.45 6.85 2.05-2.25 4.15-4.05 0-6.7 4.6-13.9 2.95-4.6 6.8-6.85m.35-.65q.7-1.45 1.65-2.65-3.1-1.05-5.05-1.05-9 0-13 6.55-2.75 4.5-2.75 11.1 0 6.75 3 11.8.1-.2.25-.3 1.65 3.5 5.05 6.1 1.85 1.35 3.8 2.4-.1-.5-.1-1.05 0-.85.1-1.6-4.7-3.7-4.7-9.9 2.85-2.5 5.85-4.2.85-2.8 2.5-5.35 0 .3 0 .75 0 1.6.4 3.1.8-.45 1.75-.75 1.3-1.25 2.9-1.65.2-.7.4-1.15 1.4-3 5.05-3.65 2.15-1.95 4.65-1.95 2.1 0 4.05.9 1 1.2 1.8 2.6.5-.5 1.2-.8 1.4 1.25 2.8 2.9 2.45.35 4.9 2.35-.2-.85-.5-1.65 2.45 2.6 4.15 5.5 2.6 3.8 3.25 8.45 1.2 1.35 2.2 2.7.15-.25.45-.55-.15.4-.3.75 2.65 3.45 3.65 6.5-1.7 2.35-4.05 4.65-.85.85-1.8 1.7.75 2.1 1.2 3.95-.35 0-.75 0-2.55 0-4.55-.75-.2.35-.5.75-1.25 1.65-2.7 2.9-1.1-.45-2.2-.95-3.6 1.35-7.4 1.65.25 1.45.25 2.7 0 .3 0 .6-2.2.35-4.65.35-1.25-.05-2.6-.35-4.3 2.15-8.1 2.15-3.05 0-4.95-1.8.3-1.3 1.75-3.75-.15-.05-.25-.1-5.05 1.25-10.35 1.25-3.65.2-6.9-1-6.55-2.2-6.55-9.3 0-1.25 2.45-5.45 2.95-4.95 6.85-9.4.2-.1.25-.25 2.25 3.8 6.3 6.7 1.35 1.05 2.7 1.9 0-.25.1-.35v-.05q.1-1.15.35-2.4-.15-.2-.35-.25.1-1.75.3-3.3-.4-1.65-.4-3.4 0-3.9 1.25-7.4 1.35-.85 2.9-1.5.05.5.2 1 .7-1.1 1.55-1.75 1.3-.55 2.75-.85.05-.45.15-.8.8-.25 1.75-.25.2 0 .35.05.45-.95 1.1-1.85 1.05-1.65 2.25-2.75.9-.1 1.9-.1 3.25 0 7.6 2.55.5-.55 1-.9.5 1 1.05 2.1.47285156 0 1 0h.1q.45 0 .85 0 .45 0 1 0 .25.45.6.9l.35.05q2.55 1.7 2.7 5.9.45.75.8 1.55.4.25.75.5.2-1.1.2-2.45 0-2.15-.5-4.1 1.2.95 2.45 2.3.65.75 1.2 1.55 2.3 4 3 8.25.05.1.25.2.1 1.35.1 2.7v.05q.4.9.6 1.9.7-.8 1.35-1.75.1-.15.15-.2.05.05.15.2-.45 1.75-1.35 3.5 0 .6 0 1.15 0 3.05-1.55 6.05.35 1.15.7 2.15-2 1.85-4.1 3.2-.7-.25-1.35-.55-2.55 1.3-5.9 1.3-.5.2-.9.5 1.35.85 2.75 1.45 2.8-1 5.4-2.7.85-1.2 1.5-2.65-1.2 1.3-2.85 2.1-1.2-.65-2.1-1.5-1.8 1.55-3.8 2.8-.1 0-.15 0-1 0-1.8 0 .45.2 1.05.5-2.4 1.3-4.9 2.2.05.45.25.9-.9.05-1.75.05-2.75 1.95-5.25 3.25-1.95-.5-3.95-1.5-.7-.35-1.3-.75-3.35-.1-6.05-1.15.05-.1.15-.2-.25 0-.4.1-.8-.3-1.5-.7-4.65-2.5-4.65-7.35 0-2.9 1.1-5.85-.2-.6-.2-1.2 0-.25 0-.45h.1q0-.25 0-.35m10.65-20.5q-.4.75-.7 1.55.75-.1 1.45-.1 1.4 0 2.85.5-1.65-1.55-2.7-2.05-.5 0-.9.1.05-.15.15-.4.3.1.75.3 2-.35 4.1-.35 2.9 0 5.5.6.2-.15.5-.3.95-1.35 2-2.4.9.6 1.9 1.3.05-.1.15-.1l.1.1q.4453125-.0890625.9-.1m-16.75 2.9q-.85.1-1.65.4-.15.95-.15 2.25 0 .85.1 1.65.45-.35.9-.75.05-1.8.8-3.55zm6.3 2.3q-.75-.7-1.3-1.3-3.05.6-5.8 2.55-.05.45-.05 1 0 1.8.3 3.5 2.45-2.1 5-3.4.85-1.25 1.85-2.35.3-.35.65-.65-.65-.4-1.25-.7-.4 0-.7.05-.4-.35-.7-.6.65.15 1.4.55.9-.15 1.8-.15.15 0 .4 0 1.55-1.35 3.3-2.2.2 0 .35.05.15-.2.15-.35 1.65-.75 3.4-1.05.25-.05.5-.05h.05.2q0 .05 0 .2.4.25.9.6 3.55 2.65 5.45 5.55-1.05-3-2.9-5.55l-2.45-.9m-16.15 1.35q-1.15.2-2.1.6-.2.55-.25 1.35-2.15.6-3.75 2.3.75 1.7 1.95 3.25.85-.9 1.75-1.65.05 2 .55 3.9.1.15.25.25.1-.25.35-.4 0 .4.05.75.3.2.65.45.65.4 1.2.75 1.45-3.1 3.1-5.35 1.4-.8 2.95-1.25-.65-.6-1.1-1.1m-4.95 7.7q.3.2.7.4 2.6-4.35 6.05-6.15-.3-.4-.6-.7-.05-.05-.1-.15.7-.3 1.4-.4-.1-.1-.4-.3-.75-.55-1.45-1.05.45-.4.95-.85 1.05.05 2.15.45.15-.25.3-.45.55-1.15 1.2-2.15.45.1.85.2 1.15-1.15 2.7-1.6.3 0 .55-.05.1.05.2.2.65 1.65 1.1 3.45 2.3 1.45 3.65 3.3.85.4 1.75.9 0-.3 0-.5 0-.15 0-.2-.1-.4-.15-.8.05.15.15.4 0 .2 0 .4.2.4.25.85.35.15.55.3.25.5.4 1 .1 0 .2.1.1-.3.15-.6 2.95 1.9 5.8 4.95.25.3.55.6.3 1.4.35 2.9-.55-1.3-1.35-2.3.45 1.25.45 2.5 0 2.25-2.45 4.35.15.25.2.5 1.65-.95 3.1-2.4 0-.3.05-.6 0-.5 0-.9 0-.15 0-.35 0-.3 0-.6 0-.05 0-.15m-36.3-12.85q-.75 1.25-1.5 2.9-.8 1.8-1.25 3.5.15-.4.35-.75 1.05-2.9 2.7-4.6-.15-.55-.3-1.05zm-3.05 14q.3.75.7 1.35 1.75-3 4.55-6.05 1.25-1.3 2.45-2.4-.1-.2-.1-.35-1.35-1.05-2.3-2.25-.95 1.05-1.95 2.25-2.35 3.3-3.5 6.4.05.55.15 1.05-.15-.4-.3-.8-.3.8-.55 1.65.7.4 1.4.85v-.05q-.35-.8-.55-1.65zm-.15-1.05q-.1.15-.15.25-.35-.9-.6-1.9.45-2.55 1.2-4.9-.6 2.45-.6 4.75 0 .95.15 1.8zm16.2-5.3q-.65.25-1.3.5-.25 1.1-.3 2.15.45.15.95.3.3-1.55.65-2.95.1-.5.2-.95.1-.3.15-.45.25-1.2.75-2.7-.45.55-.9 1.2-1.05 1.65-1.5 3.4-1.35.6-2.55 1.25 1.05.5 2.25.9 0 .2 0 .35 0 2.05.4 3.7.2-1.95.55-3.75.5.1 1.1.3-.25-1.6-.25-3.35-.1.05-.2.1zm-8.2-.85q.15.1.4.35.35 1.8 1 3.45.25-.75.55-1.35.15-.45.3-.9m-2.25-1.55q-.15 0-.15.1.45 2.1 1.35 4.25.1-.3.2-.55.05.25.25.45.55-1.25 1.3-2.3.6.3 1.4.65-1.4.8-2.65 1.85 1.6 3.6 5 5.95.05-1.5.3-2.85.5 2.1 1.65 3.5 1.05-.95 2-1.55-1.5-2-2-5.4 1.5.15 3.05.25.15-.5.45-1 .45-.8 1-1.35-.55-1.15-1.25-2.3-1.85.35-3.5 1.05 0-.65.15-1.3.45-1.6.95-2.95-.1.1-.2.25 0-.15.2-.45-.3-.35-.5-.5.4-.3.85-.55.1-.2.2-.4-.2-.2-.35-.3.3-.05.5-.05.35-.9.75-1.7.15 0 .3.05.95-1.4 2.05-2.45 2.3.75 4.4 1.95.05.05.15.05.2 1.1.4 2.2 1.6.35 3.25 1.1.4.55.8 1.2.1.1.35.15.3.15.55.3.05-.35.05-.75.2 0 .25.15.05.35.2.85.35.2.75.45.05.2.1.35.1-.15.1-.25 4.25 2.6 5.5 5.55-1.05-1.2-2.35-2.15-1.4-1-2.9-1.65.1.85.1 1.65 0 1.15-.45 2.35 1.75 2.6 3.6 6.65-.1.2-.35.3-.95.8-2.2 1.35 1.4-.45 2.75-1.15.35.7.75 1.6 0 .25.2.45 1.75-1.95 2.15-4.45.35-.35.65-.7.2.85.3 1.75-.5 1.1-1.25 2.35-.3 1.85-.8 3.65.25.6.5 1.2-.1.25-.25.45-.75 1.2-1.65 2.25.85-1.85 1.4-3.9-.35-.85-.6-1.6-1.25 1.55-2.9 3.25-1.45 1.5-2.85 2.85-1.3-1.2-2.15-2.75-.35.1-.65.15-1.35 2.5-3.65 4.95.4.15.7.45-.55-.15-1-.15-1.35 1.35-2.9 2.7 0 .05.05.15-.35.2-.65.3-.45.3-.85.65-.2 0-.3 0-.75.1-1.5.1-3.9.9-8.25.9-.25 0-.45 0-1.55-1.05-2.55-2.35-1.65.6-3.35 1 .85-1.35 2.1-3.1-.3-.5-.55-1.2h-5.25q-.95-1.4-.95-3.65 0-.45.55-1.85-.55-1.25-.9-2.6-.35-.6-.45-1.4 0-.15.1-.3-.2-.6-.2-1.35.3.15.6.3.05-.15.15-.35-.4-.2-.75-.35m10.45-5.8q-.05 0-.05.05v.05q.0015625-.0515625.05-.1.05-.2.25-.4 0 .1.05.2-.1.05-.3.2zm-.05.1q-.15.25-.3.55-.5 1.05-.95 2.15-.6 1.95-1.05 4 2.75.8 5.7 1.15.65-.1 1.4-.15-3.1-3.8-4.8-7.7zm-.15-.4q0 .15.15.35-.2.15-.45.3-.45 1.2-.8 2.45-.9 2.05-1.45 3.9.15.1.4.1-.15.65-.25 1.2 1.25.05 2.6.05 1.7 0 3.35-.1.8.05 1.6.1-.15-.2-.2-.25.2-.1.45-.1 0-.25 0-.6.05-.7.1-1.35.35.15.8.45.45.2.85.5.15-.1.3-.3.25.4.65.7 1.35-.4 2.65-.9-.05-.05-.05-.1-.65-.55-1.25-1.25.45-.3.9-.4-.3-1.4-.3-2.45 0-1.1.45-2.3.2 0 .45 0 1 0 1.8 0v-.15q-.35-1.15-.8-2.2.3-.3.65-.45-.3-1.15-.65-2.1-.65.1-1.25.25-1.05-1.65-2.3-3.25-.1 0-.1.05m-8.3 7.85q-.15.3-.3.65-1.85 1.5-3.5 3.45-.85.95-1.6 2 .6.15 1.2.4.75.3 1.65.5-.25.55-.35 1.25.15 0 .5.05-.1.55-.15 1.15 3.05.75 6.45.8.75-.85 1.55-1.6-.2-.2-.3-.3.1-.05.25 0 0-.2 0-.35.4-.1.85-.15.4-.45.9-.85.35.25.85.4h.1q.1 0 .2.15.7.3 1.45.6.6-.65 1.15-1.45-.15-.1-.15-.2l.15-.05q-.15 0-.2-.05-.05-.45-.2-.95-.15-.4-.15-.7.95-.65 1.8-.8.6-1.95.6-3.95h.1l-.1-.15q0-1.4-.15-2.65 1-.8 2.5-.8 1.25 0 2.3.45 0-.8 0-1.5 0-.45 0-.85-2.8.05-5.45.6-.85-2.25-2.5-3.95-.6.35-1.05.95l-.1-.15q.1-.5.35-1.05.1 0 .2 0 0-.2.1-.3-.1 0-.1-.1.1-.25.15-.35.05-.05.25-.05.35-.85.8-1.6 1.35.45 2.9 1.35.09375 0 .225 0h.075q.25 0 .45 0 1.65 0 3.35.4.15.45.2.95 1.6.6 3.85 1.35.4.95.7 1.95.15-.8.2-1.5.25.15.5.25.15.95.3 1.95.05 0 .15.05.2-.5.4-1.2.25.75.35 1.5-.4-.2-.75-.3-.1.1-.15.3.05.85.05 1.65 0 .7-.05 1.5.00136719.05566406.05.25.25.3.5.6-.25.55-.55 1.1-.15 1.2-.8 2.55.05.9.05 1.85 0 1.65-.25 3.3 1.3-.1 2.6-.5-1.25.6-2.75.9-.45 1.95-1.3 3.75.05.3.3.6 4.45-1.2 6.95-3.75.3-.3.5-.6.2.45.45 1 .8-1.1 1.4-2.05.25-1.65.3-3.4m-21.4-13.4q.1-.15.2-.15-.05-.15-.1-.15.1-.3.3-.5 1.25-.25 2.6-.25.4 0 .75.05.15-.05.35-.05v.05q.09375-.046875.225-.05m-3.725 1.3q-.15-.25-.4-.4 1.45-.6 3.05-.75.2-.1.5-.1.05 0 .15 0 0-.05.2 0h.1q.4.1.9.2-.5-.2-.7-.25m-1.15.15q-1.45.2-2.65 1.15m7.8.15v-.1q-.0484375 0-.15-.05.1015625.053125.15.15 1.05.5 2.1 1.35 1.2 1.05 2.05 2.2.1 0 .25.05.1-.15.15-.4 0 .25.1.4.4.2.9.3 0 .15 0 .35-.3.4-.55.85.5 1.1.55 2.3 0 .053125 0 .15l.05.1q0 .3 0 .55 0 .6-.05 1.15-.15.3-.35.55-.2.85-.5 1.65 0 .2.05.35-.5 1-1.2 2.1-.2.65-.55 1.2-.5.9-1.3 1.5 0 .15.05.35.75 0 1.6 0 .55 0 1.2 0-.05.25-.15.4-1.1.3-2.5.45.4 1.85 1.2 3.3-.2.35-.35.75-2.15.45-4.55.6-.95 1.5-1.45 2-.2.25-.35.45 1.4.9 2.7 1.9-.15.15-.3.3-2.4-.15-4.2-.6.8 1.7 1.3 3.3-.2.05-.4.15-.1.2-.2.3-1.3.4-2.65.75-3-.1-5.8-1.05-1.75-.55-2.95-1.35-1.3.5-2.5.95-.8-.95-1.25-2.1.15-.4.45-.8-.4-.15-.85-.4h-.15v-.05q-3.9-1.95-5.65-5.45.1-.25.4-.6-.9-.95-1.3-2-.25-.8-.35-1.7.15-.45.4-1.05 1.4.75 2.95 1.35.1-.3.35-.6-1.65-.45-3.15-1.1.4-1 1-1.9l.1.05-.1-.1q.1-.1.15-.3.2.35.4.75 1.25.65 2.55 1.15-.35.5-.7 1 .3.3.65.7 1.25.2 2.55.45-.25.5-.3 1.1.3.05.65.1-.05.2-.05.35 2.7 1.3 5.05 1.35h.1q.3 0 .5 0 .45-.45.85-.9.25 0 .5 0 .6 0 1.15 0-.1-.8-.1-1.6-.05-.1-.05-.3.1 0 .25 0 .3-.25.6-.5.85-.15 1.75-.45.1.1.3.15.5.35 1.05.75.1-.05.4-.05v-.1q.1 0 .15.1 1.8-.25 3.35-.7-1.4-.45-2.3-1.05-.05.1-.05.2m6.2-15.55h-.05q-1.5-.85-3.1-1.05m3.45 4.4q0-.45 0-.9-.45-.45-.9-.9-1.8-1.7-3.45-2.8m.6 13.8q0 .6.05 1.25.7-.5 1.5-1-.7-.25-1.5-.25h-.05q-.2-1.9-.8-3.7 2.45-.15 4.35-.65.15-1.2.2-2.5.8.35 1.6 1 .25-1.25.35-1.9-.5-.75-1.15-1.45-.4 0-.8 0m-1.05 8.4q.6-.45 1.05-1.05.6-.6 1.05-1.05.05-.9.4-1.95-.85.3-1.65.5-.35 1.85-.85 3.55-.2.6-.4 1.2l.1.1q1.15.4 1.35.4v.2q.6-.5 1.05-1-.05-.95-.05-1.95 0-.45.05-1.05.8-1 1.4-1.95-.1-.2-.2-.35-.4.2-.8.35 0-.2.05-.4.05-.3.1-.6.15.2.35.3.1.1.3.35.3-.15.6-.35h.05q.05-.1.1-.25-.45-1-1.05-1.95 0-.3 0-.55.8.55 1.65 1.35.4-.8.6-1.55-.15-.25-.2-.35-1.55-.35-3-.35-.1 0-.2 0-.4-.45-.8-.9-.05-1.25-.15-2.3m-3.55 13.65q0 .3 0 .65 0 .9-.05 1.9.35-.1.75-.25.9-1.5 1.55-3.15-.35-.1-.75-.15.55-.5 1.15-1.05m-2.7.8q-.7 0-1.5.25-.45 1.2-1.05 2.45 1.3-.65 2.6-1.45m7.95-10.05q-.05.05-.05.3.2.35.4.75-.05-.55-.1-1.05-.15 0-.25 0zm.35 1.05q0 .25.05.6.15-.05.2-.15-.05-.25-.25-.45zm-1.6 1.95q.3-.6.6-1.15.2.15.5.45.3-.3.55-.65 0 .3 0 .65 0 .3-.05.65.45.4.8 1-.05 1.25-.35 2.35-.25.45-.65.85.1.4.15.8-.35.95-.95 1.7 0 .4-.2.75-.8 1.2-1.9 2.5 0 .05.05.2-.3.15-.55.35.25 0 .6 0 .05.4.15.85-.85.15-1.75.15v.9q-1.2 2.2-1.95 3.6-1.5.15-3.15.15-.2 0-.45 0-.3.15-.55.4 1.1.95 2.35 1.9-.9.8-1.85 1.45.05.05.05.15-.15 0-.15-.1-2.25 1.35-5.15 1.65-1.4 1-2.65 1-1.2 0-2.25-.6-.3.15-.5.15-1-.55-1.75-1.35-.75-.3-1.55-.6.15-.15.25-.4h-1.1q-.1-.05-.15-.05-.5-1.5-.6-3.2-1.35-.55-2.85-1.4-1.15-.65-1.8-1.45.05-.45.25-.85.65-1.25 1.45-2.55 1.2.5 2.55.9-1.15-.7-2.05-1.5-.1 0-.15 0 0-.05.05-.05-1.35-1.3-2.1-2.9.25.2.45.35.8 1.15 1.85 2.15-.1.2-.2.4l.1.05q.35.15.75.25.9.75 1.8 1.4.2 0 .45.15-.1.05-.1.1.2.1.5.3.05.05.2.05.2.2.6.45.85.45 1.75.9h2.7m17.85-13q.05-.05.25-.1l-.15-.15m1.6-.05q-.25-.35-.5-.65-.5.45-.95.85.45.9.75 1.85.6-1.15.7-2.05zm-1.7.3q-.2.3-.45.7.7.85.95 1.85.3-.4.5-.8.3 1.05.5 2.15-.3.4-.65.75 0 .25 0 .4 0 .75-.15 1.35-.35.6-.75 1.05-.7.65-1.55 1.35.15.45.2.85-.25.3-.5.55-.55-.05-1-.05v.45q.6-.15 1-.4-.4.4-1 1v-.6q-.9.4-2.1.6.75 0 1.65 0 .25 0 .45 0-2.3 2.2-5.55 4.65-.3 0-.55 0-.2.1-.2.2 0 .1.2.2-.3.2-.55.45-.15.2-.3.5.65.95 1.25 2.25 0 .05.1.15l-.1.05q-1.5-.35-2.45-.9-1.35 1.6-2.7 2.55-.85.1-1.75.1-1.05 0-2.15-.15-.5.2-1 .45-.5-.3-1.05-.8-.6-.2-1.2-.4-.45-.45-.75-1h-.55q.2-.15.35-.3-.85-1.2-1.2-2.7-.45-.15-1-.25-.05-.4-.05-1 0-1.75.5-3.9-.25-.05-.45-.15-.2-.2-.4-.3.2 0 .5.15.1.15.35.25v.05q.2.15.5.25m21.25-5.95q0 .65.05 1.35.95-.65 1.75-1.45.45-.5.9-.9-.05-1.15-.35-2.1-.85 1.35-2.35 3.1zm-9.6-12.9q-.3.55-.45 1.2m10.1 13.05q.1.95.2 1.8-.55.45-1.3.8v.55q-.45-.05-.85-.05-1.2.5-2.55.9.7.05 1.3.2-.6 0-1.2 0-.4 0-.7 0-.15 0-.2 0-.55 2.3-1.9 4.65-.3 0-.6 0 .2.1.4.2-.15.3-.35.65-.25.1-.45.2.05.1.15.3-.25.15-.4.45-.45.55-.8 1.1-.1-.1-.2-.2-.3-.15-.65-.4-2.85 1.7-5.75 3.1-1-.15-2.05-.35-.6-.7-1.2-1.55-.25.1-.55.15h-.2q-.15-.15-.2-.3.2-.35.45-.75-.45-.85-.85-1.75-.45-.15-.8-.2-.25-1.25-.25-2.6 0-.3.1-.5-.1-.25-.1-.4h.15q.05-.65.25-1.35m17-2.55q.4-.15.8-.3 1.25-1.2 2.2-2.15l1.1.35-1.1 2.6q-.4.15-.85.5-1.25-.25-2.3-.45-.3.3-.6.55l-.025.025q-.128125.08730469-.175.275-.05.1-.2.4.4 0 .75.1-.35.05-.6.2m.25-1q.25-.25.4-.55-.25-.05-.45-.1-.1.4-.15.85.046875-.09375.175-.175m.775-1.125q-.15.25-.35.55.05 0 .2 0 .45-.4.95-.85 1.15-.5 3.3-1.8m-5.05 3.5q0-.05 0-.1-.25.1-.4.2 0 .1-.1.2.1 0 .2.1.05-.3.3-.4zm.2-1.15q-.2 0-.4.05.2 0 .35.15 0-.15.05-.2zm-.4 1.55q-.05 0-.1 0-.1 0-.2.15.1 0 .25.15.05-.2.05-.3zm-.3.15q-.2 0-.35 0-.25.2-.35.35.15-.05.5-.1 0-.05.2-.25zm-.35 0q.15-.15.35-.25-1.55-.3-3.05-.7h-.15q-.1.05-.15.1 1.3.7 3 .85zm.15.25q.2-.05.45-.1m-2.3-2.9.05.05q.05-.05.15-.1-.15 0-.2.05zm-1.55 1.85q.1 0 .25.05-1.1 1.1-2.4 1.85 2.7-.2 5.05-.65-1.8 1.5-3.4 2.65.1.15.2.25 1.55-.9 2.9-2.2.4-.35.8-.8m-3.9 2.75q-.35.25-.75.55.1.05.2.1.35-.15.75-.4.4.4 1 .85.3.3.65.7-.8-.15-1.4-.2.45.6 1 1.25-.95.7-1.9 1.25-1.1-.95-1.85-2.5-4.05 2.75-7.15 3.7-.15-.3-.3-.6-.15-.2-.2-.3.6-.85 1.25-1.7-.45 0-.9 0-.6 0-1.2-.05-.6-1.55-.95-3.3 0-.2.05-.4h2.6q1.15.6 2.45 1.05.45-.55.85-1.05 1.35-.05 2.6-.35-.1-.3-.1-.55.6 0 1.2 0-.7-.85-1.3-1.6.05-.1.2-.3.6 0 1.1 0 1.35 0 2.6-.05m-1.05 4.55q-.6.25-1.1.55-.1 0-.2.15 1.1.15 2.3.25-.5-.5-1-.95zm-1.55-2.6q.1 0 .15.05.2-.05.3-.1-.2 0-.45.05zm-.3 3.45q0-.15-.1-.3-2.15-.45-4.15-1.2-.8 1.05-1.65 2.1-.15.3-.4.6 3.45-.2 6.3-1.2.3-.1.55-.15-.35-.15-.65-.15-.4-.95-.65-2.1-.15-.1-.3-.15h-2.35m5.8 1.05q-1.05-1-1.95-1.9-.6.3-1.25.5 0 .25.05.5 1.3.45 2.4 1.45-.45.25-.9.65m-.75.3.1.1q.2-.1.45-.25" fill="none" stroke="#000" stroke-linecap="round" stroke-linejoin="round" stroke-width="2"/>
        <path id="Layer0_0_3_STROKES" d="m330.35 265.5q-.35-6.55-2.8-11.95-4.3-9.7-14.2-11.75-2.3-.5-4.85-.55-2.6-.1-4.95.25m-18.2 24.9q-.05.2-.05.45m-160.5-2.75q2.45-.1 4.85-.15m-19.65.5q1.85-.05 3.7-.05l11.1-.3m-40.8 1.2q-1.55 0-3 .05-6.6.25-11.95.4-2.1.05-4 .1-7.1.35-11.6.55-.95 0-1.75.05m77.95-2.5q9.6-.3 17.3-.45m-62.95 1.8q5.3-.15 11.4-.4.85 0 1.65 0 .4-.05.7-.05 6.3-.2 12.25-.4m36.95-.95q.05 0 .15 0 5.95-.2 10.95-.3m-111.3 3.3q1.15 0 4.95-.05m251.85-24.95q-.3.05-.6.1-15.6 2.7-17.6 24.8m-51.85-17.45q.2-.55.4-1.1m33.4-14.3q.5.25.95.55 13.8 8.65 7.95 30.55m-42.3-16.8q1.35-3.8 3.3-6.9.95-1.6 2.1-3 .9-1.15 1.95-2.2 6.35-6.35 14.6-5.75 3.5.2 7.35 1.65 2.2.85 4.1 1.9" fill="none" stroke="#900" stroke-linecap="round" stroke-linejoin="round" stroke-width="3"/>
        <path id="Layer0_0_4_STROKES" d="m97.05 250.45q.05 1.75.05 3.4 0 1.85.1 3.45.1 4.55 0 6.95m2.35-8.65q0 .85 0 1.7 0 4.5-.2 5.85v.75m-4.65-8.15.05 8.5" fill="none" stroke="#900" stroke-linecap="round" stroke-linejoin="round"/>
        <path id="Layer0_0_5_STROKES" d="m90 299.35q1.95-2.6 4.75-3.6 2.8-1 5.65-.75m130.5-28.15q13.1 9.05 27.4 14.3.4.15.9.35 9.85 3.55 20.35 5.35 30.75 4.9 60.4-3.05" fill="none" stroke="#900" stroke-linecap="round" stroke-linejoin="round" stroke-width="2"/>
        <path id="Layer0_0_6_STROKES" d="m520.65 231.6-19.6 21.1 20.25 17.75m26.55-22.7 6.85 19.4 17.8-5.45m-12.2 21.65-5.6-16.2-17.45 5.3m-60.7-40.45 24.5 20.7-19.65 21" fill="none" stroke="#581d3b" stroke-linecap="round" stroke-linejoin="round" stroke-width="4"/>
    </g>
</svg>
