<svg height="400" preserveAspectRatio="none" viewBox="0 0 550 400" width="550" xmlns="http://www.w3.org/2000/svg">
    <g>
        <g id="Layer2_0_FILL">
            <path d="m556.3 411.1v-415h-560.6v415z" fill="#6cc"/>
        </g>
    </g>
    <g transform="matrix(1.41333008 0 0 1.41333008 51.3 44.5)">
        <g>
            <g id="S_mbolo_1_0_Layer0_0_FILL">
                <path d="m11.5 136.8q-.1.4 0 1-.05.15.1 3.1.7 2.3 5 2.5 2.5-.6 3.2-1.5.8-1.45 1.2-3.35.2-1.1.35-1.8 0-.15 0-.25 0-.1.05-.15h-.05q-3.7.15-9.85.45m43.15-3.1q-.9.05-1.6.05-.6.15-1.6.3-.15 2.75-.3 4.85.1 0 .35 0 1.6 0 2.55-1.6.8-1.35.75-2.1-.05-.75-.15-1.5m-23.25-117.35q-.1-.4-.2-.65-1.25-6.75-4.3-10.75-5.75-7.55-14.15-3.55-6.25 1.8-6.9 8-.45 2.95.9 7.65 1.55 5.95 5.5 18.25 1.45 4.7 2.25 7.6.6.4 1.8 1.4 2.35 1.85 3.05 2.3 5.1 3.2 9.8 3.45.5 0 1.05 0 5.8.05 7.6-2.95-.1-.55-.2-1.4-.5-4.5-2-10.45-.8-2.95-2.25-10.15 3-.65 6-1.5-3.95-3.6-7.95-7.25m-10.65-4.45.35-1.35q1.25.3 2.2 1l-.85 1.1q.7.55 1.2 1.35l.05.1 1.15-.75.05.05q.6 1.05.8 2.25l-1.4.2q.1.8-.05 1.65l1.3.3v.05q-.3 1.2-1 2.15l-1.1-.8q-.55.75-1.35 1.25l-.05.05.7 1.1v.05q-1.1.65-2.25.8l-.2-1.35q-.85.15-1.7-.1l-.35 1.35q-1.3-.3-2.25-1l.85-1.1q-.7-.5-1.15-1.25l-1.15.7h-.05q0-.05 0-.1-.7-1.05-.85-2.2l1.35-.2q-.15-.9.05-1.85l.05-.05-1.35-.3q.3-1.3 1.05-2.25h.05l1.05.8q.5-.6 1.25-1.1l-.7-1.15v-.05q1.1-.65 2.3-.8l.2 1.35q.85-.15 1.8.1m-9.8-5.75q.6-.6 1.35-.9l.35.85q.55-.2 1.2-.2v-.95h.05q.85 0 1.6.35l-.4.85q.55.2 1 .7.05 0 .05.05l.65-.7.05.05q.55.6.85 1.35l-.85.35q.2.5.2 1.1h.9q0 .9-.3 1.6l-.85-.4q-.25.6-.7 1.1l.65.65q-.65.6-1.4.9v.05l-.35-.9q-.5.2-1.15.2v.95q-.85 0-1.6-.35l.35-.85q-.5-.2-.95-.6l-.65.65-.05-.05q-.6-.65-.9-1.35l.85-.35q-.25-.55-.25-1.25h-.9q0-.9.35-1.65l.85.35q.2-.5.6-.9l-.65-.65q.05 0 .05-.05m3.7 1.15q-.35-.15-.8-.15-.4 0-.7.1h-.05q-.35.15-.6.45h-.05q-.25.25-.35.55v.05q-.2.35-.2.75 0 .45.15.8.15.3.45.6v.05q.25.25.6.35v.05q.35.1.75.1.4 0 .7-.1.35-.15.65-.4v-.05q.35-.3.45-.65h.05q.1-.35.1-.75 0-.35-.1-.65-.15-.35-.45-.65 0-.05-.05-.05-.25-.25-.55-.4m7.5 7.7q-.05 0-.05-.05-.3-.5-.75-.8-.45-.35-1.05-.5-.55-.15-1.05-.05h-.05q-.55.1-1.05.4h-.05q-.45.3-.7.65l-.05.05q-.35.45-.5 1.05v.05q-.1.55-.05 1.1v.05q.1.5.4 1v.05q.35.45.7.75l.05.05q.45.3 1 .45h.05q.55.1 1 .05h.05q.55-.05 1.05-.4h.05q.5-.3.85-.75v-.05q.3-.45.45-1 .1-.55.05-1-.1-.6-.35-1.1z" fill="#f33"/>
                <path d="m16.3 44.3q-1.2-1-1.8-1.4-.05-.1-.1-.15-3.45 4.25-6.15 8.65-1.95 2.85-5.95 8.5-.95 1.25-2.3 3.5 3.65 16.1 6.05 34-.05 0 .05.15.45 3.45.9 7.25-.1 1.3.2 3.55.6 4.6 3.15 28.4.5.05 1.15.05 6.15-.3 9.85-.45h.05q-.05.05-.05.15 0 .1 0 .25-.15.7-.35 1.8-.4 1.9-1.2 3.35-.7.9-3.2 1.5-.4.1-.85.2l1.1-.2q0 3.35.65 15.2.45 12.45.65 17.85-.05 4.65-.15 9.3 0 .25.15.5-.1 4.8-.2 9.75.25 3.15.3 9.5 0 6.35.2 9.45-.1 6.15-.2 12.5.1.3.2.55-.05 3.9-.1 7.8-.15.25-.15.5h-.05q-.15.25-.1.45-.05.35.1.45.1.4.75.4.2-.1.4-.25.55-.1 1.3 0 .1 0 .35 0-.3.6-.6 1.35l-.15.05q-2.65 1.95-2.55 3.3-.1 1 1.2 1.2 4.2 0 8.4 0 4.5-.35 5.95-1.1.6-.5.6-1.2-.05-.45-.1-.75 3.1-.3 10.6-.85 2.25-.05 3.45-.1 2.55-.05 5.25-.1 2.5-.3 2.6-1.45-.15-.4-.5-1-.55-.6-1.1-.85-2.7-.05-5.25-.15-5.85-1.3-8.5-3.65.5-.25 1-.3 1.1-.55 1.15-.95-.35-.5-.55-1-.65-1.15-.5-1.9-.1-.05-.05-.1.05-.25.1-.5.25-20.4 5.25-53.25 4.3-29.75 4.4-32.35-.05-1.2.1-2.8.15-2.1.3-4.85 1-.15 1.6-.3.7 0 1.6-.05.75 0 1.5-.05-.2-3.85-.45-5.5-.5-5-.2-14.25-.35-4.75-.75-9.5-.05-1.05.05-1.95-.15-.15-.1-.3-.6-6.15-1.25-12.3-3.45-19.85-7.15-33.55-1.5-1.6-2.05-2.2-1.4-1.45-3.65-3.85l-2.8-3.15q-1.8 3-7.6 2.95-.55 0-1.05 0-4.7-.25-9.8-3.45-.7-.45-3.05-2.3m3.35 4.4q-.5-.65-1.05-1.3.15.15.45.3 3.65 2.35 7.7 3.1 1.55 2.5 4.5 6.15-.75 2.55-1.1 6.05-3.2-4.25-3.65-5.1-.8-.9-6.85-9.2m14.6 1.95q1.4-.45 2.6-1.15.3-.3.6-.6 1.25 1.25 2.3 2.45-1.45 4.3-2.9 10-1.45-1.9-3.5-4.25-.05-.05-.1-.1.8-3.85 1-6.35m-3.95 186.05q-.05-.1-.1-.05 0-.1.15-.05-.05.05-.05.1z"/>
                <path d="m36.85 49.5q-1.2.7-2.6 1.15-.2 2.5-1 6.35.05.05.1.1 2.05 2.35 3.5 4.25 1.45-5.7 2.9-10-1.05-1.2-2.3-2.45-.3.3-.6.6m-18.25-2.1q.55.65 1.05 1.3 6.05 8.3 6.85 9.2.45.85 3.65 5.1.35-3.5 1.1-6.05-2.95-3.65-4.5-6.15-4.05-.75-7.7-3.1-.3-.15-.45-.3m-6.3-42.15q-.75.3-1.35.9 0 .05-.05.05l.65.65q-.4.4-.6.9l-.85-.35q-.35.75-.35 1.65h.9q0 .7.25 1.25l-.85.35q.3.7.9 1.35l.05.05.65-.65q.45.4.95.6l-.35.85q.75.35 1.6.35v-.95q.65 0 1.15-.2l.35.9v-.05q.75-.3 1.4-.9l-.65-.65q.45-.5.7-1.1l.85.4q.3-.7.3-1.6h-.9q0-.6-.2-1.1l.85-.35q-.3-.75-.85-1.35l-.05-.05-.65.7q0-.05-.05-.05-.45-.5-1-.7l.4-.85q-.75-.35-1.6-.35h-.05v.95q-.65 0-1.2.2zm1.55 1.9q.45 0 .8.15.3.15.55.4.05 0 .05.05.3.3.45.65.1.3.1.65 0 .4-.1.75h-.05q-.1.35-.45.65v.05q-.3.25-.65.4-.3.1-.7.1-.4 0-.75-.1v-.05q-.35-.1-.6-.35v-.05q-.3-.3-.45-.6-.15-.35-.15-.8 0-.4.2-.75v-.05q.1-.3.35-.55h.05q.25-.3.6-.45h.05q.3-.1.7-.1m7.25 3.4-.35 1.35q-.95-.25-1.8-.1l-.2-1.35q-1.2.15-2.3.8v.05l.7 1.15q-.75.5-1.25 1.1l-1.05-.8h-.05q-.75.95-1.05 2.25l1.35.3-.05.05q-.2.95-.05 1.85l-1.35.2q.15 1.15.85 2.2 0 .05 0 .1h.05l1.15-.7q.45.75 1.15 1.25l-.85 1.1q.95.7 2.25 1l.35-1.35q.85.25 1.7.1l.2 1.35q1.15-.15 2.25-.8v-.05l-.7-1.1.05-.05q.8-.5 1.35-1.25l1.1.8q.7-.95 1-2.15v-.05l-1.3-.3q.15-.85.05-1.65l1.4-.2q-.2-1.2-.8-2.25l-.05-.05-1.15.75-.05-.1q-.5-.8-1.2-1.35l.85-1.1q-.95-.7-2.2-1m1 4.4q0 .05.05.05.25.5.35 1.1.05.45-.05 1-.15.55-.45 1v.05q-.35.45-.85.75h-.05q-.5.35-1.05.4h-.05q-.45.05-1-.05h-.05q-.55-.15-1-.45l-.05-.05q-.35-.3-.7-.75v-.05q-.3-.5-.4-1v-.05q-.05-.55.05-1.1v-.05q.15-.6.5-1.05l.05-.05q.25-.35.7-.65h.05q.5-.3 1.05-.4h.05q.5-.1 1.05.05.6.15 1.05.5.45.3.75.8z" fill="#fff"/>
            </g>
        </g>
    </g>
    <g transform="matrix(1.41333008 0 0 1.41333008 233.95 38.9)">
        <g>
            <g id="S_mbolo_2_0_Layer0_0_FILL">
                <path d="m12.2 146.9q.25-1.05.4-1.8v-.05q0-.16875 0-.35-3.7.3-10.1.25 0 .45-.05.95 0 .15 0 3.1.75 2.5 4.05 2.85.2 0 1.1 0 2.5-.55 3.25-1.65.85-1.25 1.35-3.3m30.55-.4q1.55 0 2.55-1.6.75-1.2.75-2.05 0-.75-.1-1.45h-1.55q-.5.15-1.55.3-.25 2.8-.45 4.8.15 0 .35 0m-3.5-127.5v-.7q.1-7-1.6-11.6-3.1-8.5-11.35-6.25-6.1.6-8.15 6.35-.95 2.75-.95 7.9 0 6.4.9 20.45.3 5.45.3 8.65.65.75 1.55 1.95 1.9 2.45 2.45 2.95 4.95 4.7 9.7 5.1 5.55.65 7.35-2.5 0-.05.05-.05-.1-.95-.05-1.75 0-8.65 0-10.5 0-3.05-.1-10.8l5.35-.2zm-14.4-12.85h.05q.85 0 1.6.35l-.4.85q.55.2 1 .7.05 0 .05.05l.65-.7.05.05q.55.6.85 1.35l-.85.35q.2.5.2 1.1h.9q0 .9-.3 1.6l-.85-.4q-.25.6-.7 1.1l.65.65q-.65.6-1.4.9v.05l-.35-.9q-.5.2-1.15.2v.95q-.85 0-1.6-.35l.35-.85q-.5-.2-.95-.6l-.65.65-.05-.05q-.6-.65-.9-1.35l.85-.35q-.25-.55-.25-1.25h-.9q0-.9.35-1.65l.85.35q.2-.5.6-.9l-.65-.65q.05 0 .05-.05.6-.6 1.35-.9l.35.85q.55-.2 1.2-.2zm1 7.8 1.05.8q.5-.6 1.25-1.1l-.7-1.15v-.05q1.1-.65 2.3-.8l.2 1.35q.85-.15 1.8.1l.35-1.35q1.25.3 2.2 1l-.85 1.1q.7.55 1.2 1.35l.05.1 1.15-.75.05.05q.6 1.05.8 2.25l-1.4.2q.1.8-.05 1.65l1.3.3v.05q-.3 1.2-1 2.15l-1.1-.8q-.55.75-1.35 1.25l-.05.05.7 1.1v.05q-1.1.65-2.25.8l-.2-1.35q-.85.15-1.7-.1l-.35 1.35q-1.3-.3-2.25-1l.85-1.1q-.7-.5-1.15-1.25l-1.15.7h-.05q0-.05 0-.1-.7-1.05-.85-2.2l1.35-.2q-.15-.9.05-1.85l.05-.05-1.35-.3q.3-1.3 1.05-2.25zm4.4.85h-.05q-.55.1-1.05.4h-.05q-.45.3-.7.65l-.05.05q-.35.45-.5 1.05v.05q-.1.55-.05 1.1v.05q.1.5.4 1v.05q.35.45.7.75l.05.05q.45.3 1 .45h.05q.55.1 1 .05h.05q.55-.05 1.05-.4h.05q.5-.3.85-.75v-.05q.3-.45.45-1 .1-.55.05-1-.1-.6-.35-1.1-.05 0-.05-.05-.3-.5-.75-.8-.45-.35-1.05-.5-.55-.15-1.05-.05m-6.15-6.35q-.35.15-.6.45h-.05q-.25.25-.35.55v.05q-.2.35-.2.75 0 .45.15.8.15.3.45.6v.05q.25.25.6.35v.05q.35.1.75.1.4 0 .7-.1.35-.15.65-.4v-.05q.35-.3.45-.65h.05q.1-.35.1-.75 0-.35-.1-.65-.15-.35-.45-.65 0-.05-.05-.05-.25-.25-.55-.4-.35-.15-.8-.15-.4 0-.7.1z" fill="#f33"/>
                <path d="m19.95 45.75q-.9-1.2-1.55-1.95-4.15 3.95-7.7 8.15-2.5 2.8-7.6 8.35-1.05 1.15-2.95 3.45v40.45l.05.15v7.95q-.2 1.6-.2 3.75 0 5.1 1.35 28.85.6 0 1.15.05 6.4.05 10.1-.25h.05q-.0453125.18125-.05.35v.05q-.15.75-.4 1.8-.5 2.05-1.35 3.3-.75 1.1-3.25 1.65.1 3.25.65 14.95.5 12.5.8 17.85v9.3l.2.45v9.75q.3 3.25.5 9.45.2 6.4.45 9.45v12.45l.2.6v7.8q-.1.25-.15.45h-.05q-.1.3-.1.45 0 .45.1.45.15.4.75.4.25 0 .4-.25.55 0 1.3 0 .15 0 .35 0-.25.65-.6 1.35-.05.05-.15.1-2.55 1.95-2.55 3.25 0 1.05 1.15 1.1h8.4q4.65-.2 6-1 .6-.35.6-1.2 0-.35-.1-.75 3.1-.2 10.6-.9 2.35.1 3.45-.1l5.25-.1q2.55-.35 2.55-1.45 0-.4-.45-1-.5-.65-1.1-.9l-5.25-.1q-5.8-1.25-8.5-3.65.55-.15 1-.3 1.15-.4 1.15-.95-.25-.4-.55-.95-.55-1.05-.55-1.95 0-.05-.05-.1.1-.25.1-.5 0-20.45 4.35-53.6 4.25-29.8 4.45-32.45.05-1.1.2-2.75.2-2 .45-4.8 1.05-.15 1.55-.3h1.55l1.5-.05q-.15-3.85-.25-5.45-.25-4.9.55-14v-9.6l.2-1.95-.05-.3v-12.6q-.95-20.45-2.35-35.1-1.1-1.85-1.5-2.55-.85-1.5-2.3-3.9-1.45-2.25-2.25-4.65-.05 0-.05.05-1.8 3.15-7.35 2.5-4.75-.4-9.7-5.1-.55-.5-2.45-2.95m18.25 8.2q.35-.25.65-.5.8 1.55 1.6 2.85-1.85 4.3-4.15 10.2-1-2.05-2.5-4.8-.05-.1-.1-.15 1.4-3.9 2-6.65 1.4-.25 2.5-.95m-16.3-4.05q3.05 3.05 6.9 4.3 1.05 2.95 3.05 7.1-1.05 2.8-2.05 6.5-2.2-4.8-2.65-5.85-.5-.95-4.9-10.85-.35-.8-.7-1.6.15.2.35.4m.45 194.85q-.05-.05-.1-.05.05-.05.15-.05-.05.05-.05.1z"/>
                <path d="m28.8 54.2q-3.85-1.25-6.9-4.3-.2-.2-.35-.4.35.8.7 1.6 4.4 9.9 4.9 10.85.45 1.05 2.65 5.85 1-3.7 2.05-6.5-2-4.15-3.05-7.1m10.05-.75q-.3.25-.65.5-1.1.7-2.5.95-.6 2.75-2 6.65.05.05.1.15 1.5 2.75 2.5 4.8 2.3-5.9 4.15-10.2-.8-1.3-1.6-2.85m-11.95-38.7-1.05-.8h-.05q-.75.95-1.05 2.25l1.35.3-.05.05q-.2.95-.05 1.85l-1.35.2q.15 1.15.85 2.2 0 .05 0 .1h.05l1.15-.7q.45.75 1.15 1.25l-.85 1.1q.95.7 2.25 1l.35-1.35q.85.25 1.7.1l.2 1.35q1.15-.15 2.25-.8v-.05l-.7-1.1.05-.05q.8-.5 1.35-1.25l1.1.8q.7-.95 1-2.15v-.05l-1.3-.3q.15-.85.05-1.65l1.4-.2q-.2-1.2-.8-2.25l-.05-.05-1.15.75-.05-.1q-.5-.8-1.2-1.35l.85-1.1q-.95-.7-2.2-1l-.35 1.35q-.95-.25-1.8-.1l-.2-1.35q-1.2.15-2.3.8v.05l.7 1.15q-.75.5-1.25 1.1m3.3.05h.05q.5-.1 1.05.05.6.15 1.05.5.45.3.75.8 0 .05.05.05.25.5.35 1.1.05.45-.05 1-.15.55-.45 1v.05q-.35.45-.85.75h-.05q-.5.35-1.05.4h-.05q-.45.05-1-.05h-.05q-.55-.15-1-.45l-.05-.05q-.35-.3-.7-.75v-.05q-.3-.5-.4-1v-.05q-.05-.55.05-1.1v-.05q.15-.6.5-1.05l.05-.05q.25-.35.7-.65h.05q.5-.3 1.05-.4m-5.3-8.65h-.05v.95q-.65 0-1.2.2l-.35-.85q-.75.3-1.35.9 0 .05-.05.05l.65.65q-.4.4-.6.9l-.85-.35q-.35.75-.35 1.65h.9q0 .7.25 1.25l-.85.35q.3.7.9 1.35l.05.05.65-.65q.45.4.95.6l-.35.85q.75.35 1.6.35v-.95q.65 0 1.15-.2l.35.9v-.05q.75-.3 1.4-.9l-.65-.65q.45-.5.7-1.1l.85.4q.3-.7.3-1.6h-.9q0-.6-.2-1.1l.85-.35q-.3-.75-.85-1.35l-.05-.05-.65.7q0-.05-.05-.05-.45-.5-1-.7l.4-.85q-.75-.35-1.6-.35m-1.4 2.75q.25-.3.6-.45h.05q.3-.1.7-.1.45 0 .8.15.3.15.55.4.05 0 .05.05.3.3.45.65.1.3.1.65 0 .4-.1.75h-.05q-.1.35-.45.65v.05q-.3.25-.65.4-.3.1-.7.1-.4 0-.75-.1v-.05q-.35-.1-.6-.35v-.05q-.3-.3-.45-.6-.15-.35-.15-.8 0-.4.2-.75v-.05q.1-.3.35-.55z" fill="#fff"/>
            </g>
        </g>
    </g>
    <g transform="matrix(1.41333008 0 0 1.41333008 400.75 45.9)">
        <g>
            <g id="S_mbolo_3_0_Layer0_0_FILL">
                <path d="m.45 136.75q0 .1 0 .35.05-.15.1-.3-.05 0-.1-.05m11.7-1.55q0-.15 0-.25 0-.103125 0-.15-3.95.2-10.55.2-.15.4-.1.95-.1.15-.05 3.1.6 2.35 4.2 2.85.2.05.4.05-.1-.1-.05-.2.45-.2 1.45-.05 1.9-.3 2.75-1.4.95-1.25 1.45-3.3.35-1.1.5-1.8m32.45-.25q.7-1.3.75-2.05 0-.75-.05-1.5-.8.05-1.4.05-.5.15-1.4.3-.35 2.8-.55 4.75.15-.05.3.05 1.4 0 2.35-1.6m8.4-111.65q0-.3.15-.65 1.5-6.2.95-11.45-.9-9.95-10.6-10.95-6.65-1.3-9.9 3.8-1.65 2.3-2.5 7.35-1.3 6.1-2.6 19.6-.5 5.1-.95 8 .4.85 1.2 2.15 1.5 2.55 2 3.1 4.7 5.3 9.15 6.55 4.45 1.2 5.85.9 1.35-.3 1.45-.7 1.9-8.8 2.25-10.35.4-2.7 1.8-9.2 2.4.9 4.75 1.75-1.5-4.75-3-9.9m-11.95-15.35.65-.7.05.05q.55.6.85 1.35l-.85.35q.2.5.2 1.1h.9q0 .9-.3 1.6l-.85-.4q-.25.6-.7 1.1l.65.65q-.65.6-1.4.9v.05l-.35-.9q-.5.2-1.15.2v.95q-.85 0-1.6-.35l.35-.85q-.5-.2-.95-.6l-.65.65-.05-.05q-.6-.65-.9-1.35l.85-.35q-.25-.55-.25-1.25h-.9q0-.9.35-1.65l.85.35q.2-.5.6-.9l-.65-.65q.05 0 .05-.05.6-.6 1.35-.9l.35.85q.55-.2 1.2-.2v-.95h.05q.85 0 1.6.35l-.4.85q.55.2 1 .7.05 0 .05.05m.3 4.4v-.05q1.1-.65 2.3-.8l.2 1.35q.85-.15 1.8.1l.35-1.35q1.25.3 2.2 1l-.85 1.1q.7.55 1.2 1.35l.05.1 1.15-.75.05.05q.6 1.05.8 2.25l-1.4.2q.1.8-.05 1.65l1.3.3v.05q-.3 1.2-1 2.15l-1.1-.8q-.55.75-1.35 1.25l-.05.05.7 1.1v.05q-1.1.65-2.25.8l-.2-1.35q-.85.15-1.7-.1l-.35 1.35q-1.3-.3-2.25-1l.85-1.1q-.7-.5-1.15-1.25l-1.15.7h-.05q0-.05 0-.1-.7-1.05-.85-2.2l1.35-.2q-.15-.9.05-1.85l.05-.05-1.35-.3q.3-1.3 1.05-2.25h.05l1.05.8q.5-.6 1.25-1.1zm6 5.8q.1-.55.05-1-.1-.6-.35-1.1-.05 0-.05-.05-.3-.5-.75-.8-.45-.35-1.05-.5-.55-.15-1.05-.05h-.05q-.55.1-1.05.4h-.05q-.45.3-.7.65l-.05.05q-.35.45-.5 1.05v.05q-.1.55-.05 1.1v.05q.1.5.4 1v.05q.35.45.7.75l.05.05q.45.3 1 .45h.05q.55.1 1 .05h.05q.55-.05 1.05-.4h.05q.5-.3.85-.75v-.05q.3-.45.45-1m-6.65-8.05q0-.35-.1-.65-.15-.35-.45-.65 0-.05-.05-.05-.25-.25-.55-.4-.35-.15-.8-.15-.4 0-.7.1h-.05q-.35.15-.6.45h-.05q-.25.25-.35.55v.05q-.2.35-.2.75 0 .45.15.8.15.3.45.6v.05q.25.25.6.35v.05q.35.1.75.1.4 0 .7-.1.35-.15.65-.4v-.05q.35-.3.45-.65h.05q.1-.35.1-.75z" fill="#f33"/>
                <path d="m28.75 41.15q-.8-1.3-1.2-2.15-4.9 2.65-9.4 5.9-3.15 1.85-9.35 6.25-1.35.75-3.55 2.85-2.4 20.15-4 40.25-.05 0 .05.15-.3 3.9-.6 7.95-.3 1.5-.4 3.8-.65 4.9.1 28.75.5-.05 1.2.1 6.6 0 10.55-.2h.05q-.046875.046875-.05.15 0 .1 0 .25-.15.7-.5 1.8-.5 2.05-1.45 3.3-.85 1.1-2.75 1.4-1-.15-1.45.05-.05.1.05.2.6 3.1 1.2 14.95.55 12.4.9 17.8.05 4.65.1 9.25.1.25.2.5.15 4.8.1 9.75.35 3.15.65 9.45.2 6.35.55 9.45 0 6.15.15 12.45.1.3.2.55 0 3.9 0 7.8-.15.25-.15.5h-.05q-.15.25-.1.45-.05.35.1.45.1.4.75.4.2-.1.4-.25.55-.1 1.3 0 .1 0 .35 0-.3.6-.6 1.35l-.15.05q-2.65 1.95-2.55 3.3-.1 1 1.2 1.15 4.2 0 8.4 0 4.5-.35 5.95-1.1.6-.5.6-1.2-.05-.45-.1-.75 3.1-.25 10.6-.9 2.25-.05 3.45-.1 2.55-.1 5.25-.05 2.5-.35 2.55-1.5-.1-.45-.45-.95-.55-.65-1.1-.9-2.7-.05-5.25-.15-5.8-1.3-8.45-3.65.5-.25 1-.3 1-.55 1.15-.95-.35-.5-.55-1-.65-1.15-.55-1.9-.1-.05-.05-.1.05-.25.1-.5-.2-20.6 3.95-53.65 4.1-29.8 4.55-32.4.05-1.05.3-2.75.2-1.95.55-4.75.9-.15 1.4-.3.6 0 1.4-.05.65 0 1.3-.05 0-3.8 0-5.45-.2-4.9 1.15-14 .2-4.75.55-9.15 0-1 .35-1.8-.15-.2-.1-.25.45-5.75.9-11.1.8-17.05 1.75-28.55-.65-1.7-.9-2.25-.55-1.65-1.65-4.3l-1.45-3.5q-.1.4-1.45.7-1.4.3-5.85-.9-4.45-1.25-9.15-6.55-.5-.55-2-3.1m1.05 3.7q.05585938.2046875.3.4 2.45 3.15 6.45 5.1.6 2.7 2.15 6.8-1.55 2-2.95 5.15-1.7-4.75-2-5.55-.55-.95-3.55-10.35-.19882812-.74570312-.4-1.55m10.7 12.9q2.05-3.1 2.9-5.05 1.55-.05 2.5-.2l.7-.15q.55 1.4 1.05 2.75-2.3 2.9-5.25 7.35-.6-1.95-1.8-4.55-.05-.15-.1-.15m-18.45 176.95q-.05 0-.1 0 0-.1.1-.05-.05 0 0 .05z"/>
                <path d="m43.4 52.7q-.85 1.95-2.9 5.05.05 0 .1.15 1.2 2.6 1.8 4.55 2.95-4.45 5.25-7.35-.5-1.35-1.05-2.75l-.7.15q-.95.15-2.5.2m-13.3-7.45q-.24414062-.1953125-.3-.4.20117188.80429688.4 1.55 3 9.4 3.55 10.35.3.8 2 5.55 1.4-3.15 2.95-5.15-1.55-4.1-2.15-6.8-4-1.95-6.45-5.1m11.25-32.95v.05l.7 1.15q-.75.5-1.25 1.1l-1.05-.8h-.05q-.75.95-1.05 2.25l1.35.3-.05.05q-.2.95-.05 1.85l-1.35.2q.15 1.15.85 2.2 0 .05 0 .1h.05l1.15-.7q.45.75 1.15 1.25l-.85 1.1q.95.7 2.25 1l.35-1.35q.85.25 1.7.1l.2 1.35q1.15-.15 2.25-.8v-.05l-.7-1.1.05-.05q.8-.5 1.35-1.25l1.1.8q.7-.95 1-2.15v-.05l-1.3-.3q.15-.85.05-1.65l1.4-.2q-.2-1.2-.8-2.25l-.05-.05-1.15.75-.05-.1q-.5-.8-1.2-1.35l.85-1.1q-.95-.7-2.2-1l-.35 1.35q-.95-.25-1.8-.1l-.2-1.35q-1.2.15-2.3.8m6.05 4.85q.05.45-.05 1-.15.55-.45 1v.05q-.35.45-.85.75h-.05q-.5.35-1.05.4h-.05q-.45.05-1-.05h-.05q-.55-.15-1-.45l-.05-.05q-.35-.3-.7-.75v-.05q-.3-.5-.4-1v-.05q-.05-.55.05-1.1v-.05q.15-.6.5-1.05l.05-.05q.25-.35.7-.65h.05q.5-.3 1.05-.4h.05q.5-.1 1.05.05.6.15 1.05.5.45.3.75.8 0 .05.05.05.25.5.35 1.1m-5.7-9.9-.65.7q0-.05-.05-.05-.45-.5-1-.7l.4-.85q-.75-.35-1.6-.35h-.05v.95q-.65 0-1.2.2l-.35-.85q-.75.3-1.35.9 0 .05-.05.05l.65.65q-.4.4-.6.9l-.85-.35q-.35.75-.35 1.65h.9q0 .7.25 1.25l-.85.35q.3.7.9 1.35l.05.05.65-.65q.45.4.95.6l-.35.85q.75.35 1.6.35v-.95q.65 0 1.15-.2l.35.9v-.05q.75-.3 1.4-.9l-.65-.65q.45-.5.7-1.1l.85.4q.3-.7.3-1.6h-.9q0-.6-.2-1.1l.85-.35q-.3-.75-.85-1.35zm-1.1 2.2q.1.3.1.65 0 .4-.1.75h-.05q-.1.35-.45.65v.05q-.3.25-.65.4-.3.1-.7.1-.4 0-.75-.1v-.05q-.35-.1-.6-.35v-.05q-.3-.3-.45-.6-.15-.35-.15-.8 0-.4.2-.75v-.05q.1-.3.35-.55h.05q.25-.3.6-.45h.05q.3-.1.7-.1.45 0 .8.15.3.15.55.4.05 0 .05.05.3.3.45.65z" fill="#fff"/>
            </g>
        </g>
    </g>
</svg>
