<svg height="400" preserveAspectRatio="none" viewBox="0 0 550 400" width="550" xmlns="http://www.w3.org/2000/svg" xmlns:xlink="http://www.w3.org/1999/xlink">
    <linearGradient id="Gradient_1" gradientUnits="userSpaceOnUse" spreadMethod="pad" x1="-286.7875" x2="-261.9125" y1="318.25" y2="-448.05">
        <stop offset="0" stop-color="#b4ffd7"/>
        <stop offset="1" stop-color="#84aecc"/>
    </linearGradient>
    <linearGradient id="Gradient_2" gradientUnits="userSpaceOnUse" spreadMethod="pad" x1="175.0625" x2="231.4375" y1="143.925" y2="111.375">
        <stop offset="0" stop-color="#630"/>
        <stop offset="1" stop-color="#c96"/>
    </linearGradient>
    <linearGradient id="lg1">
        <stop offset="0" stop-color="#930"/>
        <stop offset="1" stop-color="#d94800"/>
    </linearGradient>
    <linearGradient id="Gradient_3" gradientUnits="userSpaceOnUse" spreadMethod="pad" x1="248.3625" x2="260.2375" xlink:href="#lg1" y1="263.5875" y2="315.9125"/>
    <linearGradient id="Gradient_4" gradientUnits="userSpaceOnUse" spreadMethod="pad" x1="253.75" x2="260.95" xlink:href="#lg1" y1="286.275" y2="317.425"/>
    <radialGradient id="Gradient_5" cx="276.95" cy="330.2" gradientUnits="userSpaceOnUse" r="201.0375" spreadMethod="pad">
        <stop offset="0" stop-color="#a8e505"/>
        <stop offset="1" stop-color="#329800"/>
    </radialGradient>
    <radialGradient id="Gradient_6" cx="0" cy="0" gradientTransform="matrix(1 0 0 1.00290843 270.5 315.95)" gradientUnits="userSpaceOnUse" r="150.425" spreadMethod="pad">
        <stop offset="0" stop-color="#84b404"/>
        <stop offset="1" stop-color="#287b00"/>
    </radialGradient>
    <g>
        <g id="Layer10_0_FILL">
            <path d="m69.4 343.1v33.4q0 20.55 14.5 35.05 14.55 14.55 35.1 14.55h77.6q-6.15410156-11.21503906-13.45-21-7.20195312-9.68203125-15.55-17.95-4.72519531-4.7078125-9.85-8.95-5.18203125-4.31308594-10.75-8.15-2.36992187-1.61386719-4.8-3.15-3.79511719-2.38535156-7.75-4.55-1.53652344-.85898437-3.1-1.7-2.04023437-1.03085937-4.1-2.05-.13046875-.04238281-.25-.1-4.86640625-2.35527344-9.95-4.4-24.56035156-9.89550781-47.65-11m328.5-12.8q-24.8 15.7-41.9 43.6-13.35 21.75-20.55 48.2-.55664062 2.03769531-1.05 4h54.35q20.55 0 35.05-14.55 14.55-14.5 14.55-35.05v-62.4q-22.03886719 4.52011719-40.45 16.2z" fill="#6c9"/>
            <path d="m119-192.75q-20.55 0-35.1 14.5-14.5 14.55-14.5 35.1v486.25q23.08964844 1.10449219 47.65 11 5.08359375 2.04472656 9.95 4.4.11953125.05761719.25.1 2.05976563 1.01914063 4.1 2.05 1.56347656.84101563 3.1 1.7 3.95488281 2.16464844 7.75 4.55 2.43007813 1.53613281 4.8 3.15 5.56796875 3.83691406 10.75 8.15 5.12480469 4.2421875 9.85 8.95 8.34804688 8.26796875 15.55 17.95 7.29589844 9.78496094 13.45 21h137.8q.49335938-1.96230469 1.05-4 7.2-26.45 20.55-48.2 17.1-27.9 41.9-43.6 18.41113281-11.67988281 40.45-16.2v-457.25q0-20.55-14.55-35.1-14.5-14.5-35.05-14.5z" fill="url(#Gradient_1)"/>
        </g>
    </g>
    <g>
        <g id="Layer9_0_FILL">
            <path d="m384.2 273.7q-5.65 0-8.35 5.1-2.2 4.2-2.05 10.9-.8-1.55-2.05-2.65-1.55-1.35-3.15-1.35-6.1 0-10.75 6.4-1.95 2.65-2.95 5.2 3.45 0 7 .15 15.95.6 17.4.55 7.05-.15 9.8-2.5 3.1-2.6 3.1-9.4 0-5.75-2.4-9.2-2.2-3.2-5.6-3.2z" fill="#fff"/>
        </g>
    </g>
    <g>
        <g id="Layer8_0_FILL">
            <path d="m229.95 12.05q-.45-2.7-1.05-5.4-.45-2.75-2.35-5.1-1.95-2.95-4.9-1.65-1 .5-1.95 1.2-.95.75-2 1.6-.3.1-.8.6-.45.35-.8.8-.5.5-.95 1.1-.25.5-.95 1-.65.95-1.6 1.9-1.1 1.05-2.05 1.95-1.7 1.75-2.75 3.85-1.25 2-2.9 3.6-.4.15-.4.5 0 .25-.2.6 0 .1 0 .35l-.25.1q-.7.95-1.6 1.85-.85.95-1.65 1.9-1.3 1.7-2.55 3.85-1.3 1.85-2.8 3.5-1.4 1.95-2.95 3.85-1.35 1.95-3.05 3.85-1.7 2.2-3.5 4.3-1.7 2.35-3.6 4.55-1.4 1.75-2.65 3.85-1.2 2-2.55 3.95-.6-.35-1.1-.85-.95-.85-1.9-1.95-.85-.95-1.8-1.9-.6-.65-1.3-1.1-.6-.7-1.1-1.3-1.45-1.85-3-3.75-1.6-1.95-3.15-3.6-1.95-2.2-3.95-4.2-2-2.2-4.1-4.25-2.1-2.05-4.4-4-2.25-2.15-4.3-4.2-1.9-1.55-3.5-3.15-1.8-1.3-3.5-3.1-1.8-1.7-3.4-3.75-1.65-1.95-3.55-3.95-.4-.4-.8-.75-.2-.5-.55-.95-.35-1.2-1.45-1.55-.45-.15-.7-.5-.4-.1-.9-.3-2.15-1.15-3.85-.8-1.9.25-3.25 2.2-.6.45-.95 1.3-.5.8-.35 1.35.7 2.95.35 5.75-.35 2.8-.6 5.7-.45 2.85-.7 5.75-.25 5.35-.5 10.95-.1 5.1-.2 10.75-.25 2.9-.35 5.8-.1 2.85-.1 5.75-.2 3.15-.2 6.15.2 2.9 0 6.05-.15 3.4-.15 6.7-.1 3.15-.35 6.4-.1 2.3-.1 4.7-.15 2.3-.15 4.5 0 4.3-.2 8.65-.15 4.2-.15 8.75 0 4.65.15 9.45 0 4.8.2 9.8 0 2.85.75 5 .75 2.35 3 4.25 1.15.55 2.45.1 1.05-.25 2.2-1.65 1.3-1.4 2.6-4.75 1.45-4.95 2.4-10.45.6-2.3.75-4.4.35-2.35.7-4.8.2-3.35.6-6.75.3-3.6.5-7.1l1.8-16.35q.1-2.8.25-5.7.35-2.85.45-5.75.25-3.25.35-6.65.15-3.35.5-6.75 0-2.3 0-4.45-.15-2.2 0-4.3.1-5 0-9.55-.15-4.8-.6-9.6-.25-.65-.25-1.25-.1-.6-.1-1.45.45.35.8.5.15.1.45.45 2.1 1.95 4.3 4.25 2.15 2.05 4.35 4.3 2.1 2.3 4.3 4.5 1.95 2.4 4.1 4.7 2.65 2.9 5.2 5.85 2.75 3.05 5.15 5.95.95.7 1.55 1.6.8.8 1.5 1.75.95.75 1.4 1.7.5 1.1 1.75 1.7.8.45 1.4 1.2.5.8 1.2 1.2.9.85 1.85 1.45.95.6 2 1.05.4.15.9 0 .45-.1 1.2.15 1.15.35 1.95 0 .95-.5 1.65-1.2.7-.6 1.3-1.3.6-.55 1.25-1 .8-.95 2-1.8 1.15-.8 1.95-1.7 2.05-2.6 3.85-5.05 1.9-2.55 3.75-4.9 1.4-1.75 2.8-3.4 2.25-2.8 4.55-5.35 2.25-2.7 4.55-5.25.25-.5.7-.95.5-.5.9-.9-.3 2.45-.5 4.75-.4 2.15-.5 4.45-.6 5.75-.6 11.45-.2 3-.2 6.25.2 3.15-.15 6.25 0 3.25-.1 6.25-.35 3.3-.5 6.4-.2 3.9-.35 7.85-.1 3.85-.35 7.7 0 1.95.25 4 0 2.05 0 4.05 0 1.5 0 3.05 0 1.55 0 3.15v6.85q0 1.55-.25 2.8-.1 1.4.25 2.95.1 1.25.45 2.45.25 1.3.75 2.3.55 1.9 1.05 3.75.35 1.9 1.7 3.25.95.1 1.8.25 1.1.45 2.4.8 1.45.35 2.8 0 1.8-.1 3.6-.6 1.9-.7 3.3-2.2 1.9-2.1 2.45-4.4.5-2.45.6-5.25 0-1.3 0-2.7-.1-1.15-.1-2.55v-8.65q0-2.45 0-4.75 0-2.25 0-4.7v-13.85q0-1.65-.1-3.5-.25-1.8-.25-3.4 0-2.25 0-4.2 0-2 0-3.95 0-1.3 0-2.4-.15-1.25-.15-2.3.15-1.55.4-2.9.1-1.3.1-2.8.1-3.45.35-6.8 0-3.65.1-6.75.3-3.15.45-6.05.35-2.8.45-5.9.5-4.5.6-8.95.35-4.3.5-8.75.2-2.2 0-4.5-.15-2.15-.5-4.35m16.7 44.35q-.45-1.55-1.4-2.95-.5-.8-1.05-1.4-.6-.8-1.4-1.3-2.35-1.05-4.65.25-2.45 1.2-3.05 3.6-.45 2.05-.6 4.25-.2 1.75 0 3.35 0 1.8 0 3.5-.2 1.9-.2 3.5 0 1.8-.15 3.5 0 2.9 0 5.75.15 2.9 0 5.7-.1 5.05.35 9.75.25 4.8.75 9.85.35 5.45.85 11 .6 5.45 1.1 11.05.35 1.4.7 2.55.25 1.3.6 2.7.35 1.4 1.05 2.95 1.25 2.4 2.9 4.25 1.75 1.9 4.75 2.4 2.15.1 3.2-.95 1.15-1.1 1.6-3.15.35-.6.25-2.55-.25-1.9-.35-3.85-.15-2.5-.5-5.3 0-1.05 0-2.2 0-.95-.1-2l-1.5-22.05q-.35-3.25-.35-6.3 0-3.1-.1-6.15h-.25q0-2.85 0-5.25 0-2.55 0-5.4.25-4.05-.1-7.9-.5-3.95-1.45-7.95-.45-1.75-.9-3.25m1.05-15.65q.45-.45.45-1.05-.1-1.5-1.05-3.4-1-1.95-2.35-2.4-1.05-.5-2.05-.95-1.3-.5-1.55-.15-1.2.6-2.05 1.55-.75.65-1.2 1.95-.5 1.3-.25 3.05.35 1.75 1.2 2.7.6.65 1.35 1 .7.35 1.65.15.85 0 1.45-.5.75-.1 1.45-.35.95-.2 1.8-.65.65-.25 1.15-.95m110.8-192.15q-.7-1.4-2.05-2.35-1.9-1.4-4.2-1.05-1.8.25-2.55 1.4-.95 1.15-.95 2.7 0 6.75-.15 13.4-.1 6.7 0 13.45.15 9.4.15 18.8.1 9.3.25 18.7.1 6 .55 11.8.55 5.75 1.25 11.7.25 1.65.5 3.35.25 1.8.45 3.5.25 2.6.5 5.05.25 2.45.7 5.05.35 1.95 1 3.8.85 1.75 1.9 3.55 1.05 1.25 1.95 1.6 1.1.35 2.6-.35 1.05-.6 2.1-1.2 1.05-.55 2-1.35 1.35-1.3 2.8-2.55 1.25-1.45 1.95-3.35.85-2.05 1.3-4.15.5-2 .85-4.2.45-3.75.9-7.35.45-3.75 1.05-7.45.6-4.1 1.4-8.05.35-1.7.6-3.3.3-1.65.65-3.25.35-1.4.7-2.7.5-1.4.75-2.8.8-3.75 2.05-7.25 1.3-3.6 3.1-7 .35-.95.9-1.8.55-.95 1.3-2.15.1.7.2.95.15.25.15.6.25 3.7.35 7.45.25 3.6 0 7.35-.35 6.4-.25 12.8.25 6.55.85 13 .5 5.1 1.85 10.25 1.3 5.05 3.7 9.8 2.55 5.25 8.65 6.85 1.95.5 2.7-1.5.35-.95.55-1.85.15-.8.15-1.75 0-1.05-.25-2-.25-1-.6-2.1-.45-1.05-.6-2.25-.45-2.9-.55-5.9-.25-3.15-.45-6.05-.35-3.05-.7-6.25-.25-3.15-.45-6.05-.25-1.8-.25-3.7 0-1.95-.15-3.75 0-.6.15-1.05.1-.55 0-1-.5-2.65-.15-5.3.25-2.65-.35-5.2-.35-1.2-.45-2.5 0-1.25-.25-2.55-.35-2.15-.7-4.1-.3-2.05-1-4.2-.5-1.6-1.3-3.05-.85-1.4-1.75-2.9-.1-.2-.7-.55-1.4-.95-2.9-1.9-1.65-.8-3.45-1.15-.9-.25-1.95-.25-.95 0-1.8.6-.65.5-1.35.9-.7.6-1.3 1.05-1.85 1.55-3.15 3.4-1.15 1.9-2.3 3.85-1.9 3.15-3.1 6.4-1.2 3.45-2.05 6.95-.85 3.15-1.45 6.4-.5 3.25-1.1 6.4-.5 3.15-.85 6.25-.2 3.1-.7 6.25-.1 1.5-.35 3.15-.25 1.6-.35 3.15-.25.1-.5.1 0-.5-.05-.85-.1-.35-.1-.7-.25-1.95-.35-3.95-.15-1.85-.25-3.85-.25-2.2-.25-4.3-.1-2.25-.2-4.3-.15-1.55-.25-3.05-.15-1.55-.15-3.05-.2-1.4-.35-2.8-.2-1.25-.1-2.55.25-3.4.35-6.65.1-3.25-.35-6.5-.25-2.6-.5-4.95-.1-2.4-.35-4.9-.1-1.35-.1-2.9-.1-1.45-.1-2.8-.15-1.55-.15-2.9 0-1.55-.1-3.1-.15-2.65-.25-5.2-.15-2.6-.15-5.4-.25-2.9-.4-5.8-.1-2.9-.8-5.85-.35-1.6-1.1-2.9m-57 134.65q-3.6 0-4.45 3.75-.6 3.9-.35 7.75.1 3.85.35 7.95.7 5.05 1.3 9.85.55 4.75 1.25 9.75.95 7 1.65 14.1.9 7.15 1.85 14.35 1.3 9.5 2.5 18.7 1.25 7.95 2.4 15.9 1.3 7.9 2.35 15.9.95 5.3 1.5 10.35.75 5.1 1.4 10.5.7 4.4 1.75 8.45 1.2 4.2 3.4 8.05.35.5.6.95.35.35.8.75 3.5.45 6.65-.15 2.65-.45 5.2-2.4 2.5-1.9 3.65-6.25-.15-3.75-.15-7.6 0-3.85-.5-7.55-1.3-9.7-2.75-19.25-1.35-9.6-2.8-19.25-.2-2.25-.55-4.55-.25-2.1-.75-4.45 1.3-.1 2.15.35.95.5 1.85.95 7.1 4.55 14.3 9.05 6.85 4.45 13.95 8.9 6.9 4.1 13.55 8.2 6.75 4.1 13.6 8.05 2.5 1.5 5.05 2.8 2.65 1.2 5.15 2.8 1.95.45 3.4.1 1.25-.35 2.3-1.7.95-1.2.45-4.35-1.3-2.9-3.35-4.8-1.2-1.05-2.4-2.1-1.2-1.05-2.65-1.85-3.15-2.1-6.5-4.35-3.25-2.2-6.65-4.35-4.55-3-9-5.8-4.45-3.15-9.2-6.05-5.3-3.35-10.35-6.45-5.3-3.15-10.7-6.4-.3-.25-1.25-1.25 1.5-.45 2.9-.95 1.7-.35 2.8-.95 5.75-2.05 11.45-4.2 5.75-2.2 11.45-4.3 2.4-.9 4.8-1.85 2.3-.95 4.6-2.15 1.8-.9 3.2-2.2 1.35-1.4 2.2-3.35-2.3-2.7-5.4-1.8-4.95 1.65-9.75 3.1-4.8 1.25-9.55 2.9-6.65 1.85-13 3.85-6.4 1.85-13.05 3.6-2 .7-4.2.95-2.15.3-4.7.8-.1-.9-.2-1.75 0-.8-.25-1.65-1.15-7.95-2.2-15.65-1.3-7.75-2.55-15.7-.7-5.15-1.75-10.4-1.2-5.25-2.8-10.4-1.3-3.4-2.7-6.65-1.5-3-4.3-5.7-2.9-2.6-7-2.9m-38.3 5.1q-1.2 2.8-1.4 5.75-.3 2.9-.45 5.95-.2 6.25-.45 12.5-.35 6.05-.5 12.2-.2 7.25-.2 14.45.2 7.1 0 14.35-.15 7.85-.15 15.65-.1 7.7-.1 15.4 0 5.7.25 11.2.2 5.45.45 11.2.25 6.05.7 12.15.45 6.05 1.6 12 .75 2.5 1.55 4.45.9 2.25 2.3 4.1 2.7.7 5.3.45 2.2-.25 4.75-1.55 2.7-1.25 4.65-4.3 1.9-3.05 3.4-5.95 1.8-2.9 2.8-6.15.25-.7.25-1.3.2-.5-.55-1.2-1.45-1-2.85 0-1 .85-1.95 1.8-.95.95-1.9 1.8-.5.6-.65 1.1-.35.45-.7.95 0-2.45 0-4.8.2-2.45 0-4.75 0-2.75-.15-5.15 0-2.55 0-4.95-.1-3.25-.35-6.5 0-3 0-6.3 0-4.45 0-8.9 0-4.55.25-9.15.1-4.7.45-9.5.15-4.75.15-9.8.1-7.1.1-14.3 0-7.25-.1-14.35 0-4.95 0-9.85-.15-4.75-.35-9.8-.15-5.25-.95-10.15-.85-5.15-3.15-9.7-1.3-2.2-2.9-3.4-1.8-1.2-4.1-1.1-.95 0-1.65.35-.85.3-1.4 1-1.3 2.15-2 4.1m-69.4-106.05h-.1q-.25 0-.25.1-.5.15-1.45.4-.75.2-1.6.45-.8.25-1.55.6-.55.25-.7.4 0 .25.25 3 .1 2.65.6 7.1.45 4.45 1.05 10.25.6 5.7 1.45 12.15.65 6.4 1.6 12.9.8 6.55 1.75 12.5.9 6.05 1.95 11.1.95 5 2.05 8.2.4 1.1 1.45 1.6 1.2.35 2.55.35 1.45 0 2.85-.25 1.25-.35 2.1-.8 1.05 0 1.65-.5l.45-.4q.65-.85.9-1.9.15-.95.25-1.95.1-.6.1-1.1.15-.55 0-1.15-.2-.75-.35-1.4-.1-.7-.35-1.5-.25-1.55-.4-3.15-.25-1.65-.5-3.25-.1-1.7-.35-3.3-.25-1.65-.35-3.35-.25-.7-.35-1.45-.1-.7-.25-1.55-.35-2.5-.7-5.2-.25-2.6-.85-5.15-.3-2.05-.65-4.1-.2-1.95-.45-4.1 0-.45 0-.85 0-.6.1-.95.9-3.65 2.3-7 1.45-3.25 3.3-6.4 2-3.35 4.55-6.25 2.45-3 5.25-5.7.55-.7 1.4-1.15.7-.6 1.55-1.2.2.6.55 1.2.25.45.3 1.05.5 1.6.95 3.4.35 1.7.6 3.35.35 2.3.5 4.7.1 2.3.45 4.6.35 3.35 2.55 6.1.6.85 1.05.9.5.15 1.4-.3l.45-4.55q.15-.6.25-1.3 0-.7 0-1.35.1-3.45-.1-6.6-.25-3.15-.75-6.4-.4-2.65-1.1-5.05-.6-2.55-2.4-4.6-.4-.6-.85-1.1-.5-.45-1.2-.55-1.8-.15-3.4.1-1.65.35-3 1.4-.7.6-1.3 1.05-.6.45-1.2.95-2.65 2.1-4.75 4.65-2.1 2.7-4.2 5.35-2.55 3.45-4.1 7.05-.1.4-.35.9-.25.45-.6 1.05-.1-.35-.1-.45-.1-.15-.1-.25-.4-2.1-.75-4.2-.3-1.95-.9-4.1-.7-3.05-1.75-5.95-1-2.75-2.65-5.3-.5-.75-.85-1.3-.25-.6-1.2-.6-.3 0-.75 0-.5 0-.95.1m123.05 1.3q-.55.35-1.1.65-2.15 1.55-3.5 3.55-1.55 1.95-2.4 4.3-.75 2.35-1 4.8-.1 2.4.45 4.8.7 3.25 2.1 6.05 1.4 2.75 3.15 5.6 1.3 2.35 2.8 4.5 1.65 2.15 3.1 4.35 1.45 2 2.5 4.1 1.2 2.05 1.75 4.45 1.15 3.85.95 7.55-.15 3.75-1.2 7.5-.4 1.25-1.25 2.3-.7 1.05-1.8 1.9-.6.4-1.45.65-1.2 0-2.25-.1-1.15-.2-2.1-.9-1.05-.95-2.15-1.8-.85-.95-1.7-2.05-1.4-2-2-4.2-.65-2.2-1-4.45-.5-2.7-2.15-4.6-1.5-1.7-3.4-3.5-.55 1.8-1.35 3.4-.7 1.65-1.2 3.4-.7 2.1-.95 4.2-.1 2.1.4 4.3 1.3 5.15 4.55 9.4 1.35 1.45 2.8 3 1.5 1.5 3.25 2.8 4.45 3.15 10.1 3.6 1.9.15 3.65 0 1.65 0 3.35-.8 4.25-1.75 6.7-4.65 2.35-3.2 3.5-7.35 1-3.55 1.4-7.15.35-3.65.2-7.5-.35-7.2-3.85-13.5-1.25-2.45-2.65-4.7-1.45-2.2-3.05-4.25-2-2.95-3.85-5.75-1.75-2.9-3.35-6.05-.5-.95-.85-2-.35-.9-.25-2.1.15-2.3 1.2-4.2.95-1.95 2.45-3.75.45-.55 1.15-.8.85-.25 1.5 0 1.05.25 2.4.6 1.1.35 2.05 1.05 2.25 1.5 3.85 3.6 1.65 2.1 2.65 4.7.25.55.4 1.35.1.7.2 1.45.15 1.05 1.2 1.15.6.15.95-.1.35-.25.6-.6.65-1.05.15-2.15-.3-.85-.65-1.7-.35-.7-.7-1.65-.6-1.25-1.3-2.65-.6-1.35-1.35-2.45-2.5-3.4-5.15-6.1-1.45-1.25-3.3-2.2-1.75-.95-3.85-1.4-2-.5-4.05-.15-2.1.25-4 1.45-.6.35-1.3.8m-67.05 8.15q-3.15 3.95-5.15 8.4-1.85 4.45-3.25 9.15-.95 3.25-1.55 6.5-.4 3.25-.65 6.65-.1 3.25-.1 6.4-.15 3.2.35 6.45.3 4.15 1.35 8.1 1.2 3.85 3 7.75 2.75 5.25 7 8.25 4.1 3.15 10.2 3.75 5.7.7 10.05-1.4 4.45-2.1 7.9-6.3 2.35-2.55 4.35-5.35 1.95-2.85 3.6-5.95 1.75-3.3 3.3-6.4 1.6-3.3 3.1-6.65.5-1.2.25-1.9-.35-.6-.95-.9-.7-.45-1.6-.45-1.65.2-2.5 1.1-.8.95-1.45 2.5-1.2 3-2.75 5.8-1.45 2.8-3.25 5.65-1.25 2.05-2.8 3.9-1.55 1.9-3.35 3.45-.85.65-1.65 1.1-.8.6-2 .5-2.65-.15-5-1.2-2.2-1-4-3-2.2-2.55-3.25-5.6-1.15-3-1.7-6.4l.7-.25q4.25-.1 8-1.5 3.85-1.55 7.35-3.75 2.5-1.65 4.7-3.6 2.15-2 4.3-4.1 7.35-7 9.3-16.8.6-3 .15-6-.4-2.75-1.85-5.3-1.55-2.6-3.25-4.8-1.9-2.2-4.35-3.75-.7-.45-1.4-.85-.6-.45-1.25-.85-2.6-1.9-5.4-2.4-2.7-.45-5.6-.35-2.6.25-4.9.95-2.45.7-4.8 1.95-2.65 1.45-5 3.35-2.25 1.8-4.2 4.15m20.05 3.05q3.6-1.75 7-.8 3.5.95 6.1 3.95 1.25 1.5 1.7 3.25.35 1.85 0 3.85-.7 4.35-2.65 8.2-1.9 3.85-5.3 6.75-1.45 1.5-3.1 2.9-1.75 1.45-3.5 2.8-2.2 1.65-4.75 2.9-2.5 1.2-5.3 1.8-.8.2-1.65.35-.75.1-1.85.2-.1-.95-.2-1.75-.15-.85-.25-1.75-.1-3.1.1-6.2.25-3.15.95-6.15 1-5.8 3.65-11 1.45-3 3.7-5.3 2.3-2.5 5.35-4m-152-4.3q-.25 3.95-.25 8.05 0 .75 0 1.5-.1.8-.2 1.5-.15 2.1-.25 4.25-.1 2.05-.1 4.25-.25 3.55-.15 7.15.15 3.5.35 7.15.15 4 0 8.1 0 4.1-.1 8.05-.1 4.8.1 9.4.25 4.5 1.5 9.15.35 1.55 1.65 2.7 1.3 1.15 2.8 1.4 1.2.15 2.15.15 1-.15 2.05-.15 1.3-.25 1.95-1.2.25-.45.85-.85 1.3-.95 1.75-2.25.35-1.25.6-2.8.35-2.55.45-5.05.1-2.4.35-4.95.1-3.3.2-6.65.15-3.35.25-6.85.25-3.95 0-8-.25-3.95-.25-7.9-.1-5.4.25-10.5.25-5.15.15-10.45 0-.35 0-.65 0-.35 0-.7 0-1.2.35-1.55.2-.25 1.4-.25h2.45q7.45.15 14.9 0 7.5-.1 14.85-.7 3.35-.25 6.25-1.15 3-1.05 5.4-3.35.6-.35.95-1.2.55-1.05.15-1.9-.5-.65-1.65-.75l-2.35-.25q-2.6-.35-5.15-.85-2.55-.35-5.15-.45-2.65-.1-5.2-.35-2.55-.25-5.15-.35-4.75-.35-9.45-.35-4.7.1-9.35.95-.35.1-.8.1-.35.1-.7.1-.85 0-1.05-.2-.25-.25-.25-1.1 0-3.15-.1-6.15-.15-3.15-.75-6.05-.1-1.05.85-1.05 1.05 0 2.15 0 .85 0 2.05.1 2.9.35 5.8.5 3 .2 6 .2 2.3-.1 4.85 0 2.5 0 5.15 0 4.1-.2 8.45-.1 4.3.1 8.7-.25 1.55 0 2.75-.6 1.1-.6 2.05-1.4 1.05-.8 1.9-1.7.75-1.1 1.6-2.1.1-.1.1-.35 0-.25.15-.5 0-.8-.6-.95-1.5-.2-2.9-.8-1.3-.6-2.7-.85-2.35-.1-4.65-.3-2.3-.2-4.55-.2-8.3-.15-16.3-.15-8.1 0-16.25-.45-2.2-.15-4.45-.15-2.2.15-4.4.25-.45.1-.95 0-.45 0-.95-.1-1.75-.15-3.6.9-1.85.9-2.7 2.45-1.75 4.1-2.35 8.3-.25 3.25-.45 6.55-.2 3.15-.2 6.5-.1 4.1-.25 8.2z" fill="#fff"/>
        </g>
    </g>
    <g transform="matrix(-2.17974854 1.35992432 .89375305 3.30764771 275.05 161.2)">
        <g>
            <g id="S_mbolo_3_0_Layer0_0_FILL">
                <path d="m17.2 27.7q.7-1.1 1.2-2.2-3.4 1.5-8.85 1.5-1.65 0-4.95-.75 0 .1.05.2.2 1.35.8 1.85.55.5 1.85.6.4.05 3.2.05.55 0 1.1.9.6.9 1.25.9 2.3 0 4.35-3.05m2 4.95q0 .35 0 .4.05.05.2.3 2.95 0 3.7 3.05.1.25.4 2.1.15.95.45.95 1.95 0 3.75-2.85 1.6-2.55 1.6-4.45 0-1.8-1.2-3.2-1.05-1.25-1.95-1.25-1.6 0-4.25 1.4-.75.4-1.3.75-.3.4-.55.8-.85 1.5-.85 2m-4.15 3.85q-.2-.5-.8-.5-.35 0-.7.05-1.15.25-2.05 1.3-.15.25-.25.6-.55 1.3-.55 3 0 1.75.6 2.9 1.05 2.05 3.65 2.05 1 0 2-.6 1.45-.85 1.45-2.25 0-.9-1-1.5-1.45-.9-1.85-1.3-.35-.4-.4-1.2 0-.25 0-1.4.05-.8-.1-1.15z" fill="#ccc"/>
                <path d="m14.95 7.5q-.75-.4-3.05-.4-1.8 0-3.75 1.65-1.95 1.6-1.9 2.8.1 1.05-.5 1.45-.3.2-1.3.35-.65.05-1 .25-.25.1-.4.2-.65.55-.65 1.8 0 .8 1.25 2.55.6.9 1.25 1.7 0 .1-.05.25-.4 1.4-.4 2.55 0 2.4.15 3.6 3.3.75 4.95.75 5.45 0 8.85-1.5.8-1.95.8-3.95 0-1.05-.55-1.85-.25-.35-1.25-1.3-.9-.85-1.3-1.6-.55-1.1-.55-2.6 0-.15.3-1.8.3-1.7.3-2.05 0-2.2-1.2-2.85z" fill="#fff"/>
                <path d="m35.1 4.1q.45.4 1.95 2.25-2-3.7-4.1-5.35-.85-.65-1.7-1-.65 0-1.3 0-4.1 0-6.9.65-5.25 1.2-9.95 3-5.75 2.25-9.1 4.9-4 3.2-4 6.65 0 .5.05 1.1.05 1.05.25 2.25.1.6.25 1.25.15.7.3 1.45.5 2 1.3 4.35.9.25 2.2.55.1.05.25.1-.15-1.2-.15-3.6 0-1.15.4-2.55.05-.15.05-.25-.65-.8-1.25-1.7-1.25-1.75-1.25-2.55 0-1.25.65-1.8.15-.1.4-.2.35-.2 1-.25 1-.15 1.3-.35.6-.4.5-1.45-.05-1.2 1.9-2.8 1.95-1.65 3.75-1.65 2.3 0 3.05.4 1.2.65 1.2 2.85 0 .35-.3 2.05-.3 1.65-.3 1.8 0 1.5.55 2.6.4.75 1.3 1.6 1 .95 1.25 1.3.55.8.55 1.85 0 2-.8 3.95 1.55-.7 2.65-1.7 2.75-2.5 2.75-6.95 0-.65-.15-3-.15-2.35-.15-3.45 0-4.55 3.05-6.95 0-.05.05-.05 1.8-.9 4.1-.9 2.5 0 4.4 1.6z" fill="#333"/>
                <path d="m46 33.7q-.7-2.9-1.25-5.25-1.95-7.55-3.7-12.8-1.95-5.65-4-9.3-1.5-1.85-1.95-2.25-1.9-1.6-4.4-1.6-2.3 0-4.1.9-.05 0-.05.05-3.05 2.4-3.05 6.95 0 1.1.15 3.45.15 2.35.15 3 0 4.45-2.75 6.95-1.1 1-2.65 1.7-.5 1.1-1.2 2.2-2.05 3.05-4.35 3.05-.65 0-1.25-.9-.55-.9-1.1-.9-2.8 0-3.2-.05-1.3-.1-1.85-.6-.6-.5-.8-1.85-.05-.1-.05-.2-.15-.05-.25-.1-1.3-.3-2.2-.55.6 1.85 1.45 3.9.35 1 3.1 7.65 1.55 3.8 5.65 13.45zm-31.75 2.3q.6 0 .8.5.15.35.1 1.15 0 1.15 0 1.4.05.8.4 1.2.4.4 1.85 1.3 1 .6 1 1.5 0 1.4-1.45 2.25-1 .6-2 .6-2.6 0-3.65-2.05-.6-1.15-.6-2.9 0-1.7.55-3 .1-.35.25-.6.9-1.05 2.05-1.3.35-.05.7-.05m4.95-2.95q0-.05 0-.4 0-.5.85-2 .25-.4.55-.8.55-.35 1.3-.75 2.65-1.4 4.25-1.4.9 0 1.95 1.25 1.2 1.4 1.2 3.2 0 1.9-1.6 4.45-1.8 2.85-3.75 2.85-.3 0-.45-.95-.3-1.85-.4-2.1-.75-3.05-3.7-3.05-.15-.25-.2-.3z"/>
            </g>
        </g>
    </g>
    <g transform="matrix(-2.23521423 1.82315063 1.82315063 2.23521423 225.2 117)">
        <g>
            <g id="S_mbolo_2_0_Layer0_0_FILL">
                <path d="m24.95 20.4q-.2-.3-.4-.65-.8.4-1.8.4-.6 0-3.05-1.45-2.4-1.5-3.65-1.5-5.75 0-6.7 3.45v.1q.00839844.125.05.25.15.75.45 2 .2.45.4.9.87265625 1.54394531 2.3 2.05.71171875.25 1.55.25 2.65 0 4.45-1.05 1.8-1.05 2.75-1.05.6 0 1.75 2.1.2.35.4.65-.6-1.4-.6-2.35 0-2.05 2.1-4.1m6.2-8.75q-.05-.05-.2-.2-.4-.4-1.55-1.45-.35-.3-.7-.6-.05-.05-.1-.05-1 1.05-1.25 1.4-.85 1.2-.85 2.45 0 .7.2 1.4.15.75.15 1.25 0 .95-.35 1.75.35.75.75 1.65.75-.25 1.55-.25.9 0 1.65.3-.75-.8-.75-.9 2-3.15 2-4.6 0-1.45-.55-2.15m-3.4 6.45q-.05.053125-.05.15l-.05-.05z"/>
                <path d="m.9 15.6q-.7.2-.85.9-.1.25-.05.45.1.25.15.6.8 2.9 2.8 5.05 2.75 2.65 5.95 1.8.7-.2 1.35-.5-.2-.45-.4-.9-.3-1.25-.45-2-.04160156-.125-.05-.25-.25.05-.3.05-2.6.7-4.85-.75-2.05-1.45-3.1-4.5-.05.05-.2.05m30.05-4.15q2.05-2.35 1.15-5.8-.85-2.85-2.95-5-.25-.2-.45-.4-.15-.15-.45-.2-.65-.2-1.15.3-.1.15-.15.15 2.1 2.45 2.35 4.9.1 2.1-1.05 3.75.15.1.35.2.05 0 .1.05.35.3.7.6 1.15 1.05 1.55 1.45z" fill="#cc9"/>
                <path d="m9.35 18.4q-.1.05-.15.1-.75.7-1.65.95-1.55.4-2.55-.15-.8-.45-1.55-1.55-1.05-1.55-1.2-1.65-.45-.6-1.15-.55 1.05 3.05 3.1 4.5 2.25 1.45 4.85.75.05 0 .3-.05v-.1q-.2-.85-.2-.9 0-.7.2-1.35m17.6-17.9q-.4.6-.15 1.25.05.2.85 1.85.6 1.2.6 2.15-.05 1.1-1.15 2.25-.4.4-.9.7 1.1 0 2.05.45 1.15-1.65 1.05-3.75-.25-2.45-2.35-4.9z" fill="#ffc"/>
                <path d="m24.95 20.4q-2.1 2.05-2.1 4.1 0 .95.6 2.35.9 1.4 1.9 1.4 2.25 0 4.9-1.8 2.65-1.8 2.65-3.3 0-1.05-1.6-2.9-.5-.55-.85-.95-.75-.3-1.65-.3-.8 0-1.55.25-1.2.3-2.3 1.15m4.9 3.1q-1.15 0-1-1.3 0-1.5 1.15-1.35 1.1.2 1.1 1.3 0 .5-.25.85-.35.5-1 .5m-3.85-.55q1.3.15 1.3 1.35 0 .55-.35.95-.45.5-1.1.5-.95 0-1.2-.65 0-.05 0-.75 0-1.6 1.35-1.4z" fill="#fc9"/>
                <path d="m27.3 24.3q0-1.2-1.3-1.35-1.35-.2-1.35 1.4 0 .7 0 .75.25.65 1.2.65.65 0 1.1-.5.35-.4.35-.95m1.55-2.1q-.15 1.3 1 1.3.65 0 1-.5.25-.35.25-.85 0-1.1-1.1-1.3-1.15-.15-1.15 1.35z" fill="#83684e"/>
                <path d="m22.75 20.15q1 0 1.8-.4-1.1-1.7-3-3.7-1.25-1.35-4.15-3.65-5.6 2.95-6 3.25-1.6 1.15-2.05 2.75-.2.65-.2 1.35 0 .05.2.9.95-3.45 6.7-3.45 1.25 0 3.65 1.5 2.45 1.45 3.05 1.45m1.45-11.15q-.55.15-1.6.7.1.15.2.3.95 1.4 1.85 3.45.6 1.35 1.85 4.15.35-.8.35-1.75 0-.5-.15-1.25-.2-.7-.2-1.4 0-1.25.85-2.45.25-.35 1.25-1.4-.2-.1-.35-.2-.95-.45-2.05-.45-.95-.05-2 .3z" fill="#333"/>
                <path d="m24.55 19.75q.2.35.4.65 1.1-.85 2.3-1.15-.4-.9-.75-1.65-.25.65-.75 1.2-.55.6-1.2.95z" fill="#ccc"/>
                <path d="m22.8 10q-.1-.15-.2-.3-.3.15-.65.3-1 .5-2.4 1.2-1.15.65-2.15 1.2 2.9 2.3 4.15 3.65 1.9 2 3 3.7.65-.35 1.2-.95.5-.55.75-1.2-1.25-2.8-1.85-4.15-.9-2.05-1.85-3.45z" fill="#fff"/>
            </g>
        </g>
    </g>
    <g>
        <g id="Layer7_0_FILL">
            <path d="m288.15 313.55q-.05 1.25-.2 2.95-.25 3.9-.45 6.05.15 0 .35 0 .3 0 .7.05l.85-8.6q2.75 1.1 9.55 3.7-1.35 1.1-4.25 3.3-1.6 1.25-2.6 2 .5.1 1.1.2 2.05-1.7 5.85-4.75.15-.3.25-.6.15.05.3.15-.25.2-.55.45-.25.6-.5 1.3-1.15 2.9-1.55 4.35.45.1.95.25.5-1.3 1.85-4.5.35-.85.65-1.55.2-.75.45-1.25-.5-.15-1.15-.35-1.9-.55-5-1.7-3.45-1.25-5.25-2l.25-2.1q-.75-.1-1.4-.15-14.5-1.25-17.2-1.45.1.6.15 1.15 4.4.25 10.8.65 3.75.25 6.2.4-.05.45-.05.95-.05.5-.1 1.1z" fill="#a33600"/>
            <path d="m223.75 315.85q-.45-.85-.85-1.45-.2-.45-.4-.8-.45.3-1.2.75-2.8 1.8-9.8 6.4-.5.35-.95.65.15.35.35.7-2.15 1.05-5.85 2.9-5.5 2.65-9.05 4.45-.8.45-1.55.8-.3.1-.6.3-.55.25-1.05.55.25.3.55.7.15.2.25.35.4-.2 1.1-.5-.05-.1-.15-.2l.3.15q-.05 0-.15.05 1.25 1.65 2.85 3.9 1.1 1.5 1.9 2.6 1.2-.6 2.35-1.1-1-1.45-2.55-3.45-.25-.3-.45-.6l6.5 2.4q.65-.3 1.35-.6-2.2-1-6.25-2.45-1.7-.6-2.9-1-.7-.25-1.2-.4.25-.2.65-.35 4.6-2.2 14.7-7 1.4 2.75 3.8 7.6v-.05q.6-.2 1.25-.4-1.3-2.4-4-7.65.45-.25 1-.5.2-.55-.05-.9-.2-.2-.35-.45 5.65-4.05 8.45-6 .25.5.55 1.15.3.55.7 1.25.95 1.75 2.5 4.2 1.65 2.65 3.25 5.2.55-.15 1.05-.3-3.4-6.15-5.4-9.7.9-.4 2.1-.9 2.3-.9 3.35-1.3l-.55-1.35-.5.25q-.05 0-.3.1-.8.3-3.65 1.55-.6.25-1.1.45z" fill="#5d1f00"/>
        </g>
    </g>
    <g>
        <g id="Layer6_0_FILL">
            <path d="m277.9 243.4q-.05.05-.05.15-.55.8-.9 1.5-.1.2-.25.4.15.15.3.3 7.65 7.75 7.75 7.6l.05-.05q-.05 0 .15.15.3-.35.6-.7.25-.45.55-.95.25-.45.55-.95.25-.4.55-1 .3-.7.65-1.35-2.25-1.6-7.45-5.5-.9-.65-1.65-1.25-.15.2-.15.4-.4.65-.7 1.25m-18.7-.25q-.15-.15-.35-.35-.15.2-.3.35-7.6 7.6-7.4 7.75l.05.1q-.05-.05-.15.15.35.4.75.75.85.85 2.1 1.75.5.45 1.15.9.8.55 1.45 1.05 1.65-2.55 5.25-8.15.5-.9 1.1-1.7-.25-.15-.4-.3-.8-.5-1.45-.95-1-.7-1.8-1.35m-3.5-10.9q-.2-.05-.45-.05-10.65-1.45-10.65-1.2v.1q-.05-.05-.25-.1-.05.5-.05 1 0 .35.05.85 0 .7 0 1.6.1.6.25 1.3.05.9.15 1.7 2.95-.2 9.6-.55 1.05-.05 2.1-.1-.05-.2-.1-.4-.2-.85-.3-1.55-.15-.6-.2-1.15-.05-.5-.1-.95-.05-.3-.05-.5m16.5 17.4q-.2-.9-.3-1.75-.05-.25-.1-.4-.2.05-.4.05-.7.1-1.35.25h-.05q-.05 0-.1 0-.55.05-1.05.1-.5 0-1 .05h-.1q-.2 0-.35 0-.05.2 0 .45 0 1.6.05 3.05 0 1.2.05 2.2.05 4.35.2 5.6l.05.45v.05h.1q-.05.0015625-.05.05 0 .05 0 .2.1 0 .15 0 .45 0 .9.05.5 0 1.05-.05.6 0 1.3-.1h.05q.6-.05 1.3-.1.85-.15 1.55-.25-.55-3.05-1.9-9.9m-23.25-29.35q-.5.6-.95 1.1 2.35 1.7 7.65 5.65.9.65 1.7 1.3.1-.25.2-.35.4-.65.8-1.2.25-.35.45-.6.35-.45.65-.85.15-.2.25-.35-.1-.1-.25-.3-7.3-7.4-7.45-7.25l-.05.05-.15-.2q-.35.3-.65.6-.65.55-1.3 1.35-.1.05-.15.15-.4.4-.75.9m30.25-1.3q-.6-.5-1.2-.9-1.1 1.75-3.85 5.9-.45.7-.9 1.4.2.1.4.2.65.45 1.25.85.9.7 1.6 1.25.15.2.35.35.1-.15.25-.3 5.55-5.7 5.35-5.85l-.05-.05.15-.1q-.35-.3-.7-.65-.7-.65-1.65-1.4-.5-.35-1-.7m-13.35-5.5q-.5-.05-1.1-.05-.8 0-1.45 0 .45 2.35 1.5 7.95.2.95.35 1.85.2 0 .4 0 .7-.1 1.4-.1 1.05-.05 1.85 0 .15 0 .3 0 .1 0 .15 0 0-.15 0-.35-.2-8.8-.4-8.8l-.05-.05q.05 0 0-.15-.4-.15-.85-.15-.9-.15-2.1-.15m23.2 21.1q-.15-.75-.35-1.45-2.25.1-7.7.4-.95 0-1.8.05.1.2.15.4.05.1.1.2.15.65.3 1.25.25 1.15.4 2 .05.25.1.45.15 0 .35.05 9.1 1.2 9.1.95v-.1q.00117188.05.15.05 0-.45-.05-.9-.05-.3-.15-.7-.1-.65-.25-1.5-.2-.55-.35-1.15z" fill="url(#Gradient_2)"/>
            <path d="m258.8 226.2q-.2.25-.45.6-.4.55-.8 1.2-.1.1-.2.35.2.1.4.25 4 2.95 6.45 4.85-5.3-.75-8.15-1.15-.2-.05-.35-.05 0 .2.05.5.05.45.1.95.05.55.2 1.15.1.7.3 1.55.05.2.1.4.25 0 .45 0 5.35-.3 8.35-.4-4.05 4.05-6.2 6.2-.15.1-.2.2.2.2.35.35.8.65 1.8 1.35.65.45 1.45.95.15.15.4.3.05-.2.2-.4 2.05-3.2 3.4-5.35.2 4.7.25 9.4 0 .45 0 3.15 0 1.05 0 2.35 0 1.55 0 3.65 0 .6 0 1.2 0 1.95 0 4.2 0 9.2-.1 18.25 0 .65 0 1.35-.05 1.1-.05 2.2 0 .95 0 1.9-.2 15.35-.65 30.1-.05.45-.05 1-.05 2.5-.15 5.05.55-.05 1.25 0 0-3 0-5.9 2.95-2.25 7.3-6.25.55 6.55 1.05 12.15.75 0 1.4 0-.45-6.45-.95-13.45.4-.45.8-.85 2.55-2.35 5.35-5 2.2 13.5 3.35 19.65.2 0 .45 0 .55 0 1.15 0-1.85-11.75-3.35-21.2-.1-.8-.25-1.6 0-.35-.1-.75-.1-.7-.2-1.4-1.9-11.8-3.3-19.65-.65-3.85-1.3-7.55-.1-.55-.2-1.05-.1-.45-.2-.9-.1-.55-.2-1.1-2.25-12.1-4.7-22.55-.2-1.05-.45-2-.55-2.2-1.05-4.25 1.3 1.35 2.4 2.5.6.55 1.1 1.1.75.75 1.4 1.4.15.2.25.3.15-.2.25-.4.35-.7.9-1.5 0-.1.05-.15.3-.6.7-1.25 0-.2.15-.4-.2-.1-.4-.25-3.9-2.9-6.25-4.65 5.15.65 7.8 1 .15.05.35.05-.05-.2-.1-.45-.15-.85-.4-2-.15-.6-.3-1.25-.05-.1-.1-.2-.05-.2-.15-.4-.2 0-.4.05-4.95.2-7.75.25 3.75-3.85 5.6-5.7.1-.1.2-.15-.2-.15-.35-.35-.7-.55-1.6-1.25-.6-.4-1.25-.85-.2-.1-.4-.2-.1.15-.2.3-2.25 3.4-3.7 5.55-.05-5-.1-7.6 0-.15 0-.2v-.05q0-.15 0-.25-.05 0-.15 0-.15 0-.3 0-.8-.05-1.85 0-.7 0-1.4.1-.2 0-.4 0 .05.2.05.4 1.05 5.55 1.55 8.5-4.55-4.65-6.8-6.9-.1-.15-.25-.25-.1.15-.25.35-.3.4-.65.85m-.2.85q.25-.35.5-.65.35-.45.55-.85 2 2.1 3.2 3.3 1.7 1.65 4 3.85l.05.05q-.15.05-.25.1-.2.15-.35.3-.05.05-.1.2-.15.15-.25.35-.5-.1-.95-.15-1.2-.95-2.1-1.6-2.75-2.15-4.95-3.7.35-.65.65-1.2m-2.15 7.85q-.2-.7-.25-1.25-.1-.5-.15-.85 1.45.2 2.55.35 1.15.15 2 .3 1.85.2 4.15.4.55.45 1 .75 0 .1 0 .15.1.5.3.9-.2.1-.35.3-1.75.05-3 .05-3.25.15-5.9.35-.25-.8-.35-1.45m6.2 10.2q-.75-.45-1.35-.85-1.15-.8-1.85-1.3 2-1.95 3.1-3.15 1.5-1.5 3.25-3.4.25-.05.5-.05.1 1.4.15 2.8-.4.55-.7 1.05-1.75 2.65-3.1 4.9m12-18.4q1.05.75 1.65 1.2-1.65 1.6-2.6 2.65-1.4 1.4-3.15 3.35-.25 0-.5.1-.1-.15-.2-.3-.15-.2-.25-.35-.15-.1-.15-.15 0-.6 0-1.05 0-.05 0-.1 0-.05.05-.1.7-1.05 1.2-1.85 1.55-2.35 2.75-4.2.65.4 1.2.8m-1 7.6q3-.1 5.3-.25.25.7.45 1.35.3 1.2.45 2-2.55-.35-4.15-.55-1.85-.25-4.15-.45-.65-.5-1.2-.9.05-.2 0-.45 0-.2-.05-.4.2-.15.3-.25 1.8-.1 3.05-.1m-4.85-10.85q0 2.5.1 4.05 0 1.8.15 4.25-.2.3-.4.6-.1.15-.25.3-.25-.05-.5-.05-.35-.05-.65 0-.35-2.1-.55-3.45-.55-3.15-1.1-5.55.75-.1 1.35-.15 1.15-.05 1.85 0m-2.95 10.5q0 .1-.05.2-.15-.1-.25-.2.1 0 .3 0m3.05-1.15q.1-.15.25-.35-.05.25 0 .55-.15-.1-.25-.15l-.05-.05zm1.9 3.55q-.1 0-.25 0-.05-.15-.05-.2.15.05.3.2m-1.25 1.35q-.3-.25-.55-.5.25-.1.45-.15 0 .3.1.65m.5.5q-.2-.85-.25-1.5 0-.05.05-.05.25.85.45 1.75-.15-.1-.25-.2m-1-.55q.3.25.6.55.25 1.6.45 2.8.5 2.9 1.05 5.3-.45.5-.8 1-.2.05-.35.1-.55-5.4-.95-9.75m1.1 1.1q.15.1.25.2.7 3 1.4 6.45-.2.2-.3.4-.9-4.4-1.35-7.05m1.2.7q-.35-1.45-.7-2.85.3.05.6.1 1.15.9 2 1.55 2.75 2.05 4.9 3.65-.15.4-.3.8-.1.25-.2.45-.55 1-.95 1.65-2.05-2.15-3.3-3.4-.95-.95-2.05-1.95m-3.75-1.95q-.05-.2-.05-.4.15.05.25.1-.1.15-.2.3m-.3-.5q0 .45 0 .9-.05.05-.1.15-.05-.6-.1-1.15.1.05.2.1m.3 1.25q.15-.3.35-.5.45 4.55.85 9.75-.55.05-.95.1 0-2.95-.05-4.7-.05-2.05-.2-4.65m1.25 9.65q.5-.05 1.05-.1.05 0 .1 0h.05q.65-.15 1.35-.25.2 0 .4-.05.05.15.1.4.15-.25.3-.45 1.8 8.7 3.75 20.15-1.5-1.2-3.35-2.95-.55-.5-1.05-1-.2-1.95-.35-3.75-.7.1-1.3.1.1 1.1.2 2.25-1.1-1.15-2.15-2.25-.05 0-.15 0 0-.15 0-.2l-.05-.05v-.05q-.00898437-.00898438-.05-.05-.05-.2 0-.4-.15-1.25-.2-5.6-.05-1-.05-2.2-.05-1.45-.05-3.05-.05-.25 0-.45.15 0 .35 0h.1q.5-.05 1-.05m-1.2 12.8q1.1 1.05 2.55 2.4.5 6.75 1.15 14.4-1.9 1.8-4.05 3.95.05-.8.05-1.6.2-10.3.3-19.15m3.95 3.7q1.95 1.75 4.45 4 .35 1.9.65 3.9-1.75 1.7-3.95 3.85-.6-6.2-1.15-11.75m5.3 9q.35 2.15.7 4.4 1.8 11.1 3.2 19.9-2.1-1.6-4.55-3.7-1.05-.95-2.05-1.85-.5-6.05-1.15-12.4-.1-1.15-.2-2.3 1.9-1.85 4.05-4.05m-5.4 5.4q.05.55.05 1.15.45 5.55.9 10.7-3-2.6-5.2-4.3.05-1.8.05-3.5 1.8-1.7 4.2-4.05m-4.25 9.4q2.15 1.65 5.4 4.1.75 9.6 1.45 17.85-2.6 2.5-3.8 3.7-1.5 1.4-3.35 2.95.05-15.4.3-28.6m7.1 5.45q.55.4 1.1.85 3.3 2.55 5.55 4.35.3 1.95.6 3.75-.85.75-1.95 1.85l-4.05 4.2q-.6-7.25-1.25-15z" fill="#333"/>
        </g>
    </g>
    <g>
        <g id="Layer5_0_FILL">
            <path d="m246 320.35.2.4q1.8-.2 5.25-.6l-.2-.65q-3.5.55-5.25.85m3.7-5.25-.2-.45q-3.5.8-5.2 1.25l.05.15.1.35q2-.5 5.25-1.3m19.4 1.75q.05.65.15 1.25 2-.25 3.75-.45l-.15-1.35q-1.75.25-3.75.55m-.55-6.15q1.95-.5 3.7-.8l-.05-.45q-1.75.4-3.7.85 0 .2.05.4m-.4-3.8q.05.4.1.8 1.8-.35 3.75-.7l-.1-.75q-1.7.25-3.75.65m-.25-3.2q0 .35.05.75 2-.2 3.75-.4l-.1-.85q-1.65.2-3.7.5m-25.4 7.95.3.6q1.55-.25 5.55-.95l-.25-.7q-3.7.7-5.6 1.05m-2.05-5.05.25.6q1.95-.15 6-.55l-.15-.4q-4.05.35-6.1.35m-2-4.8.25.55q1.8-.35 6.1-1.25l-.15-.4q-4.2.8-6.2 1.1m-2.35-5.75.35.75.05.1q1.7-.35 6.45-1.1l-.3-.9q-4.7.8-6.55 1.15m4.85-5.9-.25-.75q-3.2.55-5.1.85l-.15.95q1.7-.3 5.5-1.05m29.55 1.2-.1-1.3q-1.75.3-3.9.65.1.6.15 1.25 2.15-.3 3.85-.6m-3.4 4.85q0 .2.05.4 2-.4 3.8-.7l-.05-.45q-1.75.3-3.8.75m1.95-11.05-.2-.5q-1.35.2-3 .5.05.25.05.5 1.65-.3 3.15-.5m-3.05-8.05-.35-.9q-5.1.95-13.45 2.5-10.9 2-15.55 2.85l-.15 1.1q4.3-.85 13.75-2.7 9.3-1.8 15.75-2.85m-9.6 39.15q-.1.25-.15.45.1 1.45.25 3.85.2 0 .35 0-.15-.85-.25-2.2-.1-1.2-.2-2.1m1.55-5.05q-.05.3-.15.55.25 1.5.4 4.45.2 3 .25 4.35.3 0 .6 0-.25-1.25-.5-3.75-.35-3.6-.6-5.6m3.2 3.5q-.45-.75-.95-1.4.75 5 1.2 7.25.4 0 .7 0-.3-1.2-.7-4.05-.15-1.05-.25-1.8m2.65 3.7q-.25-.4-.5-.7 0-.05-.05-.05.25 1.15.55 2.9.2 0 .35 0-.15-.6-.25-1.5-.05-.4-.1-.65m-3.7-14.75q-.1.3-.2.65.35 2.45.55 4.25.15.25.3.5h.05q-.15-.95-.3-2.25-.25-1.8-.4-3.15m1.1-4.3q-.05.15-.05.25.5 3.4 1.05 7.3.45 3.2.8 5.55.3.55.7 1.15-.3-2.2-.6-4.05-.7-4.5-1.9-10.2m3.65 8.7q0 .15 0 .35.8 6.25 1.15 8.7.05.05.1.2.3.4.55.75-.85-4.3-1.45-7.55-.2-1.15-.35-2.45m-2-15.15q-.2.65-.3 1.3.85 4.2 1.45 8.05-.55-4.1-1.15-9.35m-10.25 9.8q-.55-.75-1.15-1.6.8 2.85 2.1 7.35.75 2.6 1.35 4.3.1-.5.3-.95-.65-1.95-.85-2.75-.55-1.8-1.75-6.35m3.25 4.45q.15.5.3 1.05.1-.2.1-.4-.2-.4-.4-.65m-8.45-11.75q.2.55.4 1.15.9 2.7 2.75 8.2.2.65 1.7 7.25.75 3.15 1.45 4.85.15-.5.3-1-1.35-4.85-2.95-10.2-1.3-4.35-2.5-8.7-.55-.75-1.15-1.55m3.05-12.25q-.4 0-.8.1 1.45 6.15 2.85 11.45.4 1.5.85 3.3.35.45.65.85.1.2.2.3-.2-1.35-.35-1.95-.8-3.2-1.6-6.5-1.15-4.45-1.8-7.55m-5.65.95q-.25.05-.5.1.25 1.45.5 2.85.35.35.65.75-.1-.75-.3-1.8-.25-1.1-.35-1.9m2.95-.55q-.35.1-.65.2.5 2.45 1.4 6.5.2.95.4 1.8.2.25.4.55-.15-.55-.25-1.1-.7-2.9-1.3-7.95m12.8-2.3q-.25 0-.5.05.55 2.4 1.3 6.35.1-.3.2-.6-.2-.9-.4-2.45-.35-2-.6-3.35m-2.95.55q-.25.05-.6.1 1 4.4 1.8 9.35.4 2.45.7 4 .25-.95.45-1.85-.3-1.45-.7-3.6-1.05-4.8-1.65-8m-3.25.6q-.35.05-.8.15 1.4 5.9 2.95 13.45.75 3.65 1.25 6.05.2-.7.4-1.35-.9-3.55-1.5-6.2-1.2-5.2-2.3-12.1m8.1-14.7v-.1q-17.2 2.15-24.45 3l-.05.9q3.95-.55 11.95-1.85 7.3-1.15 12.55-1.95m-6.15-6-.45-.25q-2.7.45-6.2 1.05-4.9.85-7.7 1.3l-.55.65q2.65-.5 6.5-1.25 4.7-.85 8.4-1.5m4.9 2.65-.05-.1-.3-.2q-.75.1-1.5.2-11.3 1.2-11.35 1.2-4.65.7-8.3 1.15l-.35.4q3.55-.4 10.55-1.25 6.4-.8 11.3-1.4m-9.55-5.1q-1.35.1-3 .3-2.05.3-3.65.5l-.8 1q2.1-.35 5.1-.85 1.9-.25 3.3-.5z" fill="#772700"/>
            <path d="m244.45 316.4.35.85 1.2 3.1q1.75-.3 5.25-.85l-1.55-4.4q-3.25.8-5.25 1.3m24.8 1.7q.05 1.2.2 2.15 0 .75.1 1.35h-1.6q0 .35.05.75-.3-.35-.7-.75h-14.45l-.45 1.2-.95-2.65q-3.45.4-5.25.6l5.65 14.6 21.25-4.9-.1-12.8q-1.75.2-3.75.45m3-8.2q-1.75.3-3.7.8.25 3.5.55 6.15 2-.3 3.75-.55zm-.25-2.9q-1.95.35-3.75.7.1 1.35.25 2.6 1.95-.45 3.7-.85zm-4.05-2.55q.05.55.1 1.1.05.7.1 1.35 2.05-.4 3.75-.65l-.2-2.2q-1.75.2-3.75.4m-25.15 7.8.15.45.35.85 1 2.35q1.7-.45 5.2-1.25l-1.15-3.35q-4 .7-5.55.95m-2.1-5.05.2.5.8 1.95.4.9.4 1.1q1.9-.35 5.6-1.05l-1.4-3.95q-4.05.4-6 .55m-1.85-4.45.2.4.95 2.4.45 1.05q2.05 0 6.1-.35l-1.75-5.15q-4.3.9-6.1 1.25zm4.1-6.95q-4.75.75-6.45 1.1v.1l1.95 4.8q2-.3 6.2-1.1zm-7.5-4.6-.3 2.45v.05l.95 2.35q1.85-.35 6.55-1.15l-1.7-4.75q-3.8.75-5.5 1.05m35.5 4.7q-1.8.3-3.8.7.4 3.55.75 7.1 2.05-.3 3.7-.5zm-4.3-3.95q.25 2.1.45 4.25 2.05-.45 3.8-.75l-.4-4.1q-1.7.3-3.85.6m3.4-5.95h-.7l-.3-.85q-1.5.2-3.15.5.35 2.5.6 5.05 2.15-.35 3.9-.65l-.2-2.25zm-4.4-9.8-.85-2.25-27.85 5.6-.3 2q4.65-.85 15.55-2.85 8.35-1.55 13.45-2.5m-9.15 3.8q.4-.05.7-.05 1.3-.25 2.45-.4.25-.1.6-.15 2.25-.4 3.65-.65 0 .15.15 0 .55-.15 1-.25.1.75.15 1.45.15 1.05.3 2.15.2 1.45.35 3.05 1.65-.3 3-.5l-2.85-7.55q-6.45 1.05-15.75 2.85-9.45 1.85-13.75 2.7l-.9 7.6q1.9-.3 5.1-.85l-2.05-5.85.4-.6v-.05q.75-.15 1.85-.3h.05q1.3-.25 3.05-.5.2-.05.4-.05 2.1-.4 4.8-.8.4-.1.8-.15 1.45-.3 3.1-.5.3-.05.6-.1.2-.05.4-.1 1.3-.2 2.4-.4m5.95-12.3q-5.25.8-12.55 1.95-8 1.3-11.95 1.85l-.55 4q6.4-1.15 17.5-3.2 6.7-1.25 8.7-1.55zm0-.1-1.25-3.25q-4.9.6-11.3 1.4-7 .85-10.55 1.25l-1.05 1.25-.3 2.35q7.25-.85 24.45-3m-3.1-3.35q.75-.1 1.5-.2l-4.55-2.35q-3.7.65-8.4 1.5-3.85.75-6.5 1.25l-1.7 2.15q3.65-.45 8.3-1.15.05 0 11.35-1.2m-10.05-4.05q-3 .5-5.1.85l-2.25 2.75q2.8-.45 7.7-1.3 3.5-.6 6.2-1.05l-3.25-1.75q-1.4.25-3.3.5m-.65-.65q1.65-.2 3-.3l-4.15-2.25-2.5 3.05q1.6-.2 3.65-.5z" fill="url(#Gradient_3)"/>
            <path d="m231.4 322.65.15.25q2-.85 6.1-2.65 4.4-1.85 7.15-3l-.35-.85-.1-.35q-.85.4-1.55.8-7.25 3.8-11.4 5.8m11.55-9.95q-1.35.6-5.35 2.75-2.65 1.45-5.55 3 .65-.2 7.25-3.1 1.85-.8 4-1.8zm-2.65 8.45h-.1q-.5.15-5.25 2.05-1.5.6-2.55 1l.15.3q7.55-3.3 7.75-3.35m-12.1-3.5.35.55q1.9-1.1 5.45-3.15 4.85-2.75 8.1-4.5l-.4-.9q-2.6 1.55-5.45 3.3-4.4 2.7-8.05 4.7m-3.15-11.4q1.15-.7 2.1-1.3l-5.15 2.85.2.3q1.2-.75 2.85-1.85m15.4.35-.45-1.05q-2.15 1.3-7.1 4.35-4.85 2.95-6.9 4.25l.65 1.05q10.25-5.35 14.25-7.5l-.2-.5zm-1.4-3.45-.2-.4q-2.2 1.2-8.3 4.6-4.5 2.55-6.55 3.65l.2.3zm-2.6-6.35q-.1.05-.2.15-1.8.9-8 4.3-5.6 3.15-7.7 4.3l.35.55 15.6-9.1v-.1z" fill="#431600"/>
            <path d="m240.2 321.15h.1q-.2.05-7.75 3.35l1.3 2.05 5.15 11.8 12.85-3-5.65-14.6-.2-.4-1.2-3.1q-2.75 1.15-7.15 3-4.1 1.8-6.1 2.65l.85 1.3q1.05-.4 2.55-1 4.75-1.9 5.25-2.05m2.6-8.9-.3-.6-.4-1.1q-3.25 1.75-8.1 4.5-3.55 2.05-5.45 3.15l2.85 4.45q4.15-2 11.4-5.8.7-.4 1.55-.8l-.05-.15-1-2.35q-2.15 1-4 1.8-6.6 2.9-7.25 3.1 2.9-1.55 5.55-3 4-2.15 5.35-2.75zm-16.15 2.95 1.55 2.45q3.65-2 8.05-4.7 2.85-1.75 5.45-3.3l-.8-1.95q-4 2.15-14.25 7.5m13.35-9.65-.95-2.4-14.85 8.15 1.8 2.85q2.05-1.3 6.9-4.25 4.95-3.05 7.1-4.35m-1.3-3.2-.25-.55-1.95-4.8-15.6 9.1 1.1 1.7 5.15-2.85q-.95.6-2.1 1.3-1.65 1.1-2.85 1.85l1.8 2.9q2.05-1.1 6.55-3.65 6.1-3.4 8.3-4.6zm-2.25-5.55-.35-.75-.95-2.35-15.95 9.7 1.35 2.15q2.1-1.15 7.7-4.3 6.2-3.4 8-4.3.1-.1.2-.15m7.2-1.1q-.15-.5-.35-.95-.85-2.5-1.65-4.7-.15-.4-.25-.75-.95-2.6-1.7-4.7-.35-.9-.65-1.65l-.4.6 2.05 5.85.25.75 1.7 4.75.3.9 1.7 4.9.15.4 1.75 5.15.15.4 1.4 3.95.25.7 1.15 3.35.2.45 1.55 4.4.2.65.95 2.65.45-1.2q-.1-.25-.2-.5-.05-.3-.15-.55-.05-.2-.2-.45-.1-.4-.25-.7-.75-2.1-1.6-4.45-.1-.25-.15-.5-.6-1.55-1.2-3.25-.1-.4-.25-.75-.65-1.9-1.35-3.9-.1-.2-.15-.4-.25-.75-.55-1.55-.7-1.9-1.3-3.6-.05-.25-.1-.45-.95-2.55-1.75-4.85m19.65 22q.25.3.5.7.1.15.25.3.7 1 1.35 1.8.55 0 1 0-.65-.85-1.45-1.9-.4-.5-.8-1.05-.35-.45-.7-1-.55-.7-1.1-1.55-.75-.95-1.35-1.9-.25-.25-.45-.6-.1-.2-.25-.35-.2-.3-.4-.55-.75-1.1-1.45-2.1-.1.5-.25 1 .6.85 1.25 1.8.2.2.3.4.2.3.45.6.5.65.95 1.4.3.4.6.85.8 1.15 1.5 2.1.05 0 .05.05m1.4-31.85q-.05-.15-.05-.25-.05.1-.05.25-.2.8-.4 1.55.15 1.75.35 3.65.05.6.15 1.25.2 2.1.4 4.3.05.2.05.35.25 2.85.5 5.85.05.55.15 1.15.05.4.05.7.1 1.25.2 2.65.05.35.1.75.1 1.3.25 2.7 0 .25 0 .45.25 2.75.5 5.95.05.6.15 1.2 0 .15 0 .3.35.55.7 1.05-.05-.7-.1-1.4-.05-.65-.1-1.2-.3-3.25-.5-6.1-.05-.2-.05-.4-.1-1.35-.25-2.6-.05-.45-.05-.85-.15-1.3-.25-2.55 0-.35-.05-.7-.1-.85-.15-1.6-.25-2.8-.45-5.45-.05-.15-.05-.35-.25-2.25-.4-4.3-.1-.65-.15-1.25-.25-2.65-.5-5.1m-21.15 3.85q.15.3.2.65 1.35 1.8 2.8 3.85.35.4.65.9.15.15.2.25v.05q.6.8 1.15 1.55 1 1.45 1.85 2.65.1.1.25.35.4.6.8 1.15.6.85 1.15 1.6 1.3 1.8 1.95 2.7.2.25.3.4.05.1.1.1.4.6.9 1.25.2.25.4.65 0 .2-.1.4-.1.5-.25.9-.1.45-.25.85-.25 1-.45 1.85-.2.45-.3.95-.1.35-.2.7-.1.25-.15.5-.3 1-.55 1.9-.15.5-.3 1-.4 1.3-.75 2.35l.05.05q.1.25.15.6.1-.35.2-.65.3-.8.6-1.8.15-.4.25-.8.35-1.25.8-2.75.1-.25.2-.45 0-.05 0-.1.1-.35.2-.75.35-1.25.75-2.65.1-.4.25-.85.2-.85.5-1.8-.65-.85-1.15-1.55-.1-.15-.25-.25-.05-.1-.1-.2-.2-.25-.5-.7-.95-1.25-2.9-4-.25-.4-.55-.85-.1-.15-.2-.25-.25-.3-.45-.6-1.2-1.7-2.75-3.9-.05-.05-.05-.1-.05-.05-.05-.1-.3-.35-.55-.7-.5-.7-.9-1.3-1.25-1.7-2.35-3.2-.2-.3-.45-.65-.45-.6-.8-1.15.2.6.4 1.2.15.35.25.75m10.8-7.7q-.45.1-.85.15-.65.15-1.35.25-.9.15-1.8.3-.45.1-.8.2-.95.15-1.85.3-.35.05-.7.15-1.2.2-2.3.4-.25.05-.45.05-1 .2-1.9.35.1.15.3.35.8-.15 1.65-.3.25-.05.5-.1 1.05-.15 2.3-.35.3-.1.65-.2.9-.15 1.9-.3.4-.1.8-.1.5-.15 1.15-.25 1-.2 1.95-.35.45-.1.8-.15 1.4-.3 2.65-.5.35-.05.6-.1 1.3-.25 2.45-.5.25-.05.5-.05 1.4-.25 2.5-.5-.45 2-1.2 5.1-.05.25-.15.5-.1.35-.15.7-.1.3-.2.6-.4 1.9-1 4.15-.1.55-.25 1.2-.1.2-.15.4-.2.9-.45 1.85-.2.8-.4 1.6-.1.55-.25 1-.05.2-.1.4-.3 1.25-.6 2.45-.2.65-.4 1.35-.2.85-.4 1.7.15.2.3.5.15-.65.35-1.3l.25-1.05q.05-.15.1-.3.05-.25.15-.45.35-1.45.75-3 .05-.2.1-.35.15-.7.35-1.45 0-.05 0-.1.25-.9.5-1.85.15-.7.3-1.5.2-.6.35-1.2.4-1.55.75-3 .05-.25.1-.55.3-.95.5-1.9 0-.25.1-.5.8-3.35 1.4-5.5-1.45.25-3.2.6-.25.05-.55.1-1.15.2-2.4.45-.35.05-.65.15-1.25.2-2.55.45m-2.7-22.75.95.45 3.25 1.75.45.25 4.55 2.35.3.2.05.1 1.25 3.25v.1l1.15 3.05.85 2.3q-1.8.5-8.5 1.75-11 1.95-18.9 3.6l-.1 1.15 27.85-5.6.85 2.25.35.9 2.85 7.55.2.5.3.85h.7l-.15-1.35v-.05l-7.7-20.65-13.9-7.95-.8 1z" fill="#5d1f00"/>
            <path d="m233.2 269.2-16.45 9.45-3.5 26.1 15.4-9.4z" fill="#dbdbdb"/>
            <path d="m235.15 293.7v-.05l-6.5 1.7-15.4 9.4 5.95-1.35zm34.75-9.05.15 1.35.15 1.8 4.25-4.35z" fill="#8c8c8c"/>
            <path d="m263.6 270.75q-2 .3-8.7 1.55-11.1 2.05-17.5 3.2l-.35 2.9q7.9-1.65 18.9-3.6 6.7-1.25 8.5-1.75zm-6.4 9.2q-.3 0-.7.05-1.1.2-2.4.4-.2.05-.4.1-.3.05-.6.1-1.65.2-3.1.5-.4.05-.8.15-2.7.4-4.8.8-.2 0-.4.05-1.75.25-3.05.5h-.05q-1.1.15-1.85.3v.05q.3.75.65 1.65.75 2.1 1.7 4.7.1.35.25.75.8 2.2 1.65 4.7.2.45.35.95.8 2.3 1.75 4.85.05.2.1.45.6 1.7 1.3 3.6.3.8.55 1.55.05.2.15.4.7 2 1.35 3.9.15.35.25.75.6 1.7 1.2 3.25.05.25.15.5.85 2.35 1.6 4.45.15.3.25.7.15.25.2.45.1.25.15.55.1.25.2.5h14.45q.4.4.7.75-.05-.4-.05-.75h1.6q-.1-.6-.1-1.35-.15-.95-.2-2.15-.1-.6-.15-1.25-.3-2.65-.55-6.15-.05-.2-.05-.4-.15-1.25-.25-2.6-.05-.4-.1-.8-.05-.65-.1-1.35-.05-.55-.1-1.1-.05-.4-.05-.75-.35-3.55-.75-7.1-.05-.2-.05-.4-.2-2.15-.45-4.25-.05-.65-.15-1.25-.25-2.55-.6-5.05 0-.25-.05-.5-.15-1.6-.35-3.05-.15-1.1-.3-2.15-.05-.7-.15-1.45-.45.1-1 .25-.15.15-.15 0-1.4.25-3.65.65-.35.05-.6.15-1.15.15-2.45.4m-3.7 2.2q.4-.05.85-.15 1.3-.25 2.55-.45.3-.1.65-.15 1.25-.25 2.4-.45.3-.05.55-.1 1.75-.35 3.2-.6-.6 2.15-1.4 5.5-.1.25-.1.5-.2.95-.5 1.9-.05.3-.1.55-.35 1.45-.75 3-.15.6-.35 1.2-.15.8-.3 1.5-.25.95-.5 1.85 0 .05 0 .1-.2.75-.35 1.45-.05.15-.1.35-.4 1.55-.75 3-.1.2-.15.45-.05.15-.1.3l-.25 1.05q-.2.65-.35 1.3-.15-.3-.3-.5-1.55-2.35-3.15-4.6-.1-.1-.2-.3-.3-.4-.65-.85-1.25-1.75-2.6-3.5-.35-.5-.7-.95-.35-.45-.75-.95-.2-.3-.4-.55-1.15-1.45-2.35-2.95-.25-.3-.5-.6-.3-.35-.6-.7-.3-.4-.65-.75-1.05-1.3-2.15-2.55-.2-.2-.3-.35.9-.15 1.9-.35.2 0 .45-.05 1.1-.2 2.3-.4.35-.1.7-.15.9-.15 1.85-.3.35-.1.8-.2.9-.15 1.8-.3.7-.1 1.35-.25m-9.75 8.2q-.05-.35-.2-.65-.1-.4-.25-.75-.2-.6-.4-1.2.35.55.8 1.15.25.35.45.65 1.1 1.5 2.35 3.2.4.6.9 1.3.25.35.55.7 0 .05.05.1 0 .05.05.1 1.55 2.2 2.75 3.9.2.3.45.6.1.1.2.25.3.45.55.85 1.95 2.75 2.9 4 .3.45.5.7.05.1.1.2.15.1.25.25.5.7 1.15 1.55-.3.95-.5 1.8-.15.45-.25.85-.4 1.4-.75 2.65-.1.4-.2.75 0 .05 0 .1-.1.2-.2.45-.45 1.5-.8 2.75-.1.4-.25.8-.3 1-.6 1.8-.1.3-.2.65-.05-.35-.15-.6l-.05-.05q-.3-1-.6-2.1-.35-1.3-.65-2.5-.1-.2-.1-.45-.55-1.85-.9-3.3-.15-.35-.2-.7-.85-3.05-1.05-3.65-.05-.05-.05-.15-.1-.2-.15-.4-1.05-2.9-1.9-5.4 0-.15-.1-.35-.95-2.65-1.7-4.8-.1-.45-.3-.85 0-.05-.05-.15-.75-2.15-1.45-4.05m19.1 2.55q.05-.2.1-.35.15-.65.35-1.3.45-1.95.9-3.85.2-.75.4-1.55 0-.15.05-.25 0 .1.05.25.25 2.45.5 5.1.05.6.15 1.25.15 2.05.4 4.3 0 .2.05.35.2 2.65.45 5.45.05.75.15 1.6.05.35.05.7.1 1.25.25 2.55 0 .4.05.85.15 1.25.25 2.6 0 .2.05.4.2 2.85.5 6.1.05.55.1 1.2.05.7.1 1.4-.35-.5-.7-1.05-.1-.15-.15-.25-.15-.2-.25-.35-.25-.35-.55-.75-.05-.15-.1-.2-1-1.5-2.15-3.25-.05-.1-.15-.25-.4-.6-.7-1.15-.15-.2-.3-.4-.1-.2-.25-.4-.9-1.45-1.65-2.6h-.05q-.15-.25-.3-.5-.05-.1-.15-.2-.6-1-1.05-1.65.2-.65.4-1.4.05-.25.15-.55.05-.25.1-.45.1-.35.2-.65.45-1.9 1.05-4.05 0-.1.05-.25v-.05q.2-.8.45-1.6.05-.25.1-.4.4-1.6.8-3.1.1-.65.3-1.3m1.3 24.65q.4.55.8 1.05.8 1.05 1.45 1.9-.45 0-1 0-.6.05-1.25.05-.15 0-.35 0-.7 0-1.4 0-.2 0-.3 0-.3 0-.7 0-1.3 0-2.35 0-.3 0-.6 0-.9 0-1.6 0-.15 0-.35 0-.65 0-1.2 0-.3 0-.5 0 .1-.45.3-.85.15-.4.3-.85.45-1 .85-2.15.05-.2.15-.45.5-1.45.95-2.95.1-.25.2-.5.1-.55.25-1.05.1-.25.15-.55.15-.35.25-.7.15-.5.25-1 .7 1 1.45 2.1.2.25.4.55.15.15.25.35.2.35.45.6.6.95 1.35 1.9.55.85 1.1 1.55.35.55.7 1z" fill="#fff"/>
            <path d="m254.8 320.55q.2 0 .5 0 .55 0 1.2 0-.15-2.4-.25-3.85-.4 1.15-.85 2.15-.15.45-.3.85-.2.4-.3.85m2.75-7.75q-.1.25-.2.5-.45 1.5-.95 2.95.1.9.2 2.1.1 1.35.25 2.2.7 0 1.6 0-.05-1.35-.25-4.35-.15-2.95-.4-4.45-.15.5-.25 1.05m1.9-.5q-.65-.95-1.25-1.8-.1.35-.25.7.25 2 .6 5.6.25 2.5.5 3.75 1.05 0 2.35 0-.45-2.25-1.2-7.25-.25-.3-.45-.6-.1-.2-.3-.4m4.35 8.25q-.3-1.75-.55-2.9-.7-.95-1.5-2.1-.3-.45-.6-.85.1.75.25 1.8.4 2.85.7 4.05.1 0 .3 0 .7 0 1.4 0m.1-1.5q.1.9.25 1.5.65 0 1.25-.05-.65-.8-1.35-1.8-.15-.15-.25-.3.05.25.1.65m-3.4-12.25q.15 1.3.3 2.25.75 1.15 1.65 2.6.15.2.25.4.15.2.3.4-.35-2.35-.8-5.55-.55-3.9-1.05-7.3-.6 2.15-1.05 4.05.15 1.35.4 3.15m-.6-2.5q-.05.2-.1.45-.1.3-.15.55-.2.75-.4 1.4.45.65 1.05 1.65.1.1.15.2-.2-1.8-.55-4.25m3.05-11.75q-.05.15-.1.35.6 5.25 1.15 9.35-.6-3.85-1.45-8.05-.4 1.5-.8 3.1-.05.15-.1.4-.25.8-.45 1.6v.05q1.2 5.7 1.9 10.2.3 1.85.6 4.05.1.15.15.25 1.15 1.75 2.15 3.25-.35-2.45-1.15-8.7 0-.2 0-.35.15 1.3.35 2.45.6 3.25 1.45 7.55.1.15.25.35.05.1.15.25 0-.15 0-.3-.1-.6-.15-1.2-.25-3.2-.5-5.95 0-.2 0-.45-.15-1.4-.25-2.7-.05-.4-.1-.75-.1-1.4-.2-2.65 0-.3-.05-.7-.1-.6-.15-1.15-.25-3-.5-5.85 0-.15-.05-.35-.2-2.2-.4-4.3-.1-.65-.15-1.25-.2-1.9-.35-3.65-.45 1.9-.9 3.85-.2.65-.35 1.3m-11.5 8.55q-.4-.55-.8-1.15-.15-.25-.25-.35-.85-1.2-1.85-2.65 1.2 4.35 2.5 8.7 1.6 5.35 2.95 10.2.25-.9.55-1.9.05-.25.15-.5.1-.35.2-.7-.6-1.7-1.35-4.3-1.3-4.5-2.1-7.35m3.4 4.7q-.1-.15-.3-.4-.65-.9-1.95-2.7 1.2 4.55 1.75 6.35.2.8.85 2.75.2-.85.45-1.85.15-.4.25-.85.15-.4.25-.9-.15-.55-.3-1.05-.5-.65-.9-1.25-.05 0-.1-.1m-9.65-11.4q.05.1.05.15.2.4.3.85.75 2.15 1.7 4.8.1.2.1.35.85 2.5 1.9 5.4.05.2.15.4 0 .1.05.15.2.6 1.05 3.65.05.35.2.7.35 1.45.9 3.3 0 .25.1.45.3 1.2.65 2.5.3 1.1.6 2.1.35-1.05.75-2.35-.7-1.7-1.45-4.85-1.5-6.6-1.7-7.25-1.85-5.5-2.75-8.2-.2-.6-.4-1.15v-.05q-.05-.1-.2-.25-.3-.5-.65-.9-1.45-2.05-2.8-3.85.7 1.9 1.45 4.05m-.4-7.35q-.25-1.4-.5-2.85-.85.15-1.65.3 1.1 1.25 2.15 2.55m4.85-3.8q-1 .15-1.9.3.6 5.05 1.3 7.95.1.55.25 1.1.4.5.75.95.35.45.7.95 1.35 1.75 2.6 3.5-.45-1.8-.85-3.3-1.4-5.3-2.85-11.45m1.95-.35q-.65.1-1.15.25.65 3.1 1.8 7.55.8 3.3 1.6 6.5.15.6.35 1.95 1.6 2.25 3.15 4.6.2-.85.4-1.7-.5-2.4-1.25-6.05-1.55-7.55-2.95-13.45-.95.15-1.95.35m-4.5.85q-1.25.2-2.3.35.1.8.35 1.9.2 1.05.3 1.8.3.35.6.7.25.3.5.6 1.2 1.5 2.35 2.95-.2-.85-.4-1.8-.9-4.05-1.4-6.5m12.95-2.45q-1.15.25-2.45.5.6 3.2 1.65 8 .4 2.15.7 3.6.05-.2.15-.4.15-.65.25-1.2.6-2.25 1-4.15-.75-3.95-1.3-6.35m.5-.05q.25 1.35.6 3.35.2 1.55.4 2.45.05-.35.15-.7.1-.25.15-.5.75-3.1 1.2-5.1-1.1.25-2.5.5m-3.55.65q-1.25.2-2.65.5 1.1 6.9 2.3 12.1.6 2.65 1.5 6.2.3-1.2.6-2.45.05-.2.1-.4.15-.45.25-1 .2-.8.4-1.6-.3-1.55-.7-4-.8-4.95-1.8-9.35z" fill="url(#Gradient_4)"/>
            <path d="m247.5 257 .8-1 13.9 7.95 7.7 20.65v.05l4.55-1.2-8.6-20.2-18.35-11.55-14.3 17.5-4.55 26.15 6.5-1.7.3-2.45.15-.95.9-7.6.15-1.1.3-2 .1-1.15.35-2.9.55-4 .05-.9.3-2.35 1.05-1.25.35-.4 1.7-2.15.55-.65 2.25-2.75.8-1z" fill="#c4c4c4"/>
            <path d="m245.65 252.8-.45.25-20.35 12.1-8.1 13.5 16.45-9.45 14.3-17.5z" fill="#f7f7f7"/>
            <path d="m244.05 244.15q0-1-.45-1.55-.25-.3-1.2-.9 0-.05-.1-.05.15-.2.8-.6-.3.05-.9.1-.45.05-.45.55 0 .45.25.95.3.65.4.85-.2-.1-.45-.1v.05q-.9-.45-1.65-.45-.2 0-.75.35-.5.3-.7.5-.15.25-.2.75-.1.35-.1.5l.05.5q.05-.25.4-.7.55-.85.95-.9-.1.05-.25.4-.1.4-.1.75 0 .4.15.8.15.5.35.8 0-.15.15-.8.1-.65.2-1 .05 0 .1 0-.2.5.35 1.05.5.6 1.1.6.35 0 .65-.1.25.55.45 1.1-1.25.65-2.75 1.45-.65-.4-1.05-.65-.25.1-.6.35-.55.25-.8.4.3.1.75.2.2.1.4.25 0 .2 0 .5l-.05 1.25q.2-.1.85-.45.2-.1.35-.2 0-.55.05-.95 1.05-.6 3.1-1.65.4 1.15.85 2.35.4 1.05 1 2.6l.45-.25q-.45-1.1-.85-2.15-.6-1.4-1.1-2.75.6-.25 1.25-.65 2.4-1.25 3.4-1.85.1.35.15.7.05-.15.1-.3.35-.55.85-.95-.4 0-.85-.1-.1-.05-.25-.05-.35-.1-.6-.2.25.3.35.5-1.3.7-4.6 2.4-.25-.6-.45-1.15.25-.15.45-.4.55-.75.55-1.7z"/>
        </g>
    </g>
    <g>
        <g id="Layer4_0_FILL">
            <path d="m290.3 426.1q6.97128906-4.33027344 14.4-8.05 17.85-8.95 36.3-13.5-1-2.1-1.9-4.15-6.35-13.25-14.05-24.4-8.1 1.9-18.2 5.95-17.75 7.1-35.55 18.45-6.05 3.85-12.05 8.25-11.309375 8.17011719-21.7 17.45zm25.2-62.5q-.3-.35-.55-.6-8.9-10.3-18.95-17.85-16.15 4-33.9 12.05-28.1 12.75-53.05 32.7-6.35 5.1-12.35 10.5-5.15605469 4.67148438-10.05 9.6-7.62382812 7.734375-14.6 16.1h31.9q14.13007813-14.12753906 30.4-25.7 4.3-3.05 8.75-5.9 32.95-21.35 72.4-30.9m-53-35.2q-4.8-1.3-9.65-2.1-49.55 17.35-81.45 42.65-6.31347656 4.98242188-12.2 10.45-10.47636719 9.73144531-19.6 21-.4.5-.8 1-9.25917969 11.55-17.1 24.7h8.5q7.62441406-10.4015625 16.35-20.15 2.5-2.8 5.1-5.55 4.85-5.05 10-10 2.3578125-2.25117187 4.75-4.45 41.55273438-37.88652344 96.1-57.55m-44.2 24.4q-25.2046875 15.34570313-48.1 36.95-3.80410156 3.62558594-7.55 7.4-1.6 1.6-3.2 3.25-4.2 4.35-8.1 8.7-7.58789062 8.47539063-14.1 17h17.35q3.67089844-4.49140625 7.55-8.85 7.7-8.7 16.3-16.85.30546875-.28632812.6-.6 6.93085938-6.42363281 14.4-12.6 25.75-21.15 54.65-35.15 19.15-9.25 36.95-14.1-4.8-2.8-9.85-5-3.2-1.35-6.4-2.5-24.45 6.5-50.5 22.35m21.8-27.6q-36.4 10.6-70.3 36.15-8.61796875 6.50234375-16.3 13.4-12.11113281 10.95878906-21.9 22.95-1.05 1.25-2.05 2.5-.1.15-.15.2-8.35585937 12.65429688-12.6 25.65.70644531.04023438 1.4.05 7.1828125-13.46054687 16.95-25.7.25-.35.55-.65 9.37792969-11.7140625 21.15-22.3 6.13027344-5.503125 12.9-10.7 33.25-25.6 77.9-41.1-3.75-.45-7.55-.45m-88.95 48.35q.16523437-.15097656.3-.3 13.84648438-12.57617187 30.25-23.1 24.95-16.05 51.4-24.5-2.55.25-5.7.75-18.5 5.2-36.25 15.15-10.25 5.8-19.55 13-8.3 6.4-15.6 13.85-2.29980469 2.39355469-4.55 4.8-.15273437.190625-.3.35m249.05 22.4q-16.546875-21.62558594-34.2-36.55-9.23515625-7.81972656-18.8-13.8-16.55-10.35-36.25-16.7-14-4.55-32.6-7.85-4.7-.3-9.4-.3 48.55390625 5.89824219 92.25 45.2 2.61074219 2.33730469 5.2 4.8 14.35 13.7 27.05 29.65 8.1375 10.3265625 15.5 21.55.37851563.57832031.75 1.15-.14824219-.678125-.3-1.35-2.57363281-11.16542969-7.1-21.35-1-2.25-2.1-4.45m-37.8-12.7q-3.54765625-4.17519531-7.2-8.1-19.74355469-21.28222656-41.8-34.55-27.65-16.7-56.9-19.4-5.5.4-10.9 1.25 16.6.2 32.7 5.75 8.4 2.95 16.75 7.3 2.25 1.2 4.5 2.45 3.9 2.3 7.8 4.9 18.6 12.35 35 31.55 2.6 3.1 5.2 6.3 1.34199219 1.69980469 2.65 3.4 6.00410156 7.925 11.3 16.3.15.2.25.4 7.6453125 12.09609375 13.9 25.3h13.1q1.75195313 0 3.45-.1-7.62988281-13.40605469-16.35-25.6-6.45-8.9-13.45-17.15z" fill="url(#Gradient_5)"/>
            <path d="m366 359.4q17.653125 14.92441406 34.2 36.55-9.25-18.8-25.2-33.95-3.15273437-2.97773437-6.45-5.75-28.45332031-24.08964844-65.55-31.85-12.45-2.6-24.65-3.35 18.6 3.3 32.6 7.85 19.7 6.35 36.25 16.7 9.56484375 5.98027344 18.8 13.8m-15.8 24.7q-1.30800781-1.70019531-2.65-3.4-2.6-3.2-5.2-6.3-16.4-19.2-35-31.55-3.9-2.6-7.8-4.9-2.25-1.25-4.5-2.45-8.35-4.35-16.75-7.3-16.1-5.55-32.7-5.75-9.2 1.4-18.2 3.95 3.15-.5 5.7-.75-26.45 8.45-51.4 24.5-16.40351562 10.52382813-30.25 23.1-.13476563.14902344-.3.3-7.45 8-14.3 16.6-2.95 3.7-5.5 7.4-.95 1.3-1.8 2.65 1-1.25 2.05-2.5 9.78886719-11.99121094 21.9-22.95 7.68203125-6.89765625 16.3-13.4 33.9-25.55 70.3-36.15 3.8 0 7.55.45-44.65 15.5-77.9 41.1-6.76972656 5.196875-12.9 10.7-11.77207031 10.5859375-21.15 22.3-.3.3-.55.65-9.7671875 12.23945313-16.95 25.7.40429688 0 .8 0h2.7q7.84082031-13.15 17.1-24.7.4-.5.8-1 9.12363281-11.26855469 19.6-21 5.88652344-5.46757812 12.2-10.45 31.9-25.3 81.45-42.65 4.85.8 9.65 2.1-54.54726562 19.66347656-96.1 57.55-2.3921875 2.19882813-4.75 4.45-5.15 4.95-10 10-2.6 2.75-5.1 5.55-8.72558594 9.7484375-16.35 20.15h7.05q6.51210938-8.52460937 14.1-17 3.9-4.35 8.1-8.7 1.6-1.65 3.2-3.25 3.74589844-3.77441406 7.55-7.4 22.8953125-21.60429687 48.1-36.95 26.05-15.85 50.5-22.35 3.2 1.15 6.4 2.5 5.05 2.2 9.85 5-17.8 4.85-36.95 14.1-28.9 14-54.65 35.15-7.46914062 6.17636719-14.4 12.6-.29453125.31367188-.6.6-8.6 8.15-16.3 16.85-3.87910156 4.35859375-7.55 8.85h17.45q6.97617188-8.365625 14.6-16.1 4.89394531-4.92851562 10.05-9.6 6-5.4 12.35-10.5 24.95-19.95 53.05-32.7 17.75-8.05 33.9-12.05 10.05 7.55 18.95 17.85.25.25.55.6-39.45 9.55-72.4 30.9-4.45 2.85-8.75 5.9-16.26992187 11.57246094-30.4 25.7h33.6q10.390625-9.27988281 21.7-17.45 6-4.4 12.05-8.25 17.8-11.35 35.55-18.45 10.1-4.05 18.2-5.95 7.7 11.15 14.05 24.4.9 2.05 1.9 4.15-18.45 4.55-36.3 13.5-7.42871094 3.71972656-14.4 8.05h85.35q-6.2546875-13.20390625-13.9-25.3-.1-.2-.25-.4-5.29589844-8.375-11.3-16.3m5-8.95q3.65234375 3.92480469 7.2 8.1 7 8.25 13.45 17.15 8.72011719 12.19394531 16.35 25.6 8.98671875-.55898437 16.75-4.05-7.3625-11.2234375-15.5-21.55-12.7-15.95-27.05-29.65-2.58925781-2.46269531-5.2-4.8-43.69609375-39.30175781-92.25-45.2-6.3-.05-12.45.45 29.25 2.7 56.9 19.4 22.05644531 13.26777344 41.8 34.55z" fill="url(#Gradient_6)"/>
        </g>
    </g>
    <g>
        <g id="Layer3_0_FILL">
            <path d="m326.9 413.6q-.7 0-1.35.25-1.25.5-1.25 1.5 0 1 .15 1l.2.05q1.45 0 2.25-.3.15-.2.25-.3.1-.2.1-1.15 0-1.05-.2-1.15zm35.3.85q-2.05.05-2.9.8-.4.25-.9 1.3.7 1.1.8 1.2.55.6 1.45.6 1 0 1.2-.25.3-.25.35-.25l.3-1.45zm16.9 5.2q-1.95-.55-2.75.15-.45.5-.45 1.7 0 .4 1.75 2.1.4-.1.95-.35.35-.2.5-.2l.35-1.45zm13.3-7.2q-1.4-.25-2.1-.1-1.05.3-1.05 1.45 0 1 .1 1.1.1.05.35.2l.1.2q.3.15 1.3.15 1.1 0 1.45-.35.15-.25.35-1.2l-.3-.75q-.2-.4-.2-.7m-252.5-10.1q-.6 0-.8.15-.3.15-.3 1.2 0 1.05.25 1.3.15.15.85.3.65-.15.8-.3l.35-1.15q0-.25-.25-.7-.35-.6-.9-.8m23.55 8.3q-.35-.55-1.35-.3 0 .95.3 1.45l.9-.15zm18.95 5.1q.45-.1.7-.35.1-.1.45-.6l-.35-1.05q-.45-.2-1.1-.2-.6.05-.75.05l-.1-.05q-.05.15-.05 1.15 0 1 .3 1 .2.05.9.05m7.3 3.75q-.55-.15-1.4.25-.75.35-.85.7.25.8 1.45 1.3 1-.4 1.3-1.3zm12.6-19.75q-.4-.6-1.1-.8-.2 0-.9 0 0 .95.5 1.45 1.2-.2 1.5-.65m11.45 18.95q1.2-.45 1.6-1.65-1.35-1.6-2.2-1.35-.65.25-.85 1.7.3.9 1.45 1.3m1.45-18q-.35-.2-.7-.3-.15 0-.35 0-.5 0-.6 0 .05.8.85 1.1.65-.3.8-.8m36.75 11.9q0 .8.45 1.5.55 1 1.8 1.35 1-.4 1.8-1.35.65-.85.65-1.5 0-2.45-2.35-1.9-2.35.55-2.35 1.9m-7.85 8q-.15-.2-.15-.3-1.75-.6-3 .25-1.05.75-1.05 2 0 .2.35.55.15.15 1.55 1.35.9-.5 1.75-1.5.7-.9.7-1.2 0-.95-.15-1.15m15.05-22.15q-.4-.6-1.15-.8-.2 0-.9 0 0 .95.5 1.45 1.2-.15 1.55-.65m44.35 24.45q-.8 0-1.3.45 0 1.5 1 1.9.8-.35.95-.8 0-.9-.65-1.55m-11.9-16.45q-2-.7-2.85.3-.55.55-.55 1.5 0 .15.35.45.3.25 1.6 1.3.8-.15 1.6-.65.1.15.2 0 .15-.2.15-1.2 0-.95-.25-1.25-.25-.3-.25-.45m20.1-16.2q-.7.05-1 .2-.45.2-.45 1.2 0 1.05.35 1.25.25.15 1.1.3l.95-.35.5-1.3q-.65-.95-1.45-1.3m-16.7-1.6q-1-.55-1.4-.55-.35.2-.55.2 0 .75.5 1.5.75-.15 1.1-.45.2-.2.35-.7m-2.1-33.2q-.75.2-.95.35-.6.25-1.15 1.1.5.6 1.3.9.95-.4 1.3-1.35zm28.6 12.15q.65-.3.8-.8-.6-.4-1.65-.4 0 .9.85 1.2m-40 22.15q-.5.55-.5 1.5 0 .15.35.45.25.25 1.6 1.3.8-.15 1.6-.65.35.45.35-1.2 0-.9-.25-1.25-.25-.3-.25-.45-2.05-.7-2.9.3m-9.8-10.9-.35-.95q-.45-.2-1.05-.2-.55 0-.7 0l-.1-.05q-.05.1-.05 1.1 0 1 .25 1.05.15 0 .85 0 .45-.1.7-.35.1-.1.45-.6m-22.65-8.15q-1.95-.25-2.55.3.2.55.4.95.45.55 1.4 1.3.75-.15.9-.3l.3-.8-.25-.75q-.2-.45-.2-.7m9.95-15.9q-.6-.3-1.1-.25-.5 0-.8.25 0 .8.65 1.45.75 0 1.4-.95zm23.7 13.55q-.95-.8-1.05-.9 0 .05-.75.25-.7.3-.7 1.3 0 .3 2.1 2 .8-.3 1.45-1.3-.15-.5-1.05-1.35m-10.05-11.75q1.15-.15 1.45-.65-.4-.6-1.05-.8-.2 0-.85 0 0 .95.45 1.45m1.45-17.9q-.65 0-1.3.4-.6.35-.6.75.45.45 1.6.65.65-.35.95-.85-.05-.25-.35-.65zm29.75-.5q-1.5-1-2.1-.4 0 .6.3 1.05 1.45-.15 1.8-.65m17.15-4.75q-.55-.35-1.05-.35-.5 0-.6 0v.8q.5.5 1 .5.5-.5.65-.95m-89.2 52.65q-.8.1-1.05.1-.1.35-.3.5-.05.05-.05 1 0 1 .15 1.15.1.1.5.3l.05.15q.25.15 1.25.15 1 0 1.45-.45.35-.6.5-.85 0-.25-.25-.95-.25-.75-.25-1-1.1-.2-2-.1m-15.5-20.7q-.65.05-.95.2-.5.25-.5 1.25 0 1.05.4 1.3.2.15 1.05.25l1-.3.5-1.3q-.6-1-1.5-1.4m-7-13.65q-1.1-.5-2.3-.5v.8q.35.5 1.45.65.6-.15.85-.95m22.25 2.9q1.15-.15 1.45-.65-.4-.6-1.1-.75-.15-.05-.85-.05 0 .95.5 1.45m-44.1 31.95q0-2.5-2.45-2.55-2.45 0-2.45 2.65 0 .85.2 1.2.5 1.05 2.25 1.05.95 0 1.65-.6.8-.65.8-1.75m-15.55 6.75q-.75.05-1.05.2-.6.25-.6 1.25 0 1.6.2 1.05.45.5 1.45.8.8-.7 1.3-1.35.4-.5.4-.65-.6-.9-1.7-1.3m-.65-24.45q0 .1-.65.1-.65.2-.65 1.2 0 .1.35.45 1 .75 1.6 1.3.85-.3 1.2-1.25-1.3-1.3-1.85-1.8m12.45 1.95q.65-.35.8-.8-.5-.35-1.05-.35-.5 0-.55 0 0 .8.8 1.15m14.65-26q-.4-.6-1.1-.75-.15-.05-.85-.05 0 .95.5 1.45 1.15-.15 1.45-.65m42.35-3.55q-.55-.35-1.05-.35-.5 0-.6 0 0 .85.85 1.15.65-.3.8-.8m-9.95-8.2q-.6.05-.85.2-.3.15-.3 1.2 0 1.05.3 1.25.15.15.85.3.65-.2.8-.35l.3-1.05q0-.3-.25-.75-.35-.6-.85-.8m8.8-3.2q-.45-.65-1.15-.8-.2-.05-.85-.05 0 1 .45 1.5 1.25-.2 1.55-.65m-84.9 51.2q-1 0-1.4.2-.8.3-.8 1.35 0 1 .15 1 .1 0 .2-.25l.85.3q.7-.25 1.05-.55.35-.35.6-1.05-.1-.3-.4-.65zm236.3 13.05q-1.45-.95-2.5-.95-1.15-.1-1.15 1.05 0 .95.25 1.3l.25.3q1.6 0 2.8-.3zm-21-5.35q-.7.2-.95.35-.55.25-1.15 1.1.5.5 1.3.85 1-.45 1.3-1.3zm8.05-17.65-.1-.05q-.1.1-.1 1.1 0 1 .2 1.05h.15q1.45 0 2.1-.15l.5-.8-.35-1q-.9-.2-1.6-.2-.65.05-.8.05m-24.3 22.85q-3.5-1.1-3.5 1.85 0 .15.4.5.25.25 1.55 1.3.9-.2 1.7-.65.35.4.35-1.25 0-.9-.25-1.25-.25-.4-.25-.5m10.1-19.1q-1.85-.35-3.15 0l-.05-.1q-.1.15-.1 1.15 0 .95.25 1.3l.25.3q1.7 0 2.8-.3l.35-1.4q-.2-.3-.3-.65zm-25.95 5.55q-.7.05-1 .2-.5.2-.5 1.2 0 1.05.4 1.25.25.15 1.1.3l.95-.35.5-1.3q-.65-.95-1.45-1.3m21.9-18.6q-.45 0-.55 0 0 .8.8 1.15.65-.35.8-.8-.5-.35-1.05-.35m-12.6 6.25q-1.3 0-1.95.65-.05.1-.65 1.1.3.5 1.15.85 1.4-.6 1.75-1.65zm-1.15-23.4q.5-.5.5-1.45-.55-.35-1.05-.35-.5 0-.6 0 0 1.3.35 1.8zm-17.8.5q-.65-1-1.45-1.3-.7 0-1 .15-.45.2-.45 1.2 0 1.05.35 1.25.25.15 1.1.3l.95-.35z" fill="#fff"/>
        </g>
    </g>
    <g>
        <g id="Layer0_0_FILL">
            <path d="m358.45 184.3q-4.6 0-6.85 10.55-1.35 6.45-1.35 11.7-.6 0-3.25-2-2.55-2.05-4.35-2.05-4.9 0-6.7 10.5-.1.15-.1.45 12.3-1.15 25.45-1.65 6.45-.2 20.95-.4 9.8-.1 13.2-.5 4.65-.6 4.65-2.3.45-10.9-1-21.6-3.05-21.5-13-21.5-7.1 0-11.1 14.5-1.65 5.9-2.45 12.95-.65 6.65-.35 12.1-3.5-7.95-5.95-12.45-4.45-8.3-7.8-8.3m-242.2 70.05q-4.95 5-5.45 17.3-.7 15 1.6 20.35 1.15 2.65 3.15 3.85 1.85 1 4.95 1.15.05 0 29.75-.25 11.5-.1 20-.2-.05-.25-.15-.55-.65-3.25-1.4-5.25-2.3-6.5-6.25-6.65-3.15-.1-5 2.75-.4.6-1.15 2.2-.65 1.2-1.05 1.6l-.3-.4q-.25-.85-.65-3.15-.4-2.2-.75-3.3-1.1-3.65-3.55-3.75-2.65-.05-5.35 3.55-.8 1.1-1.4 2.2 0-.3.05-.65.15-3.8-.55-8.95-.8-6.2-2.55-11.3-4.65-13.85-13.6-14.15-6.6-.2-10.35 3.6z" fill="#fff"/>
        </g>
    </g>
</svg>
