<svg height="400" preserveAspectRatio="none" viewBox="0 0 550 400" width="550" xmlns="http://www.w3.org/2000/svg" xmlns:xlink="http://www.w3.org/1999/xlink">
    <defs>
        <linearGradient id="lg1">
            <stop offset="0" stop-color="#191225"/>
            <stop offset="1" stop-color="#230b18"/>
        </linearGradient>
        <linearGradient id="Gradient_1" gradientUnits="userSpaceOnUse" spreadMethod="pad" x1="267.275" x2="282.425" xlink:href="#lg1" y1="411.075" y2="306.925"/>
        <radialGradient id="Gradient_2" cx="312.05" cy="256.2" gradientUnits="userSpaceOnUse" r="593.8625" spreadMethod="pad">
            <stop offset="0" stop-color="#336"/>
            <stop offset="1" stop-color="#1c0000"/>
        </radialGradient>
        <linearGradient id="Gradient_3" gradientUnits="userSpaceOnUse" spreadMethod="pad" x1="74.6" x2="74.6" xlink:href="#lg1" y1="117" y2="117"/>
        <linearGradient id="Gradient_4" gradientUnits="userSpaceOnUse" spreadMethod="pad" x1="267.275" x2="282.425" y1="411.075" y2="306.925">
            <stop offset="0" stop-color="#331900"/>
            <stop offset="1" stop-color="#231100"/>
        </linearGradient>
        <radialGradient id="Gradient_5" cx="0" cy="0" gradientTransform="matrix(1 0 0 .44404131 29.15 23.45)" gradientUnits="userSpaceOnUse" r="44.7875" spreadMethod="pad">
            <stop offset="0" stop-color="#f90"/>
            <stop offset="1" stop-color="#900"/>
        </radialGradient>
        <linearGradient id="Gradient_6" gradientUnits="userSpaceOnUse" spreadMethod="pad" x1="40.55" x2="39.85" y1="14.175" y2="27.325">
            <stop offset="0" stop-color="#fff" stop-opacity=".156863"/>
            <stop offset=".98823529412" stop-color="#fff" stop-opacity=".588235"/>
        </linearGradient>
        <g id="S_mbolo_1_0_Layer1_0_FILL">
            <path d="m55.1 11.05q2.45.95 4.6 2 1.1-2.5 1.1-5.25 0-1-.15-1.95-33.05-10.95-60.2-1.35-.45 1.6-.45 3.3 0 2.45.9 4.7 2.85-1.25 6.65-2.35 11.35-3.3 24.6-3.3 12 0 22.95 4.2z" fill="#9c0000"/>
            <path d="m51.9 21.1q5.75-3.55 7.8-8.05-2.15-1.05-4.6-2-10.95-4.2-22.95-4.2-13.25 0-24.6 3.3-3.8 1.1-6.65 2.35 1.9 4.8 8 8.6 8.9 5.5 21.5 5.5 12.6 0 21.5-5.5z" fill="url(#Gradient_5)"/>
        </g>
        <g id="S_mbolo_1_0_Layer0_0_FILL">
            <path d="m50.5 20.9q4.25-2.25 4.15-4.4-.05-2.2-4.4-3.05-4.3-.85-10.1.1-5.9.95-10.1 3.1-4.15 2.3-4.15 4.5.1 2.15 4.4 2.95 4.3.9 10.1-.1 5.9-.9 10.1-3.1z" fill="url(#Gradient_6)"/>
        </g>
    </defs>
    <g transform="translate(-74.6 -117)">
        <g>
            <g id="S_mbolo_2_0_Layer0_0_FILL">
                <path d="m394.3 439.05q.2 9.5.65 22.5 1.35 39.3 2.9 78.35 1.6 39.65 1.15 79.35-.2 19.25-.1 38.35h3.2q-1-31-.6-62.05.45-39.4-1.65-78.3-2.15-39.35-5.55-78.2m-360.6-234.95q4.85 63.95 6.75 127.85 1.9 64.2 7.25 127.05 5.4 63.8 7.75 127.95 1.35 36.6 2.35 70.65h1.1q-.05-53.8-3-107.8-3.4-62.9-7.8-125.75-4.45-63.2-7.1-126.8-2.6-63.45-5.5-126.9-3.15 15.95-1.8 33.75m112.45 54.75q-.9 3.85-1.7 7.8-1.3 58.7-1.45 94.35-.2 35.65-.35 93.55-.2 57.85 1.4 117.05 1.15 42.9-.45 86h15.65q-1.65-30.75-2.8-61.35-2.1-58.15-1.9-116.55.25-58.3 2.45-116.5 1.95-51.3-5.25-96.85-.6-4-1.3-7.95-.85-4.75-1.8-9.4-1.35 4.85-2.5 9.85m-123.15-258.85q.05.8.05 1.6 2.6 89.2 2.35 179-.25 89.15-2.7 179-2.4 89.05-4.65 179.05-1.55 60.75 1.6 118.95h.25q-.25-84 2.6-168 3.05-89.4 4.4-177.8 1.35-89.65.3-179-.75-66.45-1.9-132.8zm47.4 0h-26.4q1.15 45.65 1.3 91.2.15 73.95 3.25 129.4 3.05 55.4 9 149.65 5.95 94.25 7.6 132.35 8.4-42.8 8.2-92-.35-73.7-.9-148.05-.6-74.15-2.7-148.05-1.65-57.05.65-114.5m45.1 0h-2.15q-.2 47.25-1.3 94.5-.15 6-.3 12.05-.75 28.1-1.8 56.2-1.95 52.3-4.95 104.6-.2 2.8-.35 5.65-1.9 32.05-4.2 64.1-6.25 88-17.15 175.35-9.3 74.75-1.95 145.15h.2q-.65-9.6-.75-19.4-.75-87.95 9.7-174.25 10.45-86.05 16.35-173 .65-9.45 1.25-18.95.15-2.9.35-5.8 4.45-74.4 5.55-149.6.05-3.45.1-6.95.1-6.25.2-12.45.65-48.65 1.2-97.2m60.05 0q-.2 9.2-.1 18.6.7 76.75 7.9 152.35.6 6.25 1.25 12.55.1.7.15 1.4 3.85 36.95 6.55 74.05.35 4.85.7 9.7 3.05 44.5 4.45 89.25.2 6.8.4 13.65 0 1.35.05 2.7 2.25 94.45 6.85 188.45 2.3 47.4 2.6 94.9h1.15q-1.15-75.1-3.15-149.8-1.9-69.65-4.4-138.9-.25-6.5-.45-12.95-.7-18.95-1.45-37.85-1-24.4-2.45-48.65-.3-5.05-.6-10.1-2.4-36.05-5.8-71.95-.6-6.25-1.25-12.5-2.3-22.6-5-45.15-7.8-64.7-6.55-129.75zm440.65 230.5q-.3-36.4-4.45 45.4-4.2 81.8-4.5 176.9-.3 95.05-4.1 184.65-.45 10.05-.85 20.15h9q1.1-34.9 1.3-69.95.55-89.75.1-179.5-.45-90.55 3.5-177.65m-187.45-230.5h-8.65q-.6 52.65-.2 105.25.2 31.35.45 62.7.2 30.65.4 61.3.4 55.15 0 109.8 0 .45 0 .95-.05 6.6-.1 13.25 0 .4 0 .85-.2 34.3 4.2 148.2 6.15-110.7 5.65-129.3-.25-8.8-.45-17.55-.15-5.5-.25-11-.15-6.45-.3-12.9-.05-2.2-.05-4.35-.05-1.05-.05-2.05-.1-3-.15-5.9 0-.3 0-.55-.65-35.75-.9-71.55-.3-44.5-.95-88.85-.3-18.5-.65-37-1.1-60.7 2-121.3m12.6 0h-2.1q1.05 25.25 3.5 50.4 4.15 43 7.15 86.15.4 6.2.8 12.4 1.85 28.65 3.2 57.35.25 5.25.5 10.6.25 6.4.5 12.8.8 20.15 1.3 40.25.1 4.35.2 8.7.75 36.3.55 72.55-.05 6.15-.1 12.35-.25 22.55-.85 45.05-1.25 44.45-4 88.75-3.45 55.75-3.1 110.85.6-34.15 2.5-69.35 4.7-87.1 7.75-174.25.05-2.3.15-4.55.15-4 .25-7.95 1.1-37.25.65-74.35-.1-4.4-.15-8.8-.55-27.4-1.9-54.75-.3-5.1-.55-10.2-.7-11.5-1.5-23-1.3-18.05-2.75-36-.55-6-1.05-12-1.8-20.65-3.85-41.2-4.6-46.1-7.1-91.8m22.2 0h-4.4q-.95 60 1.4 119.9.2 6.4.5 12.75.85 18.85 2 37.65.9 14.55 1.75 29.1.25 4.8.55 9.6 1.65 29.1 3.2 58.15.25 4.3.45 8.65 2.15 40.9 4.05 81.8.05 1.3.1 2.6.3 6.2.6 12.45 3.95 88.1 6.9 175.9 1.85 54.45 2.45 109.05h2.5q-.7-81.75-2.35-162.85-1.15-59.85-4.8-119.1-.5-7.95-1-15.9-1.9-27.35-4.25-54.55-1.3-14.85-2.4-29.75-.35-4.3-.65-8.55-2.15-29.3-3.7-58.7-.3-4.8-.5-9.55-1.75-34.85-2.65-69.75-.15-6.15-.3-12.3 0-.45 0-.85-1.25-58.4.55-115.75m82.4 0h-15.1q1.3 71-1.15 141.65-.15 3.75-.25 7.45-.15 4.55-.3 9.15-1.6 51.8-1.9 103.8-.05 3.95-.05 7.95-.15 33.85.3 67.8 1.3 98.15 1.2 196.2-.05 63.45 3.85 123.6h15.15q-2.35-89.25-5.05-177.9-2.95-97.9-2.95-196.15 0-7.15.05-14.25 0-3.55 0-7.1.3-58.65 2.4-117.05.1-3.75.25-7.5.95-25.15 2.2-50.25 2.25-44.45 1.35-87.4m28.2 0q.65 5.3 1.4 10.75 12.1 89.8 12.75 181.3.25 40.7-.95 81.2-.1 2.2-.15 4.45-1.5 47.4-5.1 94.5-6.9 90.85-10.85 182.55-2.25 51.8 1.35 102.85h3.15q-4.55-76.4-.15-153 5.2-90.85 10.6-181.4 1.35-22.55 2.1-45.15.05-2.1.15-4.2 2-66.3-1-133-3.25-71.2-12.25-140.85z" fill="#100800"/>
                <path d="m184 384.7q6.15-7.3 12.85-13.15-.2-6.85-.4-13.65-.85.55-1.65 1.15-13 8.95-21.25 22.7-8.3 13.4-11.7 31.2-3.4 17.7-3.45 23.6 13.25-38.8 25.6-51.85m392.3-110.45q5.4 1.5 10.9 3.45.05-2.25.15-4.45-14.75-8.15-30.2-9.8-8.8-.95-17.4-1.25 0 3.55 0 7.1 19.05-.4 36.55 4.95m27.45 9.85q-3-2.3-7.4-5.2-3.95-2.75-7.9-5.05-.1 2.1-.15 4.2 7.6 2.65 15.45 6.05m-126.3 75.65q.5 7.95 1 15.9 14.25 9.35 23.15 18.8 11.8 12.85 22.5 23.6 1 .85 1.85 2.05-2.3-3.8-6.95-14.8-4.7-11.05-16.05-25-10.25-12.5-25.5-20.55m-4.3.45q-.05-1.3-.1-2.6-6.5-3.05-13.5-5.5-.1 3.95-.25 7.95-.1 2.25-.15 4.55 4.65 2.15 9.1 4.75 2.8 1.65 5.5 3.3-.3-6.25-.6-12.45m-38.55-14.95q-2.4-.5-4.8-.8.1 5.5.25 11 14.2 2.55 26.8 8.1.05-6.2.1-12.35-10.6-3.6-22.35-5.95m34.4-69.45q-.2-4.35-.45-8.65-4.25.75-8.5 1.8.05 4.4.15 8.8 4.4-1.1 8.8-1.95m8.85-9.95q-3.85.4-7.7 1.05.3 4.25.65 8.55 12.2-2.35 24.25-3.2 15.95-1.2 32.15-2.25 0-4 .05-7.95-4.8.05-9.55.35-19.75 1-39.85 3.45m-48.8-104.25q-.7-1.7-1.65-3.3.65 44.35.95 88.85.25 35.8.9 71.55 1-3.05 1.9-5.95 2-4.05 4.1-8.15.05-.5.3-.7-1.55 4.6-3.5 9.35-1.4 3.05-2.8 6 .05 2.9.15 5.9 1.95-3.4 3.85-6.85 6.25-11.8 5.85-20.8-1 .05-1.35.55.9-3.75 1.05-7.2.55-1.5 1.25-3.1.75-2.6 1.7-4.85 7.35-2.35 14.65-4.25-.1-4.35-.2-8.7-5.7 1.55-11.4 3.65.95-3.2 1.8-6.4 3.25-11.65-.05-19.2-.6.75-.8 2.2 0-2.5.1-5-.05-.55.25-1.1 2.2-12.05 1.2-22.25.15-.3.4-.3 3.35-2.35 6.7-4.65-.25-5.35-.5-10.6-5.15 3.1-10.25 5.95-.6-6.65-2.55-11.65-.5-11.6-2.9-21.95-.7 2.75-.3 6.95.35 5.65.85 11.45-1.05.35-1.35 1.1-.15-.2-.15-.35-.95-2.35-1.8-4.3-.65-2.7-1.1-5.1-.65-1.9-.95-3.9-.1-.4-.15-.6-.85-5.9-1.55-11.25 2.15-1.65 10.15-11.45 4.3-5.5 8.85-12.25-.4-6.2-.8-12.4-10.85 15.65-20.85 25.05m9.65 50.95q-.08847656 1.11875.1 2.25-.15-.15-.3.15-.15-.2.05-.3.046875-1.078125.15-2.1m4.1 25.55q0-.90976562.15-1.3-.08300781.23398438.15.7-.65 5.3-1.35 10.35-.2-.2-.05-.2.55-4.6 1.1-9.55m.8-9.3q.1-2.4.2-4.8.45-.45 1.3-.7-.95 1.8-.95 4-.25 1.25-.25 2.75-.4-.8-.3-1.25m-.3 28.5q-1 8.85-3.15 18.05-.3-.1-.4.15.7-4.35 1.35-8.7 1.1-5.6 2.4-10.7-.1.5-.2 1.2m12.9-130.3q-1.95 3.1-3.9 6 .5 6 1.05 12 3.75-5.75 7.7-12.35-.3-6.35-.5-12.75-2.15 3.55-4.35 7.1m72.95 31.25q.15-4.6.3-9.15-2.45 2.1-4.9 4.2-19.05 16-39.35 31.6-9.65 7.3-19.25 13.75.2 4.75.5 9.55 8.75-6.4 17.3-12.95 18.8-14.7 37.05-29.55 4.15-3.5 8.35-7.45m13.25-20.6q-.15 3.75-.25 7.5 8.15-8.8 16.65-19.3 19.55-23.95 10.15-13.05-7.45 6.8-15.85 14.85-5.25 5-10.7 10m-41.5-120.55q.4 5.2-4.95 22.9-5.5 17.4-15.45 40.95-7.6 17.55-17.5 34.8 0 .4 0 .85.15 6.15.3 12.3 4.15-7.1 8.55-15.05 16.25-29.6 24.15-55.55 7.6-25.75 4.3-46.7-.05.25.6 5.5z" fill="url(#Gradient_1)"/>
                <path d="m212.35 291.35q-1.75-4.05 0-4.6 3.75 7.85 7.05 16.1-.45-1.5-.6-2.6-.15-.5-.25-.5-4.5-10.1-6.8-20.55-.85-3.6-1.55-6.95-6.25-1.05-14.6-2.8 1.45 24.25 2.45 48.65.75 18.9 1.45 37.85 13.55-8.5 31.4-13.2-2-3-3.6-5.75-2.25-3.9-2.4-5.75-.95-2.1-1.85-4.05-2.2-4.55-4.25-8.85-1.3-2.7-.35-3.25 2.55 6.15 5.95 12.3 3.1 5.95 6.95 12.15.95 1.3 1.85 2.55l.25-.05q-1.7-2.75-3.1-5.55-2.35-4.2-4.4-8.05-1.35-2-2.3-3.95-1.75-3.3-3.3-6.65-1.85-3.45-3.6-6.75-1.8-3.35-3.1-6.15-.85-2.6.25-2.45 1 2.85 2.8 6.25 1.3 2.55 2.85 5.2-.2-.85-.35-1.25-1.05-3.35-.45-4.7.25.85.75 1.75 0-.05.1.05-.5-1.3-1-2.45-3.4-8.05-6.25-16m-1.45-71.8q-.2-4.75 1.8-6.1.45 4.7 1.1 9.8.3-1.7.95-2.2 0 9.6.75 19.7 0 1.85.2 3.85.15-1.4.25-2.4.2-.8.2-1.4-.15-.95-.1-1.55 0-12.3 0-24.3-.2-3.85.1-7.35-13.4-8.75-26.95-20.2 3.4 35.9 5.8 71.95 6.45.75 13 1.85-.7-3.5.45-4.1.45 1.9.85 4.3.95.2 2.05.4-.3-1.3-.45-2.25-2.3-11.3-1.2-22.25.2-3.75 1.9-4.9-.5-6.5-.7-12.85m-59.15 46.8q7.2 45.55 5.25 96.85-2.2 58.2-2.45 116.5-.2 58.4 1.9 116.55 1.15 30.6 2.8 61.35h47.1q-.3-47.5-2.6-94.9-4.6-94-6.85-188.45-.05-1.35-.05-2.7-6.7 5.85-12.85 13.15-12.35 13.05-25.6 51.85.05-5.9 3.45-23.6 3.4-17.8 11.7-31.2 8.25-13.75 21.25-22.7.8-.6 1.65-1.15-1.4-44.75-4.45-89.25-10.2-2.25-29.95-2.4-5.2-.05-10.3.1m-43.65 5.65q-.6 9.5-1.25 18.95-5.9 86.95-16.35 173-10.45 86.3-9.7 174.25.1 9.8.75 19.4h62.05q1.6-43.1.45-86-1.6-59.2-1.4-117.05.15-57.9.35-93.55.15-35.65 1.45-94.35-11.5.65-22.3 2.4-7.3 1.1-14.05 2.95m-85.05-270.4q0-.8-.05-1.6h-23v657.6h19.65q-3.15-58.2-1.6-118.95 2.25-90 4.65-179.05 2.45-89.85 2.7-179 .25-89.8-2.35-179m81.3 94.6q-10.85-15.9-15.2-33.5-2.75-10.4-3.8-13.7 12.4 27.9 26.7 45.5 1.1-47.25 1.3-94.5h-42.95q-2.3 57.45-.65 114.5 2.1 73.9 2.7 148.05.55 74.35.9 148.05.2 49.2-8.2 92-1.65-38.1-7.6-132.35-5.95-94.25-9-149.65-3.1-55.45-3.25-129.4-.15-45.55-1.3-91.2h-18.7q1.15 66.35 1.9 132.8 1.05 89.35-.3 179-1.35 88.4-4.4 177.8-2.85 84-2.6 168h37.9q-1-34.05-2.35-70.65-2.35-64.15-7.75-127.95-5.35-62.85-7.25-127.05-1.9-63.9-6.75-127.85-1.35-17.8 1.8-33.75 2.9 63.45 5.5 126.9 2.65 63.6 7.1 126.8 4.4 62.85 7.8 125.75 2.95 54 3 107.8h22.45q-7.35-70.4 1.95-145.15 10.9-87.35 17.15-175.35 2.3-32.05 4.2-64.1-9.15 2.75-17.3 6.85-6.95 3.45-13.9 4.65.6-.5.9-.65 16-11.3 30.65-16.5 3-52.3 4.95-104.6 1.05-28.1 1.8-56.2-3.85-5.1-7.4-10.35m80.25 87.3q-9-7.9-18.1-16.95-20.45-20.05-38.25-39.9-7.45-8.3-14.15-17-.05 3.5-.1 6.95-1.1 75.2-5.55 149.6 2.4-.75 4.8-1.35 15.7-4.1 32.9-6 1.15-5 2.5-9.85.95 4.65 1.8 9.4.55-.05 1.1-.1 12.75-1.4 26.55-.4 6.6.35 13.2 1.05-2.7-37.1-6.55-74.05-.05-.7-.15-1.4m-9.15-164.9q-.1-9.4.1-18.6h-60.05q-.55 48.55-1.2 97.2 14.05 16.6 29.35 34.5 15.95 18.4 34.95 35.1 2.4 2.1 4.75 4.15-7.2-75.6-7.9-152.35m6.45-18.6h-5.5q-1.25 65.05 6.55 129.75 2.7 22.55 5 45.15 14.15 12 28.5 23.2.15.2.45.35.3-3.35.95-6.7.75-4.15 3.7-5.25-1 7.25-1.3 15 .7.75 1.4 1.55.2-2.25.8-4.4 1.95-11.45 3.9-22.85.55-3.75 2.8-3.7-.4 3.3-.45 6.95 2.75-10.7 6.8-20.8.25-1.25.9-2.1-10.75-10.05-20.75-23.6-18.95-25-28-53.35-6.1-17.85-7.1-38.3-1.3-20.6 1.1-38.7.15-1.2.25-2.2m405.3 277.7q-5.5-1.95-10.9-3.45-17.5-5.35-36.55-4.95-.05 7.1-.05 14.25 0 98.25 2.95 196.15 2.7 88.65 5.05 177.9h24.9q-3.6-51.05-1.35-102.85 3.95-91.7 10.85-182.55 3.6-47.1 5.1-94.5m-114 27.5q2.35 27.2 4.25 54.55 15.25 8.05 25.5 20.55 11.35 13.95 16.05 25 4.65 11 6.95 14.8-.85-1.2-1.85-2.05-10.7-10.75-22.5-23.6-8.9-9.45-23.15-18.8 3.65 59.25 4.8 119.1 1.65 81.1 2.35 162.85h46.95q-3.9-60.15-3.85-123.6.1-98.05-1.2-196.2-.45-33.95-.3-67.8-16.2 1.05-32.15 2.25-12.05.85-24.25 3.2 1.1 14.9 2.4 29.75m-54.3 37.55q.9-1.4 1.85-2.75 0-.5 0-.95-.9 1.8-1.85 3.7m16.35-38.15q-2.1 4.1-4.1 8.15-.9 2.9-1.9 5.95 0 .25 0 .55 1.4-2.95 2.8-6 1.95-4.75 3.5-9.35-.25.2-.3.7m-30.55 67.8q-.6.55-1 1.25-4.3 4.85-8.75 9.35 2.3-1.9 4.55-3.8 5.25-4.65 10.25-9.75 3-3.5 6.35-6.45.2-.7 1.05-.65-3.4 5.6-8.5 10.85-4.95 4.7-9.95 8.9-5.05 4.1-10.3 7.25-.1-.05-.2.1-1.75 1.55-3.3 3.2 1.3-.9 2.75-1.45 4.5-2.45 8.8-5.8 4.65-4.1 9.4-9.1.7-1 1.4-1.35.3-.5 1-.7-1.2 5.3-6.5 10.4-5.05 4.55-10.65 7.9-3.8 2.15-7.45 4.25-3.25 1.65-6.5 3.05-.8.3-1.6.6-1.95.9-3.8 1.9.1.6.45.95 3.15-1.25 6.45-2.75.45-.25 1.1-.55.35-.35 1.05-.6.15-.2.6-.2.1-.35.5-.3.1 0 .2-.05-1.2 1.45-2.8 2.85-1.6 1.35-3.45 2.2-1.6.5-2.85 1.15 5.3 12.35-1.5 30.8-3 7.9-10.1 13.25-4.35 3.1-8.7 5.65-.1.6.15 1.2.4 6.45-1.6 13.2-2.35 6.25-6 11.9-.15.15-.3.4-3.6 4.9-7.2 8.4-.35.3-.5.5-.5.35-.95.8l-.15.15q-.55.55-1.15 1.25-1.65 5.3-3.2 12.35-.2 4.7.25 9.3.55 4.9 1.45 9.8.85 4.9 1.65 9.8.3 1.75-.45 2.85-.35-5-1.45-9.85-1.1-4.9-1.65-9.9-.55-4.45-.45-8.95-.65 3-1.25 6.35-1.2 6.95-2 12.5 0 4.05.4 8 .45 4.35 1.4 8.65.35 1.45.15 2.6-1.45-4.2-1.95-8.9-.5-4.4-.6-8.9-.05-1.2 0-2.35-.75-3.1-1.95-6.35-.2 4.35-3.8 7.05 3.2-3.65 3.35-8.3v-.05q-1.5-4.25-3.7-8.9-.95-2.2-2-4.25-.35.5-.75 1.05-3.4 5.15-4.6 7.95 0 .05 0 .1-.2 3.3.8 6.4 1.4 4.05 5.4 6 .45.25 1.1.3-.2.15-.35.25-.75.5-1.55-.1-5.65-4.3-5.75-11.05-.05-1.8 0-3.55-.15-.9-.45-1.85.05 5.3.05 10.6-.05 5.95.25 11.85.25 5.9 2.1 11.55.6 1.8.85 3.35-2.6-5.3-3.2-11.55-.5-6-.55-12 0-5.95 0-12 0-2.05-.2-4-1.35-3.95-3.5-8.85-5-11.15-11.25-17.2.05.1.1.2-.25-.3-.5-.6-.4-.4-.8-.75.2.15.45.3-3.6-4.35-6.1-10.45-2.85-6.7-4-13.25-1.15-6.05.25-10.5.4-1.55 1-2.9-7.3-6.65-13.55-14.85-3.1-4.1-4.95-8.1-.8-1.1-1.3-2.1-12.25-19.75 1.6-28.3-3.3-3.15-5.9-6.15-.45-.45-.9-.9-.85-.9-1.35-1.45-3.45-2.1-6.8-4.05-2-1.4-3.65-2.35-3.3-2-6.1-4.35-3.45-2.75-4.4-6.15-.05-.3.45.15 2.6 3.05 5.7 5 4.2 2.75 8.9 5.55-2.95-3.1-5.75-5.9-4.55-4.7-8.9-8.9-4.65-4.65-8.55-9.5-12.35 3.15-21.95 9.25-5.45 3.4-10.65 7.6 2.5 69.25 4.4 138.9 2 74.7 3.15 149.8h191.4q-.1-19.1.1-38.35.45-39.7-1.15-79.35-1.55-39.05-2.9-78.35-.45-13-.65-22.5 3.4 38.85 5.55 78.2 2.1 38.9 1.65 78.3-.4 31.05.6 62.05h81q-.6-54.6-2.45-109.05-2.95-87.8-6.9-175.9-2.7-1.65-5.5-3.3-4.45-2.6-9.1-4.75-3.05 87.15-7.75 174.25-1.9 35.2-2.5 69.35-.35-55.1 3.1-110.85 2.75-44.3 4-88.75.6-22.5.85-45.05-12.6-5.55-26.8-8.1.2 8.75.45 17.55.5 18.6-5.65 129.3-4.4-113.9-4.2-148.2-.65-.1-1.25-.15-1.95 3-4.45 6.35-.7.75-1.4 1.75-1.85 4.35-6.5 8.3-1.35 1.05-2.35 2.05m64.3-96.6q-4.4.85-8.8 1.95.45 37.1-.65 74.35 7 2.45 13.5 5.5-1.9-40.9-4.05-81.8m-28.95 11.95q-.7 1.6-1.25 3.1-.15 3.45-1.05 7.2.35-.5 1.35-.55.4 9-5.85 20.8-1.9 3.45-3.85 6.85 0 1 .05 2.05.85-1.5 1.7-3 .2-.55.85-.4-.8 3.75-2.5 7.75.15 6.45.3 12.9 2.4.3 4.8.8 11.75 2.35 22.35 5.95.2-36.25-.55-72.55-7.3 1.9-14.65 4.25-.95 2.25-1.7 4.85m25.3-78.75q-3.6 2.6-7.2 5.2 1.35 27.35 1.9 54.75 4.25-1.05 8.5-1.8-1.55-29.05-3.2-58.15m-10.95 7.9q-3.35 2.3-6.7 4.65-.25 0-.4.3 1 10.2-1.2 22.25-.3.55-.25 1.1-.1 2.5-.1 5 .2-1.45.8-2.2 3.3 7.55.05 19.2-.85 3.2-1.8 6.4 5.7-2.1 11.4-3.65-.5-20.1-1.3-40.25-.25-6.4-.5-12.8m-12.55-55.7q-8 9.8-10.15 11.45.7 5.35 1.55 11.25.05.2.15.6.3 2 .95 3.9.45 2.4 1.1 5.1.85 1.95 1.8 4.3 0 .15.15.35.3-.75 1.35-1.1-.5-5.8-.85-11.45-.4-4.2.3-6.95 2.4 10.35 2.9 21.95 1.95 5 2.55 11.65 5.1-2.85 10.25-5.95-1.35-28.7-3.2-57.35-4.55 6.75-8.85 12.25m-1.7 114.15q2.15-9.2 3.15-18.05.1-.7.2-1.2-1.3 5.1-2.4 10.7-.65 4.35-1.35 8.7.1-.25.4-.15m3.65-51.35q-.1 2.4-.2 4.8-.1.45.3 1.25 0-1.5.25-2.75 0-2.2.95-4-.85.25-1.3.7m-.85 12.8q-.15.39023438-.15 1.3-.55 4.95-1.1 9.55-.15 0 .05.2.7-5.05 1.35-10.35-.23300781-.46601562-.15-.7m-4.15-22q-.18847656-1.13125-.1-2.25-.103125 1.021875-.15 2.1-.2.1-.05.3.15-.3.3-.15m22.25-82.15q-3.95 6.6-7.7 12.35 1.45 17.95 2.75 36 .8 11.5 1.5 23 3.55-2.25 7.2-4.6-.85-14.55-1.75-29.1-1.15-18.8-2-37.65m-126 359.8q.04707031-.09394531.1-.15l-.1.1zm-26-27.3q-1-3-.95-5.3-.1-1.2 0-2.3-3.05-1.45-5.6-2.6-1.15.25-2.15 1.05-4.4 1.65-5.15 7.2-.3.5-.1 1.3-.5 3.75-.05 8.1.55 4.1 2.05 8.35.05.45.25.9 1.3.8 3.2 1.75 2.6 1.2 5.3 2.05 4.85 1.4 10.2 1.4 7 0 15.55-3.55 4.3-1.8 7.5-3.65h-.2q-.4-.85-.4-1.8 0-.4 1.45-1.4.05-.95.1-1.95-.05-5-1.6-9.3-1-2.5-1.95-4.65-3.85.55-7.15.8-.35 2.8-1.3 5.7-1.2 2.65-2.65 4.9-1.7 2.15-2.9 3-1.25.6-1.95.7-.9-.1-.9-.05 0-.1-.05-.05 1.7-3.45 2.1-5.05.5-2.05.55-4.15.1-2.2-.6-4.3-.4-.65-.45-1.1-1.95-.35-3.55-.65-.45.1-.65.35-2.15.9-2.45 3.6-.55 1.95-.5 4.6-.05 2.35.85 4.55.55 1.8.55 2.1-.3-.15-2.9-3.8-2.9-4.2-3.5-6.75m3.85-3.25q.05-.2.1-.15-.05-.1-.05-.15-.2.15-.05.25zm-66.2-131.7q-.5-1.1-.9-1.8.45.95.9 1.85.1-.05 0-.05m-9.75 20.8q-1.35 0-2.5.55 2.4 2.65 5.1 5.5 5.4 5.7 10.95 11.55 1.25 1.3 2.8 2.95-.4-.8-.8-1.1-.5-.7-1.15-1.25-2.2-2.6-3.55-4.55.2-.1.5.1.15.25.6.5-.3-.55-.5-.75-.55-.8-.95-1.05-5.05-4.5-9.8-11.6h-.05q-.3-.5-.65-.85m-8.85-22.7q-.65-1.35-1.05-2.65-2.75-5.4-5.2-10.55 2.5 5.75 5.55 11.75.3.7.7 1.45m-16.3-55.9q.75 3.1 1.65 6.2 1.2 4.7 3.1 9.75-.5-3.5-.7-6.65-1.4-4.75-2.2-9.1-1-.35-1.85-.2m.55-31.7q-.25-3.05-.55-5.8.25 9 1.6 18.1.7 2.55 1.55 5.5-1.65-9-2.6-17.8m7.4-25.6q.2-2.4.8-4.8-.4-.3-.65-.45-.35 2.55-.15 5.25m8.05-15.15q-.35.85-.4 1.85.3-1 .75-1.85.1-.8.35-1.25-.1875-1.546875.15-2.8-.60996094 1.98535156-.85 4.05m59.9-87.7q-.75.45-1.55 1.45-.15.65-.45 1.55 1-1.65 2-3m11.55-5.3q1-1.15 2.05-2.1.15-.65 1.05-1.15-1 .5-1.5 1.25-.8.5-1.6 1.25 0 .1 0 .2 0 .2 0 .55m14-2.35q-.8-.65-1.25-1.15-.5.25-.6.85.9.15 1.85.3m3.05-.35q-.05-.15.05-.25-1-1.85-2.2-3.2-.1-.25-.35-.45-.3.3-.55.95 1.5 1.05 3.05 2.95m-83.85 73.5q-1.25 4.95-2.05 9.7.65-2.3 1.65-4.45 1.15-2.4 2.15-4.65.45-5.65 1.25-11.25-1.85 5.05-3 10.65m6.55-19.2q-.3.45-.3 1.3-1.65 6.9-2.55 14.35 1.4-4.2 2.8-8.25 1-2.85 2.1-5.55-1.05-1-2.05-1.85m76.85-62.7q-.45.5-.7 1-.05 0 .05.15 2.6 2.3 5.25 4.65 1.4 1.15 2.95 2.65-.55-.9-1.05-1.45-.3-.55-.5-.8-3.3-3.2-6-6.2m-6.3-.9q-.48710937 1.1203125-1.35 2.4.7328125-1.0296875 1.75-1.95-.35-.3-.4-.45m106 258.75q-.15 0-.3 0-2.75 3.55-5.35 7.25-.65.55-1.15 1.4.25-.15.45-.4 3.1-4.15 6.35-8.25m-45.9 30.85q-1.15 1.05-2.3 2.45 1.75-1.65 3.65-3.15-.85.2-1.35.7m27-41.45q-.35.05-.15.05-.4.5-.85 1.15-.3.75-.6 1.4.75-1.45 1.6-2.6m6.5-36.85q-.35.2-.55.95-.25.05-.2.45 0 .15.15.6.05-.3.25-.65.3-.9.7-1.5-.15-.35-.15-.15-.2-.05-.2.3m13.85-135q.45-.35 1.05-.7-.35-.9-.5-1.45-2.25-4-4.35-7.35 2 4.7 3.8 9.5m-82.05-61.25q-.25-.7-.55-1.1-2.6-2.5-5.05-4.6.1.25.5.55 2.25 2.6 4.85 5.05.05 0 .25.1m20.25 9.35q1.5.6 3.3 1.5-.25-.25-.5-.6-4-4.75-8.05-9.15.7 1.35 1.55 2.85 1.75 2.6 3.7 5.4m-8.55-4.95q-.55-1.15-1.1-2.1-.8-1.15-1.65-2.2-2.9-3.9-5.75-7.45 1.55 3.5 3.55 7.65 1.1.8 2.35 1.95 1.3.75 2.6 2.15m40.3 24.6q.2.4.9.7-1.25-1.75-2-3.4.45 1.2 1.1 2.7m-19.3-16.45q-.2-.7 0-1.1-.4-.8-.65-1.2-1.8-3.15-4.05-5.8 1.8 4.2 3.15 9.05.5 1 1.3 2.05.4.2 1.1.6-.5-1.95-.85-3.6m-35.85-25.15q-.65-.55-1.1-.7 2.15 4.35 4.35 8.7 1.05.8 2.15 1.45-1.4-2.55-2.45-5.1-1.05-2-2.05-3.8-.5-.4-.9-.55m-1.75-3.7q-1.25-1.75-2.55-3.2-2.6-3.1-1.85-3.8 3.8 1.9 7.05 6.35.65.7 1.3 1.9 2.45.9 4.85 2.9 3.5 2.7 6.6 6.45-.1-.2.05-.25 2.4 1.75 4.7 3.65-1.3-1.8-.4-2.5 0-.7.9-1.25 4.05 4.45 7.85 9.2.25.3.85 1.1-.95-2.15-1.75-4.15-.55-1.35-.35-2-.4-.1-.25-.25-2.8-2.75-2.25-4.15-.8-1.2-.1-1.6 5.35 1.9 9.25 7.1 3 3.8 5.3 8.3 2.7 4.1 5.25 8.7 1.3 2.8 2.9 5.65 2.15 1.3 4.05 2.95-3.6-7.6-8-14.15-6.25-9.25-13.45-16.65-4.55-4.7-5.85-6.8 6.65 4 12.55 10.45 5.6 6.15 10.4 13.2.15-.65.45-.9-1.1-1.85-.4-2.9 5.9 3.95 9.7 11.15 3.6 6.7 7.15 13.75 1.3 2.6 2.75 5.75 2.95 3.05 6.05 6.5-3.6-6.4-7.25-12.25-2.5-4.2-2.3-6.25 5.4 4.8 9.1 12.1-2.35-5.9-4.9-11.5-1.55-3.1-1.65-5.1-1.7-3.6-3.4-6.95-2.2-4.05-2.15-6.2 5.4 4.9 9.55 12.35 4 7.25 7.1 15.65 1.3 3.45 3 7.25 1.05.7 2.25 1.8-1.5-3.05-3.1-5.7-2-2.95-1.25-4.95 3.8 6.65 7.75 13.15.95 1.75 1.95 3.85 1.3 2.05 2.3 5 .2.65.55 1.5-.25-31.35-.45-62.7-.4-52.6.2-105.25h-237.6q-.1 1.55-.25 3.5 2.2 18.65 5.55 42.9 2.8 23.05 13.4 46.1 10.3 22.7 26.85 42.4 5.35 6.35 11.4 12.1.05-.6.3-1.2 1.2-3.05 2.75-4.1-.75 3.4-1.4 6.9 1.45 1.45 3.15 2.8 1.45-4.8 3.15-9.3 1.05-3.75 4.5-3.6-.1.35-.2.8 2.85-6.4 6.05-12.1 1.45-3.45 4.35-4-1.25 2.5-2.1 5.2.75-1 1.75-1.35-1.03125 2.94609375-2.2 6.3.334375-.884375.85-1.4 1-3.45 2.55-6.35 4.1-11.25 9.65-21.3 1.9-3.95 5.45-4.3-4.35 7.95-8.75 17.1-.65 1-1.15 2.3 1.05-1.45 2.3-2.4 1.55-3 3.45-5.8 3.6-6.25 9.55-6.35-4.3 7-11.15 18.5 1.15-1.55 2.35-2.9 7.35-9.5 15-18.3 4.1-4.95 8.7-7.3.45 3.1-1.7 7.05 2.35-2.85 5.25-5.55 4.3-4.35 8.75-7.2.1 1.45-.25 3.3h.15q.55.5 1.05 1.1.9-1.15 1.9-2.05h.05q-.7-1.55.8-1.75.15.05.6.4 2.05-1.75 4.6-2.2-.7 2.2-1.6 4.4 1.7 1.65 3.4 3.8.65.75 1.6 1.65.55.4 1.45 1.35-2.2-3 .05-4.9 2.75 4.9 7.25 8.8-.7-.95-1-1.9-3.9-7.35-9.45-12.65-3.15-3 0-3.65 4.2 3.55 7.65 8.8.5-.05 1.15.05m111.3-93.7q2.5 45.7 7.1 91.8 2.05 20.55 3.85 41.2 1.95-2.9 3.9-6 2.2-3.55 4.35-7.1-2.35-59.9-1.4-119.9zm-2.1 0h-10.5q-3.1 60.6-2 121.3.35 18.5.65 37 .95 1.6 1.65 3.3 10-9.4 20.85-25.05-3-43.15-7.15-86.15-2.45-25.15-3.5-50.4m89.9 158.25q-4.2 3.95-8.35 7.45-18.25 14.85-37.05 29.55-8.55 6.55-17.3 12.95 1.55 29.4 3.7 58.7 3.85-.65 7.7-1.05 20.1-2.45 39.85-3.45 4.75-.3 9.55-.35.3-52 1.9-103.8m-33.2-118.25q5.35-17.7 4.95-22.9-.65-5.25-.6-5.5 3.3 20.95-4.3 46.7-7.9 25.95-24.15 55.55-4.4 7.95-8.55 15.05.9 34.9 2.65 69.75 9.6-6.45 19.25-13.75 20.3-15.6 39.35-31.6 2.45-2.1 4.9-4.2.1-3.7.25-7.45 2.45-70.65 1.15-141.65h-67.3q-1.8 57.35-.55 115.75 9.9-17.25 17.5-34.8 9.95-23.55 15.45-40.95m79.6-29.25q-.75-5.45-1.4-10.75h-28.2q.9 42.95-1.35 87.4-1.25 25.1-2.2 50.25 5.45-5 10.7-10 8.4-8.05 15.85-14.85 9.4-10.9-10.15 13.05-8.5 10.5-16.65 19.3-2.1 58.4-2.4 117.05 8.6.3 17.4 1.25 15.45 1.65 30.2 9.8 1.2-40.5.95-81.2-.65-91.5-12.75-181.3m86.1 215.75q-.5.45-1 1v-227.5h-85.45q9 69.65 12.25 140.85 3 66.7 1 133 3.95 2.3 7.9 5.05 4.4 2.9 7.4 5.2-7.85-3.4-15.45-6.05-.75 22.6-2.1 45.15-5.4 90.55-10.6 181.4-4.4 76.6.15 153h26.55q.4-10.1.85-20.15 3.8-89.6 4.1-184.65.3-95.1 4.5-176.9 4.15-81.8 4.45-45.4-3.95 87.1-3.5 177.65.45 89.75-.1 179.5-.2 35.05-1.3 69.95h49.35v-425.4q.5-.6 1-1.1z" fill="url(#Gradient_2)"/>
                <path d="m150.45 258.4q.7 3.95 1.3 7.95 5.1-.15 10.3-.1 19.75.15 29.95 2.4-.35-4.85-.7-9.7-6.6-.7-13.2-1.05-13.8-1-26.55.4-.55.05-1.1.1m-63.1 21.45q8.15-4.1 17.3-6.85.15-2.85.35-5.65-14.65 5.2-30.65 16.5-.3.15-.9.65 6.95-1.2 13.9-4.65m25.9-15q-2.4.6-4.8 1.35-.2 2.9-.35 5.8 6.75-1.85 14.05-2.95 10.8-1.75 22.3-2.4.8-3.95 1.7-7.8-17.2 1.9-32.9 6m-24.1-202.15q4.35 17.6 15.2 33.5 3.55 5.25 7.4 10.35.15-6.05.3-12.05-14.3-17.6-26.7-45.5 1.05 3.3 3.8 13.7m77.35 103.85q9.1 9.05 18.1 16.95-.65-6.3-1.25-12.55-2.35-2.05-4.75-4.15-19-16.7-34.95-35.1-15.3-17.9-29.35-34.5-.1 6.2-.2 12.45 6.7 8.7 14.15 17 17.8 19.85 38.25 39.9m262.95 160.65q0 2.15.05 4.35 1.7-4 2.5-7.75-.65-.15-.85.4-.85 1.5-1.7 3m-101.95-236.7q1.3 1.45 2.55 3.2-.65-.1-1.15-.05-3.45-5.25-7.65-8.8-3.15.65 0 3.65 5.55 5.3 9.45 12.65.3.95 1 1.9-4.5-3.9-7.25-8.8-2.25 1.9-.05 4.9-.9-.95-1.45-1.35-.95-.9-1.6-1.65-1.7-2.15-3.4-3.8.9-2.2 1.6-4.4-2.55.45-4.6 2.2-.45-.35-.6-.4-1.5.2-.8 1.75h-.05q-1 .9-1.9 2.05-.5-.6-1.05-1.1h-.15q.35-1.85.25-3.3-4.45 2.85-8.75 7.2-2.9 2.7-5.25 5.55 2.15-3.95 1.7-7.05-4.6 2.35-8.7 7.3-7.65 8.8-15 18.3-1.2 1.35-2.35 2.9 6.85-11.5 11.15-18.5-5.95.1-9.55 6.35-1.9 2.8-3.45 5.8-1.25.95-2.3 2.4.5-1.3 1.15-2.3 4.4-9.15 8.75-17.1-3.55.35-5.45 4.3-5.55 10.05-9.65 21.3-1.55 2.9-2.55 6.35-.515625.515625-.85 1.4 1.16875-3.35390625 2.2-6.3-1 .35-1.75 1.35.85-2.7 2.1-5.2-2.9.55-4.35 4-3.2 5.7-6.05 12.1.1-.45.2-.8-3.45-.15-4.5 3.6-1.7 4.5-3.15 9.3-1.7-1.35-3.15-2.8.65-3.5 1.4-6.9-1.55 1.05-2.75 4.1-.25.6-.3 1.2-6.05-5.75-11.4-12.1-16.55-19.7-26.85-42.4-10.6-23.05-13.4-46.1-3.35-24.25-5.55-42.9.15-1.95.25-3.5h-.6q-.1 1-.25 2.2-2.4 18.1-1.1 38.7 1 20.45 7.1 38.3 9.05 28.35 28 53.35 10 13.55 20.75 23.6-.65.85-.9 2.1-4.05 10.1-6.8 20.8.05-3.65.45-6.95-2.25-.05-2.8 3.7-1.95 11.4-3.9 22.85-.6 2.15-.8 4.4-.7-.8-1.4-1.55.3-7.75 1.3-15-2.95 1.1-3.7 5.25-.65 3.35-.95 6.7-.3-.15-.45-.35-14.35-11.2-28.5-23.2.65 6.25 1.25 12.5 13.55 11.45 26.95 20.2-.3 3.5-.1 7.35 0 12 0 24.3-.05.6.1 1.55 0 .6-.2 1.4-.1 1-.25 2.4-.2-2-.2-3.85-.75-10.1-.75-19.7-.65.5-.95 2.2-.65-5.1-1.1-9.8-2 1.35-1.8 6.1.2 6.35.7 12.85-1.7 1.15-1.9 4.9-1.1 10.95 1.2 22.25.15.95.45 2.25-1.1-.2-2.05-.4-.4-2.4-.85-4.3-1.15.6-.45 4.1-6.55-1.1-13-1.85.3 5.05.6 10.1 8.35 1.75 14.6 2.8.7 3.35 1.55 6.95 2.3 10.45 6.8 20.55.1 0 .25.5.15 1.1.6 2.6-3.3-8.25-7.05-16.1-1.75.55 0 4.6 2.85 7.95 6.25 16 .5 1.15 1 2.45-.1-.1-.1-.05-.5-.9-.75-1.75-.6 1.35.45 4.7.15.4.35 1.25-1.55-2.65-2.85-5.2-1.8-3.4-2.8-6.25-1.1-.15-.25 2.45 1.3 2.8 3.1 6.15 1.75 3.3 3.6 6.75 1.55 3.35 3.3 6.65.95 1.95 2.3 3.95 2.05 3.85 4.4 8.05 1.4 2.8 3.1 5.55l-.25.05q-.9-1.25-1.85-2.55-3.85-6.2-6.95-12.15-3.4-6.15-5.95-12.3-.95.55.35 3.25 2.05 4.3 4.25 8.85.9 1.95 1.85 4.05.15 1.85 2.4 5.75 1.6 2.75 3.6 5.75-17.85 4.7-31.4 13.2.2 6.45.45 12.95 5.2-4.2 10.65-7.6 9.6-6.1 21.95-9.25 3.9 4.85 8.55 9.5 4.35 4.2 8.9 8.9 2.8 2.8 5.75 5.9-4.7-2.8-8.9-5.55-3.1-1.95-5.7-5-.5-.45-.45-.15.95 3.4 4.4 6.15 2.8 2.35 6.1 4.35 1.65.95 3.65 2.35 3.35 1.95 6.8 4.05.5.55 1.35 1.45.45.45.9.9 2.6 3 5.9 6.15-13.85 8.55-1.6 28.3.5 1 1.3 2.1 1.85 4 4.95 8.1 6.25 8.2 13.55 14.85-.6 1.35-1 2.9-1.4 4.45-.25 10.5 1.15 6.55 4 13.25 2.5 6.1 6.1 10.45-.25-.15-.45-.3.4.35.8.75.25.3.5.6-.05-.1-.1-.2 6.25 6.05 11.25 17.2 2.15 4.9 3.5 8.85.2 1.95.2 4 0 6.05 0 12 .05 6 .55 12 .6 6.25 3.2 11.55-.25-1.55-.85-3.35-1.85-5.65-2.1-11.55-.3-5.9-.25-11.85 0-5.3-.05-10.6.3.95.45 1.85-.05 1.75 0 3.55.1 6.75 5.75 11.05.8.6 1.55.1.15-.1.35-.25-.65-.05-1.1-.3-4-1.95-5.4-6-1-3.1-.8-6.4 0-.05 0-.1 1.2-2.8 4.6-7.95.4-.55.75-1.05 1.05 2.05 2 4.25 2.2 4.65 3.7 8.9v.05q-.15 4.65-3.35 8.3 3.6-2.7 3.8-7.05 1.2 3.25 1.95 6.35-.05 1.15 0 2.35.1 4.5.6 8.9.5 4.7 1.95 8.9.2-1.15-.15-2.6-.95-4.3-1.4-8.65-.4-3.95-.4-8 .8-5.55 2-12.5.6-3.35 1.25-6.35-.1 4.5.45 8.95.55 5 1.65 9.9 1.1 4.85 1.45 9.85.75-1.1.45-2.85-.8-4.9-1.65-9.8-.9-4.9-1.45-9.8-.45-4.6-.25-9.3 1.55-7.05 3.2-12.35.6-.7 1.15-1.25l.15-.15q.45-.45.95-.8.15-.2.5-.5 3.6-3.5 7.2-8.4.15-.25.3-.4 3.65-5.65 6-11.9 2-6.75 1.6-13.2-.25-.6-.15-1.2 4.35-2.55 8.7-5.65 7.1-5.35 10.1-13.25 6.8-18.45 1.5-30.8 1.25-.65 2.85-1.15 1.85-.85 3.45-2.2 1.6-1.4 2.8-2.85-.1.05-.2.05-.4-.05-.5.3-.45 0-.6.2-.7.25-1.05.6-.65.3-1.1.55-3.3 1.5-6.45 2.75-.35-.35-.45-.95 1.85-1 3.8-1.9.8-.3 1.6-.6 3.25-1.4 6.5-3.05 3.65-2.1 7.45-4.25 5.6-3.35 10.65-7.9 5.3-5.1 6.5-10.4-.7.2-1 .7-.7.35-1.4 1.35-4.75 5-9.4 9.1-4.3 3.35-8.8 5.8-1.45.55-2.75 1.45 1.55-1.65 3.3-3.2.1-.15.2-.1 5.25-3.15 10.3-7.25 5-4.2 9.95-8.9 5.1-5.25 8.5-10.85-.85-.05-1.05.65-3.35 2.95-6.35 6.45-5 5.1-10.25 9.75-2.25 1.9-4.55 3.8 4.45-4.5 8.75-9.35.4-.7 1-1.25 1-1 2.35-2.05 4.65-3.95 6.5-8.3.7-1 1.4-1.75 2.5-3.35 4.45-6.35.6.05 1.25.15 0-.45 0-.85.05-6.65.1-13.25-.95 1.35-1.85 2.75.95-1.9 1.85-3.7.4-54.65 0-109.8-.2-30.65-.4-61.3-.35-.85-.55-1.5-1-2.95-2.3-5-1-2.1-1.95-3.85-3.95-6.5-7.75-13.15-.75 2 1.25 4.95 1.6 2.65 3.1 5.7-1.2-1.1-2.25-1.8-1.7-3.8-3-7.25-3.1-8.4-7.1-15.65-4.15-7.45-9.55-12.35-.05 2.15 2.15 6.2 1.7 3.35 3.4 6.95.1 2 1.65 5.1 2.55 5.6 4.9 11.5-3.7-7.3-9.1-12.1-.2 2.05 2.3 6.25 3.65 5.85 7.25 12.25-3.1-3.45-6.05-6.5-1.45-3.15-2.75-5.75-3.55-7.05-7.15-13.75-3.8-7.2-9.7-11.15-.7 1.05.4 2.9-.3.25-.45.9-4.8-7.05-10.4-13.2-5.9-6.45-12.55-10.45 1.3 2.1 5.85 6.8 7.2 7.4 13.45 16.65 4.4 6.55 8 14.15-1.9-1.65-4.05-2.95-1.6-2.85-2.9-5.65-2.55-4.6-5.25-8.7-2.3-4.5-5.3-8.3-3.9-5.2-9.25-7.1-.7.4.1 1.6-.55 1.4 2.25 4.15-.15.15.25.25-.2.65.35 2 .8 2 1.75 4.15-.6-.8-.85-1.1-3.8-4.75-7.85-9.2-.9.55-.9 1.25-.9.7.4 2.5-2.3-1.9-4.7-3.65-.15.05-.05.25-3.1-3.75-6.6-6.45-2.4-2-4.85-2.9-.65-1.2-1.3-1.9-3.25-4.45-7.05-6.35-.75.7 1.85 3.8m3.2 6.2q.45.15 1.1.7.4.15.9.55 1 1.8 2.05 3.8 1.05 2.55 2.45 5.1-1.1-.65-2.15-1.45-2.2-4.35-4.35-8.7m36.95 24.75q-.2.4 0 1.1.35 1.65.85 3.6-.7-.4-1.1-.6-.8-1.05-1.3-2.05-1.35-4.85-3.15-9.05 2.25 2.65 4.05 5.8.25.4.65 1.2m20.2 18.25q-.7-.3-.9-.7-.65-1.5-1.1-2.7.75 1.65 2 3.4m-42.3-27.4q.55.95 1.1 2.1-1.3-1.4-2.6-2.15-1.25-1.15-2.35-1.95-2-4.15-3.55-7.65 2.85 3.55 5.75 7.45.85 1.05 1.65 2.2m12.95 8.55q-1.8-.9-3.3-1.5-1.95-2.8-3.7-5.4-.85-1.5-1.55-2.85 4.05 4.4 8.05 9.15.25.35.5.6m-24.1-11.95q.3.4.55 1.1-.2-.1-.25-.1-2.6-2.45-4.85-5.05-.4-.3-.5-.55 2.45 2.1 5.05 4.6m83.65 61.65q-.6.35-1.05.7-1.8-4.8-3.8-9.5 2.1 3.35 4.35 7.35.15.55.5 1.45m-15.45 136.65q.2-.75.55-.95 0-.35.2-.3 0-.2.15.15-.4.6-.7 1.5-.2.35-.25.65-.15-.45-.15-.6-.05-.4.2-.45m-6.1 35.95q-.2 0 .15-.05-.85 1.15-1.6 2.6.3-.65.6-1.4.45-.65.85-1.15m-29.15 43.85q1.15-1.4 2.3-2.45.5-.5 1.35-.7-1.9 1.5-3.65 3.15m47.9-33.3q.15 0 .3 0-3.25 4.1-6.35 8.25-.2.25-.45.4.5-.85 1.15-1.4 2.6-3.7 5.35-7.25m-107.05-256.35q.86289063-1.2796875 1.35-2.4.05.15.4.45-1.0171875.9203125-1.75 1.95m6.95-.5q.25-.5.7-1 2.7 3 6 6.2.2.25.5.8.5.55 1.05 1.45-1.55-1.5-2.95-2.65-2.65-2.35-5.25-4.65-.1-.15-.05-.15m-76.45 63q0-.85.3-1.3 1 .85 2.05 1.85-1.1 2.7-2.1 5.55-1.4 4.05-2.8 8.25.9-7.45 2.55-14.35m-8.3 27.6q.8-4.75 2.05-9.7 1.15-5.6 3-10.65-.8 5.6-1.25 11.25-1 2.25-2.15 4.65-1 2.15-1.65 4.45m85.95-83.45q-.1.1-.05.25-1.55-1.9-3.05-2.95.25-.65.55-.95.25.2.35.45 1.2 1.35 2.2 3.2m-4.35-.55q.45.5 1.25 1.15-.95-.15-1.85-.3.1-.6.6-.85m-10.7 1.4q-1.05.95-2.05 2.1 0-.35 0-.55 0-.1 0-.2.8-.75 1.6-1.25.5-.75 1.5-1.25-.9.5-1.05 1.15m-15.15 8.85q.8-1 1.55-1.45-1 1.35-2 3 .3-.9.45-1.55m-58.75 88.1q.05-1 .4-1.85.24003906-2.06464844.85-4.05-.3375 1.253125-.15 2.8-.25.45-.35 1.25-.45.85-.75 1.85m-6.85 8.5q-.6 2.4-.8 4.8-.2-2.7.15-5.25.25.15.65.45m-8.75 24.6q.3 2.75.55 5.8.95 8.8 2.6 17.8-.85-2.95-1.55-5.5-1.35-9.1-1.6-18.1m1.65 43.7q-.9-3.1-1.65-6.2.85-.15 1.85.2.8 4.35 2.2 9.1.2 3.15.7 6.65-1.9-5.05-3.1-9.75m13.6 47.05q.4 1.3 1.05 2.65-.4-.75-.7-1.45-3.05-6-5.55-11.75 2.45 5.15 5.2 10.55m7.4 25.9q1.15-.55 2.5-.55.35.35.65.85h.05q4.75 7.1 9.8 11.6.4.25.95 1.05.2.2.5.75-.45-.25-.6-.5-.3-.2-.5-.1 1.35 1.95 3.55 4.55.65.55 1.15 1.25.4.3.8 1.1-1.55-1.65-2.8-2.95-5.55-5.85-10.95-11.55-2.7-2.85-5.1-5.5m11.35-23.15q.4.7.9 1.8.1 0 0 .05-.45-.9-.9-1.85m67.2 133.35q-.05-.05-.1.15v-.05q-.15-.1.05-.25 0 .05.05.15m-4.9-1.9q-.05 2.3.95 5.3.6 2.55 3.5 6.75 2.6 3.65 2.9 3.8 0-.3-.55-2.1-.9-2.2-.85-4.55-.05-2.65.5-4.6.3-2.7 2.45-3.6.2-.25.65-.35 1.6.3 3.55.65.05.45.45 1.1.7 2.1.6 4.3-.05 2.1-.55 4.15-.4 1.6-2.1 5.05.05-.05.05.05 0-.05.9.05.7-.1 1.95-.7 1.2-.85 2.9-3 1.45-2.25 2.65-4.9.95-2.9 1.3-5.7 3.3-.25 7.15-.8.95 2.15 1.95 4.65 1.55 4.3 1.6 9.3-.05 1-.1 1.95-1.45 1-1.45 1.4 0 .95.4 1.8h.2q-3.2 1.85-7.5 3.65-8.55 3.55-15.55 3.55-5.35 0-10.2-1.4-2.7-.85-5.3-2.05-1.9-.95-3.2-1.75-.2-.45-.25-.9-1.5-4.25-2.05-8.35-.45-4.35.05-8.1-.2-.8.1-1.3.75-5.55 5.15-7.2 1-.8 2.15-1.05 2.55 1.15 5.6 2.6-.1 1.1 0 2.3m27.05 32.45q-.05292969.05605469-.1.15v-.05z" fill="url(#Gradient_3)"/>
                <path d="m457.6 204q.25 5.1.55 10.2 3.6-2.6 7.2-5.2-.3-4.8-.55-9.6-3.65 2.35-7.2 4.6z" fill="url(#Gradient_4)"/>
            </g>
        </g>
    </g>
    <g transform="translate(-1.15 -117)">
        <g>
            <g id="S_mbolo_3_0_Layer1_0_FILL">
                <path d="m246.15-113.8q-9.6 4.85-8.15 14.7 4.3 29.5 4.3 59.25 0 29.7.9 59.4.75 30.1-1.7 59.4-2.75 32 5.65 57.3 1-8.5.65-17-1.3-29.6-1.3-58.55-.1-28.85.55-58.45.65-29.25 1.2-58.45.45-30-2.1-57.6z" fill="#ccc"/>
            </g>
        </g>
        <g>
            <g id="S_mbolo_3_0_Layer0_0_FILL">
                <path d="m253.3 405.05q-.4.5-.8 1.05-1.35 4.1-1.55 8.75-.3 8.15-.55 16.25 0 .1 0 .2.95 3.3 1.65 6.35-.05 1.15 0 2.35.1 4.5.5 8.9.45 4.75 1.75 8.9.1-1.1-.15-2.6-.85-4.25-1.25-8.6-.35-4-.35-8 .7-5.55 1.8-12.5.5-3.35 1.05-6.35-.1 4.5.35 8.95.5 5 1.45 9.9.95 4.85 1.25 9.8.7-1.05.4-2.8-.7-4.95-1.4-9.85-.8-4.85-1.25-9.75-.45-4.65-.25-9.3 2.5-13.4 5.45-20.7-2.9 3.25-8.1 9.05m-2.6 5.85q.3-1.85.75-3.6-3.3 4.1-6.45 9.55.9 2.05 1.8 4.3 1.85 4.6 3.2 8.85.15-4.75.05-9.45-.05-4.9.65-9.65z" fill="#999"/>
                <path d="m228.85 395.4q-2.3-1.3-3.6-2.45 6 6.2 10.8 18.35 1.9 4.9 3.05 8.9.15 1.95.15 4 0 6 0 12 .05 6 .5 11.95.5 6.3 2.75 11.6-.2-1.55-.7-3.4-1.65-5.65-1.85-11.5-.25-5.95-.2-11.85 0-5.35-.05-10.6.25.95.4 1.85-.05 1.75 0 3.55.05 6.7 4.95 11 .7.6 1.35.1.15-.1.35-.2-.55-.05-1-.3-3.45-2-4.65-6-.9-3.1-.7-6.4 0-.05 0-.1 1-2.85 3.95-7.95.35-.55.65-1.1 3.15-5.45 6.45-9.55-.45 1.75-.75 3.6-.7 4.75-.65 9.65.1 4.7-.05 9.45v.05q-.15 4.7-2.95 8.35 3.1-2.75 3.35-7.1 0-.1 0-.2.25-8.1.55-16.25.2-4.65 1.55-8.75.4-.55.8-1.05 5.2-5.8 8.1-9.05.4-1 .8-1.8-.35.2-.6.45.75-1.1 1.4-2.15.4-.75.8-1.45.75-1.6 1.35-3.2.65-1.7 1.05-3.35-1.5 2.65-3.05 3.85-1.4 1.05-1.4 1.45 0 1 .35 1.85h.2q-2.8 1.85-6.55 3.65-7.4 3.5-13.45 3.5-4.65 0-8.85-1.4-2.35-.8-4.6-2m-7.15-17.6q-.5 3.5.05 7.05.5 3.6 1.95 6.65.3.25.6.6-.7-.95-.8-1.65 0-.05 0-.1 0-.05.7-1.25.7-1.2.7-2.1 0-1.25-.6-1.5-.9-.15-1.8-.7.3-2.35.35-3.95.05-2.3-1.15-3.05z" fill="#ccc"/>
                <path d="m426.65 15.05q.5 4.8-4.95 20.65-5.45 15.85-15.6 35.35-10.15 19.5-24.45 36.05-14.35 16.5-27.1 23.65-1.05-2.1-2.55-4.05-.5 1.3.2 3.7.15.7.4 1.45-.45.2-.95.45-1.5-2.55-3.4-4.85-.65 2.3.9 5.5.1.25.25.45-1.6.75-3.3 1.5-.4-1-.75-1.9-1-2.3-2.35-4.25-.9-1.75-1.95-3.3-3.75-5.7-7.6-11.35-.5 1.6 1.25 4.05 1.65 2.4 3.1 4.85-1.15-.9-2.35-1.7-1.4-3.05-2.8-6.1-3.05-6.7-7.05-12.85-3.9-6.05-9.25-10.5 0 1.8 2 5 1.7 2.8 3.35 5.65.2 1.65 1.55 4.2 2.5 4.6 4.8 9.4-3.55-6-8.9-10.35-.2 1.8 2.2 5.05 3.7 5 7.15 10.3-2.95-3-6-5.7-1.25-2.4-2.65-4.75-3.4-5.7-6.95-11.2-3.8-5.8-9.6-9.25-.5.8.4 2.2-.35.3-.4.7-4.8-5.7-10.35-10.65-5.7-5.1-12.4-8.35 1.45 1.6 5.8 5.3 7.15 6.05 13.2 13.3 4.45 5.35 7.95 11.3-2-1.3-4-2.5-1.45-2.25-2.9-4.5-2.35-3.6-5.15-6.9-2.25-3.5-5.25-6.6-3.8-3.95-9.15-5.7-.5.4.05 1.2-.35 1.15 2.25 3.25.1.1.25.15-.15.6.35 1.55.85 1.55 1.7 3.15-.5-.4-.85-.8-3.8-3.65-7.75-7.2-.75.4-.95.95-.6.55.4 1.9-2.25-1.5-4.6-2.85-.05.1-.05.2-3.05-2.9-6.6-5-2.3-1.35-4.8-2.15-.65-.75-1.3-1.45-2.9-3.3-7-4.75-.7.7 1.85 2.9 1.3 1.15 2.5 2.4-.6-.05-1.2-.1-3.15-3.9-7.55-6.5-3.05.65 0 2.75 5.5 3.9 9.35 9.45.45.7 1 1.45-4.35-2.65-7.25-6.6-2.1 1.65 0 3.75-.7-.55-1.45-1-.8-.6-1.6-1.2-1.55-1.6-3.4-2.8 1.05-1.7 1.6-3.4-2.4.3-4.55 1.75-.3-.15-.6-.25-1.4.35-.85 1.35h-.05q-.95.8-1.85 1.65-.55-.45-1.1-.8-.1 0-.15 0 .4-1.3.3-2.55-4.45 2.4-8.8 5.9-2.7 2.15-5.25 4.5 2.15-3.1 1.7-5.55-4.5 2.2-8.65 6.15-7.65 7.45-15.1 15.2-1.3 1.4-2.55 2.8 0-.05.05-.1 7.1-9.6 11.35-15.45-5.9.6-9.55 5.7-1.8 2.4-3.45 4.8-1.2.9-2.3 2.1.55-1 1.1-1.9 4.65-7.45 8.8-14-3.4.65-5.4 3.75-5.45 8.45-9.8 17.4-1.3 2.65-2.5 5.35-.45.65-.95 1.35 1.25-2.7 2.3-5.35-.95.55-1.8 1.25 1.1-2.15 2.15-4.3-2.7.9-4.4 3.6-3.1 5.05-6 10.25.1-.35.15-.6-3.25.3-4.5 3.4-1.6 3.9-3.2 7.85-1.55-.85-3.1-1.7.75-2.95 1.5-5.75-1.8 1.15-2.8 3.7-.2.5-.35 1-5.9-3.6-11.3-8-16.4-13.25-26.75-31.3-10.4-18.15-13.3-38.75-3.1-21.4-5.5-38.75.1-1.5.25-2.75h-.75q-.1.75-.2 1.55-2.2 16.95-1.05 35.45 1.15 18.45 7 33.45 9.2 23.5 27.95 41.1 10.05 9.45 20.6 15.75-.55.85-.95 1.8-3.9 8.85-6.75 17.9.25-2.85.35-5.65-2.05.5-2.65 3.5-2 9.65-4.05 19.4-.35 1.9-.75 3.75-.7-.5-1.45-.95.45-6.45 1.35-12.5-2.9 1.55-3.7 5.1-.55 2.85-.95 5.65-.2-.1-.45-.15-19.05-7.6-37.7-17.95-18.8-10.35-34.8-24.7-16.05-14.3-30.7-29.6-14.55-15.2-27.75-43.35 1 3.3 3.8 13.35 4.6 16.95 15.4 31.2 10.7 14.2 23.8 25.95 17.9 16.2 38.15 29.45 25.25 16.65 49.5 23.5-.2 3.05-.15 6.1.15 10 .1 20.1.05.65.05 1.3-.1.6-.2 1.2-.1 1.1-.2 2.1-.1-1.6-.25-3.15-.65-8.05-.8-16.15-.65.7-.9 2-.55-3.95-1.1-7.85-1.9 1.75-1.75 5.55.15 5.3.65 10.55-1.5 1.5-1.9 4.7-1 9.6 1.2 18.8.25.9.45 1.8-1 .2-2 .35-.45-1.75-.85-3.55-1.05 1.05-.5 3.85-14.85 2.9-29.75 7.35-13.6 4.05-26.5 9.8-20.05 8.9-38.25 18.95-18.25 9.95-39 28.45-.45.35-.8.7 6.75-1.3 13.85-6.4 15.85-11.25 34.85-20.4 19-9.25 39.8-16.85 20.8-7.7 31-9.25 10.2-1.55 17-3.2.8 3 1.6 5.9 2.45 8.85 6.85 16.75.1.2.25.4.25 1.1.65 2.25-3.4-6.45-7.05-12.6-1.7 1.2-.1 4.45 3 6.45 6.25 12.9.5.95 1 1.9l-.05.05q-.4-.7-.75-1.45-.55 1.45.45 4.45.2.5.35 1.05-1.5-1.9-2.85-3.9-1.65-2.3-2.85-4.9-1.1.5-.1 2.45 1.3 2.5 3.05 4.75 1.9 2.55 3.6 5.1 1.6 2.5 3.25 5 .95 1.65 2.3 2.9 2.1 3.05 4.4 6.05 1.55 2 3.1 4-.15.1-.2.2-.95-.9-1.85-1.75-3.75-4.2-6.95-8.85-3.25-4.55-6-9.5-.9 1.15.4 3.1 2.15 3.4 4.2 6.9.9 1.55 1.9 3.15.15 1.75 2.35 4.6 1.65 2.15 3.6 4.05-20.9 15.8-35.95 36.75-12.9 17.95-21.25 38.25-8.3 20.3-11.6 40.3-3.3 19.95-3.5 25.05 13.35-45.65 25.55-68.95 12.4-23.9 26.55-41.55 9.7-12.05 21.9-21.4 3.9 3.1 8.55 5.45 4.5 2.2 8.95 4.5 2.9 1.55 5.7 3.1-4.45-.6-8.9-1.25-3-.45-5.7-2.2-.45-.15-.4.05 1.05 2.95 4.35 4 3 .85 6.1 1.35 1.85.35 3.65.6 3.45.55 6.85.95.7.35 1.35.8.45.25.85.55 2.9 1.85 5.9 3.45-13.75 14.25-1.55 27.7.7.7 1.3 1.4 1.95 3 5 5.45 6.35 5.15 13.55 8.55-.6 1.4-1 2.95-1.25 4.7-.2 9.6 1.15 5.4 4 10.25 2.95 5.05 6.95 7.75-.3-.6-.6-1.2-1.45-3.05-1.95-6.65-.55-3.55-.05-7.05.05-.6.1-1.2.9-5.1 5.15-8 1.1-.75 2.15-1.5 2.7.55 5.6.95-.1 1.05 0 2.1.2 2.05.95 4.4.75 2.3 3.5 5.15 2.7 2.75 2.95 2.7.2-.05-.6-1.65-.85-1.65-.85-3.8 0-2.15.5-4.1.5-2.45 2.45-3.65.3-.15.65-.4 1.75 0 3.55 0 .2.45.4.95.8 1.8.65 3.75-.1 1.85-.5 3.6-.35 1.6-2.15 4.7.05 0 .1.05.15 0 .9-.05.7-.1 1.95-.95 1.2-.9 2.85-2.9 1.65-2 2.65-4.55 1-2.45 1.3-5.05 3.5-.45 7.1-1.05 1.1 1.95 2 4.1 1.6 3.85 1.6 8.1.05 2.5-.45 5-.4 1.65-1.05 3.35-.6 1.6-1.35 3.2-.4.7-.8 1.45-.65 1.05-1.4 2.15.25-.25.6-.45.65-.6 1.7-1.35.25-.2.5-.4 3.7-2.95 7.2-7 .15-.15.3-.3 3.8-4.55 5.95-9.85 2.2-5.55 1.55-11.45-.05-.55-.15-1.05 4.4-1.7 8.7-3.8 7.1-3.5 10-9.95 6.9-15 1.45-27.75 1.4-.2 2.8-.45 1.85-.25 3.5-1.15 1.55-.8 2.75-1.85-.1 0-.15 0-.3 0-.6.05-.25.05-.55.1-.55.15-1.1.3-.55.1-1.1.2-3.2.55-6.4 1-.25-.5-.45-.95 1.9-.3 3.8-.9.8-.1 1.55-.2 3.25-.35 6.5-1.1 3.7-.85 7.4-1.7 5.55-1.25 10.6-3.9 5.35-2.75 6.45-7.3-.55 0-1 .25-.7.3-1.4.75-4.45 3.1-9.3 5.2-4.25 1.85-8.75 2.7-1.45.25-2.8.5 1.6-1 3.35-2 .1 0 .15-.05 5.2-1.3 10.25-3.4 5.05-2.15 9.85-4.85 5-2.95 8.45-6.9-.6-.15-1.05.1-3.2 1.8-6.25 3.7-4.95 3.1-10.2 5.55-2.25 1.05-4.45 2 4.4-2.75 8.55-5.8.55-.4 1.05-.8 1.15-.55 2.35-1.05 4.7-2.05 6.45-5.5.7-.55 1.35-1.1 2.5-2 4.35-4.3 27.25 13.6 48.85 39.15 21.55 25.5 33.45 46.35 11.9 20.8 22.65 37.7 1.05 1.55 1.85 3-2.25-4.85-7.05-18.9-4.75-14.1-16.2-36-11.4-21.95-29.2-40.85-17.8-18.85-39.2-32.4-5.45-3.4-11.15-5.95-.15-.3-.25-.55 0-.2-.05-.45 7.1-6.65 8.8-14.55-.65-.2-.9.1-3.05 3.95-6.8 7.5-2.65 2.55-5.25 5.2 1.35-1.95 2.6-3.95 6.25-6.35 11.5-13.45 6.25-8.45 5.7-16.9-.85-.15-1.35 0 1-3.05 1.05-6.05.6-1.2 1.15-2.4.9-1.85 1.75-3.7 26.95 1.35 53 9.95 19.15 6.35 38.55 12.3 22.75 6.95 43.4 18.25 13.8 7.55 28.1 14.75-3-2.5-7.5-6.4-19.5-16.75-40.1-25.3-20.6-8.5-39.8-14.6-19.8-6.35-39.85-11.65-16.2-4.25-32.85-4.45.9-2.5 1.8-5 3.1-8.75-.25-16.25-.6.85-.85 2.4.05-.35.05-.65.15-2.15.1-4.25.1-.45.25-.85 2.25-8.95 1.15-17.3.2-.1.4-.15 18.25-5.3 35.8-12.05 18.85-7.25 37.25-16.75 18.4-9.5 39-30.5 20.55-21.05 10.6-11.5-7.75 5.9-16.5 12.5-13.9 10.55-29.25 19.05-19.25 10.7-39.65 18.8-20.55 8.15-41.3 12.1-.45-5.3-2.55-9.85-.3-9.3-2.85-18-.6 2.05-.25 5.45.5 4.6.75 9.25-.85.15-1.35.55-.05-.15-.1-.3-.8-2-1.8-3.75-.5-2.1-1.1-4.25-.45-1.65-.9-3.3-.1-.25-.15-.55-.75-4.55-1.55-9.15 2.25-.7 10.15-7.3 13.45-11.3 30.1-34.15 16.55-22.9 24.45-46 7.85-23.15 4.4-42.4 0 .15.55 5m-83.65 119.65q.25.6.45 1.25-.45.2-.9.35-1.9-3.95-3.75-7.95 2.3 3 4.2 6.35m21 39.95q-.15 0-.3.05.05-.1.05-.25.25-1.75.4-3.45-.05 1.8-.15 3.65m4.05 19.3q.1-.55.2-1.1 0 .35.1.7-.55 3.95-1.3 7.95-.05-.1-.05-.15.65-3.7 1.05-7.4m.75-7.1q.15-1.85.2-3.7.6-.15 1.25-.3-.7 1.25-.9 2.95-.1 1.05-.2 2.1-.2-.55-.35-1.05m.05 22.05q-.05.5-.15 1-.85 7.3-3.1 14.3-.15 0-.35 0 .8-3.5 1.25-7 1.2-4.2 2.35-8.3m-11 46.45q-1.7 2.8-3.5 5.5 1.4-3.1 2.55-6.3 2.15-2.95 4-6 .15-.3.25-.55-1.3 3.75-3.3 7.35m-23 37.15q.5-.5 1.1-1 2.65-2.4 5.35-4.8.1.05.25.1-3.05 2.75-6.3 5.35-.2.2-.4.35m-77.75-219q.5.2 1.1.5.5.2.95.4 1.05 1.35 2 2.9 1.15 1.9 2.4 3.85-1.05-.55-2.15-1.1-2-3.35-4.3-6.55m-.85 6.15q-.25-.25-.5-.45 2.45 1.8 5.05 3.5.25.35.5.85-.15-.05-.25-.1-2.5-1.8-4.8-3.8m-8-1.95q.35.25.55.6.55.5 1 1.05-1.45-1.05-2.9-1.95-2.65-1.6-5.2-3.35-.1-.05-.15-.1.35-.4.75-.8 2.85 2.4 5.95 4.55m22.15 7.55q-1.2-.8-2.4-1.5-1.7-2.95-3.45-5.8 2.95 2.75 5.65 5.65.85.85 1.7 1.7.5.8 1 1.6-1.2-.85-2.5-1.65m11 5.6q-1.7-2.2-3.6-4.15-.75-1.2-1.5-2.25 4.1 3.5 8 7.25.2.2.4.45-1.6-.7-3.3-1.3m10.85 3.6q-1.25-3.65-3.05-7 2.2 2.2 4.05 4.55.3.45.6 1-.2.25-.05.8.3 1.4.8 2.8-.5-.3-1-.5-.7-.85-1.35-1.65m-56.25-21.8q.2.2.4.35-.95.85-1.9 1.75.95-1.1 1.5-2.1m-21.85 14.4q-1.05 1.2-2 2.45.25-.6.45-1.25.75-.65 1.55-1.2m26.45-10.1q1.2 1.1 2.2 2.35 0 .14765625.1.35-.053125-.1015625-.15-.15-1.5-1.2-3-2.15.25-.4.5-.75.25.15.35.35m-2.2 2.1q.6.4 1.25.8-.95-.05-1.85-.1.25-.4.6-.7m-10.7 1.5q-1 .85-2.05 1.75 0-.25 0-.45 0-.05 0-.1.8-.6 1.6-1.1.75-.5 1.5-.95-.55.4-1.05.85m-62.4 48.25q1.05.55 2.05 1.1-1 2.35-2.05 4.75-1.45 3.55-2.85 7.1.95-6.05 2.55-11.9.2-.55.3-1.05m146.45-23.25q1 1.4 2 2.8-.45-.3-.9-.65-.6-1.1-1.1-2.15m-150 30.7q-.6 4.55-1.25 9.15-1.05 2.05-2.15 4.1-1 1.95-1.7 3.95 1.05-4.1 2.1-8.25 1.3-4.55 3-8.95m-7 26.6q-.15.55-.3 1.15-.45.8-.8 1.65.2-.8.35-1.55.5-2 1-3.95-.25 1.3-.25 2.7m-7.95 11.3q-.4 2.1-.8 4.2.05-2.2.15-4.4.3.1.65.2m-8.05 27.35q1.05 7.25 2.5 14.5-.75-2.2-1.6-4.25-1.15-7.4-1.5-14.95.25 2.3.6 4.7m-.55 27.95q.9-.25 1.8-.45 1.05 3.8 2.15 7.55.3 3 .8 5.9-1.7-3.85-3.1-7.9-.9-2.5-1.65-5.1m9.45 15.35q.1.1.4.25.2.45.3.9.3 1.05.5 2.2-.5-1.2-1-2.35-.15-.5-.2-1m.55 21.1.1.05q2.4 4.1 5.15 8.1.75 1.5 1.65 2.95-.7-.95-1.3-1.95-2.95-4.5-5.6-9.15m15.8 29.15.05.05q5 4.7 9.85 6.85.45.25.95.6.25.2.5.5-.3-.1-.65-.2l-.45.1q1.4 1.5 3.6 2.85.6.35 1.15.7.35.35.75.7-1.35-.8-2.8-1.55-5.5-3.1-11-6.25-2.55-1.5-5.05-3.1 1.2-.9 2.5-1.75.3.25.6.5m8.2-26.35q.35.7.85 1.35 0 .05 0 .1-.85-1.3-.85-1.45m67.45 101.8q-.05.103125-.05.2-.05.1-.1.2v-.05q.05-.1.05-.2.0484375-.0484375.1-.15m94.55-223.05q0-.4.35-.5.15-.1.25-.1v-7.8q2.05 4.5 7.4 15.95 9.25 21.2 12.15 35.8 1.9-.95 3.7-4.95 1.85-4.9 2.9-6.9v2.05q0 11-3.8 30.9-4.75 24.45-11 31l9.4-9.35v.6q-.4.7-5.7 12.75-6.35 13.3-12.1 20.55-6.15 7.55-16.65 15.4-9.5 6.55-10.1 7.15 2.75.3 10.45-2.85 4-1.7 8.05-3.7v.6q-17.9 11.65-31.05 18.6-4.2 1.3-8.35 2.25-11.35 2.5-24.8 2.5-20.75 0-28.5-1.4-18.55-3.4-24-4.75-1.2-.35-2.35-.65-4.75-3.3-10.45-7.65-18.54707031-14.20625-24.2-20.45 2.4484375 2.578125 7.05 5 1.15.6 4.25 2.1-12.55-8.7-23.6-29.7-5.45-10.35-8.6-20.35-3-9.55-2.4-13.85.15.15 3.4 4.5 2.9 3.85 4.05 4.9-1.6-5.85-2.9-12.25-2.85-13.5-2.85-23.25 0-7.85.8-16.6.65-7.45 1-8.35v-.25q.1 2.85 1.6 9.55 1.5 7 2.55 9.2 0-.95-.3-2.85-.3-1.9-.3-2.55 0-11.45 11.8-27.15 4.65-6.2 9.5-10.65.15-.2.35-.35-.25.85-.4 1.75-1.05 4.4-1.05 4.9v.6q2.8-4.7 24.95-20.5 17.45-12.45 24.45-16.6-.95 1.6-3.15 5.1-2.9 4.45-3.85 6.1 2.45-1.2 10.85-5.05 9.75-5 9.2-7.65.2 0 .6-.25.4-.3 1.1-.3.6 2.95.6 10.6.85-.6 3-4.45 2.35-4.1 2.4-5.65 3.1 1.6 8.55 3.55 8.45 3.05 11.25 3.05 1 0 1.45-.4.2-.2.7-.8-.2-.2-1.85-3.55-1.75-3.55-1.75-4.2 1.9 3.55 15.6 9.1 10.35 4.15 14.7 5.15 0-.55.35-1.05.25-.55.25-1.35 0-.45-1.15-2.85-1.15-2.45-1.2-3.65 4.3 3.7 21 20.5 15.1 15.1 16.4 15.75m-99.3 165.15h1.2l23.3-2.85q1.65 0 2.15.45-.7.55-1.95 1.05-1.45.65-1.85.85 6.65-.75 13.05 1.7 2.6.95 4.85 2.35 3.95 9.35 10.9 4.35-.4 5.75-11.85 15.1 1.95-.25 6.35-2.55 4.5-2.35 6.1-4.05-.45 4.15-3.75 8.1-3.3 3.95-8.4 5.65-5.15 1.7-14.85 3.5-9.65 1.85-19.75-.15-10.1-2-15.4-3.95-5.3-1.9-12.05-10.7v-.6q.55.2 4.55 3 4.3 2.9 6.7 1.6-3.7-.25-5.8-4.05-2.5-4.7-2.5-9.2 0-1.15.35-3.3.4-2.15.85-3.5 0 1 1.85 4.6.95 1.85 2.3 4.3 0-2.3.5-4.9 2.55-3.7 6.55-6.05 4.65-2.2 6.15-3.15h1.9q-.9 2.25-1.45 2.4m-40.85-29.75h-.05q.04414063.22109375.05.45zm-33.9-57.55q-.1-.1-.2-.2.1.35.2.8zm61.75-104q.1-.15.25-.35-.6.25-.85.35z"/>
                <path d="m236.1 312.6h-1.2q.55-.15 1.45-2.4h-1.9q-1.5.95-6.15 3.15-4 2.35-6.55 6.05-.5 2.6-.5 4.9-1.35-2.45-2.3-4.3-1.85-3.6-1.85-4.6-.45 1.35-.85 3.5-.35 2.15-.35 3.3 0 4.5 2.5 9.2 2.1 3.8 5.8 4.05-2.4 1.3-6.7-1.6-4-2.8-4.55-3v.6q6.75 8.8 12.05 10.7 5.3 1.95 15.4 3.95 10.1 2 19.75.15 9.7-1.8 14.85-3.5 5.1-1.7 8.4-5.65 3.3-3.95 3.75-8.1-1.6 1.7-6.1 4.05-4.4 2.3-6.35 2.55 11.45-9.35 11.85-15.1-6.95 5-10.9-4.35-2.25-1.4-4.85-2.35-6.4-2.45-13.05-1.7.4-.2 1.85-.85 1.25-.5 1.95-1.05-.5-.45-2.15-.45zm98.45-165.65q-.35.1-.35.5-1.3-.65-16.4-15.75-16.7-16.8-21-20.5.05 1.2 1.2 3.65 1.15 2.4 1.15 2.85 0 .8-.25 1.35-.35.5-.35 1.05-4.35-1-14.7-5.15-13.7-5.55-15.6-9.1 0 .65 1.75 4.2 1.65 3.35 1.85 3.55-.5.6-.7.8-.45.4-1.45.4-2.8 0-11.25-3.05-5.45-1.95-8.55-3.55-.05 1.55-2.4 5.65-2.15 3.85-3 4.45 0-7.65-.6-10.6-.7 0-1.1.3-.4.25-.6.25.55 2.65-9.2 7.65-8.4 3.85-10.85 5.05-.15.2-.25.35h-.6q.25-.1.85-.35.95-1.65 3.85-6.1 2.2-3.5 3.15-5.1-7 4.15-24.45 16.6-22.15 15.8-24.95 20.5v-.6q0-.5 1.05-4.9.15-.9.4-1.75-.2.15-.35.35-4.85 4.45-9.5 10.65-11.8 15.7-11.8 27.15 0 .65.3 2.55.3 1.9.3 2.85-1.05-2.2-2.55-9.2-1.5-6.7-1.6-9.55v.25q-.35.9-1 8.35-.8 8.75-.8 16.6 0 9.75 2.85 23.25 1.3 6.4 2.9 12.25.1.1.2.2v.6q-.1-.45-.2-.8-1.15-1.05-4.05-4.9-3.25-4.35-3.4-4.5-.6 4.3 2.4 13.85 3.15 10 8.6 20.35 11.05 21 23.6 29.7-3.1-1.5-4.25-2.1-4.6015625-2.421875-7.05-5 5.65292969 6.24375 24.2 20.45 5.7 4.35 10.45 7.65 1.15.3 2.35.65 5.45 1.35 24 4.75 7.75 1.4 28.5 1.4 13.45 0 24.8-2.5 4.15-.95 8.35-2.25 13.15-6.95 31.05-18.6v-.6q-4.05 2-8.05 3.7-7.7 3.15-10.45 2.85.6-.6 10.1-7.15 10.5-7.85 16.65-15.4 5.75-7.25 12.1-20.55 5.3-12.05 5.7-12.75v-.6l-9.4 9.35q6.25-6.55 11-31 3.8-19.9 3.8-30.9v-2.05q-1.05 2-2.9 6.9-1.8 4-3.7 4.95-2.9-14.6-12.15-35.8-5.35-11.45-7.4-15.95v7.8q-.1 0-.25.1m-140.55 135.9h.05v.45q-.00585937-.22890625-.05-.45z" fill="#3a112e"/>
            </g>
        </g>
        <g transform="matrix(.25941467 .09301758 -.11647034 .32481384 209.6 355.65)">
            <g>
                <use xlink:href="#S_mbolo_1_0_Layer1_0_FILL"/>
            </g>
            <g>
                <use xlink:href="#S_mbolo_1_0_Layer0_0_FILL"/>
            </g>
        </g>
        <g transform="matrix(.26249695 -.08398438 .10516357 .3286438 262.5 363.25)">
            <g>
                <use xlink:href="#S_mbolo_1_0_Layer1_0_FILL"/>
            </g>
            <g>
                <use xlink:href="#S_mbolo_1_0_Layer0_0_FILL"/>
            </g>
        </g>
        <g transform="matrix(.27445984 -.02497864 .03129578 .34362793 252.95 353.45)">
            <g>
                <use xlink:href="#S_mbolo_1_0_Layer1_0_FILL"/>
            </g>
            <g>
                <use xlink:href="#S_mbolo_1_0_Layer0_0_FILL"/>
            </g>
        </g>
        <g transform="matrix(.26771545 .06538391 -.08187866 .33518982 218.35 349.6)">
            <g>
                <use xlink:href="#S_mbolo_1_0_Layer1_0_FILL"/>
            </g>
            <g>
                <use xlink:href="#S_mbolo_1_0_Layer0_0_FILL"/>
            </g>
        </g>
        <g transform="matrix(.27558899 -.00224304 .00280762 .345047 235.45 354.85)">
            <g>
                <use xlink:href="#S_mbolo_1_0_Layer1_0_FILL"/>
            </g>
            <g>
                <use xlink:href="#S_mbolo_1_0_Layer0_0_FILL"/>
            </g>
        </g>
        <g transform="matrix(.27394104 .02998352 -.03753662 .34301758 226.25 362.1)">
            <g>
                <use xlink:href="#S_mbolo_1_0_Layer1_0_FILL"/>
            </g>
            <g>
                <use xlink:href="#S_mbolo_1_0_Layer0_0_FILL"/>
            </g>
        </g>
        <g transform="matrix(.27410889 -.02857971 .03579712 .34320068 244.85 364.1)">
            <g>
                <use xlink:href="#S_mbolo_1_0_Layer1_0_FILL"/>
            </g>
            <g>
                <use xlink:href="#S_mbolo_1_0_Layer0_0_FILL"/>
            </g>
        </g>
    </g>
    <g transform="matrix(1.02494812 0 0 .92459106 85.55 113.9)">
        <g>
            <g id="texto_0_Layer0_0_FILL">
                <path d="m118.3 4.25q0 .1 0 .3 0 .25 0 .35 0 .85-.7.85-.5 0-1.1-1.3-.6-1.3-1.2-1.3-.2 0-.5.05-.25.15-.4.15-.15 0-.45-.15-.3-.05-.5-.05-.45 0-4.6.55-.1.05-.65.35-.55.3-.8.3-.5 0-.6-.7-.35-.35-.65-.35-.9 0-1.7 1.85-.65 1.5-.7 2.5l.2.4.55.15q.5 0 .7-.4l.5-.25.55.15q.25.3.65.25l.7-.15q.1 0 .4.15.3.1.5.1.45 0 1.9-1.85 1.4-1.85 1.6-1.9.55-.05.95-.05 1.45 0 1.45 4.85v1.3l-.2.35q-2.65.2-5.4.35-4.05.3-3.95 1.2-1.1 3.65-1.1 6.05 0 .65.45.8.5.1.55.35l.5 2.3q.05.35.55.45l.55-.1q.1-.05.45-.05.25 0 .5.3.25.25.6.25.4 0 .75-.25.4-.3 1.4-.2.45-.1 1.6-.5l1.15-.5q.55 0 .7.65.15.65.75.65.25 0 .75-.25.05-.05.8-1.7.6-1.25 1-1.25.6 0 .6.7l.2.35.55.2q1.03164063-.19648437.85-.2.053125 0 .1 0 .05.05.1.05l.3.45h-.05q.15.4-.3.6l-.05.05q0 .5.8.6 1.1 0 1.15-1.8 0-1.1-.65-7.65-.65-6.55-.65-8.1 0-.5.1-.65 0-.55-.75-.55-.8 0-.8.9m-6.45 7.75q.15 0 .35.2.2.15.3.15.6 1.1 1.6 1.55l.3.4q-.3 4.15-.85 4.8-.45.5-2.6 1.65l-.55.1-.45-.3q-1.15-2.85-1.15-5.3 0-.55.1-1.3.2-.95.2-1.3l.05-.15q0-.15 0-.25l.5-.15q1.45-.1 2.2-.1m46.55-1.1q0-.7-1.55-3.85-1.5-3.1-1.5-3.45-.05-.55-.95-.7-.25 0-1.75-.05-1.75 0-4.9.5-3.95.6-3.45 1.4v.4q-2.55 4.2-2.55 9.45 0 .6.1 1.7.15 1.15.15 1.75v.15q.15.25.65.75 1.15 3.35 4.05 4.6l.65-.05q.4-.15.9-.25h.1l.45.3q.2.25 1.35.25.5 0 2.35-.5 1.6-.35 1.75-.25l.35-.1h1.2q1.15-1.55 1.95-5.95.6-3.5.65-6.1m-6.3-3.25q.65 2.65.65 4.45 0 .55-.25 4.2-.25 3.7-.3 3.7.2.4.2.8l-.45.3q-.4.05-2.4.15l-.45-.15q-2.15-3.1-2.15-9.75 0-1.2.3-3 .55-2.75.55-2.9l-.05-.05q-.4-.45-.4-.5 0-.85 2.4-.75 1.4 0 2.35 3.5m31.95-4.5-.2-.4-.45-.2-.55.1-.2.4q-.55 3-.95 7.85-.5 6.35-.65 7.85-.05.45-.6.45-.8 0-2.7-5.4-1.9-5.45-2.8-5.45-.45-.1-.95-.4l-.6.05-.25.25q-.55 1.8-.95 3.5-.7 2.2-1.4 3.5-.15.3-.55.3-.45 0-.65-.35-1.35-4.3-3.25-12.6 0-.15-.05-.25-.1-.4-.7-.4-.6 0-.75.5.15.15.15.55l-.2.4h-.1l.5 1.15q0 .55-.75.55-.35 0-.7-.8l-.35-.25-1.15-.1-.35-.3q0-.4-.45-1.15-.4.05-1.2.25.45 3.35 1.95 8.2 1.3 4 2.65 8.05.4 1.4.8 2.75.5 1.65 1.25 1.65.25 0 .55-.2.3-.15.55-.15.1 0 .75.15l.55-.15.15-.45-.05-.35.25-.45.45-.1.5.05.3-.05q.2-.25.2-.5 0-.25-.2-.75-.15-.55-.15-.75 0-.5.6-1.75.65-1.35 1.05-1.35.4 0 .65.3.2.3 1.15 2.5.9 2.1.9 2.2l.45.3h.4q.35 0 .6-.2.3-.25.55-.3.45.05.7.4.25.4.7.45.35-.05 1-.05l.35.25q.3.7.9.7.35 0 .95-.75.65-.7.65-1.05.6-11.8 1.7-18.2m20 11.05v-.15l-.8-.6q0-.05.05-.3.1-.25.05-.3 0-8.55-3.45-10.05-.05 0-.2-.05-.1 0-.15 0-.45 0-.6.35l-.5.25-1.45.15-.5-.05q-.25-.3-.35-.65l-.4-.25h-.5q-.35.1-.8.55-.25.2-1 .2-.45 0-.95.6-.45.55-.95.55-.55 0-.55-.7 0-.45-.8-.45-.35 0-.65.35-3.25 4-3.25 10.25l.25.4 1.2.25.2.3q.3 6.05 3.7 8.2.5.25.75.25.6 0 .75-.35l.45-.3.55.15q.95.5 1.65.5.55 0 1.3-.3l.55-.05q.45.3.6.55l.5.1q.9-.35 3.15-3.7l.05-.4-.4-.3q-.2-.05-.35-.05-.4 0-1.2 1.15-.5.7-1 1.45l-.5.25-.55-.1q-.1-.1-.55-.2-.1 0-.45.1 0 .55-.55.55-1.2 0-2.65-2-.3-.45-1.7-2.8l.05-.4.45-.25h.1l.5-.3.05-.35v-.1l.1-.45.45-.2h3.55q6.75-.1 6.75-1.3m-8.6-9.15q.4-.15.9-.25l.6.05.3.35q0 .8.15 2.6.15 1.7.15 2.7 0 .45-.2 1.35-.2.9-.2 1.25 0 .3.25.75l-.1.45-.55.2h-.05q-.55 0-1.35.05-.8 0-1.1 0-1.65 0-1.65-1.7 0-3.35 2.4-7.55zm27.8 8.4q0-.05.1-.3.1-.25.05-.3 0-8.55-3.45-10.05-.05 0-.2-.05-.1 0-.15 0-.45 0-.65.35l-.45.25-1.45.15-.5-.05q-.25-.3-.35-.65l-.4-.25h-.5q-.4.1-.8.55-.25.2-1.05.2-.4 0-.9.6-.45.55-.95.55-.55 0-.55-.7 0-.45-.8-.45-.35 0-.65.35-3.3 4-3.3 10.25l.3.4 1.15.25.25.3q.3 6.05 3.7 8.2.5.25.75.25.6 0 .75-.35l.45-.3.55.15q.95.5 1.65.5.5 0 1.3-.3l.55-.05q.4.3.6.55l.5.1q.9-.35 3.15-3.7l.05-.4-.45-.3q-.15-.05-.3-.05-.4 0-1.2 1.15-.5.7-1 1.45l-.5.25-.55-.1q-.1-.1-.55-.2-.1 0-.5.1 0 .55-.5.55-1.2 0-2.65-2-.35-.45-1.7-2.8l.05-.4.45-.25h.1l.5-.3.05-.35v-.1l.1-.45.45-.2h3.55q6.75-.1 6.75-1.3v-.15zm-7.75-8.4q.4-.15.9-.25l.55.05.3.35q0 .8.2 2.6.15 1.7.15 2.7 0 .45-.2 1.35-.2.9-.2 1.25 0 .3.25.75l-.1.45-.55.2h-.05q-.55 0-1.35.05-.8 0-1.1 0-1.65 0-1.65-1.7 0-3.35 2.4-7.55zm29.75 9.85q-.25-4.55-1.35-7.75-.05-.25-.9-4.5l-.3-.35q-.3-.15-.1-.8l-.2-.4-.55-.1h-.4q-4.85 0-8.9 2.8-.2.2-.4.2-.85 0-.85-1.1 0-.55-.35-1.25-.4-.75-.8-.75-.4 0-.9-.5-.9 0-1.55.5l-.6.25q.1.4.1.6l-.25.4q-.3.1-.9.1-.55 0-.55.65 0 .8.25 2.25.25 1.75.3 2.3.3 2.7.3 9.75v4.95q.55-.05.9-.05.55 0 .7.45.15.5.8.5.35 0 .45-.2l.5-.1q.1 0 .55.15.25.15.55.1.45 0 .85-.9l-.05-2.1q-.05-1.9.15-5.3.25-3.65.25-5.25 0-1.45-.15-2.7.85-2.1 3.8-3.45l.55-.05.4.35q1.55 4.45 2 9.4.25 2.95.25 9.55v.45l.2.45.55.1q.6 0 .65-.4.1-.5.15-.95 0-.45.45-.45.15 0 .45.05.3.1.4.1.45 0 .7-.35.3-.35.8-.35.5 0 .5 1.6l.25.35.55.15q.75 0 .75-.55-.05-7.4 0-7.85m-23.9-70.85q-1.85 0-2.8 5.1-.55 3.25-.55 6.45 0 3.7.75 9.1.65 4.45 1.3 9.05.05 1.15 1.3 1.15.75 0 1.1-.45l.8-.3q.3.05 1.2.4.95.4 1.05.4 1.25 0 3.8-.7 2.55-.75 2.45-.75 1.25 0 1.25.9 0 3.4-4.6 14l.3.6.8.3q.65.05 1.15-.45.55-.45 1.2-.45.45 0 .85.55.5.55.75.65h1.45l1.1.3.95-.15.5-.55.2-.55v-.1q4.15-11.35 5.3-15.7 2.3-8.35 2.3-16.15 0-12.75-.25-13.3 0-.9-1.15-.9-1 0-1.2.8-.15.75-.2 1.5l-.5.55q-.85.15-1.2 0-1.6.5-1.5.5-.8 0-1.05-.85-.3-.85-1.25-.85l-.85.3-.35.6q0 14.75-1.95 25.1l-.45.65q-1.5.65-2.35.95h-.95l-.65-.55q-1.55-7-2.25-23.75-.05-.95 0-2.05-.2-1.6-1.35-1.6-1.1 0-1.25 1-.2.95-1.1.95l-.8-.2-.3-.6q0-.9-1-.9m-10.55.25q0-.9-1.2-.9-.9 0-5.75 2.2-4.8 2.25-5.3 2.25-.6 0-.8-.85-.2-.5 0-1.6l.1-1.15-.3-.6-1-.3q-1 .35-1.85.55l-.85-.5q-.25-.6-1.35-.45-1.1 0-.85 1.75l-.35.8q-.15 0-.6 0-.35.05-.55.05-.95 0-1.25-.55-.25-.55-.55-1.1l-.65-.55h-.95l-.65.5v.65q0 2.5.9 7.6.9 5 .9 7.6 0 .8-.2 2.05-.25 1.85-.25 2.25-.2 1.85 0 14.95 0 3.75-.5 8-.5 4.3-.55 3.95.05.9 1.5.9.25 0 .6-.25.4-.3.7-.3 1.1 0 1.25 1 .2 1 1.15 1 1-.4 2-.6l1.6 1h.9l.55-.4q.85-1.35.2-16.2l.65-.65h1q5.2 1.85 9.45 2.65.5.1 1.15.25l1.05-.15q.35-.15.75-.55.8-.15 2.1-1 2.15-3.7 2.15-16.45 0-10-5.15-15.55l.3-.65q.5-.25.5-.65m-10.35 5 1.1-.05.65.5q3.3 10.5 3.3 14.85 0 1.8-1.65 5.8-1.85 4.65-3.4 4.65l-.1.05q-.2 0-.45-.2-2.9-.75-3.25-1.9-.1-1.7-.2-3.45-.55-9.45.9-18.35.15-.35 3.1-1.9m-62.4 40q-.25.25-.65 1.7-.3 1.25-.85 1.25-.5 0-.7-.6-.2-.6-.85-.6-.2 0-.45.25l-.6.2-.15-.05-.85.25q-.75 0-.75.6 0 4.2.45 12.55.45 8.4.45 12.6 0 .25.4.5.35.15.35.45 0 .45-.05 1.2-.1.8-.1 1.2 0 2.7.7 2.7.7 0 .95-.8.25-.8.75-.8.55 0 .75.45.15.5.7.5.7 0 .7-.55 0-1.1 0-3.35-.05-2.25-.05-3.4 0-.15.25-.4l.45-.35q.4-2.05.4-4.55 0-2.3-.5-6.9-.5-4.55-.5-6.85v-.05q0-3.55.9-6.6l.05-.25q0-.35-.65-.45zm-9-.15-.55.15q-.25.25-.65 1.7-.35 1.25-.85 1.25-.5 0-.7-.6-.2-.6-.85-.6-.2 0-.5.25l-.6.2-.1-.05-.85.25q-.75 0-.75.6 0 4.2.45 12.55.45 8.4.45 12.6 0 .25.4.5.35.15.35.45 0 .45-.05 1.2-.1.8-.1 1.2 0 2.7.7 2.7.65 0 .95-.8.25-.8.75-.8.55 0 .7.45.2.5.75.5.7 0 .7-.55 0-1.1 0-3.35-.05-2.25-.05-3.4 0-.15.25-.4l.45-.35q.4-2.05.4-4.55 0-2.3-.5-6.9-.5-4.55-.5-6.85v-.05q0-3.55.9-6.6l.05-.25q0-.35-.65-.45m31.85-45.75q-.25-.6-1.35-.45-1.1 0-.8 1.75l-.35.8q-.2 0-.6 0-.4.05-.55.05-1 0-1.3-.55-.3-.55-.55-1.1l-.65-.55h-.95l-.6.5v.65q0 2.5.8 7.6.95 5 .95 7.6 0 .8-.2 2.05-.25 1.85-.25 2.25-.2 1.85 0 14.95 0 3.75-.5 8-.5 4.3-.55 3.95.05.9 1.5.9.3 0 .65-.25.35-.3.65-.3 1.05 0 1.25 1 .2 1 1.15 1 1-.4 2-.6l1.6 1h.9l.55-.4q.85-1.35.2-16.2l.65-.65h.95q5.25 1.85 9.45 2.65.55.1 1.25.25l.95-.15q.4-.15.8-.55.85-.15 2.1-1 2.15-3.7 2.15-16.45 0-10-5.1-15.55l.25-.65q.5-.25.5-.65 0-.9-1.25-.9-.85 0-5.7 2.2-4.75 2.25-5.25 2.25-.65 0-.85-.85-.2-.5 0-1.6l.1-1.15-.3-.6-1-.3q-1 .35-1.85.55zm7.7 5.85.6.5q3.35 10.5 3.35 14.85 0 1.8-1.65 5.8-1.85 4.65-3.4 4.65l-.1.05q-.2 0-.45-.2-2.9-.75-3.25-1.9-.1-1.7-.15-3.45-.55-9.45.85-18.35.15-.35 3.1-1.9zm-43-5.35q-1.5 0-2.85 3.1-1.05 2.5-1.1 4.2l.35.65.85.2q.85 0 1.15-.6l.85-.45.9.3q.5.45 1.1.4 1.3-.25 1.15-.25.2 0 .7.2.5.2.85.2.75 0 3.1-3.1 2.35-3.05 2.7-3.15.95-.1 1.6-.1 2.4 0 2.4 8.1v2.2l-.3.55q-4.4.3-9.05.6-6.7.5-6.55 1.95-1.8 6.05-1.8 10.1 0 1.1.7 1.3.8.25.95.65l.8 3.8q.1.65.95.75l.9-.1q.2-.1.75-.1.45 0 .85.45.4.45 1 .45.65 0 1.25-.45.6-.45 2.3-.3.8-.15 2.7-.9l1.9-.75q.9 0 1.15 1.05.25 1.05 1.3 1.05.35 0 1.25-.4.05-.05 1.3-2.8.95-2.05 1.7-2.05.95 0 .95 1.1l.35.6.9.3q1.70683594-.29257813 1.45-.3.0625 0 .15 0 .1.05.15.05l.55.75h-.05q.15.7-.55 1.05l-.1.1q0 .8 1.3.95 1.85 0 1.95-3 0-1.8-1.1-12.7-1-10.95-1-13.55 0-.85.05-1.15 0-.9-1.2-.9-1.35 0-1.35 1.55 0 .2 0 .5 0 .4 0 .55 0 1.45-1.15 1.45-.85 0-1.8-2.2-1-2.15-2.05-2.15-.25 0-.8.15-.45.15-.7.15-.2 0-.7-.15-.55-.15-.85-.15-.75 0-7.7.95-.15.1-1.05.6-.9.5-1.35.5-.85 0-1-1.2-.55-.6-1.1-.6m10.1 14.85q.3.25.45.25v.05q1.1 1.8 2.75 2.55l.45.65q-.45 6.9-1.45 8-.65.85-4.25 2.75l-.95.15-.75-.45q-1.95-4.8-1.95-8.9 0-.85.2-2.15.35-1.55.35-2.1 0-.05.1-.35-.05-.2 0-.35l.85-.25q2.4-.15 3.6-.15.25 0 .6.3m-57.9 32.9q.15 2.25.75 7.9.55 4.95.55 7.8 0 .55-.55.55l-.95-.25-.5.15-.25.4.25.4.5.2q.85-.25.9-.25.6 0 .6.45l-.1 11.9q.7 0 1.5.1.85.05.9.5 0 .5 0 1 .05.65.5.75h.6l.35-.25q.35-.6.35-1.3 0-.1.05-.25.1-.1.1-.15l.5-.2.45.1.25.35q0 .65.75.65.8 0 .7-.5l-.8-11.65q-.05-.5.6-.5 1.2-.15 2.8-.15 1.1-.05 2.9 0 2.2.05 2.85.05l.4.1.2.35.05 7.7q0 .1-.1.25-.2.2-.2.3 0 2.2.95 2.2l.45.2.15.35-.1.9.25.4.5.15q.4 0 .7-.35.25-.4.6-.4.4 0 .65.4.25.35.75.35.55 0 .65-.35l.45-.4q.6.1 1.15.3.75 0 .75-1h-.1q0-3.9-.15-4.85-.05-.35-.55-.5-.55-.15-.55-.45 0-2.25.35-6.55.3-4.3.3-6.4.1-9.85-.8-10.85l-.45-.2-.45.2-.25.3v1.5q0 .4-.6.55h-.65l-.35-.35q0-1.1-.6-3.05l-.5-.15-.55.15-.2.4.05.25-.15.35-.5.15q-.6.1-.65.55-.3 2.5-.3 14.45 0 .35-.6.45-1.6.2-4.35.15-3.05 0-4.3.1l-.5-.1-.2-.35q-.25-4.55-.25-8.2 0-1.05.1-3.2.1-2.15.1-3.3 0-.55-.65-.45-.7 0-.75.65-.05.6-.1 1.15 0 .85-.7.85-.7 0-.7-1.7 0-.95-.3-1.3-.9 0-1.2.2l.05.3q0 .5-.6.55-.5 0-.95-.85l-.5-.15-.55.15zm.55-67.1q.2 3.75 1.2 13.1.95 8.25.95 13.05 0 .9-.95.9l-1.55-.4-.85.25-.4.65.4.65.85.3q1.35-.4 1.45-.4 1.05 0 1.05.75l-.2 19.85q1.15 0 2.55.15 1.35.15 1.45.9 0 .8 0 1.6.1 1.1.85 1.3h.95l.65-.45q.55-.95.55-2.2 0-.15.15-.35.1-.2.1-.3l.85-.3.75.2.4.55q0 1.1 1.3 1.1 1.35 0 1.15-.9l-1.35-19.4q-.1-.8 1.05-.8 2-.25 4.65-.25 1.75-.1 4.75 0 3.7.05 4.8.05l.7.2.35.55.05 12.85q0 .15-.2.45-.3.35-.3.45 0 3.7 1.6 3.7l.7.3.25.6-.15 1.5.4.7.85.2q.65 0 1.15-.6.5-.6 1-.6.65 0 1.1.6.45.6 1.3.6.85 0 1.05-.6l.7-.6q1.1.15 1.9.45 1.25 0 1.25-1.65h-.1q0-6.5-.25-8.05-.1-.6-.95-.85-.9-.3-.9-.75 0-3.75.55-10.9.55-7.2.55-10.7.15-16.45-1.3-18.1l-.75-.3-.8.3-.35.5v2.55q0 .65-1.05.9h-1.1l-.6-.65q0-1.75-.95-5.05l-.85-.3-.9.3-.35.65.1.45-.3.55-.8.3q-.95.15-1.1.9-.45 4.15-.45 24.1 0 .6-1.05.75-2.65.35-7.25.25-5.05 0-7.2.15l-.8-.15-.3-.6q-.45-7.6-.45-13.65 0-1.8.2-5.35.2-3.6.2-5.5 0-.95-1.15-.8-1.15 0-1.25 1.1-.1 1.05-.2 1.9 0 1.5-1.1 1.5-1.15 0-1.15-2.85 0-1.65-.55-2.2-1.45 0-2 .4l.05.5q0 .75-1 .9-.75 0-1.55-1.4l-.85-.3-.9.3z" fill="#ffc"/>
            </g>
        </g>
    </g>
</svg>
