<svg height="400" preserveAspectRatio="none" viewBox="0 0 550 400" width="550" xmlns="http://www.w3.org/2000/svg" xmlns:xlink="http://www.w3.org/1999/xlink">
    <defs>
        <g id="S_mbolo_8_0_Layer0_0_FILL">
            <path d="m5.9 4.9q.55-.15.95-.2.4-.05.75 0 .2-.05.4 0l.05.05h.05q.15.15.4.2.25.1.9-.1.3-.1.6-.3.3-.2.15-.7-.15-.55-.95-.75-.7-.15-1.6-.15-.95.1-2.15.35l-.75-2.75q-.05-.4-.5-.5-.4-.1-.85.05-.45.1-.8.4-.25.3-.15.65l.8 2.9q-1.2.6-1.95 1.5-.65.75-1.05 1.9-.4 1.15 0 2.85.3 1 1.2 1.6.9.65 1.85 1.05 1.1.45 2.5.75l2.25 8.4q-.7.15-1.2.15-.5.1-1 .1-.5 0-.75-.2-.1-.05-.25-.1-.15-.05-.35-.1-.2 0-.45.05-.7.2-.9.55-.2.35-.15.5.05.2.15.35.1.1.15.1.65.4 1.55.45.85.1 1.7.1.95-.1 1.95-.3l.75 2.8q.15.4.5.55.4.05.85 0 .45-.15.8-.45.3-.3.2-.7l-.8-2.9q1.25-.65 2.15-1.55.75-.8 1.25-2.1.5-1.2.05-2.95-.4-1.45-1.4-2.25-1.1-.8-2.15-1.25-1.3-.55-2.8-.65zm-3.3 4.65q-.25-.85-.1-1.55.1-.7.35-1.15.25-.6.8-1.05l1.55 5.85q-.7-.2-1.2-.45-.45-.3-.85-.65-.4-.4-.55-1m5.8 4.75q.8.2 1.45.55.6.25 1.15.75.55.45.75 1.2.35 1.25.15 2.05-.2.85-.6 1.4-.4.65-1 1.05z" fill="#fff"/>
        </g>
    </defs>
    <g transform="translate(145.95 39.05)">
        <g>
            <g>
                <g id="S_mbolo_14_0_Layer0_0_FILL">
                    <path d="m12.45 72.35q-1.9 1.05-5.05 4-3.35 28.5-5.65 56.9-.05 0 .1.2-.45 5.55-.85 11.25-.45 2.1-.6 5.35-.9 6.95.15 40.65.7-.05 1.7.15 9.35 0 14.9-.3h.1q-.096875.096875-.1.25 0 .1 0 .35-.2.95-.7 2.55-.7 2.85-2.25 4.75-1.55 1.9-3.55 2.2-2.05.25-2.1.05.85 4.4 1.7 21.1.75 17.55 1.25 25.15.1 6.6.15 13.1.15.35.3.7.2 6.75.15 13.75.5 4.45.9 13.35.3 9 .8 13.4v.05q.00058594 8.62578125.2 17.55.21875 2.86699219.3 6.65.08125 3.8390625-.05 7.4 3.45546875-.09941406 3.7-.1-.4.85-.85 1.95l-.2.05q-3.75 2.75-3.6 4.65-.15742187 1.39746094 5.25 1.4 5.41757813.05664063 8.45-.45 3.02734375-.51171875 5.05-3.3 8.30429688-.70390625 15.65-.65 7.33691406.06113281 11-.1 3.66738281-.11503906 5.35-.75 2.75-.8 2.8-2.45-.15-.6-.65-1.3-.75-.95-1.55-1.3-3.8-.05-7.4-.2-8.2-1.85-11.95-5.15 2.8-.1875 3.05-1.8-1.85625-4.7140625-1.45-14.6.07910156-3.63554687.25-7.5 1.00625-24.6640625 5.3-58.65 5.8-42.1 6.4-45.8.1-1.5.45-3.9.25-2.75.75-6.7 1.3-.2 2-.4.85 0 1.95-.1.95 0 1.85-.05 0-.9 0-1.7v-.05q-.2-29.45 3.9-61.7 21.95 25.3 54.65 41.75l.5-.9 5.35-9.65.45-.85q-30.1-20.8-63.7-79.75l-.3-.7q0 .05-.05.1l-6.8 15.7q-.85-2.6-2.45-6.05-.1-.25-.15-.25 2.7-4.05 3.95-6.7.05-.2.15-.4l.7-1.45q-2.15-.3-5.65-1.25-2.5-.7-5.1-2.3l.35 1.65q.85 3.85 3.05 9.6-2.2 2.85-4.15 7.3-2.45-6.7-2.85-7.85-.8-1.35-5-14.6-.2-.8-.4-1.6-.0890625-.26699219-.2-.55l.05.05-1.7-5.65q-1-1.65-1.5-2.75-6.95 3.75-13.3 8.35-4.45 2.6-13.2 8.85m18.7 259.35q-.05 0 0 .05-.05 0-.15 0 0-.15.15-.05z"/>
                    <path d="m142.75 166.95q1.89160156-1.6046875 1.85-3.6-.046875-1.95019531-5.8-5.75-5.753125-3.74492187-8.55-4.15l-5.35 9.65q2.10566406 1.85527344 6.85 4.3 4.74570313 2.45175781 6.9 1.8 2.20507813-.65214844 4.1-2.25m-140.65 25.25q-.1.2-.05 4.35.85 3.35 5.95 4.05.15.05.4.05l-.05.05h.2q.05.2 2.1-.05 2-.3 3.55-2.2 1.55-1.9 2.25-4.75.5-1.6.7-2.55 0-.25 0-.35 0-.153125 0-.25-5.55.3-14.9.3-.2.55-.15 1.35m70.35-147.7q3.4 1.25 6.7 2.45-2.1-6.7-4.25-13.95 0-.45.2-.95 2.15-8.75 1.35-16.15-1.25-14.1-14.95-15.5-9.4-1.85-14 5.35-2.35 3.25-3.55 10.4-1.85 8.65-3.65 27.7-.75 7.2-1.35 11.3.5 1.1 1.5 2.75.1.15.2.3 2.1 3.6 2.8 4.4 4 4.5 7.85 6.95 2.6 1.6 5.1 2.3 3.5.95 5.65 1.25 1.75.2 2.6 0 1.7-.35 2-.85.05-.05.05-.1 2.7-12.45 3.2-14.65.55-3.8 2.55-13z" fill="#f33"/>
                    <path d="m42.15 63.55-.05-.05q.1109375.28300781.2.55.2.8.4 1.6 4.2 13.25 5 14.6.4 1.15 2.85 7.85 1.95-4.45 4.15-7.3-2.2-5.75-3.05-9.6l-.35-1.65q-3.85-2.45-7.85-6.95-.7-.8-2.8-4.4-.1-.15-.2-.3zm22.5 9.55q-.85.2-2.6 0l-.7 1.45q-.1.2-.15.4-1.25 2.65-3.95 6.7.05 0 .15.25 1.6 3.45 2.45 6.05l6.8-15.7q-.3.5-2 .85z" fill="#fff"/>
                </g>
            </g>
            <g transform="matrix(.96592712 .25880432 -.25880432 .96592712 56 3.75)">
                <g>
                    <use xlink:href="#S_mbolo_8_0_Layer0_0_FILL"/>
                </g>
            </g>
        </g>
        <g transform="matrix(-1 0 0 1 271.3 0)">
            <g>
                <g id="Copia_de_S_mbolo_14_2_0_Layer0_0_FILL">
                    <path d="m40.45 57.9q-1-1.65-1.5-2.75-6.95 3.75-13.3 8.35-4.45 2.6-13.2 8.85-1.9 1.05-5.05 4-3.35 28.5-5.65 56.9-.05 0 .1.2-.45 5.55-.85 11.25-.45 2.1-.6 5.35-.9 6.95.15 40.65.7-.05 1.7.15 9.35 0 14.9-.3h.1q-.096875.096875-.1.25 0 .1 0 .35-.2.95-.7 2.55-.7 2.85-2.25 4.75-1.55 1.9-3.55 2.2-2.05.25-2.1.05.85 4.4 1.7 21.1.75 17.55 1.25 25.15.1 6.6.15 13.1.15.35.3.7.2 6.75.15 13.75.5 4.45.9 13.35.3 9 .8 13.4-.05 8.9.15 17.8.2 2.85.3 6.7.1 3.8-.05 7.35 3.45-.1 3.7-.1-.4.85-.85 1.95l-.2.05q-3.75 2.75-3.6 4.65-.15 1.4 5.25 1.45 5.4 0 8.45-.5 3.05-.5 5.05-3.3 8.3-.7 15.65-.65 7.35.05 11-.05 3.65-.15 5.35-.8 2.75-.8 2.8-2.45-.15-.6-.65-1.3-.75-.95-1.55-1.3-3.8-.05-7.4-.2-8.2-1.85-11.95-5.15 2.8-.2 3.05-1.8-1.85-4.7-1.45-14.6.1-3.65.3-7.75 1.01074219-24.64882813 5.3-58.6 5.8-42.1 6.4-45.8.1-1.5.45-3.9.25-2.75.75-6.7 1.3-.2 2-.4.85 0 1.95-.1.95 0 1.85-.05 0-.9 0-1.7v-.05q-.2-29.45 3.9-61.7 21.95 25.3 54.65 41.75l.5-.9 5.35-9.65.45-.85q-30.1-20.8-63.7-79.75l-.3-.7q0 .05-.05.1l-6.8 15.7q-.85-2.6-2.45-6.05-.1-.25-.15-.25 2.7-4.05 3.95-6.7.05-.2.15-.4l.7-1.45q-2.15-.3-5.65-1.25-2.5-.7-5.1-2.3l.35 1.65q.85 3.85 3.05 9.6-2.2 2.85-4.15 7.3-2.45-6.7-2.85-7.85-.8-1.35-5-14.6-.2-.8-.4-1.6-.0890625-.26699219-.2-.55l.05.05zm-9.35 274q-.05 0 0 .05-.05 0-.15 0 0-.15.15-.05z"/>
                    <path d="m142.75 166.95q1.89160156-1.6046875 1.85-3.6-.046875-1.95019531-5.8-5.75-5.753125-3.74492187-8.55-4.15l-5.35 9.65q2.10566406 1.85527344 6.85 4.3 4.74570313 2.45175781 6.9 1.8 2.20507813-.65214844 4.1-2.25m-140.65 25.25q-.1.2-.05 4.35.85 3.35 5.95 4.05.15.05.4.05l-.05.05h.2q.05.2 2.1-.05 2-.3 3.55-2.2 1.55-1.9 2.25-4.75.5-1.6.7-2.55 0-.25 0-.35 0-.153125 0-.25-5.55.3-14.9.3-.2.55-.15 1.35m70.35-147.7q3.4 1.25 6.7 2.45-2.1-6.7-4.25-13.95 0-.45.2-.95 2.15-8.75 1.35-16.15-1.25-14.1-14.95-15.5-9.4-1.85-14 5.35-2.35 3.25-3.55 10.4-1.85 8.65-3.65 27.7-.75 7.2-1.35 11.3.5 1.1 1.5 2.75.1.15.2.3 2.1 3.6 2.8 4.4 4 4.5 7.85 6.95 2.6 1.6 5.1 2.3 3.5.95 5.65 1.25 1.75.2 2.6 0 1.7-.35 2-.85.05-.05.05-.1 2.7-12.45 3.2-14.65.55-3.8 2.55-13z" fill="#f33"/>
                    <path d="m51.3 69.55q-3.85-2.45-7.85-6.95-.7-.8-2.8-4.4-.1-.15-.2-.3l1.7 5.65-.05-.05q.1109375.28300781.2.55.2.8.4 1.6 4.2 13.25 5 14.6.4 1.15 2.85 7.85 1.95-4.45 4.15-7.3-2.2-5.75-3.05-9.6zm13.35 3.55q-.85.2-2.6 0l-.7 1.45q-.1.2-.15.4-1.25 2.65-3.95 6.7.05 0 .15.25 1.6 3.45 2.45 6.05l6.8-15.7q-.3.5-2 .85z" fill="#fff"/>
                </g>
            </g>
            <g transform="matrix(-.96592712 .25880432 .25880432 .96592712 62.9 3.75)">
                <g>
                    <use xlink:href="#S_mbolo_8_0_Layer0_0_FILL"/>
                </g>
            </g>
        </g>
    </g>
</svg>
