<svg height="400" preserveAspectRatio="none" viewBox="0 0 550 400" width="550" xmlns="http://www.w3.org/2000/svg" xmlns:xlink="http://www.w3.org/1999/xlink">
    <defs>
        <g id="S_mbolo_1_0_Layer0_0_FILL">
            <path d="m29.4-4.8q-.05.05-.15.05-.05.05-.1.05-.05.05-.05.1-.05.05-.1.05 0 .05 0 .1 0 .05 0 .1v.05q0 .05 0 .1v.05q0 .05-.05.1 0 .05-.05.1v.05q0 .05-.05.1 0 .05-.05.1l-.05.05q0 .05 0 .1v.05q0 .2 0 .35 0 .15 0 .3 0 .1-.05.15 0 .05 0 .1-.05.05-.05.1v.05q0 .05 0 .1v.05q0 .05 0 .1 0 .05 0 .1l-.05.05q0 .05-.05.1l-.05.05q-.05.05-.05.1-.05.1-.1.15-.05.05-.05.1 0 .05-.05.1v.05q0 .05 0 .1v.05q0 .05 0 .1 0 .05-.05.1v.05q-.05.05-.05.1v.05q0 .05 0 .1 0 .05 0 .1-.05 0-.05.05 0 .05 0 .1v.05q0 .05 0 .1 0 .05-.05.1v.05q-.05.05-.05.1l-.05.05q0 .1 0 .2-.05.05-.05.15 0 .05 0 .1v.05q0 .05-.05.1v.05q0 .05-.05.1 0 .05 0 .1v.05q0 .05 0 .1v.05q0 .05-.05.1 0 .05 0 .1-.05 0-.05.05 0 .05 0 .1v.05q0 .05 0 .1-.05.05-.1.1v.05q0 .05 0 .1 0 .05 0 .1-.05 0-.05.05 0 .05-.05.1v.05q0 .05 0 .1 0 .05-.05.1v.05q-.05.05-.05.1v.05q0 .05 0 .1 0 .05 0 .1v.05q-.05.05-.05.1v.05q0 .05 0 .1 0 .05 0 .1v.05q-.05.05-.05.1-.05.05-.1.05 0 .05-.05.1 0 .05 0 .1v.05q0 .05 0 .1 0 .05-.05.05 0 .05-.05.1 0 .05 0 .1v.05q0 .05 0 .1 0 .05-.05.1v.05q-.05.05-.05.1v.05q0 .05 0 .1 0 .05 0 .1-.05 0-.05.05 0 .05-.05.1v.05q0 .05 0 .1 0 .05 0 .1l-.05.05q0 .05-.05.1v.05q0 .05 0 .1-.05.05-.05.1-.05 0-.05.05 0 .05 0 .1v.05q0 .05 0 .1 0 .05 0 .1-.05 0-.05.05 0 .05 0 .1v.05q0 .05-.05.1 0 .05 0 .1l-.05.05q-.05.05-.05.1-.05.08339844-.1.15-.05.15-.1.3 0 .15 0 .3 0 .075 0 .15v.05q0 .05 0 .1v.05q0 .05 0 .1 0 .05 0 .1-.05 0-.05.05 0 .05 0 .1l-.05.05q0 .05 0 .1 0 .05 0 .1v.05q0 .05 0 .1 0 .05-.05.05 0 .05 0 .1-.05.05-.05.1v.05q0 .05 0 .1 0 .05 0 .1l-.05.05q0 .05-.05.1v.05q0 .05 0 .1 0 .05 0 .1v.05q-.05.05-.05.1v.05q-.05.05-.05.1 0 .05 0 .1v.05q0 .05 0 .1-.05.05-.1.05 0 .05 0 .1-.05.05-.05.1v.05q0 .05 0 .1l-.05.05q-.05.05-.05.1 0 .05 0 .1v.05q0 .05 0 .1-.05.05-.05.1l-.05.05q0 .05 0 .1v.05q0 .05 0 .1 0 .05 0 .1-.05 0-.05.05-.05.05-.05.1v.05q-.1171875.17578125-.2.3-.05.15-.1.3 0 .15 0 .3-.04296875.2578125-.05.55-.05.05-.05.1-.05.05-.05.1v.05q0 .05 0 .1 0 .05-.05.05 0 .05-.05.1 0 .05 0 .1v.05q0 .05 0 .1l-.05.05q0 .05-.05.1 0 .05 0 .1v.05q-.05.05-.05.1 0 .05-.05.05 0 .03144531 0 .05-.02753906.05507813-.05.1-.05.1-.05.3-.03339844.10039063-.05.2-.0015625.0515625-.05.1 0 .05 0 .1v.05q0 .05 0 .1v.05q0 .05 0 .1-.05.05-.05.1-.05 0-.05.05 0 .05 0 .1-.05.05-.1.05-.05.05-.05.1 0 .05 0 .1v.05q0 .05 0 .1v.05q0 .05 0 .1 0 .05-.05.1l-.05.05q0 .03359375 0 .05-.03164062.07675781-.05.15-.02929687.08828125-.05.15v.05q0 .05 0 .1-.02363281.05-.05.05 0 .05 0 .1-.05.05-.05.1v.05q0 .05 0 .1 0 .05 0 .1-.05 0-.05.05-.05.1-.1.15 0 .05-.05.1 0 .05 0 .1v.05q0 .04179688 0 .05-.08535156.12089844-.15.25-.08339844.12519531-.1.25v.1q-.0125.0625-.05.1l-.05.05q0 .05 0 .1 0 .05 0 .1v.1q-.02050781.05566406-.05.1-.15.15-.25.35-.1.1-.1.3 0 .15 0 .3 0 .15-.05.3-.0390625.11699219-.1.2.0109375.06699219 0 .1-.1.15-.2.35-.1.1-.15.3 0 .15-.05.3 0 .05 0 .1-.0015625.05-.05.05 0 .05-.05.1 0 .05 0 .1v.05q0 .05-.05.1-.05.05-.1.15-.05.05-.05.1-.05 0-.05.05 0 .05 0 .1v.05q-.05.05-.05.1-.05.1-.1.15 0 .05-.05.1 0 .05 0 .1v.05q0 .05 0 .1v.05q-.05.05-.05.1-.05.05-.05.1-.05 0-.1.05 0 .05 0 .1v.05q-.05.05-.05.1-.05.05-.05.1v.05q-.05.05-.05.1l-.05.05q0 .05 0 .1-.05.05-.05.1l-.05.05q0 .05-.05.1v.05q0 .05-.05.1 0 .05-.05.1v.05q0 .05 0 .1-.05.05-.05.1-.05 0-.05.05 0 .05 0 .1v.05q-.05.05-.05.1l-.05.05q0 .05-.05.1-.05.05-.05.1v.05q0 .05-.05.1 0 .05-.05.1v.05q0 .05 0 .1l-.05.05q-.05.05-.05.1-.05.05-.05.1-.05 0-.05.05-.05.05-.05.1 0 .05-.05.05 0 .05-.05.1 0 .05 0 .1v.05q0 .05-.05.1 0 .05-.05.1v.05q-.05.05-.05.1l-.05.05q0 .05 0 .1-.05.05-.1.1v.05q0 .05-.05.1 0 .05-.05.05 0 .05-.05.1 0 .05-.05.1v.05q-.05.05-.05.1 0 .05-.05.05-.05.05-.05.1 0 .05 0 .1v.05q-.05.05-.05.1 0 .05-.05.05 0 .05-.05.1-.05.05-.05.1v.05q0 .05 0 .1v.05q-.05.05-.05.1 0 .05 0 .1v.05q-.05.05-.05.1-.05.1-.1.15-.05.05-.05.1 0 .05-.05.05 0 .05-.05.1-.05.05-.05.1v.05q-.05.1-.1.15-.05.1-.1.2l-.05.05q0 .05 0 .1v.05q0 .05-.05.1 0 .05-.05.1v.05q0 .05-.05.1v.05q0 .05 0 .1-.05.05-.05.1l-.05.05q0 .05-.05.1v.05q-.05.05-.05.1-.05.1-.1.15-.05.1-.1.2l-.05.05q0 .05-.05.1v.05q-.05.05-.05.1 0 .05-.05.1v.05q0 .05 0 .1v.05q-.05.05-.05.1-.05.05-.05.1v.05q0 .05-.05.1v.05q0 .05 0 .1-.05.05-.05.1-.05.05-.1.15 0 .05-.05.05 0 .05-.05.1 0 .05 0 .1l-.05.05q-.05.1-.1.2l-.05.05q0 .05 0 .1l-.05.05q0 .05 0 .1-.05.05-.05.1l-.05.05q0 .05-.05.1v.05q-.05.05-.05.1 0 .05-.05.1v.05q0 .05 0 .1l-.05.05q0 .05-.05.1 0 .05-.05.1v.05q-.05.05-.05.1-.05.05-.1.15 0 .05-.05.1v.05q-.05.05-.1.1 0 .05-.05.05 0 .05-.05.1 0 .05-.05.1v.05q0 .05 0 .1 0 .05 0 .1-.05 0-.05.05-.05.05-.05.1v.05q-.05.05-.05.1 0 .05 0 .1v.05q-.05.05-.1.1v.05q0 .05-.05.1 0 .05 0 .1-.05 0-.05.05 0 .05 0 .1l-.05.05q-.05.05-.1.1 0 .05-.05.1l-.05.05q0 .05 0 .1v.05q-.05.05-.05.1-.05.05-.05.1v.05q0 .05-.05.1 0 .05-.05.1v.05q0 .05 0 .1-.05.1-.1.25-.15.2-.25.4-.02578125.02578125-.05.05-.06289062.07578125-.1.15-.05.05-.05.1 0 .05-.05.1v.05q-.05.05-.1.1 0 .05-.05.05 0 .05 0 .1-.05.05-.05.1 0 .05-.05.05 0 .05 0 .1 0 .05-.05.05 0 .05-.05.1-.05.05-.1.1 0 .05-.05.05-.1.05-.15.1-.05.05-.05.1-.05 0-.05.05-.05.05-.05.1 0 .05-.05.05 0 .05-.05.1 0 .05 0 .1-.05 0-.05.05 0 .05 0 .1 0 .05-.05.05 0 .05 0 .1-.05.05-.05.1-.05 0-.05.05 0 .1 0 .15-.05.1-.05.2l-.05.05q0 .05 0 .1-.05.05-.05.1-.05 0-.05.05-.05.05-.05.1 0 .05-.05.05 0 .05 0 .1 0 .05-.05.1v.05q0 .05 0 .1v.05q-.05.05-.05.1 0 .03125 0 .05-.025.075-.05.15v.05q0 .05-.05.1v.05q-.05.05-.05.1 0 .05 0 .1-.05 0-.05.05-.05.05-.05.1l-.05.05q0 .05-.05.1 0 .05 0 .1 0 .05-.05.05 0 .05 0 .1-.05.05-.05.1l-.05.05q0 .05 0 .1v.05q-.05.05-.1.1-.05.05-.05.1v.05q0 .05 0 .1l-.05.05q0 .05-.05.1 0 .05-.05.1v.05q-.05.05-.05.1v.05q0 .05 0 .1 0 .05.05.1l.05.05q.1.05.15.05.1 0 .2 0 .05 0 .1 0 .05 0 .05-.05.05 0 .05-.05.1-.05.15-.05 0-.05.05-.1.1-.05.15-.05.05-.05.1-.05 0-.05.05-.1v-.05q.2-.1.35-.2.15-.05.25-.15.05-.05.1-.05.05-.05.05-.1.1-.05.15-.05.05-.05.1-.05 0-.05.05-.1.15-.1.35-.25.35-.2.7-.35.05-.05.1-.05 0-.05.05-.1.15-.05.25-.15.1-.05.15-.05.05-.05.1-.05.05-.05.1-.05.05 0 .05-.05.05 0 .05-.05l.05-.05q.1-.05.2-.1.05 0 .1-.05.05 0 .05-.05.05-.05.05-.1.05-.05.1-.05.05-.05.15-.1.05-.05.1-.1.1 0 .2-.05.05 0 .1-.05.05-.05.1-.05.1-.1.2-.15.05-.05.1-.1 0-.05.05-.1.05-.05.15-.05.05-.05.1-.1.1-.05.2-.1.05 0 .1-.05 0-.05.05-.1.1-.05.2-.05.1-.05.2-.1.05-.05.1-.1.15-.1.3-.25.1-.1.25-.2.2-.1.4-.25.25-.2.5-.35.05 0 .05-.05.1-.05.15-.05.05-.05.1-.05.05-.05.1-.1.1 0 .15-.05.05 0 .1-.05.05 0 .05-.05.05 0 .1-.05.05-.05.15-.1 0-.05.05-.05.05-.05.1-.1.025-.0125.05-.05 0 .24609375 0 .5 0 .3-.05.55-.05.05-.05.1l-.05.05q0 .2 0 .35 0 .15 0 .3 0 .15-.05.25-.05.05-.05.1l-.05.05q0 .25 0 .5 0 .25 0 .5 0 .2 0 .45 0 .05-.05.1 0 .05 0 .1-.05.15-.05.4 0 .15 0 .4 0 .2 0 .4-.05 0-.05.05-.05.05-.05.1 0 .1 0 .25 0 .1 0 .2 0 .1 0 .2l-.05.05q-.05.05-.05.1-.05.05-.05.1v.05q0 .05 0 .1v.05q0 .05-.05.1 0 .05 0 .1-.05 0-.05.05 0 .05 0 .1 0 .1 0 .25 0 .1 0 .2 0 .1 0 .2-.05 0-.05.05-.05.05-.05.1v.05q0 .05 0 .1 0 .05 0 .1l-.05.05q0 .05-.05.1 0 .05 0 .1v.05q0 .05 0 .1v.05q0 .05 0 .1-.05.05-.05.1-.05 0-.05.05 0 .05 0 .1v.05q0 .05 0 .1 0 .05 0 .1v.05q-.05.05-.05.1 0 .05-.05.05 0 .05 0 .1 0 .1 0 .15 0 .1 0 .15-.05.05-.05.1 0 .05-.05.1v.05q0 .05 0 .1l-.05.05q-.05.05-.05.1-.05.05-.05.1v.05q0 .05 0 .1 0 .05-.05.1l-.05.05q0 .05 0 .1 0 .1 0 .25 0 .1 0 .2 0 .15 0 .25-.05.05-.05.1l-.05.05q0 .05 0 .1 0 .05 0 .1v.05q0 .05 0 .1l-.05.05q0 .05-.05.1 0 .05 0 .1 0 .05 0 .15v.05q-.02421875.02421875-.05.05-.05.15-.1.3 0 .15-.05.3-.01542969.13808594-.05.25 0 .06542969 0 .1 0 .05-.05.1v.05q0 .05 0 .1v.05q0 .05 0 .1v.05q0 .05 0 .1-.05.05-.05.1-.05 0-.1.05 0 .05 0 .1 0 .05 0 .1-.05 0-.05.05-.05.05-.05.1v.05q0 .1 0 .2v.05q0 .05 0 .1 0 .05-.05.05 0 .05-.05.1 0 .05 0 .1v.05q0 .05-.05.1 0 .05-.05.05 0 .05 0 .1 0 .05 0 .1v.05q0 .05 0 .1-.05.05-.05.1l-.05.05q0 .05 0 .1v.05q0 .05 0 .1v.05q-.05.05-.05.1-.05.05-.05.1v.05q-.05.05-.05.1 0 .05-.05.1l-.05.05q0 .05 0 .1v.05q0 .05 0 .1 0 .05 0 .1-.05 0-.05.05-.05.05-.05.1v.05q0 .05 0 .1 0 .05 0 .1v.05q-.05.05-.05.1-.05.05-.05.1v.05q0 .05 0 .1v.05q0 .05-.05.1 0 .05-.05.1v.05q0 .05 0 .1v.05q0 .05-.05.1 0 .05 0 .1-.05 0-.05.05 0 .05 0 .1 0 .05-.05.05 0 .05 0 .1-.05.05-.05.1v.05q0 .05-.05.1v.05q-.05.05-.05.1 0 .05 0 .1v.05q0 .05 0 .1l-.05.05q0 .05-.05.1 0 .05-.05.1v.05q-.03242187.07265625-.05.15-.05.05-.05.1 0 .05 0 .1-.05 0-.05.05-.05.05-.05.1 0 .05-.05.1 0 .05-.05.15v.05q-.05.05-.05.1 0 .05-.05.1l-.05.05q0 .05 0 .1v.05q0 .05 0 .1-.05.05-.05.1l-.05.05q0 .05 0 .1l-.05.05q-.05.05-.05.1 0 .05 0 .1v.05q0 .05 0 .1-.05.05-.1.05 0 .05 0 .1-.05.05-.05.1-.05 0-.05.05 0 .05-.05.1v.05q0 .05 0 .1-.05.05-.05.1l-.05.05q0 .05 0 .1-.05.05-.05.1v.05q0 .05 0 .1-.0015625.05-.05.05 0 .05 0 .1 0 .05-.05.1l-.05.05q0 .05 0 .1v.05q0 .03652344 0 .05-.02324219.05976563-.05.1-.00898437.03574219-.05.05v.05.05q-.0390625.10859375-.1.2-.1.15-.15.3 0 .15-.05.3v.05q-.0015625.0515625-.05.1v.05q0 .05 0 .1l-.05.05q-.05.05-.05.1 0 .05 0 .1v.05q0 .05 0 .1l-.05.05q0 .05 0 .1-.075.1375-.15.25-.05.075-.1.15-.17050781.25566406-.3.55-.05 0-.1 0-.05.05-.1.05 0 .05-.05.1 0 .05 0 .1v.05q0 .05 0 .1-.1.15-.2.3-.1.15-.2.3-.1.15-.15.25 0 .05-.05.1 0 .05 0 .1l-.05.05q0 .05 0 .1 0 .05-.05.1l-.05.05q0 .05 0 .1 0 .05-.05.05-.05.05-.05.1 0 .05 0 .1v.05q-.05.05-.05.1l-.05.05q0 .05 0 .1l-.05.05q-.05.05-.05.1-.05.05-.05.1v.05q-.05.05-.1.1 0 .05 0 .1l-.05.05q0 .1-.05.15-.1.1-.15.2l-.05.05q0 .05 0 .1-.05.1-.1.15 0 .05-.05.1 0 .05-.05.05 0 .05 0 .1-.05.05-.1.1l-.05.05q0 .05 0 .1 0 .05-.05.05-.05.05-.05.1 0 .05-.05.1l-.05.05q0 .05 0 .1 0 .05-.05.05 0 .05-.05.1 0 .05 0 .1-.05 0-.05.05-.05.05-.05.1v.05q-.05.05-.1.1 0 .05 0 .1l-.05.05q0 .05-.05.1v.05q-.05.05-.05.1 0 .05-.05.1 0 .05-.05.05 0 .05 0 .1 0 .05 0 .1v.05q-.05.05-.1.1-.05.05-.1.05 0 .05 0 .1 0 .05-.05.1l-.05.05q0 .05 0 .1-.1.1-.15.2-.05.15-.15.25-.05.1-.1.2-.05 0-.05.05 0 .05 0 .1-.05.05-.05.1-.05 0-.05.05-.05.05-.05.1l-.05.05q0 .05-.05.1 0 .05 0 .1-.05 0-.05.05 0 .05-.05.1l-.05.05q-.05.05-.1.1 0 .05 0 .1l-.05.05q0 .05 0 .1-.05.05-.1.05-.05.05-.05.1-.05.05-.1.1-.05 0-.05.05 0 .05 0 .1v.05q0 .05-.05.1 0 .05-.05.1v.05q-.05.05-.05.1-.05.05-.1.05 0 .05-.05.1 0 .05 0 .1-.05 0-.05.05 0 .05-.05.1 0 .05 0 .1-.05 0-.05.05 0 .05-.05.1-.05.05-.1.05-.05.1-.15.2-.05 0-.1.05 0 .05 0 .1v.05q0 .05 0 .1-.05.05-.05.1l-.05.05q0 .05 0 .1-.05.05-.1.05-.05.05-.05.1-.05.05-.05.1v.05q0 .05 0 .1 0 .05-.05.05-.05.1-.1.2-.05 0-.05.05-.05.05-.05.1v.05q0 .05-.05.1 0 .05-.05.1v.05q0 .05-.05.1 0 .05 0 .1l-.05.05q0 .05 0 .1l-.05.05q-.05.1-.1.2-.05.05-.05.15-.05.05-.1.15v.05q-.1.1-.2.2v.05q0 .05 0 .1-.1.1-.15.15 0 .05-.05.1v.05q0 .05 0 .1 0 .046875-.05.1-.025.025-.05.05-.03496094.10488281-.1.2v.05q-.20546875.46601563-.6.9-.5.6-.85 1.3-.11464844.26757813-.25.5-.05292969.05292969-.1.1-.1.15-.2.3 0 .05 0 .1 0 .05-.05.1v.05q-.05.05-.1.1 0 .05-.05.05 0 .05-.05.1-.05.05-.05.1-.1.05-.15.15-.1.15-.25.3-.1.15-.2.25-.05.05-.05.1-.05.05-.1.15-.05.05-.05.15-.05.05-.05.1v.05q-.05.05-.1.1-.05.05-.1.1v.05q-.05.05-.05.1l-.05.05q0 .05 0 .1 0 .05-.05.1l-.05.05q-.05.05-.05.1l-.05.05q-.05.05-.05.1 0 .1 0 .15-.025.025-.05.05-.05.05-.05.1-.05.05-.05.1.05.05.05.1.05 0 .1.05.05.05.15.05.1 0 .2 0 .05 0 .1 0 .05 0 .05-.05.05 0 .05-.05.1 0 .2-.05.02792969 0 .05-.05.09023438.021875.2 0 .1 0 .2-.05 0-.05.05-.1.1 0 .15-.05h.05q.05-.05.1-.05 0-.05.05-.1.05-.05.1-.1h.05l.05-.05q.05 0 .05-.05.05-.05.15-.05.35-.05.7-.1.2-.15.45-.2.3-.1.55-.25.4-.25.85-.4.15-.05.3-.15.5-.15 1.05-.25.15-.1.35-.15.5-.15.95-.3.65-.2 1.3-.35.1-.05.2-.1.25-.05.45-.15.2-.05.3-.1.1 0 .25-.05.05 0 .1 0 .05-.05.1-.05.05-.05.15-.1.05 0 .15-.05.05 0 .1-.05.05-.05.1-.05.05-.05.1-.1.07617188 0 .15-.05 0 .06054688 0 .1l-.05.05q0 .05 0 .1 0 .05-.05.1v.05q0 .05-.05.1v.05q0 .05 0 .1 0 .05 0 .1v.05q0 .05 0 .1-.05.05-.05.1-.05 0-.05.05 0 .05 0 .1 0 .05-.05.05 0 .05-.05.1 0 .05 0 .1v.05q-.05.1-.1.15 0 .1-.05.2v.05q0 .05 0 .1 0 .05-.05.05-.05.05-.05.1 0 .05 0 .1v.05q0 .05 0 .1 0 .05-.05.05 0 .05-.05.1-.05.05-.05.1-.05 0-.05.05 0 .05 0 .1v.05q-.05.05-.05.1-.05.05-.05.1v.05q0 .05 0 .1 0 .05 0 .1v.05q0 .05-.05.1v.05q-.05.05-.05.1 0 .05 0 .1l-.05.05q0 .05-.05.1v.05q0 .05 0 .1l-.05.05q-.05.05-.05.1-.05.05-.05.1 0 .05-.05.05-.05.05-.05.1 0 .05 0 .1v.05q-.05.05-.05.1-.05.05-.05.1v.05q-.05.05-.05.1l-.05.05q0 .05 0 .1 0 .05 0 .1-.05 0-.05.05-.05.05-.05.1v.05q0 .05 0 .1-.05.05-.05.1-.05 0-.05.05 0 .05-.05.1 0 .05-.05.05 0 .05 0 .1 0 .05 0 .1-.05 0-.05.05-.05.05-.1.1v.05q0 .05 0 .1-.05.05-.1.1v.05q0 .05 0 .1l-.05.05q-.05.05-.05.1 0 .05 0 .1-.05 0-.05.05-.05.05-.05.1 0 .05 0 .1-.05 0-.05.05-.05.05-.05.1 0 .05-.05.05 0 .05-.05.1 0 .05-.05.05 0 .046875-.05.1-.025.075-.05.15-.05.05-.05.1-.05.05-.05.1l-.05.05q0 .05-.05.1v.1q-.0234375.0234375-.05.05-.1.15-.2.3 0 .04980469 0 .1v.05q-.01894531.01894531-.05.05-.05 0-.05.05 0 .05-.05.1v.05q0 .05-.05.1 0 .05-.05.1 0 .05-.05.05 0 .05 0 .1-.05.05-.1.1-.05 0-.1.05 0 .1-.05.15-.05.1-.1.2-.05.05-.05.15 0 .05-.05.05 0 .05 0 .1 0 .05 0 .1-.1.05-.15.15-.05.05-.1.15-.1.1-.15.15 0 .05 0 .1v.05q0 .05-.05.1 0 .05-.05.1-.05 0-.1.05 0 .05 0 .1-.05.05-.05.1-.05 0-.05.05-.05.05-.1.1v.05q0 .05-.05.1 0 .05-.05.1v.05q0 .05 0 .1l-.05.05q-.05.05-.05.1-.05.05-.05.1-.05 0-.05.05-.05.05-.05.1v.05q0 .05 0 .1-.05.05-.05.1-.05 0-.05.05 0 .05-.05.1 0 .05-.05.05-.05.1-.1.2 0 .05-.05.15-.05.05-.05.1l-.05.05q0 .05-.05.1v.05q0 .05-.05.1-.05.05-.05.1-.05 0-.05.05 0 .05-.05.1v.05q0 .1-.05.2v.05q-.05.05-.05.1l-.05.05q0 .05-.05.1 0 .05-.05.1v.05q0 .05 0 .1 0 .05-.05.05 0 .05 0 .1-.05.05-.05.1v.05q-.05.05-.1.1-.05.05-.1.15-.05.15-.15.25-.05.15-.15.25v.05q0 .05 0 .1-.05.05-.05.1l-.05.05q0 .05 0 .1 0 .05-.05.05-.05.05-.05.1-.05.05-.05.1-.05 0-.05.05 0 .05-.05.1 0 .05-.05.05 0 .05-.05.1-.05.05-.1.1-.05 0-.05.05-.05.05-.05.1v.05q0 .05 0 .1 0 .05 0 .1-.05 0-.1.05 0 .05-.05.1 0 .05-.05.1v.05q-.05.05-.05.1 0 .05-.05.05 0 .05 0 .1 0 .05 0 .1-.05 0-.05.05-.05.05-.05.1l-.05.05q0 .05-.05.1 0 .05 0 .1l-.05.05q0 .05-.05.1v.05q-.05.05-.1.1 0 .05-.05.1l-.05.05q0 .05-.05.1v.05q0 .05-.05.1 0 .05 0 .1-.05 0-.05.05 0 .05-.05.1 0 .05-.05.1v.05q0 .05 0 .1l-.05.05q-.05.05-.1.1 0 .05-.05.1v.05q0 .05 0 .1v.05q-.05.05-.05.1-.05.05-.05.1-.05 0-.1.05 0 .05-.05.1v.05q0 .05 0 .1-.1.1-.15.25-.2.35-.45.65-.2.25-.25.55 0 .05-.05.05 0 .05-.05.1-.05.05-.05.1l-.05.05q-.1.1-.15.2-.1.1-.2.25-.1.1-.1.2-.05.1-.05.2-.05.1-.15.25-.1.05-.1.15l-.05.05q0 .05 0 .1v.05q-.05.05-.1.1-.05.05-.1.1l-.05.05q0 .05-.05.1l-.05.05q-.05.05-.05.1 0 .05-.05.1l-.05.05q0 .05 0 .1 0 .05-.05.05 0 .05-.05.1-.05.05-.1.1v.05q-.05.05-.05.1 0 .05-.05.1l-.05.05q0 .05-.05.1v.05q0 .05-.05.1 0 .05-.05.1v.05q-.1.1-.15.2-.05.05-.1.1-.05.1-.1.2v.05q0 .05 0 .1-.05.05-.05.1-.05 0-.05.05-.05.05-.1.1v.05q0 .05 0 .1-.05.1-.1.15-.05.1-.1.2-.05 0-.05.05-.05.05-.05.1-.05 0-.1.05-.05.05-.05.1 0 .05-.05.05 0 .05-.05.1-.05.05-.1.1v.05q0 .05 0 .1 0 .05 0 .1-.05 0-.1.05-.1.1-.2.25-.1.1-.2.25v.05q0 .05 0 .1 0 .05 0 .1-.05 0-.1.05 0 .05-.05.1v.05q-.05.05-.1.1 0 .05-.05.1v.05q-.1.2-.25.35-.3.3-.5.7-.25.35-.45.75-.05.05-.1.15-.05.05-.15.15 0 .1-.05.15-.05.1-.1.2-.1.1-.2.2-.15.1-.15.25-.05.1-.1.15-.05.1-.1.15-.05.1-.15.2v.05q-.05.05-.05.1-.05.05-.05.1-.05 0-.05.05 0 .05 0 .1-.15.1-.2.25-.35.5-.7 1.05-.35.55-.8 1-.05.1-.1.2-.2.3-.5.6-.25.25-.3.6l.05.05q0 .0375 0 .05v.05q-.05.05-.05.1-.05 0-.05.05 0 .05 0 .1v.05q.05.05.1.1.05.05.15.05h.05q.05 0 .15-.05.05-.05.1-.1.1 0 .2-.05.05-.05.1-.1.05-.05.15-.05.05-.05.1-.1.05-.05.1-.1.05 0 .15-.05.2-.05.4-.15.1 0 .15-.05.05 0 .1-.05h.05q.15 0 .3-.05.05 0 .1 0 .05 0 .05-.05.05 0 .1-.05.1 0 .15-.05.1 0 .2-.05.05 0 .15-.05.1 0 .2-.05.05-.05.1-.1.15 0 .25-.05.05 0 .1 0 .15-.1.3-.15.05-.05.1-.1.04257813 0 .05-.05.26992187-.06386719.5-.15.38066406-.13847656.75-.3.4-.15.8-.25.7-.25 1.4-.45 1.3-.35 2.6-.85.5-.2 1-.25.1 0 .15-.05.05 0 .1-.05.35-.1.75-.2.2-.05.45-.1 1.05-.3 2.15-.5.35-.1.65-.15.05 0 .1 0 .45 0 .85-.1.45-.15.9-.15.05 0 .1 0 .05-.05.15-.05.05 0 .1 0 .3-.05.65-.05.05 0 .05-.05.1 0 .2-.05.05 0 .1 0 .05 0 .1-.05.05 0 .15-.05.3 0 .65-.05.05 0 .15-.05.25 0 .5-.05.05 0 .15-.05h.05q.3 0 .55-.05.1 0 .2-.05.35 0 .75-.05.1 0 .15-.05.95 0 1.9-.05.1 0 .15-.05.25 0 .5-.05.2 0 .4-.05.05 0 .1 0 .05-.05.1-.05.75 0 1.45 0h.05q.1.05.15.05.5453125.07792969 1.05-.05 0 .11035156 0 .2 0 .2 0 .35.05.05.05.1l.05.05q.05.5 0 .95 0 .65 0 1.3 0 .6 0 1.2-.05.05-.05.1l-.05.05q0 .05 0 .1 0 .05 0 .1 0 .15 0 .3 0 .15 0 .35 0 .15 0 .3 0 .05.05.1l.05.05q0 .05 0 .1 0 .05 0 .15 0 .1 0 .15 0 .1 0 .15-.05.05-.05.1 0 .05-.05.1v.05q0 .05 0 .1 0 .1 0 .25 0 .1 0 .2 0 .15 0 .25 0 .05.05.1 0 .05.05.1 0 .25 0 .55 0 .25 0 .45 0 .2 0 .4.05.05.05.1.05.05.05.1 0 .35 0 .7-.05.5-.05.95.05.45 0 .85-.05 0-.05.05-.05.05-.05.1 0 .65 0 1.35 0 1.05 0 2.1.05 1 0 2-.05.05-.05.1l-.05.05q0 .35 0 .65 0 .35 0 .65 0 .3 0 .55 0 .05.05.1 0 .05 0 .1l.05.05q0 .05 0 .1 0 .35.05.7 0 .5 0 1 0 .4 0 .85 0 .05 0 .1l.05.05q0 .05 0 .1.05.05.05.1 0 .26171875 0 .55 0 .19824219 0 .4-.05.65-.05 1.35 0 .65 0 1.3.0484375.0484375.05.1v.05q-.02988281.465625.05.9.01972656.12890625.05.25.02832031.02128906.05.05v.05q0 .4.05.8 0 .05.05.05.05.05.05.1.5.15.95.15.4.05.8 0 .1 0 .15 0 .25 0 .55 0l.05-.05q.25 0 .55 0 .3-.05.55-.1.1-.05.2-.05.05-.05.1-.1.3 0 .6 0h.05q.05.05.1.1.05 0 .15 0 .05.05.1.05.05-.05.15-.05h.05q0-.05.05-.1.15 0 .3-.05.05 0 .15 0 .1 0 .15 0 .05 0 .1 0 .1 0 .15 0l.05-.05q.3 0 .55 0 .1 0 .15-.05.05 0 .05-.05.1-.05.2-.15 0-.05.05-.1v-.05q.05-.05.05-.1 0-.05 0-.15 0-.1 0-.15 0-.05 0-.1 0-.05-.05-.05 0-.05 0-.1-.075-.075-.15-.2 0-.1 0-.25 0-.1 0-.25 0-.15 0-.3 0-.05-.05-.1-.05 0-.05-.05 0-.05 0-.1 0-.4 0-.8 0-.6 0-1.2 0-.5-.05-1.05 0-.05-.05-.05 0-.05 0-.1-.05-.05-.05-.1v-.05q0-.2 0-.35-.05-.15 0-.3 0-.15 0-.35-.05 0-.05-.05-.02949219-.02949219-.05-.05.05-.05.05-.1v-.05q0-.05 0-.1 0-.11464844 0-.2.05-.05.05-.1.05-.05.05-.1 0-.2 0-.4 0-.075 0-.15 0-.125 0-.25 0-.375 0-.75 0-.7 0-1.45 0-.65-.05-1.35 0-.05-.05-.1v-.05q0-.6 0-1.2 0-1 0-1.95 0-.9 0-1.85.05-.05.05-.1.05 0 .05-.05 0-.85 0-1.7 0-1.4 0-2.8 0-1.4 0-2.75 0-.05.05-.05 0-.05 0-.1 0-.3 0-.55 0-.35 0-.65 0-.3 0-.55.05-.05.05-.1 0-.05.05-.1v-.05q0-.15 0-.35-.05-.15-.05-.3 0-.15.05-.35.25117188.02519531.5.05 1.5.05 3 .05l.05.05q.1 0 .15 0 .25.05.5.05h.05q.05.05.1.05.25.05.5.05.1.05.15.05.65019531 0 1.3.05.05039063 0 .1 0 .3.1.55.15.1 0 .2.05.1.05.15.05.3 0 .6.05.1-.05.15-.05.23339844 0 .45 0 .14550781.06523438.25.1.15 0 .25.05.05.05.1.1.1 0 .2.05.32578125 0 .6 0 .29179688.08554688.55.15.9.2 1.85.3.05 0 .1 0 .4.1.75.2h.05l.05.05q.55.1 1.05.25.7.15 1.4.3.05 0 .1 0 .35.1.65.15l.05.05q.1.05.2.1.05 0 .15.05.05 0 .05.05.3.1.6.2.05 0 .15.05.15.05.3.1.2.05.35.1.05.05.1.05v.05q.1 0 .2.05.15 0 .3.05.1 0 .15 0 .1.05.25.1.05 0 .15.05h.05q.25.1.45.1 0 .05.05.05.05 0 .1 0v.05q.05.05.1.05.05.05.05.1.1 0 .25.05 0 .05.05.1.1 0 .2.05.15 0 .3 0h.05q.05.05.1.05l.05.05v.05q.05 0 .1.05.05.05.15.05.15.05.3.1.1 0 .2.05.2.05.4.1.15.05.3.1l.05.05q.1.05.2.1.1.05.15.05l.05.05q.1.05.15.05.05.05.1.05.15.05.3.1h.05q.05.05.1.05.1 0 .2.05.1 0 .15.05l.1.1q0 .05.05.1.05 0 .15.05.15 0 .3 0 0 .05.05.05.05 0 .1.05.05 0 .1 0l.05.05q.05.05.1.1h.05q.04101563.05585938.1.1.1.05.15.05.1.05.2.1.05 0 .1 0 .05-.05.1-.05.05 0 .05-.05.05 0 .05-.05l.05-.05v-.2q0-.05 0-.1 0-.05-.05-.1v-.05q-.1-.05-.15-.1-.05-.05-.1-.1l-.05-.05q-.05-.05-.05-.1-.05-.05-.1-.05 0-.05-.05-.1 0-.05 0-.1l-.05-.05q-.1-.1-.15-.15-.1-.1-.2-.2l-.05-.05q0-.15-.15-.25-.1-.1-.2-.25-.05-.1-.15-.25v-.05q0-.05 0-.1l-.05-.05q0-.05-.05-.1-.05-.05-.1-.1l-.05-.05q-.05-.05-.05-.1-.05-.05-.05-.1-.05 0-.1-.05 0-.05-.05-.1v-.05q0-.05-.05-.1 0-.05 0-.1l-.05-.05q0-.05-.05-.1v-.05q0-.05 0-.1-.05-.05-.05-.1-.05 0-.05-.05 0-.05 0-.1-.05-.05-.1-.05-.05-.05-.1-.1 0-.05-.05-.1-.05 0-.05-.05 0-.05-.05-.1v-.05q-.05-.05-.05-.1-.05-.05-.05-.1-.05-.05-.1-.05 0-.05 0-.1 0-.05-.05-.1l-.05-.05q-.05-.05-.05-.1l-.05-.05q-.05-.05-.05-.1-.15-.15-.25-.25-.25-.2-.35-.5-.1-.2-.35-.35-.05-.15-.15-.25-.25-.25-.45-.55-.15-.25-.4-.5 0-.05 0-.1 0-.05-.05-.05 0-.05-.05-.1 0-.05-.05-.1-.05 0-.1-.05-.1-.15-.2-.3-.15-.35-.35-.7-.15-.3-.45-.55 0-.05-.05-.05-.05-.1-.1-.2-.05 0-.05-.05-.05-.05-.05-.1 0-.05-.05-.05 0-.05 0-.1-.05-.05-.05-.1-.05 0-.05-.05-.05-.1-.1-.2-.05-.05-.1-.15-.05-.05-.1-.15-.05-.05-.05-.1-.05 0-.05-.05-.05-.05-.1-.1 0-.05-.05-.05 0-.05-.05-.1 0-.05 0-.1v-.05q0-.05-.05-.1v-.05q0-.05-.05-.1 0-.05 0-.1-.1-.15-.2-.3-.1-.15-.2-.3-.05-.15-.15-.25 0-.05-.05-.1 0-.05 0-.1-.05 0-.05-.05 0-.05-.05-.1v-.05q0-.05-.05-.1 0-.05 0-.1-.05 0-.05-.05-.05-.1-.1-.15-.05-.1-.1-.2-.05 0-.05-.05 0-.05-.05-.1v-.05q-.1-.2-.2-.35-.15-.15-.2-.3-.1-.15-.15-.25 0-.05-.05-.1v-.05q0-.05-.05-.1 0-.05 0-.1-.05 0-.1-.05-.05-.05-.1-.1l-.05-.05q-.05-.1-.1-.2l-.05-.05q0-.05-.05-.1v-.05q-.05-.05-.05-.1-.05-.1-.15-.25-.1-.1-.15-.25 0-.05-.05-.15v-.05q-.05-.05-.05-.1-.05-.05-.1-.1l-.05-.05q0-.05-.05-.1 0-.05 0-.1-.05 0-.05-.05 0-.05-.05-.1 0-.05-.05-.05 0-.05 0-.1-.05-.05-.05-.1-.05 0-.05-.05-.05-.05-.1-.1l-.05-.05q0-.05 0-.1-.05-.05-.05-.1l-.05-.05q0-.05 0-.1l-.05-.05q0-.05-.05-.1 0-.05 0-.1-.05 0-.05-.05 0-.05-.05-.1 0-.05-.05-.05 0-.05-.05-.1 0-.05 0-.1v-.05q-.05-.05-.05-.1-.05-.05-.05-.1v-.05q0-.05-.05-.1 0-.05-.05-.05 0-.05-.05-.1-.05-.05-.1-.1-.05 0-.05-.05 0-.05-.05-.1v-.05q-.05-.05-.05-.1-.05-.05-.05-.1v-.05q-.05-.05-.1-.1v-.05q0-.05-.05-.1 0-.05-.05-.1v-.05q0-.05 0-.1 0-.05-.05-.05 0-.05-.05-.1 0-.05 0-.1-.05 0-.05-.05 0-.05-.05-.1-.05-.05-.1-.15-.05-.1-.1-.15 0-.05-.05-.1 0-.05 0-.1v-.05q0-.05-.05-.1 0-.05-.05-.05 0-.05 0-.1 0-.05 0-.1-.05 0-.05-.05-.05-.05-.05-.1-.05-.05-.05-.1-.05 0-.05-.05 0-.05 0-.1v-.05q-.05-.05-.05-.1l-.05-.05q0-.05 0-.1 0-.05-.05-.1l-.05-.05q0-.05 0-.1l-.05-.05q-.05-.05-.1-.1 0-.05-.05-.1v-.05q-.05-.05-.05-.1 0-.05 0-.1-.05 0-.05-.05-.05-.05-.05-.1l-.05-.05q0-.05-.05-.1 0-.05 0-.1v-.05q-.05-.05-.05-.1 0-.05-.05-.05 0-.05 0-.1 0-.05-.05-.1l-.05-.05q0-.05-.05-.1 0-.05-.05-.05 0-.05 0-.1-.05-.05-.05-.1-.05 0-.05-.05-.05-.05-.05-.1v-.05q-.05-.05-.05-.1-.05-.05-.05-.1v-.05q-.05-.05-.05-.1l-.05-.05q0-.05-.05-.1-.05-.05-.05-.1v-.05q0-.05 0-.1 0-.05-.05-.1-.05-.1-.15-.2-.05-.1-.1-.2-.05-.05-.15-.15v-.05q-.05-.1-.1-.2-.1-.05-.15-.15l-.05-.05q0-.05-.05-.1 0-.05 0-.1-.05 0-.05-.05-.05-.1-.1-.15 0-.05-.05-.1 0-.05-.05-.1v-.05q0-.05-.05-.1 0-.05 0-.1-.05 0-.1-.05-.05-.05-.1-.1v-.05q0-.05-.05-.1 0-.05-.05-.1v-.05q0-.05 0-.1l-.05-.05q-.05-.05-.05-.1 0-.05-.05-.1v-.05q-.05-.05-.05-.1v-.05q0-.05 0-.1 0-.05 0-.1l-.05-.05q0-.05-.05-.1v-.05q-.05-.05-.05-.1-.05-.05-.05-.1v-.05q0-.05-.05-.1 0-.05 0-.1-.05 0-.1-.05-.05-.05-.1-.1v-.05q-.05-.05-.05-.1-.05-.05-.05-.1v-.05q0-.05 0-.1l-.05-.05q-.05-.05-.05-.1-.05-.05-.05-.1l-.05-.05q0-.05 0-.1l-.05-.05q0-.05-.05-.1 0-.05 0-.1v-.05q-.05-.1-.1-.2-.05-.05-.1-.15-.05-.05-.1-.15 0-.05-.05-.1v-.05q0-.05 0-.1v-.05q-.05-.05-.05-.1-.05-.05-.1-.05 0-.05-.05-.1 0-.05-.05-.1v-.05q0-.05-.05-.1 0-.05 0-.1v-.05q-.1-.15-.15-.25-.05-.1-.15-.25-.05-.05-.15-.15 0-.05 0-.1v-.05q0-.05-.05-.1-.05-.05-.1-.15 0-.05 0-.1l-.05-.05q0-.05 0-.1 0-.05 0-.1v-.05q-.05-.05-.05-.1l-.05-.05q0-.05 0-.1-.05-.05-.05-.1v-.05q-.05-.05-.05-.1 0-.05-.05-.05 0-.05 0-.1 0-.05 0-.1-.05 0-.1-.05 0-.05 0-.1v-.05q0-.05-.05-.1-.05-.1-.1-.15 0-.05-.05-.1v-.05q0-.05 0-.1-.05-.05-.05-.1v-.05q-.05-.05-.1-.1 0-.05 0-.1v-.05q0-.05 0-.1 0-.05-.05-.05 0-.05-.05-.1-.05-.05-.05-.1v-.05q0-.05 0-.1l-.05-.05q0-.05-.05-.1 0-.05-.05-.1l-.05-.05q0-.05 0-.1l-.05-.05q0-.05 0-.1 0-.05 0-.1v-.05q0-.05 0-.1 0-.05-.05-.05 0-.05-.05-.1 0-.05 0-.1-.05 0-.05-.05 0-.05-.05-.1l-.05-.05q-.05-.05-.1-.1 0-.05-.05-.1 0-.05-.05-.05 0-.05-.05-.1 0-.05-.05-.1v-.1q.06992188.02988281.15.05.1.05.2.1.05.05.1.05.05.05.1.1.05 0 .15.05.05 0 .1 0 .05.05.1.05.05.05.15.05v.05q.05 0 .1.05.05.05.15.1.05 0 .15.05.05 0 .05.05.1 0 .2.05.05 0 .1.05.05.05.1.1.1 0 .2.05h.05q.05.05.15.1h.05q0 .05.05.05.05.05.15.05.2.05.4.15l.05.05q.3.15.6.25.4.1.85.2v.05q.05 0 .05.05.1 0 .2.05.35.2.8.3.4.1.8.15.0421875 0 .05 0l.05.05q.053125.0015625.15.05.1.05.15.1.05.05.1.05.05.05.1.1.05.05.15.05 0 .05.05.05.2.05.35.1.05 0 .05.05.1 0 .2.05.1 0 .25 0v.05q.05 0 .15 0 .15.05.35.05.05 0 .1.05.1.05.2.05.15.05.35.05.05.05.1.05.05.05.1.1.1.05.2.05.05 0 .15-.05.05 0 .1 0 .1.05.2.05.25.05.5.1.05 0 .15 0h.05q.1 0 .15 0 .05 0 .15.05l.05.05q.05.05.15.05.1.05.2.05.0453125 0 .1 0 .05.05.1.1.1.05.2.05.05 0 .1 0 0-.05.05-.05l.05-.05q0-.05 0-.1.05 0 .05-.05 0-.05 0-.1v-.05q-.05-.05-.05-.1-.05-.05-.05-.1-.05 0-.1-.05 0-.05 0-.1l-.05-.05q-.05-.05-.05-.1-.05-.05-.1-.1v-.05q0-.05 0-.1-.05-.15-.15-.25-.05-.15-.2-.25-.1-.1-.2-.2 0-.05 0-.1-.05-.05-.05-.1-.05 0-.1-.05 0-.05-.05-.1v-.05q-.05-.05-.05-.1-.05-.05-.1-.1-.05 0-.1-.05-.05-.05-.1-.1v-.05q-.05-.05-.05-.1-.05-.1-.15-.15-.05-.05-.05-.1l-.05-.05q0-.05-.05-.1-.05-.05-.1-.1-.05 0-.1-.05-.05-.1-.1-.2-.05-.05-.1-.15-.05-.05-.1-.15-.1-.1-.15-.15-.05-.05-.05-.1v-.05q-.05-.05-.1-.1 0-.05-.05-.1-.05 0-.1-.05-.05-.05-.1-.1 0-.05-.05-.05 0-.05-.05-.1 0-.05-.05-.1l-.05-.05q0-.05 0-.1 0-.05-.05-.05-.05-.05-.05-.1-.05-.05-.1-.1l-.05-.05q0-.05-.05-.1 0-.05-.05-.05-.05-.1-.1-.2l-.05-.05q-.05-.05-.05-.1-.05-.05-.1-.1-.05-.05-.1-.15 0-.05-.05-.05-.05-.05-.05-.1-.05-.05-.1-.1-.0375 0-.1-.05 0-.05 0-.1v-.05q-.05-.05-.05-.1-.05-.05-.1-.1-.05 0-.1-.05 0-.0515625 0-.1l-.05-.05q-.0484375-.096875-.15-.2v-.05q-.05-.05-.05-.1-.05-.05-.1-.1-.05-.05-.1-.15 0-.05-.05-.05 0-.05-.05-.1-.05-.05-.05-.1-.05 0-.05-.05-.05-.05-.1-.1v-.05q0-.05-.05-.1 0-.05-.05-.1l-.05-.05q-.05-.05-.1-.1 0-.05-.05-.05 0-.05 0-.1-.05-.05-.1-.1v-.05q-.05-.05-.05-.1 0-.05-.05-.05 0-.05-.05-.1-.05-.05-.1-.1-.0984375 0-.15-.05-.05-.1-.15-.15-.05-.05-.05-.1-.05-.1-.1-.15-.05-.053125-.05-.1-.15-.15-.3-.3-.025-.0375-.05-.1 0-.1109375 0-.25 0-.2-.1-.3-.25-.35-.5-.7-.05605469-.07011719-.1-.15-.02988281-.02148437-.05-.05 0-.05-.05-.1v-.05q0-.05 0-.1v-.05q-.05-.05-.05-.1 0-.05-.05-.1v-.05q0-.05-.05-.1v-.05q-.05-.05-.05-.1 0-.05 0-.1v-.05q-.05-.1-.1-.15-.05-.1-.1-.2l-.05-.05q0-.05 0-.1 0-.05-.05-.05 0-.05-.05-.1-.05-.05-.05-.1-.05 0-.05-.05 0-.05-.05-.1 0-.05-.05-.05 0-.05 0-.1-.1-.15-.15-.25-.15-.2-.25-.4-.1-.2-.25-.4 0-.05 0-.1-.05 0-.05-.05-.05-.05-.05-.1v-.05q-.05-.1-.1-.2-.1-.05-.15-.15-.05-.05-.05-.15-.05-.05-.05-.1l-.05-.05q-.05-.1-.1-.15-.1-.15-.15-.25-.05-.1-.1-.2v-.05q0-.05 0-.1 0-.05-.05-.05 0-.05-.05-.1 0-.05-.05-.1-.05 0-.05-.05 0-.05 0-.1l-.05-.05q0-.05-.05-.1 0-.05 0-.1-.05 0-.05-.05-.05-.05-.05-.1-.05-.05-.05-.1v-.05q-.05-.05-.05-.1-.05 0-.05-.05-.05-.05-.05-.1v-.05q-.05-.05-.05-.1-.05-.05-.05-.1 0-.05-.05-.05 0-.05 0-.1 0-.05-.05-.1l-.05-.05q0-.1-.05-.15-.05-.1-.1-.2-.05-.05-.1-.15v-.05q0-.05 0-.1 0-.05-.05-.1l-.05-.05q-.05-.05-.05-.1l-.05-.05q0-.05 0-.1 0-.05 0-.1-.05 0-.05-.05 0-.05-.05-.1 0-.05-.05-.05 0-.05-.05-.1 0-.05 0-.1 0-.05-.05-.05 0-.05-.05-.1v-.05q-.05-.05-.05-.1-.05-.05-.05-.1v-.05q0-.05 0-.1-.05-.05-.05-.1l-.05-.05q0-.05 0-.1l-.05-.05q-.05-.1-.1-.2 0-.05-.05-.15l-.05-.05v-.1q-.05-.05-.05-.1v-.05q-.05-.05-.05-.1 0-.05-.05-.05 0-.1-.05-.2 0-.05-.05-.15 0-.05 0-.1-.05 0-.05-.05 0-.05 0-.1v-.05q-.05-.05-.05-.1v-.05q-.05-.05-.05-.1-.05-.05-.05-.1v-.05q-.05-.05-.05-.1-.05-.05-.05-.1-.05 0-.05-.05-.05-.05-.1-.1v-.05q-.05-.05-.05-.1 0-.05 0-.1v-.05q-.05-.05-.05-.1l-.05-.05q-.05-.05-.05-.1 0-.05 0-.1-.05-.05-.05-.15 0-.05-.05-.05 0-.05-.05-.1 0-.05 0-.1v-.05q-.05-.05-.05-.1 0-.05 0-.1-.05 0-.05-.05 0-.05 0-.1-.05-.05-.05-.15 0-.1 0-.15 0-.05 0-.1 0-.05-.05-.05 0-.05 0-.1-.05-.05-.05-.1v-.05q-.05-.05-.05-.1l-.05-.05q0-.05-.05-.1 0-.05 0-.1v-.05q0-.05-.05-.1-.05-.05-.05-.15-.05-.1-.1-.15 0-.05 0-.1 0-.05-.05-.05 0-.05-.05-.1 0-.05 0-.1v-.05q0-.05 0-.1 0-.05-.05-.1l-.05-.05q0-.05 0-.1v-.05q0-.05 0-.1 0-.05-.05-.1v-.05q-.05-.05-.05-.1 0-.05-.05-.05 0-.05-.05-.1 0-.05 0-.1v-.05q0-.05 0-.1-.05-.05-.15-.15-.025-.05-.05-.1-.0484375-.0484375-.05-.1v-.05q0-.05-.05-.05 0-.05-.05-.1v-.1q0-.0515625 0-.1 0-.05-.05-.05 0-.05 0-.1 0-.05 0-.1v-.05q0-.05 0-.1 0-.05-.05-.1l-.05-.05q0-.05 0-.1v-.05q0-.05 0-.1 0-.05 0-.1v-.05q-.05-.05-.05-.1l-.05-.05q0-.05 0-.1 0-.05 0-.1v-.05q0-.05 0-.1v-.05q-.05-.05-.05-.1 0-.05 0-.1-.05 0-.05-.05 0-.05 0-.1v-.05q0-.05 0-.1-.05-.05-.05-.1-.05 0-.05-.05-.05-.05-.05-.1 0-.05 0-.1-.05 0-.05-.05-.05-.05-.05-.1v-.05q0-.05 0-.1 0-.05 0-.1l-.05-.05q0-.05 0-.1 0-.05-.05-.05 0-.05 0-.1-.05-.05-.05-.1v-.05q0-.05 0-.1v-.05q-.05-.05-.05-.1 0-.05 0-.1v-.05q0-.1 0-.15 0-.1 0-.2 0-.05-.05-.15v-.05q-.05-.05-.05-.1 0-.05 0-.1l-.05-.05q0-.05-.05-.1 0-.05 0-.1l-.05-.05q0-.05 0-.1v-.05q-.05-.05-.05-.1 0-.05 0-.1v-.05q0-.05-.05-.1v-.05q-.05-.05-.05-.1-.05-.05-.05-.1v-.05q0-.05 0-.1v-.05q-.05-.05-.05-.1 0-.05 0-.1-.05 0-.05-.05 0-.05-.05-.1v-.05q0-.05-.05-.1 0-.05-.05-.1v-.05q0-.05 0-.1 0-.05 0-.1v-.05q0-.05 0-.1v-.05q0-.05-.05-.1 0-.05 0-.1v-.05q0-.1 0-.15 0-.05 0-.1 0-.05-.05-.1l-.05-.05q0-.05 0-.1v-.05q-.05-.05-.05-.1 0-.05-.05-.1v-.05q0-.05 0-.1v-.05q-.05-.05-.05-.1 0-.05 0-.1-.05 0-.05-.05 0-.05 0-.1 0-.05 0-.1v-.05q-.05-.05-.05-.1l-.05-.05q0-.05-.05-.1 0-.05 0-.1v-.05q0-.05 0-.1l-.05-.05q0-.05 0-.1-.05-.05-.05-.1v-.05q0-.05 0-.1v-.05q0-.05 0-.1 0-.05 0-.1v-.05q-.05-.05-.05-.1v-.05q-.0484375-.0484375-.05-.1 0-.05 0-.1v-.05q0-.06875 0-.15 0-.2 0-.35 0-.1-.05-.25v-.05q-.0484375-.0484375-.05-.1 0-.05 0-.1v-.05q0-.05 0-.1 0-.0375-.05-.05.0125-.025 0-.05v-.05q-.0484375-.0484375-.05-.1v-.4q-.05-.05-.05-.1v-.05q-.03671875-.03671875-.05-.1v-.15q0-.05 0-.1 0-.05-.05-.05 0-.05 0-.1 0-.05-.05-.15v-.05q0-.175 0-.35 0-.2 0-.4 0-.2-.05-.4-.05-.05-.05-.1-.05-.05-.05-.1-.05 0-.05-.05 0-.05 0-.1v-.05q0-.05 0-.1 0-.05 0-.1v-.05q-.05-.05-.05-.1l-.05-.05q0-.05 0-.1 0-.05 0-.1v-.05q-.05-.05-.05-.1 0-.05-.05-.1v-.05q0-.1 0-.15 0-.15 0-.25 0-.1 0-.15 0-.05-.05-.1 0-.05 0-.1-.05 0-.05-.05 0-.05 0-.1 0-.05 0-.15 0-.1 0-.15 0-.05 0-.1-.05-.05-.05-.1-.05 0-.05-.05 0-.05 0-.1 0-.05 0-.15 0-.05 0-.15 0-.1 0-.15-.05-.05-.05-.1-.05-.05-.05-.1v-.05q0-.1 0-.15-.05-.15-.05-.25-.05-.1-.05-.15l.05.05q.05.05.1.1.1.05.15.1.1 0 .2.05 0 .05.05.1.1.05.15.05.1.05.15.05.1.05.2.1.05 0 .15.05.05.05.15.05.05.05.1.05.05.05.1.1.05.05.1.05.05.05.15.1.05.05.1.1.15.05.25.15.05.05.1.1.1 0 .15.05.05 0 .05.05.05 0 .05.05.05.05.05.1.1.05.2.05.1.05.2.1.05.05.1.05.05.05.05.1.1 0 .15.05h.05q0 .05.05.05 0 .05.05.1.1.05.2.05l.05.05q.05.05.15.1 0 .05.05.05.1.05.2.1 0 .05.05.05.05.05.1.1 0 .05.05.05.1.05.2.1.05 0 .1.05.05.05.1.1.1 0 .15.05.1.05.2.05.05.05.1.05l.05.05q.05.05.1.1.1.05.15.05.05 0 .05.05v.05q.05.05.1.05.1.05.2.05 0 .05.05.05.05.05.1.1.1.05.2.05l.05.05q.05.05.05.1.05.05.1.05.1.05.2.1.05 0 .1.05.05 0 .05.05.3.1.55.25.15.1.3.15 0 .05.05.1 0 .05.05.05.1.05.2.05.05.05.1.05.05.05.1.05.05.05.1.1.1.05.15.05.1.05.15.1h.05q.05.05.1.1.1.05.2.05v.05q.05.05.05.1.05.05.1.05.1.05.2.1l.05.05q.1 0 .15.05.1.05.2.05 0 .05.05.05v.05q.05.05.1.05.1.05.2.1.1 0 .2 0 .1-.05.15-.1.1 0 .15-.05.05-.05.15-.1v-.05q.05-.05.05-.1 0-.05 0-.1v-.05q0-.05 0-.1l-.05-.05q0-.05-.05-.1-.05-.05-.05-.1-.05 0-.1-.05 0-.05-.05-.1v-.05q-.05-.05-.05-.1-.05-.05-.1-.1l-.05-.05q0-.05 0-.1l-.05-.05q-.05-.05-.1-.1-.05-.05-.1-.1-.05 0-.05-.05-.05-.05-.05-.1 0-.05-.05-.05 0-.05-.05-.1-.05-.05-.1-.1v-.05q-.05-.05-.05-.1-.05-.05-.1-.1l-.05-.05q0-.05-.05-.1v-.05q-.05-.05-.1-.1-.046875-.046875-.1-.1 0-.05 0-.1v-.05q0-.05-.05-.1 0-.05-.05-.05 0-.05 0-.1 0-.05 0-.1v-.05q-.05-.05-.05-.1 0-.05-.05-.05-.1-.15-.2-.3-.05-.05-.1-.15-.05 0-.05-.05 0-.05 0-.1 0-.05-.05-.05 0-.05-.05-.1-.05-.05-.05-.1-.05 0-.05-.05-.05-.05-.1-.1v-.05q0-.05-.05-.1 0-.05-.05-.1v-.05q-.05-.05-.05-.1v-.05q-.05-.05-.05-.1-.1-.1-.15-.25-.05-.05-.15-.15-.05-.05-.05-.1-.05-.05-.1-.15 0-.1-.05-.15-.05-.1-.1-.15 0-.05-.05-.1 0-.05 0-.1v-.05q-.05-.15-.15-.35-.15-.15-.25-.3-.1-.1-.15-.15 0-.05-.05-.1v-.05q0-.05-.05-.1 0-.05-.05-.1v-.05q-.05-.05-.1-.1-.05-.05-.05-.1-.05 0-.05-.05 0-.05 0-.1v-.05q-.05-.05-.05-.1-.05-.05-.05-.1-.05 0-.1-.05-.05-.05-.05-.1l-.05-.05q-.05-.05-.05-.1 0-.05-.05-.1v-.05q-.05-.05-.05-.1 0-.05-.05-.05 0-.05 0-.1-.05-.05-.05-.1l-.05-.05q0-.05-.05-.1v-.05q-.05-.05-.05-.1-.05-.05-.05-.1v-.05q-.05-.05-.05-.1l-.05-.05q-.05-.05-.05-.1-.05-.05-.1-.1l-.05-.05q0-.05 0-.1-.05-.05-.05-.1-.05 0-.05-.05 0-.05 0-.1 0-.05-.05-.05 0-.05 0-.1 0-.05-.05-.1v-.05q-.05-.05-.05-.1l-.05-.05q-.05-.05-.05-.1 0-.05-.05-.1v-.05q0-.05-.05-.1v-.05q-.05-.05-.05-.1-.05-.05-.05-.1-.05 0-.05-.05 0-.05 0-.1 0-.05-.05-.05 0-.05-.05-.1 0-.05-.05-.1v-.05q-.05-.05-.05-.1-.05-.05-.05-.1l-.05-.05q0-.05 0-.1l-.05-.05q-.05-.05-.05-.1 0-.05-.05-.1v-.05q0-.05 0-.1l-.05-.05q0-.05-.05-.1 0-.05-.05-.1v-.05q0-.05-.05-.1v-.05q0-.05-.05-.1 0-.05-.05-.1l-.05-.05q0-.05-.05-.1v-.05q-.05-.05-.05-.1 0-.05 0-.1-.05 0-.05-.05 0-.05 0-.1-.05-.05-.05-.1-.05 0-.05-.05 0-.05 0-.1v-.05q0-.05-.05-.1v-.05q-.05-.05-.05-.1 0-.05 0-.1 0-.05-.05-.05 0-.05 0-.1-.05-.05-.05-.1-.05 0-.05-.05 0-.05 0-.1l-.05-.05q0-.05 0-.1 0-.05-.05-.1l-.05-.05q0-.05-.05-.1 0-.05-.05-.05 0-.05 0-.1-.05-.05-.05-.1v-.05q0-.05 0-.1v-.05q0-.05 0-.1-.05-.05-.05-.1v-.05q-.05-.05-.05-.1 0-.05 0-.1v-.05q0-.05 0-.1-.05-.05-.1-.05 0-.05-.05-.1 0-.05 0-.1-.05 0-.1-.05-.05-.05-.05-.1l-.05-.05q0-.05 0-.1-.05-.05-.05-.1l-.05-.05q0-.05 0-.1-.05-.05-.1-.05 0-.05 0-.1 0-.05-.05-.1l-.05-.05q0-.05-.05-.1v-.05q-.05-.05-.05-.1 0-.05 0-.1-.05 0-.05-.05-.05-.05-.05-.1v-.05q0-.05-.05-.1 0-.05 0-.1l-.05-.05q0-.05 0-.1-.05-.05-.05-.1l-.05-.05q0-.1-.05-.15 0-.1-.05-.2v-.05q0-.05-.05-.1 0-.05-.05-.05 0-.05-.05-.1 0-.05 0-.1l-.05-.05q0-.05 0-.1l-.05-.05q0-.05 0-.1-.05-.05-.05-.1l-.05-.05q0-.05 0-.1v-.05q-.05-.05-.05-.1 0-.05-.05-.1v-.05q0-.05 0-.1 0-.05 0-.1l-.05-.05q0-.05 0-.1l-.05-.05q0-.05 0-.1 0-.05 0-.1v-.05q-.05-.05-.05-.1 0-.05-.05-.05 0-.05 0-.1 0-.05 0-.1l-.05-.05q0-.05 0-.1 0-.05-.05-.05-.05-.05-.05-.1 0-.05 0-.1v-.05q0-.05-.05-.1v-.05q-.05-.05-.05-.1 0-.05 0-.1 0-.05-.05-.05 0-.05 0-.1-.05-.05-.05-.1v-.05q-.05-.05-.05-.1v-.05q-.05-.05-.05-.1 0-.05 0-.1v-.05q0-.05-.05-.1v-.05q-.05-.05-.05-.1 0-.05 0-.1v-.05q0-.05 0-.1 0-.05-.05-.05 0-.05-.05-.1 0-.05-.05-.1v-.05q-.05-.05-.05-.1v-.05q0-.05 0-.1 0-.05-.05-.1v-.05q0-.05-.05-.1 0-.05-.05-.1v-.05q0-.05 0-.1 0-.05-.05-.05 0-.05 0-.1-.05-.05-.05-.1v-.05q0-.05-.05-.1v-.05q-.05-.05-.05-.1 0-.05 0-.1v-.05q-.05-.05-.05-.1v-.05q-.05-.05-.05-.1 0-.05 0-.1v-.05q0-.05-.05-.1 0-.05-.05-.05 0-.05 0-.1 0-.05-.05-.1v-.05q-.05-.05-.05-.1l-.05-.05q0-.05-.05-.1 0-.05 0-.1 0-.05-.05-.05 0-.05 0-.1 0-.05 0-.1-.05 0-.1-.05 0-.05 0-.1v-.05q0-.05 0-.1 0-.05 0-.1l-.05-.05q0-.05 0-.1l-.05-.05q0-.05 0-.1 0-.05 0-.1l-.05-.05q0-.05 0-.1l-.05-.05q0-.05-.05-.1 0-.05 0-.1v-.05q0-.05-.05-.1v-.05q0-.05 0-.1 0-.05-.05-.1v-.05q-.05-.05-.05-.1 0-.05 0-.1v-.05q0-.05-.05-.1 0-.05-.05-.05 0-.05 0-.1-.05-.05-.05-.1v-.05q-.05-.05-.05-.1 0-.05-.05-.05 0-.05 0-.1 0-.05 0-.1-.05 0-.1-.05 0-.05 0-.1v-.05q0-.05 0-.1 0-.05-.05-.1l-.05-.05q0-.05 0-.1v-.05q0-.05 0-.1-.05-.05-.05-.1v-.05q-.05-.05-.05-.1 0-.05-.05-.05 0-.05 0-.1 0-.05 0-.1l-.05-.05q0-.05 0-.1 0-.05 0-.1v-.05q0-.05-.05-.1v-.05q-.05-.05-.05-.1 0-.05 0-.1v-.05q0-.05-.05-.1 0-.05-.05-.05 0-.05 0-.1 0-.05 0-.1-.05 0-.05-.05 0-.05 0-.1l-.05-.05q0-.05-.05-.1 0-.05 0-.1l-.05-.05q-.05-.05-.05-.1v-.05q0-.05 0-.1 0-.05-.05-.1v-.05q-.05-.05-.05-.1 0-.05 0-.1-.05 0-.05-.05 0-.05 0-.1l-.05-.05q0-.05 0-.1 0-.05 0-.1l-.05-.05q0-.05 0-.1 0-.05-.05-.05 0-.05 0-.1 0-.05 0-.1v-.05q0-.05-.05-.1 0-.05-.05-.05v-.2l-.05-.05v-.1l-.05-.05v-.3q-.05-.05-.05-.1-.05 0-.05-.05 0-.05 0-.1v-.05q0-.05 0-.1v-.05q-.05-.05-.05-.1-.05-.1-.05-.15 0-.05 0-.1 0-.05-.05-.1v-.05q-.05-.05-.05-.1l-.05-.05v-.25q0-.05 0-.1v-.05q0-.05-.05-.1 0-.05 0-.1-.0484375 0-.05-.05v-.15q0-.05 0-.1-.0484375-.0484375-.05-.1v-.1q0-.05 0-.1-.05-.05-.05-.1l-.05-.05v-.1q0-.0515625 0-.1 0-.05-.05-.1v-.25q0-.05 0-.1-.0484375-.0484375-.05-.1v-.15q0-.05 0-.1 0-.05-.05-.1v-.05q0-.05 0-.15v-.05q-.0484375-.0484375-.05-.1v-.05q0-.05 0-.15 0-.05-.05-.15v-.1q0-.06347656 0-.1 0-.05 0-.1-.05-.05-.05-.1h-.05v-.05-.1q0-.05 0-.1-.0484375-.0484375-.05-.1v-.1q0-.05 0-.1 0-.05-.05-.05v-.2q0-.05-.05-.1v-.1q0-.05 0-.1-.0484375-.0484375-.05-.1 0-.04121094 0-.1v-.05q0-.05 0-.1 0-.05 0-.1-.0484375 0-.05-.05v-.05q0-.05 0-.1-.0484375-.0484375-.05-.1v-.4q0-.05-.05-.1 0-.05-.05-.05 0-.0515625 0-.1 0-.1 0-.15 0-.05 0-.1v-.05q0-.05 0-.1-.05-.05-.05-.1l-.05-.05v-.15q0-.05 0-.1 0-.05 0-.1v-.05q0-.05039062 0-.1 0-.15 0-.3-.05859375-.1171875-.1-.2v-.05q0-.05 0-.1l-.05-.05q0-.0640625 0-.1-.0484375-.0484375-.05-.1v-.05q0-.05 0-.1v-.05q0-.05 0-.1 0-.05-.05-.1v-.15q0-.05 0-.1-.05-.05-.05-.1-.0484375 0-.05-.05v-.25q0-.05-.05-.1v-.05q-.0484375-.0484375-.05-.1v-.2q.0015625-.0515625.05-.1v-.05q0-.05 0-.1l-.05-.05q0-.03652344-.05-.1.01347656-.00976563 0-.05 0-.05 0-.15 0-.05-.05-.1v-.05q0-.05 0-.1v-.05q0-.05 0-.1 0-.05 0-.1-.05 0-.05-.05 0-.05-.05-.1v-.05q0-.3 0-.6 0-.3 0-.6.05-.3 0-.6 0-.05-.05-.05 0-.05 0-.1-.05-.05-.05-.1v-.05q0-.05 0-.1v-.05q0-.05 0-.1 0-.05-.05-.1v-.05q0-.05.05-.1v-.05q0-.05 0-.1-.05-.05-.05-.1l-.05-.05q0-.05-.05-.1-.1 0-.15-.05m-16.9 85.1q-.05957031.02304688-.15.05.05351563-.02675781.1-.05.03789063-.00625.05 0m37.9 31.8-.05-.05q.10332031.03984375.2.05.06054688.06054688.1.1-.03535156 0-.1 0-.05-.05-.15-.1m-23.25 25.35h-.05q.06503906-.01328125.1-.05-.01855469.034375-.05.05z" fill="#699"/>
        </g>
        <g id="S_mbolo_2_0_Layer0_0_FILL">
            <path d="m27 0-.05.05q-.15.3-.3.6-.15.3-.2.65-.05.1-.05.3 0 .15-.05.3-.05.15-.1.3-.1.15-.15.3-.05.35-.05.65-.05.3-.05.6 0 .15 0 .3 0 .15 0 .35-.1.1-.2.3-.05.15-.1.3-.05.15-.05.3-.05.15-.05.3 0 .15 0 .3 0 .15-.05.35 0 .15-.05.3-.05.15-.15.3-.05.15-.1.35-.1.1-.1.25 0 .15 0 .35 0 .15 0 .3 0 .15 0 .3 0 .15 0 .3-.1.15-.2.3-.1.15-.2.35-.05.15-.1.3-.05.15-.1.3-.05.15-.1.3-.05.15-.1.3 0 .15 0 .35 0 .1 0 .3-.05.15-.1.3-.05.15-.1.3-.15.3-.3.6-.1.15-.2.35-.05.15-.15.3 0 .15 0 .3 0 .15 0 .3 0 .15 0 .35 0 .1 0 .3 0 .15-.1.3 0 .15-.1.3-.05.15-.1.3-.05.15-.1.35-.1.1-.2.3-.05.15-.1.25-.1.2-.2.35-.3.9-.5 1.85-.25 1.25-.75 2.5-.35 1.05-.7 2.15 0 .15 0 .3 0 .15 0 .35 0 .1 0 .3 0 .15 0 .3 0 .15 0 .3-.45 1.4-.85 2.8-.55 1.85-1.1 3.7-.55 1.7-.95 3.4.05 1.15-.25 2.15-.45 1.4-.75 2.85-.25 1.05-.65 2.15-.1.15-.2.3-.15.3-.3.6-.05.15-.15.3-.1.2-.2.35-.4 1.4-.75 2.8-.5 2.15-1.1 4.35-.55 1.85-1.25 3.7-.1.15-.15.3-.1.15-.15.3-.1.15-.2.3-.85 2.95-1.65 5.9-1.3 4.85-2.9 9.6-1.6 4.8-3.2 9.6-.1.15-.15.3-.05.15-.05.3 0 .15 0 .35 0 .15 0 .3 0 .05 0 .1-.025.025-.05.05v.05q-.025.025-.05.05 0 .05-.05.1 0 .05 0 .1v.05q-.0015625.0515625-.05.1 0 .05 0 .1v.05q-.05.075-.1.15-.07539062.26425781-.15.5l-.05.05q0 .05 0 .1-.05.15-.1.3-.0109375.03300781-.05.05v.05q0 .05-.05.1 0 .05-.05.05 0 .05-.05.1 0 .05 0 .1-.05.05-.05.1v.1q-.05.05-.05.1-.05.05-.1.1 0 .05 0 .1v.05q0 .05-.05.1 0 .05 0 .1-.05.05-.05.1 0 .05 0 .1-.05.05-.05.1-.05.05-.05.1-.05 0-.05.05 0 .05 0 .1-.05.05-.1.1-.05.1-.1.2 0 .1-.05.2v.05q0 .05 0 .1 0 .05 0 .1-.05.05-.1.1 0 .05 0 .1 0 .05 0 .1 0 .05 0 .1v.05q-.05.05-.1.1-.05.05-.05.1 0 .05 0 .1 0 .05 0 .1 0 .05 0 .1-.05.05-.05.1 0 .05-.05.05 0 .05 0 .1 0 .05 0 .1-.05.05-.1.1-.05.05-.05.1 0 .05 0 .1 0 .05 0 .1v.05q0 .05 0 .1-.05.05-.05.1-.05.05-.05.1 0 .05 0 .1 0 .05 0 .1 0 .05 0 .1 0 .05-.05.05 0 .05-.05.1 0 .05-.05.1 0 .05 0 .1 0 .05 0 .1 0 .05 0 .1-.05.05-.05.1-.05.1-.05.15 0 .1-.05.2-.05.05-.05.1-.05.05-.05.1 0 .05 0 .1 0 .05 0 .1v.05q-.05.05-.05.1 0 .05 0 .1-.05.05-.05.1 0 .05 0 .1 0 .05 0 .1 0 .05 0 .1-.05 0-.05.05-.05.05-.05.1-.05.05-.05.1 0 .05 0 .1 0 .05 0 .1 0 .05 0 .1-.05.05-.05.1-.05.05-.1.1v.05q0 .05 0 .1 0 .05 0 .1-.05.05-.05.1 0 .05-.05.1 0 .05 0 .1v.05q0 .05 0 .1 0 .05 0 .1 0 .05 0 .1-.05.05-.05.1-.05.05-.1.1 0 .05 0 .1v.05q-.05.05-.1.1 0 .05 0 .1-.05.05-.05.1 0 .05 0 .1 0 .05 0 .1 0 .05-.05.1-.05.05-.05.1v.05q0 .05 0 .1 0 .05 0 .1-.05.05-.05.1 0 .05-.05.1 0 .05-.05.1 0 .05 0 .1v.05q0 .05 0 .1-.05.05-.05.1-.05.05-.05.1 0 .05 0 .1 0 .05 0 .1 0 .05 0 .1l-.05.05q0 .05-.05.1 0 .05 0 .1 0 .05 0 .1 0 .05 0 .1 0 .05-.05.1 0 .05-.05.1-.05 0-.05.05 0 .05 0 .1 0 .05 0 .1-.05.05-.05.1-.05.05-.05.1 0 .05 0 .1 0 .05 0 .1 0 .05-.05.05 0 .05-.05.1 0 .05-.05.1 0 .05 0 .1 0 .05 0 .1 0 .05 0 .1 0 .05-.05.1 0 .05-.05.05 0 .05 0 .1 0 .05-.05.1 0 .05-.05.1 0 .05-.05.1 0 .05 0 .1 0 .05 0 .1v.05q0 .05 0 .1-.05.05-.05.1-.05.05-.05.1 0 .05 0 .1 0 .05 0 .1 0 .05-.05.1 0 .05-.05.05 0 .05-.05.1 0 .05 0 .1 0 .05 0 .1 0 .05-.05.1 0 .05-.05.1 0 .05 0 .1 0 .05 0 .1-.05 0-.1.05 0 .05-.05.1 0 .05 0 .1 0 .05 0 .1 0 .05 0 .1 0 .05-.05.1 0 .05-.05.1v.05q0 .05 0 .1-.05.05-.1.1 0 .05-.05.1 0 .05 0 .1 0 .05 0 .1 0 .05 0 .1v.05q.05.05.1.1 0 .05.05.1 0 .05 0 .1 0 .05 0 .1 0 .05 0 .1 0 .05.05.1l.05.05q.1.05.2.1.1-.05.15-.05.05 0 .05-.05.05 0 .05-.05.05-.05.1-.1 0-.05 0-.1l.05-.05q.05-.05.1-.1 0-.05.05-.1.05-.05.05-.1 0-.05 0-.1 0-.05 0-.1.1-.05.2-.1.05 0 .15-.05.05-.05.1-.1 0-.05 0-.1.05-.05.05-.1.05-.05.15-.1 0-.05.05-.1 0-.05.05-.1l.05-.05q.05-.05.05-.1.1-.1.15-.2.1-.15.2-.3.1-.1.15-.25.05-.1.15-.2.1-.1.2-.2.05-.05.1-.05 0-.05.05-.1.1-.05.15-.1 0-.05.05-.1.05-.05.05-.1 0-.05 0-.1.05-.05.1-.1.05-.05.1-.05.05-.05.1-.1 0-.05.05-.1.05-.05.15-.1 0-.05.05-.1.05-.1.15-.2.05-.1.1-.15.1-.05.15-.1.05-.05.1-.1 0-.05.05-.1.05-.1.1-.15.1-.15.2-.2.05-.05.05-.1.05-.05.05-.1 0-.05.05-.1.05-.05.05-.1.05-.05.1-.1 0-.05.05-.1v-.05q.05-.05.05-.1.05-.05.05-.1.05-.05.1-.1 0-.05 0-.1.05-.05.05-.1l.05-.05q.05-.05.1-.1 0-.05.05-.1 0-.05 0-.1h.05q.05 0 .05-.05.05 0 .05-.05.05-.05.1-.1.05-.05.05-.1.05-.05.05-.1.05-.05.1-.1l.05-.05q0-.05 0-.1.05-.1.15-.2.1-.15.25-.25.1-.1.2-.2.15-.3.35-.55.45-.55.9-1.1.45-.6.85-1.15 0-.05.05-.1 0-.05 0-.1 0-.05 0-.1.05 0 .1-.05 0-.05.05-.1.05-.05.1-.1.05-.05.15-.1.05-.15.15-.25.1-.25.25-.5.15-.15.2-.35.05-.05.1-.1 0-.05.05-.1 0-.05 0-.1.3-.25.5-.55.25-.4.55-.85.14394531-.19199219.25-.4.02714844.02714844.05.05 0 .05 0 .1v.05q.05.05.05.1.05.05.05.1 0 .05 0 .1 0 .05 0 .1.05.05.1.1 0 .05.05.1v.05q0 .05.05.1v.1q.05.05.05.1 0 .05 0 .1 0 .05 0 .1 0 .05 0 .1 0 .05.05.05 0 .05 0 .1.05.05.05.1 0 .05 0 .1 0 .05 0 .1 0 .05 0 .1 0 .05 0 .1.05.05.05.1.05 0 .05.05 0 .05.05.1 0 .05 0 .1 0 .05 0 .1 0 .05 0 .1.05.05.1.1 0 .1015625 0 .2 0 .05 0 .1.05.05.05.1 0 .05.05.1v.05q0 .05 0 .1 0 .05 0 .1.0484375.0484375.05.1v.05q.025.025.05.05 0 .05 0 .1.05.05.05.1v.05q0 .05 0 .1.05.05.05.1 0 .05 0 .1 0 .05 0 .1 0 .05.05.1 0 .05 0 .1.0484375.0484375.05.1v.05q0 .05 0 .1 0 .05.05.05.0484375.0484375.05.1v.05q0 .05 0 .1 0 .05 0 .1.0484375.0484375.05.1v.05q0 .0515625 0 .1 0 .05.05.1 0 .05 0 .1.0484375.0484375.05.1v.05q0 .05.05.1.0484375.0484375.05.1 0 .04296875 0 .1 0 .15 0 .3 0 .1 0 .2 0 .05 0 .15 0 .05.05.1 0 .05 0 .1 0 .05 0 .1 0 .05 0 .1 0 .05 0 .1v.05q0 .05 0 .1.05.05.1.1 0 .05.05.1 0 .05 0 .1 0 .05.05.1v.1q0 .05.05.05 0 .05 0 .1 0 .05 0 .1.0484375.0484375.05.1v.05q0 .05 0 .1.05.05.05.1.0484375.0484375.05.1 0 .1 0 .2 0 .05 0 .1 0 .1 0 .2.05.05.05.1 0 .05.05.1v.05q0 .05 0 .1 0 .05 0 .1 0 .05 0 .1 0 .05 0 .1 0 .05 0 .1.05.05.1.1l.05.05q0 .05 0 .1 0 .05 0 .1 0 .05 0 .1 0 .05 0 .1 0 .05.05.1 0 .05 0 .1.05 0 .05.1v.05q0 .05 0 .1 0 .05 0 .1 0 .05 0 .1 0 .05 0 .1.05.05.05.1l.05.05q.05.05.05.1 0 .05 0 .1 0 .1 0 .2 0 .15 0 .25 0 .1.05.2 0 .1 0 .2.05.05.05.1 0 .05 0 .1v.05q0 .05 0 .1 0 .05 0 .1 0 .05 0 .1.05.05.05.1.05.05.1.1 0 .05 0 .1v.05q0 .1 0 .2 0 .05 0 .1 0 .1 0 .2.05.05.05.1 0 .05.05.1v.05q.05.05.05.1.1.05.2.05.05 0 .15 0l.05-.05v-.05q.05-.05.05-.1 0-.046875.05-.1.05-.05.05-.1l.05-.05q0-.05 0-.1 0-.0734375 0-.15.05 0 .05-.05.05-.1.15-.2.05-.05.1-.1.05-.05.1-.05.15-.2.25-.4.15-.3.4-.6.15-.15.3-.35.05 0 .15-.05.1-.1.15-.2.05-.05.05-.1.05-.05.05-.1.05-.05.05-.1.2-.15.35-.35.25-.3.5-.55.25-.25.45-.55.05-.05.05-.1 0-.05 0-.1.1-.15.25-.3.05-.1.1-.15.05-.05.1-.1 0-.05.05-.1.05-.05.1-.1.3-.4.6-.75.15-.25.35-.4 1.1-1.1 2.05-2.35.33203125-.44902344.65-.9l.05.05q.05.1.1.2.05.1.1.2l.05.05q0 .05 0 .1.05.05.05.1.05.05.05.1.05.05.05.1 0 .05.05.1 0 .05 0 .1l.05.05q0 .05.05.1 0 .05.05.1 0 .05 0 .1.05.05.05.1.05.1.05.2.05.1.1.15 0 .05.05.1 0 .05 0 .1.05.05.05.1 0 .05.05.1 0 .05 0 .1.15.2.3.45.07324219.18300781.2.35 0 .07207031 0 .15-.05.3-.05.55.05.2.05.4 0 .05 0 .1v.05q0 .05 0 .1 0 .25 0 .5 0 .2-.05.45 0 .15.05.25 0 .05.05.1 0 .05 0 .1.05.05.05.1 0 .05 0 .1 0 .05-.05.1 0 .05-.05.1 0 .05 0 .1 0 .05 0 .15 0 .15 0 .3 0 .1 0 .2 0 .05 0 .15 0 .05.05.1 0 .05.05.1 0 .05 0 .1 0 .4 0 .85-.05.5-.05 1 0 .35 0 .75.05.05.1.1 0 .05.05.1v.05q0 .05 0 .1 0 .15 0 .3 0 .1 0 .2v.05q0 .05-.05.1-.05.05-.05.1-.05.05-.05.1 0 .05 0 .1 0 .05 0 .1 0 .05 0 .1 0 .05 0 .1v.05q.05.05.05.1.05.05.05.1 0 .3 0 .55 0 .3 0 .55 0 .2 0 .4.05.05.05.1.05.05.05.1l.05.05q-.05.7-.05 1.3 0 .95 0 1.9 0 .8.05 1.55 0 .05.05.1 0 .05.05.1 0 .4 0 .85 0 .45 0 .9 0 .4 0 .75 0 .05.05.1 0 .05.05.1 0 .05.05.1 0 .35 0 .75 0 .35 0 .75 0 .2 0 .45 0 .05.05.1 0 .05.05.1 0 .55-.05 1.1 0 .7 0 1.4 0 .6-.05 1.2 0 .05-.05.1 0 .05 0 .1 0 .1 0 .15 0 .15 0 .3 0 .1 0 .2 0 .1 0 .15 0 .05.05.1 0 .05 0 .1.05.05.05.1 0 .05 0 .1 0 .2 0 .35 0 .15 0 .3 0 .1.05.2.05.1.15.15.1.15.3.3.15.1.3.2.1 0 .2.05.55 0 1.05.05h.05q.25 0 .5 0 .1 0 .15 0h.05q1.8-.05 3.55-.1.05 0 .1-.05.4 0 .8.05.1 0 .2.05.35 0 .65-.05.1-.05.15-.1 0-.05.05-.05.05-.05.1-.1.05-.05.1-.1 0-.05.05-.1.1-.05.15-.1.05-.05.05-.1.05-.05.05-.1l.05-.05q.05-.05.05-.1 0-.05 0-.1.05-.05.1-.1 0-.05 0-.1 0-.05 0-.1 0-.05 0-.1v-.05q.05-.05.05-.1.05-.05.05-.1 0-.05.05-.1.05-.45.05-.95-.05-.5 0-1 0-.45-.05-.85-.05-.05-.05-.1 0-.05-.05-.1 0-.05-.05-.05 0-.1 0-.2 0-.1 0-.2 0-.05 0-.1 0-.05 0-.1v-.05q0-.05 0-.1-.05-.05-.05-.1 0-.05-.05-.1 0-.05 0-.1 0-.15 0-.25 0-.1.05-.2 0-.05 0-.1 0-.05 0-.1 0-.15 0-.3-.05-.15-.05-.35 0-.15.05-.3 0-.05 0-.15-.05-.4-.05-.75 0-.4.05-.75 0-.3-.05-.55 0-.05 0-.1-.05-.05-.05-.1 0-.05 0-.1 0-.35 0-.75 0-.45 0-.9 0-.4 0-.75.05-.05.05-.1 0-.05 0-.1.05-.05.05-.1 0-.5 0-1 0-.7 0-1.4 0-.6 0-1.2 0-.05.05-.1 0-.05 0-.1.05-.05.05-.1 0-.33144531 0-.7.046875-.10820312.1-.25 0-1.00078125 0-2 0-.05 0-.1.05-.05.05-.1 0-.1 0-.2 0-.1 0-.25 0-.1 0-.2 0-.1.05-.2 0-.05.05-.1 0-.05.05-.05-.05-.35 0-.7 0-.35-.05-.7 0-.3.05-.6.05 0 .05-.05.05-.05.05-.1 0-.55 0-1.15 0-.7 0-1.35 0-.65 0-1.25 0-.05-.05-.1v-.05q-.05-.05-.05-.1 0-.05 0-.1 0-.1 0-.2 0-.15 0-.25 0-.08027344 0-.15.26171875-.55527344.5-1.1.35-.7.85-1.2.01992188-.08007812.05-.15.02402344.02402344.05.05.05 0 .1.05 0 .05.05.1.1.05.2.1.05.05.15.1.05.05.1.1.05.1.15.15.1.1.2.2.05.05.1.1 0 .05 0 .1.05.05.05.1.05.1.1.15.05.1.15.2.05.1.1.2 0 .05.05.1.05.05.15.1 0 .05.05.1.1.05.2.05.05.05.05.1.05.05.1.1.05.05.15.1 0 .05 0 .1 0 .05.05.1.05.05.1.1.05.05.1.05.05.05.05.1.1.1.2.2.05.05.05.1.1.05.2.05.05 0 .05.05.05 0 .1.05 0 .05.05.1 0 .05 0 .1.05.05.05.1l.05.05q.05.05.05.1.05.05.1.1 0 .05.05.1.05.05.1.1.05.05.1.1 0 .1.05.15.05.05.05.1.1.1.2.2.05.05.05.1 0 .05.05.05.05.15.15.2.1.1.2.2.05.05.1.1.1.05.2.05v.05l.05.05q0 .05 0 .1.05.05.05.1.05.05.1.1.05.05.05.1l.05.05q.05.05.1.1.05.05.05.1.05.05.05.1.05.05.1.1.05.05.1.1.05.05.15.1.05.05.1.05.05.05.1.15v.05q.025.025.05.05.028125.028125.05.05.05.1.15.2.1.1.2.15.1.1.15.2.05.05.05.1.05.05.05.1.05.05.05.1.05.05.1.1 0 .05 0 .1.05 0 .05.05.05.05.05.1.05.05.1.1.05.05.05.1.05.05.1.1.05.05.15.1 0 .05.05.1.05 0 .1.05.05.05.1.1.05.05.05.1.05.05.05.1 0 .05 0 .1.05.05.05.1.05.05.1.1.05 0 .1.05.1.05.2.1.1-.05.2-.1.05-.05.1-.1l.05-.05q0-.05 0-.1 0-.05 0-.1-.05-.05-.05-.1 0-.05-.05-.1v-.1q0-.075 0-.15.05-.1.05-.15 0-.05 0-.1.05-.05.05-.1.05-.05.05-.1.05-.05.05-.1 0-.1 0-.2 0-.05.05-.15 0-.1 0-.2 0-.05 0-.1 0-.05 0-.1.05-.05.05-.1 0-.05.05-.05 0-.1 0-.2 0-.1 0-.2 0-.05 0-.1 0-.05 0-.1 0-.05.05-.1.05 0 .05-.05 0-.05.05-.1 0-.05 0-.1 0-.05 0-.1 0-.05 0-.1 0-.05 0-.1 0-.05 0-.1.05 0 .05-.05 0-.05.05-.1 0-.1 0-.2 0-.15 0-.3 0-.05 0-.15 0-.05 0-.1 0-.05.05-.1 0-.05.05-.1 0-.05.05-.1 0-.05 0-.1v-.05q0-.05 0-.1 0-.05 0-.1.05-.05.05-.1 0-.05 0-.1 0-.05 0-.1 0-.05 0-.1v-.05q0-.05 0-.1.05-.05.1-.1 0-.05 0-.1.05-.05.05-.1.05-.05.05-.1 0-.1 0-.15 0-.1 0-.2 0-.05 0-.1 0-.05 0-.1 0-.1.05-.2 0-.05 0-.15 0-.1.05-.2 0-.05 0-.1 0-.05.05-.1 0-.05.05-.1 0-.05.05-.05 0-.05 0-.1 0-.05 0-.1 0-.05 0-.1 0-.05 0-.1 0-.05.05-.1 0-.05 0-.1 0-.05 0-.1v-.05q0-.05 0-.1 0-.05.05-.1 0-.05 0-.1 0-.05.05-.1 0-.05.05-.1 0-.05 0-.1l.05-.05q0-.05 0-.1 0-.05.05-.1 0-.05 0-.1 0-.05 0-.1 0-.05.05-.1 0-.05 0-.1.05 0 .05-.05.05-.05.05-.1 0-.1 0-.2 0-.15 0-.3 0-.05 0-.15 0-.05 0-.1.05-.05.1-.1 0-.05 0-.1 0-.05 0-.1 0-.05 0-.1v-.05q0-.05 0-.1 0-.05 0-.1.05-.05.1-.1 0-.05 0-.1 0-.05.05-.1 0-.05 0-.1v-.05q0-.05 0-.1 0-.05 0-.1.05-.05.05-.1 0-.05.05-.1 0-.05 0-.1.05-.05.05-.1 0-.05 0-.15 0-.1 0-.2 0-.05 0-.1 0-.05.05-.1 0-.05.05-.1 0-.05 0-.1.05-.05.05-.15 0-.1.05-.2v-.05q.025.025.05.05 0 .05.05.1 0 .05 0 .1 0 .05.05.1.05.05.1.1 0 .05.05.1.05.15.2.3.1.1.25.25.15.15.25.35 0 .05.05.1 0 .05 0 .1.1.1.2.2.1.1.15.2.05.05.1.15 0 .05.05.1 0 .05 0 .1.05.05.05.1.05.1.15.15.05.1.1.2.1.1.15.2 0 .05.05.1 0 .05 0 .1.05 0 .1.05.1.05.2.1.05.05.15.1.15.2.35.35.3.3.6.65.35.35.6.75.05.05.1.1 0 .05.05.1.05.05.05.1 0 .05.05.1 0 .05 0 .1.1.1.2.15.2.25.45.45.35.2.55.5 0 .05.05.1 0 .05 0 .1 0 .05.05.1.05.1.15.15.1.1.2.2.1.15.15.3.05.05.1.1.05 0 .05.05.05.05.1.1 0 .05 0 .1.05.05.1.1.1.1.2.2.02265625.02265625.05.05 0 .05.05.1.05.1.1.2.05.1.1.2.05.05.1.05.05.025.1.05.05.05.1.1.05.05.1.05.053125.053125.1.1.05 0 .05.05.05.05.1.1 0 .05 0 .1 0 .05.05.1 0 .05 0 .1.05.05.1.1l.05.05q0 .05.05.1.05.05.1.1.05.05.1.1.1.05.2.05h.05v.05q.05.05.05.1 0 .05.05.1l.05.05q.125.125.25.25v.05q.05.05.1.05.05.09433594.05.25.05.05.1.15.1.1.15.2 0 .05 0 .1 0 .05.05.1 0 .05.05.1.05.05.1.1.1 0 .2.05.10351563 0 .2-.05.04316406.09316406.1.15 0 .05 0 .1 0 .05.05.1.05.05.1.05.05.05.05.1.05.1.15.2.05.1.15.2.15.1.2.25.05.05.1.1.05.05.15.05.15 0 .25 0 .1 0 .15 0 0-.05.05-.05.05 0 .05-.05.05-.05.05-.1h.05q.1 0 .15-.05.05 0 .05-.05.05-.05.1-.1 0-.05.05-.1v-.05q0-.05-.05-.1 0-.05-.05-.1 0-.05 0-.1 0-.05-.05-.1 0-.05-.05-.1 0-.05-.05-.1l-.05-.05q0-.05 0-.1 0-.05 0-.1 0-.05 0-.1 0-.05 0-.1 0-.05-.05-.1 0-.05 0-.1v-.05q0-.05 0-.1 0-.05-.05-.1 0-.05 0-.1-.05-.05-.05-.1-.05-.05-.1-.1 0-.05 0-.1v-.05q0-.05 0-.1-.05-.05-.05-.1 0-.05 0-.1 0-.05 0-.1 0-.05 0-.1 0-.1-.05-.15 0-.05 0-.1-.05-.05-.05-.1-.05-.05-.1-.1 0-.05-.05-.1 0-.05 0-.1 0-.1 0-.15 0-.1 0-.2 0-.1 0-.2-.05-.05-.1-.1 0-.05-.05-.1 0-.05-.05-.05 0-.05 0-.1 0-.05 0-.1 0-.05 0-.1-.05-.05-.05-.1 0-.05 0-.1 0-.05 0-.1 0-.05 0-.1v-.05q0-.05 0-.1-.05-.05-.1-.1 0-.05-.05-.1 0-.05 0-.1 0-.05 0-.1 0-.05-.05-.05 0-.05 0-.1-.05-.05-.05-.1 0-.05 0-.1 0-.05 0-.1 0-.05 0-.1-.05-.05-.05-.1 0-.05-.05-.05-.05-.05-.05-.15v-.05q0-.05 0-.1 0-.05-.05-.1 0-.05-.05-.1 0-.05-.05-.1 0-.05 0-.1v-.05q0-.05 0-.1 0-.05-.05-.1 0-.05-.05-.1 0-.05 0-.1 0-.05 0-.1-.05-.05-.1-.1 0-.05-.05-.1v-.05q0-.05 0-.1 0-.05 0-.1 0-.05 0-.1-.05-.05-.05-.1-.05-.05-.05-.1l-.05-.05q-.05-.05-.05-.1-.05-.05-.05-.1 0-.05 0-.1 0-.05-.05-.1-.05-.05-.05-.1-.05-.05-.05-.1 0-.05-.05-.05 0-.05-.05-.1 0-.05 0-.1 0-.05 0-.1 0-.05 0-.1 0-.05-.05-.1 0-.05-.05-.1v-.05q-.05-.05-.05-.1-.05-.05-.1-.1 0-.05 0-.1 0-.05 0-.1 0-.05-.05-.1 0-.05-.05-.1v-.05q0-.05 0-.1-.05-.05-.05-.1-.05-.05-.1-.1 0-.05 0-.1 0-.05 0-.1 0-.05-.05-.1 0-.05-.05-.1v-.05q0-.05 0-.1 0-.05 0-.1 0-.05 0-.1-.05-.05-.05-.1-.05-.05-.1-.1 0-.05 0-.1v-.05q-.05-.05-.1-.1 0-.05 0-.1 0-.05 0-.1 0-.05-.05-.1 0-.05-.05-.1 0-.05 0-.1l-.05-.05q0-.05 0-.1-.05-.05-.05-.1 0-.05 0-.1-.05-.05-.1-.1 0-.05-.05-.1 0-.05-.05-.1v-.05q-.05-.05-.05-.1 0-.05 0-.1 0-.05 0-.1 0-.05 0-.1-.05-.05-.1-.1 0-.05-.05-.1 0-.05-.05-.05 0-.05 0-.1 0-.05-.05-.1 0-.05 0-.1 0-.05 0-.1 0-.05 0-.1-.05-.05-.1-.1 0-.05-.05-.05-.05-.05-.05-.1 0-.05-.05-.1 0-.05 0-.1 0-.05 0-.1 0-.05-.05-.1 0-.05 0-.1 0-.05-.05-.05-.0484375-.0484375-.05-.1 0-.05859375 0-.1 0-.2 0-.35-.1-.15-.15-.3-.05-.15-.1-.3-.05-.15-.1-.3-.1-.3-.2-.65-.1-.15-.2-.3v-.05q0-.05 0-.1 0-.05-.05-.1v-.05q-.0484375-.0484375-.05-.1 0-.1 0-.2 0-.15 0-.3 0-.2 0-.35 0-.15-.05-.3-.05-.15-.15-.3-.17148437-.51484375-.35-1.05 0-.01386719 0-.05h-.05q-.0125-.11308594-.05-.25 0-.05 0-.1 0-.05 0-.1-.05-.05-.05-.1-.05-.05-.05-.1-.02792969 0-.05-.05 0-.05 0-.1 0-.05 0-.1 0-.05-.05-.1 0-.05-.05-.1 0-.05 0-.1-.05-.05-.05-.1 0-.05-.05-.05 0-.05-.05-.1 0-.05 0-.1 0-.05 0-.1 0-.05-.05-.1 0-.05-.05-.1 0-.05 0-.1v-.05q0-.05 0-.1 0-.05 0-.1-.05-.05-.05-.1-.05-.05-.1-.1 0-.05 0-.1 0-.05 0-.1 0-.05-.05-.15 0-.1-.05-.2 0-.1-.05-.2-.05-.05-.05-.1l-.05-.05q0-.05 0-.1 0-.05 0-.1 0-.05-.05-.1 0-.05 0-.1-.05-.05-.05-.1 0-.05-.05-.1 0-.05-.05-.1l-.05-.05q0-.05 0-.1-.05-.05-.05-.1 0-.05 0-.1 0-.05 0-.1 0-.05-.05-.1 0-.05 0-.1l-.05-.05q-.05-.05-.1-.1 0-.05 0-.1 0-.05 0-.1 0-.05-.05-.1 0-.05 0-.1 0-.05-.05-.1v-.05q0-.05-.05-.1-.05-.05-.05-.1 0-.05 0-.1 0-.05 0-.1-.05-.05-.1-.1 0-.05 0-.1-.05 0-.05-.05 0-.05-.05-.1-.05-.05-.05-.1 0-.05-.05-.1 0-.05 0-.1 0-.05-.05-.1 0-.05-.05-.1 0-.05-.05-.05 0-.05-.05-.1 0-.05 0-.1 0-.05 0-.1 0-.05-.05-.1 0-.05 0-.1 0-.05-.05-.1 0-.05-.05-.05 0-.05 0-.1 0-.05 0-.1-.05-.05-.1-.1 0-.05 0-.1-.05-.05-.1-.1 0-.05-.05-.1v-.05q0-.05 0-.1 0-.05 0-.1-.05-.05-.1-.1 0-.05 0-.1-.05-.05-.05-.1-.05-.05-.05-.1 0-.05-.05-.1v-.05q0-.05 0-.1 0-.05 0-.1-.05-.05-.1-.1 0-.05 0-.1 0-.05 0-.1 0-.05 0-.1-.05 0-.1-.05 0-.05-.05-.1 0-.05-.05-.1 0-.05-.05-.1 0-.05 0-.1-.05-.05-.05-.1-.03808594-.03808594-.1-.1.01230469-.01269531 0-.05 0-.05 0-.1-.05-.05-.05-.1l-.05-.05q.01074219-.01738281 0-.05 0-.05 0-.1-.05-.05-.05-.1 0-.05-.05-.1-.02324219-.07558594-.05-.15-.04765625-.16328125-.1-.35 0-.01464844 0-.05 0-.05-.05-.1 0-.03085937-.05-.05-.0109375-.12109375-.05-.25v-.05l-.05-.05q.01015625-.01835937 0-.05 0-.1-.05-.2 0-.05-.05-.15 0-.03027344-.05-.05v-.05q-.06386719-.26210938-.15-.55l-.05-.05v-.05q-.0375-.18789062-.1-.4v-.05q-.01894531-.03789062-.05-.1-.70917969-2.359375-1.35-4.75-.8-2.95-1.65-5.9-.1-.15-.2-.3-.05-.15-.15-.3-.05-.15-.15-.3-.7-1.85-1.25-3.7-.6-2.2-1.1-4.35-.35-1.4-.75-2.8-.1-.15-.2-.35-.1-.15-.15-.3-.15-.3-.3-.6-.1-.15-.2-.3-.4-1.1-.65-2.15-.3-1.45-.75-2.85-.3-1-.25-2.15-.4-1.7-.95-3.4-.55-1.85-1.1-3.7-.4-1.4-.85-2.8 0-.15 0-.3 0-.15 0-.3 0-.2 0-.3 0-.2 0-.35 0-.15 0-.3-.35-1.1-.7-2.15-.5-1.25-.75-2.5-.2-.95-.5-1.85-.1-.15-.2-.35-.05-.1-.1-.25-.1-.2-.2-.3-.05-.2-.1-.35-.05-.15-.1-.3-.1-.15-.1-.3-.1-.15-.1-.3 0-.2 0-.3 0-.2 0-.35 0-.15 0-.3 0-.15 0-.3-.1-.15-.15-.3-.1-.2-.2-.35-.15-.3-.3-.6-.05-.15-.1-.3-.05-.15-.1-.3 0-.2 0-.3 0-.2 0-.35-.05-.15-.1-.3-.05-.15-.1-.3-.05-.15-.1-.3-.05-.15-.1-.3-.1-.2-.2-.35-.1-.15-.2-.3 0-.15 0-.3 0-.15 0-.3 0-.15 0-.3 0-.2 0-.35 0-.15-.1-.25-.05-.2-.1-.35-.1-.15-.15-.3-.05-.15-.05-.3-.05-.2-.05-.35 0-.15 0-.3 0-.15-.05-.3 0-.15-.05-.3-.05-.15-.1-.3-.1-.2-.2-.3 0-.2 0-.35 0-.15 0-.3 0-.3-.05-.6 0-.3-.05-.65-.05-.15-.15-.3-.05-.15-.1-.3-.05-.15-.05-.3 0-.2-.05-.3-.05-.35-.2-.65-.15-.3-.3-.6zm6.95 89.95q-.05 0-.1-.05v-.05q.05039063.0578125.1.1m12.25-1.3q.05878906.11738281.1.2l-.05-.05q-.05-.05-.1-.1-.02832031-.05664062-.05-.15.03652344.06835938.1.1m-23.2 22.15q0-.05 0-.1 0-.14550781 0-.3.05.15.1.3 0 .12578125 0 .25-.025-.025-.05-.05 0-.05-.05-.1z" fill="#6cc"/>
        </g>
    </defs>
    <g transform="matrix(.62414551 0 0 .62414551 1064.55 202.7)">
        <g>
            <use xlink:href="#S_mbolo_1_0_Layer0_0_FILL"/>
        </g>
    </g>
    <g transform="matrix(.62414551 0 0 .62414551 1134.95 17)">
        <g>
            <use xlink:href="#S_mbolo_1_0_Layer0_0_FILL"/>
        </g>
    </g>
    <g transform="matrix(.62414551 0 0 .62414551 1135.7 113.7)">
        <g>
            <use xlink:href="#S_mbolo_2_0_Layer0_0_FILL"/>
        </g>
    </g>
    <g transform="matrix(.62414551 0 0 .62414551 1134.95 202.7)">
        <g>
            <use xlink:href="#S_mbolo_1_0_Layer0_0_FILL"/>
        </g>
    </g>
    <g transform="matrix(.62414551 0 0 .62414551 1205.35 17)">
        <g>
            <use xlink:href="#S_mbolo_1_0_Layer0_0_FILL"/>
        </g>
    </g>
    <g transform="matrix(.62414551 0 0 .62414551 1206.1 113.7)">
        <g>
            <use xlink:href="#S_mbolo_2_0_Layer0_0_FILL"/>
        </g>
    </g>
    <g transform="matrix(.62414551 0 0 .62414551 1205.35 202.7)">
        <g>
            <use xlink:href="#S_mbolo_1_0_Layer0_0_FILL"/>
        </g>
    </g>
    <g transform="matrix(.62414551 0 0 .62414551 1275.75 17)">
        <g>
            <use xlink:href="#S_mbolo_1_0_Layer0_0_FILL"/>
        </g>
    </g>
    <g transform="matrix(.62414551 0 0 .62414551 1276.5 113.7)">
        <g>
            <use xlink:href="#S_mbolo_2_0_Layer0_0_FILL"/>
        </g>
    </g>
    <g transform="matrix(.62414551 0 0 .62414551 1275.75 202.7)">
        <g>
            <use xlink:href="#S_mbolo_1_0_Layer0_0_FILL"/>
        </g>
    </g>
    <g transform="matrix(.62414551 0 0 .62414551 1346.15 17)">
        <g>
            <use xlink:href="#S_mbolo_1_0_Layer0_0_FILL"/>
        </g>
    </g>
    <g transform="matrix(.62414551 0 0 .62414551 1346.9 113.7)">
        <g>
            <use xlink:href="#S_mbolo_2_0_Layer0_0_FILL"/>
        </g>
    </g>
    <g transform="matrix(.62414551 0 0 .62414551 1346.15 202.7)">
        <g>
            <use xlink:href="#S_mbolo_1_0_Layer0_0_FILL"/>
        </g>
    </g>
    <g transform="matrix(.62414551 0 0 .62414551 1416.55 17)">
        <g>
            <use xlink:href="#S_mbolo_1_0_Layer0_0_FILL"/>
        </g>
    </g>
    <g transform="matrix(.62414551 0 0 .62414551 1417.3 113.7)">
        <g>
            <use xlink:href="#S_mbolo_2_0_Layer0_0_FILL"/>
        </g>
    </g>
    <g transform="matrix(.62414551 0 0 .62414551 1416.55 202.7)">
        <g>
            <use xlink:href="#S_mbolo_1_0_Layer0_0_FILL"/>
        </g>
    </g>
    <g transform="matrix(.62414551 0 0 .62414551 1486.95 17)">
        <g>
            <use xlink:href="#S_mbolo_1_0_Layer0_0_FILL"/>
        </g>
    </g>
    <g transform="matrix(.62414551 0 0 .62414551 1487.7 113.7)">
        <g>
            <use xlink:href="#S_mbolo_2_0_Layer0_0_FILL"/>
        </g>
    </g>
    <g transform="matrix(.62414551 0 0 .62414551 1486.95 202.7)">
        <g>
            <use xlink:href="#S_mbolo_1_0_Layer0_0_FILL"/>
        </g>
    </g>
    <g transform="matrix(.62414551 0 0 .62414551 1557.35 17)">
        <g>
            <use xlink:href="#S_mbolo_1_0_Layer0_0_FILL"/>
        </g>
    </g>
    <g transform="matrix(.62414551 0 0 .62414551 1558.1 113.7)">
        <g>
            <use xlink:href="#S_mbolo_2_0_Layer0_0_FILL"/>
        </g>
    </g>
    <g transform="matrix(.62414551 0 0 .62414551 1557.35 202.7)">
        <g>
            <use xlink:href="#S_mbolo_1_0_Layer0_0_FILL"/>
        </g>
    </g>
    <g transform="translate(1.35)">
        <g transform="matrix(.62414551 0 0 .62414551 130.35 114.65)">
            <g>
                <use xlink:href="#S_mbolo_1_0_Layer0_0_FILL"/>
            </g>
        </g>
        <g transform="matrix(.72857666 0 0 .72857666 385.6 116.35)">
            <g>
                <use xlink:href="#S_mbolo_2_0_Layer0_0_FILL"/>
            </g>
        </g>
        <g transform="matrix(.842453 0 0 .842453 119.05 207.95)">
            <g>
                <use xlink:href="#S_mbolo_1_0_Layer0_0_FILL"/>
            </g>
        </g>
        <g transform="matrix(.73640442 0 0 .73640442 419.4 48.6)">
            <g>
                <use xlink:href="#S_mbolo_1_0_Layer0_0_FILL"/>
            </g>
        </g>
        <g transform="matrix(1.04974365 0 0 1.04974365 313.25 270.2)">
            <g>
                <use xlink:href="#S_mbolo_2_0_Layer0_0_FILL"/>
            </g>
        </g>
        <g transform="matrix(.842453 0 0 .842453 273.25 213)">
            <g>
                <use xlink:href="#S_mbolo_1_0_Layer0_0_FILL"/>
            </g>
        </g>
        <g transform="matrix(.47801208 0 0 .47801208 311.95 207.95)">
            <g>
                <use xlink:href="#S_mbolo_2_0_Layer0_0_FILL"/>
            </g>
        </g>
        <g transform="matrix(.72857666 0 0 .72857666 239.3 213)">
            <g>
                <use xlink:href="#S_mbolo_2_0_Layer0_0_FILL"/>
            </g>
        </g>
        <g transform="matrix(.842453 0 0 .842453 198.95 276.35)">
            <g>
                <use xlink:href="#S_mbolo_1_0_Layer0_0_FILL"/>
            </g>
        </g>
        <g transform="matrix(.67823792 0 0 .67823792 171.25 258.4)">
            <g>
                <use xlink:href="#S_mbolo_2_0_Layer0_0_FILL"/>
            </g>
        </g>
        <g transform="matrix(.76243591 0 0 .76243591 46.6 128.5)">
            <g>
                <use xlink:href="#S_mbolo_1_0_Layer0_0_FILL"/>
            </g>
        </g>
        <g transform="matrix(.72857666 0 0 .72857666 91 135.7)">
            <g>
                <use xlink:href="#S_mbolo_2_0_Layer0_0_FILL"/>
            </g>
        </g>
        <g transform="matrix(.61047363 0 0 .61047363 359.9 200.7)">
            <g>
                <use xlink:href="#S_mbolo_1_0_Layer0_0_FILL"/>
            </g>
        </g>
        <g transform="matrix(.72146606 0 0 .72146606 416.85 178.1)">
            <g>
                <use xlink:href="#S_mbolo_1_0_Layer0_0_FILL"/>
            </g>
        </g>
        <g transform="matrix(.72857666 0 0 .72857666 454.05 258.4)">
            <g>
                <use xlink:href="#S_mbolo_2_0_Layer0_0_FILL"/>
            </g>
        </g>
        <g transform="matrix(.842453 0 0 .842453 71.55 26.1)">
            <g>
                <use xlink:href="#S_mbolo_1_0_Layer0_0_FILL"/>
            </g>
        </g>
        <g transform="matrix(.67823792 0 0 .67823792 119.05 33.45)">
            <g>
                <use xlink:href="#S_mbolo_2_0_Layer0_0_FILL"/>
            </g>
        </g>
        <g transform="matrix(.67823792 0 0 .67823792 82.45 258.4)">
            <g>
                <use xlink:href="#S_mbolo_2_0_Layer0_0_FILL"/>
            </g>
        </g>
        <g transform="matrix(.5045929 0 0 .5045929 194.7 208)">
            <g>
                <use xlink:href="#S_mbolo_1_0_Layer0_0_FILL"/>
            </g>
        </g>
        <g transform="matrix(.842453 0 0 .842453 365.1 17.1)">
            <g>
                <use xlink:href="#S_mbolo_1_0_Layer0_0_FILL"/>
            </g>
        </g>
        <g transform="matrix(.47801208 0 0 .47801208 403.8 12.05)">
            <g>
                <use xlink:href="#S_mbolo_2_0_Layer0_0_FILL"/>
            </g>
        </g>
        <g transform="matrix(.72857666 0 0 .72857666 301.4 21.8)">
            <g>
                <use xlink:href="#S_mbolo_2_0_Layer0_0_FILL"/>
            </g>
        </g>
        <g transform="matrix(.5045929 0 0 .5045929 266.55 41)">
            <g>
                <use xlink:href="#S_mbolo_1_0_Layer0_0_FILL"/>
            </g>
        </g>
        <g transform="matrix(.73640442 0 0 .73640442 48.05 292.5)">
            <g>
                <use xlink:href="#S_mbolo_1_0_Layer0_0_FILL"/>
            </g>
        </g>
        <g transform="matrix(.47801208 0 0 .47801208 32.45 255.95)">
            <g>
                <use xlink:href="#S_mbolo_2_0_Layer0_0_FILL"/>
            </g>
        </g>
        <g transform="matrix(.67823792 0 0 .67823792 29.6 61.05)">
            <g>
                <use xlink:href="#S_mbolo_2_0_Layer0_0_FILL"/>
            </g>
        </g>
        <g transform="matrix(.5045929 0 0 .5045929 166.25 50.9)">
            <g>
                <use xlink:href="#S_mbolo_1_0_Layer0_0_FILL"/>
            </g>
        </g>
        <g transform="matrix(.47801208 0 0 .47801208 194.7 33.55)">
            <g>
                <use xlink:href="#S_mbolo_2_0_Layer0_0_FILL"/>
            </g>
        </g>
        <g transform="matrix(.3477478 0 0 .3477478 220.5 61.05)">
            <g>
                <use xlink:href="#S_mbolo_1_0_Layer0_0_FILL"/>
            </g>
        </g>
        <g transform="matrix(.42047119 0 0 .42047119 241.65 64.1)">
            <g>
                <use xlink:href="#S_mbolo_2_0_Layer0_0_FILL"/>
            </g>
        </g>
        <g transform="matrix(.47801208 0 0 .47801208 344.15 17.1)">
            <g>
                <use xlink:href="#S_mbolo_2_0_Layer0_0_FILL"/>
            </g>
        </g>
        <g transform="matrix(.842453 0 0 .842453 454.05 135.7)">
            <g>
                <use xlink:href="#S_mbolo_1_0_Layer0_0_FILL"/>
            </g>
        </g>
        <g transform="matrix(.72857666 0 0 .72857666 505.8 128.5)">
            <g>
                <use xlink:href="#S_mbolo_2_0_Layer0_0_FILL"/>
            </g>
        </g>
        <g transform="matrix(.842453 0 0 .842453 496.9 225.8)">
            <g>
                <use xlink:href="#S_mbolo_1_0_Layer0_0_FILL"/>
            </g>
        </g>
        <g transform="matrix(.67823792 0 0 .67823792 477.05 54.5)">
            <g>
                <use xlink:href="#S_mbolo_2_0_Layer0_0_FILL"/>
            </g>
        </g>
        <g transform="matrix(.36460876 0 0 .36460876 383.25 339.6)">
            <g>
                <use xlink:href="#S_mbolo_1_0_Layer0_0_FILL"/>
            </g>
        </g>
        <g transform="matrix(.40266418 0 0 .40266418 414.8 341.7)">
            <g>
                <use xlink:href="#S_mbolo_2_0_Layer0_0_FILL"/>
            </g>
        </g>
        <g transform="matrix(.3477478 0 0 .3477478 448.9 341.95)">
            <g>
                <use xlink:href="#S_mbolo_1_0_Layer0_0_FILL"/>
            </g>
        </g>
        <g transform="matrix(.5045929 0 0 .5045929 3.9 5.15)">
            <g>
                <use xlink:href="#S_mbolo_1_0_Layer0_0_FILL"/>
            </g>
        </g>
        <g transform="matrix(.5045929 0 0 .5045929 454.05 12.05)">
            <g>
                <use xlink:href="#S_mbolo_1_0_Layer0_0_FILL"/>
            </g>
        </g>
        <g transform="matrix(.24029541 0 0 .24029541 244 1.65)">
            <g>
                <use xlink:href="#S_mbolo_1_0_Layer0_0_FILL"/>
            </g>
        </g>
        <g transform="matrix(.2905426 0 0 .2905426 223.15 0)">
            <g>
                <use xlink:href="#S_mbolo_2_0_Layer0_0_FILL"/>
            </g>
        </g>
        <g transform="matrix(.24029541 0 0 .24029541 209.85 7.85)">
            <g>
                <use xlink:href="#S_mbolo_1_0_Layer0_0_FILL"/>
            </g>
        </g>
        <g transform="matrix(.40711975 0 0 .40711975 179.65 2.4)">
            <g>
                <use xlink:href="#S_mbolo_1_0_Layer0_0_FILL"/>
            </g>
        </g>
        <g transform="matrix(.47801208 0 0 .47801208 149.65 7.85)">
            <g>
                <use xlink:href="#S_mbolo_2_0_Layer0_0_FILL"/>
            </g>
        </g>
        <g transform="matrix(.3477478 0 0 .3477478 107.9 7.1)">
            <g>
                <use xlink:href="#S_mbolo_1_0_Layer0_0_FILL"/>
            </g>
        </g>
        <g transform="matrix(.47801208 0 0 .47801208 286.15 6.9)">
            <g>
                <use xlink:href="#S_mbolo_2_0_Layer0_0_FILL"/>
            </g>
        </g>
        <g transform="matrix(.2905426 0 0 .2905426 266.55 2.4)">
            <g>
                <use xlink:href="#S_mbolo_2_0_Layer0_0_FILL"/>
            </g>
        </g>
        <g transform="matrix(.24029541 0 0 .24029541 330.6 7.85)">
            <g>
                <use xlink:href="#S_mbolo_1_0_Layer0_0_FILL"/>
            </g>
        </g>
        <g transform="matrix(.24029541 0 0 .24029541 365.1 4.05)">
            <g>
                <use xlink:href="#S_mbolo_1_0_Layer0_0_FILL"/>
            </g>
        </g>
        <g transform="matrix(.24029541 0 0 .24029541 427.55 7.1)">
            <g>
                <use xlink:href="#S_mbolo_1_0_Layer0_0_FILL"/>
            </g>
        </g>
        <g transform="matrix(.2905426 0 0 .2905426 69.4 7.85)">
            <g>
                <use xlink:href="#S_mbolo_2_0_Layer0_0_FILL"/>
            </g>
        </g>
        <g transform="matrix(.24029541 0 0 .24029541 63.7 42.65)">
            <g>
                <use xlink:href="#S_mbolo_1_0_Layer0_0_FILL"/>
            </g>
        </g>
        <g transform="matrix(.47801208 0 0 .47801208 40.4 1.35)">
            <g>
                <use xlink:href="#S_mbolo_2_0_Layer0_0_FILL"/>
            </g>
        </g>
        <g transform="matrix(.72857666 0 0 .72857666 8.7 168.75)">
            <g>
                <use xlink:href="#S_mbolo_2_0_Layer0_0_FILL"/>
            </g>
        </g>
        <g transform="matrix(.5045929 0 0 .5045929 1.15 103.05)">
            <g>
                <use xlink:href="#S_mbolo_1_0_Layer0_0_FILL"/>
            </g>
        </g>
        <g transform="matrix(.5045929 0 0 .5045929 4.75 323.7)">
            <g>
                <use xlink:href="#S_mbolo_1_0_Layer0_0_FILL"/>
            </g>
        </g>
        <g transform="matrix(.36460876 0 0 .36460876 165.55 341.7)">
            <g>
                <use xlink:href="#S_mbolo_1_0_Layer0_0_FILL"/>
            </g>
        </g>
        <g transform="matrix(.40266418 0 0 .40266418 139.35 327.75)">
            <g>
                <use xlink:href="#S_mbolo_2_0_Layer0_0_FILL"/>
            </g>
        </g>
        <g transform="matrix(.5045929 0 0 .5045929 110.9 324.45)">
            <g>
                <use xlink:href="#S_mbolo_1_0_Layer0_0_FILL"/>
            </g>
        </g>
        <g transform="matrix(.40266418 0 0 .40266418 164.35 216.95)">
            <g>
                <use xlink:href="#S_mbolo_2_0_Layer0_0_FILL"/>
            </g>
        </g>
        <g transform="matrix(.5045929 0 0 .5045929 250.2 309.65)">
            <g>
                <use xlink:href="#S_mbolo_1_0_Layer0_0_FILL"/>
            </g>
        </g>
        <g transform="matrix(.40266418 0 0 .40266418 282.25 339.6)">
            <g>
                <use xlink:href="#S_mbolo_2_0_Layer0_0_FILL"/>
            </g>
        </g>
        <g transform="matrix(.5045929 0 0 .5045929 490.55 326.25)">
            <g>
                <use xlink:href="#S_mbolo_1_0_Layer0_0_FILL"/>
            </g>
        </g>
        <g transform="matrix(.40266418 0 0 .40266418 522.65 341.45)">
            <g>
                <use xlink:href="#S_mbolo_2_0_Layer0_0_FILL"/>
            </g>
        </g>
        <g transform="matrix(.47801208 0 0 .47801208 505.8 12.05)">
            <g>
                <use xlink:href="#S_mbolo_2_0_Layer0_0_FILL"/>
            </g>
        </g>
        <g transform="matrix(.24029541 0 0 .24029541 522.65 69.25)">
            <g>
                <use xlink:href="#S_mbolo_1_0_Layer0_0_FILL"/>
            </g>
        </g>
        <g transform="matrix(.24029541 0 0 .24029541 496.9 135.6)">
            <g>
                <use xlink:href="#S_mbolo_1_0_Layer0_0_FILL"/>
            </g>
        </g>
        <g transform="matrix(.24029541 0 0 .24029541 343.85 77.45)">
            <g>
                <use xlink:href="#S_mbolo_1_0_Layer0_0_FILL"/>
            </g>
        </g>
        <g transform="matrix(.24029541 0 0 .24029541 225.3 216.95)">
            <g>
                <use xlink:href="#S_mbolo_1_0_Layer0_0_FILL"/>
            </g>
        </g>
        <g transform="matrix(.24029541 0 0 .24029541 344.15 213)">
            <g>
                <use xlink:href="#S_mbolo_1_0_Layer0_0_FILL"/>
            </g>
        </g>
        <g transform="matrix(.2905426 0 0 .2905426 110.9 242.8)">
            <g>
                <use xlink:href="#S_mbolo_2_0_Layer0_0_FILL"/>
            </g>
        </g>
        <g transform="matrix(.2905426 0 0 .2905426 8.7 265.15)">
            <g>
                <use xlink:href="#S_mbolo_2_0_Layer0_0_FILL"/>
            </g>
        </g>
        <g transform="matrix(.2905426 0 0 .2905426 40.4 150.15)">
            <g>
                <use xlink:href="#S_mbolo_2_0_Layer0_0_FILL"/>
            </g>
        </g>
        <g transform="matrix(.2905426 0 0 .2905426 485.85 12.05)">
            <g>
                <use xlink:href="#S_mbolo_2_0_Layer0_0_FILL"/>
            </g>
        </g>
        <g transform="matrix(.2905426 0 0 .2905426 396.9 215.3)">
            <g>
                <use xlink:href="#S_mbolo_2_0_Layer0_0_FILL"/>
            </g>
        </g>
        <g transform="matrix(.2905426 0 0 .2905426 485.85 251.85)">
            <g>
                <use xlink:href="#S_mbolo_2_0_Layer0_0_FILL"/>
            </g>
        </g>
        <g transform="matrix(.2905426 0 0 .2905426 471.7 355.1)">
            <g>
                <use xlink:href="#S_mbolo_2_0_Layer0_0_FILL"/>
            </g>
        </g>
        <g transform="matrix(.2905426 0 0 .2905426 445.25 150.15)">
            <g>
                <use xlink:href="#S_mbolo_2_0_Layer0_0_FILL"/>
            </g>
        </g>
        <g transform="matrix(.2905426 0 0 .2905426 71.55 265.15)">
            <g>
                <use xlink:href="#S_mbolo_2_0_Layer0_0_FILL"/>
            </g>
        </g>
        <g transform="matrix(.2905426 0 0 .2905426 36.4 320.3)">
            <g>
                <use xlink:href="#S_mbolo_2_0_Layer0_0_FILL"/>
            </g>
        </g>
        <g transform="matrix(.24029541 0 0 .24029541 82.45 142.25)">
            <g>
                <use xlink:href="#S_mbolo_1_0_Layer0_0_FILL"/>
            </g>
        </g>
        <g transform="matrix(.24029541 0 0 .24029541 52.1 237.05)">
            <g>
                <use xlink:href="#S_mbolo_1_0_Layer0_0_FILL"/>
            </g>
        </g>
        <g transform="matrix(.24029541 0 0 .24029541 96 348.15)">
            <g>
                <use xlink:href="#S_mbolo_1_0_Layer0_0_FILL"/>
            </g>
        </g>
        <g transform="matrix(.24029541 0 0 .24029541 241.6 293.1)">
            <g>
                <use xlink:href="#S_mbolo_1_0_Layer0_0_FILL"/>
            </g>
        </g>
        <g transform="matrix(.24029541 0 0 .24029541 304 315)">
            <g>
                <use xlink:href="#S_mbolo_1_0_Layer0_0_FILL"/>
            </g>
        </g>
        <g transform="matrix(.24029541 0 0 .24029541 530.85 215.7)">
            <g>
                <use xlink:href="#S_mbolo_1_0_Layer0_0_FILL"/>
            </g>
        </g>
        <g transform="matrix(.24029541 0 0 .24029541 530.85 117)">
            <g>
                <use xlink:href="#S_mbolo_1_0_Layer0_0_FILL"/>
            </g>
        </g>
        <g transform="matrix(.24029541 0 0 .24029541 528.4 8.7)">
            <g>
                <use xlink:href="#S_mbolo_1_0_Layer0_0_FILL"/>
            </g>
        </g>
        <g transform="matrix(.24029541 0 0 .24029541 19.65 69.9)">
            <g>
                <use xlink:href="#S_mbolo_1_0_Layer0_0_FILL"/>
            </g>
        </g>
        <g transform="matrix(.24029541 0 0 .24029541 32.9 360.9)">
            <g>
                <use xlink:href="#S_mbolo_1_0_Layer0_0_FILL"/>
            </g>
        </g>
    </g>
    <g transform="translate(67.05 37.25)">
        <g transform="translate(296.9 250.6)">
            <g>
                <g id="S_mbolo_4_0_Layer0_0_FILL">
                    <path d="m21.7 11.7q0-1.4-.1-3-.1-1.6-.35-3.05-.2-1.45-.7-2.2-1.05-1.5-3.25-2.15-2.15-.65-5.05-.95-1.1-.1-2.5-.1-1.35-.05-2.7.15-1.35.25-2.5.85-1.2.65-1.85 1.9-.7 1.25-1.1 3.1-.45 1.85-.8 4.4-.35 2.55-.5 5.95-.2 3.4-.3 7.7-.05 8.8.3 14 .3 5.2.85 7.4.3 1.05.9 2.2.65 1.15 1.65 2.15 1 1 2.4 1.65 1.4.65 3.1.7 1.7.05 2.9.05 1.2-.05 2.1-.3.9-.25 1.65-.75.8-.5 1.85-1.35.95-.9 1.55-2.65.55-1.75.8-3.5.3-2 .4-4.4l-6.8.1v2.7q0 1.1-.05 2.25-.1 1.15-.2 1.9-.3 1.45-1.25 2-.95.55-2.75.55-1.7 0-2.45-.8-.8-.8-.95-1.9 0-.45-.1-2.3-.05-1.85-.15-4.2-.05-2.3-.05-4.55 0-2.2 0-3.4.05-1.05.1-2.9.05-1.85.1-4.15.1-2.25.2-4.8.1-2.45.2-4.65.15-2.2.25-3.95.05-1.75.15-2.65.4-4.4 3.2-4.4.55 0 1.6.15.95.2 1.95.7 1 .4 1.65 1.05.75.7.75 1.6 0 .6.05 1.45 0 .85 0 1.75 0 1.05.1 2.15l5.7.55q0-.6 0-2.05m34.5-11.05-6.35-.1-1.05 51.65 16.2.4v-3.7h-9.9zm-11.4 9.35q0-2.1 0-2.55-.1-1.7-.7-3.1-.65-1.45-2.05-2.55-1.35-1.05-3.2-1.35-1.8-.3-4.3-.2-2.1.05-3.7 1-1.6.9-2.3 1.8-.35.6-.8 1.6-.4.95-.6 2.65-.15.8-.35 2.8-.25 2-.5 4.45-.2 2.45-.4 5.05-.25 2.6-.4 4.85-.05.8-.15 3.35-.05 2.55-.1 5.5-.05 2.9-.05 5.55-.05 2.6-.05 3.4.15 2.45.5 4.3.35 1.8 1 3 .55 1.3 1.55 2 .95.8 2.8.9.5.1.8.1.35 0 .75 0 .4 0 1 .05.6 0 1.65 0 1.9.1 3.05-.25 1.15-.4 1.8-1 .75-.6 1.85-2.2 1.2-1.65 1.75-4.2.2-1.05.35-2.35.15-1.3.2-2.6.1-1.3.1-2.5.05-1.2.05-2 0-.7.05-2.9.05-2.15.1-5.1.1-2.95.15-6.3.05-3.35.1-6.2.05-2.9.05-5m-8.75-5.6q.85 0 1.05 0 1.05.1 1.6.4.5.25.55 1.3 0 .45 0 3.35 0 2.95 0 7.1 0 4.15 0 8.95-.05 4.85-.05 8.95 0 4.15-.05 7.05-.05 2.8-.05 3.15-.05 1.35-.2 2.1-.15.8-.75 1.55-.4.55-.9 1.05-.6.45-1.7.5h-2.7q-1.4-.15-1.9-1.55-.3-.85-.25-2.15.1-1.35.15-2.2 0-.15.15-3 .15-2.85.4-7.05.25-4.25.5-9.1.3-4.9.55-9.05.25-4.15.4-7 .15-2.85.15-2.9.1-.85.3-1.2.2-.3 1.05-.3.8 0 1.7.05m49.3.25q-1.6-2-3.6-3.25-2.05-1.25-4.75-1.4h-4.7q-1.25 0-2.4.1-.15 9.75-.35 17.95-.1 3.5-.2 7.05-.1 3.5-.2 6.55-.05 3.05-.1 5.45-.1 2.3-.1 3.5-.05 1.65-.05 3.7 0 2.05 0 3.9 0 2.2.05 4.4 1.5 0 3.05-.05 1.3-.1 2.9-.2 1.6-.1 3.05-.4 1.35-.25 2.7-.8 1.35-.6 2.5-1.45 1.15-.8 2-1.85.85-1.05 1.3-2.2.6-1.85.95-3.7.35-1.85.55-3.9.2-1.5.35-4.6.15-3.1.2-6.65.05-3.55 0-6.9-.05-3.35-.1-5.35-.15-2.85-.75-5.3-.6-2.45-2.3-4.6m-4.15 1.45q.6 1.1 1.35 3 .65 1.95 1.05 4.1.15.8.25 2.55.05 1.7.1 3.75.05 2.05.05 4.15 0 2.15-.1 3.8-.05 1.75-.25 3.9-.2 2.15-.45 4.1-.2 1.95-.4 3.55-.25 1.6-.4 2.3-.2.9-.6 1.95-.35 1.05-.9 1.7-.6.6-1.25 1.1-.65.45-1.55.6-.45.05-1.05.1-.55.05-1.05.05h-1.25l1.35-42.45h1.2q1.1 0 1.7.15.7.15 1.25.5.6.4.95 1.1z" fill="#09c"/>
                </g>
            </g>
        </g>
        <g transform="translate(98.55 82.35)">
            <g>
                <g id="S_mbolo_5_0_Layer0_0_FILL">
                    <path d="m22.75 37.2-5.3.25-4.95 16.55-2.2-54-10.3.45 6.5 86.7 8.15-1.75 5.65-31.15 9.4 30.3 8.75-.85 4-81.15-8.7-.2-3.8 62.4zm37.6-37-8.8.85-1.1 86.3 9.25-.7zm43.9.75h-8.75l-1.9 56.1-14.7-55.9-8.75.1-1.55 84.8 11.3-.15-.55-48.1 14.85 49.1 9.2-.25zm37.3 5.55.25-5.9-30.65.95-.25 5.5 9.1-.2-3.4 80.65 11.85-.75 1.95-80zm33.2.05-.15-5.4-27.45-.45-3.55 86.3 27.5.15.15-6.3-15.35-.1.25-23.15h10l-.1-6.7h-9.6l.6-44.35zm36.1-2.9q-1.7-1.8-5.5-2.4-1.85-.3-5.85-.35-4.05-.1-7.95-.1-4.85 0-10.15.15l-2.7 84.65 10.7 1.55.25-28.35q.15.15.4.15h.95l12.85 25 8.05-.15q-1.95-3.25-3.7-6.35-1.5-2.55-3.15-5.3-1.7-2.7-2.75-4.45-1.75-2.85-3.5-5.55-1.7-2.7-2.6-4.05 3.05-1.05 5.55-2.9 2.45-1.8 3.95-3.45.85-.95 2.15-2.9 1.2-1.9 2.4-4.5 1.15-2.6 2.15-5.8 1-3.2 1.35-6.75.6-7.2.3-13.45-.3-6.25-.9-9.55-.6-3.35-2.3-5.15m-7.2 14.2q-.05 3.15-.1 6.85-.05 3.7-.2 7.05-.1 3.35-.15 5.95-.1 2.6-.2 3.45-.25 2.1-1.3 4.75-1.05 2.65-4.15 5.5-1.6 1.4-3.05 2.1-1.5.75-2.6 1-1.4.35-2.5.2l1.45-48.5q2.25.1 4.25.1 1.7 0 3.2.1 1.45.05 2.1.05 1.8.25 2.6 1.2.75.95.75 2.35 0 .35 0 2.55 0 2.15-.1 5.3z" fill="#09c"/>
                </g>
            </g>
        </g>
        <g transform="translate(163.25)">
            <g>
                <g id="S_mbolo_6_0_Layer0_0_FILL">
                    <path d="m8.1 2q-.15-.8-.55-1.2-.4-.45-1.3-.6-.45-.05-1.35-.05-.95-.05-1.9-.05-1.1 0-2.35.05l-.65 19.85 2.5.35.05-6.6q.05 0 .1 0h.25l3 5.85h1.9q-.45-.75-.9-1.5-.35-.6-.7-1.25-.4-.65-.65-1.05-.45-.65-.85-1.3-.4-.65-.6-.95.7-.25 1.3-.65.6-.45.95-.85.2-.2.5-.65.25-.45.55-1.05.25-.65.5-1.4.25-.75.3-1.55.15-1.7.1-3.15-.1-1.5-.2-2.25m-3-.55q.4.05.6.25.15.25.15.6 0 .05 0 .55 0 .55 0 1.25 0 .75 0 1.65-.05.85-.05 1.6-.05.8-.05 1.4 0 .65-.05.85-.05.5-.3 1.1-.25.6-1 1.3-.35.3-.7.5-.35.15-.6.2-.35.1-.6.05l.35-11.35q.55 0 1 0 .4 0 .75.05.35 0 .5 0m10.85-1.25-3.45-.1-3.5 20.15 2.35-.15.95-6.05 3.65-.05 1.15 6.35 2.2-.25zm-.25 12.35h-3l1.3-10.4zm7.8-12.55-2.1.2-.25 20.25 2.2-.2zm10.3.15h-2.05l-.45 13.15-3.45-13.1h-2.05l-.35 19.9h2.65l-.15-11.3 3.5 11.5 2.15-.05z" fill="#09c"/>
                </g>
            </g>
        </g>
        <g transform="translate(0 200.95)">
            <g>
                <g id="S_mbolo_7_0_Layer0_0_FILL">
                    <path d="m7.95 3.05q-.15-.5-.35-.95-.25-.5-.55-.9-.3-.4-.9-.65-.55-.3-1.2-.35-.65-.05-1.3.15-.7.15-1.25.65-.65.55-.95 1.15-.25.65-.35 1.35-.1.65 0 1.4.05.75.25 1.55.1.55.3 1.45.2.9.45 1.9.2 1.05.45 2.15.25 1.1.5 2.05.2.95.35 1.65.15.7.2.95.15.75.2 1.3 0 .6-.4.75-.5.15-.95-.6-.15-.2-.25-.45-.1-.25-.15-.5-.1-.25-.15-.5l-1.9.3q.45 1.05.8 1.75.4.7.9 1.15.45.4 1 .55.55.2 1.35.1 1.15-.1 1.6-.8.45-.7.6-1.8.05-.6-.1-1.65-.15-1.05-.45-2.25-.3-1.2-.6-2.45-.35-1.25-.6-2.25-.5-1.8-.85-3.15-.3-1.4-.4-2.6 0-.65.35-1.05.35-.4.8-.5.5-.05 1 .15.45.2.65.75.1.35.2.65.05.25.15.5.05.2.1.35l1.75-.25q-.15-.55-.3-1.05m9.5-2.8h-2.05l-.45 13.15-3.45-13.1h-2.05l-.35 19.9h2.65l-.15-11.3 3.5 11.5 2.15-.05zm9.15 1.55q-.25-.55-.8-1-.55-.4-1.25-.5-.7-.15-1.7-.1-.8 0-1.45.4-.6.35-.85.7-.15.25-.3.6-.2.4-.25 1.05-.05.3-.15 1.1-.1.75-.2 1.7-.1.95-.15 2-.1 1-.15 1.9-.05.3-.05 1.3-.05.95-.05 2.1 0 1.15-.05 2.15 0 1.05 0 1.35.05.95.2 1.65.15.75.4 1.2.2.5.6.75.35.3 1.1.4.15 0 .3 0 .1 0 .3 0 .15 0 .4 0 .2.05.6.05.75 0 1.2-.15.45-.1.7-.35.3-.25.75-.85.45-.65.65-1.65.1-.4.15-.9.05-.5.1-1.05 0-.5 0-.95.05-.45.05-.8 0-.25 0-1.1 0-.85.05-2 0-1.15.05-2.45 0-1.3.05-2.4 0-1.15 0-1.95 0-.8 0-1-.05-.65-.25-1.2m-3.15 0q.35 0 .4 0 .4.05.6.15.2.15.25.55 0 .15 0 1.3 0 1.1 0 2.75 0 1.6 0 3.5-.05 1.85-.05 3.45 0 1.65 0 2.75 0 1.1 0 1.25-.05.5-.1.8-.05.3-.3.6-.15.25-.35.4-.2.2-.65.2h-1.05q-.55-.05-.75-.6-.1-.35-.1-.85.05-.5.1-.85 0-.05.05-1.15.05-1.1.15-2.75.1-1.65.2-3.55.1-1.9.2-3.5.1-1.65.15-2.75l.05-1.1q.05-.35.15-.5.05-.1.4-.1.3 0 .65 0m15.1-1.15-2.05-.05-.9 14.6-1.7-6.45-1.25.05-1.15 3.9-.5-12.7-2.4.15 1.5 20.3 1.9-.4 1.35-7.3 2.2 7.1 2.05-.2z" fill="#09c"/>
                </g>
            </g>
        </g>
    </g>
</svg>
