<svg height="400" preserveAspectRatio="none" viewBox="0 0 550 400" width="550" xmlns="http://www.w3.org/2000/svg">
    <g transform="translate(70.4 31.5)">
        <g>
            <g id="S_mbolo_1_0_Layer0_0_FILL">
                <path d="m45.15 5.15h-1.85l-1.1 1.5.35.45-1.05 1.6.2.5-1.6 1.85q.25 0 .35.2l-.1.15q-.15 0-.3 0l-.1.1q.05.1.35.15l-2.2 1.95.15 1.7q-3.55 3.55-5.65 7.6l-.9.45-.1.65q-.2 0-.35.1-1.4.7-1.9 2.15l.3.8q-.25.25-.55.6-1 1-2.2 1.7-.95.5-.45 1.2l-3.75 3.05v.55l-6.65 6.6-2 .55q-.9 1.15-2.05 1.9-3.35 2.3-7 4.25-.35.35-.7.65l.1-1.6-.3-.6.45-.4-.6-.85q.15-.15.2-.25.5-.6.85-1.25l-.8-.25 1.2-2.3-.6-1.35 1.15-2.95-.3-.45.8-1.1-.3-1.7.85-.85-.25-.65.7-1.05q-.1-.3-.2-.55l1.1-1.05v-.9l.55-.55-.05-1.15 1.5-2.1-.25-.8.7-.9.2-1.9.95-.8.85-1.6q-.15-.15-.15-.25 0-.5.25-.95l.6-.25.55-1.8.4-.65h-1.1l.65-.7-3.45.75-1.15 3.05-1.05.3-.75 1.5.7.6v.05q-2.55 3.3-2.95 6.7-.25 0-.35.1-.55 1.4-.9 2.95l-1.55 2.2.85.35q-.1.1-.1.25l.1.1v.15l-.5.5.2.5-1.15 2.65.05 1.5q-.25.15-.25.25l-.2 1.45.05.85-.45 1.1.45.5-.95 1.25.1.7.05.1.1.65q-.35.45-.45 1 0 .1.25.1l.2 1-.75.6.4 1.45-.55.6h1.25l-.55.6 3.85.25 2.45-.75.45-.6 1.8-.25.25-.55 3.8-1.5q.7-1.1 1.7-1.85 2-1.6 4.4-2.7.2-.7.65-1.2 3.2-3.2 6.5-6.25l.75-1-.2-.6.85-.35.25-.45.65-.3 1.25-1.35.65-1.3.95-.4q.5-1.8 2.4-2.6.7-2.5 2.95-3.5l.35-1.6 1.75-2.2-.25-.5.65-.35 2.15-3.3v-.6l1.5-1.3 1.05-2.6 1.4-1.5-.5-.75.85-1.1-.2-1.15h-.65zm38.35 17.4-.2.4 1.35-.3q-.65-.1-1.15-.1m55.55 7.05-.1.6-6.2 1.85-2.7 1.45-1.6 1.65-1.6.25-3.65 3.1-1.4.25-3.5 2.85-.55.95.25.85-.35.55.25.7 2.35 1.5 5.65-.4.6-.4q5.05-.9 10.1-2.65l-.45 2.45.65.6q-.05.1-.05.25 0 .1.1.2 0 .05.2.05.05.15.25.15l-.3.9.9.35.6.8q-.2 0-.35.1-.05.1 0 .2v.05q.25.1.6.2.15 0 .2.05l-.2.1 2.35.4.4-.5 2.2-.75.45-.85-.95-.1.25-.55-1.5-.2q-.65.25-1.25.2-.1.2-.25 0l-.3-2 .55-.9-1-1.35 1.6-1.95-.65-.25-.15-.1q0-.05.2-.05l.4-.45.1-.05q.1-.1.25-.2.05-.1.05-.15-.3-.2-.6-.3.35 0 .75-.2.75-.1 1.3-.55.5-.4.75-.95l1.15-.4 2.85-2.5.5-1.2 1.7-1.6v-.75l1.05-.3.15-.55.55-.4-.25-.75q-.1-.25-.3-.35-.15-.05-.35 0l-.25-.65-2.2.25-.4.4.25-.5-5.15.35q-.25.2-.6.15-1.65.6-3.35 1.05m1.1 5.4-1.2 1.45.75.25q-1.2.7-2.35 1.5-2.25 1.65-4.85 2.4-2.2.75-3.55 2.4l-7.85.6.25-.6 2.1-2.25 2.1-.65.2-.5 3.8-1.9.7-1.15 1.2-.6q2.15.3 3.5-1.8l4.15-1.15.3-.45.85.1 2.55-1.35-.65 1.45-.75.25zm-14.55-25-1.6.15-7.05 8.1v.6l-3.1 2.4.15.55-2.9 3.25-2 1.2-2.55 1-6.45.05-.65 1.45 1 .1-.35.55 3.1.2 4-.4-.5.4-.1.75-2.45 2.4-.05 1-.9.85q-.3-.1-.6-.25l-.7 1.15-.85.35-.45.6-5 3.55-1.8.2q-2.65 2.8-6.75 3.45l-.7 1-2.85.7-.45-.45-5.05-.25-.4-.65-.65-.1-.25-1.25.85-1.9-.35-1.35.7-.9 2.45-.7.35-.6 1.2-.35.45-.8 5.65-3.15 2.2-3.05 1.2-.25 2.25-2.9 1.2-.3 5.25-6.2-.35-.4q1.05-1.3 1.85-2.65.8-1.4 2.4-1.85v-.5l2.7-5.25.6-.55.55-2.25-.9-.05.25-.55-1.8-.15-4.45 1.3-.7 1.05-5.95 4.25-.05.85-2.85 2.25-.95 1.3-.65.25-1.25 2.35-.9.2-2.25 3.05-.6.25-.8 1v.7l-1.3 1.1-.15.5-.65.5.2.85-1.3.4-.7 1.1.25.5-.25.5-.6.2q-.7.15 0 .4l-.7.2-1.75 2.35.35.6-2.25 3.1-.4.85q-3 .9-5.7 2.9h-1.2q-1.7 2.05-4.2 1.8l-1.15.95-1.95-.2-1.35.85-5.2 1-1.65-.85.1-.85.5-.45-.15-.45.5-.5-.25-1.05q.85-1.1 2-1.6 3.65-1.3 7.25-2.8l2.6-.85q2.6-.1 4.5-1.3.9-.55 1.5-1.25 1.5-1.65 3.05-3.7l-.05-.7q-.85.1-.5-.55l-.75-.65-6.9.2q-1.45 1.8-3.85 1.8l-10.35 7.95-7.25.8-.45-.45 2.25-2.15.25-1 2.05-.5 2.05-3.5q-.6-.6.25-.8 0-.1-.1-.2-.05-.1-.1-.1-1.7 0-.65-.15l-3.8-.7-.7 1.1 1 .35-1.1 2.05-1.3.1-2.25 2.35-.65 1q.85.7-.5 1.7l-.8.4.8.25q-2.8-.3-3.75 1.95l-2.25.8-2.55 1.5-.4.65-1.05.1-.35.6-.6-.2-.2-.5 1.05-1.75q-.7.1-.55-.6.9-.8 1.7-1.75.65-.85 1.3-1.8.7-1 1.75-1.7 3.1-2 5.75-5.05h-1.15l.5-.7-2.95-.05-2.25 2.5q.85-.05.4.2h-.85l-4.45 4.4-2.9 2.2v1.15l-.55.3-.6 3.75.7.05-.05.55.9.05 1.05 1.3q3.65-.4 6.6-1.65l.35-.45.95-.15 1.9-.9v-.55l.55-.85 2.75-1.85 5.15 1.55 4.15-.95-.65.35-1.4 2.35.65.75-.3.5.95.85.25.85q.35.35.7.6l1.85.35.25.65 4.65-.3.45-.7 1.4.2.75-.7q2.85-.6 5.4-.85l.65-.85 3.85-1.2.4-.45 1.8-1.3.8.25.15 1.5.35.6-.15 1.1q.3.35.7.7 2.1 1.75 4.85 2 1.05-.15 2.05 0 2.3.35 4.75-.25l.6-.75 1.1.2.85-.6h1l6.95-4.05.45-.7 1.05-.35.4-.85.45.2-2.2 2q0 .05 0 .1-.05.1-.15.15l-.7 1.2q.2.05.2.25.05.35-.2.7-.5.65-1.05 1.15l-1.2 2.3 1.05.1-.35.55q5.5-.2 10.35-1.3l.4-.6 3.5-.6q.1 0 .2 0 0-.05 0-.1-.05-.15-.05-.2-.15 0-.3.05l.6-.45q2 .75 3.8-.15 1.5-.7 2.35-1.95l-.95-.3q-.05-.95-1.6-.45-1.85.7-3.6 1.5l-.2.1-4.95.3-.7.7-2.85.15q.05.1.15.2 0 .05 0 .1-.1.05-.15.15l-1.05-.15-.95.45.7-.75.25-1.4.6-.3-.1-.55 5.3-6.3q-.25-.65.65-.75h-.35q.35-.4.4-.95 0 .2.45 0l1.7-1.8 2.05-.8.3-1h-.25q.65-.6 3.25-1.55l1.15-1.4q.7-.25-.1-.55l2.45-1.1q1.9.85 3.1-.35 2.15-.2 4.35-.35l.65-.6q1.6.05 3.15-.2 5.15-1.1 10.35-1.5l.45-.5 1.2-.2.95-1.2q-1.25 0-.7-.6-1.85-.65-3.8-.15-1.8.6-3.65 1.05-2.7.3-5.35.65-4.4.75-8.85 1.65l.5-1.05 1.8-1.3.5-1.4 2.4-1.6-.05-.7 1.95-2.2.7-.1v-.65l.55-.2.4-1.1 2.75-4.3-.1-.55-.7-.6.4-1.55h-.8l.1-.6h-1.3l-.35.6-.55.25-.6.95zm-24.15.55.1-.5 1.6-.4q.25-.15.3 0l-.25.25v.55l-.6.6.2.6-3.85 4.25-1.2 3-.55.7-1.35.45-.65 1 .1.5-3.4 2.45-1.3 2.25q-4.7 4.3-9.8 7.7l1.25-1.75q.25-.25.45-.5.65-.85 1.25-1.85.05-.15-.45-.1l.95-1 1.2-.6q1-2 2.4-3.65 2.15-2.5 4.4-4.9.7-.65 1.05-1.55l.5-.45v-.6l1.55-1.1q.3-.7.8-1.1 1.6-1.3 3.5-2.35l.65-1.5zm18.2 9.4h-.65l1.05-1.2zm-30.45 10v.05l-.05.05q0-.1 0-.2zm14.7 4.65q.1-.1.25-.15.7.35-.25.15m3.3 10.8.8-.25 1.05.35zm-48.1-10.4-2.2 1.25 1.75-1.15.3-.55 1.3-.55 1.3-1.25q1.35-.25 2.55-.7.45-.1.8-.35 1-.8 2.3-1.1l.35-.65 1.85-.25q.15-.2.35-.2.7-.5.3 0-1.45 1.55-3.1 2.65-1.45.9-3.2 1.35l-2.5 1.6zm184.15-19.7.15-.25.25-.7q-.35-.3-.75-.6-2.4-1.95-5.25-2.7-.5.45-1 .85-2.1 1.85-4.7 2.05l-4.85 4.9-6 3.9-.1.5-2.2 2.65-.85.15-.7 1-.1.6-1.4.5-.75 2.4q-1.15 1.1-2.25 2.25-1.6 1.7-2.5 3.9l.9.15q-.1.25-.25.5-1.3 2.6-3.8 3.95-.75 0-1.4.15-.6.25-1.05.75l-1.2.1-1 1.05-.95.2-.65.65-4.45.65-.7.8-3.3.7-.65-.6.9-1.95-.35-.7 1.65-1.75-.1-.6 1.3-1-.4-.7.7-1.5 1.1-.35q0-.15.15-.25.1-.25.4-.4l-.7-.6-.15-.1q.95-1.65 2.75-2.35l.3-.7.55-.15.5-1.75 1.45-.65 1.15-1.7 1.3-.55.6-1.2-.9-.15.2-.45q-.7-.05-1.35-.15-1.65-.15-2.5 1.25l-4.1.25-2 1.2q-2.25.45-4.4 1.1-1.3.5-2.5 1.25l-1.25.2-1.9.9-.5.7-1.45.35-.25.6q-4.15 2.25-8.25 4.6l-1.8 2.05.25.55-1.8 2.15.3.45-1.85 2.6.75.55.15.5 5.55.15.45.35 1.55-.2 1-1q2.15-.7 4.4-1.3l.6-1.25 3-.6.5-.8v-.6l.95-.85 2.8-1.2-.25.5.55.55-2.65 3 .05 1.05.45 1.25.55.15-.25.8q.95.6 1.8 1 2.95-.25 5.95-.45l-.2-.6 2.25.2 2.4-2.3 2.55.5q.15-.35.55-.5 1.45-.75 3-1.35l.8-1.15 1.3.25.45-.6 1.9 1.7q1.95.75 4 1.25 2.35.25 4.7 0 3.15-.6 6.3-.95.2-.25.5-.25 1.5-.5 3.1-.85l3.05-1.25q0-.05 0-.1-.15-.15-.2-.25l-.1-.15q.2-.1.4-.15.15 0 .4 0-.35-.2-.65-.3l-.55.1q-.1-.05-.2-.1-.05-.15 0-.25.1-.05.25-.05.2 0 .45 0l-1-.35-.45.4-2.15-.05-1 .75q-1.9.45-3.75 1-5.2 1.35-10.1.55l.1-.7q-.5 0-.95 0l.1-.15q.1-.05.15-.2l-1.35-1.5q.4-.1.9-.1 1.8-.15 2.65-1.6l4.2-1.9.6-1.25 1.45-.5.25-.55 1.5-.55.5-.9 2.2-.6q1.1-2.15 3.3-2.3l2.15-2.65 2.7-.65 5.55-6-.5-.7 1.65-1.5-.1-.7 1.15-1.15zm-19.1 8.95.3-.85 3.85-2.1.6-1.2.8-.3 3.3-3.2 2.3-.95q.4-1.35 2.4-1.8.75.2 1.55.45l-.85 4.4q-3.65 3.6-7.35 7.05-1.45 1.3-3 2.55l-4.45 2.65-.3.6-7.05 4.15-.9 1.25-1.75.6q1.2-.85 1.35-2.1 0-.2-.15-.35l1.85-2 .65-1.7 1.1-.5.6-1.55 1.4-1.35-.1-.45zm-42.2 18.3-.95.15-1.4 1.1h-.6q-2.7.85-5.3 1.55-.2.05-.45-.1l.25-1.35 1.8-1.85-.2-.15q.85-.45 1.9-.8l.25-.5.55-.35.25-.55.45-.3-.45-.85 2.45-.55 1.1-1.45 1.35-.3.3-.6 1.65-.9h1.05v-.5l1.75-.5 1.05-1.1h.85q1.2-.85 2.65-1.2 2.5-.85 5.2-1.35l-1.55 2.8-1.7.6-.05.65-4.2 2.3-.55.85.2.5-1.1.4-5.05 3.65zm5.3-2.05h-.2q.4-.15.5-.15zm13.95 4.35q-.55.15-.65 0-.2-.3.05-.05zm185.1-39.35-1.3-1.7-.95-.15-.35-1.2-.5-.1-.15-.5q-.5-.1-1-.1-6.85-.05-10.85 5.35l-1.4.45-.7.8v.65q-3.05.5-4.6 2.15l.3.65-1.7.95-.25.5-1.55.7-.7 1.1.15.7-1.95.4-2.6 2.95.3.45-1.15 1.35.2.8-6.9.55q-1.7 1.25-4.05.6l.9-1.4-.55-.4.95-2.95-.8-.15q-.25-.35-.5-.55l-.65-.65-.05-.75q-.95-.6-1.65-1.4-1.55-1.75-3.9-1.3l-.8.75q-1.55.25-3.05.5l-.7 1-1.8.25-.3.5-3.15.8-.15.5-2.05.45-1.65 2h-1.15l-1.4 1-.05.65-.9.1-.2.6-1.25.35-.7 1.2-1.05.15-2.75 3.2-1.45.2-.4.65v.6l-1.3.75-.5.6-.8 2.55-2.25 1.25-.65 1.45.35 1.5-.15 1.1 1.45.9q-5.3 2.7-11.3 2.45-3.75 2.25-8.4 1.15-1.05.5-2.25.55-3.1.45-6.3.45-4.4-.05-7.2-.95l-3.05-1.55q-.1-.15-.25-.25h-.05q.05-.1.15-.1l-1.55-1.2.5-.6-1.9-2.1 1.25-1.85-.65-.7.65-.9-.15-.75.8-1.15v-1.5l1.2-1.8 1.15-.35.6-1.1-.35-1.15 1.85-.75.3-1.3 2.2-1.95 8.1-5.65v-.6l3.6-1.15.05-.55.65-.2q1.4-2.25 3.95-2.15l.15-.6q3.65-.35 5.55-3.05l1.55-.15q2.55-2.4 6.1-2.2l.55-.95 9-1.85.65 1 2 .5q-.95.9.15 1.15l-.5.4.35.85-1.15.85-.1.5.3.6-.6.6-1.65.25-.8 1-.1.9-.8.2-.3.5-2.7 1.2-.35.5q-.7.2-1.35.6-3.55 2.6-7.6 3.25l-1.55 1.25-4.75.9-2.55 1.85-1.4-.05-1.2 1.5 1.1.25-.45.45q5.3 1.2 10.3-3.4 4.2-.2 7.75-2.95l2.45-.7 2.55-1.65.8-.95q3.35-1.6 6.3-4.4v-.6q.2-.35.15-.5-.25-.25-.3-.4l1.55-1.3.25-1.55-1.65-1.7.55-.55-2-1.95q-2.8-.6-5.6-.75l-.5.45-3.9.5-.55.75q-2.9.65-5.45 1.5-5.25 1.7-10.1 4.1l-.6 1.15-3.25.7-.95 1.65-3.8 2.1q-2-.15-2.75 1.7l-2.9 1.4q-2.25 1.95-4.75 3.25-1.85.95-2.2 3.3-.7.1-.45.7l-1.55.75-4.55 7.35.2.7-1.1 2.55v1.1l.85 1.25-.25 1.1.75 1.65-.45.8 2.45 1.1q.1.05.1.1 0 .1-.15.2l3.45 2.35 1.7-.3q.5.85 2.05 1.3l5.15-.15.6.4 3.55-.15.6.4 3.95-.1q1.7-.25 3.45-.4 1.25-.2 2.55-.15l.65-.65q4.8-.9 9.45-1.4 2.2-.65 4.45-1.25l.45-.45 5.4-1.2.6-.75q4.1-.6 7.9-2.3l1.15-1.05q-.15-.1-.3-.3l.1-.05q.3 0 .6.05.05.1.2.1.85.1 1.55-.7-.7-.55.8-.35l1.2-.85 1.25-.2q.85-.95 1.9-1.5 2.15-.95 4.35-1.8l4.35-3.2q.15-.3.4-.6.55-.25 1-.6 1.45-.65 2.75-.5 3.3.6 6.1-1.1l-2.25 2.6-.4 1.7-1.2.45-.4.75q.05.3.15.6l-.6.4-2.35 5.05.1.05h.1q0 .05-.05.2l-.15.6-.8.35.45.45-.25.8.6.45-.6 1.6.4 1.65 1.95 1.25 1.2.05.8.6q1.75.4 3.5.1 4.65-.25 9.2-.7l.7-.55 1.2-.15q1.1-.65 2.15-1.45.95-.8 1.4.5l.8.5q.85-.15.6.6l3.1-.15.55.35q6.9.8 13.75-.8l4.75.5q2.75-2 6.65-1.5l.85-.7 2.25.25 4.35-1.55q.05-.05.05-.15.05-.05.05-.1-.3-.4.35-.3.15-.1.15-.2-.1-.6-.8-.5.1-.05.1-.1-.15-.6-1.05-.55l-16.45 3.1q-1.45-.3-2.4.35l-2.25-.25-1.05.4-3.4.2q-.95-.4-1.9 0-1.9-.15-4.2-.25-1.35.25-2.15-.6l2.25-.6.7-1.3 1.75-.05.05-.6q2.45-1.25 5-1.45l.95-1.35 2.15-.65q2.95-1.35 1.3-1.95l2.6-1.1 1.05-1.7 1.4-.4 1.05-1.9.8-.4-.1-.9q.15-.05.3-.1.65-.5 0-.5l.25-.3.6-1.35-1.9-1.7q-5-1-8.8 2.05l-.55-.1-.15.55-1.6-.1-1.8 1.95-1.05.2q-1.55 2.3-4.3 2.3l-.75.85v.75l-1.9 1.45.1.7q-.9 3.05-4.1 5.15v1.5q-5.8 2.65-12 3.25l-.35-.4-3.35-.1-.55-1.45-.95-.85.75-1.5-.15-1.3 1.1-.9-.5-.6 1.85-2.4-.45-.8q.6-.6 1.2-1.1 1.35-1.05 1.35-2.15-.2-.15-.35-.25l.6-1.05.75-.2 2.9-3.75 6.6-1.15.25-.5.8-.65q2.05.7 3.25-.9l2.9-.85q.95-1.6 2.6-1.3l.5-.4 1.25-.2.7-1.65 2.5-.65 1.3-1.7q3.3-1.05 4.95-4.5l-.15-.6 1.7-2.2.55-.15zm.6 19.05h.2q-.45 1.15-1.15 2.3l-1.6.7q-.5.85-1.1 1.6-.7.7-1.5 1.4-.45.4-.9.8-3.85 2.55-7.85 4.9h-1.35q-.45.3-.9.55-1.5.55-3.05 1l2.55-2.4q1.85-4.95 7.1-6.85.8-1.5 2.9-2.05l.25-.5 3.2-.6q.2-.25.45-.25 1.3-.45 2.75-.6m-5.55-20.25.55.2-.4.65.5.4-.8 2.65-1.05.45-2.25 2.95-1.95.55-.75 1.6-1.25.1-.25.6-.5.2-.3.85-4.65 1.5-.6.6-.2.75-.75-.1q-1.85.7-3.75 1.25-1.4.45-2.9.8.35-.5.7-1.1 1.25-1.85 3.3-2.35l.75-.95-.15-.6.45-.5q1.85-.45 3.05-1.45.05-.25.25-.45 1.3-1.35 2.7-2.6 2.85-2.55 5.75-4.15 2-1.1 4.5-1.85m-54.15 17.15 1.35-1.35 1.55-.35-.1 1.95 1.3.85v.7q.25.1.5.35.15 0 .15.25l5.2 1.55 1.2.15-1.25.25.85.4-1.55.2.45.5-3.65 2.5-.85-.05-4.7 2.7-1.05.35-.45 1-1.5.1-.9.85-1.35.1-.25.55-1.45.25-.95 1.05-.7.15-.45.4-2.7-.05-.35.5h-1.75l-.5-.45-2.1-.3q1.4-2 2.9-3.9l.45-1.45 1.35-.35 1.5-1.7q.35-.75.8-1.25.85-.75 1.8-1.5.5-.35.85-.85l2-.5.7-.8-.4-.55 3.2-2.25zm6.65-1.7-.45-.25.45-1.05q.4-.05.45-.25 0-.2-.05-.35l.95-.45-.1-.15q.75-.4 1.6-.7l.6.3 2.95-.2.7.55.25.85.65.05.25 1.15.3.45-1.2 1.85.25.5-.05.6-.65.35-4.4.1-2.8-2.7z"/>
            </g>
        </g>
    </g>
    <g transform="translate(56.75 95.65)">
        <g>
            <g id="S_mbolo_2_0_Layer0_0_FILL">
                <path d="m16.05 41.4q-.35.15-.85.2-10.35 1.25-14.35-8.6-3.9 20.45 10.35 34.95 8.7 8.85 21.85 5.45l-3.15-1.85.7.2q-15.45-10.8-14.55-30.35z" fill="#c44e4e"/>
                <path d="m15.9 38.05.15 3.35q-.9 19.55 14.55 30.35l-.7-.2 3.15 1.85q2.4 2.65 6 2.1-.95-.8-1.8-1.6-16.45-14.2-17.85-36.35l.2-.35-.1-.65zm20.85-35-3.15 3.3q-11.5 10.2-13.25 25.8-.3 2-.45 4.25l.25.75 3.25 2.4q2.35 19.9 17.2 32.35 2.5 2.05 4.85 4.15h9.95q-12.5-5.65-17.75-19.1-.25-.65-.5-1.3-.05-.3-.2-.6l-.75-1.45.1-.35-.9-.95q-.4-6-.65-11.85l-.1-4.25q-.35.2-.55.45-.6.5-1.35.75-2.25.85-4.9 1.2-2.1.4-4.25.65 0-1.25.1-2.3.1-18.3 13.2-30.45l2-1.8zm362.3 30.3q-6.45-2-12.85-4.55l-2 5.35q10.1 2.75 20.35 3.25 1.05 0 2 .2l-2.35-2.3q-2.6-.8-5.15-1.95z" fill="#999"/>
                <path d="m19.9 36.4-.4.15.1.65-.2.35q1.4 22.15 17.85 36.35.85.8 1.8 1.6l6.4.55q-2.35-2.1-4.85-4.15-14.85-12.45-17.2-32.35l-3.25-2.4z" fill="#666"/>
                <path d="m25.1 9.65q-1.75.35-3.6.7-7.8 1.65-14.05 6.5-4.2 6.45-5.95 13.65-.4 1.25-.65 2.5 4 9.85 14.35 8.6.5-.05.85-.2l-.15-3.35q-.6-14.6 7.6-26.2.85-1.1 1.6-2.2z" fill="#f66"/>
                <path d="m26.6 8-1.5 1.65q-.75 1.1-1.6 2.2-8.2 11.6-7.6 26.2l3.6-1.5.4-.15q.15-2.25.45-4.25 1.75-15.6 13.25-25.8zm19.85-1.85.1-.25-9.65.6q-13.1 12.15-13.2 30.45-.1 1.05-.1 2.3 2.15-.25 4.25-.65 2.65-.35 4.9-1.2.75-.25 1.35-.75.2-.25.55-.45l1.55-8.05.3-.25-.05-.75.7-1.6v-.05l-.05-.65 1.8-5.5-.15-.8q3.75-6.2 7.7-12.4z" fill="#ccc"/>
                <path d="m25.1 9.65 1.5-1.65 4.1-2.8q-14.05.55-23.2 11.45 0 .1-.05.2 6.25-4.85 14.05-6.5 1.85-.35 3.6-.7z" fill="#f99"/>
                <path d="m36.75 3.05-6.05 2.15-4.1 2.8 7-1.65zm14.2-.5-8.45-.45-3.6 2.6-2 1.8 9.65-.6z" fill="#fff"/>
                <path d="m47.15 25.75q-.8 0-1.55 0 0 .85.05.75.5-.7 1.5-.75m281.8-20.15v-.25l-58.95-1.35-114.75-.25q-26.5.55-59.75.8l-33.9.7-15.15.9q-3.95 6.2-7.7 12.4l.15.8-1.8 5.5.05.65v.05q3.7.15 8.45.2 0-2 55.5-1.65 29.55.2 77.05.85 14.85 0 93.65-3.25 1 0 14.95.8 13.85.8 14.85.8 1.05 0 19-.8 14.45-.65 17.9-.8-.65-10.85 12.7-14.65zm1.35 1 .25.1v.05q-.15-.05-.25-.15m-19.05 15.85v.1l-.2.1zm-97.95-3.7-.2.25-.3.15zm1.5-2.8.1-.25v.1zm-37.6 6.75-.15.05h-.15q.05527344-.00097656.3-.05m-54.2-10.4v-.2q.15-.05.2 0zm-42.95 7.3-.05.15-.15.05z" fill="#fc0"/>
                <path d="m335.3 68.8q-2.15-7.85 2.65-14-6.55.35-10.2.35-4.9 0-36.7 1.2-31.75 1.2-36.8 1.2-1 0-20.7-.8-19.75-.8-20.75-.8-34.25-.1-67.25.05-65.7.3-65.7 1.55-27.95 0-32.1-.05-5.55-.15-10.1-.55 5.25 13.45 17.75 19.1 3.15.3 6.2.65 48.55 1.65 97.35 2.15 11.1.2 22.2.3 43.05.3 85.9-.4 31.1-.55 61.9-1.35v.25q8.6-.7 17.05-1.45l.4-.55q-6.4-.8-10.7-5.85-.2-.5-.4-1z" fill="#c60"/>
                <path d="m336.9 41.1-3.15.15q1.3 5.8 5.2 10.15.6.55 1.15 1.15l-.75.65q-.75.8-1.4 1.6-4.8 6.15-2.65 14 .2.5.4 1 4.3 5.05 10.7 5.85l-.4.55 3.55-1.4q-2.65-1.15-5.05-2.85-11.25-7.5-3.85-17.25 1-1.4 2.35-2.75-.85-1.15-1.65-2.35-2.65-4.05-4.45-8.5z" fill="#7b5c3d"/>
                <path d="m328.95 40.5v-.25q-11.7-.6-23.35-1.15-20.9-1.05-41.4.55-41.3 3.2-83.05 3.15-14.1 0-28.15-.35-41.9-4.45-58.25-3.6-16.6.9-33.15 1.5-13.4 1.2-26.85.1.25 5.85.65 11.85l.9.95-.1.35.75 1.45q.15.3.2.6.25.65.5 1.3 4.55.4 10.1.55 4.15.05 32.1.05 0-1.25 65.7-1.55 33-.15 67.25-.05 1 0 20.75.8 19.7.8 20.7.8 5.05 0 36.8-1.2 31.8-1.2 36.7-1.2 3.65 0 10.2-.35.65-.8 1.4-1.6l.75-.65q-.55-.6-1.15-1.15-3.9-4.35-5.2-10.15-2.35-.4-4.8-.75m57.25-11.7q6.4 2.55 12.85 4.55 2.55 1.15 5.15 1.95l-15.7-9.5-.95 1.05zm-2.4 9.2q0 .95.1 1.95.35 5.6 3.95 9.8l.75.2 17.95-12.35q-.95-.2-2-.2-10.25-.5-20.35-3.25z"/>
                <path d="m340.2 29.8.05-.75q-.25-.65-.55-1.45-1-3.15-1.2-5.9-3.45.15-17.9.8-17.95.8-19 .8-1 0-14.85-.8-13.95-.8-14.95-.8-78.8 3.25-93.65 3.25-47.5-.65-77.05-.85-55.5-.35-55.5 1.65.75 0 1.55 0-1 .05-1.5.75-.05.1-.05-.75-4.75-.05-8.45-.2l-.7 1.6.05.75-.3.25-1.55 8.05.1 4.25q13.45 1.1 26.85-.1 16.55-.6 33.15-1.5 16.35-.85 58.25 3.6 14.05.35 28.15.35 41.75.05 83.05-3.15 20.5-1.6 41.4-.55 11.65.55 23.35 1.15v.25q2.45.35 4.8.75l.65-4.65zm-213.7 5.65q0-.05 0-.1.05 0 .1 0zm-2.9-6.75q.5.25-.15.1.1-.05.15-.1m23.85 3.9q0-.05.15-.05l-.05.1zm-29 1.6.1-.15q0 .05 0 .1-.05 0-.1.05m-4.6-8.5-.05.1q0-.1 0-.15zm-57.95 9.4-.1-.05h.05z" fill="#333"/>
                <path d="m55.8 35.05.1.05-.05-.05zm58-9.25.05-.1-.05-.05q0 .05 0 .15m4.75 8.25-.1.15q.05-.05.1-.05 0-.05 0-.1m29.05-1.5q-.15 0-.15.05l.1.05zm-24.15-3.75q.65.15.15-.1-.05.05-.15.1m3.05 6.55q0 .05 0 .1l.1-.1q-.05 0-.1 0m-46.5-15.6.05-.15-.2.2zm43-7.65v.2l.2-.2q-.05-.05-.2 0m91.9 3.6-.1.25.1-.15zm-1.8 3.3.2-.25-.5.4zm98.15 3.55v-.1l-.2.2zm19.3-15.85-.25-.1q.1.1.25.15z" fill="#513d28"/>
                <path d="m177.05 22.75.15-.05q-.24472656.04902344-.3.05z" fill="#b48558"/>
                <path d="m354.5 6.15.55-.65q-.75-.35-1.5-.75-.85 0-1.7-.15-.9-.05-1.95-.05-.15 0-.5-.15-.45.1-.9-.05l-.7.25q-7.45-1.2-15.05-2.05-1.9-.25-3.8-.45v-.25q-40.05-1.6-80.85-1.85l-147.5.55q-8.7.15-17.3.25-10.85.15-21.7.5-5.35.45-10.65 1.25l-4.4 3.35-.1.25 15.15-.9 33.9-.7q33.25-.25 59.75-.8l114.75.25 58.95 1.35v.25l22.25 1.45z" fill="#ff0"/>
                <path d="m355.05 5.5-.55.65-3.3.9q-13.35 3.8-12.7 14.65.2 2.75 1.2 5.9.3.8.55 1.45l-.05.75-5.8 6.8-.65 4.65 3.15-.15q-.05-.4 0-.7.8-6.55 5.95-10.8-.2-.35-.25-.85-.9-3.8-.75-6.95.5-9.95 12.1-13.55l3.7-1.45zm28.85 34.45q-.1-1-.1-1.95l-46.9 3.1q1.8 4.45 4.45 8.5.8 1.2 1.65 2.35-1.35 1.35-2.35 2.75-7.4 9.75 3.85 17.25 2.4 1.7 5.05 2.85 3.25-1.85 6.35-3.95 16.1-10.4 31.95-21.1-3.6-4.2-3.95-9.8z" fill="#c96"/>
                <path d="m387.55 26.85.95-1.05-30.85-19-3.7 1.45z" fill="#ffe0bb"/>
                <path d="m383.8 38 .4-3.85 2-5.35 1.35-1.95-33.6-18.6q-11.6 3.6-12.1 13.55-.15 3.15.75 6.95.05.5.25.85-5.15 4.25-5.95 10.8-.05.3 0 .7z" fill="#fc9"/>
            </g>
        </g>
    </g>
    <g transform="translate(48.1 196.25)">
        <g>
            <g id="S_mbolo_3_0_Layer0_0_FILL">
                <path d="m21.05 35.3-.2-.65-.4.1.05.6-.2.35q1.45 21.1 18.75 34.6.9.75 1.85 1.5l6.75.5q-2.5-2-5.1-3.9-15.6-11.85-18-30.7z" fill="#666"/>
                <path d="m16.65 36.2.15 3.2q-.95 18.55 15.25 28.85l-.7-.2 3.3 1.75q2.5 2.55 6.25 2-.95-.75-1.85-1.5-17.3-13.5-18.75-34.6l.2-.35-.05-.6zm21.9-33.25-3.3 3.15q-12.1 9.7-13.95 24.5-.3 1.95-.45 4.05l.2.65 3.5 2.4q2.4 18.85 18 30.7 2.6 1.9 5.1 3.9l10.45.05q-13.8-5.7-19.15-19.4-.05-.3-.2-.55l-.8-1.4.1-.4-.95-.9q-.4-5.65-.7-11.2l-.1-4.05q-.3.2-.6.45-.6.4-1.35.65-2.4.85-5.15 1.2-2.25.35-4.5.6 0-1.2.1-2.2.1-17.4 13.9-28.95l2.1-1.7zm181.6 24.2-2.1 5.1q10.6 2.65 21.35 3.05 1.1.05 2.15.25l-2.5-2.15q-2.7-.8-5.4-1.85-6.8-1.95-13.5-4.4z" fill="#999"/>
                <path d="m15.9 39.6q-10.9 1.15-15-8.2-4.2 19.4 10.8 33.25 9.15 8.4 22.95 5.15l-3.3-1.75.7.2q-16.2-10.3-15.25-28.85-.4.1-.9.2z" fill="#c44e4e"/>
                <path d="m24.6 11.3q.9-1.1 1.75-2.1-1.95.35-3.8.65-8.2 1.6-14.8 6.2-4.35 6.15-6.25 13.05-.4 1.1-.6 2.3 4.1 9.35 15 8.2.5-.1.9-.2l-.15-3.2q-.65-13.9 7.95-24.9z" fill="#f66"/>
                <path d="m27.85 7.6-1.5 1.6q-.85 1-1.75 2.1-8.6 11-7.95 24.9l3.8-1.45.4-.1q.15-2.1.45-4.05 1.85-14.8 13.95-24.5zm12.75 10.1q4-5.95 8.1-11.8l.1-.25-10.1.55q-13.8 11.55-13.9 28.95-.1 1-.1 2.2 2.25-.25 4.5-.6 2.75-.35 5.15-1.2.75-.25 1.35-.65.3-.25.6-.45l1-5.2.65-2.45.3-.25-.05-.7.75-1.6-.05-.6 1.9-5.25z" fill="#ccc"/>
                <path d="m26.35 9.2 1.5-1.6 4.35-2.6q-14.8.5-24.4 10.85 0 .1-.05.2 6.6-4.6 14.8-6.2 1.85-.3 3.8-.65z" fill="#f99"/>
                <path d="m35.25 6.1 3.3-3.15-6.35 2.05-4.35 2.6zm18.2-3.6-8.95-.45-3.7 2.45-2.1 1.7 10.1-.55z" fill="#fff"/>
                <path d="m166.65 65.2q-2.5-8.45 4.3-14.85-12.25 1.5-24.75 1.5-16.55 0-33.05.7-19.15.8-38.4 1.45-18.1.8-36-1.6.15.25.2.55 5.35 13.7 19.15 19.4 3.3.3 6.45.65 17.4 1.5 34.8 2 19.4.75 38.55-.1 20.25-1 40.1-2.65l.3-.5q-6.65-.8-11.15-5.55-.2-.55-.5-1z" fill="#c60"/>
                <path d="m170.55 48.65q-4.15-4.1-5.45-9.6v-.1q-6.7-.9-13.4-1.8-7.45-.95-14.8.55-19.7 4.05-39.7 2.65-14.95-4.2-20.75-3.4-19.95 3.05-40.05 1.55.3 5.55.7 11.2l.95.9-.1.4.8 1.4q17.9 2.4 36 1.6 19.25-.65 38.4-1.45 16.5-.7 33.05-.7 12.5 0 24.75-1.5l.8-.65q-.6-.55-1.2-1.05m51-23.35-1.4 1.85q6.7 2.45 13.5 4.4 2.7 1.05 5.4 1.85l-16.45-9.05zm-3.95 10.6q0 .95.1 1.9.4 5.3 4.2 9.3l.75.2 18.9-11.75q-1.05-.2-2.15-.25-10.75-.4-21.35-3.05z"/>
                <path d="m165.1 39.05q1.3 5.5 5.45 9.6.6.5 1.2 1.05l-.8.65q-6.8 6.4-4.3 14.85.3.45.5 1 4.5 4.75 11.15 5.55l-.3.5 3.65-1.35q-2.8-1.1-5.25-2.75-13.45-8.1-1.65-19-.85-1.1-1.7-2.2-2.8-3.85-4.65-8.05z" fill="#7b5c3d"/>
                <path d="m171.95 27.45q-.35-.65-.65-1.4-5.4-15.05 12.1-19.55l-44.45-2.65-40.9-.25q-9.45.55-21.35.75l-28 1.55q-4.1 5.85-8.1 11.8l.2.7-1.9 5.25.05.6-.75 1.6.05.7-.3.25-.65 2.45 17.85-4.1q.05 0 .1 0l-.05.1q14.45-2.05 29.05-1.8 1.65-.1 10 0l14.05-.1q16.6.7 33.2 1.25 15.2.5 30.45 2.85z" fill="#fc0"/>
                <path d="m171.8 28.15.15-.7q-15.25-2.35-30.45-2.85-16.6-.55-33.2-1.25l-14.05.1q-8.35-.1-10 0-14.6-.25-29.05 1.8-.04824219-.09667969-.05 0v-.1l-17.85 4.1-1 5.2.1 4.05q20.1 1.5 40.05-1.55 5.8-.8 20.75 3.4 20 1.4 39.7-2.65 7.35-1.5 14.8-.55 6.7.9 13.4 1.8l.65-4.35z" fill="#333"/>
                <path d="m187.45 5.05q-.8-.4-1.55-.7-.9-.05-1.85-.15-.9-.05-2-.05-.2 0-.55-.15-.5.05-.95-.05l-.7.25q-7.85-1.15-15.8-2-16.3-1.85-32.9-2.2l-52.6.55q-3.15.2-6.2.25-9.4.35-18.9 1.7l-4.65 3.15-.1.25 28-1.55q11.9-.2 21.35-.75l40.9.25 44.45 2.65 3.45-.8z" fill="#ff0"/>
                <path d="m190.2 6.3-2.75-1.25-.6.65-3.45.8q-17.5 4.5-12.1 19.55.3.75.65 1.4l-.15.7-6.05 6.45-.65 4.35v.1l3.3-.15q-.05-.4 0-.7.8-6.25 6.25-10.25-.2-.35-.3-.85-4.1-14.9 11.9-19.45zm27.5 31.5q-.1-.95-.1-1.9l-49.2 3q1.85 4.2 4.65 8.05.85 1.1 1.7 2.2-11.8 10.9 1.65 19 2.45 1.65 5.25 2.75 3.45-1.75 6.65-3.75 16.95-9.9 33.6-20.05-3.8-4-4.2-9.3z" fill="#c96"/>
                <path d="m221.55 25.3 1.05-.95-32.4-18.05-3.95 1.35z" fill="#ffe0bb"/>
                <path d="m218.05 32.25 2.1-5.1 1.4-1.85-35.3-17.65q-16 4.55-11.9 19.45.1.5.3.85-5.45 4-6.25 10.25-.05.3 0 .7l49.2-3z" fill="#fc9"/>
            </g>
        </g>
    </g>
    <g transform="translate(306.1 198.5)">
        <g>
            <g id="S_mbolo_4_0_Layer0_0_FILL">
                <path d="m20.9 32.65-.45.1.1.6-.2.35q1.45 21.1 18.75 34.6.9.75 1.85 1.5l6.75.5q-2.5-2-5.1-3.95-15.6-11.8-18-30.7l-3.5-2.35z" fill="#666"/>
                <path d="m16.8 37.35q-.35.15-.85.25-10.9 1.15-15.05-8.2-4.15 19.4 10.85 33.25 9.15 8.4 22.95 5.15l-3.3-1.75.7.2q-16.2-10.3-15.3-28.9z" fill="#c44e4e"/>
                <path d="m16.7 34.2.1 3.15q-.9 18.6 15.3 28.9l-.7-.2 3.3 1.75q2.5 2.55 6.25 2-.95-.75-1.85-1.5-17.3-13.5-18.75-34.6l.2-.35-.1-.6zm21.9-33.25-3.35 3.15q-12.05 9.65-13.95 24.45-.25 1.95-.4 4.1l.2.65 3.5 2.35q2.4 18.9 18 30.7 2.6 1.95 5.1 3.95l10.45.05q-13.8-5.7-19.15-19.45-.1-.25-.2-.5l-.8-1.45.1-.35-.95-.9q-.4-5.65-.7-11.2l-.1-4.05q-.3.2-.6.4-.6.45-1.35.7-2.4.85-5.15 1.2-2.25.35-4.5.6 0-1.2.1-2.2.1-17.4 13.9-28.95l2.1-1.7zm90.3 23.95-2.1 5.1q10.65 2.65 21.4 3.05 1.05.05 2.15.25l-2.55-2.15q-2.7-.8-5.4-1.85-6.8-1.95-13.5-4.4z" fill="#999"/>
                <path d="m24.65 9.3q.9-1.1 1.75-2.1-1.95.35-3.8.65-8.2 1.6-14.8 6.2-4.35 6.15-6.25 13-.4 1.15-.65 2.35 4.15 9.35 15.05 8.2.5-.1.85-.25l-.1-3.15q-.65-13.9 7.95-24.9z" fill="#f66"/>
                <path d="m27.9 5.6-1.5 1.6q-.85 1-1.75 2.1-8.6 11-7.95 24.9l3.75-1.45.45-.1q.15-2.15.4-4.1 1.9-14.8 13.95-24.45zm20.85-1.7.1-.25-10.1.55q-13.8 11.55-13.9 28.95-.1 1-.1 2.2 2.25-.25 4.5-.6 2.75-.35 5.15-1.2.75-.25 1.35-.7.3-.2.6-.4l1-5.2.65-2.45.3-.25-.05-.7.75-1.6-.1-.6 1.95-5.25-.2-.7q4-5.95 8.1-11.8z" fill="#ccc"/>
                <path d="m26.4 7.2 1.5-1.6 4.35-2.6q-14.8.5-24.4 10.85 0 .1-.05.2 6.6-4.6 14.8-6.2 1.85-.3 3.8-.65z" fill="#f99"/>
                <path d="m38.6.95-6.35 2.05-4.35 2.6 7.35-1.5zm12.55 1.1 2.35-1.6-8.95-.45-3.7 2.5-2.1 1.7 10.1-.55z" fill="#fff"/>
                <path d="m73.85 36.8v-.1q-5.85-.8-11.75-.15-12.75.9-25.65-.05.3 5.55.7 11.2l.95.9-.1.35.8 1.45q11.6 1.55 23.3 1.8 8.9-.7 17.6-4.1l.8-.65q-.6-.55-1.2-1.05-4.1-4.1-5.45-9.6m52.65-1.25q.35 5.3 4.15 9.3l.8.2 18.9-11.75q-1.1-.2-2.15-.25-10.75-.4-21.4-3.05l-.45 3.65q0 .95.15 1.9m4.85-13.45-1 .95-1.45 1.85q6.7 2.45 13.5 4.4 2.7 1.05 5.4 1.85z"/>
                <path d="m74.55 32.35 6-6.45.15-.7q-15.15-2.35-36.15.4l-7.2 1.65-1 5.2.1 4.05q12.9.95 25.65.05 5.9-.65 11.75.15z" fill="#333"/>
                <path d="m40.65 15.7.2.7-1.95 5.25.1.6-.75 1.6.05.7-.3.25-.65 2.45 7.2-1.65q21-2.75 36.15-.4-.35-.65-.65-1.4-5.4-15.05 12.1-19.55l-43.4-.35q-4.1 5.85-8.1 11.8m14.55 7.45q.05 0 .1 0l-.05.05-.3.05q-.4.1-1.3.25z" fill="#fc0"/>
                <path d="m86.75 70 .3-.5q-6.65-.8-11.15-5.55-.2-.55-.5-1-2.5-8.45 4.3-14.85-8.7 3.4-17.6 4.1-11.7-.25-23.3-1.8.1.25.2.5 5.35 13.75 19.15 19.45 2 .15 3.95.4 12.4.25 24.65-.75z" fill="#c60"/>
                <path d="m92.15 4.25 3.45-.8.6-.65q-22.5-2.15-45.05-.75l-2.3 1.6-.1.25z" fill="#ff0"/>
                <path d="m83.55 46.9q-.9-1.1-1.7-2.2-2.8-3.85-4.7-8.05l-3.3.15q1.35 5.5 5.45 9.6.6.5 1.2 1.05l-.8.65q-6.8 6.4-4.3 14.85.3.45.5 1 4.5 4.75 11.15 5.55l-.3.5 3.7-1.35q-2.8-1.1-5.3-2.75-13.45-8.1-1.6-19z" fill="#7b5c3d"/>
                <path d="m95 5.4 3.95-1.35-2.75-1.25-.6.65-3.45.8q-17.5 4.5-12.1 19.55.3.75.65 1.4l-.15.7-6 6.45-.7 4.35v.1l3.3-.15q-.05-.4 0-.7.85-6.25 6.25-10.25-.2-.35-.25-.85-4.1-14.9 11.85-19.45m35.65 39.45q-3.8-4-4.15-9.3-.15-.95-.15-1.9l-49.2 3q1.9 4.2 4.7 8.05.8 1.1 1.7 2.2-11.85 10.9 1.6 19 2.5 1.65 5.3 2.75 3.4-1.75 6.65-3.75 16.9-9.9 33.55-20.05z" fill="#c96"/>
                <path d="m126.8 30 2.1-5.1 1.45-1.85-35.35-17.65q-15.95 4.55-11.85 19.45.05.5.25.85-5.4 4-6.25 10.25-.05.3 0 .7l49.2-3z" fill="#fc9"/>
                <path d="m130.35 23.05 1-.95-32.4-18.05-3.95 1.35z" fill="#ffe0bb"/>
            </g>
        </g>
    </g>
    <g transform="translate(49 295.75)">
        <g>
            <g id="S_mbolo_5_0_Layer0_0_FILL">
                <path d="m2.5 33.4q2.7-.75 5.4-1.85 6.8-1.9 13.5-4.35l-1.45-1.85-1-1zm-.35 1.95q-1.1.05-2.15.2l18.9 11.75.75-.2q3.8-3.95 4.15-9.3.15-.95.15-1.9l-.45-3.65q-10.65 2.65-21.35 3.1m202.45 3.75v-.1q-6.7-.95-13.35-1.85-7.5-.9-14.8.6-17.85 3.65-35.9 2.85-18.05.8-35.9-2.85-7.35-1.5-14.8-.6-6.7.9-13.4 1.85v.1q-1.3 5.45-5.45 9.6-.6.45-1.2 1.05l.8.65q12.25 1.5 24.75 1.5 16.55 0 33 .7 6.1.2 12.2.45 6.05-.25 12.15-.45 16.45-.7 33-.7 12.55 0 24.8-1.5l.75-.65q-.55-.6-1.15-1.05-4.15-4.15-5.5-9.6m56.5-13.75-1.4 1.85q6.7 2.45 13.5 4.35 2.65 1.1 5.4 1.85l-16.5-9.05zm.35 21.75.75.2 18.9-11.75q-1.05-.15-2.15-.2-10.75-.45-21.35-3.1l-.45 3.65q0 .95.1 1.9.35 5.35 4.2 9.3z"/>
                <path d="m2.5 33.4-2.5 2.15q1.05-.15 2.15-.2 10.7-.45 21.35-3.1l-2.1-5.05q-6.7 2.45-13.5 4.35-2.7 1.1-5.4 1.85m257.2-6.2-2.1 5.05q10.6 2.65 21.35 3.1 1.1.05 2.15.2l-2.5-2.15q-2.75-.75-5.4-1.85-6.8-1.9-13.5-4.35z" fill="#999"/>
                <path d="m66.75 49.15q.9-1.05 1.7-2.15 2.8-3.85 4.7-8.1l-49.2-3q0 .95-.15 1.9-.35 5.35-4.15 9.3 16.65 10.2 33.6 20.1 3.2 1.95 6.65 3.7 2.8-1.1 5.25-2.7 13.45-8.1 1.6-19.05m-15.4-42.85 3.95 1.4q15.95 4.55 11.9 19.4-.1.5-.3.85 5.45 4.05 6.25 10.25.05.3 0 .7l3.3.2v-.1l-.7-4.4-6-6.45-.15-.65q.35-.65.65-1.45 5.4-15.05-12.1-19.55l-3.45-.8-.6-.65zm178.35 0-2.75-1.25-.55.65-3.45.8q-17.5 4.5-12.15 19.55.35.8.65 1.45l-.1.65-6.05 6.45-.7 4.4v.1l3.35-.2q-.1-.4 0-.7.8-6.2 6.25-10.25-.2-.35-.3-.85-4.1-14.85 11.9-19.4zm31.75 40.8q-3.85-3.95-4.2-9.3-.1-.95-.1-1.9l-49.2 3q1.85 4.25 4.65 8.1.8 1.1 1.7 2.15-11.85 10.95 1.65 19.05 2.45 1.6 5.25 2.7 3.4-1.75 6.65-3.7 16.9-9.9 33.6-20.1z" fill="#c96"/>
                <path d="m68.45 47q-.8 1.1-1.7 2.15 11.85 10.95-1.6 19.05-2.45 1.6-5.25 2.7l3.65 1.35-.3-.5q6.65-.75 11.15-5.55.2-.5.5-.95 2.5-8.5-4.3-14.85l-.8-.65q.6-.6 1.2-1.05 4.15-4.15 5.45-9.6l-3.3-.2q-1.9 4.25-4.7 8.1m139.5-8.1-3.35.2q1.35 5.45 5.5 9.6.6.45 1.15 1.05l-.75.65q-6.8 6.35-4.3 14.85.3.45.5.95 4.5 4.8 11.15 5.55l-.35.5 3.7-1.35q-2.8-1.1-5.25-2.7-13.5-8.1-1.65-19.05-.9-1.05-1.7-2.15-2.8-3.85-4.65-8.1z" fill="#7b5c3d"/>
                <path d="m66.9 27.95q.2-.35.3-.85 4.05-14.85-11.9-19.4l-35.35 17.65 1.45 1.85 2.1 5.05.45 3.65 49.2 3q.05-.4 0-.7-.8-6.2-6.25-10.25m192.8-.75 1.4-1.85-35.3-17.65q-16 4.55-11.9 19.4.1.5.3.85-5.45 4.05-6.25 10.25-.1.3 0 .7l49.2-3 .45-3.65z" fill="#fc9"/>
                <path d="m55.3 7.7-3.95-1.4-32.4 18.05 1 1zm205.8 17.65 1-1-32.4-18.05-3.9 1.4z" fill="#ffe0bb"/>
                <path d="m206.2 65.25q-2.5-8.5 4.3-14.85-12.25 1.5-24.8 1.5-16.55 0-33 .7-6.1.2-12.15.45-6.1-.25-12.2-.45-16.45-.7-33-.7-12.5 0-24.75-1.5 6.8 6.35 4.3 14.85-.3.45-.5.95-4.5 4.8-11.15 5.55l.3.5q19.85 1.65 40.1 2.7 18.35.8 36.9.15 18.5.65 36.9-.15 20.25-1.05 40.05-2.7l.35-.5q-6.65-.75-11.15-5.55-.2-.5-.5-.95z" fill="#c60"/>
                <path d="m205.3 34.6 6.05-6.45.1-.65q-15.25-2.4-30.45-2.9-16.55-.55-33.15-1.2h-14.6q-16.6.65-33.2 1.2-15.2.5-30.45 2.9l.15.65 6 6.45.7 4.4q6.7-.95 13.4-1.85 7.45-.9 14.8.6 17.85 3.65 35.9 2.85 18.05.8 35.9-2.85 7.3-1.5 14.8-.6 6.65.9 13.35 1.85z" fill="#333"/>
                <path d="m211.45 27.5q-.3-.65-.65-1.45-5.35-15.05 12.15-19.55l-44.45-2.65h-75.9l-44.45 2.65q17.5 4.5 12.1 19.55-.3.8-.65 1.45 15.25-2.4 30.45-2.9 16.6-.55 33.2-1.2h14.6q16.6.65 33.15 1.2 15.2.5 30.45 2.9z" fill="#fc0"/>
                <path d="m226.95 5.05q-.75-.35-1.55-.7-.85-.05-1.8-.15-.95-.05-2.05-.05-.15 0-.5-.15-.5.1-1-.05l-.65.25q-7.9-1.15-15.85-2-16.25-1.85-32.9-2.2l-30.1.35-30.15-.35q-16.6.35-32.9 2.2-7.95.85-15.8 2l-.7-.25q-.45.15-.95.05-.4.15-.55.15-1.1 0-2 .05-.95.1-1.85.15-.75.35-1.55.7l.6.65 3.45.8 44.45-2.65h75.9l44.45 2.65 3.45-.8z" fill="#ff0"/>
            </g>
        </g>
    </g>
</svg>
