<svg height="400" preserveAspectRatio="none" viewBox="0 0 550 400" width="550" xmlns="http://www.w3.org/2000/svg" xmlns:xlink="http://www.w3.org/1999/xlink">
    <linearGradient id="lg1">
        <stop offset="0" stop-color="#930"/>
        <stop offset=".97647058824" stop-color="#fc0"/>
    </linearGradient>
    <linearGradient id="Gradient_1" gradientUnits="userSpaceOnUse" spreadMethod="pad" x1="20.2875" x2="66.1125" xlink:href="#lg1" y1="27.975" y2="45.625"/>
    <linearGradient id="Gradient_2" gradientUnits="userSpaceOnUse" spreadMethod="pad" x1="19.4625" x2="34.6375" y1="9.7125" y2="45.7875">
        <stop offset="0" stop-color="#fc0"/>
        <stop offset=".99215686275" stop-color="#f90"/>
    </linearGradient>
    <linearGradient id="Gradient_3" gradientUnits="userSpaceOnUse" spreadMethod="pad" x1="32.5375" x2="17.2625" xlink:href="#lg1" y1="40.4625" y2="8.1375"/>
    <linearGradient id="Gradient_4" gradientUnits="userSpaceOnUse" spreadMethod="pad" x1="23.7875" x2="34.0125" y1="11.9875" y2="35.3125">
        <stop offset="0" stop-color="#c63"/>
        <stop offset=".99215686275" stop-color="#ff0"/>
    </linearGradient>
    <linearGradient id="lg2">
        <stop offset=".00784313725" stop-color="#f90"/>
        <stop offset=".99215686275" stop-color="#930"/>
    </linearGradient>
    <linearGradient id="Gradient_5" gradientUnits="userSpaceOnUse" spreadMethod="pad" x1="7.925" x2="36.075" xlink:href="#lg2" y1="18.5625" y2="4.3375"/>
    <linearGradient id="Gradient_6" gradientUnits="userSpaceOnUse" spreadMethod="pad" x1="6.1" x2="2.1" xlink:href="#lg2" y1="40.4125" y2="26.9875"/>
    <linearGradient id="Gradient_7" gradientUnits="userSpaceOnUse" spreadMethod="pad" x1=".85" x2="50.15" xlink:href="#lg2" y1="26.45" y2="9.15"/>
    <linearGradient id="Gradient_8" gradientUnits="userSpaceOnUse" spreadMethod="pad" x1="47.8375" x2="47.9625" y1="38.4" y2="15.3">
        <stop offset=".00784313725" stop-color="#d48c00"/>
        <stop offset=".99215686275" stop-color="#930"/>
    </linearGradient>
    <linearGradient id="lg3">
        <stop offset=".00784313725" stop-color="#fff" stop-opacity=".286275"/>
        <stop offset=".99215686275" stop-color="#fff" stop-opacity=".74902"/>
    </linearGradient>
    <linearGradient id="Gradient_9" gradientUnits="userSpaceOnUse" spreadMethod="pad" x1="19.4625" x2="34.6375" xlink:href="#lg3" y1="9.7125" y2="45.7875"/>
    <linearGradient id="Gradient_10" gradientUnits="userSpaceOnUse" spreadMethod="pad" x1="20.1625" x2="28.1375" xlink:href="#lg3" y1="13.525" y2="24.375"/>
    <linearGradient id="lg4">
        <stop offset=".00784313725" stop-color="#fff" stop-opacity=".286275"/>
        <stop offset=".98431372549" stop-color="#fff" stop-opacity=".839216"/>
    </linearGradient>
    <linearGradient id="Gradient_11" gradientUnits="userSpaceOnUse" spreadMethod="pad" x1="18.1875" x2="30.1125" xlink:href="#lg4" y1="10.8375" y2="27.0625"/>
    <linearGradient id="Gradient_12" gradientUnits="userSpaceOnUse" spreadMethod="pad" x1="23.575" x2="18.325" xlink:href="#lg1" y1="43.3625" y2="15.1375"/>
    <linearGradient id="Gradient_13" gradientUnits="userSpaceOnUse" spreadMethod="pad" x1="17.9625" x2="38.3375" xlink:href="#lg1" y1="37.5875" y2="8.2125"/>
    <linearGradient id="Gradient_14" gradientUnits="userSpaceOnUse" spreadMethod="pad" x1="22.675" x2="30.325" xlink:href="#lg1" y1="20.75" y2="69.25"/>
    <linearGradient id="Gradient_15" gradientUnits="userSpaceOnUse" spreadMethod="pad" x1="46.3875" x2="58.3125" xlink:href="#lg4" y1="-1.5125" y2="14.7125"/>
    <linearGradient id="Gradient_16" gradientUnits="userSpaceOnUse" spreadMethod="pad" x1="17.8375" x2="33.6625" xlink:href="#lg4" y1="19.125" y2="34.475"/>
    <linearGradient id="Gradient_17" gradientUnits="userSpaceOnUse" spreadMethod="pad" x1="33.2125" x2="30.6875" xlink:href="#lg1" y1="38.45" y2="11.25"/>
    <linearGradient id="Gradient_18" gradientUnits="userSpaceOnUse" spreadMethod="pad" x1="22.55" x2="64.55" xlink:href="#lg1" y1="34.2125" y2="8.7875"/>
    <linearGradient id="Gradient_19" gradientUnits="userSpaceOnUse" spreadMethod="pad" x1="17.45" x2="29.25" xlink:href="#lg4" y1="23.0125" y2="30.1875"/>
    <linearGradient id="Gradient_20" gradientUnits="userSpaceOnUse" spreadMethod="pad" x1="19.6" x2="43.5" xlink:href="#lg4" y1="21.4" y2="40.5"/>
    <g transform="matrix(4.06762695 0 0 4.06762695 57.9 96.45)">
        <g>
            <g id="S_mbolo_9_0_Layer1_0_FILL">
                <path d="m45.7 12.25q-1.00097656-1.48886719-2.25-2.9-5.65625-6.39570312-13.35-7.25-.58457031-.04355469-1.2-.1-.55742187 0-1.15 0-1.35 0-2.6.15-.88632812.10566406-1.75.3-.59277344.11347656-1.2.25-3.00664062.85820313-5.7 2.65-.37949219.2765625-.75.55-1.96855469 1.44589844-3.75 3.45-.37714844.42949219-.75.85-.40703125.54023438-.8 1.05-2.04882813 2.84589844-3.25 6.05-.2703125.72285156-.5 1.45-.90390625 2.96933594-1.15 6.2-.04785156 1.07148438-.05 2.15v.05q0 5.04238281 1.5 9.35.37421875 1.01621094.8 1.95.96386719 2.15292969 2.3 4.1.88984375 1.2078125 1.9 2.35 5.6 6.35 13.15 7.25 1.25.15 2.6.15 9.2 0 15.7-7.4 1.2640625-1.41835937 2.25-2.95 4.3-6.40703125 4.3-14.8 0-8.41660156-4.3-14.9m-1.15 4.4q.46015625.94492188.8 1.9 1.5 3.97832031 1.5 8.6 0 8.85-5.4 15.15-.2.2-.35.4-4.85 5.6-11.5 6.35-1.1.15-2.3.15-3.85039062 0-7.2-1.5-3.60019531-1.60898437-6.6-5-.19277344-.21816406-.4-.45-1.58085937-1.90234375-2.7-4.05-.26171875-.48066406-.5-1-.19941406-.43144531-.4-.9-1.7-4.16582031-1.7-9.15 0-1.18613281.1-2.35.27597656-3.28632812 1.35-6.25 1.43144531-3.83574219 4.25-7.05.08085938-.09082031.15-.2 5.71328125-6.25 13.65-6.25 1.2 0 2.3.15 1.93769531.23320313 3.7.85 4.36328125 1.55273438 7.8 5.45 2.11914063 2.39550781 3.45 5.15m-21.55-1.8q-.35.05-.6.1-6.05 10.25-7.25 12.45.7.65 1.6 1.45.8.65 1.45 1.1.95-1.65 3.2-4.6 1.55-2.05 2.4-3.25.4 3.6 1 8.25.57402344 4.43222656 1.05 7.65.32832031 1.85097656.6 3.3 2.05-.55 6.95-1.85 4.5-1.2 7.15-1.95-1.0671875-5.52167969-1.95-10-1.94863281-10-2.95-14.8-8 1.35-12.65 2.15z" fill="#fc0"/>
                <path d="m35.2 8.05q2.64882812 1.15644531 4.95 3.3-.14101563-.16835937-.3-.35-2.93417969-3.32753906-6.55-4.95-1.76230469-.61679687-3.7-.85-1.1-.15-2.3-.15-7.93671875 0-13.65 6.25-.06914062.10917969-.15.2-2.81855469 3.21425781-4.25 7.05-1.07402344 2.96367188-1.35 6.25-.1 1.16386719-.1 2.35 0 4.98417969 1.7 9.15.20058594.46855469.4.9-.16582031-.43730469-.35-.9-1.15-3.5703125-1.15-7.7 0-1.92460937.25-3.75.47167969-3.35136719 1.8-6.35 1.38652344-2.96875 3.65-5.55 5.75-6.45 13.8-6.45 1.2 0 2.3.15 2.65.3 5 1.4m-17 21.9-1.2 2.6 5-6.8 1.8-3.65q-.85 1.2-2.4 3.25-2.25 2.95-3.2 4.6m22.35 7.55.65 1.55-5.15-27.2-.4.85q1.00136719 4.8 2.95 14.8.8828125 4.47832031 1.95 10m-37.25-19.85q-1.10976562.17617188-1.95.35-.23359375.82714844-.45 1.65 1.28066406-.26875 3.3-.55 1.26679688-.19492187 2.5-.35.2296875-.72714844.5-1.45-1.65703125-.02382812-3.9.35m2.2 9.45q.00214844-1.07851562.05-2.15-1.29667969.2171875-2.95.6-1.50839844.35253906-2.6.65 0 .47285156 0 .95 0 .62089844 0 1.2.68144531-.17128906 1.5-.4 2.36777344-.62480469 4-.85m40.2 14.85q-.9859375 1.53164063-2.25 2.95-6.5 7.4-15.7 7.4-1.35 0-2.6-.15-7.55-.9-13.15-7.25-1.01015625-1.1421875-1.9-2.35-1.00019531.05-2.05.05-2.03496094 0-3.7-.2 1.30195313 2.02480469 3 3.85 6.3 6.85 14.85 7.85 1.4.15 2.95.15 10.4 0 17.7-8 1.82324219-1.94648437 3.2-4.1-.16855469-.10039062-.35-.2z" fill="url(#Gradient_1)"/>
                <path d="m45.6 26.65q0-5.8-2.3-10.5-1.24785156-2.54179687-3.15-4.8-2.30117188-2.14355469-4.95-3.3-2.35-1.1-5-1.4-1.1-.15-2.3-.15-8.05 0-13.8 6.45-2.26347656 2.58125-3.65 5.55-1.32832031 2.99863281-1.8 6.35-.25 1.82539063-.25 3.75 0 4.1296875 1.15 7.7.18417969.46269531.35.9.23828125.51933594.5 1 1.11914063 2.14765625 2.7 4.05.20722656.23183594.4.45 2.99980469 3.39101563 6.6 5 2.81308594 1 5.95 1 1.2 0 2.3-.15 6.65-.75 11.5-6.35.15-.2.35-.4 5.4-6.3 5.4-15.15m-25.05-12 15.5-2.8 5.15 27.2-16.75 4.35-2.45-17.65-5 6.8-4.8-3.8z" fill="url(#Gradient_2)"/>
                <path d="m41.2 39.05-.65-1.55q-2.65.75-7.15 1.95-4.9 1.3-6.95 1.85-.27167969-1.44902344-.6-3.3-.47597656-3.21777344-1.05-7.65-.6-4.65-1-8.25l-1.8 3.65 2.45 17.65zm-18.8-24.1-1.85-.3-8.35 14.1 4.8 3.8 1.2-2.6q-.65-.45-1.45-1.1-.9-.8-1.6-1.45 1.2-2.2 7.25-12.45z" fill="url(#Gradient_3)"/>
                <path d="m20.55 14.65 1.85.3q.25-.05.6-.1 4.65-.8 12.65-2.15l.4-.85z" fill="#ff0"/>
                <path d="m45.35 18.55q-.33984375-.95507812-.8-1.9-1.33085937-2.75449219-3.45-5.15-3.43671875-3.89726562-7.8-5.45 3.61582031 1.62246094 6.55 4.95.15898437.18164063.3.35 1.90214844 2.25820313 3.15 4.8 2.3 4.7 2.3 10.5 0 8.85-5.4 15.15-.2.2-.35.4-4.85 5.6-11.5 6.35-1.1.15-2.3.15-3.13691406 0-5.95-1 3.34960938 1.5 7.2 1.5 1.2 0 2.3-.15 6.65-.75 11.5-6.35.15-.2.35-.4 5.4-6.3 5.4-15.15 0-4.62167969-1.5-8.6z" fill="url(#Gradient_4)"/>
                <path d="m45.7 12.25q.05703125-.2609375.1-.55-1.28242187-1.95839844-2.95-3.75-7.3-7.95-17.7-7.95-.09316406 0-.2 0-.6453125.00625-1.3.05-.38476562.02578125-.8.05-.32050781.05292969-.65.1-2.11738281.23515625-4.1.8-.834375.28203125-1.65.6-3.20800781 1.25078125-6.05 3.5-.39296875.32246094-.8.65-1.159375 1.02265625-2.25 2.2-1.2859375 1.39082031-2.35 2.85-.41640625.62148438-.8 1.2-1.79140625 2.84042969-2.85 6 .84023438-.17382812 1.95-.35 2.24296875-.37382812 3.9-.35 1.20117187-3.20410156 3.25-6.05.39296875-.50976562.8-1.05.37285156-.42050781.75-.85 1.78144531-2.00410156 3.75-3.45.37050781-.2734375.75-.55 2.69335938-1.79179687 5.7-2.65.60722656-.13652344 1.2-.25.86367188-.19433594 1.75-.3 1.25-.15 2.6-.15.59257813 0 1.15 0 .61542969.05644531 1.2.1 7.69375.85429688 13.35 7.25 1.24902344 1.41113281 2.25 2.9z" fill="url(#Gradient_5)"/>
                <path d="m5.5 27.15v-.05q-1.63222656.22519531-4 .85-.81855469.22871094-1.5.4.19570313 4.68105469 1.65 8.75.42285156 1.08496094.9 2.1.79042969 1.67871094 1.8 3.2 1.66503906.2 3.7.2 1.04980469 0 2.05-.05-1.33613281-1.94707031-2.3-4.1-.42578125-.93378906-.8-1.95-1.5-4.30761719-1.5-9.35z" fill="url(#Gradient_6)"/>
                <path d="m6.7 18.75q-1.23320312.15507813-2.5.35-2.01933594.28125-3.3.55-.7828125 3.13164063-.9 6.55 1.09160156-.29746094 2.6-.65 1.65332031-.3828125 2.95-.6.24609375-3.23066406 1.15-6.2z" fill="url(#Gradient_7)"/>
                <path d="m45.8 11.7q-.04296875.2890625-.1.55 4.3 6.48339844 4.3 14.9 0 8.39296875-4.3 14.8.18144531.09960938.35.2 4.2-6.55957031 4.2-15 0-8.71464844-4.45-15.45z" fill="url(#Gradient_8)"/>
            </g>
        </g>
        <g>
            <g id="S_mbolo_9_0_Layer0_0_FILL">
                <path d="m37.05 11.05q-.33671875-.21132812-.7-.45-.99316406-.61132812-1.9-1-2.15-1-4.55-1.25-1-.15-2.1-.15-7.35 0-12.6 5.9-2.05 2.35-3.3 5.1-1.3 2.7-1.7 5.8-.2 1.65-.2 3.4 0 3.8 1.05 7.05.1.4.3.8.25.45.45.95 1 1.95 2.5 3.65.15.25.35.4.5203125.60683594 1.05 1.15 2.81855469-5.53964844 6.55-9.95l-.6-3.4-3.55 4.55-6.4-4.95 8.9-14.5 15.85-2.95 1.75 8.2q.315625-.13535156.6-.3 2.06992188-1.20097656 3.45-1.85-.99257812-1.99453125-2.4-3.6-1.36367187-1.59511719-2.8-2.6z" fill="url(#Gradient_9)"/>
                <path d="m45.7 12.25q-1.00097656-1.48886719-2.25-2.9-5.65625-6.39570312-13.35-7.25-.58457031-.04355469-1.2-.1-.55742187 0-1.15 0-1.35 0-2.6.15-.88632812.10566406-1.75.3-.59277344.11347656-1.2.25-3.00664062.85820313-5.7 2.65-.37949219.2765625-.75.55-1.96855469 1.44589844-3.75 3.45-.37714844.42949219-.75.85-.40703125.54023438-.8 1.05-2.04882813 2.84589844-3.25 6.05-.2703125.72285156-.5 1.45-.90390625 2.96933594-1.15 6.2-.04785156 1.07148438-.05 2.15v.05q0 5.04238281 1.5 9.35.37421875 1.01621094.8 1.95.96386719 2.15292969 2.3 4.1.88984375 1.2078125 1.9 2.35.82167969.93164063 1.65 1.75 1.63203125 1.49765625 3.35 2.6.60546875-1.14472656 1.35-2.45-1.83300781-1.09804687-3.5-2.7-.69570312-.66035156-1.35-1.4-.19277344-.21816406-.4-.45-1.58085937-1.90234375-2.7-4.05-.26171875-.48066406-.5-1-.19941406-.43144531-.4-.9-1.7-4.16582031-1.7-9.15 0-1.18613281.1-2.35.27597656-3.28632812 1.35-6.25 1.43144531-3.83574219 4.25-7.05.08085938-.09082031.15-.2 5.71328125-6.25 13.65-6.25 1.2 0 2.3.15 1.93769531.23320313 3.7.85 4.36328125 1.55273438 7.8 5.45 1.95058594 2.20488281 3.2 4.7.14414063.23085938.25.45.46015625.94492188.8 1.9.20039063.49511719.35.95 1.46269531-.67832031 2.9-1.25-.53125-1.65917969-1.35-3.25-.66679687-1.39863281-1.55-2.75z" fill="url(#Gradient_10)"/>
                <path d="m36.65 21.05-1.35-7.45-12.65 2.35-6.3 11.35 1.85 1.55 5.95-8.2 1.6 10.3q5.20625-6.03652344 10.9-9.9z" fill="url(#Gradient_11)"/>
            </g>
        </g>
    </g>
    <g transform="matrix(2.39988708 0 0 2.39988708 286.5 226.6)">
        <g>
            <g id="Copia_de_S_mbolo_9_0_Layer1_0_FILL">
                <path d="m5.5 27.15v-.05q-1.63222656.22519531-4 .85-.81855469.22871094-1.5.4.19570313 4.68105469 1.65 8.75.42285156 1.08496094.9 2.1.79042969 1.67871094 1.8 3.2 1.66503906.2 3.7.2 1.04980469 0 2.05-.05-1.33613281-1.94707031-2.3-4.1-.42578125-.93378906-.8-1.95-1.5-4.30761719-1.5-9.35z" fill="url(#Gradient_6)"/>
                <path d="m5.5 27.1q.00214844-1.07851562.05-2.15-1.29667969.2171875-2.95.6-1.50839844.35253906-2.6.65 0 .47285156 0 .95 0 .62089844 0 1.2.68144531-.17128906 1.5-.4 2.36777344-.62480469 4-.85m-1.3-8q1.26679688-.19492187 2.5-.35.2296875-.72714844.5-1.45-1.65703125-.02382812-3.9.35-1.10976562.17617188-1.95.35-.23359375.82714844-.45 1.65 1.28066406-.26875 3.3-.55m41.85 23.05q-.16855469-.10039062-.35-.2-.9859375 1.53164063-2.25 2.95-6.5 7.4-15.7 7.4-1.35 0-2.6-.15-7.55-.9-13.15-7.25-1.01015625-1.1421875-1.9-2.35-1.00019531.05-2.05.05-2.03496094 0-3.7-.2 1.30195313 2.02480469 3 3.85 6.3 6.85 14.85 7.85 1.4.15 2.95.15 10.4 0 17.7-8 1.82324219-1.94648437 3.2-4.1m-5.9-30.8q-.14101563-.16835937-.3-.35-2.93417969-3.32753906-6.55-4.95-1.76230469-.61679687-3.7-.85-1.1-.15-2.3-.15-7.93671875 0-13.65 6.25-.06914062.10917969-.15.2-2.81855469 3.21425781-4.25 7.05-1.07402344 2.96367188-1.35 6.25-.1 1.16386719-.1 2.35 0 4.98417969 1.7 9.15.20058594.46855469.4.9-.16582031-.43730469-.35-.9-1.15-3.5703125-1.15-7.7 0-1.92460937.25-3.75.47167969-3.35136719 1.8-6.35 1.38652344-2.96875 3.65-5.55 5.75-6.45 13.8-6.45 1.2 0 2.3.15 2.65.3 5 1.4 2.64882812 1.15644531 4.95 3.3z" fill="url(#Gradient_1)"/>
                <path d="m6.7 18.75q-1.23320312.15507813-2.5.35-2.01933594.28125-3.3.55-.7828125 3.13164063-.9 6.55 1.09160156-.29746094 2.6-.65 1.65332031-.3828125 2.95-.6.24609375-3.23066406 1.15-6.2z" fill="url(#Gradient_7)"/>
                <path d="m45.7 12.25q-1.00097656-1.48886719-2.25-2.9-5.65625-6.39570312-13.35-7.25-.58457031-.04355469-1.2-.1-.55742187 0-1.15 0-1.35 0-2.6.15-.88632812.10566406-1.75.3-.59277344.11347656-1.2.25-3.00664062.85820313-5.7 2.65-.37949219.2765625-.75.55-1.96855469 1.44589844-3.75 3.45-.37714844.42949219-.75.85-.40703125.54023438-.8 1.05-2.04882813 2.84589844-3.25 6.05-.2703125.72285156-.5 1.45-.90390625 2.96933594-1.15 6.2-.04785156 1.07148438-.05 2.15v.05q0 5.04238281 1.5 9.35.37421875 1.01621094.8 1.95.96386719 2.15292969 2.3 4.1.88984375 1.2078125 1.9 2.35 5.6 6.35 13.15 7.25 1.25.15 2.6.15 9.2 0 15.7-7.4 1.2640625-1.41835937 2.25-2.95 4.3-6.40703125 4.3-14.8 0-8.41660156-4.3-14.9m-4.6-.75q2.11914063 2.39550781 3.45 5.15.46015625.94492188.8 1.9 1.5 3.97832031 1.5 8.6 0 8.85-5.4 15.15-.2.2-.35.4-4.85 5.6-11.5 6.35-1.1.15-2.3.15-3.85039062 0-7.2-1.5-3.60019531-1.60898437-6.6-5-.19277344-.21816406-.4-.45-1.58085937-1.90234375-2.7-4.05-.26171875-.48066406-.5-1-.19941406-.43144531-.4-.9-1.7-4.16582031-1.7-9.15 0-1.18613281.1-2.35.27597656-3.28632812 1.35-6.25 1.43144531-3.83574219 4.25-7.05.08085938-.09082031.15-.2 5.71328125-6.25 13.65-6.25 1.2 0 2.3.15 1.93769531.23320313 3.7.85 4.36328125 1.55273438 7.8 5.45m-20.45 4.5h-.05q-.2 1-.45 2.15-.15 1-.25 1.8 1.95 0 5.6.5 2.55.25 4 .4-2.9 2.15-6.65 5.05-.38144531.28476563-.75.55-.73867187.57910156-1.45 1.1-2.17089844 1.6921875-3.9 3.15-.53417969.43867188-1.05.85-.76972656.64335938-1.45 1.2 1.45 1.55 5.05 5.1 3.15605469 3.15605469 5.05 5 .11484375.11699219.2.2 4.25-3.65 7.7-6.65 4.23828125-3.68789063 7.25-6.35 2.45898438-2.16640625 4.1-3.65-3.62226563-4.3609375-6.2-7.45-1.0953125-1.31738281-2-2.4-.2-.3-.4-.45-11.73574219-.14863281-14.35-.1z" fill="#fc0"/>
                <path d="m45.6 26.65q0-5.8-2.3-10.5-1.24785156-2.54179687-3.15-4.8-2.30117188-2.14355469-4.95-3.3-2.35-1.1-5-1.4-1.1-.15-2.3-.15-8.05 0-13.8 6.45-2.26347656 2.58125-3.65 5.55-1.32832031 2.99863281-1.8 6.35-.25 1.82539063-.25 3.75 0 4.1296875 1.15 7.7.18417969.46269531.35.9.23828125.51933594.5 1 1.11914063 2.14765625 2.7 4.05.20722656.23183594.4.45 2.99980469 3.39101563 6.6 5 2.81308594 1 5.95 1 1.2 0 2.3-.15 6.65-.75 11.5-6.35.15-.2.35-.4 5.4-6.3 5.4-15.15m-27.65-12.5h.05l16.35.2 10.2 12-21 18.1-12.15-12.4 14.05-10.9-8.4-.95z" fill="url(#Gradient_2)"/>
                <path d="m35 16.1-.65-1.75-16.35-.2 2.65 1.85q2.61425781-.04863281 14.35.1z" fill="#ff0"/>
                <path d="m29.5 20.85-4.05.3-14.05 10.9 12.15 12.4 21-18.1-10.2-12 .65 1.75q.2.15.4.45.9046875 1.08261719 2 2.4 2.57773437 3.0890625 6.2 7.45-1.64101562 1.48359375-4.1 3.65-3.01171875 2.66210937-7.25 6.35-3.45 3-7.7 6.65-.08515625-.08300781-.2-.2-1.89394531-1.84394531-5.05-5-3.6-3.55-5.05-5.1.68027344-.55664062 1.45-1.2.51582031-.41132812 1.05-.85 1.72910156-1.4578125 3.9-3.15.71132813-.52089844 1.45-1.1.36855469-.26523437.75-.55 3.75-2.9 6.65-5.05z" fill="url(#Gradient_12)"/>
                <path d="m20.6 16h.05l-2.65-1.85h-.05l-.9 6.05 2.85-.25q.1-.8.25-1.8.25-1.15.45-2.15z" fill="url(#Gradient_13)"/>
                <path d="m29.5 20.85q-1.45-.15-4-.4-3.65-.5-5.6-.5l-2.85.25 8.4.95z" fill="url(#Gradient_14)"/>
                <path d="m44.55 16.65q-1.33085937-2.75449219-3.45-5.15-3.43671875-3.89726562-7.8-5.45 3.61582031 1.62246094 6.55 4.95.15898437.18164063.3.35 1.90214844 2.25820313 3.15 4.8 2.3 4.7 2.3 10.5 0 8.85-5.4 15.15-.2.2-.35.4-4.85 5.6-11.5 6.35-1.1.15-2.3.15-3.13691406 0-5.95-1 3.34960938 1.5 7.2 1.5 1.2 0 2.3-.15 6.65-.75 11.5-6.35.15-.2.35-.4 5.4-6.3 5.4-15.15 0-4.62167969-1.5-8.6-.33984375-.95507812-.8-1.9z" fill="url(#Gradient_4)"/>
                <path d="m45.8 11.7q-.04296875.2890625-.1.55 4.3 6.48339844 4.3 14.9 0 8.39296875-4.3 14.8.18144531.09960938.35.2 4.2-6.55957031 4.2-15 0-8.71464844-4.45-15.45z" fill="url(#Gradient_8)"/>
                <path d="m45.7 12.25q.05703125-.2609375.1-.55-1.28242187-1.95839844-2.95-3.75-7.3-7.95-17.7-7.95-.09316406 0-.2 0-.6453125.00625-1.3.05-.38476562.02578125-.8.05-.32050781.05292969-.65.1-2.11738281.23515625-4.1.8-.834375.28203125-1.65.6-3.20800781 1.25078125-6.05 3.5-.39296875.32246094-.8.65-1.159375 1.02265625-2.25 2.2-1.2859375 1.39082031-2.35 2.85-.41640625.62148438-.8 1.2-1.79140625 2.84042969-2.85 6 .84023438-.17382812 1.95-.35 2.24296875-.37382812 3.9-.35 1.20117187-3.20410156 3.25-6.05.39296875-.50976562.8-1.05.37285156-.42050781.75-.85 1.78144531-2.00410156 3.75-3.45.37050781-.2734375.75-.55 2.69335938-1.79179687 5.7-2.65.60722656-.13652344 1.2-.25.86367188-.19433594 1.75-.3 1.25-.15 2.6-.15.59257813 0 1.15 0 .61542969.05644531 1.2.1 7.69375.85429688 13.35 7.25 1.24902344 1.41113281 2.25 2.9z" fill="url(#Gradient_5)"/>
            </g>
        </g>
        <g>
            <g id="Copia_de_S_mbolo_9_0_Layer0_0_FILL">
                <path d="m25.5 20.45q2.55.25 4 .4-2.9 2.15-6.65 5.05-.38144531.28476563-.75.55-.73867187.57910156-1.45 1.1-2.17089844 1.6921875-3.9 3.15-.53417969.43867188-1.05.85-.76972656.64335938-1.45 1.2 1.31699219 1.4078125 4.4 4.45.31972656.32441406.65.65.15703125.15703125.3.3 1.00703125 1.00703125 1.85 1.85 1.04863281-1.70429687 2.1-3.15 2.65-3.55 6.9-7.45 2.15-2 7.35-4.8 1.6109375-.85136719 3-1.55-1.41347656-1.72050781-2.65-3.2-.05429687-.06523438-.1-.15-.33300781-.3703125-.65-.75-1.0953125-1.31738281-2-2.4-.2-.3-.4-.45-11.73574219-.14863281-14.35-.1h-.05q-.2 1-.45 2.15-.15 1-.25 1.8 1.95 0 5.6.5z" fill="url(#Gradient_15)"/>
                <path d="m43.6 26.4q-1.4765625-1.77753906-2.8-3.35-1.3890625.69863281-3 1.55-5.2 2.8-7.35 4.8-4.25 3.9-6.9 7.45-1.05136719 1.44570313-2.1 3.15 1.71914063 1.70058594 2.9 2.85.11484375.11699219.2.2 4.25-3.65 7.7-6.65 4.23828125-3.68789063 7.25-6.35 2.45898438-2.16640625 4.1-3.65z" fill="#fc0"/>
                <path d="m45.6 26.65q0-5.25058594-1.9-9.6-2.45605469.82792969-5.1 2.3l5.95 7-21 18.1-4.75-4.85q-1.47421875 2.96972656-2.25 5.95.88339844.69355469 1.8 1.25.87832031.52089844 1.75.9 2.81308594 1 5.95 1 1.2 0 2.3-.15 6.65-.75 11.5-6.35.15-.2.35-.4 5.4-6.3 5.4-15.15z" fill="url(#Gradient_2)"/>
                <path d="m43.7 17.05q-.18203125-.4546875-.4-.9-1.24785156-2.54179687-3.15-4.8-2.30117188-2.14355469-4.95-3.3-2.35-1.1-5-1.4-1.1-.15-2.3-.15-8.05 0-13.8 6.45-2.26347656 2.58125-3.65 5.55-1.32832031 2.99863281-1.8 6.35-.25 1.82539063-.25 3.75 0 4.1296875 1.15 7.7.18417969.46269531.35.9.23828125.51933594.5 1 1.11914063 2.14765625 2.7 4.05.20722656.23183594.4.45.65429688.73964844 1.35 1.4.82226563.79023438 1.7 1.45.77578125-2.98027344 2.25-5.95l-7.4-7.55 14.05-10.9-8.4-.95.9-6.05 16.4.2 4.25 5q2.64394531-1.47207031 5.1-2.3z" fill="url(#Gradient_16)"/>
                <path d="m45.7 12.25q-1.00097656-1.48886719-2.25-2.9-5.65625-6.39570312-13.35-7.25-.58457031-.04355469-1.2-.1-.55742187 0-1.15 0-1.35 0-2.6.15-.88632812.10566406-1.75.3-.59277344.11347656-1.2.25-3.00664062.85820313-5.7 2.65-.37949219.2765625-.75.55-1.96855469 1.44589844-3.75 3.45-.37714844.42949219-.75.85-.40703125.54023438-.8 1.05-2.04882813 2.84589844-3.25 6.05-.2703125.72285156-.5 1.45-.90390625 2.96933594-1.15 6.2-.04785156 1.07148438-.05 2.15v.05q0 5.04238281 1.5 9.35.37421875 1.01621094.8 1.95.96386719 2.15292969 2.3 4.1.88984375 1.2078125 1.9 2.35.82167969.93164063 1.65 1.75 1.63203125 1.49765625 3.35 2.6.60546875-1.14472656 1.35-2.45-.91660156-.55644531-1.8-1.25-.87773437-.65976562-1.7-1.45-.69570312-.66035156-1.35-1.4-.19277344-.21816406-.4-.45-1.58085937-1.90234375-2.7-4.05-.26171875-.48066406-.5-1-.19941406-.43144531-.4-.9-1.7-4.16582031-1.7-9.15 0-1.18613281.1-2.35.27597656-3.28632812 1.35-6.25 1.43144531-3.83574219 4.25-7.05.08085938-.09082031.15-.2 5.71328125-6.25 13.65-6.25 1.2 0 2.3.15 1.93769531.23320313 3.7.85 4.36328125 1.55273438 7.8 5.45 1.95058594 2.20488281 3.2 4.7.14414063.23085938.25.45.02871094.05878906.05.1.4328125.90585937.75 1.8.20039063.49511719.35.95 1.46269531-.67832031 2.9-1.25-.33515625-1.06542969-.8-2.15-.24511719-.53925781-.55-1.1-.66679687-1.39863281-1.55-2.75z" fill="url(#Gradient_10)"/>
            </g>
        </g>
    </g>
    <g transform="matrix(2.82295227 0 0 2.82295227 297.65 23.25)">
        <g>
            <g id="Copia_de_S_mbolo_9_2_0_Layer1_0_FILL">
                <path d="m5.5 27.15v-.05q-1.63222656.22519531-4 .85-.81855469.22871094-1.5.4.19570313 4.68105469 1.65 8.75.42285156 1.08496094.9 2.1.79042969 1.67871094 1.8 3.2 1.66503906.2 3.7.2 1.04980469 0 2.05-.05-1.33613281-1.94707031-2.3-4.1-.42578125-.93378906-.8-1.95-1.5-4.30761719-1.5-9.35z" fill="url(#Gradient_6)"/>
                <path d="m5.5 27.1q.00214844-1.07851562.05-2.15-1.29667969.2171875-2.95.6-1.50839844.35253906-2.6.65 0 .47285156 0 .95 0 .62089844 0 1.2.68144531-.17128906 1.5-.4 2.36777344-.62480469 4-.85m-1.3-8q1.26679688-.19492187 2.5-.35.2296875-.72714844.5-1.45-1.65703125-.02382812-3.9.35-1.10976562.17617188-1.95.35-.23359375.82714844-.45 1.65 1.28066406-.26875 3.3-.55m41.85 23.05q-.16855469-.10039062-.35-.2-.9859375 1.53164063-2.25 2.95-6.5 7.4-15.7 7.4-1.35 0-2.6-.15-7.55-.9-13.15-7.25-1.01015625-1.1421875-1.9-2.35-1.00019531.05-2.05.05-2.03496094 0-3.7-.2 1.30195313 2.02480469 3 3.85 6.3 6.85 14.85 7.85 1.4.15 2.95.15 10.4 0 17.7-8 1.82324219-1.94648437 3.2-4.1m-5.9-30.8q-.14101563-.16835937-.3-.35-2.93417969-3.32753906-6.55-4.95-1.76230469-.61679687-3.7-.85-1.1-.15-2.3-.15-7.93671875 0-13.65 6.25-.06914062.10917969-.15.2-2.81855469 3.21425781-4.25 7.05-1.07402344 2.96367188-1.35 6.25-.1 1.16386719-.1 2.35 0 4.98417969 1.7 9.15.20058594.46855469.4.9-.16582031-.43730469-.35-.9-1.15-3.5703125-1.15-7.7 0-1.92460937.25-3.75.47167969-3.35136719 1.8-6.35 1.38652344-2.96875 3.65-5.55 5.75-6.45 13.8-6.45 1.2 0 2.3.15 2.65.3 5 1.4 2.64882812 1.15644531 4.95 3.3z" fill="url(#Gradient_1)"/>
                <path d="m6.7 18.75q-1.23320312.15507813-2.5.35-2.01933594.28125-3.3.55-.7828125 3.13164063-.9 6.55 1.09160156-.29746094 2.6-.65 1.65332031-.3828125 2.95-.6.24609375-3.23066406 1.15-6.2z" fill="url(#Gradient_7)"/>
                <path d="m45.7 12.25q-1.00097656-1.48886719-2.25-2.9-5.65625-6.39570312-13.35-7.25-.58457031-.04355469-1.2-.1-.55742187 0-1.15 0-1.35 0-2.6.15-.88632812.10566406-1.75.3-.59277344.11347656-1.2.25-3.00664062.85820313-5.7 2.65-.37949219.2765625-.75.55-1.96855469 1.44589844-3.75 3.45-.37714844.42949219-.75.85-.40703125.54023438-.8 1.05-2.04882813 2.84589844-3.25 6.05-.2703125.72285156-.5 1.45-.90390625 2.96933594-1.15 6.2-.04785156 1.07148438-.05 2.15v.05q0 5.04238281 1.5 9.35.37421875 1.01621094.8 1.95.96386719 2.15292969 2.3 4.1.88984375 1.2078125 1.9 2.35 5.6 6.35 13.15 7.25 1.25.15 2.6.15 9.2 0 15.7-7.4 1.2640625-1.41835937 2.25-2.95 4.3-6.40703125 4.3-14.8 0-8.41660156-4.3-14.9m-4.6-.75q2.11914063 2.39550781 3.45 5.15.46015625.94492188.8 1.9 1.5 3.97832031 1.5 8.6 0 8.85-5.4 15.15-.2.2-.35.4-4.85 5.6-11.5 6.35-1.1.15-2.3.15-3.85039062 0-7.2-1.5-3.60019531-1.60898437-6.6-5-.19277344-.21816406-.4-.45-1.58085937-1.90234375-2.7-4.05-.26171875-.48066406-.5-1-.19941406-.43144531-.4-.9-1.7-4.16582031-1.7-9.15 0-1.18613281.1-2.35.27597656-3.28632812 1.35-6.25 1.43144531-3.83574219 4.25-7.05.08085938-.09082031.15-.2 5.71328125-6.25 13.65-6.25 1.2 0 2.3.15 1.93769531.23320313 3.7.85 4.36328125 1.55273438 7.8 5.45m-3.2 10.15q-2.365625-1.15878906-4.5-2.2-6.36582031-3.21796875-10.45-5.25-1.72792969-.85410156-3.05-1.5-3.85 7.15-6.05 11.3-.2.3-.35.55.24472656.61464844.45 1.2 1.54316406 3.79902344 2.6 6.45 1.78574219 4.35429688 2.4 5.7.95-.15 2.1-.4 1-.2 1.8-.45-.75-1.75-1.7-5.35-.59101562-2.1109375-1-3.4-.07988281-.23984375-.15-.45.15722656.09394531.3.2 1.05292969.60507813 2.2 1.25 2.15507813 1.31035156 4.7 2.8 3.8 2.25 6.75 3.8 1.6.9 2.9 1.6.8-2 2.8-6.65 1.8-4.3 2.85-6.85-2.39707031-1.22246094-4.6-2.35z" fill="#fc0"/>
                <path d="m45.6 26.65q0-5.8-2.3-10.5-1.24785156-2.54179687-3.15-4.8-2.30117188-2.14355469-4.95-3.3-2.35-1.1-5-1.4-1.1-.15-2.3-.15-8.05 0-13.8 6.45-2.26347656 2.58125-3.65 5.55-1.32832031 2.99863281-1.8 6.35-.25 1.82539063-.25 3.75 0 4.1296875 1.15 7.7.18417969.46269531.35.9.23828125.51933594.5 1 1.11914063 2.14765625 2.7 4.05.20722656.23183594.4.45 2.99980469 3.39101563 6.6 5 2.81308594 1 5.95 1 1.2 0 2.3-.15 6.65-.75 11.5-6.35.15-.2.35-.4 5.4-6.3 5.4-15.15m-27.4 14.4-6-15.25 7.25-13.95 24.65 12.6-6.85 15.9-15.45-8.9 2.35 8.15z" fill="url(#Gradient_2)"/>
                <path d="m42.5 24 1.6.45-24.65-12.6-7.25 13.95 1.3-1.25q.15-.25.35-.55 2.2-4.15 6.05-11.3 1.32207031.64589844 3.05 1.5 4.08417969 2.03203125 10.45 5.25 2.134375 1.04121094 4.5 2.2 2.20292969 1.12753906 4.6 2.35z" fill="#ff0"/>
                <path d="m44.1 24.45-1.6-.45q-1.05 2.55-2.85 6.85-2 4.65-2.8 6.65-1.3-.7-2.9-1.6-2.95-1.55-6.75-3.8-2.54492187-1.48964844-4.7-2.8-1.14707031-.64492187-2.2-1.25-.14277344-.10605469-.3-.2l1.8 3.6 15.45 8.9zm-27.55 7.75q-1.05683594-2.65097656-2.6-6.45-.20527344-.58535156-.45-1.2l-1.3 1.25 6 15.25 5.95-1.45-1.3-2.55q-.8.25-1.8.45-1.15.25-2.1.4-.61425781-1.34570312-2.4-5.7z" fill="url(#Gradient_17)"/>
                <path d="m20 27.85q.07011719.21015625.15.45.40898438 1.2890625 1 3.4.95 3.6 1.7 5.35l1.3 2.55-2.35-8.15z" fill="url(#Gradient_18)"/>
                <path d="m44.55 16.65q-1.33085937-2.75449219-3.45-5.15-3.43671875-3.89726562-7.8-5.45 3.61582031 1.62246094 6.55 4.95.15898437.18164063.3.35 1.90214844 2.25820313 3.15 4.8 2.3 4.7 2.3 10.5 0 8.85-5.4 15.15-.2.2-.35.4-4.85 5.6-11.5 6.35-1.1.15-2.3.15-3.13691406 0-5.95-1 3.34960938 1.5 7.2 1.5 1.2 0 2.3-.15 6.65-.75 11.5-6.35.15-.2.35-.4 5.4-6.3 5.4-15.15 0-4.62167969-1.5-8.6-.33984375-.95507812-.8-1.9z" fill="url(#Gradient_4)"/>
                <path d="m45.8 11.7q-.04296875.2890625-.1.55 4.3 6.48339844 4.3 14.9 0 8.39296875-4.3 14.8.18144531.09960938.35.2 4.2-6.55957031 4.2-15 0-8.71464844-4.45-15.45z" fill="url(#Gradient_8)"/>
                <path d="m45.7 12.25q.05703125-.2609375.1-.55-1.28242187-1.95839844-2.95-3.75-7.3-7.95-17.7-7.95-.09316406 0-.2 0-.6453125.00625-1.3.05-.38476562.02578125-.8.05-.32050781.05292969-.65.1-2.11738281.23515625-4.1.8-.834375.28203125-1.65.6-3.20800781 1.25078125-6.05 3.5-.39296875.32246094-.8.65-1.159375 1.02265625-2.25 2.2-1.2859375 1.39082031-2.35 2.85-.41640625.62148438-.8 1.2-1.79140625 2.84042969-2.85 6 .84023438-.17382812 1.95-.35 2.24296875-.37382812 3.9-.35 1.20117187-3.20410156 3.25-6.05.39296875-.50976562.8-1.05.37285156-.42050781.75-.85 1.78144531-2.00410156 3.75-3.45.37050781-.2734375.75-.55 2.69335938-1.79179687 5.7-2.65.60722656-.13652344 1.2-.25.86367188-.19433594 1.75-.3 1.25-.15 2.6-.15.59257813 0 1.15 0 .61542969.05644531 1.2.1 7.69375.85429688 13.35 7.25 1.24902344 1.41113281 2.25 2.9z" fill="url(#Gradient_5)"/>
            </g>
        </g>
        <g>
            <g id="Copia_de_S_mbolo_9_2_0_Layer0_0_FILL">
                <path d="m22.85 37.05q-.50097656-1.16875-1.1-3.2-1.51308594 2.07089844-2.7 4 .92011719-.11523437 2-.35 1-.2 1.8-.45m7.95-8.35q-1.91777344 1.76386719-3.5 3.45 3.74375 2.22304688 6.65 3.75 1.6.9 2.9 1.6.8-2 2.8-6.65 1.8-4.3 2.85-6.85-1.70839844-.87128906-3.3-1.7-4.06738281 2.41933594-8.4 6.4z" fill="#fc0"/>
                <path d="m39.2 22.3q-.64941406-.30820312-1.3-.65-1.3375-.64960937-2.65-1.3-.93203125-.45214844-1.85-.9-6.36582031-3.21796875-10.45-5.25-1.72792969-.85410156-3.05-1.5-3.85 7.15-6.05 11.3-.2.3-.35.55.24472656.61464844.45 1.2 1.54316406 3.79902344 2.6 6.45 1.78574219 4.35429688 2.4 5.7.0578125-.00917969.1-.05 1.18691406-1.92910156 2.7-4-.28457031-.95449219-.6-2.15-.59101562-2.1109375-1-3.4-.07988281-.23984375-.15-.45.15722656.09394531.3.2 1.05292969.60507813 2.2 1.25.94433594.58828125 1.95 1.2 1.32011719.76308594 2.75 1.6.05644531.03339844.1.05 1.58222656-1.68613281 3.5-3.45 4.33261719-3.98066406 8.4-6.4z" fill="url(#Gradient_19)"/>
                <path d="m40.15 11.35q-2.30117188-2.14355469-4.95-3.3-2.35-1.1-5-1.4-1.1-.15-2.3-.15-8.05 0-13.8 6.45-2.26347656 2.58125-3.65 5.55-1.32832031 2.99863281-1.8 6.35-.25 1.82539063-.25 3.75 0 4.1296875 1.15 7.7.18417969.46269531.35.9.23828125.51933594.5 1 1.11914063 2.14765625 2.7 4.05.20722656.23183594.4.45.65429688.73964844 1.35 1.4.50859375.48886719 1 .9.70234375-2.35566406 1.95-4.9l-5.6-14.3 7.25-13.95 16.15 8.25q3.74589844-2.51894531 7.6-4.1-1.19726562-2.45039062-3.05-4.65z" fill="url(#Gradient_20)"/>
                <path d="m43.3 16.15q-.0328125-.06679687-.1-.15-3.85410156 1.58105469-7.6 4.1l8.5 4.35-6.85 15.9-15.45-8.9 2.35 8.15-5.95 1.45-.4-.95q-1.24765625 2.54433594-1.95 4.9 1.23398438 1.03691406 2.5 1.8.87832031.52089844 1.75.9 2.81308594 1 5.95 1 1.2 0 2.3-.15 6.65-.75 11.5-6.35.15-.2.35-.4 5.4-6.3 5.4-15.15 0-3.67519531-.95-6.9-.50742187-1.878125-1.35-3.6z" fill="url(#Gradient_2)"/>
                <path d="m45.7 12.25q-1.00097656-1.48886719-2.25-2.9-5.65625-6.39570312-13.35-7.25-.58457031-.04355469-1.2-.1-.55742187 0-1.15 0-1.35 0-2.6.15-.88632812.10566406-1.75.3-.59277344.11347656-1.2.25-3.00664062.85820313-5.7 2.65-.37949219.2765625-.75.55-1.96855469 1.44589844-3.75 3.45-.37714844.42949219-.75.85-.40703125.54023438-.8 1.05-2.04882813 2.84589844-3.25 6.05-.2703125.72285156-.5 1.45-.90390625 2.96933594-1.15 6.2-.04785156 1.07148438-.05 2.15v.05q0 5.04238281 1.5 9.35.37421875 1.01621094.8 1.95.96386719 2.15292969 2.3 4.1.88984375 1.2078125 1.9 2.35.82167969.93164063 1.65 1.75 1.63203125 1.49765625 3.35 2.6.60546875-1.14472656 1.35-2.45-1.26601562-.76308594-2.5-1.8-.49140625-.41113281-1-.9-.69570312-.66035156-1.35-1.4-.19277344-.21816406-.4-.45-1.58085937-1.90234375-2.7-4.05-.26171875-.48066406-.5-1-.19941406-.43144531-.4-.9-1.7-4.16582031-1.7-9.15 0-1.18613281.1-2.35.27597656-3.28632812 1.35-6.25 1.43144531-3.83574219 4.25-7.05.08085938-.09082031.15-.2 5.71328125-6.25 13.65-6.25 1.2 0 2.3.15 1.93769531.23320313 3.7.85 4.36328125 1.55273438 7.8 5.45 1.74414063 1.97148438 2.95 4.2.14003906.25820313.25.5.14414063.23085938.25.45.46015625.94492188.8 1.9.18066406.44238281.3.85.03320313.07109375.05.1 1.46269531-.67832031 2.9-1.25-.53125-1.65917969-1.35-3.25-.04863281-.14882812-.15-.3-.61074219-1.23984375-1.4-2.45z" fill="url(#Gradient_10)"/>
            </g>
        </g>
    </g>
</svg>
