<svg enable-background="new 0 0 550 400" viewBox="0 0 550 400" xmlns="http://www.w3.org/2000/svg" xmlns:xlink="http://www.w3.org/1999/xlink">
    <linearGradient id="lg1">
        <stop offset=".007843137" stop-color="#f90"/>
        <stop offset="1" stop-color="#8e4723"/>
    </linearGradient>
    <linearGradient id="SVGID_1_" gradientTransform="matrix(.9399 0 0 -.9399 190.7701 165.2265)" gradientUnits="userSpaceOnUse" x1="-180.2284" x2="-167.4787" xlink:href="#lg1" y1="163.6593" y2="91.5427"/>
    <linearGradient id="SVGID_2_" gradientTransform="matrix(.936 .08552599 .08552599 -.936 301.2169 120.7056)" gradientUnits="userSpaceOnUse" x1="-318.8022" x2="-306.0526" xlink:href="#lg1" y1="123.0069" y2="50.8903"/>
    <linearGradient id="SVGID_3_" gradientTransform="matrix(.936 .08552599 .08552599 -.936 301.2169 120.7056)" gradientUnits="userSpaceOnUse" x1="-286.6648" x2="-339.2798" xlink:href="#lg1" y1="119.1294" y2="68.2024"/>
    <linearGradient id="SVGID_4_" gradientTransform="matrix(.8624 -.3739 -.3739 -.8624 -221.7896 901.3186)" gradientUnits="userSpaceOnUse" x1="627.8906" x2="640.6403" xlink:href="#lg1" y1="812.9252" y2="740.8086"/>
    <linearGradient id="SVGID_5_" gradientTransform="matrix(.8624 -.3739 -.3739 -.8624 -221.7896 901.3186)" gradientUnits="userSpaceOnUse" x1="611.7975" x2="664.4484" xlink:href="#lg1" y1="809.9383" y2="759.0472"/>
    <g id="Capa_2">
        <ellipse cx="288.2" cy="350" fill="#e5e5e5" rx="88.4" ry="13.7"/>
    </g>
    <g id="Capa_1">
        <g>
            <g transform="matrix(.93992615 0 0 .93992615 269 153.75)">
                <g>
                    <g>
                        <g id="S_mbolo_9_0_Layer0_0_FILL">
                            <path d="m62.4 39.1c0-10.8-3.5-20-10.6-27.6-7-7.6-15.5-11.4-25.4-11.4-1.5 0-2.9.1-4.2.3-8.3.9-15.4 4.6-21.5 11.1-7 7.6-10.6 16.8-10.6 27.6 0 10.7 3.5 19.9 10.6 27.4 6 6.6 13.1 10.3 21.3 11.3 1.3.1 2.8.2 4.2.2 10 0 18.4-3.8 25.4-11.5 7.2-7.5 10.8-16.7 10.8-27.4m-9.8-25.6c6.3 7.1 9.4 15.6 9.4 25.6s-3.1 18.5-9.4 25.5c-6.2 7.1-13.8 10.6-22.6 10.6-1.3 0-2.5-.1-3.7-.2-7.2-.9-13.5-4.3-18.9-10.4-6.2-7-9.3-15.5-9.3-25.5s3.1-18.5 9.3-25.6c5.4-6 11.7-9.5 18.9-10.3 1.2-.1 2.4-.2 3.7-.2 8.8 0 16.4 3.5 22.6 10.5m-11.2 4.9c-7.7 1.3-13.7 2.3-18.2 3.1-.3 0-.6.1-.9.1-5.8 9.8-9.3 15.8-10.4 17.9.7.6 1.4 1.3 2.3 2.1.8.6 1.5 1.1 2.1 1.6.9-1.6 2.4-3.8 4.6-6.6 1.5-2 2.6-3.5 3.4-4.7.4 3.4.9 7.4 1.4 11.9.9 6.7 1.7 11.9 2.4 15.7 2-.5 5.3-1.4 10-2.7 4.3-1.1 7.7-2.1 10.3-2.8-3.3-17.1-5.6-29-7-35.6z" fill="url(#SVGID_1_)"/>
                            <path d="m62 39.1c0-10-3.1-18.5-9.4-25.6-6.2-7-13.8-10.5-22.6-10.5-1.3 0-2.5.1-3.7.2-7.2.9-13.5 4.3-18.9 10.3-6.2 7.1-9.3 15.6-9.3 25.6s3.1 18.5 9.3 25.5c5.4 6.1 11.7 9.6 18.9 10.4 1.2.1 2.4.2 3.7.2 8.8 0 16.3-3.5 22.6-10.6 6.3-7 9.4-15.5 9.4-25.5m-12.8-22.5c5.5 6.2 8.3 13.7 8.3 22.5 0 8.5-2.6 15.7-7.8 21.8-.2.2-.4.4-.5.6-4.6 5.4-10.2 8.4-16.5 9.1-1.1.1-2.2.2-3.3.2-7.7 0-14.3-3.1-19.8-9.3s-8.2-13.6-8.2-22.3c0-8.8 2.7-16.3 8.2-22.5s12.1-9.3 19.8-9.3c1.1 0 2.3.1 3.3.2 6.4.7 11.9 3.8 16.5 9z" fill="#fc0"/>
                            <path d="m57.5 39.1c0-8.8-2.8-16.3-8.3-22.5-4.6-5.3-10.2-8.3-16.5-9.1-1.1-.1-2.2-.2-3.3-.2-7.7 0-14.3 3.1-19.8 9.3s-8.2 13.7-8.2 22.5c0 8.7 2.7 16.2 8.2 22.3 5.5 6.2 12.1 9.3 19.8 9.3 1.1 0 2.3-.1 3.3-.2 6.4-.7 11.9-3.8 16.5-9.1.1-.2.3-.4.5-.6 5.2-6 7.8-13.2 7.8-21.7m-34.3-17.7c4.5-.8 10.5-1.8 18.2-3.1 1.4 6.7 3.7 18.5 7 35.6-2.5.7-6 1.7-10.3 2.8-4.7 1.2-8 2.1-10 2.7-.7-3.8-1.5-9.1-2.4-15.7-.6-4.5-1.1-8.4-1.4-11.9-.8 1.1-2 2.7-3.4 4.7-2.2 2.8-3.7 5-4.6 6.6-.6-.4-1.3-1-2.1-1.6-.9-.8-1.6-1.5-2.3-2.1 1.1-2.1 4.6-8.1 10.4-17.9.3 0 .6 0 .9-.1z" fill="#ff0"/>
                        </g>
                    </g>
                </g>
            </g>
            <g transform="matrix(.9360199 -.08552551 .08552551 .9360199 248.3 85.5)">
                <g>
                    <g>
                        <g id="Copia_de_S_mbolo_9_0_Layer0_0_FILL">
                            <path d="m50.5 10.7c-1.7-1.8-3.3-3.8-4.9-6.1-1.6 1.6-3.5 3.6-5.8 5.9-3.9 3.9-8.8 8.8-14.7 14.7-1.3 1.3-2.6 2.6-4 4-2-1.7-4.7-4-8-6.9-3.6-3.3-6.2-5.6-7.8-6.9 2.8-2.8 6.7-6.3 11.8-10.8.4-.4.8-.7 1.2-1.1 2.8-2.5 5.4-4.8 7.7-6.8-1.4 0-3.3 0-5.7-.1-3.6-.2-6.3-.3-8-.1 0-.8 0-1.6.1-2.6.1-1.1.2-2.2.4-3.1.4 0 .9-.1 1.4-.1 3.2-.3 9.6-.7 19.2-1.3.2.2.4.4.6.6.7.7 1.4 1.4 2.2 2.2 1.5 1.6 3.2 3.4 5.1 5.3-3.9-7.1-6.2-14-7-20.8-2.6-1.3-5.3-2.1-8.3-2.4-1-.2-2.1-.3-3.3-.3-7.7 0-14.3 3.1-19.8 9.3s-8.2 13.7-8.2 22.5c0 8.7 2.7 16.2 8.2 22.3 5.5 6.2 12.1 9.3 19.8 9.3 1.1 0 2.3-.1 3.3-.2 6.4-.7 11.9-3.8 16.5-9.1.1-.2.3-.4.5-.6 4.2-4.8 6.7-10.4 7.5-16.8z" fill="#ff0"/>
                            <path d="m54.5 14.5c-.6-.5-1.1-1-1.7-1.5-.7-.7-1.5-1.5-2.3-2.3-.8 6.4-3.3 12-7.4 16.9-.2.2-.4.4-.5.6-4.6 5.4-10.2 8.4-16.5 9.1-1.1.1-2.2.2-3.3.2-7.7 0-14.3-3.1-19.8-9.3s-8.2-13.6-8.2-22.3c0-8.8 2.7-16.3 8.2-22.5 5.4-6.3 12-9.4 19.7-9.4 1.1 0 2.3.1 3.3.2 2.9.4 5.7 1.2 8.3 2.4-.2-1.3-.3-2.6-.3-4 0-.3 0-.5 0-.8 0-.1 0-.1 0-.2-3.3-1.3-6.8-1.9-10.6-1.9-1.3 0-2.5.1-3.7.2-7.2.9-13.5 4.3-18.9 10.3-6.3 7.1-9.4 15.6-9.4 25.6s3.1 18.5 9.3 25.5c5.4 6.1 11.7 9.6 18.9 10.4 1.2.1 2.4.2 3.7.2 8.8 0 16.3-3.5 22.6-10.6 4.4-4.9 7.2-10.5 8.6-16.8z" fill="#fc0"/>
                            <path d="m55 13.7c-.1 0-.2-.1-.4-.1 0 .3-.1.6-.1.9-1.3 6.3-4.2 11.9-8.5 16.8-6.2 7.1-13.7 10.6-22.6 10.6-1.3 0-2.5-.1-3.7-.2-7.2-.9-13.5-4.3-18.9-10.4-6.2-7-9.3-15.5-9.3-25.5s3.1-18.5 9.3-25.6c5.4-6 11.7-9.5 18.9-10.3 1.2-.1 2.4-.2 3.7-.2 3.8 0 7.3.6 10.6 1.9h.1l.5-1.4c-.2-.1-.4-.2-.6-.3-4.4-2.1-9.2-3.1-14.4-3.1-1.5 0-2.9.1-4.2.3-8.2.9-15.3 4.6-21.3 11.1-7.1 7.6-10.6 16.8-10.6 27.6 0 10.7 3.5 19.9 10.6 27.4 6 6.6 13.1 10.3 21.3 11.3 1.3.1 2.8.2 4.2.2 10 0 18.4-3.8 25.4-11.5 5-5.4 8.3-11.5 9.7-18.5.2-.3.2-.6.3-1z" fill="url(#SVGID_2_)"/>
                            <path d="m54.6 13.6c.1 0 .2.1.4.1.5-2.5.7-5.2.7-8 0-10.8-3.5-20-10.6-27.6-3.2-3.5-6.7-6.1-10.5-8l-.5 1.4v.1c4.5 1.8 8.4 4.7 11.9 8.5 6.3 7.1 9.4 15.6 9.4 25.6-.1 2.8-.3 5.4-.8 7.9z" fill="#930"/>
                            <path d="m45.6 4.6c.4-.4.8-.8 1.2-1.2-2-2.1-3.8-4-5.5-5.8-1.9-2-3.6-3.7-5.1-5.3-.8-.9-1.5-1.6-2.2-2.3-.2-.2-.4-.5-.6-.6-9.6.6-16 1-19.2 1.3-.6.1-1.1.1-1.4.1-.2.9-.3 1.9-.4 3.1-.1 1-.2 1.8-.1 2.6 1.8-.1 4.5-.1 8 .1 2.4.1 4.4.1 5.7.1-2.3 2-4.9 4.3-7.8 6.8-.4.4-.8.7-1.2 1.1-5 4.5-8.9 8-11.7 10.7 1.5 1.3 4.1 3.6 7.8 6.9 3.4 2.9 6 5.2 8 6.9 1.4-1.4 2.7-2.7 4-4 5.9-5.8 10.8-10.7 14.7-14.7 2.3-2.3 4.2-4.2 5.8-5.8z" fill="url(#SVGID_3_)"/>
                            <path d="m50.5 10.7c.2-1.6.4-3.2.4-4.9 0-8.8-2.8-16.3-8.3-22.5-2.5-2.8-5.3-5-8.3-6.6.8 6.8 3.1 13.8 7 20.8 1.7 1.8 3.5 3.7 5.5 5.8-.4.4-.8.8-1.2 1.2 1.6 2.3 3.2 4.3 4.9 6.2z" fill="#f90"/>
                            <path d="m50.8 5.8c0 1.7-.1 3.3-.4 4.9.8.8 1.6 1.6 2.3 2.3.6.5 1.2 1 1.7 1.5.1-.3.1-.6.1-.9.5-2.5.7-5.1.7-7.8 0-10-3.1-18.5-9.4-25.6-3.4-3.9-7.4-6.7-11.9-8.5v-.1h.1v.2.8c0 1.4.1 2.7.3 4.1 3 1.6 5.8 3.8 8.3 6.6 5.5 6.2 8.2 13.7 8.2 22.5z" fill="#c60"/>
                        </g>
                    </g>
                </g>
            </g>
            <g transform="matrix(.86235046 .37393188 -.37393188 .86235046 298.75 49.8)">
                <g>
                    <g>
                        <g id="Copia_de_S_mbolo_9_2_0_Layer0_0_FILL">
                            <path d="m56.7-6.8c0-10.8-3.5-20-10.6-27.6-7-7.6-15.5-11.4-25.4-11.4-1.5 0-2.9.1-4.2.3-8.3.9-15.4 4.6-21.4 11.1-7 7.6-10.6 16.8-10.6 27.6 0 10.7 3.5 19.9 10.6 27.4 6 6.6 13.1 10.3 21.3 11.3 1.3.1 2.8.2 4.2.2 10 0 18.4-3.8 25.4-11.5 7.1-7.5 10.7-16.7 10.7-27.4m-9.8-25.6c6.3 7.1 9.4 15.6 9.4 25.6s-3.1 18.5-9.4 25.5c-6.2 7.1-13.7 10.6-22.6 10.6-1.3 0-2.5-.1-3.7-.2-7.2-.9-13.5-4.3-18.9-10.4-6.2-7-9.3-15.5-9.3-25.5s3.1-18.5 9.3-25.6c5.4-6 11.7-9.5 18.9-10.3 1.2-.1 2.4-.2 3.7-.2 8.9 0 16.4 3.5 22.6 10.5z" fill="url(#SVGID_4_)"/>
                            <path d="m56.3-6.8c0-10-3.1-18.5-9.4-25.6-6.2-7-13.7-10.6-22.6-10.6-1.3 0-2.5.1-3.7.2-7.2.9-13.5 4.3-18.9 10.3-6.2 7.1-9.3 15.6-9.3 25.6s3.1 18.5 9.3 25.5c5.4 6.1 11.7 9.6 18.9 10.4 1.2.1 2.4.2 3.7.2 8.8 0 16.3-3.5 22.6-10.6 6.3-6.9 9.4-15.4 9.4-25.4m-12.8-22.5c5.5 6.3 8.3 13.8 8.3 22.5 0 8.5-2.6 15.7-7.8 21.8-.2.2-.4.4-.5.6-4.6 5.3-10.1 8.4-16.5 9.1-1.1.1-2.2.2-3.3.2-7.7 0-14.3-3.1-19.8-9.3-5.5-6.2-8.2-13.7-8.2-22.4 0-8.8 2.7-16.3 8.2-22.5s12.1-9.3 19.8-9.3c1.1 0 2.3.1 3.3.2 6.4.9 11.9 3.9 16.5 9.1z" fill="#fc0"/>
                            <path d="m51.8-6.8c0-8.8-2.8-16.3-8.3-22.5-4.6-5.3-10.2-8.3-16.5-9.1-1.1-.1-2.2-.2-3.3-.2-7.7 0-14.3 3.1-19.8 9.3-5.5 6.3-8.2 13.8-8.2 22.5s2.7 16.2 8.2 22.3c5.5 6.2 12.1 9.3 19.8 9.3 1.1 0 2.3-.1 3.3-.2 6.4-.7 11.9-3.8 16.5-9.1.1-.2.3-.4.5-.6 5.2-6 7.8-13.2 7.8-21.7m-25.6-19.2c3.3 3 7.3 6.8 12.1 11.3 3 2.8 6.2 5.8 9.8 9.2-1.5 2-3.7 4.7-6.4 8-.1.1-.1.2-.2.3-2.6 3.2-4.6 5.6-6 7.2-.2.3-.4.6-.6.8-.2-.1-.3-.3-.5-.5-2.7-2.6-6.3-6.2-10.6-10.8-1.4-1.5-2.7-2.9-4-4.3-1.5-1.5-2.8-3-4.1-4.4 0 1.4 0 3.3-.1 5.7-.1 3.5 0 6.2.2 8-.8 0-1.7 0-2.7-.1-1.1 0-2.1-.1-3-.2-.2-1.3-.4-4-.9-8-.2-1.9-.4-4.2-.6-6.8-.1-1.8-.3-3.7-.5-5.8.1-.2.3-.4.5-.6 3.2-3.3 7.5-7.6 12.9-13.1 1.3 1.1 2.9 2.5 4.7 4.1z" fill="#ff0"/>
                            <path d="m38.3-14.7c-4.8-4.5-8.9-8.3-12.1-11.3-1.8-1.6-3.4-3.1-4.7-4.2-5.4 5.5-9.7 9.9-12.9 13.1-.2.2-.4.5-.5.6.2 2.1.4 4.1.5 5.8.2 2.7.4 5 .6 6.9.4 4 .7 6.7.9 8 .9.1 1.9.2 3.1.3 1 .1 1.8.1 2.7.1-.2-1.8-.3-4.5-.2-8 .1-2.4.1-4.4.1-5.7 1.3 1.4 2.6 2.8 4.1 4.4 1.3 1.4 2.6 2.8 4 4.3 4.3 4.6 7.9 8.2 10.6 10.8.2.2.3.4.5.5.2-.2.4-.5.6-.8 1.4-1.6 3.3-4 6-7.2.1-.1.1-.2.2-.3 2.7-3.4 4.9-6 6.4-8-3.7-3.4-6.9-6.5-9.9-9.3z" fill="url(#SVGID_5_)"/>
                        </g>
                    </g>
                </g>
            </g>
        </g>
        <g>
            <g transform="translate(212.5 223.7)">
                <g>
                    <g>
                        <g id="S_mbolo_5_0_Layer0_0_FILL">
                            <path d="m5-6.6c.3 2.1.9 4.7 1.7 7.6 1.6 5.9 2.8 10.5 3.5 13.8 1.7-1.9 4-4.2 6.7-6.7 2.8-2.5 5-4.4 6.8-5.6-1.4-.6-3.8-1.6-7.1-2.9-4.2-1.5-8-3.6-11.6-6.2z" fill="#874343"/>
                            <path d="m23.7 2.5c.3-.2.7-.5 1-.7-2.5-1.7-6.1-4.2-10.8-7.5-6-4-10.9-7.3-14.7-9.7 1.8 4.7 3.6 9.8 5.6 15.3 2.4 7.1 4.2 12.2 5.1 15.2l.3-.3c-.7-3.3-1.9-7.9-3.5-13.8-.8-2.9-1.4-5.5-1.7-7.6 3.6 2.6 7.4 4.7 11.5 6.3 3.4 1.3 5.7 2.2 7.2 2.8z" fill="#c69"/>
                        </g>
                    </g>
                </g>
            </g>
            <g transform="matrix(.5826416 0 0 .5826416 333.95 257.25)">
                <g>
                    <g>
                        <g id="S_mbolo_4_0_Layer0_0_FILL">
                            <path d="m63.9-21c-.1-2.1-.6-3.9-1.7-5.3-1.1-1.5-2.6-2.2-4.4-2.1-2.6.1-4.4 1.6-5.7 4.4-.9 2.1-1.3 4.6-1.2 7.4.1 3 .9 5.5 2.3 7.5-2.1 1.4-4.2 2.1-6.3 2.2-.9 0-1.7 0-2.6-.2 1.5-2.3 2.2-4.3 2.1-6.1-.1-3.2-.8-5.6-2.2-7.4-1.1-1.5-2.4-2.2-3.8-2.1-2.3.1-4 .9-5.1 2.5-1 1.3-1.4 3-1.4 4.9.1 3.5 1.5 6.4 4.1 8.8.1.1.3.2.4.4-1.4 1-2.9 1.6-4.5 1.7-.8 0-1.6-.1-2.5-.3.4 1.4.9 3 1.4 4.8 0 0 0 .1.1.1.6.2 1.1.2 1.4.2 2.5-.1 5-1.5 7.5-4.3 1.6.7 3.3 1 5.1.9 3.2-.1 6.1-1.2 8.8-3.4 3.4.2 5.9-.3 7.6-1.6 1.7-1.2 2.4-2 2.1-2.3-.3 0-.6 0-.9 0-1.9-.1-3.4-.2-4.5-.4-.1 0-.2 0-.2 0 3-3.7 4.3-7 4.1-10.3m-9.4-.9c.6-.8 1.5-1.2 2.6-1.2 2.1-.1 3.1 1.3 3.2 4 .1 2.1-1.1 4.5-3.5 7-2.1-1.3-3.2-3.4-3.3-6.3 0-1.5.3-2.6 1-3.5m-16.9 7.6c0-.6.2-1.3.7-2.1.6-1 1.2-1.5 2-1.6.9 0 1.5.3 1.8 1.1.3.6.4 1.6.5 3 .1 1.8-.5 3.6-1.7 5.3-2.1-1.4-3.2-3.3-3.3-5.7z" fill="#c66"/>
                        </g>
                    </g>
                </g>
            </g>
            <g transform="translate(209.1 228.8)">
                <g>
                    <g>
                        <g id="S_mbolo_1_0_Layer1_0_FILL">
                            <path d="m45.5 75.9c-3 1-5.4 3.3-7.3 6.7-2.1 3.9-3.1 8.7-2.9 14.4l1 9.9c0 .1.1.7.1 1.8s0 2.1.2 3.1c.1.7.1 1.4.1 2.3.3 1.8 2.9 2.6 7.8 2.4 4.8-.2 7.5-1.2 7.9-3 1-4.7 1.9-8.6 2.5-11.7 1.1-4.6 1.7-7.5 1.9-8.7.3-1.4.3-3.7.2-6.9-.2-4.3-1.4-7.3-3.8-9.2-2.2-1.7-4.8-2.1-7.7-1.1m-7.7 18.7c.6-1.4 1.5-2.1 2.7-2.3-.5.8-1 1.7-1.5 2.7-.5 1.2-.8 2.1-.8 2.7.1 1.5.7 2.5 1.9 2.9l1.8-.1c.4-.2.9-.6 1.2-1.3.3-.6.5-1.1.5-1.4 0-.2-.1-.4-.3-.6-.4-.4-.6-.8-.7-.9l-1.3.1c-.5.9-.7 1.4-.7 1.4.2 0 .4 0 .8.2.3.2.5.4.7.6-.3.3-.8.4-1.4.5-.6 0-1.1-.3-1.2-.9-.1-1.9.7-2.9 2.5-3 1.3 0 2.2.4 2.6 1.3.2.4.3.9.2 1.4 0 .8-.2 1.6-.6 2.4-.6 1.1-1.6 1.7-3 1.7-2.6.1-3.9-1.2-4-4-.1-1.3.2-2.4.6-3.4m67-16c-.2-4.3-1.8-7.6-4.9-9.7-2.8-2-6.1-2.6-9.9-1.9-3.9.7-7.2 2.7-9.7 5.9-2.9 3.7-4.2 8.2-4 13.8.1 1.7.8 4.8 2.1 9.3l4.9 16.9c.5 1.3 2.7 1.9 6.4 1.8s5.8-.8 6.3-2.3l.2-.3c1.2-4.2 2.8-9.2 4.7-15.1.7-2.1 1.5-4.9 2.4-8.6 1.1-4.5 1.6-7.8 1.5-9.8m-24.8 13.6c-.1-1.3.3-2.9 1-4.8.9-2.5 2-3.7 3.5-3.7l.2.3c-1.2.7-2.2 1.9-2.8 3.7-.6 1.5-.8 2.9-.7 4.4 0 1 .3 2.1.9 3.1.9 1.6 2.1 2.3 3.7 2.3 1.9-.1 3.3-1.1 4.1-3 .4-1.8.6-2.8.6-2.8 0-.6-.2-1.2-.6-2-.5-1.1-1.2-1.6-2-1.6-1.5.1-2.6.6-3.3 1.6-.5.6-.8 1.2-.7 1.7 0 .3.3.9.8 1.7.5 1 1 1.5 1.5 1.5.9 0 1.4-.4 1.5-1.2 0-.2-.2-.5-.5-.8-.4-.4-.5-.7-.5-.8s0-.3.2-.5c.1-.2.4-.3.6-.3.9 0 1.5.7 1.6 2.3 0 .5-.1 1-.3 1.5-.4.8-1 1.2-1.9 1.2-1.5.1-2.6-.7-3.4-2.2-.5-1.5-.8-2.3-.8-2.3.6-3.1 2.3-4.7 4.9-4.8 1.8-.1 3.1.7 3.9 2.4.4.9.6 1.8.7 2.7 0 1.1-.3 2.3-.9 3.7-1.1 2.2-2.8 3.3-5.1 3.4-2.2.1-3.9-1-4.9-3.1-1-2.4-1.3-3.6-1.3-3.6z" fill="#c69"/>
                            <path d="m40.6 92.3c-1.2.2-2.1.9-2.7 2.3-.5 1-.7 2.1-.7 3.2.1 2.7 1.5 4.1 4 4 1.4-.1 2.4-.6 3-1.7.4-.7.6-1.5.6-2.4.1-.5 0-.9-.2-1.4-.4-.9-1.3-1.3-2.6-1.3-1.7.1-2.5 1.1-2.5 3 .2.6.6.9 1.2.9s1-.2 1.4-.5c-.1-.2-.3-.4-.7-.6-.3-.2-.6-.2-.8-.2 0 0 .2-.5.7-1.4l1.3-.1c.1.2.4.5.7.9.2.2.2.4.3.6 0 .4-.1.9-.5 1.4-.4.7-.8 1.1-1.2 1.3l-1.8.1c-1.2-.4-1.8-1.4-1.9-2.9 0-.6.2-1.5.8-2.7.5-.8 1-1.7 1.6-2.5z" fill="#8e476b"/>
                            <path d="m81 87.3c-.7 1.9-1.1 3.5-1 4.8 0 .1.3 1.2.9 3.5 1 2.2 2.7 3.2 4.9 3.1 2.4-.1 4.1-1.2 5.1-3.4.6-1.4.9-2.6.9-3.7 0-.9-.3-1.8-.7-2.7-.8-1.6-2.1-2.4-3.9-2.4-2.6.1-4.3 1.7-4.9 4.8 0 0 .3.8.8 2.3.8 1.5 1.9 2.3 3.4 2.2.9 0 1.5-.4 1.9-1.2.2-.5.4-1 .3-1.5-.2-1.6-.7-2.4-1.6-2.3-.3 0-.5.1-.6.3s-.2.3-.2.5.2.4.5.8c.4.4.5.6.5.8-.1.8-.6 1.2-1.5 1.2-.5 0-1-.5-1.5-1.5-.5-.8-.7-1.4-.8-1.7 0-.5.2-1.1.7-1.7.7-1 1.8-1.5 3.3-1.6.8 0 1.5.5 2 1.6.4.7.6 1.4.6 2 0 0-.2 1-.6 2.8-.8 1.9-2.2 2.9-4.1 3-1.6.1-2.8-.7-3.7-2.3-.6-1-.9-2.1-.9-3.1-.1-1.5.2-3 .7-4.4.6-1.8 1.5-3.1 2.8-3.7l-.2-.3c-1 .1-2.2 1.4-3.1 3.8z" fill="#6b3535"/>
                        </g>
                    </g>
                </g>
                <g>
                    <g>
                        <g id="S_mbolo_1_0_Layer0_0_FILL">
                            <path d="m47.2 51.9c.1-.7.1-1.5 0-2.2-.4.1-1.1.3-2.3.7-1.1.4-3.2-.3-6.3-2.1.3 3.1-.1 6.3-1.3 9.3-.9 2.3-2.4 4.2-4.5 5.7-3.1 2.1-6.5 3.4-10.4 3.9 3.4-.4 6.8-.9 10.1-1.7 2-.5 3.8-1.2 5.6-2.2 3.3-1.8 5.9-4.3 7.8-7.5.8-1.3 1.2-2.6 1.3-3.9m-42-7.3c.2-.2.4-.3.7-.3-1-.8-2.1-1.2-3.3-1.1-1.4.1-2.7.7-3.7 2-1.1 1.3-1.5 2.9-1.5 4.7.1 1.8.7 3.3 1.8 4.6 1.1 1.2 2.4 1.8 3.8 1.7 1.3 0 2.3-.5 3.3-1.4-.6-.1-1.1-.3-1.5-.6-.2-.2-.5-.5-.8-.8-.6-.8-1-1.8-1.1-3 0-.2-.1-.5-.1-.7-.1-1.4.3-2.7.9-3.8.4-.7.9-1.1 1.5-1.3m18.1-3.7c-.2 0-.5 0-.7.1-1.5.2-2.7 1.1-3.8 2.5-1.2 1.7-1.7 3.7-1.7 6v.2c.1 2.4.8 4.4 2.1 6s2.9 2.4 4.7 2.3c1.4-.1 2.7-.7 3.8-1.9-1-.1-1.8-.7-2.6-1.8-.9-1.3-1.4-3-1.4-4.9 0-.7 0-1.4.1-2.1.2-1.1.5-2.1 1-3 .6-1 1.4-1.7 2.3-2 .1 0 .2-.1.2-.1-1.3-.8-2.6-1.3-4-1.3m51.6 65.8c.1-.6 0-1.1-.2-1.6-.5-1-1.5-1.4-3-1.4-.9 0-1.6.5-2.1 1.3-.4.6-.5 1.2-.5 1.7 0 0 .1.5.3 1.2.3.8.8 1.2 1.6 1.2.4 0 .8-.2 1-.4s.3-.4.3-.8c.1-.6-.2-.9-.7-.9-.2 0-.3.1-.4.2s-.2.2-.2.3c-.4-.2-.6-.5-.7-.9 0-.3.1-.6.3-.9.3-.5.8-.8 1.6-.9.9 0 1.4.5 1.4 1.7 0 0-.1.6-.3 1.6-.4 1.1-1.2 1.6-2.4 1.7-1.1 0-2-.5-2.7-1.6-.4-.7-.6-1.4-.7-2 0-.7.2-1.6.6-2.8.6-1.3 1-2.3 1.3-3l-.3-.2c-2 1.4-2.9 3.4-2.8 6 0 1 .3 1.9.7 2.7.8 1.6 2.2 2.4 4.1 2.3 2.7.2 3.9-1.4 3.8-4.5m38.9-13.8c.1 0 .2 0 .2.1.1 0 .1-.1.1-.3 0-.1-.1-.2-.1-.3-1.9.7-3.2 2-3.8 4-.3 1-.4 2.2-.3 3.6 1.1 2.8 2.9 4.2 5.4 4.1 2.1-.1 3.6-1 4.5-2.7.6-1.1.8-2.2.8-3.3-.2-.6-.4-1.3-.8-1.9-.7-1.2-1.4-1.8-2.3-1.7-.1 0-.2 0-.3 0-.7.1-1.4.3-1.9.6-.3.2-.7.5-.9.8-.7.7-1 1.4-.9 2.1 0 0 .1.5.4 1.4.4.9 1 1.3 1.9 1.3 1 0 1.4-.5 1.4-1.4 0-.6-.3-1-.8-.9-.3 0-.5.1-.6.3 0 .1-.1.3-.1.4-.2-.2-.3-.4-.4-.5-.2-.2-.3-.4-.3-.6 0-.3.2-.7.5-1.1.5-.6 1.3-.9 2.2-.9.5 0 1 .7 1.6 2.2l-.5 2.2c-.7 1.5-1.8 2.3-3.4 2.4-1.3.1-2.4-.4-3.3-1.5-.6-.8-.9-1.6-.9-2.4 0-1 .1-1.9.2-2.7.4-2.2 1.2-3.2 2.4-3.3z" fill="#c69"/>
                            <path d="m31.2 34.5c-3.3-1.2-6.6-1.9-9.9-2.2 3.8.5 7.3 1.8 10.5 3.9 1.9 1.3 3.4 2.8 4.5 4.6.7.2 1.6.6 2.8 1.3.7.4 1.7 1 2.9 1.7.6.3 1.5.4 2.7.3.1 0 .3 0 .4-.1-.5-.7-1.1-1.4-1.7-2-3.7-3.2-7.7-5.8-12.2-7.5m98.5-28.5c.2.1.3.2.4.3 11.1 9.1 17.3 20.6 18.6 34.7 0-.9 0-1.9-.1-2.8-.6-15.6-6.8-28.2-18.8-38-.1-.1-.3-.2-.4-.3-1.8-1.3-3.7-2.5-5.6-3.7-3-1.9-6.3-3.6-9.8-5-2.4-1-4.9-1.9-7.4-2.7-2.1-.7-4.2-1.4-6.4-1.9-.6-.2-1.2-.3-1.8-.4-2.9-.8-5.9-1.5-8.8-2.1-1.1-.2-2.2-.4-3.3-.5-2.1-.3-4.3-.5-6.4-.6-1.2-.1-2.5-.2-3.7-.3-1.7-.1-3.4-.1-5.1 0-3.6.1-7.2.4-10.8.9-3.7.6-7.4 1.3-11.1 2.2-2.6.7-5.1 1.4-7.6 2.1-3.5 1.1-7 2.6-10.2 4.5-2.1 1.1-4.2 2.4-6.2 3.6-3.1 1.8-5.9 3.9-8.5 6.4-1.3 1.3-2.6 2.6-3.8 4s-2.3 2.8-3.3 4.4c-.4.7-.9 1.4-1.3 2.1-5 8.2-7.8 16-8.3 23.5l1.3-.7c1.3-5.4 3.7-11 7.2-16.7.4-.7.9-1.4 1.3-2.1 1-1.5 2.1-3 3.3-4.4s2.5-2.8 3.8-4c2.6-2.5 5.4-4.6 8.5-6.4 2-1.3 4.1-2.5 6.2-3.6 3.4-2 6.8-3.5 10.4-4.5 2.5-.7 5.1-1.4 7.6-2.1 3.7-.9 7.4-1.7 11.1-2.3 3.6-.6 7.2-.9 10.8-.9 1.7 0 3.4 0 5.2.1 1.2 0 2.4.1 3.7.2 2.1.1 4.3.3 6.4.6 1.1.1 2.2.3 3.3.5 2.9.6 5.8 1.4 8.8 2.1.6.1 1.2.3 1.8.5 2.1.5 4.2 1.2 6.3 1.9 2.5.8 4.9 1.7 7.4 2.7 3.5 1.4 6.8 3.1 9.8 5 1.8 1.1 3.6 2.4 5.5 3.7z" fill="#fcf"/>
                            <path d="m2.1 35.3c-.2.1-.4.2-.7.3l-1.3.7c-1.5 1-2.9 2.1-4.3 3.4-1.4 1.4-2.5 3-3.4 4.8-1.9 4.3-2.3 8.6-1.2 13.1.6 2.3 2 4.3 4.1 5.9 2.8 2.3 6 3.6 9.8 3.9h.2c1.7.2 3.5.3 5.2.4 2.6.1 5.1 0 7.7-.3.8-.1 1.7-.2 2.5-.3.3 0 .7 0 1-.1h.7c3.8-.5 7.3-1.8 10.4-3.9 2.1-1.5 3.6-3.4 4.5-5.7 1.2-3.1 1.6-6.2 1.3-9.3 0-.4-.1-.8-.2-1.2 0-.1-.1-.2-.1-.3-.2-1.1-.5-2.1-.9-3.2-.3-.9-.8-1.8-1.2-2.7-1.1-1.8-2.6-3.3-4.5-4.6-3.2-2.1-6.7-3.4-10.5-3.9-1.2-.1-2.4-.2-3.6-.3-1.3 0-2.5.1-3.8.2-1.7.2-3.5.5-5.2.8-.2 0-.5.1-.7.2-2 .5-4 1.2-5.8 2.1m20.5 5.7c.2 0 .5-.1.7-.1 1.4-.1 2.7.4 3.9 1.5.2.1.3.3.4.4l.4.4c.8 1 1.5 2.2 1.9 3.5.2.8.3 1.6.3 2.5.1 2.4-.5 4.5-1.7 6.2-.3.3-.5.6-.8.8-1.1 1.2-2.3 1.8-3.8 1.9-1.8.1-3.3-.7-4.7-2.3-1.3-1.6-2-3.6-2.1-6 0-.1 0-.2 0-.2 0-2.3.5-4.3 1.7-6 1-1.5 2.3-2.4 3.8-2.6m-16.1 3.8c0 .1.1.1.1.2 1 1.2 1.6 2.7 1.7 4.4s-.3 3.1-1.2 4.4c-.1.1-.2.2-.3.3-.2.3-.4.5-.5.7-.9.9-2 1.3-3.3 1.4-1.4.1-2.7-.5-3.8-1.7-1.2-1.3-1.8-2.8-1.8-4.6-.1-1.8.4-3.4 1.5-4.7 1-1.3 2.2-2 3.7-2 1.2 0 2.3.3 3.3 1.1.1.2.3.4.6.5z" fill="#ffb8eb"/>
                            <path d="m5.8 44.2c-.3 0-.5.2-.7.3-.6.2-1 .7-1.4 1.3-.7 1.1-1 2.3-.9 3.8 0 .2 0 .5.1.7.1 1.2.5 2.2 1.1 3 .3.3.5.6.8.8.4.4.9.6 1.5.6.1-.2.3-.4.5-.7.1 0 .2-.1.3-.2.9-1.3 1.3-2.7 1.2-4.4s-.6-3.2-1.7-4.4c0 0-.1-.1-.1-.2-.3-.1-.5-.3-.7-.6m21.3-1.8c-.1 0-.2 0-.2.1-.9.3-1.6 1-2.3 2-.5.9-.8 1.9-1 3-.1.7-.1 1.4-.1 2.1.1 1.9.6 3.6 1.4 4.9.8 1.1 1.7 1.7 2.6 1.8.3-.2.5-.5.8-.8 1.2-1.7 1.8-3.8 1.7-6.2 0-.9-.1-1.7-.3-2.5-.4-1.3-1-2.5-1.9-3.5-.2-.1-.3-.3-.4-.4 0-.2-.1-.4-.3-.5z" fill="#300"/>
                            <path d="m130.1 6.3c-.1-.1-.3-.2-.4-.3-1.8-1.3-3.7-2.5-5.6-3.7-3-1.9-6.3-3.6-9.8-5-2.4-1-4.9-1.9-7.4-2.7-2.1-.7-4.2-1.3-6.3-1.9-.6-.2-1.2-.4-1.8-.5-3-.8-5.9-1.5-8.8-2.2-1.1-.2-2.2-.4-3.3-.5-2.1-.3-4.3-.4-6.4-.6-1.2-.1-2.4-.2-3.7-.2-1.7-.1-3.4-.1-5.2-.1-3.6.1-7.2.4-10.8.9-3.6.7-7.3 1.5-11 2.3-2.5.7-5.1 1.4-7.6 2.2-3.6 1-7 2.5-10.3 4.5-2.1 1.1-4.2 2.4-6.2 3.6-3 1.8-5.9 3.9-8.5 6.4-1.3 1.3-2.6 2.6-3.8 4s-2.3 2.8-3.3 4.4c-.4.7-.9 1.4-1.3 2.1-3.5 5.7-5.9 11.3-7.2 16.7.2-.1.5-.2.7-.3 1.8-.9 3.8-1.7 5.8-2.1.3-.1.5-.2.7-.2 1.7-.4 3.5-.6 5.2-.8 1.3-.1 2.6-.2 3.8-.2s2.4.1 3.6.3c3.3.3 6.6 1.1 9.9 2.2 4.5 1.7 8.6 4.2 12.1 7.5.7.6 1.3 1.3 1.7 2-.1 0-.3.1-.4.1-1.2.1-2.1 0-2.7-.3-1.2-.8-2.2-1.3-2.9-1.7-1.2-.7-2.1-1.1-2.8-1.3.5.9.9 1.8 1.2 2.7.4 1.1.7 2.2.9 3.2 0 .1 0 .2.1.3.1.4.1.8.2 1.2 3.1 1.8 5.2 2.5 6.3 2.1s1.9-.6 2.3-.7c.1.7.1 1.4 0 2.2-.1 1.4-.5 2.7-1.2 3.9-1.9 3.2-4.5 5.7-7.8 7.5-1.8 1-3.7 1.7-5.6 2.2-3.3.8-6.7 1.3-10.1 1.7h-.7c-.3 0-.6.1-1 .1-.8.1-1.7.2-2.5.3-2.5.3-5.1.3-7.7.3-1.8-.1-3.5-.2-5.2-.4 3 7.5 6.2 12.8 9.5 15.8 3.3 3.1 6 5.2 8.1 6.4s4.6 2.3 7.4 3.2c2.9 1 5.7 1.8 8.7 2.5 3.2.8 6.5 1.5 9.9 2 3.7.7 7.4 1.3 11.2 1.9l3.6.3c-.1 1.2-.1 2.3 0 3.5l1 9.9c0 .1.1.7.1 1.8s0 2.1.2 3.1c.1.7.1 1.4.1 2.3.3 1.8 2.9 2.6 7.8 2.4 4.8-.2 7.5-1.2 7.9-3 1-4.7 1.9-8.6 2.5-11.7.9-4 1.5-6.7 1.8-8.1.9-.1 1.8-.1 2.7-.2 3.5-.2 7-.5 10.5-1 3-.3 6-.8 9-1.4 0 .1.1.3.1.4l4.9 16.9c.5 1.3 2.7 1.9 6.4 1.8s5.8-.8 6.3-2.3l.2-.3c1.2-4.2 2.8-9.2 4.7-15.1.7-2.1 1.5-4.9 2.4-8.6.4-1.6.7-3 .9-4.3 0 0 0 0 .1-.1 1.1-1.1 2-2.2 2.8-3.4 8.4-12.2 12.6-25.9 12.7-41.2-1.4-14.1-7.6-25.7-18.7-34.7m-16 86.7c-.1-.1-.2-.1-.2-.1-1.3 0-2.1 1.1-2.5 3.2-.1.8-.2 1.7-.2 2.7 0 .8.3 1.6.9 2.4.8 1 1.9 1.5 3.3 1.5 1.6-.1 2.7-.8 3.4-2.4l.5-2.2c-.6-1.5-1.1-2.2-1.6-2.2-.9 0-1.6.3-2.2.9-.4.4-.5.8-.5 1.1 0 .2.1.4.3.6.1.1.3.3.4.5 0-.2.1-.3.1-.4.1-.2.3-.3.6-.3.6 0 .9.3.8.9 0 .9-.4 1.3-1.4 1.4-.9 0-1.5-.4-1.9-1.3-.3-.9-.4-1.4-.4-1.4 0-.6.3-1.3.9-2.1.3-.3.6-.6.9-.8.6-.4 1.2-.6 1.9-.6h.3c.9 0 1.6.5 2.3 1.7.3.6.6 1.2.8 1.9 0 1.1-.2 2.2-.8 3.3-.9 1.8-2.4 2.7-4.5 2.7-2.5.1-4.3-1.3-5.4-4.1-.1-1.3.1-2.5.3-3.6.6-2 1.9-3.3 3.8-4 0 .1 0 .2.1.3.1.3.1.5 0 .4m-39.4 12.1c.2.5.3 1 .2 1.6.1 3.1-1.1 4.7-3.7 4.8-1.9.1-3.3-.7-4.1-2.3-.4-.8-.6-1.7-.7-2.7-.1-2.6.8-4.6 2.8-6l.3.2c-.3.7-.7 1.6-1.3 3-.5 1.2-.7 2.1-.6 2.8 0 .6.2 1.3.7 2 .7 1.1 1.6 1.7 2.7 1.6 1.2 0 2-.6 2.4-1.7.2-1 .3-1.6.3-1.6 0-1.2-.5-1.8-1.4-1.7-.7 0-1.2.3-1.6.9-.1.3-.2.6-.3.9 0 .4.2.7.7.9 0-.1.1-.2.2-.3.1-.2.2-.2.4-.2.5 0 .8.3.7.9 0 .3-.1.6-.3.8-.3.3-.6.4-1 .4-.8 0-1.3-.4-1.6-1.2-.2-.8-.3-1.2-.3-1.2 0-.6.1-1.1.5-1.7.5-.9 1.2-1.3 2.1-1.3 1.4-.4 2.4.1 2.9 1.1z" fill="#f9c"/>
                        </g>
                    </g>
                </g>
                <g transform="matrix(-.80848694 .31719971 .31719971 .80848694 103.3 46.55)">
                    <g>
                        <g>
                            <g id="Geniecillo_Bocas_Bocas_Geniecillo_boca_sonrissa_0_Layer0_0_FILL">
                                <path d="m-9.6-17.7c-.8-2.4-1.2-4.4-1.1-6 5.3-2.1 9.4-2.5 12.3-1.4-.1-.2-.2-.4-.3-.5-.8-1.3-1.7-2.3-2.6-2.8-2.6-1.3-5.9-1.1-9.9.5-3.9 1.8-7 4.4-9.1 7.8-.7 1.2-1.2 2-1.4 2.4-.2.2-.3.5-.4.8 2.2-2.3 5.1-4.2 8.7-5.8.2 1.3.5 2.9 1 4.6 1.1 4.6 3 9.5 5.7 14.7 6.6 12.9 14.7 22 24.1 27.2 10 5.6 21.5 8.3 34.5 8.1 6.9-.2 13.5-1.3 20-3.3 4.5-1.3 8.9-3.6 13.1-6.9-4.4 2.1-8.9 3.8-13.5 5-5.5 1.4-11.3 2.1-17.1 2.2-12.6.2-23.9-2.4-33.8-7.6-9.5-4.8-17.5-13.3-24.3-25.4-2.7-4.8-4.7-9.4-5.9-13.6z" fill="#936"/>
                            </g>
                        </g>
                    </g>
                </g>
            </g>
            <g transform="matrix(.99305725 -.11756897 .11756897 .99305725 259.4 218.8)">
                <g>
                    <g>
                        <g id="S_mbolo_6_0_Layer0_0_FILL">
                            <path d="m9 5.8c2.7-.2 5.3-.2 7.7.2s4.9 1.7 7.5 3.7c2.6 2.1 4.5 3.6 5.5 4.5-.5-1.8-1.3-4.6-2.4-8.3-1.5-5.1-2.6-10.3-3.5-15.7-2.8 2.7-7.8 7.9-14.8 15.6z" fill="#874343"/>
                            <path d="m26.5-18.1h-.4c-.6 1.1-3 4.3-7.4 9.8-4.5 5.7-7.8 10-10 13 .1.3.3.7.4 1 6.9-7.6 11.9-12.8 14.8-15.4.8 5.3 2 10.5 3.5 15.7 1.1 3.7 1.9 6.4 2.4 8.3.4-.2.7-.3 1.1-.4-.7-3.5-1.4-7.9-2.1-13.4-1-8.3-1.8-14.5-2.3-18.6m-1 7c.1-.1.2-.2.3-.2v.2z" fill="#c69"/>
                        </g>
                    </g>
                </g>
            </g>
            <g transform="matrix(1.57688904 0 0 1.42028809 207.3 243.4)">
                <g>
                    <g>
                        <path id="S_mbolo_7_2_Layer0_0_1_STROKES" d="m29.7 4.9c.5-3.1 1.8-5.6 3.9-7.6 2-1.8 4.2-2.8 6.7-2.9s4.8.6 6.8 2.3c2.2 1.8 3.7 4.4 4.4 7.9" fill="none" stroke="#c69" stroke-linecap="round" stroke-linejoin="round" stroke-width="5"/>
                    </g>
                    <g>
                        <path id="S_mbolo_7_2_Layer0_0_2_STROKES" d="m9.6 2.8c.3-1.5 1-2.8 2-3.8 1-.9 2.1-1.4 3.4-1.5s2.5.3 3.5 1.2c1.1.9 1.9 2.3 2.3 4" fill="none" stroke="#c69" stroke-linecap="round" stroke-linejoin="round" stroke-width="4"/>
                    </g>
                </g>
            </g>
        </g>
    </g>
</svg>
