<svg height="400" preserveAspectRatio="none" viewBox="0 0 550 400" width="550" xmlns="http://www.w3.org/2000/svg" xmlns:xlink="http://www.w3.org/1999/xlink">
    <defs>
        <radialGradient id="Gradient_1" cx="272.95" cy="198.45" gradientUnits="userSpaceOnUse" r="344.5" spreadMethod="pad">
            <stop offset="0" stop-color="#a5e4fa"/>
            <stop offset=".98431372549" stop-color="#36d1f7"/>
        </radialGradient>
        <radialGradient id="Gradient_2" cx="0" cy="0" gradientTransform="matrix(.99998599 .00529252 0 .05665405 272.2 303.65)" gradientUnits="userSpaceOnUse" r="207.840411" spreadMethod="pad">
            <stop offset=".61176470588" stop-color="#395656"/>
            <stop offset="1" stop-color="#679a9a"/>
        </radialGradient>
        <linearGradient id="lg1">
            <stop offset="0" stop-color="#707070"/>
            <stop offset=".96862745098" stop-color="#2c2c2c"/>
        </linearGradient>
        <linearGradient id="Gradient_3" gradientUnits="userSpaceOnUse" spreadMethod="pad" x1="160.125" x2="159.775" xlink:href="#lg1" y1="286.9625" y2="277.5375"/>
        <linearGradient id="lg2">
            <stop offset="0" stop-color="#d9d9d9"/>
            <stop offset=".96862745098" stop-color="#999"/>
        </linearGradient>
        <linearGradient id="Gradient_4" gradientUnits="userSpaceOnUse" spreadMethod="pad" x1="159.275" x2="159.825" xlink:href="#lg2" y1="273.7" y2="278.9"/>
        <linearGradient id="lg3">
            <stop offset=".18823529412" stop-color="#747474"/>
            <stop offset=".49411764706" stop-color="#747474"/>
            <stop offset=".80784313725" stop-color="#424242"/>
            <stop offset=".87450980392" stop-color="#2e2e2e"/>
            <stop offset=".97254901961" stop-color="#1e1e1e"/>
        </linearGradient>
        <radialGradient id="Gradient_5" cx="0" cy="0" gradientTransform="matrix(.76767163 -.64084341 .56041575 .67126156 159.45 281.55)" gradientUnits="userSpaceOnUse" r="24.245393" spreadMethod="pad" xlink:href="#lg3"/>
        <linearGradient id="Gradient_6" gradientUnits="userSpaceOnUse" spreadMethod="pad" x1="432.4375" x2="430.5625" xlink:href="#lg1" y1="279.725" y2="269.275"/>
        <linearGradient id="Gradient_7" gradientUnits="userSpaceOnUse" spreadMethod="pad" x1="432.475" x2="432.625" xlink:href="#lg2" y1="263.5375" y2="274.1625"/>
        <radialGradient id="Gradient_8" cx="0" cy="0" gradientTransform="matrix(.86569153 .50057784 -.59883296 1.03662055 376.75 282.2)" gradientUnits="userSpaceOnUse" r="21.500153" spreadMethod="pad" xlink:href="#lg3"/>
        <linearGradient id="Gradient_9" gradientUnits="userSpaceOnUse" spreadMethod="pad" x1="377.1" x2="376.5" xlink:href="#lg1" y1="289.2875" y2="281.0125"/>
        <linearGradient id="Gradient_10" gradientUnits="userSpaceOnUse" spreadMethod="pad" x1="377.6625" x2="377.0375" xlink:href="#lg2" y1="270.1875" y2="286.1125"/>
        <linearGradient id="lg4">
            <stop offset=".01960784314" stop-color="#fff" stop-opacity=".129412"/>
            <stop offset="1" stop-color="#fff" stop-opacity=".709804"/>
        </linearGradient>
        <linearGradient id="Gradient_11" gradientUnits="userSpaceOnUse" spreadMethod="pad" x1="279.4875" x2="279.8125" xlink:href="#lg4" y1="244.2" y2="301"/>
        <linearGradient id="Gradient_12" gradientUnits="userSpaceOnUse" spreadMethod="pad" x1="236.35" x2="235.45" xlink:href="#lg4" y1="109.45" y2="302.25"/>
        <linearGradient id="Gradient_13" gradientUnits="userSpaceOnUse" spreadMethod="pad" x1="445.95" x2="444.75" xlink:href="#lg4" y1="218.7" y2="234.5"/>
        <filter id="Filter_1" color-interpolation-filters="sRGB" height="300%" width="300%" x="-100%" y="-100%">
            <feFlood flood-color="#fff" in="SourceGraphic" result="result1"/>
            <feGaussianBlur in="SourceGraphic" result="result2" stdDeviation="17.66666666667 17.66666666667"/>
            <feComposite in="result1" in2="result2" operator="in" result="result3"/>
            <feComposite in="SourceGraphic" in2="result3" operator="over" result="result4"/>
        </filter>
        <filter id="Filter_2" color-interpolation-filters="sRGB" height="300%" width="300%" x="-100%" y="-100%">
            <feFlood flood-color="#fff" in="SourceGraphic" result="result1"/>
            <feGaussianBlur in="SourceGraphic" result="result2" stdDeviation="17.66666666667 17.66666666667"/>
            <feComposite in="result1" in2="result2" operator="in" result="result3"/>
            <feComposite in="SourceGraphic" in2="result3" operator="over" result="result4"/>
        </filter>
        <filter id="Filter_3" color-interpolation-filters="sRGB" height="201.903559%" width="204.910817%" x="-52.455409%" y="-50.95178%">
            <feFlood flood-color="#fff" in="SourceGraphic" result="result1"/>
            <feFlood in="SourceGraphic" result="result2"/>
            <feComposite in="result2" in2="SourceGraphic" operator="in" result="result3"/>
            <feColorMatrix in="result3" result="result4" type="matrix" values="0 0 0 0 255 0 0 0 0 255 0 0 0 0 255 0 0 0 255 0"/>
            <feComposite in="result1" in2="SourceGraphic" operator="in" result="result5"/>
            <feGaussianBlur in="result3" result="result6" stdDeviation="2.33333333333 2.33333333333"/>
            <feComposite in="result5" in2="result6" operator="out" result="result7"/>
            <feComposite in="result7" in2="result4" operator="in" result="result8"/>
        </filter>
        <filter id="Filter_4" color-interpolation-filters="sRGB" height="300%" width="300%" x="-100%" y="-100%">
            <feFlood flood-color="#fff" in="SourceGraphic" result="result1"/>
            <feGaussianBlur in="SourceGraphic" result="result2" stdDeviation="17.66666666667 17.66666666667"/>
            <feComposite in="result1" in2="result2" operator="in" result="result3"/>
            <feComposite in="SourceGraphic" in2="result3" operator="over" result="result4"/>
        </filter>
        <g id="S_mbolo_2_0_Layer0_0_FILL">
            <path d="m293.05 49.35q-.5-.8-1.25-1.15-2.2-.95-4.55-1.65-1.35-.4-2.7-.9-9.65 1.15-20.6 2.8-42.8 6.55-85.75 10.4-.25 0-.55.05 1.65-3.4-.35-7.4-1.3 0-2.45.45-4.15 1.8-7.85 4.6-1.2-28.4-2.95-56.55-2.85 18-2.7 39.8.05 5.6-.05 11.15-8.5-8.6-16.9-15.4-.55.55-.4.7 5.9 11 12 21.4.95 1.55 1.85 3.15-80.65 8.05-157.85 22.55 5.3 1.3 10.55 1.1 14.65-.55 28.85-1.15 56.6-2.3 112.9-8.15-2.3 5.35-2.6 10.85 6.4-3.6 10.5-10.1-.85 11.65-2.3 23-4.2 32.55 5.6 58.25 9.2-16.9 7.3-39.7-1.6-19.35-2.7-38.95 6.35 9.7 17.2 8.55 1.4-7.5-4.45-15.1 57.7-7 112.2-22.6z" fill="#fff"/>
        </g>
    </defs>
    <g>
        <g id="Layer7_0_FILL">
            <path d="m550.95-5h-555.95v406.95h555.95z" fill="url(#Gradient_1)"/>
        </g>
    </g>
    <g>
        <g id="Layer5_0_FILL">
            <path d="m359.15 311.6q12.95-.15 25.6-.15 37.9-.55 72.4-1.1-1.55-1.35-4-2.75-2.8-1.6-6.85-3.2-4.05-1.75-9.35-3.5-4.2-1.3-10.35-3.15-34.3-1.85-63.75-2.35-46.35-1-166.15 1.1-65.2 1.2-88.35 1.15-5.05 1.65-9.25 3.4-5.6 2.3-10 6.45-.95.9-1.85 1.85.9 0 1.85.1 71.5 1.65 109.9 2.45 4.05.1 8.6.1 8.425.125 16.85.25.2-.1.5 0 .2-.1.45 0 .15 0 .35 0 .2 0 .45 0 .35 0 .7 0 .2 0 .35.05.2-.05.35 0 .2-.05.35 0 28.075-.15 56.15-.3 32.75 0 75.05-.4z" fill="url(#Gradient_2)"/>
        </g>
    </g>
    <g>
        <g id="Layer4_0_FILL">
            <path d="m333.85 273.2q5.7-.1 12.2-.15-3.85 9-.75 17.3 3.15 8.55 11.85 11.25 8.6 2.75 17.85-2 9.05-4.75 13.25-14.35 3-6.7 2.3-12.9 2.9-.1 5.3-.1 0 1.2 0 2.4 0 1.45-.2 2.95 3.25-.1 6.5-.25v-31.9h-262.15v33.9q1.45.05 2.9.05-.7-3.15-.85-4.45 2.1.05 6.25.25-.15.45-.2.9-1.75 6.85.55 13.3 3.15 8.6 11.85 11.25 8.7 2.7 17.75-2.1 9.15-4.7 13.35-14.2 1.95-4.25 2.4-8.4.9 0 1.85 0 4.5-.05 8.55-.05 0 .75 0 1.55 0 .75-.45 2.95l16.25-.45q-1.65.15-2.7.2 1.35 0 2.7 0h.55q9.85.25 19.55.35 1.2 0 2.35 0 8.75.1 17.4.1 20.55 0 47.25-.45v-.25q7.05-.2 14.45-.35 1.35-.1 2.65-.1 3.3-.05 6.7-.1.8-3.05 2.75-6.15z"/>
        </g>
    </g>
    <g>
        <g id="Layer3_0_FILL">
            <path d="m182.95 272.4q.5 2.45.5 4.9-.1.9-.15 1.8.9 0 1.9 0 4.45-.05 8.5-.05-.4-3.3-2.4-5.1-1.1-.85-5.1-1.35-.95-.1-3.25-.2m-43.9 2.05q.3-.7.7-1.4-8.45 1.3-8.45 4.45 0 .2.1.55 2.1.1 6.2.3.55-1.95 1.45-3.9m86.45-142.8q1.3-13.4 16.9-18.25 16.2-4.95 33.15-7.9 8.6-1.45 17.2-2.5 5.65-.55 11.2-1.1l-.65-2.3h-.05q-14.55 1.45-29 2.9-8.6.9-17.2 2.45-16.95 2.65-33.15 7.5-15.6 4.45-16.95 17.25-.75 6.85-.4 13.7.5 10.95 1.95 21.85 1.85 13.95 4.5 27.8 2.65 13.35 5.3 26.7.15.5.2.95l1.1 6 1.4 8.15.65 3.7 7.95 45.1q1.2 0 2.4 0l-8.55-45.35q-.15.1-.25.1-.25-.9-.35-1.7-.25-1.05-.35-1.95.2 0 .35 0l-1.65-8.4-.95-5.75q7.45-.8 15.15-1.4-1.95-10.5-4-20.85-2.65-14.6-4.45-29.25-1.4-11.55-1.9-23.05-.35-7.3.45-14.4m119.3 142.45q-.85 1.05-1.55 2.2 5.75-.05 12.25-.1.15-.45.25-.8 4.3-9.55 13.45-14.25 9.05-4.8 17.75-2.1 8.65 2.65 11.85 11.35.9 2.5 1.2 5.1 2.85-.1 5.3-.1-.3-10.2-2.8-15.4-4.1-8.6-15.3-8.6-6.85 0-15.2 3.2-8.1 3.05-15.4 8.15-7.45 5.35-11.8 11.35m-7-61q-1.1 0-2.2.05l-.5 7.9-.35 4.35-.2 3.65-3.35 53.65q1.3-.1 2.65-.1l3.15-53.8.1-3.55.3-4.3zm107.95-1.9q.2-.45.5-.95-.85 0-1.75.05-1.55 2.6-2.85 6.15-.95 2.45-1.7 5.3-2.35 7.7-2.35 10.65 0 .1 0 .2.6 0 1.25-.1 0-1.15 1.4-6.9 1.5-6.3 2.45-8.3.2-.35.25-.8 1.35-2.65 2.8-5.3z" fill="#600"/>
            <path d="m170 275.75q0 .1.1.15 4.8.15 8.3.55 3.15.3 4.2.55.4.15.85.3 0-2.45-.5-4.9-1.35-.05-3-.05-8.8-.15-12.4-.15 1.65 1.4 2.45 3.55m-14.15-3.75q-4.15 0-7.9.2-4.85.3-8.2.85-.4.7-.7 1.4-.9 1.95-1.45 3.9-.15.4-.2.9 2.8-1.05 9.05-2 2.55-.45 4.85-.7 1.6-2.8 4.55-4.55z"/>
            <path d="m151.3 285.6q1.3 3.45 4.75 4.4 3.3 1.15 7-.75 3.55-1.9 5.15-5.65.85-1.7 1-3.45-4 2.65-7.1 3.7-4.6 1.55-11.3-.9.1 1.4.5 2.65z" fill="url(#Gradient_3)"/>
            <path d="m151.3 276.55q.85-.15 1.75-.25 5-.55 8.95-.55 3.4 0 6.4.1.85.05 1.7.05-.1-.05-.1-.15-.8-2.15-2.45-3.55-.6 0-1.1 0-5.6-.2-10.6-.2-2.95 1.75-4.55 4.55z" fill="#333"/>
            <path d="m151.5 279.05q-.7 2-.7 3.9 6.7 2.45 11.3.9 3.1-1.05 7.1-3.7 0-.4 0-.75 0-1.45-.5-2.85-.15-.35-.3-.7-3-.1-6.4-.1-3.95 0-8.95.55-.8 1-1.25 2.2-.15.35-.3.55z" fill="url(#Gradient_4)"/>
            <path d="m150.8 282.95q0-1.9.7-3.9.15-.2.3-.55.45-1.2 1.25-2.2-.9.1-1.75.25-.4.7-.75 1.45-.15.35-.3.65-1.05 2.85-.7 5.5.05 1.05.4 2 1.55 3.95 5.45 5.1 3.85 1.3 8.05-.9 4.1-2.15 6-6.5.65-1.3.9-2.65.25-1.05.25-2.15 0-1.6-.5-3.15-.85 0-1.7-.05.15.35.3.7.5 1.4.5 2.85 0 .35 0 .75-.15 1.75-1 3.45-1.6 3.75-5.15 5.65-3.7 1.9-7 .75-3.45-.95-4.75-4.4-.4-1.25-.5-2.65m-18.6-37.55q14.6-1.65 26.1-2.7 8.7-.9 15.55-1.4 1.55-.1 8.4-.55 9.15-.55 27.75-1.6 1.5-.15 3.1-.2 3-.2 6.25-.35l2.3-.05-.65-3.7-2.2.2q-2.05.05-6.65.4-6.2.45-17.05 1.35-19 1.45-28.45 2.7-9.35 1.25-33.3 5.1-.5.45-1.15.8m241.1 27.1q-2.5 1.3-4.1 3.45-1.2 1.35-1.85 3.05-.45 1.05-.75 2.05-.9 3.15.15 6.05 1.55 3.9 5.35 5.15 3.95 1.25 8.1-1 4.15-2.05 6.05-6.4 1.05-2.5 1.05-4.8-.1-1.7-.65-3.3-.15-.55-.4-1.05-1.5-3-4.9-4.15-3.9-1.15-8.05.95m-4.65 6.9q.45-1.45 1.45-2.65 1.45-1.9 3.65-3 3.6-1.85 6.95-.8 3 .95 4.25 3.6.3.4.35.9.65 1.55.65 3.25-.05 1.9-1 3.8-1.6 3.7-5.2 5.6-3.65 1.95-7.05.8-3.3-1.1-4.7-4.45-.75-2.15-.3-4.45.25-1.3.95-2.6m-34.1-50.35.2-3.65q-14.45 1.05-27.45 2.3-14.95 1.35-27.95 2.85-13.55 1.5-36.9 3-7.1.45-15.15 1l-3.15.15q-.25 0-.55 0-.35.05-.75.05-.15 0-.35 0 .1.9.35 1.95.1.8.35 1.7.1 0 .25-.1h.15q10.15-.55 18.85-1.1 4.35-.3 8.3-.55 4.45-.45 8.5-.65 5.9-.45 10.9-.9 5-.5 9.2-.95 7.2-.85 15-1.65 6.3-.6 12.95-1.25 12.9-1.1 27.25-2.2m86.75-6.95q.05-.4.15-.75.05-.7.15-1.2-9.5.45-15.2.7-20.15 1.05-38.45 2.25-11.15.7-21.55 1.45l-7.45.5q-.9.05-1.85.2l-.1 3.55h.05q1.35-.1 2.75-.2l7.65-.55q9.85-.7 20.5-1.35 18.3-1.15 38.45-2.2 5.55-.35 14.6-.8.15-.8.3-1.6z" fill="#ccc"/>
            <path d="m137.4 279.25q-1.75 6.85.55 13.3 3.15 8.55 11.9 11.25 8.65 2.7 17.7-2.1 9.15-4.7 13.35-14.2 1.95-4.25 2.4-8.4.05-.9.15-1.8-.45-.15-.85-.3-1.05-.25-4.2-.55-3.5-.4-8.3-.55.5 1.55.5 3.15 0 1.1-.25 2.15-.25 1.35-.9 2.65-1.9 4.35-6 6.5-4.2 2.2-8.05.9-3.9-1.15-5.45-5.1-.35-.95-.4-2-.35-2.65.7-5.5.15-.3.3-.65.35-.75.75-1.45-2.3.25-4.85.7-6.25.95-9.05 2z" fill="url(#Gradient_5)"/>
            <path d="m159.4 257.6q-.15 0-.2 0-5.1.4-12.65 1.75-5.25.9-7.9 1.45-.7.15-1.25.35-5.05 1.25-8.1 2.75-2.1 1.05-3.3 2.15-.85.75-1.3 1.9-1 1.9-1.05 4.8 0 .15 0 .35 0 4.25 1.45 8.6.15.35.3.7.4 0 .9 0 1.45.05 3 .05 1.45.1 2.9.1-.7-3.15-.8-4.5-.1-.35-.1-.55 0-3.15 8.45-4.45 3.35-.55 8.2-.85 3.75-.2 7.9-.2 5 0 10.6.2.5 0 1.1 0 3.6 0 12.4.15 1.65 0 3 .05 2.3.1 3.25.2 4 .5 5.1 1.35 2 1.8 2.4 5.1 0 .75 0 1.55 0 .75-.4 2.9l6.2-.1q.05-.45.2-.8.3-1.6.7-3.6 1.55-7.35 1.9-9.1.05-.5.05-.55 0-.35 0-.7v-.15q-.2-3.9-2-6.45-1.2-1.6-3-2.65-.95-.55-2.05-.95-3.2-1.25-8.3-1.7-1.1-.15-2.4-.2-1.8-.05-3.8-.05-2.7 0-11.55.45-2.05.15-3.7.25-3.1-.25-6.15.4m-1.1-14.9q-11.5 1.05-26.1 2.7.65-.35 1.15-.8 23.95-3.85 33.3-5.1 9.45-1.25 28.45-2.7 10.85-.9 17.05-1.35 4.6-.35 6.65-.4l2.2-.2-1.4-8.15q-4.95.8-9.5 1.5-15.4 2.1-27.15 2.65-6.1.25-15.05 1.6-11.45 1.6-27.65 4.8-15.55 3.3-21.8 4.65-.95.9-1.95 1.75-.5.4-1.1.9-.45.35-.7.75-1.6 1.35-3 2.6-4 3.35-7.05 6-1.75 1.6-3.35 2.85 1.15 2.9 2.75 6.65.6 1.45 1.2 3.05.15.3.3.6 5.3 3 6.55 7.25 1 3.4-.6 7.6 5.7.2 12.2.45-.55-1.5-1.2-3.25-1.85-5.5-1.85-9 0-2.85.7-4.9.55-1.65 1.6-2.8 1.95-2.15 6.35-3.7 2.1-.75 4.75-1.3 6.75-1.5 19.35-2.4 2.35-.2 4.8-.25 7.7-.5 15.1-.55 1.05 0 2.15 0 17.25 0 23 1.95 3.15 1.05 4.7 3 .1.15.25.35 1.5 2.15 1.5 5.65 0 3.35-1.55 9.1-.65 2-1.4 4.4-.1.1-.1.35-.8 2-1.6 4.4l9.25-.3q-1.6.15-2.65.2 1.3 0 2.65 0h.55q9.85.2 19.55.35l-7.95-45.1-2.3.05q-3.25.15-6.25.35-1.6.05-3.1.2-18.6 1.05-27.75 1.6-6.85.45-8.4.55-6.85.5-15.55 1.4m172.9 40 3.35-53.65q-14.35 1.1-27.25 2.2-6.65.65-12.95 1.25-7.8.8-15 1.65-4.2.45-9.2.95-5 .45-10.9.9-4.05.2-8.5.65-3.95.25-8.3.55-8.7.55-18.85 1.1h-.15l8.55 45.35q8.7.1 17.4.1 33 0 81.8-1.05m3.9-61.65q-4.35.35-9.6.55-3.4.25-13.2.65-4.95.2-5.35.2-3.5.15-5.8.15-1.45 0-5.1 1.45-3.15 1.4-3.2 1.4-1.05 0-1.85-.55-.4-.35-1.3-1.55-1.7-2.2-4-2.2-2.5 0-8.5 1.8-6.1 1.9-7.9 1.9-1.2 0-5.9-1.25-4.8-1.35-7.65-1.35-6.95 0-15.6 1.1-4.95.65-16.4 2.6-1.25.3-2.55.4l1.65 8.4q.4 0 .75-.05.3 0 .55 0l3.15-.15q8.05-.55 15.15-1 23.35-1.5 36.9-3 13-1.5 27.95-2.85 13-1.25 27.45-2.3zm104.85.7q.75-2.85 1.7-5.3-10.2-.3-14.85-.3-25.95 0-45.95 1.15-17.8.95-39.35 3.2-1.95.2-4.1.45l-.3 4.3q.95-.15 1.85-.2l7.45-.5q10.4-.75 21.55-1.45 18.3-1.2 38.45-2.25 5.7-.25 15.2-.7-.1.5-.15 1.2-.1.35-.15.75-.15.8-.3 1.6-9.05.45-14.6.8-20.15 1.05-38.45 2.2-10.65.65-20.5 1.35l-7.65.55q-1.4.1-2.75.2h-.05l-3.15 53.8q3.25-.05 6.7-.15.75-3 2.7-6.15.7-1.15 1.55-2.2 4.35-6 11.8-11.35 7.3-5.1 15.4-8.15 8.35-3.2 15.2-3.2 11.2 0 15.3 8.6 2.5 5.2 2.8 15.4 0 1.2 0 2.4 0 1.45-.2 2.9 3.2-.05 6.5-.2 1.25 0 2.6-.05 4.25-.15 8.55-.2 1.9-.1 3.95-.15 1.4-.05 2.85-.15 3.05-.05 6.4-.15 1.2-1.85 2.9-4.85 2.8-5.25 4.55-8.5 1.5-2.55-.45-4.25-2.35-1.75-12.7 1.2-.45 0-1.1.15.55-1.85 1.15-3.5 4.7-13.85 7.3-27.45 0-.1 0-.2 0-2.95 2.35-10.65m-3.85-2.35q-.05.7-.15 1.45-.1 1-.2 2.25-4.3.15-8.1.25v-3.55q4-.2 8.45-.4m15.1-2.65q-.85 0-1.7 0-3.45-.15-6.55-.25-.05.45-.25.8-.95 2-2.45 8.3-1.4 5.75-1.4 6.9 4.3-.35 9.3-.75.8-3.65 1.65-7.8.15-.8.2-1.55.2-.9.45-1.8.2-.95.35-1.85.1-1.1.4-2z" fill="#900"/>
            <path d="m99.05 275.7q.15 1.55.35 3.2.15 1.55.35 3h11.75q1.6-4.2.6-7.6-.15-.05-.2-.15-.85-.55-1.9-.55-1.3 0-3.95 1.45-2.7 1.5-4.55 1.5-.8 0-1.05-.1-.65-.2-1.4-.75z" fill="url(#Gradient_6)"/>
            <path d="m121.35 265.2q-.7 2.05-.7 4.9 0 3.5 1.85 9 .65 1.75 1.2 3.25.15 0 .3 0 .7 0 1.4.05-.15-.35-.3-.7-1.45-4.35-1.45-8.6 0-.2 0-.35.05-2.9 1.05-4.8.45-1.15 1.3-1.9 1.2-1.1 3.3-2.15 3.05-1.5 8.1-2.75.55-.2 1.25-.35 2.65-.55 7.9-1.45 7.55-1.35 12.65-1.75.05 0 .2 0 3.05-.65 6.15-.4 1.65-.1 3.7-.25 8.85-.45 11.55-.45 2 0 3.8.05 1.3.05 2.4.2 5.1.45 8.3 1.7 1.1.4 2.05.95 1.8 1.05 3 2.65 1.8 2.55 2 6.45v.15q0 .35 0 .7 0 .05-.05.55-.35 1.75-1.9 9.1-.4 2-.7 3.6-.15.35-.2.8h.75q.8-2.4 1.6-4.4 0-.25.1-.35.75-2.4 1.4-4.4 1.55-5.75 1.55-9.1 0-3.5-1.5-5.65-.15-.2-.25-.35-1.55-1.95-4.7-3-5.75-1.95-23-1.95-1.1 0-2.15 0-7.4.05-15.1.55-2.45.05-4.8.25-12.6.9-19.35 2.4-2.65.55-4.75 1.3-4.4 1.55-6.35 3.7-1.05 1.15-1.6 2.8m204.15-43.6q5.25-.2 9.6-.55l.5-7.9q-23.65.95-44.75 2.1-29.05 1.7-55.45 3.95-7.7.6-15.15 1.4l.95 5.75q1.3-.1 2.55-.4 11.45-1.95 16.4-2.6 8.65-1.1 15.6-1.1 2.85 0 7.65 1.35 4.7 1.25 5.9 1.25 1.8 0 7.9-1.9 6-1.8 8.5-1.8 2.3 0 4 2.2.9 1.2 1.3 1.55.8.55 1.85.55.05 0 3.2-1.4 3.65-1.45 5.1-1.45 2.3 0 5.8-.15.4 0 5.35-.2 9.8-.4 13.2-.65m119-11.3q-2.15 0-4.25.1-43.75.8-58.4 1.25-20.35.55-39.15 1.25-6.2-20.15-16-53.1-8.3-28.3-17.1-58.6-.35-1.15-.65-2.25-.1-.55-.25-1.05-.15-.2-.15-.4-.5-1.6-.9-3.25-3 .15-5.9.3-.1 0-.2 0-8.85.4-17.65 1.05-44.7 2.95-79.15 8.4-3.65.45-7.15 1.1-.85 2.15-1.75 4.6-1.4 3.7-3 8.1-.6 1.75-1.3 3.6-8.9 24.2-14.35 40.85-12.85 39.25-16.25 65.25-16.55 2.3-31.6 5-4.8 4.05-10.9 9.4 6.25-1.35 21.8-4.65 16.2-3.2 27.65-4.8 8.95-1.35 15.05-1.6 11.75-.55 27.15-2.65 4.55-.7 9.5-1.5l-1.1-6q-.05-.45-.2-.95-2.65-13.35-5.3-26.7-2.65-13.85-4.5-27.8-1.45-10.9-1.95-21.85-.35-6.85.4-13.7 1.35-12.8 16.95-17.25 16.2-4.85 33.15-7.5 8.6-1.55 17.2-2.45 14.45-1.45 29-2.9h.05l.65 2.3q10.9 33.15 21 67.2 7.7 25.85 13.2 43.95-.2 0-.35.05l-.4 7.85q2.15-.25 4.1-.45 21.55-2.25 39.35-3.2 20-1.15 45.95-1.15 4.65 0 14.85.3 1.3-3.55 2.85-6.15m6.7 6.45q.7-3.6 1.35-6.65-3.25.15-6.3.15-.3.5-.5.95-1.45 2.65-2.8 5.3 3.1.1 6.55.25.85 0 1.7 0z" fill="#c00000"/>
            <path d="m105.55 267.05q-.15-.1-.45-.15-4.05-2.15-4.75-2.15-.8 0-1.4 1.45-.4 1.1-.4 1.9 0 3.25.5 7.6.75.55 1.4.75.25.1 1.05.1 1.85 0 4.55-1.5 2.65-1.45 3.95-1.45 1.05 0 1.9.55.05.1.2.15-1.25-4.25-6.55-7.25z" fill="url(#Gradient_7)"/>
            <path d="m114.7 245.3q-4.6-2.15-7.2-3.35-1.45 2.95-3.3 6-1.2 1.9-2.15 3.65 1.1.95 2.6 2.3 3.05-2.65 7.05-6 1.4-1.25 3-2.6z" fill="#c00"/>
            <path d="m355.5 276.2q-3.85 9-.75 17.3 3.1 8.55 11.85 11.25 8.6 2.75 17.8-2 9.1-4.75 13.3-14.35 3-6.7 2.3-12.9-.3-2.6-1.2-5.1-3.2-8.7-11.85-11.35-8.7-2.7-17.75 2.1-9.15 4.7-13.45 14.25-.1.35-.25.8m13.7-.25q1.6-2.15 4.1-3.45 4.15-2.1 8.05-.95 3.4 1.15 4.9 4.15.25.5.4 1.05.55 1.6.65 3.3 0 2.3-1.05 4.8-1.9 4.35-6.05 6.4-4.15 2.25-8.1 1-3.8-1.25-5.35-5.15-1.05-2.9-.15-6.05.3-1 .75-2.05.65-1.7 1.85-3.05z" fill="url(#Gradient_8)"/>
            <path d="m369.45 283.75q-1.05-.85-1.75-1.75-.45 2.3.3 4.45 1.4 3.35 4.7 4.45 3.4 1.15 7.05-.8 3.6-1.9 5.2-5.6.95-1.9 1-3.8-.85.6-1.65 1.15-5.7 3.7-8.7 3.7-3.6 0-6.15-1.8z" fill="url(#Gradient_9)"/>
            <path d="m370.1 276.75q-1 1.2-1.45 2.65-.7 1.3-.95 2.6.7.9 1.75 1.75 2.55 1.8 6.15 1.8 3 0 8.7-3.7.8-.55 1.65-1.15 0-1.7-.65-3.25-.05-.5-.35-.9-1.25-2.65-4.25-3.6-3.35-1.05-6.95.8-2.2 1.1-3.65 3z" fill="url(#Gradient_10)"/>
            <path d="m435.95 220.85q.1-.75.15-1.45-4.45.2-8.45.4v3.55q3.8-.1 8.1-.25.1-1.25.2-2.25z" fill="#f90"/>
        </g>
    </g>
    <g>
        <g id="Layer2_0_FILL">
            <path d="m442.35 268.5q-4.7.05-10.35 2.7-5.75 2.75-7.95 2.75-2.05 0-2.75-.55-.4-.45-1.45-2.2-.1.3-.1.6-.05.05-.05.2-.55 7.7 7 8.1 1.4-.05 2.85-.15 3.05-.05 6.4-.15 1.2-1.85 2.9-4.85 1.95-3.75 3.5-6.45z" fill="url(#Gradient_6)"/>
            <path d="m442.95 262.2q-2.35-1.75-12.7 1.2-.45 0-1.1.15-8.35 3-9.3 7.55 0 .05 0 .1 1.05 1.75 1.45 2.2.7.55 2.75.55 2.2 0 7.95-2.75 5.65-2.65 10.35-2.7.55-1.1 1.05-2.05 1.15-1.95.35-3.35-.3-.45-.8-.9z" fill="url(#Gradient_7)"/>
        </g>
    </g>
    <g>
        <g id="Layer1_0_FILL">
            <path d="m124.4 274.8q0 1.15 1.35 6.05l4.75.1q-.6-1.9-.6-4.2 0-2.4 5.25-3.7 5.25-1.4 17.45-2.25 12.25-.85 32.85.15 5.1.35 7.4 2.1 2.4 1.9 2.4 6.15 0 1.45-.1 2.8l2.8.05q.5-1.8 1.05-3.75 1.75-6.5 1.75-8.45 0-7.45-5.7-9.95-3.95-1.75-14.05-1.9-23.9-.25-37.2 2.4-19.4 4-19.4 14.4m20.7-36.2q-18.25 3.85-23.5 4.7-2.35 1.85-7.95 6.55-6.3 5.15-10.3 8.05.95 2.3 1.9 4.85.5 1.35.9 2.55 3.65 1.95 5.4 4.2 2.8 3.45 2.8 9.7 0 .35-.15 1.5 2.65-.05 5.95-.1-.65-1.35-1.15-4.35-.45-3-.2-8.85.2-5.95 7.5-8.7 7.25-2.8 17.25-4.15 9.9-1.5 17.3-1.9 7.4-.5 13.45-.5 15.5 0 21.1 1.35 11.7 2.85 11.7 12.6 0 2.8-1.4 8.15-.95 3.55-2.35 7.25 1.25.35 2.45.4.55 0 3.5 0 .55 0 17.85-.35-2.55-13.4-4.65-26.45-1.2-8.05-2.25-14.95-12.65.4-44.1 3.05-38.95 3.3-47.3 4l.1-.1q.6-.8 1.1-1.5.8-1.05 1.55-1.9 17.55-3.65 45.95-6.7 15.1-1.7 41.65-3.8-.4-2.7-.85-5.2-6.2 1.45-18.8 2.65-15.9 1.3-22.75 2.1-9.7 1.25-31.7 5.85m186 2.5q.7-6.15 1.25-11.15-20.15 2.65-36.3 4.45-35 4.15-49.05 4.15-2.5 0-13 .75-4.75.35-7.55.55 1.6 7.75 4.15 19.85 2.7 13.05 4.9 21.65 6.6.2 18.3.35 19 0 44.4-.85 5.95-.2 30.2-1.05.2-2.65.5-5.85 1.3-15.7 1.3-18.5 0-5.25.9-14.35m1.9-17.85q0-.25 0-.35-1.8.2-4.95.6-7.35.9-10.15.9l-6.2-.55q-5.55-.25-6.7-.25-4.3 0-7.15 1.75-2.8 1.7-4.2 1.7-2.45 0-4.75-2.2-2.3-2.3-3.75-2.3-1.4 0-5.8 1.85-4.35 1.85-10 1.85-1.65 0-7.05-1.35-5.4-1.3-9.15-1.3-3.9 0-13.75 1.65-10.65 1.8-15.45 2.6.35 1.65 1 4.8 29.4-.55 108.05-9.4m89.3-.35q-.35.6-1 2.9-9 .55-28.5 1.75-43.5 2.75-53.7 3.45-2.2 34.5-3.05 48.8 1.2-.1 2.9-.45.25-.1.55-.1 4.7-12.5 19.7-21.35 15-8.95 28.1-8.95 11.25 0 17.05 6.4 5.85 6.5 5.85 19.15 0 1.2-.15 3.3 2.1.05 5.3.2.8 0 1.5 0-1-1.7-1-4.1 0-4.65 4.8-8.6 2.95-2.4 7-3.8 1.8-6.5 6.9-23.4 2.05-6.65 3.65-13.6-7.9.95-9.35.95-.55 0-2.85.15-.15-2-.15-3.7-.45-.15-.8-.15-2.2 0-2.75 1.15z" fill="url(#Gradient_11)"/>
            <path d="m158.3 255.6q-2.4.05-4.75.25-12.4.9-19.1 2.4-8.15 1.8-10.95 5-.7.8-1.5 2.45-.6 1.4.3 2.1.9.65 1.7-.4.9-1.55 1.5-2.2 2.95-2.8 11.55-4.85.55-.25 1.25-.35 2.75-.6 8.05-1.5 7.6-1.3 12.75-1.75.15 0 .3 0 3.05-.6 6.2-.4 1.7-.1 3.7-.2 9.05-.5 11.75-.5 2.05 0 3.9.05 1.25.1 2.4.2 5.15.45 8.45 1.7 1.1.4 2 1 .85.45 3.15 2.75.9.95 1.55.1.7-.75 0-1.7-1.25-1.65-4.45-2.8-5.7-1.95-22.7-1.95-1.15 0-2.2 0-7.25.1-14.85.6z" fill="#f0f0f0" fill-opacity=".807843"/>
            <path d="m130.75 234.25-5.85 4.4q24.25-6.35 56.3-9.5 5.25-.55 11.95-.9 6-.4 9.05-.75.25 0 4.55-.7 2.95-.45 4.5-.5 1.3-.05 4.25-.3 1.1-.1 1.95-.3l-.85-3.85zm202.55-15.05q.05-.8.1-1.7.15-1.55.3-2.8-55.6 2.1-111.2 6.85.2 1.45.45 3.1 10.2-2.05 15.75-2.8 9.35-1.4 17.85-1.4 2.7 0 6.45 1.1 3.75 1.05 5.05 1.05 4.1 0 10.6-1.75 6.55-1.75 7.8-1.75 2.4 0 4.3 1.9 1.85 1.9 3.05 1.9.85 0 3.9-1.3 3.1-1.3 7-1.3l10.15.35q.7 0 9-.75 6.4-.6 9.45-.7m106.8-4.35q.6 0 1.4 0 .05-.3.2-.55.55-1.35 1.05-2.45-1.1 0-2.15 0-49.15 0-100.55 2.85-.25 0-.55 0-.05 1.8-.15 4.25.2 0 .45 0 27.1-2.85 53.65-3.75 23.95-1.2 46.65-.35m9.9.7.85-3.55q-2.65 0-4 .05-.45.9-1.05 2.05-.25.6-.55 1.1 2.95.2 4.75.35z" fill="#f0f0f0" fill-opacity=".956863"/>
            <path d="m132.2 245.4q14.6-1.65 26.1-2.7 5.1-.8 8.35-1.25 9.45-1.25 28.45-2.7 10.85-.9 17.05-1.35 4.6-.35 6.65-.4l2.55-.2-.35-1.95-2.2.2q-2.05.05-6.65.4-6.2.45-17.05 1.35-19 1.45-28.45 2.7-9.35 1.25-33.3 5.1-.5.45-1.15.8m202.5-18.05.05-1.95q-1 .05-1.95.15-13.4.95-25.5 2.15-14.95 1.35-27.95 2.85-13.55 1.5-36.9 3-7.1.45-15.15 1l-3.15.15q-.25 0-.55 0-.35.05-.75.05h-.35l.45 1.95q.35 0 .65-.05.3 0 .55 0l3.15-.15q8.05-.55 15.15-.95 23.35-1.55 36.9-3.05 13-1.5 27.95-2.85 12-1.2 25.3-2.15 1.05-.1 2.1-.15m86.75-6q.05-.7.15-1.2-9.5.45-15.2.7-20.15 1.05-38.45 2.25-11.15.7-21.55 1.45l-7.45.5q-.9.05-1.85.2v1.95q.95-.15 1.85-.2l7.45-.5q10.4-.75 21.55-1.45 18.3-1.2 38.45-2.25 5.6-.25 14.9-.7.05-.4.15-.75z" fill="#fff"/>
            <path d="m302.6 97.95q4.5-2-17.1-.6-18.1 1.2-34.45 3.15-13.55 1.5-48.5 7.95-1.65 3.65-3.2 7.15-12.1 26.65-17.6 44.85-6.9 22.75-13 65.55 17.05-2 39.4-4.95-3.25-11.95-4.65-18.3-4.7-21.8-5.05-45.6-.15-14.25 4.75-34.15 1.25-5.25 4.75-8.2 2.85-2.3 9-4.4 8.4-2.15 17.2-3.9 17.1-3.45 31.85-4.5 7.2-.45 26.15-2.85z" fill="url(#Gradient_12)"/>
            <path d="m448.9 220.25q-.75 0-1.7 0-2.85 0-4.4-.3-.4 1.55-1.05 4.1-.95 4.15-1.3 6.85.15 0 .9 0 2.95 0 5.65-.45 1.4-7.65 1.9-10.2z" fill="url(#Gradient_13)"/>
        </g>
        <path id="Layer1_0_1_STROKES" d="m125.4 282.4q-.7-.05-1.4-.05.1.4.25.8m75.25.25h.55q-.15.4-.25.8" fill="none" stroke="#fc0" stroke-linecap="round" stroke-linejoin="round"/>
    </g>
    <g filter="url(#Filter_1)">
        <g transform="matrix(.08705139 -.08705139 .12286377 .12286377 418.8 218.35)">
            <g>
                <use xlink:href="#S_mbolo_2_0_Layer0_0_FILL"/>
            </g>
        </g>
    </g>
    <g filter="url(#Filter_2)">
        <g transform="matrix(.1360321 0 0 .1360321 175.35 87.4)">
            <g>
                <g>
                    <g id="S_mbolo_1_0_Layer0_0_FILL">
                        <path d="m43 149.3q2.1 2.35 4.65 1.45.4-.1.3-.2-2.05-2.05-4.45-2.5-.85.85-.5 1.25m187.95-149.3q-8.75 36.75-15.35 81.9-3.35 22.95-7.3 45.55-.45-1.25-.85-2.45-6.65-19.3-14.75-34.9-6.55 15.7 3 37.25.85 1.95 1.7 4-29.15-3.2-58.35-7.1-65-8.7-129.5-16.6 0 .5-.05.5-2.1.6-4.2.85-1.05.2-2.15.7-1.05.6-2.1 1.2-.55.35-1.05.95 3.25 6.55 9.4 8.2 76.35 21.45 154.9 32.35 19.1 2.65 38.2 5.65-4.5 22.45-9.65 44.6-15 64.45-9.15 121.35 9.45-37.4 16.05-82.95 4.6-31.6 9.4-62.8 4.95 21.55 16.45 20.5 2.4-17.55-4.2-34.95-.55-1.55-1.15-3 36.75 5.75 73.5 12.5 53.8 9.85 105.5-1.5-69.65-29.05-143.2-35-19.95-1.55-39.9-3.5.9-5.65 1.8-11.3 9.8-60.95 13-122z" fill="#fff"/>
                    </g>
                </g>
            </g>
        </g>
    </g>
    <g filter="url(#Filter_3)">
        <g transform="matrix(.08088684 0 0 .08088684 190.9 96.45)">
            <g>
                <g id="S_mbolo_10_0_Layer0_0_FILL">
                    <path d="m286.1 148.25q0-61.4-41.9-104.85-41.9-43.4-101.15-43.4-59.25 0-101.15 43.4-41.9 43.45-41.9 104.85 0 61.4 41.9 104.8 41.9 43.45 101.15 43.45 59.25 0 101.15-43.45 41.9-43.4 41.9-104.8z" fill="#fff"/>
                </g>
            </g>
        </g>
    </g>
    <g filter="url(#Filter_4)">
        <g transform="matrix(.08261108 .08261108 -.12889099 .12889099 118.8 241.05)">
            <g>
                <use xlink:href="#S_mbolo_2_0_Layer0_0_FILL"/>
            </g>
        </g>
    </g>
</svg>
