<svg height="400" preserveAspectRatio="none" viewBox="0 0 550 400" width="550" xmlns="http://www.w3.org/2000/svg" xmlns:xlink="http://www.w3.org/1999/xlink">
    <radialGradient id="Gradient_1" cx="272.95" cy="198.45" gradientUnits="userSpaceOnUse" r="344.5" spreadMethod="pad">
        <stop offset="0" stop-color="#a5e4fa"/>
        <stop offset=".98431372549" stop-color="#36d1f7"/>
    </radialGradient>
    <radialGradient id="Gradient_2" cx="0" cy="0" gradientTransform="matrix(.99998599 .00529252 0 .05665405 272.2 303.65)" gradientUnits="userSpaceOnUse" r="207.840411" spreadMethod="pad">
        <stop offset=".61176470588" stop-color="#395656"/>
        <stop offset="1" stop-color="#679a9a"/>
    </radialGradient>
    <linearGradient id="Gradient_3" gradientUnits="userSpaceOnUse" spreadMethod="pad" x1="282.2" x2="281.5" y1="259.175" y2="292.025">
        <stop offset="0" stop-color="#630"/>
        <stop offset="1" stop-color="#331900"/>
    </linearGradient>
    <linearGradient id="lg1">
        <stop offset=".18823529412" stop-color="#747474"/>
        <stop offset=".49411764706" stop-color="#747474"/>
        <stop offset=".80784313725" stop-color="#424242"/>
        <stop offset=".87450980392" stop-color="#2e2e2e"/>
        <stop offset=".97254901961" stop-color="#1e1e1e"/>
    </linearGradient>
    <radialGradient id="Gradient_4" cx="0" cy="0" gradientTransform="matrix(.76767163 -.64084341 .56041575 .67126156 159.45 281.55)" gradientUnits="userSpaceOnUse" r="24.245393" spreadMethod="pad" xlink:href="#lg1"/>
    <linearGradient id="lg2">
        <stop offset="0" stop-color="#d9d9d9"/>
        <stop offset=".96862745098" stop-color="#999"/>
    </linearGradient>
    <linearGradient id="Gradient_5" gradientUnits="userSpaceOnUse" spreadMethod="pad" x1="159.275" x2="159.825" xlink:href="#lg2" y1="273.7" y2="278.9"/>
    <linearGradient id="Gradient_6" gradientUnits="userSpaceOnUse" spreadMethod="pad" x1="432.475" x2="432.625" xlink:href="#lg2" y1="263.5375" y2="274.1625"/>
    <radialGradient id="Gradient_7" cx="0" cy="0" gradientTransform="matrix(.86569153 .50057784 -.59883296 1.03662055 376.75 282.2)" gradientUnits="userSpaceOnUse" r="21.500153" spreadMethod="pad" xlink:href="#lg1"/>
    <linearGradient id="Gradient_8" gradientUnits="userSpaceOnUse" spreadMethod="pad" x1="377.6625" x2="377.0375" xlink:href="#lg2" y1="270.1875" y2="286.1125"/>
    <g>
        <g id="Layer7_0_FILL">
            <path d="m-5-5v406.95h555.95v-406.95z" fill="url(#Gradient_1)"/>
        </g>
    </g>
    <g>
        <g id="Layer5_0_FILL">
            <path d="m359.15 311.6q12.95-.15 25.6-.15 37.9-.55 72.4-1.1-1.55-1.35-4-2.75-2.8-1.6-6.85-3.2-4.05-1.75-9.35-3.5-4.2-1.3-10.35-3.15-34.3-1.85-63.75-2.35-46.35-1-166.15 1.1-65.2 1.2-88.35 1.15-5.05 1.65-9.25 3.4-5.6 2.3-10 6.45-.95.9-1.85 1.85.9 0 1.85.1 71.5 1.65 109.9 2.45 4.05.1 8.6.1l16.85.25q.2-.1.5 0 .2-.1.45 0 .15 0 .35 0 .2 0 .45 0 .35 0 .7 0 .2 0 .35.05.2-.05.35 0 .2-.05.35 0l56.15-.3q32.75 0 75.05-.4z" fill="url(#Gradient_2)"/>
        </g>
    </g>
    <g>
        <g id="Layer4_0_FILL">
            <path d="m324.4 279.45q3.3-.05 6.7-.1.8-3.05 2.75-6.15 5.7-.1 12.2-.15-3.85 9-.75 17.3 3.15 8.55 11.85 11.25 8.6 2.75 17.85-2 9.05-4.75 13.25-14.35 3-6.7 2.3-12.9 2.9-.1 5.3-.1 0 1.2 0 2.4 0 1.45-.2 2.95 3.25-.1 6.5-.25v-31.9h-262.15v33.9q1.45.05 2.9.05-.7-3.15-.85-4.45 2.1.05 6.25.25-.15.45-.2.9-1.75 6.85.55 13.3 3.15 8.6 11.85 11.25 8.7 2.7 17.75-2.1 9.15-4.7 13.35-14.2 1.95-4.25 2.4-8.4.9 0 1.85 0 4.5-.05 8.55-.05 0 .75 0 1.55 0 .75-.45 2.95l16.25-.45q-1.65.15-2.7.2 1.35 0 2.7 0h.55q9.85.25 19.55.35 1.2 0 2.35 0 8.75.1 17.4.1 20.55 0 47.25-.45v-.25q7.05-.2 14.45-.35 1.35-.1 2.65-.1z"/>
        </g>
    </g>
    <g>
        <g id="Layer3_0_FILL">
            <path d="m280.65 97.6q.7.4 1.2.4 1.15 0 3.5-2.45.85 1.4 1.9 2.4.9.85 1.4.85 1.1 0 3.15-1 2.1-1.05 4.2-1.05 0-.4.25-1 .17949219-.53847656.2-.95-6.29414063.33789063-12.55.8-44.7 2.95-79.15 8.4-3.65.45-7.15 1.1-.85 2.15-1.75 4.6-1.4 3.7-3 8.1-.6 1.75-1.3 3.6-8.9 24.2-14.35 40.85-10.73144531 32.77871094-14.9 56.3.85.634375.85 1 0 .5-.4.95-.4.4-.4.9 0 1.35 1.25 2.45 1.4 1.25 3.65 1.25 2.4 0 2.75-.1.9-.3 1.35-1.95-.05-.05-1.05-.55-.15-.1-.15-.5 0-.75 1.45-2 1.4-1.25 1.4-2.5 0-2.35-1.1-3.2-2.8-2.1-3-2.35 3.1-.15 4.45-.85 1.7-.95 1.7-3.25 0-1.95-1.6-3.1-1.65-1.15-1.65-2 0-1.45.8-1.45-1.9-.5-2.25-1.3-.2-.45-.2-3 0-2.55.2-3.1.45-1.15 2.65-2.45 0 2.5 1 4.65 1.3 2.75 3.5 2.75 2.5 0 5.35-2.85 2.85-2.85 2.85-5.35 0-1.9-1.4-3.9-1.45-2.05-1.45-2.9 0-1.85 2.9-4.25 2.85-2.4 2.85-4.55 0-2.8-4.1-5.5-4.1-2.75-4.1-5.75 0-.65.25-.95.15-.2.55-.5h2.6q-.15-.29257813-.15-.8 0-2.75 8-5.55 8-2.85 8-5.15 0-.75-2.2-4.5-2.9-4.9-3.1-5.3.4 0 .4-.4 1.5-.45 3.2-.55.9-.25.9-2.15 0-3.8-2.85-4.4-1.6-.3-2-.6-.9-.55-.9-2.2 0-1.8 1.15-2.25.6-.25 2.55-.1 3.7.25 3.7-3.15 0-.7-.9-1.4-1.2-.95-1.6-1.65.45 0 .45-.45-1.05.05-1.15-.1-.1-.15-.1-1.35 0-1.75 2.45-3.7 2.65-2.15 2.9-3.05-3.3-.8-3.3-2.65 0-1.25 3.3-3.05 3.1-1.65 4.5-1.65.5 0 .9.4.35.4.75.4-.5-.95 1.15-1.95 1.45-.9 2.3-.9.85 0 2.05.6 1.25.6 1.45.6.15-1.15.9-1.9.4-.4 1.15-.95h1.65q2.8 2.8 3.25 3.15.44179688.34355469.45-.3.54453125-.00898437 1.5-.2 1-.2 1.35-.2.55-.5 1.15-1.6.7-.85 2.3-.85 4.6 1.65 4.75 1.65 1.5 0 2.7-1.85 1.2-1.85 2.4-1.85.65 0 .75.05.1.05.3.35 0 .7-.2 1.8-.2 1.15-.2 1.5.9 0 2.4.4 1.5.4 1.9.4.25 0 1.85-2.25 0-.6-.25-1-.35-.4-.6-.85 3.2 0 5.15-.8.65 0 1.45.6.85.6 1 .6 2.15 0 3.3-1.4 1.15-1.45 3.25-1.45.6 0 2.2 1.65 1.55 1.65 4.15 1.65 2.5 0 2.95-.15 1.25-.4 2-2.35 0 .45.15.6.2.25.85.25.3 0 3.25-1.45 2.9-1.45 4.55-1.45.5 0 1.25.45m129.25 160.3q-.85-.05-2-1-1.1-.9-1.4-1.85l-.75.75q-1-1.4-3.1-2.8-2.35-1.5-3.75-1.35-.25-1.05-.25-4.75-2.15.75-2.7-.65-.15-.5-.25-3.6-.2-5.9-5.95-5.9-1.75 0-2.9 1.05-.8.75-.8 1.15l1.2 2.3q1.15 2.45 1.15 3.15 0 2.2-3 2-2.9-.15-2.75 2.1-5.35.75-6 .75-.55-1.35-.55-3.25 0-.3.3-1.3.25-1 .25-1.3 0-.9-1.05-2.25-1-1.3-1.6-1.3-1.3 0-2.3 1.85-.85 1.4-.85 2.1 0 1.05 1.1 1.55 1.05.45 1.05 1.85 0 2.55-4.5 1.55 0 1.2-1.1 2.5-1.2 1.25-1.5 1.75-.5-.25-2.65-2.4v-.8q-.70175781-.43554687-1.95-1.65-1.75-1.75-2.6-1.75-.6 0-1.45 1.8-.75 1.7-.75 2.5 0 .85 1 1.3.45.2 1.55.4l.15.05q.15.15.15.55 0 .75-1.35 2.05-1.25 1.3-1.8 1.3-.1 0-.7-.55-.65-.6-.9-1.05-.45.35-1.2 2.15-.7 1.75-.65 2.35v.25q-.35-.2-1.25-.35-.85-.15-1.35-.15-1.9 0-2.1 1.1-.1.6.25 2-3.9-1.05-4.75-1.05-1.3 0-2.05 1.85-.35.95-.5 1.95 0 .75 1.45 1.7 1.4 1 1.4 2 0 .85-2.2 1.7-.3 0-.6-.4-.2-.45-.3-.6-.35.3-1 1.95-.5 1.2-1.9 1.4h-1.05q.2-.8.15-1.3 0-1-.95-1.55-.35.45-.4 1.5l-.1 1.35q-.2-.25-.8-.25-.12089844 0-.25.05l-.6 10.2q3.25-.05 6.7-.15.75-3 2.7-6.15.7-1.15 1.55-2.2 4.35-6 11.8-11.35 7.3-5.1 15.4-8.15 8.35-3.2 15.2-3.2 11.2 0 15.3 8.6 2.5 5.2 2.8 15.4 0 1.2 0 2.4 0 1.45-.2 2.9 2.57558594-.04023438 5.2-.15.17089844-.3015625.35-.6.15-.3.1-.8-.6 0-1.25-.5-.65-.5-.65-1.1 0-.35.75-1 .4-.4 1.15-1.05-.6-.45-.85-.7-.5-.45-.5-1.15 0-.05 2.5-2.65 2.5-2.55 2.5-6.4 0-2.3-.55-3-.45-.55-1.7-.55-.85 0-1.55 1.05-.7 1.05-1.45 1.05-1.35 0-1.35-1.7 0-.85.85-1.9 1.1-1.3 1.25-1.65m-81.25 11.6q-1.25.85-2.35 1.75-2.2 1.8-1.55 3.25-.2-.25-.25-.3-.1-.05-.55-.05-.6 0-1.95 1.2-1.35 1.2-1.85 1.2-1.75 0-3.15-2.15-1.5-2.3-.4-4.15-.1 0-.45.25-.35.25-.7.25-.35-.7-1.05-1.75-1.4-2.05-3.85-3.5 0-3.45-.1-4.15-.45-2.6-2.2-2.6-.6 0-1.35.75.95-1.85-.3-4.15-1.4-2.6-4.55-2.6-2.35 0-4.35 1.8-1.8 1.6-1.8 3.25 0 .35.25 1.45.25 1.1.25 1.4 0 4.35-3.4 4.35-.35 0-2.4-1.05-2-1.05-2.05-1.05-.5 0-4 5.65-1.75 2.8-3.45 5.6-.3 0-1.25-.25-.9-.25-1.25-.25-1.45 0-2.45 1-.8 1.15-1.25 1.35-.05-1.85-2.45-3.5-2.1-1.45-3.65-1.45-1.15 0-1.85 3.65-.7 3.65-1.7 3.65-.55 0-2.15-1.05l.05.15q.05.15.25.15.35 1.35-1.9 1.6-4.3.45-4.65.55h-1.35l-.6-3.1q-.3-1.65-1.6-1.65-2.1 0-2.4 2.75-.3 2.75-3.5 2.75-1.55 0-2.65-.5.8-1.5.8-1.9 0-.4-1.05-1.5-1-1.1-1.25-1.1-.621875 0-.8.25.13730469.13710938.2.25h-.25q0-.13417969.05-.25-.36386719-.33808594-1.3-.75-1.2-.5-2-.5-1.15 0-1.15 1 0 1.3 1.05 2 1 .75 1 1.55 0 .45-.8.95-.75.5-1.55.5-2 0-2.35-.75 0-.95 0-1.35 0-.55-.75-1.3-.85-.85-1.5-.85-.8 0-1.85 1.45-.16074219.21445313-.3.4l1.05 5.55q8.7.1 17.4.1 33 0 81.8-1.05l1.05-16.8q-.67734375-1.02382812-1.05-1.35-.65-.55-1.5-.55-1.3 0-1.85.5-.5.45-.5 1.55 0 .65.65 2 .65 1.3.65 1.45m-127.55 12.9q-.21347656.55253906-.4.95l8.8-.25q-1.6.15-2.65.2 1.3 0 2.65 0h.55q.72402344.01464844 1.45 0 0-.03535156 0-.1 0-.15-.6-.6-.85-.7-1.25-1.1h-1.05q-.23769531.23769531-.25.9.26542969.18886719.5.4l-.5-.3q0-.03691406 0-.1-.86347656-.5-2.05-.5-1.55.1-1.9.1-.9 0-.95-.1-.15-.65-.6-1.75-1.05.45-1.75 2.25m-55.85-17q-.9-.4-1.7-.4-3.6 0-3.35 2.55.25 3.05-2.65 3.95-.55-2.05-.7-2.2-.15-.15-1.8-.15-1.95 0-2.25.2-.75.45-1.25 2.95-.15-.8-.5-.95-.2-.1-.95-.1-.62441406 0-1.3.8-.209375-.19628906-.45-.4-1.35-1.15-1.9-1.15-1.4 0-1.45 1.3 0 .65.25 1.45 0 .6-.5.8-.60507812.15136719-1.1.3.21816406 3.65449219 1.45 7.35.15.35.3.7.4 0 .9 0 1.45.05 3 .05.07519531.00527344.15 0 1.37519531.1 2.75.1-.7-3.15-.8-4.5-.1-.35-.1-.55 0-3.15 8.45-4.45 3.35-.55 8.2-.85 3.75-.2 7.9-.2 5 0 10.6.2.5 0 1.1 0 3.6 0 12.4.15 1.65 0 3 .05 2.3.1 3.25.2 4 .5 5.1 1.35 2 1.8 2.4 5.1 0 .75 0 1.55 0 .75-.4 2.9l1.2-.05q.02011719-2.01054687.25-2.7.5 0 .5.25h.5q.2-1.4.8-3.2.5-1.35.5-3.25 0-2-1.05-3.8-1.2-2.15-3.1-2.15-.9 0-2.25 1.6-1.3 1.55-1.95 1.55-.3 0-2.65-4.85-2.3-4.85-4.75-4.85-1.15 0-1.55.9-.3.55-.6 2-.85 2.9-4.9 2.9-1.3 0-1.75-.3-.25-.15-1.65-1.55.8-.95.8-1.25 0-.7-3.55-2.9-3.35-2.1-3.65-2.1-1.1 0-2 1-.8.95-.8 1.85 0 .9.05 1 .1.1.8.3-.35.4-1.5 1.75-1.2 1.15-2.35 1.15-.35 0-1.4-.45-1-.4-1.6-.35-.45.45 0 1.85-.85.25-1.45.25-3.05 0-3.7-1.95-.7-2-1.8-2-1 0-1.6.7-.6.6-.6 1.4-.35-.45-1.25-.85m-36.75.4q1.05-1.9 1.05-2.35 0-1.6-1.8-2.85-1.55-1.1-2.8-1.1-1.58144531 0-2.35.45.67734375 1.63886719 1.45 3.45.6 1.45 1.2 3.05.15.3.3.6 5.3 3 6.55 7.25 1 3.4-.6 7.6 5.7.2 12.2.45-.55-1.5-1.2-3.25-1.41015625-4.1921875-1.75-7.25-.22988281-.05-.45-.05-.4 0-1 .8-.3.4-.55.8 0 1.1.5 1.6v1.8q-.7.25-1.3.25-.35 0-1.6-1.55-1.3-1.6-1.3-2.25.5-2.9.5-3.5 0-1.4-1.05-2.4-1.1-1.05-2.75-1.05-.6 0-1.15.5-.5.45-1.05.3-.5-1.2-1.05-1.3z" fill="url(#Gradient_3)"/>
            <path d="m426.8 216.15q4.65 0 14.85.3 1.3-3.55 2.85-6.15-2.15 0-4.25.1-43.75.8-58.4 1.25-20.35.55-39.15 1.25-6.2-20.15-16-53.1-8.3-28.3-17.1-58.6-.35-1.15-.65-2.25-.1-.55-.25-1.05-.15-.2-.15-.4-.5-1.6-.9-3.25-1.41699219.07089844-2.8.15-1.56972656.07089844-3.1.15-.1 0-.2 0-2.38261719.10761719-4.75.2-.17597656.03457031-.35.05-.02050781.41152344-.2.95-.25.6-.25 1-2.1 0-4.2 1.05-2.05 1-3.15 1-.5 0-1.4-.85-1.05-1-1.9-2.4-2.35 2.45-3.5 2.45-.5 0-1.2-.4-.75-.45-1.25-.45-1.65 0-4.55 1.45-2.95 1.45-3.25 1.45-.65 0-.85-.25-.15-.15-.15-.6-.75 1.95-2 2.35-.45.15-2.95.15-2.6 0-4.15-1.65-1.6-1.65-2.2-1.65-2.1 0-3.25 1.45-1.15 1.4-3.3 1.4-.15 0-1-.6-.8-.6-1.45-.6-1.95.8-5.15.8.25.45.6.85.25.4.25 1-1.6 2.25-1.85 2.25-.4 0-1.9-.4-1.5-.4-2.4-.4 0-.35.2-1.5.2-1.1.2-1.8-.2-.3-.3-.35-.1-.05-.75-.05-1.2 0-2.4 1.85-1.2 1.85-2.7 1.85-.15 0-4.75-1.65-1.6 0-2.3.85-.6 1.1-1.15 1.6-.35 0-1.35.2-.95546875.19101563-1.5.2-.00820312.64355469-.45.3-.45-.35-3.25-3.15h-1.65q-.75.55-1.15.95-.75.75-.9 1.9-.2 0-1.45-.6-1.2-.6-2.05-.6-.85 0-2.3.9-1.65 1-1.15 1.95-.4 0-.75-.4-.4-.4-.9-.4-1.4 0-4.5 1.65-3.3 1.8-3.3 3.05 0 1.85 3.3 2.65-.25.9-2.9 3.05-2.45 1.95-2.45 3.7 0 1.2.1 1.35.1.15 1.15.1 0 .45-.45.45.4.7 1.6 1.65.9.7.9 1.4 0 3.4-3.7 3.15-1.95-.15-2.55.1-1.15.45-1.15 2.25 0 1.65.9 2.2.4.3 2 .6 2.85.6 2.85 4.4 0 1.9-.9 2.15-1.7.1-3.2.55 0 .4-.4.4.2.4 3.1 5.3 2.2 3.75 2.2 4.5 0 2.3-8 5.15-8 2.8-8 5.55 0 .50742187.15.8h-2.6q-.4.3-.55.5-.25.3-.25.95 0 3 4.1 5.75 4.1 2.7 4.1 5.5 0 2.15-2.85 4.55-2.9 2.4-2.9 4.25 0 .85 1.45 2.9 1.4 2 1.4 3.9 0 2.5-2.85 5.35-2.85 2.85-5.35 2.85-2.2 0-3.5-2.75-1-2.15-1-4.65-2.2 1.3-2.65 2.45-.2.55-.2 3.1 0 2.55.2 3 .35.8 2.25 1.3-.8 0-.8 1.45 0 .85 1.65 2 1.6 1.15 1.6 3.1 0 2.3-1.7 3.25-1.35.7-4.45.85.2.25 3 2.35 1.1.85 1.1 3.2 0 1.25-1.4 2.5-1.45 1.25-1.45 2 0 .4.15.5 1 .5 1.05.55-.45 1.65-1.35 1.95-.35.1-2.75.1-2.25 0-3.65-1.25-1.25-1.1-1.25-2.45 0-.5.4-.9.4-.45.4-.95 0-.365625-.85-1-.78945313 4.66328125-1.35 8.95-16.55 2.3-31.6 5-4.8 4.05-10.9 9.4 6.25-1.35 21.8-4.65 16.2-3.2 27.65-4.8 8.95-1.35 15.05-1.6 11.75-.55 27.15-2.65 4.55-.7 9.5-1.5l-1.1-6q-.05-.45-.2-.95-2.65-13.35-5.3-26.7-2.65-13.85-4.5-27.8-1.45-10.9-1.95-21.85-.35-6.85.4-13.7 1.35-12.8 16.95-17.25 16.2-4.85 33.15-7.5 8.6-1.55 17.2-2.45 14.45-1.45 29-2.9h.05l.65 2.3q10.9 33.15 21 67.2 7.7 25.85 13.2 43.95-.2 0-.35.05l-.4 7.85q2.15-.25 4.1-.45 21.55-2.25 39.35-3.2 20-1.15 45.95-1.15m-306.15 53.95q0 .83222656.1 1.75 1.15488281.40722656 2.65 2.65.13398438-.0609375.25-.15 0-.61054687 0-1.25 0-.2 0-.35.05-2.9 1.05-4.8.45-1.15 1.3-1.9 1.2-1.1 3.3-2.15 3.05-1.5 8.1-2.75.55-.2 1.25-.35 2.65-.55 7.9-1.45 7.55-1.35 12.65-1.75.05 0 .2 0 3.05-.65 6.15-.4 1.65-.1 3.7-.25 8.85-.45 11.55-.45 2 0 3.8.05 1.3.05 2.4.2 5.1.45 8.3 1.7 1.1.4 2.05.95 1.8 1.05 3 2.65 1.8 2.55 2 6.45v.15q0 .35 0 .7 0 .05-.05.55-.35 1.75-1.9 9.1-.4 2-.7 3.6-.15.35-.2.8h.75q.8-2.4 1.6-4.4 0-.25.1-.35.75-2.4 1.4-4.4 1.55-5.75 1.55-9.1 0-3.5-1.5-5.65-.15-.2-.25-.35-1.55-1.95-4.7-3-5.75-1.95-23-1.95-1.1 0-2.15 0-7.4.05-15.1.55-2.45.05-4.8.25-12.6.9-19.35 2.4-2.65.55-4.75 1.3-4.4 1.55-6.35 3.7-1.05 1.15-1.6 2.8-.7 2.05-.7 4.9m214.45-49.05.5-7.9q-23.65.95-44.75 2.1-29.05 1.7-55.45 3.95-7.7.6-15.15 1.4l.95 5.75q1.3-.1 2.55-.4 11.45-1.95 16.4-2.6 8.65-1.1 15.6-1.1 2.85 0 7.65 1.35 4.7 1.25 5.9 1.25 1.8 0 7.9-1.9 6-1.8 8.5-1.8 2.3 0 4 2.2.9 1.2 1.3 1.55.8.55 1.85.55.05 0 3.2-1.4 3.65-1.45 5.1-1.45 2.3 0 5.8-.15.4 0 5.35-.2 9.8-.4 13.2-.65 5.25-.2 9.6-.55m116.1-4.3q.7-3.6 1.35-6.65-3.25.15-6.3.15-.3.5-.5.95-1.45 2.65-2.8 5.3 3.1.1 6.55.25.85 0 1.7 0z" fill="#c00000"/>
            <path d="m337.4 220.95.4-7.85q-1.1 0-2.2.05l-.5 7.9-.35 4.35-.2 3.65-2.3 36.85-1.05 16.8q1.3-.1 2.65-.1l.6-10.2 2.55-43.6.1-3.55zm-130.45-91.25q-.75 6.85-.4 13.7.5 10.95 1.95 21.85 1.85 13.95 4.5 27.8 2.65 13.35 5.3 26.7.15.5.2.95l1.1 6 1.4 8.15.65 3.7 7.95 45.1q1.2 0 2.4 0l-1.05-5.55-7.5-39.8q-.15.1-.25.1-.25-.9-.35-1.7-.25-1.05-.35-1.95.2 0 .35 0l-1.65-8.4-.95-5.75q7.45-.8 15.15-1.4-1.95-10.5-4-20.85-2.65-14.6-4.45-29.25-1.4-11.55-1.9-23.05-.35-7.3.45-14.4 1.3-13.4 16.9-18.25 16.2-4.95 33.15-7.9 8.6-1.45 17.2-2.5 5.65-.55 11.2-1.1l-.65-2.3h-.05q-14.55 1.45-29 2.9-8.6.9-17.2 2.45-16.95 2.65-33.15 7.5-15.6 4.45-16.95 17.25m-24 142.7q.49492188 2.425.5 4.85v.05q-.09726562.87519531-.15 1.75v.05q.9 0 1.9 0 4.45-.05 8.5-.05-.4-3.3-2.4-5.1-1.1-.85-5.1-1.35-.95-.1-3.25-.2m-45.35 5.95q.55-1.95 1.45-3.9.3-.7.7-1.4-8.45 1.3-8.45 4.45 0 .2.1.55 2.1.1 6.2.3m217.9-2.15q.15-.45.25-.8 4.3-9.55 13.45-14.25 9.05-4.8 17.75-2.1 8.65 2.65 11.85 11.35.9 2.5 1.2 5.1 2.85-.1 5.3-.1-.3-10.2-2.8-15.4-4.1-8.6-15.3-8.6-6.85 0-15.2 3.2-8.1 3.05-15.4 8.15-7.45 5.35-11.8 11.35-.85 1.05-1.55 2.2 5.75-.05 12.25-.1m90.25-65q.2-.45.5-.95-.85 0-1.75.05-1.55 2.6-2.85 6.15-.95 2.45-1.7 5.3-2.35 7.7-2.35 10.65 0 .1 0 .2.6 0 1.25-.1 0-1.15 1.4-6.9 1.5-6.3 2.45-8.3.2-.35.25-.8 1.35-2.65 2.8-5.3z" fill="#600"/>
            <path d="m441.65 216.45q-10.2-.3-14.85-.3-25.95 0-45.95 1.15-17.8.95-39.35 3.2-1.95.2-4.1.45l-.3 4.3q.95-.15 1.85-.2l7.45-.5q10.4-.75 21.55-1.45 18.3-1.2 38.45-2.25 5.7-.25 15.2-.7-.1.5-.15 1.2-.1.35-.15.75-.15.8-.3 1.6-9.05.45-14.6.8-20.15 1.05-38.45 2.2-10.65.65-20.5 1.35l-7.65.55q-1.4.1-2.75.2h-.05l-2.55 43.6q.12910156-.05.25-.05.6 0 .8.25l.1-1.35q.05-1.05.4-1.5.95.55.95 1.55.05.5-.15 1.3h1.05q1.4-.2 1.9-1.4.65-1.65 1-1.95.1.15.3.6.3.4.6.4 2.2-.85 2.2-1.7 0-1-1.4-2-1.45-.95-1.45-1.7.15-1 .5-1.95.75-1.85 2.05-1.85.85 0 4.75 1.05-.35-1.4-.25-2 .2-1.1 2.1-1.1.5 0 1.35.15.9.15 1.25.35v-.25q-.05-.6.65-2.35.75-1.8 1.2-2.15.25.45.9 1.05.6.55.7.55.55 0 1.8-1.3 1.35-1.3 1.35-2.05 0-.4-.15-.55l-.15-.05q-1.1-.2-1.55-.4-1-.45-1-1.3 0-.8.75-2.5.85-1.8 1.45-1.8.85 0 2.6 1.75 1.24824219 1.21445313 1.95 1.65v.8q2.15 2.15 2.65 2.4.3-.5 1.5-1.75 1.1-1.3 1.1-2.5 4.5 1 4.5-1.55 0-1.4-1.05-1.85-1.1-.5-1.1-1.55 0-.7.85-2.1 1-1.85 2.3-1.85.6 0 1.6 1.3 1.05 1.35 1.05 2.25 0 .3-.25 1.3-.3 1-.3 1.3 0 1.9.55 3.25.65 0 6-.75-.15-2.25 2.75-2.1 3 .2 3-2 0-.7-1.15-3.15l-1.2-2.3q0-.4.8-1.15 1.15-1.05 2.9-1.05 5.75 0 5.95 5.9.1 3.1.25 3.6.55 1.4 2.7.65 0 3.7.25 4.75 1.4-.15 3.75 1.35 2.1 1.4 3.1 2.8l.75-.75q.3.95 1.4 1.85 1.15.95 2 1-.15.35-1.25 1.65-.85 1.05-.85 1.9 0 1.7 1.35 1.7.75 0 1.45-1.05.7-1.05 1.55-1.05 1.25 0 1.7.55.55.7.55 3 0 3.85-2.5 6.4-2.5 2.6-2.5 2.65 0 .7.5 1.15.25.25.85.7-.75.65-1.15 1.05-.75.65-.75 1 0 .6.65 1.1.65.5 1.25.5.05.5-.1.8-.17910156.2984375-.35.6.65605469-.02070312 1.3-.05 1.25 0 2.6-.05 4.25-.15 8.55-.2 1.9-.1 3.95-.15 1.4-.05 2.85-.15 3.05-.05 6.4-.15 1.2-1.85 2.9-4.85 2.8-5.25 4.55-8.5 1.5-2.55-.45-4.25-2.35-1.75-12.7 1.2-.45 0-1.1.15.55-1.85 1.15-3.5 4.7-13.85 7.3-27.45 0-.1 0-.2 0-2.95 2.35-10.65.75-2.85 1.7-5.3m-5.55 2.95q-.05.7-.15 1.45-.1 1-.2 2.25-4.3.15-8.1.25v-3.55q4-.2 8.45-.4m-277.8 23.3q-11.5 1.05-26.1 2.7.65-.35 1.15-.8 23.95-3.85 33.3-5.1 9.45-1.25 28.45-2.7 10.85-.9 17.05-1.35 4.6-.35 6.65-.4l2.2-.2-1.4-8.15q-4.95.8-9.5 1.5-15.4 2.1-27.15 2.65-6.1.25-15.05 1.6-11.45 1.6-27.65 4.8-15.55 3.3-21.8 4.65-.95.9-1.95 1.75-.5.4-1.1.9-.45.35-.7.75-1.6 1.35-3 2.6-4 3.35-7.05 6-1.75 1.6-3.35 2.85.59453125 1.49941406 1.3 3.2.76855469-.45 2.35-.45 1.25 0 2.8 1.1 1.8 1.25 1.8 2.85 0 .45-1.05 2.35.55.1 1.05 1.3.55.15 1.05-.3.55-.5 1.15-.5 1.65 0 2.75 1.05 1.05 1 1.05 2.4 0 .6-.5 3.5 0 .65 1.3 2.25 1.25 1.55 1.6 1.55.6 0 1.3-.25v-1.8q-.5-.5-.5-1.6.25-.4.55-.8.6-.8 1-.8.22011719 0 .45.05-.1-.91777344-.1-1.75 0-2.85.7-4.9.55-1.65 1.6-2.8 1.95-2.15 6.35-3.7 2.1-.75 4.75-1.3 6.75-1.5 19.35-2.4 2.35-.2 4.8-.25 7.7-.5 15.1-.55 1.05 0 2.15 0 17.25 0 23 1.95 3.15 1.05 4.7 3 .1.15.25.35 1.5 2.15 1.5 5.65 0 3.35-1.55 9.1-.65 2-1.4 4.4-.1.1-.1.35-.8 2-1.6 4.4l.45-.05q.18652344-.39746094.4-.95.7-1.8 1.75-2.25.45 1.1.6 1.75.05.1.95.1.35 0 1.9-.1 1.18652344 0 2.05.5.01230469-.66230469.25-.9h1.05q.4.4 1.25 1.1.6.45.6.6 0 .06464844 0 .1 9.11289063.2109375 18.1.35l-7.95-45.1-2.3.05q-3.25.15-6.25.35-1.6.05-3.1.2-18.6 1.05-27.75 1.6-6.85.45-8.4.55-6.85.5-15.55 1.4m168 28.55q1.1-.9 2.35-1.75 0-.15-.65-1.45-.65-1.35-.65-2 0-1.1.5-1.55.55-.5 1.85-.5.85 0 1.5.55.37265625.32617188 1.05 1.35l2.3-36.85q-14.35 1.1-27.25 2.2-6.65.65-12.95 1.25-7.8.8-15 1.65-4.2.45-9.2.95-5 .45-10.9.9-4.05.2-8.5.65-3.95.25-8.3.55-8.7.55-18.85 1.1h-.15l7.5 39.8q.13925781-.18554687.3-.4 1.05-1.45 1.85-1.45.65 0 1.5.85.75.75.75 1.3 0 .4 0 1.35.35.75 2.35.75.8 0 1.55-.5.8-.5.8-.95 0-.8-1-1.55-1.05-.7-1.05-2 0-1 1.15-1 .8 0 2 .5.93613281.41191406 1.3.75.178125-.25.8-.25.25 0 1.25 1.1 1.05 1.1 1.05 1.5 0 .4-.8 1.9 1.1.5 2.65.5 3.2 0 3.5-2.75.3-2.75 2.4-2.75 1.3 0 1.6 1.65l.6 3.1h1.35q.35-.1 4.65-.55 2.25-.25 1.9-1.6-.2 0-.25-.15l-.05-.15q1.6 1.05 2.15 1.05 1 0 1.7-3.65.7-3.65 1.85-3.65 1.55 0 3.65 1.45 2.4 1.65 2.45 3.5.45-.2 1.25-1.35 1-1 2.45-1 .35 0 1.25.25.95.25 1.25.25 1.7-2.8 3.45-5.6 3.5-5.65 4-5.65.05 0 2.05 1.05 2.05 1.05 2.4 1.05 3.4 0 3.4-4.35 0-.3-.25-1.4-.25-1.1-.25-1.45 0-1.65 1.8-3.25 2-1.8 4.35-1.8 3.15 0 4.55 2.6 1.25 2.3.3 4.15.75-.75 1.35-.75 1.75 0 2.2 2.6.1.7.1 4.15 2.45 1.45 3.85 3.5.7 1.05 1.05 1.75.35 0 .7-.25.35-.25.45-.25-1.1 1.85.4 4.15 1.4 2.15 3.15 2.15.5 0 1.85-1.2 1.35-1.2 1.95-1.2.45 0 .55.05.05.05.25.3-.65-1.45 1.55-3.25m-166.9-13.65q-.15 0-.2 0-5.1.4-12.65 1.75-5.25.9-7.9 1.45-.7.15-1.25.35-5.05 1.25-8.1 2.75-2.1 1.05-3.3 2.15-.85.75-1.3 1.9-1 1.9-1.05 4.8 0 .15 0 .35 0 .63945313 0 1.25.49492188-.14863281 1.1-.3.5-.2.5-.8-.25-.8-.25-1.45.05-1.3 1.45-1.3.55 0 1.9 1.15.240625.20371094.45.4.67558594-.8 1.3-.8.75 0 .95.1.35.15.5.95.5-2.5 1.25-2.95.3-.2 2.25-.2 1.65 0 1.8.15.15.15.7 2.2 2.9-.9 2.65-3.95-.25-2.55 3.35-2.55.8 0 1.7.4.9.4 1.25.85 0-.8.6-1.4.6-.7 1.6-.7 1.1 0 1.8 2 .65 1.95 3.7 1.95.6 0 1.45-.25-.45-1.4 0-1.85.6-.05 1.6.35 1.05.45 1.4.45 1.15 0 2.35-1.15 1.15-1.35 1.5-1.75-.7-.2-.8-.3-.05-.1-.05-1 0-.9.8-1.85.9-1 2-1 .3 0 3.65 2.1 3.55 2.2 3.55 2.9 0 .3-.8 1.25 1.4 1.4 1.65 1.55.45.3 1.75.3 4.05 0 4.9-2.9.3-1.45.6-2 .4-.9 1.55-.9 2.45 0 4.75 4.85 2.35 4.85 2.65 4.85.65 0 1.95-1.55 1.35-1.6 2.25-1.6 1.9 0 3.1 2.15 1.05 1.8 1.05 3.8 0 1.9-.5 3.25-.6 1.8-.8 3.2h-.5q0-.25-.5-.25-.22988281.68945313-.25 2.7l5-.05q.05-.45.2-.8.3-1.6.7-3.6 1.55-7.35 1.9-9.1.05-.5.05-.55 0-.35 0-.7v-.15q-.2-3.9-2-6.45-1.2-1.6-3-2.65-.95-.55-2.05-.95-3.2-1.25-8.3-1.7-1.1-.15-2.4-.2-1.8-.05-3.8-.05-2.7 0-11.55.45-2.05.15-3.7.25-3.1-.25-6.15.4m49.45 25.2q-.23457031-.21113281-.5-.4 0 .06308594 0 .1zm33.8-6.8q-.06269531-.11289062-.2-.25-.05.11582031-.05.25zm92.45-54.95q-4.35.35-9.6.55-3.4.25-13.2.65-4.95.2-5.35.2-3.5.15-5.8.15-1.45 0-5.1 1.45-3.15 1.4-3.2 1.4-1.05 0-1.85-.55-.4-.35-1.3-1.55-1.7-2.2-4-2.2-2.5 0-8.5 1.8-6.1 1.9-7.9 1.9-1.2 0-5.9-1.25-4.8-1.35-7.65-1.35-6.95 0-15.6 1.1-4.95.65-16.4 2.6-1.25.3-2.55.4l1.65 8.4q.4 0 .75-.05.3 0 .55 0l3.15-.15q8.05-.55 15.15-1 23.35-1.5 36.9-3 13-1.5 27.95-2.85 13-1.25 27.45-2.3zm116.1-4.3q-.85 0-1.7 0-3.45-.15-6.55-.25-.05.45-.25.8-.95 2-2.45 8.3-1.4 5.75-1.4 6.9 4.3-.35 9.3-.75.8-3.65 1.65-7.8.15-.8.2-1.55.2-.9.45-1.8.2-.95.35-1.85.1-1.1.4-2z" fill="#900"/>
            <path d="m435.95 220.85q.1-.75.15-1.45-4.45.2-8.45.4v3.55q3.8-.1 8.1-.25.1-1.25.2-2.25z" fill="#f90"/>
            <path d="m132.2 245.4q14.6-1.65 26.1-2.7 8.7-.9 15.55-1.4 1.55-.1 8.4-.55 9.15-.55 27.75-1.6 1.5-.15 3.1-.2 3-.2 6.25-.35l2.3-.05-.65-3.7-2.2.2q-2.05.05-6.65.4-6.2.45-17.05 1.35-19 1.45-28.45 2.7-9.35 1.25-33.3 5.1-.5.45-1.15.8m202.35-16.35.2-3.65q-14.45 1.05-27.45 2.3-14.95 1.35-27.95 2.85-13.55 1.5-36.9 3-7.1.45-15.15 1l-3.15.15q-.25 0-.55 0-.35.05-.75.05-.15 0-.35 0 .1.9.35 1.95.1.8.35 1.7.1 0 .25-.1h.15q10.15-.55 18.85-1.1 4.35-.3 8.3-.55 4.45-.45 8.5-.65 5.9-.45 10.9-.9 5-.5 9.2-.95 7.2-.85 15-1.65 6.3-.6 12.95-1.25 12.9-1.1 27.25-2.2m86.9-7.7q.05-.7.15-1.2-9.5.45-15.2.7-20.15 1.05-38.45 2.25-11.15.7-21.55 1.45l-7.45.5q-.9.05-1.85.2l-.1 3.55h.05q1.35-.1 2.75-.2l7.65-.55q9.85-.7 20.5-1.35 18.3-1.15 38.45-2.2 5.55-.35 14.6-.8.15-.8.3-1.6.05-.4.15-.75m-270.15 55.2q-.4.7-.75 1.45-.15.35-.3.65-.11992187.32578125-.25.65 0 .1125-.05.2-.64355469 2.37734375-.35 4.6-.0265625.17714844-.05.35.06523438.46191406.15.9.13203125.35488281.35.7 1.5 3.9 5.55 5.15 3.54921875 1.03339844 7.25-.55.30410156-.14492187.6-.3 4.1-2.15 6-6.5.65-1.3.9-2.65.04179688-.17539062.05-.35.2-.88378906.2-1.8v-.05q-.0078125-1.57421875-.5-3.1-.85 0-1.7-.05.15.35.3.7.5 1.4.5 2.85 0 .35 0 .75-.15 1.75-1 3.45-1.6 3.75-5.15 5.65-3.7 1.9-7 .75-3.45-.95-4.75-4.4-.4-1.25-.5-2.65 0-1.9.7-3.9.15-.2.3-.55.45-1.2 1.25-2.2-.9.1-1.75.25m222-4.05q-2.5 1.3-4.1 3.45-1.2 1.35-1.85 3.05-.45 1.05-.75 2.05-.9 3.15.15 6.05 1.55 3.9 5.35 5.15 3.95 1.25 8.1-1 4.15-2.05 6.05-6.4 1.05-2.5 1.05-4.8-.1-1.7-.65-3.3-.15-.55-.4-1.05-1.5-3-4.9-4.15-3.9-1.15-8.05.95m-3.2 4.25q1.45-1.9 3.65-3 3.6-1.85 6.95-.8 3 .95 4.25 3.6.3.4.35.9.65 1.55.65 3.25-.05 1.9-1 3.8-1.6 3.7-5.2 5.6-3.65 1.95-7.05.8-3.3-1.1-4.7-4.45-.75-2.15-.3-4.45.25-1.3.95-2.6.45-1.45 1.45-2.65z" fill="#ccc"/>
            <path d="m123.65 274.35q-.11601562.0890625-.25.15-1.49511719-2.24277344-2.65-2.65.33984375 3.0578125 1.75 7.25.65 1.75 1.2 3.25.15 0 .3 0 .7 0 1.4.05-.15-.35-.3-.7-1.23183594-3.69550781-1.45-7.35z" fill="#933"/>
            <path d="m170 275.75q0 .1.1.15 4.75.05 8.3.5 3 .2 4.2.55.35.15.85.3-.00507812-2.425-.5-4.85-1.35-.05-3-.05-8.8-.15-12.4-.15 1.65 1.4 2.45 3.55m-14.15-3.75q-4.15 0-7.9.2-4.85.3-8.2.85-.4.7-.7 1.4-.9 1.95-1.45 3.9-.13886719.37050781-.2.8 2.76621094-1.05996094 9.05-2 2.35-.4 4.85-.65l-.05.05h.05q1.6-2.8 4.55-4.55z"/>
            <path d="m151.3 276.55q.85-.15 1.75-.25 5-.55 8.95-.55 3.4 0 6.4.1.85.05 1.7.05-.1-.05-.1-.15-.8-2.15-2.45-3.55-.6 0-1.1 0-5.6-.2-10.6-.2-2.95 1.75-4.55 4.55z" fill="#333"/>
            <path d="m137.4 279.15q-.02128906.03847656-.05.05-1.7 6.85.55 13.25 3.05 8.55 12.25 11.25 9 2.75 17.75-2.1 8.8-4.65 12.95-14.15 1.95-4.4 2.45-8.4.05273438-.87480469.15-1.75v-.05q-.5-.15-.85-.3-1.2-.35-4.2-.55-3.55-.45-8.3-.5.4921875 1.52578125.5 3.1v.05q0 .91621094-.2 1.8.01328125.14765625 0 .3-.25 1.25-.9 2.65-1.8 4.25-5.8 6.45-.42109375.21308594-.85.4-3.70078125 1.58339844-7.25.55-4.05-1.25-5.55-5.15-.21796875-.34511719-.35-.7-.08476562-.43808594-.15-.9.0234375-.17285156.05-.35-.29355469-2.22265625.35-4.6.05-.0875.05-.2.12695313-.34960937.25-.7.15-.4.25-.65.38359375-.7671875.75-1.4l.05-.05q-2.5.25-4.85.65-6.28378906.94003906-9.05 2z" fill="url(#Gradient_4)"/>
            <path d="m151.3 285.6q1.3 3.45 4.75 4.4 3.3 1.15 7-.75 3.55-1.9 5.15-5.65.85-1.7 1-3.45-4 2.65-7.1 3.7-4.6 1.55-11.3-.9.1 1.4.5 2.65m-50.85-9.15q-.65-.2-1.4-.75.15 1.55.35 3.2.15 1.55.35 3h11.75q1.6-4.2.6-7.6-.15-.05-.2-.15-.85-.55-1.9-.55-1.3 0-3.95 1.45-2.7 1.5-4.55 1.5-.8 0-1.05-.1m269 7.3q-1.05-.85-1.75-1.75-.45 2.3.3 4.45 1.4 3.35 4.7 4.45 3.4 1.15 7.05-.8 3.6-1.9 5.2-5.6.95-1.9 1-3.8-.85.6-1.65 1.15-5.7 3.7-8.7 3.7-3.6 0-6.15-1.8z" fill="#666"/>
            <path d="m151.5 279.05q-.7 2-.7 3.9 6.7 2.45 11.3.9 3.1-1.05 7.1-3.7 0-.4 0-.75 0-1.45-.5-2.85-.15-.35-.3-.7-3-.1-6.4-.1-3.95 0-8.95.55-.8 1-1.25 2.2-.15.35-.3.55z" fill="url(#Gradient_5)"/>
            <path d="m105.55 267.05q-.15-.1-.45-.15-4.05-2.15-4.75-2.15-.8 0-1.4 1.45-.4 1.1-.4 1.9 0 3.25.5 7.6.75.55 1.4.75.25.1 1.05.1 1.85 0 4.55-1.5 2.65-1.45 3.95-1.45 1.05 0 1.9.55.05.1.2.15-1.25-4.25-6.55-7.25z" fill="url(#Gradient_6)"/>
            <path d="m114.7 245.3q-4.6-2.15-7.2-3.35-1.45 2.95-3.3 6-1.2 1.9-2.15 3.65 1.1.95 2.6 2.3 3.05-2.65 7.05-6 1.4-1.25 3-2.6z" fill="#c00"/>
            <path d="m355.75 275.4q-.1.35-.25.8-3.85 9-.75 17.3 3.1 8.55 11.85 11.25 8.6 2.75 17.8-2 9.1-4.75 13.3-14.35 3-6.7 2.3-12.9-.3-2.6-1.2-5.1-3.2-8.7-11.85-11.35-8.7-2.7-17.75 2.1-9.15 4.7-13.45 14.25m13.45.55q1.6-2.15 4.1-3.45 4.15-2.1 8.05-.95 3.4 1.15 4.9 4.15.25.5.4 1.05.55 1.6.65 3.3 0 2.3-1.05 4.8-1.9 4.35-6.05 6.4-4.15 2.25-8.1 1-3.8-1.25-5.35-5.15-1.05-2.9-.15-6.05.3-1 .75-2.05.65-1.7 1.85-3.05z" fill="url(#Gradient_7)"/>
            <path d="m373.75 273.75q-2.2 1.1-3.65 3-1 1.2-1.45 2.65-.7 1.3-.95 2.6.7.9 1.75 1.75 2.55 1.8 6.15 1.8 3 0 8.7-3.7.8-.55 1.65-1.15 0-1.7-.65-3.25-.05-.5-.35-.9-1.25-2.65-4.25-3.6-3.35-1.05-6.95.8z" fill="url(#Gradient_8)"/>
        </g>
    </g>
    <g>
        <g id="Layer2_0_FILL">
            <path d="m442.35 268.5q-4.7.05-10.35 2.7-5.75 2.75-7.95 2.75-2.05 0-2.75-.55-.4-.45-1.45-2.2-.1.3-.1.6-.05.05-.05.2-.55 7.7 7 8.1 1.4-.05 2.85-.15 3.05-.05 6.4-.15 1.2-1.85 2.9-4.85 1.95-3.75 3.5-6.45z" fill="#666"/>
            <path d="m442.95 262.2q-2.35-1.75-12.7 1.2-.45 0-1.1.15-8.35 3-9.3 7.55 0 .05 0 .1 1.05 1.75 1.45 2.2.7.55 2.75.55 2.2 0 7.95-2.75 5.65-2.65 10.35-2.7.55-1.1 1.05-2.05 1.15-1.95.35-3.35-.3-.45-.8-.9z" fill="url(#Gradient_6)"/>
        </g>
    </g>
</svg>
