<svg height="400" preserveAspectRatio="none" viewBox="0 0 550 400" width="550" xmlns="http://www.w3.org/2000/svg">
    <g transform="matrix(.59083557 0 0 .59083557 65.8 0)">
        <g>
            <g id="S_mbolo_27_0_Layer0_0_FILL">
                <path d="m40.95 276.55 117.25 106 126.7-158.85-63.2 16.15 38.8-187.05-260.5-52.8 90.35 261.1zm116.35 95.2-101.8-92.05 44.3-13.8-88.6-256.05 240.55 48.75-39.7 191.3 53.35-13.65zm-91.7-89.85 91.05 82.4 95.15-119.3-46.45 11.9 40.35-194.35-226.75-45.9 87.4 252.5zm102.75-228.1q1.3 2.75 1.9 5.65.4 2.95.5 5.95.1 2.9.2 5.65 0 2.9 0 5.8.05 4.05.05 8.3 0 4.2-.05 8.3 0 2.95-.1 5.65-.2 2.8-.3 5.6-.05 2.7-.05 5.3 0 2.6 0 5.2 0 1.85 0 3.7.05 1.85.15 3.75 0 1.35 0 2.85.1 1.45.1 3 .1 1.3 0 2.75 0 1.35 0 2.8.2-.3.35-.55.2-.25.45-.65.6-.5 1.1-1.05.5-.55 1.15-.95.8-.65 1.65 0 .45.3.3.6 0 .35-.2.85-.55 1.85-1.55 3.55-.9 1.7-2 3.4-1.15 1.8-2.65 2.5-1.6.8-2.8.95-1.5.1-3.05-.3-.8-1.1-1.4-2.3-.5-1.2-.85-2.6-.7-3.55-1-7.05-.3-3.5-.35-7.1-.2-3.3-.25-6.4-.2-3.25-.2-6.6 0-4.45.05-8.95 0-4.5.15-9.1.05-4.15 0-8.3 0-4.25.05-8.45.05-3.6.25-7.1.2-3.6.3-7.2.1-1.85.3-3.55.15-1.65.8-3.3.45-1.15 1.15-2.35.35-.45.8-.65.45-.2.95-.2 1.35-.05 2.35.65 1.05.75 1.75 1.95m16.8 40.5q1.45-3.45 3.9-6.5 1.55-1.75 3.25-3.15 1.8-1.45 3.8-2.55 1.85-1 3.7-1.5 1.85-.6 3.8-.7 2.2-.15 4.3.25 2.1.3 4.15 1.75.5.4.95.7.55.35 1.05.65 1.9 1.2 3.3 2.85 1.4 1.7 2.55 3.75 1.15 1.95 1.45 4.05.35 2.3-.1 4.65-1.55 7.55-7.2 12.85-1.55 1.65-3.3 3.2-1.7 1.5-3.6 2.8-2.65 1.7-5.65 2.85-2.85 1.05-6.15 1.15l-.55.15q.45 2.6 1.3 4.95.85 2.35 2.55 4.35 1.35 1.5 3.05 2.25 1.8.85 3.85.95.9.1 1.55-.35.6-.4 1.25-.9 1.4-1.15 2.6-2.6 1.15-1.45 2.15-3.05 1.35-2.15 2.5-4.3 1.2-2.15 2.1-4.5.5-1.15 1.15-1.85.6-.75 1.9-.95.7 0 1.25.35.45.3.7.7.2.6-.2 1.5-1.15 2.6-2.4 5.1-1.15 2.4-2.55 4.9-1.2 2.4-2.8 4.55-1.5 2.25-3.3 4.2-2.65 3.25-6.05 4.8-3.35 1.6-7.75 1.1-4.65-.45-7.8-2.85-3.3-2.35-5.35-6.4-1.45-3-2.35-5.9-.8-3.05-1.05-6.3-.4-2.5-.35-4.95 0-2.4.15-4.95.2-2.6.5-5.05.5-2.55 1.2-5.1 1.1-3.55 2.55-6.95m-.7 71.25q.15 4.8.1 5.9 1 .1 1.95.2 1.1.1 2.2.25 8.25.85 15 1.65-3 25.75-.3 49.25-10.9-.65-19.6-1.55-6.95-.75-14.55-1.7-6.15-18.05-9.15-38.35l-.15-1.15-1.2.15q-6.65.95-14.85 2.25-.15.05-.25.05 1.3-6.65 2.4-13.6.15-1.45.4-2.85 4.55.85 10.25 1.8 1.45.2 3.05.5.5.05 1 .15.2-.6 1.05-2.75 1.45-3.8 2.75-5.75 2.85-4 4.95-3.15.6.25 1.15.85.3-.4.55-.75.8-1.1 1.8-1.95 2.15-1.9 4.25-1.9 2.4 0 4.65 2.5 2.3 2.45 2.55 9.95m-101.5-104.9q.95.1 1.9.25.95.15 1.95.45 2.3.6 4.25 1.75 2.05 1.25 3.7 2.95.75.65 1.25 1.35.45.7 1.1 1.45.45.45.9.95.5.55.8 1 .7.95 1.35 2 .75.95 1.25 2 .45.75.4 1.2-.15.55-.7.95-1.3 1.1-2.55.35-.8-.6-1.55-1.1-.75-.65-1.5-1.25-1.25-1.1-2.7-1.85-1.4-.7-2.95-.95-2.55-.4-4.85.05-2.3.45-4.35 2.1-2.9 2.25-2 5.15.3.95 1.05 1.6.7.6 1.55 1.05 1.45.9 2.85 1.6 1.45.75 2.85 1.65 4.25 2.45 7.45 6.15 1.3 1.45 2.3 2.9 1.2 1.4 2.1 2.95 1.1 1.95 2.15 3.85 1.1 1.95 1.6 4.15.65 1.9 1.2 3.65.65 1.9.75 3.85.75 6.05-.35 11.75-.6 3.25-1.9 5.9-1.35 2.75-3.4 5.35-.25.5-.85 1.05-2.45 2-5.1 3.3-2.6 1.45-5.75 2.2-4.2.85-7.9 0-3.65-1-6.95-3.6-.85-.8-1.8-1.65-.8-.8-1.55-1.7-1.3-1.4-1.85-3.1-.75-1.65-1.4-3.4-1.15-3-1.2-6.25 0-1.3.1-2.65.2-1.35.25-2.65 0-.2.35-.6.3-.6.85-.9.65-.25 1.15-.35.65-.15 1.3 0 .45.2.55.55.15.25.15.85 0 1.5 0 3.05 0 1.5 0 3.1.1 2.6 1 4.8.95 2.3 2.55 4.4 1 1.3 2.85 1.85 3.35 1.2 6.5.55 3.05-.65 6.05-2.55.65-.5 1.25-1 .5-.5 1.1-1.1 1.4-1.4 1.95-3.3.5-1.75.65-3.75.2-3.4-.3-6.7-.45-3.25-1.75-6.4-.7-1.95-1.55-3.8-.9-2.05-2.35-3.65-.7-.85-1.55-1.55-.75-.85-1.6-1.6-1.95-1.65-4.05-3.1-2-1.55-4.35-2.75-1.65-.7-3.25-1.65-1.65-.95-3-2.25-1.3-1.35-2.6-2.85-1.15-1.55-1.95-3.45-1.15-2.85-.95-6.3.05-2 .65-3.9.5-2 1.65-3.7 3.55-5.7 10.15-8 3.2-1.05 6.65-.7m39.4 33.75q2.45-1.8 5.3-3.2 3-1.5 6-2.35 2.9-.9 6.05-1.45.2 0 .3 0 .15-.1.25-.1.5-1.5.85-2.85.45-1.4.95-2.8.15-.75.8-1 .55-.25 1.45-.05 1.5.05 2.2 1.25.85 1.1.9 2.15.4 1.4.3 2.85-.2 1.4-.3 2.85-.15 3.65-.25 7.2-.2 3.6.2 7.1.35 4.55 1.05 8.85.7 4.4 1.6 8.85.55 2.6 1.25 5.2.65 2.6 1.35 5.2.4 1.4.85 2.85.4 1.35 1 2.85 0 .2.1.85.15.8-.1 1.3-.4.6-1 1.15-.45.45-1.1.75-.5.25-1.1.55-.7.3-1.3.4-.65.15-1.35-.1-.55-.15-1.2-.6-.65-.35-1.2-1-1.85-2.6-2.8-5.5-1-3-1.7-6.05-.4-1.9-.7-3.75-.25-1.95-.45-3.85-.4-3-.75-5.75-.25-2.9-.65-5.85 0-.85-.05-1.6 0-.7-.15-1.65-.55.65-.95 1.25-.35.6-.65 1.15-1.05 3-2.6 5.8-1.3 2.8-2.85 5.55-.6 1.15-1.2 2.45-.45 1.2-1.15 2.2-.4.95-1 1.7-.5.7-1 1.45-1.4 1.75-2.9 3.05-1.45 1.4-3.4 2.45-3.1 1.5-6.45 1.25-1.65-.05-2.8-1-1.15-.8-2.1-2.1-.95-1.3-1.4-2.75-.45-1.5-.65-3.05-.4-2.95-.15-5.8.25-3 .9-5.85.4-2.15 1.05-4.2.55-2.1 1.65-4 2.3-4.55 6.15-8.25 2.35-2.2 4.9-4m-5.85 90.25q.4-4 1.2-6.25 1.65-4.6 3.95-4.3.6.05 1.3.5.2-.45.35-.9.5-1.25 1.2-2.3 1.6-2.35 3.65-2.95 2.3-.6 5.15 1.2 2.8 1.8 4.95 9 1.45 4.6 1.7 5.65.95-.2 1.9-.35.2-.05.35-.05.6-.1 1.25-.2.3-.05.6-.1 8.2-1.3 14.9-2.25 3 20.1 8.95 38 .2.65.45 1.25 1.4 4.25 3.05 8.4-10.7 2.2-19.3 3.55-15.75 2.5-35.45 4.6-7.25.75-12.3.8.05-2.4 0-5.1 0-3.05-.05-6.35-.35-16.65-2.25-34.7-.2-1.45-.35-2.85 4.65-.4 10.4-.95 1.45-.15 3.1-.3.45-.05 1-.15 0-.55.3-2.9m11.3-1.35q-.9-2.15-2.85-4.45 0 .5 0 1.05-.15 3.25.5 6.5 1.55-.25 3.2-.45-.45-1.65-.85-2.65m8.3 1.55q.15-1.05-1-5.15-1.15-4.15-2.45-6.1-1.3-1.95-2.55-1.85-3.35.4-4.55 3.95-.15.35-.2.75 1.7 1.6 3.6 4.9 1.35 2.35 2.1 4.25 2.45-.35 5.05-.75m-17.5-3.7q-.85 3.45-.7 6.2 2.25-.25 4.4-.55-.3-3.5-.3-3.55-.35-3.15.3-6.4.05-.15.1-.3-.6-.3-1-.3-1.7.2-2.8 4.9m19.4-88.2q-.65.2-1.15.45-2.15 1.1-4.25 2.35-2.15 1.25-4.1 2.65-1.6 1.3-3 2.55-1.4 1.35-2.2 3.05-.4.8-.85 1.6-.3.75-.7 1.5-.45 1.4-.85 2.6-.45 1.4-.85 2.75-.25 1.15-.3 2.3-.2 1.15-.35 2.45-.25 1.95-.25 4.05.15 1.95.45 3.95.15.7.4 1.4.2.75.6 1.25h.35q.35-.2.55-.25 3.45-2.1 5.3-5.6.55-.95 1-2 .45-1.1 1.05-2.1 1-2 2.2-3.75 1.25-1.9 1.95-4.05.65-1.6 1.35-3.2.8-1.55 1.5-3.15.8-2.1 1.7-4.15.85-2.05 1.4-4.25.2-.7.4-1.3.1-.7-.1-1.45-.75.1-1.25.35m33.2 70.4q-1 3.1-1.2 6.4 1.55.15 3.2.35 0-1.65-.1-2.75-.3-2.25-1.6-5-.15.45-.3 1m-1.75-3.65q.1-.1.15-.25-.45-.45-.85-.55-1.7-.25-3.95 4-1.75 3.1-2.35 5.8 2.3.35 4.45.65.55-3.45.6-3.55.45-3.1 1.95-6.1m10.85-.45q-.8-2.25-2-2.45-3.35-.5-5.4 2.65-.25.3-.4.65 1.25 2 2.2 5.65.7 2.65.95 4.65 2.45.3 5.05.6.4-.95.35-5.25-.05-4.25-.75-6.5m20.05-66.05q-1.7 1.85-2.85 4.15-1.95 3.9-2.8 8.4-.55 2.35-.75 4.8-.1 2.3-.05 4.75.05.75.2 1.3.05.65.15 1.4.8-.1 1.4-.2.65-.1 1.3-.3 2.15-.45 4.05-1.3 1.95-1 3.65-2.25 1.35-1.1 2.7-2.15 1.25-1.1 2.4-2.3 2.6-2.2 4.05-5.2 1.55-2.9 2.05-6.2.3-1.6 0-3-.35-1.3-1.35-2.5-1.95-2.3-4.6-3.05-2.6-.7-5.4.6-2.35 1.15-4.15 3.05z" fill="#f36"/>
                <path d="m55.5 279.7 101.8 92.05 108.1-135.5-53.35 13.65 39.7-191.3-240.55-48.75 88.6 256.05zm101.15 84.6-91.05-82.4 40.75-12.75-87.4-252.5 226.75 45.9-40.35 194.35 46.45-11.9zm-38.95-185.9q-.8 2.25-1.2 6.25-.3 2.35-.3 2.9-.55.1-1 .15-1.65.15-3.1.3-5.75.55-10.4.95.15 1.4.35 2.85 1.9 18.05 2.25 34.7.05 3.3.05 6.35.05 2.7 0 5.1 5.05-.05 12.3-.8 19.7-2.1 35.45-4.6 8.6-1.35 19.3-3.55-1.65-4.15-3.05-8.4-.25-.6-.45-1.25-5.95-17.9-8.95-38-6.7.95-14.9 2.25-.3.05-.6.1-.65.1-1.25.2-.15 0-.35.05-.95.15-1.9.35-.25-1.05-1.7-5.65-2.15-7.2-4.95-9-2.85-1.8-5.15-1.2-2.05.6-3.65 2.95-.7 1.05-1.2 2.3-.15.45-.35.9-.7-.45-1.3-.5-2.3-.3-3.95 4.3m.2 8.95q-.15-2.75.7-6.2 1.1-4.7 2.8-4.9.4 0 1 .3-.05.15-.1.3-.65 3.25-.3 6.4 0 .05.3 3.55-2.15.3-4.4.55m17.2-7.65q1.15 4.1 1 5.15-2.6.4-5.05.75-.75-1.9-2.1-4.25-1.9-3.3-3.6-4.9.05-.4.2-.75 1.2-3.55 4.55-3.95 1.25-.1 2.55 1.85 1.3 1.95 2.45 6.1m-10.15-.85q1.95 2.3 2.85 4.45.4 1 .85 2.65-1.65.2-3.2.45-.65-3.25-.5-6.5 0-.55 0-1.05m2.7-87.65q-2.85 1.4-5.3 3.2-2.55 1.8-4.9 4-3.85 3.7-6.15 8.25-1.1 1.9-1.65 4-.65 2.05-1.05 4.2-.65 2.85-.9 5.85-.25 2.85.15 5.8.2 1.55.65 3.05.45 1.45 1.4 2.75.95 1.3 2.1 2.1 1.15.95 2.8 1 3.35.25 6.45-1.25 1.95-1.05 3.4-2.45 1.5-1.3 2.9-3.05.5-.75 1-1.45.6-.75 1-1.7.7-1 1.15-2.2.6-1.3 1.2-2.45 1.55-2.75 2.85-5.55 1.55-2.8 2.6-5.8.3-.55.65-1.15.4-.6.95-1.25.15.95.15 1.65.05.75.05 1.6.4 2.95.65 5.85.35 2.75.75 5.75.2 1.9.45 3.85.3 1.85.7 3.75.7 3.05 1.7 6.05.95 2.9 2.8 5.5.55.65 1.2 1 .65.45 1.2.6.7.25 1.35.1.6-.1 1.3-.4.6-.3 1.1-.55.65-.3 1.1-.75.6-.55 1-1.15.25-.5.1-1.3-.1-.65-.1-.85-.6-1.5-1-2.85-.45-1.45-.85-2.85-.7-2.6-1.35-5.2-.7-2.6-1.25-5.2-.9-4.45-1.6-8.85-.7-4.3-1.05-8.85-.4-3.5-.2-7.1.1-3.55.25-7.2.1-1.45.3-2.85.1-1.45-.3-2.85-.05-1.05-.9-2.15-.7-1.2-2.2-1.25-.9-.2-1.45.05-.65.25-.8 1-.5 1.4-.95 2.8-.35 1.35-.85 2.85-.1 0-.25.1-.1 0-.3 0-3.15.55-6.05 1.45-3 .85-6 2.35m9.2 2.2q.5-.25 1.15-.45.5-.25 1.25-.35.2.75.1 1.45-.2.6-.4 1.3-.55 2.2-1.4 4.25-.9 2.05-1.7 4.15-.7 1.6-1.5 3.15-.7 1.6-1.35 3.2-.7 2.15-1.95 4.05-1.2 1.75-2.2 3.75-.6 1-1.05 2.1-.45 1.05-1 2-1.85 3.5-5.3 5.6-.2.05-.55.25h-.35q-.4-.5-.6-1.25-.25-.7-.4-1.4-.3-2-.45-3.95 0-2.1.25-4.05.15-1.3.35-2.45.05-1.15.3-2.3.4-1.35.85-2.75.4-1.2.85-2.6.4-.75.7-1.5.45-.8.85-1.6.8-1.7 2.2-3.05 1.4-1.25 3-2.55 1.95-1.4 4.1-2.65 2.1-1.25 4.25-2.35m-52-32.5q-.95-.15-1.9-.25-3.45-.35-6.65.7-6.6 2.3-10.15 8-1.15 1.7-1.65 3.7-.6 1.9-.65 3.9-.2 3.45.95 6.3.8 1.9 1.95 3.45 1.3 1.5 2.6 2.85 1.35 1.3 3 2.25 1.6.95 3.25 1.65 2.35 1.2 4.35 2.75 2.1 1.45 4.05 3.1.85.75 1.6 1.6.85.7 1.55 1.55 1.45 1.6 2.35 3.65.85 1.85 1.55 3.8 1.3 3.15 1.75 6.4.5 3.3.3 6.7-.15 2-.65 3.75-.55 1.9-1.95 3.3-.6.6-1.1 1.1-.6.5-1.25 1-3 1.9-6.05 2.55-3.15.65-6.5-.55-1.85-.55-2.85-1.85-1.6-2.1-2.55-4.4-.9-2.2-1-4.8 0-1.6 0-3.1 0-1.55 0-3.05 0-.6-.15-.85-.1-.35-.55-.55-.65-.15-1.3 0-.5.1-1.15.35-.55.3-.85.9-.35.4-.35.6-.05 1.3-.25 2.65-.1 1.35-.1 2.65.05 3.25 1.2 6.25.65 1.75 1.4 3.4.55 1.7 1.85 3.1.75.9 1.55 1.7.95.85 1.8 1.65 3.3 2.6 6.95 3.6 3.7.85 7.9 0 3.15-.75 5.75-2.2 2.65-1.3 5.1-3.3.6-.55.85-1.05 2.05-2.6 3.4-5.35 1.3-2.65 1.9-5.9 1.1-5.7.35-11.75-.1-1.95-.75-3.85-.55-1.75-1.2-3.65-.5-2.2-1.6-4.15-1.05-1.9-2.15-3.85-.9-1.55-2.1-2.95-1-1.45-2.3-2.9-3.2-3.7-7.45-6.15-1.4-.9-2.85-1.65-1.4-.7-2.85-1.6-.85-.45-1.55-1.05-.75-.65-1.05-1.6-.9-2.9 2-5.15 2.05-1.65 4.35-2.1 2.3-.45 4.85-.05 1.55.25 2.95.95 1.45.75 2.7 1.85.75.6 1.5 1.25.75.5 1.55 1.1 1.25.75 2.55-.35.55-.4.7-.95.05-.45-.4-1.2-.5-1.05-1.25-2-.65-1.05-1.35-2-.3-.45-.8-1-.45-.5-.9-.95-.65-.75-1.1-1.45-.5-.7-1.25-1.35-1.65-1.7-3.7-2.95-1.95-1.15-4.25-1.75-1-.3-1.95-.45m99.7 110.55q.05-1.1-.1-5.9-.25-7.5-2.55-9.95-2.25-2.5-4.65-2.5-2.1 0-4.25 1.9-1 .85-1.8 1.95-.25.35-.55.75-.55-.6-1.15-.85-2.1-.85-4.95 3.15-1.3 1.95-2.75 5.75-.85 2.15-1.05 2.75-.5-.1-1-.15-1.6-.3-3.05-.5-5.7-.95-10.25-1.8-.25 1.4-.4 2.85-1.1 6.95-2.4 13.6.1 0 .25-.05 8.2-1.3 14.85-2.25l1.2-.15.15 1.15q3 20.3 9.15 38.35 7.6.95 14.55 1.7 8.7.9 19.6 1.55-2.7-23.5.3-49.25-6.75-.8-15-1.65-1.1-.15-2.2-.25-.95-.1-1.95-.2m-6.25-14.65q1.2.2 2 2.45.7 2.25.75 6.5.05 4.3-.35 5.25-2.6-.3-5.05-.6-.25-2-.95-4.65-.95-3.65-2.2-5.65.15-.35.4-.65 2.05-3.15 5.4-2.65m-8.7 2.65q-.05.15-.15.25-1.5 3-1.95 6.1-.05.1-.6 3.55-2.15-.3-4.45-.65.6-2.7 2.35-5.8 2.25-4.25 3.95-4 .4.1.85.55m.4 10.3q.2-3.3 1.2-6.4.15-.55.3-1 1.3 2.75 1.6 5 .1 1.1.1 2.75-1.65-.2-3.2-.35m19.05-81.95q-2.45 3.05-3.9 6.5-1.45 3.4-2.55 6.95-.7 2.55-1.2 5.1-.3 2.45-.5 5.05-.15 2.55-.15 4.95-.05 2.45.35 4.95.25 3.25 1.05 6.3.9 2.9 2.35 5.9 2.05 4.05 5.35 6.4 3.15 2.4 7.8 2.85 4.4.5 7.75-1.1 3.4-1.55 6.05-4.8 1.8-1.95 3.3-4.2 1.6-2.15 2.8-4.55 1.4-2.5 2.55-4.9 1.25-2.5 2.4-5.1.4-.9.2-1.5-.25-.4-.7-.7-.55-.35-1.25-.35-1.3.2-1.9.95-.65.7-1.15 1.85-.9 2.35-2.1 4.5-1.15 2.15-2.5 4.3-1 1.6-2.15 3.05-1.2 1.45-2.6 2.6-.65.5-1.25.9-.65.45-1.55.35-2.05-.1-3.85-.95-1.7-.75-3.05-2.25-1.7-2-2.55-4.35-.85-2.35-1.3-4.95l.55-.15q3.3-.1 6.15-1.15 3-1.15 5.65-2.85 1.9-1.3 3.6-2.8 1.75-1.55 3.3-3.2 5.65-5.3 7.2-12.85.45-2.35.1-4.65-.3-2.1-1.45-4.05-1.15-2.05-2.55-3.75-1.4-1.65-3.3-2.85-.5-.3-1.05-.65-.45-.3-.95-.7-2.05-1.45-4.15-1.75-2.1-.4-4.3-.25-1.95.1-3.8.7-1.85.5-3.7 1.5-2 1.1-3.8 2.55-1.7 1.4-3.25 3.15m8.45 9.55q1.15-2.3 2.85-4.15 1.8-1.9 4.15-3.05 2.8-1.3 5.4-.6 2.65.75 4.6 3.05 1 1.2 1.35 2.5.3 1.4 0 3-.5 3.3-2.05 6.2-1.45 3-4.05 5.2-1.15 1.2-2.4 2.3-1.35 1.05-2.7 2.15-1.7 1.25-3.65 2.25-1.9.85-4.05 1.3-.65.2-1.3.3-.6.1-1.4.2-.1-.75-.15-1.4-.15-.55-.2-1.3-.05-2.45.05-4.75.2-2.45.75-4.8.85-4.5 2.8-8.4m-27.25-37.9q-.6-2.9-1.9-5.65-.7-1.2-1.75-1.95-1-.7-2.35-.65-.5 0-.95.2-.45.2-.8.65-.7 1.2-1.15 2.35-.65 1.65-.8 3.3-.2 1.7-.3 3.55-.1 3.6-.3 7.2-.2 3.5-.25 7.1-.05 4.2-.05 8.45.05 4.15 0 8.3-.15 4.6-.15 9.1-.05 4.5-.05 8.95 0 3.35.2 6.6.05 3.1.25 6.4.05 3.6.35 7.1.3 3.5 1 7.05.35 1.4.85 2.6.6 1.2 1.4 2.3 1.55.4 3.05.3 1.2-.15 2.8-.95 1.5-.7 2.65-2.5 1.1-1.7 2-3.4 1-1.7 1.55-3.55.2-.5.2-.85.15-.3-.3-.6-.85-.65-1.65 0-.65.4-1.15.95-.5.55-1.1 1.05-.25.4-.45.65-.15.25-.35.55 0-1.45 0-2.8.1-1.45 0-2.75 0-1.55-.1-3 0-1.5 0-2.85-.1-1.9-.15-3.75 0-1.85 0-3.7 0-2.6 0-5.2 0-2.6.05-5.3.1-2.8.3-5.6.1-2.7.1-5.65.05-4.1.05-8.3 0-4.25-.05-8.3 0-2.9 0-5.8-.1-2.75-.2-5.65-.1-3-.5-5.95z" fill="#fff"/>
            </g>
        </g>
    </g>
    <g transform="matrix(.59083557 0 0 .59083557 272.75 0)">
        <g>
            <g id="S_mbolo_28_0_Layer0_0_FILL">
                <path d="m40.95 276.55 117.25 106 126.7-158.85-63.2 16.15 38.8-187.05-260.5-52.8 90.35 261.1zm116.35 95.2-101.8-92.05 44.3-13.8-88.6-256.05 240.55 48.75-39.7 191.3 53.35-13.65zm-91.7-89.85 91.05 82.4 95.15-119.3-46.45 11.9 40.35-194.35-226.75-45.9 87.4 252.5zm101-230.05q1.05.75 1.75 1.95 1.3 2.75 1.9 5.65.4 2.95.5 5.95.1 2.9.2 5.65 0 2.9 0 5.8.05 4.05.05 8.3 0 4.2-.05 8.3 0 2.95-.1 5.65-.2 2.8-.3 5.6-.05 2.7-.05 5.3 0 2.6 0 5.2 0 1.85 0 3.7.05 1.85.15 3.75 0 1.35 0 2.85.1 1.45.1 3 .1 1.3 0 2.75 0 1.35 0 2.8.2-.3.35-.55.2-.25.45-.65.6-.5 1.1-1.05.5-.55 1.15-.95.8-.65 1.65 0 .45.3.3.6 0 .35-.2.85-.55 1.85-1.55 3.55-.9 1.7-2 3.4-1.15 1.8-2.65 2.5-1.6.8-2.8.95-1.5.1-3.05-.3-.8-1.1-1.4-2.3-.5-1.2-.85-2.6-.7-3.55-1-7.05-.3-3.5-.35-7.1-.2-3.3-.25-6.4-.2-3.25-.2-6.6 0-4.45.05-8.95 0-4.5.15-9.1.05-4.15 0-8.3 0-4.25.05-8.45.05-3.6.25-7.1.2-3.6.3-7.2.1-1.85.3-3.55.15-1.65.8-3.3.45-1.15 1.15-2.35.35-.45.8-.65.45-.2.95-.2 1.35-.05 2.35.65m22.45 35.95q1.55-1.75 3.25-3.15 1.8-1.45 3.8-2.55 1.85-1 3.7-1.5 1.85-.6 3.8-.7 2.2-.15 4.3.25 2.1.3 4.15 1.75.5.4.95.7.55.35 1.05.65 1.9 1.2 3.3 2.85 1.4 1.7 2.55 3.75 1.15 1.95 1.45 4.05.35 2.3-.1 4.65-1.55 7.55-7.2 12.85-1.55 1.65-3.3 3.2-1.7 1.5-3.6 2.8-2.65 1.7-5.65 2.85-2.85 1.05-6.15 1.15l-.55.15q.45 2.6 1.3 4.95.85 2.35 2.55 4.35 1.35 1.5 3.05 2.25 1.8.85 3.85.95.9.1 1.55-.35.6-.4 1.25-.9 1.4-1.15 2.6-2.6 1.15-1.45 2.15-3.05 1.35-2.15 2.5-4.3 1.2-2.15 2.1-4.5.5-1.15 1.15-1.85.6-.75 1.9-.95.7 0 1.25.35.45.3.7.7.2.6-.2 1.5-1.15 2.6-2.4 5.1-1.15 2.4-2.55 4.9-1.2 2.4-2.8 4.55-1.5 2.25-3.3 4.2-2.65 3.25-6.05 4.8-3.35 1.6-7.75 1.1-4.65-.45-7.8-2.85-3.3-2.35-5.35-6.4-1.45-3-2.35-5.9-.8-3.05-1.05-6.3-.4-2.5-.35-4.95 0-2.4.15-4.95.2-2.6.5-5.05.5-2.55 1.2-5.1 1.1-3.55 2.55-6.95 1.45-3.45 3.9-6.5m-4.5 83.65q1 .1 1.95.2 1.1.1 2.2.25 8.25.85 15 1.65-3 25.75-.3 49.25-10.9-.65-19.6-1.55-6.95-.75-14.55-1.7-6.15-18.05-9.15-38.35l-.15-1.15-1.2.15q-6.65.95-14.85 2.25-.15.05-.25.05 1.3-6.65 2.4-13.6.15-1.45.4-2.85 4.55.85 10.25 1.8 1.45.2 3.05.5.5.05 1 .15.2-.6 1.05-2.75 1.45-3.8 2.75-5.75 2.85-4 4.95-3.15.6.25 1.15.85.3-.4.55-.75.8-1.1 1.8-1.95 2.15-1.9 4.25-1.9 2.4 0 4.65 2.5 2.3 2.45 2.55 9.95.15 4.8.1 5.9m-99.7-110.55q.95.15 1.95.45 2.3.6 4.25 1.75 2.05 1.25 3.7 2.95.75.65 1.25 1.35.45.7 1.1 1.45.45.45.9.95.5.55.8 1 .7.95 1.35 2 .75.95 1.25 2 .45.75.4 1.2-.15.55-.7.95-1.3 1.1-2.55.35-.8-.6-1.55-1.1-.75-.65-1.5-1.25-1.25-1.1-2.7-1.85-1.4-.7-2.95-.95-2.55-.4-4.85.05-2.3.45-4.35 2.1-2.9 2.25-2 5.15.3.95 1.05 1.6.7.6 1.55 1.05 1.45.9 2.85 1.6 1.45.75 2.85 1.65 4.25 2.45 7.45 6.15 1.3 1.45 2.3 2.9 1.2 1.4 2.1 2.95 1.1 1.95 2.15 3.85 1.1 1.95 1.6 4.15.65 1.9 1.2 3.65.65 1.9.75 3.85.75 6.05-.35 11.75-.6 3.25-1.9 5.9-1.35 2.75-3.4 5.35-.25.5-.85 1.05-2.45 2-5.1 3.3-2.6 1.45-5.75 2.2-4.2.85-7.9 0-3.65-1-6.95-3.6-.85-.8-1.8-1.65-.8-.8-1.55-1.7-1.3-1.4-1.85-3.1-.75-1.65-1.4-3.4-1.15-3-1.2-6.25 0-1.3.1-2.65.2-1.35.25-2.65 0-.2.35-.6.3-.6.85-.9.65-.25 1.15-.35.65-.15 1.3 0 .45.2.55.55.15.25.15.85 0 1.5 0 3.05 0 1.5 0 3.1.1 2.6 1 4.8.95 2.3 2.55 4.4 1 1.3 2.85 1.85 3.35 1.2 6.5.55 3.05-.65 6.05-2.55.65-.5 1.25-1 .5-.5 1.1-1.1 1.4-1.4 1.95-3.3.5-1.75.65-3.75.2-3.4-.3-6.7-.45-3.25-1.75-6.4-.7-1.95-1.55-3.8-.9-2.05-2.35-3.65-.7-.85-1.55-1.55-.75-.85-1.6-1.6-1.95-1.65-4.05-3.1-2-1.55-4.35-2.75-1.65-.7-3.25-1.65-1.65-.95-3-2.25-1.3-1.35-2.6-2.85-1.15-1.55-1.95-3.45-1.15-2.85-.95-6.3.05-2 .65-3.9.5-2 1.65-3.7 3.55-5.7 10.15-8 3.2-1.05 6.65-.7.95.1 1.9.25m37.5 33.5q2.45-1.8 5.3-3.2 3-1.5 6-2.35 2.9-.9 6.05-1.45.2 0 .3 0 .15-.1.25-.1.5-1.5.85-2.85.45-1.4.95-2.8.15-.75.8-1 .55-.25 1.45-.05 1.5.05 2.2 1.25.85 1.1.9 2.15.4 1.4.3 2.85-.2 1.4-.3 2.85-.15 3.65-.25 7.2-.2 3.6.2 7.1.35 4.55 1.05 8.85.7 4.4 1.6 8.85.55 2.6 1.25 5.2.65 2.6 1.35 5.2.4 1.4.85 2.85.4 1.35 1 2.85 0 .2.1.85.15.8-.1 1.3-.4.6-1 1.15-.45.45-1.1.75-.5.25-1.1.55-.7.3-1.3.4-.65.15-1.35-.1-.55-.15-1.2-.6-.65-.35-1.2-1-1.85-2.6-2.8-5.5-1-3-1.7-6.05-.4-1.9-.7-3.75-.25-1.95-.45-3.85-.4-3-.75-5.75-.25-2.9-.65-5.85 0-.85-.05-1.6 0-.7-.15-1.65-.55.65-.95 1.25-.35.6-.65 1.15-1.05 3-2.6 5.8-1.3 2.8-2.85 5.55-.6 1.15-1.2 2.45-.45 1.2-1.15 2.2-.4.95-1 1.7-.5.7-1 1.45-1.4 1.75-2.9 3.05-1.45 1.4-3.4 2.45-3.1 1.5-6.45 1.25-1.65-.05-2.8-1-1.15-.8-2.1-2.1-.95-1.3-1.4-2.75-.45-1.5-.65-3.05-.4-2.95-.15-5.8.25-3 .9-5.85.4-2.15 1.05-4.2.55-2.1 1.65-4 2.3-4.55 6.15-8.25 2.35-2.2 4.9-4m-20.65 94.55q4.65-.4 10.4-.95 1.45-.15 3.1-.3.45-.05 1-.15 0-.55.3-2.9.4-4 1.2-6.25 1.65-4.6 3.95-4.3.6.05 1.3.5.2-.45.35-.9.5-1.25 1.2-2.3 1.6-2.35 3.65-2.95 2.3-.6 5.15 1.2 2.8 1.8 4.95 9 1.45 4.6 1.7 5.65.95-.2 1.9-.35.2-.05.35-.05.6-.1 1.25-.2.3-.05.6-.1 8.2-1.3 14.9-2.25 3 20.1 8.95 38 .2.65.45 1.25 1.4 4.25 3.05 8.4-10.7 2.2-19.3 3.55-15.75 2.5-35.45 4.6-7.25.75-12.3.8.05-2.4 0-5.1 0-3.05-.05-6.35-.35-16.65-2.25-34.7-.2-1.45-.35-2.85m23.25-10.1q0 .5 0 1.05-.15 3.25.5 6.5 1.55-.25 3.2-.45-.45-1.65-.85-2.65-.9-2.15-2.85-4.45m11.15 6q.15-1.05-1-5.15-1.15-4.15-2.45-6.1-1.3-1.95-2.55-1.85-3.35.4-4.55 3.95-.15.35-.2.75 1.7 1.6 3.6 4.9 1.35 2.35 2.1 4.25 2.45-.35 5.05-.75m-14.7-8.6q-1.7.2-2.8 4.9-.85 3.45-.7 6.2 2.25-.25 4.4-.55-.3-3.5-.3-3.55-.35-3.15.3-6.4.05-.15.1-.3-.6-.3-1-.3m17.55-80.9q.2-.7.4-1.3.1-.7-.1-1.45-.75.1-1.25.35-.65.2-1.15.45-2.15 1.1-4.25 2.35-2.15 1.25-4.1 2.65-1.6 1.3-3 2.55-1.4 1.35-2.2 3.05-.4.8-.85 1.6-.3.75-.7 1.5-.45 1.4-.85 2.6-.45 1.4-.85 2.75-.25 1.15-.3 2.3-.2 1.15-.35 2.45-.25 1.95-.25 4.05.15 1.95.45 3.95.15.7.4 1.4.2.75.6 1.25h.35q.35-.2.55-.25 3.45-2.1 5.3-5.6.55-.95 1-2 .45-1.1 1.05-2.1 1-2 2.2-3.75 1.25-1.9 1.95-4.05.65-1.6 1.35-3.2.8-1.55 1.5-3.15.8-2.1 1.7-4.15.85-2.05 1.4-4.25m32.25 68q-1 3.1-1.2 6.4 1.55.15 3.2.35 0-1.65-.1-2.75-.3-2.25-1.6-5-.15.45-.3 1m-1.6-3.9q-.45-.45-.85-.55-1.7-.25-3.95 4-1.75 3.1-2.35 5.8 2.3.35 4.45.65.55-3.45.6-3.55.45-3.1 1.95-6.1.1-.1.15-.25m3.3 0q-.25.3-.4.65 1.25 2 2.2 5.65.7 2.65.95 4.65 2.45.3 5.05.6.4-.95.35-5.25-.05-4.25-.75-6.5-.8-2.25-2-2.45-3.35-.5-5.4 2.65m27.45-66.25q-1.7 1.85-2.85 4.15-1.95 3.9-2.8 8.4-.55 2.35-.75 4.8-.1 2.3-.05 4.75.05.75.2 1.3.05.65.15 1.4.8-.1 1.4-.2.65-.1 1.3-.3 2.15-.45 4.05-1.3 1.95-1 3.65-2.25 1.35-1.1 2.7-2.15 1.25-1.1 2.4-2.3 2.6-2.2 4.05-5.2 1.55-2.9 2.05-6.2.3-1.6 0-3-.35-1.3-1.35-2.5-1.95-2.3-4.6-3.05-2.6-.7-5.4.6-2.35 1.15-4.15 3.05z" fill="#f96"/>
                <path d="m55.5 279.7 101.8 92.05 108.1-135.5-53.35 13.65 39.7-191.3-240.55-48.75 88.6 256.05zm101.15 84.6-91.05-82.4 40.75-12.75-87.4-252.5 226.75 45.9-40.35 194.35 46.45-11.9zm-44.55-176.3q-5.75.55-10.4.95.15 1.4.35 2.85 1.9 18.05 2.25 34.7.05 3.3.05 6.35.05 2.7 0 5.1 5.05-.05 12.3-.8 19.7-2.1 35.45-4.6 8.6-1.35 19.3-3.55-1.65-4.15-3.05-8.4-.25-.6-.45-1.25-5.95-17.9-8.95-38-6.7.95-14.9 2.25-.3.05-.6.1-.65.1-1.25.2-.15 0-.35.05-.95.15-1.9.35-.25-1.05-1.7-5.65-2.15-7.2-4.95-9-2.85-1.8-5.15-1.2-2.05.6-3.65 2.95-.7 1.05-1.2 2.3-.15.45-.35.9-.7-.45-1.3-.5-2.3-.3-3.95 4.3-.8 2.25-1.2 6.25-.3 2.35-.3 2.9-.55.1-1 .15-1.65.15-3.1.3m6.5-6.85q1.1-4.7 2.8-4.9.4 0 1 .3-.05.15-.1.3-.65 3.25-.3 6.4 0 .05.3 3.55-2.15.3-4.4.55-.15-2.75.7-6.2m16.5-1.45q1.15 4.1 1 5.15-2.6.4-5.05.75-.75-1.9-2.1-4.25-1.9-3.3-3.6-4.9.05-.4.2-.75 1.2-3.55 4.55-3.95 1.25-.1 2.55 1.85 1.3 1.95 2.45 6.1m-10.15.2q0-.55 0-1.05 1.95 2.3 2.85 4.45.4 1 .85 2.65-1.65.2-3.2.45-.65-3.25-.5-6.5m2.7-88.7q-2.85 1.4-5.3 3.2-2.55 1.8-4.9 4-3.85 3.7-6.15 8.25-1.1 1.9-1.65 4-.65 2.05-1.05 4.2-.65 2.85-.9 5.85-.25 2.85.15 5.8.2 1.55.65 3.05.45 1.45 1.4 2.75.95 1.3 2.1 2.1 1.15.95 2.8 1 3.35.25 6.45-1.25 1.95-1.05 3.4-2.45 1.5-1.3 2.9-3.05.5-.75 1-1.45.6-.75 1-1.7.7-1 1.15-2.2.6-1.3 1.2-2.45 1.55-2.75 2.85-5.55 1.55-2.8 2.6-5.8.3-.55.65-1.15.4-.6.95-1.25.15.95.15 1.65.05.75.05 1.6.4 2.95.65 5.85.35 2.75.75 5.75.2 1.9.45 3.85.3 1.85.7 3.75.7 3.05 1.7 6.05.95 2.9 2.8 5.5.55.65 1.2 1 .65.45 1.2.6.7.25 1.35.1.6-.1 1.3-.4.6-.3 1.1-.55.65-.3 1.1-.75.6-.55 1-1.15.25-.5.1-1.3-.1-.65-.1-.85-.6-1.5-1-2.85-.45-1.45-.85-2.85-.7-2.6-1.35-5.2-.7-2.6-1.25-5.2-.9-4.45-1.6-8.85-.7-4.3-1.05-8.85-.4-3.5-.2-7.1.1-3.55.25-7.2.1-1.45.3-2.85.1-1.45-.3-2.85-.05-1.05-.9-2.15-.7-1.2-2.2-1.25-.9-.2-1.45.05-.65.25-.8 1-.5 1.4-.95 2.8-.35 1.35-.85 2.85-.1 0-.25.1-.1 0-.3 0-3.15.55-6.05 1.45-3 .85-6 2.35m11.7 2.85q-.2.6-.4 1.3-.55 2.2-1.4 4.25-.9 2.05-1.7 4.15-.7 1.6-1.5 3.15-.7 1.6-1.35 3.2-.7 2.15-1.95 4.05-1.2 1.75-2.2 3.75-.6 1-1.05 2.1-.45 1.05-1 2-1.85 3.5-5.3 5.6-.2.05-.55.25h-.35q-.4-.5-.6-1.25-.25-.7-.4-1.4-.3-2-.45-3.95 0-2.1.25-4.05.15-1.3.35-2.45.05-1.15.3-2.3.4-1.35.85-2.75.4-1.2.85-2.6.4-.75.7-1.5.45-.8.85-1.6.8-1.7 2.2-3.05 1.4-1.25 3-2.55 1.95-1.4 4.1-2.65 2.1-1.25 4.25-2.35.5-.25 1.15-.45.5-.25 1.25-.35.2.75.1 1.45m-52.55-32.7q-1-.3-1.95-.45-.95-.15-1.9-.25-3.45-.35-6.65.7-6.6 2.3-10.15 8-1.15 1.7-1.65 3.7-.6 1.9-.65 3.9-.2 3.45.95 6.3.8 1.9 1.95 3.45 1.3 1.5 2.6 2.85 1.35 1.3 3 2.25 1.6.95 3.25 1.65 2.35 1.2 4.35 2.75 2.1 1.45 4.05 3.1.85.75 1.6 1.6.85.7 1.55 1.55 1.45 1.6 2.35 3.65.85 1.85 1.55 3.8 1.3 3.15 1.75 6.4.5 3.3.3 6.7-.15 2-.65 3.75-.55 1.9-1.95 3.3-.6.6-1.1 1.1-.6.5-1.25 1-3 1.9-6.05 2.55-3.15.65-6.5-.55-1.85-.55-2.85-1.85-1.6-2.1-2.55-4.4-.9-2.2-1-4.8 0-1.6 0-3.1 0-1.55 0-3.05 0-.6-.15-.85-.1-.35-.55-.55-.65-.15-1.3 0-.5.1-1.15.35-.55.3-.85.9-.35.4-.35.6-.05 1.3-.25 2.65-.1 1.35-.1 2.65.05 3.25 1.2 6.25.65 1.75 1.4 3.4.55 1.7 1.85 3.1.75.9 1.55 1.7.95.85 1.8 1.65 3.3 2.6 6.95 3.6 3.7.85 7.9 0 3.15-.75 5.75-2.2 2.65-1.3 5.1-3.3.6-.55.85-1.05 2.05-2.6 3.4-5.35 1.3-2.65 1.9-5.9 1.1-5.7.35-11.75-.1-1.95-.75-3.85-.55-1.75-1.2-3.65-.5-2.2-1.6-4.15-1.05-1.9-2.15-3.85-.9-1.55-2.1-2.95-1-1.45-2.3-2.9-3.2-3.7-7.45-6.15-1.4-.9-2.85-1.65-1.4-.7-2.85-1.6-.85-.45-1.55-1.05-.75-.65-1.05-1.6-.9-2.9 2-5.15 2.05-1.65 4.35-2.1 2.3-.45 4.85-.05 1.55.25 2.95.95 1.45.75 2.7 1.85.75.6 1.5 1.25.75.5 1.55 1.1 1.25.75 2.55-.35.55-.4.7-.95.05-.45-.4-1.2-.5-1.05-1.25-2-.65-1.05-1.35-2-.3-.45-.8-1-.45-.5-.9-.95-.65-.75-1.1-1.45-.5-.7-1.25-1.35-1.65-1.7-3.7-2.95-1.95-1.15-4.25-1.75m99.7 110.3q-.95-.1-1.95-.2.05-1.1-.1-5.9-.25-7.5-2.55-9.95-2.25-2.5-4.65-2.5-2.1 0-4.25 1.9-1 .85-1.8 1.95-.25.35-.55.75-.55-.6-1.15-.85-2.1-.85-4.95 3.15-1.3 1.95-2.75 5.75-.85 2.15-1.05 2.75-.5-.1-1-.15-1.6-.3-3.05-.5-5.7-.95-10.25-1.8-.25 1.4-.4 2.85-1.1 6.95-2.4 13.6.1 0 .25-.05 8.2-1.3 14.85-2.25l1.2-.15.15 1.15q3 20.3 9.15 38.35 7.6.95 14.55 1.7 8.7.9 19.6 1.55-2.7-23.5.3-49.25-6.75-.8-15-1.65-1.1-.15-2.2-.25m-14-11.55q.15-.35.4-.65 2.05-3.15 5.4-2.65 1.2.2 2 2.45.7 2.25.75 6.5.05 4.3-.35 5.25-2.6-.3-5.05-.6-.25-2-.95-4.65-.95-3.65-2.2-5.65m-3.75-1.2q.4.1.85.55-.05.15-.15.25-1.5 3-1.95 6.1-.05.1-.6 3.55-2.15-.3-4.45-.65.6-2.7 2.35-5.8 2.25-4.25 3.95-4m1.25 10.85q.2-3.3 1.2-6.4.15-.55.3-1 1.3 2.75 1.6 5 .1 1.1.1 2.75-1.65-.2-3.2-.35m22.3-85.1q-1.7 1.4-3.25 3.15-2.45 3.05-3.9 6.5-1.45 3.4-2.55 6.95-.7 2.55-1.2 5.1-.3 2.45-.5 5.05-.15 2.55-.15 4.95-.05 2.45.35 4.95.25 3.25 1.05 6.3.9 2.9 2.35 5.9 2.05 4.05 5.35 6.4 3.15 2.4 7.8 2.85 4.4.5 7.75-1.1 3.4-1.55 6.05-4.8 1.8-1.95 3.3-4.2 1.6-2.15 2.8-4.55 1.4-2.5 2.55-4.9 1.25-2.5 2.4-5.1.4-.9.2-1.5-.25-.4-.7-.7-.55-.35-1.25-.35-1.3.2-1.9.95-.65.7-1.15 1.85-.9 2.35-2.1 4.5-1.15 2.15-2.5 4.3-1 1.6-2.15 3.05-1.2 1.45-2.6 2.6-.65.5-1.25.9-.65.45-1.55.35-2.05-.1-3.85-.95-1.7-.75-3.05-2.25-1.7-2-2.55-4.35-.85-2.35-1.3-4.95l.55-.15q3.3-.1 6.15-1.15 3-1.15 5.65-2.85 1.9-1.3 3.6-2.8 1.75-1.55 3.3-3.2 5.65-5.3 7.2-12.85.45-2.35.1-4.65-.3-2.1-1.45-4.05-1.15-2.05-2.55-3.75-1.4-1.65-3.3-2.85-.5-.3-1.05-.65-.45-.3-.95-.7-2.05-1.45-4.15-1.75-2.1-.4-4.3-.25-1.95.1-3.8.7-1.85.5-3.7 1.5-2 1.1-3.8 2.55m5.2 12.7q1.15-2.3 2.85-4.15 1.8-1.9 4.15-3.05 2.8-1.3 5.4-.6 2.65.75 4.6 3.05 1 1.2 1.35 2.5.3 1.4 0 3-.5 3.3-2.05 6.2-1.45 3-4.05 5.2-1.15 1.2-2.4 2.3-1.35 1.05-2.7 2.15-1.7 1.25-3.65 2.25-1.9.85-4.05 1.3-.65.2-1.3.3-.6.1-1.4.2-.1-.75-.15-1.4-.15-.55-.2-1.3-.05-2.45.05-4.75.2-2.45.75-4.8.85-4.5 2.8-8.4m-29.15-43.55q-.7-1.2-1.75-1.95-1-.7-2.35-.65-.5 0-.95.2-.45.2-.8.65-.7 1.2-1.15 2.35-.65 1.65-.8 3.3-.2 1.7-.3 3.55-.1 3.6-.3 7.2-.2 3.5-.25 7.1-.05 4.2-.05 8.45.05 4.15 0 8.3-.15 4.6-.15 9.1-.05 4.5-.05 8.95 0 3.35.2 6.6.05 3.1.25 6.4.05 3.6.35 7.1.3 3.5 1 7.05.35 1.4.85 2.6.6 1.2 1.4 2.3 1.55.4 3.05.3 1.2-.15 2.8-.95 1.5-.7 2.65-2.5 1.1-1.7 2-3.4 1-1.7 1.55-3.55.2-.5.2-.85.15-.3-.3-.6-.85-.65-1.65 0-.65.4-1.15.95-.5.55-1.1 1.05-.25.4-.45.65-.15.25-.35.55 0-1.45 0-2.8.1-1.45 0-2.75 0-1.55-.1-3 0-1.5 0-2.85-.1-1.9-.15-3.75 0-1.85 0-3.7 0-2.6 0-5.2 0-2.6.05-5.3.1-2.8.3-5.6.1-2.7.1-5.65.05-4.1.05-8.3 0-4.25-.05-8.3 0-2.9 0-5.8-.1-2.75-.2-5.65-.1-3-.5-5.95-.6-2.9-1.9-5.65z" fill="#fff"/>
            </g>
        </g>
    </g>
    <g transform="matrix(.59083557 0 0 .59083557 65.8 253.6)">
        <g>
            <g id="S_mbolo_29_0_Layer0_0_FILL">
                <path d="m40.95 276.55 117.25 106 126.7-158.85-63.2 16.15 38.8-187.05-260.5-52.8 90.35 261.1zm116.35 95.2-101.8-92.05 44.3-13.8-88.6-256.05 240.55 48.75-39.7 191.3 53.35-13.65zm-50.95-102.6-40.75 12.75 91.05 82.4 95.15-119.3-46.45 11.9 40.35-194.35-226.75-45.9zm63.9-209.7q.4 2.95.5 5.95.1 2.9.2 5.65 0 2.9 0 5.8.05 4.05.05 8.3 0 4.2-.05 8.3 0 2.95-.1 5.65-.2 2.8-.3 5.6-.05 2.7-.05 5.3 0 2.6 0 5.2 0 1.85 0 3.7.05 1.85.15 3.75 0 1.35 0 2.85.1 1.45.1 3 .1 1.3 0 2.75 0 1.35 0 2.8.2-.3.35-.55.2-.25.45-.65.6-.5 1.1-1.05.5-.55 1.15-.95.8-.65 1.65 0 .45.3.3.6 0 .35-.2.85-.55 1.85-1.55 3.55-.9 1.7-2 3.4-1.15 1.8-2.65 2.5-1.6.8-2.8.95-1.5.1-3.05-.3-.8-1.1-1.4-2.3-.5-1.2-.85-2.6-.7-3.55-1-7.05-.3-3.5-.35-7.1-.2-3.3-.25-6.4-.2-3.25-.2-6.6 0-4.45.05-8.95 0-4.5.15-9.1.05-4.15 0-8.3 0-4.25.05-8.45.05-3.6.25-7.1.2-3.6.3-7.2.1-1.85.3-3.55.15-1.65.8-3.3.45-1.15 1.15-2.35.35-.45.8-.65.45-.2.95-.2 1.35-.05 2.35.65 1.05.75 1.75 1.95 1.3 2.75 1.9 5.65m25.85 22.65q1.85-1 3.7-1.5 1.85-.6 3.8-.7 2.2-.15 4.3.25 2.1.3 4.15 1.75.5.4.95.7.55.35 1.05.65 1.9 1.2 3.3 2.85 1.4 1.7 2.55 3.75 1.15 1.95 1.45 4.05.35 2.3-.1 4.65-1.55 7.55-7.2 12.85-1.55 1.65-3.3 3.2-1.7 1.5-3.6 2.8-2.65 1.7-5.65 2.85-2.85 1.05-6.15 1.15l-.55.15q.45 2.6 1.3 4.95.85 2.35 2.55 4.35 1.35 1.5 3.05 2.25 1.8.85 3.85.95.9.1 1.55-.35.6-.4 1.25-.9 1.4-1.15 2.6-2.6 1.15-1.45 2.15-3.05 1.35-2.15 2.5-4.3 1.2-2.15 2.1-4.5.5-1.15 1.15-1.85.6-.75 1.9-.95.7 0 1.25.35.45.3.7.7.2.6-.2 1.5-1.15 2.6-2.4 5.1-1.15 2.4-2.55 4.9-1.2 2.4-2.8 4.55-1.5 2.25-3.3 4.2-2.65 3.25-6.05 4.8-3.35 1.6-7.75 1.1-4.65-.45-7.8-2.85-3.3-2.35-5.35-6.4-1.45-3-2.35-5.9-.8-3.05-1.05-6.3-.4-2.5-.35-4.95 0-2.4.15-4.95.2-2.6.5-5.05.5-2.55 1.2-5.1 1.1-3.55 2.55-6.95 1.45-3.45 3.9-6.5 1.55-1.75 3.25-3.15 1.8-1.45 3.8-2.55m-11.65 83.45q.15 4.8.1 5.9 1 .1 1.95.2 1.1.1 2.2.25 8.25.85 15 1.65-3 25.75-.3 49.25-10.9-.65-19.6-1.55-6.95-.75-14.55-1.7-6.15-18.05-9.15-38.35l-.15-1.15-1.2.15q-6.65.95-14.85 2.25-.15.05-.25.05 1.3-6.65 2.4-13.6.15-1.45.4-2.85 4.55.85 10.25 1.8 1.45.2 3.05.5.5.05 1 .15.2-.6 1.05-2.75 1.45-3.8 2.75-5.75 2.85-4 4.95-3.15.6.25 1.15.85.3-.4.55-.75.8-1.1 1.8-1.95 2.15-1.9 4.25-1.9 2.4 0 4.65 2.5 2.3 2.45 2.55 9.95m-99.6-104.65q.95.15 1.95.45 2.3.6 4.25 1.75 2.05 1.25 3.7 2.95.75.65 1.25 1.35.45.7 1.1 1.45.45.45.9.95.5.55.8 1 .7.95 1.35 2 .75.95 1.25 2 .45.75.4 1.2-.15.55-.7.95-1.3 1.1-2.55.35-.8-.6-1.55-1.1-.75-.65-1.5-1.25-1.25-1.1-2.7-1.85-1.4-.7-2.95-.95-2.55-.4-4.85.05-2.3.45-4.35 2.1-2.9 2.25-2 5.15.3.95 1.05 1.6.7.6 1.55 1.05 1.45.9 2.85 1.6 1.45.75 2.85 1.65 4.25 2.45 7.45 6.15 1.3 1.45 2.3 2.9 1.2 1.4 2.1 2.95 1.1 1.95 2.15 3.85 1.1 1.95 1.6 4.15.65 1.9 1.2 3.65.65 1.9.75 3.85.75 6.05-.35 11.75-.6 3.25-1.9 5.9-1.35 2.75-3.4 5.35-.25.5-.85 1.05-2.45 2-5.1 3.3-2.6 1.45-5.75 2.2-4.2.85-7.9 0-3.65-1-6.95-3.6-.85-.8-1.8-1.65-.8-.8-1.55-1.7-1.3-1.4-1.85-3.1-.75-1.65-1.4-3.4-1.15-3-1.2-6.25 0-1.3.1-2.65.2-1.35.25-2.65 0-.2.35-.6.3-.6.85-.9.65-.25 1.15-.35.65-.15 1.3 0 .45.2.55.55.15.25.15.85 0 1.5 0 3.05 0 1.5 0 3.1.1 2.6 1 4.8.95 2.3 2.55 4.4 1 1.3 2.85 1.85 3.35 1.2 6.5.55 3.05-.65 6.05-2.55.65-.5 1.25-1 .5-.5 1.1-1.1 1.4-1.4 1.95-3.3.5-1.75.65-3.75.2-3.4-.3-6.7-.45-3.25-1.75-6.4-.7-1.95-1.55-3.8-.9-2.05-2.35-3.65-.7-.85-1.55-1.55-.75-.85-1.6-1.6-1.95-1.65-4.05-3.1-2-1.55-4.35-2.75-1.65-.7-3.25-1.65-1.65-.95-3-2.25-1.3-1.35-2.6-2.85-1.15-1.55-1.95-3.45-1.15-2.85-.95-6.3.05-2 .65-3.9.5-2 1.65-3.7 3.55-5.7 10.15-8 3.2-1.05 6.65-.7.95.1 1.9.25m37.5 33.5q2.45-1.8 5.3-3.2 3-1.5 6-2.35 2.9-.9 6.05-1.45.2 0 .3 0 .15-.1.25-.1.5-1.5.85-2.85.45-1.4.95-2.8.15-.75.8-1 .55-.25 1.45-.05 1.5.05 2.2 1.25.85 1.1.9 2.15.4 1.4.3 2.85-.2 1.4-.3 2.85-.15 3.65-.25 7.2-.2 3.6.2 7.1.35 4.55 1.05 8.85.7 4.4 1.6 8.85.55 2.6 1.25 5.2.65 2.6 1.35 5.2.4 1.4.85 2.85.4 1.35 1 2.85 0 .2.1.85.15.8-.1 1.3-.4.6-1 1.15-.45.45-1.1.75-.5.25-1.1.55-.7.3-1.3.4-.65.15-1.35-.1-.55-.15-1.2-.6-.65-.35-1.2-1-1.85-2.6-2.8-5.5-1-3-1.7-6.05-.4-1.9-.7-3.75-.25-1.95-.45-3.85-.4-3-.75-5.75-.25-2.9-.65-5.85 0-.85-.05-1.6 0-.7-.15-1.65-.55.65-.95 1.25-.35.6-.65 1.15-1.05 3-2.6 5.8-1.3 2.8-2.85 5.55-.6 1.15-1.2 2.45-.45 1.2-1.15 2.2-.4.95-1 1.7-.5.7-1 1.45-1.4 1.75-2.9 3.05-1.45 1.4-3.4 2.45-3.1 1.5-6.45 1.25-1.65-.05-2.8-1-1.15-.8-2.1-2.1-.95-1.3-1.4-2.75-.45-1.5-.65-3.05-.4-2.95-.15-5.8.25-3 .9-5.85.4-2.15 1.05-4.2.55-2.1 1.65-4 2.3-4.55 6.15-8.25 2.35-2.2 4.9-4m-20.3 97.4q-.2-1.45-.35-2.85 4.65-.4 10.4-.95 1.45-.15 3.1-.3.45-.05 1-.15 0-.55.3-2.9.4-4 1.2-6.25 1.65-4.6 3.95-4.3.6.05 1.3.5.2-.45.35-.9.5-1.25 1.2-2.3 1.6-2.35 3.65-2.95 2.3-.6 5.15 1.2 2.8 1.8 4.95 9 1.45 4.6 1.7 5.65.95-.2 1.9-.35.2-.05.35-.05.6-.1 1.25-.2.3-.05.6-.1 8.2-1.3 14.9-2.25 3 20.1 8.95 38 .2.65.45 1.25 1.4 4.25 3.05 8.4-10.7 2.2-19.3 3.55-15.75 2.5-35.45 4.6-7.25.75-12.3.8.05-2.4 0-5.1 0-3.05-.05-6.35-.35-16.65-2.25-34.7m22.9-12.95q0 .5 0 1.05-.15 3.25.5 6.5 1.55-.25 3.2-.45-.45-1.65-.85-2.65-.9-2.15-2.85-4.45m10.15.85q-1.15-4.15-2.45-6.1-1.3-1.95-2.55-1.85-3.35.4-4.55 3.95-.15.35-.2.75 1.7 1.6 3.6 4.9 1.35 2.35 2.1 4.25 2.45-.35 5.05-.75.15-1.05-1-5.15m-16.5 1.45q-.85 3.45-.7 6.2 2.25-.25 4.4-.55-.3-3.5-.3-3.55-.35-3.15.3-6.4.05-.15.1-.3-.6-.3-1-.3-1.7.2-2.8 4.9m20.65-88.55q-.75.1-1.25.35-.65.2-1.15.45-2.15 1.1-4.25 2.35-2.15 1.25-4.1 2.65-1.6 1.3-3 2.55-1.4 1.35-2.2 3.05-.4.8-.85 1.6-.3.75-.7 1.5-.45 1.4-.85 2.6-.45 1.4-.85 2.75-.25 1.15-.3 2.3-.2 1.15-.35 2.45-.25 1.95-.25 4.05.15 1.95.45 3.95.15.7.4 1.4.2.75.6 1.25h.35q.35-.2.55-.25 3.45-2.1 5.3-5.6.55-.95 1-2 .45-1.1 1.05-2.1 1-2 2.2-3.75 1.25-1.9 1.95-4.05.65-1.6 1.35-3.2.8-1.55 1.5-3.15.8-2.1 1.7-4.15.85-2.05 1.4-4.25.2-.7.4-1.3.1-.7-.1-1.45m31.95 70.75q-1 3.1-1.2 6.4 1.55.15 3.2.35 0-1.65-.1-2.75-.3-2.25-1.6-5-.15.45-.3 1m-1.75-3.65q.1-.1.15-.25-.45-.45-.85-.55-1.7-.25-3.95 4-1.75 3.1-2.35 5.8 2.3.35 4.45.65.55-3.45.6-3.55.45-3.1 1.95-6.1m10.85-.45q-.8-2.25-2-2.45-3.35-.5-5.4 2.65-.25.3-.4.65 1.25 2 2.2 5.65.7 2.65.95 4.65 2.45.3 5.05.6.4-.95.35-5.25-.05-4.25-.75-6.5m20.05-66.05q-1.7 1.85-2.85 4.15-1.95 3.9-2.8 8.4-.55 2.35-.75 4.8-.1 2.3-.05 4.75.05.75.2 1.3.05.65.15 1.4.8-.1 1.4-.2.65-.1 1.3-.3 2.15-.45 4.05-1.3 1.95-1 3.65-2.25 1.35-1.1 2.7-2.15 1.25-1.1 2.4-2.3 2.6-2.2 4.05-5.2 1.55-2.9 2.05-6.2.3-1.6 0-3-.35-1.3-1.35-2.5-1.95-2.3-4.6-3.05-2.6-.7-5.4.6-2.35 1.15-4.15 3.05z" fill="#6cc"/>
                <path d="m55.5 279.7 101.8 92.05 108.1-135.5-53.35 13.65 39.7-191.3-240.55-48.75 88.6 256.05zm10.1 2.2 40.75-12.75-87.4-252.5 226.75 45.9-40.35 194.35 46.45-11.9-95.15 119.3zm36.1-92.95q.15 1.4.35 2.85 1.9 18.05 2.25 34.7.05 3.3.05 6.35.05 2.7 0 5.1 5.05-.05 12.3-.8 19.7-2.1 35.45-4.6 8.6-1.35 19.3-3.55-1.65-4.15-3.05-8.4-.25-.6-.45-1.25-5.95-17.9-8.95-38-6.7.95-14.9 2.25-.3.05-.6.1-.65.1-1.25.2-.15 0-.35.05-.95.15-1.9.35-.25-1.05-1.7-5.65-2.15-7.2-4.95-9-2.85-1.8-5.15-1.2-2.05.6-3.65 2.95-.7 1.05-1.2 2.3-.15.45-.35.9-.7-.45-1.3-.5-2.3-.3-3.95 4.3-.8 2.25-1.2 6.25-.3 2.35-.3 2.9-.55.1-1 .15-1.65.15-3.1.3-5.75.55-10.4.95m16.2-1.6q-.15-2.75.7-6.2 1.1-4.7 2.8-4.9.4 0 1 .3-.05.15-.1.3-.65 3.25-.3 6.4 0 .05.3 3.55-2.15.3-4.4.55m14.75-13.75q1.3 1.95 2.45 6.1 1.15 4.1 1 5.15-2.6.4-5.05.75-.75-1.9-2.1-4.25-1.9-3.3-3.6-4.9.05-.4.2-.75 1.2-3.55 4.55-3.95 1.25-.1 2.55 1.85m-7.7 6.3q0-.55 0-1.05 1.95 2.3 2.85 4.45.4 1 .85 2.65-1.65.2-3.2.45-.65-3.25-.5-6.5m2.7-88.7q-2.85 1.4-5.3 3.2-2.55 1.8-4.9 4-3.85 3.7-6.15 8.25-1.1 1.9-1.65 4-.65 2.05-1.05 4.2-.65 2.85-.9 5.85-.25 2.85.15 5.8.2 1.55.65 3.05.45 1.45 1.4 2.75.95 1.3 2.1 2.1 1.15.95 2.8 1 3.35.25 6.45-1.25 1.95-1.05 3.4-2.45 1.5-1.3 2.9-3.05.5-.75 1-1.45.6-.75 1-1.7.7-1 1.15-2.2.6-1.3 1.2-2.45 1.55-2.75 2.85-5.55 1.55-2.8 2.6-5.8.3-.55.65-1.15.4-.6.95-1.25.15.95.15 1.65.05.75.05 1.6.4 2.95.65 5.85.35 2.75.75 5.75.2 1.9.45 3.85.3 1.85.7 3.75.7 3.05 1.7 6.05.95 2.9 2.8 5.5.55.65 1.2 1 .65.45 1.2.6.7.25 1.35.1.6-.1 1.3-.4.6-.3 1.1-.55.65-.3 1.1-.75.6-.55 1-1.15.25-.5.1-1.3-.1-.65-.1-.85-.6-1.5-1-2.85-.45-1.45-.85-2.85-.7-2.6-1.35-5.2-.7-2.6-1.25-5.2-.9-4.45-1.6-8.85-.7-4.3-1.05-8.85-.4-3.5-.2-7.1.1-3.55.25-7.2.1-1.45.3-2.85.1-1.45-.3-2.85-.05-1.05-.9-2.15-.7-1.2-2.2-1.25-.9-.2-1.45.05-.65.25-.8 1-.5 1.4-.95 2.8-.35 1.35-.85 2.85-.1 0-.25.1-.1 0-.3 0-3.15.55-6.05 1.45-3 .85-6 2.35m10.35 1.75q.5-.25 1.25-.35.2.75.1 1.45-.2.6-.4 1.3-.55 2.2-1.4 4.25-.9 2.05-1.7 4.15-.7 1.6-1.5 3.15-.7 1.6-1.35 3.2-.7 2.15-1.95 4.05-1.2 1.75-2.2 3.75-.6 1-1.05 2.1-.45 1.05-1 2-1.85 3.5-5.3 5.6-.2.05-.55.25h-.35q-.4-.5-.6-1.25-.25-.7-.4-1.4-.3-2-.45-3.95 0-2.1.25-4.05.15-1.3.35-2.45.05-1.15.3-2.3.4-1.35.85-2.75.4-1.2.85-2.6.4-.75.7-1.5.45-.8.85-1.6.8-1.7 2.2-3.05 1.4-1.25 3-2.55 1.95-1.4 4.1-2.65 2.1-1.25 4.25-2.35.5-.25 1.15-.45m-51.2-31.6q-1-.3-1.95-.45-.95-.15-1.9-.25-3.45-.35-6.65.7-6.6 2.3-10.15 8-1.15 1.7-1.65 3.7-.6 1.9-.65 3.9-.2 3.45.95 6.3.8 1.9 1.95 3.45 1.3 1.5 2.6 2.85 1.35 1.3 3 2.25 1.6.95 3.25 1.65 2.35 1.2 4.35 2.75 2.1 1.45 4.05 3.1.85.75 1.6 1.6.85.7 1.55 1.55 1.45 1.6 2.35 3.65.85 1.85 1.55 3.8 1.3 3.15 1.75 6.4.5 3.3.3 6.7-.15 2-.65 3.75-.55 1.9-1.95 3.3-.6.6-1.1 1.1-.6.5-1.25 1-3 1.9-6.05 2.55-3.15.65-6.5-.55-1.85-.55-2.85-1.85-1.6-2.1-2.55-4.4-.9-2.2-1-4.8 0-1.6 0-3.1 0-1.55 0-3.05 0-.6-.15-.85-.1-.35-.55-.55-.65-.15-1.3 0-.5.1-1.15.35-.55.3-.85.9-.35.4-.35.6-.05 1.3-.25 2.65-.1 1.35-.1 2.65.05 3.25 1.2 6.25.65 1.75 1.4 3.4.55 1.7 1.85 3.1.75.9 1.55 1.7.95.85 1.8 1.65 3.3 2.6 6.95 3.6 3.7.85 7.9 0 3.15-.75 5.75-2.2 2.65-1.3 5.1-3.3.6-.55.85-1.05 2.05-2.6 3.4-5.35 1.3-2.65 1.9-5.9 1.1-5.7.35-11.75-.1-1.95-.75-3.85-.55-1.75-1.2-3.65-.5-2.2-1.6-4.15-1.05-1.9-2.15-3.85-.9-1.55-2.1-2.95-1-1.45-2.3-2.9-3.2-3.7-7.45-6.15-1.4-.9-2.85-1.65-1.4-.7-2.85-1.6-.85-.45-1.55-1.05-.75-.65-1.05-1.6-.9-2.9 2-5.15 2.05-1.65 4.35-2.1 2.3-.45 4.85-.05 1.55.25 2.95.95 1.45.75 2.7 1.85.75.6 1.5 1.25.75.5 1.55 1.1 1.25.75 2.55-.35.55-.4.7-.95.05-.45-.4-1.2-.5-1.05-1.25-2-.65-1.05-1.35-2-.3-.45-.8-1-.45-.5-.9-.95-.65-.75-1.1-1.45-.5-.7-1.25-1.35-1.65-1.7-3.7-2.95-1.95-1.15-4.25-1.75m97.75 110.1q.05-1.1-.1-5.9-.25-7.5-2.55-9.95-2.25-2.5-4.65-2.5-2.1 0-4.25 1.9-1 .85-1.8 1.95-.25.35-.55.75-.55-.6-1.15-.85-2.1-.85-4.95 3.15-1.3 1.95-2.75 5.75-.85 2.15-1.05 2.75-.5-.1-1-.15-1.6-.3-3.05-.5-5.7-.95-10.25-1.8-.25 1.4-.4 2.85-1.1 6.95-2.4 13.6.1 0 .25-.05 8.2-1.3 14.85-2.25l1.2-.15.15 1.15q3 20.3 9.15 38.35 7.6.95 14.55 1.7 8.7.9 19.6 1.55-2.7-23.5.3-49.25-6.75-.8-15-1.65-1.1-.15-2.2-.25-.95-.1-1.95-.2m-6.25-14.65q1.2.2 2 2.45.7 2.25.75 6.5.05 4.3-.35 5.25-2.6-.3-5.05-.6-.25-2-.95-4.65-.95-3.65-2.2-5.65.15-.35.4-.65 2.05-3.15 5.4-2.65m-8.7 2.65q-.05.15-.15.25-1.5 3-1.95 6.1-.05.1-.6 3.55-2.15-.3-4.45-.65.6-2.7 2.35-5.8 2.25-4.25 3.95-4 .4.1.85.55m.4 10.3q.2-3.3 1.2-6.4.15-.55.3-1 1.3 2.75 1.6 5 .1 1.1.1 2.75-1.65-.2-3.2-.35m29.8-89.15q-1.85.5-3.7 1.5-2 1.1-3.8 2.55-1.7 1.4-3.25 3.15-2.45 3.05-3.9 6.5-1.45 3.4-2.55 6.95-.7 2.55-1.2 5.1-.3 2.45-.5 5.05-.15 2.55-.15 4.95-.05 2.45.35 4.95.25 3.25 1.05 6.3.9 2.9 2.35 5.9 2.05 4.05 5.35 6.4 3.15 2.4 7.8 2.85 4.4.5 7.75-1.1 3.4-1.55 6.05-4.8 1.8-1.95 3.3-4.2 1.6-2.15 2.8-4.55 1.4-2.5 2.55-4.9 1.25-2.5 2.4-5.1.4-.9.2-1.5-.25-.4-.7-.7-.55-.35-1.25-.35-1.3.2-1.9.95-.65.7-1.15 1.85-.9 2.35-2.1 4.5-1.15 2.15-2.5 4.3-1 1.6-2.15 3.05-1.2 1.45-2.6 2.6-.65.5-1.25.9-.65.45-1.55.35-2.05-.1-3.85-.95-1.7-.75-3.05-2.25-1.7-2-2.55-4.35-.85-2.35-1.3-4.95l.55-.15q3.3-.1 6.15-1.15 3-1.15 5.65-2.85 1.9-1.3 3.6-2.8 1.75-1.55 3.3-3.2 5.65-5.3 7.2-12.85.45-2.35.1-4.65-.3-2.1-1.45-4.05-1.15-2.05-2.55-3.75-1.4-1.65-3.3-2.85-.5-.3-1.05-.65-.45-.3-.95-.7-2.05-1.45-4.15-1.75-2.1-.4-4.3-.25-1.95.1-3.8.7m-2.3 16.75q1.15-2.3 2.85-4.15 1.8-1.9 4.15-3.05 2.8-1.3 5.4-.6 2.65.75 4.6 3.05 1 1.2 1.35 2.5.3 1.4 0 3-.5 3.3-2.05 6.2-1.45 3-4.05 5.2-1.15 1.2-2.4 2.3-1.35 1.05-2.7 2.15-1.7 1.25-3.65 2.25-1.9.85-4.05 1.3-.65.2-1.3.3-.6.1-1.4.2-.1-.75-.15-1.4-.15-.55-.2-1.3-.05-2.45.05-4.75.2-2.45.75-4.8.85-4.5 2.8-8.4m-26.75-31.95q-.1-3-.5-5.95-.6-2.9-1.9-5.65-.7-1.2-1.75-1.95-1-.7-2.35-.65-.5 0-.95.2-.45.2-.8.65-.7 1.2-1.15 2.35-.65 1.65-.8 3.3-.2 1.7-.3 3.55-.1 3.6-.3 7.2-.2 3.5-.25 7.1-.05 4.2-.05 8.45.05 4.15 0 8.3-.15 4.6-.15 9.1-.05 4.5-.05 8.95 0 3.35.2 6.6.05 3.1.25 6.4.05 3.6.35 7.1.3 3.5 1 7.05.35 1.4.85 2.6.6 1.2 1.4 2.3 1.55.4 3.05.3 1.2-.15 2.8-.95 1.5-.7 2.65-2.5 1.1-1.7 2-3.4 1-1.7 1.55-3.55.2-.5.2-.85.15-.3-.3-.6-.85-.65-1.65 0-.65.4-1.15.95-.5.55-1.1 1.05-.25.4-.45.65-.15.25-.35.55 0-1.45 0-2.8.1-1.45 0-2.75 0-1.55-.1-3 0-1.5 0-2.85-.1-1.9-.15-3.75 0-1.85 0-3.7 0-2.6 0-5.2 0-2.6.05-5.3.1-2.8.3-5.6.1-2.7.1-5.65.05-4.1.05-8.3 0-4.25-.05-8.3 0-2.9 0-5.8-.1-2.75-.2-5.65z" fill="#fff"/>
            </g>
        </g>
    </g>
    <g transform="matrix(.59083557 0 0 .59083557 272.75 253.6)">
        <g>
            <g id="S_mbolo_30_0_Layer0_0_FILL">
                <path d="m40.95 276.55 117.25 106 126.7-158.85-63.2 16.15 38.8-187.05-260.5-52.8 90.35 261.1zm116.35 95.2-101.8-92.05 44.3-13.8-88.6-256.05 240.55 48.75-39.7 191.3 53.35-13.65zm-91.7-89.85 91.05 82.4 95.15-119.3-46.45 11.9 40.35-194.35-226.75-45.9 87.4 252.5zm101-230.05q1.05.75 1.75 1.95 1.3 2.75 1.9 5.65.4 2.95.5 5.95.1 2.9.2 5.65 0 2.9 0 5.8.05 4.05.05 8.3 0 4.2-.05 8.3 0 2.95-.1 5.65-.2 2.8-.3 5.6-.05 2.7-.05 5.3 0 2.6 0 5.2 0 1.85 0 3.7.05 1.85.15 3.75 0 1.35 0 2.85.1 1.45.1 3 .1 1.3 0 2.75 0 1.35 0 2.8.2-.3.35-.55.2-.25.45-.65.6-.5 1.1-1.05.5-.55 1.15-.95.8-.65 1.65 0 .45.3.3.6 0 .35-.2.85-.55 1.85-1.55 3.55-.9 1.7-2 3.4-1.15 1.8-2.65 2.5-1.6.8-2.8.95-1.5.1-3.05-.3-.8-1.1-1.4-2.3-.5-1.2-.85-2.6-.7-3.55-1-7.05-.3-3.5-.35-7.1-.2-3.3-.25-6.4-.2-3.25-.2-6.6 0-4.45.05-8.95 0-4.5.15-9.1.05-4.15 0-8.3 0-4.25.05-8.45.05-3.6.25-7.1.2-3.6.3-7.2.1-1.85.3-3.55.15-1.65.8-3.3.45-1.15 1.15-2.35.35-.45.8-.65.45-.2.95-.2 1.35-.05 2.35.65m22.45 35.95q1.55-1.75 3.25-3.15 1.8-1.45 3.8-2.55 1.85-1 3.7-1.5 1.85-.6 3.8-.7 2.2-.15 4.3.25 2.1.3 4.15 1.75.5.4.95.7.55.35 1.05.65 1.9 1.2 3.3 2.85 1.4 1.7 2.55 3.75 1.15 1.95 1.45 4.05.35 2.3-.1 4.65-1.55 7.55-7.2 12.85-1.55 1.65-3.3 3.2-1.7 1.5-3.6 2.8-2.65 1.7-5.65 2.85-2.85 1.05-6.15 1.15l-.55.15q.45 2.6 1.3 4.95.85 2.35 2.55 4.35 1.35 1.5 3.05 2.25 1.8.85 3.85.95.9.1 1.55-.35.6-.4 1.25-.9 1.4-1.15 2.6-2.6 1.15-1.45 2.15-3.05 1.35-2.15 2.5-4.3 1.2-2.15 2.1-4.5.5-1.15 1.15-1.85.6-.75 1.9-.95.7 0 1.25.35.45.3.7.7.2.6-.2 1.5-1.15 2.6-2.4 5.1-1.15 2.4-2.55 4.9-1.2 2.4-2.8 4.55-1.5 2.25-3.3 4.2-2.65 3.25-6.05 4.8-3.35 1.6-7.75 1.1-4.65-.45-7.8-2.85-3.3-2.35-5.35-6.4-1.45-3-2.35-5.9-.8-3.05-1.05-6.3-.4-2.5-.35-4.95 0-2.4.15-4.95.2-2.6.5-5.05.5-2.55 1.2-5.1 1.1-3.55 2.55-6.95 1.45-3.45 3.9-6.5m-4.5 83.65q1 .1 1.95.2 1.1.1 2.2.25 8.25.85 15 1.65-3 25.75-.3 49.25-10.9-.65-19.6-1.55-6.95-.75-14.55-1.7-6.15-18.05-9.15-38.35l-.15-1.15-1.2.15q-6.65.95-14.85 2.25-.15.05-.25.05 1.3-6.65 2.4-13.6.15-1.45.4-2.85 4.55.85 10.25 1.8 1.45.2 3.05.5.5.05 1 .15.2-.6 1.05-2.75 1.45-3.8 2.75-5.75 2.85-4 4.95-3.15.6.25 1.15.85.3-.4.55-.75.8-1.1 1.8-1.95 2.15-1.9 4.25-1.9 2.4 0 4.65 2.5 2.3 2.45 2.55 9.95.15 4.8.1 5.9m-99.7-110.55q.95.15 1.95.45 2.3.6 4.25 1.75 2.05 1.25 3.7 2.95.75.65 1.25 1.35.45.7 1.1 1.45.45.45.9.95.5.55.8 1 .7.95 1.35 2 .75.95 1.25 2 .45.75.4 1.2-.15.55-.7.95-1.3 1.1-2.55.35-.8-.6-1.55-1.1-.75-.65-1.5-1.25-1.25-1.1-2.7-1.85-1.4-.7-2.95-.95-2.55-.4-4.85.05-2.3.45-4.35 2.1-2.9 2.25-2 5.15.3.95 1.05 1.6.7.6 1.55 1.05 1.45.9 2.85 1.6 1.45.75 2.85 1.65 4.25 2.45 7.45 6.15 1.3 1.45 2.3 2.9 1.2 1.4 2.1 2.95 1.1 1.95 2.15 3.85 1.1 1.95 1.6 4.15.65 1.9 1.2 3.65.65 1.9.75 3.85.75 6.05-.35 11.75-.6 3.25-1.9 5.9-1.35 2.75-3.4 5.35-.25.5-.85 1.05-2.45 2-5.1 3.3-2.6 1.45-5.75 2.2-4.2.85-7.9 0-3.65-1-6.95-3.6-.85-.8-1.8-1.65-.8-.8-1.55-1.7-1.3-1.4-1.85-3.1-.75-1.65-1.4-3.4-1.15-3-1.2-6.25 0-1.3.1-2.65.2-1.35.25-2.65 0-.2.35-.6.3-.6.85-.9.65-.25 1.15-.35.65-.15 1.3 0 .45.2.55.55.15.25.15.85 0 1.5 0 3.05 0 1.5 0 3.1.1 2.6 1 4.8.95 2.3 2.55 4.4 1 1.3 2.85 1.85 3.35 1.2 6.5.55 3.05-.65 6.05-2.55.65-.5 1.25-1 .5-.5 1.1-1.1 1.4-1.4 1.95-3.3.5-1.75.65-3.75.2-3.4-.3-6.7-.45-3.25-1.75-6.4-.7-1.95-1.55-3.8-.9-2.05-2.35-3.65-.7-.85-1.55-1.55-.75-.85-1.6-1.6-1.95-1.65-4.05-3.1-2-1.55-4.35-2.75-1.65-.7-3.25-1.65-1.65-.95-3-2.25-1.3-1.35-2.6-2.85-1.15-1.55-1.95-3.45-1.15-2.85-.95-6.3.05-2 .65-3.9.5-2 1.65-3.7 3.55-5.7 10.15-8 3.2-1.05 6.65-.7.95.1 1.9.25m37.5 33.5q2.45-1.8 5.3-3.2 3-1.5 6-2.35 2.9-.9 6.05-1.45.2 0 .3 0 .15-.1.25-.1.5-1.5.85-2.85.45-1.4.95-2.8.15-.75.8-1 .55-.25 1.45-.05 1.5.05 2.2 1.25.85 1.1.9 2.15.4 1.4.3 2.85-.2 1.4-.3 2.85-.15 3.65-.25 7.2-.2 3.6.2 7.1.35 4.55 1.05 8.85.7 4.4 1.6 8.85.55 2.6 1.25 5.2.65 2.6 1.35 5.2.4 1.4.85 2.85.4 1.35 1 2.85 0 .2.1.85.15.8-.1 1.3-.4.6-1 1.15-.45.45-1.1.75-.5.25-1.1.55-.7.3-1.3.4-.65.15-1.35-.1-.55-.15-1.2-.6-.65-.35-1.2-1-1.85-2.6-2.8-5.5-1-3-1.7-6.05-.4-1.9-.7-3.75-.25-1.95-.45-3.85-.4-3-.75-5.75-.25-2.9-.65-5.85 0-.85-.05-1.6 0-.7-.15-1.65-.55.65-.95 1.25-.35.6-.65 1.15-1.05 3-2.6 5.8-1.3 2.8-2.85 5.55-.6 1.15-1.2 2.45-.45 1.2-1.15 2.2-.4.95-1 1.7-.5.7-1 1.45-1.4 1.75-2.9 3.05-1.45 1.4-3.4 2.45-3.1 1.5-6.45 1.25-1.65-.05-2.8-1-1.15-.8-2.1-2.1-.95-1.3-1.4-2.75-.45-1.5-.65-3.05-.4-2.95-.15-5.8.25-3 .9-5.85.4-2.15 1.05-4.2.55-2.1 1.65-4 2.3-4.55 6.15-8.25 2.35-2.2 4.9-4m-10.25 93.6q1.45-.15 3.1-.3.45-.05 1-.15 0-.55.3-2.9.4-4 1.2-6.25 1.65-4.6 3.95-4.3.6.05 1.3.5.2-.45.35-.9.5-1.25 1.2-2.3 1.6-2.35 3.65-2.95 2.3-.6 5.15 1.2 2.8 1.8 4.95 9 1.45 4.6 1.7 5.65.95-.2 1.9-.35.2-.05.35-.05.6-.1 1.25-.2.3-.05.6-.1 8.2-1.3 14.9-2.25 3 20.1 8.95 38 .2.65.45 1.25 1.4 4.25 3.05 8.4-10.7 2.2-19.3 3.55-15.75 2.5-35.45 4.6-7.25.75-12.3.8.05-2.4 0-5.1 0-3.05-.05-6.35-.35-16.65-2.25-34.7-.2-1.45-.35-2.85 4.65-.4 10.4-.95m12.85-9.15q0 .5 0 1.05-.15 3.25.5 6.5 1.55-.25 3.2-.45-.45-1.65-.85-2.65-.9-2.15-2.85-4.45m11.15 6q.15-1.05-1-5.15-1.15-4.15-2.45-6.1-1.3-1.95-2.55-1.85-3.35.4-4.55 3.95-.15.35-.2.75 1.7 1.6 3.6 4.9 1.35 2.35 2.1 4.25 2.45-.35 5.05-.75m-14.7-8.6q-1.7.2-2.8 4.9-.85 3.45-.7 6.2 2.25-.25 4.4-.55-.3-3.5-.3-3.55-.35-3.15.3-6.4.05-.15.1-.3-.6-.3-1-.3m15.45-82.85q-2.15 1.1-4.25 2.35-2.15 1.25-4.1 2.65-1.6 1.3-3 2.55-1.4 1.35-2.2 3.05-.4.8-.85 1.6-.3.75-.7 1.5-.45 1.4-.85 2.6-.45 1.4-.85 2.75-.25 1.15-.3 2.3-.2 1.15-.35 2.45-.25 1.95-.25 4.05.15 1.95.45 3.95.15.7.4 1.4.2.75.6 1.25h.35q.35-.2.55-.25 3.45-2.1 5.3-5.6.55-.95 1-2 .45-1.1 1.05-2.1 1-2 2.2-3.75 1.25-1.9 1.95-4.05.65-1.6 1.35-3.2.8-1.55 1.5-3.15.8-2.1 1.7-4.15.85-2.05 1.4-4.25.2-.7.4-1.3.1-.7-.1-1.45-.75.1-1.25.35-.65.2-1.15.45m34.35 69.95q-1 3.1-1.2 6.4 1.55.15 3.2.35 0-1.65-.1-2.75-.3-2.25-1.6-5-.15.45-.3 1m-1.75-3.65q.1-.1.15-.25-.45-.45-.85-.55-1.7-.25-3.95 4-1.75 3.1-2.35 5.8 2.3.35 4.45.65.55-3.45.6-3.55.45-3.1 1.95-6.1m8.85-2.9q-3.35-.5-5.4 2.65-.25.3-.4.65 1.25 2 2.2 5.65.7 2.65.95 4.65 2.45.3 5.05.6.4-.95.35-5.25-.05-4.25-.75-6.5-.8-2.25-2-2.45m22.05-63.6q-1.7 1.85-2.85 4.15-1.95 3.9-2.8 8.4-.55 2.35-.75 4.8-.1 2.3-.05 4.75.05.75.2 1.3.05.65.15 1.4.8-.1 1.4-.2.65-.1 1.3-.3 2.15-.45 4.05-1.3 1.95-1 3.65-2.25 1.35-1.1 2.7-2.15 1.25-1.1 2.4-2.3 2.6-2.2 4.05-5.2 1.55-2.9 2.05-6.2.3-1.6 0-3-.35-1.3-1.35-2.5-1.95-2.3-4.6-3.05-2.6-.7-5.4.6-2.35 1.15-4.15 3.05z" fill="#c69"/>
                <path d="m55.5 279.7 101.8 92.05 108.1-135.5-53.35 13.65 39.7-191.3-240.55-48.75 88.6 256.05zm101.15 84.6-91.05-82.4 40.75-12.75-87.4-252.5 226.75 45.9-40.35 194.35 46.45-11.9zm-41.45-176.6q-1.65.15-3.1.3-5.75.55-10.4.95.15 1.4.35 2.85 1.9 18.05 2.25 34.7.05 3.3.05 6.35.05 2.7 0 5.1 5.05-.05 12.3-.8 19.7-2.1 35.45-4.6 8.6-1.35 19.3-3.55-1.65-4.15-3.05-8.4-.25-.6-.45-1.25-5.95-17.9-8.95-38-6.7.95-14.9 2.25-.3.05-.6.1-.65.1-1.25.2-.15 0-.35.05-.95.15-1.9.35-.25-1.05-1.7-5.65-2.15-7.2-4.95-9-2.85-1.8-5.15-1.2-2.05.6-3.65 2.95-.7 1.05-1.2 2.3-.15.45-.35.9-.7-.45-1.3-.5-2.3-.3-3.95 4.3-.8 2.25-1.2 6.25-.3 2.35-.3 2.9-.55.1-1 .15m3.4-6.55q1.1-4.7 2.8-4.9.4 0 1 .3-.05.15-.1.3-.65 3.25-.3 6.4 0 .05.3 3.55-2.15.3-4.4.55-.15-2.75.7-6.2m16.5-1.45q1.15 4.1 1 5.15-2.6.4-5.05.75-.75-1.9-2.1-4.25-1.9-3.3-3.6-4.9.05-.4.2-.75 1.2-3.55 4.55-3.95 1.25-.1 2.55 1.85 1.3 1.95 2.45 6.1m-10.15.2q0-.55 0-1.05 1.95 2.3 2.85 4.45.4 1 .85 2.65-1.65.2-3.2.45-.65-3.25-.5-6.5m2.7-88.7q-2.85 1.4-5.3 3.2-2.55 1.8-4.9 4-3.85 3.7-6.15 8.25-1.1 1.9-1.65 4-.65 2.05-1.05 4.2-.65 2.85-.9 5.85-.25 2.85.15 5.8.2 1.55.65 3.05.45 1.45 1.4 2.75.95 1.3 2.1 2.1 1.15.95 2.8 1 3.35.25 6.45-1.25 1.95-1.05 3.4-2.45 1.5-1.3 2.9-3.05.5-.75 1-1.45.6-.75 1-1.7.7-1 1.15-2.2.6-1.3 1.2-2.45 1.55-2.75 2.85-5.55 1.55-2.8 2.6-5.8.3-.55.65-1.15.4-.6.95-1.25.15.95.15 1.65.05.75.05 1.6.4 2.95.65 5.85.35 2.75.75 5.75.2 1.9.45 3.85.3 1.85.7 3.75.7 3.05 1.7 6.05.95 2.9 2.8 5.5.55.65 1.2 1 .65.45 1.2.6.7.25 1.35.1.6-.1 1.3-.4.6-.3 1.1-.55.65-.3 1.1-.75.6-.55 1-1.15.25-.5.1-1.3-.1-.65-.1-.85-.6-1.5-1-2.85-.45-1.45-.85-2.85-.7-2.6-1.35-5.2-.7-2.6-1.25-5.2-.9-4.45-1.6-8.85-.7-4.3-1.05-8.85-.4-3.5-.2-7.1.1-3.55.25-7.2.1-1.45.3-2.85.1-1.45-.3-2.85-.05-1.05-.9-2.15-.7-1.2-2.2-1.25-.9-.2-1.45.05-.65.25-.8 1-.5 1.4-.95 2.8-.35 1.35-.85 2.85-.1 0-.25.1-.1 0-.3 0-3.15.55-6.05 1.45-3 .85-6 2.35m4.95 4.55q2.1-1.25 4.25-2.35.5-.25 1.15-.45.5-.25 1.25-.35.2.75.1 1.45-.2.6-.4 1.3-.55 2.2-1.4 4.25-.9 2.05-1.7 4.15-.7 1.6-1.5 3.15-.7 1.6-1.35 3.2-.7 2.15-1.95 4.05-1.2 1.75-2.2 3.75-.6 1-1.05 2.1-.45 1.05-1 2-1.85 3.5-5.3 5.6-.2.05-.55.25h-.35q-.4-.5-.6-1.25-.25-.7-.4-1.4-.3-2-.45-3.95 0-2.1.25-4.05.15-1.3.35-2.45.05-1.15.3-2.3.4-1.35.85-2.75.4-1.2.85-2.6.4-.75.7-1.5.45-.8.85-1.6.8-1.7 2.2-3.05 1.4-1.25 3-2.55 1.95-1.4 4.1-2.65m-45.8-34.4q-1-.3-1.95-.45-.95-.15-1.9-.25-3.45-.35-6.65.7-6.6 2.3-10.15 8-1.15 1.7-1.65 3.7-.6 1.9-.65 3.9-.2 3.45.95 6.3.8 1.9 1.95 3.45 1.3 1.5 2.6 2.85 1.35 1.3 3 2.25 1.6.95 3.25 1.65 2.35 1.2 4.35 2.75 2.1 1.45 4.05 3.1.85.75 1.6 1.6.85.7 1.55 1.55 1.45 1.6 2.35 3.65.85 1.85 1.55 3.8 1.3 3.15 1.75 6.4.5 3.3.3 6.7-.15 2-.65 3.75-.55 1.9-1.95 3.3-.6.6-1.1 1.1-.6.5-1.25 1-3 1.9-6.05 2.55-3.15.65-6.5-.55-1.85-.55-2.85-1.85-1.6-2.1-2.55-4.4-.9-2.2-1-4.8 0-1.6 0-3.1 0-1.55 0-3.05 0-.6-.15-.85-.1-.35-.55-.55-.65-.15-1.3 0-.5.1-1.15.35-.55.3-.85.9-.35.4-.35.6-.05 1.3-.25 2.65-.1 1.35-.1 2.65.05 3.25 1.2 6.25.65 1.75 1.4 3.4.55 1.7 1.85 3.1.75.9 1.55 1.7.95.85 1.8 1.65 3.3 2.6 6.95 3.6 3.7.85 7.9 0 3.15-.75 5.75-2.2 2.65-1.3 5.1-3.3.6-.55.85-1.05 2.05-2.6 3.4-5.35 1.3-2.65 1.9-5.9 1.1-5.7.35-11.75-.1-1.95-.75-3.85-.55-1.75-1.2-3.65-.5-2.2-1.6-4.15-1.05-1.9-2.15-3.85-.9-1.55-2.1-2.95-1-1.45-2.3-2.9-3.2-3.7-7.45-6.15-1.4-.9-2.85-1.65-1.4-.7-2.85-1.6-.85-.45-1.55-1.05-.75-.65-1.05-1.6-.9-2.9 2-5.15 2.05-1.65 4.35-2.1 2.3-.45 4.85-.05 1.55.25 2.95.95 1.45.75 2.7 1.85.75.6 1.5 1.25.75.5 1.55 1.1 1.25.75 2.55-.35.55-.4.7-.95.05-.45-.4-1.2-.5-1.05-1.25-2-.65-1.05-1.35-2-.3-.45-.8-1-.45-.5-.9-.95-.65-.75-1.1-1.45-.5-.7-1.25-1.35-1.65-1.7-3.7-2.95-1.95-1.15-4.25-1.75m99.7 110.3q-.95-.1-1.95-.2.05-1.1-.1-5.9-.25-7.5-2.55-9.95-2.25-2.5-4.65-2.5-2.1 0-4.25 1.9-1 .85-1.8 1.95-.25.35-.55.75-.55-.6-1.15-.85-2.1-.85-4.95 3.15-1.3 1.95-2.75 5.75-.85 2.15-1.05 2.75-.5-.1-1-.15-1.6-.3-3.05-.5-5.7-.95-10.25-1.8-.25 1.4-.4 2.85-1.1 6.95-2.4 13.6.1 0 .25-.05 8.2-1.3 14.85-2.25l1.2-.15.15 1.15q3 20.3 9.15 38.35 7.6.95 14.55 1.7 8.7.9 19.6 1.55-2.7-23.5.3-49.25-6.75-.8-15-1.65-1.1-.15-2.2-.25m-13.6-12.2q2.05-3.15 5.4-2.65 1.2.2 2 2.45.7 2.25.75 6.5.05 4.3-.35 5.25-2.6-.3-5.05-.6-.25-2-.95-4.65-.95-3.65-2.2-5.65.15-.35.4-.65m-3.3 0q-.05.15-.15.25-1.5 3-1.95 6.1-.05.1-.6 3.55-2.15-.3-4.45-.65.6-2.7 2.35-5.8 2.25-4.25 3.95-4 .4.1.85.55m.4 10.3q.2-3.3 1.2-6.4.15-.55.3-1 1.3 2.75 1.6 5 .1 1.1.1 2.75-1.65-.2-3.2-.35m22.3-85.1q-1.7 1.4-3.25 3.15-2.45 3.05-3.9 6.5-1.45 3.4-2.55 6.95-.7 2.55-1.2 5.1-.3 2.45-.5 5.05-.15 2.55-.15 4.95-.05 2.45.35 4.95.25 3.25 1.05 6.3.9 2.9 2.35 5.9 2.05 4.05 5.35 6.4 3.15 2.4 7.8 2.85 4.4.5 7.75-1.1 3.4-1.55 6.05-4.8 1.8-1.95 3.3-4.2 1.6-2.15 2.8-4.55 1.4-2.5 2.55-4.9 1.25-2.5 2.4-5.1.4-.9.2-1.5-.25-.4-.7-.7-.55-.35-1.25-.35-1.3.2-1.9.95-.65.7-1.15 1.85-.9 2.35-2.1 4.5-1.15 2.15-2.5 4.3-1 1.6-2.15 3.05-1.2 1.45-2.6 2.6-.65.5-1.25.9-.65.45-1.55.35-2.05-.1-3.85-.95-1.7-.75-3.05-2.25-1.7-2-2.55-4.35-.85-2.35-1.3-4.95l.55-.15q3.3-.1 6.15-1.15 3-1.15 5.65-2.85 1.9-1.3 3.6-2.8 1.75-1.55 3.3-3.2 5.65-5.3 7.2-12.85.45-2.35.1-4.65-.3-2.1-1.45-4.05-1.15-2.05-2.55-3.75-1.4-1.65-3.3-2.85-.5-.3-1.05-.65-.45-.3-.95-.7-2.05-1.45-4.15-1.75-2.1-.4-4.3-.25-1.95.1-3.8.7-1.85.5-3.7 1.5-2 1.1-3.8 2.55m5.2 12.7q1.15-2.3 2.85-4.15 1.8-1.9 4.15-3.05 2.8-1.3 5.4-.6 2.65.75 4.6 3.05 1 1.2 1.35 2.5.3 1.4 0 3-.5 3.3-2.05 6.2-1.45 3-4.05 5.2-1.15 1.2-2.4 2.3-1.35 1.05-2.7 2.15-1.7 1.25-3.65 2.25-1.9.85-4.05 1.3-.65.2-1.3.3-.6.1-1.4.2-.1-.75-.15-1.4-.15-.55-.2-1.3-.05-2.45.05-4.75.2-2.45.75-4.8.85-4.5 2.8-8.4m-29.15-43.55q-.7-1.2-1.75-1.95-1-.7-2.35-.65-.5 0-.95.2-.45.2-.8.65-.7 1.2-1.15 2.35-.65 1.65-.8 3.3-.2 1.7-.3 3.55-.1 3.6-.3 7.2-.2 3.5-.25 7.1-.05 4.2-.05 8.45.05 4.15 0 8.3-.15 4.6-.15 9.1-.05 4.5-.05 8.95 0 3.35.2 6.6.05 3.1.25 6.4.05 3.6.35 7.1.3 3.5 1 7.05.35 1.4.85 2.6.6 1.2 1.4 2.3 1.55.4 3.05.3 1.2-.15 2.8-.95 1.5-.7 2.65-2.5 1.1-1.7 2-3.4 1-1.7 1.55-3.55.2-.5.2-.85.15-.3-.3-.6-.85-.65-1.65 0-.65.4-1.15.95-.5.55-1.1 1.05-.25.4-.45.65-.15.25-.35.55 0-1.45 0-2.8.1-1.45 0-2.75 0-1.55-.1-3 0-1.5 0-2.85-.1-1.9-.15-3.75 0-1.85 0-3.7 0-2.6 0-5.2 0-2.6.05-5.3.1-2.8.3-5.6.1-2.7.1-5.65.05-4.1.05-8.3 0-4.25-.05-8.3 0-2.9 0-5.8-.1-2.75-.2-5.65-.1-3-.5-5.95-.6-2.9-1.9-5.65z" fill="#fff"/>
            </g>
        </g>
    </g>
</svg>
