<svg height="400" preserveAspectRatio="none" viewBox="0 0 550 400" width="550" xmlns="http://www.w3.org/2000/svg" xmlns:xlink="http://www.w3.org/1999/xlink">
    <linearGradient id="Gradient_1" gradientUnits="userSpaceOnUse" spreadMethod="pad" x1="320.3" x2="320.3" y1="146.55" y2="261.35">
        <stop offset="0" stop-color="#ff6809"/>
        <stop offset=".98431372549" stop-color="#ffd92a"/>
    </linearGradient>
    <linearGradient id="Gradient_2" gradientUnits="userSpaceOnUse" spreadMethod="pad" x1="159.4125" x2="115.7875" y1="20.7" y2="267.5">
        <stop offset="0" stop-color="#fc0"/>
        <stop offset="1" stop-color="#db4a22"/>
    </linearGradient>
    <linearGradient id="Gradient_3" gradientUnits="userSpaceOnUse" spreadMethod="pad" x1="99.05" x2="68.05" y1="22.725" y2="156.575">
        <stop offset="0" stop-color="#fc0"/>
        <stop offset="1" stop-color="#fa7a16"/>
    </linearGradient>
    <linearGradient id="Gradient_4" gradientUnits="userSpaceOnUse" spreadMethod="pad" x1="146.8" x2="146.8" y1="3.325" y2="19.875">
        <stop offset="0" stop-color="#f90"/>
        <stop offset="1" stop-color="#f30"/>
    </linearGradient>
    <linearGradient id="Gradient_5" gradientUnits="userSpaceOnUse" spreadMethod="pad" x1="157.7" x2="157.7" y1="51.55" y2="-8.05">
        <stop offset="0" stop-color="#1c8e91"/>
        <stop offset="1" stop-color="#ff0"/>
    </linearGradient>
    <g>
        <g id="Layer0_0_FILL">
            <path d="m449.25 152.55q-12.4-37.55-44.1-61-31.2-23.1-70.75-23.45-39.25-.35-76.55 11.75-36.85 11.95-58.9 43.5-22.45 32.05-22.75 71.2-.35 40.45 23.5 72.5 8.95 12 23.25 16.85 27.35 9.15 67.05 10.55 39.65 1.4 79.35-5.1 39.7-6.5 61.3-21.7 21.55-15.2 25.1-38.95 5.8-38.75-6.5-76.15z" fill="url(#Gradient_1)"/>
        </g>
    </g>
    <g transform="matrix(.69857788 0 0 .74621582 219.95 129.4)">
        <g>
            <g id="Copia_de_S_mbolo_2_0_Layer0_0_FILL">
                <path d="m4.35 98.85q3.04726563-2.59628906 11.75-1.1 8.7515625 1.54589844 16.05-4.15 7.35019531-5.64570312 7.35-15.9 0-2.45-.2-4.5-.3 6.1-3.5 11.35-3.15 5.4-9.65 6.2-8.95.6-17.8 2.2-3.8.5-5.55 3.95-1.721875 3.24355469-2.4 6.7.95371094-2.15117187 3.95-4.75m250.3 31.55q.85 1.25.75 1.15-.24609375-.25839844-.45-.55 1.53574219 3.06640625 2.85 4.5 1.34804687 1.50078125 10.6 8.55 9.31074219 7.10546875 9.5 12.75.18378906 5.64121094-1.6 7.75 1.26835938-1.32480469 2.15-3.05 2.35-4.8.1-9.75-2.65-5.85-10.95-10.2-5.45-2.8-12.95-11.15m-22.7-93.7q3.18105469 1.86289063 4.8 7.75 1.62695313 5.89726563-2.65 12.5-4.28359375 6.59648438-5.75 9.35 6.54511719-8.99492187 9.8-14.45 3.31289063-5.41210937 1.15-11.6-2.10722656-6.19824219-9.35-8.3-7.24902344-2.09550781-13.45-.9-6.14960937 1.19746094-13.75 6.6l-4.35 2.95q-4.9 3.45-10.55 2.25-4.35097656-.7953125-5.25-5.75-.85585937-4.91894531 0-9.95.91601563-4.98105469-.75-10.65-1.67089844-5.66464844-6.6-6.7-11.8-2.75-20.8 5.35-6.2 5.5-11.8 11.5-5.85 6.45-13.55 4.1-1.9-.65-2.9-2.1-5-7.45-6.75-16.6-1.1-5.65-5.55-9.4-3.95-3.2-8.95-2.55-10.35 1.1-14.3 11.45-3.9 10-6.7 20.15-2.05 7.45-6.95 13-2.15 2.4-5.25 1.5-7.8-2.25-13.25-8.7-3-3.55-6.6-6-3-2-6.2.1 2.8-.74765625 4.95 1.4 2.15 2.1984375 5.65 7.5 3.5 5.35039063 5.75 7.3 3.55 3 7.5 3 8.7 0 13.15-7.1 2.85-4.55 5.35-15.7 2.65-11.7 4.75-15.65 3.85-7.15 11.45-7.15 3.9 0 6.35 5.1 1.5 3.1 4.1 11.3 2.75 7.55 6.35 11.25 5.05 5.1 13.35 5.1 5.7 0 10.7-3.7 3.3-2.5 7.85-8.15 5.1-6.45 7-8.15 4-3.7 8.1-3.7 2.69648438.00195313 4.55 3.75 1.86035156 3.74394531 1.65 15.45-.1 7 2.2 11.1 3.25 5.6 9.65 5.6 4.65 0 17.55-7.7 12.89492188-7.7453125 19-7.65 6.16308594.0859375 9.3 1.9m44.45 58.1q-1.55-1.6-3.85-2.65-16.1-7.5-33.9-9.9-5.05-.85-9.2-4.2-.7-.6-2.85-3 2.45 8.45 9 11.7 3.95 2 16.55 4.6 11.640625 2.35703125 20.05 6.7 8.41933594 4.33710938 8 10.4-.2734375 3.93339844-1.9 5.8.36113281-.23378906.7-.5.8-.75 1.15-1.7 3.55-9.6-3.75-17.25z" fill="#ff0"/>
                <path d="m272.2 98.05q-8.409375-4.34296875-20.05-6.7-12.6-2.6-16.55-4.6-6.55-3.25-9-11.7-2.55-2.8 1.5-8.45.1-.15.25-.3 1.46640625-2.75351562 5.75-9.35 4.27695313-6.60273437 2.65-12.5-1.61894531-5.88710937-4.8-7.75-3.13691406-1.8140625-9.3-1.9-6.10507812-.0953125-19 7.65-12.9 7.7-17.55 7.7-6.4 0-9.65-5.6-2.3-4.1-2.2-11.1.21035156-11.70605469-1.65-15.45-1.85351562-3.74804687-4.55-3.75-4.1 0-8.1 3.7-1.9 1.7-7 8.15-4.55 5.65-7.85 8.15-5 3.7-10.7 3.7-8.3 0-13.35-5.1-3.6-3.7-6.35-11.25-2.6-8.2-4.1-11.3-2.45-5.1-6.35-5.1-7.6 0-11.45 7.15-2.1 3.95-4.75 15.65-2.5 11.15-5.35 15.7-4.45 7.1-13.15 7.1-3.95 0-7.5-3-2.25-1.94960937-5.75-7.3-3.5-5.3015625-5.65-7.5-2.15-2.14765625-4.95-1.4h-.05q-6.25 3.7-8 10.95-1 3.95-.3 7.9 1.9 10.65 1.95 21.65 0 .55 0 1.1.2 2.05.2 4.5.00019531 10.25429688-7.35 15.9-7.2984375 5.69589844-16.05 4.15-8.70273437-1.49628906-11.75 1.1-2.99628906 2.59882813-3.95 4.75-.15039062.87382813-.25 1.75-.35 3.05.15 6.35.9 5.95 5.2 10.4 6.05 6.2 14.3 9.55 9.2 3.75 11.5 13.25 1.6 6.55-3.1 11.4-4.85 5.1-8.2 11.3-4.65 8.9 2 16.2 2.55 2.85 6.4 3.4 9.7 1.15 19.75.55 4.95-.2 8.1 3.1.95 1 .95 2.25.03789063 3.43261719-.55 6.75h25.95q-7.64433594-3.60917969-14.8-8.3-14.1-9.35-23.55-23.45-10.05-15.05-10.95-33-.9-17.1 3.65-33.75 4.65-17 15.75-30.6 10.95-13.25 26.7-20.55 14.7-6.8 30.7-8.5 9.85-1.2 19.7-1 5.7.1 11.4.65 16.1 2.05 31.4 7.8 15.3 5.8 28.35 15.15 14.45 10.3 23.05 25.7 8.95 15.9 8.05 34.05-.85 17.35-7.45 33.05-2.4 5.4-5.4 10.2-9.65 15.25-24.1 25.55-5.49140625 3.89882813-11.35 7h24.55q1.3953125-.9078125 3.05-1.5 4.95-1.8 8.95-.05 1.37402344.59375 2.5 1.55h38.2q-.10078125-.12519531-.2-.25-3.35-4.2-10.75-9.2l-4.5-3q-8.5-5.55-7.7-15.2.9-4.5 3.95-7.7 1.05-1.05 2.65-1.5 4.6-.8 9.3.4 4.1 1 8.85 3.7 4.25 2.4 9.05.6 2.25-.9 3.9-2.35.05253906-.04804687.1-.1.24648438-.22949219.45-.5.1265625-.07949219.2-.2 1.78378906-2.10878906 1.6-7.75-.18925781-5.64453125-9.5-12.75-9.25195313-7.04921875-10.6-8.55-1.31425781-1.43359375-2.85-4.5-1.39628906-1.85136719-.3-4 3.25-6.7 11.45-7.65 5.5-.9 10-3.6 1.13691406-.68222656 2.2-1.5 1.6265625-1.86660156 1.9-5.8.41933594-6.06289062-8-10.4z" fill="url(#Gradient_2)"/>
            </g>
        </g>
    </g>
    <g transform="matrix(.92053223 0 0 .98332214 233.55 152.5)">
        <g>
            <g id="Copia_de_S_mbolo_1_0_Layer0_0_FILL">
                <path d="m171.8 94.25q0 .85 0 1.65 2-6.9 2-14.15 0-10-1.55-18.5-.85-4.15-2.05-8.05-2.1-6.55-5.3-12.5-9.55-17.1-30.5-30.8-20.25-11.9-44.1-11.9-15.25 0-30.8 4.5-16.25 4.7-29.15 13.35-21.35 14.4-27.7 34.95 7.4-10.35 18.2-18.7 14.15-10.95 32.45-16.75 17.75-5.6 36.9-5.6 11.85 0 25.35 4.95 14.7 5.4 26.65 15.15 29.6 24.1 29.6 62.4z" fill="#ff0"/>
                <path d="m171.8 95.9q0-.8 0-1.65 0-38.3-29.6-62.4-11.95-9.75-26.65-15.15-13.5-4.95-25.35-4.95-19.15 0-36.9 5.6-18.3 5.8-32.45 16.75-10.8 8.35-18.2 18.7-2.65 8.65-2.65 18.4 0 31.45 17.15 52.25 21.75 26.35 66 26.35 15.15 0 31-4.75 16.15-4.9 29.25-13.6 14.05-9.3 21.85-21.4 4.4-6.85 6.55-14.15m-48.75-63.2q3.32792969 5.06738281 3.45 11.25.08027344 1.9921875-.2 4.1-.3 2-1.9 3.3-.16933594.12460938-.35.2-1.54921875 1.02011719-3.35.75-2.05-.3-3.3-1.9-1.3-1.7-1-3.7.65-4.8-1.75-8.55v-.05q-2.1-3.3-5.8-4.55h-.1q-3.55-1.3-6.8 0-2.87246094 1.21972656-4.6 4.05-.46660156.76582031-.85 1.65-.63125 1.37402344-1.9 2.15-.39824219.25703125-.9.45-1.95.75-3.8-.05-1.9-.85-2.65-2.8-.75-1.9.1-3.8.05-.1.1-.2 3.55-7.95 10.75-10.7 6.6-2.75 13.8-.25l.05.05q7 2.35 11 8.6m-7.75 27.55q-.45-.25-.45-.8 0-.55.45-1.05.45-.4 1.15-.5.6-.1 1.05.2.45.35.45.9 0 .55-.45.95-.45.4-1.05.5-.7.1-1.15-.2m4.85-1.85q0-.75.7-1.4.6-.6 1.5-.75.85-.1 1.55.3.6.45.6 1.15 0 .75-.6 1.4-.7.65-1.55.75-.9.15-1.5-.3-.7-.45-.7-1.15m-3.15 5.05q0-.35.35-.7.35-.35.8-.45.45-.05.8.2.35.25.35.6 0 .4-.35.75-.35.35-.8.4-.45.1-.8-.15-.35-.25-.35-.65m-32.05-6.9q1.65-1.3 3.15-.3-4.5 7.15-14.05 9.35-8.35 2-13.2-4.4-3.45-4.5-2.85-8.75 0-.05.15-.05 1.65 7 7.85 9.55 3.25 1.35 6.75.5 6.75-1.65 12.2-5.9m39.55 4.4q.35.3.35.7 0 .45-.35.8-.4.35-.9.45-.5.05-.9-.2-.35-.25-.35-.7 0-.4.35-.8.4-.3.9-.35.5-.1.9.1m2.95-4.45q0-.35.25-.6.25-.25.7-.3.4-.05.75.1.25.15.25.5 0 .4-.25.65-.35.3-.75.35-.45.05-.7-.15-.25-.15-.25-.55m-62.75-32.15q.05.05.1.1 3.7734375 3.67421875 4.6 9.5-.00527344.06132813 0 .1.2 1.6-.8 2.95-.5.65-1.15 1-.07480469.04609375-.15.1-.59785156.31152344-1.35.4-1.65.25-2.95-.75-1.35-1.05-1.55-2.65-.45-3.1-2.35-5.05l-.05-.05q-1.65-1.7-3.85-1.95-.05 0-.1 0-2.05-.3-3.6.8-.1 0-.1.05-1.18261719.85410156-1.85 2.3-.31132812.74101563-.5 1.65-.05.15-.1.3-.35 1.6-1.7 2.55-.18398437.11835938-.4.2-1.21035156.66054688-2.6.4-1.65-.35-2.55-1.7-.95-1.4-.6-3 .3-1.55.8-2.95 1.55-4.1 4.95-6.35 4-2.95 9.3-2.2h-.1q5 .5 8.65 4.25m-23.85 22.25q.35.3.35.65 0 .35-.35.6-.3.2-.7.15-.45-.05-.75-.4-.3-.3-.3-.65 0-.3.3-.55.3-.25.75-.15.4 0 .7.35m1.8-3.9q.4.45.4.9 0 .55-.4.8-.4.25-1 .15-.6-.05-.95-.45-.4-.4-.4-.9 0-.5.4-.75.35-.3.95-.2.6.05 1 .45m-29.55-1.55q.05-.05.05.8v.05l-.55-.6q.1 0 .5-.25m17.1.15q-.25-.25-.25-.6 0-.3.25-.45.3-.15.65-.1.4.05.65.3.2.2.2.55 0 .3-.2.5-.25.15-.65.1-.35-.05-.65-.3m7.5.1q.6.6.6 1.3 0 .65-.6 1-.6.45-1.35.3-.8-.1-1.4-.7-.6-.55-.6-1.25 0-.65.6-1.05.6-.35 1.4-.25.75.1 1.35.65m-3.35 3.6q.4-.2.8-.15.5.1.85.4.35.35.35.75 0 .4-.35.6-.35.2-.85.15-.4-.05-.8-.4-.3-.3-.3-.7 0-.4.3-.65z" fill="url(#Gradient_3)"/>
                <path d="m35.15 44.85q-.4-.05-.8.15-.3.25-.3.65 0 .4.3.7.4.35.8.4.5.05.85-.15.35-.2.35-.6 0-.4-.35-.75-.35-.3-.85-.4m3.15-2.15q0-.7-.6-1.3-.6-.55-1.35-.65-.8-.1-1.4.25-.6.4-.6 1.05 0 .7.6 1.25.6.6 1.4.7.75.15 1.35-.3.6-.35.6-1m-8.35-2q0 .35.25.6.3.25.65.3.4.05.65-.1.2-.2.2-.5 0-.35-.2-.55-.25-.25-.65-.3-.35-.05-.65.1-.25.15-.25.45m13.1 2.9q0-.45-.4-.9-.4-.4-1-.45-.6-.1-.95.2-.4.25-.4.75 0 .5.4.9.35.4.95.45.6.1 1-.15.4-.25.4-.8m-1.85 3.65q0-.35-.35-.65-.3-.35-.7-.35-.45-.1-.75.15-.3.25-.3.55 0 .35.3.65.3.35.75.4.4.05.7-.15.35-.25.35-.6m23.6-22.8q-.05-.05-.1-.1-3.65-3.75-8.65-4.25h.1q-5.3-.75-9.3 2.2-3.4 2.25-4.95 6.35-.5 1.4-.8 2.95-.35 1.6.6 3 .9 1.35 2.55 1.7 1.38964844.26054688 2.6-.4.21601563-.08164062.4-.2 1.35-.95 1.7-2.55.05-.15.1-.3.18867188-.90898437.5-1.65.66738281-1.44589844 1.85-2.3 0-.05.1-.05 1.55-1.1 3.6-.8.05 0 .1 0 2.2.25 3.85 1.95l.05.05q1.9 1.95 2.35 5.05.2 1.6 1.55 2.65 1.3 1 2.95.75.75214844-.08847656 1.35-.4.07519531-.05390625.15-.1.65-.35 1.15-1 1-1.35.8-2.95-.00527344-.03867187 0-.1-.8265625-5.82578125-4.6-9.5m62.9 31.45q-.25.25-.25.6 0 .4.25.55.25.2.7.15.4-.05.75-.35.25-.25.25-.65 0-.35-.25-.5-.35-.15-.75-.1-.45.05-.7.3m-2.85 5.75q0-.4-.35-.7-.4-.2-.9-.1-.5.05-.9.35-.35.4-.35.8 0 .45.35.7.4.25.9.2.5-.1.9-.45.35-.35.35-.8m-36.75-5.4q-1.5-1-3.15.3-5.45 4.25-12.2 5.9-3.5.85-6.75-.5-6.2-2.55-7.85-9.55-.15 0-.15.05-.6 4.25 2.85 8.75 4.85 6.4 13.2 4.4 9.55-2.2 14.05-9.35m29.25 6.5q-.35.35-.35.7 0 .4.35.65.35.25.8.15.45-.05.8-.4.35-.35.35-.75 0-.35-.35-.6-.35-.25-.8-.2-.45.1-.8.45m3.5-5.75q-.7.65-.7 1.4 0 .7.7 1.15.6.45 1.5.3.85-.1 1.55-.75.6-.65.6-1.4 0-.7-.6-1.15-.7-.4-1.55-.3-.9.15-1.5.75m-6 2.45q0 .55.45.8.45.3 1.15.2.6-.1 1.05-.5.45-.4.45-.95 0-.55-.45-.9-.45-.3-1.05-.2-.7.1-1.15.5-.45.5-.45 1.05m11.65-15.5q-.12207031-6.18261719-3.45-11.25-4-6.25-11-8.6l-.05-.05q-7.2-2.5-13.8.25-7.2 2.75-10.75 10.7-.05.1-.1.2-.85 1.9-.1 3.8.75 1.95 2.65 2.8 1.85.8 3.8.05.50175781-.19296875.9-.45 1.26875-.77597656 1.9-2.15.38339844-.88417969.85-1.65 1.72753906-2.83027344 4.6-4.05 3.25-1.3 6.8 0h.1q3.7 1.25 5.8 4.55v.05q2.4 3.75 1.75 8.55-.3 2 1 3.7 1.25 1.6 3.3 1.9 1.80078125.27011719 3.35-.75.18066406-.07539062.35-.2 1.6-1.3 1.9-3.3.28027344-2.1078125.2-4.1z" fill="#c63"/>
            </g>
        </g>
    </g>
    <g transform="matrix(1.02102661 0 0 1.02102661 148.25 259.6)">
        <g>
            <g id="Copia_de_S_mbolo_3_0_Layer0_0_FILL">
                <path d="m124.1 21.8q-.04609375.0171875-.1.05-.01953125.05234375 0 .15.09511719.61816406.1-.15z" fill="url(#Gradient_4)"/>
                <path d="m232.15 1.25q-4.14511719-.21894531-8.4-.4-5.1-.2-10.2-.3-5.55-.2-11.05-.3-5.9-.15-11.8-.2-6.25-.05-12.45-.05-6.1 0-12.15.05-5.85 0-11.7.05-5.65.05-11.3.1-5.4.05-10.75.15-5.15.05-10.3.2-4.95.1-9.85.25-2.01484375.04277344-4.05.1-2.64335937.06425781-5.3.15-4.88632812.18515625-9.75.35 4.69257813.94960938 15.2 2.75h.4q-.85 0-6.45.9-5.75.9-8.4 1.5-.4.4-.8.4 1.2.45 26.95 4.85v.4q-.45.1-22.95 3.4-21.6 3.15-22.55 3.45v.8q.8 0 23.45.95 19.659375.83476563 26.05 1.05.05390625-.0328125.1-.05v.05q1.21972656.03398438 1.95.05v.4q-1.6.4-23.2 4.15-21.55 3.7-23.1 3.85h-.4q.75.4 8.8.4 15.2 0 42-1.55 32.6-1.95 42.2-4.45 0-.1.05-.2.1-.2.3-.2-.45-.25-14.2-3.7-13.55-3.4-15.15-4.4 1.6-.3 38.05-3.55 38.15-3.35 43.65-4.05l.05-.2q.1-.2.35-.2-1.7-.6-15.75-2.5-13.95-1.8-14.4-1.9 9.55 0 19.8-.65 10.46738281-.69238281 17.05-1.9m-162.9 10.15q-3.03632812 0-7.9.95.98632813.29960938 2.1.65 1.7.5 5.7.5 3 0 6.45-.4 1.85-.25 4.45-.6-.7.05-4.35-.5-4-.6-6.45-.6m136.15 8.1q5.6-.9 9.1-1.15v-.2q-1.3-.2-10.1-.7-10.45-.6-17-.6-5.35 0-12.2.55-.55546875.04003906-1.1.05 3.13535156.39277344 7.55 1.1 9 1.45 13.5 1.45 6.8 0 10.25-.5m46.9-5.5q1.45 0 6.7-1 0-.1-.1-.25-.15-.1-.15-.25-1.25-.45-5.6-1.25-4.65-.85-6.35-.85-4.2 0-5.65.15-2.08769531.23203125-3.5.8 2.15996094.40273438 5.2 1.05 7.75 1.6 9.45 1.6z" fill="#ff0"/>
                <path d="m285.05 21.6q1.00761719-2.36875 1.15-5.05.05-.85 0-1.7v-.6q-.15-.55-.35-1.05-.15-.3-.25-.55-.7-1.4-2.15-2.35-3.55-2.35-7.65-3.4-6.25-1.7-12.55-2.7-6.7-1.05-13.45-1.65-6.1-.75-12.15-1-2.1765625-.12714844-4.4-.25-.51914062-.02832031-1.1-.05-6.58261719 1.20761719-17.05 1.9-10.25.65-19.8.65.45.1 14.4 1.9 14.05 1.9 15.75 2.5-.25 0-.35.2l-.05.2q-5.5.7-43.65 4.05-36.45 3.25-38.05 3.55 1.6 1 15.15 4.4 13.75 3.45 14.2 3.7-.2 0-.3.2-.05.1-.05.2-9.6 2.5-42.2 4.45-26.8 1.55-42 1.55-8.05 0-8.8-.4h.4q1.55-.15 23.1-3.85 21.6-3.75 23.2-4.15v-.4q-.73027344-.01601562-1.95-.05-.00488281.76816406-.1.15-.01953125-.09765625 0-.15-6.390625-.21523437-26.05-1.05-22.65-.95-23.45-.95v-.8q.95-.3 22.55-3.45 22.5-3.3 22.95-3.4v-.4q-25.75-4.4-26.95-4.85.4 0 .8-.4 2.65-.6 8.4-1.5 5.6-.9 6.45-.9h-.4q-10.50742187-1.80039062-15.2-2.75-1.69921875.08515625-3.4.15-4.1.2-8.15.4-3.85.2-7.65.45-7 .5-13.95 1-6 .6-12 1.2-5.7.75-11.4 1.5-4.15.7-8.25 1.4-5.6 1-11.2 2.25-4.75 1.1-9.4 2.8l-1.35.55v.05q-.05 0-.1.05-.45.2-.85.45-1.1.75-2.05 1.65-.65.6-.85 1.45-.35 1.85 1.25 2.9.37011719.27148437.75.5 1.20644531.78496094 2.6 1.35 2.45 1.15 5.2 2 6.1 2.05 12.5 3.6 4.55 1.15 9.1 2.1 6.3 1.5 12.75 3.1 2.5.65 5.05 1.45 1.4.4 1.95 1.5-.25.5-.6.9-1.1 1.05-2.6 1.65-2.55.9-5.15 1.5-4.6 1-9.25 1.95-7.6 1.4-15.25 2.8-7.35 1.35-14.4 3.3-2.85.8-5.3 2.35-1.2.75-1.1 2.2.3.35.7.65 1.5 1.1 3.5 1.55 2.05.5 4.05.9 2.7.45 5.4.85 7.4.95 14.85 1.6 11.1.9 22.35 1.55 7.1.4 14.2.75 7.7.4 15.4.55 9.25.2 18.5.2 17.9-.05 36-1.05 4-.4 8.05-.75 3.4-.6 5.65-3 .1-.55.05-1-.1-.6-.45-.95-2.85-2.7-6.8-3.85-10.9-3.25-22.3-5.3 1.05-.05 2.1-.1 6.4-.45 12.7-.8 6.45-.3 13-.6 5.7-.35 11.45-.5 6.5-.15 12.9-.55 6.9-.15 13.55-.45 5.9-.25 11.95-.5 5.2-.4 10.55-.5 5.9-.35 11.65-.65 7-.4 13.9-1.05 6.25-.6 12.55-1.2 6.7-.8 13.25-1.9 6.25-1.2 12.45-2.85 6.35-1.7 10.75-6.4 2.10175781-2.28574219 3.15-4.95m-26.05-8.6q-5.25 1-6.7 1-1.7 0-9.45-1.6-3.04003906-.64726562-5.2-1.05 1.41230469-.56796875 3.5-.8 1.45-.15 5.65-.15 1.7 0 6.35.85 4.35.8 5.6 1.25 0 .15.15.25.1.15.1.25m-44.5 5.35q-3.5.25-9.1 1.15-3.45.5-10.25.5-4.5 0-13.5-1.45-4.41464844-.70722656-7.55-1.1.54453125-.00996094 1.1-.05 6.85-.55 12.2-.55 6.55 0 17 .6 8.8.5 10.1.7zm-153.15-6q4.86367188-.95 7.9-.95 2.45 0 6.45.6 3.65.55 4.35.5-2.6.35-4.45.6-3.45.4-6.45.4-4 0-5.7-.5-1.11367187-.35039062-2.1-.65z" fill="url(#Gradient_5)"/>
            </g>
        </g>
    </g>
</svg>
