<svg height="400" preserveAspectRatio="none" viewBox="0 0 550 400" width="550" xmlns="http://www.w3.org/2000/svg" xmlns:xlink="http://www.w3.org/1999/xlink">
    <linearGradient id="Gradient_1" gradientUnits="userSpaceOnUse" spreadMethod="pad" x1="159.4125" x2="115.7875" y1="20.7" y2="267.5">
        <stop offset="0" stop-color="#fc0"/>
        <stop offset="1" stop-color="#db4a22"/>
    </linearGradient>
    <linearGradient id="Gradient_2" gradientUnits="userSpaceOnUse" spreadMethod="pad" x1="99.05" x2="68.05" y1="22.725" y2="156.575">
        <stop offset="0" stop-color="#fc0"/>
        <stop offset="1" stop-color="#fa7a16"/>
    </linearGradient>
    <linearGradient id="Gradient_3" gradientUnits="userSpaceOnUse" spreadMethod="pad" x1="64.25" x2="64.25" y1="38.35" y2="3.25">
        <stop offset="0" stop-color="#b00000"/>
        <stop offset="1" stop-color="#fd0000"/>
    </linearGradient>
    <linearGradient id="lg1">
        <stop offset="0" stop-color="#fff" stop-opacity=".486275"/>
        <stop offset="1" stop-color="#fff" stop-opacity=".14902"/>
    </linearGradient>
    <linearGradient id="Gradient_4" gradientUnits="userSpaceOnUse" spreadMethod="pad" x1="18.95" x2="18.95" xlink:href="#lg1" y1="-15.025" y2="30.225"/>
    <linearGradient id="Gradient_5" gradientUnits="userSpaceOnUse" spreadMethod="pad" x1="67.3125" x2="62.6875" xlink:href="#lg1" y1="-7.675" y2="32.775"/>
    <g transform="matrix(.96516418 0 0 1.03094482 124.6 107.45)">
        <g>
            <g id="S_mbolo_2_0_Layer0_0_FILL">
                <path d="m4.35 98.85q3.04726563-2.59628906 11.75-1.1 8.7515625 1.54589844 16.05-4.15 7.35019531-5.64570312 7.35-15.9 0-2.45-.2-4.5-.3 6.1-3.5 11.35-3.15 5.4-9.65 6.2-8.95.6-17.8 2.2-3.8.5-5.55 3.95-1.721875 3.24355469-2.4 6.7.95371094-2.15117187 3.95-4.75m250.6 32.15q1.53574219 3.06640625 2.85 4.5 1.34804687 1.50078125 10.6 8.55 9.31074219 7.10546875 9.5 12.75.18378906 5.64121094-1.6 7.75 1.26835938-1.32480469 2.15-3.05 2.35-4.8.1-9.75-2.65-5.85-10.95-10.2-5.45-2.8-12.95-11.15.85 1.25.75 1.15-.24609375-.25839844-.45-.55m-15.65-90.75q-2.10722656-6.19824219-9.35-8.3-7.24902344-2.09550781-13.45-.9-6.14960937 1.19746094-13.75 6.6l-4.35 2.95q-4.9 3.45-10.55 2.25-4.35097656-.7953125-5.25-5.75-.85585937-4.91894531 0-9.95.91601563-4.98105469-.75-10.65-1.67089844-5.66464844-6.6-6.7-11.8-2.75-20.8 5.35-6.2 5.5-11.8 11.5-5.85 6.45-13.55 4.1-1.9-.65-2.9-2.1-5-7.45-6.75-16.6-1.1-5.65-5.55-9.4-3.95-3.2-8.95-2.55-10.35 1.1-14.3 11.45-3.9 10-6.7 20.15-2.05 7.45-6.95 13-2.15 2.4-5.25 1.5-7.8-2.25-13.25-8.7-3-3.55-6.6-6-3-2-6.2.1 2.8-.74765625 4.95 1.4 2.15 2.1984375 5.65 7.5 3.5 5.35039063 5.75 7.3 3.55 3 7.5 3 8.7 0 13.15-7.1 2.85-4.55 5.35-15.7 2.65-11.7 4.75-15.65 3.85-7.15 11.45-7.15 3.9 0 6.35 5.1 1.5 3.1 4.1 11.3 2.75 7.55 6.35 11.25 5.05 5.1 13.35 5.1 5.7 0 10.7-3.7 3.3-2.5 7.85-8.15 5.1-6.45 7-8.15 4-3.7 8.1-3.7 2.69648438.00195313 4.55 3.75 1.86035156 3.74394531 1.65 15.45-.1 7 2.2 11.1 3.25 5.6 9.65 5.6 4.65 0 17.55-7.7 12.89492188-7.7453125 19-7.65 6.16308594.0859375 9.3 1.9 3.18105469 1.86289063 4.8 7.75 1.62695313 5.89726563-2.65 12.5-4.28359375 6.59648438-5.75 9.35 6.54511719-8.99492187 9.8-14.45 3.31289063-5.41210937 1.15-11.6m12.85 51.1q11.640625 2.35703125 20.05 6.7 8.41933594 4.33710938 8 10.4-.2734375 3.93339844-1.9 5.8.36113281-.23378906.7-.5.8-.75 1.15-1.7 3.55-9.6-3.75-17.25-1.55-1.6-3.85-2.65-16.1-7.5-33.9-9.9-5.05-.85-9.2-4.2-.7-.6-2.85-3 2.45 8.45 9 11.7 3.95 2 16.55 4.6z" fill="#ff0"/>
                <path d="m272.2 98.05q-8.409375-4.34296875-20.05-6.7-12.6-2.6-16.55-4.6-6.55-3.25-9-11.7-2.55-2.8 1.5-8.45.1-.15.25-.3 1.46640625-2.75351562 5.75-9.35 4.27695313-6.60273437 2.65-12.5-1.61894531-5.88710937-4.8-7.75-3.13691406-1.8140625-9.3-1.9-6.10507812-.0953125-19 7.65-12.9 7.7-17.55 7.7-6.4 0-9.65-5.6-2.3-4.1-2.2-11.1.21035156-11.70605469-1.65-15.45-1.85351562-3.74804687-4.55-3.75-4.1 0-8.1 3.7-1.9 1.7-7 8.15-4.55 5.65-7.85 8.15-5 3.7-10.7 3.7-8.3 0-13.35-5.1-3.6-3.7-6.35-11.25-2.6-8.2-4.1-11.3-2.45-5.1-6.35-5.1-7.6 0-11.45 7.15-2.1 3.95-4.75 15.65-2.5 11.15-5.35 15.7-4.45 7.1-13.15 7.1-3.95 0-7.5-3-2.25-1.94960937-5.75-7.3-3.5-5.3015625-5.65-7.5-2.15-2.14765625-4.95-1.4h-.05q-6.25 3.7-8 10.95-1 3.95-.3 7.9 1.9 10.65 1.95 21.65 0 .55 0 1.1.2 2.05.2 4.5.00019531 10.25429688-7.35 15.9-7.2984375 5.69589844-16.05 4.15-8.70273437-1.49628906-11.75 1.1-2.99628906 2.59882813-3.95 4.75-.15039062.87382813-.25 1.75-.35 3.05.15 6.35.9 5.95 5.2 10.4 6.05 6.2 14.3 9.55 9.2 3.75 11.5 13.25 1.6 6.55-3.1 11.4-4.85 5.1-8.2 11.3-4.65 8.9 2 16.2 2.55 2.85 6.4 3.4 9.7 1.15 19.75.55 4.95-.2 8.1 3.1.95 1 .95 2.25.1 9.05-3.95 17.3-4.15 8.7 1.6 16.1 6.8 8.7 17.5 6.6 2.35-.5 4.25-2.25 4.4-3.95 7.6-9.45.9-1.5 2.25-2.65 8.75-7.15 20.15-4.7 6.85 1.55 7.55 8.55 1.15 10.95 1.35 21.8.1 4.1 2.85 7.25 7.15 8 17.65 4.5 2.6-.8 4.05-2.65 7.55-9.25 10.85-20.8 2.7-9.05 10.5-13.65 4.5-2.6 9.6-1.15 3.55 1 5.8 6.2 1.75 4.1 2.35 9.45.3 2.55.85 8.4.8 5.1 2.75 7.75 3.7 5 9.8 6.15 5.75 1 10.85-1.75 5.4-2.8 7.15-8.2 2-6.2-1.45-13.65-1.05-2.25-4.3-7-7.2-10.1-.75-20.9 2.55-4.3 7.3-6 4.95-1.8 8.95-.05 4.05 1.75 6.15 6.65.95 2.15 4.15 11.85 2.35 7.2 4.4 9.95 2.55 3.35 10.2 3.85 7.15.3 11.25-1.9 4.25-2.35 6.25-6.8 1.05-2.2 2-7.1 1.7-8.15-3.9-15.2-3.35-4.2-10.75-9.2l-4.5-3q-8.5-5.55-7.7-15.2.9-4.5 3.95-7.7 1.05-1.05 2.65-1.5 4.6-.8 9.3.4 4.1 1 8.85 3.7 4.25 2.4 9.05.6 2.25-.9 3.9-2.35.05253906-.04804687.1-.1.24648438-.22949219.45-.5.1265625-.07949219.2-.2 1.78378906-2.10878906 1.6-7.75-.18925781-5.64453125-9.5-12.75-9.25195313-7.04921875-10.6-8.55-1.31425781-1.43359375-2.85-4.5-1.39628906-1.85136719-.3-4 3.25-6.7 11.45-7.65 5.5-.9 10-3.6 1.13691406-.68222656 2.2-1.5 1.6265625-1.86660156 1.9-5.8.41933594-6.06289062-8-10.4m-99.6-48.9q15.3 5.8 28.35 15.15 14.45 10.3 23.05 25.7 8.95 15.9 8.05 34.05-.85 17.35-7.45 33.05-2.4 5.4-5.4 10.2-9.65 15.25-24.1 25.55-15 10.65-32.65 15.35-11.4 3.2-23.05 3.45-3.75.15-7.5-.05-18.15-.55-35.4-6.2-15.2-5-28.7-13.85-14.1-9.35-23.55-23.45-10.05-15.05-10.95-33-.9-17.1 3.65-33.75 4.65-17 15.75-30.6 10.95-13.25 26.7-20.55 14.7-6.8 30.7-8.5 9.85-1.2 19.7-1 5.7.1 11.4.65 16.1 2.05 31.4 7.8z" fill="url(#Gradient_1)"/>
            </g>
        </g>
    </g>
    <g transform="matrix(1.26208496 0 0 1.34814453 142.6 145.1)">
        <g>
            <g id="Copia_de_S_mbolo_1_0_Layer0_0_FILL">
                <path d="m171.8 94.25q0 .85 0 1.65 2-6.9 2-14.15 0-10-1.55-18.5-.85-4.15-2.05-8.05-2.1-6.55-5.3-12.5-9.55-17.1-30.5-30.8-20.25-11.9-44.1-11.9-15.25 0-30.8 4.5-16.25 4.7-29.15 13.35-21.35 14.4-27.7 34.95 7.4-10.35 18.2-18.7 14.15-10.95 32.45-16.75 17.75-5.6 36.9-5.6 11.85 0 25.35 4.95 14.7 5.4 26.65 15.15 29.6 24.1 29.6 62.4z" fill="#ff0"/>
                <path d="m171.8 95.9q0-.8 0-1.65 0-38.3-29.6-62.4-11.95-9.75-26.65-15.15-13.5-4.95-25.35-4.95-19.15 0-36.9 5.6-18.3 5.8-32.45 16.75-10.8 8.35-18.2 18.7-2.65 8.65-2.65 18.4 0 31.45 17.15 52.25 21.75 26.35 66 26.35 15.15 0 31-4.75 16.15-4.9 29.25-13.6 14.05-9.3 21.85-21.4 4.4-6.85 6.55-14.15m-48.75-63.2q3.32792969 5.06738281 3.45 11.25.08027344 1.9921875-.2 4.1-.3 2-1.9 3.3-.16933594.12460938-.35.2-1.54921875 1.02011719-3.35.75-2.05-.3-3.3-1.9-1.3-1.7-1-3.7.65-4.8-1.75-8.55v-.05q-2.1-3.3-5.8-4.55h-.1q-3.55-1.3-6.8 0-2.87246094 1.21972656-4.6 4.05-.46660156.76582031-.85 1.65-.63125 1.37402344-1.9 2.15-.39824219.25703125-.9.45-1.95.75-3.8-.05-1.9-.85-2.65-2.8-.75-1.9.1-3.8.05-.1.1-.2 3.55-7.95 10.75-10.7 6.6-2.75 13.8-.25l.05.05q7 2.35 11 8.6m-7.75 27.55q-.45-.25-.45-.8 0-.55.45-1.05.45-.4 1.15-.5.6-.1 1.05.2.45.35.45.9 0 .55-.45.95-.45.4-1.05.5-.7.1-1.15-.2m4.85-1.85q0-.75.7-1.4.6-.6 1.5-.75.85-.1 1.55.3.6.45.6 1.15 0 .75-.6 1.4-.7.65-1.55.75-.9.15-1.5-.3-.7-.45-.7-1.15m-3.15 5.05q0-.35.35-.7.35-.35.8-.45.45-.05.8.2.35.25.35.6 0 .4-.35.75-.35.35-.8.4-.45.1-.8-.15-.35-.25-.35-.65m-31.3 10q2.65-1.05 5.1.2-7.3 6.4-22.75 7.05-13.5.65-21.35-6.55-5.6-5.05-4.65-9.2 0-.05.25 0 2.7 7.25 12.7 10.8 5.3 1.9 10.95 1.6 10.95-.55 19.75-3.9m38.8-12.5q.35.3.35.7 0 .45-.35.8-.4.35-.9.45-.5.05-.9-.2-.35-.25-.35-.7 0-.4.35-.8.4-.3.9-.35.5-.1.9.1m2.95-4.45q0-.35.25-.6.25-.25.7-.3.4-.05.75.1.25.15.25.5 0 .4-.25.65-.35.3-.75.35-.45.05-.7-.15-.25-.15-.25-.55m-62.75-32.15q.05.05.1.1 3.7734375 3.67421875 4.6 9.5-.00527344.06132813 0 .1.2 1.6-.8 2.95-.5.65-1.15 1-.07480469.04609375-.15.1-.59785156.31152344-1.35.4-1.65.25-2.95-.75-1.35-1.05-1.55-2.65-.45-3.1-2.35-5.05l-.05-.05q-1.65-1.7-3.85-1.95-.05 0-.1 0-2.05-.3-3.6.8-.1 0-.1.05-1.18261719.85410156-1.85 2.3-.31132812.74101563-.5 1.65-.05.15-.1.3-.35 1.6-1.7 2.55-.18398437.11835938-.4.2-1.21035156.66054688-2.6.4-1.65-.35-2.55-1.7-.95-1.4-.6-3 .3-1.55.8-2.95 1.55-4.1 4.95-6.35 4-2.95 9.3-2.2h-.1q5 .5 8.65 4.25m-23.85 22.25q.35.3.35.65 0 .35-.35.6-.3.2-.7.15-.45-.05-.75-.4-.3-.3-.3-.65 0-.3.3-.55.3-.25.75-.15.4 0 .7.35m1.8-3.9q.4.45.4.9 0 .55-.4.8-.4.25-1 .15-.6-.05-.95-.45-.4-.4-.4-.9 0-.5.4-.75.35-.3.95-.2.6.05 1 .45m-29.55-1.55q.05-.05.05.8v.05l-.55-.6q.1 0 .5-.25m17.1.15q-.25-.25-.25-.6 0-.3.25-.45.3-.15.65-.1.4.05.65.3.2.2.2.55 0 .3-.2.5-.25.15-.65.1-.35-.05-.65-.3m7.5.1q.6.6.6 1.3 0 .65-.6 1-.6.45-1.35.3-.8-.1-1.4-.7-.6-.55-.6-1.25 0-.65.6-1.05.6-.35 1.4-.25.75.1 1.35.65m-3.35 3.6q.4-.2.8-.15.5.1.85.4.35.35.35.75 0 .4-.35.6-.35.2-.85.15-.4-.05-.8-.4-.3-.3-.3-.7 0-.4.3-.65z" fill="url(#Gradient_2)"/>
                <path d="m35.15 44.85q-.4-.05-.8.15-.3.25-.3.65 0 .4.3.7.4.35.8.4.5.05.85-.15.35-.2.35-.6 0-.4-.35-.75-.35-.3-.85-.4m3.15-2.15q0-.7-.6-1.3-.6-.55-1.35-.65-.8-.1-1.4.25-.6.4-.6 1.05 0 .7.6 1.25.6.6 1.4.7.75.15 1.35-.3.6-.35.6-1m-8.35-2q0 .35.25.6.3.25.65.3.4.05.65-.1.2-.2.2-.5 0-.35-.2-.55-.25-.25-.65-.3-.35-.05-.65.1-.25.15-.25.45m13.1 2.9q0-.45-.4-.9-.4-.4-1-.45-.6-.1-.95.2-.4.25-.4.75 0 .5.4.9.35.4.95.45.6.1 1-.15.4-.25.4-.8m-1.85 3.65q0-.35-.35-.65-.3-.35-.7-.35-.45-.1-.75.15-.3.25-.3.55 0 .35.3.65.3.35.75.4.4.05.7-.15.35-.25.35-.6m23.6-22.8q-.05-.05-.1-.1-3.65-3.75-8.65-4.25h.1q-5.3-.75-9.3 2.2-3.4 2.25-4.95 6.35-.5 1.4-.8 2.95-.35 1.6.6 3 .9 1.35 2.55 1.7 1.38964844.26054688 2.6-.4.21601563-.08164062.4-.2 1.35-.95 1.7-2.55.05-.15.1-.3.18867188-.90898437.5-1.65.66738281-1.44589844 1.85-2.3 0-.05.1-.05 1.55-1.1 3.6-.8.05 0 .1 0 2.2.25 3.85 1.95l.05.05q1.9 1.95 2.35 5.05.2 1.6 1.55 2.65 1.3 1 2.95.75.75214844-.08847656 1.35-.4.07519531-.05390625.15-.1.65-.35 1.15-1 1-1.35.8-2.95-.00527344-.03867187 0-.1-.8265625-5.82578125-4.6-9.5m62.9 31.45q-.25.25-.25.6 0 .4.25.55.25.2.7.15.4-.05.75-.35.25-.25.25-.65 0-.35-.25-.5-.35-.15-.75-.1-.45.05-.7.3m-2.85 5.75q0-.4-.35-.7-.4-.2-.9-.1-.5.05-.9.35-.35.4-.35.8 0 .45.35.7.4.25.9.2.5-.1.9-.45.35-.35.35-.8m-34.05 12q-2.45-1.25-5.1-.2-8.8 3.35-19.75 3.9-5.65.3-10.95-1.6-10-3.55-12.7-10.8-.25-.05-.25 0-.95 4.15 4.65 9.2 7.85 7.2 21.35 6.55 15.45-.65 22.75-7.05m26.55-10.9q-.35.35-.35.7 0 .4.35.65.35.25.8.15.45-.05.8-.4.35-.35.35-.75 0-.35-.35-.6-.35-.25-.8-.2-.45.1-.8.45m3.5-5.75q-.7.65-.7 1.4 0 .7.7 1.15.6.45 1.5.3.85-.1 1.55-.75.6-.65.6-1.4 0-.7-.6-1.15-.7-.4-1.55-.3-.9.15-1.5.75m-6 2.45q0 .55.45.8.45.3 1.15.2.6-.1 1.05-.5.45-.4.45-.95 0-.55-.45-.9-.45-.3-1.05-.2-.7.1-1.15.5-.45.5-.45 1.05m11.65-15.5q-.12207031-6.18261719-3.45-11.25-4-6.25-11-8.6l-.05-.05q-7.2-2.5-13.8.25-7.2 2.75-10.75 10.7-.05.1-.1.2-.85 1.9-.1 3.8.75 1.95 2.65 2.8 1.85.8 3.8.05.50175781-.19296875.9-.45 1.26875-.77597656 1.9-2.15.38339844-.88417969.85-1.65 1.72753906-2.83027344 4.6-4.05 3.25-1.3 6.8 0h.1q3.7 1.25 5.8 4.55v.05q2.4 3.75 1.75 8.55-.3 2 1 3.7 1.25 1.6 3.3 1.9 1.80078125.27011719 3.35-.75.18066406-.07539062.35-.2 1.6-1.3 1.9-3.3.28027344-2.1078125.2-4.1z" fill="#c63"/>
            </g>
        </g>
    </g>
    <g transform="translate(148.8 14.55)">
        <g>
            <g id="S_mbolo_9_0_Layer0_0_FILL">
                <path d="m135.7 176.75q0 .05-.15.1.4.05.65.1-.25-.2-.5-.2z" fill="#fff"/>
                <path d="m160.45 182.05q-2.6-1.6-5.4-2.8l-.65-.25v.25q3.3 1.3 6.05 2.8m45.5-138.6q-.35.15-.65.3-.5.15-1 .25-.25 0-.5 0-.6-.1-1.15-.25-.25-.15-.5-.35-.2-.2-.35-.4-.2-.15-.4-.35-.2-.2-.3-.4-.15-.15-.2-.35-.05-.2-.1-.4 0-.15 0-.35 0-.3 0-.5l-.9 1.5q4.15 6.95 12 8.85.5.1 1.05.2-14.45 24.05-39.6 38.3-1.1.65-1.2 2.1-1.15 18.45 14.25 32.35 18.95 7.9 35.5 20.25 3.15 2.35 6.4 4.7-4.05-17.15-12.7-32.35-3.2-5.75-7.7-9.95-8.55-8.1-2-17.75 13.2-19.6 14.15-41.6-.1-.05-.15-.1-.25 0-.4.1-.15.1-.25.25-.15.2-.35.4-.15.2-.4.35-.45.35-.95.65-.4.05-.75.1-.25 0-.5 0-.55-.1-1.15-.25-.25-.15-.45-.35-.2-.2-.4-.4-.2-.15-.4-.35-.15-.2-.35-.4-.05-.15-.15-.35-.05-.2-.15-.35-.1-.2-.2-.4-.05-.2-.15-.4-.15 0-.3.1-.25.1-.45.3-.25.2-.5.4-.1.1-.25.2-.2.1-.35.1-.4.1-.75.15-.25 0-.5 0-.6-.1-1.15-.25-.25-.15-.5-.35-.2-.2-.35-.4-.2-.15-.4-.35-.2-.2-.35-.4-.1-.15-.15-.35-.05-.2-.15-.35-.1-.2-.2-.4-.1-.2-.15-.35-.1-.2-.25-.4-.1 0-.2.05z" fill="#900"/>
                <path d="m167.3 133.05q1.5-7.5.85-15.1-6.75-1.6-13.5-2.95-21.65-4.8-43.65-7.25-24-2.75-48-4.85-5 .15-9.95.3-24.25.9-47.4 7.65-5.45 25.5 4.4 48.85.75 1.75 1.75 3.5l2-29.95q30.6-1.5 60.65 6.6 29.2 8.05 58.75 15.25 10.6 2.7 21.1 6 9.9-12.45 13-28.05m76.5-124.05q-.25 0-.5-.05-.05 0-.15-.05-.05-.15-.1-.25-.15-.4-.25-.75-.05-.2-.15-.4-.05-.2-.1-.35-.05-.2-.15-.4-.1-.2-.25-.35-.15-.2-.35-.4-.2-.2-.4-.35-.3-.2-.6-.4-.5-.1-1-.25-.25-.05-.5-.1 0-.15-.05-.25-.15-.4-.3-.75-.1-.2-.2-.4-.1-.2-.2-.4-.05-.15-.15-.35-.1-.2-.25-.35-.15-.2-.35-.4-.2-.2-.4-.35-.3-.2-.6-.4-.5-.1-1-.2-.25-.05-.5-.05-.4.05-.75.15-.2.05-.4.05-.25.05-.5.05-.55-.3-1.15-.55-.85-.4-1.75-.65-.2-.05-.45-.05-.4.05-.75.15-.2.05-.4.1-.15.15-.35.3-.2.15-.4.35-.15.15-.35.35-.25.15-.5.15-.25.05-.5 0-.4-.2-.75-.4-.75-.35-1.55-.6-.95-.25-1.95-.4v.05q-.4.1-.75.1-.3.1-.65.25-.15.15-.35.35-.9-.1-1.75-.2-.5-.05-1 0-.4 0-.75.1-.2.05-.35.15-.2.1-.4.2-.45.2-.9.4-.15.15-.35.35-.2.2-.4.4-.1.15-.2.35-.1.2-.15.4 0 .15 0 .35-.25 0-.5 0-1.25-.1-2.5-.1-.7.05-1.4.25-.2.15-.35.35-.2.2-.4.4-.2.15-.35.35-.15.2-.25.4-.1.15-.15.35-.1.2-.25.35-.1.15-.25.3-.3-.1-.6-.1-1.25-.15-2.5-.15-.6 0-1.15.1-.2.15-.35.3-.2.15-.4.35-.2.15-.35.35-.1.2-.15.4-.05.15-.15.35-.1.2-.2.4-.1.15-.15.35-.55.15-1.1.25-.4.05-.75.15-.35.1-.65.25-.2.15-.35.35-.2.2-.35.4-.15.15-.3.35-.05.2-.05.4-.05.35-.05.75 0 .15 0 .35 0 .2 0 .4 0 .15 0 .35 0 .2 0 .4.05.15.15.35.1.2.15.4.05.15.05.35-.25.2-.5.4-.2.15-.35.35-.2.2-.4.4-.2.15-.3.4-.15.15-.2.35-.2.55-.15 1.1.05.4.05.75 0 .4 0 .75 0 .2 0 .4 0 .15 0 .35-.2.2-.4.4-.2.15-.3.4-.15.15-.2.35-.05.15-.1.35 0 .2 0 .4 0 .2 0 .35 0 .2 0 .4 0 .2 0 .35.05.2.1.4.05.2.15.35.1.2.2.4.1.2.2.35.1.2.2.4.2.2.4.35.15.2.35.4.15.2.25.35-.1.2-.25.35-.2.25-.35.4-.2.2-.4.4-.1.2-.2.4-.05.05-.05.15.8 1.15 1.8 2.15 6.05 6.15 16.85 6.15 17.1 0 30.8-16.15 1.35-1.55 2.55-3.2-.3-.2-.6-.35-.5-.25-.85-.55-.05-.05.05-.25.1-.2.15-.35.1-.2.1-.4.05-.2.05-.35 0-.2 0-.4 0-.2 0-.35 0-.2-.05-.4 0-.2-.1-.35-.05-.2-.15-.4-.1-.2-.2-.4-.05-.15-.15-.35-.1-.2-.2-.4-.1-.15-.15-.35-.2-.2-.4-.35-.3-.2-.6-.4-.5-.1-1-.2-.5-.05-1-.05z" fill="#ffc"/>
                <path d="m186.4 123.95-18.25-6q.65 7.6-.85 15.1-3.1 15.6-13 28.05-10.5-3.3-21.1-6-29.55-7.2-58.75-15.25-30.05-8.1-60.65-6.6l-2 29.95q-1-1.75-1.75-3.5-9.85-23.35-4.4-48.85-.4 0-.75.05-.6.15-1.1.4-.55.15-1.05.45-.45.3-.85.65-.45.4-.8.85-1.5 11.6-.95 23.1.6 13.05 4.35 25.55 2.05 6.8 6.8 12.3l10.9-11q19.1-2.9 38.45-2.4 25 .7 49.5 5.9 22.5 4.9 44.25 12.3l.65.25q14.75 3.95 28.6 10.45 20.6 9.7 37.55 25.05 2.75 2.55 5.85 3.05 22.1-1.5 28.75-24.55.75-2.55.15-4.85-6.2-24.3-27.65-39.5-3.25-2.35-6.4-4.7-16.55-12.35-35.5-20.25m63.4-105.7q0-.2 0-.35 0-.2 0-.4 0-.2-.05-.35 0-.2-.1-.4-.1-.2-.2-.4-.1-.15-.15-.35-.2-.2-.4-.35-1.2 1.65-2.55 3.2-13.7 16.15-30.8 16.15-10.8 0-16.85-6.15-1-1-1.8-2.15l-.05.05q-.1.05-.2.15-.05.2-.1.35-.1.15-.1.3l-.05.1q-.2.2-.3.4-.05.15-.05.35 0 .35 0 .75 0 .35 0 .75 0 .2 0 .35.05.2.1.4.2.2.4.35.35.15.75.25.15 0 .35 0 .1.1.2.2.1.15.2.3-.1.2-.15.4-.05.2-.1.35 0 .6 0 1.15 0 .35 0 .75 0 .35 0 .75 0 .2 0 .35.05.2.1.4.05.2.2.35.1.2.3.4.2.2.4.35.15.2.35.4.25.2.5.35.55.2 1.05.5.1.1.1.25 0 .6 0 1.15 0 .35 0 .75 0 .1 0 .25 0 .2 0 .5 0 .2 0 .35.05.2.1.4.05.2.2.35.1.2.3.4.2.2.4.35.15.2.35.4.25.2.5.35.55.15 1.15.25.25 0 .5 0 .5-.1 1-.25.3-.15.65-.3.1-.05.2-.05.15.2.25.4.05.15.15.35.1.2.2.4.1.15.15.35.05.2.15.35.15.2.35.4.2.2.4.35.15.2.35.4.25.2.5.35.55.15 1.15.25.25 0 .5 0 .35-.05.75-.15.15 0 .35-.1.15-.1.25-.2.25-.2.5-.4.2-.2.45-.3.15-.1.3-.1.1.2.15.4.1.2.2.4.1.15.15.35.1.2.15.35.2.2.35.4.2.2.4.35.2.2.4.4.2.2.45.35.6.15 1.15.25.25 0 .5 0 .35-.05.75-.1.5-.3.95-.65.25-.15.4-.35.2-.2.35-.4.1-.15.25-.25.15-.1.4-.1.05.05.15.1.3.15.6.3.25.15.5.35.25.2.5.35 1.6.15 3.15.2.35 0 .75-.05.25-.15.5-.3.25-.15.5-.35.2-.15.35-.35 1.45.25 2.9.4 1 .1 2-.05.3-.15.6-.4.2-.15.4-.35.05-.15.15-.35.1-.2.2-.4.1-.15.15-.35 0-.2 0-.4 0-.15 0-.35 0-.2 0-.4 0-.15 0-.35.5.05 1 .1.25 0 .5 0 .35-.05.75-.15.2 0 .35-.1.4-.3.75-.6.2-.2.4-.4.1-.15.25-.35.1-.2.2-.4.1-.15.15-.35.35-.05.65-.1.5-.05 1-.05.35-.05.75-.15.2 0 .35-.1.15-.1.3-.2.2-.2.45-.45.15-.15.25-.35.1-.15.15-.35.05-.2.1-.4.1-.15.15-.35 0-.2 0-.4 0-.15 0-.35 0-.2 0-.4.65-.7 1.5-1.3.7-.5 1.45-1 .55-.3 1.05-.7.05-.15.15-.35.1-.2.2-.4.1-.15.15-.35 0-.2 0-.4 0-.15 0-.35 0-.2-.05-.4 0-.15 0-.35 0-.2.05-.4.35-.35.75-.75.2-.15.35-.35.2-.2.4-.4.2-.15.35-.4.15-.15.25-.35.1-.15.15-.35.05-.2.1-.4.1-.15.1-.35.05-.2.05-.4 0-.15-.05-.35 0-.2-.1-.4-.05-.15-.1-.35-.05-.2-.1-.4-.05-.15-.05-.35.2-.2.4-.4.05-.15.15-.35.1-.2.2-.4.1-.15.15-.35.1-.2.2-.4.1-.15.15-.35.1-.2.15-.4 0-.15 0-.35 0-.2 0-.4 0-.15-.05-.35 0-.2-.1-.4-.1-.15-.2-.35-.1-.2-.15-.4-.2-.15-.35-.4-.15-.15-.3-.35.1-.15.15-.35.1-.2.2-.4.1-.2.15-.35.1-.2.1-.4.05-.2.05-.35.1-.2.2-.4.1-.2.15-.35.1-.2.15-.4z" fill="#fc6"/>
                <path d="m172.15 91.6q.1-1.45 1.2-2.1 25.15-14.25 39.6-38.3-.55-.1-1.05-.2-7.85-1.9-12-8.85-10.95 19.75-32.5 24.25-13.7 3.1-27.6 1-23.85-3.15-46.35 4.6-22.6 7.9-30.45 30.9 24 2.1 48 4.85 22 2.45 43.65 7.25 6.75 1.35 13.5 2.95l18.25 6q-15.4-13.9-14.25-32.35z" fill="#c00"/>
            </g>
        </g>
    </g>
    <g transform="matrix(2.00198364 .41741943 -.47053528 1.75613403 167.35 148.1)">
        <g>
            <g id="Gafas_de_sol_0_Layer1_0_FILL">
                <path d="m90.35 13.3q.25.1.6.25.2.05.45.15 1.5.6 2.9 1.35l.05.05q.6.25 1.15.6h.05q.3.15.55.35.05 0 .1.05.55.3 1.1.65.9.6 1.75 1.15.39082031.27070313.75.55.32207031-2.93242187-.3-5.75l-8.3-6.65z" fill="#900"/>
                <path d="m91.2 5.95.15-1.15q-17.45-2.65-32.4-3.8l-20.15-1q-.7 0-1.4 0l-4.55.05q-.25 0-.5 0-.65 0-1.2.05-2.6.05-4.95.05-10.05.2-14.9.8-1.15.15-2.4.4-1.75.3-3.65.7-3.3.8-5.25 1.15l.05.6q.02089844.29140625.05.55 1.92851562-.31914062 5.15-1.1 1.9-.4 3.65-.7 1.25-.25 2.4-.4 4.85-.6 14.9-.8 2.35 0 4.95-.05.55-.05 1.2-.05.25 0 .5 0l4.55-.05q.7 0 1.4 0l20.15 1q14.89042969 1.14550781 32.25 3.75z" fill="#fc0"/>
                <path d="m91.2 6.05v-.1q-17.35957031-2.60449219-32.25-3.75l-20.15-1q-.7 0-1.4 0l-4.55.05q-.25 0-.5 0-.65 0-1.2.05-2.6.05-4.95.05-10.05.2-14.9.8-1.15.15-2.4.4-1.75.3-3.65.7-3.22148438.78085938-5.15 1.1.08125 1.14140625.2 2.25.1 1.15.25 2.3.45 4.95 1.15 9.35 2.65 15.55 7.2 19.35.2.15.4.3 1.1.85 2.35.95.25 0 .55 0l13.25-1.1.9-.15q1.15-.25 2.2-.9 3.4-2.3 4.75-7.95 1.3-5.7 2.2-10.65l.55-3.85q.2-1.75.85-3.45 1.3-3.5 3.45-3.2 1.05.15 2.2 2.55 0 .05.05.1.2.4.35.85.8 1.7 1.2 3.4l4 17.9q.45 1.8 1.2 3.35 1.6 3.2 3.85 4.5 1.1.65 2.4.8 6.15.6 14.65 1.25 3.65.2 7.7.45l1.4.05q1.7-.05 3.2-.6 4.75-1.8 5.4-7.85.31210938-2.90410156.9-7.9l1.35-12q.08007813-.55078125.15-1.15zm-7.45 3.65q.3.35.5 1.4.55 3.2-.25 12.4-1.1 12-2.75 14.4-1.25 1.85-9.6 1.5-1.1-.1-2.3-.15-5.4-.4-9.55-1.05-2.5-.45-4.6-.95-1.75-.4-3.4-4.05-1.45-3.05-2.85-8.45-.90410156-3.60546875-1.95-8-1.04785156-4.3453125-1.3-5.3-.20234375-.90488281-.35-1.9-.09609375-.94472656-.1-1.8-.15-2.7 2.75-3 2.85-.2 7.95 0 2.95.1 9.1.8 4.2.4 9.95 1.1.3.05.6.1 6.95 1.25 8.15 2.95m4.85-2.5q0 .85-.65 1.35-.5.4-1.2.4-.75 0-1.15-.5-.25-.35-.25-.7 0-1.25 1.65-1.7 1.6-.5 1.6 1.15m-58-3.55q1.85.4 2.35 2.45.3 1.1.1 3.2-.05.75-.2 1.65-.1.95-.25 1.95-.65 4-1.9 9.55-1.25 5.45-2.25 8.15-.65 1.75-1.2 2.35-.45.4-1.05.75-1.65.85-4.85 1.05-.2 0-.45 0-.9.05-2.15 0-.25 0-.5 0-.15 0-.3 0-1.25 0-2.9-.05-1.25-.1-2.05-.2-.65-.1-1-.3-.7-.25-1.5-1.15-.5-.6-1.1-1.5-.25-.35-.5-.95-1.2-2.75-2.55-10.4-1.45-7.8-1.65-11.45-.15-2 1.25-2.65.75-.3 1.6-.6.7-.2 1.35-.35 3.5-.95 6.5-1.2 1.65-.15 3.15-.15l4.95-.3q.1 0 .2 0 1.35 0 2.5 0 3.1-.05 4.4.15m-27.75.8q.75.3.75 1 0 1-.9 1-.85 0-.85-.75 0-.2.45-.7.4-.45.55-.55z" fill="url(#Gradient_3)"/>
                <path d="m3.6 5.45q0-.7-.75-1-.15.1-.55.55-.45.5-.45.7 0 .75.85.75.9 0 .9-1m84.35 3.1q.65-.5.65-1.35 0-1.65-1.6-1.15-1.65.45-1.65 1.7 0 .35.25.7.4.5 1.15.5.7 0 1.2-.4z" fill="#ffefef"/>
                <path d="m32.95 6.1q-.5-2.05-2.35-2.45-1.3-.2-4.4-.15-1.15 0-2.5 0-.1 0-.2 0l-4.95.3q-1.5 0-3.15.15-3 .25-6.5 1.2-.65.15-1.35.35-.85.3-1.6.6-1.4.65-1.25 2.65.2 3.65 1.65 11.45 1.35 7.65 2.55 10.4.25.6.5.95.6.9 1.1 1.5.8.9 1.5 1.15.35.2 1 .3.8.1 2.05.2 1.65.05 2.9.05.15 0 .3 0 .25 0 .5 0 1.25.05 2.15 0 .25 0 .45 0 3.2-.2 4.85-1.05.6-.35 1.05-.75.55-.6 1.2-2.35 1-2.7 2.25-8.15 1.25-5.55 1.9-9.55.15-1 .25-1.95.15-.9.2-1.65.2-2.1-.1-3.2m51.3 5q-.2-1.05-.5-1.4-1.2-1.7-8.15-2.95-.3-.05-.6-.1-5.75-.7-9.95-1.1-6.15-.7-9.1-.8-5.1-.2-7.95 0-2.9.3-2.75 3 .00390625.85527344.1 1.8.14765625.99511719.35 1.9.25214844.9546875 1.3 5.3 1.04589844 4.39453125 1.95 8 1.4 5.4 2.85 8.45 1.65 3.65 3.4 4.05 2.1.5 4.6.95 4.15.65 9.55 1.05 1.2.05 2.3.15 8.35.35 9.6-1.5 1.65-2.4 2.75-14.4.8-9.2.25-12.4z"/>
                <path d="m91.2 5.95v.1l8.3 6.65q-.22402344-.97304687-.55-1.95-.2390625-.18808594-.5-.4-.15-.1-.3-.25-.7-.55-1.4-1.1-.49902344-.34804687-1.3-.95-.80058594-.60585937-2.9-2.25l-1.2-1z" fill="#f60"/>
            </g>
        </g>
        <g>
            <g id="Gafas_de_sol_0_Layer0_0_FILL">
                <path d="m33.1 8.4q.08496094-1.43867187-.15-2.3-.5-2.05-2.35-2.45-1.3-.2-4.4-.15-1.15 0-2.5 0-.1 0-.2 0l-4.95.3q-1.5 0-3.15.15-3 .25-6.5 1.2-.65.15-1.35.35-.85.3-1.6.6-.97265625.4515625-1.2 1.55.10761719 9.32617187 3.75 13.6 2.75 3.25 7.35 3.25 6.35 0 11.05-5.2 3.5140625-3.90058594 6.2-10.9z" fill="url(#Gradient_4)"/>
                <path d="m84.05 23q.73417969-8.79179687.2-11.9-.2-1.05-.5-1.4-1.2-1.7-8.15-2.95-.3-.05-.6-.1-5.75-.7-9.95-1.1-6.15-.7-9.1-.8-5.1-.2-7.95 0-2.9.3-2.75 3-.00742187.84863281.15 2.15.21738281 1.35429688.3 1.75.12871094.44296875.85 3.3 3.18066406 4.95527344 9.7 8.3 7.9 4 13.9 4 6.55 0 10.8-2.2 1.47910156-.76269531 3.1-2.05z" fill="url(#Gradient_5)"/>
            </g>
        </g>
    </g>
</svg>
