<svg height="400" preserveAspectRatio="none" viewBox="0 0 550 400" width="550" xmlns="http://www.w3.org/2000/svg" xmlns:xlink="http://www.w3.org/1999/xlink">
    <linearGradient id="Gradient_1" gradientUnits="userSpaceOnUse" spreadMethod="pad" x1="259.925" x2="326.675" y1="56.55" y2="217.55">
        <stop offset="0" stop-color="#04ffa5"/>
        <stop offset="1" stop-color="#ff0"/>
    </linearGradient>
    <linearGradient id="Gradient_2" gradientUnits="userSpaceOnUse" spreadMethod="pad" x1="159.4125" x2="115.7875" y1="20.7" y2="267.5">
        <stop offset="0" stop-color="#fc0"/>
        <stop offset="1" stop-color="#db4a22"/>
    </linearGradient>
    <linearGradient id="Gradient_3" gradientUnits="userSpaceOnUse" spreadMethod="pad" x1="99.05" x2="68.05" y1="22.725" y2="156.575">
        <stop offset="0" stop-color="#fc0"/>
        <stop offset="1" stop-color="#fa7a16"/>
    </linearGradient>
    <linearGradient id="Gradient_4" gradientUnits="userSpaceOnUse" spreadMethod="pad" x1="106.175" x2="106.125" y1="105.5" y2="57.7">
        <stop offset="0" stop-color="#1c8e91"/>
        <stop offset="1" stop-color="#ff0"/>
    </linearGradient>
    <g>
        <g id="Layer0_0_FILL">
            <path d="m421.5 79.25h13.95q-42.20175781-45.25-131.15-45.25-81.08847656 0-129.2 34.05 2.16035156-.06542969 4.5-.15 16.6-.65 20-.65 22.4 0 89.4 1h1q-4.05.45-93.45 8.45-21.19003906 1.90332031-36.4 3.5-1.62929687 1.49824219-3.2 3.05-48.6 48-48.6 139.5 0 11.35.15 14.5 0 .65.05 1.3 38.05 26.1 114.4 36.15 47.5 6.3 118.25 6.3 26.8 0 55.4-3.55 31.55-3.9 51.3-10.6 15.65-5.25 28.1-10.15 2.65-9.2 2.65-19.95 0-47.55-7.1-81.3-7.753125-37.22460937-25-62.3-14.66464844-.55058594-32.6-1.4-78.7-4.32148437-84.5-4.5 5.02324219.04375 32.75-2.7 38.05-3.7 59.3-5.3z" fill="url(#Gradient_1)"/>
        </g>
    </g>
    <g transform="matrix(.67378235 0 0 .71969604 243.65 111.35)">
        <g>
            <g id="S_mbolo_2_0_Layer0_0_FILL">
                <path d="m4.35 98.85q3.04726563-2.59628906 11.75-1.1 8.7515625 1.54589844 16.05-4.15 7.35019531-5.64570312 7.35-15.9 0-2.45-.2-4.5-.3 6.1-3.5 11.35-3.15 5.4-9.65 6.2-8.95.6-17.8 2.2-3.8.5-5.55 3.95-1.721875 3.24355469-2.4 6.7.95371094-2.15117187 3.95-4.75m250.3 31.55q.85 1.25.75 1.15-.24609375-.25839844-.45-.55 1.53574219 3.06640625 2.85 4.5 1.34804687 1.50078125 10.6 8.55 9.31074219 7.10546875 9.5 12.75.18378906 5.64121094-1.6 7.75 1.26835938-1.32480469 2.15-3.05 2.35-4.8.1-9.75-2.65-5.85-10.95-10.2-5.45-2.8-12.95-11.15m-22.7-93.7q3.18105469 1.86289063 4.8 7.75 1.62695313 5.89726563-2.65 12.5-4.28359375 6.59648438-5.75 9.35 6.54511719-8.99492187 9.8-14.45 3.31289063-5.41210937 1.15-11.6-2.10722656-6.19824219-9.35-8.3-7.24902344-2.09550781-13.45-.9-6.14960937 1.19746094-13.75 6.6l-4.35 2.95q-4.9 3.45-10.55 2.25-4.35097656-.7953125-5.25-5.75-.85585937-4.91894531 0-9.95.91601563-4.98105469-.75-10.65-1.67089844-5.66464844-6.6-6.7-11.8-2.75-20.8 5.35-6.2 5.5-11.8 11.5-5.85 6.45-13.55 4.1-1.9-.65-2.9-2.1-5-7.45-6.75-16.6-1.1-5.65-5.55-9.4-3.95-3.2-8.95-2.55-10.35 1.1-14.3 11.45-3.9 10-6.7 20.15-2.05 7.45-6.95 13-2.15 2.4-5.25 1.5-7.8-2.25-13.25-8.7-3-3.55-6.6-6-3-2-6.2.1 2.8-.74765625 4.95 1.4 2.15 2.1984375 5.65 7.5 3.5 5.35039063 5.75 7.3 3.55 3 7.5 3 8.7 0 13.15-7.1 2.85-4.55 5.35-15.7 2.65-11.7 4.75-15.65 3.85-7.15 11.45-7.15 3.9 0 6.35 5.1 1.5 3.1 4.1 11.3 2.75 7.55 6.35 11.25 5.05 5.1 13.35 5.1 5.7 0 10.7-3.7 3.3-2.5 7.85-8.15 5.1-6.45 7-8.15 4-3.7 8.1-3.7 2.69648438.00195313 4.55 3.75 1.86035156 3.74394531 1.65 15.45-.1 7 2.2 11.1 3.25 5.6 9.65 5.6 4.65 0 17.55-7.7 12.89492188-7.7453125 19-7.65 6.16308594.0859375 9.3 1.9m44.45 58.1q-1.55-1.6-3.85-2.65-16.1-7.5-33.9-9.9-5.05-.85-9.2-4.2-.7-.6-2.85-3 2.45 8.45 9 11.7 3.95 2 16.55 4.6 11.640625 2.35703125 20.05 6.7 8.41933594 4.33710938 8 10.4-.2734375 3.93339844-1.9 5.8.36113281-.23378906.7-.5.8-.75 1.15-1.7 3.55-9.6-3.75-17.25z" fill="#ff0"/>
                <path d="m272.2 98.05q-8.409375-4.34296875-20.05-6.7-12.6-2.6-16.55-4.6-6.55-3.25-9-11.7-2.55-2.8 1.5-8.45.1-.15.25-.3 1.46640625-2.75351562 5.75-9.35 4.27695313-6.60273437 2.65-12.5-1.61894531-5.88710937-4.8-7.75-3.13691406-1.8140625-9.3-1.9-6.10507812-.0953125-19 7.65-12.9 7.7-17.55 7.7-6.4 0-9.65-5.6-2.3-4.1-2.2-11.1.21035156-11.70605469-1.65-15.45-1.85351562-3.74804687-4.55-3.75-4.1 0-8.1 3.7-1.9 1.7-7 8.15-4.55 5.65-7.85 8.15-5 3.7-10.7 3.7-8.3 0-13.35-5.1-3.6-3.7-6.35-11.25-2.6-8.2-4.1-11.3-2.45-5.1-6.35-5.1-7.6 0-11.45 7.15-2.1 3.95-4.75 15.65-2.5 11.15-5.35 15.7-4.45 7.1-13.15 7.1-3.95 0-7.5-3-2.25-1.94960937-5.75-7.3-3.5-5.3015625-5.65-7.5-2.15-2.14765625-4.95-1.4h-.05q-6.25 3.7-8 10.95-1 3.95-.3 7.9 1.9 10.65 1.95 21.65 0 .55 0 1.1.2 2.05.2 4.5.00019531 10.25429688-7.35 15.9-7.2984375 5.69589844-16.05 4.15-8.70273437-1.49628906-11.75 1.1-2.99628906 2.59882813-3.95 4.75-.15039062.87382813-.25 1.75-.35 3.05.15 6.35.9 5.95 5.2 10.4 6.05 6.2 14.3 9.55 9.2 3.75 11.5 13.25 1.6 6.55-3.1 11.4-4.85 5.1-8.2 11.3-4.65 8.9 2 16.2 2.55 2.85 6.4 3.4 9.7 1.15 19.75.55 4.95-.2 8.1 3.1.95 1 .95 2.25.1 9.05-3.95 17.3-4.15 8.7 1.6 16.1 6.8 8.7 17.5 6.6 2.35-.5 4.25-2.25 4.4-3.95 7.6-9.45.9-1.5 2.25-2.65 8.75-7.15 20.15-4.7 6.85 1.55 7.55 8.55 1.15 10.95 1.35 21.8.1 4.1 2.85 7.25 7.15 8 17.65 4.5 2.6-.8 4.05-2.65 7.55-9.25 10.85-20.8 2.7-9.05 10.5-13.65 4.5-2.6 9.6-1.15 3.55 1 5.8 6.2 1.75 4.1 2.35 9.45.3 2.55.85 8.4.8 5.1 2.75 7.75 3.7 5 9.8 6.15 5.75 1 10.85-1.75 5.4-2.8 7.15-8.2 2-6.2-1.45-13.65-1.05-2.25-4.3-7-7.2-10.1-.75-20.9 2.55-4.3 7.3-6 4.95-1.8 8.95-.05 4.05 1.75 6.15 6.65.95 2.15 4.15 11.85 2.35 7.2 4.4 9.95 2.55 3.35 10.2 3.85 7.15.3 11.25-1.9 4.25-2.35 6.25-6.8 1.05-2.2 2-7.1 1.7-8.15-3.9-15.2-3.35-4.2-10.75-9.2l-4.5-3q-8.5-5.55-7.7-15.2.9-4.5 3.95-7.7 1.05-1.05 2.65-1.5 4.6-.8 9.3.4 4.1 1 8.85 3.7 4.25 2.4 9.05.6 2.25-.9 3.9-2.35.05253906-.04804687.1-.1.24648438-.22949219.45-.5.1265625-.07949219.2-.2 1.78378906-2.10878906 1.6-7.75-.18925781-5.64453125-9.5-12.75-9.25195313-7.04921875-10.6-8.55-1.31425781-1.43359375-2.85-4.5-1.39628906-1.85136719-.3-4 3.25-6.7 11.45-7.65 5.5-.9 10-3.6 1.13691406-.68222656 2.2-1.5 1.6265625-1.86660156 1.9-5.8.41933594-6.06289062-8-10.4m-99.6-48.9q15.3 5.8 28.35 15.15 14.45 10.3 23.05 25.7 8.95 15.9 8.05 34.05-.85 17.35-7.45 33.05-2.4 5.4-5.4 10.2-9.65 15.25-24.1 25.55-15 10.65-32.65 15.35-11.4 3.2-23.05 3.45-3.75.15-7.5-.05-18.15-.55-35.4-6.2-15.2-5-28.7-13.85-14.1-9.35-23.55-23.45-10.05-15.05-10.95-33-.9-17.1 3.65-33.75 4.65-17 15.75-30.6 10.95-13.25 26.7-20.55 14.7-6.8 30.7-8.5 9.85-1.2 19.7-1 5.7.1 11.4.65 16.1 2.05 31.4 7.8z" fill="url(#Gradient_2)"/>
            </g>
        </g>
    </g>
    <g transform="matrix(.84169006 0 0 .89909363 261.05 133.9)">
        <g>
            <g id="Copia_de_S_mbolo_1_0_Layer0_0_FILL">
                <path d="m171.8 94.25q0 .85 0 1.65 2-6.9 2-14.15 0-10-1.55-18.5-.85-4.15-2.05-8.05-2.1-6.55-5.3-12.5-9.55-17.1-30.5-30.8-20.25-11.9-44.1-11.9-15.25 0-30.8 4.5-16.25 4.7-29.15 13.35-21.35 14.4-27.7 34.95 7.4-10.35 18.2-18.7 14.15-10.95 32.45-16.75 17.75-5.6 36.9-5.6 11.85 0 25.35 4.95 14.7 5.4 26.65 15.15 29.6 24.1 29.6 62.4z" fill="#ff0"/>
                <path d="m171.8 95.9q0-.8 0-1.65 0-38.3-29.6-62.4-11.95-9.75-26.65-15.15-13.5-4.95-25.35-4.95-19.15 0-36.9 5.6-18.3 5.8-32.45 16.75-10.8 8.35-18.2 18.7-2.65 8.65-2.65 18.4 0 31.45 17.15 52.25 21.75 26.35 66 26.35 15.15 0 31-4.75 16.15-4.9 29.25-13.6 14.05-9.3 21.85-21.4 4.4-6.85 6.55-14.15m-48.75-63.2q3.32792969 5.06738281 3.45 11.25.08027344 1.9921875-.2 4.1-.3 2-1.9 3.3-.16933594.12460938-.35.2-1.54921875 1.02011719-3.35.75-2.05-.3-3.3-1.9-1.3-1.7-1-3.7.65-4.8-1.75-8.55v-.05q-2.1-3.3-5.8-4.55h-.1q-3.55-1.3-6.8 0-2.87246094 1.21972656-4.6 4.05-.46660156.76582031-.85 1.65-.63125 1.37402344-1.9 2.15-.39824219.25703125-.9.45-1.95.75-3.8-.05-1.9-.85-2.65-2.8-.75-1.9.1-3.8.05-.1.1-.2 3.55-7.95 10.75-10.7 6.6-2.75 13.8-.25l.05.05q7 2.35 11 8.6m-7.75 27.55q-.45-.25-.45-.8 0-.55.45-1.05.45-.4 1.15-.5.6-.1 1.05.2.45.35.45.9 0 .55-.45.95-.45.4-1.05.5-.7.1-1.15-.2m4.85-1.85q0-.75.7-1.4.6-.6 1.5-.75.85-.1 1.55.3.6.45.6 1.15 0 .75-.6 1.4-.7.65-1.55.75-.9.15-1.5-.3-.7-.45-.7-1.15m-3.15 5.05q0-.35.35-.7.35-.35.8-.45.45-.05.8.2.35.25.35.6 0 .4-.35.75-.35.35-.8.4-.45.1-.8-.15-.35-.25-.35-.65m-32.05-6.9q1.65-1.3 3.15-.3-4.5 7.15-14.05 9.35-8.35 2-13.2-4.4-3.45-4.5-2.85-8.75 0-.05.15-.05 1.65 7 7.85 9.55 3.25 1.35 6.75.5 6.75-1.65 12.2-5.9m39.55 4.4q.35.3.35.7 0 .45-.35.8-.4.35-.9.45-.5.05-.9-.2-.35-.25-.35-.7 0-.4.35-.8.4-.3.9-.35.5-.1.9.1m2.95-4.45q0-.35.25-.6.25-.25.7-.3.4-.05.75.1.25.15.25.5 0 .4-.25.65-.35.3-.75.35-.45.05-.7-.15-.25-.15-.25-.55m-62.75-32.15q.05.05.1.1 3.7734375 3.67421875 4.6 9.5-.00527344.06132813 0 .1.2 1.6-.8 2.95-.5.65-1.15 1-.07480469.04609375-.15.1-.59785156.31152344-1.35.4-1.65.25-2.95-.75-1.35-1.05-1.55-2.65-.45-3.1-2.35-5.05l-.05-.05q-1.65-1.7-3.85-1.95-.05 0-.1 0-2.05-.3-3.6.8-.1 0-.1.05-1.18261719.85410156-1.85 2.3-.31132812.74101563-.5 1.65-.05.15-.1.3-.35 1.6-1.7 2.55-.18398437.11835938-.4.2-1.21035156.66054688-2.6.4-1.65-.35-2.55-1.7-.95-1.4-.6-3 .3-1.55.8-2.95 1.55-4.1 4.95-6.35 4-2.95 9.3-2.2h-.1q5 .5 8.65 4.25m-23.85 22.25q.35.3.35.65 0 .35-.35.6-.3.2-.7.15-.45-.05-.75-.4-.3-.3-.3-.65 0-.3.3-.55.3-.25.75-.15.4 0 .7.35m1.8-3.9q.4.45.4.9 0 .55-.4.8-.4.25-1 .15-.6-.05-.95-.45-.4-.4-.4-.9 0-.5.4-.75.35-.3.95-.2.6.05 1 .45m-29.55-1.55q.05-.05.05.8v.05l-.55-.6q.1 0 .5-.25m17.1.15q-.25-.25-.25-.6 0-.3.25-.45.3-.15.65-.1.4.05.65.3.2.2.2.55 0 .3-.2.5-.25.15-.65.1-.35-.05-.65-.3m7.5.1q.6.6.6 1.3 0 .65-.6 1-.6.45-1.35.3-.8-.1-1.4-.7-.6-.55-.6-1.25 0-.65.6-1.05.6-.35 1.4-.25.75.1 1.35.65m-3.35 3.6q.4-.2.8-.15.5.1.85.4.35.35.35.75 0 .4-.35.6-.35.2-.85.15-.4-.05-.8-.4-.3-.3-.3-.7 0-.4.3-.65z" fill="url(#Gradient_3)"/>
                <path d="m35.15 44.85q-.4-.05-.8.15-.3.25-.3.65 0 .4.3.7.4.35.8.4.5.05.85-.15.35-.2.35-.6 0-.4-.35-.75-.35-.3-.85-.4m3.15-2.15q0-.7-.6-1.3-.6-.55-1.35-.65-.8-.1-1.4.25-.6.4-.6 1.05 0 .7.6 1.25.6.6 1.4.7.75.15 1.35-.3.6-.35.6-1m-8.35-2q0 .35.25.6.3.25.65.3.4.05.65-.1.2-.2.2-.5 0-.35-.2-.55-.25-.25-.65-.3-.35-.05-.65.1-.25.15-.25.45m13.1 2.9q0-.45-.4-.9-.4-.4-1-.45-.6-.1-.95.2-.4.25-.4.75 0 .5.4.9.35.4.95.45.6.1 1-.15.4-.25.4-.8m-1.85 3.65q0-.35-.35-.65-.3-.35-.7-.35-.45-.1-.75.15-.3.25-.3.55 0 .35.3.65.3.35.75.4.4.05.7-.15.35-.25.35-.6m23.6-22.8q-.05-.05-.1-.1-3.65-3.75-8.65-4.25h.1q-5.3-.75-9.3 2.2-3.4 2.25-4.95 6.35-.5 1.4-.8 2.95-.35 1.6.6 3 .9 1.35 2.55 1.7 1.38964844.26054688 2.6-.4.21601563-.08164062.4-.2 1.35-.95 1.7-2.55.05-.15.1-.3.18867188-.90898437.5-1.65.66738281-1.44589844 1.85-2.3 0-.05.1-.05 1.55-1.1 3.6-.8.05 0 .1 0 2.2.25 3.85 1.95l.05.05q1.9 1.95 2.35 5.05.2 1.6 1.55 2.65 1.3 1 2.95.75.75214844-.08847656 1.35-.4.07519531-.05390625.15-.1.65-.35 1.15-1 1-1.35.8-2.95-.00527344-.03867187 0-.1-.8265625-5.82578125-4.6-9.5m62.9 31.45q-.25.25-.25.6 0 .4.25.55.25.2.7.15.4-.05.75-.35.25-.25.25-.65 0-.35-.25-.5-.35-.15-.75-.1-.45.05-.7.3m-2.85 5.75q0-.4-.35-.7-.4-.2-.9-.1-.5.05-.9.35-.35.4-.35.8 0 .45.35.7.4.25.9.2.5-.1.9-.45.35-.35.35-.8m-36.75-5.4q-1.5-1-3.15.3-5.45 4.25-12.2 5.9-3.5.85-6.75-.5-6.2-2.55-7.85-9.55-.15 0-.15.05-.6 4.25 2.85 8.75 4.85 6.4 13.2 4.4 9.55-2.2 14.05-9.35m29.25 6.5q-.35.35-.35.7 0 .4.35.65.35.25.8.15.45-.05.8-.4.35-.35.35-.75 0-.35-.35-.6-.35-.25-.8-.2-.45.1-.8.45m3.5-5.75q-.7.65-.7 1.4 0 .7.7 1.15.6.45 1.5.3.85-.1 1.55-.75.6-.65.6-1.4 0-.7-.6-1.15-.7-.4-1.55-.3-.9.15-1.5.75m-6 2.45q0 .55.45.8.45.3 1.15.2.6-.1 1.05-.5.45-.4.45-.95 0-.55-.45-.9-.45-.3-1.05-.2-.7.1-1.15.5-.45.5-.45 1.05m11.65-15.5q-.12207031-6.18261719-3.45-11.25-4-6.25-11-8.6l-.05-.05q-7.2-2.5-13.8.25-7.2 2.75-10.75 10.7-.05.1-.1.2-.85 1.9-.1 3.8.75 1.95 2.65 2.8 1.85.8 3.8.05.50175781-.19296875.9-.45 1.26875-.77597656 1.9-2.15.38339844-.88417969.85-1.65 1.72753906-2.83027344 4.6-4.05 3.25-1.3 6.8 0h.1q3.7 1.25 5.8 4.55v.05q2.4 3.75 1.75 8.55-.3 2 1 3.7 1.25 1.6 3.3 1.9 1.80078125.27011719 3.35-.75.18066406-.07539062.35-.2 1.6-1.3 1.9-3.3.28027344-2.1078125.2-4.1z" fill="#c63"/>
            </g>
        </g>
    </g>
    <g transform="matrix(2.35533142 0 0 2.35533142 68.3 117.05)">
        <g>
            <g id="Copia_de_S_mbolo_5_0_Layer0_0_FILL">
                <path d="m85.45 64.05q7.4-.5 23.8-.5 7.85 0 19.5 1.05 10.5.95 13.15 1.6-.6.6-4.9 1.75-3.95 1.1-4.45 1.1v.3q1.1 0 5.5.55 5.8.65 11.6 1.7 2.95.55 5.05 1.05 1.85-.7 4.15-1.5 8.65-2.95 11.3-4.3-10.8-3.8-22-6.3-5.35-1.1-10.95-1.65l2.85 2.55q-8.35.9-19.6.25-11.25-.65-21.5-1.5l6.8-2.55q-7.3-1.1-14.85-.95-14.1.5-27.9 3.7l5.85 2.2q-10.6 5.1-22.65 5.25-8.65.15-17.4.4.35-.05.7-.1.3-.2.6-.35.5-.4.95-.8.5-.4.9-.9.35-.5.65-1.05.1-.2.2-.45-12.95-1.35-24.4 5.15-2.4 1.35-4.8 2.6 4.35 2.35 17.2 4-.05-.1-.1-.2 9.6-3.2 29.3-3.7 10.6-.25 28.25-.5-.05-.05-3.3-2.1-3.25-2-3.85-2.75 2.55-2.3 14.35-3.05z" fill="#cf3"/>
                <path d="m106 64.7h.8q.9.05 13.8.6 10.2.45 11.05.75-1.2.75-2.2 1.4-1.95 1.35-1.95 2.05 0 1.1 3.05 1.65 3.95.65 4.25.8-.85.05-2.05.6.15.65 4.9.9 4.7.25 8.35.35 3.65 0 6.25-.3.2-.05.4-.05.4-.15.85-.3.55-.25 1.2-.5-2.1-.5-5.05-1.05-5.8-1.05-11.6-1.7-4.4-.55-5.5-.55v-.3q.5 0 4.45-1.1 4.3-1.15 4.9-1.75-2.65-.65-13.15-1.6-11.65-1.05-19.5-1.05-16.4 0-23.8.5-11.8.75-14.35 3.05.6.75 3.85 2.75 3.25 2.05 3.3 2.1-17.65.25-28.25.5-19.7.5-29.3 3.7.05.1.1.2 3.1.4 6.65.75 1.5-1.25 5.65-2.05 4-.75 8.55-.75 1.8 0 5.8.6 3.95.6 5.45.6.65 0 4.95.45 1.4 0 1.6-.95.25-1.15 2-1.55.85-.15 2.55-.15 2.3 0 3.3-.05 2.45-.15 10.35-.15 6.7-.25 6.8-1.95-2.5-.65-4.45-1.25-3.8-1.2-3.8-2.3 0-.75 6.95-1.25 5.75-.45 10.25-.45.4 0 2.7.15h.15q-.7 1.05-.7 1.3 0 .75.8.95.5.15 1.85.15.046875 0 .15 0-.1.003125-.1.05.35.2 6.4-.5 3.25-.45 3.35-.5 1.55-.3 1.8-.7-.2-.45-1.65-1.1-1.6-.6-2.15-.85zm-11.3 24.15q.35 0 3.1-.35-2.75-1.3-4.1-1.7-1.02421875-.31503906-2.15-.55-2.49140625.13105469-6.55.9-4.7.9-4.85.9 3.5.75 8.65.85 2.75.05 5.9-.05m-13.55-7q.15.05 2.35.05 3.83671875 0 8.95-1.25-5.7296875-.25-8.6-.25l-3.85.15q0 .15-.2.65.9.45 1.35.65m31.5-9.15q1.1-.2 3.5-.85-7.05-.75-11.45-.75-3 0-7.55.55-1.69882812.21230469-2.9.4 1.396875.16054688 3.2.4 5.7.75 8.15.75 4.1 0 7.05-.5m-27.25 3.85q2.10605469.22636719 4.8.6 6.8.9 8.6.9 1.75 0 4.25-.85 2.45-.85 2.55-.85h-.25q-10.7-.3-11.1-.3-3.79277344 0-8.85.5m27.2-1.6q1.96191406.33535156 4.65.9 5.95 1.25 7.85 1.25 2.5 0 6.85-.9 2.25-.45 5.3-1.2-2-.15-8.9-.3-5.45-.1-6.85-.1-5.31757812 0-8.9.35m-14 5.75q.25 0 2.45.25 2.25.25 4.4.25 5.65 0 9.75-.75 4.1-.75 5.3-2l-10.6-.05q-.67324219.1234375-1.4.25-1.46171875.2484375-3.05.6-6.35 1.45-6.85 1.45m37.25-1.3q-.80996094.02636719-1.55.05-4.19375.13320313-6.15.15-.98144531.05-1.4.05v.15q2 1 6.4 1.2.4 0 7.7 0 4.15 0 6.05-.35 1.3-.2 3-1l-.2-.15q-.9 0-4.1-.2-.03144531-.00195312-.05 0-1.64453125-.10566406-2.45-.15-2.57441406.06660156-7.25.25m-20.4 4.55q-.40234375.01542969-.8 0-2.26386719.19902344-4.95.4-.13984375.03652344-.3.05-11.25.95-11.45.95 1.1 0 6.05.65 4.95.6 7.15.6 7.65 0 16.2-1.2 4.25-.65 7.95-1.25v-.15q-4.05195312-.240625-7.3-.3-.75878906 0-1.5 0-4.95 0-11.05.25m-13.1 9.6q.98183594.10253906 2.25.2 5.85.35 9.4.35 3.95 0 10.9-1.2 5.45-.95 7.45-1.55v-.25l-2.75-.15q-1.39140625 0-4.05.2-1.63242187.10917969-3.75.3-2.56777344.23125-4.7.35-1.7484375.2390625-3.95.55-7.70410156 1.08203125-10.8 1.2z" fill="#ff0"/>
                <path d="m170.5 31.4q-.4-.45-.85-.9-4.9-4.95-7.3-4.95-4.85 0-8.45 4.15-.15.15-.3.35-2.1 2.5-5.7 9.85-3.5 7.05-6.05 9.85-4.05 4.5-9.75 4.5-3.9 0-8.4-5.15-.6-.7-1.2-1.45-.45-.65-.8-1.2-3.7-5.45-4.3-5.45-2.25 0-4.75 2-1 .85-4.6 4.5-1.35 1.35-2.65 2.45-4.95 4-9.3 4-3.1 0-7.5-3.8-1.45-1.25-3.05-2.95-6.35-6.8-11-6.8-3.05 0-7.75 4.65-1 1-2.05 2.15-6.05 6.75-10.7 6.75-4.9 0-9.05-7.3-1.6-2.85-4.45-9.9-1.1-2.8-2.4-6.2-4.3-11.4-7.35-16.15-4.75-7.3-10.6-7.3-6.4 0-13.7 9.65-1.95 2.6-3.45 5.3-3.05 10.5-3.05 24.9 0 5.8 1.2 16.15.5 4.75 1.85 8.95.25.15.55.3 2.4-1.25 4.8-2.6 11.45-6.5 24.4-5.15-.1.25-.2.45-.3.55-.65 1.05-.4.5-.9.9-.45.4-.95.8-.3.15-.6.35-.35.05-.7.1 8.75-.25 17.4-.4 12.05-.15 22.65-5.25l-5.85-2.2q13.8-3.2 27.9-3.7 7.55-.15 14.85.95l-6.8 2.55q10.25.85 21.5 1.5 11.25.65 19.6-.25l-2.85-2.55q5.6.55 10.95 1.65 11.2 2.5 22 6.3.55-.3.85-.5.1-.15.15-.3l1.15-2.2q.3-.75.6-1.5 1.85-4.9 1.85-10.6 0-10.05-4.05-19.9-.1-.25-.2-.45z" fill="#690"/>
                <path d="m169.65 30.5q.45.45.85.9-4.75-11.2-11.7-11.2-5.75 0-10 4.75-3 3.3-6.15 10.4-4.1 9.15-4.85 10.4-2.75 4.75-6 4.75-3.15 0-4.75-2.2-1-1.4-1.85-4.85-.85-3.65-1.65-4.9-1.35-2.2-4.1-2.2-4.65 0-12.2 7.9-7.5 7.85-10.55 7.85-4.05 0-10.7-8.85-6.65-8.9-8.5-8.9-6.55 0-12.4 6.85-3.05 3.5-4.55 4.65-2.8 2.15-6.3 2.15-6.05 0-9.15-7.5-1.5-3.55-4.15-16.5-2.35-11.5-5.35-16.5-4.4-7.5-12.65-7.5-8.9 0-15.35 11.1-2.8 4.8-4.55 10.95 1.5-2.7 3.45-5.3 7.3-9.65 13.7-9.65 5.85 0 10.6 7.3 3.05 4.75 7.35 16.15 1.3 3.4 2.4 6.2 2.85 7.05 4.45 9.9 4.15 7.3 9.05 7.3 4.65 0 10.7-6.75 1.05-1.15 2.05-2.15 4.7-4.65 7.75-4.65 4.65 0 11 6.8 1.6 1.7 3.05 2.95 4.4 3.8 7.5 3.8 4.35 0 9.3-4 1.3-1.1 2.65-2.45 3.6-3.65 4.6-4.5 2.5-2 4.75-2 .6 0 4.3 5.45.35.55.8 1.2.6.75 1.2 1.45 4.5 5.15 8.4 5.15 5.7 0 9.75-4.5 2.55-2.8 6.05-9.85 3.6-7.35 5.7-9.85.15-.2.3-.35 3.6-4.15 8.45-4.15 2.4 0 7.3 4.95z" fill="#b1de00"/>
                <path d="m184.85 88.15q0-2.75-14.35-6.35-17.2-3.85-23.05-5.55.4-.9 5.2-2.8-.2 0-.4.05-2.6.3-6.25.3-3.65-.1-8.35-.35-4.75-.25-4.9-.9 1.2-.55 2.05-.6-.3-.15-4.25-.8-3.05-.55-3.05-1.65 0-.7 1.95-2.05 1-.65 2.2-1.4-.85-.3-11.05-.75-12.9-.55-13.8-.6h-.8v.15q.55.25 2.15.85 1.45.65 1.65 1.1-.25.4-1.8.7-.1.05-3.35.5-6.05.7-6.4.5h-.05v-.05q-1.35 0-1.85-.15-.8-.2-.8-.95 0-.25.7-1.3h-.15q-2.3-.15-2.7-.15-4.5 0-10.25.45-6.95.5-6.95 1.25 0 1.1 3.8 2.3 1.95.6 4.45 1.25-.1 1.7-6.8 1.95-7.9 0-10.35.15-1 .05-3.3.05-1.7 0-2.55.15-1.75.4-2 1.55-.2.95-1.6.95-4.3-.45-4.95-.45-1.5 0-5.45-.6-4-.6-5.8-.6-4.55 0-8.55.75-4.15.8-5.65 2.05 1.8.2 3.75.35 8.2.75 25.7 2.1 15.05 1.35 22.9 2.8-1.3 2.1-13.75 6-14.5 4.55-15.55 5.1 0 .5-.5.5 2.65.85 19.1 2.35 23.3 2.2 48.85 2.2 35.3 0 52.25-3.05 14.65-2.6 14.65-7.3m-80.25 5.6q-1.26816406-.09746094-2.25-.2 3.09589844-.11796875 10.8-1.2 2.2015625-.3109375 3.95-.55 2.13222656-.11875 4.7-.35 2.11757813-.19082031 3.75-.3 2.65859375-.2 4.05-.2l2.75.15v.25q-2 .6-7.45 1.55-6.95 1.2-10.9 1.2-3.55 0-9.4-.35m10.05-9.8q.39765625.01542969.8 0 6.1-.25 11.05-.25.74121094 0 1.5 0 3.24804688.059375 7.3.3v.15q-3.7.6-7.95 1.25-8.55 1.2-16.2 1.2-2.2 0-7.15-.6-4.95-.65-6.05-.65.2 0 11.45-.95.16015625-.01347656.3-.05 2.68613281-.20097656 4.95-.4m19.65-4.5q.74003906-.02363281 1.55-.05 4.67558594-.18339844 7.25-.25.80546875.04433594 2.45.15.01855469-.00195312.05 0 3.2.2 4.1.2l.2.15q-1.7.8-3 1-1.9.35-6.05.35-7.3 0-7.7 0-4.4-.2-6.4-1.2v-.15q.41855469 0 1.4-.05 1.95625-.01679687 6.15-.15m-33.25 1.5q-2.2-.25-2.45-.25.5 0 6.85-1.45 1.58828125-.3515625 3.05-.6.72675781-.1265625 1.4-.25l10.6.05q-1.2 1.25-5.3 2-4.1.75-9.75.75-2.15 0-4.4-.25m16.2-5.1q-2.68808594-.56464844-4.65-.9 3.58242188-.35 8.9-.35 1.4 0 6.85.1 6.9.15 8.9.3-3.05.75-5.3 1.2-4.35.9-6.85.9-1.9 0-7.85-1.25m-27.05 1.3q-2.69394531-.37363281-4.8-.6 5.05722656-.5 8.85-.5.4 0 11.1.3h.25q-.1 0-2.55.85-2.5.85-4.25.85-1.8 0-8.6-.9m25.95-5.3q-2.4.65-3.5.85-2.95.5-7.05.5-2.45 0-8.15-.75-1.803125-.23945312-3.2-.4 1.20117188-.18769531 2.9-.4 4.55-.55 7.55-.55 4.4 0 11.45.75m-32.65 10.05q-2.2 0-2.35-.05-.45-.2-1.35-.65.2-.5.2-.65l3.85-.15q2.8703125 0 8.6.25-5.11328125 1.25-8.95 1.25m14.3 6.6q-2.75.35-3.1.35-3.15.1-5.9.05-5.15-.1-8.65-.85.15 0 4.85-.9 4.05859375-.76894531 6.55-.9 1.12578125.23496094 2.15.55 1.35.4 4.1 1.7z" fill="url(#Gradient_4)"/>
            </g>
        </g>
    </g>
</svg>
