<svg height="400" preserveAspectRatio="none" viewBox="0 0 550 400" width="550" xmlns="http://www.w3.org/2000/svg">
    <g>
        <g id="Layer0_0_FILL">
            <path d="m195.1 168.2q-12.75 3.65-21.25 14.1-7.75 9.65-13.1 21.05-6.2 13.65-8 28.95-.55 5.15 1.25 9.85l1.1-.75q.65-3.7 1.2-7.4 1.8-11.55 7.55-21.85 5.8-10.15 16.65-14.5 10.4-4.3 21.55-3.8 11 1.05 19.4 7.9 8.15 6.6 13.4 15.5 1.4 2.3 2.85 4.55 3.6 5.3 6.05 11.15-.5-3.4-.95-6.9-1.65-10.8-5.25-21-2.7-7.25-6.15-14.2-4.15-8.25-10.3-15.05-5.65-6.2-13.85-8-6.15-1.3-12.15.4m-11.15-84q-7.65-2.85-18.75 4.25-11.15 7.2-18.8 19.9-8.6 14.05-8.6 28.7 0 1.5 1.8 5.55 2.25 5 4.85 5 .3 0 24.15-22.45 23.9-22.55 23.9-23.05 0-14.75-8.55-17.9m222.55 210.45q19.15-18.95 27.7-42.5 5.4-14.75 5.4-25.75 0-29.9-8.25-40.15-13.45-16.5-45.4 29.5-2.15 3.15-4.45 6.2-15.1 19.95-42.65 40.4-27.65 20.45-74.35 25.05-28.2 2.6-55.15-.15-28-4.55-45.35-14.4-17.4-9.85-25.6-16.65-7.45-6.7-3.75-3.2-.85-.75-1.85-1.55-11.05-9.3-18.15-16.5-4.85-5.4 2.7 7.3 3.8 6.3 5.1 8.4-11.15 15.65-11.2 16.05-.9 1.95-.9 4.7 0 .15.05.95.35 2.6.6 5.25.65 10.85 4.35 21.05 3.3 9.2 9.2 16.85.6.85 1.25 1.55 27.35 35.15 89 35.15 108.3 0 166.7-37.5 13.85-8.95 25-20.05m1.1-87.9q-1.7 8.55-1.7 14.55 0 3.05 1.8 5.4-4.6 3.8-10.45 9.45-9.05 9-15.75 15.15-5.9 5.25-9.85 8.4 4.95 0 9.85-1.55 10.3-3.4 20.4-13.9 5.8-6.05 9.5-11.8.65-.95 1.3-2 .25.05.5.25 6.35 2.65 18.4 2.65.2 0 .4 0-2.25 26.25-20.6 47.35-11.85 13.55-29.9 24.55-10.5 6.3-23 11.7-30.55 13.35-70.4 20.3-36.1 6.15-73.3 6.15-55.25 0-81-30.05-4.45-5.2-7.7-11 4.35-1.4 5.75-1.85 13.1-4.6 13.7-6.8 5.35 5.75 13.05 13.15 10.9 10.6 13 10.6 2.35 0 3.15-.9.65-1.1 1.05-1.7-5.1-6.2-16.1-13.15-10.95-7.05-12.6-8.55-1.7-1.65-2.4-2.2-.8-.55-5.25-8-4.6-8-5.85-12.5-.45-1.7-.45-3.35 0-1.6 2.8-5.05.5-.6.8-1 3.25 2.6 5.05 4.2 8.8 8 18.9 13.35 29.8 15.75 83.6 15.75 54.65 0 96.55-23.75 28.4-17.6 46.25-43.5 12.45-16.45 21.4-24.7-.4 2-.9 4.35m-64.15-47.65q-2.1.15-4.1.65-2.1.15-4.15.8-6.85 1.95-13 5.75-12.85 8.05-21.75 20.4-3.15 4.45-5.8 9.25-2.2 3.85-4.2 7.6-2.6 5-3.05 10.65-.1 1.7-.2 3.45.4-.85.9-1.6 2.25-4.1 5.1-7.9 2.6-3.4 5.15-6.7 2.35-2.85 4.8-5.7.55-.7 1.2-1.25 2-2.05 4.1-3.9 9.55-8.75 21.6-13.25 12.05-4.55 24.3-.9 13.25 3.9 23.7 15.7 6.2 7.6 6.95 9.6-.1-2.45-2.75-9.45-2.75-7.05-5.75-12.2-3.05-5.2-5.5-8.25-2.5-3.15-5.1-5.1-2.4-1.95-5.15-3.3-1.8-.95-3.55-1.8-1.85-.7-3.8-1.2-2.9-.7-5.9-1.3-2-.05-4.05-.05m47.2-67.15q0-21.25-12.75-33.05-11-10.2-28.05-11-15.95-.75-28.05 6.65-12.75 7.65-12.75 19.45 0 5.8 8.8 8.4 6.45 1.95 33.95 7.2 4.35.95 18.5 9.75 6.95 4.4 13.55 8.5 5.35 0 6.55-7.2.25-1.2.25-8.7z"/>
            <path d="m412.7 230.45q-.65 1.05-1.3 2-3.7 5.75-9.5 11.8-10.1 10.5-20.4 13.9-16.3 11.9-34.9 21.4-25.95 13.25-52.9 20.45-27.5 7.3-59.1 8.5-31.65 1.2-58.1-10.5-26.5-11.75-42.9-27.55 1.25 4.5 5.85 12.5 4.45 7.45 5.25 8 .7.55 2.4 2.2 1.65 1.5 12.6 8.55 11 6.95 16.1 13.15-.4.6-1.05 1.7-.8.9-3.15.9-2.1 0-13-10.6-7.7-7.4-13.05-13.15-.6 2.2-13.7 6.8-1.4.45-5.75 1.85 3.25 5.8 7.7 11 25.75 30.05 81 30.05 37.2 0 73.3-6.15 39.85-6.95 70.4-20.3 12.5-5.4 23-11.7 18.05-11 29.9-24.55 18.35-21.1 20.6-47.35-.2 0-.4 0-12.05 0-18.4-2.65-.25-.2-.5-.25z" fill="#fff"/>
            <path d="m405.9 221.3q0-6 1.7-14.55.5-2.35.9-4.35-8.95 8.25-21.4 24.7-17.85 25.9-46.25 43.5-41.9 23.75-96.55 23.75-53.8 0-83.6-15.75-10.1-5.35-18.9-13.35-1.8-1.6-5.05-4.2-.3.4-.8 1-2.8 3.45-2.8 5.05 0 1.65.45 3.35 16.4 15.8 42.9 27.55 26.45 11.7 58.1 10.5 31.6-1.2 59.1-8.5 26.95-7.2 52.9-20.45 18.6-9.5 34.9-21.4-4.9 1.55-9.85 1.55 3.95-3.15 9.85-8.4 6.7-6.15 15.75-15.15 5.85-5.65 10.45-9.45-1.8-2.35-1.8-5.4z" fill="#ccc"/>
        </g>
    </g>
</svg>
