<svg height="400" preserveAspectRatio="none" viewBox="0 0 550 400" width="550" xmlns="http://www.w3.org/2000/svg" xmlns:xlink="http://www.w3.org/1999/xlink">
    <radialGradient id="Gradient_1" cx="229.95" cy="211.05" gradientUnits="userSpaceOnUse" r="392.325" spreadMethod="pad">
        <stop offset=".45098039216" stop-color="#f33"/>
        <stop offset="1" stop-color="#ad002b"/>
    </radialGradient>
    <linearGradient id="lg1">
        <stop offset=".32941176471" stop-color="#989898"/>
        <stop offset=".75294117647" stop-color="#4d4d4d"/>
        <stop offset="1"/>
    </linearGradient>
    <radialGradient id="Gradient_2" cx="0" cy="0" gradientTransform="matrix(.8657096 .50054659 -.77131372 1.33520491 169.85 314.45)" gradientUnits="userSpaceOnUse" r="10.063998" spreadMethod="pad" xlink:href="#lg1"/>
    <linearGradient id="lg2">
        <stop offset="0" stop-color="#e9e9e9"/>
        <stop offset="1" stop-color="#b8b8b8"/>
    </linearGradient>
    <linearGradient id="Gradient_3" gradientUnits="userSpaceOnUse" spreadMethod="pad" x1="171.6" x2="169.7" xlink:href="#lg2" y1="310.1875" y2="315.3125"/>
    <radialGradient id="Gradient_4" cx="0" cy="0" gradientTransform="matrix(.8657096 .50054659 -.77131372 1.33520491 368.75 314.45)" gradientUnits="userSpaceOnUse" r="10.063998" spreadMethod="pad" xlink:href="#lg1"/>
    <linearGradient id="Gradient_5" gradientUnits="userSpaceOnUse" spreadMethod="pad" x1="370.5" x2="368.6" xlink:href="#lg2" y1="310.1875" y2="315.3125"/>
    <linearGradient id="Gradient_6" gradientUnits="userSpaceOnUse" spreadMethod="pad" x1="225.8875" x2="230.2125" xlink:href="#lg2" y1="281.1625" y2="89.4375"/>
    <linearGradient id="Gradient_7" gradientUnits="userSpaceOnUse" spreadMethod="pad" x1="427.5625" x2="433.7375" xlink:href="#lg2" y1="268.2125" y2="214.3875"/>
    <linearGradient id="lg3">
        <stop offset="0" stop-color="#fff" stop-opacity=".137255"/>
        <stop offset="1" stop-color="#fff" stop-opacity=".419608"/>
    </linearGradient>
    <linearGradient id="Gradient_8" gradientUnits="userSpaceOnUse" spreadMethod="pad" x1="365.5" x2="363" xlink:href="#lg3" y1="162.3875" y2="137.5125"/>
    <linearGradient id="Gradient_9" gradientUnits="userSpaceOnUse" spreadMethod="pad" x1="404.675" x2="395.025" xlink:href="#lg3" y1="161.7875" y2="137.7125"/>
    <g>
        <g id="Layer5_0_FILL">
            <path d="m-7.5-10.05v412.1h559.1v-412.1z" fill="url(#Gradient_1)"/>
        </g>
    </g>
    <g>
        <g id="Layer4_0_FILL">
            <path d="m437.2 330.4q-8.7-1.75-20.8-4.3-8.05-1.7-14.75-3.15-55 .15-103.35.2-114.2.1-140.15-.35-7.7-.05-7.7-.3-35.8-.15-53.6-.25-1.9 1.75-4.2 3.95-2.75 2.65-4.8 4.7 6.15.1 13 .2 35.85.55 82.15.75 70.3.3 136.9-.45 63.9-.65 117.3-1z" fill="#900"/>
        </g>
    </g>
    <g>
        <g id="Layer3_0_FILL">
            <path d="m189.65 312.45q1.05-4.05.3-7.3-.3-1.4-.95-2.6-2.15-4.05-6.7-4.15-.1 0-.15 0-4.65 0-9.05 4.15-4.45 4.1-6 9.9-1.55 5.85.65 9.9 2.2 4.15 6.85 4.15 4.6 0 9.1-4.15 4.35-4.05 5.95-9.9m178.25-14.05q-.1 0-.15 0-4.65 0-9.05 4.15-4.45 4.1-6 9.9-1.55 5.85.65 9.9 2.2 4.15 6.85 4.15 4.6 0 9.1-4.15 4.35-4.05 5.95-9.9 1.05-4.05.3-7.3-.3-1.4-.95-2.6-2.15-4.05-6.7-4.15m-215.75 2.8q0 2.71855469 1.15 4.05l5.85.3q.90800781-7.32558594 7.1-10.05 4.5-1.95 15.6-1.95 1.97246094 0 3.75 0 0-.09296875 0-.2 0-1.45-1.2-3.1-1.8-2.45-5.15-2.45-10.8 0-18.85 3.9-8.25 3.95-8.25 9.5m266.5-19.75q0-12.45-2.4-17.4-4.95-10.2-21.3-10.2-11.85 0-22.5 6.75-8.82265625 5.58457031-11.15 11.4 3.1515625-.95253906 6.45-1.75 8.15-2 12.35-2 12.65 0 18.75 9.6 4.8 7.6 4.8 19.45 0 2.93085938-.6 6.75h8.85q3.02675781-4.59765625 3.85-6.45 2.9-6.7 2.9-16.15z"/>
        </g>
    </g>
    <g>
        <g id="Layer2_0_FILL">
            <path d="m158.6 314.45q-1.55 5.85.65 9.9 2.2 4.15 6.85 4.15 4.65 0 9.1-4.15 4.4-4.05 5.95-9.9 1.5-5.8-.65-9.9-2.2-4.15-6.85-4.15-4.65 0-9.05 4.15-4.45 4.1-6 9.9m9.25-5.15q1.9-1.5 3.8-1.5.25 0 .45 0 1.85.15 2.8 1.9 1.15 2 .35 4.75-.3 1.05-.7 2-.85 1.5-2.05 2.7 0 .1-.1.1-1.65 1.55-3.25 1.85-.5.1-1 .1-1.9 0-2.9-1.35-.25-.3-.4-.6-.95-1.85-.3-4.25 0-.3.05-.55.35-1.3 1-2.45.65-1.3 1.7-2.3.3-.25.55-.4z" fill="url(#Gradient_2)"/>
            <path d="m171.65 307.8q-1.9 0-3.8 1.5-.25.15-.55.4-1.05 1-1.7 2.3-.65 1.15-1 2.45-.05.25-.05.55-.65 2.4.3 4.25.15.3.4.6 1 1.35 2.9 1.35.5 0 1-.1 1.6-.3 3.25-1.85.1 0 .1-.1 1.2-1.2 2.05-2.7.4-.95.7-2 .8-2.75-.35-4.75-.95-1.75-2.8-1.9-.2 0-.45 0m-.35 1.25q.2 0 .35 0 1.5.1 2.3 1.55.85 1.6.3 3.85-.25.85-.6 1.65-.7 1.2-1.7 2.15 0 .05-.05.05-1.35 1.25-2.65 1.55-.4.1-.85.1-1.5 0-2.3-1.1-.2-.2-.35-.55-.75-1.45-.3-3.45 0-.15.1-.4.3-1.05.85-2 .5-1 1.35-1.85.25-.15.4-.4 1.6-1.15 3.15-1.15m-.75 3.4q-.1 0-.2 0-.65 0-1.35.55-.35.35-.55.7-.2.45-.3.85v.05q-.2.7.1 1.4.05.05.15.15.2.3.6.45.15 0 .25 0 .7 0 1.3-.6 0-.05.15-.15.35-.35.45-.7.2-.35.35-.6 0-.1.05-.1.15-.8-.2-1.45-.05-.1-.05-.15-.3-.35-.75-.4m-1.7 1.45q.1-.25.4-.5.45-.4.9-.4h.1q.4.05.6.3 0 .05 0 .1.3.5.15 1.05-.15.25-.25.45-.05.3-.3.55-.1.05-.2.05-.4.45-.85.45-.1 0-.15 0-.3-.1-.4-.35-.15-.05-.2-.1-.2-.4-.05-.95v-.1q.05-.25.25-.55m201.7-6.1q-1.95 0-3.85 1.5-.25.15-.55.4-1 1-1.65 2.3-.65 1.15-1 2.45-.05.25-.05.55-.65 2.4.3 4.25.15.3.4.6 1 1.35 2.85 1.35.55 0 1-.1 1.6-.3 3.25-1.85.15 0 .15-.1 1.15-1.2 2-2.7.45-.95.75-2 .8-2.75-.35-4.75-1-1.75-2.85-1.9-.15 0-.4 0m-.4 1.25q.25 0 .4 0 1.45.1 2.25 1.55.9 1.6.3 3.85-.25.85-.55 1.65-.7 1.2-1.7 2.15 0 .05-.05.05-1.35 1.25-2.65 1.55-.4.1-.85.1-1.5 0-2.3-1.1-.2-.2-.4-.55-.7-1.45-.25-3.45 0-.15.1-.4.3-1.05.85-2 .5-1 1.35-1.85.25-.15.4-.4 1.55-1.15 3.1-1.15m.1 3.95q-.1-.1-.1-.15-.25-.35-.75-.4-.05 0-.15 0-.7 0-1.35.55-.35.35-.55.7-.2.45-.35.85v.05q-.15.7.15 1.4.05.05.15.15.2.3.6.45.1 0 .25 0 .65 0 1.25-.6.05-.05.2-.15.35-.35.45-.7.2-.35.35-.6v-.1q.2-.8-.15-1.45m-.5.3q0 .05 0 .1.3.5.15 1.05-.15.25-.3.45 0 .3-.25.55-.1.05-.2.05-.4.45-.85.45-.1 0-.15 0-.3-.1-.4-.35-.15-.05-.2-.1-.2-.4-.05-.95v-.1q.05-.25.25-.55.1-.25.4-.5.4-.4.9-.4h.1q.4.05.6.3m-27.75-137.6q-1.2-.1-1.65-.1-1.15 0-1.5 0-.35 0-.7.1-.2 0-.3 0 0 .15 0 .3-.2.95-.35 2.2-.3 2.3-.45 3.6-.05.15-.05.3.2-.05.45-.1.1 0 1.6 0l3.1.05v.05l.05-.05 6.35.05.5-6.5h-1.5q-1.25.1-2.5.1zm.6.9q0-.15 0-.45 1.35-.05 4.2-.2.65 0 1.35-.05.1 0 .25 0-.15 1.75-.25 4.4-.05.7-.1 1.5-.8 0-1.25-.05l-4.65.05q.1-1.35.15-1.5.15-1.8.25-2.75 0-.25.05-.45 0-.35 0-.5m46.25-41.3q.05-5.45-5.8-5.4h-34.15q-5.9-.05-6.3 5.4l-2.85 27.2q-.55 6.05 5.6 6.05h36.55q6.25 0 6.4-6.05zm-7.4-3.7q5.35-.05 5.25 4.9l-.5 24.85q-.1 5.5-5.8 5.5h-33.4q-5.65 0-5.1-5.5l2.6-24.85q.35-4.95 5.75-4.9zm17.9-5.85q-.8 0-1.55 0-.85 0-1.6 0l1.85 42.5q3.3.1 8.8.4.75 0 1.55.05zm-2.25 1.35h1l8.35 39.55-7.15-.15z" fill="#666"/>
            <path d="m171.65 309.05q-.15 0-.35 0-1.55 0-3.15 1.15-.15.25-.4.4-.85.85-1.35 1.85-.55.95-.85 2-.1.25-.1.4-.45 2 .3 3.45.15.35.35.55.8 1.1 2.3 1.1.45 0 .85-.1 1.3-.3 2.65-1.55.05 0 .05-.05 1-.95 1.7-2.15.35-.8.6-1.65.55-2.25-.3-3.85-.8-1.45-2.3-1.55m.3 3.15q-.4-.65-1.15-.7l.45-1.35q-.15 0-.25 0-1.3 0-2.45.9l-.15-.15.5 1.3q-.1.1-.25.2-.4.45-.7 1-.3.5-.5 1.05-.05.15-.05.25-.35.1-.65.2-.3 0-.5.1-.25 1.45.3 2.6.05.2.2.35 0-.05.05-.1.05-.05.1-.15.15-.15.25-.3.3-.3.6-.55.4.55 1.15.65 0 .8.1 1.45 0 .2.1.4-.25 0-.5 0-1.35 0-2.05-1.05h-.1q-.15-.2-.25-.4-.6-1.25-.2-2.9 0-.1 0-.15 0-.15 0-.4.3-.85.8-1.7.5-.9 1.2-1.7.15-.15.4-.3 1.3-1.05 2.7-1.05.2 0 .3 0h.1q1.2.1 1.9 1.3-.2.15-.35.3.2-.15.4-.3v.05q.75 1.25.35 3-.05.25-.1.4-.25.8-.55 1.5-.6 1.05-1.5 1.95v.05q-.1-.25-.1-.35-.25-.75-.45-1.15.5-.45.8-1.05.2-.4.35-.95l.05-.05q.65-.2 1.05-.25.05 0 .1 0 .3-1.65-.35-2.8 0-.05-.05-.05-.1.05-.25.15-.15.1-.25.25-.15.05-.25.15-.15.2-.35.35m-1.6.25q.1 0 .2 0 .45.05.75.4 0 .05.05.15.35.65.2 1.45-.05 0-.05.1-.15.25-.35.6-.1.35-.45.7-.15.1-.15.15-.6.6-1.3.6-.1 0-.25 0-.4-.15-.6-.45-.1-.1-.15-.15-.3-.7-.1-1.4v-.05q.1-.4.3-.85.2-.35.55-.7.7-.55 1.35-.55m1.15 5.2q.05.15.1.3-1.15 1.05-2.35 1.3-.05-.15-.1-.3 1.2-.25 2.35-1.3z" fill="url(#Gradient_3)"/>
            <path d="m171.6 317.95q-.05-.15-.1-.3-1.15 1.05-2.35 1.3.05.15.1.3 1.2-.25 2.35-1.3m-2.35-4.55q-.3.25-.4.5-.2.3-.25.55v.1q-.15.55.05.95.05.05.2.1.1.25.4.35.05 0 .15 0 .45 0 .85-.45.1 0 .2-.05.25-.25.3-.55.1-.2.25-.45.15-.55-.15-1.05 0-.05 0-.1-.2-.25-.6-.3h-.1q-.45 0-.9.4m4.2-2.4q-.2.15-.4.3.05 0 .05.05.65 1.15.35 2.8.3-.1.35-.1.4-1.75-.35-3zm-7.2 4q-.15 0-.25 0-.4 1.65.2 2.9.1.2.25.4.1-.15.3-.35-.15-.15-.2-.35-.55-1.15-.3-2.6m5-4.85.15-.45q-.1 0-.3 0-1.4 0-2.7 1.05v.15l.15.15q1.15-.9 2.45-.9.1 0 .25 0m198.5 3.25q0-.05 0-.1-.2-.25-.6-.3h-.1q-.5 0-.9.4-.3.25-.4.5-.2.3-.25.55v.1q-.15.55.05.95.05.05.2.1.1.25.4.35.05 0 .15 0 .45 0 .85-.45.1 0 .2-.05.25-.25.25-.55.15-.2.3-.45.15-.55-.15-1.05m-4.6 1.6q-.15 0-.3 0-.35 1.65.25 2.9.1.2.25.4.1-.15.25-.35-.1-.15-.2-.35-.55-1.15-.25-2.6m5.15-5.3q-.15 0-.3 0-1.45 0-2.7 1.05v.15l.15.15q1.1-.9 2.45-.9.1 0 .25 0zm2 1.35v-.05q-.15.15-.35.3.05 0 .05.05.65 1.15.3 2.8.35-.1.4-.1.4-1.75-.4-3m-4.3 7.9q.1.15.15.3 1.2-.25 2.3-1.3-.05-.15-.05-.3-1.15 1.05-2.4 1.3m-26.7-223.5.55-4.75q-.25 0-.95-.1l-.45 4.8-21.05 209.4 1.1.05q.3-2.55.65-5.1 2.1.05 4.7.1 5.05.05 9.2-.05 1.45 0 2.8-.05.8-.85 1.6-1.75 6.5-7.1 13.35-14.65 1.1-1.15 2.15-2.3 3.7-4.05 7.45-8.25 17.75-19.5 28.75-32 1-1.2 1.95-2.35.05-1.65.1-3.2 1.15-56.35 1.15-59.15-.05-2.85-.05-5.3-.05-2.45-.05-4.1 0-1.65.05-3.65.05-2.05-.05-2.05l.1-6.75q0-4.15-.3-16.85-.15-7.1-.25-11.7-.05-.7-.05-1.3l-55.25.3q.45-8 1.4-15.5.9-7.5 1.4-13.75m36.85 30.05q.35 0 14.55-.05 1.1 19.65.9 29-.25 9.35-.05 16.25.15 6.85 0 11.85-.2 4.9-.7 25.55-.6 20.6-.55 25.15 0 4.5-.25 4.85l-54.7 60.85-16.05-.1 17-173.1q6.45 0 16.35-.1 12.55-.15 23.5-.15m-35.8 49.25q-1.15.05-2.35.1-1 .05-1.85.1-.05 0-.2 0-.7.05-1.3.1-.05.4-.1.9-.2 1.25-.4 2.95-.2 1.7-.3 2.9-.1.8-.15 1.35.65 0 1.65-.05.4 0 .85 0 1.2.05 3.4.05 1.5 0 3.45.05 1.05 0 2.95-.05.55 0 1.2-.05.05-.5.15-1 0-.2 0-.3 0-.25.05-.5.45-3.65.75-5.5 0-.1 0-.2.1-.65.15-1.05-.35 0-.7 0-.25 0-.5 0-.3 0-.6 0-2.65.05-6.15.2m-2 .85q.45 0 1.65.1h3.05q1.25 0 2.5-.1h1.5l-.5 6.5-6.35-.05-.05.05v-.05l-3.1-.05q-1.5 0-1.6 0-.25.05-.45.1 0-.15.05-.3.15-1.3.45-3.6.15-1.25.35-2.2 0-.15 0-.3.1 0 .3 0 .35-.1.7-.1.35 0 1.5 0m2.25.55q0 .3 0 .45 0 .15 0 .5-.05.2-.05.45-.1.95-.25 2.75-.05.15-.15 1.5l4.65-.05q.45.05 1.25.05.05-.8.1-1.5.1-2.65.25-4.4-.15 0-.25 0-.7.05-1.35.05-2.85.15-4.2.2m91.8 21.05q-.3-.25-.7-.45h-.3-.1q.15 14.5-1.6 32.4.02226563-.02597656.05-.2v.05q.07226563-.0125.1-.05.09355469-.00839844.15-.05.26074219-.0296875.5-.1.48203125-.15488281.9-.35.01542969-.18359375 0-.4.37441406-4.18359375.9-13.55.5-11.05.45-13.2 0-.97617187-.3-3.7-.02539062-.18535156-.05-.4z" fill="#999"/>
            <path d="m171.1 316.45q.2.4.45 1.15 0 .1.1.35v-.05q.9-.9 1.5-1.95.3-.7.55-1.5.05-.15.1-.4-.05 0-.35.1-.05 0-.1 0-.4.05-1.05.25l-.05.05q-.15.55-.35.95-.3.6-.8 1.05m-4.3 1.4q-.05.05-.05.1-.2.2-.3.35h.1q.7 1.05 2.05 1.05.25 0 .5 0-.1-.2-.1-.4-.1-.65-.1-1.45-.75-.1-1.15-.65-.3.25-.6.55-.1.15-.25.3-.05.1-.1.15m2.1-5.65-.5-1.3v-.15q-.25.15-.4.3-.7.8-1.2 1.7-.5.85-.8 1.7 0 .25 0 .4 0 .05 0 .15.1 0 .25 0 .2-.1.5-.1.3-.1.65-.2 0-.1.05-.25.2-.55.5-1.05.3-.55.7-1 .15-.1.25-.2m1.9-.7q.75.05 1.15.7.2-.15.35-.35.1-.1.25-.15.1-.15.25-.25.15-.1.25-.15.15-.15.35-.3-.7-1.2-1.9-1.3h-.1l-.15.45zm196.5-.75h-.05q-.2.15-.35.3-.75.8-1.2 1.7-.5.85-.8 1.7-.05.25-.05.4 0 .05 0 .15.15 0 .3 0 .2-.1.45-.1.3-.1.7-.2 0-.1.05-.25.2-.55.5-1.05.3-.55.7-1 .15-.1.2-.2l-.45-1.3zm3.9 3.65-.05.05q-.2.55-.35.95-.35.6-.8 1.05.15.4.4 1.15 0 .1.15.35v-.05q.9-.9 1.45-1.95.3-.7.55-1.5.1-.15.15-.4-.05 0-.4.1h-.05q-.4.05-1.05.25m-4.55 2.45q-.3.25-.6.55-.15.15-.25.3-.05.1-.1.15-.1.05-.1.1-.15.2-.25.35h.05q.75 1.05 2.1 1.05.25 0 .5 0-.1-.2-.1-.4-.15-.65-.15-1.45-.7-.1-1.1-.65m3.75-7.15h-.1l-.15.45-.45 1.35q.7.05 1.15.7.15-.15.35-.35.1-.1.25-.15.1-.15.25-.25.1-.1.25-.15.2-.15.35-.3-.7-1.2-1.9-1.3z" fill="#333"/>
            <path d="m380.35 307.15q-.3-1.4-.95-2.6-2.15-4.05-6.7-4.15-.1 0-.15 0-4.65 0-9.05 4.15-4.45 4.1-6 9.9-1.55 5.85.65 9.9 2.2 4.15 6.85 4.15 4.6 0 9.1-4.15 4.35-4.05 5.95-9.9 1.05-4.05.3-7.3m-13.65 2.15q1.9-1.5 3.85-1.5.25 0 .4 0 1.85.15 2.85 1.9 1.15 2 .35 4.75-.3 1.05-.75 2-.85 1.5-2 2.7 0 .1-.15.1-1.65 1.55-3.25 1.85-.45.1-1 .1-1.85 0-2.85-1.35-.25-.3-.4-.6-.95-1.85-.3-4.25 0-.3.05-.55.35-1.3 1-2.45.65-1.3 1.65-2.3.3-.25.55-.4z" fill="url(#Gradient_4)"/>
            <path d="m370.55 309.05q-.15 0-.4 0-1.55 0-3.1 1.15-.15.25-.4.4-.85.85-1.35 1.85-.55.95-.85 2-.1.25-.1.4-.45 2 .25 3.45.2.35.4.55.8 1.1 2.3 1.1.45 0 .85-.1 1.3-.3 2.65-1.55.05 0 .05-.05 1-.95 1.7-2.15.3-.8.55-1.65.6-2.25-.3-3.85-.8-1.45-2.25-1.55m-2.4 10.2q-.05-.15-.15-.3 1.25-.25 2.4-1.3 0 .15.05.3-1.1 1.05-2.3 1.3m4.15-8.25v.05q.8 1.25.4 3-.05.25-.15.4-.25.8-.55 1.5-.55 1.05-1.45 1.95v.05q-.15-.25-.15-.35-.25-.75-.4-1.15.45-.45.8-1.05.15-.4.35-.95l.05-.05q.65-.2 1.05-.25h.05q.35-1.65-.3-2.8 0-.05-.05-.05-.15.05-.25.15-.15.1-.25.25-.15.05-.25.15-.2.2-.35.35-.45-.65-1.15-.7l.45-1.35q-.15 0-.25 0-1.35 0-2.45.9l-.15-.15.45 1.3q-.05.1-.2.2-.4.45-.7 1-.3.5-.5 1.05-.05.15-.05.25-.4.1-.7.2-.25 0-.45.1-.3 1.45.25 2.6.1.2.2.35 0-.05.1-.1.05-.05.1-.15.1-.15.25-.3.3-.3.6-.55.4.55 1.1.65 0 .8.15 1.45 0 .2.1.4-.25 0-.5 0-1.35 0-2.1-1.05h-.05q-.15-.2-.25-.4-.6-1.25-.25-2.9 0-.1 0-.15 0-.15.05-.4.3-.85.8-1.7.45-.9 1.2-1.7.15-.15.35-.3h.05q1.25-1.05 2.7-1.05.15 0 .3 0h.1q1.2.1 1.9 1.3m-2.15 1.85q0 .05.1.15.35.65.15 1.45v.1q-.15.25-.35.6-.1.35-.45.7-.15.1-.2.15-.6.6-1.25.6-.15 0-.25 0-.4-.15-.6-.45-.1-.1-.15-.15-.3-.7-.15-1.4v-.05q.15-.4.35-.85.2-.35.55-.7.65-.55 1.35-.55.1 0 .15 0 .5.05.75.4z" fill="url(#Gradient_5)"/>
            <path d="m293.3 90.1q-26.95-2.2-50-2.05-23.1.1-50.25 2.4-24.2 2.05-43.2 6l-4.6 20.2q-.85 3.75-1.6 7.55-8.95 42.75-17.15 91.75-6.55 39.3-10.1 66.2 0 .7.2 1.45 3.35 1.7 4.65 2.65 5.8 4.1 5.8 9.35 0 2.25-.5 5.3-.25 1.8-.6 3.3h15.7q5.25.55 11.8.95.3-2.75.95-4.4.1-.25.25-.5 1.3-2.65 4.4-3.85 3.2-1.2 10.2-1.5 3.95-.2 17.7-.2 13.7 0 15.4.35 4.6.95 5.55 4.75.25 1 .25 2.15 0 2.15-.15 4.4 11.95-.15 39.55-1.05 33.2-1.1 41.25-1.1l30.55.7.05-.1 21.05-209.4q-20.2-3.1-47.15-5.3m-131.05 34.15q.8-4.35 1.6-8.85 17.55-.15 55.35-.8 46.9 0 62.6.4 22.3.45 39.2 2.15-3.65 27.3-8.75 71.75-3.75 32.4-6.15 52.4-.25 1.9-.45 3.75-.65 5.15-1.15 9.4-13.65.45-44.8 2.2-41.3 2.3-59.55 2.3-12.05 0-35.2-.65-7.6-.2-23 .65 4-30.95 6.9-52.1 4.45-32.6 11.2-70.5 1.05-6 2.2-12.1m-2.25-24.6q.05.55.1.95.05.6.05.85 0 .8-.1 1.6-.1 1-.3 2.05-2.6 0-5 .1-3.3.1-5.1.3 0-.2 0-.5 0-.05 0-.15 0-.8.15-2.3 0-.3.05-.7.15-1 .3-1.65.25-.05.6-.1 1.35-.2 3.5-.5 3.25-.45 5.75-.5 0 .25 0 .55m-14.45 192q0-4.15 9.15-7.3 8.9-3 20.15-3 21.05 0 28.6 1 10.85 1.4 10.85 5.9 0 2.4-.8 4.85-.2.8-.55 1.8-.1-1.15-.35-2.35-.95-4.3-3.7-4.8-5.85-1-9.25-1.4-7.5-1-13.95-1-23.45 0-30.95 2.7-7.8 2.75-7.3 10.85-.65-1.2-1.1-2.85-.8-2.75-.8-4.4m247.15-166.2q-14.2.05-14.55.05-10.95 0-23.5.15-9.9.1-16.35.1l-17 173.1 16.05.1 54.7-60.85q.25-.35.25-4.85-.05-4.55.55-25.15.5-20.65.7-25.55.15-5 0-11.85-.2-6.9.05-16.25.2-9.35-.9-29m-9.65 4.45q5.85-.05 5.8 5.4l-.55 27.2q-.15 6.05-6.4 6.05h-36.55q-6.15 0-5.6-6.05l2.85-27.2q.4-5.45 6.3-5.4zm-43.05 44.95q1.2-.05 2.35-.1 3.5-.15 6.15-.2.3 0 .6 0 .25 0 .5 0 .35 0 .7 0-.05.4-.15 1.05 0 .1 0 .2-.3 1.85-.75 5.5-.05.25-.05.5 0 .1 0 .3-.1.5-.15 1-.65.05-1.2.05-1.9.05-2.95.05-1.95-.05-3.45-.05-2.2 0-3.4-.05-.45 0-.85 0-1 .05-1.65.05.05-.55.15-1.35.1-1.2.3-2.9.2-1.7.4-2.95.05-.5.1-.9.6-.05 1.3-.1.15 0 .2 0 .85-.05 1.85-.1m18.4-76.55q-13.15-2.15-17.1-2.85-.5 6.25-1.4 13.75-.95 7.5-1.4 15.5l55.25-.3q0 .6.05 1.3.1 4.6.25 11.7.3 12.7.3 16.85l-.1 6.75q.1 0 .05 2.05-.05 2-.05 3.65 0 1.65.05 4.1 0 2.45.05 5.3 0 2.8-1.15 59.15-.05 1.55-.1 3.2-.95 1.15-1.95 2.35-11 12.5-28.75 32-3.75 4.2-7.45 8.25-1.05 1.15-2.15 2.3-6.85 7.55-13.35 14.65-.8.9-1.6 1.75-1.35.05-2.8.05-4.15.1-9.2.05-2.6-.05-4.7-.1-.35 2.55-.65 5.1v.1l15.7.35 17.1-.5q.65-3.15 1.6-7.45.05-.25.05-.4 1.25-5.7 2.65-9.55.6-1.8 1.25-3.2.1-.15.15-.35 6.05-12.5 23.9-12.5 11.55 0 17.7 1.2 1.75.4 3.1.85 7.1 2.55 7.1 9.8 0 .05-1 12-.45 5.3-.9 9.15 2.5 0 5.1.05-1.4-1.7-1.4-8.7 0-8 4-10.45 1.6-1 4.65-1.7.2-.05.5-.05 7.95-55.6 7.95-69.7 0-3.45-.95-20.2-.45-7.6-.7-12.5-4.8-3.3-11.35-6.1-3.8-1.65-7.6-2.8-.8-.25-1.6-.5-5.4-1.55-10.75-2.15-.6-8.8-1.35-25.9-.65-14.4-1.35-24.95l-1.05-12.95q-8.3-2.35-14.9-3.85-6.6-1.5-19.7-3.6m-257.35 187.6q-.5 1.35-.5 3.3 0 1.65 1.35 9.25.6 3.2 1.1 5.75h19.45q.1-.7.2-1.2.4-2.4.4-4.75 0-8.9-8.3-12.1-4.55-1.8-12.3-1.8-.9 0-1.4 1.55m320.2.9q-2.35 1-4.25 3.1-3.35 3.75-3.35 8.55 0 .95.6 4 .25 1.1.45 1.95.2 0 .4 0 3.85.05 7.85.1h.05q2.15 0 4.1.05 2.35-7.2 2.9-10.05.6-2.85.6-5 0-2.2-1.05-2.95-1.1-.75-3.15-.75-2.85 0-5.15 1z" fill="url(#Gradient_6)"/>
            <path d="m154.7 284.35q-9.15 3.15-9.15 7.3 0 1.65.8 4.4.45 1.65 1.1 2.85-.5-8.1 7.3-10.85 7.5-2.7 30.95-2.7 6.45 0 13.95 1 3.4.4 9.25 1.4 2.75.5 3.7 4.8.25 1.2.35 2.35.35-1 .55-1.8.8-2.45.8-4.85 0-4.5-10.85-5.9-7.55-1-28.6-1-11.25 0-20.15 3m9.15-168.95q-.8 4.5-1.6 8.85-1.15 6.1-2.2 12.1-6.75 37.9-11.2 70.5-2.9 21.15-6.9 52.1 15.4-.85 23-.65 23.15.65 35.2.65 18.25 0 59.55-2.3 31.15-1.75 44.8-2.2.5-4.25 1.15-9.4.2-1.85.45-3.75 2.4-20 6.15-52.4 5.1-44.45 8.75-71.75-16.9-1.7-39.2-2.15-15.7-.4-62.6-.4-37.8.65-55.35.8m176.6-20 .45-4.8q-3.6-.45-7.2-.9-47.3-5.95-93.25-5.95-35 0-59.9 3.3-15.45 2.45-29.5 4.3-.1 0-.2 0-3.15.4-6.2.8-.6 2.8-1.25 5.8-.9 4.6-1.9 9.45-1.25 6.35-2.5 13.3-.15.55-.25 1.15-5.7 30.05-12.35 69.85-4.95 29.7-9.75 60.3-.2 1.05-.3 2.15-.55 3.2-1.05 6.5-.3 2.15-.65 4.3-.15.85-.25 1.7-.5 3.15-1 6.35-.35 2.3-.7 4.6-.1.8-.2 1.6-.2 1.1-.35 2.2-.05.35-.1.75-1.35-.35-2.9-.7-6.85-1.55-8.15-1.55-1.45 0-2.3 1.65-.8 1.6-.8 4.35 0 1.75 1.4 11.75.55 4 1 6.55h2.7q-.5-2.55-1.1-5.75-1.35-7.6-1.35-9.25 0-1.95.5-3.3.5-1.55 1.4-1.55 7.75 0 12.3 1.8 8.3 3.2 8.3 12.1 0 2.35-.4 4.75-.1.5-.2 1.2h3.5q.35-1.5.6-3.3.5-3.05.5-5.3 0-5.25-5.8-9.35-1.3-.95-4.65-2.65-.2-.75-.2-1.45 3.55-26.9 10.1-66.2 8.2-49 17.15-91.75.75-3.8 1.6-7.55l4.6-20.2q19-3.95 43.2-6 27.15-2.3 50.25-2.4 23.05-.15 50 2.05 26.95 2.2 47.15 5.3m.85.05q3.95.7 17.1 2.85 13.1 2.1 19.7 3.6 6.6 1.5 14.9 3.85l1.05 12.95q.7 10.55 1.35 24.95.75 17.1 1.35 25.9 5.35.6 10.75 2.15.8.25 1.6.5 3.8 1.15 7.6 2.8 6.55 2.8 11.35 6.1.25 4.9.7 12.5.95 16.75.95 20.2 0 14.1-7.95 69.7-.3 0-.5.05-3.05.7-4.65 1.7-4 2.45-4 10.45 0 7 1.4 8.7.35 0 .7 0-.2-.85-.45-1.95-.6-3.05-.6-4 0-4.8 3.35-8.55 1.9-2.1 4.25-3.1 2.3-1 5.15-1 2.05 0 3.15.75 1.05.75 1.05 2.95 0 2.15-.6 5-.55 2.85-2.9 10.05 1.7 0 3.3.05 1-2.95 2-6.05 2.55-8.1 2.55-11.7 0-2.7-.6-3.4-.65-.8-3.1-.8-.55.05-1.1.05-2.15.15-3.95.25 0-.2 0-.35 1-7.15 1.9-14.9 2.53925781-20.9109375 3.65-38.7v-.05q-.02773437.17402344-.05.2 1.75-17.9 1.6-32.4h.1q0-1.4 0-2.75 0-1.6-.2-8.65-.05-.95-.05-2.05-.05-1.5-.1-2.95-2.65-1.3-5.25-2.6-4.25-2.1-8.3-4.25-4.55-2.35-8.5-4.5-.15-.1-.3-.2.1 0 .3 0-.25-1-.45-2-4.65-21.8-8.8-39.55-.15-.75-.35-1.5-.15-.65-.3-1.35v-.05q-.45-1.9-.85-3.7-1.75-7.25-3.3-13.8-.9-3.75-1.8-7.3-1.35-.3-2.7-.5-26.3-5.05-50.6-8.35zm56.5 30.3q.75 0 1.55 0l9.05 42.95q-.8-.05-1.55-.05-5.5-.3-8.8-.4l-1.85-42.5q.75 0 1.6 0m34.05 103.2h.05l.1-.05q-.05644531.04160156-.15.05m2.55-31.75q.02460938.21464844.05.4.3 2.72382813.3 3.7.05 2.15-.45 13.2-.52558594 9.36640625-.9 13.55.01542969.21640625 0 .4.95-.5 1.35-1.25.5-1.05.8-5.9.05-1.3.45-9.75.4-8.45.35-10.35-.05-1.95-.6-2.8-.4-.6-1.35-1.2z" fill="#fff"/>
            <path d="m158 101.5q0 .1 0 .2 0 1.25-.3 2.6-1.85 0-3.55.1-2.3 0-3.65.2 0-.2 0-.4v-.05q0-.5.1-1.2 0-.1 0-.15-.3-.05-.6-.15-.1-.05-.2-.1-.15 1.5-.15 2.3 0 .1 0 .15 0 .3 0 .5 1.8-.2 5.1-.3 2.4-.1 5-.1.2-1.05.3-2.05-.7-.1-1.4-.75-.4-.4-.65-.8m-51 168.65q-.15.35-.15.75 0 2.6 2.4 4.6.85.65 2.35 1.55-.05-.4-.05-.8 0-.75.4-3.05-2.85-.2-4.85-2.9-.05-.1-.1-.15m2.95-11.15q-.4-.25-.7-.5 0 2.6 2.4 4.55.7.55 1.8 1.25.45-2.35.65-3.7-2.3-.3-4.15-1.6z" fill="#900"/>
            <path d="m158 101.5q0-.1 0-.25-.05-.05-.05-.15 0-.3-.05-.7 0-.2 0-.35-1.8.05-4.1.35-1.5.2-2.5.3-.25.05-.4.15-.1.4-.2 1.15-.05.4-.1.8 0 .05 0 .15-.1.7-.1 1.2v.05q0 .2 0 .4 1.35-.2 3.65-.2 1.7-.1 3.55-.1.3-1.35.3-2.6 0-.1 0-.2z" fill="#f00"/>
            <path d="m160.1 100.6q-.05-.4-.1-.95 0-.3 0-.55-2.5.05-5.75.5-2.15.3-3.5.5-.35.05-.6.1-.15.65-.3 1.65-.05.4-.05.7.1.05.2.1.3.1.6.15.05-.4.1-.8.1-.75.2-1.15.15-.1.4-.15 1-.1 2.5-.3 2.3-.3 4.1-.35 0 .15 0 .35.05.4.05.7 0 .1.05.15 0 .15 0 .25.25.4.65.8.7.65 1.4.75.1-.8.1-1.6 0-.25-.05-.85m-50.8 167.3q-1.8 1.05-2.3 2.25.05.05.1.15 2 2.7 4.85 2.9.3-2 .85-5.1.1-.8.3-1.5-1.9.2-3.8 1.3m5.6-13.65q-1.6.3-3.2 1.2-2.45 1.45-2.45 3v.05q.3.25.7.5 1.85 1.3 4.15 1.6.2-1.25.25-1.75.4-3.45.55-4.6z" fill="#c00"/>
            <path d="m386.7 136.5q.1-4.95-5.25-4.9h-31.2q-5.4-.05-5.75 4.9l-2.6 24.85q-.55 5.5 5.1 5.5h33.4q5.7 0 5.8-5.5zm11.4-9.4h-1l2.2 39.4 7.15.15z"/>
            <path d="m433.05 180.35q.05 1.45.1 2.95 0 1.1.05 2.05.2 7.05.2 8.65 0 1.35 0 2.75h.3q.4.2.7.45.95.6 1.35 1.2.55.85.6 2.8.05 1.9-.35 10.35-.4 8.45-.45 9.75-.3 4.85-.8 5.9-.4.75-1.35 1.25-.41796875.19511719-.9.35-.23925781.0703125-.5.1l-.1.05h-.05q-.02773437.0375-.1.05-1.11074219 17.7890625-3.65 38.7-.9 7.75-1.9 14.9 0 .15 0 .35 1.8-.1 3.95-.25 8.75-60.65 8.05-98.75z" fill="url(#Gradient_7)"/>
            <path d="m116.65 252h-.25q-1.1.25-1.45 1.8 0 .1-.05.45-.15 1.15-.55 4.6-.05.5-.25 1.75-.2 1.35-.65 3.7-.15 1.05-.35 2.3-.2.7-.3 1.5-.55 3.1-.85 5.1-.4 2.3-.4 3.05 0 .4.05.8.15 1.65.9 2.15.1-.8.2-1.6.35-2.3.7-4.6.5-3.2 1-6.35.1-.85.25-1.7.35-2.15.65-4.3.5-3.3 1.05-6.5.1-1.1.3-2.15z" fill="#ccc"/>
        </g>
    </g>
    <g>
        <g id="Layer1_0_FILL">
            <path d="m384.05 138q.1-4.35-4.65-4.3h-27.45q-4.8-.05-5.1 4.3l-2 18.85q5.70839844.55 10.4.55 6.25 0 12.05-1.5 5.8-1.55 8.2-1.55 1.79746094 0 8.15 1.55z" fill="url(#Gradient_8)"/>
            <path d="m398.4 130.95h-.75l1.65 25.6q.22714844-.05449219.45-.1 2.08066406-.4296875 3.5-.7z" fill="url(#Gradient_9)"/>
        </g>
    </g>
</svg>
