<?xml version="1.0" encoding="UTF-8" standalone="no"?>
<!DOCTYPE svg PUBLIC "-//W3C//DTD SVG 1.1//EN" "http://www.w3.org/Graphics/SVG/1.1/DTD/svg11.dtd">
<svg width="100%" height="100%" viewBox="0 0 718 856" version="1.1" xmlns="http://www.w3.org/2000/svg" xmlns:xlink="http://www.w3.org/1999/xlink" xml:space="preserve" xmlns:serif="http://www.serif.com/" style="fill-rule:evenodd;clip-rule:evenodd;stroke-linejoin:round;stroke-miterlimit:2;">
    <g transform="matrix(1,0,0,1,-385,-753)">
        <g id="man">
            <g id="arm-far" serif:id="arm far" transform="matrix(0.696006,-0.0656678,0.0656678,0.696006,315.057,388.553)">
                <path d="M448.447,1579.31L411.121,1543.58L392.212,1455.52C413.413,1453.25 434.281,1460.87 453.231,1525.31L449.822,1442.4C464.033,1442.09 478.938,1437.64 490.761,1511.8L490.104,1442.13C510.282,1434.94 511.374,1447.91 523.036,1508.71L612.203,1572.79L448.447,1579.31Z" style="fill:rgb(177,136,136);"/>
                <g transform="matrix(1.42409,0.134362,-0.134362,1.42409,-396.463,-595.668)">
                    <path d="M775.896,1360.63C777.224,1355.03 777.354,1349.51 775.162,1344.31C763.843,1317.45 702.912,1251.48 696.522,1227.16C691.3,1207.29 737.519,1090.64 752.164,1056.4C758.37,1041.89 778.942,1014.5 819.834,1027.24C849.244,1036.41 859.071,1066.07 855.067,1082.92C847.763,1113.67 795.442,1217.89 795.442,1217.89C795.442,1217.89 838.823,1292.97 852.371,1319C861.637,1336.81 873.369,1361.61 876.727,1374.07C878.474,1380.56 874.304,1391.31 870.72,1398.73C864.641,1411.32 845.454,1445.87 845.454,1445.87C835.719,1459.96 821.192,1463.33 812.233,1449.8C790.843,1469.67 778.795,1466.8 770.587,1453.97C755.705,1469.81 734.795,1472.43 728.267,1456.2C736.053,1432.45 748.469,1416.28 757.388,1401.66C751.866,1403.76 747.77,1405.32 747.77,1405.32C731.631,1414.62 720.062,1410.53 713.285,1392.4L738.829,1375.26L775.896,1360.63Z" style="fill:rgb(209,173,173);"/>
                    <clipPath id="_clip1">
                        <path d="M775.896,1360.63C777.224,1355.03 777.354,1349.51 775.162,1344.31C763.843,1317.45 702.912,1251.48 696.522,1227.16C691.3,1207.29 737.519,1090.64 752.164,1056.4C758.37,1041.89 778.942,1014.5 819.834,1027.24C849.244,1036.41 859.071,1066.07 855.067,1082.92C847.763,1113.67 795.442,1217.89 795.442,1217.89C795.442,1217.89 838.823,1292.97 852.371,1319C861.637,1336.81 873.369,1361.61 876.727,1374.07C878.474,1380.56 874.304,1391.31 870.72,1398.73C864.641,1411.32 845.454,1445.87 845.454,1445.87C835.719,1459.96 821.192,1463.33 812.233,1449.8C790.843,1469.67 778.795,1466.8 770.587,1453.97C755.705,1469.81 734.795,1472.43 728.267,1456.2C736.053,1432.45 748.469,1416.28 757.388,1401.66C751.866,1403.76 747.77,1405.32 747.77,1405.32C731.631,1414.62 720.062,1410.53 713.285,1392.4L738.829,1375.26L775.896,1360.63Z"/>
                    </clipPath>
                    <g clip-path="url(#_clip1)">
                        <path d="M711.359,1405.73C720.644,1406.24 730.045,1406.94 739.024,1403.97C745.821,1401.72 766.998,1389.08 778.11,1386.52C787.095,1384.45 792.682,1397.75 805.694,1388.6C813.719,1398.88 828.22,1399.58 839.16,1388.43C847.169,1401.69 860.02,1402.72 873.364,1387.09C873.364,1387.09 880.183,1380.7 880.754,1381.24C888.606,1388.6 871.882,1434.18 867.223,1442.61C848.029,1477.34 752.293,1493.53 715.835,1486.12C691.643,1481.21 711.359,1405.73 711.359,1405.73Z" style="fill:rgb(177,136,136);"/>
                        <path d="M754.082,1350.46C764.483,1368.47 796.509,1359.14 787.995,1332.76C782.986,1317.24 773.547,1304.19 764.344,1290.93C750.798,1271.41 734.578,1248.17 713.317,1236C705.402,1231.46 697.245,1228.69 688.865,1225.18C687.674,1224.69 681.122,1252.18 685.973,1263.33C691.893,1276.93 754.082,1350.46 754.082,1350.46Z" style="fill:rgb(177,136,136);"/>
                    </g>
                </g>
            </g>
        </g>
    </g>
</svg>
