<?xml version="1.0" encoding="UTF-8" standalone="no"?>
<!DOCTYPE svg PUBLIC "-//W3C//DTD SVG 1.1//EN" "http://www.w3.org/Graphics/SVG/1.1/DTD/svg11.dtd">
<svg width="100%" height="100%" viewBox="0 0 718 856" version="1.1" xmlns="http://www.w3.org/2000/svg" xmlns:xlink="http://www.w3.org/1999/xlink" xml:space="preserve" xmlns:serif="http://www.serif.com/" style="fill-rule:evenodd;clip-rule:evenodd;stroke-linejoin:round;stroke-miterlimit:2;">
    <g transform="matrix(1,0,0,1,-385,-753)">
        <g id="man">
            <g id="arm-far" serif:id="arm far" transform="matrix(0.696006,-0.0656678,0.0656678,0.696006,315.057,388.553)">
                <path d="M448.447,1579.31L411.121,1543.58L392.212,1455.52C413.413,1453.25 434.281,1460.87 453.231,1525.31L449.822,1442.4C464.033,1442.09 478.938,1437.64 490.761,1511.8L490.104,1442.13C510.282,1434.94 511.374,1447.91 523.036,1508.71L612.203,1572.79L448.447,1579.31Z" style="fill:rgb(177,136,136);"/>
                <g transform="matrix(1.42409,0.134362,-0.134362,1.42409,-396.463,-595.668)">
                    <path d="M775.896,1360.63C777.224,1355.03 777.354,1349.51 775.162,1344.31C763.843,1317.45 702.912,1251.48 696.522,1227.16C691.3,1207.29 737.519,1090.64 752.164,1056.4C758.37,1041.89 778.942,1014.5 819.834,1027.24C849.244,1036.41 859.071,1066.07 855.067,1082.92C847.763,1113.67 795.442,1217.89 795.442,1217.89C795.442,1217.89 838.823,1292.97 852.371,1319C861.637,1336.81 873.369,1361.61 876.727,1374.07C878.474,1380.56 874.304,1391.31 870.72,1398.73C864.641,1411.32 845.454,1445.87 845.454,1445.87C835.719,1459.96 821.192,1463.33 812.233,1449.8C790.843,1469.67 778.795,1466.8 770.587,1453.97C755.705,1469.81 734.795,1472.43 728.267,1456.2C736.053,1432.45 748.469,1416.28 757.388,1401.66C751.866,1403.76 747.77,1405.32 747.77,1405.32C731.631,1414.62 720.062,1410.53 713.285,1392.4L738.829,1375.26L775.896,1360.63Z" style="fill:rgb(209,173,173);"/>
                    <clipPath id="_clip1">
                        <path d="M775.896,1360.63C777.224,1355.03 777.354,1349.51 775.162,1344.31C763.843,1317.45 702.912,1251.48 696.522,1227.16C691.3,1207.29 737.519,1090.64 752.164,1056.4C758.37,1041.89 778.942,1014.5 819.834,1027.24C849.244,1036.41 859.071,1066.07 855.067,1082.92C847.763,1113.67 795.442,1217.89 795.442,1217.89C795.442,1217.89 838.823,1292.97 852.371,1319C861.637,1336.81 873.369,1361.61 876.727,1374.07C878.474,1380.56 874.304,1391.31 870.72,1398.73C864.641,1411.32 845.454,1445.87 845.454,1445.87C835.719,1459.96 821.192,1463.33 812.233,1449.8C790.843,1469.67 778.795,1466.8 770.587,1453.97C755.705,1469.81 734.795,1472.43 728.267,1456.2C736.053,1432.45 748.469,1416.28 757.388,1401.66C751.866,1403.76 747.77,1405.32 747.77,1405.32C731.631,1414.62 720.062,1410.53 713.285,1392.4L738.829,1375.26L775.896,1360.63Z"/>
                    </clipPath>
                    <g clip-path="url(#_clip1)">
                        <path d="M711.359,1405.73C720.644,1406.24 730.045,1406.94 739.024,1403.97C745.821,1401.72 766.998,1389.08 778.11,1386.52C787.095,1384.45 792.682,1397.75 805.694,1388.6C813.719,1398.88 828.22,1399.58 839.16,1388.43C847.169,1401.69 860.02,1402.72 873.364,1387.09C873.364,1387.09 880.183,1380.7 880.754,1381.24C888.606,1388.6 871.882,1434.18 867.223,1442.61C848.029,1477.34 752.293,1493.53 715.835,1486.12C691.643,1481.21 711.359,1405.73 711.359,1405.73Z" style="fill:rgb(177,136,136);"/>
                        <path d="M754.082,1350.46C764.483,1368.47 796.509,1359.14 787.995,1332.76C782.986,1317.24 773.547,1304.19 764.344,1290.93C750.798,1271.41 734.578,1248.17 713.317,1236C705.402,1231.46 697.245,1228.69 688.865,1225.18C687.674,1224.69 681.122,1252.18 685.973,1263.33C691.893,1276.93 754.082,1350.46 754.082,1350.46Z" style="fill:rgb(177,136,136);"/>
                    </g>
                </g>
            </g>
            <g id="body">
                <path d="M812.177,1015.37C825.877,1070.81 830.259,1115.83 822.278,1147.02L807.927,1165.48L806.428,1182.6L822.73,1233.49C792.325,1343.92 561.422,1368.58 520.265,1330.69C503.409,1315.17 487.066,1235.68 487.066,1235.68L479.839,1190.97L483.966,1149.11C499.365,1078.53 524.473,1018.75 562.046,969.875C642.386,949.609 723.929,943.377 812.177,1015.37Z" style="fill:rgb(209,173,173);"/>
                <clipPath id="_clip2">
                    <path d="M812.177,1015.37C825.877,1070.81 830.259,1115.83 822.278,1147.02L807.927,1165.48L806.428,1182.6L822.73,1233.49C792.325,1343.92 561.422,1368.58 520.265,1330.69C503.409,1315.17 487.066,1235.68 487.066,1235.68L479.839,1190.97L483.966,1149.11C499.365,1078.53 524.473,1018.75 562.046,969.875C642.386,949.609 723.929,943.377 812.177,1015.37Z"/>
                </clipPath>
                <g clip-path="url(#_clip2)">
                    <path d="M832.587,1146.82C838.174,1131.17 840.863,1081.49 840.863,1081.49C840.863,1081.49 820.733,1144.1 815.328,1142.86C803.478,1140.15 791.7,1136.57 788.209,1135.69C766.367,1130.23 735.269,1127.82 657.926,1154.43C655.103,1155.41 612.552,1171.88 618.17,1180.59C618.997,1181.87 641.343,1176.24 645.624,1175.28C672.146,1169.34 698.952,1160.88 725.854,1156.9C750.663,1153.23 771.25,1155.26 796.319,1159.27C809.364,1161.36 826.181,1171.29 831.998,1151.55" style="fill:rgb(177,136,136);"/>
                </g>
                <path d="M675.213,1270.57C700.047,1241.95 733.851,1210.44 795.032,1187.64C907.982,1145.55 1014.86,1137.52 1077.17,1274.04C1085.47,1292.23 1097.44,1366.18 1089.53,1404.92C1080.25,1450.32 1052.4,1513.03 1007.5,1529.4C924.462,1559.69 725.635,1571.32 641.782,1536.76C566.225,1505.62 511.14,1368.16 516.364,1322.66" style="fill:rgb(209,173,173);"/>
                <clipPath id="_clip3">
                    <path d="M675.213,1270.57C700.047,1241.95 733.851,1210.44 795.032,1187.64C907.982,1145.55 1014.86,1137.52 1077.17,1274.04C1085.47,1292.23 1097.44,1366.18 1089.53,1404.92C1080.25,1450.32 1052.4,1513.03 1007.5,1529.4C924.462,1559.69 725.635,1571.32 641.782,1536.76C566.225,1505.62 511.14,1368.16 516.364,1322.66"/>
                </clipPath>
                <g clip-path="url(#_clip3)">
                    <path d="M1090.71,1446.1C1007.18,1512.08 877.703,1528.07 776.69,1498.16C749.575,1490.13 732.033,1466.07 705.054,1459.74C681.673,1454.26 656.816,1461.61 634.055,1454.25C583.594,1437.95 543.739,1366.18 523.722,1347.75C512.776,1337.68 485.919,1322.65 483.094,1353.72C474.363,1449.73 548.561,1568.92 640.59,1595.88C758.285,1630.35 891.355,1622.25 1005.68,1580.96C1044,1567.12 1081.37,1543.5 1104.48,1509.33C1120.56,1485.55 1130.56,1470 1108.23,1448.11L1090.71,1446.1Z" style="fill:rgb(177,136,136);"/>
                    <path d="M1085.72,1293.84C1036.94,1189.91 972.313,1146.09 804.981,1194.91C769.54,1205.25 725.749,1228.68 695.449,1247.89C684.549,1254.81 671.951,1262.45 657.72,1260.39C655.704,1260.1 650.492,1259.19 651.715,1255.47C659.143,1232.89 717.465,1203.15 737.924,1193.04C808.39,1158.23 882.038,1136.26 961.317,1140.42C973.079,1141.04 985.742,1140.13 997.213,1143.24C1017.23,1148.66 1036.89,1159.39 1054.52,1170.28C1083.57,1188.22 1113.28,1211.27 1120.05,1246.83C1122.24,1258.35 1085.72,1293.84 1085.72,1293.84Z" style="fill:rgb(226,200,200);"/>
                </g>
            </g>
            <g id="head">
                <path d="M522.995,1029.26C586.394,931.936 659.466,778.07 907.872,763.065L908.776,1022.68C819.364,1018.83 769.997,1029.35 755.593,1052.42C660.994,966.764 591.104,972.898 522.995,1029.26Z" style="fill:rgb(226,200,200);"/>
                <clipPath id="_clip4">
                    <path d="M522.995,1029.26C586.394,931.936 659.466,778.07 907.872,763.065L908.776,1022.68C819.364,1018.83 769.997,1029.35 755.593,1052.42C660.994,966.764 591.104,972.898 522.995,1029.26Z"/>
                </clipPath>
                <g clip-path="url(#_clip4)">
                    <path d="M956.37,971.746C942.998,963.594 913.044,969.47 897.728,970.395C849.263,973.324 801.08,980.41 756.512,1000.86C736.844,1009.89 751.852,1030.59 751.443,1045.66C751.238,1053.24 745.34,1069.07 754.028,1074.5C771.085,1085.16 862.838,1064.41 888.029,1061.08C908.595,1058.37 933.596,1059.52 952.48,1049.93C974.178,1038.92 956.37,971.746 956.37,971.746Z" style="fill:rgb(209,173,173);"/>
                </g>
                <g transform="matrix(1.06153,0,0,1.03058,-71.5858,-34.7376)">
                    <ellipse cx="931.555" cy="900.752" rx="91.928" ry="126.566" style="fill:rgb(226,200,200);"/>
                </g>
            </g>
            <g id="arm-close" serif:id="arm close">
                <path d="M448.447,1579.31L411.121,1543.58L392.212,1455.52C413.413,1453.25 434.281,1460.87 453.231,1525.31L449.822,1442.4C464.033,1442.09 478.938,1437.64 490.761,1511.8L490.104,1442.13C510.282,1434.94 511.374,1447.91 523.036,1508.71L612.203,1572.79L448.447,1579.31Z" style="fill:rgb(177,136,136);"/>
                <path d="M643.082,1439.31L695.601,1463.88C692.999,1487.85 670.433,1492.56 659.589,1485.14C635.894,1468.93 628.858,1448.08 643.082,1439.31Z" style="fill:rgb(177,136,136);"/>
                <path d="M675.727,1061.41C661.194,1104.21 572.681,1245.59 572.681,1245.59C572.681,1245.59 624.371,1358.35 640.167,1397.24C650.971,1423.84 664.346,1460.74 667.453,1478.94C669.069,1488.41 661.688,1503.15 655.586,1513.24C645.238,1530.35 613.271,1576.98 613.271,1576.98C597.513,1595.74 576.373,1598.58 565.433,1578.11C532.301,1603.55 515.531,1597.83 505.564,1578.45C482.243,1599.02 452.113,1599.94 444.998,1575.94C463.706,1533.01 491.99,1509.65 505.626,1484.14C515.81,1465.09 533.296,1443.51 526.814,1422.9C514.304,1383.13 436.397,1281 430.564,1245.51C425.797,1216.51 507.291,1056.6 532.748,1009.81C543.534,989.982 576.511,953.728 633.033,977.377C673.684,994.386 683.694,1037.94 675.727,1061.41Z" style="fill:rgb(226,200,200);"/>
                <clipPath id="_clip5">
                    <path d="M675.727,1061.41C661.194,1104.21 572.681,1245.59 572.681,1245.59C572.681,1245.59 624.371,1358.35 640.167,1397.24C650.971,1423.84 664.346,1460.74 667.453,1478.94C669.069,1488.41 661.688,1503.15 655.586,1513.24C645.238,1530.35 613.271,1576.98 613.271,1576.98C597.513,1595.74 576.373,1598.58 565.433,1578.11C532.301,1603.55 515.531,1597.83 505.564,1578.45C482.243,1599.02 452.113,1599.94 444.998,1575.94C463.706,1533.01 491.99,1509.65 505.626,1484.14C515.81,1465.09 533.296,1443.51 526.814,1422.9C514.304,1383.13 436.397,1281 430.564,1245.51C425.797,1216.51 507.291,1056.6 532.748,1009.81C543.534,989.982 576.511,953.728 633.033,977.377C673.684,994.386 683.694,1037.94 675.727,1061.41Z"/>
                </clipPath>
                <g clip-path="url(#_clip5)">
                    <path d="M418.181,1244.21C414.39,1251.44 459.103,1260.46 465.049,1262.79C477.611,1267.71 495.872,1305.92 502.008,1314.36C525.417,1346.58 538.348,1393.47 556.316,1429.65C565.377,1447.89 567.674,1486.5 567.674,1486.5C558.926,1501.81 583.481,1527.91 615.788,1495.83C623.532,1510.25 637.598,1513.81 663.44,1497.11C663.44,1497.11 666.421,1588.53 631.432,1610.73C587.584,1638.54 525.516,1635.29 477.248,1625.29C463.583,1622.45 439.8,1613.23 430.93,1601.1C421.44,1588.11 422.324,1569.86 424.999,1554.91C433.447,1507.67 511.468,1465.99 496.313,1415.69C491.534,1399.84 420.585,1311.97 414.617,1292.44C411.229,1281.36 418.181,1244.21 418.181,1244.21Z" style="fill:rgb(209,173,173);"/>
                </g>
            </g>
        </g>
        <g id="women">
            <g id="woman">
                <g id="arm-far1" serif:id="arm far">
                </g>
                <g id="body1" serif:id="body">
                </g>
                <g id="head1" serif:id="head">
                </g>
                <g id="arm-close1" serif:id="arm close">
                </g>
            </g>
        </g>
    </g>
</svg>
