<?xml version="1.0" encoding="UTF-8" standalone="no"?><!DOCTYPE svg PUBLIC "-//W3C//DTD SVG 1.1//EN" "http://www.w3.org/Graphics/SVG/1.1/DTD/svg11.dtd">
<svg width="100%" height="100%" viewBox="0 0 1911 1984" version="1.1"
    xmlns="http://www.w3.org/2000/svg"
    xmlns:xlink="http://www.w3.org/1999/xlink" xml:space="preserve"
    xmlns:serif="http://www.serif.com/" style="fill-rule:evenodd;clip-rule:evenodd;stroke-linejoin:round;stroke-miterlimit:2;">
    <g id="woman">
        <g id="arm-far" serif:id="arm far">
            <path d="M149.533,1397.12c-33.704,28.111 -63.691,81.246 -82.957,120.544c-4.031,8.222 -30.988,61.467 -1.292,46.226c51.883,-26.627 88.229,-84.725 118.16,-132.581c8.855,-14.157 29.241,-38.649 26.704,-56.532c-2.428,-17.123 -47.865,11.971 -52.986,18.448" style="fill:#b18888;"/>
            <path d="M227.112,1367.54c-11.864,26.22 -22.182,54.987 -28.749,83.072c-3.78,16.164 -8.507,32.203 -12.154,48.375c-2.044,9.061 -4.636,18.041 -6.504,27.118c-7.107,34.525 21.141,29.235 39.209,-0.924c22.119,-36.92 41.939,-76.454 52.711,-118.394c2.22,-8.644 10.81,-36.348 -1.982,-41.254c-10.361,-3.975 -22.721,3.576 -32.803,6.539" style="fill:#b18888;"/>
            <path d="M276.241,1387.07c-3.481,20.92 5.024,39.378 9.904,59.442c2.927,12.036 7.448,23.483 10.614,35.414c1.771,6.672 4.642,47.843 18.552,34.07c4.971,-4.921 7.674,-11.973 9.667,-18.505c1.799,-5.899 3.12,-11.809 3.875,-17.942c3.902,-31.7 5.113,-64.616 -1.889,-95.806c-4.729,-21.062 -30.02,-32.275 -46.563,-13.498" style="fill:#b18888;"/>
            <path d="M828.704,578.837c-43.921,-11.763 -97.458,39.432 -117.343,73.269c-31.189,53.076 -44.401,115.946 -67.334,172.653c-26.304,65.04 -66.875,127.24 -106.302,184.996c-52.664,77.148 -110.492,171.245 -187.436,226.55c-47.088,33.846 -112.582,57.405 -154.583,93.153c-14.029,11.941 -20.264,31.365 -31.609,45.605c-9.049,11.357 -42.897,42.899 -34.617,61.086c19.306,42.404 90.037,-61.355 101.636,-66.126c2.698,-1.109 5.472,1.765 7.197,3.41c16.876,16.085 31.668,22.277 55.654,23.267c45.245,1.867 80.803,-32.711 113.327,-60.675c45.665,-39.264 77.983,-89.207 114.332,-136.543c84.142,-109.575 158.437,-221.317 228.125,-340.643c27.807,-47.613 124.865,-198.396 106.158,-253.037c-2.45,-7.157 -12.218,-18.899 -18.709,-22.727" style="fill:#d1adad;"/>
            <clipPath id="_clip1">
                <path d="M828.704,578.837c-43.921,-11.763 -97.458,39.432 -117.343,73.269c-31.189,53.076 -44.401,115.946 -67.334,172.653c-26.304,65.04 -66.875,127.24 -106.302,184.996c-52.664,77.148 -110.492,171.245 -187.436,226.55c-47.088,33.846 -112.582,57.405 -154.583,93.153c-14.029,11.941 -20.264,31.365 -31.609,45.605c-9.049,11.357 -42.897,42.899 -34.617,61.086c19.306,42.404 90.037,-61.355 101.636,-66.126c2.698,-1.109 5.472,1.765 7.197,3.41c16.876,16.085 31.668,22.277 55.654,23.267c45.245,1.867 80.803,-32.711 113.327,-60.675c45.665,-39.264 77.983,-89.207 114.332,-136.543c84.142,-109.575 158.437,-221.317 228.125,-340.643c27.807,-47.613 124.865,-198.396 106.158,-253.037c-2.45,-7.157 -12.218,-18.899 -18.709,-22.727"/>
            </clipPath>
            <g clip-path="url(#_clip1)">
                <path d="M853.265,632.442c-73.748,2.531 -120.422,76.689 -154.768,133.792c-34.027,56.574 -50.589,124.397 -76.041,185.229c-45.5,108.747 -136.024,205.365 -216.959,288.834c-28.646,29.543 -57.675,58.526 -90.946,82.874c-37.072,27.129 -95.824,36.367 -108.19,88.241c-15.977,67.023 61.422,76.365 109.235,55.469c88.651,-38.742 150.022,-139.395 204.592,-214.489c56.315,-77.497 102.106,-162.459 157.164,-240.788c76.562,-108.922 151.723,-240.543 167.801,-375.219" style="fill:#b18888;"/>
            </g>
        </g>
        <g id="body">
            <path d="M1059.03,1345.89c43.233,26.555 98.934,21.303 147.616,22.694c62.574,1.787 133.848,-20.994 188.066,-51.778c61.609,-34.981 156.093,-140.518 124.922,-219.908c-13.348,-33.996 -34.856,-48.387 -69.883,-56.728c-113.491,-27.028 -193.196,41.738 -261.22,124.5c-43.807,53.297 -80.567,110.877 -118.028,168.603" style="fill:#d1adad;"/>
            <clipPath id="_clip2">
                <path d="M1059.03,1345.89c43.233,26.555 98.934,21.303 147.616,22.694c62.574,1.787 133.848,-20.994 188.066,-51.778c61.609,-34.981 156.093,-140.518 124.922,-219.908c-13.348,-33.996 -34.856,-48.387 -69.883,-56.728c-113.491,-27.028 -193.196,41.738 -261.22,124.5c-43.807,53.297 -80.567,110.877 -118.028,168.603"/>
            </clipPath>
            <g clip-path="url(#_clip2)">
                <path d="M1549.92,1051.65c-34.001,-4.17 -80.937,33.982 -104.26,55.913c-29.108,27.37 -46.662,63.061 -74.011,91.373c-18.143,18.781 -36.667,37.29 -56.161,54.627c-39.9,35.485 -80.855,35.858 -84.706,100.073c-1.909,31.846 14.418,51.734 39.866,69.561c131.725,92.279 336.635,-130.322 358.54,-251.31c9.443,-52.156 -2.303,-131.3 -69.946,-127.25c-10.048,0.602 -21.367,-1.433 -30.221,3.81" style="fill:#b18888;"/>
                <path d="M1057.49,1335.5c15.087,11.861 47.493,4.641 65.132,-0.076c85.859,-22.96 -12.362,-102.678 -28.099,-104.978c-65.805,-9.619 -86.1,92.493 -37.033,105.054Z" style="fill:#b18888;stroke:#b18888;stroke-width:4.17px;stroke-linecap:round;stroke-miterlimit:1.5;"/>
            </g>
            <path d="M1153.3,1285.39c-13.196,-4.088 -39.693,-11.671 -42.624,-15.557c-33.165,-43.978 4.013,-96.589 15.246,-119.147c15.312,-30.748 45.15,-60.113 57.845,-91.851c15.414,-38.536 42.79,-72.736 57.92,-113.083c41.144,-109.716 95.6,-301.406 62.809,-416.177c-15.63,-54.705 -66.949,-148.001 -126.246,-165.79c-129.278,-38.783 -250.256,77.874 -333.734,161.351c-111.081,111.082 -163.763,265.123 -227.546,405.446c-48.857,107.486 -122.287,204.695 -131.011,326.839c-7.735,108.291 64.807,293.737 166.867,344.767c51.732,25.866 106.78,44.775 159.972,68.953c16.996,7.726 125.654,34.824 177.829,43.182c49.433,7.919 149.795,6.829 208.309,2.327c137.551,-10.58 287.856,-15.594 417.858,-70.332c85.372,-35.946 181.509,-115.402 217.892,-202.723c11.364,-27.271 15.883,-65.787 22.065,-95.156c12.723,-60.431 12.056,-154.452 -50.036,-223.742c-88.22,-98.448 -272.122,-40.982 -366.442,36.189c-48.53,39.707 -84.554,82.27 -140.665,110.326c-8.626,4.313 -38.018,25.066 -53.783,15.169" style="fill:#d1adad;"/>
            <clipPath id="_clip3">
                <path d="M1153.3,1285.39c-13.196,-4.088 -39.693,-11.671 -42.624,-15.557c-33.165,-43.978 4.013,-96.589 15.246,-119.147c15.312,-30.748 45.15,-60.113 57.845,-91.851c15.414,-38.536 42.79,-72.736 57.92,-113.083c41.144,-109.716 95.6,-301.406 62.809,-416.177c-15.63,-54.705 -66.949,-148.001 -126.246,-165.79c-129.278,-38.783 -250.256,77.874 -333.734,161.351c-111.081,111.082 -163.763,265.123 -227.546,405.446c-48.857,107.486 -122.287,204.695 -131.011,326.839c-7.735,108.291 64.807,293.737 166.867,344.767c51.732,25.866 106.78,44.775 159.972,68.953c16.996,7.726 125.654,34.824 177.829,43.182c49.433,7.919 149.795,6.829 208.309,2.327c137.551,-10.58 287.856,-15.594 417.858,-70.332c85.372,-35.946 181.509,-115.402 217.892,-202.723c11.364,-27.271 15.883,-65.787 22.065,-95.156c12.723,-60.431 12.056,-154.452 -50.036,-223.742c-88.22,-98.448 -272.122,-40.982 -366.442,36.189c-48.53,39.707 -84.554,82.27 -140.665,110.326c-8.626,4.313 -38.018,25.066 -53.783,15.169"/>
            </clipPath>
            <g clip-path="url(#_clip3)">
                <path d="M1875.54,1247.76c-0.105,-2.07 -5.073,18.447 -5.983,21.912c-5.108,19.444 -11.936,37.01 -19.817,55.515c-24.669,57.927 -58.725,112.107 -110.896,148.375c-129.609,90.104 -347.838,127.624 -503.758,137.31c-128.481,7.982 -247.151,-21.064 -367.578,-58.953c-78.8,-24.792 -158.059,-56.694 -232.489,-93.287c-45.398,-22.319 -89.498,-50.144 -136.215,-69.6c-51.464,-21.432 -108.548,-47.462 -143.855,13.884c-10.083,17.518 -16.191,33.679 -13.227,54.161c20.792,143.695 220.259,280.526 349.539,324.622c43.379,14.796 88.348,20.614 133.214,28.556c248.763,44.031 443.244,60.563 694.09,7.858c112.931,-23.728 239.933,-63.588 326.519,-144.092c76.639,-71.255 162.229,-166.303 162.105,-278.301c-0.026,-23.623 -0.806,-51.358 -8.674,-73.842c-14.961,-42.755 -63.866,-119.784 -119.757,-82.278" style="fill:#b18888;stroke:#b18888;stroke-width:4.17px;stroke-linecap:round;stroke-miterlimit:1.5;"/>
                <path d="M496.909,1018.37c45.555,-126.722 225.195,-249.213 360.586,-250.3c82.957,-0.666 189.243,42.977 206.773,134.972c8.855,46.466 8.434,99.195 -8.384,143.603c-27.475,72.548 -116.217,153.395 -199.309,145.884c-81.932,-7.405 -147.242,-67.569 -208.884,-110.449c-25.375,-17.651 -64.412,-12.37 -81.999,-7.255c-32.673,-1.33 -119.341,27.555 -79.532,-45.363" style="fill:#b18888;stroke:#b18888;stroke-width:4.17px;stroke-linecap:round;stroke-miterlimit:1.5;"/>
            </g>
            <path d="M761.704,649.143c-64.481,65.769 -83.863,110.552 -156.632,168.39c-22.5,17.883 -127.424,85.581 -129.797,119.732c-2.733,39.324 71.733,72.026 85.489,76.859c97.781,34.351 138.691,6.01 162.599,-16.151c78.805,-73.049 113.999,-139.885 111.233,-226.597c-0.817,-25.604 -9.107,-56.949 -13.556,-79.321" style="fill:#d1adad;"/>
            <clipPath id="_clip4">
                <path d="M761.704,649.143c-64.481,65.769 -83.863,110.552 -156.632,168.39c-22.5,17.883 -127.424,85.581 -129.797,119.732c-2.733,39.324 71.733,72.026 85.489,76.859c97.781,34.351 138.691,6.01 162.599,-16.151c78.805,-73.049 113.999,-139.885 111.233,-226.597c-0.817,-25.604 -9.107,-56.949 -13.556,-79.321"/>
            </clipPath>
            <g clip-path="url(#_clip4)">
                <path d="M761.386,945.351c-68.794,13.708 -138.359,19.085 -208.219,7.255c-25.382,-4.298 -80.486,-21.925 -104.277,-4.148c-33.397,24.956 17.684,71.257 33.559,86.765c53.067,51.839 146.318,68.703 219.335,60.1c40.752,-4.801 91.486,-18.986 122.609,-46.816c9.662,-8.639 17.861,-18.477 24.468,-29.606c45.087,-75.947 -29.324,-77.504 -82.182,-75.12" style="fill:#b18888;stroke:#b18888;stroke-width:4.17px;stroke-linecap:round;stroke-miterlimit:1.5;"/>
            </g>
            <path d="M855.615,703.913c-3.767,-6.978 -24.108,39.068 -26.594,44.065c-13.712,27.551 -33.52,50.637 -51.916,75.101c-20.898,27.791 -49.615,51.634 -66.127,82.561c-43.788,82.014 -1.978,179.299 83.862,208.89c31.149,10.738 73.314,10.002 104.886,2.881c30.525,-6.886 56.976,-16.45 82.821,-34.414c89.685,-62.337 115.633,-153.146 99.006,-257.272c-5.594,-35.033 -17.397,-64.756 -16.197,-100.855" style="fill:#d1adad;"/>
            <clipPath id="_clip5">
                <path d="M855.615,703.913c-3.767,-6.978 -24.108,39.068 -26.594,44.065c-13.712,27.551 -33.52,50.637 -51.916,75.101c-20.898,27.791 -49.615,51.634 -66.127,82.561c-43.788,82.014 -1.978,179.299 83.862,208.89c31.149,10.738 73.314,10.002 104.886,2.881c30.525,-6.886 56.976,-16.45 82.821,-34.414c89.685,-62.337 115.633,-153.146 99.006,-257.272c-5.594,-35.033 -17.397,-64.756 -16.197,-100.855"/>
            </clipPath>
            <g clip-path="url(#_clip5)">
                <path d="M1123.51,932.835c-16.457,4.39 -28.013,17.126 -42.724,25.358c-70.624,39.517 -143.569,96.662 -229.076,88.041c-42.321,-4.267 -82.145,-32.28 -115.487,-55.839c-16.124,-11.392 -37.098,-32.447 -58.39,-32.736c-39.738,-0.539 -54.881,43.064 -48.189,76.537c7.927,39.649 42.218,80.678 73.43,103.162c125.48,90.394 285.565,43.855 397.622,-48.53c43.915,-36.206 135.877,-122.864 40.021,-157.01" style="fill:#b18888;stroke:#b18888;stroke-width:4.17px;stroke-linecap:round;stroke-miterlimit:1.5;"/>
            </g>
        </g>
        <g id="head">
            <path d="M871.418,642.026c12.739,-71.793 10.176,-95.602 -66.759,-86.633c-94.35,11 -179.402,110.818 -279.385,70.481c-64.589,-26.058 -86.371,-240.983 -90.331,-294.748c-4.319,-58.633 -7.075,-130.623 17.836,-185.933c26.919,-59.768 22.515,-120.674 230.165,-95.136c181.449,22.317 353.928,127.067 487.976,258.038c29.25,28.578 64.119,79.3 86.33,118.062c11.64,20.315 20.096,36.551 23.194,42.546c-32.649,3.028 -133.749,18.501 -187.648,39.848c-57.062,22.6 -108.459,34.429 -182.297,141.211" style="fill:#e2c8c8;"/>
            <clipPath id="_clip6">
                <path d="M871.418,642.026c12.739,-71.793 10.176,-95.602 -66.759,-86.633c-94.35,11 -179.402,110.818 -279.385,70.481c-64.589,-26.058 -86.371,-240.983 -90.331,-294.748c-4.319,-58.633 -7.075,-130.623 17.836,-185.933c26.919,-59.768 22.515,-120.674 230.165,-95.136c181.449,22.317 353.928,127.067 487.976,258.038c29.25,28.578 64.119,79.3 86.33,118.062c11.64,20.315 20.096,36.551 23.194,42.546c-32.649,3.028 -133.749,18.501 -187.648,39.848c-57.062,22.6 -108.459,34.429 -182.297,141.211"/>
            </clipPath>
            <g clip-path="url(#_clip6)">
                <path d="M938.518,660.522c-11.45,-54.139 -18.987,-102.471 -20.402,-140.331c-0.233,-6.228 -62.274,-18.782 -69.005,-19.228c-63.4,-4.2 -125.635,8.652 -185.819,5.617c-15.282,-0.77 -37.208,-22.261 -52.297,-15.442c-20.316,9.181 -140.228,222.665 -104.923,234.209c42.159,13.786 92.943,-35.473 127.348,-55.032c92.329,-52.488 125.825,-43.514 221.152,-20.441" style="fill:#d1adad;"/>
            </g>
            <ellipse cx="557.615" cy="338.934" rx="189.275" ry="294.467" style="fill:#e2c8c8;"/>
        </g>
        <g id="arm-close" serif:id="arm close">
            <path d="M172.111,1660.31c-8.652,18.266 -13.161,39.713 -21.55,59.007c-5.135,11.812 -10.647,23.467 -15.81,35.27c-4.945,11.301 -24.254,37.017 -2.433,40.134c16.09,2.299 26.478,-3.383 40.135,-12.162c22.965,-14.763 92.942,-108.946 64.458,-137.43c-22.672,-22.672 -47.902,9.729 -60.81,9.729" style="fill:#b18888;"/>
            <path d="M272.333,1725.56c-11.284,17.57 -11.038,43.9 -14.746,64.295c-1.6,8.796 -20.148,78.364 -14.595,83.918c12.944,12.943 45.638,0.722 55.945,-12.162c16.949,-21.186 65.526,-115.955 35.27,-138.647c-16.722,-12.541 -37.197,-6.081 -55.945,-6.081" style="fill:#b18888;"/>
            <path d="M389.658,1754.05c-11.806,8.709 -5.878,123.179 -3.154,147.692c1.194,10.747 4.317,39.359 20.675,35.27c12.836,-3.209 16.582,-24.496 21.891,-34.053c12.167,-21.9 47.008,-149.197 14.595,-165.403c-19.752,-9.876 -38.526,13.378 -53.513,13.378" style="fill:#b18888;"/>
            <path d="M346.901,1465.42c-24.147,29.602 -72.445,26.281 -100.26,47.142c-3.449,2.587 -26.363,16.598 -23.108,23.108c12.949,25.898 102.9,11.184 122.836,1.216c6.386,-3.193 13.897,-14.88 18.243,-20.675c13.278,-17.704 15.737,-48.648 -10.946,-48.648" style="fill:#d1adad;"/>
            <path d="M1317.46,622.988c-0,-40.67 -30.321,-84.92 -63.755,-88.108c-63.592,-6.062 -88.112,45.102 -95.935,60.747c-21.034,42.069 -26.215,90.48 -39.646,135.248c-40.211,134.037 -112.727,283.78 -196.289,395.197c-118.707,158.276 -286.487,222.724 -455.392,287.891c-37.299,14.391 -100.911,30.247 -125.625,54.961c-18.671,18.671 -36.532,49.992 -59.117,72.577c-15.548,15.548 -139.802,115.014 -103.149,142.033c26.579,19.594 133.476,-60.195 133.476,-60.195c0,-0 -74.032,121.323 -28.789,143.945c43.838,21.919 112.54,-104.687 112.54,-104.687c-0,-0 -20.811,153.042 28.789,128.242c46.494,-23.247 92.976,-228.473 109.922,-227.696c28.575,1.311 324.225,-151.007 418.032,-225.804c96.586,-77.013 364.938,-368.545 364.938,-714.351Z" style="fill:#e2c8c8;"/>
            <clipPath id="_clip7">
                <path d="M1317.46,622.988c-0,-40.67 -30.321,-84.92 -63.755,-88.108c-63.592,-6.062 -88.112,45.102 -95.935,60.747c-21.034,42.069 -26.215,90.48 -39.646,135.248c-40.211,134.037 -112.727,283.78 -196.289,395.197c-118.707,158.276 -286.487,222.724 -455.392,287.891c-37.299,14.391 -100.911,30.247 -125.625,54.961c-18.671,18.671 -36.532,49.992 -59.117,72.577c-15.548,15.548 -139.802,115.014 -103.149,142.033c26.579,19.594 133.476,-60.195 133.476,-60.195c0,-0 -74.032,121.323 -28.789,143.945c43.838,21.919 112.54,-104.687 112.54,-104.687c-0,-0 -20.811,153.042 28.789,128.242c46.494,-23.247 92.976,-228.473 109.922,-227.696c28.575,1.311 324.225,-151.007 418.032,-225.804c96.586,-77.013 364.938,-368.545 364.938,-714.351Z"/>
            </clipPath>
            <g clip-path="url(#_clip7)">
                <path d="M1296.81,509.201c-4.903,36.194 0.396,75.364 -6.948,110.858c-55.551,268.499 -224.458,524.093 -426.378,706.406c-96.878,87.471 -265.001,106.805 -324.472,230.559c-13.697,28.501 -59.273,96.135 -21.975,123.688c81.023,59.855 274.159,-89.703 335.605,-134.424c65.452,-47.638 109.373,-116.3 155.767,-181.197c114.625,-160.339 246.876,-329.959 313.099,-518.205c25.813,-73.378 64.084,-176.245 47.068,-254.864c-5.984,-27.652 -3.976,-123.247 -54.015,-112.061c-14.48,3.237 -20.293,14.783 -24.495,27.639" style="fill:#d1adad;stroke:#d1adad;stroke-width:4.17px;stroke-linecap:round;stroke-miterlimit:1.5;"/>
            </g>
            
        </g>
    </g>
</svg>