<?xml version="1.0" encoding="utf-8"?>
<!-- Generator: Adobe Illustrator 25.0.0, SVG Export Plug-In . SVG Version: 6.00 Build 0)  -->
<svg version="1.0" id="Layer_1" xmlns="http://www.w3.org/2000/svg" xmlns:xlink="http://www.w3.org/1999/xlink" x="0px" y="0px"
	 viewBox="0 0 375 400" style="enable-background:new 0 0 375 400;" xml:space="preserve">
<style type="text/css">
	.st0{fill:#8A84D8;}
	.st1{fill:#CECCFF;}
	.st2{fill:#9488DE;}
	.st3{clip-path:url(#SVGID_2_);fill:#A6A6E8;}
	.st4{clip-path:url(#SVGID_4_);fill:none;stroke:#9488DE;stroke-width:10.0526;stroke-miterlimit:10;}
	.st5{clip-path:url(#SVGID_6_);fill:none;stroke:#9488DE;stroke-width:10.0526;stroke-miterlimit:10;}
	.st6{clip-path:url(#SVGID_8_);fill:none;stroke:#9488DE;stroke-width:10.0526;stroke-miterlimit:10;}
	.st7{fill:#F3ECF8;}
	.st8{fill:#8C87D9;}
	.st9{fill:#A9A9EA;}
	.st10{fill:#998DDE;}
	.st11{fill:#9588DE;}
	.st12{fill:#EDEDF6;}
	.st13{fill:#7B72CC;}
	.st14{fill:#482A69;}
</style>
<g id="Shadow">
	<ellipse class="st0" cx="189.6" cy="371.9" rx="99.9" ry="6.3"/>
</g>
<g id="Tail">
	<g>
		<path class="st1" d="M273,336c0,0,34.3,13.3,48.5-14c14.3-27.3-13.2-43.1-23.8-40.9c-10.7,2.2-11.1,15.8,0,19.7
			c11.1,3.9,12.5,15.1,5.1,23.7s-24.2,11.2-30.5,7.6s-4.3,1.5-4.3,1.5L273,336z"/>
		<g>
			<path class="st2" d="M273,335.9c8.3,2.8,17.3,4,25.9,2.4c2.1-0.4,4.3-1,6.3-1.8s4-1.8,5.8-3c3.6-2.4,6.6-5.7,8.9-9.3
				c2.3-3.7,4-7.8,5-12c0.4-2.1,0.6-4.3,0.5-6.5s-0.5-4.3-1.2-6.4c-1.4-4.1-4-7.8-7.2-10.7c-3.2-2.9-7.1-5.2-11.3-6.5
				c-2.1-0.6-4.2-1.1-6.4-0.9c-2.1,0.1-4.2,0.9-5.9,2.2c-1.7,1.3-2.9,3.2-3.2,5.3c-0.4,2.1,0,4.3,1,6.2c1,1.9,2.6,3.4,4.4,4.5
				c0.4,0.3,0.9,0.5,1.4,0.7l1.5,0.6c0.5,0.2,1,0.4,1.6,0.7l1.5,0.8c1.9,1.2,3.6,2.8,4.7,4.8s1.7,4.3,1.7,6.5
				c-0.1,4.6-2.2,8.8-5.3,12c-0.7,0.8-1.6,1.5-2.5,2.2c-0.9,0.6-1.8,1.3-2.8,1.8c-1.9,1.1-4,1.9-6.1,2.6c-4.2,1.3-8.7,2-13.1,1.6
				c-2.2-0.2-4.4-0.7-6.3-1.9c-0.9-0.5-2-1.1-3-1c-0.3,0-0.5,0.1-0.7,0.3c-0.1,0.2-0.2,0.5-0.2,0.7c0,0.5,0.1,1.1,0.3,1.6l0,0
				L273,335.9z M273,336l-5-2.4l0,0l0,0c-0.2-0.5-0.3-1.1-0.3-1.6c0-0.3,0.1-0.6,0.2-0.8c0.2-0.2,0.5-0.4,0.8-0.4
				c1.2-0.1,2.2,0.5,3.2,1c1.9,1.1,4.1,1.6,6.2,1.7c4.4,0.3,8.7-0.5,12.8-1.9c2.1-0.7,4.1-1.6,5.9-2.7c1-0.5,1.8-1.2,2.7-1.8
				c0.8-0.7,1.7-1.4,2.4-2.2c3-3.1,5-7.2,5.1-11.5c0-2.1-0.5-4.2-1.6-6.1c-1-1.8-2.6-3.4-4.4-4.5l-1.4-0.8c-0.5-0.2-1-0.4-1.5-0.6
				l-1.5-0.7c-0.5-0.2-1-0.4-1.5-0.8c-2-1.1-3.7-2.8-4.7-4.8s-1.4-4.4-0.9-6.6s1.7-4.3,3.6-5.6c1.8-1.4,4-2.2,6.2-2.3
				c2.2-0.1,4.5,0.3,6.6,1c4.2,1.4,8.1,3.7,11.3,6.7c3.2,3,5.9,6.7,7.3,10.9c0.7,2.1,1.2,4.3,1.3,6.5c0.1,2.2,0,4.4-0.4,6.6
				c-0.9,4.3-2.6,8.5-4.8,12.3c-1.2,1.9-2.5,3.7-4.1,5.3c-0.7,0.8-1.6,1.6-2.4,2.3c-0.4,0.4-0.9,0.7-1.3,1s-0.9,0.7-1.4,1
				c-3.7,2.5-8,4-12.3,4.7c-4.4,0.7-8.8,0.7-13.2,0.2C281.5,338.4,277.1,337.5,273,336z"/>
		</g>
	</g>
	<g>
		<g>
			<defs>
				<path id="SVGID_1_" d="M273,336c0,0,34.3,13.3,48.5-14c14.3-27.3-13.2-43.1-23.8-40.9c-10.7,2.2-11.1,15.8,0,19.7
					c11.1,3.9,12.5,15.1,5.1,23.7s-24.2,11.2-30.5,7.6s-4.3,1.5-4.3,1.5L273,336z"/>
			</defs>
			<clipPath id="SVGID_2_">
				<use xlink:href="#SVGID_1_"  style="overflow:visible;"/>
			</clipPath>
			<path class="st3" d="M279.3,331.2c0,0,5.6,6,11.3,6.2c5.8,0.2,35.1-8.3,29.7-34.6c-5.3-26.3-38.7-22.5-38.7-22.5
				s50.7-20.1,57.3-12.8s27.6,25,22.2,38.3c-5.3,13.3-3.6,27.2-15,35.3c-11.3,8.1-33.8,17.1-33.8,17.1l-36.6-13.7l-7.1-16.5
				L279.3,331.2z"/>
		</g>
	</g>
	<g>
		<g>
			<defs>
				<path id="SVGID_3_" d="M273,336c0,0,34.3,13.3,48.5-14c14.3-27.3-13.2-43.1-23.8-40.9c-10.7,2.2-11.1,15.8,0,19.7
					c11.1,3.9,12.5,15.1,5.1,23.7s-24.2,11.2-30.5,7.6s-4.3,1.5-4.3,1.5L273,336z"/>
			</defs>
			<clipPath id="SVGID_4_">
				<use xlink:href="#SVGID_3_"  style="overflow:visible;"/>
			</clipPath>
			<path class="st4" d="M329.5,316.5c0,0-5.6-6.4-12.8-7.9s-16,0.1-16,0.1"/>
		</g>
		<g>
			<defs>
				<path id="SVGID_5_" d="M273,336c0,0,34.3,13.3,48.5-14c14.3-27.3-13.2-43.1-23.8-40.9c-10.7,2.2-11.1,15.8,0,19.7
					c11.1,3.9,12.5,15.1,5.1,23.7s-24.2,11.2-30.5,7.6s-4.3,1.5-4.3,1.5L273,336z"/>
			</defs>
			<clipPath id="SVGID_6_">
				<use xlink:href="#SVGID_5_"  style="overflow:visible;"/>
			</clipPath>
			<path class="st5" d="M315.4,334.7c0,0-1.5-6.6-5.3-10.3c-3.8-3.6-7.5-4.1-7.5-4.1"/>
		</g>
		<g>
			<defs>
				<path id="SVGID_7_" d="M273,336c0,0,34.3,13.3,48.5-14c14.3-27.3-13.2-43.1-23.8-40.9c-10.7,2.2-11.1,15.8,0,19.7
					c11.1,3.9,12.5,15.1,5.1,23.7s-24.2,11.2-30.5,7.6s-4.3,1.5-4.3,1.5L273,336z"/>
			</defs>
			<clipPath id="SVGID_8_">
				<use xlink:href="#SVGID_7_"  style="overflow:visible;"/>
			</clipPath>
			<path class="st6" d="M288,327.8c7.1-0.6,10.3,10.9,10.3,11.1"/>
		</g>
	</g>
</g>
<g id="Paw_L">
	<g>
		<path class="st1" d="M125.3,301.1c-1.2,0-2.4-0.4-3.5-1.2c-3-2.1-6.5-4.2-10.3-6.5c-4.6-2.8-9.9-5.9-15.3-9.8
			c-0.7-0.5-18.1-12.9-16.5-20.2c3.5-16,9.9-22.4,24.6-34.2c7.5-6,13-9.1,16.1-9.1c1.7,0,2.5,0.9,2.9,1.6c0.9,1.7-0.7,7.4-4.5,18.8
			c-0.9,2.6-1.8,5.5-2.2,6.9c0.1,0,0.2,0,0.3-0.1c1-0.2,2.4-0.4,4.2-0.4c7.7,0,15.1,4.2,22.2,12.4c7.9,9.3,8.2,16.3,7,20.5
			c-1.5,5.2-5.8,8.7-9.2,9.8c-1.8,0.6-3.8,2.7-6,4.9C132.1,297.8,128.9,301.1,125.3,301.1z"/>
		<path class="st2" d="M120.5,221c1.3,0,1.9,0.6,2.2,1.1c1.4,2.6-7.4,25.1-6.9,26c0,0.1,0.1,0.1,0.3,0.1c0.7,0,2.5-0.5,5.2-0.5
			c4.9,0,12.7,1.8,21.5,12.1c14.7,17.2,3.7,27.2-1.8,29c-4.7,1.5-10,11.3-15.7,11.3c-1,0-2-0.3-3-1c-6.8-4.8-15.8-9.3-25.5-16.2
			c-5.4-3.9-17.4-13.8-16.2-19.4c3.5-15.9,9.7-22,24.3-33.7C113.7,222.9,118.2,221,120.5,221 M120.5,219.4L120.5,219.4
			c-3.4,0-8.8,3-16.7,9.3c-14.9,11.9-21.4,18.4-24.9,34.6c-1.7,7.7,15,19.7,16.9,21.1c5.4,3.8,10.7,7,15.3,9.8
			c3.7,2.2,7.2,4.3,10.2,6.4c1.3,0.9,2.6,1.3,4,1.3c3.9,0,7.3-3.4,10.5-6.7c2-2,4-4.1,5.7-4.7c2.8-0.9,8-4.1,9.7-10.4
			c1.2-4.4,1-11.7-7.2-21.3c-7.2-8.4-14.9-12.7-22.8-12.7c-1.4,0-2.5,0.1-3.4,0.3c0.5-1.5,1.2-3.6,1.8-5.6
			c4.2-12.6,5.5-17.5,4.5-19.4C123.5,220.1,122.2,219.4,120.5,219.4L120.5,219.4z"/>
	</g>
</g>
<g id="Paw_R">
	<g>
		<path class="st1" d="M254.5,301.1c-3.6,0-6.8-3.3-9.9-6.5c-2.2-2.2-4.2-4.3-6-4.9c-3.4-1.1-7.7-4.7-9.2-9.8
			c-1.2-4.2-0.9-11.2,7-20.5c7-8.2,14.5-12.4,22.2-12.4c1.8,0,3.3,0.2,4.2,0.4c0.1,0,0.2,0,0.3,0.1c-0.3-1.4-1.3-4.3-2.2-6.9
			c-3.8-11.4-5.4-17.1-4.5-18.8c0.4-0.7,1.2-1.6,2.9-1.6c3.2,0,8.6,3.1,16.1,9.1c14.8,11.8,21.1,18.2,24.6,34.2
			c1.6,7.3-15.8,19.7-16.5,20.2c-5.4,3.8-10.6,7-15.3,9.8c-3.7,2.2-7.3,4.4-10.3,6.5C256.9,300.7,255.7,301.1,254.5,301.1
			L254.5,301.1z"/>
		<path class="st2" d="M259.3,221c2.3,0,6.8,1.9,15.6,8.9c14.6,11.7,20.8,17.8,24.3,33.7c1.2,5.6-10.8,15.5-16.2,19.4
			c-9.7,6.9-18.8,11.5-25.5,16.2c-1,0.7-2,1-3,1c-5.7,0-11-9.8-15.7-11.3c-5.5-1.8-16.5-11.8-1.8-29c8.8-10.3,16.6-12.1,21.5-12.1
			c2.7,0,4.5,0.5,5.2,0.5c0.2,0,0.3,0,0.3-0.1c0.5-1-8.4-23.4-6.9-26C257.4,221.6,258,221,259.3,221 M259.3,219.4
			c-1.7,0-3,0.7-3.7,2c-1,1.9,0.3,6.8,4.5,19.4c0.7,2,1.4,4.1,1.8,5.6c-0.9-0.1-2.1-0.3-3.4-0.3c-7.9,0-15.6,4.3-22.8,12.7
			c-8.2,9.6-8.4,16.8-7.2,21.3c1.8,6.3,7,9.5,9.7,10.4c1.6,0.5,3.7,2.6,5.7,4.7c3.2,3.3,6.6,6.7,10.5,6.7c1.4,0,2.7-0.4,4-1.3
			c3-2.1,6.5-4.2,10.2-6.4c4.6-2.8,9.9-5.9,15.3-9.8c1.9-1.3,18.6-13.4,16.9-21.1c-3.6-16.2-10-22.7-24.9-34.6
			C268.1,222.4,262.7,219.4,259.3,219.4L259.3,219.4z"/>
	</g>
</g>
<g id="Body">
	<g>
		<path class="st1" d="M262.6,211.8c0.4,5.1,10.5,42.8,11.8,63.5c1.6,26.3,1.8,43.8-0.1,69.7c-1.6,21.3,4.2,27.6-6.5,28.1
			s-20.5-15.4-56.5-21.8c-35.9-6.4-51.8,3.4-59,12.4c-7.3,9,0,9.8-14.1,11.5s-14.8-20-21.7-40.5c-6.8-20.5-16.4-54.4-4.9-97.6
			s74-74.4,106.5-59.5S262.6,211.8,262.6,211.8z"/>
		<g>
			<path class="st2" d="M262.6,211.8c0.5,3.4,1.4,6.6,2.1,10l2.3,9.9c1.5,6.6,3,13.2,4.3,19.9s2.5,13.4,3.2,20.1
				c0.6,6.8,0.9,13.5,1.2,20.3c0.6,13.6,0.6,27.2-0.1,40.7c-0.2,3.4-0.4,6.8-0.6,10.2c-0.3,3.4-0.5,6.7-0.5,10.1s0.2,6.7,0.4,10.1
				c0.1,1.7,0.2,3.4,0,5.2c-0.1,0.9-0.3,1.8-0.8,2.7c-0.5,0.9-1.3,1.6-2.2,1.9c-0.9,0.4-1.8,0.5-2.7,0.6c-0.9,0.1-1.7,0.1-2.6,0.1
				c-1.8-0.1-3.5-0.6-5.1-1.3c-3.2-1.4-6.1-3.2-9-4.9c-5.8-3.5-11.7-6.7-18-9.3c-6.3-2.5-12.8-4.5-19.4-5.9
				c-6.6-1.4-13.3-2.4-20.1-2.7c-6.7-0.4-13.6-0.1-20.2,1.3c-6.6,1.4-13,4.1-18.1,8.5c-2.5,2.2-4.8,4.7-6.5,7.6
				c-0.9,1.4-1.4,3-1.9,4.6c-0.2,0.4-0.4,0.8-0.6,1.2c-0.3,0.4-0.7,0.7-1.1,0.9c-0.8,0.5-1.7,0.7-2.5,0.9c-1.7,0.4-3.4,0.6-5.1,0.9
				c-1.7,0.3-3.5,0.4-5.2-0.1c-1.7-0.4-3.3-1.4-4.5-2.6c-1.3-1.2-2.2-2.7-3.1-4.2c-1.6-3-2.7-6.3-3.7-9.6c-1-3.3-1.8-6.6-2.7-9.8
				c-0.9-3.3-1.7-6.6-2.7-9.8c-1-3.2-2.1-6.4-3.1-9.7c-4.2-12.9-7.2-26.3-8.2-39.9c-1.1-13.6-0.4-27.3,2.1-40.7
				c0.6-3.3,1.3-6.7,2.2-10c0.8-3.3,1.8-6.6,3.1-9.8c2.6-6.4,6.3-12.3,10.5-17.6c4.3-5.4,9.1-10.2,14.4-14.6
				c5.3-4.3,11-8.2,16.9-11.5c6-3.3,12.3-6.1,18.8-8.2c6.5-2.1,13.2-3.6,20-4.1s13.8,0,20.3,2.2c1.6,0.5,3.2,1.2,4.8,1.9
				c1.5,0.7,3.1,1.5,4.6,2.3c3,1.6,6,3.2,8.9,5c5.8,3.5,11.3,7.5,16.5,12c2.6,2.2,5,4.6,7.3,7.1
				C258.6,206.3,260.8,208.9,262.6,211.8z M262.5,211.8c-1.9-2.8-4.1-5.3-6.5-7.8c-2.3-2.4-4.8-4.7-7.4-6.9
				c-5.2-4.4-10.7-8.2-16.5-11.7c-2.9-1.7-5.9-3.3-8.9-4.9c-1.5-0.8-3-1.5-4.6-2.2c-1.5-0.7-3.1-1.3-4.7-1.9
				c-6.4-2-13.2-2.5-19.9-1.9c-6.7,0.5-13.3,2-19.7,4.2c-6.4,2.1-12.6,4.9-18.4,8.2c-11.7,6.6-22.4,15.2-30.8,25.7
				c-4.2,5.3-7.7,11-10.2,17.2c-1.3,3.1-2.3,6.3-3.1,9.6c-0.8,3.3-1.5,6.6-2.2,9.9c-2.5,13.3-3.3,26.8-2.2,40.3
				c1,13.5,3.9,26.7,7.9,39.6c1,3.2,2.1,6.4,3,9.7c0.9,3.3,1.8,6.6,2.6,9.9c0.8,3.3,1.6,6.6,2.6,9.8c0.9,3.2,2,6.5,3.5,9.4
				c0.8,1.5,1.7,2.9,2.9,4c1.2,1.2,2.6,2,4.1,2.4c1.6,0.4,3.2,0.4,4.9,0.1c1.7-0.2,3.4-0.4,5-0.8c0.8-0.2,1.6-0.4,2.3-0.8
				s1.1-1,1.4-1.7c0.5-1.6,1.1-3.2,2-4.7c1.8-3,4.1-5.5,6.7-7.7c5.3-4.4,11.8-7.1,18.4-8.5c6.7-1.4,13.5-1.7,20.3-1.4
				c6.8,0.4,13.5,1.3,20.2,2.7c6.7,1.4,13.2,3.2,19.6,5.7c6.4,2.5,12.4,5.7,18.2,9.1c2.9,1.7,5.8,3.5,8.9,4.7
				c1.5,0.6,3.1,1.1,4.7,1.1s3.3-0.1,4.7-0.7c0.7-0.3,1.2-0.8,1.5-1.4s0.5-1.4,0.6-2.2c0.2-1.6,0.1-3.3,0-5
				c-0.2-3.4-0.4-6.8-0.4-10.2c0-3.4,0.2-6.8,0.4-10.2c0.2-3.4,0.4-6.8,0.6-10.1c0.8-13.5,0.9-27.1,0.3-40.6
				c-0.1-3.4-0.3-6.8-0.5-10.2c-0.2-3.4-0.3-6.8-0.6-10.1c-0.6-6.7-1.7-13.4-2.9-20.1c-1.2-6.7-2.6-13.3-4-19.9l-2.1-9.9
				C263.7,218.5,262.9,215.2,262.5,211.8z"/>
		</g>
	</g>
</g>
<g id="Belly">
	<path class="st7" d="M236.5,356.8l-77.9,1.7c0,0-6.4-5.6-12.8-35.1c-6.4-29.5-5.6-70.1-5.6-70.1l5.3-23.5l79.9-3.2
		c0,0,4,15.8,5.1,34.9c1.2,23.3-0.4,51.4,0.1,62.1C231.4,343,236.5,356.8,236.5,356.8z"/>
</g>
<g id="Shadows_body">
	<path class="st8" d="M106.9,219.3c0,0,8.5,21.1,80.7,27.2c72.2,6.1,109-52.7,109-52.7l-194.2,15.8L106.9,219.3z"/>
	<path class="st8" d="M140.9,374.2c0,0,6.5-25.5,32.4-30s57.2,9.3,69.7,15.8c12.6,6.5,24.6,13.1,24.6,13.1L140.9,374.2z"/>
</g>
<g id="Fur_body">
	<path class="st2" d="M292,295.8c-27.1,4.2-40.4,4.3-39.1,8.9c1.3,4.5,40.5,4.5,40.5,4.5L292,295.8z"/>
	<path class="st2" d="M278.5,318c-14.3,1.1-20.9,0.4-21,3.4s19.4,5.4,19.4,5.4L278.5,318z"/>
	<path class="st2" d="M276.9,279.3c-13.1,4.8-19.6,5.9-18.5,8.8s20.5,0,20.5,0L276.9,279.3z"/>
	<path class="st2" d="M92.1,298.9c27.1,4.2,40.4,4.3,39.1,8.9c-1.3,4.5-40.5,4.5-40.5,4.5L92.1,298.9z"/>
	<path class="st2" d="M105.6,321.2c14.3,1.1,20.9,0.4,21,3.4s-19.4,5.4-19.4,5.4L105.6,321.2z"/>
	<path class="st2" d="M107.1,282.5c13.1,4.8,19.6,5.9,18.5,8.8s-20.5,0-20.5,0L107.1,282.5z"/>
</g>
<g id="Head">
	<g id="HEAD">
		<path class="st1" d="M304.8,185.5c-0.6-4.1-7.5-67-8.2-85.9c-0.6-18.8,0.1-50.4,0.2-61.3c0.1-10.8-4.6-12.1-9-8.9
			c-4.5,3.2-11.2,8.6-21.3,19.6c-8.7,9.4-43.3,9.8-52.4,9.8c-26.4-0.6-74.9,2.4-74.9,2.4s-28.4,1.4-37.5-7.6
			C91.2,43.3,84.2,38.2,79.6,35.2s-9.2-1.5-8.6,9.4c0.7,10.8,3,42.4,3.3,61.2c0.3,18.9-3.5,82.1-3.9,86.3
			c-0.1,1.3,14.1,18.5,33,26.1c30.3,12.2,72.6,16.4,87.7,15.6c11.6-0.1,49.4-5.3,78.3-18.8C289.4,205.6,305,186.8,304.8,185.5z"/>
		<g>
			<path class="st2" d="M304.8,185.5c-2-16.9-3.8-33.8-5.5-50.7c-0.8-8.5-1.6-16.9-2.3-25.4c-0.7-8.5-0.8-17-0.9-25.5
				c0-8.5,0-17,0.1-25.5l0.1-12.7l0.1-6.4c0-2.1,0-4.2-0.4-6.3c-0.2-1-0.5-2-1-2.9s-1.2-1.6-2.1-1.8c-0.9-0.3-1.9-0.1-2.8,0.2
				c-0.9,0.4-1.8,0.9-2.6,1.6c-3.4,2.5-6.6,5.3-9.7,8.2s-6,5.9-8.9,9c-0.7,0.8-1.4,1.5-2.2,2.4c-0.8,0.8-1.7,1.4-2.6,2
				c-1.9,1.2-3.9,2-5.9,2.7c-4.1,1.4-8.3,2.3-12.5,2.9c-4.2,0.7-8.5,1.1-12.7,1.5c-8.5,0.7-17.1,0.8-25.5,0.7
				c-17,0.1-33.9,0.9-50.9,1.8L143.9,62l-3.2,0.2c-1,0.1-2.2,0.1-3.2,0.1c-2.1,0-4.3,0-6.4,0c-4.3-0.1-8.6-0.5-12.8-1.1
				c-4.3-0.7-8.5-1.7-12.6-3.6c-1-0.5-2-1.1-2.9-1.7l-0.7-0.5l-0.7-0.6c-0.5-0.4-0.8-0.7-1.2-1.1c-1.5-1.5-3.1-2.9-4.6-4.3
				c-3.1-2.8-6.3-5.6-9.6-8.2c-1.7-1.3-3.4-2.5-5.1-3.7l-1.3-0.9c-0.5-0.3-0.9-0.6-1.3-0.8c-0.8-0.4-1.7-0.7-2.4-0.7
				c-0.8,0-1.4,0.3-1.9,0.8s-0.9,1.4-1.1,2.3c-0.5,1.8-0.5,3.9-0.4,5.9c0.9,17,2.1,33.9,2.8,50.9c0.2,4.3,0.3,8.5,0.3,12.8
				s-0.1,8.5-0.2,12.8c-0.3,8.5-0.7,17-1.1,25.5s-0.9,17-1.4,25.4L72,184.2l-0.4,6.4l-0.1,0.8v0.4v0.2c0,0.2,0,0,0-0.1
				s0,0.1,0.1,0.1c0,0.1,0.1,0.2,0.2,0.3c0.1,0.2,0.3,0.4,0.4,0.6c0.6,0.8,1.3,1.6,1.9,2.4c5.5,6.3,12,11.9,19,16.4
				c3.5,2.3,7.3,4.2,11.2,5.8c2,0.7,3.9,1.5,5.9,2.2s4,1.4,6,2c8.1,2.5,16.3,4.6,24.6,6.2c8.3,1.7,16.7,3,25.1,3.9
				c4.2,0.5,8.4,0.9,12.7,1.1c4.2,0.2,8.5,0.4,12.7,0.3c4.2-0.1,8.5-0.5,12.7-1s8.4-1.1,12.6-1.9c8.4-1.5,16.7-3.3,24.8-5.6
				c8.2-2.3,16.2-5,24-8.3c7.9-3.2,15.2-7.7,21.8-13c3.3-2.6,6.5-5.5,9.5-8.4c1.5-1.5,3-3,4.4-4.6c0.7-0.8,1.4-1.6,2-2.4
				c0.3-0.4,0.6-0.8,1-1.3C304.4,186.4,304.7,186,304.8,185.5z M304.8,185.5c-0.1,0.5-0.5,1-0.7,1.4c-0.3,0.4-0.6,0.9-0.9,1.3
				c-0.7,0.8-1.3,1.6-2,2.4c-1.4,1.6-2.9,3.1-4.4,4.6c-3,3-6.2,5.8-9.5,8.5c-6.6,5.3-13.9,9.9-21.8,13.1c-7.8,3.4-15.9,6.1-24,8.4
				c-8.2,2.3-16.5,4.2-24.8,5.7c-8.4,1.5-16.8,2.8-25.3,3.1c-4.3,0.2-8.5,0.1-12.8-0.1c-4.3-0.2-8.5-0.6-12.7-1
				c-8.5-0.9-16.9-2.1-25.2-3.7c-8.4-1.6-16.7-3.6-24.8-6c-2-0.6-4.1-1.3-6.1-2s-4-1.5-6-2.2c-4-1.5-7.8-3.6-11.5-5.8
				c-3.6-2.3-7.1-4.8-10.4-7.6s-6.4-5.7-9.2-9c-0.7-0.8-1.4-1.6-2.1-2.5c-0.2-0.2-0.3-0.5-0.5-0.7c-0.1-0.1-0.2-0.3-0.2-0.4
				c-0.1-0.2-0.2-0.3-0.2-0.6c-0.1-0.2,0-0.6,0-0.5v-0.2v-0.4l0.1-0.8l0.4-6.4l0.7-12.7l1.3-25.4c0.4-8.5,0.7-17,1-25.4
				c0.1-4.2,0.2-8.5,0.2-12.7s-0.2-8.5-0.3-12.7c-0.7-17-2-33.9-3.1-50.9c-0.1-2.2-0.1-4.4,0.6-6.7c0.3-1.1,0.8-2.3,1.8-3.3
				c0.9-1,2.4-1.7,3.8-1.6c1.4,0,2.6,0.5,3.6,1.1c0.5,0.3,1,0.6,1.4,0.9l1.3,0.9c1.8,1.2,3.5,2.5,5.2,3.8c3.4,2.6,6.6,5.4,9.8,8.3
				c1.6,1.5,3.1,2.9,4.6,4.4c0.4,0.4,0.8,0.8,1.1,1.1l0.5,0.5l0.6,0.4c0.8,0.6,1.7,1.1,2.6,1.5c3.6,1.8,7.7,2.7,11.9,3.4
				c4.1,0.7,8.3,1,12.5,1.2c2.1,0.1,4.2,0.1,6.3,0.1c1.1,0,2.1-0.1,3.1-0.1l3.2-0.2l12.7-0.7c17-0.8,34-1.4,51-1.3
				c8.5,0.2,16.9,0.1,25.4-0.5c4.2-0.3,8.4-0.7,12.6-1.3c4.2-0.6,8.3-1.5,12.3-2.8c2-0.7,3.9-1.5,5.7-2.5c0.9-0.5,1.7-1.1,2.4-1.8
				c0.7-0.7,1.4-1.5,2.2-2.3c2.9-3.1,5.9-6.1,9.1-9c3.1-2.9,6.4-5.6,9.8-8.2c0.8-0.6,1.8-1.3,2.8-1.7c1-0.4,2.3-0.6,3.4-0.2
				c1.2,0.4,2,1.3,2.6,2.2c0.6,1,0.9,2,1.1,3.1c0.4,2.1,0.4,4.3,0.4,6.4l-0.1,6.4L297,58.5c-0.2,8.5-0.3,17-0.3,25.5
				s0.1,17,0.8,25.4c0.6,8.5,1.4,16.9,2.2,25.4C301.2,151.7,302.9,168.6,304.8,185.5z"/>
		</g>
	</g>
	<g id="Fur_head">
		<path class="st2" d="M62.6,130.8c23.4,14,35.1,17,33.4,26.2c-1.8,9.1-36.4,1.2-36.4,1.2L62.6,130.8z"/>
		<path class="st2" d="M59.6,170.4c1.8,0,21.7,1.5,25.2,5.8s-2.9,7.6-7.6,8.8s-21.1,3-21.1,3L59.6,170.4z"/>
		<path class="st2" d="M66.8,105.3c1.6,0.8,18.8,11.4,20.1,16.8c1.3,5.4-5.9,5.5-10.6,4.4s-20.2-7-20.2-7L66.8,105.3z"/>
		<path class="st2" d="M313.3,132.4c-23.5,14-35.2,17.1-33.4,26.2c1.8,9.1,36.4,1.2,36.4,1.2L313.3,132.4z"/>
		<path class="st2" d="M316.2,172c-1.8,0-21.7,1.5-25.2,5.8s2.9,7.6,7.6,8.8s21.1,3,21.1,3L316.2,172z"/>
		<path class="st2" d="M309,106.9c-1.6,0.8-18.8,11.4-20.1,16.8c-1.3,5.4,5.9,5.5,10.6,4.4c4.7-1.1,20.2-7,20.2-7L309,106.9z"/>
	</g>
	<g id="Ears">
		<path class="st9" d="M76.3,41.7c2.1-1.7,18.2,12.7,22.1,17.8s4.4,5.7-0.8,10c-5.3,4.3-14.4,12.2-16.2,8.7S77,59.9,76,51.3
			S75.4,42.4,76.3,41.7z"/>
		<path class="st9" d="M291.9,33.5c-2.2-1.6-17.7,13.4-21.5,18.6s-4.2,5.9,1.2,10s14.9,11.6,16.5,8.1c1.7-3.5,3.7-18.4,4.5-27
			S292.8,34.2,291.9,33.5z"/>
	</g>
	<g id="Nose">
		<path class="st7" d="M189.8,206.1c-5.4,0.2-22.9-1.2-34.6-7.7c-11.1-6.2-16.7-17.2-14.2-23.4c5.1-12.7,0,0,0,0
			c-0.2-8.2,14.6-35.8,48.5-35.8c34.2,0,44.6,26.4,44.7,33.9c0,0-5.6-13,0,0c2.8,6.4-2,17.8-12.4,24.3
			C211.3,204.1,195.1,205.8,189.8,206.1z"/>
		<path class="st10" d="M188.7,137.6c3.9,0,10.4,2.4,8.7,3.8l-6.5,5.3c-1.1,0.9-2.9,0.9-4,0l-6.4-5.4
			C178.9,139.9,184.8,137.6,188.7,137.6z"/>
	</g>
	<path id="Mouth" class="st11" d="M179.1,185c0,0,11.4-9.7,20-6.5s2.2,4.9-5.4,5.4c-7.6,0.5-17.3,4.9-17.3,4.9L179.1,185z"/>
	<g id="eye_balls">
		<ellipse class="st12" cx="139.3" cy="122.2" rx="39.1" ry="42"/>
		<ellipse class="st12" cx="243.9" cy="120.6" rx="38.2" ry="42"/>
	</g>
	<g id="eye_strokes">
		<path class="st13" d="M178.4,122.2c0,10.6-3.7,21.3-10.8,29.3c-3.5,4-7.8,7.4-12.6,9.8c-4.8,2.4-10.2,3.7-15.7,3.8
			c-5.4,0.1-10.9-1-16-3.2c-5-2.2-9.6-5.5-13.3-9.5c-3.7-4.1-6.7-8.8-8.6-14c-2-5.2-2.9-10.7-3-16.2c0-5.5,1-11,3-16.2
			s4.9-9.9,8.6-14s8.3-7.3,13.3-9.5s10.5-3.3,16-3.2c5.4,0.1,10.8,1.4,15.7,3.8s9.1,5.8,12.6,9.8
			C174.6,100.9,178.4,111.6,178.4,122.2z M178.4,122.2c0-5.3-1-10.6-2.9-15.6s-4.7-9.5-8.3-13.4s-7.9-7-12.7-9.1s-10-3.1-15.2-3
			s-10.3,1.4-14.9,3.6c-4.6,2.3-8.7,5.5-12,9.4c-6.7,7.7-10.3,17.9-10.3,28.1s3.6,20.4,10.3,28.1c3.3,3.9,7.4,7.1,12,9.4
			c4.6,2.3,9.7,3.5,14.9,3.6s10.4-0.9,15.2-3s9.2-5.2,12.7-9.1c3.6-3.9,6.4-8.5,8.3-13.4C177.4,132.8,178.3,127.5,178.4,122.2z"/>
		<path class="st13" d="M282.1,120.6c0,10.5-3.6,21-10.4,29.2c-3.4,4-7.6,7.5-12.3,9.9c-4.8,2.4-10.1,3.8-15.5,3.9
			c-5.4,0.1-10.8-1-15.8-3.3c-4.9-2.3-9.4-5.6-13-9.6c-3.6-4.1-6.5-8.8-8.4-14c-1.9-5.1-2.8-10.6-2.9-16.1c0-5.5,1-10.9,2.9-16.1
			c1.9-5.1,4.7-9.9,8.4-14c3.6-4.1,8.1-7.4,13-9.7c4.9-2.3,10.4-3.4,15.8-3.3c5.4,0.1,10.7,1.5,15.5,3.9c4.8,2.4,8.9,5.9,12.3,9.9
			C278.6,99.5,282.2,110.1,282.1,120.6z M282.1,120.6c0-5.3-1-10.5-2.8-15.4s-4.6-9.5-8-13.4c-3.5-3.9-7.7-7.1-12.5-9.2
			c-4.7-2.1-9.9-3.2-15-3.1s-10.2,1.4-14.7,3.7c-4.5,2.3-8.5,5.6-11.7,9.4c-6.5,7.7-10,17.9-9.9,27.9c0,10.1,3.4,20.2,9.9,27.9
			c3.2,3.9,7.2,7.2,11.7,9.5s9.6,3.6,14.7,3.7c5.1,0.1,10.3-1,15-3.1c4.7-2.1,9-5.3,12.4-9.2c3.5-3.9,6.2-8.5,8-13.4
			C281.2,131.1,282.1,125.8,282.1,120.6z"/>
	</g>
	<g id="Eyes">
		<ellipse class="st14" cx="141.8" cy="126" rx="13" ry="26.6"/>
		<ellipse class="st14" cx="245" cy="122.6" rx="12.6" ry="26.6"/>
	</g>
	<rect id="eye_lids_down" x="90.7" y="130" class="st2" width="198.9" height="53"/>
	<rect id="eye_lids_up" x="90.7" y="77" class="st2" width="198.9" height="53"/>
	<g id="Brows">
		<path class="st2" d="M170.8,75.9l-9,1.9c-3.4,0.7-6.8-1-7.6-3.8l0,0c-0.9-2.8,13.6-8.2,13.6-8.2c3.4-0.7,6.8,1,7.6,3.8l0,0
			C176.2,72.4,174.1,75.2,170.8,75.9z"/>
		<path class="st2" d="M213.4,76.8L204,75c-3.5-0.7-5.7-3.6-4.9-6.5l0,0c0.8-2.9,4.3-4.7,7.8-4.1c0,0,15.1,5.3,14.3,8.3l0,0
			C220.4,75.7,217,77.5,213.4,76.8z"/>
	</g>
</g>
</svg>
