<?xml version="1.0" encoding="utf-8"?>
<!-- Generator: Adobe Illustrator 24.2.3, SVG Export Plug-In . SVG Version: 6.00 Build 0)  -->
<svg version="1.1" id="Layer_1" xmlns="http://www.w3.org/2000/svg" xmlns:xlink="http://www.w3.org/1999/xlink" x="0px" y="0px"
	 viewBox="0 0 1728 1296" style="enable-background:new 0 0 1728 1296;" xml:space="preserve">
<style type="text/css">
	.st0{fill:#302C2C;}
	.st1{fill:#292421;}
	.st2{fill:#36302E;}
	.st3{fill:#463B31;}
	.st4{fill:#433B34;}
	.st5{fill:#2E2A29;}
	.st6{fill:#39312A;}
	.st7{fill:#37302A;}
	.st8{fill:#3A332E;}
	.st9{fill:#37312D;}
	.st10{fill:#433930;}
	.st11{fill:#655952;}
	.st12{fill:#4B4239;}
	.st13{fill:#453D3A;}
	.st14{fill:#594A3C;}
	.st15{fill:#463C35;}
	.st16{fill:#5F524A;}
	.st17{fill:#534941;}
	.st18{fill:#393029;}
	.st19{fill:#9B8671;}
	.st20{fill:#5F5044;}
	.st21{fill:#75685D;}
	.st22{fill:#7F746F;}
	.st23{fill:#564634;}
	.st24{fill:#BCA796;}
	.st25{fill:#514538;}
	.st26{fill:#504640;}
	.st27{fill:#E1BA91;}
	.st28{fill:#504944;}
	.st29{fill:#2F2B2C;}
	.st30{fill:#9C8875;}
	.st31{fill:#B19579;}
	.st32{fill:#75695E;}
	.st33{fill:#5D524A;}
	.st34{fill:#554A43;}
	.st35{fill:#9B8C81;}
	.st36{fill:#897A6E;}
	.st37{fill:#A08263;}
	.st38{fill:#4E453D;}
	.st39{fill:#65584E;}
	.st40{fill:#89735E;}
	.st41{fill:#4C433D;}
	.st42{fill:#4A3F32;}
	.st43{fill:#695A4D;}
	.st44{fill:#7E6851;}
	.st45{fill:#8D7761;}
	.st46{fill:#292323;}
	.st47{fill:#8B7157;}
	.st48{fill:#988A80;}
	.st49{fill:#DFBB94;}
	.st50{fill:#817670;}
	.st51{fill:#B6A290;}
	.st52{fill:#6D6460;}
	.st53{fill:#A6886A;}
	.st54{fill:#857260;}
	.st55{fill:#85705B;}
	.st56{fill:#7E7C80;}
	.st57{fill:#6E635C;}
	.st58{fill:#A6A2A6;}
	.st59{fill:#8C8582;}
	.st60{fill:#473E38;}
	.st61{fill:#5A595C;}
	.st62{fill:#211D1A;}
	.st63{fill:#786553;}
	.st64{fill:#635547;}
	.st65{fill:#4D433D;}
	.st66{fill:#5B595E;}
	.st67{fill:#585960;}
	.st68{fill:#7E7F89;}
	.st69{fill:#716F76;}
	.st70{fill:#7E7D84;}
	.st71{fill:#828187;}
	.st72{fill:#5F6068;}
	.st73{fill:#4A3E33;}
	.st74{fill:#413933;}
	.st75{fill:#7A7A81;}
	.st76{fill:#C0C8DF;}
	.st77{fill:#9CA0B0;}
	.st78{fill:#646162;}
	.st79{fill:#787A84;}
	.st80{fill:#B2B8CB;}
	.st81{fill:#6C5E54;}
	.st82{fill:#8A8A92;}
	.st83{fill:#838187;}
	.st84{fill:#AAA7AD;}
	.st85{fill:#7F6A54;}
	.st86{fill:#9A9393;}
	.st87{fill:#5C4E42;}
	.st88{fill:#5F554D;}
	.st89{fill:#9A7D5F;}
	.st90{fill:#3E3834;}
	.st91{fill:#3D3736;}
	.st92{fill:#A1A4B1;}
	.st93{fill:#7A716D;}
	.st94{fill:#433B32;}
	.st95{fill:#4C423D;}
	.st96{fill:#726459;}
	.st97{fill:#A9A3A6;}
	.st98{fill:#463F3B;}
	.st99{fill:#9D9592;}
	.st100{fill:#37322D;}
	.st101{fill:#84848A;}
	.st102{fill:#8C898E;}
	.st103{fill:#514E4E;}
	.st104{fill:#8C8C94;}
	.st105{fill:#9497A5;}
	.st106{fill:#82848F;}
	.st107{fill:#5F5C5D;}
	.st108{fill:#979AA9;}
	.st109{fill:#7C787D;}
	.st110{fill:#95959E;}
	.st111{fill:#8A8990;}
	.st112{fill:none;}
	.st113{fill:#C39D75;}
	.st114{fill:#E9D9CC;}
	.st115{fill:#D9BEA9;}
	.st116{fill:#AB7520;}
	.st117{fill:#B6852F;}
	.st118{fill:#AA7142;}
	.st119{fill:#B9874E;}
	.st120{fill:#AF8974;}
	.st121{fill:#AC8F99;}
	.st122{fill:#CDB095;}
	.st123{fill:#DBBEA3;}
	.st124{fill:#C29648;}
	.st125{fill:#B9884B;}
	.st126{fill:#CCAD9B;}
	.st127{fill:#9A7C5C;}
	.st128{fill:#9F9899;}
	.st129{fill:#AEB4C6;}
	.st130{fill:#4B413C;}
	.st131{fill:#59585D;}
	.st132{fill:#5C534C;}
	.st133{fill:#372F26;}
	.st134{fill:#665544;}
	.st135{fill:#907353;}
	.st136{fill:#615245;}
	.st137{fill:#685847;}
	.st138{fill:#68615D;}
	.st139{fill:#9294A0;}
	.st140{fill:#787578;}
	.st141{fill:#ADAEB9;}
	.st142{fill:#9B9FAD;}
	.st143{fill:#746E6D;}
</style>
<path class="st0" d="M1065.7,443.4c-13.8,6.6-24.4,17.7-37.2,25.7c-1.4,0.9-2.3,1.9-2.5,3.5c-1.2,2.6-3.9,2.9-6.1,4
	c-7.5,3.7-9.9,8.2-8.1,16.3c1.3,9.7-3.5,19,1.8,28.4c3.8,8.3,3.2,17.4,2.6,26.3c-3,15.8,1.3,68.4-11.3,75.1c-3-1.3-2.2-4.1-2.4-6.5
	c1.1-13.4-2.2-26.5-1.7-39.8c4.8-7.5,1.9-17.1,2.6-25.5c0.7-5.7-5.2-10.3-3-15.9c-0.4-2.2-2.4-3.3-2.9-5.3c0.6-9,1.2-9.8-9-10.8
	c-27.2-3.6-54.4-7.7-81-14.3c-1.6-1.2-4.3-1.1-4.8-3.7c2.9-3.1,6.5-2,9.8-1.3c7.8,1.6,24.5-1.4,26.1-10.3
	c-10.3-8.5-25.1-10.8-32.9-23c-2.8-3.5-6.4-1.4-9.7-1.3c-7.7-1.4-12.4-8-19.1-11.6c-7.1-3.6-13.5-5.3-8.8-13.1
	c3.3-2.4,8.6-13.6,12.6-10c9.8,5.6,20.9,8.7,30.1,15c16.8,11.5,35.8,18.7,53,29.3c9.7,7.2,15.5-7.6,20.2-14.2
	c-3.7,5.6-11.3,20.1-18.2,10.6c-4.9-7.6-16.4-15.4-7.7-24.4c-6.9,9-11.1-2.2-14.3-7.8c-3.7-4.6-5.3-9.4-0.8-14.3
	c-2.3-1.9-4.4-0.3-6.3-1.2c-10.4-10.8-6.6-23.3-20.9-34.4c-11.4-7.4,5.1-12.7,10.1-17.5c4.7-1.2,10.2,21.9,14.2,26.6
	c5.9,8.6,13,24.1,25,22.9c3.6-0.1,5-2.7,5.4-5.7c0.6-4.5,2.1-8.5,3.8-12.6c4.6-10.2-3.3-19.2-4.1-29.1c0.3-2.7,2.3-4.7,2.9-7.3
	c-0.2-4.9-4.4-8-8.4-9.9c-16.5-12.5,26.9-19.5,34.7-19.7c4.4-0.2,4.1,6.2,4,9.1c-0.3,25.2,9.1,104.2,28.8,36.5
	c5.9-19,13.8-37.6,29.1-50.8c1.9-1.9,4.1-2.9,6.8-1.6c5.3,2,35.3,9.2,20.4,15.7c-19.6,7.3-36.1,21.9-39.2,43.2
	c2.9-3.5,4-7.5,4.8-11.7c2.1-10.4,12.7-19.5,22.9-20.2c8.8,0.9,10.7,12.8,15.6,18.8c7.1,11.5-13.2,18.6-14.8,4.9
	c-0.5-7.4-9.5-11.2-13.3-2.5c6.4-9.1,13.2-4.6,12.8,7.9c5.5,2.1,12.6,6.1,13.3,12.8c0.2,2.7-0.1,5.4,1.2,7.9
	c5.1,9.2,4.1,23.1-2.4,31.1c-3.1,3.3-0.8,7.8-4.8,10.6c-5.3,1.5-10.6,1.5-15-3.3C1068.6,443.5,1067.5,442.1,1065.7,443.4z"/>
<path class="st1" d="M489.3,702.7c-6.4-68.2-4.6-147.3,47.2-198.9c9.4-4.9,21.3-10.4,29.8-0.9c5.4,5.6,6,12.2,2.2,18.7
	c-17.5,26.3-15.3,65.7-46.8,80.7c-5.5,2.1-12.7-0.2-17.3,4.5c-4.4,13.2,15.1,18.7,22.1,27.8c10.3-2.2,18.2-14,29.1-7.7
	c4.9,1.9,5.2,6.9,5,11.5c-0.7,12.6,1,25.1,2.5,37.6c10.7,27.4-0.1,22.5,4.7,44.7c2.8,22.1-21.5,35.5-33.4,51.1
	c8.1,0.5,17.8-10.1,24.2-4.6c4.8,13.1-12.1,17.9-18.5,26.6c-5.3,4.5-13.6,1.1-20,3.9c-10.5,1-2.2-13.4-0.8-18.3
	c-1.5-1.6-2.8-1-4.1-0.8c-9.2,1.3-17-4.3-18.5-13.7C491.3,744.5,491.6,723.5,489.3,702.7z"/>
<path class="st2" d="M846,501.7c0.4-0.4,0.8-0.9,1.1-1.3c2.8,1.9,2.6,4.5,1.7,7.2c-2.5,13,11.9,22.9,18,32.5
	c4.3-0.3,6.3-2.7,8.6-4.7c5-2.9,15.6-12.7,21.1-10.5c2.3,5.5,4.8,10.9,4.1,17c11.1,3.1,22.5,1.8,18.1,17.1
	c4.6,4.7,7.3,11.1,13.3,14.9c4.9,3.1,4.7,6.2,0.1,10.1c-2.3,2-4.9,3.8-6,7.6c3.9,4.2,8.5,8.3,10.3,13.5c1,0.9,1.3,1.1,1.7,1.2
	c10.5,1.3,10.5,1.3,13.3,12.1c5.8,10.2,5.9,21.3,6.4,32.5c0.3,2.5-1.7,4.2-4.1,5c-6.1-0.3-6.5-7.3-11.4-9.7
	c-2.9,9.2,8.5,14.8,7.7,24.7c1.5,4.5-3.6,10.9-6.4,4.5c-3.2-11.1-6.7-22-11-32.8c-6.5-9.9,8.8-17.2-0.9-27
	c-8.7-9.3-21.4,2.9-16.8,13.3c1.3,4.2,0.4,7.5-2.1,10.8c-6.2,7.8-11,16.7-16.7,24.7c5.3-4.7,17.8-29.4,24.2-29.9
	c11.6,0,11.5,3.8,13.7,14.5c-1.5,9.9,10.6,26,5.7,32c-2,2-3.9,4.1-5.1,6.8c-4.6,11,6.5,17.9-3,27.9c-4.4,7.2-13.8,6.6-19.5,11.8
	c-11.4,4.4-25.3-3.4-36.7-5.9c1.1-4.9-3.3-5.1-5.8-6.9c-7.6-2.2-11-9.5-16.9-13.9c-13.1,0.7-24.8,8.5-37.9,7.4
	c-3.8-3.9-4.9-8.7-5.1-13.9c1.5-2.4,3.6,0.5,5.7-1.2c1.5-7.9,10.5-8,14.5-12.7c3.7-1.4,6.3,1.8,9.6,0.1c2.2-7-7.1-11.6-2.1-13.8
	c1.6-0.9,1.8-2.2,1.1-3.7c-3.5-12.8-4.9-27.2-3.3-40.2c-1.2-0.8-1.8-0.5-2,0c-2.4,7.2-7.5,12.2-13,17.2
	c-28.3,24.8-23.5-13.2-25.4-31.3c-0.2-13.6-7.6-40.6-0.2-51.2c3.3,1.6,2.2,4.6,2.2,7.1c0,7.4,0.7,14.7,3.1,21.8
	c3.4,12.7,19.2,5.3,22.4-3.6c7.5-19.5,33-15.8,26.9-44.4C847.6,529,831.6,504.3,846,501.7z"/>
<path class="st3" d="M577.4,487.4c5.9-2.8,11.7,1.4,17.6,0.2c4.3,0.8,8.2,2.8,10.7,6.1c13.3,15.3,29.6,28,37.4,47.3
	c23.3,51.3-7.5,106.6-30.1,152.4c-2.7,16-11,29.6-18.3,43.6c-0.3,0.7-0.8,1.3-0.1,2.6c10.8-5,16.8-18.4,28.1-22.2
	c2.7,3.2,0.3,5.8-1,8.4c-17.2,35.5-37,69.4-54.5,104.8c-11.8,2-23.6,6.8-30-7.6c7.7-7.6,12.9-17.9,22.9-23.6
	c5.7-3.2,8.4-8.2,8.9-14.7c1.3-15.6,15.9-22.5,21.3-36.6c-6.1,2.2-9.6,8-16,7.3c-4.3-2.5-4.5-6.5-3.7-10.6
	c2.2-10,10.3-17.2,14.5-26.3c7.5-12.2-5.6-17-2.8-28.5c2.4-9.9,1.1-19-4.6-27.7c-0.5-10.3-15-64,6.4-32.2
	c-3.9-4.3-7.3-14.5-14.3-14.3c-2.5-1.3-6.4-0.1-7.5-4c8.7-4.1,13.3-5.9,7.6-15.6c-1.3-2.4-1.8-4.6-0.7-7.1
	c2.3-3.9,2.5-12.2,7.2-13.5c3.2,3.8-0.5,7.8,0.3,11.7c9.7-7.7,19.1-10.9,28.9-0.6c5.5,5.6,6.3,6,11.8,6.5
	c11.9-10.9,6.5-30.7,11.8-44.8c8.8-22-35.5-43-49.1-56.6C578.5,490.9,576.5,489.9,577.4,487.4z"/>
<path class="st4" d="M1089.1,398.3c0.7-3.9-3.4-4.6-4.7-7.1c1.6-1.2,0.2-3.2,1.1-4.6c1.5-0.2,3-0.3,4.3-0.5c4-6.2-2.4-22-10.3-27.8
	c-23.5,0.7-22.3,22.4-31.1,36.3c-3-23.1,19.8-46.1,41.3-51.4c2.5-0.5,2.4-2.7,1.8-4.7c7.7,4.4,16.3,1,24.3,2.6
	c0.3,2-1.1,1.9-2.3,1.9c1.1,0.7,3.3,0.8,2.2,3.1c-5.5,1.2-10.8-2.1-15.3-1c13.3-0.8,22.9,7.9,32.3,16.8c5.5,6.1,17.6,17.9,5.6,23.8
	c8.7,0,11.2,9.4,1.2,11.5c3.2,1.2,7.9-3.7,9.1,1.8c1.3,21.4-6.5,39.5-20.5,55.9c11.1-1.8,16.4-11.8,25.1-16c3.6,3.6,2.1,6.8,1.2,9.9
	c-3.9,13.6-9,26.8-12.8,40.4c-3.2,12.2-8.3,23.3-16.6,33c2.8,7.4,5.9,14.9-3.3,20.3c-18.1,1.4-33.2-13.5-44-26.2
	c-6.7-8.1-6.5-17.3-1.8-26.5c2.8-1.1,4.3,2.3,6.9,1.9c3.4,2,7.3,3.4,9,7.4c0.8,7.5,12,12,18,15.3c-9.8-6.3-24.4-14.3-1.9-14
	c9.8-9.1,19.7-32.4,1.3-37.1c-10.3-1.6-20.4-3.9-30.7-5.6c-1.4-7.3-7.1-10.7-12.7-14.3c0.1-0.9,0.3-1.7,0.4-2.8
	c10,7.9,17,8.9,19.3,2.9c5.9,1.5,2,7.1,13.3,4.9c5.1-5.6,4.6-7.4-4.4-14.7c-3.9-29.8,13.6-12.7,20.2-28.5c1.6-7.6,1.6-10.3,9.3-11.1
	c-3-0.5-6,0.7-8.9,0.2c-8.4-5.3-16.5-10.5-22.4,0.6C1091.6,396.3,1091.4,398.4,1089.1,398.3z"/>
<path class="st5" d="M794.9,557.4c-5.7,22.5,3.7,45,1.6,68c-0.7,6.9,2.9,14.2,4.7,21.8c17.5-3.8,26.1-16.7,34.4-30.5
	c0.1,16.4,0.2,32.2,4.6,47.6c-16.3,9.4-37.5,8.6-56,11.8c-6.2,3.7-101.1-2.2-72.1-15.5c-19-8.8-2.5-15.3-3-30.1
	c0.9-13.3,3.2-26.5,0.5-39.9c-0.8-3.7,0.4-7.3,2.5-10.5c1.3-2,2.7-4,2-6.5c-2.7-9.1-0.4-18.1,0.2-27.1c1.7-8.2-2.2-26.4,10.5-25.6
	c8.1,2.4,8.8,3.6,9.1,11.7c1.2,13.8-3.2,27.9-1.7,41.4c2.1,6.8,1.2,13.4-0.3,20c-2.3,10.6-3.9,21.3-2.9,32.2
	c-2.2,9.7-3.5,19.6-4.9,29.6c5.1,16.3,49.7,8.7,48.9-8c-0.3-26.8,7.1-53.3,2.1-80.1c-2.4-19.4,1.2-39,3.2-58.3
	c1.1-6.2,3-7.5,8.9-6.8c3.4-0.5,5.1,4.7,8.9,2.6C801.8,504.3,798.1,554.7,794.9,557.4z"/>
<path class="st6" d="M575.2,755c5.3-3.3,10.7-6.5,17-10.3c-0.7,17.7-22.4,24.4-22,43.9c-0.1,4.9-3.1,9.1-7.9,11.4
	c-10.6,5-14.9,16.6-24,23.4c1,4.1,7.7,2.8,7,7.4c7.8,3.6,14.7-3.6,21.8,0c-5.8,9.9-13.7,16.8-25.4,18.6c-11.6,7.9-38.5,4.8-52.8,4
	c-6.1,8-10.4,17.4-20,21.6c-11.5,5.5-26,8.9-38.3,4.5c-2-4.9,0.2-9,3.2-12.5c6.3-7.1,11.3-15.1,17.7-22.1c7.8-8.7,11.2-20.3,17.5-30
	c6.7-10.4,8.7-22.6,13.9-33.6c4-8.5,9.6-16.4,9.9-26.3c0-1.3,0.8-2.6,2.1-3.3c4.8,12.6,0.5,17.3,13.3,26.2c4.5,0.5,9-2.8,14.1-1.2
	c-1,6.8-7.6,12.2-5.7,19.7c21.1-0.4,42-15.2,40.6-28.9c-1.3-0.2-2.8-0.4-4.2-0.6C552.5,762.1,571,756.2,575.2,755z"/>
<path class="st5" d="M875.1,721.3c3.8-4.2,25,9.4,36,4.7c5.7-3.5,12.4-0.5,18.3-2.3c15.5-5.4,31.2-10.4,42.9-22.9
	c13.4-16.2,22.2-36.5,25.6-57.2c0.8-3.2,1-6.6,2.7-9.5c2.3-4.2,10.5-8.9,10.5-0.8c0.1,3.5,0,7-1.4,10.3c-7.6,18.2-14,36.6-24.1,53.6
	c-9.1,17.6-10.7,38.2-22.1,54.6c-5.8,6.7-5.7,15.8-8.5,23.8c-4.1,7.5,9.7,16.4-3.9,19.4c-12.7,1.2-19.1,13.8-21.6,7.3
	c0.2-18.4,6.4-36.9,7.9-55.4c0.6-4.5,3.6-8.8,2.5-13.4c-1.8-0.8-2.9,0.1-3.9,0.9c-11.5,7.7-18.4,19-25,30.6
	c-10.6,7.8-16.4,19.4-24,29.5c-4.7,6.3-9.5,11.8-17.5,14.3c-7.6,2.4-14.3,7-18.6,14c-4,6.4-10.4,10.3-15.7,15.3
	c-1.1,1-3.5,3.4-4.3-0.6C841.7,797.5,860.9,760.2,875.1,721.3z"/>
<path class="st7" d="M603.3,763.3c-1.5-3.2,0.9-5.4,2-7.9c5.5-12.7,13.4-24.3,17.5-37.6c-0.6-3.6,2-5.6,4-7.8
	c13.7-15.3,23-33.1,29.8-52.3c1.4-4.5,6.2-4.2,9.6-2.2c11.6,5,23.4,8.7,35.8,11.2c26.3,6.2,52.8,12.1,80,9.9
	c5.9,1.4,28.1-7.4,24.6,3.7c-5.6,30.3,20.3,30.3-24.7,33.5c-6.1,0.4-5.2-7.7-7.8-11.4c-3.1-7.8-13.6-2.6-20-3.7
	c-7.3,0.3-10.8,6.2-15.8,9.4c0.2,2.9,2.9,4.1,2.3,6.3c-4.2,6.7-24.2,3.7-29-1.5c-0.7-3,1.3-6.6-2.1-9c-5.3-2.7-10-1.8-14.2,1.8
	c-1.4,1.7-0.2,3.8-2.3,5.7c-1.9,1.5-4.8,1.1-7.5-0.1c-9.5-4.2-19.2,1.4-29.1,0c-0.3,11.4-8.5,19.2-12.7,28.8
	C631.9,750.5,617.5,756.7,603.3,763.3z"/>
<path class="st8" d="M577.4,487.4c10.4,8.2,21,16.2,31.2,24.6c11.2,9.9,28,19.6,22.2,37.3c-5.3,15-1,33.2-11.7,46
	c-18.1,2.5-18.1-29.8-44.1-3c-2.1-6.1,2.1-11.2,1.3-16.6c-1.8-2.3-0.2-9.6,1.5-11.6c2.5-1.3,4.8,1,7.2,0c6.3-5,5.9-10.1-1.3-14.1
	c8.4,5.8,4,12.1-4.7,11.5c-7.8,8.8-8.1,19.3-10.5,29.3c-4.3,3.2-11.1,2.5-11.5,9.6c-0.2,1.2-0.8,2.1-2.6,3.6
	c-9.7-0.1-26.3,9-35.1,2.1c-2.2-1.5-4.4-2.5-6.8-0.4c-2,1.4-5.3,0.9-6.3,4c-0.8,2.4,0.7,6.8-3,7c-8.3-25.2,28.5-3.9,41.1-39.8
	c7.6-19.1,12.9-39.2,23.2-57.2c6.9-11.6-6.8-23.9-18.4-19.6c-4.2,1.2-7.7,4.8-12.6,3.8C547.5,491.9,562.3,489.1,577.4,487.4z"/>
<path class="st9" d="M787.1,502.7c-2.3,0.2-3.3,0.4-5.6,1.7c-6.9,29.2-4.8,58.9-2.7,88.4c-0.1,10.7-3.1,21.1-2.9,31.5
	c0.2,7.8-2.3,15.4-0.9,23.2c1.2,6.7-2.3,10.5-8,13c-12,5.4-24.3,9.4-37.2,3.9c-5.6-2.4-10.9-5.8-6.3-13.7c1.6-2.7,0.4-6-0.8-9.7
	c6.9-8.3,3.7-18.8,4.4-28.5c0.7-9.3,3.2-18.2,4.4-27.3c0.7-5-2.4-8.9-1.8-13.5c0.4-2.8-1-5.8,1.2-8.4c4,6.6,11.1,6.6,16.8,8.3
	c1.9-0.7,2.8-1.5,3.2-2.6c5.8-15.5,16.5-29.5,14.4-47.4c-0.4-3,1.3-5.6,2.1-8.3c0.3-3.4,0.4-6.7-1.9-9.6
	C761.8,489.9,781.2,500.6,787.1,502.7z"/>
<path class="st10" d="M830.8,837.4c18-5.6,20-26.8,42.2-31.7c17-9.6,21.3-31.8,38.4-43.6c5.3-13.9,15.6-24.6,29.5-32.8
	c2.6,4.9,0.7,8.3-0.8,11.8c-8.1,1.3-10.2,11.9-13.9,18.1c-2.9,7.4-6.2,14.6-11.2,20.9c-2.9,3.7-4.5,8.2-5.3,12.8
	c-3.8,19.3-10.9,37.5-18,55.8c-5.7,14.8-16.4,25.1-30.6,31.9c-10.4,3-22.3,14.8-32.8,7c-3.5-0.4-6.8-1.1-8.7-4.1
	C819.8,867,825.1,852.2,830.8,837.4z"/>
<path class="st11" d="M1121.6,542.5c6-6.6,6.1-13.4,1-19.5c19.6-24.3,21.5-54.7,31.2-82.3c-9.2,7.4-17.3,15.3-31,17.8
	c16-17.6,25.2-36.4,24.3-59.2c5.4,0.9,2,14.7,1.3,18.6c3.9-9.5,3.4-38.8-7.3-43c-10.3-12.4-23.2-29-40.9-27.9c-2.1-0.3-4.6,1-7-2.2
	c8-3.1,15.2,0.3,22.4,1c14.5-1.4,32.7,16,40.3,27.6c1.6,2.7,4.2,4.6,7.8,3.9c4.5-2.2,2.9-8.9,8.2-10.9c7.6,0.7,7.1,7.8,9.2,12.7
	c2.6,0.4,1.6-3.8,4.2-3c0.2,7.1,0.9,14,1.2,21c1.2,17.1-5.9,32.7-10.3,48.8c-4,16-20,74.2-37.8,75.6
	C1150.3,525.8,1128.8,543.6,1121.6,542.5z"/>
<path class="st12" d="M914.5,379.3c-0.7,1.3-1.4,2.7-2.3,4.6c6.8,3.1,9.2,10.8,15.5,13.8c1,9,5.7,16.4,8.4,23.9
	c3.6,1.5,7.7-3.5,9.7,2.4c-1.6,2-3.2,4.1-5.1,6.6c4.9,5.9,6.3,13.7,12.6,18.7c3.3-3,6-5.5,10.1-9.3c-1.4,6.4-7.1,8.2-7,14.7
	c2.9,6.3,8.8,12.2,13.7,18.3c8.9-2.8,8.8-13.4,18.5-18c-4.4,10-9.5,17.2-16.2,22.5c-4.3,3.3-8.9-1.7-13.1-3.9
	c-13.9-7.3-27.8-14.7-43.3-22.9c-2-3.8-7.8-5.8-13.2-8c-9-3.6-16.9-9.7-26.4-12c-4.3-2.1-8.6-3.4-4.2-8.2c5.3-8.5,10.5-17,18.2-23.6
	c1-0.9,1.8-2,2.1-3.4C898.8,388.9,906.5,383.9,914.5,379.3z"/>
<path class="st13" d="M868.1,440c-1.4,7.5,1.2,8,7,10.3c-8.1,5.1-8.1,5.1-6.9,11.6c-1.4-8.1,3.6-7.4,9-10.2
	c7,2.8,11.3,9.8,18.9,11.6c-1.8,5.4-8.8-0.2-12.6-0.3c3.8,0.8,7.3,2.6,11.4,3.3c3.4-2.2,7.3-2.5,11.4-1.8
	c8.5,12.5,23.5,15.6,35.7,24.4c-10.1,15.5-24.9,12.5-39.1,11.6c-4.1,3.3-25.5-3.6-32.2-4.1c-14.2-4.7-16.4,3.8-22.7,2.9
	c1.4-2,2.8-4,4.7-6.8c-4.2-0.9-7.8-1.7-11.4-2.5C834.1,476.6,859.2,450.1,868.1,440z"/>
<path class="st14" d="M1007.5,629.4c-1.9,1.6-3.8,3.2-5.7,4.7c-1.4-1.3-1.5-3.1-1.4-4.8c0.8-10,0.2-20.1,0.5-30.2
	c0.1-2.8-0.3-5.9,2.1-8.1c2.6,10,0.1,20.2,1.6,31.3c11.8-19.4,6.8-60.2,9.8-84c1-17.4-10.9-22.5-3.6-41.9
	c-4.7-13.6-1.9-18,15.1-23.9c-6.4,24.3-16,47.1,4.5,67.6c18.6,24.6,10.5,75.2-0.9,102c-3.3-0.1-5.5-1.9-6.8-4.7
	c-7.6-12.1-1.6-25.8-1.8-38.8C1018.7,609.4,1016.7,622.1,1007.5,629.4z"/>
<path class="st15" d="M794.9,557.4c0-17.3,3.8-35,1.2-52.1c2.1-4.1,0.2-8.7,1.2-12.9c10.5-12.4-4.2,74.6,4.2,78.4
	c4.5,2.4,9.3-0.7,9.9-5.4c2.4-9.4,5.4-18.6,6-28.4c0.3-4.5,1.6-8.8,2.9-13c1.5-3.1,2.8-5.8-0.7-8.6c-7.6-10,5-11,11.1-15.1
	c4-3.3,10.4,1.3,15.2,1.4c-11.3,5,3.9,28.5,5.1,38.1c2.9,9.3-4.5,25.3-13.7,28.7c-7.1,2.6-11,7.6-13.5,14.1c-2,5-5.4,8.4-10.1,10.7
	C793.2,602.7,794.9,569.8,794.9,557.4z"/>
<path class="st16" d="M397.6,823.7c15.7-26.9,37.8-48.8,56.3-73.5c7.5-7.3,20.8-35.1,31.3-30.6c6.1,5.6-0.5,14.2-1.6,20.8
	c-6.1,23.9-20.1,43.1-37.8,59.2C440.8,804,392.5,847.7,397.6,823.7z"/>
<path class="st17" d="M397.6,823.7c0.5,2,1,4,1.5,6c34.1-5.1,98.4-87.1,85.6-109.1c-2.9,0.2-5.7,0.4-8.6,0.6
	c3.5-4.7,7-9.5,10.5-14.2c2.8,0.5,3,3.5,4.9,5l0,0c3,24.3-2.8,49.7-17,69.8c-15.8,18-28.6,39.8-47.8,54.3c-6.5,3.7-12,8.5-16.9,14
	c-7,7.8-16.2,13.2-22.8,21.5c-4.7-0.8-9.8-4.1-12-8.5C379.6,848.1,388.3,835.7,397.6,823.7z"/>
<path class="st18" d="M1016.9,608.6c1.3-5.5,2.7-11.1,4.6-19.1c5.2,19.9-9.8,38.5,8.1,52.7c-3.5,10.3-8.6,19.7-15.5,28.1
	c-4.2,6-3.4,13.7-8,19.4c-12.2,11.7-16.3,27.3-19.9,43c-1.1,10.2-6.9,18.9-8.9,28.7c-0.1,11.2-4.1,21.6-5.4,32.6
	c-0.3,2.9-1.3,5.7-2.8,8.2c-4.2,7.3-3.9,15.7-5.9,23.5c-0.4,1.5-0.1,3.1,1.2,5.3c0.8,1.7,5,1.8,4.9,5.5c-5.8,6.2-14.2,17-23.5,12.9
	c1.5-6.4,2.5-12.8,1.1-19.4c1.7-8.8,4.9-16.2,2-25.2c2.3-7.4,13.3-5.8,12.7-14.8c0.2-5.8,0.6-11.5-1.2-17.3
	c-4.4-16.4,14.6-25.4,15.4-44.3c1.9-10,4.1-20.1,9.3-29.1c1.7-3,3.6-6,3.4-9.7c-0.1-1.2,0.4-2.4,1.3-3.2
	c15.3-20.7,23.3-46.5,27.4-71.8C1017.6,612.7,1018.6,610.5,1016.9,608.6z"/>
<path class="st19" d="M543.9,854.9c8.6,24.3,17.3,48.6,26.2,73.7c-13.1,6.1-26.2,4.2-39,4.3c0.3-7.6-2.6-14.1-6.1-20.7
	C512.6,888.4,509.2,857.6,543.9,854.9z"/>
<path class="st20" d="M969.3,342.6c-0.6,4.5-6,4.5-7.5,8.5c1.7,5,8.7,4.1,10.8,8.9c-1.4,1.8,0.5,3.7,0.3,4.2c-1,3.9-2.8,5.6-4.4,7.5
	c4.7-0.9,3.1,6.1,5.2,8.6c8.2,13.8,0.3,26.5-2.8,39.4c-1,4.2-12.6,4.5-16.5,0.1c-5.8-6.6-12-13.1-15.6-21.4c0.6-0.5,1.5-0.3,2.6-1
	c-4.1-12.9-13.2-25.2-13.1-39C940.6,349.5,955.3,346.9,969.3,342.6z"/>
<path class="st21" d="M543.9,854.9c-2,2.4-5,2.7-7.7,3.6c-35.5,9.7-9.8,47.9-2.6,70c-0.8,1.5-1.7,3-2.5,4.5
	c-11.3-0.1-22.5-0.2-33.8-0.3c-0.5-2.9,3.8-2.1,5.5-3.9c1.2-4.4-0.6-8.6-2.8-12.3c-6.8-11.3-7.3-23.8-7.7-36.4
	c0.9-9.8,14.4-23.7,23.7-27.3c8.6-1.1,17.2-2.2,25.8-3.3C542.5,851.2,543.2,853.1,543.9,854.9z"/>
<path class="st22" d="M872.8,956.2c-11.8-0.7-23.8,2.3-35.4-2.1c0.6-17.4,6.9-36-12.9-46.8c-1.1-3.1-1.3-5.7,0.6-8
	c2.1,1.3,0.8,3.5,3.2,4.9c41-1.4,41.4-24.6,60.9-23.6c0.2,5.1-12.3,14.6-16,19c-10.1,7.1-1.1,16.1-1.2,25.5
	C870.4,934.1,877.7,950.3,872.8,956.2z"/>
<path class="st23" d="M969.2,836.4c-2.6-1.7-5.2-3.3-7.9-5.1c-1-7.9,0.9-15.8,3.4-22.6c5.7-15.3,8.1-31.1,10.8-47
	c2-12,8.3-23.1,10.4-35.3c2.9-16.6,10.7-30.7,22.9-42.3c-8.9,38.9-17.6,77.9-26.7,116.7C979.4,813,979.4,827.4,969.2,836.4z"/>
<path class="st24" d="M921.6,953.6c-12.4,1.5-24.7,3.1-37.3,2.6c-0.6-2.1,2.1-2.7,2-5.6c-4.7-12.9-4.4-27.7-6-42.2
	c-0.8-7.1,0.7-13.2,6.3-18.3c6.9-5.4,10.2-21.9,21.6-17c1.8,2.8,5.7,4.6,4,8.9c-7.3,1.3-12,7.5-9.1,14.2c7.2,16.5,10.1,34.6,19,50.5
	C923.5,948.9,925.3,951.6,921.6,953.6z"/>
<path class="st25" d="M712.3,712c5,4.7,20.8,6.1,27.7,2.1c-1.4-1.3-2.7-2.6-4-3.8c0.7-4.9,0.7-4.9,7.6-7.6c0.4-1.2,1-2.7,1.4-3.8
	c8-3.5,16.3-0.8,24-3.1c2.9,1,5.5,2.2,6.2,5.6c-1.4,1.8-4.2,0.6-5.9,2.2c-8.3-0.2-20.1-2-25.8,5.5c-0.4,4.7,6.7,3,8.3,6.6
	c-5,8.1-17,10.9-25.3,15c-16.3,2.7-39.2-7.5-55.3-13.4c-8.9,7.8-16.9,16.8-27.4,22.7c0.6-9.8,8.8-16.3,11.5-25.5
	c-1.2-1.7-2.2-3.3-4-6.1c14.5,3.8,28.1-4.9,40.3,3c2.7-2.7-0.3-4.9,1.9-6.6c5.3-4.3,11-6.4,17.5-1.9c-0.3,1.8,1.8,3.1,0.8,5.1
	c-3.4,4.3-3.7,4.4-10.3,3.4C705.1,713.3,708.8,710.4,712.3,712z"/>
<path class="st26" d="M1185.4,376.1c-0.6,1.9-1.2,3.9-1.9,6c-1.9,0.2-3.4-1-4.9-2.5c-0.1-5.1-0.4-10.3-7.3-12.4
	c-2.2,7.2-8.1,18.9-15,9.1c-7.1-10.6-16.6-18.4-26.7-25.6c1.9-3.5,6.6-3,9.4-6.3c-6.7-3.7-14.2,1.4-20.1-3.3
	c39.9-3.8,26.3,11.3,59.1-20.5c8.5,1.4,8.6,2,5.8,20.7c-0.1,1.9,2,1.7,2.5,3c1.3,2.9,0.3,5.7-0.4,8.5
	C1183.5,360.6,1183.9,368.3,1185.4,376.1z"/>
<path class="st27" d="M921.6,953.6c0.7-1.4,1.5-2.8,0.4-4.3c-10.4-15.9-12.4-35.2-20.5-52c-3.6-7.5,1.7-12.6,6.7-17.7
	c1.5,0.8,2.8,1.5,4.2,2.2c16.5,3.5,23.5,34.3,27.9,48.4c3.6,2.7,8.7-0.7,11.5,3.1c-4.4,0.4-8.7,0.8-13.3,1.3
	C936.8,947.5,939.1,954.3,921.6,953.6z"/>
<path class="st28" d="M825.3,901.5c-1.4-5.3,5.9-8.2,3.2-13.9c16.4,2.9,28.6-7,41.4-14.3c16.9-9.5,20.9-27.7,27.6-44
	c5.9-14.5,6.7-30.9,13.8-44.6c7.1-13.6,13.3-27.7,21.4-40.8c1.1-1.8,2.7-8.4,7.5-2.8c-12.2,24.3-22.5,50.1-29,76.8
	c-7.3,26.9-18.3,56.6-46.8,67.3c-1.5,0.5-2.9,1-4.2,2.1c-1.4,1.7,1.1,3.2,0.4,4.7C857.8,899.2,830.2,908.3,825.3,901.5z"/>
<path class="st29" d="M1078.4,457.7c0.3-1.2,0.8-1.9,2.4-1.6c9.9,2,20,3.5,29.9,5.9c19.8,6.9,7.9,31.1-3.1,41.6
	c-4.7-4.7-14.8,4.1-16.3-4.2c-3.7-4.4-15.9-7.6-12.8-14.1C1081.6,476.1,1077.3,466.9,1078.4,457.7z"/>
<path class="st30" d="M951.8,933.1c-1.6-0.2-3.1-0.3-4.6-0.4c1.6-5,8.6-1.3,12.2-3.5c1.3-2.3,0.1-4.2-0.7-6.1
	c-7.7-18.9-7.7-38.3-3.7-58c1.4-7.5,10.2-9.9,15.4-14.7c2.6,6.7,5,13.5,11.6,17.5c-0.3,3.1-3.8,2.1-5.2,4.1
	c-15.5,34.3,15.3,53.1,5.3,58.7C972,931.5,961.9,932.3,951.8,933.1z"/>
<path class="st31" d="M982,930.7c0.6-1.3,1.2-2.7,1.7-3.8c-13.5-17.7-16.8-36.5-8.4-57.2c2.3-0.6,4.4-1.2,6.6-1.8
	c12.8,9,24.4,43,18.6,56.8C997.1,932.8,988.6,929.8,982,930.7z"/>
<path class="st32" d="M949.5,931.7c-3.4,1.7-7.2,0.7-11.1,1c-3-18.3-8.9-34.9-21.7-48.4c12.6-16.9,27.3-33.8,47-41.9
	c4,3.8,7.7,8.2,0.8,11c-8.8,5.8-21.9,12.5-21.3,24.5c1,15.4,1.5,30.8,6.2,45.7C950.4,926.2,951.8,929,949.5,931.7z"/>
<path class="st25" d="M775.3,701.5c1.4,3.5,2.8,7,4.6,11.3c9.3-3.3,19.8,0.3,28.9-5.3c4-0.3,9.6,13.5,10.7,17.5
	c-19.2,3.8-35,6.8-53-2.3c3.3,2.3,9.2,1.6,12.5,6.2c-1.5,2-3.6,0.6-5,1.6c-14.7,1.2-29.3,2.3-44,3.5c-0.7-0.5-2-0.2-2.7-2
	c9-6,19.3-9.2,27.6-16.5c8.4-1.3,19.1-0.5,20.3-13.8L775.3,701.5z"/>
<path class="st33" d="M772.8,497c-3.3,0.6-8.3-0.7-5.8,5.8c-7.3,4.1-10.6,0.7-7.7,12.7c-2.2,2.9-1.5,6.5-2.5,9.7
	c-1.6,1.7-4.4,1.4-6.1,4c2.1-0.2,3.2-1.8,4.8-1.8c2,0,4.2-0.1,3.2,3c-2,2.3-0.6,4.8-0.3,7.8c-4.7,4.8-4.1,16.5-15.7,12.7
	c-3.2,1.5-3.6,5.4-7.1,5.8c-2.8-0.4-3.6-2.3-3.4-5c0.8-10.8,1-21.6-0.8-32.3c0.1-3.6-0.8-7.3,1.4-10.7c6.1-2,2.7,16.8,3.7,21.6
	c3.8-13.2-0.2-26.2,4.4-38.7C751.9,490.1,762.8,493.1,772.8,497z"/>
<path class="st34" d="M698.4,490c4.7,2.3,9.3,4.6,14,7c-0.8,4.2-4,6.9-6.6,10.1c5,7.5,15.4,6,19.7,13.6c-7.5,5.3-16.7-4.5-24-5.3
	c-2.6,1.2-2.9,3.2-3.2,5.1c-2.3,14-8.4,26.9-12.1,40.5c-2,4.3-1.8,21.2-9.4,16.9c-1.6-12.1-3.9-24-5.2-36.1c0.8-2.8,3.1-3.9,5.5-4.6
	c5.1-1.6,7.2-5.2,8.1-10.3c1.2-6.6,1.4-13.5,4.1-19.8c2.2-2.5,1.6-5.3,1.1-8.2C689.2,492.5,692.2,489.4,698.4,490z"/>
<path class="st35" d="M898.4,876.1c-4.6,11.1-18.1,18.3-16.3,31.2c1.8,15.7,1.2,31.7,7.6,46.5c-5.2,3.4-10.9,2.3-16.8,2.5
	c-2.2-14.9-0.3-30.3-6.4-44.7c-2.1-5,1.3-8.8,4.6-12.3c5.9-6.3,12-12.4,18-18.6C891.2,877.1,894.1,875.2,898.4,876.1z"/>
<path class="st36" d="M949.5,931.7c-3.8-14.1-5.7-28.5-7.5-43.1c-2.6-21.7,2.4-23,17.9-34.8c2.8-2.1,7.2-2.3,8.1-6.7
	c0.8,1.1,1.6,2.2,2.4,3.3c-0.1,2.4-1.8,4.3-3.5,5c-14.4,5.5-11,18.7-12.5,29.3c-2.8,16.7,4.6,31,8.7,47
	C958.1,931.7,953.8,931.7,949.5,931.7z"/>
<path class="st37" d="M1139.1,532.1c-0.7-2.8,0.7-5.2,2-7.2c-2.4-4.2-7-0.8-9.3-3.2c22.4-4.1,24.4-24.6,31.5-40.2
	c7.8-17.2,11.4-36,16.3-54.3c1.1-4.2,1.8-8.8,5.3-11.5c1.4-6.4-0.9-12.7,1.6-18.6C1189.6,447.4,1174.3,496,1139.1,532.1z"/>
<path class="st38" d="M1009.9,401.7c-0.4-1.5-0.8-3.1-1.2-4.6c9-5.7,11.4-14.6,12.2-24.5c1.3-5.8,4.2-28.7,12.7-16.1
	c7.9-4.9,13.2-13,18.8-17.7c-4.5,4.3-10.1,10.4-18.5,15c-3.1-7.9-10.6-27.5-6.7-34.5c13.7-0.5,27.8,6.2,40.9,10.4
	c-14.8,6.3-20.2,22.7-31.6,32.8C1022.7,370.9,1031.3,410.8,1009.9,401.7z"/>
<path class="st39" d="M822.8,522.6c-4.3,16.9-5.8,34.6-12.5,50.8c-3.7,0-6.9,0-10,0c-3.2-2.4-3.2-5.8-3.1-9.1
	c0.8-22.5,1.6-45.1,2.2-67.6c0-1.3,2.4-4.8-2.1-4.3c1.5-3.1-1.3-8.3,4.6-9.2c2.8,1.6,1.4,4,1.3,6.2c-0.1,17.6-3.8,36.8-0.9,53.6
	c3.4-7-3.1-24.6,10.3-19.3C806.2,515.2,821.5,514.6,822.8,522.6z"/>
<path class="st40" d="M822.8,522.6c-3.4-4.7-8.3-5.4-10.8-1.6c1.4,2.9,4.8,0.4,6.7,2.7c-4,3.7-8.3,0.6-12.6,0.3
	c-2.5,7.9,1.8,17.2-6.1,26.5c-1.3-24.3,0.3-45.8,1.8-67.3c11.2,5.4,22.4,10.8,33.6,16.2c-5,4.8-13.2,4.6-17.7,10.7
	c1.5,2.2,2.6,3.9,3.8,5.6c-3,1.9-4.7-1.9-7.3-1.5c2.6-0.1,4.3,3.5,7.4,1.5C825.2,517.4,824.1,520,822.8,522.6z"/>
<path class="st41" d="M613.5,489.8c15.6-8,31.4-5.6,47.8-2.1c6.9,0.7,6.9,6.3,6,12c-2.3,6.4-1.3,13.7-4.9,20.4
	c-7.8-2.5-12.3-9-18.5-12.9c-6.2-3.9-13.1-6.5-19.3-10.2C621.5,494,613.4,495.1,613.5,489.8z"/>
<path class="st42" d="M814.8,707.3c12.7-3,25.4-6,37.2-8.8c6.1,5.6,11.7,10.8,17.3,16c-13.8,3.5-27.5,7.9-41.7,9.3
	C819.9,725.9,813.7,712.5,814.8,707.3z"/>
<path class="st43" d="M613.5,489.8c2.9,4,8.9,1.9,11.7,6c9.4,12.7,25.2,20.5,27.6,38.1c0.7,3.9,1.3,7.6-1.2,11.1
	c-3.5,6.7,4,14-0.8,20.7c-3.2-0.2-1.9-3-2.1-4.4c-1-6.5-2.7-12.7-5-18.8c-2.1-5.6-7.1-9.5-8.8-15.3c1.1-2.9,2.3-1,4.2,0.4
	c-3-3.3-5.2-6.2-6.7-8.6c0.4,0.4,0.5,1.4-0.2,2.5c-3.4,0.2-4.2-2.9-6.1-4.7c-11.7-8.4-19-21.5-31.3-29.1
	C601.1,488.4,607.3,489.1,613.5,489.8z"/>
<path class="st44" d="M1032.1,319.1c-1.4,0.2-2.8,0.5-4.4,0.7c-0.1,2-0.3,3.6-0.4,5.3c-1.3,1.3,0.7,3.8-1.6,4.8
	c-1.5-0.3-1.7-1.9-2.8-2.8c-0.6,10,2.2,36.4-11.4,37c-2.9,8.6,1.3,17.2-1.4,25.2c-5.6,0.5-3.3-4.2-5-6c-1.9-2.9-0.8-6.2-1-9.3
	c-1.1-3.8-0.4-7.6-0.4-11.4c1.9-2.2,2.3-4.6,2.1-7.5c-0.6-11.2,0.5-22.3,2.3-33.3C1009,308.3,1024.3,317.8,1032.1,319.1z"/>
<path class="st45" d="M665.8,500.4c0-3.2,0-6.4,0-9.7c-1.6-1-3.1-2-4.6-3c1.3,0,2.6,0,4.1,0c0.3-4.8-0.1-9.6,4.7-13.5
	c9.2,5.1,18.8,10.4,28.4,15.8c-13.4,1.6-1.4,12.3-8.1,17.5c-3.7,1-1.8-4.9-1.7-6.7c0.5-5.8-8.2-12.6-12.4-7
	c-0.1,11.2,3.6,10.1,12,14.8c-1.5,7-10.7,3.2-14.6,0.6c-3.2,4.6-1.3,10.7-5.6,14.5c-4.7,0.3-6-0.9-5-5.3
	C664.2,512.5,664.6,506.4,665.8,500.4z"/>
<path class="st5" d="M848.1,499.2c7.2-2.4,14.4-6.4,22.3-4.6c12.3,3,25.7,2.8,37.2,8.2c-4.2,3.9-26.6-4.1-35.9-3
	c1.3,2.7,4.6,3.1,4.5,6.7c-5.4,5.3-13-0.4-19.3,2.5c-4.4,13,12.4,19.4,19.3,27.4c-2.4,2.1-4.8,4.2-6.9,6
	c-13.9-5.8-23-29.4-22.1-42.1C847.5,500,847.8,499.6,848.1,499.2z"/>
<path class="st46" d="M1185.6,375.1c-8.1-7.6-0.6-21.9-0.2-31.5c-2.1-4,0.2-5.6,3.6-6.6c4-2,6.8-6.3,13.2-6.1
	C1201.5,347.7,1192.9,361.1,1185.6,375.1z"/>
<path class="st47" d="M763.7,493.4c-7.2,2.9-14.3-0.8-21.5-1.1c-4.1,14.4,1,29.5-6,44.9c-3.8-10.6,0.8-19.9-3.1-28.3
	c-0.8-0.1-1.2-0.5-0.9-1.4c7.1,0.2-6.1-18.4,3.2-26.8C744.9,485,754.3,489.2,763.7,493.4z"/>
<path class="st9" d="M732.1,507.6c0.3,0.5,0.6,0.9,0.9,1.4c0.1,3.8,0.1,7.5,0.2,11.3c-1,4.4-5.8,3.5-8.1,0
	c-7.2-4.3-15.5-6.6-22.3-12.6c3.5-3.9,6.6-7.3,9.7-10.8C719,500.5,725.6,504,732.1,507.6z"/>
<g>
	<path class="st48" d="M449.6,879.4C449.6,879.4,449.6,879.4,449.6,879.4c-3,0-6.1,0.1-9.1,0.1c-1.6,1-3.6,0-5.2,1
		c0.1,0,0.3,0.1,0.4,0.1c-2.1,4.6-4.6,9.7-9.5,11c-14.3,4-10.5,14.6-9.5,24.1c0.7,6.5-0.9,13.3,1.9,19.5c2.8,6.2,1.9,12.4,1.8,19.3
		c-3.1,0.5-6.2,0.7-9.1,0.4c-0.1,0.1-0.1,0.1-0.2,0.2c3.7,0.6,7.4,1,11.1,1.2c9.2,0,18.4,0,27.5,0
		C448.4,930.2,427.1,904.8,449.6,879.4z"/>
	<path class="st49" d="M482.8,955.9c-0.5,0-1.1,0-1.6,0.1C481.7,956,482.2,956,482.8,955.9z"/>
	<path class="st49" d="M497.2,932.7c0-0.3,0-0.5-0.1-0.8c-1.2-2-3.9-1.6-6.1-4c-4.3-15-12.1-29.9-16.2-46c-0.7-2.8-1.3-6-4.4-7.6
		c0,0.2,0,0.4-0.1,0.6c-7.7,2.1-8,10.9-13.7,14.5c2.9,18.2,3.8,63.6,26.5,66.6c0,0,0,0,0,0c4.7,0.4,9.1-0.2,13.1-4.3
		c-1.6-5.9-3.2-12-5-18.4C493.9,933,495.6,932.8,497.2,932.7z"/>
	<path class="st50" d="M420.3,954.5c0.1-6.9,1.1-13.1-1.8-19.3c-2.8-6.1-1.2-13-1.9-19.5c-1-9.5-4.8-20.1,9.5-24.1
		c4.9-1.4,7.4-6.4,9.5-11c-0.1-0.1-0.3-0.1-0.4-0.1c-4-1.5-7.7-1.6-11.2-0.8c0.4,0.2,0.8,0.5,1.2,1c-12.9,2.1-22.2,18.2-36.3,12.8
		c1.9,17.2,6.1,34,10.3,50.8c1.2,7.2,6.1,10.1,12,10.7C414.1,955.2,417.3,955,420.3,954.5z"/>
	<path class="st51" d="M456.7,889.3c5.7-3.6,6-12.4,13.7-14.5c0.1-0.2,0.1-0.4,0.1-0.6c0.1-1.5-1.2-1.1-2.2-1
		c-5.4,4.4-12.6,3.5-18.6,6.1c0,0,0,0,0,0c-22.5,25.4-1.2,50.8,0,76.9c-9.1,0-18.3,0-27.5,0c-0.2,0-0.4,0-0.6,0
		c19.8,2.1,39.8,0.5,59.6-0.3c0.5,0,1.1,0,1.6-0.1c0.2,0,0.3,0,0.5,0c0,0,0,0-0.1,0C460.5,952.9,459.6,907.5,456.7,889.3z"/>
	<path class="st52" d="M425.3,880.6c-0.4-0.4-0.8-0.7-1.2-1c-1.6-0.9-3.5-0.8-5.3-0.9c-11.8,0.2-22.4-5.2-33.4-7.3
		c1.2,7.3,2.4,14.6,3.6,22c0,0,0,0,0,0C403.1,898.8,412.3,882.8,425.3,880.6z"/>
</g>
<path class="st53" d="M1015.7,314.5c-7.6,1.9-6.2,8.7-6.7,13.7c-1.1,9.5-1,19.2-1.4,28.8c-0.1,2.4,0.7,5.4-3.4,5.1
	c-4.1-7.8,1.1-18.8-3.7-25.3c-0.4,0-0.7-0.1-1-0.4c8.5-2.6-1.7-18,7.6-25.6C1010.1,312.1,1012.9,313.3,1015.7,314.5z"/>
<path class="st54" d="M1189,336.9c-1.7,1.9-4,3.6-3.6,6.6c-0.8,1-1.5,2-2.6,3.4c-2.6-8,3-15.1,1-23.1c-1.4-0.8-3-1.7-4.9-2.7
	c-7.1,5.5-12.7,12.1-18.3,19.2c-4.9-1.2-9.3,4.8-14.6,1c17.4-0.1,25.2-27.3,41.9-23.5C1191.5,324.2,1186.1,330.8,1189,336.9z"/>
<path class="st55" d="M928.3,358.4c5.3,14.1,10.5,28.2,15.8,42.4c-3.2,1-3.2-2.5-5.2-2.5C936,388.3,917.8,366.3,928.3,358.4z"/>
<path class="st0" d="M1118.9,341c7.7,1.4,16-1.7,24.4,2.7c-4.2,4.5-9.1,5.3-13.7,6.8c-5.6-2.4-12.1-2.8-16.7-7.2
	c1-0.8,1.9-1.5,2.8-2.2C1116.7,341.2,1117.8,341.1,1118.9,341z"/>
<path class="st56" d="M814.8,707.3c2.1,7.2,5.2,13.5,12.7,16.4c-2.5,1.8-5.4,1-8.1,1.2c-4.4-7.8-10.1-14.9-12.9-23.4
	c-0.1-5.5-1.4-10.8-2.3-16.3c0-1.6-0.8-3.4,1.1-4.5c4.3,3.2,5.1,7.7,4.8,12.7C811.7,698.1,813.2,702.7,814.8,707.3z"/>
<path class="st57" d="M892.3,395.5c0.2,4.2-3.2,6.3-5.4,9c-6.1,7.3-12.3,14.6-15.3,23.9c-2.2-0.2-2.8-1.8-3.3-3.8
	C872.8,412.2,882.6,403.9,892.3,395.5z"/>
<path class="st58" d="M750.8,720.3c-6.8,3.7-13.5,7.5-20.3,10.9c-1.9,1-2.5,1.3-0.6,2.7c-3.1-0.7-6.3-1.4-9.4-2.1
	C723.7,731.5,754.9,711.9,750.8,720.3z"/>
<path class="st59" d="M773.9,730.4c1.2-0.5,2.4-1.1,3.9-1.7c-5.3-2.8-11.5-3.3-15.7-8c7.9,2.6,16.7,2.8,23.5,8.6
	C781.7,729.7,777.8,730.1,773.9,730.4z"/>
<path class="st60" d="M491.5,712c-3.2-0.1-3.6-2.9-4.9-5c0.9-1.4,1.8-2.9,2.7-4.3C492.1,705.3,491.5,708.8,491.5,712z"/>
<path class="st61" d="M1078.4,485.2c-0.2,3.1,2.1,4.9,3.6,7.1c-3.3,2.3-3.8-2.5-6.2-2.5C1076.7,488.3,1077.6,486.8,1078.4,485.2z"/>
<path class="st49" d="M459.1,957c5.7-1.8,11.5-0.5,17.3-0.8C470.7,958.2,464.9,957,459.1,957z"/>
<path class="st37" d="M1186.5,393.4c-2.1-3.7-0.9-7.6-1-11.5C1186.9,385.7,1186.8,389.6,1186.5,393.4z"/>
<path class="st62" d="M876.2,536.5c-13.4-4.5-23.8-18.8-21-29.7c6.6,0,13.3,0,22.8,0c-5.1-3.2-8-5-12.7-7.9
	c38.2-1.3,70.4,12.6,107.6,15.6c8,0.8,16.2,1.7,23.9,3.8c6.6,1.8,3.2,6.9,1.4,11.1c1.9,1.4,3.7,2.7,5.9,4.3
	c-1.1,1.7-2.1,3.3-3.1,4.9c7.7,10.7,3.3,22.7,3.9,34.2c0.1,1.7-1.3,3.2-3.4,3.4c-13.9-18.9-20.4-35.6-43.2-46.8
	c-12.4-6.5-26.5-13-40.9-10.3C902.8,523,888.3,526.8,876.2,536.5z"/>
<path class="st63" d="M992.5,560.9c8.2,8.1,10,19.2,10.5,30.2c-1.6,8.6,5.4,65.4-12.5,51.9c-5.4,10.6-3.8,23-15.5,29.7
	c3.8-33.5,9.7-65.6,3.4-99.3c-1.2-7.9-4.1-14.8-9.2-21c-1.2-1.5-2.7-2.9-2.5-5.4c7.3-8.5,17.5,15.1,20.1,20
	C989.2,565.4,988.1,560.4,992.5,560.9z"/>
<path class="st64" d="M1005.1,383.2c2.3,0.9,0.3,4.9,4.5,5.2c-0.6-8.9-1.6-17.8-0.4-26.9c2,0.2,3.8,0.3,6.7,0.6
	c6.8-12.5,4.5-26.7,5.4-40.5c5.6,1.5,2.3,6.2,4.9,8.1c10.6,27.2-3.5,24-4.5,49.7c-1,8.8-4.1,15.2-13,17.8
	C1006.8,392.6,1005.3,388.1,1005.1,383.2z"/>
<path class="st65" d="M1009.9,401.7c2.9,0,5.8,0,8.4,0c14.3-22.1-1.9-27,28.7-52.3c-9.4,18.1-13.9,38.1-22.5,56.6
	c-1.2,2.5-2.6,4.7-5.2,5.9C1013.9,410.6,1010.6,407.4,1009.9,401.7z"/>
<path class="st66" d="M1109.8,413.3c-3.5,2.9-8-0.3-12.3,2.6c-0.8,5.3-1.6,11.1-2.5,16.8c0.3,0.5,0.5,1.1,0.7,1.1
	c8.7,0.8,11.9,14.6,2.5,16.8c-12.3,2.8-18.1-12.6-6-17.8c-1.5-8.7,4.8-17.9-2.2-26.3c1.7-0.9,2.3,0.5,3,1.5
	c-0.2-0.9,0.1-1.5,0.9-1.9c3.4,0.4,5.9,2.7,8.7,4.3C1104.5,412.6,1108,410.9,1109.8,413.3z"/>
<path class="st67" d="M1085.4,386.6c0.7,1,1.4,2.1,2,3.1c-0.5,1.9-2,1.4-3.1,1.5c-2.5-3-6.1-3.7-10.2-4c1.9-5.3,3.1-10.4-2.9-13.3
	c-4.8,0.6-4.3,6-9,8.1c0.9-5.5,1.7-10,7.3-10.6c8.6-0.9,9.7,5.7,10.7,12.7C1081.7,384.9,1083.5,385.8,1085.4,386.6z"/>
<path class="st68" d="M1093.5,406.5c-0.1,0.5-0.3,1-0.5,1.5c-1.1-0.6-2-1.1-2.9-1.7c-0.3-2.7-0.7-5.4-1-8
	c5.4-12.2,10.9-14.6,20.8-9.4c-1.1,1.6,2.5,3.7-0.5,5.1C1096.4,391,1095.1,393.8,1093.5,406.5z"/>
<path class="st69" d="M906.3,464.5c-4.4,0.6-7.1,1.6-11.6,3.6c-5.4-1.9-11.3-4-17.3-6c6.7-2.3,12.2,3.6,18.7,1.3
	C899.6,462.8,903.3,461.1,906.3,464.5z"/>
<path class="st70" d="M877.2,451.8c0,4.7-4.6,2.2-6.5,4.1c-3.8,3.9,0,6.8,2.2,10.8C860.1,464,866.9,444.9,877.2,451.8z"/>
<path class="st71" d="M971.4,372.5c-2.4-0.1-5,1-7.7-1.7c4.8,0.9,5.6-2.8,7.8-5.1c-0.7-1.7-1.3-3.3-1.9-4.8c0.6-1.6,1.9-1,3-0.9
	C976,364.5,975.3,368.6,971.4,372.5z"/>
<path class="st64" d="M1000.5,336.8c2.7-0.1,2.3,1.9,2.4,3.6c0.6,11.1,1.5,22.3,1.2,33.4C1001.4,361.6,1002.5,349.1,1000.5,336.8z"
	/>
<path class="st72" d="M993.6,483.9c1.9-4.8,3.7-9.5,5.6-14.3C999.8,475.4,997.7,480.1,993.6,483.9z"/>
<path class="st60" d="M425.3,880.6c-13.1-0.3-27.7-0.7-38.4-9.3c0.5-3.3,2.5-5.3,5.1-7.3c13.9-11.3,27.1-23.4,40.6-35.1
	c13.2-11.5,22.6-27.2,34.5-40.3c19.2-21.2,24.9-48.9,24.5-76.5c1.2,13.2,2.3,26.3,3.5,39.5c0.2,12-6.8,21.5-10.8,32
	c-5.8,15.1-12.6,29.7-19.9,44.1c-7.4,18.4-30.2,33.2-33,51.4c3.2,0.2,6.2,0.3,9.2,0.5C435.6,881.1,430.4,880.5,425.3,880.6z"/>
<path class="st6" d="M504.3,608.6c1.8-3.4,5.2-3.5,8.4-3.7c8.4-2,9.6,13.7,1.4,14.1c1.3,1,2.3,0.3,3.3-0.7c3.3-2.3,3.3-7.5,7.6-8.9
	c4.9-0.8,10,0.5,14.9-0.9c6.8-1.1,13.1-3.9,18.4,2.1c15.9,8.7,8.7,28.9,12.7,43.5c0.7,5.8,2.1,11.2,5.4,16.3
	c7.5,13.7-2.4,29.9,3.5,44.5c3,16.3-20.1,40.8-32.2,50.7c0.7,1.5,2.6,1,3.2,2.3c-6.4,3.2-12.8,6.3-20.3,6.9c0-3.3,2.2-4.3,3.5-5.7
	c8.1-8.6,16.6-16.7,24.2-25.7c8.1-8.5,10.6-17.3,6.5-29.2c5.1-27-10.2-52.6-5.9-79.6c0.4-2.6-1.3-4.8-3.1-6.5c-3.3-0.5-6.4-1-10-1.5
	c-6.1,3.5-12.7,7.3-19.4,11.2c-6.6-8.8-16.1-13.5-23.1-21.1c0.4-1.6,0.8-3.1,1.2-4.7c1-1,2.2-1.5,4.1-1
	C506.6,610.3,505.3,609.8,504.3,608.6z"/>
<path class="st8" d="M550.8,767.8c-1.6-0.1-3.3-0.2-6.2-0.4c13.4-15.5,39.7-35.9,32.1-58.3c-3.1-10,4-21.6,0.1-30.6
	c-7.3-17.1-9.1-34.6-10.3-52.5c-0.6-14.8-10.1-10.5-13.3-18.5c0.1-0.2,0.2-0.5,0.3-0.7c3.2-2,4.7,1.3,7,2.2c1.1,0.9,2,1.8,2,3.3
	c2.2,2,6.3-0.3,7.9,3.3c2.7,0.6,3.6,2.5,3.7,5c-0.6,13.9,1.4,28.2,5.7,40.5c4,11.7,6.1,22,3.7,33.7c-0.3,1.3,0.2,3.4,1.1,4.3
	c8.8,9.4,4,18-1.4,26.6c-4.6,8.1-17.6,20.6-7.9,29.3C567.1,759.3,559,763.7,550.8,767.8z"/>
<path class="st73" d="M896,524.9c5-1.9,10.1-3.9,15.1-5.8c2.9,3.6,6.8,5.3,11.2,6.3c12.9,3.3,26,7,37.4,14.4
	c4.8,3.7,7,9.1,10.9,13.3c1.3,1.4,1.4,3.6-0.3,5.6c-3.7,2-8.7-2.3-12.6,2.1c-1.8,4.6,3.2,9.5,0.1,14.3c-1.6,2.3-4.5,4.8-1.9,7.3
	c6.2,7.3,8.9,17.2,17,22.9c15.4,8.5,6.6,29.6,6.2,43.5c0.1,10.3-7.1,19.3-4.8,29.7c4.1,0.7,7.8,2.1,11.2,4.3
	c-6.4,16.8-18.8,28-35,34.4c-8.9,3.5-17.4,9.5-27.8,8.5c-0.7-8.2,23.4-12.1,26.8-25.8c2.1-5.4-2.7-5,0.5-11.9
	c1-12.4-8.1-5.3-12.2-7.5c4.9-5.1-7.3-21.5-5.8-31.4c2.8,0,2.7,2.4,3.3,4.1c3.8,6.4,4.2,16.6,9.4,21.4c0.3,1.4,0.8,2.7,2.5,2
	c6.7-12.9-12.7-21-6.4-34.1c6.5,2.1,6.6,9.5,11.8,12.1c10.7-5.4-3.9-38-6.2-46.9c-4.2-0.4-7.1,1.9-11.1-0.3
	c-1.8-6.3-6.6-11.6-12.6-15.8c3-5.4,7.4-8.6,12.9-12.8c-8.5-5.3-13.6-12.9-19.4-20c3.7-11.7,3.2-12.2-17.7-14.9
	C900.8,537.3,895.8,531.6,896,524.9z"/>
<path class="st5" d="M870.1,657.1c-7.3,11.9,1.8,25.7-4.2,37.3c-11.8,0-16.3-7.8-18.7-15.5c-5.5-17.7-11.3-35.5-7.1-54.6
	c2.3-8,8.9-10,8.6-19.1c5.3-2.1,6.9-9.7,14.8-10.5c8.8,7.4,16.1-2.3,24.6-4c3.4,7,12.4,7.9,14.9,17.5c-12-4.8-20.6,0.2-29.3,7.3
	c4.3,2.9,6.7,6.6,6.2,11.4c2.5,1.4,4.6,2.5,7.6,4.2c-5,3.9-12.3,3-13.5,10.4C873.4,646.7,876.4,653.2,870.1,657.1z"/>
<path class="st74" d="M949.1,694.5c1.1-0.2,2.1-0.4,3.6-0.6c-1.3,19.1-19.7,21-29.9,32.1c-3.9,0-7.8,0-11.7,0
	c7.7-8.2,18.7-1.8,23.4-21.8c-5.1-5.2-4.1-11.4-1.4-17.7c1.7,1.7,2-0.2,2.6-1.1c10.4-13.7,21.5,7.3,5,11.9
	C944.1,697.9,945.9,694.1,949.1,694.5z"/>
<path class="st5" d="M810.1,693.5c-1.6-4.2-3.2-8.5-4.8-12.7c0.4-4.7,3.1-7.7,7.9-7.5c7.8,0,14.3-7.3,22.1-4.3
	c8.1,1.1,2.9,8.9,7.1,11.6c-4.5,4.7-7.9,1.2-11.7,0.1c-2.6,5.4-9.5,5.1-14.9,11.6c0.3-0.3,3.3,2.8-1,4.1
	C813.6,695.6,811.9,694.5,810.1,693.5z"/>
<path class="st75" d="M920.4,635.3c-8.2,6.3-12.2,16-18.7,23.6c-2.3,1.7-3.4,7.7-6.7,6.8c-0.9-0.7-0.9-1.5-0.1-2.4
	c6.5-10,13-20,19.6-30.1c-3.7-7.8-3.8-15.1,3.6-21.1c0.7-0.7,1.5-0.6,2.4-0.3c0.8,7.1,1.3,14.2-0.3,21.3
	C920.5,633.8,920.8,634.5,920.4,635.3z"/>
<path class="st76" d="M920.4,635.3c-0.9-1.3-2.4-1.4-2.4-3.4c8.5-3.5,4.3-10,2.6-16.2C943.3,605.4,940.2,641.9,920.4,635.3z"/>
<path class="st5" d="M888.3,709.6c8.2-3.7,15.5-7.1,24.5-3.7c-2.7,4-7.7,2.5-10.8,5.4c0.7,1.8,1.3,3.5,2.2,5.9
	C896.9,718.7,892.4,715.9,888.3,709.6z"/>
<path class="st75" d="M920.4,635.3c3.8-0.1,7.8,0.5,11.4-1.4c0.6,8.6,6,15.5,7.9,23.7c1.3,5.8,3.3,11.4,5,17.1
	c-3.9,0.9-4.3-2-5.2-4.5c-3.8-10.8-8.2-21.7-10.2-33C926.3,635.8,922.9,638,920.4,635.3z"/>
<path class="st77" d="M932.1,614.3c-3.2,0.9-5.9,3.9-10.3,1.5c6.7,7.7,2.8,13.1-2.5,18.3c-2.9-2.7-2.9-2.7,0.8-6.3
	c-0.8-5.3-2-10.6,0.3-15.8C924.3,611.4,929.7,610.1,932.1,614.3z"/>
<path class="st78" d="M887.9,688.9c-14.7,7.7-20.7-18.8-4.6-18.6c1.3,1.1,4.3,0.9,3.1,4c-3.1,1.7-6.6,3-6.7,7.5
	c2.6,1.8,5.9-0.1,8.2,2.1c1,3.1-2.1,3.3-3.4,4.7C885.8,687.6,886.9,687.6,887.9,688.9z"/>
<path class="st5" d="M871.6,583.3c6.1-9.1,15.4-10.2,26.9-4.8C889.9,582.8,881.3,578.9,871.6,583.3z"/>
<path class="st5" d="M876.4,560.5c1.3,6.4-3.6,10.4-10.8,9.4C864.2,564.1,869.2,559.6,876.4,560.5z"/>
<path class="st79" d="M835.3,668.9c-11.3,2.4-21.7,6.1-33.7,6.6c1.7-5,5.9-2.5,8.4-4.1c10.1-2.4,20.2-4.7,30.2-7.1
	C842,669.5,836.2,666.6,835.3,668.9z"/>
<path class="st80" d="M886.7,673.7c-1.1-0.5-2.2-1-3.7-1.6c0.1-0.4,0.2-1.1,0.3-1.7h0c1.4-1,3.1-1.3,4.6-1.9
	c8.9,3.9,7.1,15.7,0.1,20.4c-1.3-0.2-2.6-0.3-5.5-0.7c2.4-1.8,3.9-3,5.4-4.1C888.5,680.5,888.3,677,886.7,673.7z"/>
<path class="st81" d="M672.8,541.2c-7.6-11.5-3.8-23.3-0.8-36.1c5,4.4,9.6,9.2,15.9,3.5c-0.5-1.8,1.4-1.2,2.4-1.1
	C687.1,520.9,689.7,537.7,672.8,541.2z"/>
<path class="st82" d="M1029.7,352.8c-0.6-9.2-4.8-18.7-2.4-27.8c2.2,8.9,4.3,17.9,6.7,27.7c8.1-6.7,15.7-13,23.3-19.3
	c-7.4,9.5-14.5,19.3-25.3,26.1C1031.2,357.1,1030.4,355,1029.7,352.8z"/>
<path class="st83" d="M1033.2,331.3c10.6-16.2,20,9.9,3.8,6.9c3.1-2.4,6-4.5,4.7-8.5C1038.2,326.7,1036.7,331.7,1033.2,331.3z"/>
<path class="st84" d="M821.5,515.7c-4.5,4.9-7.8-2.6-12-0.9C814,509.3,817.6,514.6,821.5,515.7L821.5,515.7z"/>
<path class="st85" d="M635.6,526.1c-3-3.7-4.6-6.5-6.9-11.2c6.1,3.9,9.1,9.3,13.6,16.3C639,528.6,637.3,527.3,635.6,526.1z"/>
<path class="st86" d="M689.1,507.4c-0.4,0.4-0.8,0.8-1.2,1.2c-10.1,0.4-13-6-13.8-14.6C679,483.5,694.9,494.7,689.1,507.4z"/>
<path class="st87" d="M979.7,649.3c-0.4,0-0.8,0-1.2,0c-0.4-13.7,9.5-33.1-6-41.9c-4.1-2-6.9-6.6-10.6-10.2
	c1.7-9.3-14.2-10.5-6.7-21.1c6.3,3.8,13.6-0.3,8.7,10.6c4.1-4.5,4.1-6-0.3-10.5c-2.2-1.7-5.2,1.1-7.3-1.3
	c4.3-6.5-11.4-22.7,13.1-16.7c1.5-8.5-7.6-16.6-28.2-25.2c3.2-6.2-22.4-9-18.2-15.6c4.3-0.7,7.8,1.7,11.4,3.4
	c8.1,3.8,16.4,6.4,25.2,7.7c14.1,7.6,25.6,17.7,32.7,32.4c-3.9,2.7-2.4,7.4-4.9,12.2c-5.8-9.9-7.5-22.2-20.1-27.6
	c0.3,1.8,0.2,2.8,0.5,3.1c9.9,8.9,12.7,21.2,13.6,33.4C983.5,604.4,983.6,626.9,979.7,649.3z"/>
<path class="st88" d="M922.7,518c6.1,6.2,15.4,7,21.8,12.5c1.3,7-22.2-4.2-26.4-4.3c-3.7-1.1-7.2-2.2-7-7
	C915,518.7,918.9,516.1,922.7,518z"/>
<path class="st73" d="M922.7,518c-1.9,0-3.9-0.1-5.8-0.1c15.6-3.7,29.9,3.2,42.9,10.7C945.5,531.5,935.4,520.3,922.7,518z"/>
<path class="st89" d="M982.7,585.1c8.6,7.5,8.2,47.4,0.5,60.3C984.6,625.9,985.3,606.5,982.7,585.1z"/>
<path class="st90" d="M1111.1,406.4c-4.7,7.9-11.5,4-17.6,0.1c-2.7-5.8-0.8-10.5,3.6-14.4c4.6-4,8.6-0.3,12.7,1.5
	C1112.9,397.6,1112.8,401.9,1111.1,406.4z"/>
<path class="st91" d="M1090.5,440.2c1.7-1.1,3.3-2.1,4.9-3.1C1108,445.1,1088.1,455.5,1090.5,440.2z"/>
<path class="st8" d="M515.9,617.9c0.2,1.3,0.7,2.2,2.2,1.8c-3.8,3.7-6-0.2-8.6-2.3C511.7,617.6,513.8,617.7,515.9,617.9z"/>
<path class="st8" d="M523.9,610.8c5.5-0.4,11-0.8,16.5-1.2C535,612.3,529.3,610.3,523.9,610.8z"/>
<path class="st3" d="M553.1,607.4c0.3-3.5,3.8-1.5,5.4-3.3c0.9-6,0.8-9,8.7-7.3c5.3,4,4,8.3,0.7,12.9c-2.8,0-5.2,0-7.7,0
	C557.3,610.3,556.3,605.5,553.1,607.4z"/>
<path class="st92" d="M944.8,681.9c-1.2-0.9-2.4-1.7-3.7-2.6c15.8-6.3,13.5,18.5-0.5,19.9c-1.3-0.8-3.2-1.9-5-3
	c7.7,0.9,11.6-2.4,12.6-10C947.1,684.9,945.9,683.4,944.8,681.9z"/>
<path class="st93" d="M964.6,579.5c-2.9-1.6-8.3,3.3-9.3-3.5c0.4-0.4,0.8-0.8,1.2-1.2c2.7,0.5,5.4-2.7,8.2,0
	C964.3,576.4,965.6,578,964.6,579.5z"/>
<path class="st94" d="M886.7,673.7c5.3,3,3.8,6.6,1.1,10.5c-3.2,0.2-6.4,0.3-10.3,0.5C877.4,678.1,879.6,674,886.7,673.7z"/>
<path class="st95" d="M765.2,507.5c2.3,5.7-1.5,8.2-5.7,4.8C757,508,761.6,504.4,765.2,507.5z"/>
<path class="st96" d="M676.3,498.5c0.7-1.5,1.6-3.1,2.3-4.5c7.4-0.2,10.3,4,7.6,10.7C681,506,678,503.9,676.3,498.5z"/>
<path class="st97" d="M964.6,579.5c-0.6-0.9-1.1-1.8-1.9-3.1c0.6-0.5,1.2-1.1,1.9-1.6c7.8,3,4.2,17.5-4.6,13.6
	C962.3,585.6,965.2,583.4,964.6,579.5z"/>
<path class="st0" d="M870.4,494.7c-7-1.3-12.7,5.3-19.8,3.5C856.4,492.2,863.3,492.7,870.4,494.7z"/>
<path class="st98" d="M907.5,873.7c1.9-7.2,8.9-11,11.7-17.6c0.8,6,24.5-8.9,30.3-6.9c-8.9,13.2-22.3,23-32.8,35
	C912,882.3,910.1,877.8,907.5,873.7z"/>
<path class="st99" d="M951.4,366.2c-7.1,1.9-10.3,5.5-5.2,13.1C931.8,379.2,944.1,356.3,951.4,366.2z"/>
<path class="st100" d="M742.5,709.8c-4.1-8.3,23.1-9.2,27.9-7.1c3.4,1.2,3.2,3.4,1.5,5.8C765.5,717.3,750.2,717.3,742.5,709.8z"/>
<path class="st101" d="M742.5,709.8c12.4,6.1,22.1,4.8,30-4.1c-1-1.5-2.4-2.7-2.4-4.8c1.7,0.3,3.3,0.5,4.9,0.7
	c0.4,1.7,0.8,3.4,1.2,5c-2.9,7-8.9,9.9-21.5,10.1c-1.2,1.1-2.5,2.3-3.9,3.5c-0.5-0.8-0.9-1.7-1.3-2.6c3.3-4.5-2-2-2.8-3.3
	C745.6,712.7,740.7,714.3,742.5,709.8z"/>
<path class="st102" d="M756.5,524.8c3.8,2.1,7.6,4.1,8.4,10c-8.2-7.1-7.5-9-15.8-1.4C747.3,526.2,751.4,525.1,756.5,524.8z"/>
<path class="st103" d="M698.3,694.6c-2.3-0.4-4.4-1.2-5.5-3.4c2.4-6,12.7-7,21.3-2c0.9,2.3,0,4-1.8,5.4
	C707.6,693.9,703,695.2,698.3,694.6z"/>
<path class="st104" d="M712.3,712c-6.1,2.3-11.7,2.4-17.6-5c6.6,2.3,11.5,6.7,16.2,0.6c2.1-1.3-3.2-3.3,0.1-4.7
	C713.8,705.7,714.2,708.7,712.3,712z"/>
<path class="st105" d="M698.3,694.6c-2.6-6.4,8.3,3.7,12.4-4.3c2.6,0.8,1.5,2.7,1.5,4.3C707.7,698.4,703,697.1,698.3,694.6z"/>
<path class="st25" d="M804.2,685.3c1.5,4.3,3,8.6,4.5,13.1c-0.7,1-1.5,2.1-2.2,3.2C802.7,696.6,804.6,690.8,804.2,685.3z"/>
<path class="st106" d="M552.1,607.5c-9.3,2.5-18.8,2.5-28.2,3.3c-1.1,3.5-2.7,6.6-5.7,8.9c-0.9,2.4-3.7-0.3-2.2-1.8
	c2.8-2.5,2.8-5.6,2.1-9c-1.6-1.5-2.7-3.7-5.2-4c1.5-5.6,7.8-0.1,10.1,2.6C530.7,610.6,547.4,600.1,552.1,607.5z"/>
<path class="st107" d="M552.1,607.5c-9.8-4.8-19.7,4.2-29.3,0.1c10.6-1.7,21.1-3.4,32.3-5.1c-0.9-9.8,6.2-11,13.1-12.5
	c0.5,2.5-2.1,2.9-3.7,5.5c0.8,0.4,1.8,0.9,2.8,1.4c-1.3,1.7-3.6,1-5.1,2.3c-1.8,1.6-1.3,4.4-3.2,6.3c-1.3,1.9-4.6-0.8-5.8,2l0,0
	C552.8,607.4,552.4,607.5,552.1,607.5z"/>
<path class="st107" d="M577.4,568c-6.1,5.6-5.9,13.6-8.1,20.7c-0.3,0.1-0.7,0.1-1,0.2c-0.4-9,0.6-17.5,7.9-24.6
	c-0.5-1.4-1.1-3.1-1.8-5.2c4.3,0.2,8.5,1.6,12.5-0.6c2.5,2.8-1,4.6-1.2,6.9c-2.6,2.7-4.8-1.1-7.6-0.5C577.9,566,577.6,567,577.4,568
	z"/>
<path class="st108" d="M585.7,565.6c-2.7-2.8,3.3-4.2,1.2-6.9c1.3-7.1-6-6.2-9.9-10.3C589.3,544.3,597.7,559.7,585.7,565.6z"/>
<path class="st1" d="M504.3,608.6c3-0.1,5.3,1.2,7.9,3.4c-3,0-5.5,0-8,0C504.3,610.9,504.3,609.8,504.3,608.6z"/>
<path class="st109" d="M769.3,513.2c-13,12.9-19.4-13.7-2.3-10.5C770.3,505.7,769.2,509.6,769.3,513.2z"/>
<path class="st110" d="M911.6,410.4c-7.1,8.3-14.1,16.6-21.2,24.9C894.4,424.3,902.3,416.8,911.6,410.4z"/>
<path class="st111" d="M938.9,428.7c-6.6,7.2-13.2,14.3-19.8,21.5C922.4,440,930.5,434.2,938.9,428.7z"/>
<g>
	<path class="st112" d="M336.5,538.8c-0.2,0.2-0.3,0.3-0.5,0.5c0.3-0.2,0.5-0.3,0.8-0.5C336.6,538.9,336.6,538.9,336.5,538.8z"/>
	<path class="st112" d="M486.8,521.4C486.7,521.4,486.7,521.4,486.8,521.4C486.8,521.4,486.8,521.4,486.8,521.4
		C486.8,521.4,486.8,521.4,486.8,521.4z"/>
	<path class="st112" d="M426.3,481.9c-0.1,0-0.1-0.1-0.2-0.1c0,0,0,0.1,0,0.1C426.2,481.9,426.3,481.9,426.3,481.9z"/>
	<path class="st112" d="M481.7,498.2c0-0.3-0.1-0.5-0.1-0.8c-1.2,0.2-2.4,0.4-3.6,0.5C479.2,498.1,480.4,498.2,481.7,498.2z"/>
	<path class="st112" d="M474.1,488.9C474.1,488.9,474.1,488.9,474.1,488.9C474.1,488.9,474.1,488.8,474.1,488.9
		c-0.2-0.1-0.3-0.2-0.5-0.2c0,0,0,0.1,0,0.1C473.8,488.8,473.9,488.8,474.1,488.9C474.1,488.9,474.1,488.9,474.1,488.9z"/>
	<path class="st113" d="M263.1,601.2c18.5,13.6,67.9,14.2,89,5.1c0,0,0,0,0,0c20.8-12,39.2-27.2,58.1-41.8c0,0,0,0,0,0
		c20.1-16.4,41.1-37.1,66.7-42c-0.5,0-1,0.1-1.5,0.1c2.7-1.7,5.7-1.2,8.6-1c1-0.1,1.9-0.1,2.9-0.1c0,0,0,0,0,0
		c-8.3-5.2-17.6-4.4-26.7-4.6c0,0,0,0,0,0c-6.9,1.9-53.5,11.5-54.3,3.6c-0.5-13.7,26.3-19.6,36.9-22.3c0.4-0.4,0.8-0.8,1.2-1.2
		c-12.9-0.9-26,1.3-53.5,22.1c-7.7,21.1,19.2,13.3,17.4,24.4c0,0,0,0,0,0c0,0,0,0,0,0c-19.9,51.8-79.7,78.4-131.7,60.5
		c-5.5-1.4-9.5-4.9-12.6-9.6c-5-7.6-3.8-12.9,4.4-16.8c9.4-4.6,18.9-8.8,28.4-13.1c21.9-14.4,41.1-31.7,57.5-52.2
		c14.8-17.7,36.4-29,59-31.4c-0.5,0-1-0.1-1.4-0.1c21.2-3.8,41.8,4,62.4,8c0,0,0-0.1,0-0.1c-50.5-22.5-103.2-9.4-135.3,34.8
		c-13.1,13.9-26.9,29.9-44.5,37.4c1.1-0.7,2.1-1.4,3.2-2.1c-2.5,1.6-5,3.2-7.6,4.7c0,0,0,0-0.1,0c-3.7,2.6-7.9,4.4-12.3,5.8
		C259.8,575.6,243.4,583.5,263.1,601.2z"/>
	<path class="st114" d="M509.6,510.2c-30.4-32.3-78.4-46.3-121.6-34.5c-36,10.4-55.7,39.4-74.5,68.9c0,0,0,0,0,0
		c25.8-27.3,48.5-61.3,88-68.9c16.7-3.8,34,1,51,3.4c22.2,3.1,37.8,14.5,48.8,33.2c2.2,3.8,4.9,7.8,0.4,12.6
		c-8.2-0.3-16.5-3.1-25-2.5c-25.6,4.8-46.6,25.6-66.7,42c0,0,0,0,0,0c0,0,0,0,0.1,0c-18.1,17.5-36.3,34.7-59.7,44.7
		c-0.9,0.7-1.9,1-3.1,1.3c-1.5,0.6-3.1,1.2-4.6,1.7c-15.4,6.9-31.3,2.1-47,1.9c-19.2-0.6-40.3-8.2-50.6-25.7
		c3.1-17.8,17.9-16.4,32.4-19.4c-0.2,0.1-0.4,0.2-0.6,0.2c4.4-1.4,8.5-3.3,12.3-5.8c0,0,0,0,0.1,0c-13.4,4.4-27,7-41.3,7.6
		c-8,0.4-12.4,7.5-14.9,15c26.3,28.2,65.7,36.4,102.3,31.7c21.2-2.2,36.3-17.8,53.7-28.3c15.3-9.2,24-25.5,38.2-35.9
		c22.7-18.1,50.2-40.9,79.3-22.6C514.7,527.2,516.4,515.6,509.6,510.2z"/>
	<path class="st114" d="M486.9,521.4C486.9,521.4,486.8,521.4,486.9,521.4c-0.1,0-0.1,0-0.2,0c-1,0-2,0.1-2.9,0.1
		C484.8,521.6,485.9,521.6,486.9,521.4z"/>
	<path class="st115" d="M338.3,523.4c32.2-44.2,84.8-57.3,135.3-34.8c0.1,0.1,0.3,0.1,0.4,0.2c0,0,0.1,0,0.1,0.1
		c13.5,5.3,20.5,15.9,24.5,28.8c-2.3,7.5-7.6,3.7-11.7,3.7c0,0,0,0,0,0c-1,0.1-2,0.1-3.1,0.1c-2.9-0.1-5.8-0.6-8.6,1
		c0.5-0.1,1-0.1,1.5-0.1c8.5-0.5,16.8,2.2,25,2.5c4.5-4.8,1.8-8.8-0.4-12.6c-11-18.7-26.6-30.1-48.8-33.2c-17-2.4-34.4-7.2-51-3.4
		c-39.5,7.6-62.2,41.6-88,68.9c0,0,0,0,0,0c-5.3,5-10.7,9.9-16.6,14c-1,0.7-2.1,1.4-3.2,2.1C311.4,553.3,325.2,537.3,338.3,523.4z"
		/>
	<path class="st116" d="M334.7,543.6c-13.5,12.5-27,25-44.7,31.7c-4.7,1.8-9.2,4.1-13,7.5c-19.1,20.2,61.2,27.3,70.8,5.8
		c-1.1-2.8-3.9-2.8-6.2-3.5c-8.6-2.6-10.6-6.1-6.6-14.1c5.5-11,9.3-22.4,11.1-34.5c-3.4,2.1-6.5,3.3-9,2.4
		C337.6,541.1,336.1,542.4,334.7,543.6z"/>
	<path class="st117" d="M346.1,536.5c-1.7,12.1-5.6,23.5-11.1,34.5c-4,8-2,11.5,6.6,14.1c2.3,0.7,5.1,0.6,6.2,3.5
		c-9.6,21.5-89.9,14.4-70.8-5.8c3.8-3.4,8.3-5.8,13-7.5c17.7-6.7,31.1-19.2,44.7-31.7c1.4-1.2,2.8-2.5,2.3-4.7c-0.1,0-0.1,0-0.2-0.1
		c-0.1,0-0.1,0-0.2,0c-0.3,0.2-0.5,0.3-0.8,0.5c-0.1,0.1-0.3,0.3-0.4,0.4c-17.4,15.2-35.7,29-56.8,38.8c-11,3.9-10.2,15.4,0.5,19.1
		c20,7.7,40.3,10.8,60.7,1.3c8.2-3.9,16.8-7.1,22.8-14.5c4.7-5.4,9.1-12.5-0.6-14.7c-2.1-1-4.5-1.8-4.4-4.7
		c-10-7.7,12.7-39.1,20-46.4C369,514.5,356.3,530,346.1,536.5z"/>
	<path class="st118" d="M422.2,483.4c-13.8-0.5-26,5.2-38.4,10.2c-20.9,9-31.1,30.5-47.3,45.3c0.1,0,0.2,0,0.3,0c0.1,0,0.1,0,0.2,0
		c0.1,0,0.1,0,0.2,0.1c2.6,0.9,5.7-0.3,9-2.4c10.2-6.5,22.9-22,31.7-17.9c0.1-0.1,0.1-0.1,0.2-0.2c3.3-2.9,10.9-7.9,13.4-6.5
		c0.5-2.7,1.6-5.1,4.6-6.6c12-10.7,27.3-13.1,41.8-18.5c-3.2-3.7-8.4-1.8-11.4-5c0,0,0,0,0,0c-0.1,0-0.1,0-0.2,0
		C425.9,483.9,423.5,483.4,422.2,483.4z"/>
	<path class="st119" d="M391.3,560.3c-10.6,16-21.5,34.1-41.1,39.9c-10.3,3.8-20.3,8.8-31.6,8.7c-17.1-1.3-39.4,0.3-51.2-14.4
		c-10.8-18.1,18.6-22,28.8-30c-9.5,4.3-19,8.5-28.4,13.1c-8.2,4-9.4,9.3-4.4,16.8c3.1,4.7,7.1,8.2,12.6,9.6
		c52,18,111.8-8.6,131.7-60.5c0,0,0,0,0,0c-4.4,4.2-9.3,8.1-14.5,11.5C393.8,557.1,392.3,558.6,391.3,560.3z"/>
	<path class="st120" d="M477.9,498c1.2-0.2,2.4-0.3,3.6-0.5c-0.9-4.7-5.6-5.4-7.5-8.6c0,0,0,0,0.1,0c0,0-0.1,0-0.1-0.1
		c-0.1,0-0.3-0.1-0.4-0.1c-20.5-4-41.2-11.8-62.4-8c0.5,0.1,1,0.1,1.4,0.1c4.4-0.5,8.9-0.6,13.3-0.4c0.1,0.5,0.1,1,0.1,1.3
		c0.1,0,0.1,0.1,0.2,0.1c0,0,0,0,0,0c2.9,3.2,8.2,1.3,11.4,5c-14.5,5.3-29.8,7.8-41.8,18.5c-3,1.4-4,3.8-4.6,6.6
		c1.2,0.6,1.2,2.7-1,7.2c27.5-20.8,40.5-23,53.5-22.1c0.4-0.4,0.7-0.7,1.1-1.1C456,494.9,466.8,497.1,477.9,498z"/>
	<path class="st121" d="M486.9,521.4C486.9,521.4,486.9,521.4,486.9,521.4c4.1,0,9.4,3.8,11.7-3.7c-3.9-13-11-23.6-24.5-28.8
		c0,0,0,0,0,0c0,0,0,0-0.1,0c1.8,3.2,6.5,3.9,7.5,8.6c0.1,0.2,0.1,0.5,0.1,0.8c-1.2-0.1-2.5-0.1-3.7-0.2c-11.1-0.9-22-3-32.9-2.2
		c-0.4,0.4-0.7,0.7-1.1,1.1c-0.4,0.4-0.8,0.8-1.2,1.2h0c11.4-6.3,27.8,7.6,17.4,18.6c0,0,0,0,0,0c0,0,0,0,0,0
		c9.1,0.2,18.4-0.6,26.7,4.6C486.8,521.4,486.8,521.4,486.9,521.4C486.8,521.4,486.9,521.4,486.9,521.4z"/>
	<path class="st122" d="M350.4,609.1c-1,0.4-2,0.9-3.1,1.3C348.5,610.1,349.6,609.8,350.4,609.1z"/>
	<path class="st122" d="M352,606.3c-21,9.2-70.5,8.6-89-5.1c-19.6-17.7-3.3-25.6,13.9-32c0.2-0.1,0.4-0.2,0.6-0.2
		c-14.5,3-29.3,1.6-32.4,19.4c10.3,17.5,31.4,25.1,50.6,25.7c15.6,0.2,31.6,5,47-1.9C345.1,609,350.1,610.1,352,606.3z"/>
	<path class="st123" d="M352,606.3c-1.9,3.8-6.9,2.7-9.3,5.8c1.6-0.5,3.1-1.1,4.6-1.7c1-0.4,2.1-0.8,3.1-1.3
		c23.4-10,41.6-27.3,59.7-44.7c0,0,0,0-0.1,0C391.3,579.1,372.8,594.3,352,606.3C352,606.3,352,606.3,352,606.3z"/>
	<path class="st124" d="M391.4,511.9c-2.5-1.3-10.2,3.6-13.4,6.5c-0.1,0.1-0.1,0.1-0.2,0.2c-7.3,7.3-30,38.6-20,46.4
		c0-0.2,0-0.3,0.1-0.5c13.4,3.3,23.5-5.7,34.9-10.5c0.2,0.4,0.4,0.7,0.5,1.1c5.2-3.4,10.1-7.2,14.5-11.5c0,0,0,0,0,0
		c1.8-11.1-25-3.3-17.4-24.4C392.6,514.6,392.6,512.5,391.4,511.9z"/>
	<path class="st125" d="M267.4,594.4c11.8,14.7,34.1,13.1,51.2,14.4c11.3,0.2,21.3-4.9,31.6-8.7c19.6-5.8,30.5-23.9,41.1-39.9
		c1-1.6,2.5-3.2,1.9-5.2c-0.1-0.3-0.3-0.7-0.5-1.1c-11.4,4.8-21.4,13.8-34.9,10.5c0,0.2,0,0.3-0.1,0.5c-0.2,2.9,2.3,3.7,4.4,4.7
		c9.8,2.2,5.3,9.3,0.6,14.7c-6,7.4-14.6,10.6-22.8,14.5c-20.5,9.6-40.7,6.5-60.7-1.3c-10.7-3.7-11.5-15.2-0.5-19.1
		c21.1-9.9,39.4-23.6,56.8-38.8c0.1-0.1,0.3-0.3,0.4-0.4c0.2-0.2,0.3-0.3,0.5-0.5c16.2-14.8,26.4-36.2,47.3-45.3
		c12.4-5,24.6-10.6,38.4-10.2c1.3,0,3.7,0.5,4-1.5c0,0,0-0.1,0-0.1c0-0.4,0-0.8-0.1-1.3c-4.5-0.2-8.9-0.1-13.3,0.4
		c-22.7,2.4-44.2,13.7-59,31.4c-16.4,20.5-35.6,37.8-57.5,52.2C286,572.4,256.6,576.4,267.4,594.4z"/>
	<path class="st126" d="M442.7,498.2L442.7,498.2c-10.6,2.6-37.4,8.6-36.9,22.3c0.8,7.9,47.4-1.7,54.3-3.6c0,0,0,0,0,0
		C470.5,505.8,454.1,491.9,442.7,498.2z"/>
</g>
<path class="st127" d="M1141.2,375c0.6-2.3,1.5-2.9,3.5-1.1c8.7,7.7,10.4,41,1.6,50c-0.1-9.6,4.8-18.5-0.4-26.9
	c-1.1-2.6,1.7-3.9,1.4-6.8c0-3-3.9-4.1-4.6-7.1c-0.2-1.5,1.1-3.2-0.4-4.6C1142,377.4,1141.6,376.2,1141.2,375z"/>
<path class="st61" d="M1091.2,499.4c7.8,5.5,15.4,11.3,23.1,16.9c-10.3-1.7-18.2-7-24.6-14.8C1088.6,500.1,1090,499.6,1091.2,499.4z
	"/>
<path class="st128" d="M1143.6,383.2c13.7,5.7-1.5,24.3-9.9,11.9c6.6,0.9,13.4,2.5,9.8-7.3c-1-1-3-0.7-3.6-2.9
	C1140.5,383.4,1141.1,381.6,1143.6,383.2z"/>
<path class="st129" d="M1109.8,393.7c1.6-1.5-3.7-3.2,0.1-4.7c6.5,5.4,7.9,8.2,5.9,16.2l0,0c-0.9,3.7-5.7,7.5-6.1,1.3
	C1110.9,402.2,1109.5,397.9,1109.8,393.7z"/>
<path class="st68" d="M1115.7,405.2c-0.4-3.9-0.8-7.8-1.2-11.7c4.7-1.1,9.3-2,16.3-0.5C1123.5,396,1115.4,396.2,1115.7,405.2z"/>
<path class="st68" d="M1111.1,406.4c0.2,0.9,0.3,1.8,0.6,3.3c1.6-1.8,2.8-3.1,4.1-4.5c0.1,4.2-3,6.1-5.9,8.1c-2.6-0.9-6.3,2.1-8-2.2
	C1104.8,409.3,1107.5,407,1111.1,406.4z"/>
<path class="st11" d="M1143.6,383.2c-1,0.3-1.9,0.7-5.1,1.7c2.5,1.4,3.7,2.1,5,2.8c-2.8,0.1-5.6,0.3-8.5,0.4
	c-0.3-5.3,7.9-4.2,7.4-9.6C1144.1,379.7,1143.5,381.6,1143.6,383.2z"/>
<path class="st9" d="M677.5,578.4c7.2-5.6,5-14.7,7.9-21.9c5.6-14.2,10.1-28.8,12.9-44c9.9,2.1,16.8,8.4,25.7,9
	c1.8,1.9-3.9,1.3-5.6,1.8c-0.6,17.7-5.9,34.8-1.6,53.6c-11.3,8.3-2.5,20.6-4,31.6c-2,15,0.6,30.9-10.3,43.9
	c4.7,4.6,10.4,5.5,15.2,8.2c-2,4.3-9.5-0.3-9.9,6.4c-6,3.2-43.3-10.9-47.2-16.7c-0.9-2.8,0.4-5.3,1.3-7.8
	c6.9-19.2,12.8-38.7,14-59.3C675.8,581.4,676,579.6,677.5,578.4z"/>
<path class="st130" d="M724,522.6c0-0.4,0-0.8,0-1.1c0.4-0.4,0.8-0.8,1.2-1.2c3.6,1.8,5.6,3.3,8.1,0c0,11.9,0,23.8,0,36.4
	c5.9-2,4.4-7.1,8.7-8.4c1.6,0.6,3.7,1.3,5.8,2c6.9-1.3,3.3-10.5,10.1-11.9c-1.3-2.1-2.3-3.7-3.2-5.2c0.1-3.7,5-5,7.3-3
	c-1.1-2.3-4.5-2.6-5.3-5.4c-4.2-11,4.8-9,12.7-11.6c-2.6,4.3-2.5,9.2-2.3,14c1,17.7-11.8,30.4-15.5,45.8c-9.7,1.3-20-3.9-20.6-9.7
	c0.4-10,0.5-20,1.3-30C732.7,526.8,730.5,523.2,724,522.6z"/>
<path class="st131" d="M661.3,650.3c46.1,22.5,98.2,30.3,148.7,21c-2.3,0.8-4.6,1.6-6.8,2.4c0.1,0.3,0.1,0.6,0.1,0.9
	c6.9-1,13.8-2.1,20.8-3.1c-54.5,16.3-112,2.2-164-16.4C659.1,653.1,659.7,651.6,661.3,650.3z"/>
<path class="st132" d="M470.4,874.8c-0.7-0.5-1.4-1.1-2.2-1.6c9.5-4.2,13.8-13,18.3-20.6c10.2,0,19.8,0,29.4,0
	c-20.7,15.5-29.3,39.8-14.2,63.1c2.7,4.5,3.9,9.5,3.5,15.4c-5,0.5-9.9,0.7-14.8,0.2C483.6,912.3,477,893.5,470.4,874.8z"/>
<path class="st1" d="M502.6,790.9c-0.7,8.2-1.7,13.2,3.2,16.9c-5.3,12.4-12.9,22.7-24.6,32.3c-0.1-9,10.1-14.3,2.6-22.9
	C492.9,811.7,492.4,799.5,502.6,790.9z"/>
<path class="st133" d="M1016.9,608.6c5.5,4,1.3,9,0.8,13.1c-2.1,16.9-14.7,53.9-26.9,64.7c-1.3,12.8-10,22.3-11.7,34.3
	c-1.9,13.3-5.1,26.2-14.6,36.9c-7.4,8.3-0.5,18.1-0.9,27.3c-0.3,8.6-1.9,14.8-11.1,16.9c-1,0.2-1.7,1.4-2.6,2.2
	c2.5,7.3,2.8,14.5-0.7,21.5c-2.7,7.9,3.7,16.8-3.4,23.8c-0.2,5.3-17.2,7.3-21.9,9.6c-2.8,0.8-5.5,1.1-6.1-2.9
	c3.8-15.9,5.9-32.1,9.4-48c-0.5-7.1,22-16,28-15.8c0.6-1.9,1.1-2.5,0.9-2.9c-9.7-19.5,4.7-33.1,12.2-49.1
	c1.8-21.5,52-105.7,39-110.7C1011.6,622.9,1015.3,616.2,1016.9,608.6z"/>
<path class="st134" d="M898.4,876.1c-9.3,5.2-20,7-27.7,14.8c-11.9,11.6-27.6,13.1-42.9,15.2c-2.4-0.7-2.8-2.4-2.5-4.5
	c13.3,2.9,24.1-2.7,35.7-9.8c-2.4-1.3-3.8-2-5.5-2.9c2.9-4.2,7.4-4.5,11.2-6.2c16.2-7.4,26.7-20.6,32.9-36.3
	c12.1-30.4,18.3-63,32.4-92.8c1.6-3.4,2.8-6.8,7.1-7.7c0.1,8-1.2,15.7-3.4,23.3c-3.6,3.7-5,8.6-6.1,13.3
	c-5.5,22.7-11.6,45.2-15.7,68.2c-1.8,10.4-8.7,17.8-15.4,25.3L898.4,876.1z"/>
<path class="st135" d="M898.3,875.9c15.3-19.7,15.4-36.4,20.8-58.9c5-15.3,6.1-31.8,13-46.6c1.3-2.7,1.2-2.8,3.5-1.3
	c-3.3,26.5-8.4,52.7-13.9,78.8c-1.8,10.3-6.7,18.9-14.2,25.9C903.8,871.7,901.5,875.9,898.3,875.9z"/>
<path class="st136" d="M985.5,683c-3.1,2.2-4.9,0.1-6.4-2.3c-2,0.4-3.7,0.7-6.4,1.1c-3-12,5.7-21.6,5.7-32.6c0.4-0.6,0.8-0.6,1.2,0
	c0.1,7.3-3.1,14-5.1,23.9c10-11,10.3-23.5,15.3-33.6c3.2,0.4,2.7,3.5,5.1,4.8c1.1-0.3,2.8-0.6,4.4-1
	C998.2,657.8,992.9,670.8,985.5,683z"/>
<path class="st85" d="M661.3,650.3c-0.6,3-1.6,5.8-3.6,8.2c-4,0.2-3.5-2.7-3.5-5.2c0-11.1,0-22.3,0-34.9
	c-6.2,13.9-7.2,29.1-19.1,39.2c11.9-35.5,20.6-73.9,13.1-111.1c14.4-27.1-28.5-43.1-23.1-50.8c13.5,5.2,25.5,12.9,36.3,23.9
	c1.6-7.2,3-13.3,4.3-19.3c-0.7,5.7-1.4,11.3-1.9,17c-0.3,2.9-1.2,6.8,4.3,5.2C683.6,569,677.9,605.7,661.3,650.3z"/>
<path class="st75" d="M944.8,681.9c-6.2,0-8.5,4.2-9.7,9.5c-2.6-1-1.4-3.3-1.9-4.9c2.4-2.8,4.2-6.3,8-7.1
	C942.6,679.8,945.1,678.9,944.8,681.9z"/>
<path class="st15" d="M850.6,575.3c0.8-6.1,2.5-11.7,7.6-15.8C855.7,564.7,853.2,570,850.6,575.3z"/>
<path class="st78" d="M892.5,672.5c-1.2-1-2.3-1.9-3.6-3c-1.8,0.3-3.7,0.5-5.6,0.8C887.5,666.6,890.7,666.7,892.5,672.5z"/>
<path class="st73" d="M930.8,612.5c-4.2-0.2-8.4-0.5-12.7-0.5C922.4,610.4,926.6,609.6,930.8,612.5z"/>
<path class="st78" d="M894.9,663.3c0.1,1.3,0.7,2.1,2.1,2.1c-0.7,1.6-1.6,2.9-3.7,3.2C892.6,666.4,893.5,664.8,894.9,663.3z"/>
<path class="st137" d="M635.6,526.1c5.4,9.8,12.4,18.9,13.2,30.7c0.2,3,1.3,5.9,1.9,8.8c2.3,2.1,1.8,5,1.8,7.6
	c0.9,27.7-6.5,54.4-14.9,80.1c9.3-9.8,8-24.7,16-35.3c9.2,6.8-2.1,30.1,4,40.5c-11.8,34.5-34.3,66.4-67.4,83.6
	c6.1-14.4,16.1-27,19.1-42.5c3.1-15.1,13.2-27,19.2-40.8c21.1-45,33.5-101.1-2.3-142.1C629.1,520.2,635.6,521.1,635.6,526.1z"/>
<path class="st138" d="M594,657.2c-4.2,0.1-7.3-1.2-8.2-6.1c3.7-0.5,6.4,3.4,10.6,0.4c1.3-1.4,2.9-3.7,0.9-7.6
	c-0.2-2.2-5.8,2-4.8-2.9c6.1-0.7,11,1.8,10.8,7.9C604.2,654.7,599,655.2,594,657.2z"/>
<path class="st139" d="M562.4,612.3c-0.8-0.8-1.5-1.7-2.3-2.5c1.9-2.4,5.3-1,7.7-3.5c2-2.9,0.9-5.7-1.8-8.2c-4.6-4.4,0.1-4.8,2.1-8
	c0-1.9,2-1.8,2.2,0c-0.7,1.7-1.6,3.2,0.4,5.1C578,601.3,572,614.8,562.4,612.3z"/>
<path class="st140" d="M574,620.6c-1.2-1.7-2.5-3.3-3.7-5c2.1-8.9,16,16.1,16.3,19.7C582.4,630.4,578.2,625.5,574,620.6z"/>
<path class="st141" d="M594,657.2c-2-5.3,13.3,2.4,5.8-14.4c-2.1-0.2-4-0.4-5.9-0.6c1.3-5.7,4.6-3.8,7.9-2.2
	C607.6,647.8,605.9,660.6,594,657.2z"/>
<path class="st142" d="M570.3,589.9c-0.3-0.4-0.7-0.8-1-1.2c-1-3.3,3.1-24.7,8.1-20.7C576.9,575.9,573.3,582.8,570.3,589.9z"/>
<path class="st143" d="M601.9,640c-2.8,0-6.1-1.3-7.9,2.2c-0.5-0.4-1-0.8-1.5-1.3c0.9-1.4,1.8-2.8,2.6-4
	C598.6,635.9,600.7,637.1,601.9,640z"/>
</svg>
