<?xml version="1.0" encoding="UTF-8" standalone="no"?>
<!-- Created with Inkscape (http://www.inkscape.org/) -->

<svg
   xmlns:dc="http://purl.org/dc/elements/1.1/"
   xmlns:cc="http://creativecommons.org/ns#"
   xmlns:rdf="http://www.w3.org/1999/02/22-rdf-syntax-ns#"
   xmlns:svg="http://www.w3.org/2000/svg"
   xmlns="http://www.w3.org/2000/svg"
   xmlns:xlink="http://www.w3.org/1999/xlink"
   xmlns:sodipodi="http://sodipodi.sourceforge.net/DTD/sodipodi-0.dtd"
   xmlns:inkscape="http://www.inkscape.org/namespaces/inkscape"
   width="600"
   height="600"
   id="svg6952"
   version="1.1"
   inkscape:version="0.48.5 r10040"
   sodipodi:docname="Joint Cannabis v2.svg">
  <title
     id="title3857">Animation of a Joint Cannabis</title>
  <defs
     id="defs6954">
    <linearGradient
       id="linearGradient7520">
      <stop
         style="stop-color:#4a2707;stop-opacity:1;"
         offset="0"
         id="stop7522" />
      <stop
         id="stop7538"
         offset="0.19169946"
         style="stop-color:#7b510a;stop-opacity:1;" />
      <stop
         id="stop7530"
         offset="0.25508675"
         style="stop-color:#ad7b0d;stop-opacity:1;" />
      <stop
         style="stop-color:#ad7b0d;stop-opacity:1;"
         offset="0.31833297"
         id="stop7540" />
      <stop
         style="stop-color:#f9f9f9;stop-opacity:1;"
         offset="0.35276344"
         id="stop7534" />
      <stop
         style="stop-color:#f9f9f9;stop-opacity:1;"
         offset="1"
         id="stop7524" />
    </linearGradient>
    <linearGradient
       id="linearGradient3879">
      <stop
         style="stop-color:#453a3a;stop-opacity:1;"
         offset="0"
         id="stop3881" />
      <stop
         style="stop-color:#999999;stop-opacity:0;"
         offset="1"
         id="stop3883" />
    </linearGradient>
    <radialGradient
       inkscape:collect="always"
       xlink:href="#linearGradient7520"
       id="radialGradient3929"
       gradientUnits="userSpaceOnUse"
       gradientTransform="matrix(0.72598,0.79198,-1.1143,1.0214,658.08,-309.25)"
       cx="400.96"
       cy="478.31"
       fx="400.96"
       fy="478.31"
       r="62.456" />
    <linearGradient
       inkscape:collect="always"
       xlink:href="#linearGradient3879"
       id="linearGradient3186"
       gradientUnits="userSpaceOnUse"
       gradientTransform="translate(12.318,-1.6798)"
       x1="210"
       y1="350"
       x2="194.44"
       y2="260.29" />
  </defs>

  
    <g
       id="TheLitJoint"
       transform="matrix(1.5,0,0,1.5,-135.64,-353.78)">
      <g
         id="RolledJoint">
        <path
           style="color:#000000;fill:#d40000;fill-opacity:1;fill-rule:nonzero;stroke:#000000;stroke-width:0.5;stroke-linecap:butt;stroke-linejoin:round;stroke-miterlimit:4;stroke-opacity:1;stroke-dasharray:none;stroke-dashoffset:0;marker:none;visibility:visible;display:inline;overflow:visible;enable-background:accumulate"
           d="m 407.65,480.98 18.47,-0.79 c 2.04,0.19 3.91,-0.69 5.42,1.69 l 1.65,2.59 0.6,2.44 -0.73,2.3 1.06,1.7 -1.31,2.62 1.66,1.28 -0.71,2.77 0.48,2.02 -1.37,2.34 0.12,2.64 -1.66,1.89 -0.18,2.19 -2.15,1.47 -0.95,1.76 -2.89,0.72 -2.89,0.72 c -3.38,0.85 -6.84,2.56 -11.22,2.8 -7.34,0 -27.44,-1.95 -29.7,-2.74 -5.33,-1.85 -8.62,-3.25 -10.77,-3.46"
           id="path7506"
           inkscape:connector-curvature="0"
           sodipodi:nodetypes="ccscccccccccccccccscsc">
         
        </path>
        <path
           style="color:#000000;fill:url(#radialGradient3929);fill-opacity:1;fill-rule:nonzero;stroke:#000000;stroke-width:0.5;stroke-linecap:butt;stroke-linejoin:round;stroke-miterlimit:4;stroke-opacity:1;stroke-dasharray:none;stroke-dashoffset:0"
           d="m 306.78,517.45 c 4.67,0 11.05,-0.36 18.32,0.61 17.48,2.34 46.6,2.53 57.37,1.7 19.21,-1.48 36.92,-4.53 39.46,-6.5 l -2.58,-0.36 -1.68,-1.4 -3.24,0.16 -2.35,-0.89 c 0,-1.47 0.28,-3.07 -0.36,-4.16 -0.64,-1.08 -2.19,-1.65 -2.26,-2.81 l -1.39,-2.82 1.13,-2.96 -0.15,-3.48 3.26,-3.19 0.27,-4.07 3.26,-2.55 1.46,-2.41 2.53,0.69 3.72,-2.14 4.11,-1.08 3.53,1 c -7.35,-3.87 -15.54,-4.54 -33.41,-2.91 l -28.88,-0.79"
           id="path7496"
           inkscape:connector-curvature="0"
           sodipodi:nodetypes="csscccccscccccccccccccc" />
        <path
           style="color:#000000;fill:#f9f9f9;fill-opacity:1;fill-rule:nonzero;stroke:#000000;stroke-width:0.5;stroke-linecap:butt;stroke-linejoin:round;stroke-miterlimit:4;stroke-opacity:1;stroke-dasharray:none;stroke-dashoffset:0"
           d="m 251.37,508.32 c 6.29,0.1 14,1.04 18.79,3.18 10.09,4.52 36.31,6.11 53.74,6.27 11.2,-11.75 47.91,-40.1 75.23,-39.89 -21.72,-0.49 -36.56,-8.74 -67.84,-4 l -32.24,0.94"
           id="path7498"
           inkscape:connector-curvature="0"
           sodipodi:nodetypes="cscccc" />
        <path
           style="color:#000000;fill:#f9f9f9;fill-opacity:1;fill-rule:nonzero;stroke:#000000;stroke-width:0.5;stroke-linecap:butt;stroke-linejoin:round;stroke-miterlimit:4;stroke-opacity:1;stroke-dasharray:none;stroke-dashoffset:0"
           d="m 190.25,497.87 c 9.43,0.15 24.83,6.85 29.68,8.62 9.68,3.52 30.63,6.12 50.24,4.98 6.72,-9.65 34.86,-34.75 61.79,-37.59 -15.92,-2.4 -37.3,-1.62 -52.74,0.1 l -19.79,0.56"
           id="path7500"
           inkscape:connector-curvature="0"
           sodipodi:nodetypes="cscccc" />
        <path
           style="color:#000000;fill:#f9f9f9;fill-opacity:1;fill-rule:nonzero;stroke:#000000;stroke-width:0.5;stroke-linecap:butt;stroke-linejoin:round;stroke-miterlimit:4;stroke-opacity:1;stroke-dasharray:none;stroke-dashoffset:0"
           d="m 155.32,495.71 c 7.19,0.81 14.3,1.67 20.72,3.25 13.21,3.25 28.38,8.22 44.43,7.47 2.24,-6.08 37.91,-33.32 58.96,-32.48 -15.63,-0.88 -32.93,0.68 -52.89,4.24 -4.13,0.73 -9.4,0.56 -14.61,1.28 l -15.47,0.87"
           id="path7502"
           inkscape:connector-curvature="0"
           sodipodi:nodetypes="csccscc" />
        <path
           style="color:#000000;fill:#f9f9f9;fill-opacity:1;fill-rule:nonzero;stroke:#000000;stroke-width:0.5;stroke-linecap:butt;stroke-linejoin:round;stroke-miterlimit:4;stroke-opacity:1;stroke-dasharray:none;stroke-dashoffset:0"
           d="m 226.5,478.17 c -32.39,3.08 -50.36,17.05 -50.36,20.82 -18.98,0.23 -35.19,-2.99 -51.64,-5.91 -4.52,-0.72 -6.57,-11.85 4.64,-11.41 6.92,-0.1 14.7,-0.34 24.64,-1.12 0,0 16.92,-2.21 25.62,-2.54 15.55,-0.59 47.1,0.16 47.1,0.16 z"
           id="path7504"
           inkscape:connector-curvature="0"
           sodipodi:nodetypes="cccccsc" />
        <path
           style="color:#000000;fill:none;stroke:#000000;stroke-width:0.5;stroke-linecap:butt;stroke-linejoin:round;stroke-miterlimit:4;stroke-opacity:1;stroke-dasharray:none;stroke-dashoffset:0"
           d="m 428.2,479.44 c -17.11,-1.11 -45.07,17.33 -48.11,40.68"
           id="path7508"
           inkscape:connector-curvature="0"
           sodipodi:nodetypes="cc" />
      </g>
      
    </g>
 
  
</svg>
