<svg id="Ebene_1" data-name="Ebene 1"
    xmlns="http://www.w3.org/2000/svg"
    xmlns:xlink="http://www.w3.org/1999/xlink" viewBox="0 0 605.51 584.82" style="fill:blue">
    <!-- <defs>
        <clipPath id="clip-path" transform="translate(5.51 -2.38)">
            <rect x="-14.32" y="149.21" width="430.82" height="178.71" transform="matrix(0.6, -0.8, 0.8, 0.6, -110.47, 255.34)" style="fill:#bfbebe"/>
        </clipPath>
    </defs> -->
    <rect x="0" y="0" width="800" height="800" style="fill:pink"/>
    <rect x="-14.32" y="149.21" width="430.82" height="178.71" style="fill:#7787778"/>
    <rect x="-14.32" y="149.21" width="430.82" height="178.71" transform="matrix(0.6, -0.8, 0.8, 0.6, 0, 0)" style="fill:#red"/>
    <rect x="-14.32" y="149.21" width="430.82" height="178.71" transform="matrix(0.6, -0.8, 0.8, 0.6, -110.47, 255.34)" style="fill:#bfbebe"/>
    <!-- <rect x="-14.32" y="149.21" width="430.82" height="178.71" transform="matrix(0.6, -0.8, 0.8, 0.6, -104.96, 252.96)" style="fill:#bfbebe"/> -->
    <!-- <g style="clip-path:url(#clip-path)">
        <rect x="212.58" y="9.24" width="100.97" height="26.57" transform="translate(4.92 34.24) rotate(-7.95)" style="fill:#afafaf"/>
        <rect x="118.63" y="150.56" width="281.65" height="18.6" transform="translate(-14.12 35.06) rotate(-7.95)" style="fill:#afafaf"/>
        <rect x="94.28" y="177.64" width="288.29" height="18.6" transform="translate(-18.07 32.41) rotate(-7.95)" style="fill:#afafaf"/>
        <rect x="67.17" y="209.18" width="294.93" height="27.9" transform="translate(-23.3 29.47) rotate(-7.95)" style="fill:#afafaf"/>
        <rect x="-3.52" y="276.89" width="313.53" height="50.48" transform="translate(-34.83 21.73) rotate(-7.95)" style="fill:#afafaf"/>
    </g> -->
</svg>