<svg height="280" viewBox="0 0 264 280" width="264" xmlns="http://www.w3.org/2000/svg" xmlns:xlink="http://www.w3.org/1999/xlink">
    
    <path id="path-5" d="m124 144.610951v18.389049h4c39.764502 0 72 32.235498 72 72v9h-200v-9c0-39.764502 32.235498-72 72-72h4v-18.389049c-17.2373655-8.188579-29.6277754-24.92394-31.6948612-44.7297125-5.8248283-.8234519-10.3051388-5.8291289-10.3051388-11.8812385v-14c0-5.9459926 4.3245733-10.8819269 10-11.8340831v-6.1659169c0-30.927946 25.072054-56 56-56 30.927946 0 56 25.072054 56 56v6.1659169c5.675427.9521562 10 5.8880905 10 11.8340831v14c0 6.0521096-4.48031 11.0577866-10.305139 11.8812385-2.067086 19.8057725-14.457496 36.5411335-31.694861 44.7297125z"/>
    <mask id="mask-6" fill="#fff">
        <use fill="#fff" fill-rule="evenodd" xlink:href="#path-5"/>
    </mask>
    <mask id="react-mask-2" fill="#fff">
        <use fill="#fff" fill-rule="evenodd" xlink:href="#react-path-1"/>
    </mask>
    <mask id="react-mask-3" fill="#fff">
        <path id="react-path-5" d="m0 0h264v280h-264z" fill="#fff" fill-rule="evenodd"/>
    </mask>
    <mask id="react-mask-4" fill="#fff">
        <use fill="#fff" fill-rule="evenodd" xlink:href="#react-path-6"/>
    </mask>
    <path id="react-path-1" d="m133.960472.29491611c36.976001 3.03008205 66.039528 33.99936949 66.039528 71.75680739v8.9482765h-200v-8.9482765c0-38.0991604 29.591985-69.28674228 67.0454063-71.83219709-.0301465.37358814-.0454063.74970078-.0454063 1.1280987 0 11.86309259 14.9984609 21.48002929 33.5 21.48002929 18.501539 0 33.5-9.6169367 33.5-21.48002929 0-.35295602-.013277-.70392373-.039528-1.052709z"/>
    <path id="react-path-6" d="m133.506381 81.3351151c3.857268 1.9955851 6.493619 6.0223586 6.493619 10.6648849v13c0 6.018625-4.430871 11.002364-10.208581 11.867187-1.743226 20.247605-14.260637 37.415797-31.791419 45.743764v18.389049h4c17.490913 0 33.525121 6.236892 46 16.608051v-123.608051c0-20.4345357-8.282732-38.9345357-21.674098-52.3259018-13.391366-13.39136607-31.8913663-21.6740982-52.325902-21.6740982-40.8690715 0-74 33.1309285-74 74v183.716445c13.5691766-1.940919 24-13.610557 24-27.716445v-45.576899c6.9346808-2.222902 14.3271796-3.423101 22-3.423101h4v-18.389049c-11.2273748-5.333544-20.3984628-14.293-26-25.365104v-61.9798883c9.1467898-2.9749531 18.777598-7.2488936 28.3415164-12.7706244 15.403031-8.8929442 28.0898783-19.5544191 36.7246262-30.0982987 1.7649261 5.1981085 4.109113 10.4039386 7.0442885 15.4878117 8.7674499 15.1856679 21.1137549 26.3488574 33.8895689 32.0322018v.2488678c.400422.0671781.794121.1541869 1.18005.2599818.774459.3234068 1.550135.6265866 2.326331.9092164z"/>
    
    <g id="Avataaar" fill="none" fill-rule="evenodd">
        <g id="Avataaar/Circle" transform="translate(-825 -1100)">
            <g transform="translate(825 1100)">
                <g id="Mask"/>
                <g id="Avataaar" fill-rule="evenodd">
                    <g id="Body" transform="translate(32 36)">
                        <use fill="#d0c6ac" xlink:href="#path-5"/>
                        <g id="Skin/ðŸ‘¶ðŸ½-03-Brown" fill="#edb98a" mask="url(#mask-6)">
                            <g id="Color" transform="translate(-32)">
                                <path d="m0 0h264v244h-264z"/>
                            </g>
                        </g>
                        <path id="Neck-Shadow" d="m156 79v23c0 30.927946-25.072054 56-56 56s-56-25.072054-56-56v-23 15c0 30.927946 25.072054 56 56 56s56-25.072054 56-56z" fill="#000" fill-opacity=".1" mask="url(#mask-6)"/>
                    </g>
                    <g id="Clothing/Blazer-+-Shirt" transform="translate(0 170)">
                        <g id="Shirt" transform="translate(32 29)">
                            <use id="Clothes" fill="#e6e6e6" xlink:href="#react-path-1"/>
                            <g id="Color/Palette/Black" fill="#262e33" mask="url(#react-mask-2)">
                                <g id="ðŸ–Color" transform="translate(-32 -29)">
                                    <path d="m0 0h264v110h-264z"/>
                                </g>
                            </g>
                            <g id="Shadowy" fill="#000" fill-opacity=".16" mask="url(#react-mask-2)" opacity=".6">
                                <g id="Hola-ðŸ‘‹ðŸ¼" transform="translate(60 -25)">
                                    <ellipse cx="40.5" cy="27.847625" rx="39.635105" ry="26.913827"/>
                                </g>
                            </g>
                        </g>
                        <g id="Blazer" transform="translate(32 28)">
                            <path id="Saco" d="m68.784807 1.12222847c-38.27249 1.68186892-68.784807 33.24241523-68.784807 71.92949503v8.9482765h69.3616767c-3.4009355-12.0800059-5.3616767-26.2912704-5.3616767-41.5 0-14.3270264 1.7399891-27.7688885 4.784807-39.37777153zm62.853516 80.87777153h68.361677v-8.9482765c0-38.3449594-29.975046-69.68887184-67.771281-71.87788125 3.036444 11.59710415 4.771281 25.02035935 4.771281 39.32615775 0 15.2087296-1.960741 29.4199941-5.361677 41.5z" fill="#3a4c5a"/>
                            <path id="Pocket-hanky" d="m149 58 9.555853-7.16689c1.443044-1.0822825 3.431926-1.0648375 4.855763.0425911l6.588384 5.1242989z" fill="#e6e6e6"/>
                            <path id="Wing" d="m69 0c-4 19.3333333-2.3333333 46.6666667 5 82h-16l-14-36 6-9-6-6 19-30c2.027659-.63076136 4.027659-.9640947 6-1z" fill="#2f4351"/>
                            <path id="Wing" d="m151 0c-4 19.3333333-2.333333 46.6666667 5 82h-16l-14-36 6-9-6-6 19-30c2.027659-.63076136 4.027659-.9640947 6-1z" fill="#2f4351" transform="matrix(-1 0 0 1 282 0)"/>
                        </g>
                    </g>
                    <g id="Face" fill="#000" transform="translate(76 82)">
                        <g id="Mouth/Default" fill-opacity=".7" transform="translate(2 52)">
                            <path id="Mouth" d="m40 15c0 7.7319865 6.2680135 14 14 14 7.7319865 0 14-6.2680135 14-14"/>
                        </g>
                        <g id="Nose/Default" fill-opacity=".16" transform="translate(28 40)">
                            <path id="Nose" d="m16 8c0 4.418278 5.372583 8 12 8 6.627417 0 12-3.581722 12-8"/>
                        </g>
                        <g id="Eyes/Default-ðŸ˜€" fill-opacity=".6" transform="translate(0 8)">
                            <circle id="Eye" cx="30" cy="22" r="6"/>
                            <circle id="Eye" cx="82" cy="22" r="6"/>
                        </g>
                        <g id="Eyebrow/Outline/Default" fill-opacity=".6">
                            <g id="I-Browse" transform="translate(12 6)">
                                <path id="Eyebrow" d="m3.63024536 11.1585767c3.91490965-5.50870997 14.64767434-8.59773949 23.89278144-6.32739624 1.072698.26342504 2.1558397-.39262033 2.4192648-1.46531834.263425-1.07269802-.3926204-2.15583976-1.4653184-2.4192648-10.7366099-2.63661521-23.16487358.940401-28.10721856 7.89482594-.63986427.90035965-.42869103 2.14895784.47166862 2.78882214.90035965.6398642 2.14895784.428691 2.7888221-.4716687z" fill-rule="nonzero"/>
                                <path id="Eyebrow" d="m61.6302454 11.1585767c3.9149096-5.50870997 14.6476743-8.59773949 23.8927814-6.32739624 1.072698.26342504 2.1558397-.39262033 2.4192648-1.46531834.263425-1.07269802-.3926204-2.15583976-1.4653184-2.4192648-10.7366099-2.63661521-23.1648736.940401-28.1072186 7.89482594-.6398642.90035965-.428691 2.14895784.4716687 2.78882214.9003596.6398642 2.1489578.428691 2.7888221-.4716687z" fill-rule="nonzero" transform="matrix(-1 0 0 1 146.000308 0)"/>
                            </g>
                        </g>
                    </g>
                    <g id="Top" fill-rule="evenodd">
                        <g id="Mask"/>
                        <g id="Top/Long-Hair/Straight" mask="url(#react-mask-3)">
                            <g transform="translate(-1)">
                                <g id="Hair" fill="none" fill-rule="evenodd" transform="translate(59 18)">
                                    <use id="Mask-Hair" fill="#944f23" xlink:href="#react-path-6"/>
                                    <g id="Skin/ðŸ‘¶ðŸ½-03-Brown" fill="#4a312c" mask="url(#react-mask-4)">
                                        <g id="Color">
                                            <path d="m0 0h264v280h-264z"/>
                                        </g>
                                    </g>
                                </g>
                                <path id="Shadow" d="m192.506381 99.3351151c4.868119 1.7725869 9.756698 2.7368419 14.493619 2.8131169v-10.148232c0-20.4345357-8.282732-38.9345357-21.674098-52.3259018 13.391366 13.3913661 21.674098 31.8913661 21.674098 52.3259018v123.608051c-12.474879-10.371159-28.509087-16.608051-46-16.608051h-4v-18.389049c17.530782-8.327967 30.048193-25.496159 31.791419-45.743764 5.77771-.864823 10.208581-5.848562 10.208581-11.867187v-13c0-4.642526-2.636351-8.6693-6.493619-10.6648849zm-2.326331-.9092164c-.385929-.1057949-.779628-.1928037-1.18005-.2599818v-.2488678c.392974.1748153.786355.344446 1.18005.5088496zm-107.18005 56.8199483c5.6015372 11.072104 14.7726252 20.03156 26 25.365104v18.389049h-4c-7.6728204 0-15.0653192 1.200199-22 3.423101z" fill="#000" fill-opacity=".24" fill-rule="evenodd"/>
                            </g>
                        </g>
                    </g>
                </g>
            </g>
        </g>
    </g>
</svg>
