<svg clip-rule="evenodd" fill-rule="evenodd" stroke-linejoin="round" stroke-miterlimit="2" viewBox="0 0 718 856" xmlns="http://www.w3.org/2000/svg" xmlns:xlink="http://www.w3.org/1999/xlink" xmlns:serif="http://www.serif.com/">
    <clipPath id="_clip1">
        <path clip-rule="evenodd" d="m775.896 1360.63c1.328-5.6 1.458-11.12-.734-16.32-11.319-26.86-72.25-92.83-78.64-117.15-5.222-19.87 40.997-136.52 55.642-170.76 6.206-14.51 26.778-41.9 67.67-29.16 29.41 9.17 39.237 38.83 35.233 55.68-7.304 30.75-59.625 134.97-59.625 134.97s43.381 75.08 56.929 101.11c9.266 17.81 20.998 42.61 24.356 55.07 1.747 6.49-2.423 17.24-6.007 24.66-6.079 12.59-25.266 47.14-25.266 47.14-9.735 14.09-24.262 17.46-33.221 3.93-21.39 19.87-33.438 17-41.646 4.17-14.882 15.84-35.792 18.46-42.32 2.23 7.786-23.75 20.202-39.92 29.121-54.54-5.522 2.1-9.618 3.66-9.618 3.66-16.139 9.3-27.708 5.21-34.485-12.92l25.544-17.14z"/>
    </clipPath>
    <clipPath id="_clip2">
        <path clip-rule="evenodd" d="m812.177 1015.37c13.7 55.44 18.082 100.46 10.101 131.65l-14.351 18.46-1.499 17.12 16.302 50.89c-30.405 110.43-261.308 135.09-302.465 97.2-16.856-15.52-33.199-95.01-33.199-95.01l-7.227-44.71 4.127-41.86c15.399-70.58 40.507-130.36 78.08-179.235 80.34-20.266 161.883-26.498 250.131 45.495z"/>
    </clipPath>
    <clipPath id="_clip3">
        <path clip-rule="evenodd" d="m675.213 1270.57c24.834-28.62 58.638-60.13 119.819-82.93 112.95-42.09 219.828-50.12 282.138 86.4 8.3 18.19 20.27 92.14 12.36 130.88-9.28 45.4-37.13 108.11-82.03 124.48-83.038 30.29-281.865 41.92-365.718 7.36-75.557-31.14-130.642-168.6-125.418-214.1"/>
    </clipPath>
    <clipPath id="_clip4">
        <path clip-rule="evenodd" d="m522.995 1029.26c63.399-97.324 136.471-251.19 384.877-266.195l.904 259.615c-89.412-3.85-138.779 6.67-153.183 29.74-94.599-85.656-164.489-79.522-232.598-23.16z"/>
    </clipPath>
    <clipPath id="_clip5">
        <path clip-rule="evenodd" d="m675.727 1061.41c-14.533 42.8-103.046 184.18-103.046 184.18s51.69 112.76 67.486 151.65c10.804 26.6 24.179 63.5 27.286 81.7 1.616 9.47-5.765 24.21-11.867 34.3-10.348 17.11-42.315 63.74-42.315 63.74-15.758 18.76-36.898 21.6-47.838 1.13-33.132 25.44-49.902 19.72-59.869.34-23.321 20.57-53.451 21.49-60.566-2.51 18.708-42.93 46.992-66.29 60.628-91.8 10.184-19.05 27.67-40.63 21.188-61.24-12.51-39.77-90.417-141.9-96.25-177.39-4.767-29 76.727-188.91 102.184-235.7 10.786-19.828 43.763-56.082 100.285-32.433 40.651 17.009 50.661 60.563 42.694 84.033z"/>
    </clipPath>
    <g transform="translate(-385 -753)">
        <g id="man">
            <g id="arm-far" transform="matrix(.696006 -.0656678 .0656678 .696006 315.057 388.553)" serif:id="arm far">
                <path d="m448.447 1579.31-37.326-35.73-18.909-88.06c21.201-2.27 42.069 5.35 61.019 69.79l-3.409-82.91c14.211-.31 29.116-4.76 40.939 69.4l-.657-69.67c20.178-7.19 21.27 5.78 32.932 66.58l89.167 64.08z" fill="#b18888"/>
                <g transform="matrix(1.42409 .134362 -.134362 1.42409 -396.463 -595.668)">
                    <path d="m775.896 1360.63c1.328-5.6 1.458-11.12-.734-16.32-11.319-26.86-72.25-92.83-78.64-117.15-5.222-19.87 40.997-136.52 55.642-170.76 6.206-14.51 26.778-41.9 67.67-29.16 29.41 9.17 39.237 38.83 35.233 55.68-7.304 30.75-59.625 134.97-59.625 134.97s43.381 75.08 56.929 101.11c9.266 17.81 20.998 42.61 24.356 55.07 1.747 6.49-2.423 17.24-6.007 24.66-6.079 12.59-25.266 47.14-25.266 47.14-9.735 14.09-24.262 17.46-33.221 3.93-21.39 19.87-33.438 17-41.646 4.17-14.882 15.84-35.792 18.46-42.32 2.23 7.786-23.75 20.202-39.92 29.121-54.54-5.522 2.1-9.618 3.66-9.618 3.66-16.139 9.3-27.708 5.21-34.485-12.92l25.544-17.14z" fill="#d1adad"/>
                    <g clip-path="url(#_clip1)">
                        <path d="m711.359 1405.73c9.285.51 18.686 1.21 27.665-1.76 6.797-2.25 27.974-14.89 39.086-17.45 8.985-2.07 14.572 11.23 27.584 2.08 8.025 10.28 22.526 10.98 33.466-.17 8.009 13.26 20.86 14.29 34.204-1.34 0 0 6.819-6.39 7.39-5.85 7.852 7.36-8.872 52.94-13.531 61.37-19.194 34.73-114.93 50.92-151.388 43.51-24.192-4.91-4.476-80.39-4.476-80.39z" fill="#b18888"/>
                        <path d="m754.082 1350.46c10.401 18.01 42.427 8.68 33.913-17.7-5.009-15.52-14.448-28.57-23.651-41.83-13.546-19.52-29.766-42.76-51.027-54.93-7.915-4.54-16.072-7.31-24.452-10.82-1.191-.49-7.743 27-2.892 38.15 5.92 13.6 68.109 87.13 68.109 87.13z" fill="#b18888"/>
                    </g>
                </g>
            </g>
            <g id="body">
                <path d="m812.177 1015.37c13.7 55.44 18.082 100.46 10.101 131.65l-14.351 18.46-1.499 17.12 16.302 50.89c-30.405 110.43-261.308 135.09-302.465 97.2-16.856-15.52-33.199-95.01-33.199-95.01l-7.227-44.71 4.127-41.86c15.399-70.58 40.507-130.36 78.08-179.235 80.34-20.266 161.883-26.498 250.131 45.495z" fill="#d1adad"/>
                <g clip-path="url(#_clip2)">
                    <path d="m832.587 1146.82c5.587-15.65 8.276-65.33 8.276-65.33s-20.13 62.61-25.535 61.37c-11.85-2.71-23.628-6.29-27.119-7.17-21.842-5.46-52.94-7.87-130.283 18.74-2.823.98-45.374 17.45-39.756 26.16.827 1.28 23.173-4.35 27.454-5.31 26.522-5.94 53.328-14.4 80.23-18.38 24.809-3.67 45.396-1.64 70.465 2.37 13.045 2.09 29.862 12.02 35.679-7.72" fill="#b18888"/>
                </g>
                <path d="m675.213 1270.57c24.834-28.62 58.638-60.13 119.819-82.93 112.95-42.09 219.828-50.12 282.138 86.4 8.3 18.19 20.27 92.14 12.36 130.88-9.28 45.4-37.13 108.11-82.03 124.48-83.038 30.29-281.865 41.92-365.718 7.36-75.557-31.14-130.642-168.6-125.418-214.1" fill="#d1adad"/>
                <g clip-path="url(#_clip3)">
                    <path d="m1090.71 1446.1c-83.53 65.98-213.007 81.97-314.02 52.06-27.115-8.03-44.657-32.09-71.636-38.42-23.381-5.48-48.238 1.87-70.999-5.49-50.461-16.3-90.316-88.07-110.333-106.5-10.946-10.07-37.803-25.1-40.628 5.97-8.731 96.01 65.467 215.2 157.496 242.16 117.695 34.47 250.765 26.37 365.09-14.92 38.32-13.84 75.69-37.46 98.8-71.63 16.08-23.78 26.08-39.33 3.75-61.22z" fill="#b18888"/>
                    <path d="m1085.72 1293.84c-48.78-103.93-113.407-147.75-280.739-98.93-35.441 10.34-79.232 33.77-109.532 52.98-10.9 6.92-23.498 14.56-37.729 12.5-2.016-.29-7.228-1.2-6.005-4.92 7.428-22.58 65.75-52.32 86.209-62.43 70.466-34.81 144.114-56.78 223.393-52.62 11.762.62 24.425-.29 35.896 2.82 20.017 5.42 39.677 16.15 57.307 27.04 29.05 17.94 58.76 40.99 65.53 76.55 2.19 11.52-34.33 47.01-34.33 47.01z" fill="#e2c8c8"/>
                </g>
            </g>
            <g id="head">
                <path d="m522.995 1029.26c63.399-97.324 136.471-251.19 384.877-266.195l.904 259.615c-89.412-3.85-138.779 6.67-153.183 29.74-94.599-85.656-164.489-79.522-232.598-23.16z" fill="#e2c8c8"/>
                <g clip-path="url(#_clip4)">
                    <path d="m956.37 971.746c-13.372-8.152-43.326-2.276-58.642-1.351-48.465 2.929-96.648 10.015-141.216 30.465-19.668 9.03-4.66 29.73-5.069 44.8-.205 7.58-6.103 23.41 2.585 28.84 17.057 10.66 108.81-10.09 134.001-13.42 20.566-2.71 45.567-1.56 64.451-11.15 21.698-11.01 3.89-78.184 3.89-78.184z" fill="#d1adad"/>
                </g>
                <g transform="matrix(1.06153 0 0 1.03058 -71.5858 -34.7376)">
                    <ellipse cx="931.555" cy="900.752" fill="#e2c8c8" rx="91.928" ry="126.566"/>
                </g>
            </g>
            <g id="arm-close" serif:id="arm close">
                <path d="m448.447 1579.31-37.326-35.73-18.909-88.06c21.201-2.27 42.069 5.35 61.019 69.79l-3.409-82.91c14.211-.31 29.116-4.76 40.939 69.4l-.657-69.67c20.178-7.19 21.27 5.78 32.932 66.58l89.167 64.08z" fill="#b18888"/>
                <path d="m643.082 1439.31 52.519 24.57c-2.602 23.97-25.168 28.68-36.012 21.26-23.695-16.21-30.731-37.06-16.507-45.83z" fill="#b18888"/>
                <path d="m675.727 1061.41c-14.533 42.8-103.046 184.18-103.046 184.18s51.69 112.76 67.486 151.65c10.804 26.6 24.179 63.5 27.286 81.7 1.616 9.47-5.765 24.21-11.867 34.3-10.348 17.11-42.315 63.74-42.315 63.74-15.758 18.76-36.898 21.6-47.838 1.13-33.132 25.44-49.902 19.72-59.869.34-23.321 20.57-53.451 21.49-60.566-2.51 18.708-42.93 46.992-66.29 60.628-91.8 10.184-19.05 27.67-40.63 21.188-61.24-12.51-39.77-90.417-141.9-96.25-177.39-4.767-29 76.727-188.91 102.184-235.7 10.786-19.828 43.763-56.082 100.285-32.433 40.651 17.009 50.661 60.563 42.694 84.033z" fill="#e2c8c8"/>
                <g clip-path="url(#_clip5)">
                    <path d="m418.181 1244.21c-3.791 7.23 40.922 16.25 46.868 18.58 12.562 4.92 30.823 43.13 36.959 51.57 23.409 32.22 36.34 79.11 54.308 115.29 9.061 18.24 11.358 56.85 11.358 56.85-8.748 15.31 15.807 41.41 48.114 9.33 7.744 14.42 21.81 17.98 47.652 1.28 0 0 2.981 91.42-32.008 113.62-43.848 27.81-105.916 24.56-154.184 14.56-13.665-2.84-37.448-12.06-46.318-24.19-9.49-12.99-8.606-31.24-5.931-46.19 8.448-47.24 86.469-88.92 71.314-139.22-4.779-15.85-75.728-103.72-81.696-123.25-3.388-11.08 3.564-48.23 3.564-48.23z" fill="#d1adad"/>
                </g>
            </g>
        </g>
        <g id="women">
            <g id="woman">
                <g id="arm-far1" serif:id="arm far"/>
                <g id="body1" serif:id="body"/>
                <g id="head1" serif:id="head"/>
                <g id="arm-close1" serif:id="arm close"/>
            </g>
        </g>
    </g>
</svg>
