<svg clip-rule="evenodd" fill-rule="evenodd" stroke-linejoin="round" stroke-miterlimit="2" viewBox="0 0 718 856" xmlns="http://www.w3.org/2000/svg" xmlns:xlink="http://www.w3.org/1999/xlink" xmlns:serif="http://www.serif.com/">
    <clipPath id="_clip1">
        <path clip-rule="evenodd" d="m775.896 1360.63c1.328-5.6 1.458-11.12-.734-16.32-11.319-26.86-72.25-92.83-78.64-117.15-5.222-19.87 40.997-136.52 55.642-170.76 6.206-14.51 26.778-41.9 67.67-29.16 29.41 9.17 39.237 38.83 35.233 55.68-7.304 30.75-59.625 134.97-59.625 134.97s43.381 75.08 56.929 101.11c9.266 17.81 20.998 42.61 24.356 55.07 1.747 6.49-2.423 17.24-6.007 24.66-6.079 12.59-25.266 47.14-25.266 47.14-9.735 14.09-24.262 17.46-33.221 3.93-21.39 19.87-33.438 17-41.646 4.17-14.882 15.84-35.792 18.46-42.32 2.23 7.786-23.75 20.202-39.92 29.121-54.54-5.522 2.1-9.618 3.66-9.618 3.66-16.139 9.3-27.708 5.21-34.485-12.92l25.544-17.14z"/>
    </clipPath>
    <g transform="translate(-385 -753)">
        <g id="man">
            <g id="arm-far" transform="matrix(.696006 -.0656678 .0656678 .696006 315.057 388.553)" serif:id="arm far">
                <path d="m448.447 1579.31-37.326-35.73-18.909-88.06c21.201-2.27 42.069 5.35 61.019 69.79l-3.409-82.91c14.211-.31 29.116-4.76 40.939 69.4l-.657-69.67c20.178-7.19 21.27 5.78 32.932 66.58l89.167 64.08z" fill="#b18888"/>
                <g transform="matrix(1.42409 .134362 -.134362 1.42409 -396.463 -595.668)">
                    <path d="m775.896 1360.63c1.328-5.6 1.458-11.12-.734-16.32-11.319-26.86-72.25-92.83-78.64-117.15-5.222-19.87 40.997-136.52 55.642-170.76 6.206-14.51 26.778-41.9 67.67-29.16 29.41 9.17 39.237 38.83 35.233 55.68-7.304 30.75-59.625 134.97-59.625 134.97s43.381 75.08 56.929 101.11c9.266 17.81 20.998 42.61 24.356 55.07 1.747 6.49-2.423 17.24-6.007 24.66-6.079 12.59-25.266 47.14-25.266 47.14-9.735 14.09-24.262 17.46-33.221 3.93-21.39 19.87-33.438 17-41.646 4.17-14.882 15.84-35.792 18.46-42.32 2.23 7.786-23.75 20.202-39.92 29.121-54.54-5.522 2.1-9.618 3.66-9.618 3.66-16.139 9.3-27.708 5.21-34.485-12.92l25.544-17.14z" fill="#d1adad"/>
                    <g clip-path="url(#_clip1)">
                        <path d="m711.359 1405.73c9.285.51 18.686 1.21 27.665-1.76 6.797-2.25 27.974-14.89 39.086-17.45 8.985-2.07 14.572 11.23 27.584 2.08 8.025 10.28 22.526 10.98 33.466-.17 8.009 13.26 20.86 14.29 34.204-1.34 0 0 6.819-6.39 7.39-5.85 7.852 7.36-8.872 52.94-13.531 61.37-19.194 34.73-114.93 50.92-151.388 43.51-24.192-4.91-4.476-80.39-4.476-80.39z" fill="#b18888"/>
                        <path d="m754.082 1350.46c10.401 18.01 42.427 8.68 33.913-17.7-5.009-15.52-14.448-28.57-23.651-41.83-13.546-19.52-29.766-42.76-51.027-54.93-7.915-4.54-16.072-7.31-24.452-10.82-1.191-.49-7.743 27-2.892 38.15 5.92 13.6 68.109 87.13 68.109 87.13z" fill="#b18888"/>
                    </g>
                </g>
            </g>
        </g>
    </g>
</svg>
