<svg id="Layer_1" enable-background="new 0 0 375 400" viewBox="0 0 375 400" xmlns="http://www.w3.org/2000/svg" xmlns:xlink="http://www.w3.org/1999/xlink">
    <clipPath id="SVGID_2_">
        <path id="SVGID_1_" d="m273 336s34.3 13.3 48.5-14c14.3-27.3-13.2-43.1-23.8-40.9-10.7 2.2-11.1 15.8 0 19.7s12.5 15.1 5.1 23.7-24.2 11.2-30.5 7.6-4.3 1.5-4.3 1.5z"/>
    </clipPath>
    <clipPath id="SVGID_4_">
        <path id="SVGID_3_" d="m273 336s34.3 13.3 48.5-14c14.3-27.3-13.2-43.1-23.8-40.9-10.7 2.2-11.1 15.8 0 19.7s12.5 15.1 5.1 23.7-24.2 11.2-30.5 7.6-4.3 1.5-4.3 1.5z"/>
    </clipPath>
    <clipPath id="SVGID_6_">
        <path id="SVGID_5_" d="m273 336s34.3 13.3 48.5-14c14.3-27.3-13.2-43.1-23.8-40.9-10.7 2.2-11.1 15.8 0 19.7s12.5 15.1 5.1 23.7-24.2 11.2-30.5 7.6-4.3 1.5-4.3 1.5z"/>
    </clipPath>
    <clipPath id="SVGID_8_">
        <path id="SVGID_7_" d="m273 336s34.3 13.3 48.5-14c14.3-27.3-13.2-43.1-23.8-40.9-10.7 2.2-11.1 15.8 0 19.7s12.5 15.1 5.1 23.7-24.2 11.2-30.5 7.6-4.3 1.5-4.3 1.5z"/>
    </clipPath>
    <g id="Shadow">
        <ellipse cx="189.6" cy="371.9" fill="#8a84d8" rx="99.9" ry="6.3"/>
    </g>
    <g id="Tail">
        <g>
            <path d="m273 336s34.3 13.3 48.5-14c14.3-27.3-13.2-43.1-23.8-40.9-10.7 2.2-11.1 15.8 0 19.7s12.5 15.1 5.1 23.7-24.2 11.2-30.5 7.6-4.3 1.5-4.3 1.5z" fill="#ceccff"/>
            <g>
                <path d="m273 335.9c8.3 2.8 17.3 4 25.9 2.4 2.1-.4 4.3-1 6.3-1.8s4-1.8 5.8-3c3.6-2.4 6.6-5.7 8.9-9.3 2.3-3.7 4-7.8 5-12 .4-2.1.6-4.3.5-6.5s-.5-4.3-1.2-6.4c-1.4-4.1-4-7.8-7.2-10.7s-7.1-5.2-11.3-6.5c-2.1-.6-4.2-1.1-6.4-.9-2.1.1-4.2.9-5.9 2.2s-2.9 3.2-3.2 5.3c-.4 2.1 0 4.3 1 6.2s2.6 3.4 4.4 4.5c.4.3.9.5 1.4.7l1.5.6c.5.2 1 .4 1.6.7l1.5.8c1.9 1.2 3.6 2.8 4.7 4.8s1.7 4.3 1.7 6.5c-.1 4.6-2.2 8.8-5.3 12-.7.8-1.6 1.5-2.5 2.2-.9.6-1.8 1.3-2.8 1.8-1.9 1.1-4 1.9-6.1 2.6-4.2 1.3-8.7 2-13.1 1.6-2.2-.2-4.4-.7-6.3-1.9-.9-.5-2-1.1-3-1-.3 0-.5.1-.7.3-.1.2-.2.5-.2.7 0 .5.1 1.1.3 1.6zm0 .1-5-2.4c-.2-.5-.3-1.1-.3-1.6 0-.3.1-.6.2-.8.2-.2.5-.4.8-.4 1.2-.1 2.2.5 3.2 1 1.9 1.1 4.1 1.6 6.2 1.7 4.4.3 8.7-.5 12.8-1.9 2.1-.7 4.1-1.6 5.9-2.7 1-.5 1.8-1.2 2.7-1.8.8-.7 1.7-1.4 2.4-2.2 3-3.1 5-7.2 5.1-11.5 0-2.1-.5-4.2-1.6-6.1-1-1.8-2.6-3.4-4.4-4.5l-1.4-.8c-.5-.2-1-.4-1.5-.6l-1.5-.7c-.5-.2-1-.4-1.5-.8-2-1.1-3.7-2.8-4.7-4.8s-1.4-4.4-.9-6.6 1.7-4.3 3.6-5.6c1.8-1.4 4-2.2 6.2-2.3s4.5.3 6.6 1c4.2 1.4 8.1 3.7 11.3 6.7s5.9 6.7 7.3 10.9c.7 2.1 1.2 4.3 1.3 6.5s0 4.4-.4 6.6c-.9 4.3-2.6 8.5-4.8 12.3-1.2 1.9-2.5 3.7-4.1 5.3-.7.8-1.6 1.6-2.4 2.3-.4.4-.9.7-1.3 1s-.9.7-1.4 1c-3.7 2.5-8 4-12.3 4.7-4.4.7-8.8.7-13.2.2-4.4-.7-8.8-1.6-12.9-3.1z" fill="#9488de"/>
            </g>
        </g>
        <g>
            <g>
                <path clip-path="url(#SVGID_2_)" d="m279.3 331.2s5.6 6 11.3 6.2c5.8.2 35.1-8.3 29.7-34.6-5.3-26.3-38.7-22.5-38.7-22.5s50.7-20.1 57.3-12.8 27.6 25 22.2 38.3c-5.3 13.3-3.6 27.2-15 35.3-11.3 8.1-33.8 17.1-33.8 17.1l-36.6-13.7-7.1-16.5z" fill="#a6a6e8"/>
            </g>
        </g>
        <g>
            <g>
                <path clip-path="url(#SVGID_4_)" d="m329.5 316.5s-5.6-6.4-12.8-7.9-16 .1-16 .1" fill="none" stroke="#9488de" stroke-miterlimit="10" stroke-width="10.0526"/>
            </g>
            <g>
                <path clip-path="url(#SVGID_6_)" d="m315.4 334.7s-1.5-6.6-5.3-10.3c-3.8-3.6-7.5-4.1-7.5-4.1" fill="none" stroke="#9488de" stroke-miterlimit="10" stroke-width="10.0526"/>
            </g>
            <g>
                <path clip-path="url(#SVGID_8_)" d="m288 327.8c7.1-.6 10.3 10.9 10.3 11.1" fill="none" stroke="#9488de" stroke-miterlimit="10" stroke-width="10.0526"/>
            </g>
        </g>
    </g>
    <g id="Paw_L">
        <g>
            <path d="m125.3 301.1c-1.2 0-2.4-.4-3.5-1.2-3-2.1-6.5-4.2-10.3-6.5-4.6-2.8-9.9-5.9-15.3-9.8-.7-.5-18.1-12.9-16.5-20.2 3.5-16 9.9-22.4 24.6-34.2 7.5-6 13-9.1 16.1-9.1 1.7 0 2.5.9 2.9 1.6.9 1.7-.7 7.4-4.5 18.8-.9 2.6-1.8 5.5-2.2 6.9.1 0 .2 0 .3-.1 1-.2 2.4-.4 4.2-.4 7.7 0 15.1 4.2 22.2 12.4 7.9 9.3 8.2 16.3 7 20.5-1.5 5.2-5.8 8.7-9.2 9.8-1.8.6-3.8 2.7-6 4.9-3 3.3-6.2 6.6-9.8 6.6z" fill="#ceccff"/>
            <path d="m120.5 221c1.3 0 1.9.6 2.2 1.1 1.4 2.6-7.4 25.1-6.9 26 0 .1.1.1.3.1.7 0 2.5-.5 5.2-.5 4.9 0 12.7 1.8 21.5 12.1 14.7 17.2 3.7 27.2-1.8 29-4.7 1.5-10 11.3-15.7 11.3-1 0-2-.3-3-1-6.8-4.8-15.8-9.3-25.5-16.2-5.4-3.9-17.4-13.8-16.2-19.4 3.5-15.9 9.7-22 24.3-33.7 8.8-6.9 13.3-8.8 15.6-8.8m0-1.6c-3.4 0-8.8 3-16.7 9.3-14.9 11.9-21.4 18.4-24.9 34.6-1.7 7.7 15 19.7 16.9 21.1 5.4 3.8 10.7 7 15.3 9.8 3.7 2.2 7.2 4.3 10.2 6.4 1.3.9 2.6 1.3 4 1.3 3.9 0 7.3-3.4 10.5-6.7 2-2 4-4.1 5.7-4.7 2.8-.9 8-4.1 9.7-10.4 1.2-4.4 1-11.7-7.2-21.3-7.2-8.4-14.9-12.7-22.8-12.7-1.4 0-2.5.1-3.4.3.5-1.5 1.2-3.6 1.8-5.6 4.2-12.6 5.5-17.5 4.5-19.4-.6-1.3-1.9-2-3.6-2z" fill="#9488de"/>
        </g>
    </g>
    <g id="Paw_R">
        <g>
            <path d="m254.5 301.1c-3.6 0-6.8-3.3-9.9-6.5-2.2-2.2-4.2-4.3-6-4.9-3.4-1.1-7.7-4.7-9.2-9.8-1.2-4.2-.9-11.2 7-20.5 7-8.2 14.5-12.4 22.2-12.4 1.8 0 3.3.2 4.2.4.1 0 .2 0 .3.1-.3-1.4-1.3-4.3-2.2-6.9-3.8-11.4-5.4-17.1-4.5-18.8.4-.7 1.2-1.6 2.9-1.6 3.2 0 8.6 3.1 16.1 9.1 14.8 11.8 21.1 18.2 24.6 34.2 1.6 7.3-15.8 19.7-16.5 20.2-5.4 3.8-10.6 7-15.3 9.8-3.7 2.2-7.3 4.4-10.3 6.5-1 .7-2.2 1.1-3.4 1.1z" fill="#ceccff"/>
            <path d="m259.3 221c2.3 0 6.8 1.9 15.6 8.9 14.6 11.7 20.8 17.8 24.3 33.7 1.2 5.6-10.8 15.5-16.2 19.4-9.7 6.9-18.8 11.5-25.5 16.2-1 .7-2 1-3 1-5.7 0-11-9.8-15.7-11.3-5.5-1.8-16.5-11.8-1.8-29 8.8-10.3 16.6-12.1 21.5-12.1 2.7 0 4.5.5 5.2.5.2 0 .3 0 .3-.1.5-1-8.4-23.4-6.9-26 .3-.6.9-1.2 2.2-1.2m0-1.6c-1.7 0-3 .7-3.7 2-1 1.9.3 6.8 4.5 19.4.7 2 1.4 4.1 1.8 5.6-.9-.1-2.1-.3-3.4-.3-7.9 0-15.6 4.3-22.8 12.7-8.2 9.6-8.4 16.8-7.2 21.3 1.8 6.3 7 9.5 9.7 10.4 1.6.5 3.7 2.6 5.7 4.7 3.2 3.3 6.6 6.7 10.5 6.7 1.4 0 2.7-.4 4-1.3 3-2.1 6.5-4.2 10.2-6.4 4.6-2.8 9.9-5.9 15.3-9.8 1.9-1.3 18.6-13.4 16.9-21.1-3.6-16.2-10-22.7-24.9-34.6-7.8-6.3-13.2-9.3-16.6-9.3z" fill="#9488de"/>
        </g>
    </g>
    <g id="Body">
        <g>
            <path d="m262.6 211.8c.4 5.1 10.5 42.8 11.8 63.5 1.6 26.3 1.8 43.8-.1 69.7-1.6 21.3 4.2 27.6-6.5 28.1s-20.5-15.4-56.5-21.8c-35.9-6.4-51.8 3.4-59 12.4-7.3 9 0 9.8-14.1 11.5s-14.8-20-21.7-40.5c-6.8-20.5-16.4-54.4-4.9-97.6s74-74.4 106.5-59.5 44.5 34.2 44.5 34.2z" fill="#ceccff"/>
            <g>
                <path d="m262.6 211.8c.5 3.4 1.4 6.6 2.1 10l2.3 9.9c1.5 6.6 3 13.2 4.3 19.9s2.5 13.4 3.2 20.1c.6 6.8.9 13.5 1.2 20.3.6 13.6.6 27.2-.1 40.7-.2 3.4-.4 6.8-.6 10.2-.3 3.4-.5 6.7-.5 10.1s.2 6.7.4 10.1c.1 1.7.2 3.4 0 5.2-.1.9-.3 1.8-.8 2.7s-1.3 1.6-2.2 1.9c-.9.4-1.8.5-2.7.6s-1.7.1-2.6.1c-1.8-.1-3.5-.6-5.1-1.3-3.2-1.4-6.1-3.2-9-4.9-5.8-3.5-11.7-6.7-18-9.3-6.3-2.5-12.8-4.5-19.4-5.9s-13.3-2.4-20.1-2.7c-6.7-.4-13.6-.1-20.2 1.3s-13 4.1-18.1 8.5c-2.5 2.2-4.8 4.7-6.5 7.6-.9 1.4-1.4 3-1.9 4.6-.2.4-.4.8-.6 1.2-.3.4-.7.7-1.1.9-.8.5-1.7.7-2.5.9-1.7.4-3.4.6-5.1.9s-3.5.4-5.2-.1c-1.7-.4-3.3-1.4-4.5-2.6-1.3-1.2-2.2-2.7-3.1-4.2-1.6-3-2.7-6.3-3.7-9.6s-1.8-6.6-2.7-9.8c-.9-3.3-1.7-6.6-2.7-9.8s-2.1-6.4-3.1-9.7c-4.2-12.9-7.2-26.3-8.2-39.9-1.1-13.6-.4-27.3 2.1-40.7.6-3.3 1.3-6.7 2.2-10 .8-3.3 1.8-6.6 3.1-9.8 2.6-6.4 6.3-12.3 10.5-17.6 4.3-5.4 9.1-10.2 14.4-14.6 5.3-4.3 11-8.2 16.9-11.5 6-3.3 12.3-6.1 18.8-8.2s13.2-3.6 20-4.1 13.8 0 20.3 2.2c1.6.5 3.2 1.2 4.8 1.9 1.5.7 3.1 1.5 4.6 2.3 3 1.6 6 3.2 8.9 5 5.8 3.5 11.3 7.5 16.5 12 2.6 2.2 5 4.6 7.3 7.1 2.4 2.6 4.6 5.2 6.4 8.1zm-.1 0c-1.9-2.8-4.1-5.3-6.5-7.8-2.3-2.4-4.8-4.7-7.4-6.9-5.2-4.4-10.7-8.2-16.5-11.7-2.9-1.7-5.9-3.3-8.9-4.9-1.5-.8-3-1.5-4.6-2.2-1.5-.7-3.1-1.3-4.7-1.9-6.4-2-13.2-2.5-19.9-1.9-6.7.5-13.3 2-19.7 4.2-6.4 2.1-12.6 4.9-18.4 8.2-11.7 6.6-22.4 15.2-30.8 25.7-4.2 5.3-7.7 11-10.2 17.2-1.3 3.1-2.3 6.3-3.1 9.6s-1.5 6.6-2.2 9.9c-2.5 13.3-3.3 26.8-2.2 40.3 1 13.5 3.9 26.7 7.9 39.6 1 3.2 2.1 6.4 3 9.7s1.8 6.6 2.6 9.9 1.6 6.6 2.6 9.8c.9 3.2 2 6.5 3.5 9.4.8 1.5 1.7 2.9 2.9 4 1.2 1.2 2.6 2 4.1 2.4 1.6.4 3.2.4 4.9.1 1.7-.2 3.4-.4 5-.8.8-.2 1.6-.4 2.3-.8s1.1-1 1.4-1.7c.5-1.6 1.1-3.2 2-4.7 1.8-3 4.1-5.5 6.7-7.7 5.3-4.4 11.8-7.1 18.4-8.5 6.7-1.4 13.5-1.7 20.3-1.4 6.8.4 13.5 1.3 20.2 2.7s13.2 3.2 19.6 5.7 12.4 5.7 18.2 9.1c2.9 1.7 5.8 3.5 8.9 4.7 1.5.6 3.1 1.1 4.7 1.1s3.3-.1 4.7-.7c.7-.3 1.2-.8 1.5-1.4s.5-1.4.6-2.2c.2-1.6.1-3.3 0-5-.2-3.4-.4-6.8-.4-10.2s.2-6.8.4-10.2.4-6.8.6-10.1c.8-13.5.9-27.1.3-40.6-.1-3.4-.3-6.8-.5-10.2s-.3-6.8-.6-10.1c-.6-6.7-1.7-13.4-2.9-20.1s-2.6-13.3-4-19.9l-2.1-9.9c-.5-3.1-1.3-6.4-1.7-9.8z" fill="#9488de"/>
            </g>
        </g>
    </g>
    <g id="Belly">
        <path d="m236.5 356.8-77.9 1.7s-6.4-5.6-12.8-35.1-5.6-70.1-5.6-70.1l5.3-23.5 79.9-3.2s4 15.8 5.1 34.9c1.2 23.3-.4 51.4.1 62.1.8 19.4 5.9 33.2 5.9 33.2z" fill="#f3ecf8"/>
    </g>
    <g id="Shadows_body">
        <path d="m106.9 219.3s8.5 21.1 80.7 27.2 109-52.7 109-52.7l-194.2 15.8z" fill="#8c87d9"/>
        <path d="m140.9 374.2s6.5-25.5 32.4-30 57.2 9.3 69.7 15.8c12.6 6.5 24.6 13.1 24.6 13.1z" fill="#8c87d9"/>
    </g>
    <g id="Fur_body">
        <path d="m292 295.8c-27.1 4.2-40.4 4.3-39.1 8.9 1.3 4.5 40.5 4.5 40.5 4.5z" fill="#9488de"/>
        <path d="m278.5 318c-14.3 1.1-20.9.4-21 3.4s19.4 5.4 19.4 5.4z" fill="#9488de"/>
        <path d="m276.9 279.3c-13.1 4.8-19.6 5.9-18.5 8.8s20.5 0 20.5 0z" fill="#9488de"/>
        <path d="m92.1 298.9c27.1 4.2 40.4 4.3 39.1 8.9-1.3 4.5-40.5 4.5-40.5 4.5z" fill="#9488de"/>
        <path d="m105.6 321.2c14.3 1.1 20.9.4 21 3.4s-19.4 5.4-19.4 5.4z" fill="#9488de"/>
        <path d="m107.1 282.5c13.1 4.8 19.6 5.9 18.5 8.8s-20.5 0-20.5 0z" fill="#9488de"/>
    </g>
    <g id="Head">
        <g id="HEAD">
            <path d="m304.8 185.5c-.6-4.1-7.5-67-8.2-85.9-.6-18.8.1-50.4.2-61.3.1-10.8-4.6-12.1-9-8.9-4.5 3.2-11.2 8.6-21.3 19.6-8.7 9.4-43.3 9.8-52.4 9.8-26.4-.6-74.9 2.4-74.9 2.4s-28.4 1.4-37.5-7.6c-10.5-10.3-17.5-15.4-22.1-18.4s-9.2-1.5-8.6 9.4c.7 10.8 3 42.4 3.3 61.2.3 18.9-3.5 82.1-3.9 86.3-.1 1.3 14.1 18.5 33 26.1 30.3 12.2 72.6 16.4 87.7 15.6 11.6-.1 49.4-5.3 78.3-18.8 20-9.4 35.6-28.2 35.4-29.5z" fill="#ceccff"/>
            <g>
                <path d="m304.8 185.5c-2-16.9-3.8-33.8-5.5-50.7-.8-8.5-1.6-16.9-2.3-25.4s-.8-17-.9-25.5c0-8.5 0-17 .1-25.5l.1-12.7.1-6.4c0-2.1 0-4.2-.4-6.3-.2-1-.5-2-1-2.9s-1.2-1.6-2.1-1.8c-.9-.3-1.9-.1-2.8.2-.9.4-1.8.9-2.6 1.6-3.4 2.5-6.6 5.3-9.7 8.2s-6 5.9-8.9 9c-.7.8-1.4 1.5-2.2 2.4-.8.8-1.7 1.4-2.6 2-1.9 1.2-3.9 2-5.9 2.7-4.1 1.4-8.3 2.3-12.5 2.9-4.2.7-8.5 1.1-12.7 1.5-8.5.7-17.1.8-25.5.7-17 .1-33.9.9-50.9 1.8l-12.7.7-3.2.2c-1 .1-2.2.1-3.2.1-2.1 0-4.3 0-6.4 0-4.3-.1-8.6-.5-12.8-1.1-4.3-.7-8.5-1.7-12.6-3.6-1-.5-2-1.1-2.9-1.7l-.7-.5-.7-.6c-.5-.4-.8-.7-1.2-1.1-1.5-1.5-3.1-2.9-4.6-4.3-3.1-2.8-6.3-5.6-9.6-8.2-1.7-1.3-3.4-2.5-5.1-3.7l-1.3-.9c-.5-.3-.9-.6-1.3-.8-.8-.4-1.7-.7-2.4-.7-.8 0-1.4.3-1.9.8s-.9 1.4-1.1 2.3c-.5 1.8-.5 3.9-.4 5.9.9 17 2.1 33.9 2.8 50.9.2 4.3.3 8.5.3 12.8s-.1 8.5-.2 12.8c-.3 8.5-.7 17-1.1 25.5s-.9 17-1.4 25.4l-.9 12.7-.4 6.4-.1.8v.4.2c0 .2 0 0 0-.1s0 .1.1.1c0 .1.1.2.2.3.1.2.3.4.4.6.6.8 1.3 1.6 1.9 2.4 5.5 6.3 12 11.9 19 16.4 3.5 2.3 7.3 4.2 11.2 5.8 2 .7 3.9 1.5 5.9 2.2s4 1.4 6 2c8.1 2.5 16.3 4.6 24.6 6.2 8.3 1.7 16.7 3 25.1 3.9 4.2.5 8.4.9 12.7 1.1 4.2.2 8.5.4 12.7.3s8.5-.5 12.7-1 8.4-1.1 12.6-1.9c8.4-1.5 16.7-3.3 24.8-5.6 8.2-2.3 16.2-5 24-8.3 7.9-3.2 15.2-7.7 21.8-13 3.3-2.6 6.5-5.5 9.5-8.4 1.5-1.5 3-3 4.4-4.6.7-.8 1.4-1.6 2-2.4.3-.4.6-.8 1-1.3.3-.3.6-.7.7-1.2zm0 0c-.1.5-.5 1-.7 1.4-.3.4-.6.9-.9 1.3-.7.8-1.3 1.6-2 2.4-1.4 1.6-2.9 3.1-4.4 4.6-3 3-6.2 5.8-9.5 8.5-6.6 5.3-13.9 9.9-21.8 13.1-7.8 3.4-15.9 6.1-24 8.4-8.2 2.3-16.5 4.2-24.8 5.7-8.4 1.5-16.8 2.8-25.3 3.1-4.3.2-8.5.1-12.8-.1s-8.5-.6-12.7-1c-8.5-.9-16.9-2.1-25.2-3.7-8.4-1.6-16.7-3.6-24.8-6-2-.6-4.1-1.3-6.1-2s-4-1.5-6-2.2c-4-1.5-7.8-3.6-11.5-5.8-3.6-2.3-7.1-4.8-10.4-7.6s-6.4-5.7-9.2-9c-.7-.8-1.4-1.6-2.1-2.5-.2-.2-.3-.5-.5-.7-.1-.1-.2-.3-.2-.4-.1-.2-.2-.3-.2-.6-.1-.2 0-.6 0-.5v-.2-.4l.1-.8.4-6.4.7-12.7 1.3-25.4c.4-8.5.7-17 1-25.4.1-4.2.2-8.5.2-12.7s-.2-8.5-.3-12.7c-.7-17-2-33.9-3.1-50.9-.1-2.2-.1-4.4.6-6.7.3-1.1.8-2.3 1.8-3.3.9-1 2.4-1.7 3.8-1.6 1.4 0 2.6.5 3.6 1.1.5.3 1 .6 1.4.9l1.3.9c1.8 1.2 3.5 2.5 5.2 3.8 3.4 2.6 6.6 5.4 9.8 8.3 1.6 1.5 3.1 2.9 4.6 4.4.4.4.8.8 1.1 1.1l.5.5.6.4c.8.6 1.7 1.1 2.6 1.5 3.6 1.8 7.7 2.7 11.9 3.4 4.1.7 8.3 1 12.5 1.2 2.1.1 4.2.1 6.3.1 1.1 0 2.1-.1 3.1-.1l3.2-.2 12.7-.7c17-.8 34-1.4 51-1.3 8.5.2 16.9.1 25.4-.5 4.2-.3 8.4-.7 12.6-1.3s8.3-1.5 12.3-2.8c2-.7 3.9-1.5 5.7-2.5.9-.5 1.7-1.1 2.4-1.8s1.4-1.5 2.2-2.3c2.9-3.1 5.9-6.1 9.1-9 3.1-2.9 6.4-5.6 9.8-8.2.8-.6 1.8-1.3 2.8-1.7s2.3-.6 3.4-.2c1.2.4 2 1.3 2.6 2.2.6 1 .9 2 1.1 3.1.4 2.1.4 4.3.4 6.4l-.1 6.4-.3 12.7c-.2 8.5-.3 17-.3 25.5s.1 17 .8 25.4c.6 8.5 1.4 16.9 2.2 25.4 1.5 16.9 3.2 33.8 5.1 50.7z" fill="#9488de"/>
            </g>
        </g>
        <g id="Fur_head">
            <path d="m62.6 130.8c23.4 14 35.1 17 33.4 26.2-1.8 9.1-36.4 1.2-36.4 1.2z" fill="#9488de"/>
            <path d="m59.6 170.4c1.8 0 21.7 1.5 25.2 5.8s-2.9 7.6-7.6 8.8-21.1 3-21.1 3z" fill="#9488de"/>
            <path d="m66.8 105.3c1.6.8 18.8 11.4 20.1 16.8s-5.9 5.5-10.6 4.4-20.2-7-20.2-7z" fill="#9488de"/>
            <path d="m313.3 132.4c-23.5 14-35.2 17.1-33.4 26.2s36.4 1.2 36.4 1.2z" fill="#9488de"/>
            <path d="m316.2 172c-1.8 0-21.7 1.5-25.2 5.8s2.9 7.6 7.6 8.8 21.1 3 21.1 3z" fill="#9488de"/>
            <path d="m309 106.9c-1.6.8-18.8 11.4-20.1 16.8s5.9 5.5 10.6 4.4 20.2-7 20.2-7z" fill="#9488de"/>
        </g>
        <g id="Ears">
            <path d="m76.3 41.7c2.1-1.7 18.2 12.7 22.1 17.8s4.4 5.7-.8 10c-5.3 4.3-14.4 12.2-16.2 8.7s-4.4-18.3-5.4-26.9-.6-8.9.3-9.6z" fill="#a9a9ea"/>
            <path d="m291.9 33.5c-2.2-1.6-17.7 13.4-21.5 18.6s-4.2 5.9 1.2 10 14.9 11.6 16.5 8.1c1.7-3.5 3.7-18.4 4.5-27s.2-9-.7-9.7z" fill="#a9a9ea"/>
        </g>
        <g id="Nose">
            <path d="m189.8 206.1c-5.4.2-22.9-1.2-34.6-7.7-11.1-6.2-16.7-17.2-14.2-23.4 5.1-12.7 0 0 0 0-.2-8.2 14.6-35.8 48.5-35.8 34.2 0 44.6 26.4 44.7 33.9 0 0-5.6-13 0 0 2.8 6.4-2 17.8-12.4 24.3-10.5 6.7-26.7 8.4-32 8.7z" fill="#f3ecf8"/>
            <path d="m188.7 137.6c3.9 0 10.4 2.4 8.7 3.8l-6.5 5.3c-1.1.9-2.9.9-4 0l-6.4-5.4c-1.6-1.4 4.3-3.7 8.2-3.7z" fill="#998dde"/>
        </g>
        <path id="Mouth" d="m179.1 185s11.4-9.7 20-6.5 2.2 4.9-5.4 5.4-17.3 4.9-17.3 4.9z" fill="#9588de"/>
        <g id="eye_balls">
            <ellipse cx="139.3" cy="122.2" fill="#ededf6" rx="39.1" ry="42"/>
            <ellipse cx="243.9" cy="120.6" fill="#ededf6" rx="38.2" ry="42"/>
        </g>
        <g id="eye_strokes">
            <path d="m178.4 122.2c0 10.6-3.7 21.3-10.8 29.3-3.5 4-7.8 7.4-12.6 9.8s-10.2 3.7-15.7 3.8c-5.4.1-10.9-1-16-3.2-5-2.2-9.6-5.5-13.3-9.5-3.7-4.1-6.7-8.8-8.6-14-2-5.2-2.9-10.7-3-16.2 0-5.5 1-11 3-16.2s4.9-9.9 8.6-14 8.3-7.3 13.3-9.5 10.5-3.3 16-3.2c5.4.1 10.8 1.4 15.7 3.8s9.1 5.8 12.6 9.8c7 8 10.8 18.7 10.8 29.3zm0 0c0-5.3-1-10.6-2.9-15.6s-4.7-9.5-8.3-13.4-7.9-7-12.7-9.1-10-3.1-15.2-3-10.3 1.4-14.9 3.6c-4.6 2.3-8.7 5.5-12 9.4-6.7 7.7-10.3 17.9-10.3 28.1s3.6 20.4 10.3 28.1c3.3 3.9 7.4 7.1 12 9.4s9.7 3.5 14.9 3.6 10.4-.9 15.2-3 9.2-5.2 12.7-9.1c3.6-3.9 6.4-8.5 8.3-13.4 1.9-5 2.8-10.3 2.9-15.6z" fill="#7b72cc"/>
            <path d="m282.1 120.6c0 10.5-3.6 21-10.4 29.2-3.4 4-7.6 7.5-12.3 9.9-4.8 2.4-10.1 3.8-15.5 3.9s-10.8-1-15.8-3.3c-4.9-2.3-9.4-5.6-13-9.6-3.6-4.1-6.5-8.8-8.4-14-1.9-5.1-2.8-10.6-2.9-16.1 0-5.5 1-10.9 2.9-16.1 1.9-5.1 4.7-9.9 8.4-14 3.6-4.1 8.1-7.4 13-9.7s10.4-3.4 15.8-3.3 10.7 1.5 15.5 3.9 8.9 5.9 12.3 9.9c6.9 8.2 10.5 18.8 10.4 29.3zm0 0c0-5.3-1-10.5-2.8-15.4s-4.6-9.5-8-13.4c-3.5-3.9-7.7-7.1-12.5-9.2-4.7-2.1-9.9-3.2-15-3.1s-10.2 1.4-14.7 3.7-8.5 5.6-11.7 9.4c-6.5 7.7-10 17.9-9.9 27.9 0 10.1 3.4 20.2 9.9 27.9 3.2 3.9 7.2 7.2 11.7 9.5s9.6 3.6 14.7 3.7 10.3-1 15-3.1 9-5.3 12.4-9.2c3.5-3.9 6.2-8.5 8-13.4 2-4.8 2.9-10.1 2.9-15.3z" fill="#7b72cc"/>
        </g>
        <g id="Eyes">
            <ellipse cx="141.8" cy="126" fill="#482a69" rx="13" ry="26.6"/>
            <ellipse cx="245" cy="122.6" fill="#482a69" rx="12.6" ry="26.6"/>
        </g>
        <path id="eye_lids_down" d="m90.7 130h198.9v53h-198.9z" fill="#9488de"/>
        <path id="eye_lids_up" d="m90.7 77h198.9v53h-198.9z" fill="#9488de"/>
        <g id="Brows">
            <path d="m170.8 75.9-9 1.9c-3.4.7-6.8-1-7.6-3.8-.9-2.8 13.6-8.2 13.6-8.2 3.4-.7 6.8 1 7.6 3.8.8 2.8-1.3 5.6-4.6 6.3z" fill="#9488de"/>
            <path d="m213.4 76.8-9.4-1.8c-3.5-.7-5.7-3.6-4.9-6.5.8-2.9 4.3-4.7 7.8-4.1 0 0 15.1 5.3 14.3 8.3-.8 3-4.2 4.8-7.8 4.1z" fill="#9488de"/>
        </g>
    </g>
</svg>
