<svg height="531" viewBox="0 0 254 531" width="254" xmlns="http://www.w3.org/2000/svg" xmlns:xlink="http://www.w3.org/1999/xlink">
    <defs>
        <path id="path-1" d="m11 47 1-28 38.5-19 3 13 43 12 34.5 29.5 18 49.5-32 77 1 30-71.5 19.5-19-59-27.5-46 6-38 22-24z"/>
        <path id="path-3" d="m151 0 18.5 28-4 28.5-18.5 23.5-27 41 2 13.5 26.75 32.5-7.25 58 16 22-4.5 20.5h-148l-5-6.5 1-8 42-6 34.5-28-7.5-30-23-39-9-15.5 5-13.5 4-54.5 39.5-50.5z"/>
        <path id="path-5" d="m116 0 20.5 30-4 28.5-17.5 24.5-23 40-.5 8.5-23-4.5-25 3.5-16.5-14.5-27 6 7-53.5 33.0414011-45.1556188-.5414011-10.3443812z"/>
        <path id="path-7" d="m131.5 19.5 7 41-7 66.5-27.002069 50.394165-30.497931 29.105835-15 48-14 7-8.2044435-1.959704-7.2966259-1.033469-9.536937-.087334-5.8987036-4.861194-5.06329-.058299-9-19.5 9-27.5 21-16 15-46.5 25-27.5-11-26-8.5-66 15.25-24.5h20.75 25.5z"/>
        <mask id="mask-2" fill="#fff">
            <use fill="#fff" fill-rule="evenodd" xlink:href="#path-1"/>
        </mask>
        <mask id="mask-4" fill="#fff">
            <use fill="#fff" fill-rule="evenodd" xlink:href="#path-3"/>
        </mask>
        <mask id="mask-6" fill="#fff">
            <use fill="#fff" fill-rule="evenodd" xlink:href="#path-5"/>
        </mask>
        <mask id="mask-8" fill="#fff">
            <use fill="#fff" fill-rule="evenodd" xlink:href="#path-7"/>
        </mask>
    </defs>
    <g id="Page-1" fill="none" fill-rule="evenodd">
        <g id="Group">
            <path id="Back-Leg" d="m194.072968 380.242537.927032 6.257463 26.75 32.5-7.25 58 16 22-4.5 20.5h-148l-5-6.5 1-8 42-6 34.5-28-7.5-30-23-39-9-15.5 5-13.5.190674-2.597927-7.190674 1.597927 7-53.5 33.041401-45.155619-.541401-10.344381 76.5-13 20.5 30-4 28.5-17.5 24.5-23 40-.5 8.5z" fill="#333"/>
            <path id="Back-Arm" d="m222.5 101.5 7 41-7 66.5-27.002069 50.394165-30.497931 29.105835-15 48-14 7-8.204443-1.959704-7.296626-1.033469-9.536937-.087334-5.898704-4.861194-5.06329-.058299-9-19.5 9-27.5 21-16 15-46.5 25-27.5-11-26-8.5-66 15.25-24.5h46.25z" fill="#333"/>
            <path id="Shadow" d="m0 521 100.606458-11.135293 84.893542-1.864707 47.451842 7.502659 19.048158 5.497341-16.5 4-50 5.5-83.487723-1.175789z" fill="#000" opacity=".204484"/>
            <g id="Body" transform="translate(105 39)">
                <use id="Mask" fill="#a2b683" xlink:href="#path-1"/>
                <path id="Path-2-Copy" d="m30.5 116-45 15 21.5-44.5 22-13v25.5z" fill="#b4ca91" mask="url(#mask-2)"/>
                <path id="Path-2-Copy" d="m56.5 26-1-26h83l3 13 45 12 34.5 29.5 17 49.5-32 77 1 30-70.5 19.5-37-92.5 6.5-79.5z" fill="#b4ca91" mask="url(#mask-2)"/>
            </g>
            <g id="Front-Leg" transform="translate(73 250)">
                <g id="Path-3" transform="translate(0 2)">
                    <use id="Mask" fill="#a2b683" xlink:href="#path-3"/>
                    <path d="m221 0 18.5 28-4 28.5-18.5 23.5-27 41v13.5l26.75 32.5-7.25 58c-13.338679.432799-22.172013.432799-26.5 0s-15.494654-2.432799-33.5-6l-7.5-30-23-39 5-15.5 25.5-7.5-32.5-60.5 39.5-50.5z" fill="#b4ca91" mask="url(#mask-4)"/>
                    <path d="m51 154.5 20.5 59.5 33 37.5-26-8-25.2084667 9.162546-94.7915333 17.337454 8.5-26.5 4-8.5 9-1 3.5-39-7.5-30-23-39z" fill="#b4ca91" mask="url(#mask-4)"/>
                </g>
                <g id="Path-3" transform="translate(36)">
                    <use id="Mask" fill="#8a6c8f" xlink:href="#path-5"/>
                    <path d="m37.5 6.5 109-22-1.595907 29.5242711-1.275736 23.6011215-1.128357 20.8746074 9.5 23-35.5-60.5-13.5-6.5-6.5-19-52 4 8 26.5-57.5 109-20-34z" fill="#99789e" mask="url(#mask-6)"/>
                    <path id="Rectangle-3" d="m-42 107 30.5 20.126828 38-17.126828 38.5426762 32 6.4573238-6.5 22 6.5 56.5 35h-192z" fill="#99789e" mask="url(#mask-6)"/>
                    <path d="m91 117-5.5 5.5-17-5.5-14-13 26.2431951 12.05922z" fill="#99789e" mask="url(#mask-6)"/>
                </g>
            </g>
            <g id="Front-Arm" transform="translate(91 82)">
                <use id="Mask" fill="#b4ca91" xlink:href="#path-7"/>
                <path id="Path-4" d="m156.433655 25.4268421 12.066345 36.0731579-7 66.5-57.5 79.5-15 48-14.5 9h-24.5l-11-9-8-10.5-36.5-7 9-25.5 6.5 11.5 19 8 31-19.5v-21l26.4375618-48.909489 13.5624382-25.090511-11-26 5.5-53.5 31.5-37h16z" fill="#a2b683" mask="url(#mask-8)" stroke="#b4ca8d" stroke-width="3"/>
            </g>
            <path id="Line" d="m100.5 72.5 4 1v3l-7.5-3z" fill="#a2b683"/>
            <g id="Head" transform="translate(85)">
                <path id="Path-5" d="m70.5 35.5-7-17-17-15.5-31.5 4-12 17 1.5 5-2.5 18.5 5 4.5-1.5 7.5 4 1 5 13-2.2198607 1.1538519 3.7198607 13.8461481 7.5 3 29-15.5v-21z" fill="#b4ca91" stroke="#b4ca8d" stroke-width="3"/>
                <path id="Path-5" d="m72.5 36.5-5-20.5-21-16-33.5 5-13 15 2.5 9 17.5-9.5 21.5 20.5 13.5-7 10 11z" fill="#333"/>
                <path id="Path-6" d="m1 48 6.95446774-.2897695 17.04553226-.7102305-14 7-3 4.5-2.5-5.75z" fill="#a2b683"/>
            </g>
        </g>
    </g>
</svg>
