<svg id="Ebene_1" viewBox="0 0 450.76 599.66" xmlns="http://www.w3.org/2000/svg" xmlns:xlink="http://www.w3.org/1999/xlink" data-name="Ebene 1">
    <clipPath id="clip-path" transform="translate(-74.62 -.34)">
        <path d="m74.62.52h450.57v451.88h-450.57z" transform="matrix(.99999877 -.0015708 .0015708 .99999877 -.34 .46)"/>
    </clipPath>
    <clipPath id="clip-path-2" transform="translate(-74.62 -.34)">
        <path d="m74.62.34h450.76v452.06h-450.76z" transform="matrix(.99999877 -.0015708 .0015708 .99999877 -.34 .46)"/>
    </clipPath>
    <ellipse cx="225.38" cy="571.34" fill="#202020" opacity=".7" rx="198.97" ry="28.31"/>
    <g clip-path="url(#clip-path)">
        <path d="m273.84 331.59c-101.7-26.22-169.21-117.83-169.18-218.22a225.59 225.59 0 0 0 83 307.88 226.47 226.47 0 0 0 86.24-89.63" fill="#6299bf" transform="translate(-74.62 -.34)"/>
        <path d="m404.68 195.52c28.15 101.22-17.39 205.48-104.34 255.68 124.47-.18 225.23-101.26 225-225.77a226.31 226.31 0 0 0 -120.7-29.91" fill="#80ccec" transform="translate(-74.62 -.34)"/>
        <path d="m221.49 150.2a223.84 223.84 0 0 0 78.51 75.57 225.22 225.22 0 0 1 225.39-.36 224.36 224.36 0 0 0 -30.39-112.66h-.05c-86.9-50.23-200-37.55-273.5 37.42" fill="#80ccec" transform="translate(-74.62 -.34)"/>
    </g>
    <g clip-path="url(#clip-path-2)">
        <path d="m273.82 331.58a224 224 0 0 0 26.18-105.8 224.25 224.25 0 0 1 -78.53-75.56 226.63 226.63 0 0 1 -34.47-119.51 226.18 226.18 0 0 0 -82.37 82.63c0 100.39 67.48 192 169.16 218.21" fill="#87d7f9" transform="translate(-74.62 -.34)"/>
    </g>
    <g clip-path="url(#clip-path)">
        <path d="m404.68 195.55a223.66 223.66 0 0 0 -104.68 30.23 224.29 224.29 0 0 1 -26.16 105.81 226.42 226.42 0 0 1 -86.23 89.62 224.1 224.1 0 0 0 112.73 30c87-50.19 132.49-154.47 104.34-255.66" fill="#507c95" transform="translate(-74.62 -.34)"/>
        <path d="m221.47 150.22c73.53-74.99 186.62-87.67 273.53-37.45h.05a225.5 225.5 0 0 0 -308.05-82.08 226.65 226.65 0 0 0 34.49 119.53" fill="#6299bf" transform="translate(-74.62 -.34)"/>
    </g>
</svg>
