<svg id="Layer_1" enable-background="new 0 0 1728 1296" viewBox="0 0 1728 1296" xmlns="http://www.w3.org/2000/svg">
    <path d="m1065.7 443.4c-13.8 6.6-24.4 17.7-37.2 25.7-1.4.9-2.3 1.9-2.5 3.5-1.2 2.6-3.9 2.9-6.1 4-7.5 3.7-9.9 8.2-8.1 16.3 1.3 9.7-3.5 19 1.8 28.4 3.8 8.3 3.2 17.4 2.6 26.3-3 15.8 1.3 68.4-11.3 75.1-3-1.3-2.2-4.1-2.4-6.5 1.1-13.4-2.2-26.5-1.7-39.8 4.8-7.5 1.9-17.1 2.6-25.5.7-5.7-5.2-10.3-3-15.9-.4-2.2-2.4-3.3-2.9-5.3.6-9 1.2-9.8-9-10.8-27.2-3.6-54.4-7.7-81-14.3-1.6-1.2-4.3-1.1-4.8-3.7 2.9-3.1 6.5-2 9.8-1.3 7.8 1.6 24.5-1.4 26.1-10.3-10.3-8.5-25.1-10.8-32.9-23-2.8-3.5-6.4-1.4-9.7-1.3-7.7-1.4-12.4-8-19.1-11.6-7.1-3.6-13.5-5.3-8.8-13.1 3.3-2.4 8.6-13.6 12.6-10 9.8 5.6 20.9 8.7 30.1 15 16.8 11.5 35.8 18.7 53 29.3 9.7 7.2 15.5-7.6 20.2-14.2-3.7 5.6-11.3 20.1-18.2 10.6-4.9-7.6-16.4-15.4-7.7-24.4-6.9 9-11.1-2.2-14.3-7.8-3.7-4.6-5.3-9.4-.8-14.3-2.3-1.9-4.4-.3-6.3-1.2-10.4-10.8-6.6-23.3-20.9-34.4-11.4-7.4 5.1-12.7 10.1-17.5 4.7-1.2 10.2 21.9 14.2 26.6 5.9 8.6 13 24.1 25 22.9 3.6-.1 5-2.7 5.4-5.7.6-4.5 2.1-8.5 3.8-12.6 4.6-10.2-3.3-19.2-4.1-29.1.3-2.7 2.3-4.7 2.9-7.3-.2-4.9-4.4-8-8.4-9.9-16.5-12.5 26.9-19.5 34.7-19.7 4.4-.2 4.1 6.2 4 9.1-.3 25.2 9.1 104.2 28.8 36.5 5.9-19 13.8-37.6 29.1-50.8 1.9-1.9 4.1-2.9 6.8-1.6 5.3 2 35.3 9.2 20.4 15.7-19.6 7.3-36.1 21.9-39.2 43.2 2.9-3.5 4-7.5 4.8-11.7 2.1-10.4 12.7-19.5 22.9-20.2 8.8.9 10.7 12.8 15.6 18.8 7.1 11.5-13.2 18.6-14.8 4.9-.5-7.4-9.5-11.2-13.3-2.5 6.4-9.1 13.2-4.6 12.8 7.9 5.5 2.1 12.6 6.1 13.3 12.8.2 2.7-.1 5.4 1.2 7.9 5.1 9.2 4.1 23.1-2.4 31.1-3.1 3.3-.8 7.8-4.8 10.6-5.3 1.5-10.6 1.5-15-3.3-1-1.5-2.1-2.9-3.9-1.6z" fill="#302c2c"/>
    <path d="m489.3 702.7c-6.4-68.2-4.6-147.3 47.2-198.9 9.4-4.9 21.3-10.4 29.8-.9 5.4 5.6 6 12.2 2.2 18.7-17.5 26.3-15.3 65.7-46.8 80.7-5.5 2.1-12.7-.2-17.3 4.5-4.4 13.2 15.1 18.7 22.1 27.8 10.3-2.2 18.2-14 29.1-7.7 4.9 1.9 5.2 6.9 5 11.5-.7 12.6 1 25.1 2.5 37.6 10.7 27.4-.1 22.5 4.7 44.7 2.8 22.1-21.5 35.5-33.4 51.1 8.1.5 17.8-10.1 24.2-4.6 4.8 13.1-12.1 17.9-18.5 26.6-5.3 4.5-13.6 1.1-20 3.9-10.5 1-2.2-13.4-.8-18.3-1.5-1.6-2.8-1-4.1-.8-9.2 1.3-17-4.3-18.5-13.7-5.4-20.4-5.1-41.4-7.4-62.2z" fill="#292421"/>
    <path d="m846 501.7c.4-.4.8-.9 1.1-1.3 2.8 1.9 2.6 4.5 1.7 7.2-2.5 13 11.9 22.9 18 32.5 4.3-.3 6.3-2.7 8.6-4.7 5-2.9 15.6-12.7 21.1-10.5 2.3 5.5 4.8 10.9 4.1 17 11.1 3.1 22.5 1.8 18.1 17.1 4.6 4.7 7.3 11.1 13.3 14.9 4.9 3.1 4.7 6.2.1 10.1-2.3 2-4.9 3.8-6 7.6 3.9 4.2 8.5 8.3 10.3 13.5 1 .9 1.3 1.1 1.7 1.2 10.5 1.3 10.5 1.3 13.3 12.1 5.8 10.2 5.9 21.3 6.4 32.5.3 2.5-1.7 4.2-4.1 5-6.1-.3-6.5-7.3-11.4-9.7-2.9 9.2 8.5 14.8 7.7 24.7 1.5 4.5-3.6 10.9-6.4 4.5-3.2-11.1-6.7-22-11-32.8-6.5-9.9 8.8-17.2-.9-27-8.7-9.3-21.4 2.9-16.8 13.3 1.3 4.2.4 7.5-2.1 10.8-6.2 7.8-11 16.7-16.7 24.7 5.3-4.7 17.8-29.4 24.2-29.9 11.6 0 11.5 3.8 13.7 14.5-1.5 9.9 10.6 26 5.7 32-2 2-3.9 4.1-5.1 6.8-4.6 11 6.5 17.9-3 27.9-4.4 7.2-13.8 6.6-19.5 11.8-11.4 4.4-25.3-3.4-36.7-5.9 1.1-4.9-3.3-5.1-5.8-6.9-7.6-2.2-11-9.5-16.9-13.9-13.1.7-24.8 8.5-37.9 7.4-3.8-3.9-4.9-8.7-5.1-13.9 1.5-2.4 3.6.5 5.7-1.2 1.5-7.9 10.5-8 14.5-12.7 3.7-1.4 6.3 1.8 9.6.1 2.2-7-7.1-11.6-2.1-13.8 1.6-.9 1.8-2.2 1.1-3.7-3.5-12.8-4.9-27.2-3.3-40.2-1.2-.8-1.8-.5-2 0-2.4 7.2-7.5 12.2-13 17.2-28.3 24.8-23.5-13.2-25.4-31.3-.2-13.6-7.6-40.6-.2-51.2 3.3 1.6 2.2 4.6 2.2 7.1 0 7.4.7 14.7 3.1 21.8 3.4 12.7 19.2 5.3 22.4-3.6 7.5-19.5 33-15.8 26.9-44.4-1.6-9.4-17.6-34.1-3.2-36.7z" fill="#36302e"/>
    <path d="m577.4 487.4c5.9-2.8 11.7 1.4 17.6.2 4.3.8 8.2 2.8 10.7 6.1 13.3 15.3 29.6 28 37.4 47.3 23.3 51.3-7.5 106.6-30.1 152.4-2.7 16-11 29.6-18.3 43.6-.3.7-.8 1.3-.1 2.6 10.8-5 16.8-18.4 28.1-22.2 2.7 3.2.3 5.8-1 8.4-17.2 35.5-37 69.4-54.5 104.8-11.8 2-23.6 6.8-30-7.6 7.7-7.6 12.9-17.9 22.9-23.6 5.7-3.2 8.4-8.2 8.9-14.7 1.3-15.6 15.9-22.5 21.3-36.6-6.1 2.2-9.6 8-16 7.3-4.3-2.5-4.5-6.5-3.7-10.6 2.2-10 10.3-17.2 14.5-26.3 7.5-12.2-5.6-17-2.8-28.5 2.4-9.9 1.1-19-4.6-27.7-.5-10.3-15-64 6.4-32.2-3.9-4.3-7.3-14.5-14.3-14.3-2.5-1.3-6.4-.1-7.5-4 8.7-4.1 13.3-5.9 7.6-15.6-1.3-2.4-1.8-4.6-.7-7.1 2.3-3.9 2.5-12.2 7.2-13.5 3.2 3.8-.5 7.8.3 11.7 9.7-7.7 19.1-10.9 28.9-.6 5.5 5.6 6.3 6 11.8 6.5 11.9-10.9 6.5-30.7 11.8-44.8 8.8-22-35.5-43-49.1-56.6-1.6-.9-3.6-1.9-2.7-4.4z" fill="#463b31"/>
    <path d="m1089.1 398.3c.7-3.9-3.4-4.6-4.7-7.1 1.6-1.2.2-3.2 1.1-4.6 1.5-.2 3-.3 4.3-.5 4-6.2-2.4-22-10.3-27.8-23.5.7-22.3 22.4-31.1 36.3-3-23.1 19.8-46.1 41.3-51.4 2.5-.5 2.4-2.7 1.8-4.7 7.7 4.4 16.3 1 24.3 2.6.3 2-1.1 1.9-2.3 1.9 1.1.7 3.3.8 2.2 3.1-5.5 1.2-10.8-2.1-15.3-1 13.3-.8 22.9 7.9 32.3 16.8 5.5 6.1 17.6 17.9 5.6 23.8 8.7 0 11.2 9.4 1.2 11.5 3.2 1.2 7.9-3.7 9.1 1.8 1.3 21.4-6.5 39.5-20.5 55.9 11.1-1.8 16.4-11.8 25.1-16 3.6 3.6 2.1 6.8 1.2 9.9-3.9 13.6-9 26.8-12.8 40.4-3.2 12.2-8.3 23.3-16.6 33 2.8 7.4 5.9 14.9-3.3 20.3-18.1 1.4-33.2-13.5-44-26.2-6.7-8.1-6.5-17.3-1.8-26.5 2.8-1.1 4.3 2.3 6.9 1.9 3.4 2 7.3 3.4 9 7.4.8 7.5 12 12 18 15.3-9.8-6.3-24.4-14.3-1.9-14 9.8-9.1 19.7-32.4 1.3-37.1-10.3-1.6-20.4-3.9-30.7-5.6-1.4-7.3-7.1-10.7-12.7-14.3.1-.9.3-1.7.4-2.8 10 7.9 17 8.9 19.3 2.9 5.9 1.5 2 7.1 13.3 4.9 5.1-5.6 4.6-7.4-4.4-14.7-3.9-29.8 13.6-12.7 20.2-28.5 1.6-7.6 1.6-10.3 9.3-11.1-3-.5-6 .7-8.9.2-8.4-5.3-16.5-10.5-22.4.6-1 1.4-1.2 3.5-3.5 3.4z" fill="#433b34"/>
    <path d="m794.9 557.4c-5.7 22.5 3.7 45 1.6 68-.7 6.9 2.9 14.2 4.7 21.8 17.5-3.8 26.1-16.7 34.4-30.5.1 16.4.2 32.2 4.6 47.6-16.3 9.4-37.5 8.6-56 11.8-6.2 3.7-101.1-2.2-72.1-15.5-19-8.8-2.5-15.3-3-30.1.9-13.3 3.2-26.5.5-39.9-.8-3.7.4-7.3 2.5-10.5 1.3-2 2.7-4 2-6.5-2.7-9.1-.4-18.1.2-27.1 1.7-8.2-2.2-26.4 10.5-25.6 8.1 2.4 8.8 3.6 9.1 11.7 1.2 13.8-3.2 27.9-1.7 41.4 2.1 6.8 1.2 13.4-.3 20-2.3 10.6-3.9 21.3-2.9 32.2-2.2 9.7-3.5 19.6-4.9 29.6 5.1 16.3 49.7 8.7 48.9-8-.3-26.8 7.1-53.3 2.1-80.1-2.4-19.4 1.2-39 3.2-58.3 1.1-6.2 3-7.5 8.9-6.8 3.4-.5 5.1 4.7 8.9 2.6 5.7-.9 2 49.5-1.2 52.2z" fill="#2e2a29"/>
    <path d="m575.2 755c5.3-3.3 10.7-6.5 17-10.3-.7 17.7-22.4 24.4-22 43.9-.1 4.9-3.1 9.1-7.9 11.4-10.6 5-14.9 16.6-24 23.4 1 4.1 7.7 2.8 7 7.4 7.8 3.6 14.7-3.6 21.8 0-5.8 9.9-13.7 16.8-25.4 18.6-11.6 7.9-38.5 4.8-52.8 4-6.1 8-10.4 17.4-20 21.6-11.5 5.5-26 8.9-38.3 4.5-2-4.9.2-9 3.2-12.5 6.3-7.1 11.3-15.1 17.7-22.1 7.8-8.7 11.2-20.3 17.5-30 6.7-10.4 8.7-22.6 13.9-33.6 4-8.5 9.6-16.4 9.9-26.3 0-1.3.8-2.6 2.1-3.3 4.8 12.6.5 17.3 13.3 26.2 4.5.5 9-2.8 14.1-1.2-1 6.8-7.6 12.2-5.7 19.7 21.1-.4 42-15.2 40.6-28.9-1.3-.2-2.8-.4-4.2-.6-.5-4.8 18-10.7 22.2-11.9z" fill="#39312a"/>
    <path d="m875.1 721.3c3.8-4.2 25 9.4 36 4.7 5.7-3.5 12.4-.5 18.3-2.3 15.5-5.4 31.2-10.4 42.9-22.9 13.4-16.2 22.2-36.5 25.6-57.2.8-3.2 1-6.6 2.7-9.5 2.3-4.2 10.5-8.9 10.5-.8.1 3.5 0 7-1.4 10.3-7.6 18.2-14 36.6-24.1 53.6-9.1 17.6-10.7 38.2-22.1 54.6-5.8 6.7-5.7 15.8-8.5 23.8-4.1 7.5 9.7 16.4-3.9 19.4-12.7 1.2-19.1 13.8-21.6 7.3.2-18.4 6.4-36.9 7.9-55.4.6-4.5 3.6-8.8 2.5-13.4-1.8-.8-2.9.1-3.9.9-11.5 7.7-18.4 19-25 30.6-10.6 7.8-16.4 19.4-24 29.5-4.7 6.3-9.5 11.8-17.5 14.3-7.6 2.4-14.3 7-18.6 14-4 6.4-10.4 10.3-15.7 15.3-1.1 1-3.5 3.4-4.3-.6 10.8-40 30-77.3 44.2-116.2z" fill="#2e2a29"/>
    <path d="m603.3 763.3c-1.5-3.2.9-5.4 2-7.9 5.5-12.7 13.4-24.3 17.5-37.6-.6-3.6 2-5.6 4-7.8 13.7-15.3 23-33.1 29.8-52.3 1.4-4.5 6.2-4.2 9.6-2.2 11.6 5 23.4 8.7 35.8 11.2 26.3 6.2 52.8 12.1 80 9.9 5.9 1.4 28.1-7.4 24.6 3.7-5.6 30.3 20.3 30.3-24.7 33.5-6.1.4-5.2-7.7-7.8-11.4-3.1-7.8-13.6-2.6-20-3.7-7.3.3-10.8 6.2-15.8 9.4.2 2.9 2.9 4.1 2.3 6.3-4.2 6.7-24.2 3.7-29-1.5-.7-3 1.3-6.6-2.1-9-5.3-2.7-10-1.8-14.2 1.8-1.4 1.7-.2 3.8-2.3 5.7-1.9 1.5-4.8 1.1-7.5-.1-9.5-4.2-19.2 1.4-29.1 0-.3 11.4-8.5 19.2-12.7 28.8-11.8 10.4-26.2 16.6-40.4 23.2z" fill="#37302a"/>
    <path d="m577.4 487.4c10.4 8.2 21 16.2 31.2 24.6 11.2 9.9 28 19.6 22.2 37.3-5.3 15-1 33.2-11.7 46-18.1 2.5-18.1-29.8-44.1-3-2.1-6.1 2.1-11.2 1.3-16.6-1.8-2.3-.2-9.6 1.5-11.6 2.5-1.3 4.8 1 7.2 0 6.3-5 5.9-10.1-1.3-14.1 8.4 5.8 4 12.1-4.7 11.5-7.8 8.8-8.1 19.3-10.5 29.3-4.3 3.2-11.1 2.5-11.5 9.6-.2 1.2-.8 2.1-2.6 3.6-9.7-.1-26.3 9-35.1 2.1-2.2-1.5-4.4-2.5-6.8-.4-2 1.4-5.3.9-6.3 4-.8 2.4.7 6.8-3 7-8.3-25.2 28.5-3.9 41.1-39.8 7.6-19.1 12.9-39.2 23.2-57.2 6.9-11.6-6.8-23.9-18.4-19.6-4.2 1.2-7.7 4.8-12.6 3.8 11-12 25.8-14.8 40.9-16.5z" fill="#3a332e"/>
    <path d="m787.1 502.7c-2.3.2-3.3.4-5.6 1.7-6.9 29.2-4.8 58.9-2.7 88.4-.1 10.7-3.1 21.1-2.9 31.5.2 7.8-2.3 15.4-.9 23.2 1.2 6.7-2.3 10.5-8 13-12 5.4-24.3 9.4-37.2 3.9-5.6-2.4-10.9-5.8-6.3-13.7 1.6-2.7.4-6-.8-9.7 6.9-8.3 3.7-18.8 4.4-28.5.7-9.3 3.2-18.2 4.4-27.3.7-5-2.4-8.9-1.8-13.5.4-2.8-1-5.8 1.2-8.4 4 6.6 11.1 6.6 16.8 8.3 1.9-.7 2.8-1.5 3.2-2.6 5.8-15.5 16.5-29.5 14.4-47.4-.4-3 1.3-5.6 2.1-8.3.3-3.4.4-6.7-1.9-9.6-3.7-13.8 15.7-3.1 21.6-1z" fill="#37312d"/>
    <path d="m830.8 837.4c18-5.6 20-26.8 42.2-31.7 17-9.6 21.3-31.8 38.4-43.6 5.3-13.9 15.6-24.6 29.5-32.8 2.6 4.9.7 8.3-.8 11.8-8.1 1.3-10.2 11.9-13.9 18.1-2.9 7.4-6.2 14.6-11.2 20.9-2.9 3.7-4.5 8.2-5.3 12.8-3.8 19.3-10.9 37.5-18 55.8-5.7 14.8-16.4 25.1-30.6 31.9-10.4 3-22.3 14.8-32.8 7-3.5-.4-6.8-1.1-8.7-4.1.2-16.5 5.5-31.3 11.2-46.1z" fill="#433930"/>
    <path d="m1121.6 542.5c6-6.6 6.1-13.4 1-19.5 19.6-24.3 21.5-54.7 31.2-82.3-9.2 7.4-17.3 15.3-31 17.8 16-17.6 25.2-36.4 24.3-59.2 5.4.9 2 14.7 1.3 18.6 3.9-9.5 3.4-38.8-7.3-43-10.3-12.4-23.2-29-40.9-27.9-2.1-.3-4.6 1-7-2.2 8-3.1 15.2.3 22.4 1 14.5-1.4 32.7 16 40.3 27.6 1.6 2.7 4.2 4.6 7.8 3.9 4.5-2.2 2.9-8.9 8.2-10.9 7.6.7 7.1 7.8 9.2 12.7 2.6.4 1.6-3.8 4.2-3 .2 7.1.9 14 1.2 21 1.2 17.1-5.9 32.7-10.3 48.8-4 16-20 74.2-37.8 75.6 11.9 4.3-9.6 22.1-16.8 21z" fill="#655952"/>
    <path d="m914.5 379.3c-.7 1.3-1.4 2.7-2.3 4.6 6.8 3.1 9.2 10.8 15.5 13.8 1 9 5.7 16.4 8.4 23.9 3.6 1.5 7.7-3.5 9.7 2.4-1.6 2-3.2 4.1-5.1 6.6 4.9 5.9 6.3 13.7 12.6 18.7 3.3-3 6-5.5 10.1-9.3-1.4 6.4-7.1 8.2-7 14.7 2.9 6.3 8.8 12.2 13.7 18.3 8.9-2.8 8.8-13.4 18.5-18-4.4 10-9.5 17.2-16.2 22.5-4.3 3.3-8.9-1.7-13.1-3.9-13.9-7.3-27.8-14.7-43.3-22.9-2-3.8-7.8-5.8-13.2-8-9-3.6-16.9-9.7-26.4-12-4.3-2.1-8.6-3.4-4.2-8.2 5.3-8.5 10.5-17 18.2-23.6 1-.9 1.8-2 2.1-3.4 6.3-6.6 14-11.6 22-16.2z" fill="#4b4239"/>
    <path d="m868.1 440c-1.4 7.5 1.2 8 7 10.3-8.1 5.1-8.1 5.1-6.9 11.6-1.4-8.1 3.6-7.4 9-10.2 7 2.8 11.3 9.8 18.9 11.6-1.8 5.4-8.8-.2-12.6-.3 3.8.8 7.3 2.6 11.4 3.3 3.4-2.2 7.3-2.5 11.4-1.8 8.5 12.5 23.5 15.6 35.7 24.4-10.1 15.5-24.9 12.5-39.1 11.6-4.1 3.3-25.5-3.6-32.2-4.1-14.2-4.7-16.4 3.8-22.7 2.9 1.4-2 2.8-4 4.7-6.8-4.2-.9-7.8-1.7-11.4-2.5-7.2-13.4 17.9-39.9 26.8-50z" fill="#453d3a"/>
    <path d="m1007.5 629.4c-1.9 1.6-3.8 3.2-5.7 4.7-1.4-1.3-1.5-3.1-1.4-4.8.8-10 .2-20.1.5-30.2.1-2.8-.3-5.9 2.1-8.1 2.6 10 .1 20.2 1.6 31.3 11.8-19.4 6.8-60.2 9.8-84 1-17.4-10.9-22.5-3.6-41.9-4.7-13.6-1.9-18 15.1-23.9-6.4 24.3-16 47.1 4.5 67.6 18.6 24.6 10.5 75.2-.9 102-3.3-.1-5.5-1.9-6.8-4.7-7.6-12.1-1.6-25.8-1.8-38.8-2.2 10.8-4.2 23.5-13.4 30.8z" fill="#594a3c"/>
    <path d="m794.9 557.4c0-17.3 3.8-35 1.2-52.1 2.1-4.1.2-8.7 1.2-12.9 10.5-12.4-4.2 74.6 4.2 78.4 4.5 2.4 9.3-.7 9.9-5.4 2.4-9.4 5.4-18.6 6-28.4.3-4.5 1.6-8.8 2.9-13 1.5-3.1 2.8-5.8-.7-8.6-7.6-10 5-11 11.1-15.1 4-3.3 10.4 1.3 15.2 1.4-11.3 5 3.9 28.5 5.1 38.1 2.9 9.3-4.5 25.3-13.7 28.7-7.1 2.6-11 7.6-13.5 14.1-2 5-5.4 8.4-10.1 10.7-20.5 9.4-18.8-23.5-18.8-35.9z" fill="#463c35"/>
    <path d="m397.6 823.7c15.7-26.9 37.8-48.8 56.3-73.5 7.5-7.3 20.8-35.1 31.3-30.6 6.1 5.6-.5 14.2-1.6 20.8-6.1 23.9-20.1 43.1-37.8 59.2-5 4.4-53.3 48.1-48.2 24.1z" fill="#5f524a"/>
    <path d="m397.6 823.7 1.5 6c34.1-5.1 98.4-87.1 85.6-109.1-2.9.2-5.7.4-8.6.6 3.5-4.7 7-9.5 10.5-14.2 2.8.5 3 3.5 4.9 5 3 24.3-2.8 49.7-17 69.8-15.8 18-28.6 39.8-47.8 54.3-6.5 3.7-12 8.5-16.9 14-7 7.8-16.2 13.2-22.8 21.5-4.7-.8-9.8-4.1-12-8.5 4.6-15 13.3-27.4 22.6-39.4z" fill="#534941"/>
    <path d="m1016.9 608.6c1.3-5.5 2.7-11.1 4.6-19.1 5.2 19.9-9.8 38.5 8.1 52.7-3.5 10.3-8.6 19.7-15.5 28.1-4.2 6-3.4 13.7-8 19.4-12.2 11.7-16.3 27.3-19.9 43-1.1 10.2-6.9 18.9-8.9 28.7-.1 11.2-4.1 21.6-5.4 32.6-.3 2.9-1.3 5.7-2.8 8.2-4.2 7.3-3.9 15.7-5.9 23.5-.4 1.5-.1 3.1 1.2 5.3.8 1.7 5 1.8 4.9 5.5-5.8 6.2-14.2 17-23.5 12.9 1.5-6.4 2.5-12.8 1.1-19.4 1.7-8.8 4.9-16.2 2-25.2 2.3-7.4 13.3-5.8 12.7-14.8.2-5.8.6-11.5-1.2-17.3-4.4-16.4 14.6-25.4 15.4-44.3 1.9-10 4.1-20.1 9.3-29.1 1.7-3 3.6-6 3.4-9.7-.1-1.2.4-2.4 1.3-3.2 15.3-20.7 23.3-46.5 27.4-71.8.4-1.9 1.4-4.1-.3-6z" fill="#393029"/>
    <path d="m543.9 854.9c8.6 24.3 17.3 48.6 26.2 73.7-13.1 6.1-26.2 4.2-39 4.3.3-7.6-2.6-14.1-6.1-20.7-12.4-23.8-15.8-54.6 18.9-57.3z" fill="#9b8671"/>
    <path d="m969.3 342.6c-.6 4.5-6 4.5-7.5 8.5 1.7 5 8.7 4.1 10.8 8.9-1.4 1.8.5 3.7.3 4.2-1 3.9-2.8 5.6-4.4 7.5 4.7-.9 3.1 6.1 5.2 8.6 8.2 13.8.3 26.5-2.8 39.4-1 4.2-12.6 4.5-16.5.1-5.8-6.6-12-13.1-15.6-21.4.6-.5 1.5-.3 2.6-1-4.1-12.9-13.2-25.2-13.1-39 12.3-8.9 27-11.5 41-15.8z" fill="#5f5044"/>
    <path d="m543.9 854.9c-2 2.4-5 2.7-7.7 3.6-35.5 9.7-9.8 47.9-2.6 70-.8 1.5-1.7 3-2.5 4.5-11.3-.1-22.5-.2-33.8-.3-.5-2.9 3.8-2.1 5.5-3.9 1.2-4.4-.6-8.6-2.8-12.3-6.8-11.3-7.3-23.8-7.7-36.4.9-9.8 14.4-23.7 23.7-27.3 8.6-1.1 17.2-2.2 25.8-3.3.7 1.7 1.4 3.6 2.1 5.4z" fill="#75685d"/>
    <path d="m872.8 956.2c-11.8-.7-23.8 2.3-35.4-2.1.6-17.4 6.9-36-12.9-46.8-1.1-3.1-1.3-5.7.6-8 2.1 1.3.8 3.5 3.2 4.9 41-1.4 41.4-24.6 60.9-23.6.2 5.1-12.3 14.6-16 19-10.1 7.1-1.1 16.1-1.2 25.5-1.6 9 5.7 25.2.8 31.1z" fill="#7f746f"/>
    <path d="m969.2 836.4c-2.6-1.7-5.2-3.3-7.9-5.1-1-7.9.9-15.8 3.4-22.6 5.7-15.3 8.1-31.1 10.8-47 2-12 8.3-23.1 10.4-35.3 2.9-16.6 10.7-30.7 22.9-42.3-8.9 38.9-17.6 77.9-26.7 116.7-2.7 12.2-2.7 26.6-12.9 35.6z" fill="#564634"/>
    <path d="m921.6 953.6c-12.4 1.5-24.7 3.1-37.3 2.6-.6-2.1 2.1-2.7 2-5.6-4.7-12.9-4.4-27.7-6-42.2-.8-7.1.7-13.2 6.3-18.3 6.9-5.4 10.2-21.9 21.6-17 1.8 2.8 5.7 4.6 4 8.9-7.3 1.3-12 7.5-9.1 14.2 7.2 16.5 10.1 34.6 19 50.5 1.4 2.2 3.2 4.9-.5 6.9z" fill="#bca796"/>
    <path d="m712.3 712c5 4.7 20.8 6.1 27.7 2.1-1.4-1.3-2.7-2.6-4-3.8.7-4.9.7-4.9 7.6-7.6.4-1.2 1-2.7 1.4-3.8 8-3.5 16.3-.8 24-3.1 2.9 1 5.5 2.2 6.2 5.6-1.4 1.8-4.2.6-5.9 2.2-8.3-.2-20.1-2-25.8 5.5-.4 4.7 6.7 3 8.3 6.6-5 8.1-17 10.9-25.3 15-16.3 2.7-39.2-7.5-55.3-13.4-8.9 7.8-16.9 16.8-27.4 22.7.6-9.8 8.8-16.3 11.5-25.5-1.2-1.7-2.2-3.3-4-6.1 14.5 3.8 28.1-4.9 40.3 3 2.7-2.7-.3-4.9 1.9-6.6 5.3-4.3 11-6.4 17.5-1.9-.3 1.8 1.8 3.1.8 5.1-3.4 4.3-3.7 4.4-10.3 3.4 3.6 1.9 7.3-1 10.8.6z" fill="#514538"/>
    <path d="m1185.4 376.1c-.6 1.9-1.2 3.9-1.9 6-1.9.2-3.4-1-4.9-2.5-.1-5.1-.4-10.3-7.3-12.4-2.2 7.2-8.1 18.9-15 9.1-7.1-10.6-16.6-18.4-26.7-25.6 1.9-3.5 6.6-3 9.4-6.3-6.7-3.7-14.2 1.4-20.1-3.3 39.9-3.8 26.3 11.3 59.1-20.5 8.5 1.4 8.6 2 5.8 20.7-.1 1.9 2 1.7 2.5 3 1.3 2.9.3 5.7-.4 8.5-2.4 7.8-2 15.5-.5 23.3z" fill="#504640"/>
    <path d="m921.6 953.6c.7-1.4 1.5-2.8.4-4.3-10.4-15.9-12.4-35.2-20.5-52-3.6-7.5 1.7-12.6 6.7-17.7 1.5.8 2.8 1.5 4.2 2.2 16.5 3.5 23.5 34.3 27.9 48.4 3.6 2.7 8.7-.7 11.5 3.1-4.4.4-8.7.8-13.3 1.3-1.7 12.9.6 19.7-16.9 19z" fill="#e1ba91"/>
    <path d="m825.3 901.5c-1.4-5.3 5.9-8.2 3.2-13.9 16.4 2.9 28.6-7 41.4-14.3 16.9-9.5 20.9-27.7 27.6-44 5.9-14.5 6.7-30.9 13.8-44.6 7.1-13.6 13.3-27.7 21.4-40.8 1.1-1.8 2.7-8.4 7.5-2.8-12.2 24.3-22.5 50.1-29 76.8-7.3 26.9-18.3 56.6-46.8 67.3-1.5.5-2.9 1-4.2 2.1-1.4 1.7 1.1 3.2.4 4.7-2.8 7.2-30.4 16.3-35.3 9.5z" fill="#504944"/>
    <path d="m1078.4 457.7c.3-1.2.8-1.9 2.4-1.6 9.9 2 20 3.5 29.9 5.9 19.8 6.9 7.9 31.1-3.1 41.6-4.7-4.7-14.8 4.1-16.3-4.2-3.7-4.4-15.9-7.6-12.8-14.1 3.1-9.2-1.2-18.4-.1-27.6z" fill="#2f2b2c"/>
    <path d="m951.8 933.1c-1.6-.2-3.1-.3-4.6-.4 1.6-5 8.6-1.3 12.2-3.5 1.3-2.3.1-4.2-.7-6.1-7.7-18.9-7.7-38.3-3.7-58 1.4-7.5 10.2-9.9 15.4-14.7 2.6 6.7 5 13.5 11.6 17.5-.3 3.1-3.8 2.1-5.2 4.1-15.5 34.3 15.3 53.1 5.3 58.7-10.1.8-20.2 1.6-30.3 2.4z" fill="#9c8875"/>
    <path d="m982 930.7c.6-1.3 1.2-2.7 1.7-3.8-13.5-17.7-16.8-36.5-8.4-57.2 2.3-.6 4.4-1.2 6.6-1.8 12.8 9 24.4 43 18.6 56.8-3.4 8.1-11.9 5.1-18.5 6z" fill="#b19579"/>
    <path d="m949.5 931.7c-3.4 1.7-7.2.7-11.1 1-3-18.3-8.9-34.9-21.7-48.4 12.6-16.9 27.3-33.8 47-41.9 4 3.8 7.7 8.2.8 11-8.8 5.8-21.9 12.5-21.3 24.5 1 15.4 1.5 30.8 6.2 45.7 1 2.6 2.4 5.4.1 8.1z" fill="#75695e"/>
    <path d="m775.3 701.5c1.4 3.5 2.8 7 4.6 11.3 9.3-3.3 19.8.3 28.9-5.3 4-.3 9.6 13.5 10.7 17.5-19.2 3.8-35 6.8-53-2.3 3.3 2.3 9.2 1.6 12.5 6.2-1.5 2-3.6.6-5 1.6-14.7 1.2-29.3 2.3-44 3.5-.7-.5-2-.2-2.7-2 9-6 19.3-9.2 27.6-16.5 8.4-1.3 19.1-.5 20.3-13.8z" fill="#514538"/>
    <path d="m772.8 497c-3.3.6-8.3-.7-5.8 5.8-7.3 4.1-10.6.7-7.7 12.7-2.2 2.9-1.5 6.5-2.5 9.7-1.6 1.7-4.4 1.4-6.1 4 2.1-.2 3.2-1.8 4.8-1.8 2 0 4.2-.1 3.2 3-2 2.3-.6 4.8-.3 7.8-4.7 4.8-4.1 16.5-15.7 12.7-3.2 1.5-3.6 5.4-7.1 5.8-2.8-.4-3.6-2.3-3.4-5 .8-10.8 1-21.6-.8-32.3.1-3.6-.8-7.3 1.4-10.7 6.1-2 2.7 16.8 3.7 21.6 3.8-13.2-.2-26.2 4.4-38.7 11-1.5 21.9 1.5 31.9 5.4z" fill="#5d524a"/>
    <path d="m698.4 490c4.7 2.3 9.3 4.6 14 7-.8 4.2-4 6.9-6.6 10.1 5 7.5 15.4 6 19.7 13.6-7.5 5.3-16.7-4.5-24-5.3-2.6 1.2-2.9 3.2-3.2 5.1-2.3 14-8.4 26.9-12.1 40.5-2 4.3-1.8 21.2-9.4 16.9-1.6-12.1-3.9-24-5.2-36.1.8-2.8 3.1-3.9 5.5-4.6 5.1-1.6 7.2-5.2 8.1-10.3 1.2-6.6 1.4-13.5 4.1-19.8 2.2-2.5 1.6-5.3 1.1-8.2-1.2-6.4 1.8-9.5 8-8.9z" fill="#554a43"/>
    <path d="m898.4 876.1c-4.6 11.1-18.1 18.3-16.3 31.2 1.8 15.7 1.2 31.7 7.6 46.5-5.2 3.4-10.9 2.3-16.8 2.5-2.2-14.9-.3-30.3-6.4-44.7-2.1-5 1.3-8.8 4.6-12.3 5.9-6.3 12-12.4 18-18.6 2.1-3.6 5-5.5 9.3-4.6z" fill="#9b8c81"/>
    <path d="m949.5 931.7c-3.8-14.1-5.7-28.5-7.5-43.1-2.6-21.7 2.4-23 17.9-34.8 2.8-2.1 7.2-2.3 8.1-6.7.8 1.1 1.6 2.2 2.4 3.3-.1 2.4-1.8 4.3-3.5 5-14.4 5.5-11 18.7-12.5 29.3-2.8 16.7 4.6 31 8.7 47-5 0-9.3 0-13.6 0z" fill="#897a6e"/>
    <path d="m1139.1 532.1c-.7-2.8.7-5.2 2-7.2-2.4-4.2-7-.8-9.3-3.2 22.4-4.1 24.4-24.6 31.5-40.2 7.8-17.2 11.4-36 16.3-54.3 1.1-4.2 1.8-8.8 5.3-11.5 1.4-6.4-.9-12.7 1.6-18.6 3.1 50.3-12.2 98.9-47.4 135z" fill="#a08263"/>
    <path d="m1009.9 401.7c-.4-1.5-.8-3.1-1.2-4.6 9-5.7 11.4-14.6 12.2-24.5 1.3-5.8 4.2-28.7 12.7-16.1 7.9-4.9 13.2-13 18.8-17.7-4.5 4.3-10.1 10.4-18.5 15-3.1-7.9-10.6-27.5-6.7-34.5 13.7-.5 27.8 6.2 40.9 10.4-14.8 6.3-20.2 22.7-31.6 32.8-13.8 8.4-5.2 48.3-26.6 39.2z" fill="#4e453d"/>
    <path d="m822.8 522.6c-4.3 16.9-5.8 34.6-12.5 50.8-3.7 0-6.9 0-10 0-3.2-2.4-3.2-5.8-3.1-9.1.8-22.5 1.6-45.1 2.2-67.6 0-1.3 2.4-4.8-2.1-4.3 1.5-3.1-1.3-8.3 4.6-9.2 2.8 1.6 1.4 4 1.3 6.2-.1 17.6-3.8 36.8-.9 53.6 3.4-7-3.1-24.6 10.3-19.3-6.4-8.5 8.9-9.1 10.2-1.1z" fill="#65584e"/>
    <path d="m822.8 522.6c-3.4-4.7-8.3-5.4-10.8-1.6 1.4 2.9 4.8.4 6.7 2.7-4 3.7-8.3.6-12.6.3-2.5 7.9 1.8 17.2-6.1 26.5-1.3-24.3.3-45.8 1.8-67.3 11.2 5.4 22.4 10.8 33.6 16.2-5 4.8-13.2 4.6-17.7 10.7 1.5 2.2 2.6 3.9 3.8 5.6-3 1.9-4.7-1.9-7.3-1.5 2.6-.1 4.3 3.5 7.4 1.5 3.6 1.7 2.5 4.3 1.2 6.9z" fill="#89735e"/>
    <path d="m613.5 489.8c15.6-8 31.4-5.6 47.8-2.1 6.9.7 6.9 6.3 6 12-2.3 6.4-1.3 13.7-4.9 20.4-7.8-2.5-12.3-9-18.5-12.9s-13.1-6.5-19.3-10.2c-3.1-3-11.2-1.9-11.1-7.2z" fill="#4c433d"/>
    <path d="m814.8 707.3c12.7-3 25.4-6 37.2-8.8 6.1 5.6 11.7 10.8 17.3 16-13.8 3.5-27.5 7.9-41.7 9.3-7.7 2.1-13.9-11.3-12.8-16.5z" fill="#4a3f32"/>
    <path d="m613.5 489.8c2.9 4 8.9 1.9 11.7 6 9.4 12.7 25.2 20.5 27.6 38.1.7 3.9 1.3 7.6-1.2 11.1-3.5 6.7 4 14-.8 20.7-3.2-.2-1.9-3-2.1-4.4-1-6.5-2.7-12.7-5-18.8-2.1-5.6-7.1-9.5-8.8-15.3 1.1-2.9 2.3-1 4.2.4-3-3.3-5.2-6.2-6.7-8.6.4.4.5 1.4-.2 2.5-3.4.2-4.2-2.9-6.1-4.7-11.7-8.4-19-21.5-31.3-29.1 6.3.7 12.5 1.4 18.7 2.1z" fill="#695a4d"/>
    <path d="m1032.1 319.1c-1.4.2-2.8.5-4.4.7-.1 2-.3 3.6-.4 5.3-1.3 1.3.7 3.8-1.6 4.8-1.5-.3-1.7-1.9-2.8-2.8-.6 10 2.2 36.4-11.4 37-2.9 8.6 1.3 17.2-1.4 25.2-5.6.5-3.3-4.2-5-6-1.9-2.9-.8-6.2-1-9.3-1.1-3.8-.4-7.6-.4-11.4 1.9-2.2 2.3-4.6 2.1-7.5-.6-11.2.5-22.3 2.3-33.3.9-13.5 16.2-4 24-2.7z" fill="#7e6851"/>
    <path d="m665.8 500.4c0-3.2 0-6.4 0-9.7-1.6-1-3.1-2-4.6-3h4.1c.3-4.8-.1-9.6 4.7-13.5 9.2 5.1 18.8 10.4 28.4 15.8-13.4 1.6-1.4 12.3-8.1 17.5-3.7 1-1.8-4.9-1.7-6.7.5-5.8-8.2-12.6-12.4-7-.1 11.2 3.6 10.1 12 14.8-1.5 7-10.7 3.2-14.6.6-3.2 4.6-1.3 10.7-5.6 14.5-4.7.3-6-.9-5-5.3 1.2-5.9 1.6-12 2.8-18z" fill="#8d7761"/>
    <path d="m848.1 499.2c7.2-2.4 14.4-6.4 22.3-4.6 12.3 3 25.7 2.8 37.2 8.2-4.2 3.9-26.6-4.1-35.9-3 1.3 2.7 4.6 3.1 4.5 6.7-5.4 5.3-13-.4-19.3 2.5-4.4 13 12.4 19.4 19.3 27.4-2.4 2.1-4.8 4.2-6.9 6-13.9-5.8-23-29.4-22.1-42.1.3-.3.6-.7.9-1.1z" fill="#2e2a29"/>
    <path d="m1185.6 375.1c-8.1-7.6-.6-21.9-.2-31.5-2.1-4 .2-5.6 3.6-6.6 4-2 6.8-6.3 13.2-6.1-.7 16.8-9.3 30.2-16.6 44.2z" fill="#292323"/>
    <path d="m763.7 493.4c-7.2 2.9-14.3-.8-21.5-1.1-4.1 14.4 1 29.5-6 44.9-3.8-10.6.8-19.9-3.1-28.3-.8-.1-1.2-.5-.9-1.4 7.1.2-6.1-18.4 3.2-26.8 9.5 4.3 18.9 8.5 28.3 12.7z" fill="#8b7157"/>
    <path d="m732.1 507.6c.3.5.6.9.9 1.4.1 3.8.1 7.5.2 11.3-1 4.4-5.8 3.5-8.1 0-7.2-4.3-15.5-6.6-22.3-12.6 3.5-3.9 6.6-7.3 9.7-10.8 6.5 3.6 13.1 7.1 19.6 10.7z" fill="#37312d"/>
    <g>
        <path d="m449.6 879.4c-3 0-6.1.1-9.1.1-1.6 1-3.6 0-5.2 1 .1 0 .3.1.4.1-2.1 4.6-4.6 9.7-9.5 11-14.3 4-10.5 14.6-9.5 24.1.7 6.5-.9 13.3 1.9 19.5s1.9 12.4 1.8 19.3c-3.1.5-6.2.7-9.1.4-.1.1-.1.1-.2.2 3.7.6 7.4 1 11.1 1.2h27.5c-1.3-26.1-22.6-51.5-.1-76.9z" fill="#988a80"/>
        <path d="m482.8 955.9c-.5 0-1.1 0-1.6.1.5 0 1 0 1.6-.1z" fill="#dfbb94"/>
        <path d="m497.2 932.7c0-.3 0-.5-.1-.8-1.2-2-3.9-1.6-6.1-4-4.3-15-12.1-29.9-16.2-46-.7-2.8-1.3-6-4.4-7.6 0 .2 0 .4-.1.6-7.7 2.1-8 10.9-13.7 14.5 2.9 18.2 3.8 63.6 26.5 66.6 4.7.4 9.1-.2 13.1-4.3-1.6-5.9-3.2-12-5-18.4 2.7-.3 4.4-.5 6-.6z" fill="#dfbb94"/>
        <path d="m420.3 954.5c.1-6.9 1.1-13.1-1.8-19.3-2.8-6.1-1.2-13-1.9-19.5-1-9.5-4.8-20.1 9.5-24.1 4.9-1.4 7.4-6.4 9.5-11-.1-.1-.3-.1-.4-.1-4-1.5-7.7-1.6-11.2-.8.4.2.8.5 1.2 1-12.9 2.1-22.2 18.2-36.3 12.8 1.9 17.2 6.1 34 10.3 50.8 1.2 7.2 6.1 10.1 12 10.7 2.9.2 6.1 0 9.1-.5z" fill="#817670"/>
        <path d="m456.7 889.3c5.7-3.6 6-12.4 13.7-14.5.1-.2.1-.4.1-.6.1-1.5-1.2-1.1-2.2-1-5.4 4.4-12.6 3.5-18.6 6.1-22.5 25.4-1.2 50.8 0 76.9-9.1 0-18.3 0-27.5 0-.2 0-.4 0-.6 0 19.8 2.1 39.8.5 59.6-.3.5 0 1.1 0 1.6-.1h.5s0 0-.1 0c-22.7-2.9-23.6-48.3-26.5-66.5z" fill="#b6a290"/>
        <path d="m425.3 880.6c-.4-.4-.8-.7-1.2-1-1.6-.9-3.5-.8-5.3-.9-11.8.2-22.4-5.2-33.4-7.3 1.2 7.3 2.4 14.6 3.6 22 14.1 5.4 23.3-10.6 36.3-12.8z" fill="#6d6460"/>
    </g>
    <path d="m1015.7 314.5c-7.6 1.9-6.2 8.7-6.7 13.7-1.1 9.5-1 19.2-1.4 28.8-.1 2.4.7 5.4-3.4 5.1-4.1-7.8 1.1-18.8-3.7-25.3-.4 0-.7-.1-1-.4 8.5-2.6-1.7-18 7.6-25.6 3 1.3 5.8 2.5 8.6 3.7z" fill="#a6886a"/>
    <path d="m1189 336.9c-1.7 1.9-4 3.6-3.6 6.6-.8 1-1.5 2-2.6 3.4-2.6-8 3-15.1 1-23.1-1.4-.8-3-1.7-4.9-2.7-7.1 5.5-12.7 12.1-18.3 19.2-4.9-1.2-9.3 4.8-14.6 1 17.4-.1 25.2-27.3 41.9-23.5 3.6 6.4-1.8 13 1.1 19.1z" fill="#857260"/>
    <path d="m928.3 358.4c5.3 14.1 10.5 28.2 15.8 42.4-3.2 1-3.2-2.5-5.2-2.5-2.9-10-21.1-32-10.6-39.9z" fill="#85705b"/>
    <path d="m1118.9 341c7.7 1.4 16-1.7 24.4 2.7-4.2 4.5-9.1 5.3-13.7 6.8-5.6-2.4-12.1-2.8-16.7-7.2 1-.8 1.9-1.5 2.8-2.2 1 .1 2.1 0 3.2-.1z" fill="#302c2c"/>
    <path d="m814.8 707.3c2.1 7.2 5.2 13.5 12.7 16.4-2.5 1.8-5.4 1-8.1 1.2-4.4-7.8-10.1-14.9-12.9-23.4-.1-5.5-1.4-10.8-2.3-16.3 0-1.6-.8-3.4 1.1-4.5 4.3 3.2 5.1 7.7 4.8 12.7 1.6 4.7 3.1 9.3 4.7 13.9z" fill="#7e7c80"/>
    <path d="m892.3 395.5c.2 4.2-3.2 6.3-5.4 9-6.1 7.3-12.3 14.6-15.3 23.9-2.2-.2-2.8-1.8-3.3-3.8 4.5-12.4 14.3-20.7 24-29.1z" fill="#6e635c"/>
    <path d="m750.8 720.3c-6.8 3.7-13.5 7.5-20.3 10.9-1.9 1-2.5 1.3-.6 2.7-3.1-.7-6.3-1.4-9.4-2.1 3.2-.3 34.4-19.9 30.3-11.5z" fill="#a6a2a6"/>
    <path d="m773.9 730.4c1.2-.5 2.4-1.1 3.9-1.7-5.3-2.8-11.5-3.3-15.7-8 7.9 2.6 16.7 2.8 23.5 8.6-3.9.4-7.8.8-11.7 1.1z" fill="#8c8582"/>
    <path d="m491.5 712c-3.2-.1-3.6-2.9-4.9-5 .9-1.4 1.8-2.9 2.7-4.3 2.8 2.6 2.2 6.1 2.2 9.3z" fill="#473e38"/>
    <path d="m1078.4 485.2c-.2 3.1 2.1 4.9 3.6 7.1-3.3 2.3-3.8-2.5-6.2-2.5.9-1.5 1.8-3 2.6-4.6z" fill="#5a595c"/>
    <path d="m459.1 957c5.7-1.8 11.5-.5 17.3-.8-5.7 2-11.5.8-17.3.8z" fill="#dfbb94"/>
    <path d="m1186.5 393.4c-2.1-3.7-.9-7.6-1-11.5 1.4 3.8 1.3 7.7 1 11.5z" fill="#a08263"/>
    <path d="m876.2 536.5c-13.4-4.5-23.8-18.8-21-29.7h22.8c-5.1-3.2-8-5-12.7-7.9 38.2-1.3 70.4 12.6 107.6 15.6 8 .8 16.2 1.7 23.9 3.8 6.6 1.8 3.2 6.9 1.4 11.1 1.9 1.4 3.7 2.7 5.9 4.3-1.1 1.7-2.1 3.3-3.1 4.9 7.7 10.7 3.3 22.7 3.9 34.2.1 1.7-1.3 3.2-3.4 3.4-13.9-18.9-20.4-35.6-43.2-46.8-12.4-6.5-26.5-13-40.9-10.3-14.6 3.9-29.1 7.7-41.2 17.4z" fill="#211d1a"/>
    <path d="m992.5 560.9c8.2 8.1 10 19.2 10.5 30.2-1.6 8.6 5.4 65.4-12.5 51.9-5.4 10.6-3.8 23-15.5 29.7 3.8-33.5 9.7-65.6 3.4-99.3-1.2-7.9-4.1-14.8-9.2-21-1.2-1.5-2.7-2.9-2.5-5.4 7.3-8.5 17.5 15.1 20.1 20 2.4-1.6 1.3-6.6 5.7-6.1z" fill="#786553"/>
    <path d="m1005.1 383.2c2.3.9.3 4.9 4.5 5.2-.6-8.9-1.6-17.8-.4-26.9 2 .2 3.8.3 6.7.6 6.8-12.5 4.5-26.7 5.4-40.5 5.6 1.5 2.3 6.2 4.9 8.1 10.6 27.2-3.5 24-4.5 49.7-1 8.8-4.1 15.2-13 17.8-1.9-4.6-3.4-9.1-3.6-14z" fill="#635547"/>
    <path d="m1009.9 401.7h8.4c14.3-22.1-1.9-27 28.7-52.3-9.4 18.1-13.9 38.1-22.5 56.6-1.2 2.5-2.6 4.7-5.2 5.9-5.4-1.3-8.7-4.5-9.4-10.2z" fill="#4d433d"/>
    <path d="m1109.8 413.3c-3.5 2.9-8-.3-12.3 2.6-.8 5.3-1.6 11.1-2.5 16.8.3.5.5 1.1.7 1.1 8.7.8 11.9 14.6 2.5 16.8-12.3 2.8-18.1-12.6-6-17.8-1.5-8.7 4.8-17.9-2.2-26.3 1.7-.9 2.3.5 3 1.5-.2-.9.1-1.5.9-1.9 3.4.4 5.9 2.7 8.7 4.3 1.9 2.2 5.4.5 7.2 2.9z" fill="#5b595e"/>
    <path d="m1085.4 386.6c.7 1 1.4 2.1 2 3.1-.5 1.9-2 1.4-3.1 1.5-2.5-3-6.1-3.7-10.2-4 1.9-5.3 3.1-10.4-2.9-13.3-4.8.6-4.3 6-9 8.1.9-5.5 1.7-10 7.3-10.6 8.6-.9 9.7 5.7 10.7 12.7 1.5.8 3.3 1.7 5.2 2.5z" fill="#585960"/>
    <path d="m1093.5 406.5c-.1.5-.3 1-.5 1.5-1.1-.6-2-1.1-2.9-1.7-.3-2.7-.7-5.4-1-8 5.4-12.2 10.9-14.6 20.8-9.4-1.1 1.6 2.5 3.7-.5 5.1-13-3-14.3-.2-15.9 12.5z" fill="#7e7f89"/>
    <path d="m906.3 464.5c-4.4.6-7.1 1.6-11.6 3.6-5.4-1.9-11.3-4-17.3-6 6.7-2.3 12.2 3.6 18.7 1.3 3.5-.6 7.2-2.3 10.2 1.1z" fill="#716f76"/>
    <path d="m877.2 451.8c0 4.7-4.6 2.2-6.5 4.1-3.8 3.9 0 6.8 2.2 10.8-12.8-2.7-6-21.8 4.3-14.9z" fill="#7e7d84"/>
    <path d="m971.4 372.5c-2.4-.1-5 1-7.7-1.7 4.8.9 5.6-2.8 7.8-5.1-.7-1.7-1.3-3.3-1.9-4.8.6-1.6 1.9-1 3-.9 3.4 4.5 2.7 8.6-1.2 12.5z" fill="#828187"/>
    <path d="m1000.5 336.8c2.7-.1 2.3 1.9 2.4 3.6.6 11.1 1.5 22.3 1.2 33.4-2.7-12.2-1.6-24.7-3.6-37z" fill="#635547"/>
    <path d="m993.6 483.9c1.9-4.8 3.7-9.5 5.6-14.3.6 5.8-1.5 10.5-5.6 14.3z" fill="#5f6068"/>
    <path d="m425.3 880.6c-13.1-.3-27.7-.7-38.4-9.3.5-3.3 2.5-5.3 5.1-7.3 13.9-11.3 27.1-23.4 40.6-35.1 13.2-11.5 22.6-27.2 34.5-40.3 19.2-21.2 24.9-48.9 24.5-76.5 1.2 13.2 2.3 26.3 3.5 39.5.2 12-6.8 21.5-10.8 32-5.8 15.1-12.6 29.7-19.9 44.1-7.4 18.4-30.2 33.2-33 51.4 3.2.2 6.2.3 9.2.5-5 1.5-10.2.9-15.3 1z" fill="#473e38"/>
    <path d="m504.3 608.6c1.8-3.4 5.2-3.5 8.4-3.7 8.4-2 9.6 13.7 1.4 14.1 1.3 1 2.3.3 3.3-.7 3.3-2.3 3.3-7.5 7.6-8.9 4.9-.8 10 .5 14.9-.9 6.8-1.1 13.1-3.9 18.4 2.1 15.9 8.7 8.7 28.9 12.7 43.5.7 5.8 2.1 11.2 5.4 16.3 7.5 13.7-2.4 29.9 3.5 44.5 3 16.3-20.1 40.8-32.2 50.7.7 1.5 2.6 1 3.2 2.3-6.4 3.2-12.8 6.3-20.3 6.9 0-3.3 2.2-4.3 3.5-5.7 8.1-8.6 16.6-16.7 24.2-25.7 8.1-8.5 10.6-17.3 6.5-29.2 5.1-27-10.2-52.6-5.9-79.6.4-2.6-1.3-4.8-3.1-6.5-3.3-.5-6.4-1-10-1.5-6.1 3.5-12.7 7.3-19.4 11.2-6.6-8.8-16.1-13.5-23.1-21.1.4-1.6.8-3.1 1.2-4.7 1-1 2.2-1.5 4.1-1-2-.7-3.3-1.2-4.3-2.4z" fill="#39312a"/>
    <path d="m550.8 767.8c-1.6-.1-3.3-.2-6.2-.4 13.4-15.5 39.7-35.9 32.1-58.3-3.1-10 4-21.6.1-30.6-7.3-17.1-9.1-34.6-10.3-52.5-.6-14.8-10.1-10.5-13.3-18.5.1-.2.2-.5.3-.7 3.2-2 4.7 1.3 7 2.2 1.1.9 2 1.8 2 3.3 2.2 2 6.3-.3 7.9 3.3 2.7.6 3.6 2.5 3.7 5-.6 13.9 1.4 28.2 5.7 40.5 4 11.7 6.1 22 3.7 33.7-.3 1.3.2 3.4 1.1 4.3 8.8 9.4 4 18-1.4 26.6-4.6 8.1-17.6 20.6-7.9 29.3-8.2 4.3-16.3 8.7-24.5 12.8z" fill="#3a332e"/>
    <path d="m896 524.9c5-1.9 10.1-3.9 15.1-5.8 2.9 3.6 6.8 5.3 11.2 6.3 12.9 3.3 26 7 37.4 14.4 4.8 3.7 7 9.1 10.9 13.3 1.3 1.4 1.4 3.6-.3 5.6-3.7 2-8.7-2.3-12.6 2.1-1.8 4.6 3.2 9.5.1 14.3-1.6 2.3-4.5 4.8-1.9 7.3 6.2 7.3 8.9 17.2 17 22.9 15.4 8.5 6.6 29.6 6.2 43.5.1 10.3-7.1 19.3-4.8 29.7 4.1.7 7.8 2.1 11.2 4.3-6.4 16.8-18.8 28-35 34.4-8.9 3.5-17.4 9.5-27.8 8.5-.7-8.2 23.4-12.1 26.8-25.8 2.1-5.4-2.7-5 .5-11.9 1-12.4-8.1-5.3-12.2-7.5 4.9-5.1-7.3-21.5-5.8-31.4 2.8 0 2.7 2.4 3.3 4.1 3.8 6.4 4.2 16.6 9.4 21.4.3 1.4.8 2.7 2.5 2 6.7-12.9-12.7-21-6.4-34.1 6.5 2.1 6.6 9.5 11.8 12.1 10.7-5.4-3.9-38-6.2-46.9-4.2-.4-7.1 1.9-11.1-.3-1.8-6.3-6.6-11.6-12.6-15.8 3-5.4 7.4-8.6 12.9-12.8-8.5-5.3-13.6-12.9-19.4-20 3.7-11.7 3.2-12.2-17.7-14.9 2.3-6.6-2.7-12.3-2.5-19z" fill="#4a3e33"/>
    <path d="m870.1 657.1c-7.3 11.9 1.8 25.7-4.2 37.3-11.8 0-16.3-7.8-18.7-15.5-5.5-17.7-11.3-35.5-7.1-54.6 2.3-8 8.9-10 8.6-19.1 5.3-2.1 6.9-9.7 14.8-10.5 8.8 7.4 16.1-2.3 24.6-4 3.4 7 12.4 7.9 14.9 17.5-12-4.8-20.6.2-29.3 7.3 4.3 2.9 6.7 6.6 6.2 11.4 2.5 1.4 4.6 2.5 7.6 4.2-5 3.9-12.3 3-13.5 10.4-.6 5.2 2.4 11.7-3.9 15.6z" fill="#2e2a29"/>
    <path d="m949.1 694.5c1.1-.2 2.1-.4 3.6-.6-1.3 19.1-19.7 21-29.9 32.1-3.9 0-7.8 0-11.7 0 7.7-8.2 18.7-1.8 23.4-21.8-5.1-5.2-4.1-11.4-1.4-17.7 1.7 1.7 2-.2 2.6-1.1 10.4-13.7 21.5 7.3 5 11.9 3.4.6 5.2-3.2 8.4-2.8z" fill="#413933"/>
    <path d="m810.1 693.5c-1.6-4.2-3.2-8.5-4.8-12.7.4-4.7 3.1-7.7 7.9-7.5 7.8 0 14.3-7.3 22.1-4.3 8.1 1.1 2.9 8.9 7.1 11.6-4.5 4.7-7.9 1.2-11.7.1-2.6 5.4-9.5 5.1-14.9 11.6.3-.3 3.3 2.8-1 4.1-1.2-.8-2.9-1.9-4.7-2.9z" fill="#2e2a29"/>
    <path d="m920.4 635.3c-8.2 6.3-12.2 16-18.7 23.6-2.3 1.7-3.4 7.7-6.7 6.8-.9-.7-.9-1.5-.1-2.4 6.5-10 13-20 19.6-30.1-3.7-7.8-3.8-15.1 3.6-21.1.7-.7 1.5-.6 2.4-.3.8 7.1 1.3 14.2-.3 21.3.3.7.6 1.4.2 2.2z" fill="#7a7a81"/>
    <path d="m920.4 635.3c-.9-1.3-2.4-1.4-2.4-3.4 8.5-3.5 4.3-10 2.6-16.2 22.7-10.3 19.6 26.2-.2 19.6z" fill="#c0c8df"/>
    <path d="m888.3 709.6c8.2-3.7 15.5-7.1 24.5-3.7-2.7 4-7.7 2.5-10.8 5.4.7 1.8 1.3 3.5 2.2 5.9-7.3 1.5-11.8-1.3-15.9-7.6z" fill="#2e2a29"/>
    <path d="m920.4 635.3c3.8-.1 7.8.5 11.4-1.4.6 8.6 6 15.5 7.9 23.7 1.3 5.8 3.3 11.4 5 17.1-3.9.9-4.3-2-5.2-4.5-3.8-10.8-8.2-21.7-10.2-33-3-1.4-6.4.8-8.9-1.9z" fill="#7a7a81"/>
    <path d="m932.1 614.3c-3.2.9-5.9 3.9-10.3 1.5 6.7 7.7 2.8 13.1-2.5 18.3-2.9-2.7-2.9-2.7.8-6.3-.8-5.3-2-10.6.3-15.8 3.9-.6 9.3-1.9 11.7 2.3z" fill="#9ca0b0"/>
    <path d="m887.9 688.9c-14.7 7.7-20.7-18.8-4.6-18.6 1.3 1.1 4.3.9 3.1 4-3.1 1.7-6.6 3-6.7 7.5 2.6 1.8 5.9-.1 8.2 2.1 1 3.1-2.1 3.3-3.4 4.7 1.3-1 2.4-1 3.4.3z" fill="#646162"/>
    <path d="m871.6 583.3c6.1-9.1 15.4-10.2 26.9-4.8-8.6 4.3-17.2.4-26.9 4.8z" fill="#2e2a29"/>
    <path d="m876.4 560.5c1.3 6.4-3.6 10.4-10.8 9.4-1.4-5.8 3.6-10.3 10.8-9.4z" fill="#2e2a29"/>
    <path d="m835.3 668.9c-11.3 2.4-21.7 6.1-33.7 6.6 1.7-5 5.9-2.5 8.4-4.1 10.1-2.4 20.2-4.7 30.2-7.1 1.8 5.2-4 2.3-4.9 4.6z" fill="#787a84"/>
    <path d="m886.7 673.7c-1.1-.5-2.2-1-3.7-1.6.1-.4.2-1.1.3-1.7 1.4-1 3.1-1.3 4.6-1.9 8.9 3.9 7.1 15.7.1 20.4-1.3-.2-2.6-.3-5.5-.7 2.4-1.8 3.9-3 5.4-4.1.6-3.6.4-7.1-1.2-10.4z" fill="#b2b8cb"/>
    <path d="m672.8 541.2c-7.6-11.5-3.8-23.3-.8-36.1 5 4.4 9.6 9.2 15.9 3.5-.5-1.8 1.4-1.2 2.4-1.1-3.2 13.4-.6 30.2-17.5 33.7z" fill="#6c5e54"/>
    <path d="m1029.7 352.8c-.6-9.2-4.8-18.7-2.4-27.8 2.2 8.9 4.3 17.9 6.7 27.7 8.1-6.7 15.7-13 23.3-19.3-7.4 9.5-14.5 19.3-25.3 26.1-.8-2.4-1.6-4.5-2.3-6.7z" fill="#8a8a92"/>
    <path d="m1033.2 331.3c10.6-16.2 20 9.9 3.8 6.9 3.1-2.4 6-4.5 4.7-8.5-3.5-3-5 2-8.5 1.6z" fill="#838187"/>
    <path d="m821.5 515.7c-4.5 4.9-7.8-2.6-12-.9 4.5-5.5 8.1-.2 12 .9z" fill="#aaa7ad"/>
    <path d="m635.6 526.1c-3-3.7-4.6-6.5-6.9-11.2 6.1 3.9 9.1 9.3 13.6 16.3-3.3-2.6-5-3.9-6.7-5.1z" fill="#7f6a54"/>
    <path d="m689.1 507.4c-.4.4-.8.8-1.2 1.2-10.1.4-13-6-13.8-14.6 4.9-10.5 20.8.7 15 13.4z" fill="#9a9393"/>
    <path d="m979.7 649.3c-.4 0-.8 0-1.2 0-.4-13.7 9.5-33.1-6-41.9-4.1-2-6.9-6.6-10.6-10.2 1.7-9.3-14.2-10.5-6.7-21.1 6.3 3.8 13.6-.3 8.7 10.6 4.1-4.5 4.1-6-.3-10.5-2.2-1.7-5.2 1.1-7.3-1.3 4.3-6.5-11.4-22.7 13.1-16.7 1.5-8.5-7.6-16.6-28.2-25.2 3.2-6.2-22.4-9-18.2-15.6 4.3-.7 7.8 1.7 11.4 3.4 8.1 3.8 16.4 6.4 25.2 7.7 14.1 7.6 25.6 17.7 32.7 32.4-3.9 2.7-2.4 7.4-4.9 12.2-5.8-9.9-7.5-22.2-20.1-27.6.3 1.8.2 2.8.5 3.1 9.9 8.9 12.7 21.2 13.6 33.4 2.1 22.4 2.2 44.9-1.7 67.3z" fill="#5c4e42"/>
    <path d="m922.7 518c6.1 6.2 15.4 7 21.8 12.5 1.3 7-22.2-4.2-26.4-4.3-3.7-1.1-7.2-2.2-7-7 3.9-.5 7.8-3.1 11.6-1.2z" fill="#5f554d"/>
    <path d="m922.7 518c-1.9 0-3.9-.1-5.8-.1 15.6-3.7 29.9 3.2 42.9 10.7-14.3 2.9-24.4-8.3-37.1-10.6z" fill="#4a3e33"/>
    <path d="m982.7 585.1c8.6 7.5 8.2 47.4.5 60.3 1.4-19.5 2.1-38.9-.5-60.3z" fill="#9a7d5f"/>
    <path d="m1111.1 406.4c-4.7 7.9-11.5 4-17.6.1-2.7-5.8-.8-10.5 3.6-14.4 4.6-4 8.6-.3 12.7 1.5 3.1 4 3 8.3 1.3 12.8z" fill="#3e3834"/>
    <path d="m1090.5 440.2c1.7-1.1 3.3-2.1 4.9-3.1 12.6 8-7.3 18.4-4.9 3.1z" fill="#3d3736"/>
    <path d="m515.9 617.9c.2 1.3.7 2.2 2.2 1.8-3.8 3.7-6-.2-8.6-2.3 2.2.2 4.3.3 6.4.5z" fill="#3a332e"/>
    <path d="m523.9 610.8 16.5-1.2c-5.4 2.7-11.1.7-16.5 1.2z" fill="#3a332e"/>
    <path d="m553.1 607.4c.3-3.5 3.8-1.5 5.4-3.3.9-6 .8-9 8.7-7.3 5.3 4 4 8.3.7 12.9-2.8 0-5.2 0-7.7 0-2.9.6-3.9-4.2-7.1-2.3z" fill="#463b31"/>
    <path d="m944.8 681.9c-1.2-.9-2.4-1.7-3.7-2.6 15.8-6.3 13.5 18.5-.5 19.9-1.3-.8-3.2-1.9-5-3 7.7.9 11.6-2.4 12.6-10-1.1-1.3-2.3-2.8-3.4-4.3z" fill="#a1a4b1"/>
    <path d="m964.6 579.5c-2.9-1.6-8.3 3.3-9.3-3.5.4-.4.8-.8 1.2-1.2 2.7.5 5.4-2.7 8.2 0-.4 1.6.9 3.2-.1 4.7z" fill="#7a716d"/>
    <path d="m886.7 673.7c5.3 3 3.8 6.6 1.1 10.5-3.2.2-6.4.3-10.3.5-.1-6.6 2.1-10.7 9.2-11z" fill="#433b32"/>
    <path d="m765.2 507.5c2.3 5.7-1.5 8.2-5.7 4.8-2.5-4.3 2.1-7.9 5.7-4.8z" fill="#4c423d"/>
    <path d="m676.3 498.5c.7-1.5 1.6-3.1 2.3-4.5 7.4-.2 10.3 4 7.6 10.7-5.2 1.3-8.2-.8-9.9-6.2z" fill="#726459"/>
    <path d="m964.6 579.5c-.6-.9-1.1-1.8-1.9-3.1.6-.5 1.2-1.1 1.9-1.6 7.8 3 4.2 17.5-4.6 13.6 2.3-2.8 5.2-5 4.6-8.9z" fill="#a9a3a6"/>
    <path d="m870.4 494.7c-7-1.3-12.7 5.3-19.8 3.5 5.8-6 12.7-5.5 19.8-3.5z" fill="#302c2c"/>
    <path d="m907.5 873.7c1.9-7.2 8.9-11 11.7-17.6.8 6 24.5-8.9 30.3-6.9-8.9 13.2-22.3 23-32.8 35-4.7-1.9-6.6-6.4-9.2-10.5z" fill="#463f3b"/>
    <path d="m951.4 366.2c-7.1 1.9-10.3 5.5-5.2 13.1-14.4-.1-2.1-23 5.2-13.1z" fill="#9d9592"/>
    <path d="m742.5 709.8c-4.1-8.3 23.1-9.2 27.9-7.1 3.4 1.2 3.2 3.4 1.5 5.8-6.4 8.8-21.7 8.8-29.4 1.3z" fill="#37322d"/>
    <path d="m742.5 709.8c12.4 6.1 22.1 4.8 30-4.1-1-1.5-2.4-2.7-2.4-4.8 1.7.3 3.3.5 4.9.7.4 1.7.8 3.4 1.2 5-2.9 7-8.9 9.9-21.5 10.1-1.2 1.1-2.5 2.3-3.9 3.5-.5-.8-.9-1.7-1.3-2.6 3.3-4.5-2-2-2.8-3.3-1.1-1.6-6 0-4.2-4.5z" fill="#84848a"/>
    <path d="m756.5 524.8c3.8 2.1 7.6 4.1 8.4 10-8.2-7.1-7.5-9-15.8-1.4-1.8-7.2 2.3-8.3 7.4-8.6z" fill="#8c898e"/>
    <path d="m698.3 694.6c-2.3-.4-4.4-1.2-5.5-3.4 2.4-6 12.7-7 21.3-2 .9 2.3 0 4-1.8 5.4-4.7-.7-9.3.6-14 0z" fill="#514e4e"/>
    <path d="m712.3 712c-6.1 2.3-11.7 2.4-17.6-5 6.6 2.3 11.5 6.7 16.2.6 2.1-1.3-3.2-3.3.1-4.7 2.8 2.8 3.2 5.8 1.3 9.1z" fill="#8c8c94"/>
    <path d="m698.3 694.6c-2.6-6.4 8.3 3.7 12.4-4.3 2.6.8 1.5 2.7 1.5 4.3-4.5 3.8-9.2 2.5-13.9 0z" fill="#9497a5"/>
    <path d="m804.2 685.3c1.5 4.3 3 8.6 4.5 13.1-.7 1-1.5 2.1-2.2 3.2-3.8-5-1.9-10.8-2.3-16.3z" fill="#514538"/>
    <path d="m552.1 607.5c-9.3 2.5-18.8 2.5-28.2 3.3-1.1 3.5-2.7 6.6-5.7 8.9-.9 2.4-3.7-.3-2.2-1.8 2.8-2.5 2.8-5.6 2.1-9-1.6-1.5-2.7-3.7-5.2-4 1.5-5.6 7.8-.1 10.1 2.6 7.7 3.1 24.4-7.4 29.1 0z" fill="#82848f"/>
    <path d="m552.1 607.5c-9.8-4.8-19.7 4.2-29.3.1 10.6-1.7 21.1-3.4 32.3-5.1-.9-9.8 6.2-11 13.1-12.5.5 2.5-2.1 2.9-3.7 5.5l2.8 1.4c-1.3 1.7-3.6 1-5.1 2.3-1.8 1.6-1.3 4.4-3.2 6.3-1.3 1.9-4.6-.8-5.8 2-.4-.1-.8 0-1.1 0z" fill="#5f5c5d"/>
    <path d="m577.4 568c-6.1 5.6-5.9 13.6-8.1 20.7-.3.1-.7.1-1 .2-.4-9 .6-17.5 7.9-24.6-.5-1.4-1.1-3.1-1.8-5.2 4.3.2 8.5 1.6 12.5-.6 2.5 2.8-1 4.6-1.2 6.9-2.6 2.7-4.8-1.1-7.6-.5-.2 1.1-.5 2.1-.7 3.1z" fill="#5f5c5d"/>
    <path d="m585.7 565.6c-2.7-2.8 3.3-4.2 1.2-6.9 1.3-7.1-6-6.2-9.9-10.3 12.3-4.1 20.7 11.3 8.7 17.2z" fill="#979aa9"/>
    <path d="m504.3 608.6c3-.1 5.3 1.2 7.9 3.4-3 0-5.5 0-8 0 .1-1.1.1-2.2.1-3.4z" fill="#292421"/>
    <path d="m769.3 513.2c-13 12.9-19.4-13.7-2.3-10.5 3.3 3 2.2 6.9 2.3 10.5z" fill="#7c787d"/>
    <path d="m911.6 410.4c-7.1 8.3-14.1 16.6-21.2 24.9 4-11 11.9-18.5 21.2-24.9z" fill="#95959e"/>
    <path d="m938.9 428.7c-6.6 7.2-13.2 14.3-19.8 21.5 3.3-10.2 11.4-16 19.8-21.5z" fill="#8a8990"/>
    <g>
        <path d="m336.5 538.8c-.2.2-.3.3-.5.5.3-.2.5-.3.8-.5-.2.1-.2.1-.3 0z" fill="none"/>
        <path d="m486.8 521.4c-.1 0-.1 0 0 0z" fill="none"/>
        <path d="m426.3 481.9c-.1 0-.1-.1-.2-.1v.1z" fill="none"/>
        <path d="m481.7 498.2c0-.3-.1-.5-.1-.8-1.2.2-2.4.4-3.6.5 1.2.2 2.4.3 3.7.3z" fill="none"/>
        <path d="m474.1 488.9c-.2-.1-.3-.2-.5-.2v.1c.2 0 .3 0 .5.1z" fill="none"/>
        <path d="m263.1 601.2c18.5 13.6 67.9 14.2 89 5.1 20.8-12 39.2-27.2 58.1-41.8 20.1-16.4 41.1-37.1 66.7-42-.5 0-1 .1-1.5.1 2.7-1.7 5.7-1.2 8.6-1 1-.1 1.9-.1 2.9-.1-8.3-5.2-17.6-4.4-26.7-4.6-6.9 1.9-53.5 11.5-54.3 3.6-.5-13.7 26.3-19.6 36.9-22.3l1.2-1.2c-12.9-.9-26 1.3-53.5 22.1-7.7 21.1 19.2 13.3 17.4 24.4-19.9 51.8-79.7 78.4-131.7 60.5-5.5-1.4-9.5-4.9-12.6-9.6-5-7.6-3.8-12.9 4.4-16.8 9.4-4.6 18.9-8.8 28.4-13.1 21.9-14.4 41.1-31.7 57.5-52.2 14.8-17.7 36.4-29 59-31.4-.5 0-1-.1-1.4-.1 21.2-3.8 41.8 4 62.4 8v-.1c-50.5-22.5-103.2-9.4-135.3 34.8-13.1 13.9-26.9 29.9-44.5 37.4 1.1-.7 2.1-1.4 3.2-2.1-2.5 1.6-5 3.2-7.6 4.7 0 0 0 0-.1 0-3.7 2.6-7.9 4.4-12.3 5.8-17.5 6.3-33.9 14.2-14.2 31.9z" fill="#c39d75"/>
        <path d="m509.6 510.2c-30.4-32.3-78.4-46.3-121.6-34.5-36 10.4-55.7 39.4-74.5 68.9 25.8-27.3 48.5-61.3 88-68.9 16.7-3.8 34 1 51 3.4 22.2 3.1 37.8 14.5 48.8 33.2 2.2 3.8 4.9 7.8.4 12.6-8.2-.3-16.5-3.1-25-2.5-25.6 4.8-46.6 25.6-66.7 42h.1c-18.1 17.5-36.3 34.7-59.7 44.7-.9.7-1.9 1-3.1 1.3-1.5.6-3.1 1.2-4.6 1.7-15.4 6.9-31.3 2.1-47 1.9-19.2-.6-40.3-8.2-50.6-25.7 3.1-17.8 17.9-16.4 32.4-19.4-.2.1-.4.2-.6.2 4.4-1.4 8.5-3.3 12.3-5.8h.1c-13.4 4.4-27 7-41.3 7.6-8 .4-12.4 7.5-14.9 15 26.3 28.2 65.7 36.4 102.3 31.7 21.2-2.2 36.3-17.8 53.7-28.3 15.3-9.2 24-25.5 38.2-35.9 22.7-18.1 50.2-40.9 79.3-22.6 8.1-3.6 9.8-15.2 3-20.6z" fill="#e9d9cc"/>
        <path d="m486.9 521.4c-.1 0-.1 0-.2 0-1 0-2 .1-2.9.1 1 .1 2.1.1 3.1-.1z" fill="#e9d9cc"/>
        <path d="m338.3 523.4c32.2-44.2 84.8-57.3 135.3-34.8.1.1.3.1.4.2 0 0 .1 0 .1.1 13.5 5.3 20.5 15.9 24.5 28.8-2.3 7.5-7.6 3.7-11.7 3.7-1 .1-2 .1-3.1.1-2.9-.1-5.8-.6-8.6 1 .5-.1 1-.1 1.5-.1 8.5-.5 16.8 2.2 25 2.5 4.5-4.8 1.8-8.8-.4-12.6-11-18.7-26.6-30.1-48.8-33.2-17-2.4-34.4-7.2-51-3.4-39.5 7.6-62.2 41.6-88 68.9-5.3 5-10.7 9.9-16.6 14-1 .7-2.1 1.4-3.2 2.1 17.7-7.4 31.5-23.4 44.6-37.3z" fill="#d9bea9"/>
        <path d="m334.7 543.6c-13.5 12.5-27 25-44.7 31.7-4.7 1.8-9.2 4.1-13 7.5-19.1 20.2 61.2 27.3 70.8 5.8-1.1-2.8-3.9-2.8-6.2-3.5-8.6-2.6-10.6-6.1-6.6-14.1 5.5-11 9.3-22.4 11.1-34.5-3.4 2.1-6.5 3.3-9 2.4.5 2.2-1 3.5-2.4 4.7z" fill="#ab7520"/>
        <path d="m346.1 536.5c-1.7 12.1-5.6 23.5-11.1 34.5-4 8-2 11.5 6.6 14.1 2.3.7 5.1.6 6.2 3.5-9.6 21.5-89.9 14.4-70.8-5.8 3.8-3.4 8.3-5.8 13-7.5 17.7-6.7 31.1-19.2 44.7-31.7 1.4-1.2 2.8-2.5 2.3-4.7-.1 0-.1 0-.2-.1-.1 0-.1 0-.2 0-.3.2-.5.3-.8.5-.1.1-.3.3-.4.4-17.4 15.2-35.7 29-56.8 38.8-11 3.9-10.2 15.4.5 19.1 20 7.7 40.3 10.8 60.7 1.3 8.2-3.9 16.8-7.1 22.8-14.5 4.7-5.4 9.1-12.5-.6-14.7-2.1-1-4.5-1.8-4.4-4.7-10-7.7 12.7-39.1 20-46.4-8.6-4.1-21.3 11.4-31.5 17.9z" fill="#b6852f"/>
        <path d="m422.2 483.4c-13.8-.5-26 5.2-38.4 10.2-20.9 9-31.1 30.5-47.3 45.3h.3.2c.1 0 .1 0 .2.1 2.6.9 5.7-.3 9-2.4 10.2-6.5 22.9-22 31.7-17.9l.2-.2c3.3-2.9 10.9-7.9 13.4-6.5.5-2.7 1.6-5.1 4.6-6.6 12-10.7 27.3-13.1 41.8-18.5-3.2-3.7-8.4-1.8-11.4-5-.1 0-.1 0-.2 0-.4 2-2.8 1.5-4.1 1.5z" fill="#aa7142"/>
        <path d="m391.3 560.3c-10.6 16-21.5 34.1-41.1 39.9-10.3 3.8-20.3 8.8-31.6 8.7-17.1-1.3-39.4.3-51.2-14.4-10.8-18.1 18.6-22 28.8-30-9.5 4.3-19 8.5-28.4 13.1-8.2 4-9.4 9.3-4.4 16.8 3.1 4.7 7.1 8.2 12.6 9.6 52 18 111.8-8.6 131.7-60.5-4.4 4.2-9.3 8.1-14.5 11.5.6 2.1-.9 3.6-1.9 5.3z" fill="#b9874e"/>
        <path d="m477.9 498c1.2-.2 2.4-.3 3.6-.5-.9-4.7-5.6-5.4-7.5-8.6h.1s-.1 0-.1-.1c-.1 0-.3-.1-.4-.1-20.5-4-41.2-11.8-62.4-8 .5.1 1 .1 1.4.1 4.4-.5 8.9-.6 13.3-.4.1.5.1 1 .1 1.3.1 0 .1.1.2.1 2.9 3.2 8.2 1.3 11.4 5-14.5 5.3-29.8 7.8-41.8 18.5-3 1.4-4 3.8-4.6 6.6 1.2.6 1.2 2.7-1 7.2 27.5-20.8 40.5-23 53.5-22.1.4-.4.7-.7 1.1-1.1 11.2-1 22 1.2 33.1 2.1z" fill="#af8974"/>
        <path d="m486.9 521.4c4.1 0 9.4 3.8 11.7-3.7-3.9-13-11-23.6-24.5-28.8s0 0-.1 0c1.8 3.2 6.5 3.9 7.5 8.6.1.2.1.5.1.8-1.2-.1-2.5-.1-3.7-.2-11.1-.9-22-3-32.9-2.2-.4.4-.7.7-1.1 1.1s-.8.8-1.2 1.2c11.4-6.3 27.8 7.6 17.4 18.6 9.1.2 18.4-.6 26.7 4.6h.1c-.1 0 0 0 0 0z" fill="#ac8f99"/>
        <path d="m350.4 609.1c-1 .4-2 .9-3.1 1.3 1.2-.3 2.3-.6 3.1-1.3z" fill="#cdb095"/>
        <path d="m352 606.3c-21 9.2-70.5 8.6-89-5.1-19.6-17.7-3.3-25.6 13.9-32 .2-.1.4-.2.6-.2-14.5 3-29.3 1.6-32.4 19.4 10.3 17.5 31.4 25.1 50.6 25.7 15.6.2 31.6 5 47-1.9 2.4-3.2 7.4-2.1 9.3-5.9z" fill="#cdb095"/>
        <path d="m352 606.3c-1.9 3.8-6.9 2.7-9.3 5.8 1.6-.5 3.1-1.1 4.6-1.7 1-.4 2.1-.8 3.1-1.3 23.4-10 41.6-27.3 59.7-44.7 0 0 0 0-.1 0-18.7 14.7-37.2 29.9-58 41.9z" fill="#dbbea3"/>
        <path d="m391.4 511.9c-2.5-1.3-10.2 3.6-13.4 6.5-.1.1-.1.1-.2.2-7.3 7.3-30 38.6-20 46.4 0-.2 0-.3.1-.5 13.4 3.3 23.5-5.7 34.9-10.5.2.4.4.7.5 1.1 5.2-3.4 10.1-7.2 14.5-11.5 1.8-11.1-25-3.3-17.4-24.4 2.2-4.6 2.2-6.7 1-7.3z" fill="#c29648"/>
        <path d="m267.4 594.4c11.8 14.7 34.1 13.1 51.2 14.4 11.3.2 21.3-4.9 31.6-8.7 19.6-5.8 30.5-23.9 41.1-39.9 1-1.6 2.5-3.2 1.9-5.2-.1-.3-.3-.7-.5-1.1-11.4 4.8-21.4 13.8-34.9 10.5 0 .2 0 .3-.1.5-.2 2.9 2.3 3.7 4.4 4.7 9.8 2.2 5.3 9.3.6 14.7-6 7.4-14.6 10.6-22.8 14.5-20.5 9.6-40.7 6.5-60.7-1.3-10.7-3.7-11.5-15.2-.5-19.1 21.1-9.9 39.4-23.6 56.8-38.8.1-.1.3-.3.4-.4l.5-.5c16.2-14.8 26.4-36.2 47.3-45.3 12.4-5 24.6-10.6 38.4-10.2 1.3 0 3.7.5 4-1.5v-.1c0-.4 0-.8-.1-1.3-4.5-.2-8.9-.1-13.3.4-22.7 2.4-44.2 13.7-59 31.4-16.4 20.5-35.6 37.8-57.5 52.2-10.2 8.1-39.6 12.1-28.8 30.1z" fill="#b9884b"/>
        <path d="m442.7 498.2c-10.6 2.6-37.4 8.6-36.9 22.3.8 7.9 47.4-1.7 54.3-3.6 10.4-11.1-6-25-17.4-18.7z" fill="#ccad9b"/>
    </g>
    <path d="m1141.2 375c.6-2.3 1.5-2.9 3.5-1.1 8.7 7.7 10.4 41 1.6 50-.1-9.6 4.8-18.5-.4-26.9-1.1-2.6 1.7-3.9 1.4-6.8 0-3-3.9-4.1-4.6-7.1-.2-1.5 1.1-3.2-.4-4.6-.3-1.1-.7-2.3-1.1-3.5z" fill="#9a7c5c"/>
    <path d="m1091.2 499.4c7.8 5.5 15.4 11.3 23.1 16.9-10.3-1.7-18.2-7-24.6-14.8-1.1-1.4.3-1.9 1.5-2.1z" fill="#5a595c"/>
    <path d="m1143.6 383.2c13.7 5.7-1.5 24.3-9.9 11.9 6.6.9 13.4 2.5 9.8-7.3-1-1-3-.7-3.6-2.9.6-1.5 1.2-3.3 3.7-1.7z" fill="#9f9899"/>
    <path d="m1109.8 393.7c1.6-1.5-3.7-3.2.1-4.7 6.5 5.4 7.9 8.2 5.9 16.2-.9 3.7-5.7 7.5-6.1 1.3 1.2-4.3-.2-8.6.1-12.8z" fill="#aeb4c6"/>
    <path d="m1115.7 405.2c-.4-3.9-.8-7.8-1.2-11.7 4.7-1.1 9.3-2 16.3-.5-7.3 3-15.4 3.2-15.1 12.2z" fill="#7e7f89"/>
    <path d="m1111.1 406.4c.2.9.3 1.8.6 3.3 1.6-1.8 2.8-3.1 4.1-4.5.1 4.2-3 6.1-5.9 8.1-2.6-.9-6.3 2.1-8-2.2 2.9-1.8 5.6-4.1 9.2-4.7z" fill="#7e7f89"/>
    <path d="m1143.6 383.2c-1 .3-1.9.7-5.1 1.7 2.5 1.4 3.7 2.1 5 2.8-2.8.1-5.6.3-8.5.4-.3-5.3 7.9-4.2 7.4-9.6 1.7 1.2 1.1 3.1 1.2 4.7z" fill="#655952"/>
    <path d="m677.5 578.4c7.2-5.6 5-14.7 7.9-21.9 5.6-14.2 10.1-28.8 12.9-44 9.9 2.1 16.8 8.4 25.7 9 1.8 1.9-3.9 1.3-5.6 1.8-.6 17.7-5.9 34.8-1.6 53.6-11.3 8.3-2.5 20.6-4 31.6-2 15 .6 30.9-10.3 43.9 4.7 4.6 10.4 5.5 15.2 8.2-2 4.3-9.5-.3-9.9 6.4-6 3.2-43.3-10.9-47.2-16.7-.9-2.8.4-5.3 1.3-7.8 6.9-19.2 12.8-38.7 14-59.3-.1-1.8.1-3.6 1.6-4.8z" fill="#37312d"/>
    <path d="m724 522.6c0-.4 0-.8 0-1.1l1.2-1.2c3.6 1.8 5.6 3.3 8.1 0v36.4c5.9-2 4.4-7.1 8.7-8.4 1.6.6 3.7 1.3 5.8 2 6.9-1.3 3.3-10.5 10.1-11.9-1.3-2.1-2.3-3.7-3.2-5.2.1-3.7 5-5 7.3-3-1.1-2.3-4.5-2.6-5.3-5.4-4.2-11 4.8-9 12.7-11.6-2.6 4.3-2.5 9.2-2.3 14 1 17.7-11.8 30.4-15.5 45.8-9.7 1.3-20-3.9-20.6-9.7.4-10 .5-20 1.3-30 .4-6.5-1.8-10.1-8.3-10.7z" fill="#4b413c"/>
    <path d="m661.3 650.3c46.1 22.5 98.2 30.3 148.7 21-2.3.8-4.6 1.6-6.8 2.4.1.3.1.6.1.9 6.9-1 13.8-2.1 20.8-3.1-54.5 16.3-112 2.2-164-16.4-1-2-.4-3.5 1.2-4.8z" fill="#59585d"/>
    <path d="m470.4 874.8c-.7-.5-1.4-1.1-2.2-1.6 9.5-4.2 13.8-13 18.3-20.6h29.4c-20.7 15.5-29.3 39.8-14.2 63.1 2.7 4.5 3.9 9.5 3.5 15.4-5 .5-9.9.7-14.8.2-6.8-19-13.4-37.8-20-56.5z" fill="#5c534c"/>
    <path d="m502.6 790.9c-.7 8.2-1.7 13.2 3.2 16.9-5.3 12.4-12.9 22.7-24.6 32.3-.1-9 10.1-14.3 2.6-22.9 9.1-5.5 8.6-17.7 18.8-26.3z" fill="#292421"/>
    <path d="m1016.9 608.6c5.5 4 1.3 9 .8 13.1-2.1 16.9-14.7 53.9-26.9 64.7-1.3 12.8-10 22.3-11.7 34.3-1.9 13.3-5.1 26.2-14.6 36.9-7.4 8.3-.5 18.1-.9 27.3-.3 8.6-1.9 14.8-11.1 16.9-1 .2-1.7 1.4-2.6 2.2 2.5 7.3 2.8 14.5-.7 21.5-2.7 7.9 3.7 16.8-3.4 23.8-.2 5.3-17.2 7.3-21.9 9.6-2.8.8-5.5 1.1-6.1-2.9 3.8-15.9 5.9-32.1 9.4-48-.5-7.1 22-16 28-15.8.6-1.9 1.1-2.5.9-2.9-9.7-19.5 4.7-33.1 12.2-49.1 1.8-21.5 52-105.7 39-110.7 4.3-6.6 8-13.3 9.6-20.9z" fill="#372f26"/>
    <path d="m898.4 876.1c-9.3 5.2-20 7-27.7 14.8-11.9 11.6-27.6 13.1-42.9 15.2-2.4-.7-2.8-2.4-2.5-4.5 13.3 2.9 24.1-2.7 35.7-9.8-2.4-1.3-3.8-2-5.5-2.9 2.9-4.2 7.4-4.5 11.2-6.2 16.2-7.4 26.7-20.6 32.9-36.3 12.1-30.4 18.3-63 32.4-92.8 1.6-3.4 2.8-6.8 7.1-7.7.1 8-1.2 15.7-3.4 23.3-3.6 3.7-5 8.6-6.1 13.3-5.5 22.7-11.6 45.2-15.7 68.2-1.8 10.4-8.7 17.8-15.4 25.3z" fill="#654"/>
    <path d="m898.3 875.9c15.3-19.7 15.4-36.4 20.8-58.9 5-15.3 6.1-31.8 13-46.6 1.3-2.7 1.2-2.8 3.5-1.3-3.3 26.5-8.4 52.7-13.9 78.8-1.8 10.3-6.7 18.9-14.2 25.9-3.7-2.1-6 2.1-9.2 2.1z" fill="#907353"/>
    <path d="m985.5 683c-3.1 2.2-4.9.1-6.4-2.3-2 .4-3.7.7-6.4 1.1-3-12 5.7-21.6 5.7-32.6.4-.6.8-.6 1.2 0 .1 7.3-3.1 14-5.1 23.9 10-11 10.3-23.5 15.3-33.6 3.2.4 2.7 3.5 5.1 4.8 1.1-.3 2.8-.6 4.4-1-1.1 14.5-6.4 27.5-13.8 39.7z" fill="#615245"/>
    <path d="m661.3 650.3c-.6 3-1.6 5.8-3.6 8.2-4 .2-3.5-2.7-3.5-5.2 0-11.1 0-22.3 0-34.9-6.2 13.9-7.2 29.1-19.1 39.2 11.9-35.5 20.6-73.9 13.1-111.1 14.4-27.1-28.5-43.1-23.1-50.8 13.5 5.2 25.5 12.9 36.3 23.9 1.6-7.2 3-13.3 4.3-19.3-.7 5.7-1.4 11.3-1.9 17-.3 2.9-1.2 6.8 4.3 5.2 15.5 46.5 9.8 83.2-6.8 127.8z" fill="#7f6a54"/>
    <path d="m944.8 681.9c-6.2 0-8.5 4.2-9.7 9.5-2.6-1-1.4-3.3-1.9-4.9 2.4-2.8 4.2-6.3 8-7.1 1.4.4 3.9-.5 3.6 2.5z" fill="#7a7a81"/>
    <path d="m850.6 575.3c.8-6.1 2.5-11.7 7.6-15.8-2.5 5.2-5 10.5-7.6 15.8z" fill="#463c35"/>
    <path d="m892.5 672.5c-1.2-1-2.3-1.9-3.6-3-1.8.3-3.7.5-5.6.8 4.2-3.7 7.4-3.6 9.2 2.2z" fill="#646162"/>
    <path d="m930.8 612.5c-4.2-.2-8.4-.5-12.7-.5 4.3-1.6 8.5-2.4 12.7.5z" fill="#4a3e33"/>
    <path d="m894.9 663.3c.1 1.3.7 2.1 2.1 2.1-.7 1.6-1.6 2.9-3.7 3.2-.7-2.2.2-3.8 1.6-5.3z" fill="#646162"/>
    <path d="m635.6 526.1c5.4 9.8 12.4 18.9 13.2 30.7.2 3 1.3 5.9 1.9 8.8 2.3 2.1 1.8 5 1.8 7.6.9 27.7-6.5 54.4-14.9 80.1 9.3-9.8 8-24.7 16-35.3 9.2 6.8-2.1 30.1 4 40.5-11.8 34.5-34.3 66.4-67.4 83.6 6.1-14.4 16.1-27 19.1-42.5 3.1-15.1 13.2-27 19.2-40.8 21.1-45 33.5-101.1-2.3-142.1 2.9 3.5 9.4 4.4 9.4 9.4z" fill="#685847"/>
    <path d="m594 657.2c-4.2.1-7.3-1.2-8.2-6.1 3.7-.5 6.4 3.4 10.6.4 1.3-1.4 2.9-3.7.9-7.6-.2-2.2-5.8 2-4.8-2.9 6.1-.7 11 1.8 10.8 7.9.9 5.8-4.3 6.3-9.3 8.3z" fill="#68615d"/>
    <path d="m562.4 612.3c-.8-.8-1.5-1.7-2.3-2.5 1.9-2.4 5.3-1 7.7-3.5 2-2.9.9-5.7-1.8-8.2-4.6-4.4.1-4.8 2.1-8 0-1.9 2-1.8 2.2 0-.7 1.7-1.6 3.2.4 5.1 7.3 6.1 1.3 19.6-8.3 17.1z" fill="#9294a0"/>
    <path d="m574 620.6c-1.2-1.7-2.5-3.3-3.7-5 2.1-8.9 16 16.1 16.3 19.7-4.2-4.9-8.4-9.8-12.6-14.7z" fill="#787578"/>
    <path d="m594 657.2c-2-5.3 13.3 2.4 5.8-14.4-2.1-.2-4-.4-5.9-.6 1.3-5.7 4.6-3.8 7.9-2.2 5.8 7.8 4.1 20.6-7.8 17.2z" fill="#adaeb9"/>
    <path d="m570.3 589.9c-.3-.4-.7-.8-1-1.2-1-3.3 3.1-24.7 8.1-20.7-.5 7.9-4.1 14.8-7.1 21.9z" fill="#9b9fad"/>
    <path d="m601.9 640c-2.8 0-6.1-1.3-7.9 2.2-.5-.4-1-.8-1.5-1.3.9-1.4 1.8-2.8 2.6-4 3.5-1 5.6.2 6.8 3.1z" fill="#746e6d"/>
</svg>
