<svg id="Ebene_1" enable-background="new 0 0 613.3 459.9" viewBox="0 0 613.3 459.9" xmlns="http://www.w3.org/2000/svg" xmlns:xlink="http://www.w3.org/1999/xlink">
    <clipPath id="SVGID_2_">
        <path id="SVGID_1_" d="m5.7 8.7h600v450.7h-600z"/>
    </clipPath>
    <linearGradient id="SVGID_3_" gradientTransform="matrix(1 0 0 -1 0 462.0013)" gradientUnits="userSpaceOnUse" x1="305.73" x2="305.73" y1="5.2613" y2="2.1413">
        <stop offset="0" stop-color="#d9d1bd"/>
        <stop offset=".43" stop-color="#e9e5d9"/>
        <stop offset=".65" stop-color="#e5e0d2"/>
        <stop offset=".95" stop-color="#dad3c0"/>
        <stop offset="1" stop-color="#d8d0bc"/>
    </linearGradient>
    <clipPath id="SVGID_5_">
        <path id="SVGID_4_" d="m98.4 135.8h400.5v107h-400.5z"/>
    </clipPath>
    <clipPath id="SVGID_7_">
        <path id="SVGID_6_" d="m98.4 135.5h400.9v107.3h-400.9z"/>
    </clipPath>
    <clipPath id="SVGID_9_">
        <path id="SVGID_8_" d="m98.4 135.8h400.5v107h-400.5z"/>
    </clipPath>
    <clipPath id="SVGID_11_">
        <path id="SVGID_10_" d="m98.4 135.8h400.5v107h-400.5z"/>
    </clipPath>
    <clipPath id="SVGID_13_">
        <path id="SVGID_12_" d="m433.3 190.9h55.4v2h-55.4z"/>
    </clipPath>
    <clipPath id="SVGID_15_">
        <path id="SVGID_14_" d="m433.7 191.4h55v1.5h-55z"/>
    </clipPath>
    <clipPath id="SVGID_17_">
        <path id="SVGID_16_" d="m181.8 218h1.2v9h-1.2z"/>
    </clipPath>
    <clipPath id="SVGID_19_">
        <path id="SVGID_18_" d="m181.8 218h1.2v9h-1.2z"/>
    </clipPath>
    <clipPath id="SVGID_21_">
        <path id="SVGID_20_" d="m181.8 218h1.2v9h-1.2z"/>
    </clipPath>
    <clipPath id="SVGID_23_">
        <path id="SVGID_22_" d="m98.4 135.8h400.5v107h-400.5z"/>
    </clipPath>
    <clipPath id="SVGID_25_">
        <path id="SVGID_24_" d="m98.4 135.8h400.5v107h-400.5z"/>
    </clipPath>
    <clipPath id="SVGID_27_">
        <path id="SVGID_26_" d="m184 215.1h2.5v2.5h-2.5z"/>
    </clipPath>
    <clipPath id="SVGID_29_">
        <path id="SVGID_28_" d="m184.4 215.6h1.8v1.6h-1.8z"/>
    </clipPath>
    <clipPath id="SVGID_31_">
        <path id="SVGID_30_" d="m184.4 215.6h1.8v1.6h-1.8z"/>
    </clipPath>
    <clipPath id="SVGID_35_">
        <path id="SVGID_34_" d="m90 8.5h71v38.6h-71z"/>
    </clipPath>
    <clipPath id="SVGID_37_">
        <path id="SVGID_36_" d="m90.2 8.7h70.4v38.4h-70.4z"/>
    </clipPath>
    <clipPath id="SVGID_39_">
        <path id="SVGID_38_" d="m571 2.3h35.1v42.3h-35.1z"/>
    </clipPath>
    <clipPath id="SVGID_41_">
        <path id="SVGID_40_" d="m281.9-.2h117.9v47.3h-117.9z"/>
    </clipPath>
    <clipPath id="SVGID_43_">
        <path id="SVGID_42_" d="m282.2 0h117.4v47h-117.4z"/>
    </clipPath>
    <clipPath id="SVGID_45_">
        <path id="SVGID_44_" d="m595 122.6h3.5v5h-3.5z"/>
    </clipPath>
    <clipPath id="SVGID_47_">
        <path id="SVGID_46_" d="m595.3 122.7h3.1v4.9h-3.1z"/>
    </clipPath>
    <g>
        <g id="Ebene_1_1_">
            <g>
                <g clip-path="url(#SVGID_2_)">
                    <path d="m613.3 232h-3.5l-3.6 2.1-.5.3v225h-195.7v.5l-.5-.5h-403.8v-212.1h-5.7v-14.2h5.7v-224.4h600v223.9l2-.6 3.9-1h.1z" fill="#808080"/>
                    <path d="m285.8 350.3v48.6h2.9v-48.6zm0-49.3v2.4h2.9v-2.4zm30.4-58.7v11.8h2.9v-11.8zm-30.4 0v61h2.9v-61zm0 11.8v49.3h2.9v-49.3zm0 47v2.4h2.9v-2.4zm0 49.3v109h2.9v-109.1zm60.7-33.3v45.7h2.9v-45.8zm33.1-28.4c-.6-.8-1.3-1.5-1.9-2.3-.3-.4-.6-.7-.9-1.1-.1-.1-.1-.1-.1-.2v45.8l2.9-2.9zm0 0c-.6-.8-1.3-1.5-1.9-2.3-.3-.4-.6-.7-.9-1.1-.1-.1-.1-.1-.1-.2v8.8c.3-.2.5-.3.8-.4.7-.4 1.4-.7 2.1-1zm-33.1-34.6v108.6h2.9v-108.6zm33.1 34.6c-.6-.8-1.3-1.5-1.9-2.3-.3-.4-.6-.7-.9-1.1-.1-.1-.1-.1-.1-.2v10l2.9-.2v-6zm0 0c-.6-.8-1.3-1.5-1.9-2.3-.3-.4-.6-.7-.9-1.1-.1-.1-.1-.1-.1-.2v8.8c.3-.2.5-.3.8-.4.7-.4 1.4-.7 2.1-1zm-31-43c-.2-.6-.3-1.2-.5-1.8s-.3-1-.4-1.5h-1.3v120.3h2.9v-114.3c-.2-.9-.4-1.8-.7-2.7zm31.1 43c-.6-.8-1.3-1.5-1.9-2.3-.3-.4-.6-.7-.9-1.1-.1-.1-.1-.1-.1-.2v8.8c.3-.2.5-.3.8-.4.7-.4 1.4-.7 2.1-1zm-33.2-34.6v108.6h2.9v-108.6zm33.1 34.6c-.6-.8-1.3-1.5-1.9-2.3-.3-.4-.6-.7-.9-1.1-.1-.1-.1-.1-.1-.2v10l2.9-.2v-6zm0 0c-.6-.8-1.3-1.5-1.9-2.3-.3-.4-.6-.7-.9-1.1-.1-.1-.1-.1-.1-.2v45.8l2.9-2.9zm0 0c-.6-.8-1.3-1.5-1.9-2.3-.3-.4-.6-.7-.9-1.1-.1-.1-.1-.1-.1-.2v8.8c.3-.2.5-.3.8-.4.7-.4 1.4-.7 2.1-1zm-31-43c-.2-.6-.3-1.2-.5-1.8s-.3-1-.4-1.5-.2-.8-.3-1.3-.3-1.1-.4-1.7v-.1c-.1-.4-.2-.9-.3-1.3s-.2-1-.3-1.5v126.2h2.9v-114.3c-.2-.9-.4-1.8-.7-2.7zm31 43c-.6-.8-1.3-1.5-1.9-2.3-.3-.4-.6-.7-.9-1.1-.1-.1-.1-.1-.1-.2v10l2.9-.2v-6zm-1.3-33.1c-.5-.5-1-1-1.5-1.6v98.6h2.9v-95.6c-.5-.4-1-.9-1.4-1.4zm31.4 22.3-1.1-.5c-.5-.2-1-.4-1.5-.6v26.6h2.9v-25.4zm27.8 15.4v20.1c.2 0 .5 0 .7-.1l1.9-.2h.3v-4.5h-2.3v-.1l.4-.2h.1l.5-.3 1.2-.9v-13.8zm-58.9 76.7-.6-4.8-1.2.2v79.4h2.9v-75zm-1.8-39.2v114h2.9v-75l-1.1.2-.6-4.8 1.7-.3v-37zm-30.3-13.8v139.8h2.9v-139.8zm33.2 35.6h-2.9v92.2h2.9v-75l-1.1.2-.6-4.8 1.7-.3zm-1.1 17.4-.6-4.8-1.2.2v91.4h2.9v-87zm31.2-1.5c-.1-.1-.3-.2-.5-.2-.3-.1-.6-.2-.9-.3-.2 0-.3 0-.5 0h-.1c-.1-.1-.3-.3-.7-.6v15.8 73.6h2.9v-69.1-19zm-61.2-122.9c-.2-.6-.3-1.2-.5-1.8s-.3-1-.4-1.5-.2-.8-.3-1.3-.3-1.1-.4-1.7v-.1c-.1-.4-.2-.9-.3-1.3s-.2-1-.3-1.5v17.6h2.9v-5.6c-.2-.9-.4-1.8-.7-2.8zm61.1 32.3-1.1-.5c-.5-.2-1-.4-1.5-.6v26.6h2.9v-25.4zm27.8 15.4v20.1c.2 0 .5 0 .7-.1l1.9-.2h.3v-4.5h-2.3v-.1l.4-.2h.1l.5-.3 1.2-.9v-13.8zm-27.7 75.2c-.1-.1-.3-.2-.5-.2-.3-.1-.6-.2-.9-.3-.2 0-.3 0-.5 0h-.1c-.1-.1-.3-.3-.7-.6v15.8 76.2h2.9v-71.8-19zm27.7-73.1v71c1 .2 2 .4 2.9.7v-58.5h-2.3v-.1l.4-.2h.1l.5-.3 1.2-.9v-11.6h-2.8zm-.1 1.2v66.4l.8.2.7.2c.5.1 1 .2 1.5.4v-55h-2.3v-.1l.4-.2h.1l.5-.3 1.2-.9v-10.4zm0-15.9v82.3l.8.2.7.2c.5.1 1 .2 1.5.4v-55h-2.3v-.1l.4-.2h.1l.5-.3 1.2-.9v-27.3c-1 .1-1.9.4-2.9.7zm0-26.6v108.9l.8.2.7.2c.5.1 1 .2 1.5.4v-55h-2.3v-.1l.4-.2h.1l.5-.3 1.2-.9v-53h-2.9zm0 0v108.9l.8.2.7.2c.5.1 1 .2 1.5.4v-55h-2.3v-.1l.4-.2h.1l.5-.3 1.2-.9v-53h-2.9zm0 0v108.9l.8.2.7.2c.5.1 1 .2 1.5.4v-55h-2.3v-.1l.4-.2h.1l.5-.3 1.2-.9v-53h-2.9zm0 0v108.9l.8.2.7.2c.5.1 1 .2 1.5.4v-55h-2.3v-.1l.4-.2h.1l.5-.3 1.2-.9v-53h-2.9zm0 37.3v71.6l.8.2.7.2c.5.1 1 .2 1.5.4v-55h-2.3v-.1l.4-.2h.1l.5-.3 1.2-.9v-15.7h-2.9zm0 1.9v69.6l.8.2.7.2c.5.1 1 .2 1.5.4v-55h-2.3v-.1l.4-.2h.1l.5-.3 1.2-.9v-13.7h-2.9zm0 15.3v.3c.1-.1.3-.2.4-.3zm0-42.8v42.9h.4c-.1.1-.3.2-.4.3v80.2 70.4h2.9v-193.8zm0 14.8v12.7h2.9v-13.5c-1 .3-1.9.6-2.9.8zm2.9 26.4-1.2.9-.5.3h-.1l-.4.2v.1h2.3zm27.4-52.9v205.3h2.9v-205.3zm-27.4 53-1.2.9-.5.3h-.1l-.4.2v.1h2.3zm-2.9-26.4v14.8h2.9v-15.7c-1 .3-1.9.6-2.9.9zm0 0v12.7h2.9v-13.6c-1 .3-1.9.6-2.9.9zm2.9 26.4-1.2.9-.5.3h-.1l-.4.2v.1h2.3zm30.3 68.7-.1 1.7-.8 10.9-.8 10.5-.2 2.7-.4 5-.2 2.3h2.5v-33.4zm-.8 48.8.4.6.5.7v-8zm.8-131.3v-.7zm0 0v-.7zm0 82.5-.1 1.7-.8 10.9-.8 10.5-.2 2.7-.4 5-.2 2.3h2.5v-33.4zm-.7 48.8.4.6.5.7v-8zm.7-131.3h-2.9v70.4l1.2.2.9 4.7v.2l.8.1v-76.3zm-.7 131.3.4.6.5.7v-8zm-32.5-144v12.7h2.9v-13.5c-1 .3-1.9.6-2.9.8zm2.9 26.4-1.2.9-.5.3h-.1l-.4.2v.1h2.3zm27.4-52.9v123.4h2.7l-.8 10.9-.8 10.5-.2 2.7-.4 5-.2 2.3h2.5v-154.8zm-27.4 53-1.2.9-.5.3h-.1l-.4.2v.1h2.3zm-2.9-26.4v14.8h2.9v-15.7c-1 .3-1.9.6-2.9.9zm0-14.9v42.9h.4c-.1.1-.3.2-.4.3v80.1 70.4h2.9v-193.7zm0 14.9v12.7h2.9v-13.6c-1 .3-1.9.6-2.9.9zm2.9 26.4-1.2.9-.5.3h-.1l-.4.2v.1h2.3zm0-.1-1.2.9-.5.3h-.1l-.4.2v.1h2.3zm-2.9-26.4v14.8h2.9v-15.6c-1 .3-1.9.6-2.9.8zm-363.8-161.1v19.7h2.9v-19.7zm121.3 279.4v2.7h2.9v-2.7zm0-144.9v136.4c1-.2 2-.4 2.9-.5v-135.8zm0-11.7v148.1c1-.2 2-.4 2.9-.5v-147.6zm0 11.7v136.4c1-.2 2-.4 2.9-.5v-135.8zm-91-111.6v111.6h2.9v-111.6zm0 0v37.8h2.9v-37.8zm0 0v37.8h2.9v-37.8zm0 0v37.8h2.9v-37.8zm0 0v37.8h2.9v-37.8zm0 0v37.8h2.9v-37.8zm0 0v99.8h2.9v-99.8zm0 0v37.8h2.9v-37.8zm0 0v37.8h2.9v-37.8zm0 0v37.8h2.9v-37.8zm0 0v37.8h2.9v-37.8zm0 0v37.8h2.9v-37.8zm0 0v37.8h2.9v-37.8zm0 0v37.8h2.9v-37.8zm0 0v37.8h2.9v-37.8zm0 0v37.8h2.9v-37.8zm0 0v37.8h2.9v-37.8zm0 0v37.8h2.9v-37.8zm0 0v37.8h2.9v-37.8zm0 0v37.8h2.9v-37.8zm0 0v37.8h2.9v-37.8zm0 0v37.8h2.9v-37.8zm0 0v37.8h2.9v-37.8zm0 0v37.8h2.9v-37.8zm0 0v37.8h2.9v-37.8zm0 0v37.8h2.9v-37.8zm0 0v37.8h2.9v-37.8zm0 0v99.8h2.9v-99.8zm-60.6 314.3v2.7h2.9v-2.7zm0 0v2.7h2.9v-2.7zm0 0v2.7h2.9v-2.7zm0 0v2.7h2.9v-2.7zm30.3-317.5v317.6h2.9v-317.6zm0 0v317.6h2.9v-317.6zm0 0v296h2.9v-296zm0 0v296h2.9v-296zm0 0v296h2.9v-296zm0 0v296h2.9v-296zm0 0v296h2.9v-296zm0 0v296h2.9v-296zm0 0v317.6h2.9v-317.6zm0 0v320.2h2.9v-320.2zm30.3 0v320.2h2.9v-320.2zm91 259.7v2.7h2.9v-2.7zm0-144.9v136.4c1-.2 2-.4 2.9-.5v-135.8zm0-11.7v148.1c1-.2 2-.4 2.9-.5v-147.6zm0 11.7v136.4c1-.2 2-.4 2.9-.5v-135.8zm-91-111.6v111.6h2.9v-111.6zm0 0v37.8h2.9v-37.8zm0 0v37.8h2.9v-37.8zm0 0v37.8h2.9v-37.8zm0 0v37.8h2.9v-37.8zm0 0v37.8h2.9v-37.8zm0 0v99.8h2.9v-99.8zm0-3.2v296h2.9v-296zm91 259.7v2.7h2.9v-2.7zm0-144.9v136.4c1-.2 2-.4 2.9-.5v-135.8zm0-11.7v148.1c1-.2 2-.4 2.9-.5v-147.6zm0 11.7v136.4c1-.2 2-.4 2.9-.5v-135.8zm0 147.7v57.7h2.9v-57.8zm182.8-103.8-.9-.8v162.2h2.9v-159.8c-.7-.4-1.3-1-2-1.6zm2-9.3c-.6-.8-1.3-1.5-1.9-2.3-.3-.4-.6-.7-.9-1.1-.1-.1-.1-.1-.1-.2v174.4h2.9v-89.6l-1.1.2-.6-4.8 1.7-.3zm0 0c-.6-.8-1.3-1.5-1.9-2.3-.3-.4-.6-.7-.9-1.1-.1-.1-.1-.1-.1-.2v8.8c.3-.2.5-.3.8-.4.7-.4 1.4-.7 2.1-1zm-.1 0c-.6-.8-1.3-1.5-1.9-2.3-.3-.4-.6-.7-.9-1.1-.1-.1-.1-.1-.1-.2v10l2.9-.2v-6zm-1.3-33c-.5-.5-1-1-1.5-1.6v205.4h2.9v-89.6l-1.1.2-.6-4.8 1.7-.3v-107.8c-.5-.5-1-1-1.4-1.5zm31.4 22.3-1.1-.5c-.5-.2-1-.4-1.5-.6v26.6h2.9v-25.4zm27.8 15.4v20.1c.2 0 .5 0 .7-.1l1.9-.2h.3v-4.5h-2.3v-.1l.4-.2h.1l.5-.3 1.2-.9v-13.8zm-59.8 4.6-.9-.8v162.2h2.9v-159.8c-.7-.4-1.3-1-2-1.6zm32.1 70.6c-.1-.1-.3-.2-.5-.2-.3-.1-.6-.2-.9-.3-.2 0-.3 0-.5 0h-.1c-.1-.1-.3-.3-.7-.6v15.8 76.2h2.9v-71.8-19zm27.7-73.1v13.2h.4c-.1.1-.3.2-.4.3v80.2 70.4h2.9v-164zm30.3-2.1v166.1h2.9v-166.1zm30.3 0v166.1h2.9v-166.1zm-30.4 15.3v68.9h2.9v-68.9zm-30.3-28v12.7h2.9v-13.5c-1 .3-1.9.6-2.9.8zm2.9 26.4-1.2.9-.5.3h-.1l-.4.2v.1h2.3zm57.8-13.6v104c.9.5 1.9.9 2.9 1.1v-105.2zm-30.4 15.2v68.9h2.9v-68.9zm-30.3-13.2v13.2h.4c-.1.1-.3.2-.4.3v80.2 70.4h2.9v-164zm30.4-2.1v166.1h2.9v-166.1zm30.3 0v166.1h2.9v-166.1zm-30.4 15.3v68.9h2.9v-68.9zm-30.3-28v12.7h2.9v-13.5c-1 .3-1.9.6-2.9.8zm2.9 26.4-1.2.9-.5.3h-.1l-.4.2v.1h2.3zm27.4-64.7v66.4h2.9v-66.4zm30.4 0v125.1s.1 0 .1.1c.4.1.8.3 1.2.4s.6.2.9.2l.6.1h.1v-126zm30.3 0v217.1h2.9v-217.1zm-30.3 53.1v10.7h2.9v-10.7zm0-2.1v104c.9.5 1.9.9 2.9 1.1v-105.1zm-30.4 15.3v68.9h2.9v-68.9zm-30.3-28v12.7h2.9v-13.5c-1 .3-1.9.6-2.9.8zm2.9 26.4-1.2.9-.5.3h-.1l-.4.2v.1h2.3zm57.8-11.6v10.7h2.9v-10.7zm33 89.3c-.1.2-.2.4-.3.5-.1.2-.2.3-.3.5l-.1.1c-.1.1-.2.2-.3.4-.1.1-.2.2-.4.3-.1.1-.2.2-.3.2-.1.1-.3.2-.4.3s-.3.2-.4.2v1h2.9v-4.1c-.3.3-.3.5-.4.6zm-33-89.3v10.7h2.9v-10.7zm-60.7-14.8v12.7h2.9v-13.5c-1 .3-1.9.6-2.9.8zm2.9 26.4-1.2.9-.5.3h-.1l-.4.2v.1h2.3zm57.8-11.6v10.7h2.9v-10.7zm0-2.1v104c.9.5 1.9.9 2.9 1.1v-105.1zm-30.4 15.3v68.9h2.9v-68.9zm-30.3-28v12.7h2.9v-13.5c-1 .3-1.9.6-2.9.8zm2.9 26.4-1.2.9-.5.3h-.1l-.4.2v.1h2.3zm57.8-11.6v10.7h2.9v-10.7zm33 89.3c-.1.2-.2.4-.3.5-.1.2-.2.3-.3.5l-.1.1c-.1.1-.2.2-.3.4-.1.1-.2.2-.4.3-.1.1-.2.2-.3.2-.1.1-.3.2-.4.3s-.3.2-.4.2v1h2.9v-4.1c-.3.3-.3.5-.4.6zm-33-89.3v10.7h2.9v-10.7zm33 89.3c-.1.2-.2.4-.3.5-.1.2-.2.3-.3.5l-.1.1c-.1.1-.2.2-.3.4-.1.1-.2.2-.4.3-.1.1-.2.2-.3.2-.1.1-.3.2-.4.3s-.3.2-.4.2v1h2.9v-4.1c-.3.3-.3.5-.4.6zm0 0c-.1.2-.2.4-.3.5-.1.2-.2.3-.3.5l-.1.1c-.1.1-.2.2-.3.4-.1.1-.2.2-.4.3-.1.1-.2.2-.3.2-.1.1-.3.2-.4.3s-.3.2-.4.2v1h2.9v-4.1c-.3.3-.3.5-.4.6zm-33-89.3v10.7h2.9v-10.7zm-60.7-14.8v12.7h2.9v-13.5c-1 .3-1.9.6-2.9.8zm2.9 26.4-1.2.9-.5.3h-.1l-.4.2v.1h2.3zm57.8-11.6v10.7h2.9v-10.7zm33 89.3c-.1.2-.2.4-.3.5-.1.2-.2.3-.3.5l-.1.1c-.1.1-.2.2-.3.4-.1.1-.2.2-.4.3-.1.1-.2.2-.3.2-.1.1-.3.2-.4.3s-.3.2-.4.2v1h2.9v-4.1c-.3.3-.3.5-.4.6zm-33-89.3v10.7h2.9v-10.7zm-60.7-14.8v12.7h2.9v-13.5c-1 .3-1.9.6-2.9.8zm2.9 26.4-1.2.9-.5.3h-.1l-.4.2v.1h2.3zm57.8-11.6v10.7h2.9v-10.7zm0-2.1v104c.9.5 1.9.9 2.9 1.1v-105.1zm-30.4 15.3v68.9h2.9v-68.9z" fill="none"/>
                    <path d="m605.7 456.7v2.7h-195.7v.5l-.5-.5h-403.8v-2.7z" fill="url(#SVGID_3_)"/>
                    <path d="m5.7 435.1h600v21.6h-600z" fill="#f9f8f7"/>
                    <g>
                        <g clip-path="url(#SVGID_5_)">
                            <g>
                                <g>
                                    <g clip-path="url(#SVGID_7_)">
                                        <g>
                                            <g clip-path="url(#SVGID_9_)">
                                                <path d="m329.3 220.5c0 8.2-6.6 14.1-14.9 14.1s-14.9-5.9-14.9-14.1 6.6-11.2 14.9-11.2 14.9 3 14.9 11.2" fill="#3f2726"/>
                                                <path d="m315.3 218.2c0 3.3-2.7 6-6 6s-6-2.7-6-6 2.7-4.7 6-4.7 6 1.4 6 4.7" fill="#3a2524"/>
                                                <path d="m309 207.3 2.3 3.8c.7 1.1 1.9 1.8 3.2 1.8 1.4 0 2.6-.8 3.3-2l1.4-3.3-3.4 2.4-3.3-3.4.9 3.9z" fill="#2b362c"/>
                                                <path d="m315 205-1.9.4c.8 2.1 1 4.3.6 6.5.3.2.5.4 1.3 0 .5-2.3.5-4.7 0-6.9" fill="#303b30"/>
                                                <path clip-rule="evenodd" d="m367.1 235.6v6.1c0 .6-.4 1-1 1h-78.3c-.6 0-1-.4-1-1v-6.1c0-.6.4-1 1-1h78.4c.5 0 .9.5.9 1" fill="#362d26" fill-rule="evenodd"/>
                                                <path clip-rule="evenodd" d="m367.1 235.6v.7h-80.3v-.7c0-.6.4-1 1-1h78.4c.5 0 .9.5.9 1" fill="#3b322b" fill-rule="evenodd"/>
                                                <path clip-rule="evenodd" d="m488.7 191.4v42.3c0 3.4-2.7 6.1-6.1 6.1h-42.6c-3.4 0-6.1-2.7-6.1-6.1v-42.3z" fill="#303031" fill-rule="evenodd"/>
                                                <path clip-rule="evenodd" d="m445.4 233.7v-42.3h-4.5v42.3c0 3.4 1.6 6.1 3.5 6.1h3.5c-1.4 0-2.5-2.7-2.5-6.1" fill="#383838" fill-rule="evenodd"/>
                                                <path clip-rule="evenodd" d="m478.5 191.4v42.3c0 3.4-1.7 6.1-3.8 6.1h5.4c3 0 5.4-2.7 5.4-6.1v-42.3z" fill="#383838" fill-rule="evenodd"/>
                                                <path clip-rule="evenodd" d="m488.7 233.7c0 3.4-2.7 6.1-6.1 6.1h-42.6c-3.4 0-6.1-2.7-6.1-6.1z" fill="#303031" fill-rule="evenodd"/>
                                                <path clip-rule="evenodd" d="m488.8 189.5h-55.1c-.5 0-.9.4-.9.9 0 .5.4.9.9.9h55.1c.5 0 .9-.4.9-.9.1-.5-.4-.9-.9-.9z" fill="#383838" fill-rule="evenodd"/>
                                            </g>
                                        </g>
                                        <g>
                                            <g clip-path="url(#SVGID_11_)">
                                                <g opacity=".14">
                                                    <g>
                                                        <g clip-path="url(#SVGID_13_)">
                                                            <g>
                                                                <g clip-path="url(#SVGID_15_)">
                                                                    <path d="m433.7 191.4h55v1.5h-55z" fill="#333"/>
                                                                </g>
                                                            </g>
                                                        </g>
                                                    </g>
                                                </g>
                                                <path d="m483.6 205.2c-.9 0-1.6-.7-1.6-1.6 0-.5.2-.9.6-1.2l13.7-11.4c.7-.6 1.7-.5 2.3.2.6.7.5 1.7-.2 2.3l-13.7 11.4c-.3.1-.7.3-1.1.3" fill="#3b322b"/>
                                                <path d="m484.7 195.4h13.3v3.5h-13.3z" fill="#241d18" transform="matrix(.7685 -.6398 .6398 .7685 -12.3996 360.0126)"/>
                                                <path d="m439 205.2c.9 0 1.6-.7 1.6-1.6 0-.5-.2-.9-.6-1.2l-13.7-11.4c-.7-.6-1.7-.5-2.3.2-.6.7-.5 1.7.2 2.3l13.7 11.4c.3.1.6.3 1.1.3" fill="#3b322b"/>
                                                <path d="m429.4 190.5h3.5v13.3h-3.5z" fill="#241d18" transform="matrix(.6398 -.7685 .7685 .6398 3.7832 402.3969)"/>
                                                <path d="m363.6 225.8-1.5 8.9c-.1.6-.3 1.1-.7 1.5-.6.2-1.3.3-1.9.1l-27.6-7.5c-6.3-1.7-11.8-5.6-15.5-11.1z" fill="#383838"/>
                                                <path d="m394.6 242.6c-2.1 1.1-6.6-2.7-8.8-3.6-1.6-.8-3.3-1.4-5-1.9-1.2-.2-3.7.4-4.9.2s-3.5-1.7-4.8-1.9c-1.4 0-2.8.1-4.1.4l-3.6-.6c-.7-.1-1.2-.8-1.1-1.5l1.3-7.9 30 5.1c1.6.3 2.7 1.8 2.4 3.4s.5 7.3-1.4 8.3" fill="#5a5a5a"/>
                                                <path d="m392.6 234.7-29.6-5 .4-2.3 29.6 5c.6.1 1 .7 1 1.3-.2.6-.8 1-1.4 1" fill="#383838"/>
                                                <path d="m223.2 235.7h-120.5c-2.4 0-4.3 2-4.3 4.4v2.7h129.1v-2.7c0-2.4-1.9-4.4-4.3-4.4" fill="#202020"/>
                                                <path d="m168.1 209.9h-10.3c-.7 0-1.3.6-1.3 1.3v24.5h12.9v-24.5c0-.7-.6-1.3-1.3-1.3z" fill="#303031"/>
                                                <path d="m181.7 217.2h-12.3c-2 3.3-2 7.4 0 10.7h12.3z" fill="#292929"/>
                                            </g>
                                        </g>
                                        <g>
                                            <g clip-path="url(#SVGID_17_)">
                                                <g>
                                                    <g clip-path="url(#SVGID_19_)">
                                                        <g>
                                                            <g clip-path="url(#SVGID_21_)">
                                                                <image height="38" overflow="visible" transform="matrix(.24 0 0 .24 181.65 217.99)" width="6" xlink:href="54C86D8E.png"/>
                                                            </g>
                                                        </g>
                                                    </g>
                                                </g>
                                            </g>
                                        </g>
                                        <g>
                                            <g clip-path="url(#SVGID_23_)">
                                                <path d="m187.4 228h-4.4v-10.9h4.4c.2 0 .4.2.4.4v10.1c-.1.2-.2.4-.4.4" fill="#292929"/>
                                                <path d="m184.4 208.2h1.8v9h-1.8z" fill="#292929"/>
                                            </g>
                                        </g>
                                        <g>
                                            <g clip-path="url(#SVGID_25_)">
                                                <g>
                                                    <g>
                                                        <g clip-path="url(#SVGID_27_)">
                                                            <g>
                                                                <g clip-path="url(#SVGID_29_)">
                                                                    <g>
                                                                        <g clip-path="url(#SVGID_31_)">
                                                                            <g/>
                                                                        </g>
                                                                    </g>
                                                                </g>
                                                            </g>
                                                        </g>
                                                    </g>
                                                </g>
                                                <path d="m159.4 209.9h7v-52.8s.1-13 14.1-14.1c9.5-.8 13.6 9.3 13.6 9.3l5.9 16.5 6.6-2.4-6-16.5s-4.7-13.9-19.9-13.9c-21.8-.1-21.5 21.1-21.5 21.1z" fill="#383838"/>
                                                <path d="m199.3 168.6 8-2.8 2.3 6.6-8 2.8z" fill="#383838"/>
                                            </g>
                                        </g>
                                    </g>
                                </g>
                            </g>
                        </g>
                    </g>
                    <path d="m5.7 245.1h85.3v214.3h-85.3z" fill="#404040"/>
                    <path d="m41.8 245.1h12.3v214.3h-12.3z" fill="#383838"/>
                    <path d="m0 233.1h95.9v14.2h-95.9z" fill="#241d18"/>
                    <path d="m570.5 254v205.4h-160.5v.5l-.5-.5h-318.4v-205.4z" fill="#241d18"/>
                    <path d="m427.4 254h140.9v187.8h-140.9z" fill="#404040"/>
                    <path d="m427.4 406.6h140.9v2.4h-140.9z" fill="#131313"/>
                    <path d="m566.5 406.6h-137.3c-1 0-1.8-.8-1.8-1.8v-27.4h140.9v27.4c0 1-.8 1.8-1.8 1.8z" fill="#303031"/>
                    <path d="m568.3 308.6h-140.9v-12.5c0-.4.3-.8.8-.8h139.4c.4 0 .8.3.8.7v12.6z" fill="#303031"/>
                    <path d="m427.4 265.8h140.9v27.5h-140.9z" fill="#303031"/>
                    <path d="m475.7 281.1c0 2.8-2.3 5.1-5.1 5.1s-5.1-2.3-5.1-5.1 2.3-5.1 5.1-5.1c2.8 0 5.1 2.2 5.1 5.1z" fill="#383838"/>
                    <path d="m470.6 280.8c-.2 0-.4-.2-.4-.4v-2.9c0-.2.2-.4.4-.4s.4.2.4.4v2.9c0 .2-.2.4-.4.4z" fill="#292929"/>
                    <path d="m521.8 281.1c0 2.8 2.3 5.1 5.1 5.1s5.1-2.3 5.1-5.1-2.3-5.1-5.1-5.1c-2.8 0-5.1 2.2-5.1 5.1z" fill="#383838"/>
                    <path d="m526.9 280.8c.2 0 .3-.2.3-.4v-2.9c0-.2-.2-.4-.4-.4s-.3.2-.3.4v2.9c0 .2.2.4.4.4z" fill="#292929"/>
                    <path d="m506.4 281.6h-15.3c-.5 0-.8-.4-.8-.8v-4.8c0-.5.4-.8.8-.8h15.3c.5 0 .8.4.8.8v4.8c0 .5-.4.9-.8.8z" fill="#131313"/>
                    <path d="m494 286.1c0 1-.8 1.9-1.8 1.9s-1.9-.8-1.9-1.8.8-1.9 1.8-1.9c1.1 0 1.9.8 1.9 1.8z" fill="#4c3621"/>
                    <path d="m493.6 286.1c0 .8-.6 1.4-1.4 1.4s-1.4-.6-1.4-1.4.6-1.4 1.4-1.4c.7 0 1.3.6 1.4 1.4z" fill="#383838"/>
                    <path d="m500.6 286.1c0 1-.8 1.9-1.9 1.9-1 0-1.9-.8-1.9-1.9 0-1 .8-1.9 1.9-1.9 1.1.1 1.9.9 1.9 1.9z" fill="#4c3621"/>
                    <path d="m500.2 286.1c0 .8-.6 1.4-1.4 1.4s-1.4-.6-1.4-1.4.6-1.4 1.4-1.4c.7 0 1.4.7 1.4 1.4z" fill="#383838"/>
                    <path d="m507.2 286.1c0 1-.8 1.9-1.9 1.9-1 0-1.9-.8-1.9-1.9 0-1 .8-1.9 1.9-1.9 1.1.1 1.9.9 1.9 1.9z" fill="#4c3621"/>
                    <path d="m506.7 286.1c0 .8-.6 1.4-1.4 1.4s-1.4-.6-1.4-1.4.6-1.4 1.4-1.4c.8 0 1.4.7 1.4 1.4z" fill="#383838"/>
                    <path d="m427.4 308.6h140.9v68.9h-140.9z" fill="#362d26"/>
                    <path d="m449.7 308.6h96.3v68.9h-96.3z" fill="#131313"/>
                    <path d="m429 293.3h137.8v2.1h-137.8z" fill="#131313"/>
                    <path d="m555.1 311.1h-114.5c-1.4 0-2.5-1.1-2.5-2.5 0-1.4 1.1-2.5 2.5-2.5h114.6c1.4 0 2.5 1.1 2.5 2.5-.1 1.4-1.2 2.5-2.6 2.5z" fill="#383838"/>
                    <path d="m237.5 352.6h187.8v89.2h-187.8z" fill="#404040"/>
                    <path d="m237.5 254h187.8v47h-187.8z" fill="#404040"/>
                    <path d="m237.5 303.3h187.8v47h-187.8z" fill="#404040"/>
                    <path d="m304.5 264h53.8v3.6h-53.8z" fill="#241d18"/>
                    <path d="m304.5 313.3h53.8v3.6h-53.8z" fill="#241d18"/>
                    <path d="m304.5 362.7h53.8v3.6h-53.8z" fill="#241d18"/>
                    <path d="m94.3 254h140.9v187.8h-140.9z" fill="#404040"/>
                    <path d="m221.5 264h3.6v40.4h-3.6z" fill="#241d18"/>
                    <path d="m566.3 239.3h-137c-1.1 0-2 .9-2 2v1h141v-1c0-1.1-.9-2-2-2z" fill="#3b322b"/>
                    <path d="m92.7 242.3h477.9v11.7h-477.9z" fill="#241d18"/>
                    <path d="m570.5 239.3v220.1h-160.5v.5l-.5-.5h-318.4v-220.1z" fill="none"/>
                    <path d="m158.1 8.7h16.8v49.9h-16.8z" fill="#3b322b"/>
                    <path d="m255.6 8.7h16.8v49.9h-16.8z" fill="#3b322b"/>
                    <path d="m605.7 8.7v50h-526.8v-50h240.9l2.3-.2v.2h35.8c1.5-.6 3.2-.6 4.7 0z" fill="none"/>
                    <path d="m605.7 48.1c.1.1.2.1.3.1.6.3 1.1.5 1.7.7-.6.3-1.1.6-1.7.9l-.3.2v8.6h-526.8v-50h240.9l2.3-.2v.2h35.8c1.5-.6 3.2-.6 4.7 0h243.1v4.6l.3.2c-.1 0-.2.1-.3.2v9.6c.1.1.2.2.3.3.3.3.5.6.8.9 1.8 2.3 2.6 5.2 2.4 8.1-.2-2.7-1.3-5.3-3.2-7.3l-.3.4z" fill="none"/>
                    <path d="m78.9 8.7h93.9v50h-93.9z" fill="#241d18"/>
                    <path d="m92.5 8.7v35.9l-2.3 2.4v-38.3z" fill="#3b322b"/>
                    <path d="m605.7 8.7v50h-526.8v-50h240.9l2.3-.2v.2h35.8c1.5-.6 3.2-.6 4.7 0z" fill="none"/>
                    <g opacity=".2">
                        <g>
                            <g clip-path="url(#SVGID_35_)">
                                <g>
                                    <g clip-path="url(#SVGID_37_)">
                                        <path d="m158.3 46.3h-65.8l-2.3.8h70.4v-38.4l-2.3.7z" fill="#3b322b"/>
                                    </g>
                                </g>
                            </g>
                        </g>
                    </g>
                    <path d="m92.5 8.7h65.7v35.9h-65.7z" fill="#3b322b"/>
                    <path d="m174.5 8.7h93.9v50h-93.9z" fill="#241d18"/>
                    <path d="m188.6 8.7v35.9l-2.4 2.4v-38.3z" fill="#3b322b"/>
                    <path d="m605.7 48.1c.1.1.2.1.3.1.6.3 1.1.5 1.7.7-.6.3-1.1.6-1.7.9l-.3.2v8.6h-526.8v-50h240.9l2.3-.2v.2h35.8c1.5-.6 3.2-.6 4.7 0h243.1v4.6l.3.2c-.1 0-.2.1-.3.2v9.6c.1.1.2.2.3.3.3.3.5.6.8.9 1.8 2.3 2.6 5.2 2.4 8.1-.2-2.7-1.3-5.3-3.2-7.3l-.3.4z" fill="none"/>
                    <path d="m188.6 8.7h65.7v35.9h-65.7z" fill="#3b322b"/>
                    <path d="m556.9 8.7h48.8v50h-48.8z" fill="#3b322b"/>
                    <path d="m78.9 8.7h526.8v50h-526.8z" fill="none"/>
                    <path d="m605.7 48.1c.1.1.2.1.3.1.6.3 1.1.5 1.7.7-.6.3-1.1.6-1.7.9-.1 0-.2-.1-.3-.2-.5-.2-.9-.5-1.4-.8-1.4-.8-2.7-1.9-3.8-3-.3-.3-.6-.6-.9-.9l-.4-.5c-.5-.6-.9-1.2-1.3-1.8-.2-.3-.5-.7-.7-1.1l-.4-.7c0-.1-.1-.1-.1-.2-3.1-6.1-2.9-13.3.5-19.3l.1-.2c.3-.6.7-1.1 1.1-1.6 1.9-2.6 4.4-4.7 7.3-6.1v9.6c.1.1.2.2.3.3.3.3.5.6.8.9 1.8 2.3 2.6 5.2 2.4 8.1-.2-2.7-1.3-5.3-3.2-7.3l-.3.4z" fill="#404040"/>
                    <path d="m607.8 49.1c-.6.3-1.1.6-1.7.9-.1 0-.2-.1-.3-.2-.5-.2-.9-.5-1.4-.8-1.4-.8-2.7-1.9-3.8-3-.5-.5-.9-.9-1.3-1.4s-.9-1.2-1.3-1.8c-.2-.3-.5-.7-.7-1.1l-.4-.7c0-.1-.1-.1-.1-.2-1.6-3.1-2.3-6.5-2.2-10 .1 3.2 1 6.4 2.7 9.2.2.3.3.5.5.8.8 1.3 1.7 2.4 2.8 3.5l.2.2c.4.4.8.7 1.2 1 .8.6 1.6 1.2 2.5 1.8.2.1.4.3.7.4.2.1.4.2.7.3.1.1.2.1.3.1.4.5 1 .7 1.6 1z" fill="#404040"/>
                    <path d="m606.8 24.5-.5.4-.3.3-.3.4c-1.7 2-2.7 4.4-2.8 7-.2-2.9.6-5.8 2.4-8.1.1-.2.3-.4.4-.5s.2-.2.3-.4c.3.3.6.6.8.9z" fill="#404040"/>
                    <path d="m605.7 48.1c.1.1.2.1.3.1.6.3 1.1.5 1.7.7-.6.3-1.1.6-1.7.9l-.3.2c-4.3 2-9.2 2.4-13.8 1.1-1-.3-2-.6-2.9-1-.2-.1-.4-.2-.5-.3-.6-.3-1.2-.6-1.7-.9-1.4-.8-2.7-1.8-3.8-3-.3-.3-.6-.6-.9-.9l-.4-.5c-1.1-1.3-2-2.8-2.8-4.4-.3-.6-.5-1.2-.7-1.8-2-5.6-1.4-11.9 1.7-17 .3-.6.7-1.1 1.1-1.6 2-2.7 4.6-4.9 7.6-6.3.2-.1.3-.2.5-.3.9-.4 1.9-.7 2.9-1 4.6-1.3 9.5-.9 13.8 1l.3.2c-.1 0-.2.1-.3.2v9.6c.1.1.2.2.3.3.3.3.5.6.8.9 1.8 2.3 2.6 5.2 2.4 8.1-.2-2.7-1.3-5.3-3.2-7.3l-.3.4z" fill="#404040"/>
                    <path d="m606.1 48.3c.6.3 1.1.5 1.7.7-.6.3-1.1.6-1.7.9l-.3.2c-4.3 2-9.2 2.4-13.8 1.1-1-.3-2-.6-2.9-1-.2-.1-.4-.2-.5-.3-.6-.3-1.2-.6-1.7-.9-1.4-.8-2.7-1.8-3.8-3-.5-.5-.9-.9-1.3-1.4-1.1-1.3-2-2.8-2.8-4.4-.3-.6-.5-1.2-.7-1.8-.8-2.4-1.2-5-1.1-7.5.2 5.1 2.3 9.9 5.9 13.5l.2.2c1.6 1.5 3.3 2.8 5.3 3.7.2.1.3.2.5.3.4.2.8.3 1.2.5.6.2 1.2.4 1.7.6 4.1 1.1 8.4.9 12.4-.6.5-.2.9-.4 1.4-.6z" fill="#404040"/>
                    <path d="m609.2 32.5c-.2-2.7-1.3-5.3-3.2-7.3l-.3-.3-.4-.4c-2.2-2-5-3-7.9-3.1h-.3c-1.8 0-3.6.4-5.2 1.3-1 .5-1.9 1.1-2.7 1.8l-.2.2-.2.2-.3.3c-1.9 2-3 4.6-3.2 7.3-.2-2.9.6-5.8 2.4-8.1.2-.3.5-.6.8-.9.1-.1.2-.2.3-.3l.2-.2c1.9-1.8 4.4-3 7.1-3.3.8-.1 1.6-.1 2.4 0 2.8.3 5.3 1.5 7.3 3.4.1.1.2.2.3.3.3.3.5.6.8.9 1.7 2.5 2.5 5.3 2.3 8.2z" fill="#404040"/>
                    <path d="m594 46.1c-7.9 7.9-20.7 7.9-28.6 0s-7.9-20.7 0-28.6 20.7-7.9 28.6 0c7.9 7.8 7.9 20.6 0 28.6z" fill="#404040"/>
                    <path d="m599.9 30.9c-.5 11.2-9.9 19.8-21.1 19.3-10.5-.5-18.8-8.8-19.3-19.3-.5 11.2 8.1 20.6 19.3 21.1s20.6-8.1 21.1-19.3c.1-.6.1-1.2 0-1.8z" fill="#404040"/>
                    <path d="m571.2 24.9c4.7-4.7 12.3-4.6 17 .1 2 2 3.2 4.7 3.4 7.6.6-6.6-4.2-12.5-10.8-13.1s-12.5 4.2-13.1 10.8c-.1.8-.1 1.5 0 2.3.3-2.9 1.5-5.6 3.5-7.7z" fill="#404040"/>
                    <path d="m606.1 48.3c-.1 0-.2-.1-.3-.1v-3.5h-34.8v-36h-14.1v50h48.8v-8.6l.3-.2c.6-.3 1.2-.6 1.7-.9-.5-.1-1.1-.4-1.6-.7zm-5.3-3.7.5.5c.2.2.4.4.6.6.8.6 1.6 1.2 2.5 1.8l.7.4.7.3v-3.5h-5z" fill="#241d18"/>
                    <path d="m571 8.7v35.9l-2.4 2.4v-38.3z" fill="#3b322b"/>
                    <path d="m605.7 48.1c.1.1.2.1.3.1.6.3 1.1.5 1.7.7-.6.3-1.1.6-1.7.9l-.3.2v8.6h-526.8v-50h240.9l2.3-.2v.2h35.8c1.5-.6 3.2-.6 4.7 0h243.1v4.6l.3.2c-.1 0-.2.1-.3.2v9.6c.1.1.2.2.3.3.3.3.5.6.8.9 1.8 2.3 2.6 5.2 2.4 8.1-.2-2.7-1.3-5.3-3.2-7.3l-.3.4z" fill="none"/>
                    <g>
                        <g clip-path="url(#SVGID_39_)">
                            <path d="m571 2.3h35.1v42.3h-35.1z" fill="#404040"/>
                        </g>
                    </g>
                    <path d="m609.2 32.5c-.2-2.7-1.3-5.3-3.2-7.3l-.3.4v19.5h-35.2v-36.4h35.2v4.6l.3.2c-.1 0-.2.1-.3.2v9.6c.1.1.2.2.3.3.3.3.5.6.8.9 1.8 2.3 2.6 5.1 2.4 8z" fill="none"/>
                    <path d="m605.7 8.7v50h-526.8v-50h240.9l2.3-.2v.2h35.8c1.5-.6 3.2-.6 4.7 0z" fill="none"/>
                    <path d="m411.3 8.7v50h-140.8v-50h49.4l2.3-.2v.2h35.8c1.5-.6 3.2-.6 4.7 0z" fill="#3b322b"/>
                    <path d="m383.8 56.1h-20.4c-2.6 0-4.7-2.1-4.7-4.7 0-.4.1-.9.2-1.3l1.5-5.5 1.5-5.7 1.5-5.5 2.9-10.7c.7-2.8.7-5.7-.1-8.4-.1-.4-.3-.9-.4-1.3l-.8-2.2c-.1-.4-.2-.7-.2-1.1 0-.3.1-.7.2-1h18.4l-1.7 4.1c-1.3 3.2-1.5 6.7-.6 10l5.9 21.7 1.5 5.5c.7 2.5-.7 5.1-3.2 5.8-.6.2-1.1.3-1.5.3z" fill="#404040"/>
                    <path d="m383.8 56.1h-3c2.6-.1 4.6-2.2 4.5-4.8 0-.4-.1-.8-.2-1.2l-1.4-5.5-4-15.5-1.6-6.3c-.9-3.3-.7-6.8.6-10l1-2.6.6-1.5h3l-1.7 4.1c-1.3 3.2-1.5 6.7-.6 10l5.9 21.7 1.5 5.5c.7 2.5-.8 5.1-3.3 5.8-.5.2-.9.3-1.3.3z" fill="#404040"/>
                    <path d="m367.6 14c-.4.4-1 .5-1.5.3-.2-.1-.3-.2-.5-.3-.2-.2-4.6-4.8-7.8-2-4 3.4-1.6 8.4 2.2 15.1 1.3 2 2.3 4.2 3.2 6.4.7 1.5.7 3.2.1 4.8-.2.5-.7.8-1.3.8-.1 0-.2 0-.4 0l-.2-.1c-.7-.3-1-1.1-.7-1.8.8-1.7-1.2-5.3-3.2-8.7-3.4-6-7.6-13.3-1.6-18.5 1.8-1.6 4.3-2 6.5-1.1.7.3 1.4.6 2.1 1 1.1.6 2.1 1.4 3 2.3.7.4.7 1.3.1 1.8z" fill="#404040"/>
                    <path d="m342.7 11.1c.1 3.6-.5 7.2-1.6 10.7-.2.6-.5 1.3-.8 1.9-.1.3-.2.5-.4.7-.5.9-1 1.8-1.7 2.5l-1.2.1-10.5.9c-2.2-2-3.8-4.6-4.9-7.3-.5-1.2-.9-2.4-1.2-3.6-.5-1.8-.9-3.6-1.2-5.5-.1-.8-.2-1.7-.3-2.6h.3l.8-.1 2.3-.2v.2h20.5v.6c-.1.5-.1 1.1-.1 1.7z" fill="#404040"/>
                    <path d="m339.3 8.7c.1 2.6-.2 5.3-1.1 7.8-.8 2.2-3.4 3.8-6.4 4h-.1c-.6.1-1.3.1-1.9 0-1.3-.1-2.5-.6-3.6-1.3-.6-.4-1.1-.9-1.5-1.6-1.5-2.7-2.4-5.7-2.6-8.8h17.2z" fill="#404040"/>
                    <path d="m339.8 23.7c-.4 0-.7-.2-.8-.6s.2-.8.6-.9c4.1-.9 9.4-5.6 9.1-9.3 0-1.1-.8-2.1-1.9-2.5-1.5-.5-3.2-.1-4.4.9-.3.3-.8.4-1.1.1s-.4-.8-.1-1.1c1.6-1.5 3.9-2.1 6.1-1.4 1.7.5 2.9 2 3 3.8.4 4.8-6 9.9-10.3 10.9z" fill="#404040"/>
                    <path d="m304.6 56.1-1.7-2.6-3.5-5.4-1.4-2.1h-.2l-1.5.3-.3-1.8-5-26.6 1.5-.3h.2v.1l.5-2.5 1.3-6.2.1-.3h3.5l6.7 35.9 2 10.5c.2.7-.3 1.4-.9 1.5-.5.2-1.1-.1-1.3-.5z" fill="#404040"/>
                    <path d="m304.6 56.1-1.7-2.6-3.5-5.4-1.4-2.1v.1h-.2l-1.4.3-.4-1.8-5-26.6 1.5-.3h.2v.1l.6-2.5 1.2-6.3.1-.3h1.1l6.7 35.9z" fill="#404040"/>
                    <path d="m301 56.7-1.7-2.7-3.5-5.3-1.4-2.1v.1l-1.7.3-.5-2.4-3.6-19.2-1.3-6.7 1.3-.2.4-.1v.1l.5-2.5 1.3-6.2.2-1h3.3l.1.3 6.7 35.6 1.7 8.8.4 2.3c.1.7-.4 1.3-1.1 1.4-.4.1-.8-.1-1.1-.5z" fill="#404040"/>
                    <path d="m301 56.7-1.7-2.6-3.4-5.3-1.4-2.2v.1l-1.7.3-.4-2.4-3.6-19.2-1.3-6.7 1.3-.3.4-.1v.1l.5-2.4 1.3-6.3.2-1h.8l1.3 6.6 5.5 29.3.6 3.5z" fill="#404040"/>
                    <path d="m297.5 57.4-6.5-10.1v.1l-1.7.3-.5-2.8-.1-.3-2.9-15.3-1.3-6.8-.6-3.2.6-.1 1.1-.2v.1l.2-.8 2-9.6h3l.2 1 1.5 8 5 26.9.3 1.5 1.5 8 .4 2.4c.1.7-.4 1.3-1.1 1.4-.4 0-.9-.2-1.1-.5z" fill="#404040"/>
                    <path d="m290.9 47.3.1.1-1.7.3-.5-2.8-.1-.3-2.9-15.3-1.3-6.8-.5-3.2.5-.1 1.1-.2v.1l.2-.8 2-9.6h.6l.4 2.2.9 5.1 5.4 28.6.8 4.2 1.6 8.6z" fill="#404040"/>
                    <path d="m317.9 36.9 11.2 4.2c4.2-1.9 9.3-7.7 12.5-16.2l-22.3-8.4c-3.5 9.2-3.3 16.3-1.4 20.4z" fill="#404040"/>
                    <path d="m325.8 32.6c2.9 1.1 5.9.7 7.6-.9 2.2-2.3 3.9-5 5-8l-16-6c-1.2 2.9-1.7 6.1-1.6 9.3.2 2.3 2.2 4.5 5 5.6z" fill="#404040"/>
                    <path d="m317.2 33.5c.4.1.8 0 1-.4s0-.8-.3-1c-3.7-2-7.5-8-6.2-11.4.3-1.1 1.4-1.9 2.5-1.8 1.6 0 3.1.8 4 2.1.2.4.6.5 1 .4.4-.2.5-.6.4-1-1.1-1.9-3.2-3.1-5.5-3-1.8 0-3.4 1.1-3.9 2.8-1.7 4.6 3 11.2 6.9 13.3z" fill="#404040"/>
                    <path d="m333.4 53.1h-11.9c-3.3-3.3-6-10.5-6-19.6h23.8c0 9.8-2.7 16.4-5.9 19.6z" fill="#404040"/>
                    <path d="m327.5 52.2c-3.3 0-6.2-2.1-7.2-5.1-1.4-4.4-2-8.9-2-13.5h18.2c.1 4.6-.5 9.2-1.9 13.5-1 3-3.9 5.1-7.1 5.1z" fill="#404040"/>
                    <path d="m335.2 50.1c-.4 0-.8-.4-.7-.8 0-.4.3-.7.6-.7 4.2-.6 9.8-4.8 9.8-8.5.1-1.2-.6-2.2-1.7-2.6-1.5-.6-3.2-.4-4.5.6-.3.3-.8.3-1.1 0-.3-.3-.3-.8 0-1.1 1.7-1.4 4.1-1.8 6.2-.9 1.7.6 2.7 2.2 2.7 4 0 4.9-6.8 9.4-11.1 10z" fill="#404040"/>
                    <path d="m397.3 8.7v35.9h-112.7v-35.9h-14.1v50h140.9v-50zm-108.6 35.9v14.1h30.3v-14.1z" fill="#241d18"/>
                    <path d="m605.7 8.7v50h-526.8v-50h240.9l2.3-.2v.2h35.8c1.5-.6 3.2-.6 4.7 0z" fill="none"/>
                    <g opacity=".2">
                        <g>
                            <g clip-path="url(#SVGID_41_)">
                                <g>
                                    <g clip-path="url(#SVGID_43_)">
                                        <path d="m399.6 0v47h-117.4l2.3-2.4h112.8v-42.3z" fill="#3b322b"/>
                                    </g>
                                </g>
                            </g>
                        </g>
                    </g>
                    <path d="m459.1 8.7h50.1v33.1h-50.1z" fill="#303031"/>
                    <path d="m533.9 38.7v9.6h-99.5v-9.6c32.5-9.4 67-9.4 99.5 0z" fill="#383838"/>
                    <path d="m605.7 8.7v50h-526.8v-50h240.9l2.3-.2v.2h35.8c1.5-.6 3.2-.6 4.7 0z" fill="none"/>
                    <path d="m78.9 8.7h526.8v50h-526.8z" fill="none"/>
                    <path d="m78.9 8.7h526.8v50h-526.8z" fill="none"/>
                    <path d="m571.3 122.7h34.4v4.9h-34.4z" fill="#303031"/>
                    <path d="m613.3 232h-3.5l-3.6 2.1-.5.3v7h-34.4v-121.3h34.4v112.5l2-.6 3.9-1h.1z" fill="none"/>
                    <path d="m575.4 128.3h-3.4c-.3 0-.6-.3-.6-.6v-5.1c0-.3.3-.6.6-.6h3.4z" fill="#303031"/>
                    <path d="m575.4 122.6h.6v4.9h-.6z" fill="#131313"/>
                    <path d="m613.3 232h-3.5l-3.6 2.1-.5.3v7h-34.4v-121.2h34.4v112.4l2-.6 3.9-1h.1z" fill="none"/>
                    <g>
                        <g clip-path="url(#SVGID_45_)">
                            <g>
                                <g clip-path="url(#SVGID_47_)">
                                    <path d="m595.3 122.7h3.1v4.9h-3.1z" fill="#131313"/>
                                </g>
                            </g>
                        </g>
                    </g>
                    <path d="m595.5 131.1c-.9 0-1.6-.7-1.6-1.6v-7.6c-.1-.9.6-1.6 1.4-1.7.9-.1 1.6.6 1.7 1.4v.3 7.6c.1.9-.6 1.6-1.5 1.6z" fill="#131313"/>
                    <path d="m598.9 175.2c-1.1-.2-2.3-.4-3.5-.4s-2.3.1-3.5.4h-.1c-1 .2-2 .5-2.9.9-8.8 3.5-13.1 13.6-9.6 22.4 1.8 4.4 5.2 7.8 9.6 9.6.9.4 1.9.7 2.9.9 1.2.2 2.4.4 3.5.4 3.7 0 7.3-1.2 10.2-3.4v-5.5c0 1.1-.9 2-2 2-.6 0-1.1-.2-1.5-.7-.4-.4-.6-.9-.6-1.4-.2-1.1.5-2.1 1.6-2.4 1.1-.2 2.1.5 2.4 1.6.1.2.2.5.2.8v-5.6c0 1.1-.9 2-2.1 2-1.1 0-2-.9-2-2.1 0-1.1.9-2 2.1-2 1.1 0 2 .9 2 2.1v-5.6c0 1.1-.9 2.1-2 2.1s-2.1-.9-2.1-2c0-1.1.9-2 2.1-2 1.1 0 2 .9 2 2v-5.6c0 1.1-.9 2.1-2 2.1s-2.1-.9-2.1-2c0-.5.2-1.1.6-1.5 0-.1.1-.1.2-.1.7-.6 1.9-.6 2.6 0 .1 0 .1.1.2.1.4.4.6.9.6 1.4v-5.5c-1.9-1.5-4.3-2.5-6.8-3zm-9.6 8.5c0 .4-.1.8-.3 1.1-.4.6-1 1-1.7 1-1.1 0-2.1-.9-2.1-2 0-.5.2-1.1.6-1.4 0-.1.1-.1.2-.1.4-.3.8-.5 1.3-.5s.9.2 1.3.5c.1 0 .1.1.2.1.1.1.2.2.3.3v.1c.1.2.2.5.2.9zm3.4 7.6c-.3 0-.5-.1-.8-.2-.7-.3-1.2-1.1-1.2-1.9s.5-1.6 1.3-1.9c.3-.1.5-.2.8-.2 1.1 0 2 .8 2 1.9v.1c.1 1.3-.9 2.2-2.1 2.2.1 0 .1 0 0 0zm2.1 3.5c0 1.1-.9 2-2 2-.3 0-.5-.1-.8-.2-1-.4-1.5-1.6-1.1-2.7.2-.5.6-.9 1.1-1.1.3-.1.5-.2.8-.2 1.1.2 2 1.1 2 2.2zm-5.5-5.5c0 1.1-.9 2.1-2 2.1s-2.1-.9-2.1-2.1c0-1.1 1-2.1 2.1-2 .7 0 1.3.4 1.7.9.2.3.3.7.3 1.1zm-2 3.5c.7 0 1.4.4 1.7 1 .4.7.4 1.5 0 2.2-.4.6-1 1-1.7 1-1.1.1-2.1-.8-2.2-1.9s.8-2.1 1.9-2.2c.1 0 .2 0 .3-.1zm3.4 7.6c0-.8.5-1.6 1.3-1.9.3-.1.5-.2.8-.2 1.1 0 2 .9 2 2s-.9 2-2 2c-.3 0-.5-.1-.8-.2-.8-.1-1.3-.9-1.3-1.7zm2-14.6c-.3 0-.5-.1-.8-.2-.8-.3-1.2-1.1-1.3-1.9 0-.5.2-1.1.6-1.4 0-.1.1-.1.2-.1.2-.1.3-.2.5-.3.3-.1.5-.2.8-.2.5 0 .9.2 1.3.5.1 0 .1.1.2.1.8.7.9 2 .2 2.8-.5.5-1.1.7-1.7.7zm5.4 11.1c-1.1-.1-2-1.1-1.9-2.2.1-1 .9-1.8 1.9-1.9 1.1-.1 2.1.8 2.2 1.9s-.8 2.1-1.9 2.2c-.1 0-.2 0-.3 0zm2.1 3.5c0 1.1-.9 2.1-2 2.1s-2.1-.9-2.1-2 .9-2.1 2-2.1c1.2 0 2.1.9 2.1 2 .1 0 .1 0 0 0zm-2.1-9.1c-1.1 0-2-1-2-2.1.1-1.1 1.1-2 2.2-1.9 1 .1 1.8.9 1.9 1.9.1 1.2-.9 2.1-2.1 2.1zm0-5.5c-1.1 0-2-.8-2.1-1.9 0-.6.2-1.2.7-1.6 0-.1.1-.1.2-.1.4-.3.8-.5 1.3-.5s.9.2 1.3.5c.1 0 .1.1.2.1.4.4.6.9.6 1.4-.1 1.1-1 2-2.2 2.1zm-10.9 16.7c-1.1 0-2.1-.9-2.1-2 0-.3.1-.5.2-.8.4-1 1.7-1.5 2.7-1.1.4.2.7.4.9.8.4.7.4 1.5 0 2.2-.1.1-.1.2-.2.3-.3.3-.9.5-1.5.6z" fill="#5a5a5a"/>
                    <path d="m598 124.3h-5.1c-.4 0-.7.1-1 .3-.6.4-1 1-.9 1.7v1.2l.9 44.8.1 2.9v1.5.1h6.9v-.1-1.5l1-47.6v-1.2c0-1.2-.8-2-1.9-2.1zm-2.5 2.4c.6 0 1.1.3 1.4.8.1.1.1.2.2.3.2.4.3.9.3 1.4 0 1.4-.8 2.6-1.9 2.6s-1.9-1.1-1.9-2.6c0-.5.1-1 .3-1.4.1-.1.1-.2.2-.3.3-.4.8-.7 1.4-.8z" fill="#5a5a5a"/>
                    <path d="m598.9 176.7c-1.1-.2-2.3-.4-3.4-.4-1.2 0-2.3.1-3.5.4h-.1c-1 .2-2 .6-2.9 1-4.9 2-8.2 6.8-8.3 12.1 0 3.8 1.7 7.4 4.6 9.8.4-1 1.7-1.5 2.7-1.1.4.2.7.4.9.8.4.7.4 1.5 0 2.2-.1.1-.1.2-.2.3l.3.1c.9.4 1.9.8 2.9 1 1.2.3 2.3.4 3.5.4 2.3 0 4.6-.5 6.7-1.5-.4-.4-.6-.9-.6-1.4-.2-1.1.5-2.1 1.6-2.4 1.1-.2 2.1.5 2.4 1.6l.2-.1v-4.6c0 1.1-.9 2-2.1 2-1.1 0-2-.9-2-2.1 0-1.1.9-2 2.1-2 1.1 0 2 .9 2 2.1v-5.6c0 1.1-.9 2.1-2 2.1s-2.1-.9-2.1-2c0-1.1.9-2 2.1-2 1.1 0 2 .9 2 2v-5.6c0 1.1-.9 2.1-2 2.1s-2.1-.9-2.1-2c0-.5.2-1.1.6-1.5 0-.1.1-.1.2-.1.7-.6 1.9-.6 2.6 0 .1 0 .1.1.2.1.4.4.6.9.6 1.4v-3.6c-2-1.8-4.4-3-6.9-3.5zm-9.9 19.2c-.4.6-1 1-1.7 1-1.1 0-2-.9-2-2s.9-2 2-2 2 .9 2 2c0 .4-.1.7-.3 1zm0-5.5c-.6.9-1.8 1.2-2.8.6-.9-.6-1.2-1.8-.6-2.8s1.8-1.2 2.8-.6c.2.2.4.4.6.6.2.3.3.7.3 1.1s-.1.7-.3 1.1zm0-5.6c-.4.6-1 1-1.7 1-1.1 0-2.1-.9-2.1-2 0-.5.2-1.1.6-1.4 0-.1.1-.1.2-.1.4-.3.8-.5 1.3-.5s.9.2 1.3.5c.1 0 .1.1.2.1.1.1.2.2.3.3v.1c.3.5.3 1.4-.1 2zm3.7 17.7c-.3 0-.5-.1-.8-.2-1-.4-1.6-1.5-1.2-2.6.2-.6.6-1 1.2-1.2.3-.1.5-.2.8-.2 1.1 0 2 .9 2 2 .1 1.2-.8 2.2-2 2.2zm0-5.6c-.3 0-.5-.1-.8-.2-1-.4-1.5-1.6-1.1-2.7.2-.5.6-.9 1.1-1.1.3-.1.5-.2.8-.2 1.1.1 2 1.1 1.9 2.2 0 1.1-.8 1.9-1.9 2zm0-5.6c-.3 0-.5-.1-.8-.2-.7-.3-1.2-1.1-1.2-1.9s.5-1.6 1.3-1.9c.3-.1.5-.2.8-.2 1.1 0 2 .8 2 1.9v.1c.1 1.3-.9 2.2-2.1 2.2.1 0 .1 0 0 0zm0-5.5c-.3 0-.5-.1-.8-.2-.8-.3-1.2-1.1-1.3-1.9 0-.5.2-1.1.6-1.4 0-.1.1-.1.2-.1.2-.1.3-.2.5-.3.3-.1.5-.2.8-.2.5 0 .9.2 1.3.5.1 0 .1.1.2.1.8.7.9 2 .2 2.8-.5.5-1.1.7-1.7.7zm5.5 16.7c-1.1 0-2-1-1.9-2.1 0-1.1 1-2 2.1-1.9 1.1 0 1.9.9 1.9 1.9 0 1.1-1 2.1-2.1 2.1zm0-5.6c-1.1-.1-2-1.1-1.9-2.2.1-1 .9-1.8 1.9-1.9 1.1-.1 2.1.8 2.2 1.9s-.8 2.1-1.9 2.2c-.1 0-.2 0-.3 0zm0-5.6c-1.1 0-2-1-2-2.1.1-1.1 1.1-2 2.2-1.9 1 .1 1.8.9 1.9 1.9 0 1.2-.9 2.1-2.1 2.1zm0-5.5c-1.1.1-2.1-.8-2.1-1.9 0-.6.2-1.2.7-1.6 0-.1.1-.1.2-.1.4-.3.8-.5 1.3-.5s.9.2 1.3.5c.1 0 .1.1.2.1.4.4.6.9.6 1.4-.2 1.1-1.1 2-2.2 2.1z" fill="#383838"/>
                    <path d="m607.7 232.1-2 .5v-4.8c-.3.6-.5 1.3-.5 1.9v4.4h.9l3.6-2.1z" fill="#303031"/>
                    <path d="m613.3 232h-3.5l-3.6 2.1-.5.3v4.1h-21.6l4.9-1.3 3-.8 13.3-3.7.4-.1 2-.6 3.9-1h.1z" fill="#303031"/>
                    <path d="m611.6 231-1.8 1-3.6 2.1-.5.3-7.1 4.1h-6.3l13-5 .4-.2 3.2-1.3z" fill="#383838"/>
                    <path d="m613.3 232h-.5l-1.1-1z" fill="#383838"/>
                    <path clip-rule="evenodd" d="m605.7 238.5v1.9h-21.6c-.5 0-.9-.4-.9-.9 0-.5.4-.9.9-.9z" fill="#383838" fill-rule="evenodd"/>
                    <path d="m570.5 254.1h35.3v205.3h-35.3z" fill="#241d18"/>
                    <path d="m570.9 254.1h34.8v187.8h-34.8z" fill="#404040"/>
                    <path d="m570.6 441.9h35.1v17.5h-35.1z" fill="#241d18"/>
                    <path d="m580.9 264.1h3.6v40.4h-3.6z" fill="#241d18"/>
                    <path d="m570.7 242.3h35v11.7h-35z" fill="#241d18"/>
                    <path d="m570.5 242.3h35.3v217.1h-35.3z" fill="none"/>
                    <path clip-rule="evenodd" d="m479.5 347.1 10.8 1.3-12.2 97.6h-10.9z" fill="#a67d52" fill-rule="evenodd"/>
                    <path clip-rule="evenodd" d="m375.8 347.1-10.8 1.3 12.1 97.6h11z" fill="#a67d52" fill-rule="evenodd"/>
                    <path clip-rule="evenodd" d="m451.1 347.1 10.9.7-6.6 98.2h-10.9z" fill="#a67d52" fill-rule="evenodd"/>
                    <path clip-rule="evenodd" d="m404.1 347.1-10.8.7 6.6 98.2h10.9z" fill="#a67d52" fill-rule="evenodd"/>
                    <path d="m422.2 347.3h10.9v98.7h-10.9z" fill="#a67d52"/>
                    <path clip-rule="evenodd" d="m427.6 366.2c-24.3-.5-47.9 2-65.6 8.1-13.3 4.5-18.4-58.6-18.4-72.1 0-5.7 39.7-8.7 80.4-8.8 43.1-.2 87.5 2.8 87.5 8.8.1 13.6-5.1 76.7-18.4 72.1-17.6-6-41.2-8.5-65.5-8.1z" fill="#87613e" fill-rule="evenodd"/>
                    <path clip-rule="evenodd" d="m427.6 361.7c-24.3-.4-47.9 1.8-65.6 7.2-13.3 4-18.4-52.3-18.4-64.5 0-5.1 39.7-7.8 80.4-7.9 43.1-.1 87.5 2.5 87.5 7.9.1 12.1-5.1 68.5-18.4 64.5-17.6-5.4-41.2-7.6-65.5-7.2z" fill="#a67d52" fill-rule="evenodd"/>
                    <path clip-rule="evenodd" d="m507.2 459.4h-97.2v.5l-.6-.5h-61.4c0-.9.1-1.8.3-2.7.2-1.1.5-2.3 1-3.3 2.2-4.8 6.8-8.1 12-8.5.4 0 .9-.1 1.3-.1h129.9c.4 0 .8 0 1.2.1 2.6.2 5.1 1.1 7.2 2.7 3.1 2.2 5.2 5.5 5.9 9.2.3.8.4 1.7.4 2.6z" fill="#87613e" fill-rule="evenodd"/>
                    <path clip-rule="evenodd" d="m410 459.4v.5l-.5-.5z" fill="#a67d52" fill-rule="evenodd"/>
                    <path clip-rule="evenodd" d="m427.9 110.2c91.3 0 100 106.6 66.1 167.6-14.9 26.8-39.2 36-66.4 36s-51.5-9.2-66.4-36.1c-33.5-61-24.5-167.5 66.7-167.5z" fill="#e88c6a" fill-rule="evenodd"/>
                    <path clip-rule="evenodd" d="m488.3 459.4h-29.3l-2-2.7-3.8-5.1c-.1-3.3-1.5-5.1-3.4-5.7-.9-.3-1.9-.3-2.8 0-3.3 1.1-5.9 3.8-6.7 7.2-.2.9-.4 1.8-.4 2.7l.4.4.4.4 2.4 2.7h-31.4l-1.7-1.5-1.3-1.1-1.6-1.4-12.1-10.5-3.4-3-.2-.1 8-3 7.7-2.9 2-.8.9-.3 12.1-4.5 3.1-1.2 2.1-.8 5.6-2.1 4.4-1.6 2.9-1.1 5.8-2.1 11.2-4.1 6.6-2.4 3.4 6.2.5.9 1.7 3.2.2.4.7 1.3.3.5 4.3 7.9 3.6 6.6v.1l.4.7 1.2 2.2 4.7 8.6 1.8 3.3z" fill="#fcdabe" fill-rule="evenodd"/>
                    <path clip-rule="evenodd" d="m339 337.6-9.7 12.3 15.3 10.4 10.4-7.9-1.5-12.2z" fill="#fcdabe" fill-rule="evenodd"/>
                    <path clip-rule="evenodd" d="m395.2 312.6-37.9 37.5c-5.6-4-15-9.4-18.2-12.5l32.9-39.4c13.5-16.3 37.5.2 23.2 14.4z" fill="#ff94a8" fill-rule="evenodd"/>
                    <path clip-rule="evenodd" d="m458.5 305.5 12.8 71.3c1.5 8.6 18.7.3 18.4-4.1l-3.7-65.1c-1.2-20.8-31-21.6-27.5-2.1z" fill="#ff94a8" fill-rule="evenodd"/>
                    <path clip-rule="evenodd" d="m384.6 291.4 6.9 123.4h36.7 35.7l6.8-123.4z" fill="#ff94a8" fill-rule="evenodd"/>
                    <path clip-rule="evenodd" d="m427.7 224.5c-11.5 0-20.8 9.3-20.8 20.8v45.2c0 11.5 9.3 20.8 20.8 20.8 11.5 0 20.8-9.3 20.8-20.8v-45.2c-.1-11.5-9.4-20.8-20.8-20.8z" fill="#fcdabe" fill-rule="evenodd"/>
                    <path clip-rule="evenodd" d="m406.8 276c0 17.4 41.6 17.4 41.6 0 .1-17.4-41.6-17.4-41.6 0z" fill="#e0ba9b" fill-rule="evenodd"/>
                    <path clip-rule="evenodd" d="m427.7 116.6c91.1 0 84.1 85.4 66.8 115.5-23.7 41-55.6 50.1-66.8 50.1s-43-9.1-66.8-50.1c-17.4-30.1-24.4-115.5 66.8-115.5z" fill="#fcdabe" fill-rule="evenodd"/>
                    <path clip-rule="evenodd" d="m468.3 424.8c-.7-.5-1.6.5-1.6 1.3l-.9 12.2c-.1.8.7 1.2 1.4 1.7.7.5 1.6-.5 1.6-1.3l.9-12.2c.1-.9-.5-1.6-1.4-1.7z" fill="#fcdabe" fill-rule="evenodd"/>
                    <path clip-rule="evenodd" d="m466.7 430 .4-5.3 17.4 2.5-.4 5.3c-1.8 15.8-19.4 16.7-17.4-2.5z" fill="#fcdabe" fill-rule="evenodd"/>
                    <path clip-rule="evenodd" d="m466.9 426.3 3.8-50.5c3.2-13.4 18.4-15 19.1-3.1l-5.7 56z" fill="#fcdabe" fill-rule="evenodd"/>
                    <path clip-rule="evenodd" d="m491.2 459.4h-81.2v.5l-.6-.5-2.4-1.9-.9-.8-14.7-11.9v-30l4.3-13.1.7-2.1.2-.7.1-.3 2.7-8.3.6-1.9.4-1.3.3-.9.5-1.6.2-.6 2.5-7.7.5-1.7.2-.5.4-1.2.3-1 .1-.2.1-.2.1-.4.1-.3.1-.3.3-1 .5-1.6.1-.3.1-.4.1-.2.1-.3v-.1l.3-.9.8-2.4.5-1.4 1.4-4.2 1.6-5 .8-2.4 11.9-36.5.8-2.6h.2c.7.1 1.4.1 2.1.1h1.4s.7 0 1-.1l.8 2.5 6.8 20.7 2.9 8.9 6.1 18.6 1.5 4.6.3.8 1 3.2.2.6.2.6.2.6 1.6 5 3.6 10.9 3.4 10.2.1.3.9 2.7 1.6 5 .8 2.3 1.9 5.9 3.4 5.6.5.7 2.1 3.4.4.6.5.7.6 1 5.1 8.2 2.6 4.2 1.3 2.1.2.3 1.8 2.9 2.5 4.1 4.8 7.8z" fill="#e3687f" fill-rule="evenodd"/>
                    <path clip-rule="evenodd" d="m416.2 226.7c4.4 10.9 18.5 10.7 22.9 0-6.4 6.1-16.5 6.1-22.9 0z" fill="#e0ba9b" fill-rule="evenodd"/>
                    <path clip-rule="evenodd" d="m405.9 182.7c-5.8-1.1-11.6 1.5-14.6 6.5-1.4 2.4-.4 2.7.5 1.2 3.6-5.7 9-6.3 13.8-5.3 2.4.6 3.1-1.8.3-2.4z" fill="#e88c6a" fill-rule="evenodd"/>
                    <path clip-rule="evenodd" d="m449.4 182.7c5.8-1.1 11.6 1.5 14.6 6.5 1.4 2.4.4 2.7-.5 1.2-3.6-5.7-9-6.3-13.8-5.3-2.5.6-3.1-1.8-.3-2.4z" fill="#e88c6a" fill-rule="evenodd"/>
                    <path clip-rule="evenodd" d="m489.7 372.7-19.1 3.1-1.5-14.2 19.6-3.4z" fill="#e3687f" fill-rule="evenodd"/>
                    <path clip-rule="evenodd" d="m493.4 276.8c43.3-131.8-13.1-163.7-65-164.5-52.3-.8-109.4 34.1-66.6 163.2.2-55.3 28.6-106.6 65.8-127.4 37.1 20.9 65.6 73.5 65.8 128.7z" fill="#e88c6a" fill-rule="evenodd"/>
                    <path clip-rule="evenodd" d="m379.7 288.8c-52.7-63.3 23.7-140.6 47.8-154.2-30.4-2.6-112.6 84.5-47.8 154.2z" fill="#f5a487" fill-rule="evenodd"/>
                    <path clip-rule="evenodd" d="m475.4 288.8c52.7-63.3-23.7-140.6-47.8-154.2 30.5-2.6 112.6 84.5 47.8 154.2z" fill="#f5a487" fill-rule="evenodd"/>
                    <path clip-rule="evenodd" d="m502.6 189.5c-2.3-.4-4.6.2-6.4 1.6 4.4 9.2 7.4 19 8.9 29.1 1.2-2.4 2.2-5 2.9-7.6 2.9-11.4.5-21.7-5.4-23.1z" fill="#fcdabe" fill-rule="evenodd"/>
                    <path clip-rule="evenodd" d="m354 189.5c2.3-.4 4.6.2 6.4 1.6-4.4 9.2-7.4 19-8.9 29.1-1.2-2.4-2.2-5-2.9-7.6-2.9-11.4-.5-21.7 5.4-23.1z" fill="#fcdabe" fill-rule="evenodd"/>
                    <path clip-rule="evenodd" d="m398.3 248.7c13.2 5.9 42.5 7 58.8 0-19.6 2.2-39.3 2.2-58.8 0z" fill="#bf9470" fill-rule="evenodd"/>
                    <path clip-rule="evenodd" d="m414 254.6c5.1 6.9 21.9 6.8 27.3 0-7.9 3.3-19.4 3.3-27.3 0z" fill="#e0ba9b" fill-rule="evenodd"/>
                    <path clip-rule="evenodd" d="m336.8 340.3 18.2 12.1 10.1-10.1-19-13.2z" fill="#e3687f" fill-rule="evenodd"/>
                    <path d="m410.4 203.8c.3 4.1-2.2 7.6-5.7 7.9s-6.5-2.9-6.8-7 2.2-7.6 5.7-7.9 6.5 2.9 6.8 7z" fill="#425156"/>
                    <path d="m406.7 199.4c.6.7.6 1.8-.1 2.5-.7.6-1.8.6-2.5-.1-.6-.6-.6-1.5-.1-2.2.7-.8 1.9-.9 2.7-.2z" fill="#fff"/>
                    <path d="m458 204.5c-.3 4-3.2 7.1-6.5 6.8s-5.7-3.7-5.4-7.7 3.2-7.1 6.5-6.8 5.7 3.7 5.4 7.7z" fill="#425156"/>
                    <path d="m455.1 199.7c.5.8.3 1.8-.5 2.3s-1.8.3-2.3-.5c-.4-.7-.4-1.5.2-2.1.8-.6 1.9-.5 2.6.3z" fill="#fff"/>
                    <path d="m268.1 401.7-6.8 33.4-1.4 6.7-1.5 7.4-1.5 7.5-.5 2.7h-36.1l.3-2.7 1.9-14.8.9-6.8 1.8-14.3 2.4-19.1z" fill="#87613e"/>
                    <path d="m605.7 459.4h-6.9l-.5-2.7-3.1-14.8-1.3-6.8-1.9-9.4-3-14.4-1.9-9.6h18.6z" fill="#87613e"/>
                    <path d="m605.7 401.7v57.7h-195.7v.5l-.6-.5h-247.7l.2-2.7c.4-5.1.7-10.1 1.1-14.9.2-2.3.3-4.5.5-6.7.4-4.7.7-9.2 1-13.2.9-12.2 1.6-20.3 1.6-20.3z" fill="#c43d3c"/>
                    <path d="m605.7 388.4v10.5h-439.6c.4-.2.9-.4 1.3-.6 8.8-3.7 18-6.3 27.4-7.9 1-.2 2-.4 2.9-.5 5.4-.9 10.8-1.4 16.3-1.5z" fill="#e45252"/>
                    <path d="m166.1 398.9h439.6v2.7h-439.6z" fill="#a63434"/>
                    <path d="m215.7 435.1c-.1 2.2-.2 4.4-.4 6.7-.3 4.7-.6 9.7-.9 14.9-.1.9-.1 1.8-.2 2.7h-9.3l.4-2.7c.8-5.1 1.5-10.2 2.3-14.9.4-2.3.7-4.5 1.1-6.7 2.7-16.3 5.2-28 6.7-28 1.3 0 1.2 11.7.3 28z" fill="#a63434"/>
                    <path d="m282.3 435.1c-.1 2.1-.3 4.4-.4 6.7-.3 4.7-.6 9.7-1 14.9-.1.9-.1 1.8-.2 2.7h-10c.1-.9.3-1.8.4-2.7.9-5.2 1.7-10.2 2.5-14.9.4-2.3.8-4.5 1.2-6.7 3-16.4 5.7-28 7.3-28 1.3 0 1.1 11.7.2 28z" fill="#a63434"/>
                    <path d="m370.9 435.1c-.1 2.2-.2 4.4-.3 6.7 0 1-.1 2-.1 3-.2 3.8-.4 7.8-.6 11.9l-.1 2.7h-10.9l.5-2.7c.7-4.1 1.4-8.1 2-11.9.2-1 .4-2 .5-3 .4-2.3.8-4.5 1.2-6.7 3-16.4 5.5-28 6.6-28 1.6 0 1.8 11.7 1.2 28z" fill="#a63434"/>
                    <path d="m584.5 459.4h-10c-.1-.9-.1-1.8-.2-2.7-.4-5.1-.7-10.1-1-14.9-.2-2.3-.3-4.6-.4-6.7-.9-16.4-1.2-28 .2-28 1.6 0 4.3 11.6 7.3 28 .4 2.2.8 4.4 1.2 6.7.8 4.7 1.7 9.7 2.5 14.9.1.9.2 1.8.4 2.7z" fill="#a63434"/>
                    <path d="m496.2 459.4h-10.9l-.1-2.7-.2-3.3c-.1-1.5-.2-3-.2-4.5s-.1-2.8-.2-4.1c0-1-.1-2-.1-2.9-.1-2.3-.2-4.5-.3-6.7 0-1.3-.1-2.6-.1-3.8 0-.9-.1-1.8-.1-2.6v-1.5c-.2-8.6 0-15.2.6-18.2.2-1.2.5-1.8.9-1.8.2 0 .4.3.7.9.1.3.2.5.3.9 1.3 3.9 3.3 13.6 5.6 26.2.4 2.2.8 4.4 1.2 6.7.2 1 .3 2 .5 3 .7 3.8 1.3 7.8 2 11.9z" fill="#a63434"/>
                    <path clip-rule="evenodd" d="m385 376.4-39.9-31.7c-12.9-5.5-24.8 10.9-9.7 19l38.7 25.2z" fill="#fcdabe" fill-rule="evenodd"/>
                    <ellipse cx="423.6" cy="389.2" fill="#00659c" rx="14.6" ry="8"/>
                    <path d="m443.1 370.5c-.1-1-.3-2-.5-3l-.1-.2-10.7 3.2h-27.5c-.2 2.7.1 5.4.9 8 2.1 7 6.9 12.9 13.4 16.3 1.6.3 3.3.4 5 .4 3.1 0 6.2-.5 9.1-1.5 6.1-4.7 10-11.9 10.5-19.6 0-1.2 0-2.4-.1-3.6z" fill="#005188"/>
                    <path d="m450 370.5h-6.9c.1 1.2.2 2.4.1 3.6-.5 7.7-4.3 14.9-10.5 19.6 7.8-2.5 13.8-8.6 16.3-16.4.7-2.1 1-4.4 1-6.6z" fill="#005188"/>
                    <path d="m404.4 370.5h-7.1v.2c0 12 9.2 21.9 21.4 24.1-9.2-4.9-15-14.4-14.3-24.3z" fill="#005188"/>
                    <ellipse cx="423.6" cy="370.5" fill="#00659c" rx="26.4" ry="8.9"/>
                    <path d="m445.9 369.1c-2.4-3.2-12.4-5.5-22.4-5.5s-19.7 2.4-22.1 5.5c4.8-2.3 13.4-3.9 22.1-3.9s17.5 1.5 22.4 3.9z" fill="#0187c8"/>
                    <path d="m422.8 376.8c11.5 0 23.6-2.4 23.6-6.3 0-.5-.2-1.1-.5-1.5-4.9-2.4-13.6-4-22.4-4s-17.3 1.6-22.1 3.9c-.4.4-.6 1-.6 1.5 0 4 10.5 6.4 22 6.4z" fill="#fff"/>
                    <path d="m410.4 368.9c-.1-.1-.2-.2-.4-.2l-.3-.1c-.1-.1-.3-.2-.5-.2-.3-.1-.6-.2-.9-.3-.2 0-.3 0-.5 0h-.1c-.1-.1-.3-.3-.7-.6l-.1-.1h-.1l-.2-.1h-.1-.1-.3-.3l-.3.1c-.1 0-.2 0-.3.1-.2.1-.4.1-.6.2 0 0-.1.1-.1.1v.1c.1.6.4 1.1.9 1.4l.3.1c.2.1.4.2.5.3.3.1.6.2.9.3.4.1.8.1 1.1 0l1.8-.3h.4c.1-.3.1-.6 0-.8zm-.3.3h-.2c-.1 0-.4-.1-.6-.1l-.4-.1-.5-.1-.2-.1h-.1-.1l-.2-.1h-.1-.1-.1-.1-.1-.1-.1s-.1-.1-.1-.1l-.1-.1-.2-.2-.1-.1h-.1l-.1-.1h-.1-.1-.1-.1c-.1 0-.2 0-.3 0h-.1-.1-.2-.1l.1-.1.1-.1h.1.1.4.1.1.1.1.1.1l.1.1h.1l.1.1.1.1.1.1.2.1h.1.1l.3.1h.1.1l.2.1.4.2.2.1.2.1.3.1.3.1.1.1h.1z" fill="#e9ba5e"/>
                    <path d="m407.9 366.8c-2.2-.4-3.1.4-3.3.7.8-.3 1.9-.6 2.5-.1 1 .8.6.8 1.3.7.7.1 1.4.4 2 .9-.3-1.3-1.3-2.1-2.5-2.2z" fill="#edcd84"/>
                    <path d="m408.2 368.3h-.1l-.3-.1h-.1-.1l-.2-.1-.1-.1-.1-.1-.1-.1-.1-.1-.1-.1h-.1-.1-.1-.1-.1-.1-.4-.1c-.1 0-.2.1-.3.1l-.1.1h.1.2.1.1.3.2.1.1.1l.1.1.1.1.1.1.2.2.2.2h.1.1.1.1.1.1.1l.2.1h.1.1l.2.1.5.1.4.1c.3.1.5.1.6.1h.2.1l-.2-.1-.3-.1-.3-.1-.2-.1-.2-.1-.4-.2-.2-.1z" fill="#cc9f50"/>
                    <path d="m436.7 367.1c-.6-.4-1.2-.5-1.9-.4-.4.2-.4.2-.6 0l-.3-.2c-.1-.1-.3-.2-.4-.3-.1-.1-.3-.1-.4-.1h-.2l-.2.1c-.1 0-.2.1-.3.2l-.3.2c-.2.2-.4.3-.6.5v.2c.2.7.6 1.2 1.3 1.5l.3.1c.7.3 1.5.3 2.2-.1.5-.4 1.1-.7 1.7-1 0-.3-.1-.5-.3-.7zm-.1.4h-.1-.5-1.7-.1-.2c-.1 0-.2-.1-.2-.2l-.2-.1-.1-.1h-.1-.1-.1-.2-.3c-.1 0-.2 0-.3.1 0 0-.1 0-.1.1l-.1.1-.1.1.1-.2.2-.2h.1.1.1.2.1.3.1.1.1l.1.1.1.1.1.1c.1 0 .1.1.2.1h.8.2l.4.1h.2.2l.3.1.2.1z" fill="#e9ba5e"/>
                    <path d="m433.9 365.3c-1.9.2-2.4 1.3-2.5 1.7.6-.6 1.4-1.2 2-.9 1.1.6.7.7 1.3.4.7-.1 1.4.1 1.9.5-.3-1.1-1.4-1.8-2.7-1.7z" fill="#edcd84"/>
                    <path d="m434.7 367.1h-.7c-.1 0-.1-.1-.2-.1l-.1-.1-.1-.1-.1-.1h-.1-.1-.1-.3-.1-.1-.1-.1-.1c-.1.1-.1.1-.2.2l-.1.2.1-.1.1-.1s.1 0 .1-.1c.1 0 .2-.1.3-.1h.3.1.1.1.1.1l.1.1.2.1c.1.1.2.1.2.2h.1.1.1 1.7.5.2-.1-.1l-.2-.1-.3-.1h-.2-.2l-.4-.1h-.2z" fill="#cc9f50"/>
                    <path d="m428 372.6c-.2-.1-.4-.3-.5-.4-.5-.3-1-.5-1.5-.5-.1 0-.3 0-.5 0h-.1c-.3-.3-.5-.5-.8-.7-.1-.1-.2-.2-.4-.2-.3-.1-.6-.1-.8 0l-.4.1-.4.1-.4.1-.3.1s-.1.1-.1.1c0 .4.1.8.4 1.1.2.2.4.4.6.5.8.5 1.7.8 2.6.8.1 0 .3 0 .4-.1.5-.1 1.2-.2 1.7-.3l.6-.1c0-.1-.1-.3-.1-.6zm-.4.3h-.2l-.6-.1-.4-.1-.5-.1-.3-.1h-.1-.1-.1-.1-.1-.1-.1-.1-.1-.1c-.1-.1-.2-.1-.2-.2-.1-.1-.1-.1-.2-.2l-.1-.1-.1-.1-.1-.1h.1-.1-.1-.1-.2c-.1 0-.2 0-.3 0h-.1-.1-.2l.1-.1.3-.1h.1.1.4.1.1.1.1.1l.1.1s.1 0 .1.1l.1.1.1.1.1.1.2.1h.1.1.1l.2.1h.1.1l.2.1.5.2.2.1.2.1.3.1.2.1h.1l.2.1h.1z" fill="#e9ba5e"/>
                    <path d="m425.4 370.4c-2.3-.4-3.2.4-3.5.7.9-.3 2-.6 2.6-.1 1.1.8.6.8 1.4.7.8.1 1.5.4 2.1.9-.3-1.2-1.4-2.1-2.6-2.2z" fill="#edcd84"/>
                    <path d="m425.7 372.1h-.1l-.3-.1h-.1-.1-.1l-.2-.1-.1-.1-.1-.1-.1-.1s-.1-.1-.1-.1l-.1-.1h-.1-.2-.1-.1-.1-.4-.1-.1l-.3.1-.1.1h.1.2.1.1.3.2.1.1.1.1l.1.1.1.1.1.1.2.2.2.2h.1.1.1.1.1.1l.3.1h.1.1l.3.1.5.1.4.1.6.1h.2-.1-.1l-.2-.1-.3-.1-.3-.1-.2-.1-.2-.1-.5-.2-.2-.1z" fill="#cc9f50"/>
                    <path d="m415 371.3c-.7-.1-1.5-.1-2.1.2-.6.4-.2.2-1.5 0-.1 0-.2 0-.3 0h-.1c-.2 0-.3.1-.5.2l-.1.1-.4.2-.2.2c-.2.2-.4.4-.6.6v.2c.2.4.5.7.9.8.2.1.4.1.5.1 1 .1 2-.2 2.8-.8.6-.5 1.2-.9 1.9-1.4-.1-.1-.2-.3-.3-.4zm-.2.4h-.2l-.6.2-.4.1-.5.1-.2.1h-.1-.1l-.2.1h-.1-.1-.4-.1-.1l-.2-.1h-.1-.6-.1-.1c-.1 0-.2.1-.3.2h-.1l-.1.1-.1.1.1-.2c0-.1.1-.2.2-.2l.1-.1.1-.1.1-.1h.1.1.1.1.6.1.1.2.3.1l.3-.1h.1.1.2l.5-.1h.2.2.3z" fill="#e9ba5e"/>
                    <path d="m411.9 370.6c-2.1.7-2.6 1.8-2.7 2.2.6-.7 1.5-1.5 2.2-1.4 1.3.2.8.4 1.5 0 .7-.3 1.4-.3 2.1-.2-.5-.5-1.4-1.1-3.1-.6z" fill="#edcd84"/>
                    <path d="m412.7 371.9h-.1l-.3.1h-.1-.3c-.1 0-.1 0-.2 0h-.1-.1-.6-.1-.1-.1-.1l-.1.1-.1.1-.1.1c-.1.1-.1.1-.2.2l-.1.2.1-.1.1-.1.1-.1c.1-.1.2-.1.3-.2h.1.1.5.1l.2.1h.3.4.1.1l.2-.1h.1.1l.2-.1.5-.1.4-.1.6-.2h.2.1-.5-.3-.2-.2l-.5.1h-.2z" fill="#cc9f50"/>
                    <path d="m438.1 373.1c-.2-.1-.4-.1-.6-.1h-.1l-.5-.1c-.3 0-.7 0-1 .1-.7.3-.3.2-1.5-.2-.1 0-.2 0-.3 0-.2 0-.3 0-.5.1-.2.1-.3.1-.5.2-.4.2-.7.4-1 .7v.2c.2.5.5.9 1 1 .1 0 .2.1.3.1 1 .2 2 .1 2.9-.3.4-.2.8-.5 1.1-.6s.9-.4.9-.4c-.1-.3-.2-.5-.2-.7zm-.3.4h-.2c-.1 0-.1 0-.2 0s-.3 0-.4.1h-.4-.5-.2-.2-.3-.4-.1c-.1 0-.2-.1-.3-.1s-.1-.1-.2-.1h-.1-.1-.1-.7c-.1 0-.2.1-.3.1s-.1 0-.1.1l-.1.1c-.1 0-.1.1-.1.1 0-.1.1-.1.1-.1l.2-.2h.1.1.1.1.1.4.1.1.1.1.1c.1 0 .1.1.2.1h.4.3 1.4.3.2.2z" fill="#e9ba5e"/>
                    <path d="m435.1 372c-2.2.4-2.8 1.4-3 1.8.7-.6 1.7-1.2 2.3-1 1.2.4.8.5 1.5.2.7-.2 1.5-.1 2.1.1-.6-1-1.8-1.4-2.9-1.1z" fill="#edcd84"/>
                    <path d="m435.8 373.4h-.1-.3-.4c-.1 0-.1 0-.2-.1h-.1-.1-.1-.1-.1-.4-.1-.1-.1-.1-.1c-.1.1-.2.1-.2.2 0 0-.1.1-.1.1s.1-.1.1-.1l.1-.1.1-.1c.1 0 .2-.1.3-.1h.7.1.1.1c.1 0 .1.1.2.1s.2.1.3.1h.1.5.3.2.2.5.4l.6-.1h.2-.2-.3-.3z" fill="#cc9f50"/>
                    <path d="m444.4 371.1c-.2 0-.3 0-.5 0h-.3c-.1 0-.3 0-.4.1l-.2.1c-.4.3-.1.1-1 0-.5-.1-1 .4-1.4.9v.1c.2.4.5.6 1 .6.6 0 1.2-.1 1.7-.4.1 0 .1-.1.2-.1.4-.3.8-.6 1.2-.9-.2-.2-.2-.3-.3-.4zm-.1.2h-.1l-.4.1-.3.1-.3.1h-.1-.1-.1-.2-.1-.3-.2-.1-.7l-.2.1-.1.1h-.1l-.1.1s0-.1.1-.1c0-.1.1-.1.1-.1h.1.1.1.6.1.1.2.1.2.1.1.1.3.4.2.3z" fill="#e9ba5e"/>
                    <path d="m442.3 370.6c-1.4.5-1.7 1.2-1.8 1.5.4-.5 1-1 1.4-.9.8.1.5.3 1 0 .4-.2.9-.2 1.4-.1-.4-.7-1.3-.8-2-.5z" fill="#edcd84"/>
                    <path d="m442.9 371.4h-.3-.1-.2-.1-.1-.6-.1-.1-.1s-.1.1-.1.1 0 .1-.1.1l.1-.1h.1l.1-.1.2-.1h.7.1.2.3l.1.1.1-.1h.1.1.2l.3-.1.3-.1.4-.1h.1-.3-.2-.3-.3-.2z" fill="#cc9f50"/>
                    <path d="m433 371.4c-.3-.4-.6-.7-.9-.9l-.1-.1-.1-.1h-.1c-.5 0-.2 0-.8-.8-.4-.5-1.1-.4-1.8-.1 0 0-.1.1-.1.1 0 .4 0 .7.1 1.1.1.2.2.4.3.5.4.6 1.1 1 1.9 1 .5-.1 1.1-.1 1.6-.1 0-.2.1-.4 0-.6zm-.2.2h-.1l-.4-.2-.3-.1-.3-.1-.1-.1h-.1-.1l-.2-.1h-.1c0-.1-.1-.1-.1-.2s-.1-.1-.1-.2v-.1l-.1-.1-.1-.1-.1-.1h-.1-.1-.1c-.1 0-.2 0-.2 0h-.1 0-.1s.1-.1.1-.1c.1 0 .1-.1.2-.1h.1.1.3.1.1.1l.1.1.1.1.1.1s0 .1.1.1l.1.1.1.1c0 .1.1.1.1.2h.1l.2.1h.1l.1.1.1.1.3.2.1.1.1.1.2.2.2.1.1.1z" fill="#e9ba5e"/>
                    <path d="m431.6 369.1c-1.5-.6-2.2 0-2.4.3.6-.2 1.4-.4 1.8.1.6.9.3.8.8.8.3 0 .9.5 1.3 1.1 0-1-.6-1.9-1.5-2.3z" fill="#edcd84"/>
                    <path d="m431.6 370.6-.2-.1h-.1c0-.1-.1-.1-.1-.2l-.1-.1-.1-.2s0-.1-.1-.1l-.1-.1-.1-.1-.1-.1h-.1-.1-.1-.3-.1-.1c-.1 0-.1.1-.2.1 0 0-.1 0-.1.1h.1-.2.1.2.1.1.1l.1.1.1.1.1.1v.1c0 .1.1.1.1.2s.1.1.1.2h.1l.2.1h.1.1l.1.1.3.2.3.1.4.2h.1l-.1-.1-.2-.1-.2-.2-.1-.1-.1-.1-.3-.2-.1-.1z" fill="#cc9f50"/>
                    <path d="m408.3 371.3c-.2 0-.5 0-.7 0h-.2c-.1 0-.2 0-.3 0s-.2 0-.2.1c-.4.3-.1.1-.9 0h-.2-.1-.1c-.1 0-.2.1-.2.1-.1 0-.1.1-.2.1 0 0-.1.1-.1.1-.1.1-.2.2-.3.2-.1.1-.1.1-.2.2v.1c.1.2.3.4.5.5.1.1.3.1.4.1h.4c.4 0 .8-.1 1.2-.3l.2-.1c.4-.3.8-.6 1.2-.9-.1 0-.2-.1-.2-.2zm-.2.3h-.1l-.4.1-.3.1-.3.1h-.1-.1-.2-.1-.3-.1-.1-.5-.1-.1c-.1 0-.1.1-.2.1h-.1-.1l-.1.1.1-.1c0-.1.1-.1.1-.1h.1.1.5.1.1.1.3.1.1.1.1.3.1.1.5z" fill="#e9ba5e"/>
                    <path d="m406.3 370.9c-1.4.5-1.6 1.1-1.7 1.4.4-.4.9-.9 1.4-.9.8.1.5.3.9 0 .4-.2.9-.2 1.4-.1-.5-.6-1.3-.7-2-.4z" fill="#edcd84"/>
                    <path d="m406.9 371.7h-.2-.3-.1-.1-.2-.5-.1-.1-.1s-.1.1-.1.1l-.1.1.1-.1h.1.1c.1 0 .1-.1.2-.1h.1.1.5.1.2.3.1.1.1.1.1l.3-.1.3-.1.4-.1h.1-.5-.1-.1-.3-.1z" fill="#cc9f50"/>
                    <path d="m430.8 374.6c-.4-.2-1-.2-1.4-.1-.4.3-.1.1-1-.1-.1 0-.2 0-.3 0 0 0 0 0-.1 0s-.1 0-.2.1l-.1.1c-.1.1-.2.2-.3.3s-.2.3-.4.5v.1c.1.2.2.4.4.5.2.2.4.4.7.4.6.2 1.3.1 1.8-.3.3-.3.7-.6 1.1-.9 0-.3-.1-.5-.2-.6zm-.1.3h-.1l-.4.1h-.2-.3-.1-.1-.1-.1-.3l-.2-.1-.2-.1h-.1-.1-.1-.5c-.1 0-.1.1-.2.1l-.1.1h-.1l-.1.1v-.1c0-.1.1-.1.1-.2h.1.4.1.1.1.1l.1.1h.3.2.9.2.2.1z" fill="#e9ba5e"/>
                    <path d="m428.7 373.7c-1.4.4-1.6 1.2-1.6 1.5.4-.5.9-1.1 1.3-.9.9.3.6.4 1 .1.5-.1 1-.1 1.4.1-.4-.7-1.3-1.1-2.1-.8z" fill="#edcd84"/>
                    <path d="m429.4 374.8h-.2-.3l-.1-.1h-.1-.1-.1-.1-.4-.1c0 .1-.1.1-.1.2v.1l.1-.1h.1l.1-.1c.1 0 .1-.1.2-.1h.5.1.1.1l.2.1.2.1h.3.1.1.1.1.3.3l.4-.1h.1-.1-.2-.2-.8z" fill="#cc9f50"/>
                    <path d="m441.3 370.3c-.2-.1-.3-.2-.5-.3l-.5-.2-.2-.1h-.1-.1c-.1 0-.2 0-.3 0-.7 0-.3.1-1.2-.6l-.1-.1h-.1-.1-.1-.2-.4-.2l-.3.1c-.1 0-.2 0-.3.1-.2 0-.3.1-.5.2 0 0-.1.1-.1.1 0 .6.4 1.1.8 1.3.2.1.4.2.6.3.6.3 1.3.4 2 .3l.9-.2c.6-.1 1-.1 1-.1.2-.3.1-.5 0-.8zm-.2.3h-.1l-.5-.1-.4-.1-.4-.1h-.2-.1-.1-.2-.1-.1-.1-.1-.1-.1-.1c-.1-.1-.1-.1-.2-.2l-.2-.1-.1-.1-.1-.1-.1-.1h-.1-.1-.1-.2c-.1 0-.2 0-.3 0h.1-.1-.1l.1-.1.2-.1h.1.5.1.1.1.1.1l.1.1.1.1.1.1.1.1s.1.1.2.1h.1l.2.1h.1.1l.2.1.4.1.2.1h.1.1l.3.1.2.1z" fill="#e9ba5e"/>
                    <path d="m439.1 368.5c-2-.4-2.7.3-3 .6.7-.3 1.7-.5 2.2-.1.9.7.5.7 1.2.6.7.1 1.3.4 1.8.8-.3-1.1-1.2-1.8-2.2-1.9z" fill="#edcd84"/>
                    <path d="m439.4 369.8h-.1l-.2-.1h-.1c-.1 0-.1-.1-.2-.1l-.1-.1-.1-.1-.1-.1-.1-.1h-.1-.3-.1-.1-.1-.5-.1l-.2.1-.1.1h.1.1.1.3.2.1.1.1l.1.1.1.1.1.1.2.1.2.2h.1.1.1-.1.1.1.1.2.1.1.2l.4.1.4.1.5.1h.1l-.1-.1-.2-.1-.3-.1-.2-.1-.2-.1-.4-.1-.2-.1z" fill="#cc9f50"/>
                    <path d="m416.4 374c-.4-.1-.9 0-1.3.1-.4.3-.1.1-.9 0-.4-.1-1 .4-1.3.8v.1c.2.3.5.6.9.6.6.1 1.2-.1 1.8-.5.5-.4 1.1-.8 1.1-.8-.1-.1-.2-.2-.3-.3zm-.1.2h-.1l-.4.1-.3.1-.3.1h-.1-.1-.1-.1-.3c-.1 0-.1 0-.2 0h-.1-.1-.6c-.1 0-.1.1-.2.1l-.1.1h-.1l-.1.1.1-.1.1-.1h.1.1.5.1.1.2.1.1.1.1.1.3.3.2.3z" fill="#e9ba5e"/>
                    <path d="m414.5 373.6c-1.3.5-1.6 1.1-1.7 1.4.4-.4.9-.9 1.3-.8.8.1.5.2.9 0s.9-.2 1.3-.1c-.3-.7-1.1-.9-1.8-.5z" fill="#edcd84"/>
                    <path d="m415.1 374.3h-.2-.1-.2-.1-.1-.5-.1-.1l-.1.1-.1.1.1-.1h.1l.1-.1c.1 0 .1-.1.2-.1h.6.1.1.2l.1.1h.2.1.1.1l.3-.1.3-.1.4-.1h.1-.3-.4-.3-.3-.1z" fill="#cc9f50"/>
                    <path d="m414.7 367.2c-.5-.2-1-.2-1.5-.1-.5.2-.2.1-1-.1-.5-.1-1.1.3-1.6.7v.1c.1.4.5.7.9.8.7.2 1.4.1 2-.3.4-.3.9-.5 1.4-.8 0-.1-.1-.2-.2-.3zm-.1.2h-.1l-.4.1h-.3-.3-.2-.2-.2-.4l-.2-.1-.1-.1h-.1-.1-.5c-.1 0-.2 0-.2.1h-.1-.1l-.1.1.1-.1s.1-.1.1-.1h.1.1.1.1.5.1.1.1.1 1.4.2.2.1z" fill="#e9ba5e"/>
                    <path d="m412.6 366.4c-1.5.3-1.9 1-2 1.3.5-.4 1.1-.9 1.6-.7.8.3.5.3 1 .1.5-.1 1-.1 1.5.1-.4-.7-1.3-1-2.1-.8z" fill="#edcd84"/>
                    <path d="m413.2 367.3h-.6-.1-.1-.1-.1-.5-.1-.1-.1-.1s-.1.1-.1.1l-.1.1.1-.1h.1.1c.1 0 .1-.1.2-.1h.5.1.1.1l.1.1.2.1h.4.2.2.2.3.3l.4-.1h.1-.1-.2-.2-.9z" fill="#cc9f50"/>
                    <path d="m429.8 367.6c-.7-.5-1.5-.9-2.4-1.1-.6 0-.5.1-.8-.1l-.1-.1-.1-.1c-.1-.1-.3-.3-.6-.5-.1-.1-.3-.2-.5-.2s-.4-.1-.6-.1-.3 0-.5 0c-.2 0-.3.1-.5.1l-.3.1c-.1 0-.3.1-.4.1l-.3.1c0 .1-.1.1-.1.2v.2c.1.7.5 1.3 1.1 1.7.5.3 1 .5 1.6.7s1.2.3 1.9.1h.2c.8-.2 1.6-.3 2.4-.3.1-.3 0-.6 0-.8zm-.4.3h-.2l-.7-.2-.5-.1-.5-.1-.3-.1h-.1-.1l-.3-.1h-.1-.1-.1-.1-.1-.1c-.1-.1-.2-.1-.3-.2l-.2-.2-.1-.1h-.1l-.1-.1h-.1-.1-.1-.1-.1-.1-.2c-.1 0-.3 0-.4 0h-.2-.1l-.2.1.2-.1c.1-.1.2-.1.3-.1h.1.1.4.1.1.1.1s.1 0 .1.1h.1l.1.1.1.1.1.1.1.1.2.2h.1.1.1.1.1l.3.1h.1.1.1.1l.5.2.3.1.2.1.4.2.3.1.2.1h.1z" fill="#e9ba5e"/>
                    <path d="m426.7 365.1c-2.6-.5-3.7.4-4 .8 1-.4 2.3-.7 3-.2 1.3 1 .7.9 1.6.9.9.1 1.7.5 2.4 1.1-.3-1.5-1.5-2.5-3-2.6z" fill="#edcd84"/>
                    <path d="m427.1 366.9h-.1l-.3-.1h-.1-.1-.1-.1-.1l-.2-.2-.1-.1-.1-.1-.1-.1-.1-.1s-.1-.1-.1-.1-.1 0-.1-.1h-.1-.3-.1-.1-.4-.1-.1c-.1 0-.2.1-.3.1l-.2.1h.1l.2-.1h.1.2.4.2.1.1.1.1.1l.1.1.1.1.1.1.2.2c.1.1.2.2.3.2h.1.1.1.1.1.1l.3.1h.1.1l.3.1.5.1.5.1.7.2h.2.1-.1l-.2-.1-.3-.1-.4-.2-.2-.1-.3-.1-.5-.2-.3-.1z" fill="#cc9f50"/>
                    <path d="m422.9 375.5c-.2-.1-.5-.3-.7-.4-.1 0-.1-.1-.2-.1l-.2-.1-.3-.1-.2-.1h-.2c-.1 0-.2 0-.3 0-.8 0-.3.1-1.3-.7-.6-.5-1.7-.2-2.5.1 0 0-.1.1-.1.1 0 .6.4 1.2.9 1.5.8.6 1.9.8 2.9.7.5-.1 1-.2 1.5-.2l.7-.1c0-.2 0-.4 0-.6zm-.4.2h-.2-.2l-.4-.1-.4-.1-.5-.1-.2-.1h-.1-.1l-.2-.1h-.1-.1-.1-.1-.1-.1l-.2-.2-.2-.2-.1-.1-.1-.1-.1-.1h-.1-.1-.1-.5-.1-.1-.2s.1-.1.1-.1c.1 0 .2-.1.3-.1h.1.1.1.4.1.1.1.1.1l.1.1s.1 0 .1.1l.1.1.1.1.1.1.2.1h.1.1l.2.1h.1.1l.2.1.4.2.2.1.2.1.3.1.2.1.1.1h.1z" fill="#e9ba5e"/>
                    <path d="m420.3 373.3c-2.2-.4-3.1.4-3.3.7.8-.3 1.9-.6 2.5-.1 1 .8.6.8 1.3.7.7.1 1.4.4 2 .9-.2-1.2-1.3-2.1-2.5-2.2z" fill="#edcd84"/>
                    <path d="m420.7 374.9h-.1l-.2-.1h-.1-.1l-.2-.1-.1-.1-.1-.1-.1-.1s-.1-.1-.1-.1l-.1-.1h-.1-.4-.1-.1-.4-.1-.1-.2c-.1 0-.2.1-.3.1s-.1.1-.1.1h.2.1.1.5.1.1.1l.1.1.1.1.1.1.2.2.2.2h.1.1.1.1.1.1l.2.1h.1.1l.2.1.5.1.4.1.6.1h.2.1-.1l-.1-.1-.3-.1-.3-.1-.2-.1-.2-.1-.4-.2-.2-.1z" fill="#cc9f50"/>
                    <path d="m420.5 366.6c-.6-.1-1.2 0-1.8.2-.6.3-.2.2-1.3 0-.6-.1-1.3.6-1.8 1.2v.1c.2.5.7.8 1.2.8.9.1 1.7-.2 2.4-.6.5-.4 1-.8 1.6-1.1-.1-.3-.2-.5-.3-.6zm-.2.3h-.1l-.5.1-.3.1-.4.1h-.2-.1-.1-.2-.1-.1-.3-.1-.1-.2-.1-.5-.1-.1c-.1 0-.2.1-.3.1l-.1.1s-.1 0-.1.1l-.1.1.1-.1c0-.1.1-.1.2-.2h.1.1.1.1.1.1.5.1.1.2.3.1.2.1.1.2l.4-.1h.2.2.3.4z" fill="#e9ba5e"/>
                    <path d="m417.8 366.1c-1.8.6-2.2 1.5-2.3 1.9.5-.6 1.3-1.3 1.8-1.2 1.1.2.7.3 1.3 0 .6-.2 1.2-.3 1.8-.2-.6-.7-1.7-1-2.6-.5z" fill="#edcd84"/>
                    <path d="m418.6 367.1h-.1-.2-.1-.3c-.1 0-.1 0-.2 0h-.1-.1-.5-.1-.1-.1-.1-.1-.1c-.1.1-.1.1-.2.2l-.1.1.1-.1s0-.1.1-.1l.1-.1c.1-.1.2-.1.3-.1h.1.5.1.2c.1 0 .2 0 .2.1h.3.1.1.2.1.1.2l.4-.1.3-.1.5-.1h.1-.4-.3-.2-.2l-.4.1h-.2z" fill="#cc9f50"/>
                    <path d="m420.7 370.5c-.2 0-.4 0-.6 0s-.4 0-.6 0h-.2-.1l-.2.1c-.5.3-.2.2-1.2 0-.6-.1-1.3.5-1.8 1.1v.1c.2.4.7.7 1.2.7.8.1 1.6-.2 2.3-.6.6-.5 1.5-1.1 1.5-1.1-.1 0-.2-.2-.3-.3zm-.1.3h-.1l-.5.1-.3.1-.4.1h-.2-.1-.1-.2-.1-.3-.1-.2-.2-.6-.1-.1l-.2.1-.1.1-.1.1-.1.1.1-.1c0-.1.1-.1.1-.2h.1.1.1.1.1.5.1.1.2.3.1.2.1.1.2l.4-.1h.2.2.3.4z" fill="#e9ba5e"/>
                    <path d="m418.2 370c-1.7.6-2.1 1.5-2.2 1.8.5-.6 1.2-1.2 1.8-1.1 1 .1.6.3 1.2 0 .6-.2 1.1-.3 1.7-.2-.6-.7-1.7-1-2.5-.5z" fill="#edcd84"/>
                    <path d="m418.9 371h-.1-.2-.1-.3-.2-.1-.5-.1-.1-.1-.1-.1c-.1.1-.1.1-.1.2l-.1.1.1-.1.1-.1.1-.1.2-.1h.1.1.6.2c.1 0 .1 0 .2.1h.3.1.2.1.1.2l.4-.1.3-.1.5-.1h.1-.4-.3-.4-.2l-.4.1z" fill="#cc9f50"/>
                    <path clip-rule="evenodd" d="m400.7 384.3c2.7 1.6 9.2 4.5 7.2 7.1-1.4 1.7-3.1 1.8-5.2 1.1-1.7-.6-3.2-1.8-4.2-3.4-.6-.7-1-1.6-1.1-2.5-.2-1 .3-1.9 1.1-2.4.6-.4 1.5-.4 2.2.1z" fill="#e5c6a9" fill-rule="evenodd"/>
                    <g id="Spoon">
                        <path d="m385.1 392.9 22.7-8.5c.4-.2 1 .1 1.1.5l.3.8c.2.4-.1 1-.5 1.1l-22.7 8.5c-.4.2-1-.1-1.1-.5l-.3-.8c-.1-.4.1-.9.5-1.1z" fill="#e6e7e8"/>
                        <path d="m416.3 388.5c-3.7 1.4-7.6.3-8.7-2.6s1.1-6.3 4.9-7.7 7.6-.3 8.7 2.6-1.1 6.3-4.9 7.7z" fill="#e6e7e8"/>
                    </g>
                    <path clip-rule="evenodd" d="m376.5 374.9 13.9 2.5c1.7.2 3.3.7 4.8 1.5.7.5 1.3 1 1.9 1.7 3 3.3 4.9 7.5 5.4 12 .3 1.4 0 2.8-.8 3.9-1 1-3 .8-3.3-.6.5 1.6-.3 3.3-1.9 3.8-.1 0-.2.1-.3.1-1.7.2-3.4-1-3.6-2.7-1.2 3.3-4.3 3-5.1-.8.2 1.3-3 2.2-4.2 1.7s-1.4-1.8-1.5-3c.1-1.2-.1-2.4-.5-3.5-1.1-1.9-3.9-1.8-6.1-2.3-3.2-.7-5.7-3.3-6.5-6.5-6.4.1-6.5-1.9-4.3-6.2.2-.5.5-.9.9-1.3.5-.3 1.1-.5 1.8-.5 4.2-.5 5.1-.3 9.4.2z" fill="#fcdabe" fill-rule="evenodd"/>
                    <path d="m385.7 387c.4 1.7.7 3.4.9 5.2" fill="none" stroke="#e5c6a9" stroke-linecap="round" stroke-linejoin="round" stroke-width=".25"/>
                    <path d="m390.2 385.3s1.5 4.9 1.2 7.6z" fill="#e5c6a9"/>
                    <path d="m394.6 383.6c1 2.7 1.8 5.4 2.4 8.2" fill="none" stroke="#e5c6a9" stroke-linecap="round" stroke-linejoin="round" stroke-width=".25"/>
                    <ellipse cx="509.4" cy="365.5" fill="#897756" rx="13" ry="3.1"/>
                    <path d="m509.3 361.6c-1.9 0-3.9.1-5.8.3-.6.1-1.2.1-1.8.2l-.8.1c-1 .2-2 .4-2.9.7-2.2.7-3.5 1.5-3.5 2.5s1.2 1.7 3.3 2.4l.2.1c.9.3 1.9.5 2.9.7 2.8.5 5.5.7 8.3.7 8.1 0 14.8-1.7 14.8-3.8s-6.5-3.9-14.7-3.9zm-11.2 2.8c.9-.4 1.9-.7 2.9-.9h.1c.6-.1 1.3-.2 2-.3 2.1-.3 4.1-.4 6.2-.4 7 0 12.3 1.4 12.3 2.7s-5.3 2.7-12.3 2.7c-2.6 0-5.3-.2-7.9-.7l-.5-.1c-.7-.1-1.4-.3-2.1-.6-.3-.1-.5-.2-.8-.3-.7-.3-1-.7-1-1s.4-.8 1.1-1.1z" fill="#f6f6f6"/>
                    <path d="m519.8 364.6c-3.2-.9-6.5-1.4-9.8-1.5-8.4-.5-13.7 1.5-10.5 3 0-.5.3-.9.8-1 4.7-2 16.8-1.2 19.5-.5z" fill="#9b7d4e"/>
                    <path d="m524.1 392.4v-27c-3.9 3.4-11.7 3.6-14.3 3.6h-.4-.5c-2.6 0-10.5-.2-14.3-3.6v27s-1 6.8 14.3 7h.9c15.3-.3 14.3-7 14.3-7z" fill="#e2e2e2"/>
                    <path d="m526.2 387.9c-.5 0-1-.6-1.3-1.2-.2-.4-.5-.7-.8-.9v4.5c.7.2 1.4.2 2.1.1 4.4 0 8-4.4 8-9.7s-3.6-9.8-8-9.8c-.7-.1-1.4 0-2.1.1v4.5c.3-.2.6-.6.8-.9.3-.5.8-1.2 1.3-1.2 3.3 0 5.9 3.2 5.9 7.2s-2.6 7.3-5.9 7.3z" fill="#c1c1c1"/>
                    <path d="m534.2 380.7c0-5.4-3.6-9.8-8-9.8-.7-.1-1.4 0-2.1.1v3.2c.2-.2.4-.5.6-.7.6-.8 1-.9 1-.9s7.1.1 7.1 7.5-5.4 8.4-6.7 8.4-2-1.9-2-1.9v3.5c.7.2 1.4.2 2.1.1 4.4.3 8-4.1 8-9.5z" fill="#e2e2e2"/>
                    <path clip-rule="evenodd" d="m39.3 94h88.7c4.9 0 8.9 3.9 8.9 8.8v20.3h-106.5v-20.3c0-4.9 4-8.8 8.9-8.8z" fill="#1a9dd9" fill-rule="evenodd"/>
                    <path clip-rule="evenodd" d="m35.7 119.5h95.8c.7 0 1.2-.5 1.2-1.2 0-.7-.6-1.2-1.2-1.2h-95.8c-.7 0-1.2.5-1.2 1.2 0 .6.5 1.2 1.2 1.2z" fill="#0f8bb7" fill-rule="evenodd"/>
                    <path clip-rule="evenodd" d="m44.7 109.8h8.4c2 0 3.5-1.6 3.6-3.5 0-2-1.6-3.6-3.6-3.6h-8.4c-2 0-3.6 1.6-3.6 3.6.1 1.9 1.7 3.5 3.6 3.5z" fill="#2dc3f7" fill-rule="evenodd"/>
                    <path clip-rule="evenodd" d="m48.9 86c1.8 0 3.3 1.5 3.3 3.3v20.5h-6.5v-20.6c-.1-1.8 1.4-3.2 3.2-3.2z" fill="#a5a5a5" fill-rule="evenodd"/>
                    <path d="m45.6 104.8h6.5v4.9h-6.5z" fill="#808080"/>
                    <path clip-rule="evenodd" d="m67.8 109.8h8.4c2 0 3.6-1.6 3.6-3.5 0-2-1.6-3.6-3.6-3.6h-8.4c-2 0-3.6 1.6-3.5 3.6 0 1.9 1.6 3.5 3.5 3.5z" fill="#2dc3f7" fill-rule="evenodd"/>
                    <path clip-rule="evenodd" d="m72.1 86c1.8 0 3.3 1.5 3.3 3.3v20.5h-6.6v-20.6c0-1.8 1.4-3.2 3.3-3.2z" fill="#a5a5a5" fill-rule="evenodd"/>
                    <path clip-rule="evenodd" d="m68.8 109.8h6.6v-4.9h-6.6z" fill="#808080" fill-rule="evenodd"/>
                    <path clip-rule="evenodd" d="m91 109.8h8.4c2 0 3.5-1.6 3.6-3.5 0-2-1.6-3.6-3.6-3.6h-8.4c-2 0-3.6 1.6-3.6 3.6 0 1.9 1.6 3.5 3.6 3.5z" fill="#2dc3f7" fill-rule="evenodd"/>
                    <path clip-rule="evenodd" d="m95.2 86c1.8 0 3.3 1.5 3.3 3.3v20.5h-6.5v-20.6c-.1-1.8 1.4-3.2 3.2-3.2z" fill="#a5a5a5" fill-rule="evenodd"/>
                    <path clip-rule="evenodd" d="m91.9 109.8h6.5v-4.9h-6.5z" fill="#808080" fill-rule="evenodd"/>
                    <path clip-rule="evenodd" d="m114.1 109.8h8.4c2 0 3.6-1.6 3.6-3.5 0-2-1.6-3.6-3.6-3.6h-8.4c-2 0-3.6 1.6-3.6 3.6 0 1.9 1.7 3.5 3.6 3.5z" fill="#2dc3f7" fill-rule="evenodd"/>
                    <path clip-rule="evenodd" d="m118.4 86c1.8 0 3.2 1.5 3.2 3.3v20.5h-6.5v-20.6c0-1.8 1.5-3.2 3.3-3.2z" fill="#a5a5a5" fill-rule="evenodd"/>
                    <path d="m115.1 104.8h6.5v4.9h-6.5z" fill="#808080"/>
                    <path d="m30.4 122.3v76.3c0 1 .8 1.8 1.8 1.8h102.9c1 0 1.8-.8 1.8-1.8v-76.3z" fill="#f6f6f6"/>
                    <path d="m82 122.4h3.3v19.5h-3.3z" fill="#2dc3f7"/>
                    <path d="m61.4 122.4h3.3v19.5h-3.3z" fill="#2dc3f7"/>
                    <path d="m40.9 122.4h3.3v19.5h-3.3z" fill="#2dc3f7"/>
                    <path d="m102.5 122.3h3.3v19.5h-3.3z" fill="#2dc3f7"/>
                    <path d="m123 122.3h3.3v19.5h-3.3z" fill="#2dc3f7"/>
                    <path d="m82 180.9h3.3v19.5h-3.3z" fill="#2dc3f7"/>
                    <path d="m61.5 180.9h3.3v19.5h-3.3z" fill="#2dc3f7"/>
                    <path d="m40.9 180.9h3.3v19.5h-3.3z" fill="#2dc3f7"/>
                    <path d="m102.5 180.9h3.3v19.5h-3.3z" fill="#2dc3f7"/>
                    <path d="m123.1 180.9h3.3v19.5h-3.3z" fill="#2dc3f7"/>
                    <path d="m30.4 180.2h106.5v3.3h-106.5z" fill="#1a9dd9"/>
                    <path d="m30.4 139.2h106.5v3.3h-106.5z" fill="#1a9dd9"/>
                    <path d="m72.5 164.6c.1-.5 0-1-.1-1.5-.1-.4-.3-.8-.6-1.1s-.6-.6-1-.8-.8-.4-1.3-.6c-.7-.3-1.3-.6-1.9-1s-1.1-.8-1.6-1.3c-.4-.5-.8-1.1-1-1.7-.2-.7-.3-1.4-.3-2.2.1-1.7.8-3.2 2-4.3.6-.5 1.3-.9 2-1.2.8-.3 1.6-.4 2.5-.4s1.7.2 2.5.6c.7.3 1.3.8 1.7 1.4.5.6.8 1.3 1 2 .2.8.3 1.6.3 2.5h-2.7c.1-.5.1-1 0-1.5s-.2-.9-.4-1.3-.6-.7-.9-.9c-.5-.3-1-.4-1.5-.4s-1 .1-1.5.2c-.9.3-1.6 1-2 1.9-.2.5-.3.9-.4 1.4s0 .9.2 1.4c.2.4.4.7.7 1s.6.6 1 .8.8.4 1.2.6c.7.3 1.4.6 2 1s1.1.8 1.6 1.3c.4.5.8 1.1 1 1.8s.3 1.5.2 2.3c-.1.9-.3 1.7-.7 2.4s-.9 1.3-1.5 1.9-1.3 1-2.1 1.3-1.7.4-2.5.4c-.9 0-1.7-.2-2.5-.5-.7-.3-1.4-.8-1.9-1.4s-.9-1.3-1.2-2c-.3-.8-.4-1.7-.3-2.5h2.6c0 .5 0 1.1.1 1.6s.3.9.6 1.3.6.7 1.1.9 1 .3 1.6.3c.5 0 1-.1 1.5-.2.4-.1.9-.4 1.2-.7.4-.3.6-.7.8-1.1.3-.6.5-1.1.5-1.7z"/>
                    <path d="m85.6 168.7c-.5.5-1.1 1-1.7 1.3-.7.3-1.4.4-2.1.4-.5 0-.9-.1-1.4-.3-.4-.2-.7-.4-1-.7s-.5-.6-.6-1c-.2-.4-.3-.8-.3-1.2-.1-.4-.1-.9-.1-1.3s0-.9.1-1.3l1.7-10.2h2.5l-1.7 10.3c0 .3-.1.7-.1 1.1s0 .8.1 1.1.2.7.5.9c.3.3.6.4 1 .4.7 0 1.4-.1 2-.5s1.1-.9 1.5-1.6l2-11.8h2.5l-2.6 15.8h-2.4z"/>
                    <path d="m96.7 154.2-.3 1.7c.5-.6 1.1-1.1 1.7-1.4.7-.4 1.4-.6 2.2-.6.7 0 1.3.2 1.9.6.5.4.8.8 1.1 1.4.2.6.4 1.2.4 1.9.1.7.1 1.3 0 2l-1.8 10.3h-2.5l1.7-10.4c0-.4.1-.8.1-1.2s0-.7-.2-1.1c-.1-.3-.3-.6-.6-.8s-.7-.4-1.1-.3c-.3 0-.7.1-1 .2s-.6.3-.9.5-.5.5-.7.8-.4.6-.6.9l-2 11.5h-2.6l2.8-15.9z"/>
                    <path d="m30.4 122.3v76.3c0 1 .8 1.8 1.8 1.8h102.9c1 0 1.8-.8 1.8-1.8v-76.3z" fill="#f6f6f6"/>
                    <path d="m82 122.4h3.3v19.5h-3.3z" fill="#2dc3f7"/>
                    <path d="m61.4 122.4h3.3v19.5h-3.3z" fill="#2dc3f7"/>
                    <path d="m40.9 122.4h3.3v19.5h-3.3z" fill="#2dc3f7"/>
                    <path d="m102.5 122.3h3.3v19.5h-3.3z" fill="#2dc3f7"/>
                    <path d="m123 122.3h3.3v19.5h-3.3z" fill="#2dc3f7"/>
                    <path d="m82 180.9h3.3v19.5h-3.3z" fill="#2dc3f7"/>
                    <path d="m61.5 180.9h3.3v19.5h-3.3z" fill="#2dc3f7"/>
                    <path d="m40.9 180.9h3.3v19.5h-3.3z" fill="#2dc3f7"/>
                    <path d="m102.5 180.9h3.3v19.5h-3.3z" fill="#2dc3f7"/>
                    <path d="m123.1 180.9h3.3v19.5h-3.3z" fill="#2dc3f7"/>
                    <path d="m30.4 180.2h106.5v3.3h-106.5z" fill="#1a9dd9"/>
                    <path d="m30.4 139.2h106.5v3.3h-106.5z" fill="#1a9dd9"/>
                    <path d="m75.3 164.6c.1-.5 0-1-.1-1.5-.1-.4-.3-.8-.6-1.1s-.6-.6-1-.8-.8-.4-1.3-.6c-.7-.3-1.3-.6-1.9-1s-1.1-.8-1.6-1.3c-1-1.1-1.4-2.5-1.3-3.9 0-.8.3-1.7.6-2.4s.8-1.4 1.4-1.9 1.3-.9 2-1.2c.8-.3 1.6-.4 2.5-.4.8 0 1.7.2 2.4.6.7.3 1.3.8 1.7 1.4.5.6.8 1.3 1 2 .2.8.3 1.6.3 2.5h-2.6c0-.5 0-1-.1-1.5s-.2-.9-.4-1.3-.6-.7-.9-.9c-.5-.3-1-.4-1.5-.4s-1 .1-1.5.2c-.9.3-1.6 1-2 1.9-.2.5-.3.9-.4 1.4s0 .9.2 1.4c.2.4.4.7.7 1s.6.6 1 .8.8.4 1.2.6c.7.3 1.4.6 2 1s1.1.8 1.6 1.3.8 1.1 1 1.8.3 1.5.2 2.3c-.1.9-.3 1.7-.7 2.4s-.9 1.3-1.5 1.9-1.3 1-2 1.3c-.8.3-1.7.4-2.5.4-.9 0-1.7-.2-2.5-.5-.7-.3-1.3-.8-1.9-1.4-.5-.6-.9-1.3-1.2-2-.3-.8-.4-1.7-.3-2.5h2.7c0 .5 0 1.1.1 1.6s.3.9.6 1.3.6.7 1.1.9 1 .3 1.6.3c.5 0 1-.1 1.5-.2s.9-.4 1.2-.7c.4-.3.6-.7.8-1.1.2-.6.4-1.1.4-1.7z"/>
                    <path d="m88.2 170.1c-.1-.3-.1-.6-.1-.9s0-.6.1-.9c-.2.3-.5.5-.7.8-.3.2-.5.5-.8.6-.3.2-.6.3-1 .4s-.7.2-1.1.2c-.6 0-1.2-.1-1.8-.4-.5-.2-.9-.5-1.3-.9-.3-.4-.6-.9-.7-1.4-.2-.6-.2-1.2-.2-1.8 0-.8.3-1.7.7-2.4s.9-1.2 1.5-1.7 1.4-.8 2.1-1c.8-.2 1.6-.3 2.5-.3h1.9l.2-1.7c0-.3 0-.7 0-1s-.1-.6-.3-.8-.4-.4-.6-.5c-.3-.1-.7-.2-1-.2-.4 0-.7.1-1.1.2-.6.2-1.2.7-1.5 1.3-.2.3-.3.7-.3 1h-2.5c.1-.7.3-1.3.6-1.9s.8-1.1 1.3-1.5 1.1-.8 1.8-1c.6-.2 1.3-.3 2-.3s1.4.1 2 .4c.5.2 1 .6 1.4 1s.6 1 .8 1.5c.2.7.2 1.3.1 2l-1.3 7.8c-.1.5-.1 1.1-.1 1.6s0 1 .1 1.6v.3zm-3.1-2c.3 0 .7 0 1-.1s.6-.2.9-.4.5-.4.8-.6c.2-.2.5-.5.7-.7l.7-3.8h-1.2c-.5 0-1.1.1-1.6.2s-1 .3-1.4.6-.8.6-1.1 1-.5 1-.5 1.5v1c0 .3.1.5.3.8.1.2.3.4.6.5.2-.1.5 0 .8 0z"/>
                    <path d="m101 150.4-.7 3.8h2.3l-.4 2.1h-2.2l-1.7 9.9v.6c0 .2 0 .4.1.6 0 .2.1.3.3.5.2.1.4.2.6.2h.5l.5-.1-.3 2.1c-.5.2-1.1.3-1.7.3-.5 0-1-.1-1.4-.4-.3-.3-.6-.6-.8-1s-.3-.9-.3-1.4 0-1 0-1.4l1.6-9.8h-2.4l.4-2.1h2.3l.7-3.8z"/>
                    <path d="m30.4 122.3v76.3c0 1 .8 1.8 1.8 1.8h102.9c1 0 1.8-.8 1.8-1.8v-76.3z" fill="#f6f6f6"/>
                    <path d="m82 122.4h3.3v19.5h-3.3z" fill="#2dc3f7"/>
                    <path d="m61.4 122.4h3.3v19.5h-3.3z" fill="#2dc3f7"/>
                    <path d="m40.9 122.4h3.3v19.5h-3.3z" fill="#2dc3f7"/>
                    <path d="m102.5 122.3h3.3v19.5h-3.3z" fill="#2dc3f7"/>
                    <path d="m123 122.3h3.3v19.5h-3.3z" fill="#2dc3f7"/>
                    <path d="m82 180.9h3.3v19.5h-3.3z" fill="#2dc3f7"/>
                    <path d="m61.5 180.9h3.3v19.5h-3.3z" fill="#2dc3f7"/>
                    <path d="m40.9 180.9h3.3v19.5h-3.3z" fill="#2dc3f7"/>
                    <path d="m102.5 180.9h3.3v19.5h-3.3z" fill="#2dc3f7"/>
                    <path d="m123.1 180.9h3.3v19.5h-3.3z" fill="#2dc3f7"/>
                    <path d="m30.4 180.2h106.5v3.3h-106.5z" fill="#1a9dd9"/>
                    <path d="m30.4 139.2h106.5v3.3h-106.5z" fill="#1a9dd9"/>
                    <path d="m80.8 160.7h-7l-1.6 9.4h-2.6l3.7-21.3h10.7l-.4 2.3h-8.2l-1.3 7.3h7z"/>
                    <path d="m91.7 156.7-.6-.1c-.2 0-.4 0-.6 0-.3 0-.7.1-1 .2s-.6.3-.8.5c-.3.2-.5.4-.7.7s-.4.6-.6.9l-2 11.4h-2.6l2.8-15.9h2.4l-.4 1.6c.2-.3.4-.5.6-.8.2-.2.5-.4.7-.6.3-.2.5-.3.8-.4s.7-.1 1-.1c.2 0 .4 0 .6.1l.5.1z"/>
                    <path d="m94.7 170.1h-2.5l2.8-15.9h2.5zm.8-20c0-.4.2-.8.4-1.1s.6-.5 1-.5c.2 0 .4 0 .6.1s.3.2.4.3.2.3.3.5.1.4.1.6c0 .4-.2.8-.4 1.1s-.6.5-1 .5c-.2 0-.4 0-.6-.1s-.3-.2-.4-.3c-.1-.2-.2-.3-.3-.5s-.1-.4-.1-.6z"/>
                    <path d="m30.4 122.3v76.3c0 1 .8 1.8 1.8 1.8h102.9c1 0 1.8-.8 1.8-1.8v-76.3z" fill="#f6f6f6"/>
                    <path d="m82 122.4h3.3v19.5h-3.3z" fill="#2dc3f7"/>
                    <path d="m61.4 122.4h3.3v19.5h-3.3z" fill="#2dc3f7"/>
                    <path d="m40.9 122.4h3.3v19.5h-3.3z" fill="#2dc3f7"/>
                    <path d="m102.5 122.3h3.3v19.5h-3.3z" fill="#2dc3f7"/>
                    <path d="m123 122.3h3.3v19.5h-3.3z" fill="#2dc3f7"/>
                    <path d="m82 180.9h3.3v19.5h-3.3z" fill="#2dc3f7"/>
                    <path d="m61.5 180.9h3.3v19.5h-3.3z" fill="#2dc3f7"/>
                    <path d="m40.9 180.9h3.3v19.5h-3.3z" fill="#2dc3f7"/>
                    <path d="m102.5 180.9h3.3v19.5h-3.3z" fill="#2dc3f7"/>
                    <path d="m123.1 180.9h3.3v19.5h-3.3z" fill="#2dc3f7"/>
                    <path d="m30.4 180.2h106.5v3.3h-106.5z" fill="#1a9dd9"/>
                    <path d="m30.4 139.2h106.5v3.3h-106.5z" fill="#1a9dd9"/>
                    <path d="m77.9 151.1h-5.4l-3.3 19h-2.6l3.3-19h-5.4l.4-2.3h13.5z"/>
                    <path d="m82.3 155.9c.2-.3.5-.5.8-.8l.9-.6c.3-.2.7-.3 1-.4.4-.1.7-.1 1.1-.1.7 0 1.3.2 1.9.6.5.4.8.8 1.1 1.4.2.6.4 1.2.4 1.9.1.7.1 1.3 0 2l-1.8 10.3h-2.5l1.8-10.4c0-.4.1-.8.1-1.2s0-.7-.2-1.1c-.1-.3-.3-.6-.6-.8s-.7-.4-1.1-.3c-.3 0-.7.1-1 .2s-.6.3-.9.5-.5.5-.7.8-.4.6-.6.9l-2 11.5h-2.5l3.9-22.5h2.5z"/>
                    <path d="m99.8 168.7c-.5.5-1.1 1-1.7 1.3-.7.3-1.4.4-2.1.4-.5 0-.9-.1-1.4-.3-.4-.2-.7-.4-1-.7s-.5-.6-.7-1-.3-.8-.3-1.2c-.1-.4-.1-.9-.1-1.3s0-.9.1-1.3l1.7-10.2h2.5l-1.7 10.3c0 .3 0 .7-.1 1.1 0 .4 0 .8.1 1.1s.2.7.5.9c.3.3.6.4 1 .4.7 0 1.4-.1 2-.5s1.1-.9 1.5-1.6l2-11.8h2.5l-2.7 15.8h-2.4z"/>
                    <path d="m30.4 122.3v76.3c0 1 .8 1.8 1.8 1.8h102.9c1 0 1.8-.8 1.8-1.8v-76.3z" fill="#f6f6f6"/>
                    <path d="m82 122.4h3.3v19.5h-3.3z" fill="#2dc3f7"/>
                    <path d="m61.4 122.4h3.3v19.5h-3.3z" fill="#2dc3f7"/>
                    <path d="m40.9 122.4h3.3v19.5h-3.3z" fill="#2dc3f7"/>
                    <path d="m102.5 122.3h3.3v19.5h-3.3z" fill="#2dc3f7"/>
                    <path d="m123 122.3h3.3v19.5h-3.3z" fill="#2dc3f7"/>
                    <path d="m82 180.9h3.3v19.5h-3.3z" fill="#2dc3f7"/>
                    <path d="m61.5 180.9h3.3v19.5h-3.3z" fill="#2dc3f7"/>
                    <path d="m40.9 180.9h3.3v19.5h-3.3z" fill="#2dc3f7"/>
                    <path d="m102.5 180.9h3.3v19.5h-3.3z" fill="#2dc3f7"/>
                    <path d="m123.1 180.9h3.3v19.5h-3.3z" fill="#2dc3f7"/>
                    <path d="m30.4 180.2h106.5v3.3h-106.5z" fill="#1a9dd9"/>
                    <path d="m30.4 139.2h106.5v3.3h-106.5z" fill="#1a9dd9"/>
                    <path d="m64.5 163.5-.1 2.1.7-2.1 5.6-14.8h2.3l.9 15 .1 2 .7-2.6 4.8-14.5h2.7l-7.5 21.3h-2.4l-1-15.7v-1l-.4 1.3-6 15.5h-2.4l-.7-21.3h2.6z"/>
                    <path d="m86.6 170.4c-.9 0-1.8-.2-2.6-.6-.7-.4-1.2-.9-1.6-1.6s-.7-1.5-.8-2.3c-.1-.9-.1-1.8 0-2.6l.2-1.8c.1-.6.2-1.3.4-1.9s.4-1.2.7-1.8.6-1.1.9-1.6c.4-.5.8-.9 1.2-1.2.5-.4 1-.6 1.6-.8s1.3-.3 2-.3c.6 0 1.2.1 1.8.4.5.2.9.5 1.3.9s.6.8.8 1.3.3 1 .4 1.6.1 1.1.1 1.7-.1 1.2-.1 1.8l-.3 1.5h-8.5l-.1.4c-.1.5-.1 1.1-.1 1.7 0 .5.1 1 .3 1.5.4 1 1.4 1.7 2.4 1.6.4 0 .7 0 1.1-.1.3-.1.7-.2 1-.4s.6-.4.9-.6.6-.5.8-.7l1.2 1.7c-.6.8-1.4 1.4-2.3 1.8-.7.2-1.7.4-2.7.4zm1.9-14.2c-.6 0-1.2.1-1.7.4s-.8.6-1.1 1.1-.6 1-.7 1.5c-.2.6-.3 1.1-.5 1.6h6.1l.1-.4c.1-.5.1-.9.1-1.4s-.1-.9-.2-1.3-.4-.7-.7-1c-.5-.4-.9-.5-1.4-.5z"/>
                    <path d="m99.8 154.2-.3 1.7c.5-.6 1.1-1.1 1.7-1.4.7-.4 1.4-.6 2.2-.6.7 0 1.3.2 1.9.6.5.4.8.8 1.1 1.4.2.6.4 1.2.4 1.9.1.7.1 1.3 0 2l-1.8 10.3h-2.5l1.7-10.4c0-.4.1-.8.1-1.2s-.1-.7-.2-1.1c-.1-.3-.3-.6-.6-.8s-.7-.4-1.1-.3c-.3 0-.7.1-1 .2s-.6.3-.9.5-.5.5-.7.8-.4.6-.6.9l-2 11.5h-2.5l2.8-15.9z"/>
                    <path d="m30.4 122.3v76.3c0 1 .8 1.8 1.8 1.8h102.9c1 0 1.8-.8 1.8-1.8v-76.3z" fill="#f6f6f6"/>
                    <path d="m82 122.4h3.3v19.5h-3.3z" fill="#2dc3f7"/>
                    <path d="m61.4 122.4h3.3v19.5h-3.3z" fill="#2dc3f7"/>
                    <path d="m40.9 122.4h3.3v19.5h-3.3z" fill="#2dc3f7"/>
                    <path d="m102.5 122.3h3.3v19.5h-3.3z" fill="#2dc3f7"/>
                    <path d="m123 122.3h3.3v19.5h-3.3z" fill="#2dc3f7"/>
                    <path d="m82 180.9h3.3v19.5h-3.3z" fill="#2dc3f7"/>
                    <path d="m61.5 180.9h3.3v19.5h-3.3z" fill="#2dc3f7"/>
                    <path d="m40.9 180.9h3.3v19.5h-3.3z" fill="#2dc3f7"/>
                    <path d="m102.5 180.9h3.3v19.5h-3.3z" fill="#2dc3f7"/>
                    <path d="m123.1 180.9h3.3v19.5h-3.3z" fill="#2dc3f7"/>
                    <path d="m30.4 180.2h106.5v3.3h-106.5z" fill="#1a9dd9"/>
                    <path d="m30.4 139.2h106.5v3.3h-106.5z" fill="#1a9dd9"/>
                    <path d="m78.8 151.1h-5.4l-3.3 19h-2.6l3.3-19h-5.4l.4-2.3h13.5z"/>
                    <path d="m85.1 168.7c-.5.5-1 1-1.7 1.3s-1.4.4-2.1.4c-.5 0-.9-.1-1.4-.3-.4-.2-.7-.4-1-.7s-.5-.6-.6-1c-.2-.4-.3-.8-.4-1.2s-.1-.9-.1-1.3 0-.9.1-1.3l1.7-10.2h2.5l-1.7 10.3c0 .3 0 .7-.1 1.1 0 .4 0 .8.1 1.1s.2.7.5.9c.3.3.6.4 1 .4.7 0 1.4-.1 2-.5s1.1-.9 1.5-1.6l2-11.8h2.5l-2.7 15.8h-2.4z"/>
                    <path d="m96.8 170.4c-.9 0-1.8-.2-2.6-.6-.7-.4-1.2-.9-1.6-1.6s-.7-1.5-.8-2.2c-.1-.9-.1-1.8 0-2.6l.2-1.8c.1-.6.2-1.3.4-1.9s.4-1.2.7-1.8.6-1.1.9-1.6c.4-.5.8-.9 1.2-1.2.5-.4 1-.6 1.6-.8s1.3-.3 2-.3c.6 0 1.2.1 1.8.4.5.2.9.5 1.3.9s.6.8.8 1.3.3 1 .4 1.6.1 1.1.1 1.7-.1 1.2-.1 1.8l-.1 1.3h-8.5l-.1.4c-.1.6-.2 1.1-.1 1.7 0 .5.1 1 .3 1.5.4 1 1.4 1.7 2.4 1.6.4 0 .7 0 1.1-.1.3-.1.7-.2 1-.4s.6-.4.9-.6.6-.5.8-.7l1.2 1.6c-.6.8-1.4 1.4-2.3 1.8s-1.9.6-2.9.6zm1.9-14.2c-.6 0-1.2.1-1.7.4s-.8.6-1.1 1.1-.6 1-.7 1.5c-.2.6-.3 1.1-.5 1.6h6.1l.1-.4c.1-.5.1-.9.1-1.4s-.1-.9-.2-1.3c-.3-1-1.2-1.6-2.1-1.5z"/>
                    <path d="m30.4 122.3v76.3c0 1 .8 1.8 1.8 1.8h102.9c1 0 1.8-.8 1.8-1.8v-76.3z" fill="#f6f6f6"/>
                    <path d="m82 122.4h3.3v19.5h-3.3z" fill="#2dc3f7"/>
                    <path d="m61.4 122.4h3.3v19.5h-3.3z" fill="#2dc3f7"/>
                    <path d="m40.9 122.4h3.3v19.5h-3.3z" fill="#2dc3f7"/>
                    <path d="m102.5 122.3h3.3v19.5h-3.3z" fill="#2dc3f7"/>
                    <path d="m123 122.3h3.3v19.5h-3.3z" fill="#2dc3f7"/>
                    <path d="m82 180.9h3.3v19.5h-3.3z" fill="#2dc3f7"/>
                    <path d="m61.5 180.9h3.3v19.5h-3.3z" fill="#2dc3f7"/>
                    <path d="m40.9 180.9h3.3v19.5h-3.3z" fill="#2dc3f7"/>
                    <path d="m102.5 180.9h3.3v19.5h-3.3z" fill="#2dc3f7"/>
                    <path d="m123.1 180.9h3.3v19.5h-3.3z" fill="#2dc3f7"/>
                    <path d="m30.4 180.2h106.5v3.3h-106.5z" fill="#1a9dd9"/>
                    <path d="m30.4 139.2h106.5v3.3h-106.5z" fill="#1a9dd9"/>
                    <path d="m65.8 148.8 2.4 17.4 8.4-17.4h3.4l-3.7 21.3h-2.6l1.5-8.4 1.6-7.9-8.2 16.3h-2l-2.5-16.7-1.2 8.5-1.4 8.2h-2.7l3.7-21.3z"/>
                    <path d="m81.5 161.5c.1-.6.2-1.3.4-1.9s.4-1.2.7-1.8.6-1.1 1-1.6.8-.9 1.3-1.3c.5-.3 1-.6 1.6-.8s1.3-.3 2-.3c.9 0 1.8.2 2.5.7.7.4 1.2 1 1.6 1.7s.6 1.6.7 2.4c.1.9.1 1.8 0 2.6l-.2 1.5c-.1.6-.2 1.3-.4 1.9s-.4 1.2-.7 1.8c-.3.5-.6 1.1-1 1.6s-.8.9-1.3 1.2-1 .6-1.6.8-1.3.3-2 .3c-.9 0-1.8-.2-2.5-.7-.7-.4-1.2-1-1.6-1.7s-.6-1.5-.7-2.4-.1-1.7 0-2.6zm2.3 1.5c0 .3-.1.7-.1 1.1v1.1c0 .4.1.7.2 1.1.1.3.3.7.5.9.2.3.4.5.7.7s.7.3 1.1.3c.7.1 1.3-.1 1.9-.4.5-.3.9-.7 1.3-1.2.3-.5.6-1.1.8-1.7s.3-1.2.4-1.9l.2-1.5c0-.3.1-.7.1-1.1s0-.8 0-1.1c0-.4-.1-.7-.2-1.1s-.3-.7-.5-1-.5-.5-.8-.7-.7-.3-1.1-.3-.9 0-1.3.2c-.4.1-.7.4-1 .6-.3.3-.6.6-.8.9-.2.4-.4.7-.6 1.1s-.3.8-.4 1.2-.2.8-.2 1.2z"/>
                    <path d="m100.4 154.2-.3 1.7c.5-.6 1.1-1.1 1.7-1.4.7-.4 1.4-.6 2.2-.6.7 0 1.3.2 1.9.6.5.4.8.8 1.1 1.4.2.6.4 1.2.4 1.9.1.7.1 1.3 0 2l-1.8 10.3h-2.5l1.7-10.4c0-.4.1-.8.1-1.2s-.1-.7-.2-1.1c-.1-.3-.3-.6-.6-.8s-.7-.4-1.1-.3c-.3 0-.7.1-1 .2s-.6.3-.9.5-.5.5-.7.8-.4.6-.6.9l-2 11.5h-2.5l2.8-15.9z"/>
                </g>
            </g>
        </g>
    </g>
</svg>
