<svg id="svg6952" height="600" width="600" xmlns="http://www.w3.org/2000/svg" xmlns:xlink="http://www.w3.org/1999/xlink" xmlns:dc="http://purl.org/dc/elements/1.1/" xmlns:cc="http://creativecommons.org/ns#" xmlns:rdf="http://www.w3.org/1999/02/22-rdf-syntax-ns#" xmlns:svg="http://www.w3.org/2000/svg" xmlns:sodipodi="http://sodipodi.sourceforge.net/DTD/sodipodi-0.dtd" xmlns:inkscape="http://www.inkscape.org/namespaces/inkscape" inkscape:version="0.48.5 r10040" sodipodi:docname="Joint Cannabis v2.svg">
    <linearGradient id="linearGradient7520">
        <stop id="stop7522" offset="0" stop-color="#4a2707"/>
        <stop id="stop7538" offset=".19169946" stop-color="#7b510a"/>
        <stop id="stop7530" offset=".25508675" stop-color="#ad7b0d"/>
        <stop id="stop7540" offset=".31833297" stop-color="#ad7b0d"/>
        <stop id="stop7534" offset=".35276344" stop-color="#f9f9f9"/>
        <stop id="stop7524" offset="1" stop-color="#f9f9f9"/>
    </linearGradient>
    <radialGradient id="radialGradient3929" cx="400.96" cy="478.31" gradientTransform="matrix(.72598 .79198 -1.1143 1.0214 658.08 -309.25)" gradientUnits="userSpaceOnUse" r="62.456" xlink:href="#linearGradient7520" inkscape:collect="always"/>
    <g id="TheLitJoint" transform="matrix(1.5 0 0 1.5 -135.64 -353.78)">
        <g id="RolledJoint">
            <path id="path7506" d="m407.65 480.98 18.47-.79c2.04.19 3.91-.69 5.42 1.69l1.65 2.59.6 2.44-.73 2.3 1.06 1.7-1.31 2.62 1.66 1.28-.71 2.77.48 2.02-1.37 2.34.12 2.64-1.66 1.89-.18 2.19-2.15 1.47-.95 1.76-2.89.72-2.89.72c-3.38.85-6.84 2.56-11.22 2.8-7.34 0-27.44-1.95-29.7-2.74-5.33-1.85-8.62-3.25-10.77-3.46" fill="#d40000" stroke="#000" stroke-linejoin="round" stroke-width=".5" inkscape:connector-curvature="0" sodipodi:nodetypes="ccscccccccccccccccscsc"/>
            <path id="path7496" d="m306.78 517.45c4.67 0 11.05-.36 18.32.61 17.48 2.34 46.6 2.53 57.37 1.7 19.21-1.48 36.92-4.53 39.46-6.5l-2.58-.36-1.68-1.4-3.24.16-2.35-.89c0-1.47.28-3.07-.36-4.16-.64-1.08-2.19-1.65-2.26-2.81l-1.39-2.82 1.13-2.96-.15-3.48 3.26-3.19.27-4.07 3.26-2.55 1.46-2.41 2.53.69 3.72-2.14 4.11-1.08 3.53 1c-7.35-3.87-15.54-4.54-33.41-2.91l-28.88-.79" fill="url(#radialGradient3929)" stroke="#000" stroke-linejoin="round" stroke-width=".5" inkscape:connector-curvature="0" sodipodi:nodetypes="csscccccscccccccccccccc"/>
            <path id="path7498" d="m251.37 508.32c6.29.1 14 1.04 18.79 3.18 10.09 4.52 36.31 6.11 53.74 6.27 11.2-11.75 47.91-40.1 75.23-39.89-21.72-.49-36.56-8.74-67.84-4l-32.24.94" fill="#f9f9f9" stroke="#000" stroke-linejoin="round" stroke-width=".5" inkscape:connector-curvature="0" sodipodi:nodetypes="cscccc"/>
            <path id="path7500" d="m190.25 497.87c9.43.15 24.83 6.85 29.68 8.62 9.68 3.52 30.63 6.12 50.24 4.98 6.72-9.65 34.86-34.75 61.79-37.59-15.92-2.4-37.3-1.62-52.74.1l-19.79.56" fill="#f9f9f9" stroke="#000" stroke-linejoin="round" stroke-width=".5" inkscape:connector-curvature="0" sodipodi:nodetypes="cscccc"/>
            <path id="path7502" d="m155.32 495.71c7.19.81 14.3 1.67 20.72 3.25 13.21 3.25 28.38 8.22 44.43 7.47 2.24-6.08 37.91-33.32 58.96-32.48-15.63-.88-32.93.68-52.89 4.24-4.13.73-9.4.56-14.61 1.28l-15.47.87" fill="#f9f9f9" stroke="#000" stroke-linejoin="round" stroke-width=".5" inkscape:connector-curvature="0" sodipodi:nodetypes="csccscc"/>
            <path id="path7504" d="m226.5 478.17c-32.39 3.08-50.36 17.05-50.36 20.82-18.98.23-35.19-2.99-51.64-5.91-4.52-.72-6.57-11.85 4.64-11.41 6.92-.1 14.7-.34 24.64-1.12 0 0 16.92-2.21 25.62-2.54 15.55-.59 47.1.16 47.1.16z" fill="#f9f9f9" stroke="#000" stroke-linejoin="round" stroke-width=".5" inkscape:connector-curvature="0" sodipodi:nodetypes="cccccsc"/>
            <path id="path7508" d="m428.2 479.44c-17.11-1.11-45.07 17.33-48.11 40.68" fill="none" stroke="#000" stroke-linejoin="round" stroke-width=".5" inkscape:connector-curvature="0" sodipodi:nodetypes="cc"/>
        </g>
    </g>
</svg>
