<svg id="Capa_1" enable-background="new 0 0 511.999 511.999" xmlns="http://www.w3.org/2000/svg">
    <g>
        <g>
            <path d="m370.411 141.564c-2.93-2.929-7.681-2.929-10.612 0l-181.979 181.98c-2.931 2.931-2.931 7.681 0 10.613 1.465 1.465 3.385 2.197 5.306 2.197s3.841-.733 5.306-2.197l181.979-181.98c2.931-2.931 2.931-7.682 0-10.613z"/>
        </g>
    </g>
    <g>
        <g>
            <path d="m440.789 71.186c-2.93-2.929-7.681-2.929-10.612 0l-45.303 45.303c-2.931 2.931-2.931 7.681 0 10.613 1.465 1.465 3.385 2.197 5.306 2.197s3.841-.732 5.306-2.197l45.303-45.303c2.931-2.931 2.931-7.681 0-10.613z"/>
        </g>
    </g>
    <g>
        <g>
            <g>
                <path d="m494.404 46.836-29.265-29.265c-23.423-23.421-61.535-23.421-84.957 0l-260.532 260.534c-14.485 14.485-21.725 34.492-19.864 54.892 1.455 15.95-4.206 31.592-15.53 42.916l-73.544 73.544c-14.283 14.283-14.283 37.524 0 51.808.432.432.874.853 1.324 1.261 6.747 6.119 15.406 9.468 24.58 9.468 1.223 0 2.437-.06 3.639-.177 8.411-.824 16.211-4.498 22.265-10.551l73.544-73.544c11.324-11.325 26.969-16.988 42.917-15.531 20.401 1.863 40.407-5.379 54.892-19.863l13.198-13.198c2.931-2.931 2.931-7.681 0-10.613-2.93-2.929-7.681-2.929-10.612 0l-13.198 13.198c-11.325 11.325-26.969 16.991-42.917 15.531-20.401-1.86-40.407 5.379-54.892 19.863l-42.054 42.054-30.585-30.583 42.054-42.054c14.485-14.484 21.725-34.491 19.864-54.893-1.455-15.949 4.206-31.591 15.53-42.916l55.69-55.69 19.598 19.598c1.465 1.465 3.385 2.197 5.306 2.197s3.841-.733 5.306-2.197c2.931-2.931 2.931-7.681 0-10.613l-19.598-19.598 32.133-32.133 8.655 8.655c1.465 1.465 3.385 2.197 5.306 2.197s3.841-.733 5.306-2.197c2.931-2.931 2.931-7.681 0-10.613l-8.655-8.655 32.133-32.133 19.599 19.598c1.465 1.465 3.385 2.197 5.306 2.197 1.92 0 3.841-.733 5.306-2.197 2.931-2.931 2.931-7.681 0-10.613l-19.598-19.598 32.133-32.133 8.655 8.655c1.465 1.466 3.385 2.198 5.306 2.198 1.92 0 3.841-.733 5.306-2.197 2.931-2.931 2.931-7.681 0-10.612l-8.655-8.655 32.133-32.133 19.599 19.599c1.465 1.465 3.385 2.197 5.306 2.197 1.92 0 3.841-.733 5.306-2.197 2.931-2.931 2.931-7.681 0-10.613l-19.598-19.598 23.251-23.251c17.572-17.571 46.163-17.571 63.734 0l29.265 29.265c8.512 8.511 13.2 19.829 13.2 31.866 0 12.038-4.688 23.355-13.2 31.867l-222.076 222.075c-2.931 2.931-2.931 7.681 0 10.613 2.93 2.929 7.681 2.929 10.612 0l222.073-222.072c11.346-11.349 17.595-26.434 17.595-42.481 0-16.046-6.249-31.132-17.595-42.479zm-421.62 422.939-20.878 20.878c-4.084 4.084-9.515 6.334-15.291 6.334-5.777 0-11.207-2.25-15.292-6.335-2.108-2.108-3.689-4.546-4.743-7.15-2.03-5.016-2.085-10.64-.203-15.701 1.048-2.82 2.683-5.469 4.946-7.732l20.878-20.878z"/>
                <path d="m380.182 17.571c-.018.018.037-.037.018-.019-.019.019 0 .001-.018.019z"/>
            </g>
        </g>
    </g>
    <g/>
    <g/>
    <g/>
    <g/>
    <g/>
    <g/>
    <g/>
    <g/>
    <g/>
    <g/>
    <g/>
    <g/>
    <g/>
    <g/>
    <g/>
</svg>
