<svg id="svg1" viewBox="0 0 640 640" xmlns="http://www.w3.org/2000/svg" xmlns:xlink="http://www.w3.org/1999/xlink" xmlns:rdf="http://www.w3.org/1999/02/22-rdf-syntax-ns#" xmlns:cc="http://web.resource.org/cc/" xmlns:dc="http://purl.org/dc/elements/1.1/" xmlns:svg="http://www.w3.org/2000/svg" xmlns:inkscape="http://www.inkscape.org/namespaces/inkscape" xmlns:sodipodi="http://sodipodi.sourceforge.net/DTD/sodipodi-0.dtd" xmlns:ns1="http://sozi.baierouge.fr">
    <linearGradient id="linearGradient1818">
        <stop id="stop1819" offset="0" stop-color="#fff"/>
        <stop id="stop1820" offset="1" stop-color="#fff" stop-opacity="0"/>
    </linearGradient>
    <radialGradient id="radialGradient1777" cx="51.249" cy="268.41" gradientUnits="userSpaceOnUse" r="731.79">
        <stop id="stop1775" offset="0" stop-color="#ddd"/>
        <stop id="stop1776" offset="1" stop-color="#7e7e7e"/>
    </radialGradient>
    <radialGradient id="radialGradient1821" cx="124.4" cy="120.82" gradientTransform="scale(2.0419 .48973)" gradientUnits="userSpaceOnUse" r="102.27" >
        <stop id="stop1819" offset="0" stop-color="#fff"/>
        <stop id="stop1820" offset="1" stop-color="#fff" stop-opacity="0"/>
    </radialGradient>
    <radialGradient id="radialGradient1823" cx="124.4" cy="120.82" gradientTransform="matrix(2.0178 .41721 -.07508 .64498 56.379 -73.488)" gradientUnits="userSpaceOnUse" r="102.27" xlink:href="#linearGradient1818"/>
    <path id="path1134" d="m350.53 36.821a308.79 308.79 0 1 1 -617.57 0 308.79 308.79 0 1 1 617.57 0z" fill="url(#radialGradient1777)" transform="matrix(.87529 0 0 .87529 281.58 288.51)"/>
    <path id="path1814" d="m318.12 50.469c-67.48 0-129.15 24.807-176.53 65.751 10.09-3.99 56-24.157 59.94-26.126 35.24-17.622 95.14-24.091 133.88-14.406 3.84.959 7.69 1.915 11.53 2.874 18.57 4.643 39.58 2.876 59.03 2.876 11.84 0 11.29-6.88 6.84-13.876-29.47-11.037-61.37-17.093-94.69-17.093z" fill="url(#radialGradient1821)" fill-rule="evenodd" opacity=".65217"/>
    <path id="path1822" d="m363.01 57.98c-66.69-13.789-131.43 6.282-184.53 50.52 10.58-3.19 59.04-20.368 63.24-22.157 37.52-16.006 97.7-12.289 134.5 8.381 3.64 2.048 7.3 4.094 10.95 6.146 17.64 9.91 38.67 11.87 57.89 15.84 11.71 2.42 12.22-6.75 8.89-16.871-27.43-20.558-58.03-35.053-90.94-41.859z" fill="url(#radialGradient1823)" fill-rule="evenodd" opacity=".24155"/>
</svg>
