<svg enable-background="new 0 0 1920 1080" viewBox="0 0 1920 1080" xmlns="http://www.w3.org/2000/svg" xmlns:xlink="http://www.w3.org/1999/xlink">
    <linearGradient id="SVGID_1_" gradientUnits="userSpaceOnUse" x1="960.0133" x2="960.0133" y1="0" y2="2172">
        <stop offset=".06781637" stop-color="#002742"/>
        <stop offset=".1545" stop-color="#072d47"/>
        <stop offset=".2798" stop-color="#1a3c54"/>
        <stop offset=".4284" stop-color="#3a566a"/>
        <stop offset=".595" stop-color="#657a89"/>
        <stop offset=".7749" stop-color="#9da8b0"/>
        <stop offset=".9548" stop-color="#dcdcdc"/>
    </linearGradient>
    <g id="Nachthimmel_1">
        <path d="m0 0h1920v2172h-1920z" fill="url(#SVGID_1_)"/>
    </g>
    <g id="N_Woken">
        <path d="m1872 117.6h-1411.2c-21.2 0-38.4 17.2-38.4 38.4 0 21.2 17.2 38.4 38.4 38.4h931c16 0 29 13 29 29 0 15.8-12.7 28.8-28.6 29-166.8 2.5-1013.9 15.4-1201.7 18.2-20.5.3-36.9 17-36.9 37.5v1.2c0 21.4 17.3 38.7 38.7 38.7h114.9c10.6 0 19.2 8.6 19.2 19.2 0 10.6-8.6 19.2-19.2 19.2h-19.2c-10.6 0-19.2 8.6-19.2 19.2 0 10.6 8.6 19.2 19.2 19.2h1190.4c10.6 0 19.2 8.6 19.2 19.2 0 10.6-8.6 19.2-19.2 19.2h-249.6c-10.6 0-19.2 8.6-19.2 19.2 0 10.6 8.6 19.2 19.2 19.2h259.4c15.8 0 28.6 12.8 28.6 28.6 0 16-13.1 28.8-29 28.6l-1218.7-18.2c-21.3-.3-38.7 16.8-38.7 38.1 0 21.1 17.1 38.1 38.1 38.1h489.9c15.9 0 28.8 12.9 28.8 28.8 0 15.9-12.9 28.8-28.8 28.8h-508.8c-10.6 0-19.2 8.6-19.2 19.2 0 10.6 8.6 19.2 19.2 19.2h67.2c5.3 0 9.6 4.3 9.6 9.6 0 5.3-4.3 9.6-9.6 9.6h-268.7c-5.3 0-9.7 4.3-9.7 9.7 0 5.3 4.3 9.6 9.5 9.7l1459.5 18.6c15.9.2 28.6 13.1 28.6 29 0 16-13 29-29 29h-931c-10.6 0-19.2 8.6-19.2 19.2 0 10.6 8.6 19.2 19.2 19.2h979.2c10.6 0 19.2 8.6 19.2 19.2 0 10.6-8.6 19.2-19.2 19.2h-1382.4c-10.6 0-19.2 8.6-19.2 19.2 0 10.6 8.6 19.2 19.2 19.2h1113.6 393.6c26.5 0 48-21.5 48-48 0-26.5-21.5-48-48-48h-76.8c-15.9 0-28.8-12.9-28.8-28.8 0-15.9 12.9-28.8 28.8-28.8h57.6c15.9 0 28.8-12.9 28.8-28.8 0-15.9-12.9-28.8-28.8-28.8h-739.2c-10.6 0-19.2-8.6-19.2-19.2 0-10.6 8.6-19.2 19.2-19.2h115.2c10.6 0 19.2-8.6 19.2-19.2 0-10.6-8.6-19.2-19.2-19.2h-105.6c-15.9 0-28.8-12.9-28.8-28.8 0-15.9 12.9-28.8 28.8-28.8h720c21.2 0 38.4-17.2 38.4-38.4 0-21.2-17.2-38.4-38.4-38.4h-76.8c-10.6 0-19.2-8.6-19.2-19.2 0-10.6 8.6-19.2 19.2-19.2h124.8c15.9 0 28.8-12.9 28.8-28.8 0-15.9-12.9-28.8-28.8-28.8h-105.6c-10.6 0-19.2-8.6-19.2-19.2 0-10.6-8.6-19.2-19.2-19.2h-748.8c-10.6 0-19.2-8.6-19.2-19.2 0-10.6 8.6-19.2 19.2-19.2h134.4c10.6 0 19.2-8.6 19.2-19.2 0-10.6-8.6-19.2-19.2-19.2h-124.8c-5.3 0-9.6-4.3-9.6-9.6 0-5.3 4.3-9.6 9.6-9.6h807.3c15.4 0 27.9-12.5 27.9-28v-.7c0-16.1-12.9-28.9-28.8-28.9-27.4 0-68.6 0-96 0-15.9 0-28.8-12.9-28.8-28.8 0-15.9 12.9-28.8 28.8-28.8h240c10.6 0 19.2-8.6 19.2-19.2 0-10.6 8.6-19.2 19.2-19.2h67.2c5.3 0 9.6-4.3 9.6-9.6 0-5.3-4.3-9.6-9.6-9.6z" fill="#0e2236"/>
    </g>
</svg>
