<svg id="svg4784" height="151.74721mm" viewBox="0 0 128.21664 151.74721" width="128.21664mm" xmlns="http://www.w3.org/2000/svg" xmlns:xlink="http://www.w3.org/1999/xlink" xmlns:dc="http://purl.org/dc/elements/1.1/" xmlns:cc="http://creativecommons.org/ns#" xmlns:rdf="http://www.w3.org/1999/02/22-rdf-syntax-ns#" xmlns:svg="http://www.w3.org/2000/svg" xmlns:sodipodi="http://sodipodi.sourceforge.net/DTD/sodipodi-0.dtd" xmlns:inkscape="http://www.inkscape.org/namespaces/inkscape" sodipodi:docname="FX13_dove.svg" inkscape:version="0.92.1 r15371">
    <linearGradient id="linearGradient4523" inkscape:collect="always">
        <stop id="stop4519" offset="0" stop-color="#d4d1c7"/>
        <stop id="stop4521" offset="1" stop-color="#dcd9d2"/>
    </linearGradient>
    <linearGradient id="linearGradient4507" inkscape:collect="always">
        <stop id="stop4503" offset="0" stop-color="#bebebe"/>
        <stop id="stop4505" offset="1" stop-color="#ccc"/>
    </linearGradient>
    <linearGradient id="linearGradient4499" inkscape:collect="always">
        <stop id="stop4495" offset="0" stop-color="#b3b3b3"/>
        <stop id="stop4497" offset="1" stop-color="#ededed"/>
    </linearGradient>
    <linearGradient id="linearGradient4501" gradientUnits="userSpaceOnUse" x1="117.31412681084" x2="166.05430815867" xlink:href="#linearGradient4499" y1="98.592398275" y2="129.16578528967" inkscape:collect="always"/>
    <linearGradient id="linearGradient4509" gradientUnits="userSpaceOnUse" x1="83.63908048916" x2="123.07431791199" xlink:href="#linearGradient4507" y1="88.84436083316" y2="78.21013870218" inkscape:collect="always"/>
    <linearGradient id="linearGradient4525" gradientUnits="userSpaceOnUse" x1="138.58256169458" x2="174.02997270542" xlink:href="#linearGradient4523" y1="148.21876900107" y2="188.9832787685" inkscape:collect="always"/>
    <sodipodi:namedview pagecolor="#ffffff" bordercolor="#666666" borderopacity="1.0" inkscape:pageopacity="0.0" inkscape:pageshadow="2" inkscape:zoom="0.7" inkscape:cx="526.28206" inkscape:cy="140.88591" inkscape:document-units="mm" inkscape:current-layer="layer1" showgrid="false" inkscape:window-width="1920" inkscape:window-height="1016" inkscape:window-x="0" inkscape:window-y="27" inkscape:window-maximized="1" inkscape:snap-global="false" fit-margin-top="0" fit-margin-left="0" fit-margin-right="0" fit-margin-bottom="0"/>
    <g id="layer1" transform="translate(-57.578245 -21.229356)" inkscape:label="Layer 1" inkscape:groupmode="layer"/>
    <g id="layer2" opacity=".393" transform="translate(-57.578245 -21.229356)" inkscape:groupmode="layer" inkscape:label="Layer 2">
        <path id="path4884-9" d="m110.71484 145.29181-.46996 7.28454s5.95296 2.89815 6.3446 2.81983c.39164-.0783 3.36812-1.25326 2.89815-1.0966-.46998.15666-2.03654 0-2.03654 0s2.42819-2.03654 1.80156-1.87988c-.62663.15665-1.87989-.15666-1.87989-.15666l-2.27153-3.05481s2.11487.62662 2.50652.62662c.39164 0 1.48824 1.72323 1.48824 1.72323l.46997 1.25326s.46997-3.52478.15665-3.75977c-.31331-.23498-3.75976-2.74149-3.75976-2.74149z" fill="#2a1811" opacity=".393" inkscape:connector-curvature="0"/>
        <path id="path4878" d="m60.376721 97.81698s-.276927-3.489359 3.212425-4.92941c3.489351-1.440049 8.861855.276933 12.738915 2.270849 3.87706 1.993921 5.26172 1.384666 5.53866 1.550824.27692.166162 5.87097 3.157038 5.87097 3.157038l14.400519 7.532579 31.37022 23.01054 13.00252 14.41244 3.60311 11.90592s-47.15372-11.43595-52.323404-16.13566c-5.16968-4.69971-8.302815-7.04956-8.616135-7.36287-.31331-.31332-11.43595-15.82235-12.84586-18.01554-1.40992-2.1932-6.10962-5.79631-6.736253-7.51953-.626628-1.72323-7.206217-5.16968-7.206217-5.16968-.200811-.99496-3.16973-4.25181-2.00947-4.7075z" fill="#d3d0c6" inkscape:connector-curvature="0" sodipodi:nodetypes="cssccccccsccscc"/>
        <ellipse id="path4512-2" cx="67.85392" cy="95.989227" fill="#9b8c74" rx="2.350999" ry="2.293062"/>
        <ellipse id="path4512" cx="67.85392" cy="95.989235" rx="1.499209" ry="1.462264"/>
        <ellipse id="path4512-3" cx="68.455307" cy="95.772339" fill="#fff" rx=".340355" ry=".331967"/>
        <path id="path4880" d="m60.376721 97.81698 5.299264 1.417701-2.428183 1.409909 1.723235.70496s-2.584846 1.17493-2.584846 1.17493l-2.036538.31331-2.584834.86162s-.548297-2.58485.234983-3.21147c.78328-.626629 2.376919-2.67096 2.376919-2.67096z" fill="#c5a18b" inkscape:connector-curvature="0"/>
        <path id="path4901" d="m120.34924 150.2265s7.48834 11.94968 8.48529 11.8389c.99696-.11076 6.09253.88619 6.09253.88619l2.32623 4.20938 5.76021.88618 3.43397 3.43397s4.65247 0 4.0986-.22154c-.55386-.22155-3.10165-4.09861-3.10165-4.09861l6.31408 5.7602s2.76933.22155 2.437-.22155c-.33232-.44309-2.10468-4.98479-2.54778-5.42788s-2.8801-3.76628-2.76933-4.0986c.11078-.33232 3.98783 3.21242 3.98783 3.21242l3.3232 6.42484.99695-.11078-1.88313-4.65247 3.65551 4.65247s3.32319 0 2.76933-.33232c-.55387-.33232-5.53866-7.20025-4.87402-6.86793.66463.33232 6.53561 6.9787 6.53561 6.9787s4.65247-1.10773 3.98784-1.2185c-.66464-.11078-9.08341-8.30799-9.08341-8.30799s-10.41267-12.18504-10.85576-12.29582c-.44309-.11076-15.92991-20.24636-15.92991-20.24636l-16.63739 7.83978z" fill="url(#linearGradient4525)" inkscape:connector-curvature="0"/>
        <path id="path4905" d="m87.626921 100.36476c-1.10773-.664639-2.21546-5.981753-2.21546-5.981753s-4.65248-3.766285-3.76629-7.089479c.88618-3.323194 4.43092-6.867935 4.43092-6.867935l3.32319-15.729786s6.343135-25.19167 10.412685-23.926998c2.642814.821295-4.43093 19.939165-4.43093 19.939165s13.584604-21.28974 16.172884-19.496073c1.73108 1.199631-7.19699 17.021052-7.19699 17.021052s12.44921-14.006561 14.06493-12.590126c1.92902 2.043061-7.89965 14.292995-5.76021 15.729785.8862-.443092 11.29887-8.640305 11.29887-6.203296 0 2.43701-7.53258 11.9635-7.53258 11.9635s12.40659-5.760204 11.52041-3.323194c-.88618 2.437009-7.08948 9.304943-7.08948 9.304943s8.64031-2.215463 7.53258-.221546c-1.10774 1.993917-1.55083 2.215463-1.55083 2.215463l-4.20938 5.317111 1.77237 2.215463-17.50216 29.022564z" fill="url(#linearGradient4509)" inkscape:connector-curvature="0" sodipodi:nodetypes="ccsccscscccscscsccccc"/>
        <path id="path4884" d="m115.96285 146.31008-.46996 7.28454s5.95296 2.89816 6.3446 2.81983c.39164-.0783 3.36812-1.25326 2.89815-1.0966s-2.03653 0-2.03653 0 2.42818-2.03654 1.80155-1.87988c-.62663.15665-1.87989-.15666-1.87989-.15666l-2.27153-3.05481s2.11487.62663 2.50652.62663c.39164 0 1.48824 1.72322 1.48824 1.72322l.46997 1.25326s.46997-3.52478.15666-3.75977c-.31332-.23498-3.75976-2.74149-3.75976-2.74149z" fill="#969696" inkscape:connector-curvature="0"/>
        <path id="path4903" d="m102.13821 107.39886s-4.541704 8.91723-2.769334 9.13878c1.772374.22155 6.646394 10.63422 6.646394 10.63422l17.94525 5.09557 8.19722-8.41876s1.32926-4.20938 1.32926-3.32319c0 .88618 1.59736 2.36059 3.10166 1.77236 1.5043-.58822.44308-7.75412.44308-7.75412s2.11909 3.18228 4.20939 1.55083c2.0903-1.63146 7.97567-11.07731 7.97567-11.07731v-4.43094l3.76628 1.99392 1.32928-6.424841s2.30512 1.381411 3.98783.443092c1.68271-.938321 1.55083-7.089479 1.55083-7.089479l-1.77238-2.658557s4.66918.140011 5.98175-1.107731c1.31258-1.247741 1.10773-4.652472 1.10773-4.652472l-1.32927-2.658556 3.76628-.664639v-5.981749l-1.99391-1.329278 10.41268-6.424842c1.69177-.916628 1.8768-3.749558-2.65856-3.101648 4.61194-4.848287 9.78792-9.91306 8.22408-12.860818-1.23401-2.645306-5.75984 7.60813-7.53257 4.981531-1.77271-2.6266 11.96036-13.966159 10.38581-16.269258-1.57456-2.303099-11.74762 15.027224-12.18505 11.741953-.43744-3.285271 15.69739-17.842729 13.29278-19.939166-1.6965-.338261-12.84969 13.071231-12.84969 13.071231.40322-6.459967 14.21687-14.274398 11.74196-18.166796-5.36466-.502404-13.02946 17.099292-14.17897 14.622055s11.47605-14.43434 8.41877-16.837516c-1.84754-1.236469-14.84361 24.370091-14.84361 24.370091l-26.36401 26.364007s-11.74195 7.532574-12.18505 8.640305c-.44309 1.107732-10.08035 14.455895-16.61596 20.603801z" fill="url(#linearGradient4501)" inkscape:connector-curvature="0" sodipodi:nodetypes="cccccszczcccczcczcccccccczzzccczccccsc"/>
    </g>
</svg>
