<svg width="32" height="32" viewBox="0 0 32 32" fill="none" xmlns="http://www.w3.org/2000/svg">
<g id="Email Icons">
<rect x="-257" y="-120" width="375" height="253" rx="10" fill="white"/>
<g id="Group 7 Copy 3">
<path id="facebook_icon" fill-rule="evenodd" clip-rule="evenodd" d="M16.035 0C7.194 0 0 7.192 0 16.034C0 24.876 7.194 32.068 16.035 32.068C24.876 32.068 32.07 24.876 32.07 16.034C32.07 7.192 24.876 0 16.035 0ZM16.035 31C7.783 31 1.07 24.286 1.07 16.034C1.07 7.782 7.783 1.068 16.035 1.068C24.287 1.068 31 7.782 31 16.034C31 24.286 24.287 31 16.035 31Z" fill="black"/>
<g id="Discord-Logo-Black Copy">
<path id="Shape" fill-rule="evenodd" clip-rule="evenodd" d="M11.88 17.25C11.88 16.335 12.555 15.585 13.41 15.585C14.265 15.585 14.955 16.335 14.94 17.25C14.94 18.165 14.265 18.915 13.41 18.915C12.57 18.915 11.88 18.165 11.88 17.25ZM17.355 17.25C17.355 16.335 18.03 15.585 18.885 15.585C19.74 15.585 20.415 16.335 20.415 17.25C20.415 18.165 19.74 18.915 18.885 18.915C18.045 18.915 17.355 18.165 17.355 17.25Z" fill="black"/>
<path id="Shape_2" fill-rule="evenodd" clip-rule="evenodd" d="M14.1355 22.0869C15.5368 22.3485 16.9538 22.373 18.3943 22.1029C18.4818 22.088 18.5695 22.0718 18.6574 22.0544C18.6888 22.094 18.7036 22.1126 18.7568 22.1792L18.8116 22.2477C18.9884 22.4679 19.1771 22.6992 19.3658 22.9278C19.479 23.065 19.5673 23.171 19.6183 23.232C19.8154 23.4674 20.1098 23.5992 20.4167 23.5895C22.0448 23.5379 23.3932 23.0466 24.4625 22.2561C25.1605 21.74 25.6066 21.21 25.8377 20.8157C25.9276 20.6624 25.975 20.4878 25.975 20.31C25.975 18.0767 25.5496 15.8785 24.8414 13.8033C24.5939 13.078 24.3284 12.4186 24.0618 11.8361C23.8992 11.4806 23.7698 11.2255 23.6906 11.0819C23.6222 10.958 23.5283 10.85 23.415 10.765C22.3806 9.98919 21.2896 9.49072 20.2055 9.21615C19.5236 9.04344 18.9677 8.98586 18.5932 8.99001L18.5781 8.99026C18.2975 8.9964 18.0323 9.12024 17.8474 9.33151L17.6374 9.57151C17.6059 9.6076 17.5774 9.64504 17.5521 9.68357C16.6429 9.59442 15.7336 9.59862 14.856 9.68656C14.8258 9.6324 14.79 9.57992 14.7482 9.52983L14.5982 9.34983C14.4131 9.12772 14.141 8.99658 13.8519 8.99026L13.8369 8.99001C13.4623 8.98586 12.9065 9.04344 12.2246 9.21615C11.1405 9.49072 10.0495 9.98919 9.01502 10.765C8.90176 10.85 8.80783 10.958 8.73944 11.0819C8.66025 11.2255 8.53087 11.4806 8.36821 11.8361C8.10165 12.4186 7.83609 13.078 7.5886 13.8033C6.88048 15.8785 6.45502 18.0767 6.45502 20.31C6.45502 20.4861 6.50149 20.659 6.58973 20.8113C6.81877 21.2067 7.26212 21.7377 7.95788 22.2547C9.02309 23.0461 10.3696 23.5379 11.9984 23.5895C12.3084 23.5993 12.6054 23.4647 12.8024 23.2251C12.8524 23.1643 12.9392 23.0583 13.0506 22.9216C13.2364 22.6935 13.4222 22.4638 13.5959 22.2464L13.6307 22.2029C13.7109 22.1023 13.7238 22.0861 13.7813 22.0134C13.8983 22.0394 14.0163 22.0639 14.1355 22.0869ZM13.83 9.99002L13.98 10.17C11.288 10.9477 10.0423 12.1281 10.0351 12.135C10.0391 12.1328 10.3684 11.9534 10.92 11.7C12.525 10.995 13.8 10.8 14.325 10.755C14.3364 10.7531 14.3476 10.7512 14.3586 10.7493C14.4343 10.7364 14.5014 10.725 14.58 10.725C15.495 10.605 16.53 10.575 17.61 10.695C19.035 10.86 20.565 11.28 22.125 12.135C22.125 12.135 20.94 11.01 18.39 10.23L18.6 9.99002C18.6 9.99002 20.655 9.94502 22.815 11.565C22.815 11.565 24.975 15.48 24.975 20.31C24.975 20.31 23.7 22.485 20.385 22.59C20.385 22.59 19.845 21.945 19.395 21.375C21.36 20.82 22.11 19.59 22.11 19.59C21.495 19.995 20.91 20.28 20.385 20.475C19.635 20.79 18.915 21 18.21 21.12C16.77 21.39 15.45 21.315 14.325 21.105C13.47 20.94 12.735 20.7 12.12 20.46C11.775 20.325 10.92 19.9139 10.41 19.575C10.41 19.575 11.13 20.775 13.035 21.345C12.585 21.915 12.03 22.59 12.03 22.59C8.71502 22.485 7.45502 20.31 7.45502 20.31C7.45502 15.48 9.61502 11.565 9.61502 11.565C11.775 9.94502 13.83 9.99002 13.83 9.99002Z" fill="black"/>
</g>
</g>
</g>
</svg>
