<svg width="32" height="32" viewBox="0 0 32 32" fill="none" xmlns="http://www.w3.org/2000/svg">
<g id="Email Icons">
<rect x="-209" y="-120" width="375" height="253" rx="10" fill="white"/>
<g id="Group 7 Copy 2">
<path id="facebook_icon" fill-rule="evenodd" clip-rule="evenodd" d="M16.035 0C7.194 0 0 7.192 0 16.034C0 24.876 7.194 32.068 16.035 32.068C24.876 32.068 32.07 24.876 32.07 16.034C32.07 7.192 24.876 0 16.035 0ZM16.035 31C7.783 31 1.07 24.286 1.07 16.034C1.07 7.782 7.783 1.068 16.035 1.068C24.287 1.068 31 7.782 31 16.034C31 24.286 24.287 31 16.035 31Z" fill="black"/>
<g id="envelope2">
<path id="Shape" fill-rule="evenodd" clip-rule="evenodd" d="M23.5 10H8.5C7.673 10 7 10.673 7 11.5V20.5C7 21.327 7.673 22 8.5 22H23.5C24.327 22 25 21.327 25 20.5V11.5C25 10.673 24.327 10 23.5 10ZM23.587 11.008L16.555 16.029C16.265 16.222 15.736 16.222 15.446 16.029L8.414 11.008C8.442 11.003 8.471 11 8.501 11H23.501C23.53 11 23.558 11.003 23.587 11.008ZM8 20.5C8 20.776 8.224 21 8.5 21H23.5C23.776 21 24 20.776 24 20.5V11.934L17.109 16.861C16.798 17.068 16.399 17.172 16 17.172C15.601 17.172 15.202 17.068 14.891 16.861L8 11.934V20.5Z" fill="black"/>
</g>
</g>
</g>
</svg>
