<svg width="32" height="32" viewBox="0 0 32 32" fill="none" xmlns="http://www.w3.org/2000/svg">
<g id="Email Icons">
<rect x="-85" y="-120" width="375" height="253" rx="10" fill="white"/>
<g id="Group 8">
<path id="facebook_icon" fill-rule="evenodd" clip-rule="evenodd" d="M16.035 0C7.194 0 0 7.192 0 16.034C0 24.876 7.194 32.068 16.035 32.068C24.876 32.068 32.07 24.876 32.07 16.034C32.07 7.192 24.876 0 16.035 0ZM16.035 31C7.783 31 1.07 24.286 1.07 16.034C1.07 7.782 7.783 1.068 16.035 1.068C24.287 1.068 31 7.782 31 16.034C31 24.286 24.287 31 16.035 31Z" fill="black"/>
<g id="Group 264">
<path id="Oval 2" fill-rule="evenodd" clip-rule="evenodd" d="M21 12C21.5523 12 22 11.5523 22 11C22 10.4477 21.5523 10 21 10C20.4477 10 20 10.4477 20 11C20 11.5523 20.4477 12 21 12Z" fill="black"/>
<path id="Rectangle 3" fill-rule="evenodd" clip-rule="evenodd" d="M20 7H12C9.23858 7 7 9.23858 7 12V20C7 22.7614 9.23858 25 12 25H20C22.7614 25 25 22.7614 25 20V12C25 9.23858 22.7614 7 20 7ZM8 12C8 9.79086 9.79086 8 12 8H20C22.2091 8 24 9.79086 24 12V20C24 22.2091 22.2091 24 20 24H12C9.79086 24 8 22.2091 8 20V12Z" fill="black"/>
<path id="Oval 2_2" fill-rule="evenodd" clip-rule="evenodd" d="M11.5 16C11.5 18.4853 13.5147 20.5 16 20.5C18.4853 20.5 20.5 18.4853 20.5 16C20.5 13.5147 18.4853 11.5 16 11.5C13.5147 11.5 11.5 13.5147 11.5 16ZM19.5 16C19.5 17.933 17.933 19.5 16 19.5C14.067 19.5 12.5 17.933 12.5 16C12.5 14.067 14.067 12.5 16 12.5C17.933 12.5 19.5 14.067 19.5 16Z" fill="black"/>
</g>
</g>
</g>
</svg>
