<svg width="32" height="32" viewBox="0 0 32 32" fill="none" xmlns="http://www.w3.org/2000/svg">
<g id="Email Icons">
<rect x="-43" y="-120" width="375" height="253" rx="10" fill="white"/>
<g id="Group 7 Copy">
<path id="facebook_icon" fill-rule="evenodd" clip-rule="evenodd" d="M16.035 0C7.194 0 0 7.192 0 16.034C0 24.876 7.194 32.068 16.035 32.068C24.876 32.068 32.07 24.876 32.07 16.034C32.07 7.192 24.876 0 16.035 0ZM16.035 31C7.783 31 1.07 24.286 1.07 16.034C1.07 7.782 7.783 1.068 16.035 1.068C24.287 1.068 31 7.782 31 16.034C31 24.286 24.287 31 16.035 31Z" fill="black"/>
<g id="reddit">
<path id="Oval" fill-rule="evenodd" clip-rule="evenodd" d="M7.3421 18.6053C7.3421 22.183 11.3665 25 16.2632 25C21.1598 25 25.1842 22.183 25.1842 18.6053C25.1842 15.0276 21.1598 12.2105 16.2632 12.2105C11.3665 12.2105 7.3421 15.0276 7.3421 18.6053ZM24.1842 18.6053C24.1842 21.5387 20.6681 24 16.2632 24C11.8582 24 8.3421 21.5387 8.3421 18.6053C8.3421 15.6718 11.8582 13.2105 16.2632 13.2105C20.6681 13.2105 24.1842 15.6718 24.1842 18.6053Z" fill="black"/>
<path id="Path" d="M16.7584 12.3585C16.7203 12.632 16.4677 12.8228 16.1942 12.7847C15.9207 12.7466 15.7299 12.494 15.768 12.2205C15.8491 11.6383 15.9135 11.0971 15.9739 10.5144C16.0013 10.2508 16.0816 9.42315 16.0982 9.26521C16.1906 8.38458 16.2747 7.99645 16.5026 7.68094C16.7932 7.2785 17.2092 7.16936 17.8681 7.21675C18.1846 7.23951 19.7945 7.47042 20.062 7.50386C20.3361 7.53811 20.5304 7.78801 20.4962 8.06202C20.4619 8.33603 20.212 8.53039 19.938 8.49614C16.8528 8.11048 17.3976 8.14967 17.3133 8.26643C17.2296 8.38224 17.1651 8.6801 17.0927 9.36965C17.0766 9.52256 16.9964 10.3494 16.9686 10.6176C16.907 11.2112 16.8412 11.7638 16.7584 12.3585Z" fill="black"/>
<path id="Oval_2" fill-rule="evenodd" clip-rule="evenodd" d="M19.5 8.5C19.5 9.60457 20.3954 10.5 21.5 10.5C22.6046 10.5 23.5 9.60457 23.5 8.5C23.5 7.39543 22.6046 6.5 21.5 6.5C20.3954 6.5 19.5 7.39543 19.5 8.5ZM22.5 8.5C22.5 9.05228 22.0523 9.5 21.5 9.5C20.9477 9.5 20.5 9.05228 20.5 8.5C20.5 7.94772 20.9477 7.5 21.5 7.5C22.0523 7.5 22.5 7.94772 22.5 8.5Z" fill="black"/>
<path id="Path_2" d="M8.0776 16.8911C8.28974 17.0679 8.3184 17.3831 8.14162 17.5953C7.96484 17.8074 7.64956 17.8361 7.43742 17.6593C6.33207 16.7382 6.18272 15.0954 7.10385 13.99C8.02498 12.8847 9.66776 12.7353 10.7731 13.6565C10.9853 13.8332 11.0139 14.1485 10.8371 14.3607C10.6604 14.5728 10.3451 14.6015 10.1329 14.4247C9.45186 13.8571 8.43963 13.9491 7.87207 14.6302C7.30451 15.3113 7.39653 16.3235 8.0776 16.8911Z" fill="black"/>
<path id="Path_3" d="M22.4425 14.3954C22.2276 14.5687 21.9128 14.535 21.7394 14.3201C21.5661 14.1052 21.5998 13.7904 21.8147 13.617C22.9347 12.7137 24.5749 12.8893 25.4782 14.0093C26.3815 15.1292 26.2059 16.7694 25.0859 17.6727C24.871 17.8461 24.5562 17.8124 24.3828 17.5974C24.2095 17.3825 24.2432 17.0677 24.4581 16.8944C25.1482 16.3378 25.2564 15.3272 24.6998 14.6371C24.1432 13.947 23.1326 13.8388 22.4425 14.3954Z" fill="black"/>
<path id="Oval_3" fill-rule="evenodd" clip-rule="evenodd" d="M11.5526 17.3421C11.5526 18.0833 12.1535 18.6842 12.8947 18.6842C13.6359 18.6842 14.2368 18.0833 14.2368 17.3421C14.2368 16.6009 13.6359 16 12.8947 16C12.1535 16 11.5526 16.6009 11.5526 17.3421ZM13.2368 17.3421C13.2368 17.531 13.0837 17.6842 12.8947 17.6842C12.7058 17.6842 12.5526 17.531 12.5526 17.3421C12.5526 17.1532 12.7058 17 12.8947 17C13.0837 17 13.2368 17.1532 13.2368 17.3421Z" fill="black"/>
<path id="Oval_4" fill-rule="evenodd" clip-rule="evenodd" d="M17.8684 17.3421C17.8684 18.0833 18.4693 18.6842 19.2105 18.6842C19.9517 18.6842 20.5526 18.0833 20.5526 17.3421C20.5526 16.6009 19.9517 16 19.2105 16C18.4693 16 17.8684 16.6009 17.8684 17.3421ZM19.5526 17.3421C19.5526 17.531 19.3995 17.6842 19.2105 17.6842C19.0216 17.6842 18.8684 17.531 18.8684 17.3421C18.8684 17.1532 19.0216 17 19.2105 17C19.3995 17 19.5526 17.1532 19.5526 17.3421Z" fill="black"/>
<path id="Path_4" d="M12.5804 20.6783C12.3656 20.5047 12.3323 20.1899 12.5059 19.9751C12.6795 19.7604 12.9944 19.727 13.2091 19.9007C13.3656 20.0272 13.669 20.2294 14.0829 20.4337C15.4699 21.1182 16.9009 21.2214 18.2341 20.3971C18.4532 20.2616 18.6684 20.1013 18.8794 19.9148C19.0863 19.732 19.4023 19.7515 19.5852 19.9584C19.768 20.1653 19.7485 20.4813 19.5416 20.6641C19.2885 20.8878 19.0278 21.0821 18.76 21.2476C17.0879 22.2814 15.3072 22.153 13.6403 21.3304C13.1537 21.0903 12.7904 20.8481 12.5804 20.6783Z" fill="black"/>
</g>
</g>
</g>
</svg>
