<?xml version="1.0" encoding="iso-8859-1"?>
<!-- Generator: Adobe Illustrator 19.0.0, SVG Export Plug-In . SVG Version: 6.00 Build 0)  -->
<svg version="1.1" id="Capa_1" xmlns="http://www.w3.org/2000/svg" xmlns:xlink="http://www.w3.org/1999/xlink" x="0px" y="0px" style="enable-background:new 0 0 511.999 511.999;" xml:space="preserve">
<g>
	<g>
		<path d="M370.411,141.564c-2.93-2.929-7.681-2.929-10.612,0L177.82,323.544c-2.931,2.931-2.931,7.681,0,10.613
			c1.465,1.465,3.385,2.197,5.306,2.197c1.921,0,3.841-0.733,5.306-2.197l181.979-181.98
			C373.342,149.246,373.342,144.495,370.411,141.564z"/>
	</g>
</g>
<g>
	<g>
		<path d="M440.789,71.186c-2.93-2.929-7.681-2.929-10.612,0l-45.303,45.303c-2.931,2.931-2.931,7.681,0,10.613
			c1.465,1.465,3.385,2.197,5.306,2.197c1.921,0,3.841-0.732,5.306-2.197l45.303-45.303C443.72,78.868,443.72,74.118,440.789,71.186
			z"/>
	</g>
</g>
<g>
	<g>
		<g>
			<path d="M494.404,46.836l-29.265-29.265c-23.423-23.421-61.535-23.421-84.957,0L119.65,278.105
				c-14.485,14.485-21.725,34.492-19.864,54.892c1.455,15.95-4.206,31.592-15.53,42.916l-73.544,73.544
				c-14.283,14.283-14.283,37.524,0,51.808c0.432,0.432,0.874,0.853,1.324,1.261c6.747,6.119,15.406,9.468,24.58,9.468
				c1.223,0,2.437-0.06,3.639-0.177c8.411-0.824,16.211-4.498,22.265-10.551l73.544-73.544
				c11.324-11.325,26.969-16.988,42.917-15.531c20.401,1.863,40.407-5.379,54.892-19.863l13.198-13.198
				c2.931-2.931,2.931-7.681,0-10.613c-2.93-2.929-7.681-2.929-10.612,0l-13.198,13.198c-11.325,11.325-26.969,16.991-42.917,15.531
				c-20.401-1.86-40.407,5.379-54.892,19.863l-42.054,42.054L52.813,428.58l42.054-42.054
				c14.485-14.484,21.725-34.491,19.864-54.893c-1.455-15.949,4.206-31.591,15.53-42.916l55.69-55.69l19.598,19.598
				c1.465,1.465,3.385,2.197,5.306,2.197c1.921,0,3.841-0.733,5.306-2.197c2.931-2.931,2.931-7.681,0-10.613l-19.598-19.598
				l32.133-32.133l8.655,8.655c1.465,1.465,3.385,2.197,5.306,2.197c1.921,0,3.841-0.733,5.306-2.197
				c2.931-2.931,2.931-7.681,0-10.613l-8.655-8.655l32.133-32.133l19.599,19.598c1.465,1.465,3.385,2.197,5.306,2.197
				c1.92,0,3.841-0.733,5.306-2.197c2.931-2.931,2.931-7.681,0-10.613l-19.598-19.598l32.133-32.133l8.655,8.655
				c1.465,1.466,3.385,2.198,5.306,2.198c1.92,0,3.841-0.733,5.306-2.197c2.931-2.931,2.931-7.681,0-10.612l-8.655-8.655
				l32.133-32.133l19.599,19.599c1.465,1.465,3.385,2.197,5.306,2.197c1.92,0,3.841-0.733,5.306-2.197
				c2.931-2.931,2.931-7.681,0-10.613l-19.598-19.598l23.251-23.251c17.572-17.571,46.163-17.571,63.734,0l29.265,29.265
				c8.512,8.511,13.2,19.829,13.2,31.866c0,12.038-4.688,23.355-13.2,31.867L261.719,343.255c-2.931,2.931-2.931,7.681,0,10.613
				c2.93,2.929,7.681,2.929,10.612,0l222.073-222.072c11.346-11.349,17.595-26.434,17.595-42.481
				C511.999,73.269,505.75,58.183,494.404,46.836z M72.784,469.775l-20.878,20.878c-4.084,4.084-9.515,6.334-15.291,6.334
				c-5.777,0-11.207-2.25-15.292-6.335c-2.108-2.108-3.689-4.546-4.743-7.15c-2.03-5.016-2.085-10.64-0.203-15.701
				c1.048-2.82,2.683-5.469,4.946-7.732l20.878-20.878L72.784,469.775z"/>
			<path d="M380.182,17.571c-0.018,0.018,0.037-0.037,0.018-0.019C380.181,17.571,380.2,17.553,380.182,17.571z"/>
		</g>
	</g>
</g>
<g>
</g>
<g>
</g>
<g>
</g>
<g>
</g>
<g>
</g>
<g>
</g>
<g>
</g>
<g>
</g>
<g>
</g>
<g>
</g>
<g>
</g>
<g>
</g>
<g>
</g>
<g>
</g>
<g>
</g>
</svg>
