<?xml version="1.0" encoding="utf-8"?>
<!-- Generator: Adobe Illustrator 24.3.0, SVG Export Plug-In . SVG Version: 6.00 Build 0)  -->
<svg version="1.1" xmlns="http://www.w3.org/2000/svg" xmlns:xlink="http://www.w3.org/1999/xlink" x="0px" y="0px"
	 viewBox="0 0 1920 1080" style="enable-background:new 0 0 1920 1080;" xml:space="preserve">
<g id="Nachthimmel_1">
	<linearGradient id="SVGID_1_" gradientUnits="userSpaceOnUse" x1="960.0133" y1="-9.094947e-13" x2="960.0133" y2="2172">
		<stop  offset="6.781637e-02" style="stop-color:#002742"/>
		<stop  offset="0.1545" style="stop-color:#072D47"/>
		<stop  offset="0.2798" style="stop-color:#1A3C54"/>
		<stop  offset="0.4284" style="stop-color:#3A566A"/>
		<stop  offset="0.595" style="stop-color:#657A89"/>
		<stop  offset="0.7749" style="stop-color:#9DA8B0"/>
		<stop  offset="0.9548" style="stop-color:#DCDCDC"/>
	</linearGradient>
	<rect x="0" style="fill:url(#SVGID_1_);" width="1920" height="2172"/>
</g>
<g id="Nachthimmel_3" style="display:none;">
	<linearGradient id="SVGID_2_" gradientUnits="userSpaceOnUse" x1="960.0133" y1="-9.094947e-13" x2="960.0133" y2="2172">
		<stop  offset="6.781637e-02" style="stop-color:#002742"/>
		<stop  offset="0.1501" style="stop-color:#072D47"/>
		<stop  offset="0.2689" style="stop-color:#1A3D55"/>
		<stop  offset="0.4099" style="stop-color:#3A576C"/>
		<stop  offset="0.5681" style="stop-color:#657C8B"/>
		<stop  offset="0.7404" style="stop-color:#9EABB4"/>
		<stop  offset="0.922" style="stop-color:#E1E3E5"/>
		<stop  offset="0.9548" style="stop-color:#EEEEEE"/>
	</linearGradient>
	<rect x="0" style="display:inline;fill:url(#SVGID_2_);" width="1920" height="2172"/>
</g>
<g id="N_Woken">
	<path style="fill:#0E2236;" d="M1872,117.6H460.8c-21.2,0-38.4,17.2-38.4,38.4v0c0,21.2,17.2,38.4,38.4,38.4l931,0
		c16,0,29,13,29,29v0c0,15.8-12.7,28.8-28.6,29c-166.8,2.5-1013.9,15.4-1201.7,18.2c-20.5,0.3-36.9,17-36.9,37.5l0,1.2
		c0,21.4,17.3,38.7,38.7,38.7h114.9c10.6,0,19.2,8.6,19.2,19.2v0c0,10.6-8.6,19.2-19.2,19.2H288c-10.6,0-19.2,8.6-19.2,19.2v0
		c0,10.6,8.6,19.2,19.2,19.2h1190.4c10.6,0,19.2,8.6,19.2,19.2v0c0,10.6-8.6,19.2-19.2,19.2h-249.6c-10.6,0-19.2,8.6-19.2,19.2v0
		c0,10.6,8.6,19.2,19.2,19.2h259.4c15.8,0,28.6,12.8,28.6,28.6v0c0,16-13.1,28.8-29,28.6L269.1,540.6c-21.3-0.3-38.7,16.8-38.7,38.1
		v0c0,21.1,17.1,38.1,38.1,38.1c105,0,397,0,489.9,0c15.9,0,28.8,12.9,28.8,28.8v0c0,15.9-12.9,28.8-28.8,28.8H249.6
		c-10.6,0-19.2,8.6-19.2,19.2v0c0,10.6,8.6,19.2,19.2,19.2h67.2c5.3,0,9.6,4.3,9.6,9.6v0c0,5.3-4.3,9.6-9.6,9.6H48.1
		c-5.3,0-9.7,4.3-9.7,9.7v0c0,5.3,4.3,9.6,9.5,9.7L1507.4,770c15.9,0.2,28.6,13.1,28.6,29v0c0,16-13,29-29,29H576
		c-10.6,0-19.2,8.6-19.2,19.2v0c0,10.6,8.6,19.2,19.2,19.2h979.2c10.6,0,19.2,8.6,19.2,19.2v0c0,10.6-8.6,19.2-19.2,19.2H172.8
		c-10.6,0-19.2,8.6-19.2,19.2l0,0c0,10.6,8.6,19.2,19.2,19.2h1113.6H1680c26.5,0,48-21.5,48-48v0c0-26.5-21.5-48-48-48h-76.8
		c-15.9,0-28.8-12.9-28.8-28.8v0c0-15.9,12.9-28.8,28.8-28.8h57.6c15.9,0,28.8-12.9,28.8-28.8v0c0-15.9-12.9-28.8-28.8-28.8H921.6
		c-10.6,0-19.2-8.6-19.2-19.2v0c0-10.6,8.6-19.2,19.2-19.2h115.2c10.6,0,19.2-8.6,19.2-19.2v0c0-10.6-8.6-19.2-19.2-19.2H931.2
		c-15.9,0-28.8-12.9-28.8-28.8v0c0-15.9,12.9-28.8,28.8-28.8h720c21.2,0,38.4-17.2,38.4-38.4v0c0-21.2-17.2-38.4-38.4-38.4h-76.8
		c-10.6,0-19.2-8.6-19.2-19.2v0c0-10.6,8.6-19.2,19.2-19.2h124.8c15.9,0,28.8-12.9,28.8-28.8v0c0-15.9-12.9-28.8-28.8-28.8h-105.6
		c-10.6,0-19.2-8.6-19.2-19.2v0c0-10.6-8.6-19.2-19.2-19.2H806.4c-10.6,0-19.2-8.6-19.2-19.2v0c0-10.6,8.6-19.2,19.2-19.2h134.4
		c10.6,0,19.2-8.6,19.2-19.2v0c0-10.6-8.6-19.2-19.2-19.2l-124.8,0c-5.3,0-9.6-4.3-9.6-9.6l0,0c0-5.3,4.3-9.6,9.6-9.6
		c82.4,0,671.3,0,807.3,0c15.4,0,27.9-12.5,27.9-28v-0.7c0-16.1-12.9-28.9-28.8-28.9c-27.4,0-68.6,0-96,0
		c-15.9,0-28.8-12.9-28.8-28.8v0c0-15.9,12.9-28.8,28.8-28.8h240c10.6,0,19.2-8.6,19.2-19.2v0c0-10.6,8.6-19.2,19.2-19.2h67.2
		c5.3,0,9.6-4.3,9.6-9.6v0C1881.6,121.9,1877.3,117.6,1872,117.6z"/>
</g>
</svg>
